<?xml version="1.0" encoding="UTF-8" standalone="no"?><svg xmlns="http://www.w3.org/2000/svg" xmlns:xlink="http://www.w3.org/1999/xlink" contentScriptType="application/ecmascript" contentStyleType="text/css" height="2010px" preserveAspectRatio="none" style="width:1083px;height:2010px;" version="1.1" viewBox="0 0 1083 2010" width="1083px" zoomAndPan="magnify"><defs><filter height="300%" id="flpm8kfvvr22d" width="300%" x="-1" y="-1"><feGaussianBlur result="blurOut" stdDeviation="2.0"/><feColorMatrix in="blurOut" result="blurOut2" type="matrix" values="0 0 0 0 0 0 0 0 0 0 0 0 0 0 0 0 0 0 .4 0"/><feOffset dx="4.0" dy="4.0" in="blurOut2" result="blurOut3"/><feBlend in="SourceGraphic" in2="blurOut3" mode="normal"/></filter></defs><g><text fill="#000000" font-family="sans-serif" font-size="18" lengthAdjust="spacingAndGlyphs" textLength="306" x="381.25" y="16.708">Secuencia versiones Mastermind</text><ellipse cx="495.5" cy="36.9531" fill="#000000" filter="url(#flpm8kfvvr22d)" rx="10" ry="10" style="stroke: none; stroke-width: 1.0;"/><g id="domainModel"><rect fill="#FEFECE" filter="url(#flpm8kfvvr22d)" height="50" rx="12.5" ry="12.5" style="stroke: #A80036; stroke-width: 1.5;" width="116" x="437.5" y="109.4531"/><line style="stroke: #A80036; stroke-width: 1.5;" x1="437.5" x2="553.5" y1="135.75" y2="135.75"/><text fill="#000000" font-family="sans-serif" font-size="14" lengthAdjust="spacingAndGlyphs" textLength="96" x="447.5" y="127.4482">domainModel</text></g><path d="M588.5,106.9531 L588.5,130.4531 L553.578,134.4531 L588.5,138.4531 L588.5,162.3516 A0,0 0 0 0 588.5,162.3516 L1074.5,162.3516 A0,0 0 0 0 1074.5,162.3516 L1074.5,116.9531 L1064.5,106.9531 L588.5,106.9531 A0,0 0 0 0 588.5,106.9531 " fill="#FBFB77" filter="url(#flpm8kfvvr22d)" style="stroke: #A80036; stroke-width: 1.0;"/><path d="M1064.5,106.9531 L1064.5,116.9531 L1074.5,116.9531 L1064.5,106.9531 " fill="#FBFB77" style="stroke: #A80036; stroke-width: 1.0;"/><text fill="#000000" font-family="sans-serif" font-size="13" lengthAdjust="spacingAndGlyphs" textLength="458" x="594.5" y="124.02">Clases del Modelo del Dominio pero acopladas a tecnologías de interfaz</text><text fill="#000000" font-family="sans-serif" font-size="13" lengthAdjust="spacingAndGlyphs" textLength="465" x="594.5" y="139.1528">ahora y todas con la Ley del Cambio Continuo y de granos grueso con el</text><text fill="#000000" font-family="sans-serif" font-size="13" lengthAdjust="spacingAndGlyphs" textLength="245" x="594.5" y="154.2856">advenimiento de nueva funcionalidad.</text><g id="modelViewController"><rect fill="#FEFECE" filter="url(#flpm8kfvvr22d)" height="50" rx="12.5" ry="12.5" style="stroke: #A80036; stroke-width: 1.5;" width="172" x="409.5" y="1868.9531"/><line style="stroke: #A80036; stroke-width: 1.5;" x1="409.5" x2="581.5" y1="1895.25" y2="1895.25"/><text fill="#000000" font-family="sans-serif" font-size="14" lengthAdjust="spacingAndGlyphs" textLength="152" x="419.5" y="1886.9482">modelViewController</text></g><path d="M616.5,1881.4531 L616.5,1889.9531 L581.789,1893.9531 L616.5,1897.9531 L616.5,1906.5859 A0,0 0 0 0 616.5,1906.5859 L750.5,1906.5859 A0,0 0 0 0 750.5,1906.5859 L750.5,1891.4531 L740.5,1881.4531 L616.5,1881.4531 A0,0 0 0 0 616.5,1881.4531 " fill="#FBFB77" filter="url(#flpm8kfvvr22d)" style="stroke: #A80036; stroke-width: 1.0;"/><path d="M740.5,1881.4531 L740.5,1891.4531 L750.5,1891.4531 L740.5,1881.4531 " fill="#FBFB77" style="stroke: #A80036; stroke-width: 1.0;"/><text fill="#000000" font-family="sans-serif" font-size="13" lengthAdjust="spacingAndGlyphs" textLength="113" x="622.5" y="1898.52">Baile de la Triada.</text><ellipse cx="495.5" cy="1988.9531" fill="none" filter="url(#flpm8kfvvr22d)" rx="10" ry="10" style="stroke: #000000; stroke-width: 1.0;"/><ellipse cx="496" cy="1989.4531" fill="#000000" rx="6" ry="6" style="stroke: none; stroke-width: 1.0;"/><rect fill="#FEFECE" filter="url(#flpm8kfvvr22d)" height="278.2969" rx="12.5" ry="12.5" style="stroke: #A80036; stroke-width: 1.5;" width="837" x="77" y="221.9531"/><rect fill="#FFFFFF" height="246" rx="12.5" ry="12.5" style="stroke: #FFFFFF; stroke-width: 1.0;" width="831" x="80" y="251.25"/><line style="stroke: #A80036; stroke-width: 1.5;" x1="77" x2="914" y1="248.25" y2="248.25"/><text fill="#000000" font-family="sans-serif" font-size="14" lengthAdjust="spacingAndGlyphs" textLength="107" x="442" y="239.9482">documentView</text><g id="documentView.console"><rect fill="#FEFECE" filter="url(#flpm8kfvvr22d)" height="50" rx="12.5" ry="12.5" style="stroke: #A80036; stroke-width: 1.5;" width="75" x="143.5" y="260.25"/><line style="stroke: #A80036; stroke-width: 1.5;" x1="143.5" x2="218.5" y1="286.5469" y2="286.5469"/><text fill="#000000" font-family="sans-serif" font-size="14" lengthAdjust="spacingAndGlyphs" textLength="55" x="153.5" y="278.2451">console</text></g><path d="M236.5,265.25 L236.5,281.25 L218.591,285.25 L236.5,289.25 L236.5,305.5156 A0,0 0 0 0 236.5,305.5156 L783.5,305.5156 A0,0 0 0 0 783.5,305.5156 L783.5,275.25 L773.5,265.25 L236.5,265.25 A0,0 0 0 0 236.5,265.25 " fill="#FBFB77" filter="url(#flpm8kfvvr22d)" style="stroke: #A80036; stroke-width: 1.0;"/><path d="M773.5,265.25 L773.5,275.25 L783.5,275.25 L773.5,265.25 " fill="#FBFB77" style="stroke: #A80036; stroke-width: 1.0;"/><text fill="#000000" font-family="sans-serif" font-size="13" lengthAdjust="spacingAndGlyphs" textLength="395" x="242.5" y="282.3169">Clases Vistas de Texto separadas de los Modelos del Dominio</text><text fill="#000000" font-family="sans-serif" font-size="13" lengthAdjust="spacingAndGlyphs" textLength="508" x="242.5" y="297.4497">pero con Modelos de grano gruesocon el advenimiento de nueva funcionalidad.</text><a href="https://github.com/SantaTecla-mastermind/solution.java.swing.socket.sql/tree/master/documentView/console" target="_top" title="https://github.com/SantaTecla-mastermind/solution.java.swing.socket.sql/tree/master/documentView/console" xlink:actuate="onRequest" xlink:href="https://github.com/SantaTecla-mastermind/solution.java.swing.socket.sql/tree/master/documentView/console" xlink:show="new" xlink:title="https://github.com/SantaTecla-mastermind/solution.java.swing.socket.sql/tree/master/documentView/console" xlink:type="simple"><text fill="#0000FF" font-family="sans-serif" font-size="13" lengthAdjust="spacingAndGlyphs" text-decoration="underline" textLength="18" x="750.5" y="297.4497">Git</text></a><g id="documentView.withoutFactoryMethod"><rect fill="#FEFECE" filter="url(#flpm8kfvvr22d)" height="50" rx="12.5" ry="12.5" style="stroke: #A80036; stroke-width: 1.5;" width="184" x="89" y="346.25"/><line style="stroke: #A80036; stroke-width: 1.5;" x1="89" x2="273" y1="372.5469" y2="372.5469"/><text fill="#000000" font-family="sans-serif" font-size="14" lengthAdjust="spacingAndGlyphs" textLength="164" x="99" y="364.2451">withoutFactoryMethod</text></g><path d="M291,351.25 L291,367.25 L273.033,371.25 L291,375.25 L291,391.5156 A0,0 0 0 0 291,391.5156 L905,391.5156 A0,0 0 0 0 905,391.5156 L905,361.25 L895,351.25 L291,351.25 A0,0 0 0 0 291,351.25 " fill="#FBFB77" filter="url(#flpm8kfvvr22d)" style="stroke: #A80036; stroke-width: 1.0;"/><path d="M895,351.25 L895,361.25 L905,361.25 L895,351.25 " fill="#FBFB77" style="stroke: #A80036; stroke-width: 1.0;"/><text fill="#000000" font-family="sans-serif" font-size="13" lengthAdjust="spacingAndGlyphs" textLength="593" x="297" y="368.3169">Clase Vistas de Interfaz Gráfica de Usuario pero con DRY en Vistas de tecnologías diferentes</text><text fill="#000000" font-family="sans-serif" font-size="13" lengthAdjust="spacingAndGlyphs" textLength="491" x="297" y="383.4497">y con Modelos de grano grueso con el advenimiento de nueva funcionalidad.</text><g id="documentView.withFactoryMethod"><rect fill="#FEFECE" filter="url(#flpm8kfvvr22d)" height="50" rx="12.5" ry="12.5" style="stroke: #A80036; stroke-width: 1.5;" width="160" x="101" y="432.25"/><line style="stroke: #A80036; stroke-width: 1.5;" x1="101" x2="261" y1="458.5469" y2="458.5469"/><text fill="#000000" font-family="sans-serif" font-size="14" lengthAdjust="spacingAndGlyphs" textLength="140" x="111" y="450.2451">withFactoryMethod</text></g><path d="M279.5,437.25 L279.5,453.25 L261.09,457.25 L279.5,461.25 L279.5,477.5156 A0,0 0 0 0 279.5,477.5156 L894.5,477.5156 A0,0 0 0 0 894.5,477.5156 L894.5,447.25 L884.5,437.25 L279.5,437.25 A0,0 0 0 0 279.5,437.25 " fill="#FBFB77" filter="url(#flpm8kfvvr22d)" style="stroke: #A80036; stroke-width: 1.0;"/><path d="M884.5,437.25 L884.5,447.25 L894.5,447.25 L884.5,437.25 " fill="#FBFB77" style="stroke: #A80036; stroke-width: 1.0;"/><text fill="#000000" font-family="sans-serif" font-size="13" lengthAdjust="spacingAndGlyphs" textLength="594" x="285.5" y="454.3169">Clase Vista abstracta para Open/Close de sus tecnologías pero con Modelos de grano grueso</text><text fill="#000000" font-family="sans-serif" font-size="13" lengthAdjust="spacingAndGlyphs" textLength="287" x="285.5" y="469.4497">con el advenimiento de nueva funcionalidad.</text><!--MD5=[f6ed7274a3634b57195ebd1d0906dde9]
link console to withoutFactoryMethod--><path d="M181,310.546 C181,320.036 181,331.003 181,340.927 " fill="none" id="console-to-withoutFactoryMethod" style="stroke: #A80036; stroke-width: 1.0;"/><polygon fill="#A80036" points="181,346.008,185,337.008,181,341.008,177,337.008,181,346.008" style="stroke: #A80036; stroke-width: 1.0;"/><!--MD5=[44919ee33113429d6b1c37cc254a4500]
link withoutFactoryMethod to withFactoryMethod--><path d="M181,396.5463 C181,406.0364 181,417.0027 181,426.9269 " fill="none" id="withoutFactoryMethod-to-withFactoryMethod" style="stroke: #A80036; stroke-width: 1.0;"/><polygon fill="#A80036" points="181,432.0083,185,423.0083,181,427.0083,177,423.0083,181,432.0083" style="stroke: #A80036; stroke-width: 1.0;"/><rect fill="#FEFECE" filter="url(#flpm8kfvvr22d)" height="1249.2969" rx="12.5" ry="12.5" style="stroke: #A80036; stroke-width: 1.5;" width="977" x="7" y="559.9531"/><rect fill="#FFFFFF" height="1217" rx="12.5" ry="12.5" style="stroke: #FFFFFF; stroke-width: 1.0;" width="971" x="10" y="589.25"/><line style="stroke: #A80036; stroke-width: 1.5;" x1="7" x2="984" y1="586.25" y2="586.25"/><text fill="#000000" font-family="sans-serif" font-size="14" lengthAdjust="spacingAndGlyphs" textLength="150" x="420.5" y="577.9482">modelViewPresenter</text><g id="modelViewPresenter.passiveView"><rect fill="#FEFECE" filter="url(#flpm8kfvvr22d)" height="50" rx="12.5" ry="12.5" style="stroke: #A80036; stroke-width: 1.5;" width="107" x="441" y="1655.25"/><line style="stroke: #A80036; stroke-width: 1.5;" x1="441" x2="548" y1="1681.5469" y2="1681.5469"/><text fill="#000000" font-family="sans-serif" font-size="14" lengthAdjust="spacingAndGlyphs" textLength="87" x="451" y="1673.2451">passiveView</text></g><path d="M566.5,1667.75 L566.5,1676.25 L548.254,1680.25 L566.5,1684.25 L566.5,1692.8828 A0,0 0 0 0 566.5,1692.8828 L700.5,1692.8828 A0,0 0 0 0 700.5,1692.8828 L700.5,1677.75 L690.5,1667.75 L566.5,1667.75 A0,0 0 0 0 566.5,1667.75 " fill="#FBFB77" filter="url(#flpm8kfvvr22d)" style="stroke: #A80036; stroke-width: 1.0;"/><path d="M690.5,1667.75 L690.5,1677.75 L700.5,1677.75 L690.5,1667.75 " fill="#FBFB77" style="stroke: #A80036; stroke-width: 1.0;"/><text fill="#000000" font-family="sans-serif" font-size="13" lengthAdjust="spacingAndGlyphs" textLength="113" x="572.5" y="1684.8169">Baile de la Triada.</text><g id="modelViewPresenter.supervisorController"><rect fill="#FEFECE" filter="url(#flpm8kfvvr22d)" height="50" rx="12.5" ry="12.5" style="stroke: #A80036; stroke-width: 1.5;" width="167" x="411" y="1741.25"/><line style="stroke: #A80036; stroke-width: 1.5;" x1="411" x2="578" y1="1767.5469" y2="1767.5469"/><text fill="#000000" font-family="sans-serif" font-size="14" lengthAdjust="spacingAndGlyphs" textLength="147" x="421" y="1759.2451">supervisorController</text></g><path d="M596.5,1753.75 L596.5,1762.25 L578.01,1766.25 L596.5,1770.25 L596.5,1778.8828 A0,0 0 0 0 596.5,1778.8828 L730.5,1778.8828 A0,0 0 0 0 730.5,1778.8828 L730.5,1763.75 L720.5,1753.75 L596.5,1753.75 A0,0 0 0 0 596.5,1753.75 " fill="#FBFB77" filter="url(#flpm8kfvvr22d)" style="stroke: #A80036; stroke-width: 1.0;"/><path d="M720.5,1753.75 L720.5,1763.75 L730.5,1763.75 L720.5,1753.75 " fill="#FBFB77" style="stroke: #A80036; stroke-width: 1.0;"/><text fill="#000000" font-family="sans-serif" font-size="13" lengthAdjust="spacingAndGlyphs" textLength="113" x="602.5" y="1770.8169">Baile de la Triada.</text><rect fill="#FEFECE" filter="url(#flpm8kfvvr22d)" height="1021.2969" rx="12.5" ry="12.5" style="stroke: #A80036; stroke-width: 1.5;" width="951" x="19" y="598.25"/><rect fill="#FFFFFF" height="989" rx="12.5" ry="12.5" style="stroke: #FFFFFF; stroke-width: 1.0;" width="945" x="22" y="627.5469"/><line style="stroke: #A80036; stroke-width: 1.5;" x1="19" x2="970" y1="624.5469" y2="624.5469"/><text fill="#000000" font-family="sans-serif" font-size="14" lengthAdjust="spacingAndGlyphs" textLength="137" x="426" y="616.2451">presentationModel</text><g id="modelViewPresenter.presentationModel.basic"><rect fill="#FEFECE" filter="url(#flpm8kfvvr22d)" height="50" rx="12.5" ry="12.5" style="stroke: #A80036; stroke-width: 1.5;" width="57" x="108.5" y="691.5469"/><line style="stroke: #A80036; stroke-width: 1.5;" x1="108.5" x2="165.5" y1="717.8438" y2="717.8438"/><text fill="#000000" font-family="sans-serif" font-size="14" lengthAdjust="spacingAndGlyphs" textLength="37" x="118.5" y="709.542">basic</text></g><path d="M183.5,696.5469 L183.5,712.5469 L165.508,716.5469 L183.5,720.5469 L183.5,736.8125 A0,0 0 0 0 183.5,736.8125 L802.5,736.8125 A0,0 0 0 0 802.5,736.8125 L802.5,706.5469 L792.5,696.5469 L183.5,696.5469 A0,0 0 0 0 183.5,696.5469 " fill="#FBFB77" filter="url(#flpm8kfvvr22d)" style="stroke: #A80036; stroke-width: 1.0;"/><path d="M792.5,696.5469 L792.5,706.5469 L802.5,706.5469 L792.5,696.5469 " fill="#FBFB77" style="stroke: #A80036; stroke-width: 1.0;"/><text fill="#000000" font-family="sans-serif" font-size="13" lengthAdjust="spacingAndGlyphs" textLength="598" x="189.5" y="713.6138">Clases Controladoras entre Vistas y Modelos por cada Caso de Uso pero con la clase Principal</text><text fill="#000000" font-family="sans-serif" font-size="13" lengthAdjust="spacingAndGlyphs" textLength="364" x="189.5" y="728.7466">y las Vistas acopladas a cada controlador actual y futuro</text><g id="modelViewPresenter.presentationModel.withFacade"><rect fill="#FEFECE" filter="url(#flpm8kfvvr22d)" height="50" rx="12.5" ry="12.5" style="stroke: #A80036; stroke-width: 1.5;" width="101" x="86.5" y="777.5469"/><line style="stroke: #A80036; stroke-width: 1.5;" x1="86.5" x2="187.5" y1="803.8438" y2="803.8438"/><text fill="#000000" font-family="sans-serif" font-size="14" lengthAdjust="spacingAndGlyphs" textLength="81" x="96.5" y="795.542">withFacade</text></g><path d="M205.5,782.5469 L205.5,798.5469 L187.764,802.5469 L205.5,806.5469 L205.5,822.8125 A0,0 0 0 0 205.5,822.8125 L726.5,822.8125 A0,0 0 0 0 726.5,822.8125 L726.5,792.5469 L716.5,782.5469 L205.5,782.5469 A0,0 0 0 0 205.5,782.5469 " fill="#FBFB77" filter="url(#flpm8kfvvr22d)" style="stroke: #A80036; stroke-width: 1.0;"/><path d="M716.5,782.5469 L716.5,792.5469 L726.5,792.5469 L716.5,782.5469 " fill="#FBFB77" style="stroke: #A80036; stroke-width: 1.0;"/><text fill="#000000" font-family="sans-serif" font-size="13" lengthAdjust="spacingAndGlyphs" textLength="500" x="211.5" y="799.6138">Clase Lógica que encapsula Controladores y Modelos pero con Vistas con DRY</text><text fill="#000000" font-family="sans-serif" font-size="13" lengthAdjust="spacingAndGlyphs" textLength="146" x="211.5" y="814.7466">en la Lógica de Control</text><g id="modelViewPresenter.presentationModel.withoutDoubleDispatching"><rect fill="#FEFECE" filter="url(#flpm8kfvvr22d)" height="50" rx="12.5" ry="12.5" style="stroke: #A80036; stroke-width: 1.5;" width="212" x="31" y="863.5469"/><line style="stroke: #A80036; stroke-width: 1.5;" x1="31" x2="243" y1="889.8438" y2="889.8438"/><text fill="#000000" font-family="sans-serif" font-size="14" lengthAdjust="spacingAndGlyphs" textLength="192" x="41" y="881.542">withoutDoubleDispatching</text></g><path d="M261,868.5469 L261,884.5469 L243.224,888.5469 L261,892.5469 L261,908.8125 A0,0 0 0 0 261,908.8125 L771,908.8125 A0,0 0 0 0 771,908.8125 L771,878.5469 L761,868.5469 L261,868.5469 A0,0 0 0 0 261,868.5469 " fill="#FBFB77" filter="url(#flpm8kfvvr22d)" style="stroke: #A80036; stroke-width: 1.0;"/><path d="M761,868.5469 L761,878.5469 L771,878.5469 L761,868.5469 " fill="#FBFB77" style="stroke: #A80036; stroke-width: 1.0;"/><text fill="#000000" font-family="sans-serif" font-size="13" lengthAdjust="spacingAndGlyphs" textLength="489" x="267" y="885.6138">Clase Estado para la Inversión de Control de Vistas a la Lógica pero violando</text><text fill="#000000" font-family="sans-serif" font-size="13" lengthAdjust="spacingAndGlyphs" textLength="226" x="267" y="900.7466">el Principio de Sustitución de Liskov</text><g id="modelViewPresenter.presentationModel.withDoubleDispatching"><rect fill="#FEFECE" filter="url(#flpm8kfvvr22d)" height="50" rx="12.5" ry="12.5" style="stroke: #A80036; stroke-width: 1.5;" width="188" x="43" y="949.5469"/><line style="stroke: #A80036; stroke-width: 1.5;" x1="43" x2="231" y1="975.8438" y2="975.8438"/><text fill="#000000" font-family="sans-serif" font-size="14" lengthAdjust="spacingAndGlyphs" textLength="168" x="53" y="967.542">withDoubleDispatching</text></g><path d="M249,962.0469 L249,970.5469 L231.307,974.5469 L249,978.5469 L249,987.1797 A0,0 0 0 0 249,987.1797 L691,987.1797 A0,0 0 0 0 691,987.1797 L691,972.0469 L681,962.0469 L249,962.0469 A0,0 0 0 0 249,962.0469 " fill="#FBFB77" filter="url(#flpm8kfvvr22d)" style="stroke: #A80036; stroke-width: 1.0;"/><path d="M681,962.0469 L681,972.0469 L691,972.0469 L681,962.0469 " fill="#FBFB77" style="stroke: #A80036; stroke-width: 1.0;"/><text fill="#000000" font-family="sans-serif" font-size="13" lengthAdjust="spacingAndGlyphs" textLength="421" x="255" y="979.1138">Clase Vistador de Controladores para Técnica de Doble Despacho</text><g id="modelViewPresenter.presentationModel.withComposite"><rect fill="#FEFECE" filter="url(#flpm8kfvvr22d)" height="50" rx="12.5" ry="12.5" style="stroke: #A80036; stroke-width: 1.5;" width="130" x="72" y="1035.5469"/><line style="stroke: #A80036; stroke-width: 1.5;" x1="72" x2="202" y1="1061.8438" y2="1061.8438"/><text fill="#000000" font-family="sans-serif" font-size="14" lengthAdjust="spacingAndGlyphs" textLength="110" x="82" y="1053.542">withComposite</text></g><path d="M220.5,1040.5469 L220.5,1056.5469 L202.092,1060.5469 L220.5,1064.5469 L220.5,1080.8125 A0,0 0 0 0 220.5,1080.8125 L697.5,1080.8125 A0,0 0 0 0 697.5,1080.8125 L697.5,1050.5469 L687.5,1040.5469 L220.5,1040.5469 A0,0 0 0 0 220.5,1040.5469 " fill="#FBFB77" filter="url(#flpm8kfvvr22d)" style="stroke: #A80036; stroke-width: 1.0;"/><path d="M687.5,1040.5469 L687.5,1050.5469 L697.5,1050.5469 L687.5,1040.5469 " fill="#FBFB77" style="stroke: #A80036; stroke-width: 1.0;"/><text fill="#000000" font-family="sans-serif" font-size="13" lengthAdjust="spacingAndGlyphs" textLength="456" x="226.5" y="1057.6138">Clase Comando del menú y Controlador Compuesto de ciertos Estados</text><text fill="#000000" font-family="sans-serif" font-size="13" lengthAdjust="spacingAndGlyphs" textLength="275" x="226.5" y="1072.7466">para Open/Close con nuevos Casos de Uso</text><g id="modelViewPresenter.presentationModel.withoutProxy"><rect fill="#FEFECE" filter="url(#flpm8kfvvr22d)" height="50" rx="12.5" ry="12.5" style="stroke: #A80036; stroke-width: 1.5;" width="115" x="79.5" y="1121.5469"/><line style="stroke: #A80036; stroke-width: 1.5;" x1="79.5" x2="194.5" y1="1147.8438" y2="1147.8438"/><text fill="#000000" font-family="sans-serif" font-size="14" lengthAdjust="spacingAndGlyphs" textLength="95" x="89.5" y="1139.542">withoutProxy</text></g><path d="M213,1126.5469 L213,1142.5469 L194.621,1146.5469 L213,1150.5469 L213,1166.8125 A0,0 0 0 0 213,1166.8125 L853,1166.8125 A0,0 0 0 0 853,1166.8125 L853,1136.5469 L843,1126.5469 L213,1126.5469 A0,0 0 0 0 213,1126.5469 " fill="#FBFB77" filter="url(#flpm8kfvvr22d)" style="stroke: #A80036; stroke-width: 1.0;"/><path d="M843,1126.5469 L843,1136.5469 L853,1136.5469 L843,1126.5469 " fill="#FBFB77" style="stroke: #A80036; stroke-width: 1.0;"/><text fill="#000000" font-family="sans-serif" font-size="13" lengthAdjust="spacingAndGlyphs" textLength="619" x="219" y="1143.6138">Clase TCP/IP para tecnología de Despliegue pero con Controladores acoplados, poco cohesivos y</text><text fill="#000000" font-family="sans-serif" font-size="13" lengthAdjust="spacingAndGlyphs" textLength="261" x="219" y="1158.7466">grano grueso con cada nueva tecnología</text><g id="modelViewPresenter.presentationModel.withProxy"><rect fill="#FEFECE" filter="url(#flpm8kfvvr22d)" height="50" rx="12.5" ry="12.5" style="stroke: #A80036; stroke-width: 1.5;" width="91" x="91.5" y="1207.5469"/><line style="stroke: #A80036; stroke-width: 1.5;" x1="91.5" x2="182.5" y1="1233.8438" y2="1233.8438"/><text fill="#000000" font-family="sans-serif" font-size="14" lengthAdjust="spacingAndGlyphs" textLength="71" x="101.5" y="1225.542">withProxy</text></g><path d="M201,1220.0469 L201,1228.5469 L182.551,1232.5469 L201,1236.5469 L201,1245.1797 A0,0 0 0 0 201,1245.1797 L671,1245.1797 A0,0 0 0 0 671,1245.1797 L671,1230.0469 L661,1220.0469 L201,1220.0469 A0,0 0 0 0 201,1220.0469 " fill="#FBFB77" filter="url(#flpm8kfvvr22d)" style="stroke: #A80036; stroke-width: 1.0;"/><path d="M661,1220.0469 L661,1230.0469 L671,1230.0469 L661,1220.0469 " fill="#FBFB77" style="stroke: #A80036; stroke-width: 1.0;"/><text fill="#000000" font-family="sans-serif" font-size="13" lengthAdjust="spacingAndGlyphs" textLength="449" x="207" y="1237.1138">Clases Proxy para Open/Close para nuevas tecnologías de Despliegue</text><g id="modelViewPresenter.presentationModel.withoutDAO"><rect fill="#FEFECE" filter="url(#flpm8kfvvr22d)" height="50" rx="12.5" ry="12.5" style="stroke: #A80036; stroke-width: 1.5;" width="107" x="83.5" y="1293.5469"/><line style="stroke: #A80036; stroke-width: 1.5;" x1="83.5" x2="190.5" y1="1319.8438" y2="1319.8438"/><text fill="#000000" font-family="sans-serif" font-size="14" lengthAdjust="spacingAndGlyphs" textLength="87" x="93.5" y="1311.542">withoutDAO</text></g><path d="M209,1298.5469 L209,1314.5469 L190.812,1318.5469 L209,1322.5469 L209,1338.8125 A0,0 0 0 0 209,1338.8125 L961,1338.8125 A0,0 0 0 0 961,1338.8125 L961,1308.5469 L951,1298.5469 L209,1298.5469 A0,0 0 0 0 209,1298.5469 " fill="#FBFB77" filter="url(#flpm8kfvvr22d)" style="stroke: #A80036; stroke-width: 1.0;"/><path d="M951,1298.5469 L951,1308.5469 L961,1308.5469 L951,1298.5469 " fill="#FBFB77" style="stroke: #A80036; stroke-width: 1.0;"/><text fill="#000000" font-family="sans-serif" font-size="13" lengthAdjust="spacingAndGlyphs" textLength="731" x="215" y="1315.6138">Clases Vistas y Controladores para la tecnología de persistencia pero con Modelos de grano grueso, baja cohesión</text><text fill="#000000" font-family="sans-serif" font-size="13" lengthAdjust="spacingAndGlyphs" textLength="392" x="215" y="1330.7466">y alto acoplamiento a tecnologías de persistencia de ficheros</text><g id="modelViewPresenter.presentationModel.withDAO"><rect fill="#FEFECE" filter="url(#flpm8kfvvr22d)" height="50" rx="12.5" ry="12.5" style="stroke: #A80036; stroke-width: 1.5;" width="83" x="95.5" y="1379.5469"/><line style="stroke: #A80036; stroke-width: 1.5;" x1="95.5" x2="178.5" y1="1405.8438" y2="1405.8438"/><text fill="#000000" font-family="sans-serif" font-size="14" lengthAdjust="spacingAndGlyphs" textLength="63" x="105.5" y="1397.542">withDAO</text></g><path d="M197,1392.0469 L197,1400.5469 L178.766,1404.5469 L197,1408.5469 L197,1417.1797 A0,0 0 0 0 197,1417.1797 L293,1417.1797 A0,0 0 0 0 293,1417.1797 L293,1402.0469 L283,1392.0469 L197,1392.0469 A0,0 0 0 0 197,1392.0469 " fill="#FBFB77" filter="url(#flpm8kfvvr22d)" style="stroke: #A80036; stroke-width: 1.0;"/><path d="M283,1392.0469 L283,1402.0469 L293,1402.0469 L283,1392.0469 " fill="#FBFB77" style="stroke: #A80036; stroke-width: 1.0;"/><text fill="#000000" font-family="sans-serif" font-size="13" lengthAdjust="spacingAndGlyphs" textLength="75" x="203" y="1409.1138">Patrón DAO</text><g id="modelViewPresenter.presentationModel.withoutPrototype"><rect fill="#FEFECE" filter="url(#flpm8kfvvr22d)" height="50" rx="12.5" ry="12.5" style="stroke: #A80036; stroke-width: 1.5;" width="149" x="62.5" y="1465.5469"/><line style="stroke: #A80036; stroke-width: 1.5;" x1="62.5" x2="211.5" y1="1491.8438" y2="1491.8438"/><text fill="#000000" font-family="sans-serif" font-size="14" lengthAdjust="spacingAndGlyphs" textLength="129" x="72.5" y="1483.542">withoutPrototype</text></g><path d="M229.5,1470.5469 L229.5,1486.5469 L211.795,1490.5469 L229.5,1494.5469 L229.5,1510.8125 A0,0 0 0 0 229.5,1510.8125 L710.5,1510.8125 A0,0 0 0 0 710.5,1510.8125 L710.5,1480.5469 L700.5,1470.5469 L229.5,1470.5469 A0,0 0 0 0 229.5,1470.5469 " fill="#FBFB77" filter="url(#flpm8kfvvr22d)" style="stroke: #A80036; stroke-width: 1.0;"/><path d="M700.5,1470.5469 L700.5,1480.5469 L710.5,1480.5469 L700.5,1470.5469 " fill="#FBFB77" style="stroke: #A80036; stroke-width: 1.0;"/><text fill="#000000" font-family="sans-serif" font-size="13" lengthAdjust="spacingAndGlyphs" textLength="460" x="235.5" y="1487.6138">Nuevas Vistas y DAOS para la nueva tecnología pero con clase Principal</text><text fill="#000000" font-family="sans-serif" font-size="13" lengthAdjust="spacingAndGlyphs" textLength="390" x="235.5" y="1502.7466">acoplada a las tecnologías actuales y futuras de persistencia</text><g id="modelViewPresenter.presentationModel.withPrototype"><rect fill="#FEFECE" filter="url(#flpm8kfvvr22d)" height="50" rx="12.5" ry="12.5" style="stroke: #A80036; stroke-width: 1.5;" width="125" x="74.5" y="1551.5469"/><line style="stroke: #A80036; stroke-width: 1.5;" x1="74.5" x2="199.5" y1="1577.8438" y2="1577.8438"/><text fill="#000000" font-family="sans-serif" font-size="14" lengthAdjust="spacingAndGlyphs" textLength="105" x="84.5" y="1569.542">withPrototype</text></g><path d="M217.5,1564.0469 L217.5,1572.5469 L199.68,1576.5469 L217.5,1580.5469 L217.5,1589.1797 A0,0 0 0 0 217.5,1589.1797 L624.5,1589.1797 A0,0 0 0 0 624.5,1589.1797 L624.5,1574.0469 L614.5,1564.0469 L217.5,1564.0469 A0,0 0 0 0 217.5,1564.0469 " fill="#FBFB77" filter="url(#flpm8kfvvr22d)" style="stroke: #A80036; stroke-width: 1.0;"/><path d="M614.5,1564.0469 L614.5,1574.0469 L624.5,1574.0469 L614.5,1564.0469 " fill="#FBFB77" style="stroke: #A80036; stroke-width: 1.0;"/><text fill="#000000" font-family="sans-serif" font-size="13" lengthAdjust="spacingAndGlyphs" textLength="386" x="223.5" y="1581.1138">Open/Close para arranque con configuración de persistencia</text><ellipse cx="137" cy="645.5469" fill="#000000" filter="url(#flpm8kfvvr22d)" rx="10" ry="10" style="stroke: none; stroke-width: 1.0;"/><!--MD5=[a2e9f93900a9766b833151409c2e80ad]
link *start*presentationModel to basic--><path d="M137,655.5679 C137,663.4239 137,675.2629 137,686.3519 " fill="none" id="*start*presentationModel-to-basic" style="stroke: #A80036; stroke-width: 1.0;"/><polygon fill="#A80036" points="137,691.3779,141,682.3779,137,686.3779,133,682.3779,137,691.3779" style="stroke: #A80036; stroke-width: 1.0;"/><!--MD5=[f3792a6b3410548cd605bb0c5eb29e43]
link basic to withFacade--><path d="M137,741.8429 C137,751.3329 137,762.2999 137,772.2239 " fill="none" id="basic-to-withFacade" style="stroke: #A80036; stroke-width: 1.0;"/><polygon fill="#A80036" points="137,777.3049,141,768.3049,137,772.3049,133,768.3049,137,777.3049" style="stroke: #A80036; stroke-width: 1.0;"/><!--MD5=[c1c1d019b584ebff9b0ab735b7a104bf]
link withFacade to withoutDoubleDispatching--><path d="M137,827.8429 C137,837.3329 137,848.2999 137,858.2239 " fill="none" id="withFacade-to-withoutDoubleDispatching" style="stroke: #A80036; stroke-width: 1.0;"/><polygon fill="#A80036" points="137,863.3049,141,854.3049,137,858.3049,133,854.3049,137,863.3049" style="stroke: #A80036; stroke-width: 1.0;"/><!--MD5=[24430434a700be59a4ea8737a590c3a0]
link withoutDoubleDispatching to withDoubleDispatching--><path d="M137,913.8429 C137,923.3329 137,934.2999 137,944.2239 " fill="none" id="withoutDoubleDispatching-to-withDoubleDispatching" style="stroke: #A80036; stroke-width: 1.0;"/><polygon fill="#A80036" points="137,949.3049,141,940.3049,137,944.3049,133,940.3049,137,949.3049" style="stroke: #A80036; stroke-width: 1.0;"/><!--MD5=[ebde5cb072fda06263765320ca65a72d]
link withDoubleDispatching to withComposite--><path d="M137,999.8429 C137,1009.3329 137,1020.2999 137,1030.2239 " fill="none" id="withDoubleDispatching-to-withComposite" style="stroke: #A80036; stroke-width: 1.0;"/><polygon fill="#A80036" points="137,1035.3049,141,1026.3049,137,1030.3049,133,1026.3049,137,1035.3049" style="stroke: #A80036; stroke-width: 1.0;"/><!--MD5=[364a111cbf1770e45fc4a46e4bc788cf]
link withComposite to withoutProxy--><path d="M137,1085.8429 C137,1095.3329 137,1106.2999 137,1116.2239 " fill="none" id="withComposite-to-withoutProxy" style="stroke: #A80036; stroke-width: 1.0;"/><polygon fill="#A80036" points="137,1121.3049,141,1112.3049,137,1116.3049,133,1112.3049,137,1121.3049" style="stroke: #A80036; stroke-width: 1.0;"/><!--MD5=[804380eee0a20e28f6a7d6f4d409b0b6]
link withoutProxy to withProxy--><path d="M137,1171.8429 C137,1181.3329 137,1192.2999 137,1202.2239 " fill="none" id="withoutProxy-to-withProxy" style="stroke: #A80036; stroke-width: 1.0;"/><polygon fill="#A80036" points="137,1207.3049,141,1198.3049,137,1202.3049,133,1198.3049,137,1207.3049" style="stroke: #A80036; stroke-width: 1.0;"/><!--MD5=[46c2e9a9cf2ed7ef4643cd90e27fde7d]
link withProxy to withoutDAO--><path d="M137,1257.8429 C137,1267.3329 137,1278.2999 137,1288.2239 " fill="none" id="withProxy-to-withoutDAO" style="stroke: #A80036; stroke-width: 1.0;"/><polygon fill="#A80036" points="137,1293.3049,141,1284.3049,137,1288.3049,133,1284.3049,137,1293.3049" style="stroke: #A80036; stroke-width: 1.0;"/><!--MD5=[a7820cc3926c5bdf33d2391d2dcbe981]
link withoutDAO to withDAO--><path d="M137,1343.8429 C137,1353.3329 137,1364.2999 137,1374.2239 " fill="none" id="withoutDAO-to-withDAO" style="stroke: #A80036; stroke-width: 1.0;"/><polygon fill="#A80036" points="137,1379.3049,141,1370.3049,137,1374.3049,133,1370.3049,137,1379.3049" style="stroke: #A80036; stroke-width: 1.0;"/><!--MD5=[7209f87c7d947f14ae6c752067128db0]
link withDAO to withoutPrototype--><path d="M137,1429.8429 C137,1439.3329 137,1450.2999 137,1460.2239 " fill="none" id="withDAO-to-withoutPrototype" style="stroke: #A80036; stroke-width: 1.0;"/><polygon fill="#A80036" points="137,1465.3049,141,1456.3049,137,1460.3049,133,1456.3049,137,1465.3049" style="stroke: #A80036; stroke-width: 1.0;"/><!--MD5=[800323b8fa4ad14057c5fe01900cd0da]
link withoutPrototype to withPrototype--><path d="M137,1515.8432 C137,1525.3333 137,1536.2996 137,1546.2238 " fill="none" id="withoutPrototype-to-withPrototype" style="stroke: #A80036; stroke-width: 1.0;"/><polygon fill="#A80036" points="137,1551.3052,141,1542.3052,137,1546.3052,133,1542.3052,137,1551.3052" style="stroke: #A80036; stroke-width: 1.0;"/><!--MD5=[1ce7997a6c28ed85eae058120d6fac16]
link presentationModel to passiveView--><path d="M494.5,1619.38 C494.5,1631.053 494.5,1641.342 494.5,1649.951 " fill="none" id="presentationModel-to-passiveView" style="stroke: #A80036; stroke-width: 1.0;"/><polygon fill="#A80036" points="494.5,1655.092,498.5,1646.092,494.5,1650.092,490.5,1646.092,494.5,1655.092" style="stroke: #A80036; stroke-width: 1.0;"/><!--MD5=[6b55b9a0b0fb122ca19c9504d85212cd]
link passiveView to supervisorController--><path d="M494.5,1705.5463 C494.5,1715.0364 494.5,1726.0027 494.5,1735.9269 " fill="none" id="passiveView-to-supervisorController" style="stroke: #A80036; stroke-width: 1.0;"/><polygon fill="#A80036" points="494.5,1741.0083,498.5,1732.0083,494.5,1736.0083,490.5,1732.0083,494.5,1741.0083" style="stroke: #A80036; stroke-width: 1.0;"/><!--MD5=[3df41cb6f1fff3171b7841090fa7c67b]
link *start to domainModel--><path d="M495.5,47.1131 C495.5,60.0831 495.5,84.4031 495.5,103.9431 " fill="none" id="*start-to-domainModel" style="stroke: #A80036; stroke-width: 1.0;"/><polygon fill="#A80036" points="495.5,109.3131,499.5,100.3131,495.5,104.3131,491.5,100.3131,495.5,109.3131" style="stroke: #A80036; stroke-width: 1.0;"/><!--MD5=[0f85b7fe0a31e602b480da6083c2edfa]
link domainModel to documentView--><path d="M495.5,159.4831 C495.5,174.3031 495.5,194.6831 495.5,216.7931 " fill="none" id="domainModel-to-documentView" style="stroke: #A80036; stroke-width: 1.0;"/><polygon fill="#A80036" points="495.5,221.8431,499.5,212.8431,495.5,216.8431,491.5,212.8431,495.5,221.8431" style="stroke: #A80036; stroke-width: 1.0;"/><!--MD5=[183448bff6351d59b7383cbcaa7719a0]
link documentView to modelViewPresenter--><path d="M495.5,500.3831 C495.5,517.3131 495.5,535.3631 495.5,554.2831 " fill="none" id="documentView-to-modelViewPresenter" style="stroke: #A80036; stroke-width: 1.0;"/><polygon fill="#A80036" points="495.5,559.6431,499.5,550.6431,495.5,554.6431,491.5,550.6431,495.5,559.6431" style="stroke: #A80036; stroke-width: 1.0;"/><!--MD5=[ffce595a87410651ea4b2e3f36598386]
link modelViewPresenter to modelViewController--><path d="M495.5,1809.0151 C495.5,1830.9441 495.5,1849.4671 495.5,1863.4871 " fill="none" id="modelViewPresenter-to-modelViewController" style="stroke: #A80036; stroke-width: 1.0;"/><polygon fill="#A80036" points="495.5,1868.8291,499.5,1859.8291,495.5,1863.8291,491.5,1859.8291,495.5,1868.8291" style="stroke: #A80036; stroke-width: 1.0;"/><!--MD5=[ff02d668026eb3ef2414bb5bfdeb31e6]
link modelViewController to *end--><path d="M495.5,1919.3878 C495.5,1936.4915 495.5,1958.7801 495.5,1973.2267 " fill="none" id="modelViewController-to-*end" style="stroke: #A80036; stroke-width: 1.0;"/><polygon fill="#A80036" points="495.5,1978.5348,499.5,1969.5348,495.5,1973.5348,491.5,1969.5348,495.5,1978.5348" style="stroke: #A80036; stroke-width: 1.0;"/><!--MD5=[bec92a91ff155742dcd34e0917639037]
@startuml
title Secuencia versiones Mastermind
[*] - -> domainModel
state domainModel
note right: Clases del Modelo del Dominio pero acopladas a tecnologías de interfaz\nahora y todas con la Ley del Cambio Continuo y de granos grueso con el\nadvenimiento de nueva funcionalidad.
state documentView

state modelViewPresenter



state modelViewController
note right: Baile de la Triada.





domainModel - -> documentView

state documentView {
  state console
  note right: Clases Vistas de Texto separadas de los Modelos del Dominio\npero con Modelos de grano gruesocon el advenimiento de nueva funcionalidad.[[https://github.com/SantaTecla-mastermind/solution.java.swing.socket.sql/tree/master/documentView/console Git]]
  state withoutFactoryMethod
  note right:Clase Vistas de Interfaz Gráfica de Usuario pero con DRY en Vistas de tecnologías diferentes\ny con Modelos de grano grueso con el advenimiento de nueva funcionalidad.
  state withFactoryMethod
  note right: Clase Vista abstracta para Open/Close de sus tecnologías pero con Modelos de grano grueso\ncon el advenimiento de nueva funcionalidad.
  
  console - -> withoutFactoryMethod
  withoutFactoryMethod - -> withFactoryMethod
}

documentView - -> modelViewPresenter

state modelViewPresenter{

state presentationModel{
state basic
note right:Clases Controladoras entre Vistas y Modelos por cada Caso de Uso pero con la clase Principal\ny las Vistas acopladas a cada controlador actual y futuro

state withFacade
note right:Clase Lógica que encapsula Controladores y Modelos pero con Vistas con DRY\nen la Lógica de Control

state withoutDoubleDispatching
note right:Clase Estado para la Inversión de Control de Vistas a la Lógica pero violando\nel Principio de Sustitución de Liskov

state withDoubleDispatching
note right:Clase Vistador de Controladores para Técnica de Doble Despacho

state withComposite
note right:Clase Comando del menú y Controlador Compuesto de ciertos Estados\npara Open/Close con nuevos Casos de Uso

state withoutProxy
note right:Clase TCP/IP para tecnología de Despliegue pero con Controladores acoplados, poco cohesivos y\ngrano grueso con cada nueva tecnología

state withProxy
note right:Clases Proxy para Open/Close para nuevas tecnologías de Despliegue

state withoutDAO
note right:Clases Vistas y Controladores para la tecnología de persistencia pero con Modelos de grano grueso, baja cohesión\ny alto acoplamiento a tecnologías de persistencia de ficheros

state withDAO
note right: Patrón DAO

state withoutPrototype
note right:Nuevas Vistas y DAOS para la nueva tecnología pero con clase Principal\nacoplada a las tecnologías actuales y futuras de persistencia

state withPrototype
note right:Open/Close para arranque con configuración de persistencia

[*] - -> basic
basic - -> withFacade
withFacade - -> withoutDoubleDispatching
withoutDoubleDispatching - -> withDoubleDispatching
withDoubleDispatching - -> withComposite
withComposite - -> withoutProxy
withoutProxy - -> withProxy
withProxy - -> withoutDAO
withoutDAO - -> withDAO
withDAO - -> withoutPrototype
withoutPrototype - -> withPrototype


}

state passiveView
note right: Baile de la Triada.
state supervisorController
note right: Baile de la Triada.

presentationModel- ->passiveView
passiveView- ->supervisorController

}

modelViewPresenter - -> modelViewController

}
modelViewController- ->[*]
@enduml

PlantUML version 1.2020.20beta4(Unknown compile time)
(GPL source distribution)
Java Runtime: Java(TM) SE Runtime Environment
JVM: Java HotSpot(TM) 64-Bit Server VM
Default Encoding: UTF-8
Language: en
Country: US
--></g></svg>