<?xml version="1.0" encoding="UTF-8" standalone="no"?><svg xmlns="http://www.w3.org/2000/svg" xmlns:xlink="http://www.w3.org/1999/xlink" contentScriptType="application/ecmascript" contentStyleType="text/css" height="428px" preserveAspectRatio="none" style="width:664px;height:428px;" version="1.1" viewBox="0 0 664 428" width="664px" zoomAndPan="magnify"><defs><filter height="300%" id="f466g7xwgxqk8" width="300%" x="-1" y="-1"><feGaussianBlur result="blurOut" stdDeviation="2.0"/><feColorMatrix in="blurOut" result="blurOut2" type="matrix" values="0 0 0 0 0 0 0 0 0 0 0 0 0 0 0 0 0 0 .4 0"/><feOffset dx="4.0" dy="4.0" in="blurOut2" result="blurOut3"/><feBlend in="SourceGraphic" in2="blurOut3" mode="normal"/></filter></defs><g><!--MD5=[9be0839337cfdab5d118a2e29cf0a8c4]
cluster usantatecla.mastermind--><polygon fill="#FFFFFF" filter="url(#f466g7xwgxqk8)" points="16,6,223,6,230,28.2969,390,28.2969,390,303,16,303,16,6" style="stroke:#000000;stroke-width:1.5;"/><line style="stroke:#000000;stroke-width:1.5;" x1="16" x2="230" y1="28.2969" y2="28.2969"/><text fill="#000000" font-family="sans-serif" font-size="14" font-weight="bold" lengthAdjust="spacingAndGlyphs" textLength="201" x="20" y="20.9951">usantatecla.mastermind</text><!--MD5=[315b8ca9da34f9ebf61c511bec4164b0]
class usantatecla.mastermind.ConsoleMastermind--><rect codeLine="5" fill="#FEFECE" filter="url(#f466g7xwgxqk8)" height="73.6094" id="usantatecla.mastermind.ConsoleMastermind" style="stroke:#A80036;stroke-width:1.5;" width="151" x="32.5" y="213"/><ellipse cx="47.5" cy="229" fill="#ADD1B2" rx="11" ry="11" style="stroke:#A80036;stroke-width:1.0;"/><path d="M49.8438,224.6719 C48.9063,224.2344 48.3125,224.0938 47.4375,224.0938 C44.8125,224.0938 42.8125,226.1719 42.8125,228.8906 L42.8125,230.0156 C42.8125,232.5938 44.9219,234.4844 47.8125,234.4844 C49.0313,234.4844 50.1875,234.1875 50.9375,233.6406 C51.5156,233.2344 51.8438,232.7813 51.8438,232.3906 C51.8438,231.9375 51.4531,231.5469 50.9844,231.5469 C50.7656,231.5469 50.5625,231.625 50.375,231.8125 C49.9219,232.2969 49.9219,232.2969 49.7344,232.3906 C49.3125,232.6563 48.625,232.7813 47.8594,232.7813 C45.8125,232.7813 44.5156,231.6875 44.5156,229.9844 L44.5156,228.8906 C44.5156,227.1094 45.7656,225.7969 47.5,225.7969 C48.0781,225.7969 48.6875,225.9531 49.1563,226.2031 C49.6406,226.4844 49.8125,226.7031 49.9063,227.1094 C49.9688,227.5156 50,227.6406 50.1406,227.7656 C50.2813,227.9063 50.5156,228.0156 50.7344,228.0156 C51,228.0156 51.2656,227.875 51.4375,227.6563 C51.5469,227.5 51.5781,227.3125 51.5781,226.8906 L51.5781,225.4688 C51.5781,225.0313 51.5625,224.9063 51.4688,224.75 C51.3125,224.4844 51.0313,224.3438 50.7344,224.3438 C50.4375,224.3438 50.2344,224.4375 50.0156,224.75 L49.8438,224.6719 Z " fill="#000000"/><text fill="#000000" font-family="sans-serif" font-size="12" lengthAdjust="spacingAndGlyphs" textLength="119" x="61.5" y="233.1543">ConsoleMastermind</text><line style="stroke:#A80036;stroke-width:1.5;" x1="33.5" x2="182.5" y1="245" y2="245"/><line style="stroke:#A80036;stroke-width:1.5;" x1="33.5" x2="182.5" y1="253" y2="253"/><ellipse cx="43.5" cy="264" fill="#84BE84" rx="3" ry="3" style="stroke:#038048;stroke-width:1.0;"/><text fill="#000000" font-family="sans-serif" font-size="11" lengthAdjust="spacingAndGlyphs" text-decoration="underline" textLength="77" x="52.5" y="267.2104">main(String[])</text><polygon fill="#FFFF44" points="43.5,271.8047,47.5,275.8047,43.5,279.8047,39.5,275.8047" style="stroke:#B38D22;stroke-width:1.0;"/><text fill="#000000" font-family="sans-serif" font-size="11" lengthAdjust="spacingAndGlyphs" textLength="108" x="52.5" y="280.0151">createView(): View</text><!--MD5=[904099970a9cea29a476bd38c8d887ee]
class usantatecla.mastermind.Mastermind--><rect codeLine="17" fill="#FEFECE" filter="url(#f466g7xwgxqk8)" height="112.0234" id="usantatecla.mastermind.Mastermind" style="stroke:#A80036;stroke-width:1.5;" width="132" x="234" y="41"/><ellipse cx="262.05" cy="57" fill="#A9DCDF" rx="11" ry="11" style="stroke:#A80036;stroke-width:1.0;"/><path d="M264.1281,58.8125 L264.5188,59.7969 L264.1281,59.7969 C263.675,59.7969 263.5656,59.8125 263.4094,59.9219 C263.1594,60.0781 263.0031,60.3594 263.0031,60.6563 C263.0031,60.9219 263.1438,61.1719 263.3625,61.3281 C263.5031,61.4531 263.7063,61.5 264.1281,61.5 L266.4875,61.5 C266.8469,61.5 267.0656,61.4688 267.2063,61.375 C267.4563,61.2344 267.6125,60.9375 267.6125,60.6563 C267.6125,60.375 267.4719,60.125 267.2531,59.9688 C267.0813,59.8281 266.925,59.7969 266.4563,59.7969 L263.0656,51.5938 L259.3938,51.5938 C258.9406,51.5938 258.8156,51.6094 258.6594,51.7031 C258.4094,51.875 258.2531,52.1563 258.2531,52.4375 C258.2531,52.7188 258.3938,52.9688 258.6125,53.1406 C258.7844,53.25 258.9563,53.2813 259.3938,53.2813 L260.4719,53.2813 L257.8313,59.7969 C257.4094,59.7969 257.2531,59.8125 257.0969,59.9219 C256.8469,60.0781 256.6906,60.3594 256.6906,60.6563 C256.6906,61.2188 257.0656,61.5 257.8156,61.5 L260.0813,61.5 C260.4406,61.5 260.6594,61.4688 260.7844,61.375 C261.05,61.2344 261.1906,60.9375 261.1906,60.6563 C261.1906,60.375 261.0656,60.125 260.8469,59.9531 C260.675,59.8281 260.5344,59.7969 260.0813,59.7969 L259.6906,59.7969 L260.0813,58.8125 L264.1281,58.8125 Z M263.425,57.1094 L260.7531,57.1094 L262.0969,53.8438 L263.425,57.1094 Z " fill="#000000"/><text fill="#000000" font-family="sans-serif" font-size="12" font-style="italic" lengthAdjust="spacingAndGlyphs" textLength="71" x="278.95" y="61.1543">Mastermind</text><line style="stroke:#A80036;stroke-width:1.5;" x1="235" x2="365" y1="73" y2="73"/><rect fill="none" height="6" style="stroke:#C82930;stroke-width:1.0;" width="6" x="242" y="81"/><text fill="#000000" font-family="sans-serif" font-size="11" lengthAdjust="spacingAndGlyphs" textLength="62" x="254" y="87.2104">logic: Logic</text><rect fill="none" height="6" style="stroke:#C82930;stroke-width:1.0;" width="6" x="242" y="93.8047"/><text fill="#000000" font-family="sans-serif" font-size="11" lengthAdjust="spacingAndGlyphs" textLength="62" x="254" y="100.0151">view: View</text><line style="stroke:#A80036;stroke-width:1.5;" x1="235" x2="365" y1="106.6094" y2="106.6094"/><polygon fill="#FFFF44" points="245,112.6094,249,116.6094,245,120.6094,241,116.6094" style="stroke:#B38D22;stroke-width:1.0;"/><text fill="#000000" font-family="sans-serif" font-size="11" lengthAdjust="spacingAndGlyphs" textLength="74" x="254" y="120.8198">Mastermind()</text><polygon fill="#FFFF44" points="245,125.4141,249,129.4141,245,133.4141,241,129.4141" style="stroke:#B38D22;stroke-width:1.0;"/><text fill="#000000" font-family="sans-serif" font-size="11" font-style="italic" lengthAdjust="spacingAndGlyphs" textLength="106" x="254" y="133.6245">createView(): View</text><polygon fill="#FFFF44" points="245,138.2188,249,142.2188,245,146.2188,241,142.2188" style="stroke:#B38D22;stroke-width:1.0;"/><text fill="#000000" font-family="sans-serif" font-size="11" lengthAdjust="spacingAndGlyphs" textLength="32" x="254" y="146.4292">play()</text><!--MD5=[e3ccb0142e457ddb33bd230b9167ec6f]
class usantatecla.mastermind.GraphicsMastermind--><rect codeLine="11" fill="#FEFECE" filter="url(#f466g7xwgxqk8)" height="73.6094" id="usantatecla.mastermind.GraphicsMastermind" style="stroke:#A80036;stroke-width:1.5;" width="155" x="218.5" y="213"/><ellipse cx="233.5" cy="229" fill="#ADD1B2" rx="11" ry="11" style="stroke:#A80036;stroke-width:1.0;"/><path d="M235.8438,224.6719 C234.9063,224.2344 234.3125,224.0938 233.4375,224.0938 C230.8125,224.0938 228.8125,226.1719 228.8125,228.8906 L228.8125,230.0156 C228.8125,232.5938 230.9219,234.4844 233.8125,234.4844 C235.0313,234.4844 236.1875,234.1875 236.9375,233.6406 C237.5156,233.2344 237.8438,232.7813 237.8438,232.3906 C237.8438,231.9375 237.4531,231.5469 236.9844,231.5469 C236.7656,231.5469 236.5625,231.625 236.375,231.8125 C235.9219,232.2969 235.9219,232.2969 235.7344,232.3906 C235.3125,232.6563 234.625,232.7813 233.8594,232.7813 C231.8125,232.7813 230.5156,231.6875 230.5156,229.9844 L230.5156,228.8906 C230.5156,227.1094 231.7656,225.7969 233.5,225.7969 C234.0781,225.7969 234.6875,225.9531 235.1563,226.2031 C235.6406,226.4844 235.8125,226.7031 235.9063,227.1094 C235.9688,227.5156 236,227.6406 236.1406,227.7656 C236.2813,227.9063 236.5156,228.0156 236.7344,228.0156 C237,228.0156 237.2656,227.875 237.4375,227.6563 C237.5469,227.5 237.5781,227.3125 237.5781,226.8906 L237.5781,225.4688 C237.5781,225.0313 237.5625,224.9063 237.4688,224.75 C237.3125,224.4844 237.0313,224.3438 236.7344,224.3438 C236.4375,224.3438 236.2344,224.4375 236.0156,224.75 L235.8438,224.6719 Z " fill="#000000"/><text fill="#000000" font-family="sans-serif" font-size="12" lengthAdjust="spacingAndGlyphs" textLength="123" x="247.5" y="233.1543">GraphicsMastermind</text><line style="stroke:#A80036;stroke-width:1.5;" x1="219.5" x2="372.5" y1="245" y2="245"/><line style="stroke:#A80036;stroke-width:1.5;" x1="219.5" x2="372.5" y1="253" y2="253"/><ellipse cx="229.5" cy="264" fill="#84BE84" rx="3" ry="3" style="stroke:#038048;stroke-width:1.0;"/><text fill="#000000" font-family="sans-serif" font-size="11" lengthAdjust="spacingAndGlyphs" text-decoration="underline" textLength="77" x="238.5" y="267.2104">main(String[])</text><polygon fill="#FFFF44" points="229.5,271.8047,233.5,275.8047,229.5,279.8047,225.5,275.8047" style="stroke:#B38D22;stroke-width:1.0;"/><text fill="#000000" font-family="sans-serif" font-size="11" lengthAdjust="spacingAndGlyphs" textLength="108" x="238.5" y="280.0151">createView(): View</text><!--MD5=[51d729737bd84a4c43136dd336c2eea1]
class ConsoleView--><rect codeLine="1" fill="#FEFECE" filter="url(#f466g7xwgxqk8)" height="67.9063" id="ConsoleView" style="stroke:#A80036;stroke-width:1.5;" width="161" x="22.5" y="347"/><ellipse cx="37.5" cy="372.9531" fill="#ADD1B2" rx="11" ry="11" style="stroke:#A80036;stroke-width:1.0;"/><path d="M39.8438,368.625 C38.9063,368.1875 38.3125,368.0469 37.4375,368.0469 C34.8125,368.0469 32.8125,370.125 32.8125,372.8438 L32.8125,373.9688 C32.8125,376.5469 34.9219,378.4375 37.8125,378.4375 C39.0313,378.4375 40.1875,378.1406 40.9375,377.5938 C41.5156,377.1875 41.8438,376.7344 41.8438,376.3438 C41.8438,375.8906 41.4531,375.5 40.9844,375.5 C40.7656,375.5 40.5625,375.5781 40.375,375.7656 C39.9219,376.25 39.9219,376.25 39.7344,376.3438 C39.3125,376.6094 38.625,376.7344 37.8594,376.7344 C35.8125,376.7344 34.5156,375.6406 34.5156,373.9375 L34.5156,372.8438 C34.5156,371.0625 35.7656,369.75 37.5,369.75 C38.0781,369.75 38.6875,369.9063 39.1563,370.1563 C39.6406,370.4375 39.8125,370.6563 39.9063,371.0625 C39.9688,371.4688 40,371.5938 40.1406,371.7188 C40.2813,371.8594 40.5156,371.9688 40.7344,371.9688 C41,371.9688 41.2656,371.8281 41.4375,371.6094 C41.5469,371.4531 41.5781,371.2656 41.5781,370.8438 L41.5781,369.4219 C41.5781,368.9844 41.5625,368.8594 41.4688,368.7031 C41.3125,368.4375 41.0313,368.2969 40.7344,368.2969 C40.4375,368.2969 40.2344,368.3906 40.0156,368.7031 L39.8438,368.625 Z " fill="#000000"/><text fill="#000000" font-family="sans-serif" font-size="12" lengthAdjust="spacingAndGlyphs" textLength="71" x="80.5" y="363.1387">usantatecla.</text><text fill="#000000" font-family="sans-serif" font-size="12" lengthAdjust="spacingAndGlyphs" textLength="112" x="60" y="377.1074">mastermind.views.</text><text fill="#000000" font-family="sans-serif" font-size="12" lengthAdjust="spacingAndGlyphs" textLength="129" x="51.5" y="391.0762">console.ConsoleView</text><line style="stroke:#A80036;stroke-width:1.5;" x1="23.5" x2="182.5" y1="398.9063" y2="398.9063"/><line style="stroke:#A80036;stroke-width:1.5;" x1="23.5" x2="182.5" y1="406.9063" y2="406.9063"/><!--MD5=[10250df365dc999637be629d910c1f35]
class GraphicsView--><rect codeLine="2" fill="#FEFECE" filter="url(#f466g7xwgxqk8)" height="67.9063" id="GraphicsView" style="stroke:#A80036;stroke-width:1.5;" width="165" x="218.5" y="347"/><ellipse cx="233.5" cy="372.9531" fill="#ADD1B2" rx="11" ry="11" style="stroke:#A80036;stroke-width:1.0;"/><path d="M235.8438,368.625 C234.9063,368.1875 234.3125,368.0469 233.4375,368.0469 C230.8125,368.0469 228.8125,370.125 228.8125,372.8438 L228.8125,373.9688 C228.8125,376.5469 230.9219,378.4375 233.8125,378.4375 C235.0313,378.4375 236.1875,378.1406 236.9375,377.5938 C237.5156,377.1875 237.8438,376.7344 237.8438,376.3438 C237.8438,375.8906 237.4531,375.5 236.9844,375.5 C236.7656,375.5 236.5625,375.5781 236.375,375.7656 C235.9219,376.25 235.9219,376.25 235.7344,376.3438 C235.3125,376.6094 234.625,376.7344 233.8594,376.7344 C231.8125,376.7344 230.5156,375.6406 230.5156,373.9375 L230.5156,372.8438 C230.5156,371.0625 231.7656,369.75 233.5,369.75 C234.0781,369.75 234.6875,369.9063 235.1563,370.1563 C235.6406,370.4375 235.8125,370.6563 235.9063,371.0625 C235.9688,371.4688 236,371.5938 236.1406,371.7188 C236.2813,371.8594 236.5156,371.9688 236.7344,371.9688 C237,371.9688 237.2656,371.8281 237.4375,371.6094 C237.5469,371.4531 237.5781,371.2656 237.5781,370.8438 L237.5781,369.4219 C237.5781,368.9844 237.5625,368.8594 237.4688,368.7031 C237.3125,368.4375 237.0313,368.2969 236.7344,368.2969 C236.4375,368.2969 236.2344,368.3906 236.0156,368.7031 L235.8438,368.625 Z " fill="#000000"/><text fill="#000000" font-family="sans-serif" font-size="12" lengthAdjust="spacingAndGlyphs" textLength="71" x="278.5" y="363.1387">usantatecla.</text><text fill="#000000" font-family="sans-serif" font-size="12" lengthAdjust="spacingAndGlyphs" textLength="112" x="258" y="377.1074">mastermind.views.</text><text fill="#000000" font-family="sans-serif" font-size="12" lengthAdjust="spacingAndGlyphs" textLength="133" x="247.5" y="391.0762">console.GraphicsView</text><line style="stroke:#A80036;stroke-width:1.5;" x1="219.5" x2="382.5" y1="398.9063" y2="398.9063"/><line style="stroke:#A80036;stroke-width:1.5;" x1="219.5" x2="382.5" y1="406.9063" y2="406.9063"/><!--MD5=[42fa18dda7351a0ae87d9497de925436]
class Logic--><rect codeLine="3" fill="#FEFECE" filter="url(#f466g7xwgxqk8)" height="67.9063" id="Logic" style="stroke:#A80036;stroke-width:1.5;" width="174" x="409" y="216"/><ellipse cx="424" cy="241.9531" fill="#ADD1B2" rx="11" ry="11" style="stroke:#A80036;stroke-width:1.0;"/><path d="M426.3438,237.625 C425.4063,237.1875 424.8125,237.0469 423.9375,237.0469 C421.3125,237.0469 419.3125,239.125 419.3125,241.8438 L419.3125,242.9688 C419.3125,245.5469 421.4219,247.4375 424.3125,247.4375 C425.5313,247.4375 426.6875,247.1406 427.4375,246.5938 C428.0156,246.1875 428.3438,245.7344 428.3438,245.3438 C428.3438,244.8906 427.9531,244.5 427.4844,244.5 C427.2656,244.5 427.0625,244.5781 426.875,244.7656 C426.4219,245.25 426.4219,245.25 426.2344,245.3438 C425.8125,245.6094 425.125,245.7344 424.3594,245.7344 C422.3125,245.7344 421.0156,244.6406 421.0156,242.9375 L421.0156,241.8438 C421.0156,240.0625 422.2656,238.75 424,238.75 C424.5781,238.75 425.1875,238.9063 425.6563,239.1563 C426.1406,239.4375 426.3125,239.6563 426.4063,240.0625 C426.4688,240.4688 426.5,240.5938 426.6406,240.7188 C426.7813,240.8594 427.0156,240.9688 427.2344,240.9688 C427.5,240.9688 427.7656,240.8281 427.9375,240.6094 C428.0469,240.4531 428.0781,240.2656 428.0781,239.8438 L428.0781,238.4219 C428.0781,237.9844 428.0625,237.8594 427.9688,237.7031 C427.8125,237.4375 427.5313,237.2969 427.2344,237.2969 C426.9375,237.2969 426.7344,237.3906 426.5156,237.7031 L426.3438,237.625 Z " fill="#000000"/><text fill="#000000" font-family="sans-serif" font-size="12" lengthAdjust="spacingAndGlyphs" textLength="71" x="473.5" y="232.1387">usantatecla.</text><text fill="#000000" font-family="sans-serif" font-size="12" lengthAdjust="spacingAndGlyphs" textLength="142" x="438" y="246.1074">mastermind.controllers.</text><text fill="#000000" font-family="sans-serif" font-size="12" lengthAdjust="spacingAndGlyphs" textLength="32" x="493" y="260.0762">Logic</text><line style="stroke:#A80036;stroke-width:1.5;" x1="410" x2="582" y1="267.9063" y2="267.9063"/><line style="stroke:#A80036;stroke-width:1.5;" x1="410" x2="582" y1="275.9063" y2="275.9063"/><!--MD5=[c045e12321b83266d36d22b9096c24ea]
class View--><rect codeLine="25" fill="#FEFECE" filter="url(#f466g7xwgxqk8)" height="48" id="View" style="stroke:#A80036;stroke-width:1.5;" width="244" x="406" y="73"/><ellipse cx="421" cy="89" fill="#ADD1B2" rx="11" ry="11" style="stroke:#A80036;stroke-width:1.0;"/><path d="M423.3438,84.6719 C422.4063,84.2344 421.8125,84.0938 420.9375,84.0938 C418.3125,84.0938 416.3125,86.1719 416.3125,88.8906 L416.3125,90.0156 C416.3125,92.5938 418.4219,94.4844 421.3125,94.4844 C422.5313,94.4844 423.6875,94.1875 424.4375,93.6406 C425.0156,93.2344 425.3438,92.7813 425.3438,92.3906 C425.3438,91.9375 424.9531,91.5469 424.4844,91.5469 C424.2656,91.5469 424.0625,91.625 423.875,91.8125 C423.4219,92.2969 423.4219,92.2969 423.2344,92.3906 C422.8125,92.6563 422.125,92.7813 421.3594,92.7813 C419.3125,92.7813 418.0156,91.6875 418.0156,89.9844 L418.0156,88.8906 C418.0156,87.1094 419.2656,85.7969 421,85.7969 C421.5781,85.7969 422.1875,85.9531 422.6563,86.2031 C423.1406,86.4844 423.3125,86.7031 423.4063,87.1094 C423.4688,87.5156 423.5,87.6406 423.6406,87.7656 C423.7813,87.9063 424.0156,88.0156 424.2344,88.0156 C424.5,88.0156 424.7656,87.875 424.9375,87.6563 C425.0469,87.5 425.0781,87.3125 425.0781,86.8906 L425.0781,85.4688 C425.0781,85.0313 425.0625,84.9063 424.9688,84.75 C424.8125,84.4844 424.5313,84.3438 424.2344,84.3438 C423.9375,84.3438 423.7344,84.4375 423.5156,84.75 L423.3438,84.6719 Z " fill="#000000"/><text fill="#000000" font-family="sans-serif" font-size="12" lengthAdjust="spacingAndGlyphs" textLength="212" x="435" y="93.1543">usantatecla.mastermind.views.View</text><line style="stroke:#A80036;stroke-width:1.5;" x1="407" x2="649" y1="105" y2="105"/><line style="stroke:#A80036;stroke-width:1.5;" x1="407" x2="649" y1="113" y2="113"/><!--MD5=[f77977e4d8b9d032efd72e44c024e507]
reverse link usantatecla.mastermind.Mastermind to usantatecla.mastermind.ConsoleMastermind--><path codeLine="9" d="M218.165,162.36 C196.182,179.648 173.187,197.733 153.926,212.881 " fill="none" id="usantatecla.mastermind.Mastermind-backto-usantatecla.mastermind.ConsoleMastermind" style="stroke:#A80036;stroke-width:1.0;"/><polygon fill="none" points="213.876,156.827,233.924,149.966,222.531,167.832,213.876,156.827" style="stroke:#A80036;stroke-width:1.0;"/><!--MD5=[75be7b6274e25c7c9339f824ef8f543e]
reverse link usantatecla.mastermind.Mastermind to usantatecla.mastermind.GraphicsMastermind--><path codeLine="15" d="M297.991,173.838 C297.63,187.469 297.269,201.085 296.956,212.91 " fill="none" id="usantatecla.mastermind.Mastermind-backto-usantatecla.mastermind.GraphicsMastermind" style="stroke:#A80036;stroke-width:1.0;"/><polygon fill="none" points="291.006,173.177,298.533,153.369,305.001,173.548,291.006,173.177" style="stroke:#A80036;stroke-width:1.0;"/><!--MD5=[0a501c15156d4559f00f932bd01623b3]
link usantatecla.mastermind.GraphicsMastermind to GraphicsView--><path codeLine="29" d="M297.406,287.277 C298.06,304.161 298.839,324.2584 299.505,341.4195 " fill="none" id="usantatecla.mastermind.GraphicsMastermind-to-GraphicsView" style="stroke:#A80036;stroke-width:1.0;stroke-dasharray:7.0,7.0;"/><polygon fill="#A80036" points="299.707,346.6443,303.3553,337.4961,299.5133,341.6481,295.3613,337.806,299.707,346.6443" style="stroke:#A80036;stroke-width:1.0;"/><!--MD5=[a5f8ce13268a0ab6e1eb93d1cfb2a7ef]
link usantatecla.mastermind.Mastermind to View--><path codeLine="30" d="M378.352,97 C378.352,97 388.345,97 392.713,97 " fill="none" id="usantatecla.mastermind.Mastermind-View" style="stroke:#A80036;stroke-width:1.0;"/><polygon fill="#A80036" points="405.817,97,396.817,93,400.817,97,396.817,101,405.817,97" style="stroke:#A80036;stroke-width:1.0;"/><line style="stroke:#A80036;stroke-width:1.0;" x1="400.817" x2="392.8165" y1="97" y2="97"/><polygon fill="#A80036" points="366.352,97,372.352,101,378.352,97,372.352,93,366.352,97" style="stroke:#A80036;stroke-width:1.0;"/><!--MD5=[86660d01f18f2f4aaa6ae1176c50cf28]
link usantatecla.mastermind.ConsoleMastermind to ConsoleView--><path codeLine="31" d="M106.594,287.277 C105.94,304.161 105.161,324.2584 104.495,341.4195 " fill="none" id="usantatecla.mastermind.ConsoleMastermind-to-ConsoleView" style="stroke:#A80036;stroke-width:1.0;stroke-dasharray:7.0,7.0;"/><polygon fill="#A80036" points="104.293,346.6443,108.6387,337.806,104.4867,341.6481,100.6447,337.4961,104.293,346.6443" style="stroke:#A80036;stroke-width:1.0;"/><!--MD5=[247e47791acc2ed78b9d73006ffb100f]
link usantatecla.mastermind.Mastermind to Logic--><path codeLine="32" d="M375.5885,156.2353 C375.5885,156.2353 422.331,192.245 442.663,207.909 " fill="none" id="usantatecla.mastermind.Mastermind-Logic" style="stroke:#A80036;stroke-width:1.0;"/><polygon fill="#A80036" points="452.973,215.851,448.284,207.19,449.0119,212.7998,443.4021,213.5277,452.973,215.851" style="stroke:#A80036;stroke-width:1.0;"/><line style="stroke:#A80036;stroke-width:1.0;" x1="449.0119" x2="442.6745" y1="212.7998" y2="207.9175"/><polygon fill="#A80036" points="366.083,148.911,368.3943,155.7417,375.5885,156.2353,373.2772,149.4046,366.083,148.911" style="stroke:#A80036;stroke-width:1.0;"/><!--MD5=[4092f3d0307ed2320e5a100723961059]
@startuml
class ConsoleView as "usantatecla.\nmastermind.views.\nconsole.ConsoleView"
class GraphicsView as "usantatecla.\nmastermind.views.\nconsole.GraphicsView"
class Logic as "usantatecla.\nmastermind.controllers.\nLogic"

class  usantatecla.mastermind.ConsoleMastermind{
+ {static} main(String[])
# createView(): View
}
usantatecla.mastermind.Mastermind <|-down- usantatecla.mastermind.ConsoleMastermind

class  usantatecla.mastermind.GraphicsMastermind{
+ {static} main(String[])
# createView(): View
}
usantatecla.mastermind.Mastermind <|-down- usantatecla.mastermind.GraphicsMastermind

abstract class  usantatecla.mastermind.Mastermind{
- logic: Logic
- view: View
# Mastermind()
# {abstract} createView(): View
# play()
}

class View as "usantatecla.mastermind.views.View" {


}
usantatecla.mastermind.GraphicsMastermind ..> GraphicsView
usantatecla.mastermind.Mastermind *-> View
usantatecla.mastermind.ConsoleMastermind ..> ConsoleView
usantatecla.mastermind.Mastermind *-down-> Logic
@enduml

PlantUML version 1.2020.22beta2(Unknown compile time)
(GPL source distribution)
Java Runtime: Java(TM) SE Runtime Environment
JVM: Java HotSpot(TM) 64-Bit Server VM
Default Encoding: UTF-8
Language: en
Country: US
--></g></svg>