<?xml version="1.0" encoding="UTF-8" standalone="no"?><svg xmlns="http://www.w3.org/2000/svg" xmlns:xlink="http://www.w3.org/1999/xlink" contentScriptType="application/ecmascript" contentStyleType="text/css" height="159px" preserveAspectRatio="none" style="width:2982px;height:159px;" version="1.1" viewBox="0 0 2982 159" width="2982px" zoomAndPan="magnify"><defs><filter height="300%" id="f42u2088du4vn" width="300%" x="-1" y="-1"><feGaussianBlur result="blurOut" stdDeviation="2.0"/><feColorMatrix in="blurOut" result="blurOut2" type="matrix" values="0 0 0 0 0 0 0 0 0 0 0 0 0 0 0 0 0 0 .4 0"/><feOffset dx="4.0" dy="4.0" in="blurOut2" result="blurOut3"/><feBlend in="SourceGraphic" in2="blurOut3" mode="normal"/></filter></defs><g><!--MD5=[6a8eef24a865597df0dc119d71c20fa1]
entity usantatecla.mastermind--><polygon fill="#FFFFFF" filter="url(#f42u2088du4vn)" points="16,113,223,113,230,135.2969,247,135.2969,247,152.2969,16,152.2969,16,113" style="stroke:#000000;stroke-width:1.5;"/><line style="stroke:#000000;stroke-width:1.5;" x1="16" x2="230" y1="135.2969" y2="135.2969"/><text fill="#000000" font-family="sans-serif" font-size="14" font-weight="bold" lengthAdjust="spacingAndGlyphs" textLength="201" x="20" y="128.9951">usantatecla.mastermind</text><!--MD5=[d4e593d76a1ee4330d2b2843b37cc7bc]
entity usantatecla.mastermind.controllers--><polygon fill="#FFFFFF" filter="url(#f42u2088du4vn)" points="282,113,583,113,590,135.2969,607,135.2969,607,152.2969,282,152.2969,282,113" style="stroke:#000000;stroke-width:1.5;"/><line style="stroke:#000000;stroke-width:1.5;" x1="282" x2="590" y1="135.2969" y2="135.2969"/><text fill="#000000" font-family="sans-serif" font-size="14" font-weight="bold" lengthAdjust="spacingAndGlyphs" textLength="295" x="286" y="128.9951">usantatecla.mastermind.controllers</text><!--MD5=[a18a8a1618c58d11a8fd222203fd8af2]
entity usantatecla.mastermind.models--><polygon fill="#FFFFFF" filter="url(#f42u2088du4vn)" points="642.5,113,912.5,113,919.5,135.2969,936.5,135.2969,936.5,152.2969,642.5,152.2969,642.5,113" style="stroke:#000000;stroke-width:1.5;"/><line style="stroke:#000000;stroke-width:1.5;" x1="642.5" x2="919.5" y1="135.2969" y2="135.2969"/><text fill="#000000" font-family="sans-serif" font-size="14" font-weight="bold" lengthAdjust="spacingAndGlyphs" textLength="264" x="646.5" y="128.9951">usantatecla.mastermind.models</text><!--MD5=[d9d3a2b7fd30791a054c299cd80fb2ef]
entity usantatecla.mastermind.views--><polygon fill="#FFFFFF" filter="url(#f42u2088du4vn)" points="972,113,1229,113,1236,135.2969,1253,135.2969,1253,152.2969,972,152.2969,972,113" style="stroke:#000000;stroke-width:1.5;"/><line style="stroke:#000000;stroke-width:1.5;" x1="972" x2="1236" y1="135.2969" y2="135.2969"/><text fill="#000000" font-family="sans-serif" font-size="14" font-weight="bold" lengthAdjust="spacingAndGlyphs" textLength="251" x="976" y="128.9951">usantatecla.mastermind.views</text><!--MD5=[4f1fdb516a2d9f9a754f02a50bc85008]
entity usantatecla.mastermind.views.console--><polygon fill="#FFFFFF" filter="url(#f42u2088du4vn)" points="1288.5,113,1612.5,113,1619.5,135.2969,1636.5,135.2969,1636.5,152.2969,1288.5,152.2969,1288.5,113" style="stroke:#000000;stroke-width:1.5;"/><line style="stroke:#000000;stroke-width:1.5;" x1="1288.5" x2="1619.5" y1="135.2969" y2="135.2969"/><text fill="#000000" font-family="sans-serif" font-size="14" font-weight="bold" lengthAdjust="spacingAndGlyphs" textLength="318" x="1292.5" y="128.9951">usantatecla.mastermind.views.console</text><!--MD5=[78a8e49b09f83bc73057eebba2fb097f]
entity usantatecla.mastermind.views.graphics--><polygon fill="#FFFFFF" filter="url(#f42u2088du4vn)" points="1671.5,113,2003.5,113,2010.5,135.2969,2027.5,135.2969,2027.5,152.2969,1671.5,152.2969,1671.5,113" style="stroke:#000000;stroke-width:1.5;"/><line style="stroke:#000000;stroke-width:1.5;" x1="1671.5" x2="2010.5" y1="135.2969" y2="135.2969"/><text fill="#000000" font-family="sans-serif" font-size="14" font-weight="bold" lengthAdjust="spacingAndGlyphs" textLength="326" x="1675.5" y="128.9951">usantatecla.mastermind.views.graphics</text><!--MD5=[612a536d1c85efa17c7d118cc1e7b020]
entity usantatecla.utils--><polygon fill="#FFFFFF" filter="url(#f42u2088du4vn)" points="2062.5,113,2208.5,113,2215.5,135.2969,2232.5,135.2969,2232.5,152.2969,2062.5,152.2969,2062.5,113" style="stroke:#000000;stroke-width:1.5;"/><line style="stroke:#000000;stroke-width:1.5;" x1="2062.5" x2="2215.5" y1="135.2969" y2="135.2969"/><text fill="#000000" font-family="sans-serif" font-size="14" font-weight="bold" lengthAdjust="spacingAndGlyphs" textLength="140" x="2066.5" y="128.9951">usantatecla.utils</text><!--MD5=[48fa9072fd51d9920e6db8484beec696]
entity java.io--><polygon fill="#FFFFFF" filter="url(#f42u2088du4vn)" points="2267.5,113,2327.5,113,2334.5,135.2969,2351.5,135.2969,2351.5,152.2969,2267.5,152.2969,2267.5,113" style="stroke:#000000;stroke-width:1.5;"/><line style="stroke:#000000;stroke-width:1.5;" x1="2267.5" x2="2334.5" y1="135.2969" y2="135.2969"/><text fill="#000000" font-family="sans-serif" font-size="14" font-weight="bold" lengthAdjust="spacingAndGlyphs" textLength="54" x="2271.5" y="128.9951">java.io</text><!--MD5=[034f0f7ed136bf78fc117f7e41f76e93]
entity java.util--><polygon fill="#FFFFFF" filter="url(#f42u2088du4vn)" points="2387,113,2460,113,2467,135.2969,2484,135.2969,2484,152.2969,2387,152.2969,2387,113" style="stroke:#000000;stroke-width:1.5;"/><line style="stroke:#000000;stroke-width:1.5;" x1="2387" x2="2467" y1="135.2969" y2="135.2969"/><text fill="#000000" font-family="sans-serif" font-size="14" font-weight="bold" lengthAdjust="spacingAndGlyphs" textLength="67" x="2391" y="128.9951">java.util</text><!--MD5=[cee830b0dacb2a92fd7272b0f6421cad]
entity java.awt--><polygon fill="#FFFFFF" filter="url(#f42u2088du4vn)" points="2519.5,113,2595.5,113,2602.5,135.2969,2619.5,135.2969,2619.5,152.2969,2519.5,152.2969,2519.5,113" style="stroke:#000000;stroke-width:1.5;"/><line style="stroke:#000000;stroke-width:1.5;" x1="2519.5" x2="2602.5" y1="135.2969" y2="135.2969"/><text fill="#000000" font-family="sans-serif" font-size="14" font-weight="bold" lengthAdjust="spacingAndGlyphs" textLength="70" x="2523.5" y="128.9951">java.awt</text><!--MD5=[518d1bd3a278ae5fa44dea63a13588cc]
entity java.awt.event--><polygon fill="#FFFFFF" filter="url(#f42u2088du4vn)" points="2654.5,113,2780.5,113,2787.5,135.2969,2804.5,135.2969,2804.5,152.2969,2654.5,152.2969,2654.5,113" style="stroke:#000000;stroke-width:1.5;"/><line style="stroke:#000000;stroke-width:1.5;" x1="2654.5" x2="2787.5" y1="135.2969" y2="135.2969"/><text fill="#000000" font-family="sans-serif" font-size="14" font-weight="bold" lengthAdjust="spacingAndGlyphs" textLength="120" x="2658.5" y="128.9951">java.awt.event</text><!--MD5=[5cd50222042deac7751bbdb096247501]
entity javax.swing--><polygon fill="#FFFFFF" filter="url(#f42u2088du4vn)" points="2840,113,2941,113,2948,135.2969,2965,135.2969,2965,152.2969,2840,152.2969,2840,113" style="stroke:#000000;stroke-width:1.5;"/><line style="stroke:#000000;stroke-width:1.5;" x1="2840" x2="2948" y1="135.2969" y2="135.2969"/><text fill="#000000" font-family="sans-serif" font-size="14" font-weight="bold" lengthAdjust="spacingAndGlyphs" textLength="95" x="2844" y="128.9951">javax.swing</text><!--MD5=[c2796faf4134bd8b5f3bc71f44d02e74]
entity jar--><rect fill="#FEFECE" filter="url(#f42u2088du4vn)" height="46.2969" style="stroke:#A80036;stroke-width:1.5;" width="150" x="1923.5" y="7"/><rect fill="#FEFECE" height="10" style="stroke:#A80036;stroke-width:1.5;" width="15" x="2053.5" y="12"/><rect fill="#FEFECE" height="2" style="stroke:#A80036;stroke-width:1.5;" width="4" x="2051.5" y="14"/><rect fill="#FEFECE" height="2" style="stroke:#A80036;stroke-width:1.5;" width="4" x="2051.5" y="18"/><text fill="#000000" font-family="sans-serif" font-size="14" lengthAdjust="spacingAndGlyphs" textLength="110" x="1938.5" y="39.9951">mastermind.jar</text><!--MD5=[33871d850b885cae0f32fcf5f82e5a8f]
link jar to usantatecla.mastermind--><path d="M1911.1219,32.329 C1911.1219,32.329 893.179,54.5333 264.5,113 C263.078,113.1322 261.648,113.2687 260.212,113.4092 " fill="none" id="jar-usantatecla.mastermind" style="stroke:#A80036;stroke-width:1.0;"/><polygon fill="#A80036" points="247.127,114.7734,256.4934,117.8182,252.1,114.2547,255.6635,109.8614,247.127,114.7734" style="stroke:#A80036;stroke-width:1.0;"/><line style="stroke:#A80036;stroke-width:1.0;" x1="252.1" x2="260.057" y1="114.2547" y2="113.4253"/><polygon fill="#A80036" points="1923.12,32.118,1917.0506,28.2241,1911.1219,32.329,1917.1913,36.2229,1923.12,32.118" style="stroke:#A80036;stroke-width:1.0;"/><!--MD5=[f1af4d068a3921898a2ee622d8d8541e]
link jar to usantatecla.mastermind.controllers--><path d="M1911.2128,34.9129 C1911.2128,34.9129 1109.18,73.6485 624.5,113 C623.179,113.1073 621.853,113.216 620.522,113.3261 " fill="none" id="jar-usantatecla.mastermind.controllers" style="stroke:#A80036;stroke-width:1.0;"/><polygon fill="#A80036" points="607.341,114.4481,616.6475,117.6712,612.323,114.0245,615.9697,109.6999,607.341,114.4481" style="stroke:#A80036;stroke-width:1.0;"/><line style="stroke:#A80036;stroke-width:1.0;" x1="612.323" x2="620.2945" y1="114.0245" y2="113.3454"/><polygon fill="#A80036" points="1923.2,34.359,1917.0218,30.6402,1911.2128,34.9129,1917.391,38.6317,1923.2,34.359" style="stroke:#A80036;stroke-width:1.0;"/><!--MD5=[2390947b1b119a53a88c2001f23d7e65]
link jar to usantatecla.mastermind.models--><path d="M1911.4479,36.8536 C1911.4479,36.8536 1308.3,79.2806 954.5,113 C952.846,113.1577 951.182,113.3176 949.51,113.4797 " fill="none" id="jar-usantatecla.mastermind.models" style="stroke:#A80036;stroke-width:1.0;"/><polygon fill="#A80036" points="936.561,114.7602,945.9111,117.8546,941.5367,114.2679,945.1234,109.8935,936.561,114.7602" style="stroke:#A80036;stroke-width:1.0;"/><line style="stroke:#A80036;stroke-width:1.0;" x1="941.5367" x2="949.498" y1="114.2679" y2="113.4809"/><polygon fill="#A80036" points="1923.42,36.036,1917.1614,32.4541,1911.4479,36.8536,1917.7065,40.4355,1923.42,36.036" style="stroke:#A80036;stroke-width:1.0;"/><!--MD5=[9b931e9ad5c3902361053e698395b79d]
link jar to usantatecla.mastermind.views--><path d="M1911.3641,40.6928 C1911.3641,40.6928 1501.16,86.5058 1270.5,113 C1269.09,113.1615 1267.68,113.324 1266.26,113.4873 " fill="none" id="jar-usantatecla.mastermind.views" style="stroke:#A80036;stroke-width:1.0;"/><polygon fill="#A80036" points="1253.34,114.9771,1262.7382,117.9223,1258.3072,114.4057,1261.8239,109.9747,1253.34,114.9771" style="stroke:#A80036;stroke-width:1.0;"/><line style="stroke:#A80036;stroke-width:1.0;" x1="1258.3072" x2="1266.26" y1="114.4057" y2="113.4877"/><polygon fill="#A80036" points="1923.29,39.361,1916.8831,36.0516,1911.3641,40.6928,1917.771,44.0022,1923.29,39.361" style="stroke:#A80036;stroke-width:1.0;"/><!--MD5=[dc33a4fde77d4230156989d15f1199a0]
link jar to usantatecla.mastermind.views.console--><path d="M1911.6163,47.2953 C1911.6163,47.2953 1674.01,91.842 1574.08,110.5793 " fill="none" id="jar-usantatecla.mastermind.views.console" style="stroke:#A80036;stroke-width:1.0;"/><polygon fill="#A80036" points="1561.2,112.9935,1570.7837,115.2633,1566.1141,112.0705,1569.3069,107.4008,1561.2,112.9935" style="stroke:#A80036;stroke-width:1.0;"/><line style="stroke:#A80036;stroke-width:1.0;" x1="1566.1141" x2="1573.98" y1="112.0705" y2="110.5976"/><polygon fill="#A80036" points="1923.41,45.08,1916.7747,42.2564,1911.6163,47.2953,1918.2516,50.1189,1923.41,45.08" style="stroke:#A80036;stroke-width:1.0;"/><!--MD5=[478778a62fbb913535b45914106db0eb]
link jar to usantatecla.mastermind.views.graphics--><path d="M1955.8523,59.7667 C1955.8523,59.7667 1908.35,91.8073 1887.92,105.5833 " fill="none" id="jar-usantatecla.mastermind.views.graphics" style="stroke:#A80036;stroke-width:1.0;"/><polygon fill="#A80036" points="1877.12,112.868,1886.8179,111.1503,1881.2649,110.0715,1882.3436,104.5185,1877.12,112.868" style="stroke:#A80036;stroke-width:1.0;"/><line style="stroke:#A80036;stroke-width:1.0;" x1="1881.2649" x2="1887.905" y1="110.0715" y2="105.5986"/><polygon fill="#A80036" points="1965.8,53.0552,1958.589,53.0951,1955.8523,59.7667,1963.0633,59.7268,1965.8,53.0552" style="stroke:#A80036;stroke-width:1.0;"/><!--MD5=[8059cd5737844cbfa7541e4ee98eb909]
link jar to usantatecla.utils--><path d="M2041.1477,59.7667 C2041.1477,59.7667 2088.65,91.8073 2109.08,105.5833 " fill="none" id="jar-usantatecla.utils" style="stroke:#A80036;stroke-width:1.0;"/><polygon fill="#A80036" points="2119.88,112.868,2114.6564,104.5185,2115.7351,110.0715,2110.1821,111.1503,2119.88,112.868" style="stroke:#A80036;stroke-width:1.0;"/><line style="stroke:#A80036;stroke-width:1.0;" x1="2115.7351" x2="2109.095" y1="110.0715" y2="105.5986"/><polygon fill="#A80036" points="2031.2,53.0552,2033.9367,59.7268,2041.1477,59.7667,2038.411,53.0951,2031.2,53.0552" style="stroke:#A80036;stroke-width:1.0;"/><!--MD5=[f17a38c250a1605cd3da9b9fac2ef94b]
link jar to java.io--><path d="M2078.1679,56.7473 C2078.1679,56.7473 2206.15,98.1019 2254.76,113.8106 " fill="none" id="jar-java.io" style="stroke:#A80036;stroke-width:1.0;"/><polygon fill="#A80036" points="2267.21,117.8342,2259.8773,111.2592,2262.4525,116.2958,2257.4159,118.8711,2267.21,117.8342" style="stroke:#A80036;stroke-width:1.0;"/><line style="stroke:#A80036;stroke-width:1.0;" x1="2262.4525" x2="2254.84" y1="116.2958" y2="113.8367"/><polygon fill="#A80036" points="2066.75,53.0552,2071.2283,58.7072,2078.1679,56.7473,2073.6896,51.0953,2066.75,53.0552" style="stroke:#A80036;stroke-width:1.0;"/><!--MD5=[a929e6d2b54380e4c3e4c2b17ce7cd9b]
link jar to java.util--><path d="M2085.4967,48.8006 C2085.4967,48.8006 2273.37,88.9239 2369.5,113 C2371.09,113.3984 2372.7,113.8076 2374.33,114.2251 " fill="none" id="jar-java.util" style="stroke:#A80036;stroke-width:1.0;"/><polygon fill="#A80036" points="2386.92,117.5526,2379.2439,111.3819,2382.0866,116.2726,2377.1959,119.1153,2386.92,117.5526" style="stroke:#A80036;stroke-width:1.0;"/><line style="stroke:#A80036;stroke-width:1.0;" x1="2382.0866" x2="2374.355" y1="116.2726" y2="114.2326"/><polygon fill="#A80036" points="2073.75,46.348,2078.8058,51.4898,2085.4967,48.8006,2080.4409,43.6587,2073.75,46.348" style="stroke:#A80036;stroke-width:1.0;"/><!--MD5=[5c3a1a3f46264e9db3e30d7bbbf0baac]
link jar to java.awt--><path d="M2085.4199,42.3681 C2085.4199,42.3681 2357.3,81.7202 2501.5,113 C2503.11,113.3501 2504.75,113.7148 2506.39,114.0915 " fill="none" id="jar-java.awt" style="stroke:#A80036;stroke-width:1.0;"/><polygon fill="#A80036" points="2519.14,117.1729,2511.3266,111.177,2514.279,116.0023,2509.4537,118.9547,2519.14,117.1729" style="stroke:#A80036;stroke-width:1.0;"/><line style="stroke:#A80036;stroke-width:1.0;" x1="2514.279" x2="2506.505" y1="116.0023" y2="114.1188"/><polygon fill="#A80036" points="2073.53,40.746,2078.9342,45.5203,2085.4199,42.3681,2080.0156,37.5937,2073.53,40.746" style="stroke:#A80036;stroke-width:1.0;"/><!--MD5=[3b7f23bc43aaeafb3da1fe03574e9b5d]
link jar to java.awt.event--><path d="M2085.4502,40.1763 C2085.4502,40.1763 2441.57,80.7705 2637.5,113 C2638.78,113.2107 2640.07,113.4263 2641.37,113.6461 " fill="none" id="jar-java.awt.event" style="stroke:#A80036;stroke-width:1.0;"/><polygon fill="#A80036" points="2654.27,115.9207,2646.1012,110.4188,2649.3459,115.0526,2644.7122,118.2973,2654.27,115.9207" style="stroke:#A80036;stroke-width:1.0;"/><line style="stroke:#A80036;stroke-width:1.0;" x1="2649.3459" x2="2641.47" y1="115.0526" y2="113.6631"/><polygon fill="#A80036" points="2073.52,38.884,2079.0543,43.5069,2085.4502,40.1763,2079.9159,35.5534,2073.52,38.884" style="stroke:#A80036;stroke-width:1.0;"/><!--MD5=[d7db4d17f150ddbfee08d92ae5b03c8c]
link jar to javax.swing--><path d="M2085.5973,35.9835 C2085.5973,35.9835 2556.58,69.2057 2822.5,113 C2823.91,113.2316 2825.33,113.4734 2826.75,113.7242 " fill="none" id="jar-javax.swing" style="stroke:#A80036;stroke-width:1.0;"/><polygon fill="#A80036" points="2839.77,116.1928,2831.6696,110.5908,2834.857,115.2641,2830.1837,118.4516,2839.77,116.1928" style="stroke:#A80036;stroke-width:1.0;"/><line style="stroke:#A80036;stroke-width:1.0;" x1="2834.857" x2="2826.995" y1="115.2641" y2="113.7697"/><polygon fill="#A80036" points="2073.62,35.245,2079.3625,39.6067,2085.5973,35.9835,2079.8548,31.6218,2073.62,35.245" style="stroke:#A80036;stroke-width:1.0;"/><!--MD5=[8cbeb363fba71449ead3f9324de31b45]
@startuml
package "  "  as usantatecla.mastermind {
}
package "  "  as usantatecla.mastermind.controllers {
}
package "  "  as usantatecla.mastermind.models {
}
package "  "  as usantatecla.mastermind.views {
}
package "  "  as usantatecla.mastermind.views.console {
}
package "  "  as usantatecla.mastermind.views.graphics {
}
package "  "  as usantatecla.utils {
}
package "  "  as java.io {
}
package "  "  as java.util {
}
package "  "  as java.awt {
}
package "  "  as java.awt.event {
}
package "  "  as javax.swing {
}

[mastermind.jar] as jar

jar *- -> usantatecla.mastermind
jar *- -> usantatecla.mastermind.controllers
jar *- -> usantatecla.mastermind.models
jar *- -> usantatecla.mastermind.views
jar *- -> usantatecla.mastermind.views.console
jar *- -> usantatecla.mastermind.views.graphics
jar *- -> usantatecla.utils
jar *- -> java.io
jar *- -> java.util
jar *- -> java.awt
jar *- -> java.awt.event
jar *- -> javax.swing
@enduml

PlantUML version 1.2020.22beta2(Unknown compile time)
(GPL source distribution)
Java Runtime: Java(TM) SE Runtime Environment
JVM: Java HotSpot(TM) 64-Bit Server VM
Default Encoding: UTF-8
Language: en
Country: US
--></g></svg>