<?xml version="1.0" encoding="UTF-8" standalone="no"?><svg xmlns="http://www.w3.org/2000/svg" xmlns:xlink="http://www.w3.org/1999/xlink" contentScriptType="application/ecmascript" contentStyleType="text/css" height="159px" preserveAspectRatio="none" style="width:1883px;height:159px;" version="1.1" viewBox="0 0 1883 159" width="1883px" zoomAndPan="magnify"><defs><filter height="300%" id="f1oqjyew4yaf9t" width="300%" x="-1" y="-1"><feGaussianBlur result="blurOut" stdDeviation="2.0"/><feColorMatrix in="blurOut" result="blurOut2" type="matrix" values="0 0 0 0 0 0 0 0 0 0 0 0 0 0 0 0 0 0 .4 0"/><feOffset dx="4.0" dy="4.0" in="blurOut2" result="blurOut3"/><feBlend in="SourceGraphic" in2="blurOut3" mode="normal"/></filter></defs><g><!--MD5=[57ffb8338356de9df77d7af266454cb4]
entity mastermind--><polygon fill="#FFFFFF" filter="url(#f1oqjyew4yaf9t)" points="16,113,120,113,127,135.2969,144,135.2969,144,152.2969,16,152.2969,16,113" style="stroke:#000000;stroke-width:1.5;"/><line style="stroke:#000000;stroke-width:1.5;" x1="16" x2="127" y1="135.2969" y2="135.2969"/><text fill="#000000" font-family="sans-serif" font-size="14" font-weight="bold" lengthAdjust="spacingAndGlyphs" textLength="98" x="20" y="128.9951">mastermind</text><!--MD5=[3808e49a38455c25368b5f4e5a503c92]
entity mastermind.models--><polygon fill="#FFFFFF" filter="url(#f1oqjyew4yaf9t)" points="179.5,113,346.5,113,353.5,135.2969,370.5,135.2969,370.5,152.2969,179.5,152.2969,179.5,113" style="stroke:#000000;stroke-width:1.5;"/><line style="stroke:#000000;stroke-width:1.5;" x1="179.5" x2="353.5" y1="135.2969" y2="135.2969"/><text fill="#000000" font-family="sans-serif" font-size="14" font-weight="bold" lengthAdjust="spacingAndGlyphs" textLength="161" x="183.5" y="128.9951">mastermind.models</text><!--MD5=[bb1ad33323c1038098dafe3f406d0dfa]
entity mastermind.controllers--><polygon fill="#FFFFFF" filter="url(#f1oqjyew4yaf9t)" points="406,113,604,113,611,135.2969,628,135.2969,628,152.2969,406,152.2969,406,113" style="stroke:#000000;stroke-width:1.5;"/><line style="stroke:#000000;stroke-width:1.5;" x1="406" x2="611" y1="135.2969" y2="135.2969"/><text fill="#000000" font-family="sans-serif" font-size="14" font-weight="bold" lengthAdjust="spacingAndGlyphs" textLength="192" x="410" y="128.9951">mastermind.controllers</text><!--MD5=[6e2ec829ccd307027eb6d5d05d3e36de]
entity mastermind.views--><polygon fill="#FFFFFF" filter="url(#f1oqjyew4yaf9t)" points="663,113,817,113,824,135.2969,841,135.2969,841,152.2969,663,152.2969,663,113" style="stroke:#000000;stroke-width:1.5;"/><line style="stroke:#000000;stroke-width:1.5;" x1="663" x2="824" y1="135.2969" y2="135.2969"/><text fill="#000000" font-family="sans-serif" font-size="14" font-weight="bold" lengthAdjust="spacingAndGlyphs" textLength="148" x="667" y="128.9951">mastermind.views</text><!--MD5=[a07bbc7eafaaea337a8bd1096c6c5d02]
entity mastermind.views.console--><polygon fill="#FFFFFF" filter="url(#f1oqjyew4yaf9t)" points="876.5,113,1097.5,113,1104.5,135.2969,1121.5,135.2969,1121.5,152.2969,876.5,152.2969,876.5,113" style="stroke:#000000;stroke-width:1.5;"/><line style="stroke:#000000;stroke-width:1.5;" x1="876.5" x2="1104.5" y1="135.2969" y2="135.2969"/><text fill="#000000" font-family="sans-serif" font-size="14" font-weight="bold" lengthAdjust="spacingAndGlyphs" textLength="215" x="880.5" y="128.9951">mastermind.views.console</text><!--MD5=[ff3dc41352bd67a03fbabcb5335907a5]
entity mastermind.views.graphics--><polygon fill="#FFFFFF" filter="url(#f1oqjyew4yaf9t)" points="1156.5,113,1385.5,113,1392.5,135.2969,1409.5,135.2969,1409.5,152.2969,1156.5,152.2969,1156.5,113" style="stroke:#000000;stroke-width:1.5;"/><line style="stroke:#000000;stroke-width:1.5;" x1="1156.5" x2="1392.5" y1="135.2969" y2="135.2969"/><text fill="#000000" font-family="sans-serif" font-size="14" font-weight="bold" lengthAdjust="spacingAndGlyphs" textLength="223" x="1160.5" y="128.9951">mastermind.views.graphics</text><!--MD5=[6a9e74483831f672b7ced4933d9e76ca]
entity mastermind.utils--><polygon fill="#FFFFFF" filter="url(#f1oqjyew4yaf9t)" points="1445,113,1591,113,1598,135.2969,1615,135.2969,1615,152.2969,1445,152.2969,1445,113" style="stroke:#000000;stroke-width:1.5;"/><line style="stroke:#000000;stroke-width:1.5;" x1="1445" x2="1598" y1="135.2969" y2="135.2969"/><text fill="#000000" font-family="sans-serif" font-size="14" font-weight="bold" lengthAdjust="spacingAndGlyphs" textLength="140" x="1449" y="128.9951">mastermind.utils</text><!--MD5=[48fa9072fd51d9920e6db8484beec696]
entity java.io--><polygon fill="#FFFFFF" filter="url(#f1oqjyew4yaf9t)" points="1650,113,1710,113,1717,135.2969,1734,135.2969,1734,152.2969,1650,152.2969,1650,113" style="stroke:#000000;stroke-width:1.5;"/><line style="stroke:#000000;stroke-width:1.5;" x1="1650" x2="1717" y1="135.2969" y2="135.2969"/><text fill="#000000" font-family="sans-serif" font-size="14" font-weight="bold" lengthAdjust="spacingAndGlyphs" textLength="54" x="1654" y="128.9951">java.io</text><!--MD5=[034f0f7ed136bf78fc117f7e41f76e93]
entity java.util--><polygon fill="#FFFFFF" filter="url(#f1oqjyew4yaf9t)" points="1769.5,113,1842.5,113,1849.5,135.2969,1866.5,135.2969,1866.5,152.2969,1769.5,152.2969,1769.5,113" style="stroke:#000000;stroke-width:1.5;"/><line style="stroke:#000000;stroke-width:1.5;" x1="1769.5" x2="1849.5" y1="135.2969" y2="135.2969"/><text fill="#000000" font-family="sans-serif" font-size="14" font-weight="bold" lengthAdjust="spacingAndGlyphs" textLength="67" x="1773.5" y="128.9951">java.util</text><!--MD5=[c2796faf4134bd8b5f3bc71f44d02e74]
entity jar--><rect fill="#FEFECE" filter="url(#f1oqjyew4yaf9t)" height="46.2969" style="stroke:#A80036;stroke-width:1.5;" width="150" x="924" y="7"/><rect fill="#FEFECE" height="10" style="stroke:#A80036;stroke-width:1.5;" width="15" x="1054" y="12"/><rect fill="#FEFECE" height="2" style="stroke:#A80036;stroke-width:1.5;" width="4" x="1052" y="14"/><rect fill="#FEFECE" height="2" style="stroke:#A80036;stroke-width:1.5;" width="4" x="1052" y="18"/><text fill="#000000" font-family="sans-serif" font-size="14" lengthAdjust="spacingAndGlyphs" textLength="110" x="939" y="39.9951">mastermind.jar</text><!--MD5=[fbe73378274df7025ec7ec540169909c]
link jar to mastermind--><path d="M911.8767,35.9581 C911.8767,35.9581 432.93,69.3396 162,113 C160.379,113.2612 158.742,113.5352 157.094,113.8203 " fill="none" id="jar-mastermind" style="stroke:#A80036;stroke-width:1.0;"/><polygon fill="#A80036" points="144.311,116.1974,153.8907,118.4843,149.2267,115.2831,152.4278,110.6191,144.311,116.1974" style="stroke:#A80036;stroke-width:1.0;"/><line style="stroke:#A80036;stroke-width:1.0;" x1="149.2267" x2="157.092" y1="115.2831" y2="113.8207"/><polygon fill="#A80036" points="923.854,35.221,917.6196,31.5971,911.8767,35.9581,918.111,39.582,923.854,35.221" style="stroke:#A80036;stroke-width:1.0;"/><!--MD5=[5074ba4a694366b975a5201a6215192f]
link jar to mastermind.models--><path d="M911.7457,41.9056 C911.7457,41.9056 573.703,85.3432 388,113 C386.485,113.2256 384.96,113.4543 383.425,113.6858 " fill="none" id="jar-mastermind.models" style="stroke:#A80036;stroke-width:1.0;"/><polygon fill="#A80036" points="370.528,115.6616,380.0299,118.2526,375.4703,114.9045,378.8185,110.3449,370.528,115.6616" style="stroke:#A80036;stroke-width:1.0;"/><line style="stroke:#A80036;stroke-width:1.0;" x1="375.4703" x2="383.378" y1="114.9045" y2="113.6929"/><polygon fill="#A80036" points="923.651,40.401,917.1968,37.1849,911.7457,41.9056,918.1999,45.1218,923.651,40.401" style="stroke:#A80036;stroke-width:1.0;"/><!--MD5=[9de6542bf230468157d8ceffc8804774]
link jar to mastermind.controllers--><path d="M912.2048,49.098 C912.2048,49.098 705.196,92.2599 618.564,110.3234 " fill="none" id="jar-mastermind.controllers" style="stroke:#A80036;stroke-width:1.0;"/><polygon fill="#A80036" points="605.79,112.9868,615.4171,115.065,610.6847,111.9659,613.7837,107.2335,605.79,112.9868" style="stroke:#A80036;stroke-width:1.0;"/><line style="stroke:#A80036;stroke-width:1.0;" x1="610.6847" x2="618.516" y1="111.9659" y2="110.3332"/><polygon fill="#A80036" points="923.952,46.648,917.2617,43.9572,912.2048,49.098,918.895,51.7887,923.952,46.648" style="stroke:#A80036;stroke-width:1.0;"/><!--MD5=[f69683ffa0975f0f6cffc0c7de9e9342]
link jar to mastermind.views--><path d="M933.6796,57.5771 C933.6796,57.5771 846.96,92.8625 810.283,107.7855 " fill="none" id="jar-mastermind.views" style="stroke:#A80036;stroke-width:1.0;"/><polygon fill="#A80036" points="797.792,112.868,807.6359,113.1817,802.4234,110.9839,804.6213,105.7715,797.792,112.868" style="stroke:#A80036;stroke-width:1.0;"/><line style="stroke:#A80036;stroke-width:1.0;" x1="802.4234" x2="809.8335" y1="110.9839" y2="107.9685"/><polygon fill="#A80036" points="944.795,53.0552,937.73,51.611,933.6796,57.5771,940.7446,59.0213,944.795,53.0552" style="stroke:#A80036;stroke-width:1.0;"/><!--MD5=[aa404eabcdc7c44b7274536f18c4e70e]
link jar to mastermind.views.console--><path d="M999,65.3042 C999,65.3042 999,89.2598 999,99.9085 " fill="none" id="jar-mastermind.views.console" style="stroke:#A80036;stroke-width:1.0;"/><polygon fill="#A80036" points="999,112.9606,1003,103.9606,999,107.9606,995,103.9606,999,112.9606" style="stroke:#A80036;stroke-width:1.0;"/><line style="stroke:#A80036;stroke-width:1.0;" x1="999" x2="999" y1="107.9606" y2="99.9607"/><polygon fill="#A80036" points="999,53.3042,995,59.3042,999,65.3042,1003,59.3042,999,53.3042" style="stroke:#A80036;stroke-width:1.0;"/><!--MD5=[43d5963c27e8c70a92bb968c998259ea]
link jar to mastermind.views.graphics--><path d="M1072.6408,57.0634 C1072.6408,57.0634 1175.11,93.3189 1218.05,108.5157 " fill="none" id="jar-mastermind.views.graphics" style="stroke:#A80036;stroke-width:1.0;"/><polygon fill="#A80036" points="1230.35,112.868,1223.1959,106.099,1225.6354,111.2028,1220.5316,113.6423,1230.35,112.868" style="stroke:#A80036;stroke-width:1.0;"/><line style="stroke:#A80036;stroke-width:1.0;" x1="1225.6354" x2="1218.095" y1="111.2028" y2="108.5312"/><polygon fill="#A80036" points="1061.33,53.0552,1065.6494,58.8296,1072.6408,57.0634,1068.3215,51.289,1061.33,53.0552" style="stroke:#A80036;stroke-width:1.0;"/><!--MD5=[5c9f1a9218d110a34ca822ba20fe7b3f]
link jar to mastermind.utils--><path d="M1086.0212,47.4676 C1086.0212,47.4676 1333.3,94.2712 1432.02,112.9556 " fill="none" id="jar-mastermind.utils" style="stroke:#A80036;stroke-width:1.0;"/><polygon fill="#A80036" points="1444.99,115.4106,1436.8895,109.8087,1440.077,114.482,1435.4037,117.6695,1444.99,115.4106" style="stroke:#A80036;stroke-width:1.0;"/><line style="stroke:#A80036;stroke-width:1.0;" x1="1440.077" x2="1432.215" y1="114.482" y2="112.9931"/><polygon fill="#A80036" points="1074.23,45.239,1079.3827,50.2837,1086.0212,47.4676,1080.8685,42.4229,1074.23,45.239" style="stroke:#A80036;stroke-width:1.0;"/><!--MD5=[f17a38c250a1605cd3da9b9fac2ef94b]
link jar to java.io--><path d="M1086.3603,37.4278 C1086.3603,37.4278 1440.81,70.7825 1633,113 C1634.36,113.2994 1635.74,113.6161 1637.13,113.9476 " fill="none" id="jar-java.io" style="stroke:#A80036;stroke-width:1.0;"/><polygon fill="#A80036" points="1649.7,117.2614,1642.0171,111.0991,1644.8652,115.9867,1639.9776,118.8348,1649.7,117.2614" style="stroke:#A80036;stroke-width:1.0;"/><line style="stroke:#A80036;stroke-width:1.0;" x1="1644.8652" x2="1637.13" y1="115.9867" y2="113.9487"/><polygon fill="#A80036" points="1074.4,36.452,1080.0549,40.9267,1086.3603,37.4278,1080.7054,32.9532,1074.4,36.452" style="stroke:#A80036;stroke-width:1.0;"/><!--MD5=[a929e6d2b54380e4c3e4c2b17ce7cd9b]
link jar to java.util--><path d="M1086.1373,35.8104 C1086.1373,35.8104 1514.19,67.0481 1752,113 C1753.49,113.2879 1754.99,113.5929 1756.51,113.9128 " fill="none" id="jar-java.util" style="stroke:#A80036;stroke-width:1.0;"/><polygon fill="#A80036" points="1769.2,116.8535,1761.3326,110.9286,1764.3286,115.727,1759.5302,118.7229,1769.2,116.8535" style="stroke:#A80036;stroke-width:1.0;"/><line style="stroke:#A80036;stroke-width:1.0;" x1="1764.3286" x2="1756.535" y1="115.727" y2="113.9182"/><polygon fill="#A80036" points="1074.16,35.072,1079.9025,39.4336,1086.1373,35.8104,1080.3948,31.4488,1074.16,35.072" style="stroke:#A80036;stroke-width:1.0;"/><!--MD5=[5cbc390295c70d1dabe10de5a8d78fd0]
@startuml
package "  "  as mastermind {
}
package "  "  as mastermind.models {
}
package "  "  as mastermind.controllers{
}
package "  "  as mastermind.views {
}
package "  "  as mastermind.views.console {
}
package "  "  as mastermind.views.graphics {
}
package "  "  as mastermind.utils {
}
package "  "  as java.io {
}
package "  "  as java.util {
}

[mastermind.jar] as jar

jar *- -> mastermind
jar *- -> mastermind.models
jar *- -> mastermind.controllers
jar *- -> mastermind.views
jar *- -> mastermind.views.console
jar *- -> mastermind.views.graphics
jar *- -> mastermind.utils
jar *- -> java.io
jar *- -> java.util
@enduml

PlantUML version 1.2020.21beta3(Unknown compile time)
(GPL source distribution)
Java Runtime: Java(TM) SE Runtime Environment
JVM: Java HotSpot(TM) 64-Bit Server VM
Default Encoding: UTF-8
Language: en
Country: US
--></g></svg>