<?xml version="1.0" encoding="UTF-8" standalone="no"?><svg xmlns="http://www.w3.org/2000/svg" xmlns:xlink="http://www.w3.org/1999/xlink" contentScriptType="application/ecmascript" contentStyleType="text/css" height="159px" preserveAspectRatio="none" style="width:617px;height:159px;" version="1.1" viewBox="0 0 617 159" width="617px" zoomAndPan="magnify"><defs><filter height="300%" id="f1dzz0pjoo2b25" width="300%" x="-1" y="-1"><feGaussianBlur result="blurOut" stdDeviation="2.0"/><feColorMatrix in="blurOut" result="blurOut2" type="matrix" values="0 0 0 0 0 0 0 0 0 0 0 0 0 0 0 0 0 0 .4 0"/><feOffset dx="4.0" dy="4.0" in="blurOut2" result="blurOut3"/><feBlend in="SourceGraphic" in2="blurOut3" mode="normal"/></filter></defs><g><!--MD5=[57ffb8338356de9df77d7af266454cb4]
entity mastermind--><polygon fill="#FFFFFF" filter="url(#f1dzz0pjoo2b25)" points="16,113,120,113,127,135.2969,144,135.2969,144,152.2969,16,152.2969,16,113" style="stroke: #000000; stroke-width: 1.5;"/><line style="stroke: #000000; stroke-width: 1.5;" x1="16" x2="127" y1="135.2969" y2="135.2969"/><text fill="#000000" font-family="sans-serif" font-size="14" font-weight="bold" lengthAdjust="spacingAndGlyphs" textLength="98" x="20" y="128.9951">mastermind</text><!--MD5=[6a9e74483831f672b7ced4933d9e76ca]
entity mastermind.utils--><polygon fill="#FFFFFF" filter="url(#f1dzz0pjoo2b25)" points="179,113,325,113,332,135.2969,349,135.2969,349,152.2969,179,152.2969,179,113" style="stroke: #000000; stroke-width: 1.5;"/><line style="stroke: #000000; stroke-width: 1.5;" x1="179" x2="332" y1="135.2969" y2="135.2969"/><text fill="#000000" font-family="sans-serif" font-size="14" font-weight="bold" lengthAdjust="spacingAndGlyphs" textLength="140" x="183" y="128.9951">mastermind.utils</text><!--MD5=[48fa9072fd51d9920e6db8484beec696]
entity java.io--><polygon fill="#FFFFFF" filter="url(#f1dzz0pjoo2b25)" points="384,113,444,113,451,135.2969,468,135.2969,468,152.2969,384,152.2969,384,113" style="stroke: #000000; stroke-width: 1.5;"/><line style="stroke: #000000; stroke-width: 1.5;" x1="384" x2="451" y1="135.2969" y2="135.2969"/><text fill="#000000" font-family="sans-serif" font-size="14" font-weight="bold" lengthAdjust="spacingAndGlyphs" textLength="54" x="388" y="128.9951">java.io</text><!--MD5=[034f0f7ed136bf78fc117f7e41f76e93]
entity java.util--><polygon fill="#FFFFFF" filter="url(#f1dzz0pjoo2b25)" points="503.5,113,576.5,113,583.5,135.2969,600.5,135.2969,600.5,152.2969,503.5,152.2969,503.5,113" style="stroke: #000000; stroke-width: 1.5;"/><line style="stroke: #000000; stroke-width: 1.5;" x1="503.5" x2="583.5" y1="135.2969" y2="135.2969"/><text fill="#000000" font-family="sans-serif" font-size="14" font-weight="bold" lengthAdjust="spacingAndGlyphs" textLength="67" x="507.5" y="128.9951">java.util</text><!--MD5=[c2796faf4134bd8b5f3bc71f44d02e74]
entity jar--><rect fill="#FEFECE" filter="url(#f1dzz0pjoo2b25)" height="46.2969" style="stroke: #A80036; stroke-width: 1.5;" width="150" x="270" y="7"/><rect fill="#FEFECE" height="10" style="stroke: #A80036; stroke-width: 1.5;" width="15" x="400" y="12"/><rect fill="#FEFECE" height="2" style="stroke: #A80036; stroke-width: 1.5;" width="4" x="398" y="14"/><rect fill="#FEFECE" height="2" style="stroke: #A80036; stroke-width: 1.5;" width="4" x="398" y="18"/><text fill="#000000" font-family="sans-serif" font-size="14" lengthAdjust="spacingAndGlyphs" textLength="110" x="285" y="39.9951">mastermind.jar</text><!--MD5=[fbe73378274df7025ec7ec540169909c]
link jar to mastermind--><path d="M275.6248,57.3105 C275.6248,57.3105 181.119,93.151 141.327,108.2421 " fill="none" id="jar-mastermind" style="stroke: #A80036; stroke-width: 1.0;"/><polygon fill="#A80036" points="129.129,112.868,138.9626,113.4165,133.8041,111.0949,136.1257,105.9364,129.129,112.868" style="stroke: #A80036; stroke-width: 1.0;"/><line style="stroke: #A80036; stroke-width: 1.0;" x1="133.8041" x2="141.2845" y1="111.0949" y2="108.2582"/><polygon fill="#A80036" points="286.845,53.0552,279.8165,51.4428,275.6248,57.3105,282.6534,58.9229,286.845,53.0552" style="stroke: #A80036; stroke-width: 1.0;"/><!--MD5=[5c9f1a9218d110a34ca822ba20fe7b3f]
link jar to mastermind.utils--><path d="M319.4925,62.6472 C319.4925,62.6472 296.983,90.5769 287.106,102.8317 " fill="none" id="jar-mastermind.utils" style="stroke: #A80036; stroke-width: 1.0;"/><polygon fill="#A80036" points="278.942,112.9606,287.7039,108.4629,282.0794,109.0675,281.4749,103.443,278.942,112.9606" style="stroke: #A80036; stroke-width: 1.0;"/><line style="stroke: #A80036; stroke-width: 1.0;" x1="282.0794" x2="287.1" y1="109.0675" y2="102.8389"/><polygon fill="#A80036" points="327.023,53.3042,320.1434,55.4656,319.4925,62.6472,326.3721,60.4859,327.023,53.3042" style="stroke: #A80036; stroke-width: 1.0;"/><!--MD5=[f17a38c250a1605cd3da9b9fac2ef94b]
link jar to java.io--><path d="M370.5075,62.6472 C370.5075,62.6472 393.017,90.5769 402.894,102.8317 " fill="none" id="jar-java.io" style="stroke: #A80036; stroke-width: 1.0;"/><polygon fill="#A80036" points="411.058,112.9606,408.5251,103.443,407.9206,109.0675,402.2961,108.4629,411.058,112.9606" style="stroke: #A80036; stroke-width: 1.0;"/><line style="stroke: #A80036; stroke-width: 1.0;" x1="407.9206" x2="402.9" y1="109.0675" y2="102.8389"/><polygon fill="#A80036" points="362.977,53.3042,363.6279,60.4859,370.5075,62.6472,369.8566,55.4656,362.977,53.3042" style="stroke: #A80036; stroke-width: 1.0;"/><!--MD5=[a929e6d2b54380e4c3e4c2b17ce7cd9b]
link jar to java.util--><path d="M401.2217,58.2968 C401.2217,58.2968 471.811,92.5677 501.753,107.1046 " fill="none" id="jar-java.util" style="stroke: #A80036; stroke-width: 1.0;"/><polygon fill="#A80036" points="513.624,112.868,507.2744,105.3392,509.126,110.6844,503.7807,112.536,513.624,112.868" style="stroke: #A80036; stroke-width: 1.0;"/><line style="stroke: #A80036; stroke-width: 1.0;" x1="509.126" x2="501.929" y1="110.6844" y2="107.1902"/><polygon fill="#A80036" points="390.427,53.0552,394.0771,59.2742,401.2217,58.2968,397.5716,52.0778,390.427,53.0552" style="stroke: #A80036; stroke-width: 1.0;"/><!--MD5=[8c0d49c5a372ff36145fba8b245e1307]
@startuml
package "  "  as mastermind {
}
package "  "  as mastermind.utils {
}
package "  "  as java.io {
}
package "  "  as java.util {
}

[mastermind.jar] as jar

jar *- -> mastermind
jar *- -> mastermind.utils
jar *- -> java.io
jar *- -> java.util
@enduml

PlantUML version 1.2020.20beta2(Unknown compile time)
(GPL source distribution)
Java Runtime: Java(TM) SE Runtime Environment
JVM: Java HotSpot(TM) 64-Bit Server VM
Default Encoding: UTF-8
Language: en
Country: US
--></g></svg>