<?xml version="1.0" encoding="UTF-8" standalone="no"?><svg xmlns="http://www.w3.org/2000/svg" xmlns:xlink="http://www.w3.org/1999/xlink" contentScriptType="application/ecmascript" contentStyleType="text/css" height="517px" preserveAspectRatio="none" style="width:1063px;height:517px;" version="1.1" viewBox="0 0 1063 517" width="1063px" zoomAndPan="magnify"><defs><filter height="300%" id="frmec8zeaoull" width="300%" x="-1" y="-1"><feGaussianBlur result="blurOut" stdDeviation="2.0"/><feColorMatrix in="blurOut" result="blurOut2" type="matrix" values="0 0 0 0 0 0 0 0 0 0 0 0 0 0 0 0 0 0 .4 0"/><feOffset dx="4.0" dy="4.0" in="blurOut2" result="blurOut3"/><feBlend in="SourceGraphic" in2="blurOut3" mode="normal"/></filter></defs><g><polygon fill="#DDDDDD" filter="url(#frmec8zeaoull)" points="245.4015,6,349.4015,6,356.4015,28.2969,363.4015,28.2969,363.4015,58.5938,245.4015,58.5938,245.4015,6" style="stroke: #000000; stroke-width: 1.5;"/><line style="stroke: #000000; stroke-width: 1.5;" x1="245.4015" x2="356.4015" y1="28.2969" y2="28.2969"/><text fill="#000000" font-family="sans-serif" font-size="14" font-weight="bold" lengthAdjust="spacingAndGlyphs" textLength="98" x="249.4015" y="20.9951">mastermind</text><polygon fill="#DDDDDD" filter="url(#frmec8zeaoull)" points="357.4015,232,511.4015,232,518.4015,254.2969,525.4015,254.2969,525.4015,284.5938,357.4015,284.5938,357.4015,232" style="stroke: #000000; stroke-width: 1.5;"/><line style="stroke: #000000; stroke-width: 1.5;" x1="357.4015" x2="518.4015" y1="254.2969" y2="254.2969"/><text fill="#000000" font-family="sans-serif" font-size="14" font-weight="bold" lengthAdjust="spacingAndGlyphs" textLength="148" x="361.4015" y="246.9951">mastermind.views</text><polygon fill="#DDDDDD" filter="url(#frmec8zeaoull)" points="296.9015,345,463.9015,345,470.9015,367.2969,477.9015,367.2969,477.9015,397.5938,296.9015,397.5938,296.9015,345" style="stroke: #000000; stroke-width: 1.5;"/><line style="stroke: #000000; stroke-width: 1.5;" x1="296.9015" x2="470.9015" y1="367.2969" y2="367.2969"/><text fill="#000000" font-family="sans-serif" font-size="14" font-weight="bold" lengthAdjust="spacingAndGlyphs" textLength="161" x="300.9015" y="359.9951">mastermind.models</text><polygon fill="#FFFFFF" filter="url(#frmec8zeaoull)" points="343.9015,458,416.9015,458,423.9015,480.2969,430.9015,480.2969,430.9015,510.5938,343.9015,510.5938,343.9015,458" style="stroke: #000000; stroke-width: 1.5;"/><line style="stroke: #000000; stroke-width: 1.5;" x1="343.9015" x2="423.9015" y1="480.2969" y2="480.2969"/><text fill="#000000" font-family="sans-serif" font-size="14" font-weight="bold" lengthAdjust="spacingAndGlyphs" textLength="67" x="347.9015" y="472.9951">java.util</text><polygon fill="#DDDDDD" filter="url(#frmec8zeaoull)" points="91.4019,232,237.4019,232,244.4019,254.2969,251.4019,254.2969,251.4019,284.5938,91.4019,284.5938,91.4019,232" style="stroke: #000000; stroke-width: 1.5;"/><line style="stroke: #000000; stroke-width: 1.5;" x1="91.4019" x2="244.4019" y1="254.2969" y2="254.2969"/><text fill="#000000" font-family="sans-serif" font-size="14" font-weight="bold" lengthAdjust="spacingAndGlyphs" textLength="140" x="95.4019" y="246.9951">mastermind.utils</text><polygon fill="#FFFFFF" filter="url(#frmec8zeaoull)" points="134.4019,345,194.4019,345,201.4019,367.2969,208.4019,367.2969,208.4019,397.5938,134.4019,397.5938,134.4019,345" style="stroke: #000000; stroke-width: 1.5;"/><line style="stroke: #000000; stroke-width: 1.5;" x1="134.4019" x2="201.4019" y1="367.2969" y2="367.2969"/><text fill="#000000" font-family="sans-serif" font-size="14" font-weight="bold" lengthAdjust="spacingAndGlyphs" textLength="54" x="138.4019" y="359.9951">java.io</text><polygon fill="#DDDDDD" filter="url(#frmec8zeaoull)" points="186.9015,119,407.9015,119,414.9015,141.2969,421.9015,141.2969,421.9015,171.5938,186.9015,171.5938,186.9015,119" style="stroke: #000000; stroke-width: 1.5;"/><line style="stroke: #000000; stroke-width: 1.5;" x1="186.9015" x2="414.9015" y1="141.2969" y2="141.2969"/><text fill="#000000" font-family="sans-serif" font-size="14" font-weight="bold" lengthAdjust="spacingAndGlyphs" textLength="215" x="190.9015" y="133.9951">mastermind.views.console</text><polygon fill="#DDDDDD" filter="url(#frmec8zeaoull)" points="505.9015,119,734.9015,119,741.9015,141.2969,748.9015,141.2969,748.9015,171.5938,505.9015,171.5938,505.9015,119" style="stroke: #000000; stroke-width: 1.5;"/><line style="stroke: #000000; stroke-width: 1.5;" x1="505.9015" x2="741.9015" y1="141.2969" y2="141.2969"/><text fill="#000000" font-family="sans-serif" font-size="14" font-weight="bold" lengthAdjust="spacingAndGlyphs" textLength="223" x="509.9015" y="133.9951">mastermind.views.graphics</text><polygon fill="#FFFFFF" filter="url(#frmec8zeaoull)" points="631.4015,232,707.4015,232,714.4015,254.2969,721.4015,254.2969,721.4015,284.5938,631.4015,284.5938,631.4015,232" style="stroke: #000000; stroke-width: 1.5;"/><line style="stroke: #000000; stroke-width: 1.5;" x1="631.4015" x2="714.4015" y1="254.2969" y2="254.2969"/><text fill="#000000" font-family="sans-serif" font-size="14" font-weight="bold" lengthAdjust="spacingAndGlyphs" textLength="70" x="635.4015" y="246.9951">java.awt</text><polygon fill="#FFFFFF" filter="url(#frmec8zeaoull)" points="756.4015,232,882.4015,232,889.4015,254.2969,896.4015,254.2969,896.4015,284.5938,756.4015,284.5938,756.4015,232" style="stroke: #000000; stroke-width: 1.5;"/><line style="stroke: #000000; stroke-width: 1.5;" x1="756.4015" x2="889.4015" y1="254.2969" y2="254.2969"/><text fill="#000000" font-family="sans-serif" font-size="14" font-weight="bold" lengthAdjust="spacingAndGlyphs" textLength="120" x="760.4015" y="246.9951">java.awt.event</text><polygon fill="#FFFFFF" filter="url(#frmec8zeaoull)" points="931.9015,232,1032.9015,232,1039.9015,254.2969,1046.9015,254.2969,1046.9015,284.5938,931.9015,284.5938,931.9015,232" style="stroke: #000000; stroke-width: 1.5;"/><line style="stroke: #000000; stroke-width: 1.5;" x1="931.9015" x2="1039.9015" y1="254.2969" y2="254.2969"/><text fill="#000000" font-family="sans-serif" font-size="14" font-weight="bold" lengthAdjust="spacingAndGlyphs" textLength="95" x="935.9015" y="246.9951">javax.swing</text><!--MD5=[5a7375d6d2c9f55bf8e92f7679cbf013]
link mastermind to mastermind.views.console--><path codeLine="2" d="M304.4015,59.245 C304.4015,75.496 304.4015,96.579 304.4015,113.714 " fill="none" id="mastermind-to-mastermind.views.console" style="stroke: #A80036; stroke-width: 1.0; stroke-dasharray: 7.0,7.0;"/><polygon fill="#A80036" points="304.4015,118.895,308.4015,109.895,304.4015,113.895,300.4015,109.895,304.4015,118.895" style="stroke: #A80036; stroke-width: 1.0;"/><!--MD5=[71349e294188949e92ef25974d5f8bc3]
link mastermind to mastermind.views.graphics--><path codeLine="3" d="M363.6455,53.859 C415.4595,71.665 491.1305,97.67 548.1465,117.263 " fill="none" id="mastermind-to-mastermind.views.graphics" style="stroke: #A80036; stroke-width: 1.0; stroke-dasharray: 7.0,7.0;"/><polygon fill="#A80036" points="552.9095,118.9,545.6972,112.1931,548.1807,117.2756,543.0982,119.7592,552.9095,118.9" style="stroke: #A80036; stroke-width: 1.0;"/><!--MD5=[3f67d8a440fed401fe3b5323e86f87b4]
link mastermind to mastermind.models--><path codeLine="4" d="M248.7865,59.088 C160.7875,103.067 6,196.791 73.4019,285 C99.9613,319.758 209.2775,343.75 291.5165,357.283 " fill="none" id="mastermind-to-mastermind.models" style="stroke: #A80036; stroke-width: 1.0; stroke-dasharray: 7.0,7.0;"/><polygon fill="#A80036" points="296.8935,358.159,288.6542,352.7632,291.9586,357.3546,287.3672,360.659,296.8935,358.159" style="stroke: #A80036; stroke-width: 1.0;"/><!--MD5=[9452f5a6b240960a46d89fd31eee6232]
link mastermind.views to mastermind.models--><path codeLine="7" d="M428.8775,285.245 C420.9035,301.636 410.5375,322.943 402.1635,340.156 " fill="none" id="mastermind.views-to-mastermind.models" style="stroke: #A80036; stroke-width: 1.0; stroke-dasharray: 7.0,7.0;"/><polygon fill="#A80036" points="399.8585,344.895,407.3927,338.5518,402.0459,340.3988,400.1988,335.052,399.8585,344.895" style="stroke: #A80036; stroke-width: 1.0;"/><!--MD5=[bf16e85c09ac2493f319629dda43fa4f]
link mastermind.models to java.util--><path d="M387.4015,398.245 C387.4015,414.4958 387.4015,435.5795 387.4015,452.7139 " fill="none" id="mastermind.models-to-java.util" style="stroke: #A80036; stroke-width: 1.0; stroke-dasharray: 7.0,7.0;"/><polygon fill="#A80036" points="387.4015,457.895,391.4015,448.895,387.4015,452.895,383.4015,448.895,387.4015,457.895" style="stroke: #A80036; stroke-width: 1.0;"/><!--MD5=[dfc658cc50cf405c058d94c2b8d082b1]
link mastermind.utils to java.io--><path d="M171.4015,285.245 C171.4015,301.496 171.4015,322.579 171.4015,339.714 " fill="none" id="mastermind.utils-to-java.io" style="stroke: #A80036; stroke-width: 1.0; stroke-dasharray: 7.0,7.0;"/><polygon fill="#A80036" points="171.4015,344.895,175.4015,335.895,171.4015,339.895,167.4015,335.895,171.4015,344.895" style="stroke: #A80036; stroke-width: 1.0;"/><!--MD5=[5abb14f80e60a305d94565d13c5fda06]
link mastermind.views.console to mastermind.models--><path d="M308.7785,172.152 C314.0835,200.442 324.2405,246.99 339.4015,285 C347.0695,304.222 358.2795,324.469 367.9375,340.433 " fill="none" id="mastermind.views.console-to-mastermind.models" style="stroke: #A80036; stroke-width: 1.0; stroke-dasharray: 7.0,7.0;"/><polygon fill="#A80036" points="370.6165,344.817,369.3375,335.0515,368.0097,340.5503,362.5109,339.2225,370.6165,344.817" style="stroke: #A80036; stroke-width: 1.0;"/><!--MD5=[9aba64915bf62b312f15a0982cdb1002]
link mastermind.views.console to mastermind.utils--><path d="M273.5545,172.245 C253.3275,189.126 226.8515,211.223 205.9225,228.69 " fill="none" id="mastermind.views.console-to-mastermind.utils" style="stroke: #A80036; stroke-width: 1.0; stroke-dasharray: 7.0,7.0;"/><polygon fill="#A80036" points="202.0815,231.895,211.5546,229.2003,205.9206,228.6917,206.4293,223.0577,202.0815,231.895" style="stroke: #A80036; stroke-width: 1.0;"/><!--MD5=[95e5d34310c7b2ccc3e2879af69b26a7]
link mastermind.views.console to mastermind.views--><path d="M336.1765,172.245 C357.0125,189.126 384.2845,211.223 405.8435,228.69 " fill="none" id="mastermind.views.console-to-mastermind.views" style="stroke: #A80036; stroke-width: 1.0; stroke-dasharray: 7.0,7.0;"/><polygon fill="#A80036" points="409.7995,231.895,405.3267,223.1203,405.9153,228.7465,400.2892,229.3351,409.7995,231.895" style="stroke: #A80036; stroke-width: 1.0;"/><!--MD5=[01137dade69ee6b09c2754519904135d]
link mastermind.views.graphics to mastermind.views--><path d="M584.2625,172.245 C555.7395,189.266 518.3325,211.59 488.9515,229.124 " fill="none" id="mastermind.views.graphics-to-mastermind.views" style="stroke: #A80036; stroke-width: 1.0; stroke-dasharray: 7.0,7.0;"/><polygon fill="#A80036" points="484.3075,231.895,494.0855,230.7161,488.6006,229.332,489.9847,223.8471,484.3075,231.895" style="stroke: #A80036; stroke-width: 1.0;"/><!--MD5=[8ec6b66ebbdff0c7efc2e23835bd4b75]
link mastermind.views.graphics to mastermind.models--><path d="M616.7875,172.229 C603.3465,202.305 577.7365,252.138 543.4015,285 C518.3055,309.02 485.1455,328.439 455.8535,342.662 " fill="none" id="mastermind.views.graphics-to-mastermind.models" style="stroke: #A80036; stroke-width: 1.0; stroke-dasharray: 7.0,7.0;"/><polygon fill="#A80036" points="451.1875,344.9,461.0322,344.6137,455.6956,342.7374,457.572,337.4008,451.1875,344.9" style="stroke: #A80036; stroke-width: 1.0;"/><!--MD5=[0c90a7f994b772eb88ef213ebe3d64aa]
link mastermind.views.graphics to java.awt--><path d="M638.7665,172.245 C646.0025,188.636 655.4085,209.943 663.0065,227.156 " fill="none" id="mastermind.views.graphics-to-java.awt" style="stroke: #A80036; stroke-width: 1.0; stroke-dasharray: 7.0,7.0;"/><polygon fill="#A80036" points="665.0985,231.895,665.1219,222.0462,663.0787,227.3211,657.8037,225.2779,665.0985,231.895" style="stroke: #A80036; stroke-width: 1.0;"/><!--MD5=[6a14d48267ae7c98884332f96188e3b2]
link mastermind.views.graphics to java.awt.event--><path d="M673.5565,172.245 C704.1985,189.336 744.4235,211.773 775.9165,229.34 " fill="none" id="mastermind.views.graphics-to-java.awt.event" style="stroke: #A80036; stroke-width: 1.0; stroke-dasharray: 7.0,7.0;"/><polygon fill="#A80036" points="780.4975,231.895,774.5858,224.0177,776.1308,229.4595,770.689,231.0045,780.4975,231.895" style="stroke: #A80036; stroke-width: 1.0;"/><!--MD5=[681506abf34402c28ac3a64c2f7a6c90]
link mastermind.views.graphics to javax.swing--><path d="M716.2335,172.014 C773.0675,188.571 848.2745,210.917 914.4015,232 C918.4515,233.291 922.6165,234.642 926.8095,236.02 " fill="none" id="mastermind.views.graphics-to-javax.swing" style="stroke: #A80036; stroke-width: 1.0; stroke-dasharray: 7.0,7.0;"/><polygon fill="#A80036" points="931.7405,237.647,924.4493,231.026,926.9928,236.0787,921.94,238.6222,931.7405,237.647" style="stroke: #A80036; stroke-width: 1.0;"/><!--MD5=[bfcda45932ffb56f3a7a794cd67b6d6d]
@startuml
package mastermind #DDDDDD { }
mastermind .down.> mastermind.views.console
mastermind .down.> mastermind.views.graphics
mastermind .down.> mastermind.models

package mastermind.views #DDDDDD { }
mastermind.views .down.> mastermind.models

package mastermind.models #DDDDDD { }
package java.util{ }
mastermind.models .down.> java.util

package mastermind.utils #DDDDDD { }
package java.io{ }
mastermind.utils .down.> java.io

package mastermind.views.console #DDDDDD { }
mastermind.views.console .down.> mastermind.models
mastermind.views.console .down.> mastermind.utils
mastermind.views.console .down.> mastermind.views

package mastermind.views.graphics #DDDDDD { }
package java.awt{ }
package java.awt.event{ }
package javax.swing{ }
mastermind.views.graphics .down.> mastermind.views
mastermind.views.graphics .down.> mastermind.models
mastermind.views.graphics .down.> java.awt
mastermind.views.graphics .down.> java.awt.event
mastermind.views.graphics .down.> javax.swing
@enduml

PlantUML version 1.2020.20beta4(Unknown compile time)
(GPL source distribution)
Java Runtime: Java(TM) SE Runtime Environment
JVM: Java HotSpot(TM) 64-Bit Server VM
Default Encoding: UTF-8
Language: en
Country: US
--></g></svg>