<?xml version="1.0" encoding="UTF-8" standalone="no"?><svg xmlns="http://www.w3.org/2000/svg" xmlns:xlink="http://www.w3.org/1999/xlink" contentScriptType="application/ecmascript" contentStyleType="text/css" height="517px" preserveAspectRatio="none" style="width:1146px;height:517px;" version="1.1" viewBox="0 0 1146 517" width="1146px" zoomAndPan="magnify"><defs><filter height="300%" id="fvqt72dh918vp" width="300%" x="-1" y="-1"><feGaussianBlur result="blurOut" stdDeviation="2.0"/><feColorMatrix in="blurOut" result="blurOut2" type="matrix" values="0 0 0 0 0 0 0 0 0 0 0 0 0 0 0 0 0 0 .4 0"/><feOffset dx="4.0" dy="4.0" in="blurOut2" result="blurOut3"/><feBlend in="SourceGraphic" in2="blurOut3" mode="normal"/></filter></defs><g><polygon fill="#DDDDDD" filter="url(#fvqt72dh918vp)" points="265.9113,6,472.9113,6,479.9113,28.2969,486.9113,28.2969,486.9113,58.5938,265.9113,58.5938,265.9113,6" style="stroke: #000000; stroke-width: 1.5;"/><line style="stroke: #000000; stroke-width: 1.5;" x1="265.9113" x2="479.9113" y1="28.2969" y2="28.2969"/><text fill="#000000" font-family="sans-serif" font-size="14" font-weight="bold" lengthAdjust="spacingAndGlyphs" textLength="201" x="269.9113" y="20.9951">usantatecla.mastermind</text><polygon fill="#DDDDDD" filter="url(#fvqt72dh918vp)" points="276.4113,345,546.4113,345,553.4113,367.2969,560.4113,367.2969,560.4113,397.5938,276.4113,397.5938,276.4113,345" style="stroke: #000000; stroke-width: 1.5;"/><line style="stroke: #000000; stroke-width: 1.5;" x1="276.4113" x2="553.4113" y1="367.2969" y2="367.2969"/><text fill="#000000" font-family="sans-serif" font-size="14" font-weight="bold" lengthAdjust="spacingAndGlyphs" textLength="264" x="280.4113" y="359.9951">usantatecla.mastermind.models</text><polygon fill="#FFFFFF" filter="url(#fvqt72dh918vp)" points="374.9113,458,447.9113,458,454.9113,480.2969,461.9113,480.2969,461.9113,510.5938,374.9113,510.5938,374.9113,458" style="stroke: #000000; stroke-width: 1.5;"/><line style="stroke: #000000; stroke-width: 1.5;" x1="374.9113" x2="454.9113" y1="480.2969" y2="480.2969"/><text fill="#000000" font-family="sans-serif" font-size="14" font-weight="bold" lengthAdjust="spacingAndGlyphs" textLength="67" x="378.9113" y="472.9951">java.util</text><polygon fill="#DDDDDD" filter="url(#fvqt72dh918vp)" points="70.4117,232,216.4117,232,223.4117,254.2969,230.4117,254.2969,230.4117,284.5938,70.4117,284.5938,70.4117,232" style="stroke: #000000; stroke-width: 1.5;"/><line style="stroke: #000000; stroke-width: 1.5;" x1="70.4117" x2="223.4117" y1="254.2969" y2="254.2969"/><text fill="#000000" font-family="sans-serif" font-size="14" font-weight="bold" lengthAdjust="spacingAndGlyphs" textLength="140" x="74.4117" y="246.9951">usantatecla.utils</text><polygon fill="#FFFFFF" filter="url(#fvqt72dh918vp)" points="113.4117,345,173.4117,345,180.4117,367.2969,187.4117,367.2969,187.4117,397.5938,113.4117,397.5938,113.4117,345" style="stroke: #000000; stroke-width: 1.5;"/><line style="stroke: #000000; stroke-width: 1.5;" x1="113.4117" x2="180.4117" y1="367.2969" y2="367.2969"/><text fill="#000000" font-family="sans-serif" font-size="14" font-weight="bold" lengthAdjust="spacingAndGlyphs" textLength="54" x="117.4117" y="359.9951">java.io</text><polygon fill="#DDDDDD" filter="url(#fvqt72dh918vp)" points="336.9113,232,593.9113,232,600.9113,254.2969,607.9113,254.2969,607.9113,284.5938,336.9113,284.5938,336.9113,232" style="stroke: #000000; stroke-width: 1.5;"/><line style="stroke: #000000; stroke-width: 1.5;" x1="336.9113" x2="600.9113" y1="254.2969" y2="254.2969"/><text fill="#000000" font-family="sans-serif" font-size="14" font-weight="bold" lengthAdjust="spacingAndGlyphs" textLength="251" x="340.9113" y="246.9951">usantatecla.mastermind.views</text><polygon fill="#DDDDDD" filter="url(#fvqt72dh918vp)" points="96.4117,119,420.4117,119,427.4117,141.2969,434.4117,141.2969,434.4117,171.5938,96.4117,171.5938,96.4117,119" style="stroke: #000000; stroke-width: 1.5;"/><line style="stroke: #000000; stroke-width: 1.5;" x1="96.4117" x2="427.4117" y1="141.2969" y2="141.2969"/><text fill="#000000" font-family="sans-serif" font-size="14" font-weight="bold" lengthAdjust="spacingAndGlyphs" textLength="318" x="100.4117" y="133.9951">usantatecla.mastermind.views.console</text><polygon fill="#DDDDDD" filter="url(#fvqt72dh918vp)" points="570.4113,119,902.4113,119,909.4113,141.2969,916.4113,141.2969,916.4113,171.5938,570.4113,171.5938,570.4113,119" style="stroke: #000000; stroke-width: 1.5;"/><line style="stroke: #000000; stroke-width: 1.5;" x1="570.4113" x2="909.4113" y1="141.2969" y2="141.2969"/><text fill="#000000" font-family="sans-serif" font-size="14" font-weight="bold" lengthAdjust="spacingAndGlyphs" textLength="326" x="574.4113" y="133.9951">usantatecla.mastermind.views.graphics</text><polygon fill="#FFFFFF" filter="url(#fvqt72dh918vp)" points="714.4113,232,790.4113,232,797.4113,254.2969,804.4113,254.2969,804.4113,284.5938,714.4113,284.5938,714.4113,232" style="stroke: #000000; stroke-width: 1.5;"/><line style="stroke: #000000; stroke-width: 1.5;" x1="714.4113" x2="797.4113" y1="254.2969" y2="254.2969"/><text fill="#000000" font-family="sans-serif" font-size="14" font-weight="bold" lengthAdjust="spacingAndGlyphs" textLength="70" x="718.4113" y="246.9951">java.awt</text><polygon fill="#FFFFFF" filter="url(#fvqt72dh918vp)" points="839.4113,232,965.4113,232,972.4113,254.2969,979.4113,254.2969,979.4113,284.5938,839.4113,284.5938,839.4113,232" style="stroke: #000000; stroke-width: 1.5;"/><line style="stroke: #000000; stroke-width: 1.5;" x1="839.4113" x2="972.4113" y1="254.2969" y2="254.2969"/><text fill="#000000" font-family="sans-serif" font-size="14" font-weight="bold" lengthAdjust="spacingAndGlyphs" textLength="120" x="843.4113" y="246.9951">java.awt.event</text><polygon fill="#FFFFFF" filter="url(#fvqt72dh918vp)" points="1014.9113,232,1115.9113,232,1122.9113,254.2969,1129.9113,254.2969,1129.9113,284.5938,1014.9113,284.5938,1014.9113,232" style="stroke: #000000; stroke-width: 1.5;"/><line style="stroke: #000000; stroke-width: 1.5;" x1="1014.9113" x2="1122.9113" y1="254.2969" y2="254.2969"/><text fill="#000000" font-family="sans-serif" font-size="14" font-weight="bold" lengthAdjust="spacingAndGlyphs" textLength="95" x="1018.9113" y="246.9951">javax.swing</text><!--MD5=[4e19c524e2c69b87d36da5f0fb3d6b68]
link usantatecla.mastermind to usantatecla.mastermind.views--><path codeLine="2" d="M405.9193,59.062 C422.0043,74.708 440.7543,96.083 451.4113,119 C467.4373,153.462 471.7233,197.46 472.6303,226.511 " fill="none" id="usantatecla.mastermind-to-usantatecla.mastermind.views" style="stroke: #A80036; stroke-width: 1.0; stroke-dasharray: 7.0,7.0;"/><polygon fill="#A80036" points="472.7623,231.755,476.5348,222.6573,472.6366,226.7566,468.5373,222.8584,472.7623,231.755" style="stroke: #A80036; stroke-width: 1.0;"/><!--MD5=[1b01179086f6bbc1e835b05fcb7da69a]
link usantatecla.mastermind to usantatecla.mastermind.models--><path codeLine="3" d="M265.8903,38.347 C202.6473,46.969 126.5535,68.224 78.4117,119 C27.0316,173.192 6,226.497 52.4117,285 C80.0242,319.806 181.8223,341.776 271.0693,354.717 " fill="none" id="usantatecla.mastermind-to-usantatecla.mastermind.models" style="stroke: #A80036; stroke-width: 1.0; stroke-dasharray: 7.0,7.0;"/><polygon fill="#A80036" points="276.1163,355.441,267.7771,350.201,271.1672,354.7295,266.6387,358.1196,276.1163,355.441" style="stroke: #A80036; stroke-width: 1.0;"/><!--MD5=[154cfa84253b6c83652f8cc515248a6d]
link usantatecla.mastermind to usantatecla.mastermind.views.console--><path codeLine="4" d="M350.6673,59.245 C333.9953,75.916 312.2383,97.673 294.8763,115.035 " fill="none" id="usantatecla.mastermind-to-usantatecla.mastermind.views.console" style="stroke: #A80036; stroke-width: 1.0; stroke-dasharray: 7.0,7.0;"/><polygon fill="#A80036" points="291.0163,118.895,300.2094,115.3613,294.5525,115.3602,294.5537,109.7033,291.0163,118.895" style="stroke: #A80036; stroke-width: 1.0;"/><!--MD5=[77bfac299a9dfa14d994751e1b13d1fb]
link usantatecla.mastermind to usantatecla.mastermind.views.graphics--><path codeLine="5" d="M461.0693,59.105 C518.8243,76.573 595.1993,99.673 653.9503,117.442 " fill="none" id="usantatecla.mastermind-to-usantatecla.mastermind.views.graphics" style="stroke: #A80036; stroke-width: 1.0; stroke-dasharray: 7.0,7.0;"/><polygon fill="#A80036" points="658.8623,118.928,651.4071,112.4922,654.0767,117.4795,649.0894,120.1491,658.8623,118.928" style="stroke: #A80036; stroke-width: 1.0;"/><!--MD5=[58f66f5f60379dd70ef75cb976dcb215]
link usantatecla.mastermind.models to java.util--><path d="M418.4113,398.245 C418.4113,414.4958 418.4113,435.5795 418.4113,452.7139 " fill="none" id="usantatecla.mastermind.models-to-java.util" style="stroke: #A80036; stroke-width: 1.0; stroke-dasharray: 7.0,7.0;"/><polygon fill="#A80036" points="418.4113,457.895,422.4113,448.895,418.4113,452.895,414.4113,448.895,418.4113,457.895" style="stroke: #A80036; stroke-width: 1.0;"/><!--MD5=[f7f372d3543268b8cc298f05137e5dac]
link usantatecla.utils to java.io--><path d="M150.4113,285.245 C150.4113,301.496 150.4113,322.579 150.4113,339.714 " fill="none" id="usantatecla.utils-to-java.io" style="stroke: #A80036; stroke-width: 1.0; stroke-dasharray: 7.0,7.0;"/><polygon fill="#A80036" points="150.4113,344.895,154.4113,335.895,150.4113,339.895,146.4113,335.895,150.4113,344.895" style="stroke: #A80036; stroke-width: 1.0;"/><!--MD5=[49315a8911a3f054d41fa10ad9349828]
link usantatecla.mastermind.views to usantatecla.mastermind.models--><path d="M459.8873,285.245 C451.9133,301.636 441.5473,322.943 433.1733,340.156 " fill="none" id="usantatecla.mastermind.views-to-usantatecla.mastermind.models" style="stroke: #A80036; stroke-width: 1.0; stroke-dasharray: 7.0,7.0;"/><polygon fill="#A80036" points="430.8683,344.895,438.4025,338.5518,433.0557,340.3988,431.2086,335.052,430.8683,344.895" style="stroke: #A80036; stroke-width: 1.0;"/><!--MD5=[4d42c51424c2fe200638a22853989c83]
link usantatecla.mastermind.views.console to usantatecla.mastermind.views--><path d="M313.1613,172.105 C345.0263,189.192 386.9393,211.667 419.7683,229.271 " fill="none" id="usantatecla.mastermind.views.console-to-usantatecla.mastermind.views" style="stroke: #A80036; stroke-width: 1.0; stroke-dasharray: 7.0,7.0;"/><polygon fill="#A80036" points="424.5443,231.832,418.5035,224.0533,420.138,229.4688,414.7224,231.1033,424.5443,231.832" style="stroke: #A80036; stroke-width: 1.0;"/><!--MD5=[da57a9a30559a1d2bbc81c15e4653a5b]
link usantatecla.mastermind.views.console to usantatecla.mastermind.models--><path d="M271.3673,172.054 C279.0473,201.297 294.4673,249.695 319.4113,285 C334.7623,306.727 356.7933,326.472 376.1773,341.5 " fill="none" id="usantatecla.mastermind.views.console-to-usantatecla.mastermind.models" style="stroke: #A80036; stroke-width: 1.0; stroke-dasharray: 7.0,7.0;"/><polygon fill="#A80036" points="380.5253,344.828,375.8081,336.1823,376.5543,341.7897,370.9469,342.536,380.5253,344.828" style="stroke: #A80036; stroke-width: 1.0;"/><!--MD5=[ea4ce8b53cd9ff973f1d13b2e6691e39]
link usantatecla.mastermind.views.console to usantatecla.utils--><path d="M238.7393,172.245 C221.4673,188.916 198.9263,210.673 180.9383,228.035 " fill="none" id="usantatecla.mastermind.views.console-to-usantatecla.utils" style="stroke: #A80036; stroke-width: 1.0; stroke-dasharray: 7.0,7.0;"/><polygon fill="#A80036" points="176.9393,231.895,186.1931,228.5234,180.5371,228.4229,180.6377,222.7669,176.9393,231.895" style="stroke: #A80036; stroke-width: 1.0;"/><!--MD5=[b5df6e92d64d5bc2a940e3bece2f866a]
link usantatecla.mastermind.views.graphics to java.awt--><path d="M747.1223,172.245 C749.4653,188.496 752.5043,209.579 754.9743,226.714 " fill="none" id="usantatecla.mastermind.views.graphics-to-java.awt" style="stroke: #A80036; stroke-width: 1.0; stroke-dasharray: 7.0,7.0;"/><polygon fill="#A80036" points="755.7213,231.895,758.3945,222.4159,755.007,226.9463,750.4766,223.5588,755.7213,231.895" style="stroke: #A80036; stroke-width: 1.0;"/><!--MD5=[a5950fc01ed17ba313e3ff9277360096]
link usantatecla.mastermind.views.graphics to java.awt.event--><path d="M781.9123,172.245 C807.2643,189.196 840.4783,211.406 866.6513,228.907 " fill="none" id="usantatecla.mastermind.views.graphics-to-java.awt.event" style="stroke: #A80036; stroke-width: 1.0; stroke-dasharray: 7.0,7.0;"/><polygon fill="#A80036" points="871.1193,231.895,865.8628,223.5662,866.9634,229.1149,861.4147,230.2155,871.1193,231.895" style="stroke: #A80036; stroke-width: 1.0;"/><!--MD5=[d137ae07135d8e25c6268b008713226c]
link usantatecla.mastermind.views.graphics to usantatecla.mastermind.views--><path d="M680.8983,172.105 C638.6693,189.402 582.9593,212.22 539.7513,229.918 " fill="none" id="usantatecla.mastermind.views.graphics-to-usantatecla.mastermind.views" style="stroke: #A80036; stroke-width: 1.0; stroke-dasharray: 7.0,7.0;"/><polygon fill="#A80036" points="535.0793,231.832,544.9238,232.124,539.7066,229.9377,541.8929,224.7204,535.0793,231.832" style="stroke: #A80036; stroke-width: 1.0;"/><!--MD5=[18dba7ad16ec340cecf593c9f0416640]
link usantatecla.mastermind.views.graphics to usantatecla.mastermind.models--><path d="M727.1163,172.201 C706.6343,202.714 668.8533,253.431 625.4113,285 C590.9443,310.048 548.0573,329.318 510.2733,343.167 " fill="none" id="usantatecla.mastermind.views.graphics-to-usantatecla.mastermind.models" style="stroke: #A80036; stroke-width: 1.0; stroke-dasharray: 7.0,7.0;"/><polygon fill="#A80036" points="505.2153,345,515.0397,345.6933,509.916,343.296,512.3133,338.1722,505.2153,345" style="stroke: #A80036; stroke-width: 1.0;"/><!--MD5=[7210432fe8f598d3e6eddcbd0e4ae1e3]
link usantatecla.mastermind.views.graphics to javax.swing--><path d="M819.5663,172.068 C870.0303,189.027 937.6903,211.796 997.4113,232 C1001.4383,233.362 1005.5853,234.767 1009.7653,236.185 " fill="none" id="usantatecla.mastermind.views.graphics-to-javax.swing" style="stroke: #A80036; stroke-width: 1.0; stroke-dasharray: 7.0,7.0;"/><polygon fill="#A80036" points="1014.6833,237.853,1007.4444,231.1749,1009.9481,236.2475,1004.8755,238.7512,1014.6833,237.853" style="stroke: #A80036; stroke-width: 1.0;"/><!--MD5=[178d826af8472ec23c7eba1365fe2d75]
@startuml
package usantatecla.mastermind #DDDDDD { }
usantatecla.mastermind ..> usantatecla.mastermind.views
usantatecla.mastermind ..> usantatecla.mastermind.models
usantatecla.mastermind ..> usantatecla.mastermind.views.console
usantatecla.mastermind ..> usantatecla.mastermind.views.graphics

package usantatecla.mastermind.models #DDDDDD { }
package java.util{ }
usantatecla.mastermind.models .down.> java.util

package usantatecla.utils #DDDDDD { }
package java.io{ }
usantatecla.utils .down.> java.io

package usantatecla.mastermind.views #DDDDDD { }
usantatecla.mastermind.views .down.> usantatecla.mastermind.models

package usantatecla.mastermind.views.console #DDDDDD { }
usantatecla.mastermind.views.console .down.> usantatecla.mastermind.views
usantatecla.mastermind.views.console .down.> usantatecla.mastermind.models
usantatecla.mastermind.views.console .down.> usantatecla.utils

package usantatecla.mastermind.views.graphics #DDDDDD { }
package java.awt{ }
usantatecla.mastermind.views.graphics .down.> java.awt
package java.awt.event{ }
usantatecla.mastermind.views.graphics .down.> java.awt.event
usantatecla.mastermind.views.graphics .down.> usantatecla.mastermind.views
usantatecla.mastermind.views.graphics .down.> usantatecla.mastermind.models
package javax.swing{ }
usantatecla.mastermind.views.graphics .down.> javax.swing
@enduml

PlantUML version 1.2020.20beta11(Unknown compile time)
(GPL source distribution)
Java Runtime: Java(TM) SE Runtime Environment
JVM: Java HotSpot(TM) 64-Bit Server VM
Default Encoding: UTF-8
Language: en
Country: US
--></g></svg>