<?xml version="1.0" encoding="UTF-8" standalone="no"?><svg xmlns="http://www.w3.org/2000/svg" xmlns:xlink="http://www.w3.org/1999/xlink" contentScriptType="application/ecmascript" contentStyleType="text/css" height="517px" preserveAspectRatio="none" style="width:1045px;height:517px;" version="1.1" viewBox="0 0 1045 517" width="1045px" zoomAndPan="magnify"><defs><filter height="300%" id="f1dd95qghizthc" width="300%" x="-1" y="-1"><feGaussianBlur result="blurOut" stdDeviation="2.0"/><feColorMatrix in="blurOut" result="blurOut2" type="matrix" values="0 0 0 0 0 0 0 0 0 0 0 0 0 0 0 0 0 0 .4 0"/><feOffset dx="4.0" dy="4.0" in="blurOut2" result="blurOut3"/><feBlend in="SourceGraphic" in2="blurOut3" mode="normal"/></filter></defs><g><polygon fill="#DDDDDD" filter="url(#f1dd95qghizthc)" points="293.3791,6,397.3791,6,404.3791,28.2969,411.3791,28.2969,411.3791,58.5938,293.3791,58.5938,293.3791,6" style="stroke: #000000; stroke-width: 1.5;"/><line style="stroke: #000000; stroke-width: 1.5;" x1="293.3791" x2="404.3791" y1="28.2969" y2="28.2969"/><text fill="#000000" font-family="sans-serif" font-size="14" font-weight="bold" lengthAdjust="spacingAndGlyphs" textLength="98" x="297.3791" y="20.9951">mastermind</text><polygon fill="#DDDDDD" filter="url(#f1dd95qghizthc)" points="278.8791,345,445.8791,345,452.8791,367.2969,459.8791,367.2969,459.8791,397.5938,278.8791,397.5938,278.8791,345" style="stroke: #000000; stroke-width: 1.5;"/><line style="stroke: #000000; stroke-width: 1.5;" x1="278.8791" x2="452.8791" y1="367.2969" y2="367.2969"/><text fill="#000000" font-family="sans-serif" font-size="14" font-weight="bold" lengthAdjust="spacingAndGlyphs" textLength="161" x="282.8791" y="359.9951">mastermind.models</text><polygon fill="#FFFFFF" filter="url(#f1dd95qghizthc)" points="325.8791,458,398.8791,458,405.8791,480.2969,412.8791,480.2969,412.8791,510.5938,325.8791,510.5938,325.8791,458" style="stroke: #000000; stroke-width: 1.5;"/><line style="stroke: #000000; stroke-width: 1.5;" x1="325.8791" x2="405.8791" y1="480.2969" y2="480.2969"/><text fill="#000000" font-family="sans-serif" font-size="14" font-weight="bold" lengthAdjust="spacingAndGlyphs" textLength="67" x="329.8791" y="472.9951">java.util</text><polygon fill="#DDDDDD" filter="url(#f1dd95qghizthc)" points="73.379,232,219.379,232,226.379,254.2969,233.379,254.2969,233.379,284.5938,73.379,284.5938,73.379,232" style="stroke: #000000; stroke-width: 1.5;"/><line style="stroke: #000000; stroke-width: 1.5;" x1="73.379" x2="226.379" y1="254.2969" y2="254.2969"/><text fill="#000000" font-family="sans-serif" font-size="14" font-weight="bold" lengthAdjust="spacingAndGlyphs" textLength="140" x="77.379" y="246.9951">mastermind.utils</text><polygon fill="#FFFFFF" filter="url(#f1dd95qghizthc)" points="116.379,345,176.379,345,183.379,367.2969,190.379,367.2969,190.379,397.5938,116.379,397.5938,116.379,345" style="stroke: #000000; stroke-width: 1.5;"/><line style="stroke: #000000; stroke-width: 1.5;" x1="116.379" x2="183.379" y1="367.2969" y2="367.2969"/><text fill="#000000" font-family="sans-serif" font-size="14" font-weight="bold" lengthAdjust="spacingAndGlyphs" textLength="54" x="120.379" y="359.9951">java.io</text><polygon fill="#DDDDDD" filter="url(#f1dd95qghizthc)" points="339.3791,232,493.3791,232,500.3791,254.2969,507.3791,254.2969,507.3791,284.5938,339.3791,284.5938,339.3791,232" style="stroke: #000000; stroke-width: 1.5;"/><line style="stroke: #000000; stroke-width: 1.5;" x1="339.3791" x2="500.3791" y1="254.2969" y2="254.2969"/><text fill="#000000" font-family="sans-serif" font-size="14" font-weight="bold" lengthAdjust="spacingAndGlyphs" textLength="148" x="343.3791" y="246.9951">mastermind.views</text><polygon fill="#DDDDDD" filter="url(#f1dd95qghizthc)" points="149.8791,119,370.8791,119,377.8791,141.2969,384.8791,141.2969,384.8791,171.5938,149.8791,171.5938,149.8791,119" style="stroke: #000000; stroke-width: 1.5;"/><line style="stroke: #000000; stroke-width: 1.5;" x1="149.8791" x2="377.8791" y1="141.2969" y2="141.2969"/><text fill="#000000" font-family="sans-serif" font-size="14" font-weight="bold" lengthAdjust="spacingAndGlyphs" textLength="215" x="153.8791" y="133.9951">mastermind.views.console</text><polygon fill="#DDDDDD" filter="url(#f1dd95qghizthc)" points="521.8791,119,750.8791,119,757.8791,141.2969,764.8791,141.2969,764.8791,171.5938,521.8791,171.5938,521.8791,119" style="stroke: #000000; stroke-width: 1.5;"/><line style="stroke: #000000; stroke-width: 1.5;" x1="521.8791" x2="757.8791" y1="141.2969" y2="141.2969"/><text fill="#000000" font-family="sans-serif" font-size="14" font-weight="bold" lengthAdjust="spacingAndGlyphs" textLength="223" x="525.8791" y="133.9951">mastermind.views.graphics</text><polygon fill="#FFFFFF" filter="url(#f1dd95qghizthc)" points="613.3791,232,689.3791,232,696.3791,254.2969,703.3791,254.2969,703.3791,284.5938,613.3791,284.5938,613.3791,232" style="stroke: #000000; stroke-width: 1.5;"/><line style="stroke: #000000; stroke-width: 1.5;" x1="613.3791" x2="696.3791" y1="254.2969" y2="254.2969"/><text fill="#000000" font-family="sans-serif" font-size="14" font-weight="bold" lengthAdjust="spacingAndGlyphs" textLength="70" x="617.3791" y="246.9951">java.awt</text><polygon fill="#FFFFFF" filter="url(#f1dd95qghizthc)" points="738.3791,232,864.3791,232,871.3791,254.2969,878.3791,254.2969,878.3791,284.5938,738.3791,284.5938,738.3791,232" style="stroke: #000000; stroke-width: 1.5;"/><line style="stroke: #000000; stroke-width: 1.5;" x1="738.3791" x2="871.3791" y1="254.2969" y2="254.2969"/><text fill="#000000" font-family="sans-serif" font-size="14" font-weight="bold" lengthAdjust="spacingAndGlyphs" textLength="120" x="742.3791" y="246.9951">java.awt.event</text><polygon fill="#FFFFFF" filter="url(#f1dd95qghizthc)" points="913.8791,232,1014.8791,232,1021.8791,254.2969,1028.8791,254.2969,1028.8791,284.5938,913.8791,284.5938,913.8791,232" style="stroke: #000000; stroke-width: 1.5;"/><line style="stroke: #000000; stroke-width: 1.5;" x1="913.8791" x2="1021.8791" y1="254.2969" y2="254.2969"/><text fill="#000000" font-family="sans-serif" font-size="14" font-weight="bold" lengthAdjust="spacingAndGlyphs" textLength="95" x="917.8791" y="246.9951">javax.swing</text><!--MD5=[e35537eb96f5ac075f1f91433273a808]
link mastermind to mastermind.views--><path codeLine="2" d="M370.8821,59.184 C381.7561,75.537 394.8131,97.6 402.3791,119 C414.9711,154.616 420.0131,198.002 422.0321,226.616 " fill="none" id="mastermind-to-mastermind.views" style="stroke: #A80036; stroke-width: 1.0; stroke-dasharray: 7.0,7.0;"/><polygon fill="#A80036" points="422.3751,231.782,425.7697,222.5366,422.0436,226.793,417.7873,223.067,422.3751,231.782" style="stroke: #A80036; stroke-width: 1.0;"/><!--MD5=[3f67d8a440fed401fe3b5323e86f87b4]
link mastermind to mastermind.models--><path codeLine="3" d="M293.2981,46.161 C245.9651,58.581 179.8521,81.26 132.379,119 C68.716,169.61 6,220.378 55.379,285 C81.9384,319.758 191.2551,343.75 273.4931,357.283 " fill="none" id="mastermind-to-mastermind.models" style="stroke: #A80036; stroke-width: 1.0; stroke-dasharray: 7.0,7.0;"/><polygon fill="#A80036" points="278.8701,358.159,270.6308,352.7632,273.9352,357.3546,269.3438,360.659,278.8701,358.159" style="stroke: #A80036; stroke-width: 1.0;"/><!--MD5=[5a7375d6d2c9f55bf8e92f7679cbf013]
link mastermind to mastermind.views.console--><path codeLine="4" d="M332.6651,59.245 C320.0051,75.776 303.5171,97.308 290.2781,114.597 " fill="none" id="mastermind-to-mastermind.views.console" style="stroke: #A80036; stroke-width: 1.0; stroke-dasharray: 7.0,7.0;"/><polygon fill="#A80036" points="286.9861,118.895,295.6337,114.1812,290.0259,114.9252,289.282,109.3175,286.9861,118.895" style="stroke: #A80036; stroke-width: 1.0;"/><!--MD5=[71349e294188949e92ef25974d5f8bc3]
link mastermind to mastermind.views.graphics--><path codeLine="5" d="M411.6181,56.096 C457.9021,73.751 522.4111,98.358 571.6221,117.129 " fill="none" id="mastermind-to-mastermind.views.graphics" style="stroke: #A80036; stroke-width: 1.0; stroke-dasharray: 7.0,7.0;"/><polygon fill="#A80036" points="576.3351,118.927,569.3511,111.9827,571.6633,117.1454,566.5005,119.4576,576.3351,118.927" style="stroke: #A80036; stroke-width: 1.0;"/><!--MD5=[bf16e85c09ac2493f319629dda43fa4f]
link mastermind.models to java.util--><path d="M369.3791,398.245 C369.3791,414.4958 369.3791,435.5795 369.3791,452.7139 " fill="none" id="mastermind.models-to-java.util" style="stroke: #A80036; stroke-width: 1.0; stroke-dasharray: 7.0,7.0;"/><polygon fill="#A80036" points="369.3791,457.895,373.3791,448.895,369.3791,452.895,365.3791,448.895,369.3791,457.895" style="stroke: #A80036; stroke-width: 1.0;"/><!--MD5=[dfc658cc50cf405c058d94c2b8d082b1]
link mastermind.utils to java.io--><path d="M153.3791,285.245 C153.3791,301.496 153.3791,322.579 153.3791,339.714 " fill="none" id="mastermind.utils-to-java.io" style="stroke: #A80036; stroke-width: 1.0; stroke-dasharray: 7.0,7.0;"/><polygon fill="#A80036" points="153.3791,344.895,157.3791,335.895,153.3791,339.895,149.3791,335.895,153.3791,344.895" style="stroke: #A80036; stroke-width: 1.0;"/><!--MD5=[9452f5a6b240960a46d89fd31eee6232]
link mastermind.views to mastermind.models--><path d="M410.8541,285.245 C402.8801,301.636 392.5151,322.943 384.1411,340.156 " fill="none" id="mastermind.views-to-mastermind.models" style="stroke: #A80036; stroke-width: 1.0; stroke-dasharray: 7.0,7.0;"/><polygon fill="#A80036" points="381.8351,344.895,389.3693,338.5518,384.0225,340.3988,382.1754,335.052,381.8351,344.895" style="stroke: #A80036; stroke-width: 1.0;"/><!--MD5=[95e5d34310c7b2ccc3e2879af69b26a7]
link mastermind.views.console to mastermind.views--><path d="M303.5611,172.245 C327.3841,189.196 358.5981,211.406 383.1941,228.907 " fill="none" id="mastermind.views.console-to-mastermind.views" style="stroke: #A80036; stroke-width: 1.0; stroke-dasharray: 7.0,7.0;"/><polygon fill="#A80036" points="387.3931,231.895,382.3784,223.4184,383.3189,228.9965,377.7408,229.9371,387.3931,231.895" style="stroke: #A80036; stroke-width: 1.0;"/><!--MD5=[5abb14f80e60a305d94565d13c5fda06]
link mastermind.views.console to mastermind.models--><path d="M276.1881,172.223 C286.1101,200.376 303.2321,246.619 321.3791,285 C330.2911,303.85 341.6631,324.235 351.1011,340.37 " fill="none" id="mastermind.views.console-to-mastermind.models" style="stroke: #A80036; stroke-width: 1.0; stroke-dasharray: 7.0,7.0;"/><polygon fill="#A80036" points="353.7081,344.804,352.5944,335.0183,351.1737,340.4939,345.6982,339.0733,353.7081,344.804" style="stroke: #A80036; stroke-width: 1.0;"/><!--MD5=[9aba64915bf62b312f15a0982cdb1002]
link mastermind.views.console to mastermind.utils--><path d="M240.9381,172.245 C223.8161,188.916 201.4711,210.673 183.6401,228.035 " fill="none" id="mastermind.views.console-to-mastermind.utils" style="stroke: #A80036; stroke-width: 1.0; stroke-dasharray: 7.0,7.0;"/><polygon fill="#A80036" points="179.6761,231.895,188.9148,228.4823,183.2585,228.4069,183.3339,222.7506,179.6761,231.895" style="stroke: #A80036; stroke-width: 1.0;"/><!--MD5=[0c90a7f994b772eb88ef213ebe3d64aa]
link mastermind.views.graphics to java.awt--><path d="M646.8581,172.245 C649.0541,188.496 651.9031,209.579 654.2191,226.714 " fill="none" id="mastermind.views.graphics-to-java.awt" style="stroke: #A80036; stroke-width: 1.0; stroke-dasharray: 7.0,7.0;"/><polygon fill="#A80036" points="654.9191,231.895,657.6795,222.4409,654.2504,226.9399,649.7514,223.5108,654.9191,231.895" style="stroke: #A80036; stroke-width: 1.0;"/><!--MD5=[6a14d48267ae7c98884332f96188e3b2]
link mastermind.views.graphics to java.awt.event--><path d="M681.6481,172.245 C706.8461,189.196 739.8611,211.406 765.8761,228.907 " fill="none" id="mastermind.views.graphics-to-java.awt.event" style="stroke: #A80036; stroke-width: 1.0; stroke-dasharray: 7.0,7.0;"/><polygon fill="#A80036" points="770.3171,231.895,765.0831,223.552,766.1688,229.1037,760.6171,230.1894,770.3171,231.895" style="stroke: #A80036; stroke-width: 1.0;"/><!--MD5=[01137dade69ee6b09c2754519904135d]
link mastermind.views.graphics to mastermind.views--><path d="M592.6301,172.105 C558.6261,189.262 513.8541,211.851 478.9001,229.487 " fill="none" id="mastermind.views.graphics-to-mastermind.views" style="stroke: #A80036; stroke-width: 1.0; stroke-dasharray: 7.0,7.0;"/><polygon fill="#A80036" points="474.2531,231.832,484.0902,231.3508,478.7175,229.5805,480.4878,224.2078,474.2531,231.832" style="stroke: #A80036; stroke-width: 1.0;"/><!--MD5=[8ec6b66ebbdff0c7efc2e23835bd4b75]
link mastermind.views.graphics to mastermind.models--><path d="M625.7031,172.171 C604.2691,201.965 565.8301,251.307 524.3791,285 C496.3101,307.816 461.2851,327.726 431.6351,342.579 " fill="none" id="mastermind.views.graphics-to-mastermind.models" style="stroke: #A80036; stroke-width: 1.0; stroke-dasharray: 7.0,7.0;"/><polygon fill="#A80036" points="426.9241,344.919,436.764,344.4982,431.4022,342.6949,433.2055,337.3332,426.9241,344.919" style="stroke: #A80036; stroke-width: 1.0;"/><!--MD5=[681506abf34402c28ac3a64c2f7a6c90]
link mastermind.views.graphics to javax.swing--><path d="M719.2261,172.092 C769.4881,189.06 836.8811,211.832 896.3791,232 C900.4041,233.365 904.5511,234.771 908.7311,236.19 " fill="none" id="mastermind.views.graphics-to-javax.swing" style="stroke: #A80036; stroke-width: 1.0; stroke-dasharray: 7.0,7.0;"/><polygon fill="#A80036" points="913.6481,237.859,906.4116,231.1782,908.9135,236.2517,903.84,238.7536,913.6481,237.859" style="stroke: #A80036; stroke-width: 1.0;"/><!--MD5=[d5dacefc179120258af8ba31a1bafe4d]
@startuml
package mastermind #DDDDDD { }
mastermind ..> mastermind.views
mastermind ..> mastermind.models
mastermind ..> mastermind.views.console
mastermind ..> mastermind.views.graphics

package mastermind.models #DDDDDD { }
package java.util{ }
mastermind.models .down.> java.util

package mastermind.utils #DDDDDD { }
package java.io{ }
mastermind.utils .down.> java.io

package mastermind.views #DDDDDD { }
mastermind.views .down.> mastermind.models

package mastermind.views.console #DDDDDD { }
mastermind.views.console .down.> mastermind.views
mastermind.views.console .down.> mastermind.models
mastermind.views.console .down.> mastermind.utils

package mastermind.views.graphics #DDDDDD { }
package java.awt{ }
mastermind.views.graphics .down.> java.awt
package java.awt.event{ }
mastermind.views.graphics .down.> java.awt.event
mastermind.views.graphics .down.> mastermind.views
mastermind.views.graphics .down.> mastermind.models
package javax.swing{ }
mastermind.views.graphics .down.> javax.swing
@enduml

PlantUML version 1.2020.20beta7(Unknown compile time)
(GPL source distribution)
Java Runtime: Java(TM) SE Runtime Environment
JVM: Java HotSpot(TM) 64-Bit Server VM
Default Encoding: UTF-8
Language: en
Country: US
--></g></svg>