<?xml version="1.0" encoding="UTF-8" standalone="no"?><svg xmlns="http://www.w3.org/2000/svg" xmlns:xlink="http://www.w3.org/1999/xlink" contentScriptType="application/ecmascript" contentStyleType="text/css" height="159px" preserveAspectRatio="none" style="width:2141px;height:159px;" version="1.1" viewBox="0 0 2141 159" width="2141px" zoomAndPan="magnify"><defs><filter height="300%" id="fhhgu0jyzu7er" width="300%" x="-1" y="-1"><feGaussianBlur result="blurOut" stdDeviation="2.0"/><feColorMatrix in="blurOut" result="blurOut2" type="matrix" values="0 0 0 0 0 0 0 0 0 0 0 0 0 0 0 0 0 0 .4 0"/><feOffset dx="4.0" dy="4.0" in="blurOut2" result="blurOut3"/><feBlend in="SourceGraphic" in2="blurOut3" mode="normal"/></filter></defs><g><!--MD5=[6a8eef24a865597df0dc119d71c20fa1]
entity usantatecla.mastermind--><polygon fill="#FFFFFF" filter="url(#fhhgu0jyzu7er)" points="16,113,223,113,230,135.2969,247,135.2969,247,152.2969,16,152.2969,16,113" style="stroke:#000000;stroke-width:1.5;"/><line style="stroke:#000000;stroke-width:1.5;" x1="16" x2="230" y1="135.2969" y2="135.2969"/><text fill="#000000" font-family="sans-serif" font-size="14" font-weight="bold" lengthAdjust="spacingAndGlyphs" textLength="201" x="20" y="128.9951">usantatecla.mastermind</text><!--MD5=[a18a8a1618c58d11a8fd222203fd8af2]
entity usantatecla.mastermind.models--><polygon fill="#FFFFFF" filter="url(#fhhgu0jyzu7er)" points="282.5,113,552.5,113,559.5,135.2969,576.5,135.2969,576.5,152.2969,282.5,152.2969,282.5,113" style="stroke:#000000;stroke-width:1.5;"/><line style="stroke:#000000;stroke-width:1.5;" x1="282.5" x2="559.5" y1="135.2969" y2="135.2969"/><text fill="#000000" font-family="sans-serif" font-size="14" font-weight="bold" lengthAdjust="spacingAndGlyphs" textLength="264" x="286.5" y="128.9951">usantatecla.mastermind.models</text><!--MD5=[d9d3a2b7fd30791a054c299cd80fb2ef]
entity usantatecla.mastermind.views--><polygon fill="#FFFFFF" filter="url(#fhhgu0jyzu7er)" points="612,113,869,113,876,135.2969,893,135.2969,893,152.2969,612,152.2969,612,113" style="stroke:#000000;stroke-width:1.5;"/><line style="stroke:#000000;stroke-width:1.5;" x1="612" x2="876" y1="135.2969" y2="135.2969"/><text fill="#000000" font-family="sans-serif" font-size="14" font-weight="bold" lengthAdjust="spacingAndGlyphs" textLength="251" x="616" y="128.9951">usantatecla.mastermind.views</text><!--MD5=[4f1fdb516a2d9f9a754f02a50bc85008]
entity usantatecla.mastermind.views.console--><polygon fill="#FFFFFF" filter="url(#fhhgu0jyzu7er)" points="928.5,113,1252.5,113,1259.5,135.2969,1276.5,135.2969,1276.5,152.2969,928.5,152.2969,928.5,113" style="stroke:#000000;stroke-width:1.5;"/><line style="stroke:#000000;stroke-width:1.5;" x1="928.5" x2="1259.5" y1="135.2969" y2="135.2969"/><text fill="#000000" font-family="sans-serif" font-size="14" font-weight="bold" lengthAdjust="spacingAndGlyphs" textLength="318" x="932.5" y="128.9951">usantatecla.mastermind.views.console</text><!--MD5=[78a8e49b09f83bc73057eebba2fb097f]
entity usantatecla.mastermind.views.graphics--><polygon fill="#FFFFFF" filter="url(#fhhgu0jyzu7er)" points="1311.5,113,1643.5,113,1650.5,135.2969,1667.5,135.2969,1667.5,152.2969,1311.5,152.2969,1311.5,113" style="stroke:#000000;stroke-width:1.5;"/><line style="stroke:#000000;stroke-width:1.5;" x1="1311.5" x2="1650.5" y1="135.2969" y2="135.2969"/><text fill="#000000" font-family="sans-serif" font-size="14" font-weight="bold" lengthAdjust="spacingAndGlyphs" textLength="326" x="1315.5" y="128.9951">usantatecla.mastermind.views.graphics</text><!--MD5=[612a536d1c85efa17c7d118cc1e7b020]
entity usantatecla.utils--><polygon fill="#FFFFFF" filter="url(#fhhgu0jyzu7er)" points="1702.5,113,1848.5,113,1855.5,135.2969,1872.5,135.2969,1872.5,152.2969,1702.5,152.2969,1702.5,113" style="stroke:#000000;stroke-width:1.5;"/><line style="stroke:#000000;stroke-width:1.5;" x1="1702.5" x2="1855.5" y1="135.2969" y2="135.2969"/><text fill="#000000" font-family="sans-serif" font-size="14" font-weight="bold" lengthAdjust="spacingAndGlyphs" textLength="140" x="1706.5" y="128.9951">usantatecla.utils</text><!--MD5=[48fa9072fd51d9920e6db8484beec696]
entity java.io--><polygon fill="#FFFFFF" filter="url(#fhhgu0jyzu7er)" points="1907.5,113,1967.5,113,1974.5,135.2969,1991.5,135.2969,1991.5,152.2969,1907.5,152.2969,1907.5,113" style="stroke:#000000;stroke-width:1.5;"/><line style="stroke:#000000;stroke-width:1.5;" x1="1907.5" x2="1974.5" y1="135.2969" y2="135.2969"/><text fill="#000000" font-family="sans-serif" font-size="14" font-weight="bold" lengthAdjust="spacingAndGlyphs" textLength="54" x="1911.5" y="128.9951">java.io</text><!--MD5=[034f0f7ed136bf78fc117f7e41f76e93]
entity java.util--><polygon fill="#FFFFFF" filter="url(#fhhgu0jyzu7er)" points="2027,113,2100,113,2107,135.2969,2124,135.2969,2124,152.2969,2027,152.2969,2027,113" style="stroke:#000000;stroke-width:1.5;"/><line style="stroke:#000000;stroke-width:1.5;" x1="2027" x2="2107" y1="135.2969" y2="135.2969"/><text fill="#000000" font-family="sans-serif" font-size="14" font-weight="bold" lengthAdjust="spacingAndGlyphs" textLength="67" x="2031" y="128.9951">java.util</text><!--MD5=[c2796faf4134bd8b5f3bc71f44d02e74]
entity jar--><rect fill="#FEFECE" filter="url(#fhhgu0jyzu7er)" height="46.2969" style="stroke:#A80036;stroke-width:1.5;" width="150" x="1220.5" y="7"/><rect fill="#FEFECE" height="10" style="stroke:#A80036;stroke-width:1.5;" width="15" x="1350.5" y="12"/><rect fill="#FEFECE" height="2" style="stroke:#A80036;stroke-width:1.5;" width="4" x="1348.5" y="14"/><rect fill="#FEFECE" height="2" style="stroke:#A80036;stroke-width:1.5;" width="4" x="1348.5" y="18"/><text fill="#000000" font-family="sans-serif" font-size="14" lengthAdjust="spacingAndGlyphs" textLength="110" x="1235.5" y="39.9951">mastermind.jar</text><!--MD5=[33871d850b885cae0f32fcf5f82e5a8f]
link jar to usantatecla.mastermind--><path d="M1208.3527,36.1955 C1208.3527,36.1955 612.604,74.98 264.5,113 C263.081,113.155 261.653,113.3132 260.218,113.4744 " fill="none" id="jar-usantatecla.mastermind" style="stroke:#A80036;stroke-width:1.0;"/><polygon fill="#A80036" points="247.15,114.9972,256.5527,117.9279,252.1163,114.4181,255.6261,109.9817,247.15,114.9972" style="stroke:#A80036;stroke-width:1.0;"/><line style="stroke:#A80036;stroke-width:1.0;" x1="252.1163" x2="260.062" y1="114.4181" y2="113.4925"/><polygon fill="#A80036" points="1220.33,35.457,1214.0952,31.8338,1208.3527,36.1955,1214.5875,39.8187,1220.33,35.457" style="stroke:#A80036;stroke-width:1.0;"/><!--MD5=[2390947b1b119a53a88c2001f23d7e65]
link jar to usantatecla.mastermind.models--><path d="M1208.2386,41.1146 C1208.2386,41.1146 772.012,91.7512 590.004,112.8733 " fill="none" id="jar-usantatecla.mastermind.models" style="stroke:#A80036;stroke-width:1.0;"/><polygon fill="#A80036" points="576.819,114.4035,586.2201,117.3394,581.7857,113.8271,585.2979,109.3927,576.819,114.4035" style="stroke:#A80036;stroke-width:1.0;"/><line style="stroke:#A80036;stroke-width:1.0;" x1="581.7857" x2="589.7325" y1="113.8271" y2="112.9049"/><polygon fill="#A80036" points="1220.16,39.743,1213.7421,36.455,1208.2386,41.1146,1214.6565,44.4026,1220.16,39.743" style="stroke:#A80036;stroke-width:1.0;"/><!--MD5=[9b931e9ad5c3902361053e698395b79d]
link jar to usantatecla.mastermind.views--><path d="M1208.4813,47.1098 C1208.4813,47.1098 967.459,91.7147 865.915,110.5089 " fill="none" id="jar-usantatecla.mastermind.views" style="stroke:#A80036;stroke-width:1.0;"/><polygon fill="#A80036" points="852.831,112.9304,862.4086,115.2258,857.7475,112.0205,860.9528,107.3594,852.831,112.9304" style="stroke:#A80036;stroke-width:1.0;"/><line style="stroke:#A80036;stroke-width:1.0;" x1="857.7475" x2="865.614" y1="112.0205" y2="110.5645"/><polygon fill="#A80036" points="1220.28,44.921,1213.651,42.0825,1208.4813,47.1098,1215.1103,49.9483,1220.28,44.921" style="stroke:#A80036;stroke-width:1.0;"/><!--MD5=[dc33a4fde77d4230156989d15f1199a0]
link jar to usantatecla.mastermind.views.console--><path d="M1242.5104,58.6048 C1242.5104,58.6048 1177.71,92.3352 1150.04,106.7441 " fill="none" id="jar-usantatecla.mastermind.views.console" style="stroke:#A80036;stroke-width:1.0;"/><polygon fill="#A80036" points="1138.28,112.868,1148.1102,112.2619,1142.7154,110.56,1144.4173,105.1652,1138.28,112.868" style="stroke:#A80036;stroke-width:1.0;"/><line style="stroke:#A80036;stroke-width:1.0;" x1="1142.7154" x2="1149.81" y1="110.56" y2="106.8639"/><polygon fill="#A80036" points="1253.15,53.0552,1245.9803,52.2835,1242.5104,58.6048,1249.6801,59.3766,1253.15,53.0552" style="stroke:#A80036;stroke-width:1.0;"/><!--MD5=[478778a62fbb913535b45914106db0eb]
link jar to usantatecla.mastermind.views.graphics--><path d="M1348.7229,58.5793 C1348.7229,58.5793 1413.9,92.3352 1441.71,106.7441 " fill="none" id="jar-usantatecla.mastermind.views.graphics" style="stroke:#A80036;stroke-width:1.0;"/><polygon fill="#A80036" points="1453.53,112.868,1447.3742,105.18,1449.089,110.5706,1443.6984,112.2855,1453.53,112.868" style="stroke:#A80036;stroke-width:1.0;"/><line style="stroke:#A80036;stroke-width:1.0;" x1="1449.089" x2="1441.99" y1="110.5706" y2="106.8882"/><polygon fill="#A80036" points="1338.07,53.0552,1341.5551,59.3682,1348.7229,58.5793,1345.2378,52.2663,1338.07,53.0552" style="stroke:#A80036;stroke-width:1.0;"/><!--MD5=[8059cd5737844cbfa7541e4ee98eb909]
link jar to usantatecla.utils--><path d="M1382.5175,48.773 C1382.5175,48.773 1600.26,93.2529 1689.48,111.4772 " fill="none" id="jar-usantatecla.utils" style="stroke:#A80036;stroke-width:1.0;"/><polygon fill="#A80036" points="1702.33,114.1027,1694.3119,108.3835,1697.431,113.1027,1692.7118,116.2218,1702.33,114.1027" style="stroke:#A80036;stroke-width:1.0;"/><line style="stroke:#A80036;stroke-width:1.0;" x1="1697.431" x2="1689.59" y1="113.1027" y2="111.5009"/><polygon fill="#A80036" points="1370.76,46.373,1375.8388,51.4922,1382.5175,48.773,1377.4388,43.6538,1370.76,46.373" style="stroke:#A80036;stroke-width:1.0;"/><!--MD5=[f17a38c250a1605cd3da9b9fac2ef94b]
link jar to java.io--><path d="M1382.8375,38.4438 C1382.8375,38.4438 1712.92,73.2143 1890.5,113 C1891.86,113.3051 1893.24,113.6269 1894.62,113.9629 " fill="none" id="jar-java.io" style="stroke:#A80036;stroke-width:1.0;"/><polygon fill="#A80036" points="1907.19,117.3047,1899.5211,111.125,1902.3581,116.0191,1897.4641,118.856,1907.19,117.3047" style="stroke:#A80036;stroke-width:1.0;"/><line style="stroke:#A80036;stroke-width:1.0;" x1="1902.3581" x2="1894.63" y1="116.0191" y2="113.9644"/><polygon fill="#A80036" points="1370.89,37.323,1376.4902,41.8659,1382.8375,38.4438,1377.2374,33.9009,1370.89,37.323" style="stroke:#A80036;stroke-width:1.0;"/><!--MD5=[a929e6d2b54380e4c3e4c2b17ce7cd9b]
link jar to java.util--><path d="M1382.5912,36.5148 C1382.5912,36.5148 1786.44,69.2176 2009.5,113 C2010.99,113.2922 2012.49,113.6012 2014.01,113.9246 " fill="none" id="jar-java.util" style="stroke:#A80036;stroke-width:1.0;"/><polygon fill="#A80036" points="2026.69,116.8861,2018.8358,110.9438,2021.8211,115.7488,2017.0161,118.734,2026.69,116.8861" style="stroke:#A80036;stroke-width:1.0;"/><line style="stroke:#A80036;stroke-width:1.0;" x1="2021.8211" x2="2014.035" y1="115.7488" y2="113.9303"/><polygon fill="#A80036" points="1370.62,35.684,1376.3287,40.0898,1382.5912,36.5148,1376.8825,32.109,1370.62,35.684" style="stroke:#A80036;stroke-width:1.0;"/><!--MD5=[9fe836beacff437e0552570ed3bc7386]
@startuml
package "  "  as usantatecla.mastermind {
}
package "  "  as usantatecla.mastermind.models {
}
package "  "  as usantatecla.mastermind.views {
}
package "  "  as usantatecla.mastermind.views.console {
}
package "  "  as usantatecla.mastermind.views.graphics {
}
package "  "  as usantatecla.utils {
}
package "  "  as java.io {
}
package "  "  as java.util {
}

[mastermind.jar] as jar

jar *- -> usantatecla.mastermind
jar *- -> usantatecla.mastermind.models
jar *- -> usantatecla.mastermind.views
jar *- -> usantatecla.mastermind.views.console
jar *- -> usantatecla.mastermind.views.graphics
jar *- -> usantatecla.utils
jar *- -> java.io
jar *- -> java.util
@enduml

PlantUML version 1.2020.21beta7(Unknown compile time)
(GPL source distribution)
Java Runtime: Java(TM) SE Runtime Environment
JVM: Java HotSpot(TM) 64-Bit Server VM
Default Encoding: UTF-8
Language: en
Country: US
--></g></svg>