<?xml version="1.0" encoding="UTF-8" standalone="no"?><svg xmlns="http://www.w3.org/2000/svg" xmlns:xlink="http://www.w3.org/1999/xlink" contentScriptType="application/ecmascript" contentStyleType="text/css" height="159px" preserveAspectRatio="none" style="width:1626px;height:159px;" version="1.1" viewBox="0 0 1626 159" width="1626px" zoomAndPan="magnify"><defs><filter height="300%" id="f9oujg0q32w1b" width="300%" x="-1" y="-1"><feGaussianBlur result="blurOut" stdDeviation="2.0"/><feColorMatrix in="blurOut" result="blurOut2" type="matrix" values="0 0 0 0 0 0 0 0 0 0 0 0 0 0 0 0 0 0 .4 0"/><feOffset dx="4.0" dy="4.0" in="blurOut2" result="blurOut3"/><feBlend in="SourceGraphic" in2="blurOut3" mode="normal"/></filter></defs><g><!--MD5=[57ffb8338356de9df77d7af266454cb4]
entity mastermind--><polygon fill="#FFFFFF" filter="url(#f9oujg0q32w1b)" points="16,113,120,113,127,135.2969,144,135.2969,144,152.2969,16,152.2969,16,113" style="stroke: #000000; stroke-width: 1.5;"/><line style="stroke: #000000; stroke-width: 1.5;" x1="16" x2="127" y1="135.2969" y2="135.2969"/><text fill="#000000" font-family="sans-serif" font-size="14" font-weight="bold" lengthAdjust="spacingAndGlyphs" textLength="98" x="20" y="128.9951">mastermind</text><!--MD5=[3808e49a38455c25368b5f4e5a503c92]
entity mastermind.models--><polygon fill="#FFFFFF" filter="url(#f9oujg0q32w1b)" points="179.5,113,346.5,113,353.5,135.2969,370.5,135.2969,370.5,152.2969,179.5,152.2969,179.5,113" style="stroke: #000000; stroke-width: 1.5;"/><line style="stroke: #000000; stroke-width: 1.5;" x1="179.5" x2="353.5" y1="135.2969" y2="135.2969"/><text fill="#000000" font-family="sans-serif" font-size="14" font-weight="bold" lengthAdjust="spacingAndGlyphs" textLength="161" x="183.5" y="128.9951">mastermind.models</text><!--MD5=[6e2ec829ccd307027eb6d5d05d3e36de]
entity mastermind.views--><polygon fill="#FFFFFF" filter="url(#f9oujg0q32w1b)" points="406,113,560,113,567,135.2969,584,135.2969,584,152.2969,406,152.2969,406,113" style="stroke: #000000; stroke-width: 1.5;"/><line style="stroke: #000000; stroke-width: 1.5;" x1="406" x2="567" y1="135.2969" y2="135.2969"/><text fill="#000000" font-family="sans-serif" font-size="14" font-weight="bold" lengthAdjust="spacingAndGlyphs" textLength="148" x="410" y="128.9951">mastermind.views</text><!--MD5=[a07bbc7eafaaea337a8bd1096c6c5d02]
entity mastermind.views.console--><polygon fill="#FFFFFF" filter="url(#f9oujg0q32w1b)" points="619.5,113,840.5,113,847.5,135.2969,864.5,135.2969,864.5,152.2969,619.5,152.2969,619.5,113" style="stroke: #000000; stroke-width: 1.5;"/><line style="stroke: #000000; stroke-width: 1.5;" x1="619.5" x2="847.5" y1="135.2969" y2="135.2969"/><text fill="#000000" font-family="sans-serif" font-size="14" font-weight="bold" lengthAdjust="spacingAndGlyphs" textLength="215" x="623.5" y="128.9951">mastermind.views.console</text><!--MD5=[ff3dc41352bd67a03fbabcb5335907a5]
entity mastermind.views.graphics--><polygon fill="#FFFFFF" filter="url(#f9oujg0q32w1b)" points="899.5,113,1128.5,113,1135.5,135.2969,1152.5,135.2969,1152.5,152.2969,899.5,152.2969,899.5,113" style="stroke: #000000; stroke-width: 1.5;"/><line style="stroke: #000000; stroke-width: 1.5;" x1="899.5" x2="1135.5" y1="135.2969" y2="135.2969"/><text fill="#000000" font-family="sans-serif" font-size="14" font-weight="bold" lengthAdjust="spacingAndGlyphs" textLength="223" x="903.5" y="128.9951">mastermind.views.graphics</text><!--MD5=[6a9e74483831f672b7ced4933d9e76ca]
entity mastermind.utils--><polygon fill="#FFFFFF" filter="url(#f9oujg0q32w1b)" points="1188,113,1334,113,1341,135.2969,1358,135.2969,1358,152.2969,1188,152.2969,1188,113" style="stroke: #000000; stroke-width: 1.5;"/><line style="stroke: #000000; stroke-width: 1.5;" x1="1188" x2="1341" y1="135.2969" y2="135.2969"/><text fill="#000000" font-family="sans-serif" font-size="14" font-weight="bold" lengthAdjust="spacingAndGlyphs" textLength="140" x="1192" y="128.9951">mastermind.utils</text><!--MD5=[48fa9072fd51d9920e6db8484beec696]
entity java.io--><polygon fill="#FFFFFF" filter="url(#f9oujg0q32w1b)" points="1393,113,1453,113,1460,135.2969,1477,135.2969,1477,152.2969,1393,152.2969,1393,113" style="stroke: #000000; stroke-width: 1.5;"/><line style="stroke: #000000; stroke-width: 1.5;" x1="1393" x2="1460" y1="135.2969" y2="135.2969"/><text fill="#000000" font-family="sans-serif" font-size="14" font-weight="bold" lengthAdjust="spacingAndGlyphs" textLength="54" x="1397" y="128.9951">java.io</text><!--MD5=[034f0f7ed136bf78fc117f7e41f76e93]
entity java.util--><polygon fill="#FFFFFF" filter="url(#f9oujg0q32w1b)" points="1512.5,113,1585.5,113,1592.5,135.2969,1609.5,135.2969,1609.5,152.2969,1512.5,152.2969,1512.5,113" style="stroke: #000000; stroke-width: 1.5;"/><line style="stroke: #000000; stroke-width: 1.5;" x1="1512.5" x2="1592.5" y1="135.2969" y2="135.2969"/><text fill="#000000" font-family="sans-serif" font-size="14" font-weight="bold" lengthAdjust="spacingAndGlyphs" textLength="67" x="1516.5" y="128.9951">java.util</text><!--MD5=[c2796faf4134bd8b5f3bc71f44d02e74]
entity jar--><rect fill="#FEFECE" filter="url(#f9oujg0q32w1b)" height="46.2969" style="stroke: #A80036; stroke-width: 1.5;" width="150" x="809" y="7"/><rect fill="#FEFECE" height="10" style="stroke: #A80036; stroke-width: 1.5;" width="15" x="939" y="12"/><rect fill="#FEFECE" height="2" style="stroke: #A80036; stroke-width: 1.5;" width="4" x="937" y="14"/><rect fill="#FEFECE" height="2" style="stroke: #A80036; stroke-width: 1.5;" width="4" x="937" y="18"/><text fill="#000000" font-family="sans-serif" font-size="14" lengthAdjust="spacingAndGlyphs" textLength="110" x="824" y="39.9951">mastermind.jar</text><!--MD5=[fbe73378274df7025ec7ec540169909c]
link jar to mastermind--><path d="M796.8279,37.8183 C796.8279,37.8183 388.915,74.6342 162,113 C160.381,113.2737 158.746,113.5591 157.1,113.8546 " fill="none" id="jar-mastermind" style="stroke: #A80036; stroke-width: 1.0;"/><polygon fill="#A80036" points="144.327,116.2923,153.9173,118.5341,149.2384,115.3549,152.4175,110.676,144.327,116.2923" style="stroke: #A80036; stroke-width: 1.0;"/><line style="stroke: #A80036; stroke-width: 1.0;" x1="149.2384" x2="157.096" y1="115.3549" y2="113.8552"/><polygon fill="#A80036" points="808.787,36.828,802.4774,33.3368,796.8279,37.8183,803.1376,41.3095,808.787,36.828" style="stroke: #A80036; stroke-width: 1.0;"/><!--MD5=[5074ba4a694366b975a5201a6215192f]
link jar to mastermind.models--><path d="M796.8742,45.3784 C796.8742,45.3784 501.193,94.1726 383.567,113.5838 " fill="none" id="jar-mastermind.models" style="stroke: #A80036; stroke-width: 1.0;"/><polygon fill="#A80036" points="370.632,115.7184,380.1633,118.1993,375.5652,114.9041,378.8604,110.3061,370.632,115.7184" style="stroke: #A80036; stroke-width: 1.0;"/><line style="stroke: #A80036; stroke-width: 1.0;" x1="375.5652" x2="383.458" y1="114.9041" y2="113.6017"/><polygon fill="#A80036" points="808.714,43.424,802.1426,40.4546,796.8742,45.3784,803.4456,48.3478,808.714,43.424" style="stroke: #A80036; stroke-width: 1.0;"/><!--MD5=[f69683ffa0975f0f6cffc0c7de9e9342]
link jar to mastermind.views--><path d="M797.3784,53.3783 C797.3784,53.3783 643.816,93.0527 579.713,109.614 " fill="none" id="jar-mastermind.views" style="stroke: #A80036; stroke-width: 1.0;"/><polygon fill="#A80036" points="566.816,112.946,576.5304,114.5679,571.6571,111.6954,574.5295,106.8221,566.816,112.946" style="stroke: #A80036; stroke-width: 1.0;"/><line style="stroke: #A80036; stroke-width: 1.0;" x1="571.6571" x2="579.403" y1="111.6954" y2="109.6941"/><polygon fill="#A80036" points="808.997,50.377,802.1873,48.0048,797.3784,53.3783,804.1881,55.7505,808.997,50.377" style="stroke: #A80036; stroke-width: 1.0;"/><!--MD5=[aa404eabcdc7c44b7274536f18c4e70e]
link jar to mastermind.views.console--><path d="M843.042,59.9875 C843.042,59.9875 798.381,91.5964 779.109,105.2361 " fill="none" id="jar-mastermind.views.console" style="stroke: #A80036; stroke-width: 1.0;"/><polygon fill="#A80036" points="768.326,112.868,777.9829,110.9329,772.407,109.9792,773.3608,104.4033,768.326,112.868" style="stroke: #A80036; stroke-width: 1.0;"/><line style="stroke: #A80036; stroke-width: 1.0;" x1="772.407" x2="778.937" y1="109.9792" y2="105.358"/><polygon fill="#A80036" points="852.837,53.0552,845.6287,53.2563,843.042,59.9875,850.2502,59.7864,852.837,53.0552" style="stroke: #A80036; stroke-width: 1.0;"/><!--MD5=[43d5963c27e8c70a92bb968c998259ea]
link jar to mastermind.views.graphics--><path d="M924.958,59.9875 C924.958,59.9875 969.619,91.5964 988.891,105.2361 " fill="none" id="jar-mastermind.views.graphics" style="stroke: #A80036; stroke-width: 1.0;"/><polygon fill="#A80036" points="999.674,112.868,994.6392,104.4033,995.593,109.9792,990.0171,110.9329,999.674,112.868" style="stroke: #A80036; stroke-width: 1.0;"/><line style="stroke: #A80036; stroke-width: 1.0;" x1="995.593" x2="989.063" y1="109.9792" y2="105.358"/><polygon fill="#A80036" points="915.163,53.0552,917.7498,59.7864,924.958,59.9875,922.3713,53.2563,915.163,53.0552" style="stroke: #A80036; stroke-width: 1.0;"/><!--MD5=[5c9f1a9218d110a34ca822ba20fe7b3f]
link jar to mastermind.utils--><path d="M970.6216,53.3783 C970.6216,53.3783 1124.18,93.0527 1188.29,109.614 " fill="none" id="jar-mastermind.utils" style="stroke: #A80036; stroke-width: 1.0;"/><polygon fill="#A80036" points="1201.18,112.946,1193.4691,106.8188,1196.3394,111.6934,1191.4649,114.5637,1201.18,112.946" style="stroke: #A80036; stroke-width: 1.0;"/><line style="stroke: #A80036; stroke-width: 1.0;" x1="1196.3394" x2="1188.6" y1="111.6934" y2="109.6941"/><polygon fill="#A80036" points="959.003,50.377,963.8119,55.7505,970.6216,53.3783,965.8127,48.0048,959.003,50.377" style="stroke: #A80036; stroke-width: 1.0;"/><!--MD5=[f17a38c250a1605cd3da9b9fac2ef94b]
link jar to java.io--><path d="M971.1443,41.8046 C971.1443,41.8046 1236.35,79.6385 1376,113 C1377.38,113.3305 1378.78,113.6763 1380.19,114.0351 " fill="none" id="jar-java.io" style="stroke: #A80036; stroke-width: 1.0;"/><polygon fill="#A80036" points="1392.98,117.5443,1385.3606,111.3037,1388.1585,116.2202,1383.242,119.0181,1392.98,117.5443" style="stroke: #A80036; stroke-width: 1.0;"/><line style="stroke: #A80036; stroke-width: 1.0;" x1="1388.1585" x2="1380.445" y1="116.2202" y2="114.1041"/><polygon fill="#A80036" points="959.247,40.238,964.6734,44.9871,971.1443,41.8046,965.7179,37.0555,959.247,40.238" style="stroke: #A80036; stroke-width: 1.0;"/><!--MD5=[a929e6d2b54380e4c3e4c2b17ce7cd9b]
link jar to java.util--><path d="M971.2897,38.8382 C971.2897,38.8382 1310.86,75.0313 1495,113 C1496.49,113.3064 1497.99,113.6282 1499.5,113.963 " fill="none" id="jar-java.util" style="stroke: #A80036; stroke-width: 1.0;"/><polygon fill="#A80036" points="1512.17,116.9918,1504.343,111.0137,1507.3063,115.8323,1502.4877,118.7956,1512.17,116.9918" style="stroke: #A80036; stroke-width: 1.0;"/><line style="stroke: #A80036; stroke-width: 1.0;" x1="1507.3063" x2="1499.525" y1="115.8323" y2="113.9693"/><polygon fill="#A80036" points="959.345,37.687,964.9336,42.2442,971.2897,38.8382,965.7011,34.2811,959.345,37.687" style="stroke: #A80036; stroke-width: 1.0;"/><!--MD5=[05951cf194cd18ef1046d50ca8a74132]
@startuml
package "  "  as mastermind {
}
package "  "  as mastermind.models {
}
package "  "  as mastermind.views {
}
package "  "  as mastermind.views.console {
}
package "  "  as mastermind.views.graphics {
}
package "  "  as mastermind.utils {
}
package "  "  as java.io {
}
package "  "  as java.util {
}

[mastermind.jar] as jar

jar *- -> mastermind
jar *- -> mastermind.models
jar *- -> mastermind.views
jar *- -> mastermind.views.console
jar *- -> mastermind.views.graphics
jar *- -> mastermind.utils
jar *- -> java.io
jar *- -> java.util
@enduml

PlantUML version 1.2020.20beta11(Unknown compile time)
(GPL source distribution)
Java Runtime: Java(TM) SE Runtime Environment
JVM: Java HotSpot(TM) 64-Bit Server VM
Default Encoding: UTF-8
Language: en
Country: US
--></g></svg>