<?xml version="1.0" encoding="UTF-8" standalone="no"?><svg xmlns="http://www.w3.org/2000/svg" xmlns:xlink="http://www.w3.org/1999/xlink" contentScriptType="application/ecmascript" contentStyleType="text/css" height="717px" preserveAspectRatio="none" style="width:1558px;height:717px;" version="1.1" viewBox="0 0 1558 717" width="1558px" zoomAndPan="magnify"><defs><filter height="300%" id="f8s4orebbjgmv" width="300%" x="-1" y="-1"><feGaussianBlur result="blurOut" stdDeviation="2.0"/><feColorMatrix in="blurOut" result="blurOut2" type="matrix" values="0 0 0 0 0 0 0 0 0 0 0 0 0 0 0 0 0 0 .4 0"/><feOffset dx="4.0" dy="4.0" in="blurOut2" result="blurOut3"/><feBlend in="SourceGraphic" in2="blurOut3" mode="normal"/></filter></defs><g><!--MD5=[45607799a901819e6cc4b6d8cd00ce6c]
cluster usantatecla.mastermind.controllers--><polygon fill="#FFFFFF" filter="url(#f8s4orebbjgmv)" points="283,6,584,6,591,28.2969,1057,28.2969,1057,710,283,710,283,6" style="stroke:#000000;stroke-width:1.5;"/><line style="stroke:#000000;stroke-width:1.5;" x1="283" x2="591" y1="28.2969" y2="28.2969"/><text fill="#000000" font-family="sans-serif" font-size="14" font-weight="bold" lengthAdjust="spacingAndGlyphs" textLength="295" x="287" y="20.9951">usantatecla.mastermind.controllers</text><!--MD5=[e0d21a3c8ca66756a771586930837509]
class usantatecla.mastermind.controllers.Controller--><rect codeLine="18" fill="#FEFECE" filter="url(#f8s4orebbjgmv)" height="112.0234" id="usantatecla.mastermind.controllers.Controller" style="stroke:#A80036;stroke-width:1.5;" width="169" x="669.5" y="213"/><ellipse cx="720.75" cy="229" fill="#A9DCDF" rx="11" ry="11" style="stroke:#A80036;stroke-width:1.0;"/><path d="M722.8281,230.8125 L723.2188,231.7969 L722.8281,231.7969 C722.375,231.7969 722.2656,231.8125 722.1094,231.9219 C721.8594,232.0781 721.7031,232.3594 721.7031,232.6563 C721.7031,232.9219 721.8438,233.1719 722.0625,233.3281 C722.2031,233.4531 722.4063,233.5 722.8281,233.5 L725.1875,233.5 C725.5469,233.5 725.7656,233.4688 725.9063,233.375 C726.1563,233.2344 726.3125,232.9375 726.3125,232.6563 C726.3125,232.375 726.1719,232.125 725.9531,231.9688 C725.7813,231.8281 725.625,231.7969 725.1563,231.7969 L721.7656,223.5938 L718.0938,223.5938 C717.6406,223.5938 717.5156,223.6094 717.3594,223.7031 C717.1094,223.875 716.9531,224.1563 716.9531,224.4375 C716.9531,224.7188 717.0938,224.9688 717.3125,225.1406 C717.4844,225.25 717.6563,225.2813 718.0938,225.2813 L719.1719,225.2813 L716.5313,231.7969 C716.1094,231.7969 715.9531,231.8125 715.7969,231.9219 C715.5469,232.0781 715.3906,232.3594 715.3906,232.6563 C715.3906,233.2188 715.7656,233.5 716.5156,233.5 L718.7813,233.5 C719.1406,233.5 719.3594,233.4688 719.4844,233.375 C719.75,233.2344 719.8906,232.9375 719.8906,232.6563 C719.8906,232.375 719.7656,232.125 719.5469,231.9531 C719.375,231.8281 719.2344,231.7969 718.7813,231.7969 L718.3906,231.7969 L718.7813,230.8125 L722.8281,230.8125 Z M722.125,229.1094 L719.4531,229.1094 L720.7969,225.8438 L722.125,229.1094 Z " fill="#000000"/><text fill="#000000" font-family="sans-serif" font-size="12" font-style="italic" lengthAdjust="spacingAndGlyphs" textLength="58" x="741.25" y="233.1543">Controller</text><line style="stroke:#A80036;stroke-width:1.5;" x1="670.5" x2="837.5" y1="245" y2="245"/><polygon fill="none" points="680.5,251,684.5,255,680.5,259,676.5,255" style="stroke:#B38D22;stroke-width:1.0;"/><text fill="#000000" font-family="sans-serif" font-size="11" lengthAdjust="spacingAndGlyphs" textLength="75" x="689.5" y="259.2104">game: Game</text><polygon fill="none" points="680.5,263.8047,684.5,267.8047,680.5,271.8047,676.5,267.8047" style="stroke:#B38D22;stroke-width:1.0;"/><text fill="#000000" font-family="sans-serif" font-size="11" lengthAdjust="spacingAndGlyphs" textLength="67" x="689.5" y="272.0151">state: State</text><line style="stroke:#A80036;stroke-width:1.5;" x1="670.5" x2="837.5" y1="278.6094" y2="278.6094"/><polygon fill="#4177AF" points="680.5,285.6094,676.5,291.6094,684.5,291.6094" style="stroke:#1963A0;stroke-width:1.0;"/><text fill="#000000" font-family="sans-serif" font-size="11" lengthAdjust="spacingAndGlyphs" textLength="136" x="689.5" y="292.8198">Controller(State, Game)</text><ellipse cx="680.5" cy="302.4141" fill="#84BE84" rx="3" ry="3" style="stroke:#038048;stroke-width:1.0;"/><text fill="#000000" font-family="sans-serif" font-size="11" font-style="italic" lengthAdjust="spacingAndGlyphs" textLength="143" x="689.5" y="305.6245">accept(ControllersVisitor)</text><ellipse cx="680.5" cy="315.2188" fill="#84BE84" rx="3" ry="3" style="stroke:#038048;stroke-width:1.0;"/><text fill="#000000" font-family="sans-serif" font-size="11" lengthAdjust="spacingAndGlyphs" textLength="80" x="689.5" y="318.4292">getWidth(): int</text><!--MD5=[877f7580c8bbbe21e5afc74b6ea1e072]
class usantatecla.mastermind.controllers.ControllersVisitor--><rect codeLine="29" fill="#FEFECE" filter="url(#f8s4orebbjgmv)" height="86.4141" id="usantatecla.mastermind.controllers.ControllersVisitor" style="stroke:#A80036;stroke-width:1.5;" width="159" x="558.5" y="385"/><ellipse cx="585.2" cy="401" fill="#B4A7E5" rx="11" ry="11" style="stroke:#A80036;stroke-width:1.0;"/><path d="M586.1531,397.7813 L587.8719,397.7813 C588.2625,397.7813 588.45,397.75 588.575,397.6719 C588.8406,397.5156 588.9813,397.2344 588.9813,396.9375 C588.9813,396.6719 588.8719,396.4063 588.6375,396.2344 C588.4656,396.125 588.325,396.0938 587.8719,396.0938 L582.7313,396.0938 C582.2938,396.0938 582.1688,396.1094 582.0125,396.2031 C581.7625,396.3594 581.6063,396.6563 581.6063,396.9375 C581.6063,397.2188 581.7469,397.4688 581.9656,397.6406 C582.1219,397.75 582.3094,397.7813 582.7313,397.7813 L584.45,397.7813 L584.45,404.2969 L582.7313,404.2969 C582.2938,404.2969 582.1688,404.3125 582.0125,404.4219 C581.7625,404.5781 581.6063,404.8594 581.6063,405.1563 C581.6063,405.4063 581.7469,405.6719 581.9656,405.8281 C582.1219,405.9531 582.325,406 582.7313,406 L587.8719,406 C588.6219,406 588.9813,405.7188 588.9813,405.1563 C588.9813,404.875 588.8719,404.625 588.6375,404.4531 C588.4656,404.3281 588.325,404.2969 587.8719,404.2969 L586.1531,404.2969 L586.1531,397.7813 Z " fill="#000000"/><text fill="#000000" font-family="sans-serif" font-size="12" font-style="italic" lengthAdjust="spacingAndGlyphs" textLength="101" x="601.8" y="405.1543">ControllersVisitor</text><line style="stroke:#A80036;stroke-width:1.5;" x1="559.5" x2="716.5" y1="417" y2="417"/><line style="stroke:#A80036;stroke-width:1.5;" x1="559.5" x2="716.5" y1="425" y2="425"/><polygon fill="#4177AF" points="569.5,432,565.5,438,573.5,438" style="stroke:#1963A0;stroke-width:1.0;"/><text fill="#000000" font-family="sans-serif" font-size="11" lengthAdjust="spacingAndGlyphs" textLength="113" x="578.5" y="439.2104">visit(StartController)</text><polygon fill="#4177AF" points="569.5,444.8047,565.5,450.8047,573.5,450.8047" style="stroke:#1963A0;stroke-width:1.0;"/><text fill="#000000" font-family="sans-serif" font-size="11" lengthAdjust="spacingAndGlyphs" textLength="133" x="578.5" y="452.0151">visit(ProposalController)</text><polygon fill="#4177AF" points="569.5,457.6094,565.5,463.6094,573.5,463.6094" style="stroke:#1963A0;stroke-width:1.0;"/><text fill="#000000" font-family="sans-serif" font-size="11" lengthAdjust="spacingAndGlyphs" textLength="133" x="578.5" y="464.8198">visit(ResumeController)</text><!--MD5=[ba414607f34a8f1ff5e5377db4b3dfd8]
class usantatecla.mastermind.controllers.ResumeController--><rect codeLine="64" fill="#FEFECE" filter="url(#f8s4orebbjgmv)" height="86.4141" id="usantatecla.mastermind.controllers.ResumeController" style="stroke:#A80036;stroke-width:1.5;" width="209" x="299.5" y="569.5"/><ellipse cx="346.25" cy="585.5" fill="#ADD1B2" rx="11" ry="11" style="stroke:#A80036;stroke-width:1.0;"/><path d="M348.5938,581.1719 C347.6563,580.7344 347.0625,580.5938 346.1875,580.5938 C343.5625,580.5938 341.5625,582.6719 341.5625,585.3906 L341.5625,586.5156 C341.5625,589.0938 343.6719,590.9844 346.5625,590.9844 C347.7813,590.9844 348.9375,590.6875 349.6875,590.1406 C350.2656,589.7344 350.5938,589.2813 350.5938,588.8906 C350.5938,588.4375 350.2031,588.0469 349.7344,588.0469 C349.5156,588.0469 349.3125,588.125 349.125,588.3125 C348.6719,588.7969 348.6719,588.7969 348.4844,588.8906 C348.0625,589.1563 347.375,589.2813 346.6094,589.2813 C344.5625,589.2813 343.2656,588.1875 343.2656,586.4844 L343.2656,585.3906 C343.2656,583.6094 344.5156,582.2969 346.25,582.2969 C346.8281,582.2969 347.4375,582.4531 347.9063,582.7031 C348.3906,582.9844 348.5625,583.2031 348.6563,583.6094 C348.7188,584.0156 348.75,584.1406 348.8906,584.2656 C349.0313,584.4063 349.2656,584.5156 349.4844,584.5156 C349.75,584.5156 350.0156,584.375 350.1875,584.1563 C350.2969,584 350.3281,583.8125 350.3281,583.3906 L350.3281,581.9688 C350.3281,581.5313 350.3125,581.4063 350.2188,581.25 C350.0625,580.9844 349.7813,580.8438 349.4844,580.8438 C349.1875,580.8438 348.9844,580.9375 348.7656,581.25 L348.5938,581.1719 Z " fill="#000000"/><text fill="#000000" font-family="sans-serif" font-size="12" lengthAdjust="spacingAndGlyphs" textLength="107" x="366.75" y="589.6543">ResumeController</text><line style="stroke:#A80036;stroke-width:1.5;" x1="300.5" x2="507.5" y1="601.5" y2="601.5"/><line style="stroke:#A80036;stroke-width:1.5;" x1="300.5" x2="507.5" y1="609.5" y2="609.5"/><ellipse cx="310.5" cy="620.5" fill="#84BE84" rx="3" ry="3" style="stroke:#038048;stroke-width:1.0;"/><text fill="#000000" font-family="sans-serif" font-size="11" lengthAdjust="spacingAndGlyphs" textLength="183" x="319.5" y="623.7104">ResumeController(State, Game)</text><ellipse cx="310.5" cy="633.3047" fill="#84BE84" rx="3" ry="3" style="stroke:#038048;stroke-width:1.0;"/><text fill="#000000" font-family="sans-serif" font-size="11" lengthAdjust="spacingAndGlyphs" textLength="142" x="319.5" y="636.5151">accept(ControllersVisitor)</text><ellipse cx="310.5" cy="646.1094" fill="#84BE84" rx="3" ry="3" style="stroke:#038048;stroke-width:1.0;"/><text fill="#000000" font-family="sans-serif" font-size="11" lengthAdjust="spacingAndGlyphs" textLength="98" x="319.5" y="649.3198">resume(boolean)</text><!--MD5=[c20948aa6f904689435480ad9a30530a]
class usantatecla.mastermind.controllers.StartController--><rect codeLine="71" fill="#FEFECE" filter="url(#f8s4orebbjgmv)" height="86.4141" id="usantatecla.mastermind.controllers.StartController" style="stroke:#A80036;stroke-width:1.5;" width="189" x="543.5" y="569.5"/><ellipse cx="590.25" cy="585.5" fill="#ADD1B2" rx="11" ry="11" style="stroke:#A80036;stroke-width:1.0;"/><path d="M592.5938,581.1719 C591.6563,580.7344 591.0625,580.5938 590.1875,580.5938 C587.5625,580.5938 585.5625,582.6719 585.5625,585.3906 L585.5625,586.5156 C585.5625,589.0938 587.6719,590.9844 590.5625,590.9844 C591.7813,590.9844 592.9375,590.6875 593.6875,590.1406 C594.2656,589.7344 594.5938,589.2813 594.5938,588.8906 C594.5938,588.4375 594.2031,588.0469 593.7344,588.0469 C593.5156,588.0469 593.3125,588.125 593.125,588.3125 C592.6719,588.7969 592.6719,588.7969 592.4844,588.8906 C592.0625,589.1563 591.375,589.2813 590.6094,589.2813 C588.5625,589.2813 587.2656,588.1875 587.2656,586.4844 L587.2656,585.3906 C587.2656,583.6094 588.5156,582.2969 590.25,582.2969 C590.8281,582.2969 591.4375,582.4531 591.9063,582.7031 C592.3906,582.9844 592.5625,583.2031 592.6563,583.6094 C592.7188,584.0156 592.75,584.1406 592.8906,584.2656 C593.0313,584.4063 593.2656,584.5156 593.4844,584.5156 C593.75,584.5156 594.0156,584.375 594.1875,584.1563 C594.2969,584 594.3281,583.8125 594.3281,583.3906 L594.3281,581.9688 C594.3281,581.5313 594.3125,581.4063 594.2188,581.25 C594.0625,580.9844 593.7813,580.8438 593.4844,580.8438 C593.1875,580.8438 592.9844,580.9375 592.7656,581.25 L592.5938,581.1719 Z " fill="#000000"/><text fill="#000000" font-family="sans-serif" font-size="12" lengthAdjust="spacingAndGlyphs" textLength="87" x="610.75" y="589.6543">StartController</text><line style="stroke:#A80036;stroke-width:1.5;" x1="544.5" x2="731.5" y1="601.5" y2="601.5"/><line style="stroke:#A80036;stroke-width:1.5;" x1="544.5" x2="731.5" y1="609.5" y2="609.5"/><ellipse cx="554.5" cy="620.5" fill="#84BE84" rx="3" ry="3" style="stroke:#038048;stroke-width:1.0;"/><text fill="#000000" font-family="sans-serif" font-size="11" lengthAdjust="spacingAndGlyphs" textLength="163" x="563.5" y="623.7104">StartController(Game, State)</text><ellipse cx="554.5" cy="633.3047" fill="#84BE84" rx="3" ry="3" style="stroke:#038048;stroke-width:1.0;"/><text fill="#000000" font-family="sans-serif" font-size="11" lengthAdjust="spacingAndGlyphs" textLength="142" x="563.5" y="636.5151">accept(ControllersVisitor)</text><ellipse cx="554.5" cy="646.1094" fill="#84BE84" rx="3" ry="3" style="stroke:#038048;stroke-width:1.0;"/><text fill="#000000" font-family="sans-serif" font-size="11" lengthAdjust="spacingAndGlyphs" textLength="33" x="563.5" y="649.3198">start()</text><!--MD5=[71ea1457370bc7d349149836b00bab29]
class usantatecla.mastermind.controllers.ProposalController--><rect codeLine="51" fill="#FEFECE" filter="url(#f8s4orebbjgmv)" height="163.2422" id="usantatecla.mastermind.controllers.ProposalController" style="stroke:#A80036;stroke-width:1.5;" width="273" x="767.5" y="531"/><ellipse cx="844.25" cy="547" fill="#ADD1B2" rx="11" ry="11" style="stroke:#A80036;stroke-width:1.0;"/><path d="M846.5938,542.6719 C845.6563,542.2344 845.0625,542.0938 844.1875,542.0938 C841.5625,542.0938 839.5625,544.1719 839.5625,546.8906 L839.5625,548.0156 C839.5625,550.5938 841.6719,552.4844 844.5625,552.4844 C845.7813,552.4844 846.9375,552.1875 847.6875,551.6406 C848.2656,551.2344 848.5938,550.7813 848.5938,550.3906 C848.5938,549.9375 848.2031,549.5469 847.7344,549.5469 C847.5156,549.5469 847.3125,549.625 847.125,549.8125 C846.6719,550.2969 846.6719,550.2969 846.4844,550.3906 C846.0625,550.6563 845.375,550.7813 844.6094,550.7813 C842.5625,550.7813 841.2656,549.6875 841.2656,547.9844 L841.2656,546.8906 C841.2656,545.1094 842.5156,543.7969 844.25,543.7969 C844.8281,543.7969 845.4375,543.9531 845.9063,544.2031 C846.3906,544.4844 846.5625,544.7031 846.6563,545.1094 C846.7188,545.5156 846.75,545.6406 846.8906,545.7656 C847.0313,545.9063 847.2656,546.0156 847.4844,546.0156 C847.75,546.0156 848.0156,545.875 848.1875,545.6563 C848.2969,545.5 848.3281,545.3125 848.3281,544.8906 L848.3281,543.4688 C848.3281,543.0313 848.3125,542.9063 848.2188,542.75 C848.0625,542.4844 847.7813,542.3438 847.4844,542.3438 C847.1875,542.3438 846.9844,542.4375 846.7656,542.75 L846.5938,542.6719 Z " fill="#000000"/><text fill="#000000" font-family="sans-serif" font-size="12" lengthAdjust="spacingAndGlyphs" textLength="111" x="864.75" y="551.1543">ProposalController</text><line style="stroke:#A80036;stroke-width:1.5;" x1="768.5" x2="1039.5" y1="563" y2="563"/><line style="stroke:#A80036;stroke-width:1.5;" x1="768.5" x2="1039.5" y1="571" y2="571"/><ellipse cx="778.5" cy="582" fill="#84BE84" rx="3" ry="3" style="stroke:#038048;stroke-width:1.0;"/><text fill="#000000" font-family="sans-serif" font-size="11" lengthAdjust="spacingAndGlyphs" textLength="183" x="787.5" y="585.2104">ProposalController(State, Game)</text><ellipse cx="778.5" cy="594.8047" fill="#84BE84" rx="3" ry="3" style="stroke:#038048;stroke-width:1.0;"/><text fill="#000000" font-family="sans-serif" font-size="11" lengthAdjust="spacingAndGlyphs" textLength="142" x="787.5" y="598.0151">accept(ControllersVisitor)</text><ellipse cx="778.5" cy="607.6094" fill="#84BE84" rx="3" ry="3" style="stroke:#038048;stroke-width:1.0;"/><text fill="#000000" font-family="sans-serif" font-size="11" lengthAdjust="spacingAndGlyphs" textLength="108" x="787.5" y="610.8198">isLooser(): boolean</text><ellipse cx="778.5" cy="620.4141" fill="#84BE84" rx="3" ry="3" style="stroke:#038048;stroke-width:1.0;"/><text fill="#000000" font-family="sans-serif" font-size="11" lengthAdjust="spacingAndGlyphs" textLength="110" x="787.5" y="623.6245">isWinner(): boolean</text><ellipse cx="778.5" cy="633.2188" fill="#84BE84" rx="3" ry="3" style="stroke:#038048;stroke-width:1.0;"/><text fill="#000000" font-family="sans-serif" font-size="11" lengthAdjust="spacingAndGlyphs" textLength="247" x="787.5" y="636.4292">addProposedCombination(Lis&lt;Color&gt;): Error</text><ellipse cx="778.5" cy="646.0234" fill="#84BE84" rx="3" ry="3" style="stroke:#038048;stroke-width:1.0;"/><text fill="#000000" font-family="sans-serif" font-size="11" lengthAdjust="spacingAndGlyphs" textLength="100" x="787.5" y="649.2339">getAttempts(): int</text><ellipse cx="778.5" cy="658.8281" fill="#84BE84" rx="3" ry="3" style="stroke:#038048;stroke-width:1.0;"/><text fill="#000000" font-family="sans-serif" font-size="11" lengthAdjust="spacingAndGlyphs" textLength="98" x="787.5" y="662.0386">getBlacks(int): int</text><ellipse cx="778.5" cy="671.6328" fill="#84BE84" rx="3" ry="3" style="stroke:#038048;stroke-width:1.0;"/><text fill="#000000" font-family="sans-serif" font-size="11" lengthAdjust="spacingAndGlyphs" textLength="101" x="787.5" y="674.8433">getWhites(int): int</text><ellipse cx="778.5" cy="684.4375" fill="#84BE84" rx="3" ry="3" style="stroke:#038048;stroke-width:1.0;"/><text fill="#000000" font-family="sans-serif" font-size="11" lengthAdjust="spacingAndGlyphs" textLength="149" x="787.5" y="687.6479">getColors(int): List&lt;Color&gt;</text><!--MD5=[94a6d75594c4867cc1b5bdf8bdcd38a2]
class usantatecla.mastermind.controllers.Logic--><rect codeLine="38" fill="#FEFECE" filter="url(#f8s4orebbjgmv)" height="112.0234" id="usantatecla.mastermind.controllers.Logic" style="stroke:#A80036;stroke-width:1.5;" width="259" x="781.5" y="41"/><ellipse cx="890.75" cy="57" fill="#ADD1B2" rx="11" ry="11" style="stroke:#A80036;stroke-width:1.0;"/><path d="M893.0938,52.6719 C892.1563,52.2344 891.5625,52.0938 890.6875,52.0938 C888.0625,52.0938 886.0625,54.1719 886.0625,56.8906 L886.0625,58.0156 C886.0625,60.5938 888.1719,62.4844 891.0625,62.4844 C892.2813,62.4844 893.4375,62.1875 894.1875,61.6406 C894.7656,61.2344 895.0938,60.7813 895.0938,60.3906 C895.0938,59.9375 894.7031,59.5469 894.2344,59.5469 C894.0156,59.5469 893.8125,59.625 893.625,59.8125 C893.1719,60.2969 893.1719,60.2969 892.9844,60.3906 C892.5625,60.6563 891.875,60.7813 891.1094,60.7813 C889.0625,60.7813 887.7656,59.6875 887.7656,57.9844 L887.7656,56.8906 C887.7656,55.1094 889.0156,53.7969 890.75,53.7969 C891.3281,53.7969 891.9375,53.9531 892.4063,54.2031 C892.8906,54.4844 893.0625,54.7031 893.1563,55.1094 C893.2188,55.5156 893.25,55.6406 893.3906,55.7656 C893.5313,55.9063 893.7656,56.0156 893.9844,56.0156 C894.25,56.0156 894.5156,55.875 894.6875,55.6563 C894.7969,55.5 894.8281,55.3125 894.8281,54.8906 L894.8281,53.4688 C894.8281,53.0313 894.8125,52.9063 894.7188,52.75 C894.5625,52.4844 894.2813,52.3438 893.9844,52.3438 C893.6875,52.3438 893.4844,52.4375 893.2656,52.75 L893.0938,52.6719 Z " fill="#000000"/><text fill="#000000" font-family="sans-serif" font-size="12" lengthAdjust="spacingAndGlyphs" textLength="32" x="911.25" y="61.1543">Logic</text><line style="stroke:#A80036;stroke-width:1.5;" x1="782.5" x2="1039.5" y1="73" y2="73"/><rect fill="none" height="6" style="stroke:#C82930;stroke-width:1.0;" width="6" x="789.5" y="81"/><text fill="#000000" font-family="sans-serif" font-size="11" lengthAdjust="spacingAndGlyphs" textLength="67" x="801.5" y="87.2104">state: State</text><rect fill="none" height="6" style="stroke:#C82930;stroke-width:1.0;" width="6" x="789.5" y="93.8047"/><text fill="#000000" font-family="sans-serif" font-size="11" lengthAdjust="spacingAndGlyphs" textLength="75" x="801.5" y="100.0151">game: Game</text><rect fill="none" height="6" style="stroke:#C82930;stroke-width:1.0;" width="6" x="789.5" y="106.6094"/><text fill="#000000" font-family="sans-serif" font-size="11" lengthAdjust="spacingAndGlyphs" textLength="233" x="801.5" y="112.8198">controllers: Map&lt;StateValue, Controller&gt;</text><line style="stroke:#A80036;stroke-width:1.5;" x1="782.5" x2="1039.5" y1="119.4141" y2="119.4141"/><ellipse cx="792.5" cy="130.4141" fill="#84BE84" rx="3" ry="3" style="stroke:#038048;stroke-width:1.0;"/><text fill="#000000" font-family="sans-serif" font-size="11" lengthAdjust="spacingAndGlyphs" textLength="37" x="801.5" y="133.6245">Logic()</text><ellipse cx="792.5" cy="143.2188" fill="#84BE84" rx="3" ry="3" style="stroke:#038048;stroke-width:1.0;"/><text fill="#000000" font-family="sans-serif" font-size="11" lengthAdjust="spacingAndGlyphs" textLength="144" x="801.5" y="146.4292">getController(): Controller</text><!--MD5=[b6dcce5e5ef3c84b0b048d11301373dd]
class Game--><rect codeLine="1" fill="#FEFECE" filter="url(#f8s4orebbjgmv)" height="48" id="Game" style="stroke:#A80036;stroke-width:1.5;" width="260" x="7" y="404"/><ellipse cx="22" cy="420" fill="#ADD1B2" rx="11" ry="11" style="stroke:#A80036;stroke-width:1.0;"/><path d="M24.3438,415.6719 C23.4063,415.2344 22.8125,415.0938 21.9375,415.0938 C19.3125,415.0938 17.3125,417.1719 17.3125,419.8906 L17.3125,421.0156 C17.3125,423.5938 19.4219,425.4844 22.3125,425.4844 C23.5313,425.4844 24.6875,425.1875 25.4375,424.6406 C26.0156,424.2344 26.3438,423.7813 26.3438,423.3906 C26.3438,422.9375 25.9531,422.5469 25.4844,422.5469 C25.2656,422.5469 25.0625,422.625 24.875,422.8125 C24.4219,423.2969 24.4219,423.2969 24.2344,423.3906 C23.8125,423.6563 23.125,423.7813 22.3594,423.7813 C20.3125,423.7813 19.0156,422.6875 19.0156,420.9844 L19.0156,419.8906 C19.0156,418.1094 20.2656,416.7969 22,416.7969 C22.5781,416.7969 23.1875,416.9531 23.6563,417.2031 C24.1406,417.4844 24.3125,417.7031 24.4063,418.1094 C24.4688,418.5156 24.5,418.6406 24.6406,418.7656 C24.7813,418.9063 25.0156,419.0156 25.2344,419.0156 C25.5,419.0156 25.7656,418.875 25.9375,418.6563 C26.0469,418.5 26.0781,418.3125 26.0781,417.8906 L26.0781,416.4688 C26.0781,416.0313 26.0625,415.9063 25.9688,415.75 C25.8125,415.4844 25.5313,415.3438 25.2344,415.3438 C24.9375,415.3438 24.7344,415.4375 24.5156,415.75 L24.3438,415.6719 Z " fill="#000000"/><text fill="#000000" font-family="sans-serif" font-size="12" lengthAdjust="spacingAndGlyphs" textLength="228" x="36" y="424.1543">usantatecla.mastermind.models.Game</text><line style="stroke:#A80036;stroke-width:1.5;" x1="8" x2="266" y1="436" y2="436"/><line style="stroke:#A80036;stroke-width:1.5;" x1="8" x2="266" y1="444" y2="444"/><!--MD5=[60d6b92408f98aed8df94d5c6e04aa63]
class State--><rect codeLine="6" fill="#FEFECE" filter="url(#f8s4orebbjgmv)" height="48" id="State" style="stroke:#A80036;stroke-width:1.5;" width="256" x="1250" y="404"/><ellipse cx="1265" cy="420" fill="#ADD1B2" rx="11" ry="11" style="stroke:#A80036;stroke-width:1.0;"/><path d="M1267.3438,415.6719 C1266.4063,415.2344 1265.8125,415.0938 1264.9375,415.0938 C1262.3125,415.0938 1260.3125,417.1719 1260.3125,419.8906 L1260.3125,421.0156 C1260.3125,423.5938 1262.4219,425.4844 1265.3125,425.4844 C1266.5313,425.4844 1267.6875,425.1875 1268.4375,424.6406 C1269.0156,424.2344 1269.3438,423.7813 1269.3438,423.3906 C1269.3438,422.9375 1268.9531,422.5469 1268.4844,422.5469 C1268.2656,422.5469 1268.0625,422.625 1267.875,422.8125 C1267.4219,423.2969 1267.4219,423.2969 1267.2344,423.3906 C1266.8125,423.6563 1266.125,423.7813 1265.3594,423.7813 C1263.3125,423.7813 1262.0156,422.6875 1262.0156,420.9844 L1262.0156,419.8906 C1262.0156,418.1094 1263.2656,416.7969 1265,416.7969 C1265.5781,416.7969 1266.1875,416.9531 1266.6563,417.2031 C1267.1406,417.4844 1267.3125,417.7031 1267.4063,418.1094 C1267.4688,418.5156 1267.5,418.6406 1267.6406,418.7656 C1267.7813,418.9063 1268.0156,419.0156 1268.2344,419.0156 C1268.5,419.0156 1268.7656,418.875 1268.9375,418.6563 C1269.0469,418.5 1269.0781,418.3125 1269.0781,417.8906 L1269.0781,416.4688 C1269.0781,416.0313 1269.0625,415.9063 1268.9688,415.75 C1268.8125,415.4844 1268.5313,415.3438 1268.2344,415.3438 C1267.9375,415.3438 1267.7344,415.4375 1267.5156,415.75 L1267.3438,415.6719 Z " fill="#000000"/><text fill="#000000" font-family="sans-serif" font-size="12" lengthAdjust="spacingAndGlyphs" textLength="224" x="1279" y="424.1543">usantatecla.mastermind.models.State</text><line style="stroke:#A80036;stroke-width:1.5;" x1="1251" x2="1505" y1="436" y2="436"/><line style="stroke:#A80036;stroke-width:1.5;" x1="1251" x2="1505" y1="444" y2="444"/><!--MD5=[167506e288131cdf3986fedef83acd94]
class StateValue--><rect codeLine="11" fill="#FEFECE" filter="url(#f8s4orebbjgmv)" height="48" id="StateValue" style="stroke:#A80036;stroke-width:1.5;" width="289" x="1073.5" y="245"/><ellipse cx="1088.5" cy="261" fill="#EB937F" rx="11" ry="11" style="stroke:#A80036;stroke-width:1.0;"/><path d="M1087.2969,261.875 L1088.75,261.875 L1088.75,261.9844 C1088.75,262.3906 1088.7813,262.5469 1088.8594,262.7031 C1089.0156,262.9531 1089.2969,263.1094 1089.5938,263.1094 C1089.8438,263.1094 1090.1094,262.9688 1090.2656,262.75 C1090.3906,262.5938 1090.4219,262.4375 1090.4219,261.9844 L1090.4219,260.0625 C1090.4219,259.9063 1090.4219,259.8594 1090.4063,259.7031 C1090.3438,259.2344 1090.0313,258.9219 1089.5781,258.9219 C1089.3281,258.9219 1089.0625,259.0625 1088.8906,259.2813 C1088.7813,259.4531 1088.75,259.6094 1088.75,260.0625 L1088.75,260.1875 L1087.2969,260.1875 L1087.2969,257.7813 L1091.2813,257.7813 L1091.2813,258.6406 C1091.2813,259.0469 1091.3125,259.2188 1091.3906,259.375 C1091.5625,259.625 1091.8438,259.7813 1092.125,259.7813 C1092.3906,259.7813 1092.6563,259.6406 1092.8281,259.4219 C1092.9375,259.25 1092.9688,259.1094 1092.9688,258.6406 L1092.9688,256.0938 L1085.3438,256.0938 C1084.9063,256.0938 1084.7813,256.1094 1084.625,256.2031 C1084.375,256.3594 1084.2188,256.6563 1084.2188,256.9375 C1084.2188,257.2188 1084.3594,257.4688 1084.5781,257.6406 C1084.7344,257.75 1084.9219,257.7813 1085.3438,257.7813 L1085.5938,257.7813 L1085.5938,264.2969 L1085.3438,264.2969 C1084.9375,264.2969 1084.7813,264.3125 1084.625,264.4219 C1084.375,264.5938 1084.2188,264.8594 1084.2188,265.1563 C1084.2188,265.4219 1084.3594,265.6719 1084.5781,265.8281 C1084.7188,265.9531 1084.9531,266 1085.3438,266 L1093.3438,266 L1093.3438,263.4219 C1093.3438,262.9844 1093.3125,262.8438 1093.2344,262.6875 C1093.0625,262.4375 1092.7813,262.2813 1092.5,262.2813 C1092.2344,262.2813 1091.9688,262.3906 1091.7969,262.6406 C1091.6875,262.7969 1091.6563,262.9375 1091.6563,263.4219 L1091.6563,264.2969 L1087.2969,264.2969 L1087.2969,261.875 Z " fill="#000000"/><text fill="#000000" font-family="sans-serif" font-size="12" lengthAdjust="spacingAndGlyphs" textLength="257" x="1102.5" y="265.1543">usantatecla.mastermind.models.StateValue</text><line style="stroke:#A80036;stroke-width:1.5;" x1="1074.5" x2="1361.5" y1="277" y2="277"/><line style="stroke:#A80036;stroke-width:1.5;" x1="1074.5" x2="1361.5" y1="285" y2="285"/><!--MD5=[4dfc6a72b8dd60daa1b635d583ff79da]
class Map--><rect codeLine="16" fill="#FEFECE" filter="url(#f8s4orebbjgmv)" height="48" id="Map" style="stroke:#A80036;stroke-width:1.5;" width="105" x="1397.5" y="245"/><ellipse cx="1412.5" cy="261" fill="#ADD1B2" rx="11" ry="11" style="stroke:#A80036;stroke-width:1.0;"/><path d="M1414.8438,256.6719 C1413.9063,256.2344 1413.3125,256.0938 1412.4375,256.0938 C1409.8125,256.0938 1407.8125,258.1719 1407.8125,260.8906 L1407.8125,262.0156 C1407.8125,264.5938 1409.9219,266.4844 1412.8125,266.4844 C1414.0313,266.4844 1415.1875,266.1875 1415.9375,265.6406 C1416.5156,265.2344 1416.8438,264.7813 1416.8438,264.3906 C1416.8438,263.9375 1416.4531,263.5469 1415.9844,263.5469 C1415.7656,263.5469 1415.5625,263.625 1415.375,263.8125 C1414.9219,264.2969 1414.9219,264.2969 1414.7344,264.3906 C1414.3125,264.6563 1413.625,264.7813 1412.8594,264.7813 C1410.8125,264.7813 1409.5156,263.6875 1409.5156,261.9844 L1409.5156,260.8906 C1409.5156,259.1094 1410.7656,257.7969 1412.5,257.7969 C1413.0781,257.7969 1413.6875,257.9531 1414.1563,258.2031 C1414.6406,258.4844 1414.8125,258.7031 1414.9063,259.1094 C1414.9688,259.5156 1415,259.6406 1415.1406,259.7656 C1415.2813,259.9063 1415.5156,260.0156 1415.7344,260.0156 C1416,260.0156 1416.2656,259.875 1416.4375,259.6563 C1416.5469,259.5 1416.5781,259.3125 1416.5781,258.8906 L1416.5781,257.4688 C1416.5781,257.0313 1416.5625,256.9063 1416.4688,256.75 C1416.3125,256.4844 1416.0313,256.3438 1415.7344,256.3438 C1415.4375,256.3438 1415.2344,256.4375 1415.0156,256.75 L1414.8438,256.6719 Z " fill="#000000"/><text fill="#000000" font-family="sans-serif" font-size="12" lengthAdjust="spacingAndGlyphs" textLength="73" x="1426.5" y="265.1543">java.util.map</text><line style="stroke:#A80036;stroke-width:1.5;" x1="1398.5" x2="1501.5" y1="277" y2="277"/><line style="stroke:#A80036;stroke-width:1.5;" x1="1398.5" x2="1501.5" y1="285" y2="285"/><!--MD5=[e38476471b755b5fe78a9c6017ac6ee4]
link usantatecla.mastermind.controllers.Controller to State--><path codeLine="25" d="M850.4424,294.2645 C850.4424,294.2645 1155.97,371.138 1273.62,400.737 " fill="none" id="usantatecla.mastermind.controllers.Controller-State" style="stroke:#A80036;stroke-width:1.0;"/><polygon fill="#A80036" points="1286.54,403.988,1278.7878,397.9132,1281.6911,402.7682,1276.8361,405.6715,1286.54,403.988" style="stroke:#A80036;stroke-width:1.0;"/><line style="stroke:#A80036;stroke-width:1.0;" x1="1281.6911" x2="1273.93" y1="402.7682" y2="400.8155"/><polygon fill="#A80036" points="838.805,291.337,843.6479,296.6799,850.4424,294.2645,845.5995,288.9216,838.805,291.337" style="stroke:#A80036;stroke-width:1.0;"/><!--MD5=[b1534f62db7bd0c312bb47cb18cac355]
link usantatecla.mastermind.controllers.Controller to Game--><path codeLine="26" d="M657.3944,292.3756 C657.3944,292.3756 411.521,350.839 283,385 C264.982,389.789 245.782,395.136 227.428,400.367 " fill="none" id="usantatecla.mastermind.controllers.Controller-Game" style="stroke:#A80036;stroke-width:1.0;"/><polygon fill="#A80036" points="214.881,403.962,224.6346,405.3288,219.6877,402.5851,222.4314,397.6382,214.881,403.962" style="stroke:#A80036;stroke-width:1.0;"/><line style="stroke:#A80036;stroke-width:1.0;" x1="219.6877" x2="227.378" y1="402.5851" y2="400.381"/><polygon fill="#A80036" points="669.078,289.638,662.3237,287.1123,657.3944,292.3756,664.1488,294.9013,669.078,289.638" style="stroke:#A80036;stroke-width:1.0;"/><!--MD5=[ce602df3a29483883a9e9ef4672793ad]
link usantatecla.mastermind.controllers.Controller to usantatecla.mastermind.controllers.ControllersVisitor--><path codeLine="27" d="M713.103,325.352 C699.753,343.42 685.076,363.285 672.266,380.623 " fill="none" id="usantatecla.mastermind.controllers.Controller-to-usantatecla.mastermind.controllers.ControllersVisitor" style="stroke:#A80036;stroke-width:1.0;stroke-dasharray:7.0,7.0;"/><polygon fill="#A80036" points="669.051,384.974,677.6165,380.1127,672.0224,380.9527,671.1824,375.3585,669.051,384.974" style="stroke:#A80036;stroke-width:1.0;"/><!--MD5=[ec7073da616e8e4af445466fbcd0dd68]
link usantatecla.mastermind.controllers.ControllersVisitor to usantatecla.mastermind.controllers.ResumeController--><path codeLine="34" d="M584.022,471.098 C547.558,499.537 499.454,537.054 462.146,566.151 " fill="none" id="usantatecla.mastermind.controllers.ControllersVisitor-to-usantatecla.mastermind.controllers.ResumeController" style="stroke:#A80036;stroke-width:1.0;stroke-dasharray:7.0,7.0;"/><polygon fill="#A80036" points="458.111,569.298,467.6681,566.9184,462.0541,566.2236,462.749,560.6095,458.111,569.298" style="stroke:#A80036;stroke-width:1.0;"/><!--MD5=[7fdf48b556a1c9826cc0cc4ec2a626dc]
link usantatecla.mastermind.controllers.ControllersVisitor to usantatecla.mastermind.controllers.StartController--><path codeLine="35" d="M638,471.328 C638,499.084 638,535.413 638,564.132 " fill="none" id="usantatecla.mastermind.controllers.ControllersVisitor-to-usantatecla.mastermind.controllers.StartController" style="stroke:#A80036;stroke-width:1.0;stroke-dasharray:7.0,7.0;"/><polygon fill="#A80036" points="638,569.402,642,560.402,638,564.402,634,560.402,638,569.402" style="stroke:#A80036;stroke-width:1.0;"/><!--MD5=[f9ec56cc12ee26bcec60491479aeabfa]
link usantatecla.mastermind.controllers.ControllersVisitor to usantatecla.mastermind.controllers.ProposalController--><path codeLine="36" d="M699.36,471.098 C724.074,488.055 753.492,508.238 782.209,527.94 " fill="none" id="usantatecla.mastermind.controllers.ControllersVisitor-to-usantatecla.mastermind.controllers.ProposalController" style="stroke:#A80036;stroke-width:1.0;stroke-dasharray:7.0,7.0;"/><polygon fill="#A80036" points="786.44,530.843,781.2802,522.4539,782.3166,528.015,776.7555,529.0514,786.44,530.843" style="stroke:#A80036;stroke-width:1.0;"/><!--MD5=[d4e971768f4879fedf61c3b3dae7f6ab]
link usantatecla.mastermind.controllers.Logic to StateValue--><path codeLine="45" d="M1021.167,159.0088 C1021.167,159.0088 1125.85,216.972 1165.05,238.678 " fill="none" id="usantatecla.mastermind.controllers.Logic-StateValue" style="stroke:#A80036;stroke-width:1.0;"/><polygon fill="#A80036" points="1176.43,244.983,1170.4879,237.1286,1172.0539,242.5644,1166.6181,244.1303,1176.43,244.983" style="stroke:#A80036;stroke-width:1.0;"/><line style="stroke:#A80036;stroke-width:1.0;" x1="1172.0539" x2="1165.06" y1="242.5644" y2="238.6845"/><polygon fill="#A80036" points="1010.67,153.194,1013.9802,159.6004,1021.167,159.0088,1017.8568,152.6024,1010.67,153.194" style="stroke:#A80036;stroke-width:1.0;"/><!--MD5=[f1f29f0dfa0e00be085894473cdc58fa]
link usantatecla.mastermind.controllers.Logic to State--><path codeLine="46" d="M1052.7056,104.4629 C1052.7056,104.4629 1461.98,142.999 1520,213 C1551.77,251.325 1542.72,280.709 1520,325 C1503.73,356.711 1472.52,380.79 1443.49,397.568 " fill="none" id="usantatecla.mastermind.controllers.Logic-State" style="stroke:#A80036;stroke-width:1.0;"/><polygon fill="#A80036" points="1432.08,403.864,1441.8921,403.0139,1436.4567,401.4465,1438.0241,396.0112,1432.08,403.864" style="stroke:#A80036;stroke-width:1.0;"/><line style="stroke:#A80036;stroke-width:1.0;" x1="1436.4567" x2="1443.46" y1="401.4465" y2="397.581"/><polygon fill="#A80036" points="1040.73,103.698,1046.4628,108.0723,1052.7056,104.4629,1046.9728,100.0886,1040.73,103.698" style="stroke:#A80036;stroke-width:1.0;"/><!--MD5=[7b41acd9604d1aaa6098f6dee9c57d08]
link usantatecla.mastermind.controllers.Logic to Map--><path codeLine="47" d="M1052.5336,116.6212 C1052.5336,116.6212 1276.68,162.683 1380,213 C1392.51,219.09 1404.87,227.696 1415.65,236.296 " fill="none" id="usantatecla.mastermind.controllers.Logic-Map" style="stroke:#A80036;stroke-width:1.0;"/><polygon fill="#A80036" points="1425.84,244.801,1421.4917,235.964,1422.0007,241.5979,1416.3668,242.1069,1425.84,244.801" style="stroke:#A80036;stroke-width:1.0;"/><line style="stroke:#A80036;stroke-width:1.0;" x1="1422.0007" x2="1415.855" y1="241.5979" y2="236.473"/><polygon fill="#A80036" points="1040.7,114.63,1045.9531,119.5701,1052.5336,116.6212,1047.2805,111.681,1040.7,114.63" style="stroke:#A80036;stroke-width:1.0;"/><!--MD5=[0ff8f89650a05932e406ed8572c4f29f]
link usantatecla.mastermind.controllers.Logic to Game--><path codeLine="48" d="M770.4063,157.7614 C770.4063,157.7614 328.313,345.68 203.298,398.819 " fill="none" id="usantatecla.mastermind.controllers.Logic-Game" style="stroke:#A80036;stroke-width:1.0;"/><polygon fill="#A80036" points="191.311,403.914,201.1586,404.0744,195.9125,401.958,198.029,396.712,191.311,403.914" style="stroke:#A80036;stroke-width:1.0;"/><line style="stroke:#A80036;stroke-width:1.0;" x1="195.9125" x2="203.275" y1="401.958" y2="398.8285"/><polygon fill="#A80036" points="781.45,153.067,774.3634,151.733,770.4063,157.7614,777.493,159.0954,781.45,153.067" style="stroke:#A80036;stroke-width:1.0;"/><!--MD5=[98406596dc34fe0c5d6413d1091d84c2]
link usantatecla.mastermind.controllers.Logic to usantatecla.mastermind.controllers.Controller--><path codeLine="49" d="M860.027,153.194 C843.628,170.951 825.394,190.694 808.737,208.731 " fill="none" id="usantatecla.mastermind.controllers.Logic-to-usantatecla.mastermind.controllers.Controller" style="stroke:#A80036;stroke-width:1.0;"/><polygon fill="#A80036" points="804.986,212.792,814.0304,208.8934,808.378,209.1185,808.1528,203.4662,804.986,212.792" style="stroke:#A80036;stroke-width:1.0;"/><!--MD5=[355b9902740da4b2ec85e8089918fd93]
reverse link usantatecla.mastermind.controllers.Controller to usantatecla.mastermind.controllers.ProposalController--><path codeLine="62" d="M786.431,343.834 C810.632,398.933 843.676,474.162 868.57,530.837 " fill="none" id="usantatecla.mastermind.controllers.Controller-backto-usantatecla.mastermind.controllers.ProposalController" style="stroke:#A80036;stroke-width:1.0;"/><polygon fill="none" points="779.901,346.374,778.267,325.247,792.719,340.744,779.901,346.374" style="stroke:#A80036;stroke-width:1.0;"/><!--MD5=[933c3a87fb1e2f64e4c2436935a9c1c3]
reverse link usantatecla.mastermind.controllers.Controller to usantatecla.mastermind.controllers.ResumeController--><path codeLine="69" d="M651.356,311.615 C613.727,330.237 572.646,354.865 541,385 C484.755,438.559 443.065,520.113 421.226,569.359 " fill="none" id="usantatecla.mastermind.controllers.Controller-backto-usantatecla.mastermind.controllers.ResumeController" style="stroke:#A80036;stroke-width:1.0;"/><polygon fill="none" points="648.43,305.255,669.494,302.957,654.46,317.89,648.43,305.255" style="stroke:#A80036;stroke-width:1.0;"/><!--MD5=[c885998b8df824bd1b8bf3ae6c5e9a62]
reverse link usantatecla.mastermind.controllers.Controller to usantatecla.mastermind.controllers.StartController--><path codeLine="76" d="M755.827,345.55 C754.546,384.115 749.505,431.169 735,471 C721.814,507.207 697.007,542.872 675.781,569.21 " fill="none" id="usantatecla.mastermind.controllers.Controller-backto-usantatecla.mastermind.controllers.StartController" style="stroke:#A80036;stroke-width:1.0;"/><polygon fill="none" points="748.831,345.257,756.188,325.385,762.829,345.507,748.831,345.257" style="stroke:#A80036;stroke-width:1.0;"/><!--MD5=[8de250e62d4a77693ff19081c2199494]
@startuml
class Game as "usantatecla.mastermind.models.Game" {


}

class State as "usantatecla.mastermind.models.State" {


}

Enum StateValue as "usantatecla.mastermind.models.StateValue" {


}

class Map as "java.util.map"

abstract class usantatecla.mastermind.controllers.Controller{
# game: Game
# state: State
~ Controller(State, Game)
+ {abstract} accept(ControllersVisitor)
+ getWidth(): int
}
usantatecla.mastermind.controllers.Controller *-down-> State
usantatecla.mastermind.controllers.Controller *-down-> Game
usantatecla.mastermind.controllers.Controller ..> usantatecla.mastermind.controllers.ControllersVisitor

interface usantatecla.mastermind.controllers.ControllersVisitor{
~ visit(StartController)
~ visit(ProposalController)
~ visit(ResumeController)
}
usantatecla.mastermind.controllers.ControllersVisitor ..> usantatecla.mastermind.controllers.ResumeController
usantatecla.mastermind.controllers.ControllersVisitor ..> usantatecla.mastermind.controllers.StartController
usantatecla.mastermind.controllers.ControllersVisitor ..> usantatecla.mastermind.controllers.ProposalController

class  usantatecla.mastermind.controllers.Logic{
- state: State
- game: Game
- controllers: Map<StateValue, Controller>
+ Logic()
+ getController(): Controller
}
usantatecla.mastermind.controllers.Logic *-down-> StateValue
usantatecla.mastermind.controllers.Logic *-down-> State
usantatecla.mastermind.controllers.Logic *-down-> Map
usantatecla.mastermind.controllers.Logic *-down-> Game
usantatecla.mastermind.controllers.Logic - -> usantatecla.mastermind.controllers.Controller

class  usantatecla.mastermind.controllers.ProposalController{
+ ProposalController(State, Game)
+ accept(ControllersVisitor)
+ isLooser(): boolean
+ isWinner(): boolean
+ addProposedCombination(Lis<Color>): Error
+ getAttempts(): int
+ getBlacks(int): int
+ getWhites(int): int
+ getColors(int): List<Color>
}
usantatecla.mastermind.controllers.Controller <|-down- usantatecla.mastermind.controllers.ProposalController

class  usantatecla.mastermind.controllers.ResumeController{
+ ResumeController(State, Game)
+ accept(ControllersVisitor)
+ resume(boolean)
}
usantatecla.mastermind.controllers.Controller <|-down- usantatecla.mastermind.controllers.ResumeController

class  usantatecla.mastermind.controllers.StartController{
+ StartController(Game, State)
+ accept(ControllersVisitor)
+ start()
}
usantatecla.mastermind.controllers.Controller <|-down- usantatecla.mastermind.controllers.StartController
@enduml

PlantUML version 1.2020.22beta2(Unknown compile time)
(GPL source distribution)
Java Runtime: Java(TM) SE Runtime Environment
JVM: Java HotSpot(TM) 64-Bit Server VM
Default Encoding: UTF-8
Language: en
Country: US
--></g></svg>