<?xml version="1.0" encoding="UTF-8" standalone="no"?><svg xmlns="http://www.w3.org/2000/svg" xmlns:xlink="http://www.w3.org/1999/xlink" contentScriptType="application/ecmascript" contentStyleType="text/css" height="386px" preserveAspectRatio="none" style="width:1378px;height:386px;" version="1.1" viewBox="0 0 1378 386" width="1378px" zoomAndPan="magnify"><defs><filter height="300%" id="fv1rs22rono47" width="300%" x="-1" y="-1"><feGaussianBlur result="blurOut" stdDeviation="2.0"/><feColorMatrix in="blurOut" result="blurOut2" type="matrix" values="0 0 0 0 0 0 0 0 0 0 0 0 0 0 0 0 0 0 .4 0"/><feOffset dx="4.0" dy="4.0" in="blurOut2" result="blurOut3"/><feBlend in="SourceGraphic" in2="blurOut3" mode="normal"/></filter></defs><g><!--MD5=[45607799a901819e6cc4b6d8cd00ce6c]
cluster usantatecla.mastermind.controllers--><polygon fill="#FFFFFF" filter="url(#fv1rs22rono47)" points="16,6,317,6,324,28.2969,794,28.2969,794,379,16,379,16,6" style="stroke:#000000;stroke-width:1.5;"/><line style="stroke:#000000;stroke-width:1.5;" x1="16" x2="324" y1="28.2969" y2="28.2969"/><text fill="#000000" font-family="sans-serif" font-size="14" font-weight="bold" lengthAdjust="spacingAndGlyphs" textLength="295" x="20" y="20.9951">usantatecla.mastermind.controllers</text><!--MD5=[e0d21a3c8ca66756a771586930837509]
class usantatecla.mastermind.controllers.Controller--><rect codeLine="11" fill="#FEFECE" filter="url(#fv1rs22rono47)" height="99.2188" id="usantatecla.mastermind.controllers.Controller" style="stroke:#A80036;stroke-width:1.5;" width="162" x="587" y="47.5"/><ellipse cx="634.75" cy="63.5" fill="#A9DCDF" rx="11" ry="11" style="stroke:#A80036;stroke-width:1.0;"/><path d="M636.8281,65.3125 L637.2188,66.2969 L636.8281,66.2969 C636.375,66.2969 636.2656,66.3125 636.1094,66.4219 C635.8594,66.5781 635.7031,66.8594 635.7031,67.1563 C635.7031,67.4219 635.8438,67.6719 636.0625,67.8281 C636.2031,67.9531 636.4063,68 636.8281,68 L639.1875,68 C639.5469,68 639.7656,67.9688 639.9063,67.875 C640.1563,67.7344 640.3125,67.4375 640.3125,67.1563 C640.3125,66.875 640.1719,66.625 639.9531,66.4688 C639.7813,66.3281 639.625,66.2969 639.1563,66.2969 L635.7656,58.0938 L632.0938,58.0938 C631.6406,58.0938 631.5156,58.1094 631.3594,58.2031 C631.1094,58.375 630.9531,58.6563 630.9531,58.9375 C630.9531,59.2188 631.0938,59.4688 631.3125,59.6406 C631.4844,59.75 631.6563,59.7813 632.0938,59.7813 L633.1719,59.7813 L630.5313,66.2969 C630.1094,66.2969 629.9531,66.3125 629.7969,66.4219 C629.5469,66.5781 629.3906,66.8594 629.3906,67.1563 C629.3906,67.7188 629.7656,68 630.5156,68 L632.7813,68 C633.1406,68 633.3594,67.9688 633.4844,67.875 C633.75,67.7344 633.8906,67.4375 633.8906,67.1563 C633.8906,66.875 633.7656,66.625 633.5469,66.4531 C633.375,66.3281 633.2344,66.2969 632.7813,66.2969 L632.3906,66.2969 L632.7813,65.3125 L636.8281,65.3125 Z M636.125,63.6094 L633.4531,63.6094 L634.7969,60.3438 L636.125,63.6094 Z " fill="#000000"/><text fill="#000000" font-family="sans-serif" font-size="12" font-style="italic" lengthAdjust="spacingAndGlyphs" textLength="58" x="655.25" y="67.6543">Controller</text><line style="stroke:#A80036;stroke-width:1.5;" x1="588" x2="748" y1="79.5" y2="79.5"/><polygon fill="none" points="598,85.5,602,89.5,598,93.5,594,89.5" style="stroke:#B38D22;stroke-width:1.0;"/><text fill="#000000" font-family="sans-serif" font-size="11" lengthAdjust="spacingAndGlyphs" textLength="75" x="607" y="93.7104">game: Game</text><polygon fill="none" points="598,98.3047,602,102.3047,598,106.3047,594,102.3047" style="stroke:#B38D22;stroke-width:1.0;"/><text fill="#000000" font-family="sans-serif" font-size="11" lengthAdjust="spacingAndGlyphs" textLength="67" x="607" y="106.5151">state: State</text><line style="stroke:#A80036;stroke-width:1.5;" x1="588" x2="748" y1="113.1094" y2="113.1094"/><polygon fill="#4177AF" points="598,120.1094,594,126.1094,602,126.1094" style="stroke:#1963A0;stroke-width:1.0;"/><text fill="#000000" font-family="sans-serif" font-size="11" lengthAdjust="spacingAndGlyphs" textLength="136" x="607" y="127.3198">Controller(Game, State)</text><ellipse cx="598" cy="136.9141" fill="#84BE84" rx="3" ry="3" style="stroke:#038048;stroke-width:1.0;"/><text fill="#000000" font-family="sans-serif" font-size="11" lengthAdjust="spacingAndGlyphs" textLength="80" x="607" y="140.1245">getWidth(): int</text><!--MD5=[94a6d75594c4867cc1b5bdf8bdcd38a2]
class usantatecla.mastermind.controllers.Logic--><rect codeLine="20" fill="#FEFECE" filter="url(#fv1rs22rono47)" height="112.0234" id="usantatecla.mastermind.controllers.Logic" style="stroke:#A80036;stroke-width:1.5;" width="259" x="292.5" y="41"/><ellipse cx="401.75" cy="57" fill="#ADD1B2" rx="11" ry="11" style="stroke:#A80036;stroke-width:1.0;"/><path d="M404.0938,52.6719 C403.1563,52.2344 402.5625,52.0938 401.6875,52.0938 C399.0625,52.0938 397.0625,54.1719 397.0625,56.8906 L397.0625,58.0156 C397.0625,60.5938 399.1719,62.4844 402.0625,62.4844 C403.2813,62.4844 404.4375,62.1875 405.1875,61.6406 C405.7656,61.2344 406.0938,60.7813 406.0938,60.3906 C406.0938,59.9375 405.7031,59.5469 405.2344,59.5469 C405.0156,59.5469 404.8125,59.625 404.625,59.8125 C404.1719,60.2969 404.1719,60.2969 403.9844,60.3906 C403.5625,60.6563 402.875,60.7813 402.1094,60.7813 C400.0625,60.7813 398.7656,59.6875 398.7656,57.9844 L398.7656,56.8906 C398.7656,55.1094 400.0156,53.7969 401.75,53.7969 C402.3281,53.7969 402.9375,53.9531 403.4063,54.2031 C403.8906,54.4844 404.0625,54.7031 404.1563,55.1094 C404.2188,55.5156 404.25,55.6406 404.3906,55.7656 C404.5313,55.9063 404.7656,56.0156 404.9844,56.0156 C405.25,56.0156 405.5156,55.875 405.6875,55.6563 C405.7969,55.5 405.8281,55.3125 405.8281,54.8906 L405.8281,53.4688 C405.8281,53.0313 405.8125,52.9063 405.7188,52.75 C405.5625,52.4844 405.2813,52.3438 404.9844,52.3438 C404.6875,52.3438 404.4844,52.4375 404.2656,52.75 L404.0938,52.6719 Z " fill="#000000"/><text fill="#000000" font-family="sans-serif" font-size="12" lengthAdjust="spacingAndGlyphs" textLength="32" x="422.25" y="61.1543">Logic</text><line style="stroke:#A80036;stroke-width:1.5;" x1="293.5" x2="550.5" y1="73" y2="73"/><rect fill="none" height="6" style="stroke:#C82930;stroke-width:1.0;" width="6" x="300.5" y="81"/><text fill="#000000" font-family="sans-serif" font-size="11" lengthAdjust="spacingAndGlyphs" textLength="75" x="312.5" y="87.2104">game: Game</text><rect fill="none" height="6" style="stroke:#C82930;stroke-width:1.0;" width="6" x="300.5" y="93.8047"/><text fill="#000000" font-family="sans-serif" font-size="11" lengthAdjust="spacingAndGlyphs" textLength="67" x="312.5" y="100.0151">state: State</text><rect fill="none" height="6" style="stroke:#C82930;stroke-width:1.0;" width="6" x="300.5" y="106.6094"/><text fill="#000000" font-family="sans-serif" font-size="11" lengthAdjust="spacingAndGlyphs" textLength="233" x="312.5" y="112.8198">controllers: Map&lt;StateValue, Controller&gt;</text><line style="stroke:#A80036;stroke-width:1.5;" x1="293.5" x2="550.5" y1="119.4141" y2="119.4141"/><ellipse cx="303.5" cy="130.4141" fill="#84BE84" rx="3" ry="3" style="stroke:#038048;stroke-width:1.0;"/><text fill="#000000" font-family="sans-serif" font-size="11" lengthAdjust="spacingAndGlyphs" textLength="37" x="312.5" y="133.6245">Logic()</text><ellipse cx="303.5" cy="143.2188" fill="#84BE84" rx="3" ry="3" style="stroke:#038048;stroke-width:1.0;"/><text fill="#000000" font-family="sans-serif" font-size="11" lengthAdjust="spacingAndGlyphs" textLength="144" x="312.5" y="146.4292">getController(): Controller</text><!--MD5=[ba414607f34a8f1ff5e5377db4b3dfd8]
class usantatecla.mastermind.controllers.ResumeController--><rect codeLine="45" fill="#FEFECE" filter="url(#fv1rs22rono47)" height="73.6094" id="usantatecla.mastermind.controllers.ResumeController" style="stroke:#A80036;stroke-width:1.5;" width="209" x="32.5" y="251"/><ellipse cx="79.25" cy="267" fill="#ADD1B2" rx="11" ry="11" style="stroke:#A80036;stroke-width:1.0;"/><path d="M81.5938,262.6719 C80.6563,262.2344 80.0625,262.0938 79.1875,262.0938 C76.5625,262.0938 74.5625,264.1719 74.5625,266.8906 L74.5625,268.0156 C74.5625,270.5938 76.6719,272.4844 79.5625,272.4844 C80.7813,272.4844 81.9375,272.1875 82.6875,271.6406 C83.2656,271.2344 83.5938,270.7813 83.5938,270.3906 C83.5938,269.9375 83.2031,269.5469 82.7344,269.5469 C82.5156,269.5469 82.3125,269.625 82.125,269.8125 C81.6719,270.2969 81.6719,270.2969 81.4844,270.3906 C81.0625,270.6563 80.375,270.7813 79.6094,270.7813 C77.5625,270.7813 76.2656,269.6875 76.2656,267.9844 L76.2656,266.8906 C76.2656,265.1094 77.5156,263.7969 79.25,263.7969 C79.8281,263.7969 80.4375,263.9531 80.9063,264.2031 C81.3906,264.4844 81.5625,264.7031 81.6563,265.1094 C81.7188,265.5156 81.75,265.6406 81.8906,265.7656 C82.0313,265.9063 82.2656,266.0156 82.4844,266.0156 C82.75,266.0156 83.0156,265.875 83.1875,265.6563 C83.2969,265.5 83.3281,265.3125 83.3281,264.8906 L83.3281,263.4688 C83.3281,263.0313 83.3125,262.9063 83.2188,262.75 C83.0625,262.4844 82.7813,262.3438 82.4844,262.3438 C82.1875,262.3438 81.9844,262.4375 81.7656,262.75 L81.5938,262.6719 Z " fill="#000000"/><text fill="#000000" font-family="sans-serif" font-size="12" lengthAdjust="spacingAndGlyphs" textLength="107" x="99.75" y="271.1543">ResumeController</text><line style="stroke:#A80036;stroke-width:1.5;" x1="33.5" x2="240.5" y1="283" y2="283"/><line style="stroke:#A80036;stroke-width:1.5;" x1="33.5" x2="240.5" y1="291" y2="291"/><ellipse cx="43.5" cy="302" fill="#84BE84" rx="3" ry="3" style="stroke:#038048;stroke-width:1.0;"/><text fill="#000000" font-family="sans-serif" font-size="11" lengthAdjust="spacingAndGlyphs" textLength="183" x="52.5" y="305.2104">ResumeController(Game, State)</text><ellipse cx="43.5" cy="314.8047" fill="#84BE84" rx="3" ry="3" style="stroke:#038048;stroke-width:1.0;"/><text fill="#000000" font-family="sans-serif" font-size="11" lengthAdjust="spacingAndGlyphs" textLength="98" x="52.5" y="318.0151">resume(boolean)</text><!--MD5=[c20948aa6f904689435480ad9a30530a]
class usantatecla.mastermind.controllers.StartController--><rect codeLine="51" fill="#FEFECE" filter="url(#fv1rs22rono47)" height="73.6094" id="usantatecla.mastermind.controllers.StartController" style="stroke:#A80036;stroke-width:1.5;" width="189" x="276.5" y="251"/><ellipse cx="323.25" cy="267" fill="#ADD1B2" rx="11" ry="11" style="stroke:#A80036;stroke-width:1.0;"/><path d="M325.5938,262.6719 C324.6563,262.2344 324.0625,262.0938 323.1875,262.0938 C320.5625,262.0938 318.5625,264.1719 318.5625,266.8906 L318.5625,268.0156 C318.5625,270.5938 320.6719,272.4844 323.5625,272.4844 C324.7813,272.4844 325.9375,272.1875 326.6875,271.6406 C327.2656,271.2344 327.5938,270.7813 327.5938,270.3906 C327.5938,269.9375 327.2031,269.5469 326.7344,269.5469 C326.5156,269.5469 326.3125,269.625 326.125,269.8125 C325.6719,270.2969 325.6719,270.2969 325.4844,270.3906 C325.0625,270.6563 324.375,270.7813 323.6094,270.7813 C321.5625,270.7813 320.2656,269.6875 320.2656,267.9844 L320.2656,266.8906 C320.2656,265.1094 321.5156,263.7969 323.25,263.7969 C323.8281,263.7969 324.4375,263.9531 324.9063,264.2031 C325.3906,264.4844 325.5625,264.7031 325.6563,265.1094 C325.7188,265.5156 325.75,265.6406 325.8906,265.7656 C326.0313,265.9063 326.2656,266.0156 326.4844,266.0156 C326.75,266.0156 327.0156,265.875 327.1875,265.6563 C327.2969,265.5 327.3281,265.3125 327.3281,264.8906 L327.3281,263.4688 C327.3281,263.0313 327.3125,262.9063 327.2188,262.75 C327.0625,262.4844 326.7813,262.3438 326.4844,262.3438 C326.1875,262.3438 325.9844,262.4375 325.7656,262.75 L325.5938,262.6719 Z " fill="#000000"/><text fill="#000000" font-family="sans-serif" font-size="12" lengthAdjust="spacingAndGlyphs" textLength="87" x="343.75" y="271.1543">StartController</text><line style="stroke:#A80036;stroke-width:1.5;" x1="277.5" x2="464.5" y1="283" y2="283"/><line style="stroke:#A80036;stroke-width:1.5;" x1="277.5" x2="464.5" y1="291" y2="291"/><ellipse cx="287.5" cy="302" fill="#84BE84" rx="3" ry="3" style="stroke:#038048;stroke-width:1.0;"/><text fill="#000000" font-family="sans-serif" font-size="11" lengthAdjust="spacingAndGlyphs" textLength="163" x="296.5" y="305.2104">StartController(Game, State)</text><ellipse cx="287.5" cy="314.8047" fill="#84BE84" rx="3" ry="3" style="stroke:#038048;stroke-width:1.0;"/><text fill="#000000" font-family="sans-serif" font-size="11" lengthAdjust="spacingAndGlyphs" textLength="33" x="296.5" y="318.0151">start()</text><!--MD5=[71ea1457370bc7d349149836b00bab29]
class usantatecla.mastermind.controllers.ProposalController--><rect codeLine="33" fill="#FEFECE" filter="url(#fv1rs22rono47)" height="150.4375" id="usantatecla.mastermind.controllers.ProposalController" style="stroke:#A80036;stroke-width:1.5;" width="277" x="500.5" y="213"/><ellipse cx="579.25" cy="229" fill="#ADD1B2" rx="11" ry="11" style="stroke:#A80036;stroke-width:1.0;"/><path d="M581.5938,224.6719 C580.6563,224.2344 580.0625,224.0938 579.1875,224.0938 C576.5625,224.0938 574.5625,226.1719 574.5625,228.8906 L574.5625,230.0156 C574.5625,232.5938 576.6719,234.4844 579.5625,234.4844 C580.7813,234.4844 581.9375,234.1875 582.6875,233.6406 C583.2656,233.2344 583.5938,232.7813 583.5938,232.3906 C583.5938,231.9375 583.2031,231.5469 582.7344,231.5469 C582.5156,231.5469 582.3125,231.625 582.125,231.8125 C581.6719,232.2969 581.6719,232.2969 581.4844,232.3906 C581.0625,232.6563 580.375,232.7813 579.6094,232.7813 C577.5625,232.7813 576.2656,231.6875 576.2656,229.9844 L576.2656,228.8906 C576.2656,227.1094 577.5156,225.7969 579.25,225.7969 C579.8281,225.7969 580.4375,225.9531 580.9063,226.2031 C581.3906,226.4844 581.5625,226.7031 581.6563,227.1094 C581.7188,227.5156 581.75,227.6406 581.8906,227.7656 C582.0313,227.9063 582.2656,228.0156 582.4844,228.0156 C582.75,228.0156 583.0156,227.875 583.1875,227.6563 C583.2969,227.5 583.3281,227.3125 583.3281,226.8906 L583.3281,225.4688 C583.3281,225.0313 583.3125,224.9063 583.2188,224.75 C583.0625,224.4844 582.7813,224.3438 582.4844,224.3438 C582.1875,224.3438 581.9844,224.4375 581.7656,224.75 L581.5938,224.6719 Z " fill="#000000"/><text fill="#000000" font-family="sans-serif" font-size="12" lengthAdjust="spacingAndGlyphs" textLength="111" x="599.75" y="233.1543">ProposalController</text><line style="stroke:#A80036;stroke-width:1.5;" x1="501.5" x2="776.5" y1="245" y2="245"/><line style="stroke:#A80036;stroke-width:1.5;" x1="501.5" x2="776.5" y1="253" y2="253"/><ellipse cx="511.5" cy="264" fill="#84BE84" rx="3" ry="3" style="stroke:#038048;stroke-width:1.0;"/><text fill="#000000" font-family="sans-serif" font-size="11" lengthAdjust="spacingAndGlyphs" textLength="183" x="520.5" y="267.2104">ProposalController(Game, State)</text><ellipse cx="511.5" cy="276.8047" fill="#84BE84" rx="3" ry="3" style="stroke:#038048;stroke-width:1.0;"/><text fill="#000000" font-family="sans-serif" font-size="11" lengthAdjust="spacingAndGlyphs" textLength="251" x="520.5" y="280.0151">addProposedCombination(List&lt;Color&gt;): Error</text><ellipse cx="511.5" cy="289.6094" fill="#84BE84" rx="3" ry="3" style="stroke:#038048;stroke-width:1.0;"/><text fill="#000000" font-family="sans-serif" font-size="11" lengthAdjust="spacingAndGlyphs" textLength="110" x="520.5" y="292.8198">isWinner(): boolean</text><ellipse cx="511.5" cy="302.4141" fill="#84BE84" rx="3" ry="3" style="stroke:#038048;stroke-width:1.0;"/><text fill="#000000" font-family="sans-serif" font-size="11" lengthAdjust="spacingAndGlyphs" textLength="108" x="520.5" y="305.6245">isLooser(): boolean</text><ellipse cx="511.5" cy="315.2188" fill="#84BE84" rx="3" ry="3" style="stroke:#038048;stroke-width:1.0;"/><text fill="#000000" font-family="sans-serif" font-size="11" lengthAdjust="spacingAndGlyphs" textLength="100" x="520.5" y="318.4292">getAttempts(): int</text><ellipse cx="511.5" cy="328.0234" fill="#84BE84" rx="3" ry="3" style="stroke:#038048;stroke-width:1.0;"/><text fill="#000000" font-family="sans-serif" font-size="11" lengthAdjust="spacingAndGlyphs" textLength="149" x="520.5" y="331.2339">getColors(int): List&lt;Color&gt;</text><ellipse cx="511.5" cy="340.8281" fill="#84BE84" rx="3" ry="3" style="stroke:#038048;stroke-width:1.0;"/><text fill="#000000" font-family="sans-serif" font-size="11" lengthAdjust="spacingAndGlyphs" textLength="98" x="520.5" y="344.0386">getBlacks(int): int</text><ellipse cx="511.5" cy="353.6328" fill="#84BE84" rx="3" ry="3" style="stroke:#038048;stroke-width:1.0;"/><text fill="#000000" font-family="sans-serif" font-size="11" lengthAdjust="spacingAndGlyphs" textLength="101" x="520.5" y="356.8433">getWhites(int): int</text><!--MD5=[b6dcce5e5ef3c84b0b048d11301373dd]
class Game--><rect codeLine="1" fill="#FEFECE" filter="url(#fv1rs22rono47)" height="48" id="Game" style="stroke:#A80036;stroke-width:1.5;" width="260" x="813" y="264"/><ellipse cx="828" cy="280" fill="#ADD1B2" rx="11" ry="11" style="stroke:#A80036;stroke-width:1.0;"/><path d="M830.3438,275.6719 C829.4063,275.2344 828.8125,275.0938 827.9375,275.0938 C825.3125,275.0938 823.3125,277.1719 823.3125,279.8906 L823.3125,281.0156 C823.3125,283.5938 825.4219,285.4844 828.3125,285.4844 C829.5313,285.4844 830.6875,285.1875 831.4375,284.6406 C832.0156,284.2344 832.3438,283.7813 832.3438,283.3906 C832.3438,282.9375 831.9531,282.5469 831.4844,282.5469 C831.2656,282.5469 831.0625,282.625 830.875,282.8125 C830.4219,283.2969 830.4219,283.2969 830.2344,283.3906 C829.8125,283.6563 829.125,283.7813 828.3594,283.7813 C826.3125,283.7813 825.0156,282.6875 825.0156,280.9844 L825.0156,279.8906 C825.0156,278.1094 826.2656,276.7969 828,276.7969 C828.5781,276.7969 829.1875,276.9531 829.6563,277.2031 C830.1406,277.4844 830.3125,277.7031 830.4063,278.1094 C830.4688,278.5156 830.5,278.6406 830.6406,278.7656 C830.7813,278.9063 831.0156,279.0156 831.2344,279.0156 C831.5,279.0156 831.7656,278.875 831.9375,278.6563 C832.0469,278.5 832.0781,278.3125 832.0781,277.8906 L832.0781,276.4688 C832.0781,276.0313 832.0625,275.9063 831.9688,275.75 C831.8125,275.4844 831.5313,275.3438 831.2344,275.3438 C830.9375,275.3438 830.7344,275.4375 830.5156,275.75 L830.3438,275.6719 Z " fill="#000000"/><text fill="#000000" font-family="sans-serif" font-size="12" lengthAdjust="spacingAndGlyphs" textLength="228" x="842" y="284.1543">usantatecla.mastermind.models.Game</text><line style="stroke:#A80036;stroke-width:1.5;" x1="814" x2="1072" y1="296" y2="296"/><line style="stroke:#A80036;stroke-width:1.5;" x1="814" x2="1072" y1="304" y2="304"/><!--MD5=[60d6b92408f98aed8df94d5c6e04aa63]
class State--><rect codeLine="6" fill="#FEFECE" filter="url(#fv1rs22rono47)" height="48" id="State" style="stroke:#A80036;stroke-width:1.5;" width="256" x="1108" y="264"/><ellipse cx="1123" cy="280" fill="#ADD1B2" rx="11" ry="11" style="stroke:#A80036;stroke-width:1.0;"/><path d="M1125.3438,275.6719 C1124.4063,275.2344 1123.8125,275.0938 1122.9375,275.0938 C1120.3125,275.0938 1118.3125,277.1719 1118.3125,279.8906 L1118.3125,281.0156 C1118.3125,283.5938 1120.4219,285.4844 1123.3125,285.4844 C1124.5313,285.4844 1125.6875,285.1875 1126.4375,284.6406 C1127.0156,284.2344 1127.3438,283.7813 1127.3438,283.3906 C1127.3438,282.9375 1126.9531,282.5469 1126.4844,282.5469 C1126.2656,282.5469 1126.0625,282.625 1125.875,282.8125 C1125.4219,283.2969 1125.4219,283.2969 1125.2344,283.3906 C1124.8125,283.6563 1124.125,283.7813 1123.3594,283.7813 C1121.3125,283.7813 1120.0156,282.6875 1120.0156,280.9844 L1120.0156,279.8906 C1120.0156,278.1094 1121.2656,276.7969 1123,276.7969 C1123.5781,276.7969 1124.1875,276.9531 1124.6563,277.2031 C1125.1406,277.4844 1125.3125,277.7031 1125.4063,278.1094 C1125.4688,278.5156 1125.5,278.6406 1125.6406,278.7656 C1125.7813,278.9063 1126.0156,279.0156 1126.2344,279.0156 C1126.5,279.0156 1126.7656,278.875 1126.9375,278.6563 C1127.0469,278.5 1127.0781,278.3125 1127.0781,277.8906 L1127.0781,276.4688 C1127.0781,276.0313 1127.0625,275.9063 1126.9688,275.75 C1126.8125,275.4844 1126.5313,275.3438 1126.2344,275.3438 C1125.9375,275.3438 1125.7344,275.4375 1125.5156,275.75 L1125.3438,275.6719 Z " fill="#000000"/><text fill="#000000" font-family="sans-serif" font-size="12" lengthAdjust="spacingAndGlyphs" textLength="224" x="1137" y="284.1543">usantatecla.mastermind.models.State</text><line style="stroke:#A80036;stroke-width:1.5;" x1="1109" x2="1363" y1="296" y2="296"/><line style="stroke:#A80036;stroke-width:1.5;" x1="1109" x2="1363" y1="304" y2="304"/><!--MD5=[b1534f62db7bd0c312bb47cb18cac355]
link usantatecla.mastermind.controllers.Controller to Game--><path codeLine="17" d="M738.819,146.672 C791.9,183.153 862.474,231.657 905.223,261.037 " fill="none" id="usantatecla.mastermind.controllers.Controller-to-Game" style="stroke:#A80036;stroke-width:1.0;"/><polygon fill="#A80036" points="909.527,263.995,904.3739,255.6018,905.4058,261.1638,899.8439,262.1957,909.527,263.995" style="stroke:#A80036;stroke-width:1.0;"/><!--MD5=[e38476471b755b5fe78a9c6017ac6ee4]
link usantatecla.mastermind.controllers.Controller to State--><path codeLine="18" d="M749.101,114.805 C835.439,133.898 975.287,168.296 1091,213 C1126.03,226.535 1163.77,245.959 1191.96,261.51 " fill="none" id="usantatecla.mastermind.controllers.Controller-to-State" style="stroke:#A80036;stroke-width:1.0;"/><polygon fill="#A80036" points="1196.4,263.971,1190.4741,256.1044,1192.0289,261.5434,1186.5899,263.0982,1196.4,263.971" style="stroke:#A80036;stroke-width:1.0;"/><!--MD5=[07f4f2174253deef40735c6f426cde58]
link usantatecla.mastermind.controllers.Logic to usantatecla.mastermind.controllers.ResumeController--><path codeLine="27" d="M328.8,159.8083 C328.8,159.8083 239.764,218.851 202.656,243.46 " fill="none" id="usantatecla.mastermind.controllers.Logic-usantatecla.mastermind.controllers.ResumeController" style="stroke:#A80036;stroke-width:1.0;"/><polygon fill="#A80036" points="191.476,250.874,201.1873,249.2339,195.6431,248.1108,196.7662,242.5665,191.476,250.874" style="stroke:#A80036;stroke-width:1.0;"/><line style="stroke:#A80036;stroke-width:1.0;" x1="195.6431" x2="202.3095" y1="248.1108" y2="243.689"/><polygon fill="#A80036" points="338.8,153.175,331.5889,153.1583,328.8,159.8083,336.0111,159.825,338.8,153.175" style="stroke:#A80036;stroke-width:1.0;"/><!--MD5=[7b4d3b9373751c5d43acf45bd3655ae0]
link usantatecla.mastermind.controllers.Logic to usantatecla.mastermind.controllers.StartController--><path codeLine="28" d="M403.9855,164.7606 C403.9855,164.7606 390.106,216.196 384.179,238.158 " fill="none" id="usantatecla.mastermind.controllers.Logic-usantatecla.mastermind.controllers.StartController" style="stroke:#A80036;stroke-width:1.0;"/><polygon fill="#A80036" points="380.748,250.874,386.9539,243.2263,382.0502,246.0465,379.23,241.1428,380.748,250.874" style="stroke:#A80036;stroke-width:1.0;"/><line style="stroke:#A80036;stroke-width:1.0;" x1="382.0502" x2="384.135" y1="246.0465" y2="238.323"/><polygon fill="#A80036" points="407.112,153.175,401.6869,157.9256,403.9855,164.7606,409.4106,160.0099,407.112,153.175" style="stroke:#A80036;stroke-width:1.0;"/><!--MD5=[088f8298878c55cb33bba93d6bb32650]
link usantatecla.mastermind.controllers.Logic to usantatecla.mastermind.controllers.ProposalController--><path codeLine="29" d="M494.3977,161.0567 C494.3977,161.0567 527.503,189.89 543.74,204.032 " fill="none" id="usantatecla.mastermind.controllers.Logic-usantatecla.mastermind.controllers.ProposalController" style="stroke:#A80036;stroke-width:1.0;"/><polygon fill="#A80036" points="553.785,212.78,549.6257,203.8525,550.0147,209.496,544.3712,209.885,553.785,212.78" style="stroke:#A80036;stroke-width:1.0;"/><line style="stroke:#A80036;stroke-width:1.0;" x1="550.0147" x2="543.9815" y1="209.496" y2="204.242"/><polygon fill="#A80036" points="485.349,153.175,487.2461,160.1321,494.3977,161.0567,492.5006,154.0996,485.349,153.175" style="stroke:#A80036;stroke-width:1.0;"/><!--MD5=[0ff8f89650a05932e406ed8572c4f29f]
link usantatecla.mastermind.controllers.Logic to Game--><path codeLine="30" d="M563.0937,150.7651 C563.0937,150.7651 568.029,152.371 570,153 C668.191,184.319 697.59,176.564 794,213 C827.097,225.508 862.636,242.99 890.703,257.821 " fill="none" id="usantatecla.mastermind.controllers.Logic-Game" style="stroke:#A80036;stroke-width:1.0;"/><polygon fill="#A80036" points="902.245,263.993,896.1949,256.2215,897.8359,261.6351,892.4223,263.2761,902.245,263.993" style="stroke:#A80036;stroke-width:1.0;"/><line style="stroke:#A80036;stroke-width:1.0;" x1="897.8359" x2="890.7805" y1="261.6351" y2="257.863"/><polygon fill="#A80036" points="551.704,146.987,556.1395,152.6726,563.0937,150.7651,558.6582,145.0795,551.704,146.987" style="stroke:#A80036;stroke-width:1.0;"/><!--MD5=[f1f29f0dfa0e00be085894473cdc58fa]
link usantatecla.mastermind.controllers.Logic to State--><path codeLine="31" d="M563.3866,151.3422 C563.3866,151.3422 568.126,152.551 570,153 C796.667,207.325 867.866,145.618 1091,213 C1125.21,223.33 1161,241.508 1188.46,257.261 " fill="none" id="usantatecla.mastermind.controllers.Logic-State" style="stroke:#A80036;stroke-width:1.0;"/><polygon fill="#A80036" points="1199.69,263.834,1193.9455,255.8339,1195.3755,261.3071,1189.9024,262.7371,1199.69,263.834" style="stroke:#A80036;stroke-width:1.0;"/><line style="stroke:#A80036;stroke-width:1.0;" x1="1195.3755" x2="1188.47" y1="261.3071" y2="257.267"/><polygon fill="#A80036" points="551.802,148.212,556.5509,153.6386,563.3866,151.3422,558.6377,145.9156,551.802,148.212" style="stroke:#A80036;stroke-width:1.0;"/><!--MD5=[355b9902740da4b2ec85e8089918fd93]
reverse link usantatecla.mastermind.controllers.Controller to usantatecla.mastermind.controllers.ProposalController--><path codeLine="43" d="M657.497,166.451 C655.187,181.508 652.729,197.522 650.386,212.794 " fill="none" id="usantatecla.mastermind.controllers.Controller-backto-usantatecla.mastermind.controllers.ProposalController" style="stroke:#A80036;stroke-width:1.0;"/><polygon fill="none" points="650.579,165.379,660.532,146.672,664.417,167.503,650.579,165.379" style="stroke:#A80036;stroke-width:1.0;"/><!--MD5=[933c3a87fb1e2f64e4c2436935a9c1c3]
reverse link usantatecla.mastermind.controllers.Controller to usantatecla.mastermind.controllers.ResumeController--><path codeLine="49" d="M567.675,152.457 C432.822,197.794 384.175,164.707 259,213 C234.155,222.585 208.663,237.169 187.448,250.863 " fill="none" id="usantatecla.mastermind.controllers.Controller-backto-usantatecla.mastermind.controllers.ResumeController" style="stroke:#A80036;stroke-width:1.0;"/><polygon fill="none" points="565.644,145.751,586.833,145.693,570.305,158.952,565.644,145.751" style="stroke:#A80036;stroke-width:1.0;"/><!--MD5=[c885998b8df824bd1b8bf3ae6c5e9a62]
reverse link usantatecla.mastermind.controllers.Controller to usantatecla.mastermind.controllers.StartController--><path codeLine="55" d="M571.127,157.518 C542.635,175.212 511.475,194.747 483,213 C463.968,225.199 443.279,238.778 424.921,250.939 " fill="none" id="usantatecla.mastermind.controllers.Controller-backto-usantatecla.mastermind.controllers.StartController" style="stroke:#A80036;stroke-width:1.0;"/><polygon fill="none" points="567.787,151.352,588.475,146.767,575.162,163.252,567.787,151.352" style="stroke:#A80036;stroke-width:1.0;"/><!--MD5=[8bc92f9dc4016b2cc949c56f5bb30fd1]
@startuml
class Game as "usantatecla.mastermind.models.Game" {


}

class State as "usantatecla.mastermind.models.State" {


}

abstract class  usantatecla.mastermind.controllers.Controller{
# game: Game
# state: State
~ Controller(Game, State)
+ getWidth(): int
}
usantatecla.mastermind.controllers.Controller -down-> Game
usantatecla.mastermind.controllers.Controller -down-> State

class  usantatecla.mastermind.controllers.Logic{
- game: Game
- state: State
- controllers: Map<StateValue, Controller>
+ Logic()
+ getController(): Controller
}
usantatecla.mastermind.controllers.Logic *-down-> usantatecla.mastermind.controllers.ResumeController
usantatecla.mastermind.controllers.Logic *-down-> usantatecla.mastermind.controllers.StartController
usantatecla.mastermind.controllers.Logic *-down-> usantatecla.mastermind.controllers.ProposalController
usantatecla.mastermind.controllers.Logic *-down-> Game
usantatecla.mastermind.controllers.Logic *-down-> State

class  usantatecla.mastermind.controllers.ProposalController{
+ ProposalController(Game, State)
+ addProposedCombination(List<Color>): Error
+ isWinner(): boolean
+ isLooser(): boolean
+ getAttempts(): int
+ getColors(int): List<Color>
+ getBlacks(int): int
+ getWhites(int): int
}
usantatecla.mastermind.controllers.Controller <|-down- usantatecla.mastermind.controllers.ProposalController

class  usantatecla.mastermind.controllers.ResumeController{
+ ResumeController(Game, State)
+ resume(boolean)
}
usantatecla.mastermind.controllers.Controller <|-down- usantatecla.mastermind.controllers.ResumeController

class  usantatecla.mastermind.controllers.StartController{
+ StartController(Game, State)
+ start()
}
usantatecla.mastermind.controllers.Controller <|-down- usantatecla.mastermind.controllers.StartController
@enduml

PlantUML version 1.2020.22beta2(Unknown compile time)
(GPL source distribution)
Java Runtime: Java(TM) SE Runtime Environment
JVM: Java HotSpot(TM) 64-Bit Server VM
Default Encoding: UTF-8
Language: en
Country: US
--></g></svg>