<?xml version="1.0" encoding="UTF-8" standalone="no"?><svg xmlns="http://www.w3.org/2000/svg" xmlns:xlink="http://www.w3.org/1999/xlink" contentScriptType="application/ecmascript" contentStyleType="text/css" height="451px" preserveAspectRatio="none" style="width:894px;height:451px;" version="1.1" viewBox="0 0 894 451" width="894px" zoomAndPan="magnify"><defs><filter height="300%" id="fxbnzpgttztbd" width="300%" x="-1" y="-1"><feGaussianBlur result="blurOut" stdDeviation="2.0"/><feColorMatrix in="blurOut" result="blurOut2" type="matrix" values="0 0 0 0 0 0 0 0 0 0 0 0 0 0 0 0 0 0 .4 0"/><feOffset dx="4.0" dy="4.0" in="blurOut2" result="blurOut3"/><feBlend in="SourceGraphic" in2="blurOut3" mode="normal"/></filter></defs><g><!--MD5=[29d5d00c8f272934fcfbf235a28c504f]
cluster usantatecla.mastermind.views--><polygon fill="#FFFFFF" filter="url(#fxbnzpgttztbd)" points="16,6,273,6,280,28.2969,587,28.2969,587,444,16,444,16,6" style="stroke:#000000;stroke-width:1.5;"/><line style="stroke:#000000;stroke-width:1.5;" x1="16" x2="280" y1="28.2969" y2="28.2969"/><text fill="#000000" font-family="sans-serif" font-size="14" font-weight="bold" lengthAdjust="spacingAndGlyphs" textLength="251" x="20" y="20.9951">usantatecla.mastermind.views</text><!--MD5=[dab5b8162ddba5d4d249ad537ad64188]
class usantatecla.mastermind.views.ColorView--><rect codeLine="1" fill="#FEFECE" filter="url(#fxbnzpgttztbd)" height="137.6328" id="usantatecla.mastermind.views.ColorView" style="stroke:#A80036;stroke-width:1.5;" width="205" x="32.5" y="41"/><ellipse cx="101.75" cy="57" fill="#A9DCDF" rx="11" ry="11" style="stroke:#A80036;stroke-width:1.0;"/><path d="M103.8281,58.8125 L104.2188,59.7969 L103.8281,59.7969 C103.375,59.7969 103.2656,59.8125 103.1094,59.9219 C102.8594,60.0781 102.7031,60.3594 102.7031,60.6563 C102.7031,60.9219 102.8438,61.1719 103.0625,61.3281 C103.2031,61.4531 103.4063,61.5 103.8281,61.5 L106.1875,61.5 C106.5469,61.5 106.7656,61.4688 106.9063,61.375 C107.1563,61.2344 107.3125,60.9375 107.3125,60.6563 C107.3125,60.375 107.1719,60.125 106.9531,59.9688 C106.7813,59.8281 106.625,59.7969 106.1563,59.7969 L102.7656,51.5938 L99.0938,51.5938 C98.6406,51.5938 98.5156,51.6094 98.3594,51.7031 C98.1094,51.875 97.9531,52.1563 97.9531,52.4375 C97.9531,52.7188 98.0938,52.9688 98.3125,53.1406 C98.4844,53.25 98.6563,53.2813 99.0938,53.2813 L100.1719,53.2813 L97.5313,59.7969 C97.1094,59.7969 96.9531,59.8125 96.7969,59.9219 C96.5469,60.0781 96.3906,60.3594 96.3906,60.6563 C96.3906,61.2188 96.7656,61.5 97.5156,61.5 L99.7813,61.5 C100.1406,61.5 100.3594,61.4688 100.4844,61.375 C100.75,61.2344 100.8906,60.9375 100.8906,60.6563 C100.8906,60.375 100.7656,60.125 100.5469,59.9531 C100.375,59.8281 100.2344,59.7969 99.7813,59.7969 L99.3906,59.7969 L99.7813,58.8125 L103.8281,58.8125 Z M103.125,57.1094 L100.4531,57.1094 L101.7969,53.8438 L103.125,57.1094 Z " fill="#000000"/><text fill="#000000" font-family="sans-serif" font-size="12" font-style="italic" lengthAdjust="spacingAndGlyphs" textLength="58" x="122.25" y="61.1543">ColorView</text><line style="stroke:#A80036;stroke-width:1.5;" x1="33.5" x2="236.5" y1="73" y2="73"/><ellipse cx="43.5" cy="84" fill="none" rx="3" ry="3" style="stroke:#038048;stroke-width:1.0;"/><text fill="#000000" font-family="sans-serif" font-size="11" lengthAdjust="spacingAndGlyphs" text-decoration="underline" textLength="85" x="52.5" y="87.2104">INITIALS: char[]</text><polygon fill="none" points="43.5,91.8047,47.5,95.8047,43.5,99.8047,39.5,95.8047" style="stroke:#B38D22;stroke-width:1.0;"/><text fill="#000000" font-family="sans-serif" font-size="11" lengthAdjust="spacingAndGlyphs" textLength="63" x="52.5" y="100.0151">color: Color</text><line style="stroke:#A80036;stroke-width:1.5;" x1="33.5" x2="236.5" y1="106.6094" y2="106.6094"/><polygon fill="#FFFF44" points="43.5,112.6094,47.5,116.6094,43.5,120.6094,39.5,116.6094" style="stroke:#B38D22;stroke-width:1.0;"/><text fill="#000000" font-family="sans-serif" font-size="11" lengthAdjust="spacingAndGlyphs" textLength="65" x="52.5" y="120.8198">ColorView()</text><polygon fill="#FFFF44" points="43.5,125.4141,47.5,129.4141,43.5,133.4141,39.5,129.4141" style="stroke:#B38D22;stroke-width:1.0;"/><text fill="#000000" font-family="sans-serif" font-size="11" lengthAdjust="spacingAndGlyphs" textLength="94" x="52.5" y="133.6245">ColorView(Color)</text><ellipse cx="43.5" cy="143.2188" fill="#84BE84" rx="3" ry="3" style="stroke:#038048;stroke-width:1.0;"/><text fill="#000000" font-family="sans-serif" font-size="11" lengthAdjust="spacingAndGlyphs" text-decoration="underline" textLength="135" x="52.5" y="146.4292">getInstance(char): Color</text><ellipse cx="43.5" cy="156.0234" fill="#84BE84" rx="3" ry="3" style="stroke:#038048;stroke-width:1.0;"/><text fill="#000000" font-family="sans-serif" font-size="11" lengthAdjust="spacingAndGlyphs" textLength="97" x="52.5" y="159.2339">allInitials(): String</text><polygon fill="#FFFF44" points="43.5,163.8281,47.5,167.8281,43.5,171.8281,39.5,167.8281" style="stroke:#B38D22;stroke-width:1.0;"/><text fill="#000000" font-family="sans-serif" font-size="11" lengthAdjust="spacingAndGlyphs" textLength="179" x="52.5" y="172.0386">abstract resultInitials(int): String</text><!--MD5=[bd953d99961dd365a3924fc1e98cf727]
class usantatecla.mastermind.views.ErrorView--><rect codeLine="11" fill="#FEFECE" filter="url(#fxbnzpgttztbd)" height="112.0234" id="usantatecla.mastermind.views.ErrorView" style="stroke:#A80036;stroke-width:1.5;" width="186" x="385" y="54"/><ellipse cx="444.75" cy="70" fill="#A9DCDF" rx="11" ry="11" style="stroke:#A80036;stroke-width:1.0;"/><path d="M446.8281,71.8125 L447.2188,72.7969 L446.8281,72.7969 C446.375,72.7969 446.2656,72.8125 446.1094,72.9219 C445.8594,73.0781 445.7031,73.3594 445.7031,73.6563 C445.7031,73.9219 445.8438,74.1719 446.0625,74.3281 C446.2031,74.4531 446.4063,74.5 446.8281,74.5 L449.1875,74.5 C449.5469,74.5 449.7656,74.4688 449.9063,74.375 C450.1563,74.2344 450.3125,73.9375 450.3125,73.6563 C450.3125,73.375 450.1719,73.125 449.9531,72.9688 C449.7813,72.8281 449.625,72.7969 449.1563,72.7969 L445.7656,64.5938 L442.0938,64.5938 C441.6406,64.5938 441.5156,64.6094 441.3594,64.7031 C441.1094,64.875 440.9531,65.1563 440.9531,65.4375 C440.9531,65.7188 441.0938,65.9688 441.3125,66.1406 C441.4844,66.25 441.6563,66.2813 442.0938,66.2813 L443.1719,66.2813 L440.5313,72.7969 C440.1094,72.7969 439.9531,72.8125 439.7969,72.9219 C439.5469,73.0781 439.3906,73.3594 439.3906,73.6563 C439.3906,74.2188 439.7656,74.5 440.5156,74.5 L442.7813,74.5 C443.1406,74.5 443.3594,74.4688 443.4844,74.375 C443.75,74.2344 443.8906,73.9375 443.8906,73.6563 C443.8906,73.375 443.7656,73.125 443.5469,72.9531 C443.375,72.8281 443.2344,72.7969 442.7813,72.7969 L442.3906,72.7969 L442.7813,71.8125 L446.8281,71.8125 Z M446.125,70.1094 L443.4531,70.1094 L444.7969,66.8438 L446.125,70.1094 Z " fill="#000000"/><text fill="#000000" font-family="sans-serif" font-size="12" font-style="italic" lengthAdjust="spacingAndGlyphs" textLength="58" x="465.25" y="74.1543">ErrorView</text><line style="stroke:#A80036;stroke-width:1.5;" x1="386" x2="570" y1="86" y2="86"/><ellipse cx="396" cy="97" fill="none" rx="3" ry="3" style="stroke:#038048;stroke-width:1.0;"/><text fill="#000000" font-family="sans-serif" font-size="11" lengthAdjust="spacingAndGlyphs" textLength="112" x="405" y="100.2104">MESSAGES: String[]</text><polygon fill="none" points="396,104.8047,400,108.8047,396,112.8047,392,108.8047" style="stroke:#B38D22;stroke-width:1.0;"/><text fill="#000000" font-family="sans-serif" font-size="11" lengthAdjust="spacingAndGlyphs" textLength="60" x="405" y="113.0151">error: Error</text><line style="stroke:#A80036;stroke-width:1.5;" x1="386" x2="570" y1="119.6094" y2="119.6094"/><polygon fill="#FFFF44" points="396,125.6094,400,129.6094,396,133.6094,392,129.6094" style="stroke:#B38D22;stroke-width:1.0;"/><text fill="#000000" font-family="sans-serif" font-size="11" lengthAdjust="spacingAndGlyphs" textLength="62" x="405" y="133.8198">ErrorView()</text><ellipse cx="396" cy="143.4141" fill="#84BE84" rx="3" ry="3" style="stroke:#038048;stroke-width:1.0;"/><text fill="#000000" font-family="sans-serif" font-size="11" lengthAdjust="spacingAndGlyphs" textLength="88" x="405" y="146.6245">ErrorView(Error)</text><polygon fill="#FFFF44" points="396,151.2188,400,155.2188,396,159.2188,392,155.2188" style="stroke:#B38D22;stroke-width:1.0;"/><text fill="#000000" font-family="sans-serif" font-size="11" lengthAdjust="spacingAndGlyphs" textLength="160" x="405" y="159.4292">abstract colorInitials(): String</text><!--MD5=[694a802c67fd6ffa81f3d338cafa51c2]
class usantatecla.mastermind.views.Message--><rect codeLine="19" fill="#FEFECE" filter="url(#fxbnzpgttztbd)" height="188.8516" id="usantatecla.mastermind.views.Message" style="stroke:#A80036;stroke-width:1.5;" width="173" x="48.5" y="239"/><ellipse cx="103.25" cy="255" fill="#EB937F" rx="11" ry="11" style="stroke:#A80036;stroke-width:1.0;"/><path d="M102.0469,255.875 L103.5,255.875 L103.5,255.9844 C103.5,256.3906 103.5313,256.5469 103.6094,256.7031 C103.7656,256.9531 104.0469,257.1094 104.3438,257.1094 C104.5938,257.1094 104.8594,256.9688 105.0156,256.75 C105.1406,256.5938 105.1719,256.4375 105.1719,255.9844 L105.1719,254.0625 C105.1719,253.9063 105.1719,253.8594 105.1563,253.7031 C105.0938,253.2344 104.7813,252.9219 104.3281,252.9219 C104.0781,252.9219 103.8125,253.0625 103.6406,253.2813 C103.5313,253.4531 103.5,253.6094 103.5,254.0625 L103.5,254.1875 L102.0469,254.1875 L102.0469,251.7813 L106.0313,251.7813 L106.0313,252.6406 C106.0313,253.0469 106.0625,253.2188 106.1406,253.375 C106.3125,253.625 106.5938,253.7813 106.875,253.7813 C107.1406,253.7813 107.4063,253.6406 107.5781,253.4219 C107.6875,253.25 107.7188,253.1094 107.7188,252.6406 L107.7188,250.0938 L100.0938,250.0938 C99.6563,250.0938 99.5313,250.1094 99.375,250.2031 C99.125,250.3594 98.9688,250.6563 98.9688,250.9375 C98.9688,251.2188 99.1094,251.4688 99.3281,251.6406 C99.4844,251.75 99.6719,251.7813 100.0938,251.7813 L100.3438,251.7813 L100.3438,258.2969 L100.0938,258.2969 C99.6875,258.2969 99.5313,258.3125 99.375,258.4219 C99.125,258.5938 98.9688,258.8594 98.9688,259.1563 C98.9688,259.4219 99.1094,259.6719 99.3281,259.8281 C99.4688,259.9531 99.7031,260 100.0938,260 L108.0938,260 L108.0938,257.4219 C108.0938,256.9844 108.0625,256.8438 107.9844,256.6875 C107.8125,256.4375 107.5313,256.2813 107.25,256.2813 C106.9844,256.2813 106.7188,256.3906 106.5469,256.6406 C106.4375,256.7969 106.4063,256.9375 106.4063,257.4219 L106.4063,258.2969 L102.0469,258.2969 L102.0469,255.875 Z " fill="#000000"/><text fill="#000000" font-family="sans-serif" font-size="12" lengthAdjust="spacingAndGlyphs" textLength="55" x="123.75" y="259.1543">Message</text><line style="stroke:#A80036;stroke-width:1.5;" x1="49.5" x2="220.5" y1="271" y2="271"/><ellipse cx="59.5" cy="282" fill="none" rx="3" ry="3" style="stroke:#038048;stroke-width:1.0;"/><text fill="#000000" font-family="sans-serif" font-size="11" lengthAdjust="spacingAndGlyphs" textLength="59" x="68.5" y="285.2104">ATTEMPTS</text><ellipse cx="59.5" cy="294.8047" fill="none" rx="3" ry="3" style="stroke:#038048;stroke-width:1.0;"/><text fill="#000000" font-family="sans-serif" font-size="11" lengthAdjust="spacingAndGlyphs" textLength="44" x="68.5" y="298.0151">SECRET</text><ellipse cx="59.5" cy="307.6094" fill="none" rx="3" ry="3" style="stroke:#038048;stroke-width:1.0;"/><text fill="#000000" font-family="sans-serif" font-size="11" lengthAdjust="spacingAndGlyphs" textLength="46" x="68.5" y="310.8198">RESUME</text><ellipse cx="59.5" cy="320.4141" fill="none" rx="3" ry="3" style="stroke:#038048;stroke-width:1.0;"/><text fill="#000000" font-family="sans-serif" font-size="11" lengthAdjust="spacingAndGlyphs" textLength="43" x="68.5" y="323.6245">RESULT</text><ellipse cx="59.5" cy="333.2188" fill="none" rx="3" ry="3" style="stroke:#038048;stroke-width:1.0;"/><text fill="#000000" font-family="sans-serif" font-size="11" lengthAdjust="spacingAndGlyphs" textLength="147" x="68.5" y="336.4292">PROPOSED_COMBINATION</text><ellipse cx="59.5" cy="346.0234" fill="none" rx="3" ry="3" style="stroke:#038048;stroke-width:1.0;"/><text fill="#000000" font-family="sans-serif" font-size="11" lengthAdjust="spacingAndGlyphs" textLength="30" x="68.5" y="349.2339">TITLE</text><ellipse cx="59.5" cy="358.8281" fill="none" rx="3" ry="3" style="stroke:#038048;stroke-width:1.0;"/><text fill="#000000" font-family="sans-serif" font-size="11" lengthAdjust="spacingAndGlyphs" textLength="44" x="68.5" y="362.0386">WINNER</text><ellipse cx="59.5" cy="371.6328" fill="none" rx="3" ry="3" style="stroke:#038048;stroke-width:1.0;"/><text fill="#000000" font-family="sans-serif" font-size="11" lengthAdjust="spacingAndGlyphs" textLength="46" x="68.5" y="374.8433">LOOSER</text><rect fill="none" height="6" style="stroke:#C82930;stroke-width:1.0;" width="6" x="56.5" y="381.4375"/><text fill="#000000" font-family="sans-serif" font-size="11" lengthAdjust="spacingAndGlyphs" textLength="93" x="68.5" y="387.6479">message: String</text><line style="stroke:#A80036;stroke-width:1.5;" x1="49.5" x2="220.5" y1="394.2422" y2="394.2422"/><polygon fill="#4177AF" points="59.5,401.2422,55.5,407.2422,63.5,407.2422" style="stroke:#1963A0;stroke-width:1.0;"/><text fill="#000000" font-family="sans-serif" font-size="11" lengthAdjust="spacingAndGlyphs" textLength="120" x="68.5" y="408.4526">MessageView(String)</text><ellipse cx="59.5" cy="418.0469" fill="#84BE84" rx="3" ry="3" style="stroke:#038048;stroke-width:1.0;"/><text fill="#000000" font-family="sans-serif" font-size="11" lengthAdjust="spacingAndGlyphs" textLength="118" x="68.5" y="421.2573">getMessage(): String</text><!--MD5=[f5534db0476bcf0d5af6a596dc954aba]
class usantatecla.mastermind.views.View--><rect codeLine="33" fill="#FEFECE" filter="url(#fxbnzpgttztbd)" height="60.8047" id="usantatecla.mastermind.views.View" style="stroke:#A80036;stroke-width:1.5;" width="77" x="272.5" y="79.5"/><ellipse cx="295.15" cy="95.5" fill="#A9DCDF" rx="11" ry="11" style="stroke:#A80036;stroke-width:1.0;"/><path d="M297.2281,97.3125 L297.6188,98.2969 L297.2281,98.2969 C296.775,98.2969 296.6656,98.3125 296.5094,98.4219 C296.2594,98.5781 296.1031,98.8594 296.1031,99.1563 C296.1031,99.4219 296.2438,99.6719 296.4625,99.8281 C296.6031,99.9531 296.8063,100 297.2281,100 L299.5875,100 C299.9469,100 300.1656,99.9688 300.3063,99.875 C300.5563,99.7344 300.7125,99.4375 300.7125,99.1563 C300.7125,98.875 300.5719,98.625 300.3531,98.4688 C300.1813,98.3281 300.025,98.2969 299.5563,98.2969 L296.1656,90.0938 L292.4938,90.0938 C292.0406,90.0938 291.9156,90.1094 291.7594,90.2031 C291.5094,90.375 291.3531,90.6563 291.3531,90.9375 C291.3531,91.2188 291.4938,91.4688 291.7125,91.6406 C291.8844,91.75 292.0563,91.7813 292.4938,91.7813 L293.5719,91.7813 L290.9313,98.2969 C290.5094,98.2969 290.3531,98.3125 290.1969,98.4219 C289.9469,98.5781 289.7906,98.8594 289.7906,99.1563 C289.7906,99.7188 290.1656,100 290.9156,100 L293.1813,100 C293.5406,100 293.7594,99.9688 293.8844,99.875 C294.15,99.7344 294.2906,99.4375 294.2906,99.1563 C294.2906,98.875 294.1656,98.625 293.9469,98.4531 C293.775,98.3281 293.6344,98.2969 293.1813,98.2969 L292.7906,98.2969 L293.1813,97.3125 L297.2281,97.3125 Z M296.525,95.6094 L293.8531,95.6094 L295.1969,92.3438 L296.525,95.6094 Z " fill="#000000"/><text fill="#000000" font-family="sans-serif" font-size="12" font-style="italic" lengthAdjust="spacingAndGlyphs" textLength="28" x="310.85" y="99.6543">View</text><line style="stroke:#A80036;stroke-width:1.5;" x1="273.5" x2="348.5" y1="111.5" y2="111.5"/><line style="stroke:#A80036;stroke-width:1.5;" x1="273.5" x2="348.5" y1="119.5" y2="119.5"/><ellipse cx="283.5" cy="130.5" fill="#84BE84" rx="3" ry="3" style="stroke:#038048;stroke-width:1.0;"/><text fill="#000000" font-family="sans-serif" font-size="11" font-style="italic" lengthAdjust="spacingAndGlyphs" textLength="51" x="292.5" y="133.7104">interact()</text><!--MD5=[42fa18dda7351a0ae87d9497de925436]
class Logic--><rect codeLine="36" fill="#FEFECE" filter="url(#fxbnzpgttztbd)" height="48" id="Logic" style="stroke:#A80036;stroke-width:1.5;" width="277" x="603.5" y="309.5"/><ellipse cx="618.5" cy="325.5" fill="#ADD1B2" rx="11" ry="11" style="stroke:#A80036;stroke-width:1.0;"/><path d="M620.8438,321.1719 C619.9063,320.7344 619.3125,320.5938 618.4375,320.5938 C615.8125,320.5938 613.8125,322.6719 613.8125,325.3906 L613.8125,326.5156 C613.8125,329.0938 615.9219,330.9844 618.8125,330.9844 C620.0313,330.9844 621.1875,330.6875 621.9375,330.1406 C622.5156,329.7344 622.8438,329.2813 622.8438,328.8906 C622.8438,328.4375 622.4531,328.0469 621.9844,328.0469 C621.7656,328.0469 621.5625,328.125 621.375,328.3125 C620.9219,328.7969 620.9219,328.7969 620.7344,328.8906 C620.3125,329.1563 619.625,329.2813 618.8594,329.2813 C616.8125,329.2813 615.5156,328.1875 615.5156,326.4844 L615.5156,325.3906 C615.5156,323.6094 616.7656,322.2969 618.5,322.2969 C619.0781,322.2969 619.6875,322.4531 620.1563,322.7031 C620.6406,322.9844 620.8125,323.2031 620.9063,323.6094 C620.9688,324.0156 621,324.1406 621.1406,324.2656 C621.2813,324.4063 621.5156,324.5156 621.7344,324.5156 C622,324.5156 622.2656,324.375 622.4375,324.1563 C622.5469,324 622.5781,323.8125 622.5781,323.3906 L622.5781,321.9688 C622.5781,321.5313 622.5625,321.4063 622.4688,321.25 C622.3125,320.9844 622.0313,320.8438 621.7344,320.8438 C621.4375,320.8438 621.2344,320.9375 621.0156,321.25 L620.8438,321.1719 Z " fill="#000000"/><text fill="#000000" font-family="sans-serif" font-size="12" lengthAdjust="spacingAndGlyphs" textLength="245" x="632.5" y="329.6543">usantatecla.mastermind.controllers.Logic</text><line style="stroke:#A80036;stroke-width:1.5;" x1="604.5" x2="879.5" y1="341.5" y2="341.5"/><line style="stroke:#A80036;stroke-width:1.5;" x1="604.5" x2="879.5" y1="349.5" y2="349.5"/><!--MD5=[dafc96a311a54f3c1c7cf36edc43186c]
link usantatecla.mastermind.views.View to Logic--><path codeLine="40" d="M337.119,150.2345 C337.119,150.2345 356.622,171.702 368,179 C452.949,233.485 494.248,199.226 587,239 C626.825,256.078 668.716,281.884 698.893,302.061 " fill="none" id="usantatecla.mastermind.views.View-Logic" style="stroke:#A80036;stroke-width:1.0;"/><polygon fill="#A80036" points="709.857,309.489,704.6494,301.1295,705.7175,306.6846,700.1624,307.7528,709.857,309.489" style="stroke:#A80036;stroke-width:1.0;"/><line style="stroke:#A80036;stroke-width:1.0;" x1="705.7175" x2="699.094" y1="306.6846" y2="302.197"/><polygon fill="#A80036" points="329.747,140.766,330.2768,147.9576,337.119,150.2345,336.5892,143.0429,329.747,140.766" style="stroke:#A80036;stroke-width:1.0;"/><!--MD5=[6cfd926ea0bbae4f43d9156786ae7a21]
link usantatecla.mastermind.views.ColorView to usantatecla.mastermind.views.ErrorView--><!--MD5=[7c82a1bc9adf46a0fe55a6309a3f2075]
link usantatecla.mastermind.views.ColorView to usantatecla.mastermind.views.Message--><!--MD5=[07e8fd46240c6006a1254dbee1c6ea00]
@startuml
abstract class  usantatecla.mastermind.views.ColorView{
+ {static} INITIALS: char[]
# color: Color
# ColorView()
# ColorView(Color)
+ {static} getInstance(char): Color
+ allInitials(): String
# abstract resultInitials(int): String
}

abstract class  usantatecla.mastermind.views.ErrorView{
+ MESSAGES: String[]
# error: Error
# ErrorView()
+ ErrorView(Error)
# abstract colorInitials(): String
}

 enum  usantatecla.mastermind.views.Message{
+ ATTEMPTS
+ SECRET
+ RESUME
+ RESULT
+ PROPOSED_COMBINATION
+ TITLE
+ WINNER
+ LOOSER
- message: String
~ MessageView(String)
+ getMessage(): String
}

abstract class  usantatecla.mastermind.views.View{
+ {abstract} interact()
}
class Logic as "usantatecla.mastermind.controllers.Logic" {


}
usantatecla.mastermind.views.View *-down-> Logic
@enduml

PlantUML version 1.2020.22beta2(Unknown compile time)
(GPL source distribution)
Java Runtime: Java(TM) SE Runtime Environment
JVM: Java HotSpot(TM) 64-Bit Server VM
Default Encoding: UTF-8
Language: en
Country: US
--></g></svg>