<?xml version="1.0" encoding="UTF-8" standalone="no"?><svg xmlns="http://www.w3.org/2000/svg" xmlns:xlink="http://www.w3.org/1999/xlink" contentScriptType="application/ecmascript" contentStyleType="text/css" height="426px" preserveAspectRatio="none" style="width:981px;height:426px;" version="1.1" viewBox="0 0 981 426" width="981px" zoomAndPan="magnify"><defs><filter height="300%" id="f1pksd6kkozrga" width="300%" x="-1" y="-1"><feGaussianBlur result="blurOut" stdDeviation="2.0"/><feColorMatrix in="blurOut" result="blurOut2" type="matrix" values="0 0 0 0 0 0 0 0 0 0 0 0 0 0 0 0 0 0 .4 0"/><feOffset dx="4.0" dy="4.0" in="blurOut2" result="blurOut3"/><feBlend in="SourceGraphic" in2="blurOut3" mode="normal"/></filter></defs><g><!--MD5=[29d5d00c8f272934fcfbf235a28c504f]
cluster usantatecla.mastermind.views--><polygon fill="#FFFFFF" filter="url(#f1pksd6kkozrga)" points="130,80,387,80,394,102.2969,964,102.2969,964,320,130,320,130,80" style="stroke:#000000;stroke-width:1.5;"/><line style="stroke:#000000;stroke-width:1.5;" x1="130" x2="394" y1="102.2969" y2="102.2969"/><text fill="#000000" font-family="sans-serif" font-size="14" font-weight="bold" lengthAdjust="spacingAndGlyphs" textLength="251" x="134" y="94.9951">usantatecla.mastermind.views</text><!--MD5=[dab5b8162ddba5d4d249ad537ad64188]
class usantatecla.mastermind.views.ColorView--><rect codeLine="1" fill="#FEFECE" filter="url(#f1pksd6kkozrga)" height="137.6328" id="usantatecla.mastermind.views.ColorView" style="stroke:#A80036;stroke-width:1.5;" width="205" x="724.5" y="140.5"/><ellipse cx="793.75" cy="156.5" fill="#A9DCDF" rx="11" ry="11" style="stroke:#A80036;stroke-width:1.0;"/><path d="M795.8281,158.3125 L796.2188,159.2969 L795.8281,159.2969 C795.375,159.2969 795.2656,159.3125 795.1094,159.4219 C794.8594,159.5781 794.7031,159.8594 794.7031,160.1563 C794.7031,160.4219 794.8438,160.6719 795.0625,160.8281 C795.2031,160.9531 795.4063,161 795.8281,161 L798.1875,161 C798.5469,161 798.7656,160.9688 798.9063,160.875 C799.1563,160.7344 799.3125,160.4375 799.3125,160.1563 C799.3125,159.875 799.1719,159.625 798.9531,159.4688 C798.7813,159.3281 798.625,159.2969 798.1563,159.2969 L794.7656,151.0938 L791.0938,151.0938 C790.6406,151.0938 790.5156,151.1094 790.3594,151.2031 C790.1094,151.375 789.9531,151.6563 789.9531,151.9375 C789.9531,152.2188 790.0938,152.4688 790.3125,152.6406 C790.4844,152.75 790.6563,152.7813 791.0938,152.7813 L792.1719,152.7813 L789.5313,159.2969 C789.1094,159.2969 788.9531,159.3125 788.7969,159.4219 C788.5469,159.5781 788.3906,159.8594 788.3906,160.1563 C788.3906,160.7188 788.7656,161 789.5156,161 L791.7813,161 C792.1406,161 792.3594,160.9688 792.4844,160.875 C792.75,160.7344 792.8906,160.4375 792.8906,160.1563 C792.8906,159.875 792.7656,159.625 792.5469,159.4531 C792.375,159.3281 792.2344,159.2969 791.7813,159.2969 L791.3906,159.2969 L791.7813,158.3125 L795.8281,158.3125 Z M795.125,156.6094 L792.4531,156.6094 L793.7969,153.3438 L795.125,156.6094 Z " fill="#000000"/><text fill="#000000" font-family="sans-serif" font-size="12" font-style="italic" lengthAdjust="spacingAndGlyphs" textLength="58" x="814.25" y="160.6543">ColorView</text><line style="stroke:#A80036;stroke-width:1.5;" x1="725.5" x2="928.5" y1="172.5" y2="172.5"/><ellipse cx="735.5" cy="183.5" fill="none" rx="3" ry="3" style="stroke:#038048;stroke-width:1.0;"/><text fill="#000000" font-family="sans-serif" font-size="11" lengthAdjust="spacingAndGlyphs" text-decoration="underline" textLength="85" x="744.5" y="186.7104">INITIALS: char[]</text><polygon fill="none" points="735.5,191.3047,739.5,195.3047,735.5,199.3047,731.5,195.3047" style="stroke:#B38D22;stroke-width:1.0;"/><text fill="#000000" font-family="sans-serif" font-size="11" lengthAdjust="spacingAndGlyphs" textLength="63" x="744.5" y="199.5151">color: Color</text><line style="stroke:#A80036;stroke-width:1.5;" x1="725.5" x2="928.5" y1="206.1094" y2="206.1094"/><polygon fill="#FFFF44" points="735.5,212.1094,739.5,216.1094,735.5,220.1094,731.5,216.1094" style="stroke:#B38D22;stroke-width:1.0;"/><text fill="#000000" font-family="sans-serif" font-size="11" lengthAdjust="spacingAndGlyphs" textLength="65" x="744.5" y="220.3198">ColorView()</text><polygon fill="#FFFF44" points="735.5,224.9141,739.5,228.9141,735.5,232.9141,731.5,228.9141" style="stroke:#B38D22;stroke-width:1.0;"/><text fill="#000000" font-family="sans-serif" font-size="11" lengthAdjust="spacingAndGlyphs" textLength="94" x="744.5" y="233.1245">ColorView(Color)</text><ellipse cx="735.5" cy="242.7188" fill="#84BE84" rx="3" ry="3" style="stroke:#038048;stroke-width:1.0;"/><text fill="#000000" font-family="sans-serif" font-size="11" lengthAdjust="spacingAndGlyphs" text-decoration="underline" textLength="135" x="744.5" y="245.9292">getInstance(char): Color</text><ellipse cx="735.5" cy="255.5234" fill="#84BE84" rx="3" ry="3" style="stroke:#038048;stroke-width:1.0;"/><text fill="#000000" font-family="sans-serif" font-size="11" lengthAdjust="spacingAndGlyphs" textLength="97" x="744.5" y="258.7339">allInitials(): String</text><polygon fill="#FFFF44" points="735.5,263.3281,739.5,267.3281,735.5,271.3281,731.5,267.3281" style="stroke:#B38D22;stroke-width:1.0;"/><text fill="#000000" font-family="sans-serif" font-size="11" lengthAdjust="spacingAndGlyphs" textLength="179" x="744.5" y="271.5386">abstract resultInitials(int): String</text><!--MD5=[bd953d99961dd365a3924fc1e98cf727]
class usantatecla.mastermind.views.ErrorView--><rect codeLine="11" fill="#FEFECE" filter="url(#f1pksd6kkozrga)" height="112.0234" id="usantatecla.mastermind.views.ErrorView" style="stroke:#A80036;stroke-width:1.5;" width="186" x="485" y="153.5"/><ellipse cx="544.75" cy="169.5" fill="#A9DCDF" rx="11" ry="11" style="stroke:#A80036;stroke-width:1.0;"/><path d="M546.8281,171.3125 L547.2188,172.2969 L546.8281,172.2969 C546.375,172.2969 546.2656,172.3125 546.1094,172.4219 C545.8594,172.5781 545.7031,172.8594 545.7031,173.1563 C545.7031,173.4219 545.8438,173.6719 546.0625,173.8281 C546.2031,173.9531 546.4063,174 546.8281,174 L549.1875,174 C549.5469,174 549.7656,173.9688 549.9063,173.875 C550.1563,173.7344 550.3125,173.4375 550.3125,173.1563 C550.3125,172.875 550.1719,172.625 549.9531,172.4688 C549.7813,172.3281 549.625,172.2969 549.1563,172.2969 L545.7656,164.0938 L542.0938,164.0938 C541.6406,164.0938 541.5156,164.1094 541.3594,164.2031 C541.1094,164.375 540.9531,164.6563 540.9531,164.9375 C540.9531,165.2188 541.0938,165.4688 541.3125,165.6406 C541.4844,165.75 541.6563,165.7813 542.0938,165.7813 L543.1719,165.7813 L540.5313,172.2969 C540.1094,172.2969 539.9531,172.3125 539.7969,172.4219 C539.5469,172.5781 539.3906,172.8594 539.3906,173.1563 C539.3906,173.7188 539.7656,174 540.5156,174 L542.7813,174 C543.1406,174 543.3594,173.9688 543.4844,173.875 C543.75,173.7344 543.8906,173.4375 543.8906,173.1563 C543.8906,172.875 543.7656,172.625 543.5469,172.4531 C543.375,172.3281 543.2344,172.2969 542.7813,172.2969 L542.3906,172.2969 L542.7813,171.3125 L546.8281,171.3125 Z M546.125,169.6094 L543.4531,169.6094 L544.7969,166.3438 L546.125,169.6094 Z " fill="#000000"/><text fill="#000000" font-family="sans-serif" font-size="12" font-style="italic" lengthAdjust="spacingAndGlyphs" textLength="58" x="565.25" y="173.6543">ErrorView</text><line style="stroke:#A80036;stroke-width:1.5;" x1="486" x2="670" y1="185.5" y2="185.5"/><ellipse cx="496" cy="196.5" fill="none" rx="3" ry="3" style="stroke:#038048;stroke-width:1.0;"/><text fill="#000000" font-family="sans-serif" font-size="11" lengthAdjust="spacingAndGlyphs" textLength="112" x="505" y="199.7104">MESSAGES: String[]</text><polygon fill="none" points="496,204.3047,500,208.3047,496,212.3047,492,208.3047" style="stroke:#B38D22;stroke-width:1.0;"/><text fill="#000000" font-family="sans-serif" font-size="11" lengthAdjust="spacingAndGlyphs" textLength="60" x="505" y="212.5151">error: Error</text><line style="stroke:#A80036;stroke-width:1.5;" x1="486" x2="670" y1="219.1094" y2="219.1094"/><polygon fill="#FFFF44" points="496,225.1094,500,229.1094,496,233.1094,492,229.1094" style="stroke:#B38D22;stroke-width:1.0;"/><text fill="#000000" font-family="sans-serif" font-size="11" lengthAdjust="spacingAndGlyphs" textLength="62" x="505" y="233.3198">ErrorView()</text><ellipse cx="496" cy="242.9141" fill="#84BE84" rx="3" ry="3" style="stroke:#038048;stroke-width:1.0;"/><text fill="#000000" font-family="sans-serif" font-size="11" lengthAdjust="spacingAndGlyphs" textLength="88" x="505" y="246.1245">ErrorView(Error)</text><polygon fill="#FFFF44" points="496,250.7188,500,254.7188,496,258.7188,492,254.7188" style="stroke:#B38D22;stroke-width:1.0;"/><text fill="#000000" font-family="sans-serif" font-size="11" lengthAdjust="spacingAndGlyphs" textLength="160" x="505" y="258.9292">abstract colorInitials(): String</text><!--MD5=[869bb932d54482a0e6fc3ac31d21d51b]
class usantatecla.mastermind.views.Message--><rect codeLine="19" fill="#FEFECE" filter="url(#f1pksd6kkozrga)" height="188.8516" id="usantatecla.mastermind.views.Message" style="stroke:#A80036;stroke-width:1.5;" width="173" x="258.5" y="115"/><ellipse cx="299.15" cy="131" fill="#EB937F" rx="11" ry="11" style="stroke:#A80036;stroke-width:1.0;"/><path d="M297.9469,131.875 L299.4,131.875 L299.4,131.9844 C299.4,132.3906 299.4313,132.5469 299.5094,132.7031 C299.6656,132.9531 299.9469,133.1094 300.2438,133.1094 C300.4938,133.1094 300.7594,132.9688 300.9156,132.75 C301.0406,132.5938 301.0719,132.4375 301.0719,131.9844 L301.0719,130.0625 C301.0719,129.9063 301.0719,129.8594 301.0563,129.7031 C300.9938,129.2344 300.6813,128.9219 300.2281,128.9219 C299.9781,128.9219 299.7125,129.0625 299.5406,129.2813 C299.4313,129.4531 299.4,129.6094 299.4,130.0625 L299.4,130.1875 L297.9469,130.1875 L297.9469,127.7813 L301.9313,127.7813 L301.9313,128.6406 C301.9313,129.0469 301.9625,129.2188 302.0406,129.375 C302.2125,129.625 302.4938,129.7813 302.775,129.7813 C303.0406,129.7813 303.3063,129.6406 303.4781,129.4219 C303.5875,129.25 303.6188,129.1094 303.6188,128.6406 L303.6188,126.0938 L295.9938,126.0938 C295.5563,126.0938 295.4313,126.1094 295.275,126.2031 C295.025,126.3594 294.8688,126.6563 294.8688,126.9375 C294.8688,127.2188 295.0094,127.4688 295.2281,127.6406 C295.3844,127.75 295.5719,127.7813 295.9938,127.7813 L296.2438,127.7813 L296.2438,134.2969 L295.9938,134.2969 C295.5875,134.2969 295.4313,134.3125 295.275,134.4219 C295.025,134.5938 294.8688,134.8594 294.8688,135.1563 C294.8688,135.4219 295.0094,135.6719 295.2281,135.8281 C295.3688,135.9531 295.6031,136 295.9938,136 L303.9938,136 L303.9938,133.4219 C303.9938,132.9844 303.9625,132.8438 303.8844,132.6875 C303.7125,132.4375 303.4313,132.2813 303.15,132.2813 C302.8844,132.2813 302.6188,132.3906 302.4469,132.6406 C302.3375,132.7969 302.3063,132.9375 302.3063,133.4219 L302.3063,134.2969 L297.9469,134.2969 L297.9469,131.875 Z " fill="#000000"/><text fill="#000000" font-family="sans-serif" font-size="12" lengthAdjust="spacingAndGlyphs" textLength="84" x="318.85" y="135.1543">MessageView</text><line style="stroke:#A80036;stroke-width:1.5;" x1="259.5" x2="430.5" y1="147" y2="147"/><ellipse cx="269.5" cy="158" fill="none" rx="3" ry="3" style="stroke:#038048;stroke-width:1.0;"/><text fill="#000000" font-family="sans-serif" font-size="11" lengthAdjust="spacingAndGlyphs" textLength="59" x="278.5" y="161.2104">ATTEMPTS</text><ellipse cx="269.5" cy="170.8047" fill="none" rx="3" ry="3" style="stroke:#038048;stroke-width:1.0;"/><text fill="#000000" font-family="sans-serif" font-size="11" lengthAdjust="spacingAndGlyphs" textLength="44" x="278.5" y="174.0151">SECRET</text><ellipse cx="269.5" cy="183.6094" fill="none" rx="3" ry="3" style="stroke:#038048;stroke-width:1.0;"/><text fill="#000000" font-family="sans-serif" font-size="11" lengthAdjust="spacingAndGlyphs" textLength="46" x="278.5" y="186.8198">RESUME</text><ellipse cx="269.5" cy="196.4141" fill="none" rx="3" ry="3" style="stroke:#038048;stroke-width:1.0;"/><text fill="#000000" font-family="sans-serif" font-size="11" lengthAdjust="spacingAndGlyphs" textLength="43" x="278.5" y="199.6245">RESULT</text><ellipse cx="269.5" cy="209.2188" fill="none" rx="3" ry="3" style="stroke:#038048;stroke-width:1.0;"/><text fill="#000000" font-family="sans-serif" font-size="11" lengthAdjust="spacingAndGlyphs" textLength="147" x="278.5" y="212.4292">PROPOSED_COMBINATION</text><ellipse cx="269.5" cy="222.0234" fill="none" rx="3" ry="3" style="stroke:#038048;stroke-width:1.0;"/><text fill="#000000" font-family="sans-serif" font-size="11" lengthAdjust="spacingAndGlyphs" textLength="30" x="278.5" y="225.2339">TITLE</text><ellipse cx="269.5" cy="234.8281" fill="none" rx="3" ry="3" style="stroke:#038048;stroke-width:1.0;"/><text fill="#000000" font-family="sans-serif" font-size="11" lengthAdjust="spacingAndGlyphs" textLength="44" x="278.5" y="238.0386">WINNER</text><ellipse cx="269.5" cy="247.6328" fill="none" rx="3" ry="3" style="stroke:#038048;stroke-width:1.0;"/><text fill="#000000" font-family="sans-serif" font-size="11" lengthAdjust="spacingAndGlyphs" textLength="46" x="278.5" y="250.8433">LOOSER</text><rect fill="none" height="6" style="stroke:#C82930;stroke-width:1.0;" width="6" x="266.5" y="257.4375"/><text fill="#000000" font-family="sans-serif" font-size="11" lengthAdjust="spacingAndGlyphs" textLength="93" x="278.5" y="263.6479">message: String</text><line style="stroke:#A80036;stroke-width:1.5;" x1="259.5" x2="430.5" y1="270.2422" y2="270.2422"/><polygon fill="#4177AF" points="269.5,277.2422,265.5,283.2422,273.5,283.2422" style="stroke:#1963A0;stroke-width:1.0;"/><text fill="#000000" font-family="sans-serif" font-size="11" lengthAdjust="spacingAndGlyphs" textLength="120" x="278.5" y="284.4526">MessageView(String)</text><ellipse cx="269.5" cy="294.0469" fill="#84BE84" rx="3" ry="3" style="stroke:#038048;stroke-width:1.0;"/><text fill="#000000" font-family="sans-serif" font-size="11" lengthAdjust="spacingAndGlyphs" textLength="118" x="278.5" y="297.2573">getMessage(): String</text><!--MD5=[f5534db0476bcf0d5af6a596dc954aba]
class usantatecla.mastermind.views.View--><rect codeLine="33" fill="#FEFECE" filter="url(#f1pksd6kkozrga)" height="60.8047" id="usantatecla.mastermind.views.View" style="stroke:#A80036;stroke-width:1.5;" width="77" x="146.5" y="179"/><ellipse cx="169.15" cy="195" fill="#A9DCDF" rx="11" ry="11" style="stroke:#A80036;stroke-width:1.0;"/><path d="M171.2281,196.8125 L171.6188,197.7969 L171.2281,197.7969 C170.775,197.7969 170.6656,197.8125 170.5094,197.9219 C170.2594,198.0781 170.1031,198.3594 170.1031,198.6563 C170.1031,198.9219 170.2438,199.1719 170.4625,199.3281 C170.6031,199.4531 170.8063,199.5 171.2281,199.5 L173.5875,199.5 C173.9469,199.5 174.1656,199.4688 174.3063,199.375 C174.5563,199.2344 174.7125,198.9375 174.7125,198.6563 C174.7125,198.375 174.5719,198.125 174.3531,197.9688 C174.1813,197.8281 174.025,197.7969 173.5563,197.7969 L170.1656,189.5938 L166.4938,189.5938 C166.0406,189.5938 165.9156,189.6094 165.7594,189.7031 C165.5094,189.875 165.3531,190.1563 165.3531,190.4375 C165.3531,190.7188 165.4938,190.9688 165.7125,191.1406 C165.8844,191.25 166.0563,191.2813 166.4938,191.2813 L167.5719,191.2813 L164.9313,197.7969 C164.5094,197.7969 164.3531,197.8125 164.1969,197.9219 C163.9469,198.0781 163.7906,198.3594 163.7906,198.6563 C163.7906,199.2188 164.1656,199.5 164.9156,199.5 L167.1813,199.5 C167.5406,199.5 167.7594,199.4688 167.8844,199.375 C168.15,199.2344 168.2906,198.9375 168.2906,198.6563 C168.2906,198.375 168.1656,198.125 167.9469,197.9531 C167.775,197.8281 167.6344,197.7969 167.1813,197.7969 L166.7906,197.7969 L167.1813,196.8125 L171.2281,196.8125 Z M170.525,195.1094 L167.8531,195.1094 L169.1969,191.8438 L170.525,195.1094 Z " fill="#000000"/><text fill="#000000" font-family="sans-serif" font-size="12" font-style="italic" lengthAdjust="spacingAndGlyphs" textLength="28" x="184.85" y="199.1543">View</text><line style="stroke:#A80036;stroke-width:1.5;" x1="147.5" x2="222.5" y1="211" y2="211"/><line style="stroke:#A80036;stroke-width:1.5;" x1="147.5" x2="222.5" y1="219" y2="219"/><ellipse cx="157.5" cy="230" fill="#84BE84" rx="3" ry="3" style="stroke:#038048;stroke-width:1.0;"/><text fill="#000000" font-family="sans-serif" font-size="11" font-style="italic" lengthAdjust="spacingAndGlyphs" textLength="51" x="166.5" y="233.2104">interact()</text><!--MD5=[06482e5321cd63f9929caae44e2b44af]
class ControllersVisitors--><rect codeLine="36" fill="#FEFECE" filter="url(#f1pksd6kkozrga)" height="48" id="ControllersVisitors" style="stroke:#A80036;stroke-width:1.5;" width="356" x="7" y="7"/><ellipse cx="22" cy="23" fill="#ADD1B2" rx="11" ry="11" style="stroke:#A80036;stroke-width:1.0;"/><path d="M24.3438,18.6719 C23.4063,18.2344 22.8125,18.0938 21.9375,18.0938 C19.3125,18.0938 17.3125,20.1719 17.3125,22.8906 L17.3125,24.0156 C17.3125,26.5938 19.4219,28.4844 22.3125,28.4844 C23.5313,28.4844 24.6875,28.1875 25.4375,27.6406 C26.0156,27.2344 26.3438,26.7813 26.3438,26.3906 C26.3438,25.9375 25.9531,25.5469 25.4844,25.5469 C25.2656,25.5469 25.0625,25.625 24.875,25.8125 C24.4219,26.2969 24.4219,26.2969 24.2344,26.3906 C23.8125,26.6563 23.125,26.7813 22.3594,26.7813 C20.3125,26.7813 19.0156,25.6875 19.0156,23.9844 L19.0156,22.8906 C19.0156,21.1094 20.2656,19.7969 22,19.7969 C22.5781,19.7969 23.1875,19.9531 23.6563,20.2031 C24.1406,20.4844 24.3125,20.7031 24.4063,21.1094 C24.4688,21.5156 24.5,21.6406 24.6406,21.7656 C24.7813,21.9063 25.0156,22.0156 25.2344,22.0156 C25.5,22.0156 25.7656,21.875 25.9375,21.6563 C26.0469,21.5 26.0781,21.3125 26.0781,20.8906 L26.0781,19.4688 C26.0781,19.0313 26.0625,18.9063 25.9688,18.75 C25.8125,18.4844 25.5313,18.3438 25.2344,18.3438 C24.9375,18.3438 24.7344,18.4375 24.5156,18.75 L24.3438,18.6719 Z " fill="#000000"/><text fill="#000000" font-family="sans-serif" font-size="12" lengthAdjust="spacingAndGlyphs" textLength="324" x="36" y="27.1543">usantatecla.mastermind.controllers.ControllersVisitors</text><line style="stroke:#A80036;stroke-width:1.5;" x1="8" x2="362" y1="39" y2="39"/><line style="stroke:#A80036;stroke-width:1.5;" x1="8" x2="362" y1="47" y2="47"/><!--MD5=[1d7ba1c7002d54515419844fbd155368]
class Controller--><rect codeLine="41" fill="#FEFECE" filter="url(#f1pksd6kkozrga)" height="48" id="Controller" style="stroke:#A80036;stroke-width:1.5;" width="304" x="33" y="364"/><ellipse cx="48" cy="380" fill="#ADD1B2" rx="11" ry="11" style="stroke:#A80036;stroke-width:1.0;"/><path d="M50.3438,375.6719 C49.4063,375.2344 48.8125,375.0938 47.9375,375.0938 C45.3125,375.0938 43.3125,377.1719 43.3125,379.8906 L43.3125,381.0156 C43.3125,383.5938 45.4219,385.4844 48.3125,385.4844 C49.5313,385.4844 50.6875,385.1875 51.4375,384.6406 C52.0156,384.2344 52.3438,383.7813 52.3438,383.3906 C52.3438,382.9375 51.9531,382.5469 51.4844,382.5469 C51.2656,382.5469 51.0625,382.625 50.875,382.8125 C50.4219,383.2969 50.4219,383.2969 50.2344,383.3906 C49.8125,383.6563 49.125,383.7813 48.3594,383.7813 C46.3125,383.7813 45.0156,382.6875 45.0156,380.9844 L45.0156,379.8906 C45.0156,378.1094 46.2656,376.7969 48,376.7969 C48.5781,376.7969 49.1875,376.9531 49.6563,377.2031 C50.1406,377.4844 50.3125,377.7031 50.4063,378.1094 C50.4688,378.5156 50.5,378.6406 50.6406,378.7656 C50.7813,378.9063 51.0156,379.0156 51.2344,379.0156 C51.5,379.0156 51.7656,378.875 51.9375,378.6563 C52.0469,378.5 52.0781,378.3125 52.0781,377.8906 L52.0781,376.4688 C52.0781,376.0313 52.0625,375.9063 51.9688,375.75 C51.8125,375.4844 51.5313,375.3438 51.2344,375.3438 C50.9375,375.3438 50.7344,375.4375 50.5156,375.75 L50.3438,375.6719 Z " fill="#000000"/><text fill="#000000" font-family="sans-serif" font-size="12" lengthAdjust="spacingAndGlyphs" textLength="272" x="62" y="384.1543">usantatecla.mastermind.controllers.Controller</text><line style="stroke:#A80036;stroke-width:1.5;" x1="34" x2="336" y1="396" y2="396"/><line style="stroke:#A80036;stroke-width:1.5;" x1="34" x2="336" y1="404" y2="404"/><!--MD5=[a238c27dff49b9351238c9bcb1313e20]
reverse link ControllersVisitors to usantatecla.mastermind.views.View--><path codeLine="46" d="M185,75.315 C185,107.521 185,150.615 185,178.945 " fill="none" id="ControllersVisitors-backto-usantatecla.mastermind.views.View" style="stroke:#A80036;stroke-width:1.0;"/><polygon fill="none" points="178,75.074,185,55.074,192,75.074,178,75.074" style="stroke:#A80036;stroke-width:1.0;"/><!--MD5=[b764df6f99f98900cdeb381840b9372d]
link usantatecla.mastermind.views.View to Controller--><path codeLine="47" d="M185,240.042 C185,273.111 185,326.3078 185,358.8139 " fill="none" id="usantatecla.mastermind.views.View-to-Controller" style="stroke:#A80036;stroke-width:1.0;stroke-dasharray:7.0,7.0;"/><polygon fill="#A80036" points="185,363.8471,189,354.8471,185,358.8471,181,354.8471,185,363.8471" style="stroke:#A80036;stroke-width:1.0;"/><!--MD5=[37e09eda8f4e1a3c6bc0e2459108e24e]
link usantatecla.mastermind.views.ColorView to usantatecla.mastermind.views.ColorView--><path codeLine="48" d="M929.54,177.502 C949.948,181.104 964.5,191.77 964.5,209.5 C964.5,225.707 952.341,236.011 934.666,240.413 " fill="none" id="usantatecla.mastermind.views.ColorView-to-usantatecla.mastermind.views.ColorView" style="stroke:#A80036;stroke-width:1.0;stroke-dasharray:7.0,7.0;"/><polygon fill="#A80036" points="929.54,241.498,939.1727,243.5502,934.4319,240.4639,937.5182,235.7231,929.54,241.498" style="stroke:#A80036;stroke-width:1.0;"/><!--MD5=[730bc01c36ed95625b6af59fca3c6255]
link usantatecla.mastermind.views.ErrorView to usantatecla.mastermind.views.ErrorView--><path codeLine="49" d="M671.196,177.111 C691.37,180.278 706,191.074 706,209.5 C706,226.342 693.776,236.81 676.269,240.904 " fill="none" id="usantatecla.mastermind.views.ErrorView-to-usantatecla.mastermind.views.ErrorView" style="stroke:#A80036;stroke-width:1.0;stroke-dasharray:7.0,7.0;"/><polygon fill="#A80036" points="671.196,241.889,680.7934,244.1001,676.1043,240.9359,679.2685,236.2468,671.196,241.889" style="stroke:#A80036;stroke-width:1.0;"/><!--MD5=[fe0a5493e48de881017ed470b138585b]
link usantatecla.mastermind.views.Message to usantatecla.mastermind.views.Message--><path codeLine="50" d="M431.55,176.822 C451.681,179.573 466.5,190.466 466.5,209.5 C466.5,226.898 454.118,237.494 436.616,241.288 " fill="none" id="usantatecla.mastermind.views.Message-to-usantatecla.mastermind.views.Message" style="stroke:#A80036;stroke-width:1.0;stroke-dasharray:7.0,7.0;"/><polygon fill="#A80036" points="431.55,242.178,441.1059,244.5624,436.4748,241.3139,439.7233,236.6828,431.55,242.178" style="stroke:#A80036;stroke-width:1.0;"/><!--MD5=[16b3a91c9be06fcdb4d3016e8deb2ab6]
@startuml
abstract class  usantatecla.mastermind.views.ColorView{
+ {static} INITIALS: char[]
# color: Color
# ColorView()
# ColorView(Color)
+ {static} getInstance(char): Color
+ allInitials(): String
# abstract resultInitials(int): String
}

abstract class  usantatecla.mastermind.views.ErrorView{
+ MESSAGES: String[]
# error: Error
# ErrorView()
+ ErrorView(Error)
# abstract colorInitials(): String
}

 enum  usantatecla.mastermind.views.Message{
+ ATTEMPTS
+ SECRET
+ RESUME
+ RESULT
+ PROPOSED_COMBINATION
+ TITLE
+ WINNER
+ LOOSER
- message: String
~ MessageView(String)
+ getMessage(): String
}

abstract class  usantatecla.mastermind.views.View{
+ {abstract} interact()
}
class ControllersVisitors as "usantatecla.mastermind.controllers.ControllersVisitors" {


}

class Controller as "usantatecla.mastermind.controllers.Controller" {


}

ControllersVisitors <|-down- usantatecla.mastermind.views.View
usantatecla.mastermind.views.View ..> Controller
usantatecla.mastermind.views.ColorView ..> usantatecla.mastermind.views.ColorView
usantatecla.mastermind.views.ErrorView ..> usantatecla.mastermind.views.ErrorView
usantatecla.mastermind.views.Message ..> usantatecla.mastermind.views.Message
@enduml

PlantUML version 1.2020.22beta2(Unknown compile time)
(GPL source distribution)
Java Runtime: Java(TM) SE Runtime Environment
JVM: Java HotSpot(TM) 64-Bit Server VM
Default Encoding: UTF-8
Language: en
Country: US
--></g></svg>