<?xml version="1.0" encoding="UTF-8" standalone="no"?><svg xmlns="http://www.w3.org/2000/svg" xmlns:xlink="http://www.w3.org/1999/xlink" contentScriptType="application/ecmascript" contentStyleType="text/css" height="934px" preserveAspectRatio="none" style="width:1443px;height:934px;" version="1.1" viewBox="0 0 1443 934" width="1443px" zoomAndPan="magnify"><defs><filter height="300%" id="f111ylfdx6u6ey" width="300%" x="-1" y="-1"><feGaussianBlur result="blurOut" stdDeviation="2.0"/><feColorMatrix in="blurOut" result="blurOut2" type="matrix" values="0 0 0 0 0 0 0 0 0 0 0 0 0 0 0 0 0 0 .4 0"/><feOffset dx="4.0" dy="4.0" in="blurOut2" result="blurOut3"/><feBlend in="SourceGraphic" in2="blurOut3" mode="normal"/></filter></defs><g><!--MD5=[073ce8cb2fd2a0b2556785fe35fbd544]
cluster usantatecla.mastermind.models--><polygon fill="#FFFFFF" filter="url(#f111ylfdx6u6ey)" points="51.5,80,321.5,80,328.5,102.2969,793.5,102.2969,793.5,689,51.5,689,51.5,80" style="stroke:#000000;stroke-width:1.5;"/><line style="stroke:#000000;stroke-width:1.5;" x1="51.5" x2="328.5" y1="102.2969" y2="102.2969"/><text fill="#000000" font-family="sans-serif" font-size="14" font-weight="bold" lengthAdjust="spacingAndGlyphs" textLength="264" x="55.5" y="94.9951">usantatecla.mastermind.models</text><!--MD5=[8c0210f25e02723f65a0c6cf47cc6884]
cluster usantatecla.mastermind.types--><polygon fill="#FFFFFF" filter="url(#f111ylfdx6u6ey)" points="330.5,713,587.5,713,594.5,735.2969,667.5,735.2969,667.5,927,330.5,927,330.5,713" style="stroke:#000000;stroke-width:1.5;"/><line style="stroke:#000000;stroke-width:1.5;" x1="330.5" x2="594.5" y1="735.2969" y2="735.2969"/><text fill="#000000" font-family="sans-serif" font-size="14" font-weight="bold" lengthAdjust="spacingAndGlyphs" textLength="251" x="334.5" y="727.9951">usantatecla.mastermind.types</text><!--MD5=[fb9f5a10625edc9f9448ff88fc48054a]
class usantatecla.mastermind.models.State--><rect codeLine="21" fill="#FEFECE" filter="url(#f111ylfdx6u6ey)" height="112.0234" id="usantatecla.mastermind.models.State" style="stroke:#A80036;stroke-width:1.5;" width="188" x="589.5" y="166"/><ellipse cx="663.75" cy="182" fill="#ADD1B2" rx="11" ry="11" style="stroke:#A80036;stroke-width:1.0;"/><path d="M666.0938,177.6719 C665.1563,177.2344 664.5625,177.0938 663.6875,177.0938 C661.0625,177.0938 659.0625,179.1719 659.0625,181.8906 L659.0625,183.0156 C659.0625,185.5938 661.1719,187.4844 664.0625,187.4844 C665.2813,187.4844 666.4375,187.1875 667.1875,186.6406 C667.7656,186.2344 668.0938,185.7813 668.0938,185.3906 C668.0938,184.9375 667.7031,184.5469 667.2344,184.5469 C667.0156,184.5469 666.8125,184.625 666.625,184.8125 C666.1719,185.2969 666.1719,185.2969 665.9844,185.3906 C665.5625,185.6563 664.875,185.7813 664.1094,185.7813 C662.0625,185.7813 660.7656,184.6875 660.7656,182.9844 L660.7656,181.8906 C660.7656,180.1094 662.0156,178.7969 663.75,178.7969 C664.3281,178.7969 664.9375,178.9531 665.4063,179.2031 C665.8906,179.4844 666.0625,179.7031 666.1563,180.1094 C666.2188,180.5156 666.25,180.6406 666.3906,180.7656 C666.5313,180.9063 666.7656,181.0156 666.9844,181.0156 C667.25,181.0156 667.5156,180.875 667.6875,180.6563 C667.7969,180.5 667.8281,180.3125 667.8281,179.8906 L667.8281,178.4688 C667.8281,178.0313 667.8125,177.9063 667.7188,177.75 C667.5625,177.4844 667.2813,177.3438 666.9844,177.3438 C666.6875,177.3438 666.4844,177.4375 666.2656,177.75 L666.0938,177.6719 Z " fill="#000000"/><text fill="#000000" font-family="sans-serif" font-size="12" lengthAdjust="spacingAndGlyphs" textLength="31" x="684.25" y="186.1543">State</text><line style="stroke:#A80036;stroke-width:1.5;" x1="590.5" x2="776.5" y1="198" y2="198"/><rect fill="none" height="6" style="stroke:#C82930;stroke-width:1.0;" width="6" x="597.5" y="206"/><text fill="#000000" font-family="sans-serif" font-size="11" lengthAdjust="spacingAndGlyphs" textLength="133" x="609.5" y="212.2104">stateValue: StateValue</text><line style="stroke:#A80036;stroke-width:1.5;" x1="590.5" x2="776.5" y1="218.8047" y2="218.8047"/><ellipse cx="600.5" cy="229.8047" fill="#84BE84" rx="3" ry="3" style="stroke:#038048;stroke-width:1.0;"/><text fill="#000000" font-family="sans-serif" font-size="11" lengthAdjust="spacingAndGlyphs" textLength="37" x="609.5" y="233.0151">state()</text><ellipse cx="600.5" cy="242.6094" fill="#84BE84" rx="3" ry="3" style="stroke:#038048;stroke-width:1.0;"/><text fill="#000000" font-family="sans-serif" font-size="11" lengthAdjust="spacingAndGlyphs" textLength="34" x="609.5" y="245.8198">next()</text><ellipse cx="600.5" cy="255.4141" fill="#84BE84" rx="3" ry="3" style="stroke:#038048;stroke-width:1.0;"/><text fill="#000000" font-family="sans-serif" font-size="11" lengthAdjust="spacingAndGlyphs" textLength="38" x="609.5" y="258.6245">reset()</text><ellipse cx="600.5" cy="268.2188" fill="#84BE84" rx="3" ry="3" style="stroke:#038048;stroke-width:1.0;"/><text fill="#000000" font-family="sans-serif" font-size="11" lengthAdjust="spacingAndGlyphs" textLength="162" x="609.5" y="271.4292">getValueState(): StateValue</text><!--MD5=[d053cbc18720e45a198f4fc3b35f8a19]
class usantatecla.mastermind.models.StateValue--><rect codeLine="29" fill="#FEFECE" filter="url(#f111ylfdx6u6ey)" height="99.2188" id="usantatecla.mastermind.models.StateValue" style="stroke:#A80036;stroke-width:1.5;" width="96" x="630.5" y="389"/><ellipse cx="645.5" cy="405" fill="#EB937F" rx="11" ry="11" style="stroke:#A80036;stroke-width:1.0;"/><path d="M644.2969,405.875 L645.75,405.875 L645.75,405.9844 C645.75,406.3906 645.7813,406.5469 645.8594,406.7031 C646.0156,406.9531 646.2969,407.1094 646.5938,407.1094 C646.8438,407.1094 647.1094,406.9688 647.2656,406.75 C647.3906,406.5938 647.4219,406.4375 647.4219,405.9844 L647.4219,404.0625 C647.4219,403.9063 647.4219,403.8594 647.4063,403.7031 C647.3438,403.2344 647.0313,402.9219 646.5781,402.9219 C646.3281,402.9219 646.0625,403.0625 645.8906,403.2813 C645.7813,403.4531 645.75,403.6094 645.75,404.0625 L645.75,404.1875 L644.2969,404.1875 L644.2969,401.7813 L648.2813,401.7813 L648.2813,402.6406 C648.2813,403.0469 648.3125,403.2188 648.3906,403.375 C648.5625,403.625 648.8438,403.7813 649.125,403.7813 C649.3906,403.7813 649.6563,403.6406 649.8281,403.4219 C649.9375,403.25 649.9688,403.1094 649.9688,402.6406 L649.9688,400.0938 L642.3438,400.0938 C641.9063,400.0938 641.7813,400.1094 641.625,400.2031 C641.375,400.3594 641.2188,400.6563 641.2188,400.9375 C641.2188,401.2188 641.3594,401.4688 641.5781,401.6406 C641.7344,401.75 641.9219,401.7813 642.3438,401.7813 L642.5938,401.7813 L642.5938,408.2969 L642.3438,408.2969 C641.9375,408.2969 641.7813,408.3125 641.625,408.4219 C641.375,408.5938 641.2188,408.8594 641.2188,409.1563 C641.2188,409.4219 641.3594,409.6719 641.5781,409.8281 C641.7188,409.9531 641.9531,410 642.3438,410 L650.3438,410 L650.3438,407.4219 C650.3438,406.9844 650.3125,406.8438 650.2344,406.6875 C650.0625,406.4375 649.7813,406.2813 649.5,406.2813 C649.2344,406.2813 648.9688,406.3906 648.7969,406.6406 C648.6875,406.7969 648.6563,406.9375 648.6563,407.4219 L648.6563,408.2969 L644.2969,408.2969 L644.2969,405.875 Z " fill="#000000"/><text fill="#000000" font-family="sans-serif" font-size="12" lengthAdjust="spacingAndGlyphs" textLength="64" x="659.5" y="409.1543">StateValue</text><line style="stroke:#A80036;stroke-width:1.5;" x1="631.5" x2="725.5" y1="421" y2="421"/><ellipse cx="641.5" cy="432" fill="none" rx="3" ry="3" style="stroke:#038048;stroke-width:1.0;"/><text fill="#000000" font-family="sans-serif" font-size="11" lengthAdjust="spacingAndGlyphs" textLength="38" x="650.5" y="435.2104">INITIAL</text><ellipse cx="641.5" cy="444.8047" fill="none" rx="3" ry="3" style="stroke:#038048;stroke-width:1.0;"/><text fill="#000000" font-family="sans-serif" font-size="11" lengthAdjust="spacingAndGlyphs" textLength="50" x="650.5" y="448.0151">IN_GAME</text><ellipse cx="641.5" cy="457.6094" fill="none" rx="3" ry="3" style="stroke:#038048;stroke-width:1.0;"/><text fill="#000000" font-family="sans-serif" font-size="11" lengthAdjust="spacingAndGlyphs" textLength="31" x="650.5" y="460.8198">FINAL</text><ellipse cx="641.5" cy="470.4141" fill="none" rx="3" ry="3" style="stroke:#038048;stroke-width:1.0;"/><text fill="#000000" font-family="sans-serif" font-size="11" lengthAdjust="spacingAndGlyphs" textLength="25" x="650.5" y="473.6245">EXIT</text><line style="stroke:#A80036;stroke-width:1.5;" x1="631.5" x2="725.5" y1="480.2188" y2="480.2188"/><!--MD5=[9e09d6096b99d1406435ac08840c9240]
class usantatecla.mastermind.models.Combination--><rect codeLine="36" fill="#FEFECE" filter="url(#f111ylfdx6u6ey)" height="99.2188" id="usantatecla.mastermind.models.Combination" style="stroke:#A80036;stroke-width:1.5;" width="132" x="422.5" y="172.5"/><ellipse cx="448.3" cy="188.5" fill="#A9DCDF" rx="11" ry="11" style="stroke:#A80036;stroke-width:1.0;"/><path d="M450.3781,190.3125 L450.7688,191.2969 L450.3781,191.2969 C449.925,191.2969 449.8156,191.3125 449.6594,191.4219 C449.4094,191.5781 449.2531,191.8594 449.2531,192.1563 C449.2531,192.4219 449.3938,192.6719 449.6125,192.8281 C449.7531,192.9531 449.9563,193 450.3781,193 L452.7375,193 C453.0969,193 453.3156,192.9688 453.4563,192.875 C453.7063,192.7344 453.8625,192.4375 453.8625,192.1563 C453.8625,191.875 453.7219,191.625 453.5031,191.4688 C453.3313,191.3281 453.175,191.2969 452.7063,191.2969 L449.3156,183.0938 L445.6438,183.0938 C445.1906,183.0938 445.0656,183.1094 444.9094,183.2031 C444.6594,183.375 444.5031,183.6563 444.5031,183.9375 C444.5031,184.2188 444.6438,184.4688 444.8625,184.6406 C445.0344,184.75 445.2063,184.7813 445.6438,184.7813 L446.7219,184.7813 L444.0813,191.2969 C443.6594,191.2969 443.5031,191.3125 443.3469,191.4219 C443.0969,191.5781 442.9406,191.8594 442.9406,192.1563 C442.9406,192.7188 443.3156,193 444.0656,193 L446.3313,193 C446.6906,193 446.9094,192.9688 447.0344,192.875 C447.3,192.7344 447.4406,192.4375 447.4406,192.1563 C447.4406,191.875 447.3156,191.625 447.0969,191.4531 C446.925,191.3281 446.7844,191.2969 446.3313,191.2969 L445.9406,191.2969 L446.3313,190.3125 L450.3781,190.3125 Z M449.675,188.6094 L447.0031,188.6094 L448.3469,185.3438 L449.675,188.6094 Z " fill="#000000"/><text fill="#000000" font-family="sans-serif" font-size="12" font-style="italic" lengthAdjust="spacingAndGlyphs" textLength="76" x="464.7" y="192.6543">Combination</text><line style="stroke:#A80036;stroke-width:1.5;" x1="423.5" x2="553.5" y1="204.5" y2="204.5"/><rect fill="none" height="6" style="stroke:#C82930;stroke-width:1.0;" width="6" x="430.5" y="212.5"/><text fill="#000000" font-family="sans-serif" font-size="11" lengthAdjust="spacingAndGlyphs" text-decoration="underline" textLength="59" x="442.5" y="218.7104">WIDTH: int</text><polygon fill="none" points="433.5,223.3047,437.5,227.3047,433.5,231.3047,429.5,227.3047" style="stroke:#B38D22;stroke-width:1.0;"/><text fill="#000000" font-family="sans-serif" font-size="11" lengthAdjust="spacingAndGlyphs" textLength="106" x="442.5" y="231.5151">colors: List&lt;Color&gt;</text><line style="stroke:#A80036;stroke-width:1.5;" x1="423.5" x2="553.5" y1="238.1094" y2="238.1094"/><polygon fill="#FFFF44" points="433.5,244.1094,437.5,248.1094,433.5,252.1094,429.5,248.1094" style="stroke:#B38D22;stroke-width:1.0;"/><text fill="#000000" font-family="sans-serif" font-size="11" lengthAdjust="spacingAndGlyphs" textLength="79" x="442.5" y="252.3198">Combination()</text><ellipse cx="433.5" cy="261.9141" fill="#84BE84" rx="3" ry="3" style="stroke:#038048;stroke-width:1.0;"/><text fill="#000000" font-family="sans-serif" font-size="11" lengthAdjust="spacingAndGlyphs" text-decoration="underline" textLength="80" x="442.5" y="265.1245">getWidth(): int</text><!--MD5=[133b2a20d5a8d4980692cee85e8c0684]
class usantatecla.mastermind.models.Game--><rect codeLine="49" fill="#FEFECE" filter="url(#f111ylfdx6u6ey)" height="214.4609" id="usantatecla.mastermind.models.Game" style="stroke:#A80036;stroke-width:1.5;" width="320" x="67.5" y="115"/><ellipse cx="205.75" cy="131" fill="#ADD1B2" rx="11" ry="11" style="stroke:#A80036;stroke-width:1.0;"/><path d="M208.0938,126.6719 C207.1563,126.2344 206.5625,126.0938 205.6875,126.0938 C203.0625,126.0938 201.0625,128.1719 201.0625,130.8906 L201.0625,132.0156 C201.0625,134.5938 203.1719,136.4844 206.0625,136.4844 C207.2813,136.4844 208.4375,136.1875 209.1875,135.6406 C209.7656,135.2344 210.0938,134.7813 210.0938,134.3906 C210.0938,133.9375 209.7031,133.5469 209.2344,133.5469 C209.0156,133.5469 208.8125,133.625 208.625,133.8125 C208.1719,134.2969 208.1719,134.2969 207.9844,134.3906 C207.5625,134.6563 206.875,134.7813 206.1094,134.7813 C204.0625,134.7813 202.7656,133.6875 202.7656,131.9844 L202.7656,130.8906 C202.7656,129.1094 204.0156,127.7969 205.75,127.7969 C206.3281,127.7969 206.9375,127.9531 207.4063,128.2031 C207.8906,128.4844 208.0625,128.7031 208.1563,129.1094 C208.2188,129.5156 208.25,129.6406 208.3906,129.7656 C208.5313,129.9063 208.7656,130.0156 208.9844,130.0156 C209.25,130.0156 209.5156,129.875 209.6875,129.6563 C209.7969,129.5 209.8281,129.3125 209.8281,128.8906 L209.8281,127.4688 C209.8281,127.0313 209.8125,126.9063 209.7188,126.75 C209.5625,126.4844 209.2813,126.3438 208.9844,126.3438 C208.6875,126.3438 208.4844,126.4375 208.2656,126.75 L208.0938,126.6719 Z " fill="#000000"/><text fill="#000000" font-family="sans-serif" font-size="12" lengthAdjust="spacingAndGlyphs" textLength="35" x="226.25" y="135.1543">Game</text><line style="stroke:#A80036;stroke-width:1.5;" x1="68.5" x2="386.5" y1="147" y2="147"/><rect fill="none" height="6" style="stroke:#C82930;stroke-width:1.0;" width="6" x="75.5" y="155"/><text fill="#000000" font-family="sans-serif" font-size="11" lengthAdjust="spacingAndGlyphs" text-decoration="underline" textLength="84" x="87.5" y="161.2104">MAX_LONG: int</text><rect fill="none" height="6" style="stroke:#C82930;stroke-width:1.0;" width="6" x="75.5" y="167.8047"/><text fill="#000000" font-family="sans-serif" font-size="11" lengthAdjust="spacingAndGlyphs" textLength="223" x="87.5" y="174.0151">secretCombination: SecretCombination</text><rect fill="none" height="6" style="stroke:#C82930;stroke-width:1.0;" width="6" x="75.5" y="180.6094"/><text fill="#000000" font-family="sans-serif" font-size="11" lengthAdjust="spacingAndGlyphs" textLength="291" x="87.5" y="186.8198">proposedCombination: List&lt;ProposedCombination&gt;</text><rect fill="none" height="6" style="stroke:#C82930;stroke-width:1.0;" width="6" x="75.5" y="193.4141"/><text fill="#000000" font-family="sans-serif" font-size="11" lengthAdjust="spacingAndGlyphs" textLength="117" x="87.5" y="199.6245">results: List&lt;Result&gt;</text><rect fill="none" height="6" style="stroke:#C82930;stroke-width:1.0;" width="6" x="75.5" y="206.2188"/><text fill="#000000" font-family="sans-serif" font-size="11" lengthAdjust="spacingAndGlyphs" textLength="72" x="87.5" y="212.4292">attempts: int</text><line style="stroke:#A80036;stroke-width:1.5;" x1="68.5" x2="386.5" y1="219.0234" y2="219.0234"/><ellipse cx="78.5" cy="230.0234" fill="#84BE84" rx="3" ry="3" style="stroke:#038048;stroke-width:1.0;"/><text fill="#000000" font-family="sans-serif" font-size="11" lengthAdjust="spacingAndGlyphs" textLength="43" x="87.5" y="233.2339">Game()</text><ellipse cx="78.5" cy="242.8281" fill="#84BE84" rx="3" ry="3" style="stroke:#038048;stroke-width:1.0;"/><text fill="#000000" font-family="sans-serif" font-size="11" lengthAdjust="spacingAndGlyphs" textLength="36" x="87.5" y="246.0386">clear()</text><ellipse cx="78.5" cy="255.6328" fill="#84BE84" rx="3" ry="3" style="stroke:#038048;stroke-width:1.0;"/><text fill="#000000" font-family="sans-serif" font-size="11" lengthAdjust="spacingAndGlyphs" textLength="268" x="87.5" y="258.8433">addProposeCombination(ProposedCombination)</text><ellipse cx="78.5" cy="268.4375" fill="#84BE84" rx="3" ry="3" style="stroke:#038048;stroke-width:1.0;"/><text fill="#000000" font-family="sans-serif" font-size="11" lengthAdjust="spacingAndGlyphs" textLength="108" x="87.5" y="271.6479">isLooser(): boolean</text><ellipse cx="78.5" cy="281.2422" fill="#84BE84" rx="3" ry="3" style="stroke:#038048;stroke-width:1.0;"/><text fill="#000000" font-family="sans-serif" font-size="11" lengthAdjust="spacingAndGlyphs" textLength="110" x="87.5" y="284.4526">isWinner(): boolean</text><ellipse cx="78.5" cy="294.0469" fill="#84BE84" rx="3" ry="3" style="stroke:#038048;stroke-width:1.0;"/><text fill="#000000" font-family="sans-serif" font-size="11" lengthAdjust="spacingAndGlyphs" textLength="100" x="87.5" y="297.2573">getAttempts(): int</text><ellipse cx="78.5" cy="306.8516" fill="#84BE84" rx="3" ry="3" style="stroke:#038048;stroke-width:1.0;"/><text fill="#000000" font-family="sans-serif" font-size="11" lengthAdjust="spacingAndGlyphs" textLength="294" x="87.5" y="310.062">getProposedCombination(int): ProposedCombination</text><ellipse cx="78.5" cy="319.6563" fill="#84BE84" rx="3" ry="3" style="stroke:#038048;stroke-width:1.0;"/><text fill="#000000" font-family="sans-serif" font-size="11" lengthAdjust="spacingAndGlyphs" textLength="118" x="87.5" y="322.8667">getResult(int): Result</text><!--MD5=[a212aeeb69ab78e602f8fa1f3e5ba19f]
class usantatecla.mastermind.models.SecretCombination--><rect codeLine="76" fill="#FEFECE" filter="url(#f111ylfdx6u6ey)" height="73.6094" id="usantatecla.mastermind.models.SecretCombination" style="stroke:#A80036;stroke-width:1.5;" width="253" x="305" y="401.5"/><ellipse cx="370.25" cy="417.5" fill="#ADD1B2" rx="11" ry="11" style="stroke:#A80036;stroke-width:1.0;"/><path d="M372.5938,413.1719 C371.6563,412.7344 371.0625,412.5938 370.1875,412.5938 C367.5625,412.5938 365.5625,414.6719 365.5625,417.3906 L365.5625,418.5156 C365.5625,421.0938 367.6719,422.9844 370.5625,422.9844 C371.7813,422.9844 372.9375,422.6875 373.6875,422.1406 C374.2656,421.7344 374.5938,421.2813 374.5938,420.8906 C374.5938,420.4375 374.2031,420.0469 373.7344,420.0469 C373.5156,420.0469 373.3125,420.125 373.125,420.3125 C372.6719,420.7969 372.6719,420.7969 372.4844,420.8906 C372.0625,421.1563 371.375,421.2813 370.6094,421.2813 C368.5625,421.2813 367.2656,420.1875 367.2656,418.4844 L367.2656,417.3906 C367.2656,415.6094 368.5156,414.2969 370.25,414.2969 C370.8281,414.2969 371.4375,414.4531 371.9063,414.7031 C372.3906,414.9844 372.5625,415.2031 372.6563,415.6094 C372.7188,416.0156 372.75,416.1406 372.8906,416.2656 C373.0313,416.4063 373.2656,416.5156 373.4844,416.5156 C373.75,416.5156 374.0156,416.375 374.1875,416.1563 C374.2969,416 374.3281,415.8125 374.3281,415.3906 L374.3281,413.9688 C374.3281,413.5313 374.3125,413.4063 374.2188,413.25 C374.0625,412.9844 373.7813,412.8438 373.4844,412.8438 C373.1875,412.8438 372.9844,412.9375 372.7656,413.25 L372.5938,413.1719 Z " fill="#000000"/><text fill="#000000" font-family="sans-serif" font-size="12" lengthAdjust="spacingAndGlyphs" textLength="114" x="390.75" y="421.6543">SecretCombination</text><line style="stroke:#A80036;stroke-width:1.5;" x1="306" x2="557" y1="433.5" y2="433.5"/><line style="stroke:#A80036;stroke-width:1.5;" x1="306" x2="557" y1="441.5" y2="441.5"/><polygon fill="#4177AF" points="316,448.5,312,454.5,320,454.5" style="stroke:#1963A0;stroke-width:1.0;"/><text fill="#000000" font-family="sans-serif" font-size="11" lengthAdjust="spacingAndGlyphs" textLength="117" x="325" y="455.7104">SecretCombination()</text><polygon fill="#4177AF" points="316,461.3047,312,467.3047,320,467.3047" style="stroke:#1963A0;stroke-width:1.0;"/><text fill="#000000" font-family="sans-serif" font-size="11" lengthAdjust="spacingAndGlyphs" textLength="227" x="325" y="468.5151">getResult(ProposedCombination): Result</text><!--MD5=[f33d10797af0f3b71126f0e937fc2775]
class usantatecla.mastermind.models.Result--><rect codeLine="85" fill="#FEFECE" filter="url(#f111ylfdx6u6ey)" height="124.8281" id="usantatecla.mastermind.models.Result" style="stroke:#A80036;stroke-width:1.5;" width="136" x="184.5" y="548"/><ellipse cx="230.25" cy="564" fill="#ADD1B2" rx="11" ry="11" style="stroke:#A80036;stroke-width:1.0;"/><path d="M232.5938,559.6719 C231.6563,559.2344 231.0625,559.0938 230.1875,559.0938 C227.5625,559.0938 225.5625,561.1719 225.5625,563.8906 L225.5625,565.0156 C225.5625,567.5938 227.6719,569.4844 230.5625,569.4844 C231.7813,569.4844 232.9375,569.1875 233.6875,568.6406 C234.2656,568.2344 234.5938,567.7813 234.5938,567.3906 C234.5938,566.9375 234.2031,566.5469 233.7344,566.5469 C233.5156,566.5469 233.3125,566.625 233.125,566.8125 C232.6719,567.2969 232.6719,567.2969 232.4844,567.3906 C232.0625,567.6563 231.375,567.7813 230.6094,567.7813 C228.5625,567.7813 227.2656,566.6875 227.2656,564.9844 L227.2656,563.8906 C227.2656,562.1094 228.5156,560.7969 230.25,560.7969 C230.8281,560.7969 231.4375,560.9531 231.9063,561.2031 C232.3906,561.4844 232.5625,561.7031 232.6563,562.1094 C232.7188,562.5156 232.75,562.6406 232.8906,562.7656 C233.0313,562.9063 233.2656,563.0156 233.4844,563.0156 C233.75,563.0156 234.0156,562.875 234.1875,562.6563 C234.2969,562.5 234.3281,562.3125 234.3281,561.8906 L234.3281,560.4688 C234.3281,560.0313 234.3125,559.9063 234.2188,559.75 C234.0625,559.4844 233.7813,559.3438 233.4844,559.3438 C233.1875,559.3438 232.9844,559.4375 232.7656,559.75 L232.5938,559.6719 Z " fill="#000000"/><text fill="#000000" font-family="sans-serif" font-size="12" lengthAdjust="spacingAndGlyphs" textLength="36" x="250.75" y="568.1543">Result</text><line style="stroke:#A80036;stroke-width:1.5;" x1="185.5" x2="319.5" y1="580" y2="580"/><rect fill="none" height="6" style="stroke:#C82930;stroke-width:1.0;" width="6" x="192.5" y="588"/><text fill="#000000" font-family="sans-serif" font-size="11" lengthAdjust="spacingAndGlyphs" textLength="56" x="204.5" y="594.2104">blacks: int</text><rect fill="none" height="6" style="stroke:#C82930;stroke-width:1.0;" width="6" x="192.5" y="600.8047"/><text fill="#000000" font-family="sans-serif" font-size="11" lengthAdjust="spacingAndGlyphs" textLength="58" x="204.5" y="607.0151">whites: int</text><line style="stroke:#A80036;stroke-width:1.5;" x1="185.5" x2="319.5" y1="613.6094" y2="613.6094"/><polygon fill="#4177AF" points="195.5,620.6094,191.5,626.6094,199.5,626.6094" style="stroke:#1963A0;stroke-width:1.0;"/><text fill="#000000" font-family="sans-serif" font-size="11" lengthAdjust="spacingAndGlyphs" textLength="78" x="204.5" y="627.8198">Result(int, int)</text><polygon fill="#4177AF" points="195.5,633.4141,191.5,639.4141,199.5,639.4141" style="stroke:#1963A0;stroke-width:1.0;"/><text fill="#000000" font-family="sans-serif" font-size="11" lengthAdjust="spacingAndGlyphs" textLength="110" x="204.5" y="640.6245">isWinner(): boolean</text><ellipse cx="195.5" cy="650.2188" fill="#84BE84" rx="3" ry="3" style="stroke:#038048;stroke-width:1.0;"/><text fill="#000000" font-family="sans-serif" font-size="11" lengthAdjust="spacingAndGlyphs" textLength="84" x="204.5" y="653.4292">getBlacks(): int</text><ellipse cx="195.5" cy="663.0234" fill="#84BE84" rx="3" ry="3" style="stroke:#038048;stroke-width:1.0;"/><text fill="#000000" font-family="sans-serif" font-size="11" lengthAdjust="spacingAndGlyphs" textLength="87" x="204.5" y="666.2339">getWhites(): int</text><!--MD5=[29c0d014c840bf5e3383a02197df5a5a]
class usantatecla.mastermind.models.ProposedCombination--><rect codeLine="68" fill="#FEFECE" filter="url(#f111ylfdx6u6ey)" height="86.4141" id="usantatecla.mastermind.models.ProposedCombination" style="stroke:#A80036;stroke-width:1.5;" width="184" x="355.5" y="567.5"/><ellipse cx="379.5" cy="583.5" fill="#ADD1B2" rx="11" ry="11" style="stroke:#A80036;stroke-width:1.0;"/><path d="M381.8438,579.1719 C380.9063,578.7344 380.3125,578.5938 379.4375,578.5938 C376.8125,578.5938 374.8125,580.6719 374.8125,583.3906 L374.8125,584.5156 C374.8125,587.0938 376.9219,588.9844 379.8125,588.9844 C381.0313,588.9844 382.1875,588.6875 382.9375,588.1406 C383.5156,587.7344 383.8438,587.2813 383.8438,586.8906 C383.8438,586.4375 383.4531,586.0469 382.9844,586.0469 C382.7656,586.0469 382.5625,586.125 382.375,586.3125 C381.9219,586.7969 381.9219,586.7969 381.7344,586.8906 C381.3125,587.1563 380.625,587.2813 379.8594,587.2813 C377.8125,587.2813 376.5156,586.1875 376.5156,584.4844 L376.5156,583.3906 C376.5156,581.6094 377.7656,580.2969 379.5,580.2969 C380.0781,580.2969 380.6875,580.4531 381.1563,580.7031 C381.6406,580.9844 381.8125,581.2031 381.9063,581.6094 C381.9688,582.0156 382,582.1406 382.1406,582.2656 C382.2813,582.4063 382.5156,582.5156 382.7344,582.5156 C383,582.5156 383.2656,582.375 383.4375,582.1563 C383.5469,582 383.5781,581.8125 383.5781,581.3906 L383.5781,579.9688 C383.5781,579.5313 383.5625,579.4063 383.4688,579.25 C383.3125,578.9844 383.0313,578.8438 382.7344,578.8438 C382.4375,578.8438 382.2344,578.9375 382.0156,579.25 L381.8438,579.1719 Z " fill="#000000"/><text fill="#000000" font-family="sans-serif" font-size="12" lengthAdjust="spacingAndGlyphs" textLength="132" x="395.5" y="587.6543">ProposedCombination</text><line style="stroke:#A80036;stroke-width:1.5;" x1="356.5" x2="538.5" y1="599.5" y2="599.5"/><line style="stroke:#A80036;stroke-width:1.5;" x1="356.5" x2="538.5" y1="607.5" y2="607.5"/><polygon fill="#4177AF" points="366.5,614.5,362.5,620.5,370.5,620.5" style="stroke:#1963A0;stroke-width:1.0;"/><text fill="#000000" font-family="sans-serif" font-size="11" lengthAdjust="spacingAndGlyphs" textLength="158" x="375.5" y="621.7104">contains(Color, int): boolean</text><polygon fill="#4177AF" points="366.5,627.3047,362.5,633.3047,370.5,633.3047" style="stroke:#1963A0;stroke-width:1.0;"/><text fill="#000000" font-family="sans-serif" font-size="11" lengthAdjust="spacingAndGlyphs" textLength="137" x="375.5" y="634.5151">contains(Color): boolean</text><ellipse cx="366.5" cy="644.1094" fill="#84BE84" rx="3" ry="3" style="stroke:#038048;stroke-width:1.0;"/><text fill="#000000" font-family="sans-serif" font-size="11" lengthAdjust="spacingAndGlyphs" textLength="135" x="375.5" y="647.3198">getColors(): List&lt;Color&gt;</text><!--MD5=[9ba97027f3433c7bc0635c95b0f40e9e]
class usantatecla.mastermind.types.Color--><rect codeLine="96" fill="#FEFECE" filter="url(#f111ylfdx6u6ey)" height="163.2422" id="usantatecla.mastermind.types.Color" style="stroke:#A80036;stroke-width:1.5;" width="117" x="534" y="748"/><ellipse cx="572.85" cy="764" fill="#EB937F" rx="11" ry="11" style="stroke:#A80036;stroke-width:1.0;"/><path d="M571.6469,764.875 L573.1,764.875 L573.1,764.9844 C573.1,765.3906 573.1313,765.5469 573.2094,765.7031 C573.3656,765.9531 573.6469,766.1094 573.9438,766.1094 C574.1938,766.1094 574.4594,765.9688 574.6156,765.75 C574.7406,765.5938 574.7719,765.4375 574.7719,764.9844 L574.7719,763.0625 C574.7719,762.9063 574.7719,762.8594 574.7563,762.7031 C574.6938,762.2344 574.3813,761.9219 573.9281,761.9219 C573.6781,761.9219 573.4125,762.0625 573.2406,762.2813 C573.1313,762.4531 573.1,762.6094 573.1,763.0625 L573.1,763.1875 L571.6469,763.1875 L571.6469,760.7813 L575.6313,760.7813 L575.6313,761.6406 C575.6313,762.0469 575.6625,762.2188 575.7406,762.375 C575.9125,762.625 576.1938,762.7813 576.475,762.7813 C576.7406,762.7813 577.0063,762.6406 577.1781,762.4219 C577.2875,762.25 577.3188,762.1094 577.3188,761.6406 L577.3188,759.0938 L569.6938,759.0938 C569.2563,759.0938 569.1313,759.1094 568.975,759.2031 C568.725,759.3594 568.5688,759.6563 568.5688,759.9375 C568.5688,760.2188 568.7094,760.4688 568.9281,760.6406 C569.0844,760.75 569.2719,760.7813 569.6938,760.7813 L569.9438,760.7813 L569.9438,767.2969 L569.6938,767.2969 C569.2875,767.2969 569.1313,767.3125 568.975,767.4219 C568.725,767.5938 568.5688,767.8594 568.5688,768.1563 C568.5688,768.4219 568.7094,768.6719 568.9281,768.8281 C569.0688,768.9531 569.3031,769 569.6938,769 L577.6938,769 L577.6938,766.4219 C577.6938,765.9844 577.6625,765.8438 577.5844,765.6875 C577.4125,765.4375 577.1313,765.2813 576.85,765.2813 C576.5844,765.2813 576.3188,765.3906 576.1469,765.6406 C576.0375,765.7969 576.0063,765.9375 576.0063,766.4219 L576.0063,767.2969 L571.6469,767.2969 L571.6469,764.875 Z " fill="#000000"/><text fill="#000000" font-family="sans-serif" font-size="12" lengthAdjust="spacingAndGlyphs" textLength="32" x="592.15" y="768.1543">Color</text><line style="stroke:#A80036;stroke-width:1.5;" x1="535" x2="650" y1="780" y2="780"/><ellipse cx="545" cy="791" fill="none" rx="3" ry="3" style="stroke:#038048;stroke-width:1.0;"/><text fill="#000000" font-family="sans-serif" font-size="11" lengthAdjust="spacingAndGlyphs" textLength="23" x="554" y="794.2104">RED</text><ellipse cx="545" cy="803.8047" fill="none" rx="3" ry="3" style="stroke:#038048;stroke-width:1.0;"/><text fill="#000000" font-family="sans-serif" font-size="11" lengthAdjust="spacingAndGlyphs" textLength="29" x="554" y="807.0151">BLUE</text><ellipse cx="545" cy="816.6094" fill="none" rx="3" ry="3" style="stroke:#038048;stroke-width:1.0;"/><text fill="#000000" font-family="sans-serif" font-size="11" lengthAdjust="spacingAndGlyphs" textLength="46" x="554" y="819.8198">YELLOW</text><ellipse cx="545" cy="829.4141" fill="none" rx="3" ry="3" style="stroke:#038048;stroke-width:1.0;"/><text fill="#000000" font-family="sans-serif" font-size="11" lengthAdjust="spacingAndGlyphs" textLength="38" x="554" y="832.6245">GREEN</text><ellipse cx="545" cy="842.2188" fill="none" rx="3" ry="3" style="stroke:#038048;stroke-width:1.0;"/><text fill="#000000" font-family="sans-serif" font-size="11" lengthAdjust="spacingAndGlyphs" textLength="48" x="554" y="845.4292">ORANGE</text><ellipse cx="545" cy="855.0234" fill="none" rx="3" ry="3" style="stroke:#038048;stroke-width:1.0;"/><text fill="#000000" font-family="sans-serif" font-size="11" lengthAdjust="spacingAndGlyphs" textLength="40" x="554" y="858.2339">PURPLE</text><ellipse cx="545" cy="867.8281" fill="none" rx="3" ry="3" style="stroke:#038048;stroke-width:1.0;"/><text fill="#000000" font-family="sans-serif" font-size="11" lengthAdjust="spacingAndGlyphs" textLength="28" x="554" y="871.0386">NULL</text><line style="stroke:#A80036;stroke-width:1.5;" x1="535" x2="650" y1="877.6328" y2="877.6328"/><polygon fill="#4177AF" points="545,884.6328,541,890.6328,549,890.6328" style="stroke:#1963A0;stroke-width:1.0;"/><text fill="#000000" font-family="sans-serif" font-size="11" lengthAdjust="spacingAndGlyphs" text-decoration="underline" textLength="65" x="554" y="891.8433">length(): int</text><ellipse cx="545" cy="901.4375" fill="#84BE84" rx="3" ry="3" style="stroke:#038048;stroke-width:1.0;"/><text fill="#000000" font-family="sans-serif" font-size="11" lengthAdjust="spacingAndGlyphs" textLength="91" x="554" y="904.6479">isNull(): boolean</text><!--MD5=[361325273302787e4c8f3934acbb17be]
class usantatecla.mastermind.types.Error--><rect codeLine="108" fill="#FEFECE" filter="url(#f111ylfdx6u6ey)" height="112.0234" id="usantatecla.mastermind.types.Error" style="stroke:#A80036;stroke-width:1.5;" width="152" x="346.5" y="773.5"/><ellipse cx="403.25" cy="789.5" fill="#EB937F" rx="11" ry="11" style="stroke:#A80036;stroke-width:1.0;"/><path d="M402.0469,790.375 L403.5,790.375 L403.5,790.4844 C403.5,790.8906 403.5313,791.0469 403.6094,791.2031 C403.7656,791.4531 404.0469,791.6094 404.3438,791.6094 C404.5938,791.6094 404.8594,791.4688 405.0156,791.25 C405.1406,791.0938 405.1719,790.9375 405.1719,790.4844 L405.1719,788.5625 C405.1719,788.4063 405.1719,788.3594 405.1563,788.2031 C405.0938,787.7344 404.7813,787.4219 404.3281,787.4219 C404.0781,787.4219 403.8125,787.5625 403.6406,787.7813 C403.5313,787.9531 403.5,788.1094 403.5,788.5625 L403.5,788.6875 L402.0469,788.6875 L402.0469,786.2813 L406.0313,786.2813 L406.0313,787.1406 C406.0313,787.5469 406.0625,787.7188 406.1406,787.875 C406.3125,788.125 406.5938,788.2813 406.875,788.2813 C407.1406,788.2813 407.4063,788.1406 407.5781,787.9219 C407.6875,787.75 407.7188,787.6094 407.7188,787.1406 L407.7188,784.5938 L400.0938,784.5938 C399.6563,784.5938 399.5313,784.6094 399.375,784.7031 C399.125,784.8594 398.9688,785.1563 398.9688,785.4375 C398.9688,785.7188 399.1094,785.9688 399.3281,786.1406 C399.4844,786.25 399.6719,786.2813 400.0938,786.2813 L400.3438,786.2813 L400.3438,792.7969 L400.0938,792.7969 C399.6875,792.7969 399.5313,792.8125 399.375,792.9219 C399.125,793.0938 398.9688,793.3594 398.9688,793.6563 C398.9688,793.9219 399.1094,794.1719 399.3281,794.3281 C399.4688,794.4531 399.7031,794.5 400.0938,794.5 L408.0938,794.5 L408.0938,791.9219 C408.0938,791.4844 408.0625,791.3438 407.9844,791.1875 C407.8125,790.9375 407.5313,790.7813 407.25,790.7813 C406.9844,790.7813 406.7188,790.8906 406.5469,791.1406 C406.4375,791.2969 406.4063,791.4375 406.4063,791.9219 L406.4063,792.7969 L402.0469,792.7969 L402.0469,790.375 Z " fill="#000000"/><text fill="#000000" font-family="sans-serif" font-size="12" lengthAdjust="spacingAndGlyphs" textLength="30" x="423.75" y="793.6543">Error</text><line style="stroke:#A80036;stroke-width:1.5;" x1="347.5" x2="497.5" y1="805.5" y2="805.5"/><ellipse cx="357.5" cy="816.5" fill="none" rx="3" ry="3" style="stroke:#038048;stroke-width:1.0;"/><text fill="#000000" font-family="sans-serif" font-size="11" lengthAdjust="spacingAndGlyphs" textLength="71" x="366.5" y="819.7104">DUPLICATED</text><ellipse cx="357.5" cy="829.3047" fill="none" rx="3" ry="3" style="stroke:#038048;stroke-width:1.0;"/><text fill="#000000" font-family="sans-serif" font-size="11" lengthAdjust="spacingAndGlyphs" textLength="126" x="366.5" y="832.5151">WRONG_CHARACTERS</text><ellipse cx="357.5" cy="842.1094" fill="none" rx="3" ry="3" style="stroke:#038048;stroke-width:1.0;"/><text fill="#000000" font-family="sans-serif" font-size="11" lengthAdjust="spacingAndGlyphs" textLength="95" x="366.5" y="845.3198">WRONG_LENGTH</text><ellipse cx="357.5" cy="854.9141" fill="none" rx="3" ry="3" style="stroke:#038048;stroke-width:1.0;"/><text fill="#000000" font-family="sans-serif" font-size="11" lengthAdjust="spacingAndGlyphs" textLength="28" x="366.5" y="858.1245">NULL</text><line style="stroke:#A80036;stroke-width:1.5;" x1="347.5" x2="497.5" y1="864.7188" y2="864.7188"/><ellipse cx="357.5" cy="875.7188" fill="#84BE84" rx="3" ry="3" style="stroke:#038048;stroke-width:1.0;"/><text fill="#000000" font-family="sans-serif" font-size="11" lengthAdjust="spacingAndGlyphs" textLength="91" x="366.5" y="878.9292">isNull(): boolean</text><!--MD5=[42fa18dda7351a0ae87d9497de925436]
class Logic--><rect codeLine="1" fill="#FEFECE" filter="url(#f111ylfdx6u6ey)" height="48" id="Logic" style="stroke:#A80036;stroke-width:1.5;" width="277" x="7" y="7"/><ellipse cx="22" cy="23" fill="#ADD1B2" rx="11" ry="11" style="stroke:#A80036;stroke-width:1.0;"/><path d="M24.3438,18.6719 C23.4063,18.2344 22.8125,18.0938 21.9375,18.0938 C19.3125,18.0938 17.3125,20.1719 17.3125,22.8906 L17.3125,24.0156 C17.3125,26.5938 19.4219,28.4844 22.3125,28.4844 C23.5313,28.4844 24.6875,28.1875 25.4375,27.6406 C26.0156,27.2344 26.3438,26.7813 26.3438,26.3906 C26.3438,25.9375 25.9531,25.5469 25.4844,25.5469 C25.2656,25.5469 25.0625,25.625 24.875,25.8125 C24.4219,26.2969 24.4219,26.2969 24.2344,26.3906 C23.8125,26.6563 23.125,26.7813 22.3594,26.7813 C20.3125,26.7813 19.0156,25.6875 19.0156,23.9844 L19.0156,22.8906 C19.0156,21.1094 20.2656,19.7969 22,19.7969 C22.5781,19.7969 23.1875,19.9531 23.6563,20.2031 C24.1406,20.4844 24.3125,20.7031 24.4063,21.1094 C24.4688,21.5156 24.5,21.6406 24.6406,21.7656 C24.7813,21.9063 25.0156,22.0156 25.2344,22.0156 C25.5,22.0156 25.7656,21.875 25.9375,21.6563 C26.0469,21.5 26.0781,21.3125 26.0781,20.8906 L26.0781,19.4688 C26.0781,19.0313 26.0625,18.9063 25.9688,18.75 C25.8125,18.4844 25.5313,18.3438 25.2344,18.3438 C24.9375,18.3438 24.7344,18.4375 24.5156,18.75 L24.3438,18.6719 Z " fill="#000000"/><text fill="#000000" font-family="sans-serif" font-size="12" lengthAdjust="spacingAndGlyphs" textLength="245" x="36" y="27.1543">usantatecla.mastermind.controllers.Logic</text><line style="stroke:#A80036;stroke-width:1.5;" x1="8" x2="283" y1="39" y2="39"/><line style="stroke:#A80036;stroke-width:1.5;" x1="8" x2="283" y1="47" y2="47"/><!--MD5=[1a47bbf44ccee225df9b18c5b6629853]
class ResumeController--><rect codeLine="6" fill="#FEFECE" filter="url(#f111ylfdx6u6ey)" height="48" id="ResumeController" style="stroke:#A80036;stroke-width:1.5;" width="352" x="319.5" y="7"/><ellipse cx="334.5" cy="23" fill="#ADD1B2" rx="11" ry="11" style="stroke:#A80036;stroke-width:1.0;"/><path d="M336.8438,18.6719 C335.9063,18.2344 335.3125,18.0938 334.4375,18.0938 C331.8125,18.0938 329.8125,20.1719 329.8125,22.8906 L329.8125,24.0156 C329.8125,26.5938 331.9219,28.4844 334.8125,28.4844 C336.0313,28.4844 337.1875,28.1875 337.9375,27.6406 C338.5156,27.2344 338.8438,26.7813 338.8438,26.3906 C338.8438,25.9375 338.4531,25.5469 337.9844,25.5469 C337.7656,25.5469 337.5625,25.625 337.375,25.8125 C336.9219,26.2969 336.9219,26.2969 336.7344,26.3906 C336.3125,26.6563 335.625,26.7813 334.8594,26.7813 C332.8125,26.7813 331.5156,25.6875 331.5156,23.9844 L331.5156,22.8906 C331.5156,21.1094 332.7656,19.7969 334.5,19.7969 C335.0781,19.7969 335.6875,19.9531 336.1563,20.2031 C336.6406,20.4844 336.8125,20.7031 336.9063,21.1094 C336.9688,21.5156 337,21.6406 337.1406,21.7656 C337.2813,21.9063 337.5156,22.0156 337.7344,22.0156 C338,22.0156 338.2656,21.875 338.4375,21.6563 C338.5469,21.5 338.5781,21.3125 338.5781,20.8906 L338.5781,19.4688 C338.5781,19.0313 338.5625,18.9063 338.4688,18.75 C338.3125,18.4844 338.0313,18.3438 337.7344,18.3438 C337.4375,18.3438 337.2344,18.4375 337.0156,18.75 L336.8438,18.6719 Z " fill="#000000"/><text fill="#000000" font-family="sans-serif" font-size="12" lengthAdjust="spacingAndGlyphs" textLength="320" x="348.5" y="27.1543">usantatecla.mastermind.controllers.ResumeController</text><line style="stroke:#A80036;stroke-width:1.5;" x1="320.5" x2="670.5" y1="39" y2="39"/><line style="stroke:#A80036;stroke-width:1.5;" x1="320.5" x2="670.5" y1="47" y2="47"/><!--MD5=[47c371471411cfedeee61b1a5bdaee47]
class StartController--><rect codeLine="11" fill="#FEFECE" filter="url(#f111ylfdx6u6ey)" height="48" id="StartController" style="stroke:#A80036;stroke-width:1.5;" width="332" x="706.5" y="7"/><ellipse cx="721.5" cy="23" fill="#ADD1B2" rx="11" ry="11" style="stroke:#A80036;stroke-width:1.0;"/><path d="M723.8438,18.6719 C722.9063,18.2344 722.3125,18.0938 721.4375,18.0938 C718.8125,18.0938 716.8125,20.1719 716.8125,22.8906 L716.8125,24.0156 C716.8125,26.5938 718.9219,28.4844 721.8125,28.4844 C723.0313,28.4844 724.1875,28.1875 724.9375,27.6406 C725.5156,27.2344 725.8438,26.7813 725.8438,26.3906 C725.8438,25.9375 725.4531,25.5469 724.9844,25.5469 C724.7656,25.5469 724.5625,25.625 724.375,25.8125 C723.9219,26.2969 723.9219,26.2969 723.7344,26.3906 C723.3125,26.6563 722.625,26.7813 721.8594,26.7813 C719.8125,26.7813 718.5156,25.6875 718.5156,23.9844 L718.5156,22.8906 C718.5156,21.1094 719.7656,19.7969 721.5,19.7969 C722.0781,19.7969 722.6875,19.9531 723.1563,20.2031 C723.6406,20.4844 723.8125,20.7031 723.9063,21.1094 C723.9688,21.5156 724,21.6406 724.1406,21.7656 C724.2813,21.9063 724.5156,22.0156 724.7344,22.0156 C725,22.0156 725.2656,21.875 725.4375,21.6563 C725.5469,21.5 725.5781,21.3125 725.5781,20.8906 L725.5781,19.4688 C725.5781,19.0313 725.5625,18.9063 725.4688,18.75 C725.3125,18.4844 725.0313,18.3438 724.7344,18.3438 C724.4375,18.3438 724.2344,18.4375 724.0156,18.75 L723.8438,18.6719 Z " fill="#000000"/><text fill="#000000" font-family="sans-serif" font-size="12" lengthAdjust="spacingAndGlyphs" textLength="300" x="735.5" y="27.1543">usantatecla.mastermind.controllers.StartController</text><line style="stroke:#A80036;stroke-width:1.5;" x1="707.5" x2="1037.5" y1="39" y2="39"/><line style="stroke:#A80036;stroke-width:1.5;" x1="707.5" x2="1037.5" y1="47" y2="47"/><!--MD5=[9dc2ab56716d4fbd8c61f2d17f2f3bab]
class ProposalController--><rect codeLine="16" fill="#FEFECE" filter="url(#f111ylfdx6u6ey)" height="48" id="ProposalController" style="stroke:#A80036;stroke-width:1.5;" width="356" x="1073.5" y="7"/><ellipse cx="1088.5" cy="23" fill="#ADD1B2" rx="11" ry="11" style="stroke:#A80036;stroke-width:1.0;"/><path d="M1090.8438,18.6719 C1089.9063,18.2344 1089.3125,18.0938 1088.4375,18.0938 C1085.8125,18.0938 1083.8125,20.1719 1083.8125,22.8906 L1083.8125,24.0156 C1083.8125,26.5938 1085.9219,28.4844 1088.8125,28.4844 C1090.0313,28.4844 1091.1875,28.1875 1091.9375,27.6406 C1092.5156,27.2344 1092.8438,26.7813 1092.8438,26.3906 C1092.8438,25.9375 1092.4531,25.5469 1091.9844,25.5469 C1091.7656,25.5469 1091.5625,25.625 1091.375,25.8125 C1090.9219,26.2969 1090.9219,26.2969 1090.7344,26.3906 C1090.3125,26.6563 1089.625,26.7813 1088.8594,26.7813 C1086.8125,26.7813 1085.5156,25.6875 1085.5156,23.9844 L1085.5156,22.8906 C1085.5156,21.1094 1086.7656,19.7969 1088.5,19.7969 C1089.0781,19.7969 1089.6875,19.9531 1090.1563,20.2031 C1090.6406,20.4844 1090.8125,20.7031 1090.9063,21.1094 C1090.9688,21.5156 1091,21.6406 1091.1406,21.7656 C1091.2813,21.9063 1091.5156,22.0156 1091.7344,22.0156 C1092,22.0156 1092.2656,21.875 1092.4375,21.6563 C1092.5469,21.5 1092.5781,21.3125 1092.5781,20.8906 L1092.5781,19.4688 C1092.5781,19.0313 1092.5625,18.9063 1092.4688,18.75 C1092.3125,18.4844 1092.0313,18.3438 1091.7344,18.3438 C1091.4375,18.3438 1091.2344,18.4375 1091.0156,18.75 L1090.8438,18.6719 Z " fill="#000000"/><text fill="#000000" font-family="sans-serif" font-size="12" lengthAdjust="spacingAndGlyphs" textLength="324" x="1102.5" y="27.1543">usantatecla.mastermind.controllers.ProposalController</text><line style="stroke:#A80036;stroke-width:1.5;" x1="1074.5" x2="1428.5" y1="39" y2="39"/><line style="stroke:#A80036;stroke-width:1.5;" x1="1074.5" x2="1428.5" y1="47" y2="47"/><!--MD5=[695784cf58eb370cc2c2d12b8251ec79]
link usantatecla.mastermind.models.Combination to usantatecla.mastermind.types.Color--><path codeLine="42" d="M524.7916,281.401 C524.7916,281.401 554.103,316.576 571.5,329 C637.727,376.297 697.315,322.693 744.5,389 C824.055,500.795 730.992,657.852 659.441,750.805 " fill="none" id="usantatecla.mastermind.models.Combination-usantatecla.mastermind.types.Color" style="stroke:#A80036;stroke-width:1.0;"/><polygon fill="#A80036" points="651.276,761.261,659.9688,756.6311,654.3541,757.3208,653.6644,751.7061,651.276,761.261" style="stroke:#A80036;stroke-width:1.0;"/><line style="stroke:#A80036;stroke-width:1.0;" x1="654.3541" x2="659.2775" y1="757.3208" y2="751.015"/><polygon fill="#A80036" points="517.709,271.714,518.0213,278.9183,524.7916,281.401,524.4793,274.1966,517.709,271.714" style="stroke:#A80036;stroke-width:1.0;"/><text fill="#000000" font-family="sans-serif" font-size="13" lengthAdjust="spacingAndGlyphs" textLength="7" x="658.8659" y="749.0905">*</text><!--MD5=[9023905e33852f54aab14668064e9227]
link usantatecla.mastermind.models.State to usantatecla.mastermind.models.StateValue--><path codeLine="43" d="M681.9311,290.2357 C681.9311,290.2357 680.561,349.076 679.948,375.362 " fill="none" id="usantatecla.mastermind.models.State-usantatecla.mastermind.models.StateValue" style="stroke:#A80036;stroke-width:1.0;"/><polygon fill="#A80036" points="679.638,388.661,683.8476,379.7571,679.755,383.6624,675.8498,379.5698,679.638,388.661" style="stroke:#A80036;stroke-width:1.0;"/><line style="stroke:#A80036;stroke-width:1.0;" x1="679.755" x2="679.9415" y1="383.6624" y2="375.6645"/><polygon fill="#A80036" points="682.212,278.239,678.0726,284.1437,681.9311,290.2357,686.0705,284.331,682.212,278.239" style="stroke:#A80036;stroke-width:1.0;"/><!--MD5=[c23eeff777e41be6162eb2a84ee1942c]
link Logic to usantatecla.mastermind.models.State--><path codeLine="44" d="M295.9917,54.4025 C295.9917,54.4025 300.071,54.85 301.5,55 C361.29,61.279 518.585,43.465 571.5,72 C605.344,90.251 631.899,123.658 650.641,154.221 " fill="none" id="Logic-usantatecla.mastermind.models.State" style="stroke:#A80036;stroke-width:1.0;"/><polygon fill="#A80036" points="657.44,165.758,656.3169,155.9734,654.9015,161.4503,649.4246,160.0349,657.44,165.758" style="stroke:#A80036;stroke-width:1.0;"/><line style="stroke:#A80036;stroke-width:1.0;" x1="654.9015" x2="650.839" y1="161.4503" y2="154.558"/><polygon fill="#A80036" points="284.069,53.043,289.5772,57.697,295.9917,54.4025,290.4835,49.7485,284.069,53.043" style="stroke:#A80036;stroke-width:1.0;"/><!--MD5=[c6d835791852251ba6c296f91366d48f]
link ProposalController to usantatecla.mastermind.models.State--><path codeLine="45" d="M1182.14,55.081 C1082.26,88.314 897.406,149.824 782.993,187.894 " fill="none" id="ProposalController-to-usantatecla.mastermind.models.State" style="stroke:#A80036;stroke-width:1.0;"/><polygon fill="#A80036" points="777.937,189.576,787.7395,190.53,782.6813,187.9974,785.2138,182.9392,777.937,189.576" style="stroke:#A80036;stroke-width:1.0;"/><!--MD5=[629b39562054981ecd9b74900e0dcf73]
link ResumeController to usantatecla.mastermind.models.State--><path codeLine="46" d="M546.966,55.081 C555.589,60.046 564.121,65.717 571.5,72 C601.325,97.395 627.986,132.088 647.807,161.608 " fill="none" id="ResumeController-to-usantatecla.mastermind.models.State" style="stroke:#A80036;stroke-width:1.0;"/><polygon fill="#A80036" points="650.681,165.924,649.0215,156.216,647.9095,161.7624,642.363,160.6504,650.681,165.924" style="stroke:#A80036;stroke-width:1.0;"/><!--MD5=[34066b31e951e1345f13d89412696dd3]
link StartController to usantatecla.mastermind.models.State--><path codeLine="47" d="M849.325,55.175 C822.885,81.615 778.638,125.862 742.496,162.004 " fill="none" id="StartController-to-usantatecla.mastermind.models.State" style="stroke:#A80036;stroke-width:1.0;"/><polygon fill="#A80036" points="738.579,165.921,747.7714,162.3855,742.1145,162.3855,742.1145,156.7286,738.579,165.921" style="stroke:#A80036;stroke-width:1.0;"/><!--MD5=[12c828a60891e76557ccb918ce156a05]
link usantatecla.mastermind.models.Game to usantatecla.mastermind.models.SecretCombination--><path codeLine="64" d="M336.873,338.0032 C336.873,338.0032 372.781,375.758 387.621,391.362 " fill="none" id="usantatecla.mastermind.models.Game-usantatecla.mastermind.models.SecretCombination" style="stroke:#A80036;stroke-width:1.0;"/><polygon fill="#A80036" points="396.996,401.22,393.6916,391.942,393.55,397.5971,387.8949,397.4556,396.996,401.22" style="stroke:#A80036;stroke-width:1.0;"/><line style="stroke:#A80036;stroke-width:1.0;" x1="393.55" x2="388.037" y1="397.5971" y2="391.8"/><polygon fill="#A80036" points="328.604,329.307,329.8398,336.4114,336.873,338.0032,335.6372,330.8988,328.604,329.307" style="stroke:#A80036;stroke-width:1.0;"/><!--MD5=[280ea308128396330f7bbc2193cef62d]
link usantatecla.mastermind.models.Game to usantatecla.mastermind.models.Result--><path codeLine="65" d="M218.2373,341.0753 C218.2373,341.0753 216.723,440.503 222.5,488 C224.375,503.418 227.542,519.699 231.134,535.159 " fill="none" id="usantatecla.mastermind.models.Game-usantatecla.mastermind.models.Result" style="stroke:#A80036;stroke-width:1.0;"/><polygon fill="#A80036" points="234.231,547.916,235.9946,538.2263,233.0513,543.0572,228.2205,540.1138,234.231,547.916" style="stroke:#A80036;stroke-width:1.0;"/><line style="stroke:#A80036;stroke-width:1.0;" x1="233.0513" x2="231.1635" y1="543.0572" y2="535.2825"/><polygon fill="#A80036" points="218.745,329.086,214.4947,334.9114,218.2373,341.0753,222.4876,335.2499,218.745,329.086" style="stroke:#A80036;stroke-width:1.0;"/><text fill="#000000" font-family="sans-serif" font-size="13" lengthAdjust="spacingAndGlyphs" textLength="23" x="207.789" y="536.897">0..*</text><!--MD5=[e6a772672154e2b4215389ae3fc2764d]
link usantatecla.mastermind.models.Game to usantatecla.mastermind.models.ProposedCombination--><path codeLine="66" d="M236.4545,341.0787 C236.4545,341.0787 259.725,444.856 287.5,488 C305.835,516.479 333.282,540.836 360.291,560.099 " fill="none" id="usantatecla.mastermind.models.Game-usantatecla.mastermind.models.ProposedCombination" style="stroke:#A80036;stroke-width:1.0;"/><polygon fill="#A80036" points="371.001,567.498,365.8703,559.0911,366.8874,564.6558,361.3227,565.6729,371.001,567.498" style="stroke:#A80036;stroke-width:1.0;"/><line style="stroke:#A80036;stroke-width:1.0;" x1="366.8874" x2="360.3055" y1="564.6558" y2="560.1085"/><polygon fill="#A80036" points="234.599,329.223,231.5749,335.7693,236.4545,341.0787,239.4786,334.5323,234.599,329.223" style="stroke:#A80036;stroke-width:1.0;"/><text fill="#000000" font-family="sans-serif" font-size="13" lengthAdjust="spacingAndGlyphs" textLength="23" x="333.9762" y="556.4937">0..*</text><!--MD5=[c8e3115d06e825a18a556418b72e64a9]
reverse link usantatecla.mastermind.models.Combination to usantatecla.mastermind.models.ProposedCombination--><path codeLine="73" d="M536.609,288.919 C570.031,343.273 603.893,421.901 575.5,488 C561.956,519.53 535.763,546.727 510.581,567.348 " fill="none" id="usantatecla.mastermind.models.Combination-backto-usantatecla.mastermind.models.ProposedCombination" style="stroke:#A80036;stroke-width:1.0;"/><polygon fill="none" points="530.544,292.43,525.618,271.821,542.321,284.859,530.544,292.43" style="stroke:#A80036;stroke-width:1.0;"/><!--MD5=[2ea52f716e2e11a1bf08ec742181724b]
link usantatecla.mastermind.models.ProposedCombination to usantatecla.mastermind.types.Color--><path codeLine="74" d="M479.293,653.869 C490.936,669.733 504.056,688.024 515.5,705 C523.811,717.329 532.371,730.516 540.624,743.515 " fill="none" id="usantatecla.mastermind.models.ProposedCombination-to-usantatecla.mastermind.types.Color" style="stroke:#A80036;stroke-width:1.0;stroke-dasharray:7.0,7.0;"/><polygon fill="#A80036" points="543.411,747.914,541.9743,738.1705,540.7355,743.6901,535.2159,742.4513,543.411,747.914" style="stroke:#A80036;stroke-width:1.0;"/><!--MD5=[c1581850849ed6ede223799cd35a067f]
reverse link usantatecla.mastermind.models.Combination to usantatecla.mastermind.models.SecretCombination--><path codeLine="80" d="M470.392,291.142 C460.672,327.722 449.082,371.336 441.097,401.384 " fill="none" id="usantatecla.mastermind.models.Combination-backto-usantatecla.mastermind.models.SecretCombination" style="stroke:#A80036;stroke-width:1.0;"/><polygon fill="none" points="463.664,289.205,475.566,271.673,477.195,292.8,463.664,289.205" style="stroke:#A80036;stroke-width:1.0;"/><!--MD5=[37df5b907d636f1fcade6857244b0a7e]
link usantatecla.mastermind.models.SecretCombination to usantatecla.mastermind.models.Result--><path codeLine="81" d="M393.539,475.553 C372.595,495.443 345.939,520.759 321.452,544.014 " fill="none" id="usantatecla.mastermind.models.SecretCombination-to-usantatecla.mastermind.models.Result" style="stroke:#A80036;stroke-width:1.0;stroke-dasharray:7.0,7.0;"/><polygon fill="#A80036" points="317.542,547.728,326.8227,544.4314,321.1678,544.2851,321.3141,538.6301,317.542,547.728" style="stroke:#A80036;stroke-width:1.0;"/><!--MD5=[be5e6334e25a1733719410e897fbe715]
link usantatecla.mastermind.models.SecretCombination to usantatecla.mastermind.models.ProposedCombination--><path codeLine="82" d="M434.893,475.553 C437.268,500.785 440.464,534.747 443.044,562.159 " fill="none" id="usantatecla.mastermind.models.SecretCombination-to-usantatecla.mastermind.models.ProposedCombination" style="stroke:#A80036;stroke-width:1.0;stroke-dasharray:7.0,7.0;"/><polygon fill="#A80036" points="443.519,567.198,446.6578,557.8627,443.0503,562.22,438.693,558.6125,443.519,567.198" style="stroke:#A80036;stroke-width:1.0;"/><!--MD5=[5ad286f9c8779d13f70a16acb15e8d92]
link usantatecla.mastermind.models.SecretCombination to usantatecla.mastermind.types.Color--><path codeLine="83" d="M489.611,475.718 C514.318,494.232 540.963,518.996 556.5,548 C588.457,607.655 596.437,684.39 596.996,742.517 " fill="none" id="usantatecla.mastermind.models.SecretCombination-to-usantatecla.mastermind.types.Color" style="stroke:#A80036;stroke-width:1.0;stroke-dasharray:7.0,7.0;"/><polygon fill="#A80036" points="597.027,747.729,600.9729,738.7052,596.997,742.7291,592.9731,738.7532,597.027,747.729" style="stroke:#A80036;stroke-width:1.0;"/><!--MD5=[6f6994a70a46872d34bd35a5dd21f76b]
link usantatecla.mastermind.models.Result to usantatecla.mastermind.models.Combination--><path codeLine="94" d="M247.938,547.732 C247.575,500.096 254.289,434.82 287.5,389 C321.796,341.683 359.328,366.075 404.5,329 C422.893,313.904 439.886,294.15 453.706,275.791 " fill="none" id="usantatecla.mastermind.models.Result-to-usantatecla.mastermind.models.Combination" style="stroke:#A80036;stroke-width:1.0;stroke-dasharray:7.0,7.0;"/><polygon fill="#A80036" points="456.787,271.652,448.2049,276.4839,453.8019,275.6631,454.6227,281.2601,456.787,271.652" style="stroke:#A80036;stroke-width:1.0;"/><!--MD5=[a6384fe489b9a23a16ed2d8008576f64]
@startuml
class Logic as "usantatecla.mastermind.controllers.Logic" {


}

class ResumeController as "usantatecla.mastermind.controllers.ResumeController" {


}

class StartController as "usantatecla.mastermind.controllers.StartController" {


}

class ProposalController as "usantatecla.mastermind.controllers.ProposalController" {


}

class usantatecla.mastermind.models.State {
    - stateValue: StateValue
    + state()
    + next()
    + reset()
    + getValueState(): StateValue
}

enum usantatecla.mastermind.models.StateValue {
    + INITIAL
    + IN_GAME
    + FINAL
    + EXIT
} 

abstract class usantatecla.mastermind.models.Combination {
- {static} WIDTH: int
# colors: List<Color>
# Combination()
+ {static} getWidth(): int
}
usantatecla.mastermind.models.Combination *-down-> "*" usantatecla.mastermind.types.Color
usantatecla.mastermind.models.State *-down-> usantatecla.mastermind.models.StateValue
Logic *-down-> usantatecla.mastermind.models.State
ProposalController -down-> usantatecla.mastermind.models.State
ResumeController -down-> usantatecla.mastermind.models.State
StartController -down-> usantatecla.mastermind.models.State

class usantatecla.mastermind.models.Game {
- {static} MAX_LONG: int
- secretCombination: SecretCombination
- proposedCombination: List<ProposedCombination>
- results: List<Result>
- attempts: int
+ Game()
+ clear()
+ addProposeCombination(ProposedCombination)
+ isLooser(): boolean
+ isWinner(): boolean
+ getAttempts(): int
+ getProposedCombination(int): ProposedCombination
+ getResult(int): Result
}
usantatecla.mastermind.models.Game *-down-> usantatecla.mastermind.models.SecretCombination
usantatecla.mastermind.models.Game *-down-> "0..*" usantatecla.mastermind.models.Result
usantatecla.mastermind.models.Game *-down-> "0..*" usantatecla.mastermind.models.ProposedCombination

class usantatecla.mastermind.models.ProposedCombination {
~ contains(Color, int): boolean
~ contains(Color): boolean
+ getColors(): List<Color>
}
usantatecla.mastermind.models.Combination <|-down- usantatecla.mastermind.models.ProposedCombination
usantatecla.mastermind.models.ProposedCombination ..> usantatecla.mastermind.types.Color

class usantatecla.mastermind.models.SecretCombination {
~ SecretCombination()
~ getResult(ProposedCombination): Result
}
usantatecla.mastermind.models.Combination <|-down- usantatecla.mastermind.models.SecretCombination
usantatecla.mastermind.models.SecretCombination ..> usantatecla.mastermind.models.Result
usantatecla.mastermind.models.SecretCombination ..> usantatecla.mastermind.models.ProposedCombination
usantatecla.mastermind.models.SecretCombination ..> usantatecla.mastermind.types.Color

class usantatecla.mastermind.models.Result {
- blacks: int
- whites: int
~ Result(int, int)
~ isWinner(): boolean
+ getBlacks(): int
+ getWhites(): int
}

usantatecla.mastermind.models.Result -down..> usantatecla.mastermind.models.Combination

enum usantatecla.mastermind.types.Color {
+ RED
+ BLUE
+ YELLOW
+ GREEN
+ ORANGE
+ PURPLE
+ NULL
~ {static} length(): int
+ isNull(): boolean
}

enum usantatecla.mastermind.types.Error {
+ DUPLICATED
+ WRONG_CHARACTERS
+ WRONG_LENGTH
+ NULL
+ isNull(): boolean
}
@enduml

PlantUML version 1.2020.22beta2(Unknown compile time)
(GPL source distribution)
Java Runtime: Java(TM) SE Runtime Environment
JVM: Java HotSpot(TM) 64-Bit Server VM
Default Encoding: UTF-8
Language: en
Country: US
--></g></svg>