<?xml version="1.0" encoding="UTF-8" standalone="no"?><svg xmlns="http://www.w3.org/2000/svg" xmlns:xlink="http://www.w3.org/1999/xlink" contentScriptType="application/ecmascript" contentStyleType="text/css" height="299px" preserveAspectRatio="none" style="width:398px;height:299px;" version="1.1" viewBox="0 0 398 299" width="398px" zoomAndPan="magnify"><defs><filter height="300%" id="f13bdz2mzqjujo" width="300%" x="-1" y="-1"><feGaussianBlur result="blurOut" stdDeviation="2.0"/><feColorMatrix in="blurOut" result="blurOut2" type="matrix" values="0 0 0 0 0 0 0 0 0 0 0 0 0 0 0 0 0 0 .4 0"/><feOffset dx="4.0" dy="4.0" in="blurOut2" result="blurOut3"/><feBlend in="SourceGraphic" in2="blurOut3" mode="normal"/></filter></defs><g><!--MD5=[9be0839337cfdab5d118a2e29cf0a8c4]
cluster usantatecla.mastermind--><polygon fill="#FFFFFF" filter="url(#f13bdz2mzqjujo)" points="82,6,289,6,296,28.2969,299,28.2969,299,169,82,169,82,6" style="stroke: #000000; stroke-width: 1.5;"/><line style="stroke: #000000; stroke-width: 1.5;" x1="82" x2="296" y1="28.2969" y2="28.2969"/><text fill="#000000" font-family="sans-serif" font-size="14" font-weight="bold" lengthAdjust="spacingAndGlyphs" textLength="201" x="86" y="20.9951">usantatecla.mastermind</text><!--MD5=[57ab11106b6017d1c059bb8de6501622]
cluster mastermind.views--><polygon fill="#FFFFFF" filter="url(#f13bdz2mzqjujo)" points="16,193,170,193,177,215.2969,180,215.2969,180,292,16,292,16,193" style="stroke: #000000; stroke-width: 1.5;"/><line style="stroke: #000000; stroke-width: 1.5;" x1="16" x2="177" y1="215.2969" y2="215.2969"/><text fill="#000000" font-family="sans-serif" font-size="14" font-weight="bold" lengthAdjust="spacingAndGlyphs" textLength="148" x="20" y="207.9951">mastermind.views</text><!--MD5=[8e0b9655f0966c29230933410523611d]
cluster mastermind.models--><polygon fill="#FFFFFF" filter="url(#f13bdz2mzqjujo)" points="204,193,371,193,378,215.2969,381,215.2969,381,292,204,292,204,193" style="stroke: #000000; stroke-width: 1.5;"/><line style="stroke: #000000; stroke-width: 1.5;" x1="204" x2="378" y1="215.2969" y2="215.2969"/><text fill="#000000" font-family="sans-serif" font-size="14" font-weight="bold" lengthAdjust="spacingAndGlyphs" textLength="161" x="208" y="207.9951">mastermind.models</text><!--MD5=[904099970a9cea29a476bd38c8d887ee]
class usantatecla.mastermind.Mastermind--><rect codeLine="1" fill="#FEFECE" filter="url(#f13bdz2mzqjujo)" height="112.0234" id="usantatecla.mastermind.Mastermind" style="stroke: #A80036; stroke-width: 1.5;" width="134" x="123" y="41"/><ellipse cx="152.4" cy="57" fill="#ADD1B2" rx="11" ry="11" style="stroke: #A80036; stroke-width: 1.0;"/><path d="M154.7438,52.6719 C153.8063,52.2344 153.2125,52.0938 152.3375,52.0938 C149.7125,52.0938 147.7125,54.1719 147.7125,56.8906 L147.7125,58.0156 C147.7125,60.5938 149.8219,62.4844 152.7125,62.4844 C153.9313,62.4844 155.0875,62.1875 155.8375,61.6406 C156.4156,61.2344 156.7438,60.7813 156.7438,60.3906 C156.7438,59.9375 156.3531,59.5469 155.8844,59.5469 C155.6656,59.5469 155.4625,59.625 155.275,59.8125 C154.8219,60.2969 154.8219,60.2969 154.6344,60.3906 C154.2125,60.6563 153.525,60.7813 152.7594,60.7813 C150.7125,60.7813 149.4156,59.6875 149.4156,57.9844 L149.4156,56.8906 C149.4156,55.1094 150.6656,53.7969 152.4,53.7969 C152.9781,53.7969 153.5875,53.9531 154.0563,54.2031 C154.5406,54.4844 154.7125,54.7031 154.8063,55.1094 C154.8688,55.5156 154.9,55.6406 155.0406,55.7656 C155.1813,55.9063 155.4156,56.0156 155.6344,56.0156 C155.9,56.0156 156.1656,55.875 156.3375,55.6563 C156.4469,55.5 156.4781,55.3125 156.4781,54.8906 L156.4781,53.4688 C156.4781,53.0313 156.4625,52.9063 156.3688,52.75 C156.2125,52.4844 155.9313,52.3438 155.6344,52.3438 C155.3375,52.3438 155.1344,52.4375 154.9156,52.75 L154.7438,52.6719 Z " fill="#000000"/><text fill="#000000" font-family="sans-serif" font-size="12" lengthAdjust="spacingAndGlyphs" textLength="70" x="169.6" y="61.1543">Mastermind</text><line style="stroke: #A80036; stroke-width: 1.5;" x1="124" x2="256" y1="73" y2="73"/><rect fill="none" height="6" style="stroke: #C82930; stroke-width: 1.0;" width="6" x="131" y="81"/><text fill="#000000" font-family="sans-serif" font-size="11" lengthAdjust="spacingAndGlyphs" textLength="75" x="143" y="87.2104">game: Game</text><rect fill="none" height="6" style="stroke: #C82930; stroke-width: 1.0;" width="6" x="131" y="93.8047"/><text fill="#000000" font-family="sans-serif" font-size="11" lengthAdjust="spacingAndGlyphs" textLength="62" x="143" y="100.0151">view: View</text><line style="stroke: #A80036; stroke-width: 1.5;" x1="124" x2="256" y1="106.6094" y2="106.6094"/><rect fill="#F24D5C" height="6" style="stroke: #C82930; stroke-width: 1.0;" width="6" x="131" y="114.6094"/><text fill="#000000" font-family="sans-serif" font-size="11" lengthAdjust="spacingAndGlyphs" textLength="74" x="143" y="120.8198">Mastermind()</text><ellipse cx="134" cy="130.4141" fill="#84BE84" rx="3" ry="3" style="stroke: #038048; stroke-width: 1.0;"/><text fill="#000000" font-family="sans-serif" font-size="11" lengthAdjust="spacingAndGlyphs" text-decoration="underline" textLength="108" x="143" y="133.6245">main(String[]): void</text><rect fill="#F24D5C" height="6" style="stroke: #C82930; stroke-width: 1.0;" width="6" x="131" y="140.2188"/><text fill="#000000" font-family="sans-serif" font-size="11" lengthAdjust="spacingAndGlyphs" textLength="63" x="143" y="146.4292">play(): void</text><!--MD5=[904c44326bfc30ddc4fe4077c1b9164d]
class mastermind.views.View--><rect fill="#FEFECE" filter="url(#f13bdz2mzqjujo)" height="48" id="mastermind.views.View" style="stroke: #A80036; stroke-width: 1.5;" width="61" x="102.5" y="228"/><ellipse cx="117.5" cy="244" fill="#ADD1B2" rx="11" ry="11" style="stroke: #A80036; stroke-width: 1.0;"/><path d="M119.8438,239.6719 C118.9063,239.2344 118.3125,239.0938 117.4375,239.0938 C114.8125,239.0938 112.8125,241.1719 112.8125,243.8906 L112.8125,245.0156 C112.8125,247.5938 114.9219,249.4844 117.8125,249.4844 C119.0313,249.4844 120.1875,249.1875 120.9375,248.6406 C121.5156,248.2344 121.8438,247.7813 121.8438,247.3906 C121.8438,246.9375 121.4531,246.5469 120.9844,246.5469 C120.7656,246.5469 120.5625,246.625 120.375,246.8125 C119.9219,247.2969 119.9219,247.2969 119.7344,247.3906 C119.3125,247.6563 118.625,247.7813 117.8594,247.7813 C115.8125,247.7813 114.5156,246.6875 114.5156,244.9844 L114.5156,243.8906 C114.5156,242.1094 115.7656,240.7969 117.5,240.7969 C118.0781,240.7969 118.6875,240.9531 119.1563,241.2031 C119.6406,241.4844 119.8125,241.7031 119.9063,242.1094 C119.9688,242.5156 120,242.6406 120.1406,242.7656 C120.2813,242.9063 120.5156,243.0156 120.7344,243.0156 C121,243.0156 121.2656,242.875 121.4375,242.6563 C121.5469,242.5 121.5781,242.3125 121.5781,241.8906 L121.5781,240.4688 C121.5781,240.0313 121.5625,239.9063 121.4688,239.75 C121.3125,239.4844 121.0313,239.3438 120.7344,239.3438 C120.4375,239.3438 120.2344,239.4375 120.0156,239.75 L119.8438,239.6719 Z " fill="#000000"/><text fill="#000000" font-family="sans-serif" font-size="12" lengthAdjust="spacingAndGlyphs" textLength="29" x="131.5" y="248.1543">View</text><line style="stroke: #A80036; stroke-width: 1.5;" x1="103.5" x2="162.5" y1="260" y2="260"/><line style="stroke: #A80036; stroke-width: 1.5;" x1="103.5" x2="162.5" y1="268" y2="268"/><!--MD5=[5e669b60aaac1a014a32b452096260f0]
class mastermind.models.Game--><rect fill="#FEFECE" filter="url(#f13bdz2mzqjujo)" height="48" id="mastermind.models.Game" style="stroke: #A80036; stroke-width: 1.5;" width="67" x="220.5" y="228"/><ellipse cx="235.5" cy="244" fill="#ADD1B2" rx="11" ry="11" style="stroke: #A80036; stroke-width: 1.0;"/><path d="M237.8438,239.6719 C236.9063,239.2344 236.3125,239.0938 235.4375,239.0938 C232.8125,239.0938 230.8125,241.1719 230.8125,243.8906 L230.8125,245.0156 C230.8125,247.5938 232.9219,249.4844 235.8125,249.4844 C237.0313,249.4844 238.1875,249.1875 238.9375,248.6406 C239.5156,248.2344 239.8438,247.7813 239.8438,247.3906 C239.8438,246.9375 239.4531,246.5469 238.9844,246.5469 C238.7656,246.5469 238.5625,246.625 238.375,246.8125 C237.9219,247.2969 237.9219,247.2969 237.7344,247.3906 C237.3125,247.6563 236.625,247.7813 235.8594,247.7813 C233.8125,247.7813 232.5156,246.6875 232.5156,244.9844 L232.5156,243.8906 C232.5156,242.1094 233.7656,240.7969 235.5,240.7969 C236.0781,240.7969 236.6875,240.9531 237.1563,241.2031 C237.6406,241.4844 237.8125,241.7031 237.9063,242.1094 C237.9688,242.5156 238,242.6406 238.1406,242.7656 C238.2813,242.9063 238.5156,243.0156 238.7344,243.0156 C239,243.0156 239.2656,242.875 239.4375,242.6563 C239.5469,242.5 239.5781,242.3125 239.5781,241.8906 L239.5781,240.4688 C239.5781,240.0313 239.5625,239.9063 239.4688,239.75 C239.3125,239.4844 239.0313,239.3438 238.7344,239.3438 C238.4375,239.3438 238.2344,239.4375 238.0156,239.75 L237.8438,239.6719 Z " fill="#000000"/><text fill="#000000" font-family="sans-serif" font-size="12" lengthAdjust="spacingAndGlyphs" textLength="35" x="249.5" y="248.1543">Game</text><line style="stroke: #A80036; stroke-width: 1.5;" x1="221.5" x2="286.5" y1="260" y2="260"/><line style="stroke: #A80036; stroke-width: 1.5;" x1="221.5" x2="286.5" y1="268" y2="268"/><!--MD5=[9425ba4ce87773fd2f2321a2908c7169]
link usantatecla.mastermind.Mastermind to mastermind.views.View--><path codeLine="9" d="M165.2328,164.482 C165.2328,164.482 151.769,200.621 146.21,215.5428 " fill="none" id="usantatecla.mastermind.Mastermind-mastermind.views.View" style="stroke: #A80036; stroke-width: 1.0;"/><polygon fill="#A80036" points="141.642,227.8042,148.5322,220.7668,143.3875,223.1188,141.0356,217.974,141.642,227.8042" style="stroke: #A80036; stroke-width: 1.0;"/><line style="stroke: #A80036; stroke-width: 1.0;" x1="143.3875" x2="146.18" y1="223.1188" y2="215.6221"/><polygon fill="#A80036" points="169.422,153.237,163.5791,157.4631,165.2328,164.482,171.0757,160.2559,169.422,153.237" style="stroke: #A80036; stroke-width: 1.0;"/><!--MD5=[d8c4e40da54796982fa16566992a03ff]
link usantatecla.mastermind.Mastermind to mastermind.models.Game--><path codeLine="10" d="M217.7351,164.3078 C217.7351,164.3078 232.926,200.621 239.168,215.5428 " fill="none" id="usantatecla.mastermind.Mastermind-mastermind.models.Game" style="stroke: #A80036; stroke-width: 1.0;"/><polygon fill="#A80036" points="244.297,227.8042,244.514,217.9577,242.3675,223.1915,237.1337,221.045,244.297,227.8042" style="stroke: #A80036; stroke-width: 1.0;"/><line style="stroke: #A80036; stroke-width: 1.0;" x1="242.3675" x2="239.2805" y1="223.1915" y2="215.8112"/><polygon fill="#A80036" points="213.105,153.237,211.7298,160.3158,217.7351,164.3078,219.1103,157.229,213.105,153.237" style="stroke: #A80036; stroke-width: 1.0;"/><!--MD5=[033762a06daf5470c8cb93151a9c89b1]
@startuml
class usantatecla.mastermind.Mastermind{
- game: Game
- view: View
- Mastermind()
+ {static} main(String[]): void
- play(): void
}

usantatecla.mastermind.Mastermind *-down-> mastermind.views.View
usantatecla.mastermind.Mastermind *-down-> mastermind.models.Game
@enduml

PlantUML version 1.2020.20beta8(Unknown compile time)
(GPL source distribution)
Java Runtime: Java(TM) SE Runtime Environment
JVM: Java HotSpot(TM) 64-Bit Server VM
Default Encoding: UTF-8
Language: en
Country: US
--></g></svg>