<?xml version="1.0" encoding="UTF-8" standalone="no"?><svg xmlns="http://www.w3.org/2000/svg" xmlns:xlink="http://www.w3.org/1999/xlink" contentScriptType="application/ecmascript" contentStyleType="text/css" height="917px" preserveAspectRatio="none" style="width:1771px;height:917px;" version="1.1" viewBox="0 0 1771 917" width="1771px" zoomAndPan="magnify"><defs><filter height="300%" id="fzq0cti2e4wf9" width="300%" x="-1" y="-1"><feGaussianBlur result="blurOut" stdDeviation="2.0"/><feColorMatrix in="blurOut" result="blurOut2" type="matrix" values="0 0 0 0 0 0 0 0 0 0 0 0 0 0 0 0 0 0 .4 0"/><feOffset dx="4.0" dy="4.0" in="blurOut2" result="blurOut3"/><feBlend in="SourceGraphic" in2="blurOut3" mode="normal"/></filter></defs><g><!--MD5=[57ab11106b6017d1c059bb8de6501622]
cluster mastermind.views--><polygon fill="#FFFFFF" filter="url(#fzq0cti2e4wf9)" points="482,6,636,6,643,28.2969,1460,28.2969,1460,787,482,787,482,6" style="stroke: #000000; stroke-width: 1.5;"/><line style="stroke: #000000; stroke-width: 1.5;" x1="482" x2="643" y1="28.2969" y2="28.2969"/><text fill="#000000" font-family="sans-serif" font-size="14" font-weight="bold" lengthAdjust="spacingAndGlyphs" textLength="148" x="486" y="20.9951">mastermind.views</text><!--MD5=[f2bedc297083edee028363469990e0f1]
cluster mastermind.utils--><polygon fill="#FFFFFF" filter="url(#fzq0cti2e4wf9)" points="16,216.5,162,216.5,169,238.7969,458,238.7969,458,315.5,16,315.5,16,216.5" style="stroke: #000000; stroke-width: 1.5;"/><line style="stroke: #000000; stroke-width: 1.5;" x1="16" x2="169" y1="238.7969" y2="238.7969"/><text fill="#000000" font-family="sans-serif" font-size="14" font-weight="bold" lengthAdjust="spacingAndGlyphs" textLength="140" x="20" y="231.4951">mastermind.utils</text><!--MD5=[8e0b9655f0966c29230933410523611d]
cluster mastermind.models--><polygon fill="#FFFFFF" filter="url(#fzq0cti2e4wf9)" points="1199,811,1366,811,1373,833.2969,1698,833.2969,1698,910,1199,910,1199,811" style="stroke: #000000; stroke-width: 1.5;"/><line style="stroke: #000000; stroke-width: 1.5;" x1="1199" x2="1373" y1="833.2969" y2="833.2969"/><text fill="#000000" font-family="sans-serif" font-size="14" font-weight="bold" lengthAdjust="spacingAndGlyphs" textLength="161" x="1203" y="825.9951">mastermind.models</text><!--MD5=[daba0edef7c2b2303027ed075b2f09fd]
class mastermind.views.ColorView--><rect codeLine="1" fill="#FEFECE" filter="url(#fzq0cti2e4wf9)" height="124.8281" id="mastermind.views.ColorView" style="stroke: #A80036; stroke-width: 1.5;" width="161" x="571.5" y="595"/><ellipse cx="617.25" cy="611" fill="#ADD1B2" rx="11" ry="11" style="stroke: #A80036; stroke-width: 1.0;"/><path d="M619.5938,606.6719 C618.6563,606.2344 618.0625,606.0938 617.1875,606.0938 C614.5625,606.0938 612.5625,608.1719 612.5625,610.8906 L612.5625,612.0156 C612.5625,614.5938 614.6719,616.4844 617.5625,616.4844 C618.7813,616.4844 619.9375,616.1875 620.6875,615.6406 C621.2656,615.2344 621.5938,614.7813 621.5938,614.3906 C621.5938,613.9375 621.2031,613.5469 620.7344,613.5469 C620.5156,613.5469 620.3125,613.625 620.125,613.8125 C619.6719,614.2969 619.6719,614.2969 619.4844,614.3906 C619.0625,614.6563 618.375,614.7813 617.6094,614.7813 C615.5625,614.7813 614.2656,613.6875 614.2656,611.9844 L614.2656,610.8906 C614.2656,609.1094 615.5156,607.7969 617.25,607.7969 C617.8281,607.7969 618.4375,607.9531 618.9063,608.2031 C619.3906,608.4844 619.5625,608.7031 619.6563,609.1094 C619.7188,609.5156 619.75,609.6406 619.8906,609.7656 C620.0313,609.9063 620.2656,610.0156 620.4844,610.0156 C620.75,610.0156 621.0156,609.875 621.1875,609.6563 C621.2969,609.5 621.3281,609.3125 621.3281,608.8906 L621.3281,607.4688 C621.3281,607.0313 621.3125,606.9063 621.2188,606.75 C621.0625,606.4844 620.7813,606.3438 620.4844,606.3438 C620.1875,606.3438 619.9844,606.4375 619.7656,606.75 L619.5938,606.6719 Z "/><text fill="#000000" font-family="sans-serif" font-size="12" lengthAdjust="spacingAndGlyphs" textLength="61" x="637.75" y="615.1543">ColorView</text><line style="stroke: #A80036; stroke-width: 1.5;" x1="572.5" x2="731.5" y1="627" y2="627"/><rect fill="none" height="6" style="stroke: #C82930; stroke-width: 1.0;" width="6" x="579.5" y="635"/><text fill="#000000" font-family="sans-serif" font-size="11" lengthAdjust="spacingAndGlyphs" text-decoration="underline" textLength="89" x="591.5" y="641.2104">INITIALS: char []</text><rect fill="none" height="6" style="stroke: #C82930; stroke-width: 1.0;" width="6" x="579.5" y="647.8047"/><text fill="#000000" font-family="sans-serif" font-size="11" lengthAdjust="spacingAndGlyphs" textLength="63" x="591.5" y="654.0151">color: Color</text><line style="stroke: #A80036; stroke-width: 1.5;" x1="572.5" x2="731.5" y1="660.6094" y2="660.6094"/><polygon fill="#4177AF" points="582.5,667.6094,578.5,673.6094,586.5,673.6094" style="stroke: #1963A0; stroke-width: 1.0;"/><text fill="#000000" font-family="sans-serif" font-size="11" lengthAdjust="spacingAndGlyphs" textLength="94" x="591.5" y="674.8198">ColorView(Color)</text><polygon fill="#4177AF" points="582.5,680.4141,578.5,686.4141,586.5,686.4141" style="stroke: #1963A0; stroke-width: 1.0;"/><text fill="#000000" font-family="sans-serif" font-size="11" lengthAdjust="spacingAndGlyphs" text-decoration="underline" textLength="97" x="591.5" y="687.6245">allInitials(): String</text><polygon fill="#4177AF" points="582.5,693.2188,578.5,699.2188,586.5,699.2188" style="stroke: #1963A0; stroke-width: 1.0;"/><text fill="#000000" font-family="sans-serif" font-size="11" lengthAdjust="spacingAndGlyphs" text-decoration="underline" textLength="135" x="591.5" y="700.4292">getInstance(char): Color</text><polygon fill="#4177AF" points="582.5,706.0234,578.5,712.0234,586.5,712.0234" style="stroke: #1963A0; stroke-width: 1.0;"/><text fill="#000000" font-family="sans-serif" font-size="11" lengthAdjust="spacingAndGlyphs" textLength="36" x="591.5" y="713.2339">write()</text><!--MD5=[ee236011c866e79872d7eb09821c7fe9]
class mastermind.views.ErrorView--><rect codeLine="11" fill="#FEFECE" filter="url(#fzq0cti2e4wf9)" height="99.2188" id="mastermind.views.ErrorView" style="stroke: #A80036; stroke-width: 1.5;" width="145" x="841.5" y="385"/><ellipse cx="880.8" cy="401" fill="#ADD1B2" rx="11" ry="11" style="stroke: #A80036; stroke-width: 1.0;"/><path d="M883.1438,396.6719 C882.2063,396.2344 881.6125,396.0938 880.7375,396.0938 C878.1125,396.0938 876.1125,398.1719 876.1125,400.8906 L876.1125,402.0156 C876.1125,404.5938 878.2219,406.4844 881.1125,406.4844 C882.3313,406.4844 883.4875,406.1875 884.2375,405.6406 C884.8156,405.2344 885.1438,404.7813 885.1438,404.3906 C885.1438,403.9375 884.7531,403.5469 884.2844,403.5469 C884.0656,403.5469 883.8625,403.625 883.675,403.8125 C883.2219,404.2969 883.2219,404.2969 883.0344,404.3906 C882.6125,404.6563 881.925,404.7813 881.1594,404.7813 C879.1125,404.7813 877.8156,403.6875 877.8156,401.9844 L877.8156,400.8906 C877.8156,399.1094 879.0656,397.7969 880.8,397.7969 C881.3781,397.7969 881.9875,397.9531 882.4563,398.2031 C882.9406,398.4844 883.1125,398.7031 883.2063,399.1094 C883.2688,399.5156 883.3,399.6406 883.4406,399.7656 C883.5813,399.9063 883.8156,400.0156 884.0344,400.0156 C884.3,400.0156 884.5656,399.875 884.7375,399.6563 C884.8469,399.5 884.8781,399.3125 884.8781,398.8906 L884.8781,397.4688 C884.8781,397.0313 884.8625,396.9063 884.7688,396.75 C884.6125,396.4844 884.3313,396.3438 884.0344,396.3438 C883.7375,396.3438 883.5344,396.4375 883.3156,396.75 L883.1438,396.6719 Z "/><text fill="#000000" font-family="sans-serif" font-size="12" lengthAdjust="spacingAndGlyphs" textLength="59" x="900.2" y="405.1543">ErrorView</text><line style="stroke: #A80036; stroke-width: 1.5;" x1="842.5" x2="985.5" y1="417" y2="417"/><rect fill="none" height="6" style="stroke: #C82930; stroke-width: 1.0;" width="6" x="849.5" y="425"/><text fill="#000000" font-family="sans-serif" font-size="11" lengthAdjust="spacingAndGlyphs" text-decoration="underline" textLength="116" x="861.5" y="431.2104">MESSAGES: String []</text><rect fill="none" height="6" style="stroke: #C82930; stroke-width: 1.0;" width="6" x="849.5" y="437.8047"/><text fill="#000000" font-family="sans-serif" font-size="11" lengthAdjust="spacingAndGlyphs" textLength="60" x="861.5" y="444.0151">error: Error</text><line style="stroke: #A80036; stroke-width: 1.5;" x1="842.5" x2="985.5" y1="450.6094" y2="450.6094"/><polygon fill="#4177AF" points="852.5,457.6094,848.5,463.6094,856.5,463.6094" style="stroke: #1963A0; stroke-width: 1.0;"/><text fill="#000000" font-family="sans-serif" font-size="11" lengthAdjust="spacingAndGlyphs" textLength="119" x="861.5" y="464.8198">ErrorView(Error error)</text><polygon fill="#4177AF" points="852.5,470.4141,848.5,476.4141,856.5,476.4141" style="stroke: #1963A0; stroke-width: 1.0;"/><text fill="#000000" font-family="sans-serif" font-size="11" lengthAdjust="spacingAndGlyphs" textLength="46" x="861.5" y="477.6245">writeln()</text><!--MD5=[716d7df7e3500a9f49a27aeed588132e]
class mastermind.views.MessageView--><rect codeLine="20" fill="#FEFECE" filter="url(#fzq0cti2e4wf9)" height="227.2656" id="mastermind.views.MessageView" style="stroke: #A80036; stroke-width: 1.5;" width="259" x="952.5" y="544"/><ellipse cx="1035.75" cy="560" fill="#EB937F" rx="11" ry="11" style="stroke: #A80036; stroke-width: 1.0;"/><path d="M1034.5469,560.875 L1036,560.875 L1036,560.9844 C1036,561.3906 1036.0313,561.5469 1036.1094,561.7031 C1036.2656,561.9531 1036.5469,562.1094 1036.8438,562.1094 C1037.0938,562.1094 1037.3594,561.9688 1037.5156,561.75 C1037.6406,561.5938 1037.6719,561.4375 1037.6719,560.9844 L1037.6719,559.0625 C1037.6719,558.9063 1037.6719,558.8594 1037.6563,558.7031 C1037.5938,558.2344 1037.2813,557.9219 1036.8281,557.9219 C1036.5781,557.9219 1036.3125,558.0625 1036.1406,558.2813 C1036.0313,558.4531 1036,558.6094 1036,559.0625 L1036,559.1875 L1034.5469,559.1875 L1034.5469,556.7813 L1038.5313,556.7813 L1038.5313,557.6406 C1038.5313,558.0469 1038.5625,558.2188 1038.6406,558.375 C1038.8125,558.625 1039.0938,558.7813 1039.375,558.7813 C1039.6406,558.7813 1039.9063,558.6406 1040.0781,558.4219 C1040.1875,558.25 1040.2188,558.1094 1040.2188,557.6406 L1040.2188,555.0938 L1032.5938,555.0938 C1032.1563,555.0938 1032.0313,555.1094 1031.875,555.2031 C1031.625,555.3594 1031.4688,555.6563 1031.4688,555.9375 C1031.4688,556.2188 1031.6094,556.4688 1031.8281,556.6406 C1031.9844,556.75 1032.1719,556.7813 1032.5938,556.7813 L1032.8438,556.7813 L1032.8438,563.2969 L1032.5938,563.2969 C1032.1875,563.2969 1032.0313,563.3125 1031.875,563.4219 C1031.625,563.5938 1031.4688,563.8594 1031.4688,564.1563 C1031.4688,564.4219 1031.6094,564.6719 1031.8281,564.8281 C1031.9688,564.9531 1032.2031,565 1032.5938,565 L1040.5938,565 L1040.5938,562.4219 C1040.5938,561.9844 1040.5625,561.8438 1040.4844,561.6875 C1040.3125,561.4375 1040.0313,561.2813 1039.75,561.2813 C1039.4844,561.2813 1039.2188,561.3906 1039.0469,561.6406 C1038.9375,561.7969 1038.9063,561.9375 1038.9063,562.4219 L1038.9063,563.2969 L1034.5469,563.2969 L1034.5469,560.875 Z "/><text fill="#000000" font-family="sans-serif" font-size="12" lengthAdjust="spacingAndGlyphs" textLength="84" x="1056.25" y="564.1543">MessageView</text><line style="stroke: #A80036; stroke-width: 1.5;" x1="953.5" x2="1210.5" y1="576" y2="576"/><ellipse cx="963.5" cy="587" fill="none" rx="3" ry="3" style="stroke: #038048; stroke-width: 1.0;"/><text fill="#000000" font-family="sans-serif" font-size="11" lengthAdjust="spacingAndGlyphs" text-decoration="underline" textLength="145" x="972.5" y="590.2104">ATTEMPTS: MessageView</text><ellipse cx="963.5" cy="599.8047" fill="none" rx="3" ry="3" style="stroke: #038048; stroke-width: 1.0;"/><text fill="#000000" font-family="sans-serif" font-size="11" lengthAdjust="spacingAndGlyphs" text-decoration="underline" textLength="216" x="972.5" y="603.0151">SECRET_COMBINATION: MessageView</text><ellipse cx="963.5" cy="612.6094" fill="none" rx="3" ry="3" style="stroke: #038048; stroke-width: 1.0;"/><text fill="#000000" font-family="sans-serif" font-size="11" lengthAdjust="spacingAndGlyphs" text-decoration="underline" textLength="132" x="972.5" y="615.8198">RESUME: MessageView</text><ellipse cx="963.5" cy="625.4141" fill="none" rx="3" ry="3" style="stroke: #038048; stroke-width: 1.0;"/><text fill="#000000" font-family="sans-serif" font-size="11" lengthAdjust="spacingAndGlyphs" text-decoration="underline" textLength="129" x="972.5" y="628.6245">RESULT: MessageView</text><ellipse cx="963.5" cy="638.2188" fill="none" rx="3" ry="3" style="stroke: #038048; stroke-width: 1.0;"/><text fill="#000000" font-family="sans-serif" font-size="11" lengthAdjust="spacingAndGlyphs" text-decoration="underline" textLength="233" x="972.5" y="641.4292">PROPOSED_COMBINATION: MessageView</text><ellipse cx="963.5" cy="651.0234" fill="none" rx="3" ry="3" style="stroke: #038048; stroke-width: 1.0;"/><text fill="#000000" font-family="sans-serif" font-size="11" lengthAdjust="spacingAndGlyphs" text-decoration="underline" textLength="116" x="972.5" y="654.2339">TITLE: MessageView</text><ellipse cx="963.5" cy="663.8281" fill="none" rx="3" ry="3" style="stroke: #038048; stroke-width: 1.0;"/><text fill="#000000" font-family="sans-serif" font-size="11" lengthAdjust="spacingAndGlyphs" text-decoration="underline" textLength="130" x="972.5" y="667.0386">WINNER: MessageView</text><ellipse cx="963.5" cy="676.6328" fill="none" rx="3" ry="3" style="stroke: #038048; stroke-width: 1.0;"/><text fill="#000000" font-family="sans-serif" font-size="11" lengthAdjust="spacingAndGlyphs" text-decoration="underline" textLength="132" x="972.5" y="679.8433">LOOSER: MessageView</text><rect fill="none" height="6" style="stroke: #C82930; stroke-width: 1.0;" width="6" x="960.5" y="686.4375"/><text fill="#000000" font-family="sans-serif" font-size="11" lengthAdjust="spacingAndGlyphs" textLength="93" x="972.5" y="692.6479">message: String</text><line style="stroke: #A80036; stroke-width: 1.5;" x1="953.5" x2="1210.5" y1="699.2422" y2="699.2422"/><polygon fill="#4177AF" points="963.5,706.2422,959.5,712.2422,967.5,712.2422" style="stroke: #1963A0; stroke-width: 1.0;"/><text fill="#000000" font-family="sans-serif" font-size="11" lengthAdjust="spacingAndGlyphs" textLength="120" x="972.5" y="713.4526">MessageView(String)</text><polygon fill="#4177AF" points="963.5,719.0469,959.5,725.0469,967.5,725.0469" style="stroke: #1963A0; stroke-width: 1.0;"/><text fill="#000000" font-family="sans-serif" font-size="11" lengthAdjust="spacingAndGlyphs" textLength="36" x="972.5" y="726.2573">write()</text><polygon fill="#4177AF" points="963.5,731.8516,959.5,737.8516,967.5,737.8516" style="stroke: #1963A0; stroke-width: 1.0;"/><text fill="#000000" font-family="sans-serif" font-size="11" lengthAdjust="spacingAndGlyphs" textLength="46" x="972.5" y="739.062">writeln()</text><polygon fill="#4177AF" points="963.5,744.6563,959.5,750.6563,967.5,750.6563" style="stroke: #1963A0; stroke-width: 1.0;"/><text fill="#000000" font-family="sans-serif" font-size="11" lengthAdjust="spacingAndGlyphs" textLength="60" x="972.5" y="751.8667">writeln(int)</text><polygon fill="#4177AF" points="963.5,757.4609,959.5,763.4609,967.5,763.4609" style="stroke: #1963A0; stroke-width: 1.0;"/><text fill="#000000" font-family="sans-serif" font-size="11" lengthAdjust="spacingAndGlyphs" textLength="81" x="972.5" y="764.6714">writeln(int, int)</text><!--MD5=[98dd9f5185e3ab904e8d25c4d465541e]
class mastermind.views.ProposalView--><rect codeLine="37" fill="#FEFECE" filter="url(#fzq0cti2e4wf9)" height="99.2188" id="mastermind.views.ProposalView" style="stroke: #A80036; stroke-width: 1.5;" width="305" x="849.5" y="226"/><ellipse cx="957.25" cy="242" fill="#ADD1B2" rx="11" ry="11" style="stroke: #A80036; stroke-width: 1.0;"/><path d="M959.5938,237.6719 C958.6563,237.2344 958.0625,237.0938 957.1875,237.0938 C954.5625,237.0938 952.5625,239.1719 952.5625,241.8906 L952.5625,243.0156 C952.5625,245.5938 954.6719,247.4844 957.5625,247.4844 C958.7813,247.4844 959.9375,247.1875 960.6875,246.6406 C961.2656,246.2344 961.5938,245.7813 961.5938,245.3906 C961.5938,244.9375 961.2031,244.5469 960.7344,244.5469 C960.5156,244.5469 960.3125,244.625 960.125,244.8125 C959.6719,245.2969 959.6719,245.2969 959.4844,245.3906 C959.0625,245.6563 958.375,245.7813 957.6094,245.7813 C955.5625,245.7813 954.2656,244.6875 954.2656,242.9844 L954.2656,241.8906 C954.2656,240.1094 955.5156,238.7969 957.25,238.7969 C957.8281,238.7969 958.4375,238.9531 958.9063,239.2031 C959.3906,239.4844 959.5625,239.7031 959.6563,240.1094 C959.7188,240.5156 959.75,240.6406 959.8906,240.7656 C960.0313,240.9063 960.2656,241.0156 960.4844,241.0156 C960.75,241.0156 961.0156,240.875 961.1875,240.6563 C961.2969,240.5 961.3281,240.3125 961.3281,239.8906 L961.3281,238.4688 C961.3281,238.0313 961.3125,237.9063 961.2188,237.75 C961.0625,237.4844 960.7813,237.3438 960.4844,237.3438 C960.1875,237.3438 959.9844,237.4375 959.7656,237.75 L959.5938,237.6719 Z "/><text fill="#000000" font-family="sans-serif" font-size="12" lengthAdjust="spacingAndGlyphs" textLength="81" x="977.75" y="246.1543">ProposalView</text><line style="stroke: #A80036; stroke-width: 1.5;" x1="850.5" x2="1153.5" y1="258" y2="258"/><rect fill="none" height="6" style="stroke: #C82930; stroke-width: 1.0;" width="6" x="857.5" y="266"/><text fill="#000000" font-family="sans-serif" font-size="11" lengthAdjust="spacingAndGlyphs" textLength="75" x="869.5" y="272.2104">game: Game</text><rect fill="none" height="6" style="stroke: #C82930; stroke-width: 1.0;" width="6" x="857.5" y="278.8047"/><text fill="#000000" font-family="sans-serif" font-size="11" lengthAdjust="spacingAndGlyphs" textLength="279" x="869.5" y="285.0151">secretCombinationView: SecretCombinationView</text><line style="stroke: #A80036; stroke-width: 1.5;" x1="850.5" x2="1153.5" y1="291.6094" y2="291.6094"/><polygon fill="#4177AF" points="860.5,298.6094,856.5,304.6094,864.5,304.6094" style="stroke: #1963A0; stroke-width: 1.0;"/><text fill="#000000" font-family="sans-serif" font-size="11" lengthAdjust="spacingAndGlyphs" textLength="118" x="869.5" y="305.8198">ProposalView(Game)</text><polygon fill="#4177AF" points="860.5,311.4141,856.5,317.4141,864.5,317.4141" style="stroke: #1963A0; stroke-width: 1.0;"/><text fill="#000000" font-family="sans-serif" font-size="11" lengthAdjust="spacingAndGlyphs" textLength="104" x="869.5" y="318.6245">interact(): boolean</text><!--MD5=[86bd8337fa6b6b0346fe8333f5c8070e]
class mastermind.views.SecretCombinationView--><rect codeLine="80" fill="#FEFECE" filter="url(#fzq0cti2e4wf9)" height="73.6094" id="mastermind.views.SecretCombinationView" style="stroke: #A80036; stroke-width: 1.5;" width="175" x="1194.5" y="397.5"/><ellipse cx="1209.5" cy="413.5" fill="#ADD1B2" rx="11" ry="11" style="stroke: #A80036; stroke-width: 1.0;"/><path d="M1211.8438,409.1719 C1210.9063,408.7344 1210.3125,408.5938 1209.4375,408.5938 C1206.8125,408.5938 1204.8125,410.6719 1204.8125,413.3906 L1204.8125,414.5156 C1204.8125,417.0938 1206.9219,418.9844 1209.8125,418.9844 C1211.0313,418.9844 1212.1875,418.6875 1212.9375,418.1406 C1213.5156,417.7344 1213.8438,417.2813 1213.8438,416.8906 C1213.8438,416.4375 1213.4531,416.0469 1212.9844,416.0469 C1212.7656,416.0469 1212.5625,416.125 1212.375,416.3125 C1211.9219,416.7969 1211.9219,416.7969 1211.7344,416.8906 C1211.3125,417.1563 1210.625,417.2813 1209.8594,417.2813 C1207.8125,417.2813 1206.5156,416.1875 1206.5156,414.4844 L1206.5156,413.3906 C1206.5156,411.6094 1207.7656,410.2969 1209.5,410.2969 C1210.0781,410.2969 1210.6875,410.4531 1211.1563,410.7031 C1211.6406,410.9844 1211.8125,411.2031 1211.9063,411.6094 C1211.9688,412.0156 1212,412.1406 1212.1406,412.2656 C1212.2813,412.4063 1212.5156,412.5156 1212.7344,412.5156 C1213,412.5156 1213.2656,412.375 1213.4375,412.1563 C1213.5469,412 1213.5781,411.8125 1213.5781,411.3906 L1213.5781,409.9688 C1213.5781,409.5313 1213.5625,409.4063 1213.4688,409.25 C1213.3125,408.9844 1213.0313,408.8438 1212.7344,408.8438 C1212.4375,408.8438 1212.2344,408.9375 1212.0156,409.25 L1211.8438,409.1719 Z "/><text fill="#000000" font-family="sans-serif" font-size="12" lengthAdjust="spacingAndGlyphs" textLength="143" x="1223.5" y="417.6543">SecretCombinationView</text><line style="stroke: #A80036; stroke-width: 1.5;" x1="1195.5" x2="1368.5" y1="429.5" y2="429.5"/><line style="stroke: #A80036; stroke-width: 1.5;" x1="1195.5" x2="1368.5" y1="437.5" y2="437.5"/><polygon fill="#4177AF" points="1205.5,444.5,1201.5,450.5,1209.5,450.5" style="stroke: #1963A0; stroke-width: 1.0;"/><text fill="#000000" font-family="sans-serif" font-size="11" lengthAdjust="spacingAndGlyphs" textLength="145" x="1214.5" y="451.7104">SecretCombinationView()</text><polygon fill="#4177AF" points="1205.5,457.3047,1201.5,463.3047,1209.5,463.3047" style="stroke: #1963A0; stroke-width: 1.0;"/><text fill="#000000" font-family="sans-serif" font-size="11" lengthAdjust="spacingAndGlyphs" textLength="46" x="1214.5" y="464.5151">writeln()</text><!--MD5=[4ed27cd8fcf5b6ebdc6bc1a8178e2b74]
class mastermind.views.ProposedCombinationView--><rect codeLine="51" fill="#FEFECE" filter="url(#fzq0cti2e4wf9)" height="99.2188" id="mastermind.views.ProposedCombinationView" style="stroke: #A80036; stroke-width: 1.5;" width="308" x="498" y="385"/><ellipse cx="567.25" cy="401" fill="#ADD1B2" rx="11" ry="11" style="stroke: #A80036; stroke-width: 1.0;"/><path d="M569.5938,396.6719 C568.6563,396.2344 568.0625,396.0938 567.1875,396.0938 C564.5625,396.0938 562.5625,398.1719 562.5625,400.8906 L562.5625,402.0156 C562.5625,404.5938 564.6719,406.4844 567.5625,406.4844 C568.7813,406.4844 569.9375,406.1875 570.6875,405.6406 C571.2656,405.2344 571.5938,404.7813 571.5938,404.3906 C571.5938,403.9375 571.2031,403.5469 570.7344,403.5469 C570.5156,403.5469 570.3125,403.625 570.125,403.8125 C569.6719,404.2969 569.6719,404.2969 569.4844,404.3906 C569.0625,404.6563 568.375,404.7813 567.6094,404.7813 C565.5625,404.7813 564.2656,403.6875 564.2656,401.9844 L564.2656,400.8906 C564.2656,399.1094 565.5156,397.7969 567.25,397.7969 C567.8281,397.7969 568.4375,397.9531 568.9063,398.2031 C569.3906,398.4844 569.5625,398.7031 569.6563,399.1094 C569.7188,399.5156 569.75,399.6406 569.8906,399.7656 C570.0313,399.9063 570.2656,400.0156 570.4844,400.0156 C570.75,400.0156 571.0156,399.875 571.1875,399.6563 C571.2969,399.5 571.3281,399.3125 571.3281,398.8906 L571.3281,397.4688 C571.3281,397.0313 571.3125,396.9063 571.2188,396.75 C571.0625,396.4844 570.7813,396.3438 570.4844,396.3438 C570.1875,396.3438 569.9844,396.4375 569.7656,396.75 L569.5938,396.6719 Z "/><text fill="#000000" font-family="sans-serif" font-size="12" lengthAdjust="spacingAndGlyphs" textLength="161" x="587.75" y="405.1543">ProposedCombinationView</text><line style="stroke: #A80036; stroke-width: 1.5;" x1="499" x2="805" y1="417" y2="417"/><rect fill="none" height="6" style="stroke: #C82930; stroke-width: 1.0;" width="6" x="506" y="425"/><text fill="#000000" font-family="sans-serif" font-size="11" lengthAdjust="spacingAndGlyphs" textLength="254" x="518" y="431.2104">proposedCombination: ProposedCombination</text><line style="stroke: #A80036; stroke-width: 1.5;" x1="499" x2="805" y1="437.8047" y2="437.8047"/><polygon fill="#4177AF" points="509,444.8047,505,450.8047,513,450.8047" style="stroke: #1963A0; stroke-width: 1.0;"/><text fill="#000000" font-family="sans-serif" font-size="11" lengthAdjust="spacingAndGlyphs" textLength="282" x="518" y="452.0151">ProposedCombinationView(ProposedCombination)</text><polygon fill="#4177AF" points="509,457.6094,505,463.6094,513,463.6094" style="stroke: #1963A0; stroke-width: 1.0;"/><text fill="#000000" font-family="sans-serif" font-size="11" lengthAdjust="spacingAndGlyphs" textLength="36" x="518" y="464.8198">write()</text><polygon fill="#4177AF" points="509,470.4141,505,476.4141,513,476.4141" style="stroke: #1963A0; stroke-width: 1.0;"/><text fill="#000000" font-family="sans-serif" font-size="11" lengthAdjust="spacingAndGlyphs" textLength="34" x="518" y="477.6245">read()</text><!--MD5=[56aa617717da0844c5255d733a5f8dfa]
class mastermind.views.ResultView--><rect codeLine="62" fill="#FEFECE" filter="url(#fzq0cti2e4wf9)" height="86.4141" id="mastermind.views.ResultView" style="stroke: #A80036; stroke-width: 1.5;" width="100" x="1022" y="391.5"/><ellipse cx="1038.35" cy="407.5" fill="#ADD1B2" rx="11" ry="11" style="stroke: #A80036; stroke-width: 1.0;"/><path d="M1040.6938,403.1719 C1039.7563,402.7344 1039.1625,402.5938 1038.2875,402.5938 C1035.6625,402.5938 1033.6625,404.6719 1033.6625,407.3906 L1033.6625,408.5156 C1033.6625,411.0938 1035.7719,412.9844 1038.6625,412.9844 C1039.8813,412.9844 1041.0375,412.6875 1041.7875,412.1406 C1042.3656,411.7344 1042.6938,411.2813 1042.6938,410.8906 C1042.6938,410.4375 1042.3031,410.0469 1041.8344,410.0469 C1041.6156,410.0469 1041.4125,410.125 1041.225,410.3125 C1040.7719,410.7969 1040.7719,410.7969 1040.5844,410.8906 C1040.1625,411.1563 1039.475,411.2813 1038.7094,411.2813 C1036.6625,411.2813 1035.3656,410.1875 1035.3656,408.4844 L1035.3656,407.3906 C1035.3656,405.6094 1036.6156,404.2969 1038.35,404.2969 C1038.9281,404.2969 1039.5375,404.4531 1040.0063,404.7031 C1040.4906,404.9844 1040.6625,405.2031 1040.7563,405.6094 C1040.8188,406.0156 1040.85,406.1406 1040.9906,406.2656 C1041.1313,406.4063 1041.3656,406.5156 1041.5844,406.5156 C1041.85,406.5156 1042.1156,406.375 1042.2875,406.1563 C1042.3969,406 1042.4281,405.8125 1042.4281,405.3906 L1042.4281,403.9688 C1042.4281,403.5313 1042.4125,403.4063 1042.3188,403.25 C1042.1625,402.9844 1041.8813,402.8438 1041.5844,402.8438 C1041.2875,402.8438 1041.0844,402.9375 1040.8656,403.25 L1040.6938,403.1719 Z "/><text fill="#000000" font-family="sans-serif" font-size="12" lengthAdjust="spacingAndGlyphs" textLength="65" x="1052.65" y="411.6543">ResultView</text><line style="stroke: #A80036; stroke-width: 1.5;" x1="1023" x2="1121" y1="423.5" y2="423.5"/><rect fill="none" height="6" style="stroke: #C82930; stroke-width: 1.0;" width="6" x="1030" y="431.5"/><text fill="#000000" font-family="sans-serif" font-size="11" lengthAdjust="spacingAndGlyphs" textLength="74" x="1042" y="437.7104">result: Result</text><line style="stroke: #A80036; stroke-width: 1.5;" x1="1023" x2="1121" y1="444.3047" y2="444.3047"/><polygon fill="#4177AF" points="1033,451.3047,1029,457.3047,1037,457.3047" style="stroke: #1963A0; stroke-width: 1.0;"/><text fill="#000000" font-family="sans-serif" font-size="11" lengthAdjust="spacingAndGlyphs" textLength="71" x="1042" y="458.5151">ResultView()</text><polygon fill="#4177AF" points="1033,464.1094,1029,470.1094,1037,470.1094" style="stroke: #1963A0; stroke-width: 1.0;"/><text fill="#000000" font-family="sans-serif" font-size="11" lengthAdjust="spacingAndGlyphs" textLength="46" x="1042" y="471.3198">writeln()</text><!--MD5=[ec4aad91981170f30f8e0579b5e2d84f]
class mastermind.views.ResumeView--><rect codeLine="71" fill="#FEFECE" filter="url(#fzq0cti2e4wf9)" height="86.4141" id="mastermind.views.ResumeView" style="stroke: #A80036; stroke-width: 1.5;" width="130" x="1314" y="232.5"/><ellipse cx="1338.45" cy="248.5" fill="#ADD1B2" rx="11" ry="11" style="stroke: #A80036; stroke-width: 1.0;"/><path d="M1340.7938,244.1719 C1339.8563,243.7344 1339.2625,243.5938 1338.3875,243.5938 C1335.7625,243.5938 1333.7625,245.6719 1333.7625,248.3906 L1333.7625,249.5156 C1333.7625,252.0938 1335.8719,253.9844 1338.7625,253.9844 C1339.9813,253.9844 1341.1375,253.6875 1341.8875,253.1406 C1342.4656,252.7344 1342.7938,252.2813 1342.7938,251.8906 C1342.7938,251.4375 1342.4031,251.0469 1341.9344,251.0469 C1341.7156,251.0469 1341.5125,251.125 1341.325,251.3125 C1340.8719,251.7969 1340.8719,251.7969 1340.6844,251.8906 C1340.2625,252.1563 1339.575,252.2813 1338.8094,252.2813 C1336.7625,252.2813 1335.4656,251.1875 1335.4656,249.4844 L1335.4656,248.3906 C1335.4656,246.6094 1336.7156,245.2969 1338.45,245.2969 C1339.0281,245.2969 1339.6375,245.4531 1340.1063,245.7031 C1340.5906,245.9844 1340.7625,246.2031 1340.8563,246.6094 C1340.9188,247.0156 1340.95,247.1406 1341.0906,247.2656 C1341.2313,247.4063 1341.4656,247.5156 1341.6844,247.5156 C1341.95,247.5156 1342.2156,247.375 1342.3875,247.1563 C1342.4969,247 1342.5281,246.8125 1342.5281,246.3906 L1342.5281,244.9688 C1342.5281,244.5313 1342.5125,244.4063 1342.4188,244.25 C1342.2625,243.9844 1341.9813,243.8438 1341.6844,243.8438 C1341.3875,243.8438 1341.1844,243.9375 1340.9656,244.25 L1340.7938,244.1719 Z "/><text fill="#000000" font-family="sans-serif" font-size="12" lengthAdjust="spacingAndGlyphs" textLength="77" x="1354.55" y="252.6543">ResumeView</text><line style="stroke: #A80036; stroke-width: 1.5;" x1="1315" x2="1443" y1="264.5" y2="264.5"/><rect fill="none" height="6" style="stroke: #C82930; stroke-width: 1.0;" width="6" x="1322" y="272.5"/><text fill="#000000" font-family="sans-serif" font-size="11" lengthAdjust="spacingAndGlyphs" textLength="75" x="1334" y="278.7104">game: Game</text><line style="stroke: #A80036; stroke-width: 1.5;" x1="1315" x2="1443" y1="285.3047" y2="285.3047"/><polygon fill="#4177AF" points="1325,292.3047,1321,298.3047,1329,298.3047" style="stroke: #1963A0; stroke-width: 1.0;"/><text fill="#000000" font-family="sans-serif" font-size="11" lengthAdjust="spacingAndGlyphs" textLength="83" x="1334" y="299.5151">ResumeView()</text><polygon fill="#4177AF" points="1325,305.1094,1321,311.1094,1329,311.1094" style="stroke: #1963A0; stroke-width: 1.0;"/><text fill="#000000" font-family="sans-serif" font-size="11" lengthAdjust="spacingAndGlyphs" textLength="104" x="1334" y="312.3198">interact(): boolean</text><!--MD5=[159b299c59daed45f31e591a5c9e649b]
class mastermind.views.StartView--><rect codeLine="87" fill="#FEFECE" filter="url(#fzq0cti2e4wf9)" height="60.8047" id="mastermind.views.StartView" style="stroke: #A80036; stroke-width: 1.5;" width="89" x="1189.5" y="245"/><ellipse cx="1204.5" cy="261" fill="#ADD1B2" rx="11" ry="11" style="stroke: #A80036; stroke-width: 1.0;"/><path d="M1206.8438,256.6719 C1205.9063,256.2344 1205.3125,256.0938 1204.4375,256.0938 C1201.8125,256.0938 1199.8125,258.1719 1199.8125,260.8906 L1199.8125,262.0156 C1199.8125,264.5938 1201.9219,266.4844 1204.8125,266.4844 C1206.0313,266.4844 1207.1875,266.1875 1207.9375,265.6406 C1208.5156,265.2344 1208.8438,264.7813 1208.8438,264.3906 C1208.8438,263.9375 1208.4531,263.5469 1207.9844,263.5469 C1207.7656,263.5469 1207.5625,263.625 1207.375,263.8125 C1206.9219,264.2969 1206.9219,264.2969 1206.7344,264.3906 C1206.3125,264.6563 1205.625,264.7813 1204.8594,264.7813 C1202.8125,264.7813 1201.5156,263.6875 1201.5156,261.9844 L1201.5156,260.8906 C1201.5156,259.1094 1202.7656,257.7969 1204.5,257.7969 C1205.0781,257.7969 1205.6875,257.9531 1206.1563,258.2031 C1206.6406,258.4844 1206.8125,258.7031 1206.9063,259.1094 C1206.9688,259.5156 1207,259.6406 1207.1406,259.7656 C1207.2813,259.9063 1207.5156,260.0156 1207.7344,260.0156 C1208,260.0156 1208.2656,259.875 1208.4375,259.6563 C1208.5469,259.5 1208.5781,259.3125 1208.5781,258.8906 L1208.5781,257.4688 C1208.5781,257.0313 1208.5625,256.9063 1208.4688,256.75 C1208.3125,256.4844 1208.0313,256.3438 1207.7344,256.3438 C1207.4375,256.3438 1207.2344,256.4375 1207.0156,256.75 L1206.8438,256.6719 Z "/><text fill="#000000" font-family="sans-serif" font-size="12" lengthAdjust="spacingAndGlyphs" textLength="57" x="1218.5" y="265.1543">StartView</text><line style="stroke: #A80036; stroke-width: 1.5;" x1="1190.5" x2="1277.5" y1="277" y2="277"/><line style="stroke: #A80036; stroke-width: 1.5;" x1="1190.5" x2="1277.5" y1="285" y2="285"/><polygon fill="#4177AF" points="1200.5,292,1196.5,298,1204.5,298" style="stroke: #1963A0; stroke-width: 1.0;"/><text fill="#000000" font-family="sans-serif" font-size="11" lengthAdjust="spacingAndGlyphs" textLength="51" x="1209.5" y="299.2104">interact()</text><!--MD5=[904c44326bfc30ddc4fe4077c1b9164d]
class mastermind.views.View--><rect codeLine="95" fill="#FEFECE" filter="url(#fzq0cti2e4wf9)" height="124.8281" id="mastermind.views.View" style="stroke: #A80036; stroke-width: 1.5;" width="184" x="1201" y="41"/><ellipse cx="1274.25" cy="57" fill="#ADD1B2" rx="11" ry="11" style="stroke: #A80036; stroke-width: 1.0;"/><path d="M1276.5938,52.6719 C1275.6563,52.2344 1275.0625,52.0938 1274.1875,52.0938 C1271.5625,52.0938 1269.5625,54.1719 1269.5625,56.8906 L1269.5625,58.0156 C1269.5625,60.5938 1271.6719,62.4844 1274.5625,62.4844 C1275.7813,62.4844 1276.9375,62.1875 1277.6875,61.6406 C1278.2656,61.2344 1278.5938,60.7813 1278.5938,60.3906 C1278.5938,59.9375 1278.2031,59.5469 1277.7344,59.5469 C1277.5156,59.5469 1277.3125,59.625 1277.125,59.8125 C1276.6719,60.2969 1276.6719,60.2969 1276.4844,60.3906 C1276.0625,60.6563 1275.375,60.7813 1274.6094,60.7813 C1272.5625,60.7813 1271.2656,59.6875 1271.2656,57.9844 L1271.2656,56.8906 C1271.2656,55.1094 1272.5156,53.7969 1274.25,53.7969 C1274.8281,53.7969 1275.4375,53.9531 1275.9063,54.2031 C1276.3906,54.4844 1276.5625,54.7031 1276.6563,55.1094 C1276.7188,55.5156 1276.75,55.6406 1276.8906,55.7656 C1277.0313,55.9063 1277.2656,56.0156 1277.4844,56.0156 C1277.75,56.0156 1278.0156,55.875 1278.1875,55.6563 C1278.2969,55.5 1278.3281,55.3125 1278.3281,54.8906 L1278.3281,53.4688 C1278.3281,53.0313 1278.3125,52.9063 1278.2188,52.75 C1278.0625,52.4844 1277.7813,52.3438 1277.4844,52.3438 C1277.1875,52.3438 1276.9844,52.4375 1276.7656,52.75 L1276.5938,52.6719 Z "/><text fill="#000000" font-family="sans-serif" font-size="12" lengthAdjust="spacingAndGlyphs" textLength="29" x="1294.75" y="61.1543">View</text><line style="stroke: #A80036; stroke-width: 1.5;" x1="1202" x2="1384" y1="73" y2="73"/><polygon fill="none" points="1212,79,1216,83,1212,87,1208,83" style="stroke: #B38D22; stroke-width: 1.0;"/><text fill="#000000" font-family="sans-serif" font-size="11" lengthAdjust="spacingAndGlyphs" textLength="75" x="1221" y="87.2104">game: Game</text><rect fill="none" height="6" style="stroke: #C82930; stroke-width: 1.0;" width="6" x="1209" y="93.8047"/><text fill="#000000" font-family="sans-serif" font-size="11" lengthAdjust="spacingAndGlyphs" textLength="115" x="1221" y="100.0151">startView: StartView</text><rect fill="none" height="6" style="stroke: #C82930; stroke-width: 1.0;" width="6" x="1209" y="106.6094"/><text fill="#000000" font-family="sans-serif" font-size="11" lengthAdjust="spacingAndGlyphs" textLength="158" x="1221" y="112.8198">proposalView: ProposalView</text><rect fill="none" height="6" style="stroke: #C82930; stroke-width: 1.0;" width="6" x="1209" y="119.4141"/><text fill="#000000" font-family="sans-serif" font-size="11" lengthAdjust="spacingAndGlyphs" textLength="154" x="1221" y="125.6245">resumeView: ResumeView</text><line style="stroke: #A80036; stroke-width: 1.5;" x1="1202" x2="1384" y1="132.2188" y2="132.2188"/><ellipse cx="1212" cy="143.2188" fill="#84BE84" rx="3" ry="3" style="stroke: #038048; stroke-width: 1.0;"/><text fill="#000000" font-family="sans-serif" font-size="11" lengthAdjust="spacingAndGlyphs" textLength="71" x="1221" y="146.4292">View(Game)</text><ellipse cx="1212" cy="156.0234" fill="#84BE84" rx="3" ry="3" style="stroke: #038048; stroke-width: 1.0;"/><text fill="#000000" font-family="sans-serif" font-size="11" lengthAdjust="spacingAndGlyphs" textLength="51" x="1221" y="159.2339">interact()</text><!--MD5=[a3288181747b44fad907c47e32f19b7c]
class mastermind.utils.ColorCode--><rect fill="#FEFECE" filter="url(#fzq0cti2e4wf9)" height="48" id="mastermind.utils.ColorCode" style="stroke: #A80036; stroke-width: 1.5;" width="96" x="32" y="251.5"/><ellipse cx="47" cy="267.5" fill="#ADD1B2" rx="11" ry="11" style="stroke: #A80036; stroke-width: 1.0;"/><path d="M49.3438,263.1719 C48.4063,262.7344 47.8125,262.5938 46.9375,262.5938 C44.3125,262.5938 42.3125,264.6719 42.3125,267.3906 L42.3125,268.5156 C42.3125,271.0938 44.4219,272.9844 47.3125,272.9844 C48.5313,272.9844 49.6875,272.6875 50.4375,272.1406 C51.0156,271.7344 51.3438,271.2813 51.3438,270.8906 C51.3438,270.4375 50.9531,270.0469 50.4844,270.0469 C50.2656,270.0469 50.0625,270.125 49.875,270.3125 C49.4219,270.7969 49.4219,270.7969 49.2344,270.8906 C48.8125,271.1563 48.125,271.2813 47.3594,271.2813 C45.3125,271.2813 44.0156,270.1875 44.0156,268.4844 L44.0156,267.3906 C44.0156,265.6094 45.2656,264.2969 47,264.2969 C47.5781,264.2969 48.1875,264.4531 48.6563,264.7031 C49.1406,264.9844 49.3125,265.2031 49.4063,265.6094 C49.4688,266.0156 49.5,266.1406 49.6406,266.2656 C49.7813,266.4063 50.0156,266.5156 50.2344,266.5156 C50.5,266.5156 50.7656,266.375 50.9375,266.1563 C51.0469,266 51.0781,265.8125 51.0781,265.3906 L51.0781,263.9688 C51.0781,263.5313 51.0625,263.4063 50.9688,263.25 C50.8125,262.9844 50.5313,262.8438 50.2344,262.8438 C49.9375,262.8438 49.7344,262.9375 49.5156,263.25 L49.3438,263.1719 Z "/><text fill="#000000" font-family="sans-serif" font-size="12" lengthAdjust="spacingAndGlyphs" textLength="64" x="61" y="271.6543">ColorCode</text><line style="stroke: #A80036; stroke-width: 1.5;" x1="33" x2="127" y1="283.5" y2="283.5"/><line style="stroke: #A80036; stroke-width: 1.5;" x1="33" x2="127" y1="291.5" y2="291.5"/><!--MD5=[418484cb0ecde680b0da58aa805d4175]
class mastermind.utils.WithConsoleView--><rect fill="#FEFECE" filter="url(#fzq0cti2e4wf9)" height="48" id="mastermind.utils.WithConsoleView" style="stroke: #A80036; stroke-width: 1.5;" width="136" x="163" y="251.5"/><ellipse cx="178" cy="267.5" fill="#ADD1B2" rx="11" ry="11" style="stroke: #A80036; stroke-width: 1.0;"/><path d="M180.3438,263.1719 C179.4063,262.7344 178.8125,262.5938 177.9375,262.5938 C175.3125,262.5938 173.3125,264.6719 173.3125,267.3906 L173.3125,268.5156 C173.3125,271.0938 175.4219,272.9844 178.3125,272.9844 C179.5313,272.9844 180.6875,272.6875 181.4375,272.1406 C182.0156,271.7344 182.3438,271.2813 182.3438,270.8906 C182.3438,270.4375 181.9531,270.0469 181.4844,270.0469 C181.2656,270.0469 181.0625,270.125 180.875,270.3125 C180.4219,270.7969 180.4219,270.7969 180.2344,270.8906 C179.8125,271.1563 179.125,271.2813 178.3594,271.2813 C176.3125,271.2813 175.0156,270.1875 175.0156,268.4844 L175.0156,267.3906 C175.0156,265.6094 176.2656,264.2969 178,264.2969 C178.5781,264.2969 179.1875,264.4531 179.6563,264.7031 C180.1406,264.9844 180.3125,265.2031 180.4063,265.6094 C180.4688,266.0156 180.5,266.1406 180.6406,266.2656 C180.7813,266.4063 181.0156,266.5156 181.2344,266.5156 C181.5,266.5156 181.7656,266.375 181.9375,266.1563 C182.0469,266 182.0781,265.8125 182.0781,265.3906 L182.0781,263.9688 C182.0781,263.5313 182.0625,263.4063 181.9688,263.25 C181.8125,262.9844 181.5313,262.8438 181.2344,262.8438 C180.9375,262.8438 180.7344,262.9375 180.5156,263.25 L180.3438,263.1719 Z "/><text fill="#000000" font-family="sans-serif" font-size="12" lengthAdjust="spacingAndGlyphs" textLength="104" x="192" y="271.6543">WithConsoleView</text><line style="stroke: #A80036; stroke-width: 1.5;" x1="164" x2="298" y1="283.5" y2="283.5"/><line style="stroke: #A80036; stroke-width: 1.5;" x1="164" x2="298" y1="291.5" y2="291.5"/><!--MD5=[8fefce232ba7ae99aa926d324ff560e5]
class mastermind.utils.YesNoDialog--><rect fill="#FEFECE" filter="url(#fzq0cti2e4wf9)" height="48" id="mastermind.utils.YesNoDialog" style="stroke: #A80036; stroke-width: 1.5;" width="108" x="334" y="251.5"/><ellipse cx="349" cy="267.5" fill="#ADD1B2" rx="11" ry="11" style="stroke: #A80036; stroke-width: 1.0;"/><path d="M351.3438,263.1719 C350.4063,262.7344 349.8125,262.5938 348.9375,262.5938 C346.3125,262.5938 344.3125,264.6719 344.3125,267.3906 L344.3125,268.5156 C344.3125,271.0938 346.4219,272.9844 349.3125,272.9844 C350.5313,272.9844 351.6875,272.6875 352.4375,272.1406 C353.0156,271.7344 353.3438,271.2813 353.3438,270.8906 C353.3438,270.4375 352.9531,270.0469 352.4844,270.0469 C352.2656,270.0469 352.0625,270.125 351.875,270.3125 C351.4219,270.7969 351.4219,270.7969 351.2344,270.8906 C350.8125,271.1563 350.125,271.2813 349.3594,271.2813 C347.3125,271.2813 346.0156,270.1875 346.0156,268.4844 L346.0156,267.3906 C346.0156,265.6094 347.2656,264.2969 349,264.2969 C349.5781,264.2969 350.1875,264.4531 350.6563,264.7031 C351.1406,264.9844 351.3125,265.2031 351.4063,265.6094 C351.4688,266.0156 351.5,266.1406 351.6406,266.2656 C351.7813,266.4063 352.0156,266.5156 352.2344,266.5156 C352.5,266.5156 352.7656,266.375 352.9375,266.1563 C353.0469,266 353.0781,265.8125 353.0781,265.3906 L353.0781,263.9688 C353.0781,263.5313 353.0625,263.4063 352.9688,263.25 C352.8125,262.9844 352.5313,262.8438 352.2344,262.8438 C351.9375,262.8438 351.7344,262.9375 351.5156,263.25 L351.3438,263.1719 Z "/><text fill="#000000" font-family="sans-serif" font-size="12" lengthAdjust="spacingAndGlyphs" textLength="76" x="363" y="271.6543">YesNoDialog</text><line style="stroke: #A80036; stroke-width: 1.5;" x1="335" x2="441" y1="283.5" y2="283.5"/><line style="stroke: #A80036; stroke-width: 1.5;" x1="335" x2="441" y1="291.5" y2="291.5"/><!--MD5=[3bbd847d2bed55d759f67ce45ba3cf97]
class mastermind.models.Error--><rect fill="#FEFECE" filter="url(#fzq0cti2e4wf9)" height="48" id="mastermind.models.Error" style="stroke: #A80036; stroke-width: 1.5;" width="62" x="1215" y="846"/><ellipse cx="1230" cy="862" fill="#ADD1B2" rx="11" ry="11" style="stroke: #A80036; stroke-width: 1.0;"/><path d="M1232.3438,857.6719 C1231.4063,857.2344 1230.8125,857.0938 1229.9375,857.0938 C1227.3125,857.0938 1225.3125,859.1719 1225.3125,861.8906 L1225.3125,863.0156 C1225.3125,865.5938 1227.4219,867.4844 1230.3125,867.4844 C1231.5313,867.4844 1232.6875,867.1875 1233.4375,866.6406 C1234.0156,866.2344 1234.3438,865.7813 1234.3438,865.3906 C1234.3438,864.9375 1233.9531,864.5469 1233.4844,864.5469 C1233.2656,864.5469 1233.0625,864.625 1232.875,864.8125 C1232.4219,865.2969 1232.4219,865.2969 1232.2344,865.3906 C1231.8125,865.6563 1231.125,865.7813 1230.3594,865.7813 C1228.3125,865.7813 1227.0156,864.6875 1227.0156,862.9844 L1227.0156,861.8906 C1227.0156,860.1094 1228.2656,858.7969 1230,858.7969 C1230.5781,858.7969 1231.1875,858.9531 1231.6563,859.2031 C1232.1406,859.4844 1232.3125,859.7031 1232.4063,860.1094 C1232.4688,860.5156 1232.5,860.6406 1232.6406,860.7656 C1232.7813,860.9063 1233.0156,861.0156 1233.2344,861.0156 C1233.5,861.0156 1233.7656,860.875 1233.9375,860.6563 C1234.0469,860.5 1234.0781,860.3125 1234.0781,859.8906 L1234.0781,858.4688 C1234.0781,858.0313 1234.0625,857.9063 1233.9688,857.75 C1233.8125,857.4844 1233.5313,857.3438 1233.2344,857.3438 C1232.9375,857.3438 1232.7344,857.4375 1232.5156,857.75 L1232.3438,857.6719 Z "/><text fill="#000000" font-family="sans-serif" font-size="12" lengthAdjust="spacingAndGlyphs" textLength="30" x="1244" y="866.1543">Error</text><line style="stroke: #A80036; stroke-width: 1.5;" x1="1216" x2="1276" y1="878" y2="878"/><line style="stroke: #A80036; stroke-width: 1.5;" x1="1216" x2="1276" y1="886" y2="886"/><!--MD5=[ce8dc00f64766c3d9ddc5c23d11e019b]
class mastermind.models.ProposedCombination--><rect fill="#FEFECE" filter="url(#fzq0cti2e4wf9)" height="48" id="mastermind.models.ProposedCombination" style="stroke: #A80036; stroke-width: 1.5;" width="164" x="1415" y="846"/><ellipse cx="1430" cy="862" fill="#ADD1B2" rx="11" ry="11" style="stroke: #A80036; stroke-width: 1.0;"/><path d="M1432.3438,857.6719 C1431.4063,857.2344 1430.8125,857.0938 1429.9375,857.0938 C1427.3125,857.0938 1425.3125,859.1719 1425.3125,861.8906 L1425.3125,863.0156 C1425.3125,865.5938 1427.4219,867.4844 1430.3125,867.4844 C1431.5313,867.4844 1432.6875,867.1875 1433.4375,866.6406 C1434.0156,866.2344 1434.3438,865.7813 1434.3438,865.3906 C1434.3438,864.9375 1433.9531,864.5469 1433.4844,864.5469 C1433.2656,864.5469 1433.0625,864.625 1432.875,864.8125 C1432.4219,865.2969 1432.4219,865.2969 1432.2344,865.3906 C1431.8125,865.6563 1431.125,865.7813 1430.3594,865.7813 C1428.3125,865.7813 1427.0156,864.6875 1427.0156,862.9844 L1427.0156,861.8906 C1427.0156,860.1094 1428.2656,858.7969 1430,858.7969 C1430.5781,858.7969 1431.1875,858.9531 1431.6563,859.2031 C1432.1406,859.4844 1432.3125,859.7031 1432.4063,860.1094 C1432.4688,860.5156 1432.5,860.6406 1432.6406,860.7656 C1432.7813,860.9063 1433.0156,861.0156 1433.2344,861.0156 C1433.5,861.0156 1433.7656,860.875 1433.9375,860.6563 C1434.0469,860.5 1434.0781,860.3125 1434.0781,859.8906 L1434.0781,858.4688 C1434.0781,858.0313 1434.0625,857.9063 1433.9688,857.75 C1433.8125,857.4844 1433.5313,857.3438 1433.2344,857.3438 C1432.9375,857.3438 1432.7344,857.4375 1432.5156,857.75 L1432.3438,857.6719 Z "/><text fill="#000000" font-family="sans-serif" font-size="12" lengthAdjust="spacingAndGlyphs" textLength="132" x="1444" y="866.1543">ProposedCombination</text><line style="stroke: #A80036; stroke-width: 1.5;" x1="1416" x2="1578" y1="878" y2="878"/><line style="stroke: #A80036; stroke-width: 1.5;" x1="1416" x2="1578" y1="886" y2="886"/><!--MD5=[5e669b60aaac1a014a32b452096260f0]
class mastermind.models.Game--><rect fill="#FEFECE" filter="url(#fzq0cti2e4wf9)" height="48" id="mastermind.models.Game" style="stroke: #A80036; stroke-width: 1.5;" width="67" x="1614.5" y="846"/><ellipse cx="1629.5" cy="862" fill="#ADD1B2" rx="11" ry="11" style="stroke: #A80036; stroke-width: 1.0;"/><path d="M1631.8438,857.6719 C1630.9063,857.2344 1630.3125,857.0938 1629.4375,857.0938 C1626.8125,857.0938 1624.8125,859.1719 1624.8125,861.8906 L1624.8125,863.0156 C1624.8125,865.5938 1626.9219,867.4844 1629.8125,867.4844 C1631.0313,867.4844 1632.1875,867.1875 1632.9375,866.6406 C1633.5156,866.2344 1633.8438,865.7813 1633.8438,865.3906 C1633.8438,864.9375 1633.4531,864.5469 1632.9844,864.5469 C1632.7656,864.5469 1632.5625,864.625 1632.375,864.8125 C1631.9219,865.2969 1631.9219,865.2969 1631.7344,865.3906 C1631.3125,865.6563 1630.625,865.7813 1629.8594,865.7813 C1627.8125,865.7813 1626.5156,864.6875 1626.5156,862.9844 L1626.5156,861.8906 C1626.5156,860.1094 1627.7656,858.7969 1629.5,858.7969 C1630.0781,858.7969 1630.6875,858.9531 1631.1563,859.2031 C1631.6406,859.4844 1631.8125,859.7031 1631.9063,860.1094 C1631.9688,860.5156 1632,860.6406 1632.1406,860.7656 C1632.2813,860.9063 1632.5156,861.0156 1632.7344,861.0156 C1633,861.0156 1633.2656,860.875 1633.4375,860.6563 C1633.5469,860.5 1633.5781,860.3125 1633.5781,859.8906 L1633.5781,858.4688 C1633.5781,858.0313 1633.5625,857.9063 1633.4688,857.75 C1633.3125,857.4844 1633.0313,857.3438 1632.7344,857.3438 C1632.4375,857.3438 1632.2344,857.4375 1632.0156,857.75 L1631.8438,857.6719 Z "/><text fill="#000000" font-family="sans-serif" font-size="12" lengthAdjust="spacingAndGlyphs" textLength="35" x="1643.5" y="866.1543">Game</text><line style="stroke: #A80036; stroke-width: 1.5;" x1="1615.5" x2="1680.5" y1="878" y2="878"/><line style="stroke: #A80036; stroke-width: 1.5;" x1="1615.5" x2="1680.5" y1="886" y2="886"/><!--MD5=[603f91c77aeeb81b8bb339fe7f288f7b]
class mastermind.models.Result--><rect fill="#FEFECE" filter="url(#fzq0cti2e4wf9)" height="48" id="mastermind.models.Result" style="stroke: #A80036; stroke-width: 1.5;" width="68" x="1312" y="846"/><ellipse cx="1327" cy="862" fill="#ADD1B2" rx="11" ry="11" style="stroke: #A80036; stroke-width: 1.0;"/><path d="M1329.3438,857.6719 C1328.4063,857.2344 1327.8125,857.0938 1326.9375,857.0938 C1324.3125,857.0938 1322.3125,859.1719 1322.3125,861.8906 L1322.3125,863.0156 C1322.3125,865.5938 1324.4219,867.4844 1327.3125,867.4844 C1328.5313,867.4844 1329.6875,867.1875 1330.4375,866.6406 C1331.0156,866.2344 1331.3438,865.7813 1331.3438,865.3906 C1331.3438,864.9375 1330.9531,864.5469 1330.4844,864.5469 C1330.2656,864.5469 1330.0625,864.625 1329.875,864.8125 C1329.4219,865.2969 1329.4219,865.2969 1329.2344,865.3906 C1328.8125,865.6563 1328.125,865.7813 1327.3594,865.7813 C1325.3125,865.7813 1324.0156,864.6875 1324.0156,862.9844 L1324.0156,861.8906 C1324.0156,860.1094 1325.2656,858.7969 1327,858.7969 C1327.5781,858.7969 1328.1875,858.9531 1328.6563,859.2031 C1329.1406,859.4844 1329.3125,859.7031 1329.4063,860.1094 C1329.4688,860.5156 1329.5,860.6406 1329.6406,860.7656 C1329.7813,860.9063 1330.0156,861.0156 1330.2344,861.0156 C1330.5,861.0156 1330.7656,860.875 1330.9375,860.6563 C1331.0469,860.5 1331.0781,860.3125 1331.0781,859.8906 L1331.0781,858.4688 C1331.0781,858.0313 1331.0625,857.9063 1330.9688,857.75 C1330.8125,857.4844 1330.5313,857.3438 1330.2344,857.3438 C1329.9375,857.3438 1329.7344,857.4375 1329.5156,857.75 L1329.3438,857.6719 Z "/><text fill="#000000" font-family="sans-serif" font-size="12" lengthAdjust="spacingAndGlyphs" textLength="36" x="1341" y="866.1543">Result</text><line style="stroke: #A80036; stroke-width: 1.5;" x1="1313" x2="1379" y1="878" y2="878"/><line style="stroke: #A80036; stroke-width: 1.5;" x1="1313" x2="1379" y1="886" y2="886"/><!--MD5=[c97a4862fc949952bf6b8220aa9fad31]
link mastermind.views.ColorView to mastermind.utils.ColorCode--><path codeLine="9" d="M571.068,605.765 C470.127,541.99 292.826,428.33 145,325 C134.902,317.942 124.114,310.042 114.286,302.702 " fill="none" id="mastermind.views.ColorView-to-mastermind.utils.ColorCode" style="stroke: #A80036; stroke-width: 1.0; stroke-dasharray: 7.0,7.0;"/><polygon fill="#A80036" points="110.138,299.594,114.9414,308.1921,114.1392,302.5924,119.7389,301.7902,110.138,299.594" style="stroke: #A80036; stroke-width: 1.0;"/><!--MD5=[3bc60e500be6641dc663a55f00ce90b9]
link mastermind.views.ErrorView to mastermind.models.Error--><path codeLine="17" d="M986.502,476.409 C992.347,479.141 998.225,481.711 1004,484 C1100.21,522.142 1163.82,463.605 1229,544 C1299.77,631.3 1270.83,779.143 1254.4,840.7433 " fill="none" id="mastermind.views.ErrorView-to-mastermind.models.Error" style="stroke: #A80036; stroke-width: 1.0; stroke-dasharray: 7.0,7.0;"/><polygon fill="#A80036" points="1253.05,845.7307,1259.2663,838.0915,1254.3588,840.905,1251.5453,835.9975,1253.05,845.7307" style="stroke: #A80036; stroke-width: 1.0;"/><!--MD5=[dc8d05942454a1924107a8bb6b15b8e3]
link mastermind.views.ErrorView to mastermind.views.ColorView--><path codeLine="18" d="M856.179,484.273 C818.806,515.797 769.734,557.19 729.065,591.495 " fill="none" id="mastermind.views.ErrorView-to-mastermind.views.ColorView" style="stroke: #A80036; stroke-width: 1.0; stroke-dasharray: 7.0,7.0;"/><polygon fill="#A80036" points="725.156,594.792,734.6141,592.0454,728.9775,591.5677,729.4552,585.931,725.156,594.792" style="stroke: #A80036; stroke-width: 1.0;"/><!--MD5=[64dd5fdaa91aa40488a25350b020cd15]
link mastermind.views.ProposalView to mastermind.models.ProposedCombination--><path codeLine="43" d="M1154.9,320.166 C1160.67,321.801 1166.39,323.416 1172,325 C1267.48,351.942 1318.58,313.164 1387,385 C1511.89,516.117 1505.86,758.093 1499.7,840.5872 " fill="none" id="mastermind.views.ProposalView-to-mastermind.models.ProposedCombination" style="stroke: #A80036; stroke-width: 1.0; stroke-dasharray: 7.0,7.0;"/><polygon fill="#A80036" points="1499.29,845.7875,1503.9767,837.1252,1499.6782,840.8026,1496.0009,836.5041,1499.29,845.7875" style="stroke: #A80036; stroke-width: 1.0;"/><!--MD5=[7086a17abe4852d9000e51e250941916]
reverse link mastermind.utils.WithConsoleView to mastermind.views.ProposalView--><path codeLine="44" d="M263.557,236.692 C281.91,217.892 306.536,197.259 333.5,187.25 C425.209,153.209 682.085,201.226 849.39,238.668 " fill="none" id="mastermind.utils.WithConsoleView-backto-mastermind.views.ProposalView" style="stroke: #A80036; stroke-width: 1.0;"/><polygon fill="none" points="268.671,241.473,249.981,251.458,258.365,231.997,268.671,241.473" style="stroke: #A80036; stroke-width: 1.0;"/><!--MD5=[b19d67f2d90003a5ccefd21c2eb60281]
link mastermind.views.ProposalView to mastermind.models.Game--><path codeLine="45" d="M1154.79,320.57 C1160.59,322.092 1166.35,323.574 1172,325 C1292.46,355.389 1348.89,306.287 1445,385 C1520.92,447.178 1612.8,747.366 1640.03,841.0272 " fill="none" id="mastermind.views.ProposalView-to-mastermind.models.Game" style="stroke: #A80036; stroke-width: 1.0; stroke-dasharray: 7.0,7.0;"/><polygon fill="#A80036" points="1641.43,845.8539,1642.7645,836.0959,1640.0371,841.0518,1635.0811,838.3245,1641.43,845.8539" style="stroke: #A80036; stroke-width: 1.0;"/><!--MD5=[08a105026e923a8b09966a1d0d4eca6a]
link mastermind.views.ProposalView to mastermind.views.MessageView--><path codeLine="46" d="M1087.62,325.136 C1108.23,341.326 1127.57,361.374 1139,385 C1162.11,432.779 1154.76,489.73 1138.9,539.105 " fill="none" id="mastermind.views.ProposalView-to-mastermind.views.MessageView" style="stroke: #A80036; stroke-width: 1.0; stroke-dasharray: 7.0,7.0;"/><polygon fill="#A80036" points="1137.34,543.859,1143.9453,536.5535,1138.898,539.1079,1136.3436,534.0607,1137.34,543.859" style="stroke: #A80036; stroke-width: 1.0;"/><!--MD5=[8bfd539995de3793b648e93fe09818e7]
link mastermind.views.ProposalView to mastermind.views.SecretCombinationView--><path codeLine="47" d="M1088.68,325.101 C1128.65,347.514 1175.44,373.751 1212.98,394.799 " fill="none" id="mastermind.views.ProposalView-to-mastermind.views.SecretCombinationView" style="stroke: #A80036; stroke-width: 1.0; stroke-dasharray: 7.0,7.0;"/><polygon fill="#A80036" points="1217.51,397.339,1211.6125,389.4511,1213.1477,394.8956,1207.7031,396.4308,1217.51,397.339" style="stroke: #A80036; stroke-width: 1.0;"/><!--MD5=[268d82247948adc30e7cd29b2c579786]
link mastermind.views.ProposalView to mastermind.views.ProposedCombinationView--><path codeLine="48" d="M893.655,325.101 C852.769,343.441 806.176,364.341 764.885,382.863 " fill="none" id="mastermind.views.ProposalView-to-mastermind.views.ProposedCombinationView" style="stroke: #A80036; stroke-width: 1.0; stroke-dasharray: 7.0,7.0;"/><polygon fill="#A80036" points="760.135,384.994,769.9838,384.9609,764.6972,382.9479,766.7101,377.6613,760.135,384.994" style="stroke: #A80036; stroke-width: 1.0;"/><!--MD5=[292863b854abbadc0e7b2c24338b0e2a]
link mastermind.views.ProposalView to mastermind.views.ResultView--><path codeLine="49" d="M1023.76,325.315 C1032.46,344.816 1042.43,367.183 1051.04,386.5 " fill="none" id="mastermind.views.ProposalView-to-mastermind.views.ResultView" style="stroke: #A80036; stroke-width: 1.0; stroke-dasharray: 7.0,7.0;"/><polygon fill="#A80036" points="1053.2,391.341,1053.1929,381.4921,1051.166,386.7734,1045.8847,384.7465,1053.2,391.341" style="stroke: #A80036; stroke-width: 1.0;"/><!--MD5=[3d77a152e5198d93efba24431aa5f590]
reverse link mastermind.utils.WithConsoleView to mastermind.views.ProposedCombinationView--><path codeLine="57" d="M285.182,309.607 C295.242,315.12 305.799,320.5 316,325 C373.908,350.543 439.761,373.132 497.731,390.994 " fill="none" id="mastermind.utils.WithConsoleView-backto-mastermind.views.ProposedCombinationView" style="stroke: #A80036; stroke-width: 1.0;"/><polygon fill="none" points="281.707,315.684,267.795,299.701,288.638,303.52,281.707,315.684" style="stroke: #A80036; stroke-width: 1.0;"/><!--MD5=[62a8f057d5c4cd25e610b57addce22db]
link mastermind.views.ProposedCombinationView to mastermind.views.MessageView--><path codeLine="58" d="M746.631,484.136 C805.552,514.419 882.268,553.847 947.454,587.35 " fill="none" id="mastermind.views.ProposedCombinationView-to-mastermind.views.MessageView" style="stroke: #A80036; stroke-width: 1.0; stroke-dasharray: 7.0,7.0;"/><polygon fill="#A80036" points="952.127,589.751,945.9509,582.0792,947.68,587.4654,942.2939,589.1944,952.127,589.751" style="stroke: #A80036; stroke-width: 1.0;"/><!--MD5=[3a12498e22f98d970310e61ba9a2b5b2]
link mastermind.views.ProposedCombinationView to mastermind.views.ColorView--><path codeLine="59" d="M652,484.273 C652,515.162 652,555.525 652,589.412 " fill="none" id="mastermind.views.ProposedCombinationView-to-mastermind.views.ColorView" style="stroke: #A80036; stroke-width: 1.0; stroke-dasharray: 7.0,7.0;"/><polygon fill="#A80036" points="652,594.792,656,585.792,652,589.792,648,585.792,652,594.792" style="stroke: #A80036; stroke-width: 1.0;"/><!--MD5=[07b3d69d84815e4b466391e57b2904e8]
reverse link mastermind.utils.WithConsoleView to mastermind.views.ResultView--><path codeLine="67" d="M281.336,309.9 C292.363,315.862 304.26,321.333 316,325 C608.979,416.513 716.016,278.809 1004,385 C1009.99,387.207 1015.92,390.089 1021.65,393.347 " fill="none" id="mastermind.utils.WithConsoleView-backto-mastermind.views.ResultView" style="stroke: #A80036; stroke-width: 1.0;"/><polygon fill="none" points="277.514,315.773,263.782,299.635,284.581,303.688,277.514,315.773" style="stroke: #A80036; stroke-width: 1.0;"/><!--MD5=[4859b56590b47d037d2addb35670f483]
link mastermind.views.ResultView to mastermind.models.Result--><path codeLine="68" d="M1122.24,458.976 C1185.16,488.584 1285.46,536.551 1291,544 C1358.6,634.946 1354.53,779.656 1349.22,840.5369 " fill="none" id="mastermind.views.ResultView-to-mastermind.models.Result" style="stroke: #A80036; stroke-width: 1.0; stroke-dasharray: 7.0,7.0;"/><polygon fill="#A80036" points="1348.73,845.8163,1353.5339,837.2185,1349.1859,840.8371,1345.5672,836.4891,1348.73,845.8163" style="stroke: #A80036; stroke-width: 1.0;"/><!--MD5=[3f914b3e8f203cde9ef4aaa6970ff031]
link mastermind.views.ResultView to mastermind.views.MessageView--><path codeLine="69" d="M1073.9,477.589 C1074.7,495.212 1075.67,516.662 1076.66,538.505 " fill="none" id="mastermind.views.ResultView-to-mastermind.views.MessageView" style="stroke: #A80036; stroke-width: 1.0; stroke-dasharray: 7.0,7.0;"/><polygon fill="#A80036" points="1076.9,543.764,1080.4874,534.5917,1076.6731,538.7692,1072.4957,534.9548,1076.9,543.764" style="stroke: #A80036; stroke-width: 1.0;"/><!--MD5=[9bb9dcb812a5dae49c67e595ec9a7277]
link mastermind.views.ResumeView to mastermind.models.Game--><path codeLine="76" d="M1444.09,280.695 C1512.07,288.952 1615.53,313.321 1665,385 C1764.89,529.734 1690.21,761.049 1659.53,840.8535 " fill="none" id="mastermind.views.ResumeView-to-mastermind.models.Game" style="stroke: #A80036; stroke-width: 1.0; stroke-dasharray: 7.0,7.0;"/><polygon fill="#A80036" points="1657.58,845.8885,1664.5679,838.948,1659.3908,841.2279,1657.1109,836.0508,1657.58,845.8885" style="stroke: #A80036; stroke-width: 1.0;"/><!--MD5=[e928fb1616fdb969e51b3f6fad489197]
link mastermind.views.ResumeView to mastermind.utils.YesNoDialog--><path codeLine="77" d="M1342.94,232.313 C1325.51,214.779 1303.05,196.5 1278.5,187.25 C1238,171.992 540.375,173.031 499.5,187.25 C465.115,199.211 433.346,226.676 412.588,247.814 " fill="none" id="mastermind.views.ResumeView-to-mastermind.utils.YesNoDialog" style="stroke: #A80036; stroke-width: 1.0; stroke-dasharray: 7.0,7.0;"/><polygon fill="#A80036" points="409.098,251.415,418.2343,247.7369,412.5781,247.8249,412.4901,242.1687,409.098,251.415" style="stroke: #A80036; stroke-width: 1.0;"/><!--MD5=[2344d815b5d16f10252d17b4c4c7824e]
link mastermind.views.ResumeView to mastermind.views.MessageView--><path codeLine="78" d="M1398.85,318.662 C1416.57,363.001 1435.43,433.246 1405,484 C1364.05,552.286 1285.86,595.044 1216.67,620.908 " fill="none" id="mastermind.views.ResumeView-to-mastermind.views.MessageView" style="stroke: #A80036; stroke-width: 1.0; stroke-dasharray: 7.0,7.0;"/><polygon fill="#A80036" points="1211.7,622.741,1221.528,623.3818,1216.3915,621.0119,1218.7614,615.8754,1211.7,622.741" style="stroke: #A80036; stroke-width: 1.0;"/><!--MD5=[0ebf58c5e0891c96edf0a2d055d9da39]
reverse link mastermind.utils.WithConsoleView to mastermind.views.SecretCombinationView--><path codeLine="84" d="M280.598,309.65 C291.822,315.751 303.985,321.341 316,325 C666.837,431.854 779.553,312.181 1139,385 C1157.24,388.696 1176.37,394.072 1194.48,399.912 " fill="none" id="mastermind.utils.WithConsoleView-backto-mastermind.views.SecretCombinationView" style="stroke: #A80036; stroke-width: 1.0;"/><polygon fill="none" points="277.035,315.676,263.342,299.504,284.131,303.607,277.035,315.676" style="stroke: #A80036; stroke-width: 1.0;"/><!--MD5=[ce8c4249f73fb0657477cb05d0776e2d]
link mastermind.views.SecretCombinationView to mastermind.views.MessageView--><path codeLine="85" d="M1248.97,471.994 C1231.91,490.846 1210.04,515.017 1187.78,539.612 " fill="none" id="mastermind.views.SecretCombinationView-to-mastermind.views.MessageView" style="stroke: #A80036; stroke-width: 1.0; stroke-dasharray: 7.0,7.0;"/><polygon fill="#A80036" points="1184.21,543.562,1193.2107,539.5635,1187.5611,539.8512,1187.2734,534.2017,1184.21,543.562" style="stroke: #A80036; stroke-width: 1.0;"/><!--MD5=[47d71c9e8af2ee21765ae73c4e80eff9]
reverse link mastermind.utils.WithConsoleView to mastermind.views.StartView--><path codeLine="90" d="M263.557,236.692 C281.91,217.892 306.536,197.259 333.5,187.25 C376.261,171.378 1112.83,168.703 1154.5,187.25 C1180.88,198.989 1202.18,224.282 1216.07,244.793 " fill="none" id="mastermind.utils.WithConsoleView-backto-mastermind.views.StartView" style="stroke: #A80036; stroke-width: 1.0;"/><polygon fill="none" points="268.671,241.473,249.981,251.458,258.365,231.997,268.671,241.473" style="stroke: #A80036; stroke-width: 1.0;"/><!--MD5=[31a35352d47dc012c92e1ba089f6646d]
link mastermind.views.StartView to mastermind.models.Game--><path codeLine="91" d="M1265.91,306.01 C1275.07,313.166 1285.45,320.144 1296,325 C1418.73,381.475 1502.74,285.378 1594,385 C1655.38,452.001 1651.76,747.676 1649.02,840.8075 " fill="none" id="mastermind.views.StartView-to-mastermind.models.Game" style="stroke: #A80036; stroke-width: 1.0; stroke-dasharray: 7.0,7.0;"/><polygon fill="#A80036" points="1648.86,845.8695,1653.1321,836.9954,1649.0122,840.8718,1645.1358,836.7519,1648.86,845.8695" style="stroke: #A80036; stroke-width: 1.0;"/><!--MD5=[db061c34674d61c574fa429272c8ff9e]
link mastermind.views.StartView to mastermind.views.MessageView--><path codeLine="92" d="M1271,306.234 C1279.14,312.553 1287.79,319.096 1296,325 C1335.33,353.281 1364.03,342.346 1387,385 C1407.86,423.741 1409.17,445.993 1387,484 C1350.03,547.377 1280.2,589.325 1216.68,615.968 " fill="none" id="mastermind.views.StartView-to-mastermind.views.MessageView" style="stroke: #A80036; stroke-width: 1.0; stroke-dasharray: 7.0,7.0;"/><polygon fill="#A80036" points="1211.72,618.019,1221.5657,618.2682,1216.339,616.1045,1218.5026,610.8778,1211.72,618.019" style="stroke: #A80036; stroke-width: 1.0;"/><!--MD5=[09176bfd7bef3ddf6b4099a05e05b081]
link mastermind.views.StartView to mastermind.views.SecretCombinationView--><path codeLine="93" d="M1243.03,306.03 C1250.49,330.448 1261.18,365.39 1269.47,392.517 " fill="none" id="mastermind.views.StartView-to-mastermind.views.SecretCombinationView" style="stroke: #A80036; stroke-width: 1.0; stroke-dasharray: 7.0,7.0;"/><polygon fill="#A80036" points="1270.99,397.487,1272.1871,387.7112,1269.5297,392.705,1264.5359,390.0476,1270.99,397.487" style="stroke: #A80036; stroke-width: 1.0;"/><!--MD5=[277f2fd8b77d28b75c217ae916dd62bb]
link mastermind.views.View to mastermind.views.ProposalView--><path codeLine="103" d="M1190.5685,164.3421 C1190.5685,164.3421 1126.08,202.015 1096.33,219.395 " fill="none" id="mastermind.views.View-mastermind.views.ProposalView" style="stroke: #A80036; stroke-width: 1.0;"/><polygon fill="#A80036" points="1085.1,225.955,1094.8889,224.8695,1089.4174,223.4331,1090.8538,217.9617,1085.1,225.955" style="stroke: #A80036; stroke-width: 1.0;"/><line style="stroke: #A80036; stroke-width: 1.0;" x1="1089.4174" x2="1096.325" y1="223.4331" y2="219.398"/><polygon fill="#A80036" points="1200.93,158.289,1193.7316,157.8617,1190.5685,164.3421,1197.767,164.7694,1200.93,158.289" style="stroke: #A80036; stroke-width: 1.0;"/><!--MD5=[bf97da5fe657ae69f287f34e8a237ad2]
link mastermind.views.View to mastermind.views.StartView--><path codeLine="104" d="M1267.5963,177.6919 C1267.5963,177.6919 1254.21,216.26 1248.58,232.498 " fill="none" id="mastermind.views.View-mastermind.views.StartView" style="stroke: #A80036; stroke-width: 1.0;"/><polygon fill="#A80036" points="1244.29,244.844,1251.0218,237.6549,1245.9307,240.1209,1243.4648,235.0298,1244.29,244.844" style="stroke: #A80036; stroke-width: 1.0;"/><line style="stroke: #A80036; stroke-width: 1.0;" x1="1245.9307" x2="1248.555" y1="240.1209" y2="232.563"/><polygon fill="#A80036" points="1271.53,166.355,1265.7842,170.7123,1267.5963,177.6919,1273.3422,173.3347,1271.53,166.355" style="stroke: #A80036; stroke-width: 1.0;"/><!--MD5=[365b629ac9f832fcadd636e21d2b2dd5]
link mastermind.views.View to mastermind.models.Game--><path codeLine="105" d="M1396.4558,142.2131 C1396.4558,142.2131 1641.65,264.162 1710,385 C1739.77,437.637 1730.46,774.568 1722,795 C1715.36,811.026 1703.38,825.392 1690.97,837.1056 " fill="none" id="mastermind.views.View-mastermind.models.Game" style="stroke: #A80036; stroke-width: 1.0;"/><polygon fill="#A80036" points="1681.01,845.9126,1690.4035,842.9525,1684.7575,842.6026,1685.1074,836.9565,1681.01,845.9126" style="stroke: #A80036; stroke-width: 1.0;"/><line style="stroke: #A80036; stroke-width: 1.0;" x1="1684.7575" x2="1690.75" y1="842.6026" y2="837.2986"/><polygon fill="#A80036" points="1385.39,137.571,1389.3755,143.5806,1396.4558,142.2131,1392.4702,136.2034,1385.39,137.571" style="stroke: #A80036; stroke-width: 1.0;"/><!--MD5=[d9d92d6dc97b208b24aa04d98e384545]
link mastermind.views.View to mastermind.views.ResumeView--><path codeLine="106" d="M1329.7071,177.0627 C1329.7071,177.0627 1344.82,206.936 1351.62,220.382 " fill="none" id="mastermind.views.View-mastermind.views.ResumeView" style="stroke: #A80036; stroke-width: 1.0;"/><polygon fill="#A80036" points="1357.68,232.349,1357.1864,222.5125,1355.4229,227.8875,1350.0479,226.1239,1357.68,232.349" style="stroke: #A80036; stroke-width: 1.0;"/><line style="stroke: #A80036; stroke-width: 1.0;" x1="1355.4229" x2="1351.81" y1="227.8875" y2="220.749"/><polygon fill="#A80036" points="1324.29,166.355,1323.4293,173.5146,1329.7071,177.0627,1330.5678,169.9031,1324.29,166.355" style="stroke: #A80036; stroke-width: 1.0;"/><!--MD5=[80dc8cafc812f6fa1663830aa9e54cb7]
@startuml
class  mastermind.views.ColorView{
- {static} INITIALS: char []
- color: Color
~ ColorView(Color)
~ {static} allInitials(): String
~ {static} getInstance(char): Color
~ write()
}
mastermind.utils.ColorCode <..down- mastermind.views.ColorView

class  mastermind.views.ErrorView{
- {static} MESSAGES: String []
- error: Error
~ ErrorView(Error error)
~ writeln()
}
mastermind.models.Error <..down- mastermind.views.ErrorView
mastermind.views.ErrorView ..> mastermind.views.ColorView

enum  mastermind.views.MessageView{
+ {static} ATTEMPTS: MessageView
+ {static} SECRET_COMBINATION: MessageView
+ {static} RESUME: MessageView
+ {static} RESULT: MessageView
+ {static} PROPOSED_COMBINATION: MessageView
+ {static} TITLE: MessageView
+ {static} WINNER: MessageView
+ {static} LOOSER: MessageView
- message: String
~ MessageView(String)
~ write()
~ writeln()
~ writeln(int)
~ writeln(int, int)
}

class  mastermind.views.ProposalView{
- game: Game
- secretCombinationView: SecretCombinationView
~ ProposalView(Game)
~ interact(): boolean
}
mastermind.models.ProposedCombination <..down- mastermind.views.ProposalView
mastermind.utils.WithConsoleView <|-down- mastermind.views.ProposalView
mastermind.views.ProposalView ..> mastermind.models.Game
mastermind.views.ProposalView ..> mastermind.views.MessageView
mastermind.views.ProposalView ..> mastermind.views.SecretCombinationView
mastermind.views.ProposalView ..> mastermind.views.ProposedCombinationView
mastermind.views.ProposalView ..> mastermind.views.ResultView

class  mastermind.views.ProposedCombinationView{
- proposedCombination: ProposedCombination
~ ProposedCombinationView(ProposedCombination)
~ write()
~ read()
}
mastermind.utils.WithConsoleView <|-down- mastermind.views.ProposedCombinationView
mastermind.views.ProposedCombinationView..> mastermind.views.MessageView
mastermind.views.ProposedCombinationView..> mastermind.views.ColorView


class  mastermind.views.ResultView{
- result: Result
~ ResultView()
~ writeln()
}
mastermind.utils.WithConsoleView <|-down- mastermind.views.ResultView
mastermind.models.Result <..down- mastermind.views.ResultView
mastermind.views.ResultView..> mastermind.views.MessageView

class  mastermind.views.ResumeView{
- game: Game
~ ResumeView()
~ interact(): boolean
}
mastermind.views.ResumeView ..> mastermind.models.Game
mastermind.utils.YesNoDialog <..down- mastermind.views.ResumeView
mastermind.views.ResumeView..> mastermind.views.MessageView

class  mastermind.views.SecretCombinationView{
~ SecretCombinationView()
~ writeln()
}
mastermind.utils.WithConsoleView <|-down- mastermind.views.SecretCombinationView
mastermind.views.SecretCombinationView..> mastermind.views.MessageView

class  mastermind.views.StartView{
~ interact()
}
mastermind.utils.WithConsoleView <|-down- mastermind.views.StartView
mastermind.views.StartView ..> mastermind.models.Game
mastermind.views.StartView..> mastermind.views.MessageView
mastermind.views.StartView..> mastermind.views.SecretCombinationView

class  mastermind.views.View{
# game: Game
- startView: StartView
- proposalView: ProposalView
- resumeView: ResumeView
+ View(Game)
+ interact()
}
mastermind.views.View *-down-> mastermind.views.ProposalView
mastermind.views.View *-down-> mastermind.views.StartView
mastermind.views.View *-down-> mastermind.models.Game
mastermind.views.View *-down-> mastermind.views.ResumeView
@enduml

PlantUML version 1.2020.20beta4(Unknown compile time)
(GPL source distribution)
Java Runtime: Java(TM) SE Runtime Environment
JVM: Java HotSpot(TM) 64-Bit Server VM
Default Encoding: UTF-8
Language: en
Country: US
--></g></svg>