<?xml version="1.0" encoding="UTF-8" standalone="no"?><svg xmlns="http://www.w3.org/2000/svg" xmlns:xlink="http://www.w3.org/1999/xlink" contentScriptType="application/ecmascript" contentStyleType="text/css" height="757px" preserveAspectRatio="none" style="width:528px;height:757px;" version="1.1" viewBox="0 0 528 757" width="528px" zoomAndPan="magnify"><defs><filter height="300%" id="f12guf09wgg9gh" width="300%" x="-1" y="-1"><feGaussianBlur result="blurOut" stdDeviation="2.0"/><feColorMatrix in="blurOut" result="blurOut2" type="matrix" values="0 0 0 0 0 0 0 0 0 0 0 0 0 0 0 0 0 0 .4 0"/><feOffset dx="4.0" dy="4.0" in="blurOut2" result="blurOut3"/><feBlend in="SourceGraphic" in2="blurOut3" mode="normal"/></filter></defs><g><!--MD5=[8e0b9655f0966c29230933410523611d]
cluster mastermind.models--><polygon fill="#FFFFFF" filter="url(#f12guf09wgg9gh)" points="16,6,183,6,190,28.2969,511,28.2969,511,750,16,750,16,6" style="stroke: #000000; stroke-width: 1.5;"/><line style="stroke: #000000; stroke-width: 1.5;" x1="16" x2="190" y1="28.2969" y2="28.2969"/><text fill="#000000" font-family="sans-serif" font-size="14" font-weight="bold" lengthAdjust="spacingAndGlyphs" textLength="161" x="20" y="20.9951">mastermind.models</text><!--MD5=[d5dd2c70e89db13b97018ba79382d349]
class mastermind.models.Color--><rect codeLine="1" fill="#FEFECE" filter="url(#f12guf09wgg9gh)" height="137.6328" id="mastermind.models.Color" style="stroke: #A80036; stroke-width: 1.5;" width="91" x="208.5" y="596"/><ellipse cx="235.65" cy="612" fill="#EB937F" rx="11" ry="11" style="stroke: #A80036; stroke-width: 1.0;"/><path d="M234.4469,612.875 L235.9,612.875 L235.9,612.9844 C235.9,613.3906 235.9313,613.5469 236.0094,613.7031 C236.1656,613.9531 236.4469,614.1094 236.7438,614.1094 C236.9938,614.1094 237.2594,613.9688 237.4156,613.75 C237.5406,613.5938 237.5719,613.4375 237.5719,612.9844 L237.5719,611.0625 C237.5719,610.9063 237.5719,610.8594 237.5563,610.7031 C237.4938,610.2344 237.1813,609.9219 236.7281,609.9219 C236.4781,609.9219 236.2125,610.0625 236.0406,610.2813 C235.9313,610.4531 235.9,610.6094 235.9,611.0625 L235.9,611.1875 L234.4469,611.1875 L234.4469,608.7813 L238.4313,608.7813 L238.4313,609.6406 C238.4313,610.0469 238.4625,610.2188 238.5406,610.375 C238.7125,610.625 238.9938,610.7813 239.275,610.7813 C239.5406,610.7813 239.8063,610.6406 239.9781,610.4219 C240.0875,610.25 240.1188,610.1094 240.1188,609.6406 L240.1188,607.0938 L232.4938,607.0938 C232.0563,607.0938 231.9313,607.1094 231.775,607.2031 C231.525,607.3594 231.3688,607.6563 231.3688,607.9375 C231.3688,608.2188 231.5094,608.4688 231.7281,608.6406 C231.8844,608.75 232.0719,608.7813 232.4938,608.7813 L232.7438,608.7813 L232.7438,615.2969 L232.4938,615.2969 C232.0875,615.2969 231.9313,615.3125 231.775,615.4219 C231.525,615.5938 231.3688,615.8594 231.3688,616.1563 C231.3688,616.4219 231.5094,616.6719 231.7281,616.8281 C231.8688,616.9531 232.1031,617 232.4938,617 L240.4938,617 L240.4938,614.4219 C240.4938,613.9844 240.4625,613.8438 240.3844,613.6875 C240.2125,613.4375 239.9313,613.2813 239.65,613.2813 C239.3844,613.2813 239.1188,613.3906 238.9469,613.6406 C238.8375,613.7969 238.8063,613.9375 238.8063,614.4219 L238.8063,615.2969 L234.4469,615.2969 L234.4469,612.875 Z "/><text fill="#000000" font-family="sans-serif" font-size="12" lengthAdjust="spacingAndGlyphs" textLength="32" x="252.35" y="616.1543">Color</text><line style="stroke: #A80036; stroke-width: 1.5;" x1="209.5" x2="298.5" y1="628" y2="628"/><ellipse cx="219.5" cy="639" fill="none" rx="3" ry="3" style="stroke: #038048; stroke-width: 1.0;"/><text fill="#000000" font-family="sans-serif" font-size="11" lengthAdjust="spacingAndGlyphs" textLength="23" x="228.5" y="642.2104">RED</text><ellipse cx="219.5" cy="651.8047" fill="none" rx="3" ry="3" style="stroke: #038048; stroke-width: 1.0;"/><text fill="#000000" font-family="sans-serif" font-size="11" lengthAdjust="spacingAndGlyphs" textLength="29" x="228.5" y="655.0151">BLUE</text><ellipse cx="219.5" cy="664.6094" fill="none" rx="3" ry="3" style="stroke: #038048; stroke-width: 1.0;"/><text fill="#000000" font-family="sans-serif" font-size="11" lengthAdjust="spacingAndGlyphs" textLength="46" x="228.5" y="667.8198">YELLOW</text><ellipse cx="219.5" cy="677.4141" fill="none" rx="3" ry="3" style="stroke: #038048; stroke-width: 1.0;"/><text fill="#000000" font-family="sans-serif" font-size="11" lengthAdjust="spacingAndGlyphs" textLength="38" x="228.5" y="680.6245">GREEN</text><ellipse cx="219.5" cy="690.2188" fill="none" rx="3" ry="3" style="stroke: #038048; stroke-width: 1.0;"/><text fill="#000000" font-family="sans-serif" font-size="11" lengthAdjust="spacingAndGlyphs" textLength="48" x="228.5" y="693.4292">ORANGE</text><ellipse cx="219.5" cy="703.0234" fill="none" rx="3" ry="3" style="stroke: #038048; stroke-width: 1.0;"/><text fill="#000000" font-family="sans-serif" font-size="11" lengthAdjust="spacingAndGlyphs" textLength="40" x="228.5" y="706.2339">PURPLE</text><line style="stroke: #A80036; stroke-width: 1.5;" x1="209.5" x2="298.5" y1="712.8281" y2="712.8281"/><polygon fill="#4177AF" points="219.5,719.8281,215.5,725.8281,223.5,725.8281" style="stroke: #1963A0; stroke-width: 1.0;"/><text fill="#000000" font-family="sans-serif" font-size="11" lengthAdjust="spacingAndGlyphs" text-decoration="underline" textLength="65" x="228.5" y="727.0386">length(): int</text><!--MD5=[9c5442b9d48adcb788f4fd60193e9fcb]
class mastermind.models.Combination--><rect codeLine="11" fill="#FEFECE" filter="url(#f12guf09wgg9gh)" height="86.4141" id="mastermind.models.Combination" style="stroke: #A80036; stroke-width: 1.5;" width="108" x="387" y="86"/><ellipse cx="402" cy="102" fill="#A9DCDF" rx="11" ry="11" style="stroke: #A80036; stroke-width: 1.0;"/><path d="M404.0781,103.8125 L404.4688,104.7969 L404.0781,104.7969 C403.625,104.7969 403.5156,104.8125 403.3594,104.9219 C403.1094,105.0781 402.9531,105.3594 402.9531,105.6563 C402.9531,105.9219 403.0938,106.1719 403.3125,106.3281 C403.4531,106.4531 403.6563,106.5 404.0781,106.5 L406.4375,106.5 C406.7969,106.5 407.0156,106.4688 407.1563,106.375 C407.4063,106.2344 407.5625,105.9375 407.5625,105.6563 C407.5625,105.375 407.4219,105.125 407.2031,104.9688 C407.0313,104.8281 406.875,104.7969 406.4063,104.7969 L403.0156,96.5938 L399.3438,96.5938 C398.8906,96.5938 398.7656,96.6094 398.6094,96.7031 C398.3594,96.875 398.2031,97.1563 398.2031,97.4375 C398.2031,97.7188 398.3438,97.9688 398.5625,98.1406 C398.7344,98.25 398.9063,98.2813 399.3438,98.2813 L400.4219,98.2813 L397.7813,104.7969 C397.3594,104.7969 397.2031,104.8125 397.0469,104.9219 C396.7969,105.0781 396.6406,105.3594 396.6406,105.6563 C396.6406,106.2188 397.0156,106.5 397.7656,106.5 L400.0313,106.5 C400.3906,106.5 400.6094,106.4688 400.7344,106.375 C401,106.2344 401.1406,105.9375 401.1406,105.6563 C401.1406,105.375 401.0156,105.125 400.7969,104.9531 C400.625,104.8281 400.4844,104.7969 400.0313,104.7969 L399.6406,104.7969 L400.0313,103.8125 L404.0781,103.8125 Z M403.375,102.1094 L400.7031,102.1094 L402.0469,98.8438 L403.375,102.1094 Z "/><text fill="#000000" font-family="sans-serif" font-size="12" font-style="italic" lengthAdjust="spacingAndGlyphs" textLength="76" x="416" y="106.1543">Combination</text><line style="stroke: #A80036; stroke-width: 1.5;" x1="388" x2="494" y1="118" y2="118"/><rect fill="none" height="6" style="stroke: #C82930; stroke-width: 1.0;" width="6" x="395" y="126"/><text fill="#000000" font-family="sans-serif" font-size="11" lengthAdjust="spacingAndGlyphs" text-decoration="underline" textLength="59" x="407" y="132.2104">WIDTH: int</text><line style="stroke: #A80036; stroke-width: 1.5;" x1="388" x2="494" y1="138.8047" y2="138.8047"/><polygon fill="#FFFF44" points="398,144.8047,402,148.8047,398,152.8047,394,148.8047" style="stroke: #B38D22; stroke-width: 1.0;"/><text fill="#000000" font-family="sans-serif" font-size="11" lengthAdjust="spacingAndGlyphs" textLength="79" x="407" y="153.0151">Combination()</text><ellipse cx="398" cy="162.6094" fill="#84BE84" rx="3" ry="3" style="stroke: #038048; stroke-width: 1.0;"/><text fill="#000000" font-family="sans-serif" font-size="11" lengthAdjust="spacingAndGlyphs" text-decoration="underline" textLength="80" x="407" y="165.8198">getWidth(): int</text><!--MD5=[3bbd847d2bed55d759f67ce45ba3cf97]
class mastermind.models.Error--><rect codeLine="18" fill="#FEFECE" filter="url(#f12guf09wgg9gh)" height="86.4141" id="mastermind.models.Error" style="stroke: #A80036; stroke-width: 1.5;" width="152" x="335" y="622"/><ellipse cx="391.75" cy="638" fill="#EB937F" rx="11" ry="11" style="stroke: #A80036; stroke-width: 1.0;"/><path d="M390.5469,638.875 L392,638.875 L392,638.9844 C392,639.3906 392.0313,639.5469 392.1094,639.7031 C392.2656,639.9531 392.5469,640.1094 392.8438,640.1094 C393.0938,640.1094 393.3594,639.9688 393.5156,639.75 C393.6406,639.5938 393.6719,639.4375 393.6719,638.9844 L393.6719,637.0625 C393.6719,636.9063 393.6719,636.8594 393.6563,636.7031 C393.5938,636.2344 393.2813,635.9219 392.8281,635.9219 C392.5781,635.9219 392.3125,636.0625 392.1406,636.2813 C392.0313,636.4531 392,636.6094 392,637.0625 L392,637.1875 L390.5469,637.1875 L390.5469,634.7813 L394.5313,634.7813 L394.5313,635.6406 C394.5313,636.0469 394.5625,636.2188 394.6406,636.375 C394.8125,636.625 395.0938,636.7813 395.375,636.7813 C395.6406,636.7813 395.9063,636.6406 396.0781,636.4219 C396.1875,636.25 396.2188,636.1094 396.2188,635.6406 L396.2188,633.0938 L388.5938,633.0938 C388.1563,633.0938 388.0313,633.1094 387.875,633.2031 C387.625,633.3594 387.4688,633.6563 387.4688,633.9375 C387.4688,634.2188 387.6094,634.4688 387.8281,634.6406 C387.9844,634.75 388.1719,634.7813 388.5938,634.7813 L388.8438,634.7813 L388.8438,641.2969 L388.5938,641.2969 C388.1875,641.2969 388.0313,641.3125 387.875,641.4219 C387.625,641.5938 387.4688,641.8594 387.4688,642.1563 C387.4688,642.4219 387.6094,642.6719 387.8281,642.8281 C387.9688,642.9531 388.2031,643 388.5938,643 L396.5938,643 L396.5938,640.4219 C396.5938,639.9844 396.5625,639.8438 396.4844,639.6875 C396.3125,639.4375 396.0313,639.2813 395.75,639.2813 C395.4844,639.2813 395.2188,639.3906 395.0469,639.6406 C394.9375,639.7969 394.9063,639.9375 394.9063,640.4219 L394.9063,641.2969 L390.5469,641.2969 L390.5469,638.875 Z "/><text fill="#000000" font-family="sans-serif" font-size="12" lengthAdjust="spacingAndGlyphs" textLength="30" x="412.25" y="642.1543">Error</text><line style="stroke: #A80036; stroke-width: 1.5;" x1="336" x2="486" y1="654" y2="654"/><ellipse cx="346" cy="665" fill="none" rx="3" ry="3" style="stroke: #038048; stroke-width: 1.0;"/><text fill="#000000" font-family="sans-serif" font-size="11" lengthAdjust="spacingAndGlyphs" textLength="71" x="355" y="668.2104">DUPLICATED</text><ellipse cx="346" cy="677.8047" fill="none" rx="3" ry="3" style="stroke: #038048; stroke-width: 1.0;"/><text fill="#000000" font-family="sans-serif" font-size="11" lengthAdjust="spacingAndGlyphs" textLength="126" x="355" y="681.0151">WRONG_CHARACTERS</text><ellipse cx="346" cy="690.6094" fill="none" rx="3" ry="3" style="stroke: #038048; stroke-width: 1.0;"/><text fill="#000000" font-family="sans-serif" font-size="11" lengthAdjust="spacingAndGlyphs" textLength="95" x="355" y="693.8198">WRONG_LENGTH</text><line style="stroke: #A80036; stroke-width: 1.5;" x1="336" x2="486" y1="700.4141" y2="700.4141"/><!--MD5=[5e669b60aaac1a014a32b452096260f0]
class mastermind.models.Game--><rect codeLine="24" fill="#FEFECE" filter="url(#f12guf09wgg9gh)" height="176.0469" id="mastermind.models.Game" style="stroke: #A80036; stroke-width: 1.5;" width="320" x="32" y="41"/><ellipse cx="170.25" cy="57" fill="#ADD1B2" rx="11" ry="11" style="stroke: #A80036; stroke-width: 1.0;"/><path d="M172.5938,52.6719 C171.6563,52.2344 171.0625,52.0938 170.1875,52.0938 C167.5625,52.0938 165.5625,54.1719 165.5625,56.8906 L165.5625,58.0156 C165.5625,60.5938 167.6719,62.4844 170.5625,62.4844 C171.7813,62.4844 172.9375,62.1875 173.6875,61.6406 C174.2656,61.2344 174.5938,60.7813 174.5938,60.3906 C174.5938,59.9375 174.2031,59.5469 173.7344,59.5469 C173.5156,59.5469 173.3125,59.625 173.125,59.8125 C172.6719,60.2969 172.6719,60.2969 172.4844,60.3906 C172.0625,60.6563 171.375,60.7813 170.6094,60.7813 C168.5625,60.7813 167.2656,59.6875 167.2656,57.9844 L167.2656,56.8906 C167.2656,55.1094 168.5156,53.7969 170.25,53.7969 C170.8281,53.7969 171.4375,53.9531 171.9063,54.2031 C172.3906,54.4844 172.5625,54.7031 172.6563,55.1094 C172.7188,55.5156 172.75,55.6406 172.8906,55.7656 C173.0313,55.9063 173.2656,56.0156 173.4844,56.0156 C173.75,56.0156 174.0156,55.875 174.1875,55.6563 C174.2969,55.5 174.3281,55.3125 174.3281,54.8906 L174.3281,53.4688 C174.3281,53.0313 174.3125,52.9063 174.2188,52.75 C174.0625,52.4844 173.7813,52.3438 173.4844,52.3438 C173.1875,52.3438 172.9844,52.4375 172.7656,52.75 L172.5938,52.6719 Z "/><text fill="#000000" font-family="sans-serif" font-size="12" lengthAdjust="spacingAndGlyphs" textLength="35" x="190.75" y="61.1543">Game</text><line style="stroke: #A80036; stroke-width: 1.5;" x1="33" x2="351" y1="73" y2="73"/><rect fill="none" height="6" style="stroke: #C82930; stroke-width: 1.0;" width="6" x="40" y="81"/><text fill="#000000" font-family="sans-serif" font-size="11" lengthAdjust="spacingAndGlyphs" text-decoration="underline" textLength="84" x="52" y="87.2104">MAX_LONG: int</text><rect fill="none" height="6" style="stroke: #C82930; stroke-width: 1.0;" width="6" x="40" y="93.8047"/><text fill="#000000" font-family="sans-serif" font-size="11" lengthAdjust="spacingAndGlyphs" textLength="72" x="52" y="100.0151">attempts: int</text><line style="stroke: #A80036; stroke-width: 1.5;" x1="33" x2="351" y1="106.6094" y2="106.6094"/><ellipse cx="43" cy="117.6094" fill="#84BE84" rx="3" ry="3" style="stroke: #038048; stroke-width: 1.0;"/><text fill="#000000" font-family="sans-serif" font-size="11" lengthAdjust="spacingAndGlyphs" textLength="43" x="52" y="120.8198">Game()</text><ellipse cx="43" cy="130.4141" fill="#84BE84" rx="3" ry="3" style="stroke: #038048; stroke-width: 1.0;"/><text fill="#000000" font-family="sans-serif" font-size="11" lengthAdjust="spacingAndGlyphs" textLength="36" x="52" y="133.6245">clear()</text><ellipse cx="43" cy="143.2188" fill="#84BE84" rx="3" ry="3" style="stroke: #038048; stroke-width: 1.0;"/><text fill="#000000" font-family="sans-serif" font-size="11" lengthAdjust="spacingAndGlyphs" textLength="268" x="52" y="146.4292">addProposeCombination(ProposedCombination)</text><ellipse cx="43" cy="156.0234" fill="#84BE84" rx="3" ry="3" style="stroke: #038048; stroke-width: 1.0;"/><text fill="#000000" font-family="sans-serif" font-size="11" lengthAdjust="spacingAndGlyphs" textLength="108" x="52" y="159.2339">isLooser(): boolean</text><ellipse cx="43" cy="168.8281" fill="#84BE84" rx="3" ry="3" style="stroke: #038048; stroke-width: 1.0;"/><text fill="#000000" font-family="sans-serif" font-size="11" lengthAdjust="spacingAndGlyphs" textLength="110" x="52" y="172.0386">isWinner(): boolean</text><ellipse cx="43" cy="181.6328" fill="#84BE84" rx="3" ry="3" style="stroke: #038048; stroke-width: 1.0;"/><text fill="#000000" font-family="sans-serif" font-size="11" lengthAdjust="spacingAndGlyphs" textLength="100" x="52" y="184.8433">getAttempts(): int</text><ellipse cx="43" cy="194.4375" fill="#84BE84" rx="3" ry="3" style="stroke: #038048; stroke-width: 1.0;"/><text fill="#000000" font-family="sans-serif" font-size="11" lengthAdjust="spacingAndGlyphs" textLength="294" x="52" y="197.6479">getProposedCombination(int): ProposedCombination</text><ellipse cx="43" cy="207.2422" fill="#84BE84" rx="3" ry="3" style="stroke: #038048; stroke-width: 1.0;"/><text fill="#000000" font-family="sans-serif" font-size="11" lengthAdjust="spacingAndGlyphs" textLength="118" x="52" y="210.4526">getResult(int): Result</text><!--MD5=[18e11a8af630f25f1c94857378af7d3d]
class mastermind.models.SecretCombination--><rect codeLine="61" fill="#FEFECE" filter="url(#f12guf09wgg9gh)" height="73.6094" id="mastermind.models.SecretCombination" style="stroke: #A80036; stroke-width: 1.5;" width="253" x="73.5" y="277"/><ellipse cx="138.75" cy="293" fill="#ADD1B2" rx="11" ry="11" style="stroke: #A80036; stroke-width: 1.0;"/><path d="M141.0938,288.6719 C140.1563,288.2344 139.5625,288.0938 138.6875,288.0938 C136.0625,288.0938 134.0625,290.1719 134.0625,292.8906 L134.0625,294.0156 C134.0625,296.5938 136.1719,298.4844 139.0625,298.4844 C140.2813,298.4844 141.4375,298.1875 142.1875,297.6406 C142.7656,297.2344 143.0938,296.7813 143.0938,296.3906 C143.0938,295.9375 142.7031,295.5469 142.2344,295.5469 C142.0156,295.5469 141.8125,295.625 141.625,295.8125 C141.1719,296.2969 141.1719,296.2969 140.9844,296.3906 C140.5625,296.6563 139.875,296.7813 139.1094,296.7813 C137.0625,296.7813 135.7656,295.6875 135.7656,293.9844 L135.7656,292.8906 C135.7656,291.1094 137.0156,289.7969 138.75,289.7969 C139.3281,289.7969 139.9375,289.9531 140.4063,290.2031 C140.8906,290.4844 141.0625,290.7031 141.1563,291.1094 C141.2188,291.5156 141.25,291.6406 141.3906,291.7656 C141.5313,291.9063 141.7656,292.0156 141.9844,292.0156 C142.25,292.0156 142.5156,291.875 142.6875,291.6563 C142.7969,291.5 142.8281,291.3125 142.8281,290.8906 L142.8281,289.4688 C142.8281,289.0313 142.8125,288.9063 142.7188,288.75 C142.5625,288.4844 142.2813,288.3438 141.9844,288.3438 C141.6875,288.3438 141.4844,288.4375 141.2656,288.75 L141.0938,288.6719 Z "/><text fill="#000000" font-family="sans-serif" font-size="12" lengthAdjust="spacingAndGlyphs" textLength="114" x="159.25" y="297.1543">SecretCombination</text><line style="stroke: #A80036; stroke-width: 1.5;" x1="74.5" x2="325.5" y1="309" y2="309"/><line style="stroke: #A80036; stroke-width: 1.5;" x1="74.5" x2="325.5" y1="317" y2="317"/><polygon fill="#4177AF" points="84.5,324,80.5,330,88.5,330" style="stroke: #1963A0; stroke-width: 1.0;"/><text fill="#000000" font-family="sans-serif" font-size="11" lengthAdjust="spacingAndGlyphs" textLength="117" x="93.5" y="331.2104">SecretCombination()</text><polygon fill="#4177AF" points="84.5,336.8047,80.5,342.8047,88.5,342.8047" style="stroke: #1963A0; stroke-width: 1.0;"/><text fill="#000000" font-family="sans-serif" font-size="11" lengthAdjust="spacingAndGlyphs" textLength="227" x="93.5" y="344.0151">getResult(ProposedCombination): Result</text><!--MD5=[603f91c77aeeb81b8bb339fe7f288f7b]
class mastermind.models.Result--><rect codeLine="50" fill="#FEFECE" filter="url(#f12guf09wgg9gh)" height="124.8281" id="mastermind.models.Result" style="stroke: #A80036; stroke-width: 1.5;" width="136" x="41" y="411"/><ellipse cx="86.75" cy="427" fill="#ADD1B2" rx="11" ry="11" style="stroke: #A80036; stroke-width: 1.0;"/><path d="M89.0938,422.6719 C88.1563,422.2344 87.5625,422.0938 86.6875,422.0938 C84.0625,422.0938 82.0625,424.1719 82.0625,426.8906 L82.0625,428.0156 C82.0625,430.5938 84.1719,432.4844 87.0625,432.4844 C88.2813,432.4844 89.4375,432.1875 90.1875,431.6406 C90.7656,431.2344 91.0938,430.7813 91.0938,430.3906 C91.0938,429.9375 90.7031,429.5469 90.2344,429.5469 C90.0156,429.5469 89.8125,429.625 89.625,429.8125 C89.1719,430.2969 89.1719,430.2969 88.9844,430.3906 C88.5625,430.6563 87.875,430.7813 87.1094,430.7813 C85.0625,430.7813 83.7656,429.6875 83.7656,427.9844 L83.7656,426.8906 C83.7656,425.1094 85.0156,423.7969 86.75,423.7969 C87.3281,423.7969 87.9375,423.9531 88.4063,424.2031 C88.8906,424.4844 89.0625,424.7031 89.1563,425.1094 C89.2188,425.5156 89.25,425.6406 89.3906,425.7656 C89.5313,425.9063 89.7656,426.0156 89.9844,426.0156 C90.25,426.0156 90.5156,425.875 90.6875,425.6563 C90.7969,425.5 90.8281,425.3125 90.8281,424.8906 L90.8281,423.4688 C90.8281,423.0313 90.8125,422.9063 90.7188,422.75 C90.5625,422.4844 90.2813,422.3438 89.9844,422.3438 C89.6875,422.3438 89.4844,422.4375 89.2656,422.75 L89.0938,422.6719 Z "/><text fill="#000000" font-family="sans-serif" font-size="12" lengthAdjust="spacingAndGlyphs" textLength="36" x="107.25" y="431.1543">Result</text><line style="stroke: #A80036; stroke-width: 1.5;" x1="42" x2="176" y1="443" y2="443"/><rect fill="none" height="6" style="stroke: #C82930; stroke-width: 1.0;" width="6" x="49" y="451"/><text fill="#000000" font-family="sans-serif" font-size="11" lengthAdjust="spacingAndGlyphs" textLength="56" x="61" y="457.2104">blacks: int</text><rect fill="none" height="6" style="stroke: #C82930; stroke-width: 1.0;" width="6" x="49" y="463.8047"/><text fill="#000000" font-family="sans-serif" font-size="11" lengthAdjust="spacingAndGlyphs" textLength="58" x="61" y="470.0151">whites: int</text><line style="stroke: #A80036; stroke-width: 1.5;" x1="42" x2="176" y1="476.6094" y2="476.6094"/><polygon fill="#4177AF" points="52,483.6094,48,489.6094,56,489.6094" style="stroke: #1963A0; stroke-width: 1.0;"/><text fill="#000000" font-family="sans-serif" font-size="11" lengthAdjust="spacingAndGlyphs" textLength="78" x="61" y="490.8198">Result(int, int)</text><polygon fill="#4177AF" points="52,496.4141,48,502.4141,56,502.4141" style="stroke: #1963A0; stroke-width: 1.0;"/><text fill="#000000" font-family="sans-serif" font-size="11" lengthAdjust="spacingAndGlyphs" textLength="110" x="61" y="503.6245">isWinner(): boolean</text><ellipse cx="52" cy="513.2188" fill="#84BE84" rx="3" ry="3" style="stroke: #038048; stroke-width: 1.0;"/><text fill="#000000" font-family="sans-serif" font-size="11" lengthAdjust="spacingAndGlyphs" textLength="84" x="61" y="516.4292">getBlacks(): int</text><ellipse cx="52" cy="526.0234" fill="#84BE84" rx="3" ry="3" style="stroke: #038048; stroke-width: 1.0;"/><text fill="#000000" font-family="sans-serif" font-size="11" lengthAdjust="spacingAndGlyphs" textLength="87" x="61" y="529.2339">getWhites(): int</text><!--MD5=[ce8dc00f64766c3d9ddc5c23d11e019b]
class mastermind.models.ProposedCombination--><rect codeLine="40" fill="#FEFECE" filter="url(#f12guf09wgg9gh)" height="99.2188" id="mastermind.models.ProposedCombination" style="stroke: #A80036; stroke-width: 1.5;" width="184" x="311" y="424"/><ellipse cx="335" cy="440" fill="#ADD1B2" rx="11" ry="11" style="stroke: #A80036; stroke-width: 1.0;"/><path d="M337.3438,435.6719 C336.4063,435.2344 335.8125,435.0938 334.9375,435.0938 C332.3125,435.0938 330.3125,437.1719 330.3125,439.8906 L330.3125,441.0156 C330.3125,443.5938 332.4219,445.4844 335.3125,445.4844 C336.5313,445.4844 337.6875,445.1875 338.4375,444.6406 C339.0156,444.2344 339.3438,443.7813 339.3438,443.3906 C339.3438,442.9375 338.9531,442.5469 338.4844,442.5469 C338.2656,442.5469 338.0625,442.625 337.875,442.8125 C337.4219,443.2969 337.4219,443.2969 337.2344,443.3906 C336.8125,443.6563 336.125,443.7813 335.3594,443.7813 C333.3125,443.7813 332.0156,442.6875 332.0156,440.9844 L332.0156,439.8906 C332.0156,438.1094 333.2656,436.7969 335,436.7969 C335.5781,436.7969 336.1875,436.9531 336.6563,437.2031 C337.1406,437.4844 337.3125,437.7031 337.4063,438.1094 C337.4688,438.5156 337.5,438.6406 337.6406,438.7656 C337.7813,438.9063 338.0156,439.0156 338.2344,439.0156 C338.5,439.0156 338.7656,438.875 338.9375,438.6563 C339.0469,438.5 339.0781,438.3125 339.0781,437.8906 L339.0781,436.4688 C339.0781,436.0313 339.0625,435.9063 338.9688,435.75 C338.8125,435.4844 338.5313,435.3438 338.2344,435.3438 C337.9375,435.3438 337.7344,435.4375 337.5156,435.75 L337.3438,435.6719 Z "/><text fill="#000000" font-family="sans-serif" font-size="12" lengthAdjust="spacingAndGlyphs" textLength="132" x="351" y="444.1543">ProposedCombination</text><line style="stroke: #A80036; stroke-width: 1.5;" x1="312" x2="494" y1="456" y2="456"/><line style="stroke: #A80036; stroke-width: 1.5;" x1="312" x2="494" y1="464" y2="464"/><ellipse cx="322" cy="475" fill="#84BE84" rx="3" ry="3" style="stroke: #038048; stroke-width: 1.0;"/><text fill="#000000" font-family="sans-serif" font-size="11" lengthAdjust="spacingAndGlyphs" textLength="131" x="331" y="478.2104">ProposedCombination()</text><polygon fill="#4177AF" points="322,483.8047,318,489.8047,326,489.8047" style="stroke: #1963A0; stroke-width: 1.0;"/><text fill="#000000" font-family="sans-serif" font-size="11" lengthAdjust="spacingAndGlyphs" textLength="158" x="331" y="491.0151">contains(Color, int): boolean</text><polygon fill="#4177AF" points="322,496.6094,318,502.6094,326,502.6094" style="stroke: #1963A0; stroke-width: 1.0;"/><text fill="#000000" font-family="sans-serif" font-size="11" lengthAdjust="spacingAndGlyphs" textLength="137" x="331" y="503.8198">contains(Color): boolean</text><ellipse cx="322" cy="513.4141" fill="#84BE84" rx="3" ry="3" style="stroke: #038048; stroke-width: 1.0;"/><text fill="#000000" font-family="sans-serif" font-size="11" lengthAdjust="spacingAndGlyphs" textLength="135" x="331" y="516.6245">getColors(): List&lt;Color&gt;</text><!--MD5=[ef2bf6466fd2ef34b9ffecd6201583c7]
link mastermind.models.Combination to mastermind.models.Color--><path codeLine="16" d="M422.5749,183.3929 C422.5749,183.3929 377.416,297.588 344,351 C325.438,380.67 307.549,379.169 293,411 C268.314,465.009 258.773,531.563 255.292,582.853 " fill="none" id="mastermind.models.Combination-mastermind.models.Color" style="stroke: #A80036; stroke-width: 1.0;"/><polygon fill="#A80036" points="254.515,595.881,259.0439,587.1352,254.8128,590.8899,251.0581,586.6587,254.515,595.881" style="stroke: #A80036; stroke-width: 1.0;"/><line style="stroke: #A80036; stroke-width: 1.0;" x1="254.8128" x2="255.289" y1="590.8899" y2="582.904"/><polygon fill="#A80036" points="426.694,172.122,420.8775,176.3844,422.5749,183.3929,428.3914,179.1305,426.694,172.122" style="stroke: #A80036; stroke-width: 1.0;"/><text fill="#000000" font-family="sans-serif" font-size="13" lengthAdjust="spacingAndGlyphs" textLength="7" x="247.2072" y="585.0723">*</text><!--MD5=[51d817dc75f97c6f89eda65baf901e9a]
link mastermind.models.Game to mastermind.models.SecretCombination--><path codeLine="36" d="M196.3379,229.2005 C196.3379,229.2005 197.388,253.257 197.841,263.621 " fill="none" id="mastermind.models.Game-mastermind.models.SecretCombination" style="stroke: #A80036; stroke-width: 1.0;"/><polygon fill="#A80036" points="198.411,276.654,202.0135,267.4877,198.1923,271.6588,194.0212,267.8376,198.411,276.654" style="stroke: #A80036; stroke-width: 1.0;"/><line style="stroke: #A80036; stroke-width: 1.0;" x1="198.1923" x2="197.8435" y1="271.6588" y2="263.666"/><polygon fill="#A80036" points="195.813,217.212,192.0793,223.3812,196.3379,229.2005,200.0716,223.0313,195.813,217.212" style="stroke: #A80036; stroke-width: 1.0;"/><!--MD5=[f3dfce6ee53d74daeb4523d26c9127c0]
link mastermind.models.Game to mastermind.models.Result--><path codeLine="37" d="M85.208,226.4409 C85.208,226.4409 62.8504,259.508 56,277 C40.6765,316.127 51.2051,361.322 66.7906,398.395 " fill="none" id="mastermind.models.Game-mastermind.models.Result" style="stroke: #A80036; stroke-width: 1.0;"/><polygon fill="#A80036" points="72.24,410.635,72.2339,400.7861,70.2065,406.0672,64.9254,404.0398,72.24,410.635" style="stroke: #A80036; stroke-width: 1.0;"/><line style="stroke: #A80036; stroke-width: 1.0;" x1="70.2065" x2="66.9528" y1="406.0672" y2="398.7595"/><polygon fill="#A80036" points="92.623,217.006,85.7705,219.2518,85.208,226.4409,92.0604,224.1951,92.623,217.006" style="stroke: #A80036; stroke-width: 1.0;"/><!--MD5=[0bfb87d985ab5751d2f1c815e30e0bc2]
link mastermind.models.Game to mastermind.models.ProposedCombination--><path codeLine="38" d="M305.0691,226.0942 C305.0691,226.0942 333.316,259.48 344,277 C369.096,318.153 384.177,370.736 392.802,411.001 " fill="none" id="mastermind.models.Game-mastermind.models.ProposedCombination" style="stroke: #A80036; stroke-width: 1.0;"/><polygon fill="#A80036" points="395.432,423.88,397.5501,414.2616,394.4315,418.9811,389.7119,415.8625,395.432,423.88" style="stroke: #A80036; stroke-width: 1.0;"/><line style="stroke: #A80036; stroke-width: 1.0;" x1="394.4315" x2="392.831" y1="418.9811" y2="411.1435"/><polygon fill="#A80036" points="296.885,217.318,298.0516,224.4341,305.0691,226.0942,303.9024,218.9781,296.885,217.318" style="stroke: #A80036; stroke-width: 1.0;"/><text fill="#000000" font-family="sans-serif" font-size="13" lengthAdjust="spacingAndGlyphs" textLength="7" x="386.8756" y="412.9084">*</text><!--MD5=[7b29684056909414a3cc5ff3d855d9cb]
reverse link mastermind.models.Combination to mastermind.models.ProposedCombination--><path codeLine="46" d="M424.015,192.121 C412.813,258.718 401.527,363.06 399.169,423.913 " fill="none" id="mastermind.models.Combination-backto-mastermind.models.ProposedCombination" style="stroke: #A80036; stroke-width: 1.0;"/><polygon fill="none" points="417.142,190.793,427.559,172.341,430.922,193.262,417.142,190.793" style="stroke: #A80036; stroke-width: 1.0;"/><!--MD5=[9bbf6f8a79dc032e26eb14ab800669a4]
link mastermind.models.ProposedCombination to mastermind.models.Combination--><path codeLine="59" d="M418.155,423.913 C430.421,358.46 443.242,242.695 445.404,177.7 " fill="none" id="mastermind.models.ProposedCombination-to-mastermind.models.Combination" style="stroke: #A80036; stroke-width: 1.0; stroke-dasharray: 7.0,7.0;"/><polygon fill="#A80036" points="445.56,172.341,441.2968,181.2194,445.4128,177.3388,449.2934,181.4548,445.56,172.341" style="stroke: #A80036; stroke-width: 1.0;"/><!--MD5=[ade6e74b660bcc3c74e70abb8c2e26de]
link mastermind.models.ProposedCombination to mastermind.models.Error--><path codeLine="47" d="M405.06,523.301 C406.272,552.001 407.797,588.122 408.998,616.58 " fill="none" id="mastermind.models.ProposedCombination-to-mastermind.models.Error" style="stroke: #A80036; stroke-width: 1.0; stroke-dasharray: 7.0,7.0;"/><polygon fill="#A80036" points="409.218,621.8,412.8339,612.6389,409.0066,616.8045,404.841,612.9772,409.218,621.8" style="stroke: #A80036; stroke-width: 1.0;"/><!--MD5=[d7d124d7e1f2333215e4578cf60f9cf9]
link mastermind.models.ProposedCombination to mastermind.models.Color--><path codeLine="48" d="M364.629,523.301 C345.804,547.243 322.918,576.349 302.858,601.862 " fill="none" id="mastermind.models.ProposedCombination-to-mastermind.models.Color" style="stroke: #A80036; stroke-width: 1.0; stroke-dasharray: 7.0,7.0;"/><polygon fill="#A80036" points="299.664,605.925,308.3714,601.3228,302.7546,601.9946,302.0828,596.3778,299.664,605.925" style="stroke: #A80036; stroke-width: 1.0;"/><!--MD5=[8b7fe5937727b3f2af2b7e0c077d6894]
reverse link mastermind.models.Combination to mastermind.models.SecretCombination--><path codeLine="65" d="M398.224,187.802 C389.197,198.158 379.274,208.381 369,217 C341.339,240.205 307.277,260.783 276.997,276.877 " fill="none" id="mastermind.models.Combination-backto-mastermind.models.SecretCombination" style="stroke: #A80036; stroke-width: 1.0;"/><polygon fill="none" points="393.018,183.114,411.165,172.174,403.801,192.043,393.018,183.114" style="stroke: #A80036; stroke-width: 1.0;"/><!--MD5=[608050f9e03cd77b6b0a92b040850965]
link mastermind.models.SecretCombination to mastermind.models.Result--><path codeLine="66" d="M179.123,351.134 C169.69,367.46 158.236,387.283 147.344,406.135 " fill="none" id="mastermind.models.SecretCombination-to-mastermind.models.Result" style="stroke: #A80036; stroke-width: 1.0; stroke-dasharray: 7.0,7.0;"/><polygon fill="#A80036" points="144.589,410.904,152.5554,405.113,147.0907,406.5749,145.6288,401.1102,144.589,410.904" style="stroke: #A80036; stroke-width: 1.0;"/><!--MD5=[54781d8fdb284276f9889310d1de69a6]
link mastermind.models.SecretCombination to mastermind.models.ProposedCombination--><path codeLine="67" d="M246.572,351.134 C273.126,371.735 306.856,397.906 336.192,420.666 " fill="none" id="mastermind.models.SecretCombination-to-mastermind.models.ProposedCombination" style="stroke: #A80036; stroke-width: 1.0; stroke-dasharray: 7.0,7.0;"/><polygon fill="#A80036" points="340.487,423.998,335.8297,415.3199,336.5371,420.9324,330.9246,421.6398,340.487,423.998" style="stroke: #A80036; stroke-width: 1.0;"/><!--MD5=[e1ae3c6f117e82f929fd4c81fd109de0]
link mastermind.models.SecretCombination to mastermind.models.Color--><path codeLine="68" d="M205.576,351.035 C214.286,407.33 231.299,517.285 242.66,590.707 " fill="none" id="mastermind.models.SecretCombination-to-mastermind.models.Color" style="stroke: #A80036; stroke-width: 1.0; stroke-dasharray: 7.0,7.0;"/><polygon fill="#A80036" points="243.468,595.929,246.0449,586.4232,242.7035,590.9878,238.139,587.6464,243.468,595.929" style="stroke: #A80036; stroke-width: 1.0;"/><!--MD5=[b03d12c085ebdd3966922c60b6a08ff1]
@startuml
enum mastermind.models.Color {
+ RED
+ BLUE
+ YELLOW
+ GREEN
+ ORANGE
+ PURPLE
~ {static} length(): int
}

abstract class mastermind.models.Combination {
- {static} WIDTH: int
# Combination()
+ {static} getWidth(): int
}
mastermind.models.Combination *-down-> "*" mastermind.models.Color

enum mastermind.models.Error {
+ DUPLICATED
+ WRONG_CHARACTERS
+ WRONG_LENGTH
}

class mastermind.models.Game {
- {static} MAX_LONG: int
- attempts: int
+ Game()
+ clear()
+ addProposeCombination(ProposedCombination)
+ isLooser(): boolean
+ isWinner(): boolean
+ getAttempts(): int
+ getProposedCombination(int): ProposedCombination
+ getResult(int): Result
}
mastermind.models.Game *-down-> mastermind.models.SecretCombination
mastermind.models.Game *-down-> mastermind.models.Result
mastermind.models.Game *-down-> "*" mastermind.models.ProposedCombination

class mastermind.models.ProposedCombination {
+ ProposedCombination()
~ contains(Color, int): boolean
~ contains(Color): boolean
+ getColors(): List<Color>
}
mastermind.models.Combination <|-down- mastermind.models.ProposedCombination
mastermind.models.ProposedCombination ..> mastermind.models.Error
mastermind.models.ProposedCombination ..> mastermind.models.Color

class mastermind.models.Result {
- blacks: int
- whites: int
~ Result(int, int)
~ isWinner(): boolean
+ getBlacks(): int
+ getWhites(): int
}

mastermind.models.ProposedCombination ..> mastermind.models.Combination

class mastermind.models.SecretCombination {
~ SecretCombination()
~ getResult(ProposedCombination): Result
}
mastermind.models.Combination <|-down- mastermind.models.SecretCombination
mastermind.models.SecretCombination ..> mastermind.models.Result
mastermind.models.SecretCombination ..> mastermind.models.ProposedCombination
mastermind.models.SecretCombination ..> mastermind.models.Color
@enduml

PlantUML version 1.2020.20beta4(Unknown compile time)
(GPL source distribution)
Java Runtime: Java(TM) SE Runtime Environment
JVM: Java HotSpot(TM) 64-Bit Server VM
Default Encoding: UTF-8
Language: en
Country: US
--></g></svg>