<?xml version="1.0" encoding="UTF-8" standalone="no"?><svg xmlns="http://www.w3.org/2000/svg" xmlns:xlink="http://www.w3.org/1999/xlink" contentScriptType="application/ecmascript" contentStyleType="text/css" height="614px" preserveAspectRatio="none" style="width:604px;height:614px;" version="1.1" viewBox="0 0 604 614" width="604px" zoomAndPan="magnify"><defs><filter height="300%" id="f13pi3j7foqvy8" width="300%" x="-1" y="-1"><feGaussianBlur result="blurOut" stdDeviation="2.0"/><feColorMatrix in="blurOut" result="blurOut2" type="matrix" values="0 0 0 0 0 0 0 0 0 0 0 0 0 0 0 0 0 0 .4 0"/><feOffset dx="4.0" dy="4.0" in="blurOut2" result="blurOut3"/><feBlend in="SourceGraphic" in2="blurOut3" mode="normal"/></filter></defs><g><!--MD5=[f2bedc297083edee028363469990e0f1]
cluster mastermind.utils--><polygon fill="#FFFFFF" filter="url(#f13pi3j7foqvy8)" points="16,6,162,6,169,28.2969,587,28.2969,587,508,16,508,16,6" style="stroke: #000000; stroke-width: 1.5;"/><line style="stroke: #000000; stroke-width: 1.5;" x1="16" x2="169" y1="28.2969" y2="28.2969"/><text fill="#000000" font-family="sans-serif" font-size="14" font-weight="bold" lengthAdjust="spacingAndGlyphs" textLength="140" x="20" y="20.9951">mastermind.utils</text><!--MD5=[2a0dd88fc4abf06286587b862e356914]
class mastermind.utils.ClosedInterval--><rect codeLine="3" fill="#FEFECE" filter="url(#f13pi3j7foqvy8)" height="99.2188" id="mastermind.utils.ClosedInterval" style="stroke: #A80036; stroke-width: 1.5;" width="151" x="419.5" y="86"/><ellipse cx="449.35" cy="102" fill="#ADD1B2" rx="11" ry="11" style="stroke: #A80036; stroke-width: 1.0;"/><path d="M451.6938,97.6719 C450.7563,97.2344 450.1625,97.0938 449.2875,97.0938 C446.6625,97.0938 444.6625,99.1719 444.6625,101.8906 L444.6625,103.0156 C444.6625,105.5938 446.7719,107.4844 449.6625,107.4844 C450.8813,107.4844 452.0375,107.1875 452.7875,106.6406 C453.3656,106.2344 453.6938,105.7813 453.6938,105.3906 C453.6938,104.9375 453.3031,104.5469 452.8344,104.5469 C452.6156,104.5469 452.4125,104.625 452.225,104.8125 C451.7719,105.2969 451.7719,105.2969 451.5844,105.3906 C451.1625,105.6563 450.475,105.7813 449.7094,105.7813 C447.6625,105.7813 446.3656,104.6875 446.3656,102.9844 L446.3656,101.8906 C446.3656,100.1094 447.6156,98.7969 449.35,98.7969 C449.9281,98.7969 450.5375,98.9531 451.0063,99.2031 C451.4906,99.4844 451.6625,99.7031 451.7563,100.1094 C451.8188,100.5156 451.85,100.6406 451.9906,100.7656 C452.1313,100.9063 452.3656,101.0156 452.5844,101.0156 C452.85,101.0156 453.1156,100.875 453.2875,100.6563 C453.3969,100.5 453.4281,100.3125 453.4281,99.8906 L453.4281,98.4688 C453.4281,98.0313 453.4125,97.9063 453.3188,97.75 C453.1625,97.4844 452.8813,97.3438 452.5844,97.3438 C452.2875,97.3438 452.0844,97.4375 451.8656,97.75 L451.6938,97.6719 Z "/><text fill="#000000" font-family="sans-serif" font-size="12" lengthAdjust="spacingAndGlyphs" textLength="86" x="466.65" y="106.1543">ClosedInterval</text><line style="stroke: #A80036; stroke-width: 1.5;" x1="420.5" x2="569.5" y1="118" y2="118"/><rect fill="none" height="6" style="stroke: #C82930; stroke-width: 1.0;" width="6" x="427.5" y="126"/><text fill="#000000" font-family="sans-serif" font-size="11" lengthAdjust="spacingAndGlyphs" textLength="42" x="439.5" y="132.2104">min: int</text><rect fill="none" height="6" style="stroke: #C82930; stroke-width: 1.0;" width="6" x="427.5" y="138.8047"/><text fill="#000000" font-family="sans-serif" font-size="11" lengthAdjust="spacingAndGlyphs" textLength="46" x="439.5" y="145.0151">max: int</text><line style="stroke: #A80036; stroke-width: 1.5;" x1="420.5" x2="569.5" y1="151.6094" y2="151.6094"/><ellipse cx="430.5" cy="162.6094" fill="#84BE84" rx="3" ry="3" style="stroke: #038048; stroke-width: 1.0;"/><text fill="#000000" font-family="sans-serif" font-size="11" lengthAdjust="spacingAndGlyphs" textLength="125" x="439.5" y="165.8198">ClosedInterval(int, int)</text><ellipse cx="430.5" cy="175.4141" fill="#84BE84" rx="3" ry="3" style="stroke: #038048; stroke-width: 1.0;"/><text fill="#000000" font-family="sans-serif" font-size="11" lengthAdjust="spacingAndGlyphs" textLength="122" x="439.5" y="178.6245">includes(int): boolean</text><!--MD5=[a3288181747b44fad907c47e32f19b7c]
class mastermind.utils.ColorCode--><rect codeLine="10" fill="#FEFECE" filter="url(#f13pi3j7foqvy8)" height="188.8516" id="mastermind.utils.ColorCode" style="stroke: #A80036; stroke-width: 1.5;" width="183" x="201.5" y="41"/><ellipse cx="256.75" cy="57" fill="#EB937F" rx="11" ry="11" style="stroke: #A80036; stroke-width: 1.0;"/><path d="M255.5469,57.875 L257,57.875 L257,57.9844 C257,58.3906 257.0313,58.5469 257.1094,58.7031 C257.2656,58.9531 257.5469,59.1094 257.8438,59.1094 C258.0938,59.1094 258.3594,58.9688 258.5156,58.75 C258.6406,58.5938 258.6719,58.4375 258.6719,57.9844 L258.6719,56.0625 C258.6719,55.9063 258.6719,55.8594 258.6563,55.7031 C258.5938,55.2344 258.2813,54.9219 257.8281,54.9219 C257.5781,54.9219 257.3125,55.0625 257.1406,55.2813 C257.0313,55.4531 257,55.6094 257,56.0625 L257,56.1875 L255.5469,56.1875 L255.5469,53.7813 L259.5313,53.7813 L259.5313,54.6406 C259.5313,55.0469 259.5625,55.2188 259.6406,55.375 C259.8125,55.625 260.0938,55.7813 260.375,55.7813 C260.6406,55.7813 260.9063,55.6406 261.0781,55.4219 C261.1875,55.25 261.2188,55.1094 261.2188,54.6406 L261.2188,52.0938 L253.5938,52.0938 C253.1563,52.0938 253.0313,52.1094 252.875,52.2031 C252.625,52.3594 252.4688,52.6563 252.4688,52.9375 C252.4688,53.2188 252.6094,53.4688 252.8281,53.6406 C252.9844,53.75 253.1719,53.7813 253.5938,53.7813 L253.8438,53.7813 L253.8438,60.2969 L253.5938,60.2969 C253.1875,60.2969 253.0313,60.3125 252.875,60.4219 C252.625,60.5938 252.4688,60.8594 252.4688,61.1563 C252.4688,61.4219 252.6094,61.6719 252.8281,61.8281 C252.9688,61.9531 253.2031,62 253.5938,62 L261.5938,62 L261.5938,59.4219 C261.5938,58.9844 261.5625,58.8438 261.4844,58.6875 C261.3125,58.4375 261.0313,58.2813 260.75,58.2813 C260.4844,58.2813 260.2188,58.3906 260.0469,58.6406 C259.9375,58.7969 259.9063,58.9375 259.9063,59.4219 L259.9063,60.2969 L255.5469,60.2969 L255.5469,57.875 Z "/><text fill="#000000" font-family="sans-serif" font-size="12" lengthAdjust="spacingAndGlyphs" textLength="64" x="277.25" y="61.1543">ColorCode</text><line style="stroke: #A80036; stroke-width: 1.5;" x1="202.5" x2="383.5" y1="73" y2="73"/><ellipse cx="212.5" cy="84" fill="none" rx="3" ry="3" style="stroke: #038048; stroke-width: 1.0;"/><text fill="#000000" font-family="sans-serif" font-size="11" lengthAdjust="spacingAndGlyphs" textLength="23" x="221.5" y="87.2104">RED</text><ellipse cx="212.5" cy="96.8047" fill="none" rx="3" ry="3" style="stroke: #038048; stroke-width: 1.0;"/><text fill="#000000" font-family="sans-serif" font-size="11" lengthAdjust="spacingAndGlyphs" textLength="29" x="221.5" y="100.0151">BLUE</text><ellipse cx="212.5" cy="109.6094" fill="none" rx="3" ry="3" style="stroke: #038048; stroke-width: 1.0;"/><text fill="#000000" font-family="sans-serif" font-size="11" lengthAdjust="spacingAndGlyphs" textLength="46" x="221.5" y="112.8198">YELLOW</text><ellipse cx="212.5" cy="122.4141" fill="none" rx="3" ry="3" style="stroke: #038048; stroke-width: 1.0;"/><text fill="#000000" font-family="sans-serif" font-size="11" lengthAdjust="spacingAndGlyphs" textLength="38" x="221.5" y="125.6245">GREEN</text><ellipse cx="212.5" cy="135.2188" fill="none" rx="3" ry="3" style="stroke: #038048; stroke-width: 1.0;"/><text fill="#000000" font-family="sans-serif" font-size="11" lengthAdjust="spacingAndGlyphs" textLength="48" x="221.5" y="138.4292">ORANGE</text><ellipse cx="212.5" cy="148.0234" fill="none" rx="3" ry="3" style="stroke: #038048; stroke-width: 1.0;"/><text fill="#000000" font-family="sans-serif" font-size="11" lengthAdjust="spacingAndGlyphs" textLength="40" x="221.5" y="151.2339">PURPLE</text><ellipse cx="212.5" cy="160.8281" fill="none" rx="3" ry="3" style="stroke: #038048; stroke-width: 1.0;"/><text fill="#000000" font-family="sans-serif" font-size="11" lengthAdjust="spacingAndGlyphs" textLength="81" x="221.5" y="164.0386">RESET_COLOR</text><rect fill="none" height="6" style="stroke: #C82930; stroke-width: 1.0;" width="6" x="209.5" y="170.6328"/><text fill="#000000" font-family="sans-serif" font-size="11" lengthAdjust="spacingAndGlyphs" textLength="67" x="221.5" y="176.8433">color: String</text><line style="stroke: #A80036; stroke-width: 1.5;" x1="202.5" x2="383.5" y1="183.4375" y2="183.4375"/><polygon fill="#4177AF" points="212.5,190.4375,208.5,196.4375,216.5,196.4375" style="stroke: #1963A0; stroke-width: 1.0;"/><text fill="#000000" font-family="sans-serif" font-size="11" lengthAdjust="spacingAndGlyphs" textLength="100" x="221.5" y="197.6479">ColorCode(String)</text><ellipse cx="212.5" cy="207.2422" fill="#84BE84" rx="3" ry="3" style="stroke: #038048; stroke-width: 1.0;"/><text fill="#000000" font-family="sans-serif" font-size="11" lengthAdjust="spacingAndGlyphs" textLength="96" x="221.5" y="210.4526">getColor(): String</text><ellipse cx="212.5" cy="220.0469" fill="#84BE84" rx="3" ry="3" style="stroke: #038048; stroke-width: 1.0;"/><text fill="#000000" font-family="sans-serif" font-size="11" lengthAdjust="spacingAndGlyphs" text-decoration="underline" textLength="157" x="221.5" y="223.2573">getColorByIndex(int): String</text><!--MD5=[ff88fef78a03b99ee0a0b34d5c9e19a9]
class mastermind.utils.Console--><rect codeLine="24" fill="#FEFECE" filter="url(#f13pi3j7foqvy8)" height="201.6563" id="mastermind.utils.Console" style="stroke: #A80036; stroke-width: 1.5;" width="214" x="32" y="290"/><ellipse cx="110.25" cy="306" fill="#ADD1B2" rx="11" ry="11" style="stroke: #A80036; stroke-width: 1.0;"/><path d="M112.5938,301.6719 C111.6563,301.2344 111.0625,301.0938 110.1875,301.0938 C107.5625,301.0938 105.5625,303.1719 105.5625,305.8906 L105.5625,307.0156 C105.5625,309.5938 107.6719,311.4844 110.5625,311.4844 C111.7813,311.4844 112.9375,311.1875 113.6875,310.6406 C114.2656,310.2344 114.5938,309.7813 114.5938,309.3906 C114.5938,308.9375 114.2031,308.5469 113.7344,308.5469 C113.5156,308.5469 113.3125,308.625 113.125,308.8125 C112.6719,309.2969 112.6719,309.2969 112.4844,309.3906 C112.0625,309.6563 111.375,309.7813 110.6094,309.7813 C108.5625,309.7813 107.2656,308.6875 107.2656,306.9844 L107.2656,305.8906 C107.2656,304.1094 108.5156,302.7969 110.25,302.7969 C110.8281,302.7969 111.4375,302.9531 111.9063,303.2031 C112.3906,303.4844 112.5625,303.7031 112.6563,304.1094 C112.7188,304.5156 112.75,304.6406 112.8906,304.7656 C113.0313,304.9063 113.2656,305.0156 113.4844,305.0156 C113.75,305.0156 114.0156,304.875 114.1875,304.6563 C114.2969,304.5 114.3281,304.3125 114.3281,303.8906 L114.3281,302.4688 C114.3281,302.0313 114.3125,301.9063 114.2188,301.75 C114.0625,301.4844 113.7813,301.3438 113.4844,301.3438 C113.1875,301.3438 112.9844,301.4375 112.7656,301.75 L112.5938,301.6719 Z "/><text fill="#000000" font-family="sans-serif" font-size="12" lengthAdjust="spacingAndGlyphs" textLength="49" x="130.75" y="310.1543">Console</text><line style="stroke: #A80036; stroke-width: 1.5;" x1="33" x2="245" y1="322" y2="322"/><ellipse cx="43" cy="333" fill="none" rx="3" ry="3" style="stroke: #038048; stroke-width: 1.0;"/><text fill="#000000" font-family="sans-serif" font-size="11" lengthAdjust="spacingAndGlyphs" text-decoration="underline" textLength="97" x="52" y="336.2104">console: Console</text><rect fill="none" height="6" style="stroke: #C82930; stroke-width: 1.0;" width="6" x="40" y="342.8047"/><text fill="#000000" font-family="sans-serif" font-size="11" lengthAdjust="spacingAndGlyphs" textLength="188" x="52" y="349.0151">bufferedReader: BufferedReader</text><line style="stroke: #A80036; stroke-width: 1.5;" x1="33" x2="245" y1="355.6094" y2="355.6094"/><ellipse cx="43" cy="366.6094" fill="#84BE84" rx="3" ry="3" style="stroke: #038048; stroke-width: 1.0;"/><text fill="#000000" font-family="sans-serif" font-size="11" lengthAdjust="spacingAndGlyphs" text-decoration="underline" textLength="128" x="52" y="369.8198">getInstance(): Console</text><ellipse cx="43" cy="379.4141" fill="#84BE84" rx="3" ry="3" style="stroke: #038048; stroke-width: 1.0;"/><text fill="#000000" font-family="sans-serif" font-size="11" lengthAdjust="spacingAndGlyphs" textLength="140" x="52" y="382.6245">readString(String): String</text><ellipse cx="43" cy="392.2188" fill="#84BE84" rx="3" ry="3" style="stroke: #038048; stroke-width: 1.0;"/><text fill="#000000" font-family="sans-serif" font-size="11" lengthAdjust="spacingAndGlyphs" textLength="107" x="52" y="395.4292">readString(): String</text><ellipse cx="43" cy="405.0234" fill="#84BE84" rx="3" ry="3" style="stroke: #038048; stroke-width: 1.0;"/><text fill="#000000" font-family="sans-serif" font-size="11" lengthAdjust="spacingAndGlyphs" textLength="102" x="52" y="408.2339">readInt(String): int</text><ellipse cx="43" cy="417.8281" fill="#84BE84" rx="3" ry="3" style="stroke: #038048; stroke-width: 1.0;"/><text fill="#000000" font-family="sans-serif" font-size="11" lengthAdjust="spacingAndGlyphs" textLength="124" x="52" y="421.0386">readChar(String): char</text><ellipse cx="43" cy="430.6328" fill="#84BE84" rx="3" ry="3" style="stroke: #038048; stroke-width: 1.0;"/><text fill="#000000" font-family="sans-serif" font-size="11" lengthAdjust="spacingAndGlyphs" textLength="46" x="52" y="433.8433">writeln()</text><ellipse cx="43" cy="443.4375" fill="#84BE84" rx="3" ry="3" style="stroke: #038048; stroke-width: 1.0;"/><text fill="#000000" font-family="sans-serif" font-size="11" lengthAdjust="spacingAndGlyphs" textLength="69" x="52" y="446.6479">write(String)</text><ellipse cx="43" cy="456.2422" fill="#84BE84" rx="3" ry="3" style="stroke: #038048; stroke-width: 1.0;"/><text fill="#000000" font-family="sans-serif" font-size="11" lengthAdjust="spacingAndGlyphs" textLength="79" x="52" y="459.4526">writeln(String)</text><ellipse cx="43" cy="469.0469" fill="#84BE84" rx="3" ry="3" style="stroke: #038048; stroke-width: 1.0;"/><text fill="#000000" font-family="sans-serif" font-size="11" lengthAdjust="spacingAndGlyphs" textLength="60" x="52" y="472.2573">write(char)</text><rect fill="#F24D5C" height="6" style="stroke: #C82930; stroke-width: 1.0;" width="6" x="40" y="478.8516"/><text fill="#000000" font-family="sans-serif" font-size="11" lengthAdjust="spacingAndGlyphs" textLength="95" x="52" y="485.062">writeError(String)</text><!--MD5=[418484cb0ecde680b0da58aa805d4175]
class mastermind.utils.WithConsoleView--><rect codeLine="40" fill="#FEFECE" filter="url(#f13pi3j7foqvy8)" height="73.6094" id="mastermind.utils.WithConsoleView" style="stroke: #A80036; stroke-width: 1.5;" width="134" x="32" y="98.5"/><ellipse cx="47" cy="114.5" fill="#A9DCDF" rx="11" ry="11" style="stroke: #A80036; stroke-width: 1.0;"/><path d="M49.0781,116.3125 L49.4688,117.2969 L49.0781,117.2969 C48.625,117.2969 48.5156,117.3125 48.3594,117.4219 C48.1094,117.5781 47.9531,117.8594 47.9531,118.1563 C47.9531,118.4219 48.0938,118.6719 48.3125,118.8281 C48.4531,118.9531 48.6563,119 49.0781,119 L51.4375,119 C51.7969,119 52.0156,118.9688 52.1563,118.875 C52.4063,118.7344 52.5625,118.4375 52.5625,118.1563 C52.5625,117.875 52.4219,117.625 52.2031,117.4688 C52.0313,117.3281 51.875,117.2969 51.4063,117.2969 L48.0156,109.0938 L44.3438,109.0938 C43.8906,109.0938 43.7656,109.1094 43.6094,109.2031 C43.3594,109.375 43.2031,109.6563 43.2031,109.9375 C43.2031,110.2188 43.3438,110.4688 43.5625,110.6406 C43.7344,110.75 43.9063,110.7813 44.3438,110.7813 L45.4219,110.7813 L42.7813,117.2969 C42.3594,117.2969 42.2031,117.3125 42.0469,117.4219 C41.7969,117.5781 41.6406,117.8594 41.6406,118.1563 C41.6406,118.7188 42.0156,119 42.7656,119 L45.0313,119 C45.3906,119 45.6094,118.9688 45.7344,118.875 C46,118.7344 46.1406,118.4375 46.1406,118.1563 C46.1406,117.875 46.0156,117.625 45.7969,117.4531 C45.625,117.3281 45.4844,117.2969 45.0313,117.2969 L44.6406,117.2969 L45.0313,116.3125 L49.0781,116.3125 Z M48.375,114.6094 L45.7031,114.6094 L47.0469,111.3438 L48.375,114.6094 Z "/><text fill="#000000" font-family="sans-serif" font-size="12" font-style="italic" lengthAdjust="spacingAndGlyphs" textLength="102" x="61" y="118.6543">WithConsoleView</text><line style="stroke: #A80036; stroke-width: 1.5;" x1="33" x2="165" y1="130.5" y2="130.5"/><polygon fill="none" points="43,136.5,47,140.5,43,144.5,39,140.5" style="stroke: #B38D22; stroke-width: 1.0;"/><text fill="#000000" font-family="sans-serif" font-size="11" lengthAdjust="spacingAndGlyphs" textLength="97" x="52" y="144.7104">console: Console</text><line style="stroke: #A80036; stroke-width: 1.5;" x1="33" x2="165" y1="151.3047" y2="151.3047"/><polygon fill="#FFFF44" points="43,157.3047,47,161.3047,43,165.3047,39,161.3047" style="stroke: #B38D22; stroke-width: 1.0;"/><text fill="#000000" font-family="sans-serif" font-size="11" lengthAdjust="spacingAndGlyphs" textLength="107" x="52" y="165.5151">WithConsoleView()</text><!--MD5=[8fefce232ba7ae99aa926d324ff560e5]
class mastermind.utils.YesNoDialog--><rect codeLine="46" fill="#FEFECE" filter="url(#f13pi3j7foqvy8)" height="163.2422" id="mastermind.utils.YesNoDialog" style="stroke: #A80036; stroke-width: 1.5;" width="179" x="281.5" y="309.5"/><ellipse cx="328.75" cy="325.5" fill="#ADD1B2" rx="11" ry="11" style="stroke: #A80036; stroke-width: 1.0;"/><path d="M331.0938,321.1719 C330.1563,320.7344 329.5625,320.5938 328.6875,320.5938 C326.0625,320.5938 324.0625,322.6719 324.0625,325.3906 L324.0625,326.5156 C324.0625,329.0938 326.1719,330.9844 329.0625,330.9844 C330.2813,330.9844 331.4375,330.6875 332.1875,330.1406 C332.7656,329.7344 333.0938,329.2813 333.0938,328.8906 C333.0938,328.4375 332.7031,328.0469 332.2344,328.0469 C332.0156,328.0469 331.8125,328.125 331.625,328.3125 C331.1719,328.7969 331.1719,328.7969 330.9844,328.8906 C330.5625,329.1563 329.875,329.2813 329.1094,329.2813 C327.0625,329.2813 325.7656,328.1875 325.7656,326.4844 L325.7656,325.3906 C325.7656,323.6094 327.0156,322.2969 328.75,322.2969 C329.3281,322.2969 329.9375,322.4531 330.4063,322.7031 C330.8906,322.9844 331.0625,323.2031 331.1563,323.6094 C331.2188,324.0156 331.25,324.1406 331.3906,324.2656 C331.5313,324.4063 331.7656,324.5156 331.9844,324.5156 C332.25,324.5156 332.5156,324.375 332.6875,324.1563 C332.7969,324 332.8281,323.8125 332.8281,323.3906 L332.8281,321.9688 C332.8281,321.5313 332.8125,321.4063 332.7188,321.25 C332.5625,320.9844 332.2813,320.8438 331.9844,320.8438 C331.6875,320.8438 331.4844,320.9375 331.2656,321.25 L331.0938,321.1719 Z "/><text fill="#000000" font-family="sans-serif" font-size="12" lengthAdjust="spacingAndGlyphs" textLength="76" x="349.25" y="329.6543">YesNoDialog</text><line style="stroke: #A80036; stroke-width: 1.5;" x1="282.5" x2="459.5" y1="341.5" y2="341.5"/><rect fill="none" height="6" style="stroke: #C82930; stroke-width: 1.0;" width="6" x="289.5" y="349.5"/><text fill="#000000" font-family="sans-serif" font-size="11" lengthAdjust="spacingAndGlyphs" text-decoration="underline" textLength="97" x="301.5" y="355.7104">AFIRMATIVE: char</text><rect fill="none" height="6" style="stroke: #C82930; stroke-width: 1.0;" width="6" x="289.5" y="362.3047"/><text fill="#000000" font-family="sans-serif" font-size="11" lengthAdjust="spacingAndGlyphs" text-decoration="underline" textLength="88" x="301.5" y="368.5151">NEGATIVE: char</text><rect fill="none" height="6" style="stroke: #C82930; stroke-width: 1.0;" width="6" x="289.5" y="375.1094"/><text fill="#000000" font-family="sans-serif" font-size="11" lengthAdjust="spacingAndGlyphs" text-decoration="underline" textLength="99" x="301.5" y="381.3198">QUESTION: String</text><rect fill="none" height="6" style="stroke: #C82930; stroke-width: 1.0;" width="6" x="289.5" y="387.9141"/><text fill="#000000" font-family="sans-serif" font-size="11" lengthAdjust="spacingAndGlyphs" text-decoration="underline" textLength="96" x="301.5" y="394.1245">MESSAGE: String</text><line style="stroke: #A80036; stroke-width: 1.5;" x1="282.5" x2="459.5" y1="400.7188" y2="400.7188"/><ellipse cx="292.5" cy="411.7188" fill="#84BE84" rx="3" ry="3" style="stroke: #038048; stroke-width: 1.0;"/><text fill="#000000" font-family="sans-serif" font-size="11" lengthAdjust="spacingAndGlyphs" textLength="80" x="301.5" y="414.9292">YesNoDialog()</text><ellipse cx="292.5" cy="424.5234" fill="#84BE84" rx="3" ry="3" style="stroke: #038048; stroke-width: 1.0;"/><text fill="#000000" font-family="sans-serif" font-size="11" lengthAdjust="spacingAndGlyphs" textLength="120" x="301.5" y="427.7339">read(String): boolean</text><ellipse cx="292.5" cy="437.3281" fill="#84BE84" rx="3" ry="3" style="stroke: #038048; stroke-width: 1.0;"/><text fill="#000000" font-family="sans-serif" font-size="11" lengthAdjust="spacingAndGlyphs" textLength="87" x="301.5" y="440.5386">read(): boolean</text><rect fill="#F24D5C" height="6" style="stroke: #C82930; stroke-width: 1.0;" width="6" x="289.5" y="447.1328"/><text fill="#000000" font-family="sans-serif" font-size="11" lengthAdjust="spacingAndGlyphs" text-decoration="underline" textLength="153" x="301.5" y="453.3433">isAfirmative(char): boolean</text><rect fill="#F24D5C" height="6" style="stroke: #C82930; stroke-width: 1.0;" width="6" x="289.5" y="459.9375"/><text fill="#000000" font-family="sans-serif" font-size="11" lengthAdjust="spacingAndGlyphs" text-decoration="underline" textLength="146" x="301.5" y="466.1479">isNegative(char): boolean</text><!--MD5=[ee4f8f5c2b5eaa5df2ba8c0614cd4e83]
class BufferedReader--><rect codeLine="1" fill="#FEFECE" filter="url(#f13pi3j7foqvy8)" height="48" id="BufferedReader" style="stroke: #A80036; stroke-width: 1.5;" width="168" x="55" y="552"/><ellipse cx="70" cy="568" fill="#ADD1B2" rx="11" ry="11" style="stroke: #A80036; stroke-width: 1.0;"/><path d="M72.3438,563.6719 C71.4063,563.2344 70.8125,563.0938 69.9375,563.0938 C67.3125,563.0938 65.3125,565.1719 65.3125,567.8906 L65.3125,569.0156 C65.3125,571.5938 67.4219,573.4844 70.3125,573.4844 C71.5313,573.4844 72.6875,573.1875 73.4375,572.6406 C74.0156,572.2344 74.3438,571.7813 74.3438,571.3906 C74.3438,570.9375 73.9531,570.5469 73.4844,570.5469 C73.2656,570.5469 73.0625,570.625 72.875,570.8125 C72.4219,571.2969 72.4219,571.2969 72.2344,571.3906 C71.8125,571.6563 71.125,571.7813 70.3594,571.7813 C68.3125,571.7813 67.0156,570.6875 67.0156,568.9844 L67.0156,567.8906 C67.0156,566.1094 68.2656,564.7969 70,564.7969 C70.5781,564.7969 71.1875,564.9531 71.6563,565.2031 C72.1406,565.4844 72.3125,565.7031 72.4063,566.1094 C72.4688,566.5156 72.5,566.6406 72.6406,566.7656 C72.7813,566.9063 73.0156,567.0156 73.2344,567.0156 C73.5,567.0156 73.7656,566.875 73.9375,566.6563 C74.0469,566.5 74.0781,566.3125 74.0781,565.8906 L74.0781,564.4688 C74.0781,564.0313 74.0625,563.9063 73.9688,563.75 C73.8125,563.4844 73.5313,563.3438 73.2344,563.3438 C72.9375,563.3438 72.7344,563.4375 72.5156,563.75 L72.3438,563.6719 Z "/><text fill="#000000" font-family="sans-serif" font-size="12" lengthAdjust="spacingAndGlyphs" textLength="136" x="84" y="572.1543">java.io.BufferedReader</text><line style="stroke: #A80036; stroke-width: 1.5;" x1="56" x2="222" y1="584" y2="584"/><line style="stroke: #A80036; stroke-width: 1.5;" x1="56" x2="222" y1="592" y2="592"/><!--MD5=[a71aabb4e33de14293f240b3701bb7bf]
link mastermind.utils.Console to BufferedReader--><path codeLine="38" d="M139,504.067 C139,504.067 139,528.5956 139,538.5834 " fill="none" id="mastermind.utils.Console-BufferedReader" style="stroke: #A80036; stroke-width: 1.0;"/><polygon fill="#A80036" points="139,551.6836,143,542.6836,139,546.6836,135,542.6836,139,551.6836" style="stroke: #A80036; stroke-width: 1.0;"/><line style="stroke: #A80036; stroke-width: 1.0;" x1="139" x2="139" y1="546.6836" y2="538.6836"/><polygon fill="#A80036" points="139,492.067,135,498.067,139,504.067,143,498.067,139,492.067" style="stroke: #A80036; stroke-width: 1.0;"/><!--MD5=[ea820ba5d47472bf08a857464d1c1568]
link mastermind.utils.WithConsoleView to mastermind.utils.Console--><path codeLine="44" d="M106.5589,184.4044 C106.5589,184.4044 116.063,244.639 121.113,276.642 " fill="none" id="mastermind.utils.WithConsoleView-mastermind.utils.Console" style="stroke: #A80036; stroke-width: 1.0;"/><polygon fill="#A80036" points="123.187,289.783,125.7347,280.2694,122.4074,284.8442,117.8326,281.5168,123.187,289.783" style="stroke: #A80036; stroke-width: 1.0;"/><line style="stroke: #A80036; stroke-width: 1.0;" x1="122.4074" x2="121.1605" y1="284.8442" y2="276.9415"/><polygon fill="#A80036" points="104.689,172.551,101.6728,179.101,106.5589,184.4044,109.5751,177.8544,104.689,172.551" style="stroke: #A80036; stroke-width: 1.0;"/><!--MD5=[6ecc60e00d827fdddc2b895f15bd4c4f]
reverse link mastermind.utils.WithConsoleView to mastermind.utils.YesNoDialog--><path codeLine="57" d="M142.27,187.604 C155.173,201.856 169.701,216.989 184,230 C216.873,259.911 229.937,261.452 264,290 C271.405,296.206 278.969,302.773 286.483,309.458 " fill="none" id="mastermind.utils.WithConsoleView-backto-mastermind.utils.YesNoDialog" style="stroke: #A80036; stroke-width: 1.0;"/><polygon fill="none" points="137.022,192.236,128.993,172.627,147.498,182.95,137.022,192.236" style="stroke: #A80036; stroke-width: 1.0;"/><!--MD5=[840a830477e19500c5ebe40d1c4d6c90]
@startuml
class BufferedReader as "java.io.BufferedReader"{}

class  mastermind.utils.ClosedInterval{
- min: int
- max: int
+ ClosedInterval(int, int)
+ includes(int): boolean
}

enum mastermind.utils.ColorCode{
+ RED
+ BLUE
+ YELLOW
+ GREEN
+ ORANGE
+ PURPLE
+ RESET_COLOR
- color: String
~ ColorCode(String)
+ getColor(): String
+ {static} getColorByIndex(int): String
}

class  mastermind.utils.Console{
+ {static} console: Console
- bufferedReader: BufferedReader
+ {static} getInstance(): Console
+ readString(String): String
+ readString(): String
+ readInt(String): int
+ readChar(String): char
+ writeln()
+ write(String)
+ writeln(String)
+ write(char)
- writeError(String)
}
mastermind.utils.Console *-down-> BufferedReader

abstract class mastermind.utils.WithConsoleView{
# console: Console
# WithConsoleView()
}
mastermind.utils.WithConsoleView *-down-> mastermind.utils.Console

class  mastermind.utils.YesNoDialog{
- {static} AFIRMATIVE: char
- {static} NEGATIVE: char
- {static} QUESTION: String
- {static} MESSAGE: String
+ YesNoDialog()
+ read(String): boolean
+ read(): boolean
- {static} isAfirmative(char): boolean
- {static} isNegative(char): boolean
}
mastermind.utils.WithConsoleView <|-down- mastermind.utils.YesNoDialog
@enduml

PlantUML version 1.2020.20beta4(Unknown compile time)
(GPL source distribution)
Java Runtime: Java(TM) SE Runtime Environment
JVM: Java HotSpot(TM) 64-Bit Server VM
Default Encoding: UTF-8
Language: en
Country: US
--></g></svg>