<?xml version="1.0" encoding="UTF-8" standalone="no"?><svg xmlns="http://www.w3.org/2000/svg" xmlns:xlink="http://www.w3.org/1999/xlink" contentScriptType="application/ecmascript" contentStyleType="text/css" height="923px" preserveAspectRatio="none" style="width:1946px;height:923px;" version="1.1" viewBox="0 0 1946 923" width="1946px" zoomAndPan="magnify"><defs><filter height="300%" id="f1gzm45kfvyxg0" width="300%" x="-1" y="-1"><feGaussianBlur result="blurOut" stdDeviation="2.0"/><feColorMatrix in="blurOut" result="blurOut2" type="matrix" values="0 0 0 0 0 0 0 0 0 0 0 0 0 0 0 0 0 0 .4 0"/><feOffset dx="4.0" dy="4.0" in="blurOut2" result="blurOut3"/><feBlend in="SourceGraphic" in2="blurOut3" mode="normal"/></filter></defs><g><!--MD5=[57ab11106b6017d1c059bb8de6501622]
cluster mastermind.views--><polygon fill="#FFFFFF" filter="url(#f1gzm45kfvyxg0)" points="804.5,6,958.5,6,965.5,28.2969,1780.5,28.2969,1780.5,698,804.5,698,804.5,6" style="stroke: #000000; stroke-width: 1.5;"/><line style="stroke: #000000; stroke-width: 1.5;" x1="804.5" x2="965.5" y1="28.2969" y2="28.2969"/><text fill="#000000" font-family="sans-serif" font-size="14" font-weight="bold" lengthAdjust="spacingAndGlyphs" textLength="148" x="808.5" y="20.9951">mastermind.views</text><!--MD5=[daba0edef7c2b2303027ed075b2f09fd]
class mastermind.views.ColorView--><rect codeLine="11" fill="#FEFECE" filter="url(#f1gzm45kfvyxg0)" height="112.0234" id="mastermind.views.ColorView" style="stroke: #A80036; stroke-width: 1.5;" width="161" x="1603" y="512.5"/><ellipse cx="1648.75" cy="528.5" fill="#ADD1B2" rx="11" ry="11" style="stroke: #A80036; stroke-width: 1.0;"/><path d="M1651.0938,524.1719 C1650.1563,523.7344 1649.5625,523.5938 1648.6875,523.5938 C1646.0625,523.5938 1644.0625,525.6719 1644.0625,528.3906 L1644.0625,529.5156 C1644.0625,532.0938 1646.1719,533.9844 1649.0625,533.9844 C1650.2813,533.9844 1651.4375,533.6875 1652.1875,533.1406 C1652.7656,532.7344 1653.0938,532.2813 1653.0938,531.8906 C1653.0938,531.4375 1652.7031,531.0469 1652.2344,531.0469 C1652.0156,531.0469 1651.8125,531.125 1651.625,531.3125 C1651.1719,531.7969 1651.1719,531.7969 1650.9844,531.8906 C1650.5625,532.1563 1649.875,532.2813 1649.1094,532.2813 C1647.0625,532.2813 1645.7656,531.1875 1645.7656,529.4844 L1645.7656,528.3906 C1645.7656,526.6094 1647.0156,525.2969 1648.75,525.2969 C1649.3281,525.2969 1649.9375,525.4531 1650.4063,525.7031 C1650.8906,525.9844 1651.0625,526.2031 1651.1563,526.6094 C1651.2188,527.0156 1651.25,527.1406 1651.3906,527.2656 C1651.5313,527.4063 1651.7656,527.5156 1651.9844,527.5156 C1652.25,527.5156 1652.5156,527.375 1652.6875,527.1563 C1652.7969,527 1652.8281,526.8125 1652.8281,526.3906 L1652.8281,524.9688 C1652.8281,524.5313 1652.8125,524.4063 1652.7188,524.25 C1652.5625,523.9844 1652.2813,523.8438 1651.9844,523.8438 C1651.6875,523.8438 1651.4844,523.9375 1651.2656,524.25 L1651.0938,524.1719 Z "/><text fill="#000000" font-family="sans-serif" font-size="12" lengthAdjust="spacingAndGlyphs" textLength="61" x="1669.25" y="532.6543">ColorView</text><line style="stroke: #A80036; stroke-width: 1.5;" x1="1604" x2="1763" y1="544.5" y2="544.5"/><rect fill="none" height="6" style="stroke: #C82930; stroke-width: 1.0;" width="6" x="1611" y="552.5"/><text fill="#000000" font-family="sans-serif" font-size="11" lengthAdjust="spacingAndGlyphs" text-decoration="underline" textLength="89" x="1623" y="558.7104">INITIALS: char []</text><line style="stroke: #A80036; stroke-width: 1.5;" x1="1604" x2="1763" y1="565.3047" y2="565.3047"/><polygon fill="#4177AF" points="1614,572.3047,1610,578.3047,1618,578.3047" style="stroke: #1963A0; stroke-width: 1.0;"/><text fill="#000000" font-family="sans-serif" font-size="11" lengthAdjust="spacingAndGlyphs" textLength="94" x="1623" y="579.5151">ColorView(Color)</text><polygon fill="#4177AF" points="1614,585.1094,1610,591.1094,1618,591.1094" style="stroke: #1963A0; stroke-width: 1.0;"/><text fill="#000000" font-family="sans-serif" font-size="11" lengthAdjust="spacingAndGlyphs" text-decoration="underline" textLength="97" x="1623" y="592.3198">allInitials(): String</text><polygon fill="#4177AF" points="1614,597.9141,1610,603.9141,1618,603.9141" style="stroke: #1963A0; stroke-width: 1.0;"/><text fill="#000000" font-family="sans-serif" font-size="11" lengthAdjust="spacingAndGlyphs" text-decoration="underline" textLength="135" x="1623" y="605.1245">getInstance(char): Color</text><polygon fill="#4177AF" points="1614,610.7188,1610,616.7188,1618,616.7188" style="stroke: #1963A0; stroke-width: 1.0;"/><text fill="#000000" font-family="sans-serif" font-size="11" lengthAdjust="spacingAndGlyphs" textLength="36" x="1623" y="617.9292">write()</text><!--MD5=[ee236011c866e79872d7eb09821c7fe9]
class mastermind.views.ErrorView--><rect codeLine="22" fill="#FEFECE" filter="url(#f1gzm45kfvyxg0)" height="86.4141" id="mastermind.views.ErrorView" style="stroke: #A80036; stroke-width: 1.5;" width="145" x="1619" y="309"/><ellipse cx="1658.3" cy="325" fill="#ADD1B2" rx="11" ry="11" style="stroke: #A80036; stroke-width: 1.0;"/><path d="M1660.6438,320.6719 C1659.7063,320.2344 1659.1125,320.0938 1658.2375,320.0938 C1655.6125,320.0938 1653.6125,322.1719 1653.6125,324.8906 L1653.6125,326.0156 C1653.6125,328.5938 1655.7219,330.4844 1658.6125,330.4844 C1659.8313,330.4844 1660.9875,330.1875 1661.7375,329.6406 C1662.3156,329.2344 1662.6438,328.7813 1662.6438,328.3906 C1662.6438,327.9375 1662.2531,327.5469 1661.7844,327.5469 C1661.5656,327.5469 1661.3625,327.625 1661.175,327.8125 C1660.7219,328.2969 1660.7219,328.2969 1660.5344,328.3906 C1660.1125,328.6563 1659.425,328.7813 1658.6594,328.7813 C1656.6125,328.7813 1655.3156,327.6875 1655.3156,325.9844 L1655.3156,324.8906 C1655.3156,323.1094 1656.5656,321.7969 1658.3,321.7969 C1658.8781,321.7969 1659.4875,321.9531 1659.9563,322.2031 C1660.4406,322.4844 1660.6125,322.7031 1660.7063,323.1094 C1660.7688,323.5156 1660.8,323.6406 1660.9406,323.7656 C1661.0813,323.9063 1661.3156,324.0156 1661.5344,324.0156 C1661.8,324.0156 1662.0656,323.875 1662.2375,323.6563 C1662.3469,323.5 1662.3781,323.3125 1662.3781,322.8906 L1662.3781,321.4688 C1662.3781,321.0313 1662.3625,320.9063 1662.2688,320.75 C1662.1125,320.4844 1661.8313,320.3438 1661.5344,320.3438 C1661.2375,320.3438 1661.0344,320.4375 1660.8156,320.75 L1660.6438,320.6719 Z "/><text fill="#000000" font-family="sans-serif" font-size="12" lengthAdjust="spacingAndGlyphs" textLength="59" x="1677.7" y="329.1543">ErrorView</text><line style="stroke: #A80036; stroke-width: 1.5;" x1="1620" x2="1763" y1="341" y2="341"/><rect fill="none" height="6" style="stroke: #C82930; stroke-width: 1.0;" width="6" x="1627" y="349"/><text fill="#000000" font-family="sans-serif" font-size="11" lengthAdjust="spacingAndGlyphs" text-decoration="underline" textLength="116" x="1639" y="355.2104">MESSAGES: String []</text><line style="stroke: #A80036; stroke-width: 1.5;" x1="1620" x2="1763" y1="361.8047" y2="361.8047"/><polygon fill="#4177AF" points="1630,368.8047,1626,374.8047,1634,374.8047" style="stroke: #1963A0; stroke-width: 1.0;"/><text fill="#000000" font-family="sans-serif" font-size="11" lengthAdjust="spacingAndGlyphs" textLength="119" x="1639" y="376.0151">ErrorView(Error error)</text><polygon fill="#4177AF" points="1630,381.6094,1626,387.6094,1634,387.6094" style="stroke: #1963A0; stroke-width: 1.0;"/><text fill="#000000" font-family="sans-serif" font-size="11" lengthAdjust="spacingAndGlyphs" textLength="46" x="1639" y="388.8198">writeln()</text><!--MD5=[716d7df7e3500a9f49a27aeed588132e]
class mastermind.views.MessageView--><rect codeLine="32" fill="#FEFECE" filter="url(#f1gzm45kfvyxg0)" height="227.2656" id="mastermind.views.MessageView" style="stroke: #A80036; stroke-width: 1.5;" width="173" x="896" y="455"/><ellipse cx="936.65" cy="471" fill="#EB937F" rx="11" ry="11" style="stroke: #A80036; stroke-width: 1.0;"/><path d="M935.4469,471.875 L936.9,471.875 L936.9,471.9844 C936.9,472.3906 936.9313,472.5469 937.0094,472.7031 C937.1656,472.9531 937.4469,473.1094 937.7438,473.1094 C937.9938,473.1094 938.2594,472.9688 938.4156,472.75 C938.5406,472.5938 938.5719,472.4375 938.5719,471.9844 L938.5719,470.0625 C938.5719,469.9063 938.5719,469.8594 938.5563,469.7031 C938.4938,469.2344 938.1813,468.9219 937.7281,468.9219 C937.4781,468.9219 937.2125,469.0625 937.0406,469.2813 C936.9313,469.4531 936.9,469.6094 936.9,470.0625 L936.9,470.1875 L935.4469,470.1875 L935.4469,467.7813 L939.4313,467.7813 L939.4313,468.6406 C939.4313,469.0469 939.4625,469.2188 939.5406,469.375 C939.7125,469.625 939.9938,469.7813 940.275,469.7813 C940.5406,469.7813 940.8063,469.6406 940.9781,469.4219 C941.0875,469.25 941.1188,469.1094 941.1188,468.6406 L941.1188,466.0938 L933.4938,466.0938 C933.0563,466.0938 932.9313,466.1094 932.775,466.2031 C932.525,466.3594 932.3688,466.6563 932.3688,466.9375 C932.3688,467.2188 932.5094,467.4688 932.7281,467.6406 C932.8844,467.75 933.0719,467.7813 933.4938,467.7813 L933.7438,467.7813 L933.7438,474.2969 L933.4938,474.2969 C933.0875,474.2969 932.9313,474.3125 932.775,474.4219 C932.525,474.5938 932.3688,474.8594 932.3688,475.1563 C932.3688,475.4219 932.5094,475.6719 932.7281,475.8281 C932.8688,475.9531 933.1031,476 933.4938,476 L941.4938,476 L941.4938,473.4219 C941.4938,472.9844 941.4625,472.8438 941.3844,472.6875 C941.2125,472.4375 940.9313,472.2813 940.65,472.2813 C940.3844,472.2813 940.1188,472.3906 939.9469,472.6406 C939.8375,472.7969 939.8063,472.9375 939.8063,473.4219 L939.8063,474.2969 L935.4469,474.2969 L935.4469,471.875 Z "/><text fill="#000000" font-family="sans-serif" font-size="12" lengthAdjust="spacingAndGlyphs" textLength="84" x="956.35" y="475.1543">MessageView</text><line style="stroke: #A80036; stroke-width: 1.5;" x1="897" x2="1068" y1="487" y2="487"/><ellipse cx="907" cy="498" fill="none" rx="3" ry="3" style="stroke: #038048; stroke-width: 1.0;"/><text fill="#000000" font-family="sans-serif" font-size="11" lengthAdjust="spacingAndGlyphs" textLength="59" x="916" y="501.2104">ATTEMPTS</text><ellipse cx="907" cy="510.8047" fill="none" rx="3" ry="3" style="stroke: #038048; stroke-width: 1.0;"/><text fill="#000000" font-family="sans-serif" font-size="11" lengthAdjust="spacingAndGlyphs" textLength="130" x="916" y="514.0151">SECRET_COMBINATION</text><ellipse cx="907" cy="523.6094" fill="none" rx="3" ry="3" style="stroke: #038048; stroke-width: 1.0;"/><text fill="#000000" font-family="sans-serif" font-size="11" lengthAdjust="spacingAndGlyphs" textLength="46" x="916" y="526.8198">RESUME</text><ellipse cx="907" cy="536.4141" fill="none" rx="3" ry="3" style="stroke: #038048; stroke-width: 1.0;"/><text fill="#000000" font-family="sans-serif" font-size="11" lengthAdjust="spacingAndGlyphs" textLength="43" x="916" y="539.6245">RESULT</text><ellipse cx="907" cy="549.2188" fill="none" rx="3" ry="3" style="stroke: #038048; stroke-width: 1.0;"/><text fill="#000000" font-family="sans-serif" font-size="11" lengthAdjust="spacingAndGlyphs" textLength="147" x="916" y="552.4292">PROPOSED_COMBINATION</text><ellipse cx="907" cy="562.0234" fill="none" rx="3" ry="3" style="stroke: #038048; stroke-width: 1.0;"/><text fill="#000000" font-family="sans-serif" font-size="11" lengthAdjust="spacingAndGlyphs" textLength="30" x="916" y="565.2339">TITLE</text><ellipse cx="907" cy="574.8281" fill="none" rx="3" ry="3" style="stroke: #038048; stroke-width: 1.0;"/><text fill="#000000" font-family="sans-serif" font-size="11" lengthAdjust="spacingAndGlyphs" textLength="44" x="916" y="578.0386">WINNER</text><ellipse cx="907" cy="587.6328" fill="none" rx="3" ry="3" style="stroke: #038048; stroke-width: 1.0;"/><text fill="#000000" font-family="sans-serif" font-size="11" lengthAdjust="spacingAndGlyphs" textLength="46" x="916" y="590.8433">LOOSER</text><rect fill="none" height="6" style="stroke: #C82930; stroke-width: 1.0;" width="6" x="904" y="597.4375"/><text fill="#000000" font-family="sans-serif" font-size="11" lengthAdjust="spacingAndGlyphs" textLength="93" x="916" y="603.6479">message: String</text><line style="stroke: #A80036; stroke-width: 1.5;" x1="897" x2="1068" y1="610.2422" y2="610.2422"/><polygon fill="#4177AF" points="907,617.2422,903,623.2422,911,623.2422" style="stroke: #1963A0; stroke-width: 1.0;"/><text fill="#000000" font-family="sans-serif" font-size="11" lengthAdjust="spacingAndGlyphs" textLength="120" x="916" y="624.4526">MessageView(String)</text><polygon fill="#4177AF" points="907,630.0469,903,636.0469,911,636.0469" style="stroke: #1963A0; stroke-width: 1.0;"/><text fill="#000000" font-family="sans-serif" font-size="11" lengthAdjust="spacingAndGlyphs" textLength="36" x="916" y="637.2573">write()</text><polygon fill="#4177AF" points="907,642.8516,903,648.8516,911,648.8516" style="stroke: #1963A0; stroke-width: 1.0;"/><text fill="#000000" font-family="sans-serif" font-size="11" lengthAdjust="spacingAndGlyphs" textLength="46" x="916" y="650.062">writeln()</text><polygon fill="#4177AF" points="907,655.6563,903,661.6563,911,661.6563" style="stroke: #1963A0; stroke-width: 1.0;"/><text fill="#000000" font-family="sans-serif" font-size="11" lengthAdjust="spacingAndGlyphs" textLength="60" x="916" y="662.8667">writeln(int)</text><polygon fill="#4177AF" points="907,668.4609,903,674.4609,911,674.4609" style="stroke: #1963A0; stroke-width: 1.0;"/><text fill="#000000" font-family="sans-serif" font-size="11" lengthAdjust="spacingAndGlyphs" textLength="81" x="916" y="675.6714">writeln(int, int)</text><!--MD5=[98dd9f5185e3ab904e8d25c4d465541e]
class mastermind.views.ProposalView--><rect codeLine="51" fill="#FEFECE" filter="url(#f1gzm45kfvyxg0)" height="73.6094" id="mastermind.views.ProposalView" style="stroke: #A80036; stroke-width: 1.5;" width="144" x="1110.5" y="175"/><ellipse cx="1139.45" cy="191" fill="#ADD1B2" rx="11" ry="11" style="stroke: #A80036; stroke-width: 1.0;"/><path d="M1141.7938,186.6719 C1140.8563,186.2344 1140.2625,186.0938 1139.3875,186.0938 C1136.7625,186.0938 1134.7625,188.1719 1134.7625,190.8906 L1134.7625,192.0156 C1134.7625,194.5938 1136.8719,196.4844 1139.7625,196.4844 C1140.9813,196.4844 1142.1375,196.1875 1142.8875,195.6406 C1143.4656,195.2344 1143.7938,194.7813 1143.7938,194.3906 C1143.7938,193.9375 1143.4031,193.5469 1142.9344,193.5469 C1142.7156,193.5469 1142.5125,193.625 1142.325,193.8125 C1141.8719,194.2969 1141.8719,194.2969 1141.6844,194.3906 C1141.2625,194.6563 1140.575,194.7813 1139.8094,194.7813 C1137.7625,194.7813 1136.4656,193.6875 1136.4656,191.9844 L1136.4656,190.8906 C1136.4656,189.1094 1137.7156,187.7969 1139.45,187.7969 C1140.0281,187.7969 1140.6375,187.9531 1141.1063,188.2031 C1141.5906,188.4844 1141.7625,188.7031 1141.8563,189.1094 C1141.9188,189.5156 1141.95,189.6406 1142.0906,189.7656 C1142.2313,189.9063 1142.4656,190.0156 1142.6844,190.0156 C1142.95,190.0156 1143.2156,189.875 1143.3875,189.6563 C1143.4969,189.5 1143.5281,189.3125 1143.5281,188.8906 L1143.5281,187.4688 C1143.5281,187.0313 1143.5125,186.9063 1143.4188,186.75 C1143.2625,186.4844 1142.9813,186.3438 1142.6844,186.3438 C1142.3875,186.3438 1142.1844,186.4375 1141.9656,186.75 L1141.7938,186.6719 Z "/><text fill="#000000" font-family="sans-serif" font-size="12" lengthAdjust="spacingAndGlyphs" textLength="81" x="1156.55" y="195.1543">ProposalView</text><line style="stroke: #A80036; stroke-width: 1.5;" x1="1111.5" x2="1253.5" y1="207" y2="207"/><line style="stroke: #A80036; stroke-width: 1.5;" x1="1111.5" x2="1253.5" y1="215" y2="215"/><polygon fill="#4177AF" points="1121.5,222,1117.5,228,1125.5,228" style="stroke: #1963A0; stroke-width: 1.0;"/><text fill="#000000" font-family="sans-serif" font-size="11" lengthAdjust="spacingAndGlyphs" textLength="118" x="1130.5" y="229.2104">ProposalView(Game)</text><polygon fill="#4177AF" points="1121.5,234.8047,1117.5,240.8047,1125.5,240.8047" style="stroke: #1963A0; stroke-width: 1.0;"/><text fill="#000000" font-family="sans-serif" font-size="11" lengthAdjust="spacingAndGlyphs" textLength="104" x="1130.5" y="242.0151">interact(): boolean</text><!--MD5=[86bd8337fa6b6b0346fe8333f5c8070e]
class mastermind.views.SecretCombinationView--><rect codeLine="89" fill="#FEFECE" filter="url(#f1gzm45kfvyxg0)" height="73.6094" id="mastermind.views.SecretCombinationView" style="stroke: #A80036; stroke-width: 1.5;" width="175" x="895" y="315"/><ellipse cx="910" cy="331" fill="#ADD1B2" rx="11" ry="11" style="stroke: #A80036; stroke-width: 1.0;"/><path d="M912.3438,326.6719 C911.4063,326.2344 910.8125,326.0938 909.9375,326.0938 C907.3125,326.0938 905.3125,328.1719 905.3125,330.8906 L905.3125,332.0156 C905.3125,334.5938 907.4219,336.4844 910.3125,336.4844 C911.5313,336.4844 912.6875,336.1875 913.4375,335.6406 C914.0156,335.2344 914.3438,334.7813 914.3438,334.3906 C914.3438,333.9375 913.9531,333.5469 913.4844,333.5469 C913.2656,333.5469 913.0625,333.625 912.875,333.8125 C912.4219,334.2969 912.4219,334.2969 912.2344,334.3906 C911.8125,334.6563 911.125,334.7813 910.3594,334.7813 C908.3125,334.7813 907.0156,333.6875 907.0156,331.9844 L907.0156,330.8906 C907.0156,329.1094 908.2656,327.7969 910,327.7969 C910.5781,327.7969 911.1875,327.9531 911.6563,328.2031 C912.1406,328.4844 912.3125,328.7031 912.4063,329.1094 C912.4688,329.5156 912.5,329.6406 912.6406,329.7656 C912.7813,329.9063 913.0156,330.0156 913.2344,330.0156 C913.5,330.0156 913.7656,329.875 913.9375,329.6563 C914.0469,329.5 914.0781,329.3125 914.0781,328.8906 L914.0781,327.4688 C914.0781,327.0313 914.0625,326.9063 913.9688,326.75 C913.8125,326.4844 913.5313,326.3438 913.2344,326.3438 C912.9375,326.3438 912.7344,326.4375 912.5156,326.75 L912.3438,326.6719 Z "/><text fill="#000000" font-family="sans-serif" font-size="12" lengthAdjust="spacingAndGlyphs" textLength="143" x="924" y="335.1543">SecretCombinationView</text><line style="stroke: #A80036; stroke-width: 1.5;" x1="896" x2="1069" y1="347" y2="347"/><line style="stroke: #A80036; stroke-width: 1.5;" x1="896" x2="1069" y1="355" y2="355"/><polygon fill="#4177AF" points="906,362,902,368,910,368" style="stroke: #1963A0; stroke-width: 1.0;"/><text fill="#000000" font-family="sans-serif" font-size="11" lengthAdjust="spacingAndGlyphs" textLength="145" x="915" y="369.2104">SecretCombinationView()</text><polygon fill="#4177AF" points="906,374.8047,902,380.8047,910,380.8047" style="stroke: #1963A0; stroke-width: 1.0;"/><text fill="#000000" font-family="sans-serif" font-size="11" lengthAdjust="spacingAndGlyphs" textLength="46" x="915" y="382.0151">writeln()</text><!--MD5=[4ed27cd8fcf5b6ebdc6bc1a8178e2b74]
class mastermind.views.ProposedCombinationView--><rect codeLine="63" fill="#FEFECE" filter="url(#f1gzm45kfvyxg0)" height="86.4141" id="mastermind.views.ProposedCombinationView" style="stroke: #A80036; stroke-width: 1.5;" width="308" x="1275.5" y="309"/><ellipse cx="1344.75" cy="325" fill="#ADD1B2" rx="11" ry="11" style="stroke: #A80036; stroke-width: 1.0;"/><path d="M1347.0938,320.6719 C1346.1563,320.2344 1345.5625,320.0938 1344.6875,320.0938 C1342.0625,320.0938 1340.0625,322.1719 1340.0625,324.8906 L1340.0625,326.0156 C1340.0625,328.5938 1342.1719,330.4844 1345.0625,330.4844 C1346.2813,330.4844 1347.4375,330.1875 1348.1875,329.6406 C1348.7656,329.2344 1349.0938,328.7813 1349.0938,328.3906 C1349.0938,327.9375 1348.7031,327.5469 1348.2344,327.5469 C1348.0156,327.5469 1347.8125,327.625 1347.625,327.8125 C1347.1719,328.2969 1347.1719,328.2969 1346.9844,328.3906 C1346.5625,328.6563 1345.875,328.7813 1345.1094,328.7813 C1343.0625,328.7813 1341.7656,327.6875 1341.7656,325.9844 L1341.7656,324.8906 C1341.7656,323.1094 1343.0156,321.7969 1344.75,321.7969 C1345.3281,321.7969 1345.9375,321.9531 1346.4063,322.2031 C1346.8906,322.4844 1347.0625,322.7031 1347.1563,323.1094 C1347.2188,323.5156 1347.25,323.6406 1347.3906,323.7656 C1347.5313,323.9063 1347.7656,324.0156 1347.9844,324.0156 C1348.25,324.0156 1348.5156,323.875 1348.6875,323.6563 C1348.7969,323.5 1348.8281,323.3125 1348.8281,322.8906 L1348.8281,321.4688 C1348.8281,321.0313 1348.8125,320.9063 1348.7188,320.75 C1348.5625,320.4844 1348.2813,320.3438 1347.9844,320.3438 C1347.6875,320.3438 1347.4844,320.4375 1347.2656,320.75 L1347.0938,320.6719 Z "/><text fill="#000000" font-family="sans-serif" font-size="12" lengthAdjust="spacingAndGlyphs" textLength="161" x="1365.25" y="329.1543">ProposedCombinationView</text><line style="stroke: #A80036; stroke-width: 1.5;" x1="1276.5" x2="1582.5" y1="341" y2="341"/><line style="stroke: #A80036; stroke-width: 1.5;" x1="1276.5" x2="1582.5" y1="349" y2="349"/><polygon fill="#4177AF" points="1286.5,356,1282.5,362,1290.5,362" style="stroke: #1963A0; stroke-width: 1.0;"/><text fill="#000000" font-family="sans-serif" font-size="11" lengthAdjust="spacingAndGlyphs" textLength="282" x="1295.5" y="363.2104">ProposedCombinationView(ProposedCombination)</text><polygon fill="#4177AF" points="1286.5,368.8047,1282.5,374.8047,1290.5,374.8047" style="stroke: #1963A0; stroke-width: 1.0;"/><text fill="#000000" font-family="sans-serif" font-size="11" lengthAdjust="spacingAndGlyphs" textLength="36" x="1295.5" y="376.0151">write()</text><polygon fill="#4177AF" points="1286.5,381.6094,1282.5,387.6094,1290.5,387.6094" style="stroke: #1963A0; stroke-width: 1.0;"/><text fill="#000000" font-family="sans-serif" font-size="11" lengthAdjust="spacingAndGlyphs" textLength="34" x="1295.5" y="388.8198">read()</text><!--MD5=[56aa617717da0844c5255d733a5f8dfa]
class mastermind.views.ResultView--><rect codeLine="73" fill="#FEFECE" filter="url(#f1gzm45kfvyxg0)" height="73.6094" id="mastermind.views.ResultView" style="stroke: #A80036; stroke-width: 1.5;" width="97" x="1143" y="315"/><ellipse cx="1158" cy="331" fill="#ADD1B2" rx="11" ry="11" style="stroke: #A80036; stroke-width: 1.0;"/><path d="M1160.3438,326.6719 C1159.4063,326.2344 1158.8125,326.0938 1157.9375,326.0938 C1155.3125,326.0938 1153.3125,328.1719 1153.3125,330.8906 L1153.3125,332.0156 C1153.3125,334.5938 1155.4219,336.4844 1158.3125,336.4844 C1159.5313,336.4844 1160.6875,336.1875 1161.4375,335.6406 C1162.0156,335.2344 1162.3438,334.7813 1162.3438,334.3906 C1162.3438,333.9375 1161.9531,333.5469 1161.4844,333.5469 C1161.2656,333.5469 1161.0625,333.625 1160.875,333.8125 C1160.4219,334.2969 1160.4219,334.2969 1160.2344,334.3906 C1159.8125,334.6563 1159.125,334.7813 1158.3594,334.7813 C1156.3125,334.7813 1155.0156,333.6875 1155.0156,331.9844 L1155.0156,330.8906 C1155.0156,329.1094 1156.2656,327.7969 1158,327.7969 C1158.5781,327.7969 1159.1875,327.9531 1159.6563,328.2031 C1160.1406,328.4844 1160.3125,328.7031 1160.4063,329.1094 C1160.4688,329.5156 1160.5,329.6406 1160.6406,329.7656 C1160.7813,329.9063 1161.0156,330.0156 1161.2344,330.0156 C1161.5,330.0156 1161.7656,329.875 1161.9375,329.6563 C1162.0469,329.5 1162.0781,329.3125 1162.0781,328.8906 L1162.0781,327.4688 C1162.0781,327.0313 1162.0625,326.9063 1161.9688,326.75 C1161.8125,326.4844 1161.5313,326.3438 1161.2344,326.3438 C1160.9375,326.3438 1160.7344,326.4375 1160.5156,326.75 L1160.3438,326.6719 Z "/><text fill="#000000" font-family="sans-serif" font-size="12" lengthAdjust="spacingAndGlyphs" textLength="65" x="1172" y="335.1543">ResultView</text><line style="stroke: #A80036; stroke-width: 1.5;" x1="1144" x2="1239" y1="347" y2="347"/><line style="stroke: #A80036; stroke-width: 1.5;" x1="1144" x2="1239" y1="355" y2="355"/><polygon fill="#4177AF" points="1154,362,1150,368,1158,368" style="stroke: #1963A0; stroke-width: 1.0;"/><text fill="#000000" font-family="sans-serif" font-size="11" lengthAdjust="spacingAndGlyphs" textLength="71" x="1163" y="369.2104">ResultView()</text><polygon fill="#4177AF" points="1154,374.8047,1150,380.8047,1158,380.8047" style="stroke: #1963A0; stroke-width: 1.0;"/><text fill="#000000" font-family="sans-serif" font-size="11" lengthAdjust="spacingAndGlyphs" textLength="46" x="1163" y="382.0151">writeln()</text><!--MD5=[ec4aad91981170f30f8e0579b5e2d84f]
class mastermind.views.ResumeView--><rect codeLine="81" fill="#FEFECE" filter="url(#f1gzm45kfvyxg0)" height="73.6094" id="mastermind.views.ResumeView" style="stroke: #A80036; stroke-width: 1.5;" width="130" x="820.5" y="175"/><ellipse cx="844.95" cy="191" fill="#ADD1B2" rx="11" ry="11" style="stroke: #A80036; stroke-width: 1.0;"/><path d="M847.2938,186.6719 C846.3563,186.2344 845.7625,186.0938 844.8875,186.0938 C842.2625,186.0938 840.2625,188.1719 840.2625,190.8906 L840.2625,192.0156 C840.2625,194.5938 842.3719,196.4844 845.2625,196.4844 C846.4813,196.4844 847.6375,196.1875 848.3875,195.6406 C848.9656,195.2344 849.2938,194.7813 849.2938,194.3906 C849.2938,193.9375 848.9031,193.5469 848.4344,193.5469 C848.2156,193.5469 848.0125,193.625 847.825,193.8125 C847.3719,194.2969 847.3719,194.2969 847.1844,194.3906 C846.7625,194.6563 846.075,194.7813 845.3094,194.7813 C843.2625,194.7813 841.9656,193.6875 841.9656,191.9844 L841.9656,190.8906 C841.9656,189.1094 843.2156,187.7969 844.95,187.7969 C845.5281,187.7969 846.1375,187.9531 846.6063,188.2031 C847.0906,188.4844 847.2625,188.7031 847.3563,189.1094 C847.4188,189.5156 847.45,189.6406 847.5906,189.7656 C847.7313,189.9063 847.9656,190.0156 848.1844,190.0156 C848.45,190.0156 848.7156,189.875 848.8875,189.6563 C848.9969,189.5 849.0281,189.3125 849.0281,188.8906 L849.0281,187.4688 C849.0281,187.0313 849.0125,186.9063 848.9188,186.75 C848.7625,186.4844 848.4813,186.3438 848.1844,186.3438 C847.8875,186.3438 847.6844,186.4375 847.4656,186.75 L847.2938,186.6719 Z "/><text fill="#000000" font-family="sans-serif" font-size="12" lengthAdjust="spacingAndGlyphs" textLength="77" x="861.05" y="195.1543">ResumeView</text><line style="stroke: #A80036; stroke-width: 1.5;" x1="821.5" x2="949.5" y1="207" y2="207"/><line style="stroke: #A80036; stroke-width: 1.5;" x1="821.5" x2="949.5" y1="215" y2="215"/><polygon fill="#4177AF" points="831.5,222,827.5,228,835.5,228" style="stroke: #1963A0; stroke-width: 1.0;"/><text fill="#000000" font-family="sans-serif" font-size="11" lengthAdjust="spacingAndGlyphs" textLength="83" x="840.5" y="229.2104">ResumeView()</text><polygon fill="#4177AF" points="831.5,234.8047,827.5,240.8047,835.5,240.8047" style="stroke: #1963A0; stroke-width: 1.0;"/><text fill="#000000" font-family="sans-serif" font-size="11" lengthAdjust="spacingAndGlyphs" textLength="104" x="840.5" y="242.0151">interact(): boolean</text><!--MD5=[159b299c59daed45f31e591a5c9e649b]
class mastermind.views.StartView--><rect codeLine="96" fill="#FEFECE" filter="url(#f1gzm45kfvyxg0)" height="60.8047" id="mastermind.views.StartView" style="stroke: #A80036; stroke-width: 1.5;" width="89" x="986" y="181.5"/><ellipse cx="1001" cy="197.5" fill="#ADD1B2" rx="11" ry="11" style="stroke: #A80036; stroke-width: 1.0;"/><path d="M1003.3438,193.1719 C1002.4063,192.7344 1001.8125,192.5938 1000.9375,192.5938 C998.3125,192.5938 996.3125,194.6719 996.3125,197.3906 L996.3125,198.5156 C996.3125,201.0938 998.4219,202.9844 1001.3125,202.9844 C1002.5313,202.9844 1003.6875,202.6875 1004.4375,202.1406 C1005.0156,201.7344 1005.3438,201.2813 1005.3438,200.8906 C1005.3438,200.4375 1004.9531,200.0469 1004.4844,200.0469 C1004.2656,200.0469 1004.0625,200.125 1003.875,200.3125 C1003.4219,200.7969 1003.4219,200.7969 1003.2344,200.8906 C1002.8125,201.1563 1002.125,201.2813 1001.3594,201.2813 C999.3125,201.2813 998.0156,200.1875 998.0156,198.4844 L998.0156,197.3906 C998.0156,195.6094 999.2656,194.2969 1001,194.2969 C1001.5781,194.2969 1002.1875,194.4531 1002.6563,194.7031 C1003.1406,194.9844 1003.3125,195.2031 1003.4063,195.6094 C1003.4688,196.0156 1003.5,196.1406 1003.6406,196.2656 C1003.7813,196.4063 1004.0156,196.5156 1004.2344,196.5156 C1004.5,196.5156 1004.7656,196.375 1004.9375,196.1563 C1005.0469,196 1005.0781,195.8125 1005.0781,195.3906 L1005.0781,193.9688 C1005.0781,193.5313 1005.0625,193.4063 1004.9688,193.25 C1004.8125,192.9844 1004.5313,192.8438 1004.2344,192.8438 C1003.9375,192.8438 1003.7344,192.9375 1003.5156,193.25 L1003.3438,193.1719 Z "/><text fill="#000000" font-family="sans-serif" font-size="12" lengthAdjust="spacingAndGlyphs" textLength="57" x="1015" y="201.6543">StartView</text><line style="stroke: #A80036; stroke-width: 1.5;" x1="987" x2="1074" y1="213.5" y2="213.5"/><line style="stroke: #A80036; stroke-width: 1.5;" x1="987" x2="1074" y1="221.5" y2="221.5"/><polygon fill="#4177AF" points="997,228.5,993,234.5,1001,234.5" style="stroke: #1963A0; stroke-width: 1.0;"/><text fill="#000000" font-family="sans-serif" font-size="11" lengthAdjust="spacingAndGlyphs" textLength="51" x="1006" y="235.7104">interact()</text><!--MD5=[904c44326bfc30ddc4fe4077c1b9164d]
class mastermind.views.View--><rect codeLine="104" fill="#FEFECE" filter="url(#f1gzm45kfvyxg0)" height="73.6094" id="mastermind.views.View" style="stroke: #A80036; stroke-width: 1.5;" width="97" x="909" y="41"/><ellipse cx="940.2" cy="57" fill="#ADD1B2" rx="11" ry="11" style="stroke: #A80036; stroke-width: 1.0;"/><path d="M942.5438,52.6719 C941.6063,52.2344 941.0125,52.0938 940.1375,52.0938 C937.5125,52.0938 935.5125,54.1719 935.5125,56.8906 L935.5125,58.0156 C935.5125,60.5938 937.6219,62.4844 940.5125,62.4844 C941.7313,62.4844 942.8875,62.1875 943.6375,61.6406 C944.2156,61.2344 944.5438,60.7813 944.5438,60.3906 C944.5438,59.9375 944.1531,59.5469 943.6844,59.5469 C943.4656,59.5469 943.2625,59.625 943.075,59.8125 C942.6219,60.2969 942.6219,60.2969 942.4344,60.3906 C942.0125,60.6563 941.325,60.7813 940.5594,60.7813 C938.5125,60.7813 937.2156,59.6875 937.2156,57.9844 L937.2156,56.8906 C937.2156,55.1094 938.4656,53.7969 940.2,53.7969 C940.7781,53.7969 941.3875,53.9531 941.8563,54.2031 C942.3406,54.4844 942.5125,54.7031 942.6063,55.1094 C942.6688,55.5156 942.7,55.6406 942.8406,55.7656 C942.9813,55.9063 943.2156,56.0156 943.4344,56.0156 C943.7,56.0156 943.9656,55.875 944.1375,55.6563 C944.2469,55.5 944.2781,55.3125 944.2781,54.8906 L944.2781,53.4688 C944.2781,53.0313 944.2625,52.9063 944.1688,52.75 C944.0125,52.4844 943.7313,52.3438 943.4344,52.3438 C943.1375,52.3438 942.9344,52.4375 942.7156,52.75 L942.5438,52.6719 Z "/><text fill="#000000" font-family="sans-serif" font-size="12" lengthAdjust="spacingAndGlyphs" textLength="29" x="957.8" y="61.1543">View</text><line style="stroke: #A80036; stroke-width: 1.5;" x1="910" x2="1005" y1="73" y2="73"/><line style="stroke: #A80036; stroke-width: 1.5;" x1="910" x2="1005" y1="81" y2="81"/><ellipse cx="920" cy="92" fill="#84BE84" rx="3" ry="3" style="stroke: #038048; stroke-width: 1.0;"/><text fill="#000000" font-family="sans-serif" font-size="11" lengthAdjust="spacingAndGlyphs" textLength="71" x="929" y="95.2104">View(Game)</text><ellipse cx="920" cy="104.8047" fill="#84BE84" rx="3" ry="3" style="stroke: #038048; stroke-width: 1.0;"/><text fill="#000000" font-family="sans-serif" font-size="11" lengthAdjust="spacingAndGlyphs" textLength="51" x="929" y="108.0151">interact()</text><!--MD5=[ce3aceb15685c4a66d1e1b8ea7e2c984]
class ColorCode--><rect codeLine="1" fill="#FEFECE" filter="url(#f1gzm45kfvyxg0)" height="53.9375" id="ColorCode" style="stroke: #A80036; stroke-width: 1.5;" width="133" x="1552" y="856"/><ellipse cx="1567" cy="874.9688" fill="#ADD1B2" rx="11" ry="11" style="stroke: #A80036; stroke-width: 1.0;"/><path d="M1569.3438,870.6406 C1568.4063,870.2031 1567.8125,870.0625 1566.9375,870.0625 C1564.3125,870.0625 1562.3125,872.1406 1562.3125,874.8594 L1562.3125,875.9844 C1562.3125,878.5625 1564.4219,880.4531 1567.3125,880.4531 C1568.5313,880.4531 1569.6875,880.1563 1570.4375,879.6094 C1571.0156,879.2031 1571.3438,878.75 1571.3438,878.3594 C1571.3438,877.9063 1570.9531,877.5156 1570.4844,877.5156 C1570.2656,877.5156 1570.0625,877.5938 1569.875,877.7813 C1569.4219,878.2656 1569.4219,878.2656 1569.2344,878.3594 C1568.8125,878.625 1568.125,878.75 1567.3594,878.75 C1565.3125,878.75 1564.0156,877.6563 1564.0156,875.9531 L1564.0156,874.8594 C1564.0156,873.0781 1565.2656,871.7656 1567,871.7656 C1567.5781,871.7656 1568.1875,871.9219 1568.6563,872.1719 C1569.1406,872.4531 1569.3125,872.6719 1569.4063,873.0781 C1569.4688,873.4844 1569.5,873.6094 1569.6406,873.7344 C1569.7813,873.875 1570.0156,873.9844 1570.2344,873.9844 C1570.5,873.9844 1570.7656,873.8438 1570.9375,873.625 C1571.0469,873.4688 1571.0781,873.2813 1571.0781,872.8594 L1571.0781,871.4375 C1571.0781,871 1571.0625,870.875 1570.9688,870.7188 C1570.8125,870.4531 1570.5313,870.3125 1570.2344,870.3125 C1569.9375,870.3125 1569.7344,870.4063 1569.5156,870.7188 L1569.3438,870.6406 Z "/><text fill="#000000" font-family="sans-serif" font-size="12" lengthAdjust="spacingAndGlyphs" textLength="101" x="1581" y="872.1387">mastermind.utils.</text><text fill="#000000" font-family="sans-serif" font-size="12" lengthAdjust="spacingAndGlyphs" textLength="64" x="1599.5" y="886.1074">ColorCode</text><line style="stroke: #A80036; stroke-width: 1.5;" x1="1553" x2="1684" y1="893.9375" y2="893.9375"/><line style="stroke: #A80036; stroke-width: 1.5;" x1="1553" x2="1684" y1="901.9375" y2="901.9375"/><!--MD5=[b8cfd8c4119a3b0a7a46bfc5fc780f85]
class Error--><rect codeLine="2" fill="#FEFECE" filter="url(#f1gzm45kfvyxg0)" height="53.9375" id="Error" style="stroke: #A80036; stroke-width: 1.5;" width="154" x="634.5" y="541.5"/><ellipse cx="649.5" cy="560.4688" fill="#ADD1B2" rx="11" ry="11" style="stroke: #A80036; stroke-width: 1.0;"/><path d="M651.8438,556.1406 C650.9063,555.7031 650.3125,555.5625 649.4375,555.5625 C646.8125,555.5625 644.8125,557.6406 644.8125,560.3594 L644.8125,561.4844 C644.8125,564.0625 646.9219,565.9531 649.8125,565.9531 C651.0313,565.9531 652.1875,565.6563 652.9375,565.1094 C653.5156,564.7031 653.8438,564.25 653.8438,563.8594 C653.8438,563.4063 653.4531,563.0156 652.9844,563.0156 C652.7656,563.0156 652.5625,563.0938 652.375,563.2813 C651.9219,563.7656 651.9219,563.7656 651.7344,563.8594 C651.3125,564.125 650.625,564.25 649.8594,564.25 C647.8125,564.25 646.5156,563.1563 646.5156,561.4531 L646.5156,560.3594 C646.5156,558.5781 647.7656,557.2656 649.5,557.2656 C650.0781,557.2656 650.6875,557.4219 651.1563,557.6719 C651.6406,557.9531 651.8125,558.1719 651.9063,558.5781 C651.9688,558.9844 652,559.1094 652.1406,559.2344 C652.2813,559.375 652.5156,559.4844 652.7344,559.4844 C653,559.4844 653.2656,559.3438 653.4375,559.125 C653.5469,558.9688 653.5781,558.7813 653.5781,558.3594 L653.5781,556.9375 C653.5781,556.5 653.5625,556.375 653.4688,556.2188 C653.3125,555.9531 653.0313,555.8125 652.7344,555.8125 C652.4375,555.8125 652.2344,555.9063 652.0156,556.2188 L651.8438,556.1406 Z "/><text fill="#000000" font-family="sans-serif" font-size="12" lengthAdjust="spacingAndGlyphs" textLength="122" x="663.5" y="557.6387">mastermind.models.</text><text fill="#000000" font-family="sans-serif" font-size="12" lengthAdjust="spacingAndGlyphs" textLength="30" x="709.5" y="571.6074">Error</text><line style="stroke: #A80036; stroke-width: 1.5;" x1="635.5" x2="787.5" y1="579.4375" y2="579.4375"/><line style="stroke: #A80036; stroke-width: 1.5;" x1="635.5" x2="787.5" y1="587.4375" y2="587.4375"/><!--MD5=[18eee71c88ab61f27581b8cbdd3ef5ee]
class Color--><rect codeLine="3" fill="#FEFECE" filter="url(#f1gzm45kfvyxg0)" height="53.9375" id="Color" style="stroke: #A80036; stroke-width: 1.5;" width="154" x="1671.5" y="742"/><ellipse cx="1686.5" cy="760.9688" fill="#ADD1B2" rx="11" ry="11" style="stroke: #A80036; stroke-width: 1.0;"/><path d="M1688.8438,756.6406 C1687.9063,756.2031 1687.3125,756.0625 1686.4375,756.0625 C1683.8125,756.0625 1681.8125,758.1406 1681.8125,760.8594 L1681.8125,761.9844 C1681.8125,764.5625 1683.9219,766.4531 1686.8125,766.4531 C1688.0313,766.4531 1689.1875,766.1563 1689.9375,765.6094 C1690.5156,765.2031 1690.8438,764.75 1690.8438,764.3594 C1690.8438,763.9063 1690.4531,763.5156 1689.9844,763.5156 C1689.7656,763.5156 1689.5625,763.5938 1689.375,763.7813 C1688.9219,764.2656 1688.9219,764.2656 1688.7344,764.3594 C1688.3125,764.625 1687.625,764.75 1686.8594,764.75 C1684.8125,764.75 1683.5156,763.6563 1683.5156,761.9531 L1683.5156,760.8594 C1683.5156,759.0781 1684.7656,757.7656 1686.5,757.7656 C1687.0781,757.7656 1687.6875,757.9219 1688.1563,758.1719 C1688.6406,758.4531 1688.8125,758.6719 1688.9063,759.0781 C1688.9688,759.4844 1689,759.6094 1689.1406,759.7344 C1689.2813,759.875 1689.5156,759.9844 1689.7344,759.9844 C1690,759.9844 1690.2656,759.8438 1690.4375,759.625 C1690.5469,759.4688 1690.5781,759.2813 1690.5781,758.8594 L1690.5781,757.4375 C1690.5781,757 1690.5625,756.875 1690.4688,756.7188 C1690.3125,756.4531 1690.0313,756.3125 1689.7344,756.3125 C1689.4375,756.3125 1689.2344,756.4063 1689.0156,756.7188 L1688.8438,756.6406 Z "/><text fill="#000000" font-family="sans-serif" font-size="12" lengthAdjust="spacingAndGlyphs" textLength="122" x="1700.5" y="758.1387">mastermind.models.</text><text fill="#000000" font-family="sans-serif" font-size="12" lengthAdjust="spacingAndGlyphs" textLength="32" x="1745.5" y="772.1074">Color</text><line style="stroke: #A80036; stroke-width: 1.5;" x1="1672.5" x2="1824.5" y1="779.9375" y2="779.9375"/><line style="stroke: #A80036; stroke-width: 1.5;" x1="1672.5" x2="1824.5" y1="787.9375" y2="787.9375"/><!--MD5=[cf489b19c51ee25e76ddca093e62e620]
class ProposedCombination--><rect codeLine="4" fill="#FEFECE" filter="url(#f1gzm45kfvyxg0)" height="53.9375" id="ProposedCombination" style="stroke: #A80036; stroke-width: 1.5;" width="164" x="175.5" y="541.5"/><ellipse cx="190.5" cy="560.4688" fill="#ADD1B2" rx="11" ry="11" style="stroke: #A80036; stroke-width: 1.0;"/><path d="M192.8438,556.1406 C191.9063,555.7031 191.3125,555.5625 190.4375,555.5625 C187.8125,555.5625 185.8125,557.6406 185.8125,560.3594 L185.8125,561.4844 C185.8125,564.0625 187.9219,565.9531 190.8125,565.9531 C192.0313,565.9531 193.1875,565.6563 193.9375,565.1094 C194.5156,564.7031 194.8438,564.25 194.8438,563.8594 C194.8438,563.4063 194.4531,563.0156 193.9844,563.0156 C193.7656,563.0156 193.5625,563.0938 193.375,563.2813 C192.9219,563.7656 192.9219,563.7656 192.7344,563.8594 C192.3125,564.125 191.625,564.25 190.8594,564.25 C188.8125,564.25 187.5156,563.1563 187.5156,561.4531 L187.5156,560.3594 C187.5156,558.5781 188.7656,557.2656 190.5,557.2656 C191.0781,557.2656 191.6875,557.4219 192.1563,557.6719 C192.6406,557.9531 192.8125,558.1719 192.9063,558.5781 C192.9688,558.9844 193,559.1094 193.1406,559.2344 C193.2813,559.375 193.5156,559.4844 193.7344,559.4844 C194,559.4844 194.2656,559.3438 194.4375,559.125 C194.5469,558.9688 194.5781,558.7813 194.5781,558.3594 L194.5781,556.9375 C194.5781,556.5 194.5625,556.375 194.4688,556.2188 C194.3125,555.9531 194.0313,555.8125 193.7344,555.8125 C193.4375,555.8125 193.2344,555.9063 193.0156,556.2188 L192.8438,556.1406 Z "/><text fill="#000000" font-family="sans-serif" font-size="12" lengthAdjust="spacingAndGlyphs" textLength="122" x="209.5" y="557.6387">mastermind.models.</text><text fill="#000000" font-family="sans-serif" font-size="12" lengthAdjust="spacingAndGlyphs" textLength="132" x="204.5" y="571.6074">ProposedCombination</text><line style="stroke: #A80036; stroke-width: 1.5;" x1="176.5" x2="338.5" y1="579.4375" y2="579.4375"/><line style="stroke: #A80036; stroke-width: 1.5;" x1="176.5" x2="338.5" y1="587.4375" y2="587.4375"/><!--MD5=[8e7e8d7e522e56c14d493dfee2dc57e6]
class WithConsoleView--><rect codeLine="5" fill="#FEFECE" filter="url(#f1gzm45kfvyxg0)" height="53.9375" id="WithConsoleView" style="stroke: #A80036; stroke-width: 1.5;" width="136" x="1796.5" y="51"/><ellipse cx="1811.5" cy="69.9688" fill="#ADD1B2" rx="11" ry="11" style="stroke: #A80036; stroke-width: 1.0;"/><path d="M1813.8438,65.6406 C1812.9063,65.2031 1812.3125,65.0625 1811.4375,65.0625 C1808.8125,65.0625 1806.8125,67.1406 1806.8125,69.8594 L1806.8125,70.9844 C1806.8125,73.5625 1808.9219,75.4531 1811.8125,75.4531 C1813.0313,75.4531 1814.1875,75.1563 1814.9375,74.6094 C1815.5156,74.2031 1815.8438,73.75 1815.8438,73.3594 C1815.8438,72.9063 1815.4531,72.5156 1814.9844,72.5156 C1814.7656,72.5156 1814.5625,72.5938 1814.375,72.7813 C1813.9219,73.2656 1813.9219,73.2656 1813.7344,73.3594 C1813.3125,73.625 1812.625,73.75 1811.8594,73.75 C1809.8125,73.75 1808.5156,72.6563 1808.5156,70.9531 L1808.5156,69.8594 C1808.5156,68.0781 1809.7656,66.7656 1811.5,66.7656 C1812.0781,66.7656 1812.6875,66.9219 1813.1563,67.1719 C1813.6406,67.4531 1813.8125,67.6719 1813.9063,68.0781 C1813.9688,68.4844 1814,68.6094 1814.1406,68.7344 C1814.2813,68.875 1814.5156,68.9844 1814.7344,68.9844 C1815,68.9844 1815.2656,68.8438 1815.4375,68.625 C1815.5469,68.4688 1815.5781,68.2813 1815.5781,67.8594 L1815.5781,66.4375 C1815.5781,66 1815.5625,65.875 1815.4688,65.7188 C1815.3125,65.4531 1815.0313,65.3125 1814.7344,65.3125 C1814.4375,65.3125 1814.2344,65.4063 1814.0156,65.7188 L1813.8438,65.6406 Z "/><text fill="#000000" font-family="sans-serif" font-size="12" lengthAdjust="spacingAndGlyphs" textLength="101" x="1827" y="67.1387">mastermind.utils.</text><text fill="#000000" font-family="sans-serif" font-size="12" lengthAdjust="spacingAndGlyphs" textLength="104" x="1825.5" y="81.1074">WithConsoleView</text><line style="stroke: #A80036; stroke-width: 1.5;" x1="1797.5" x2="1931.5" y1="88.9375" y2="88.9375"/><line style="stroke: #A80036; stroke-width: 1.5;" x1="1797.5" x2="1931.5" y1="96.9375" y2="96.9375"/><!--MD5=[2741598bdf59a7d7e0d5c97658fd3022]
class Result--><rect codeLine="6" fill="#FEFECE" filter="url(#f1gzm45kfvyxg0)" height="53.9375" id="Result" style="stroke: #A80036; stroke-width: 1.5;" width="154" x="374.5" y="541.5"/><ellipse cx="389.5" cy="560.4688" fill="#ADD1B2" rx="11" ry="11" style="stroke: #A80036; stroke-width: 1.0;"/><path d="M391.8438,556.1406 C390.9063,555.7031 390.3125,555.5625 389.4375,555.5625 C386.8125,555.5625 384.8125,557.6406 384.8125,560.3594 L384.8125,561.4844 C384.8125,564.0625 386.9219,565.9531 389.8125,565.9531 C391.0313,565.9531 392.1875,565.6563 392.9375,565.1094 C393.5156,564.7031 393.8438,564.25 393.8438,563.8594 C393.8438,563.4063 393.4531,563.0156 392.9844,563.0156 C392.7656,563.0156 392.5625,563.0938 392.375,563.2813 C391.9219,563.7656 391.9219,563.7656 391.7344,563.8594 C391.3125,564.125 390.625,564.25 389.8594,564.25 C387.8125,564.25 386.5156,563.1563 386.5156,561.4531 L386.5156,560.3594 C386.5156,558.5781 387.7656,557.2656 389.5,557.2656 C390.0781,557.2656 390.6875,557.4219 391.1563,557.6719 C391.6406,557.9531 391.8125,558.1719 391.9063,558.5781 C391.9688,558.9844 392,559.1094 392.1406,559.2344 C392.2813,559.375 392.5156,559.4844 392.7344,559.4844 C393,559.4844 393.2656,559.3438 393.4375,559.125 C393.5469,558.9688 393.5781,558.7813 393.5781,558.3594 L393.5781,556.9375 C393.5781,556.5 393.5625,556.375 393.4688,556.2188 C393.3125,555.9531 393.0313,555.8125 392.7344,555.8125 C392.4375,555.8125 392.2344,555.9063 392.0156,556.2188 L391.8438,556.1406 Z "/><text fill="#000000" font-family="sans-serif" font-size="12" lengthAdjust="spacingAndGlyphs" textLength="122" x="403.5" y="557.6387">mastermind.models.</text><text fill="#000000" font-family="sans-serif" font-size="12" lengthAdjust="spacingAndGlyphs" textLength="36" x="446.5" y="571.6074">Result</text><line style="stroke: #A80036; stroke-width: 1.5;" x1="375.5" x2="527.5" y1="579.4375" y2="579.4375"/><line style="stroke: #A80036; stroke-width: 1.5;" x1="375.5" x2="527.5" y1="587.4375" y2="587.4375"/><!--MD5=[b6dcce5e5ef3c84b0b048d11301373dd]
class Game--><rect codeLine="7" fill="#FEFECE" filter="url(#f1gzm45kfvyxg0)" height="53.9375" id="Game" style="stroke: #A80036; stroke-width: 1.5;" width="154" x="560.5" y="325"/><ellipse cx="575.5" cy="343.9688" fill="#ADD1B2" rx="11" ry="11" style="stroke: #A80036; stroke-width: 1.0;"/><path d="M577.8438,339.6406 C576.9063,339.2031 576.3125,339.0625 575.4375,339.0625 C572.8125,339.0625 570.8125,341.1406 570.8125,343.8594 L570.8125,344.9844 C570.8125,347.5625 572.9219,349.4531 575.8125,349.4531 C577.0313,349.4531 578.1875,349.1563 578.9375,348.6094 C579.5156,348.2031 579.8438,347.75 579.8438,347.3594 C579.8438,346.9063 579.4531,346.5156 578.9844,346.5156 C578.7656,346.5156 578.5625,346.5938 578.375,346.7813 C577.9219,347.2656 577.9219,347.2656 577.7344,347.3594 C577.3125,347.625 576.625,347.75 575.8594,347.75 C573.8125,347.75 572.5156,346.6563 572.5156,344.9531 L572.5156,343.8594 C572.5156,342.0781 573.7656,340.7656 575.5,340.7656 C576.0781,340.7656 576.6875,340.9219 577.1563,341.1719 C577.6406,341.4531 577.8125,341.6719 577.9063,342.0781 C577.9688,342.4844 578,342.6094 578.1406,342.7344 C578.2813,342.875 578.5156,342.9844 578.7344,342.9844 C579,342.9844 579.2656,342.8438 579.4375,342.625 C579.5469,342.4688 579.5781,342.2813 579.5781,341.8594 L579.5781,340.4375 C579.5781,340 579.5625,339.875 579.4688,339.7188 C579.3125,339.4531 579.0313,339.3125 578.7344,339.3125 C578.4375,339.3125 578.2344,339.4063 578.0156,339.7188 L577.8438,339.6406 Z "/><text fill="#000000" font-family="sans-serif" font-size="12" lengthAdjust="spacingAndGlyphs" textLength="122" x="589.5" y="341.1387">mastermind.models.</text><text fill="#000000" font-family="sans-serif" font-size="12" lengthAdjust="spacingAndGlyphs" textLength="35" x="633" y="355.1074">Game</text><line style="stroke: #A80036; stroke-width: 1.5;" x1="561.5" x2="713.5" y1="362.9375" y2="362.9375"/><line style="stroke: #A80036; stroke-width: 1.5;" x1="561.5" x2="713.5" y1="370.9375" y2="370.9375"/><!--MD5=[d93cf99d2b92276f27fe8dbf15140505]
class YesNoDialog--><rect codeLine="8" fill="#FEFECE" filter="url(#f1gzm45kfvyxg0)" height="53.9375" id="YesNoDialog" style="stroke: #A80036; stroke-width: 1.5;" width="133" x="7" y="541.5"/><ellipse cx="22" cy="560.4688" fill="#ADD1B2" rx="11" ry="11" style="stroke: #A80036; stroke-width: 1.0;"/><path d="M24.3438,556.1406 C23.4063,555.7031 22.8125,555.5625 21.9375,555.5625 C19.3125,555.5625 17.3125,557.6406 17.3125,560.3594 L17.3125,561.4844 C17.3125,564.0625 19.4219,565.9531 22.3125,565.9531 C23.5313,565.9531 24.6875,565.6563 25.4375,565.1094 C26.0156,564.7031 26.3438,564.25 26.3438,563.8594 C26.3438,563.4063 25.9531,563.0156 25.4844,563.0156 C25.2656,563.0156 25.0625,563.0938 24.875,563.2813 C24.4219,563.7656 24.4219,563.7656 24.2344,563.8594 C23.8125,564.125 23.125,564.25 22.3594,564.25 C20.3125,564.25 19.0156,563.1563 19.0156,561.4531 L19.0156,560.3594 C19.0156,558.5781 20.2656,557.2656 22,557.2656 C22.5781,557.2656 23.1875,557.4219 23.6563,557.6719 C24.1406,557.9531 24.3125,558.1719 24.4063,558.5781 C24.4688,558.9844 24.5,559.1094 24.6406,559.2344 C24.7813,559.375 25.0156,559.4844 25.2344,559.4844 C25.5,559.4844 25.7656,559.3438 25.9375,559.125 C26.0469,558.9688 26.0781,558.7813 26.0781,558.3594 L26.0781,556.9375 C26.0781,556.5 26.0625,556.375 25.9688,556.2188 C25.8125,555.9531 25.5313,555.8125 25.2344,555.8125 C24.9375,555.8125 24.7344,555.9063 24.5156,556.2188 L24.3438,556.1406 Z "/><text fill="#000000" font-family="sans-serif" font-size="12" lengthAdjust="spacingAndGlyphs" textLength="101" x="36" y="557.6387">mastermind.utils.</text><text fill="#000000" font-family="sans-serif" font-size="12" lengthAdjust="spacingAndGlyphs" textLength="76" x="48.5" y="571.6074">YesNoDialog</text><line style="stroke: #A80036; stroke-width: 1.5;" x1="8" x2="139" y1="579.4375" y2="579.4375"/><line style="stroke: #A80036; stroke-width: 1.5;" x1="8" x2="139" y1="587.4375" y2="587.4375"/><!--MD5=[315b61b427ec618d6861d47eee00cca3]
class Console--><rect codeLine="9" fill="#FEFECE" filter="url(#f1gzm45kfvyxg0)" height="53.9375" id="Console" style="stroke: #A80036; stroke-width: 1.5;" width="133" x="716" y="742"/><ellipse cx="731" cy="760.9688" fill="#ADD1B2" rx="11" ry="11" style="stroke: #A80036; stroke-width: 1.0;"/><path d="M733.3438,756.6406 C732.4063,756.2031 731.8125,756.0625 730.9375,756.0625 C728.3125,756.0625 726.3125,758.1406 726.3125,760.8594 L726.3125,761.9844 C726.3125,764.5625 728.4219,766.4531 731.3125,766.4531 C732.5313,766.4531 733.6875,766.1563 734.4375,765.6094 C735.0156,765.2031 735.3438,764.75 735.3438,764.3594 C735.3438,763.9063 734.9531,763.5156 734.4844,763.5156 C734.2656,763.5156 734.0625,763.5938 733.875,763.7813 C733.4219,764.2656 733.4219,764.2656 733.2344,764.3594 C732.8125,764.625 732.125,764.75 731.3594,764.75 C729.3125,764.75 728.0156,763.6563 728.0156,761.9531 L728.0156,760.8594 C728.0156,759.0781 729.2656,757.7656 731,757.7656 C731.5781,757.7656 732.1875,757.9219 732.6563,758.1719 C733.1406,758.4531 733.3125,758.6719 733.4063,759.0781 C733.4688,759.4844 733.5,759.6094 733.6406,759.7344 C733.7813,759.875 734.0156,759.9844 734.2344,759.9844 C734.5,759.9844 734.7656,759.8438 734.9375,759.625 C735.0469,759.4688 735.0781,759.2813 735.0781,758.8594 L735.0781,757.4375 C735.0781,757 735.0625,756.875 734.9688,756.7188 C734.8125,756.4531 734.5313,756.3125 734.2344,756.3125 C733.9375,756.3125 733.7344,756.4063 733.5156,756.7188 L733.3438,756.6406 Z "/><text fill="#000000" font-family="sans-serif" font-size="12" lengthAdjust="spacingAndGlyphs" textLength="101" x="745" y="758.1387">mastermind.utils.</text><text fill="#000000" font-family="sans-serif" font-size="12" lengthAdjust="spacingAndGlyphs" textLength="49" x="771" y="772.1074">Console</text><line style="stroke: #A80036; stroke-width: 1.5;" x1="717" x2="848" y1="779.9375" y2="779.9375"/><line style="stroke: #A80036; stroke-width: 1.5;" x1="717" x2="848" y1="787.9375" y2="787.9375"/><!--MD5=[8e51f8bd9c15dd648e9e1b8e006f0e30]
link mastermind.views.ColorView to ColorCode--><path codeLine="18" d="M1672.03,624.649 C1658.33,690.51 1635.9,798.369 1624.93,851.0658 " fill="none" id="mastermind.views.ColorView-to-ColorCode" style="stroke: #A80036; stroke-width: 1.0; stroke-dasharray: 7.0,7.0;"/><polygon fill="#A80036" points="1623.91,855.99,1629.6622,847.9955,1624.9302,851.0952,1621.8305,846.3632,1623.91,855.99" style="stroke: #A80036; stroke-width: 1.0;"/><!--MD5=[7b6dec937fdadecd8851613d2ea4e3d6]
link mastermind.views.ColorView to Color--><path codeLine="19" d="M1705.2538,635.9343 C1705.2538,635.9343 1727.3,703.261 1735.89,729.491 " fill="none" id="mastermind.views.ColorView-Color" style="stroke: #A80036; stroke-width: 1.0;"/><polygon fill="#A80036" points="1739.96,741.931,1740.9611,732.1332,1738.4043,737.1792,1733.3582,734.6223,1739.96,741.931" style="stroke: #A80036; stroke-width: 1.0;"/><line style="stroke: #A80036; stroke-width: 1.0;" x1="1738.4043" x2="1735.915" y1="737.1792" y2="729.576"/><polygon fill="#A80036" points="1701.52,624.53,1699.5854,631.4768,1705.2538,635.9343,1707.1883,628.9876,1701.52,624.53" style="stroke: #A80036; stroke-width: 1.0;"/><!--MD5=[897ba930099b7c69cf2a2e9067644dda]
reverse link WithConsoleView to mastermind.views.ColorView--><path codeLine="20" d="M1856.33,124.966 C1844.33,187.565 1819.2,302.426 1781.5,395 C1764.81,435.991 1740.18,479.293 1719.79,512.259 " fill="none" id="WithConsoleView-backto-mastermind.views.ColorView" style="stroke: #A80036; stroke-width: 1.0;"/><polygon fill="none" points="1849.48,123.506,1860.02,105.126,1863.24,126.07,1849.48,123.506" style="stroke: #A80036; stroke-width: 1.0;"/><!--MD5=[a3cf660066c9f3e800b797bfc872e2ae]
link mastermind.views.ErrorView to Error--><path codeLine="27" d="M1607.4894,393.2812 C1607.4894,393.2812 1603.12,394.577 1601.5,395 C1429.67,439.954 962.24,373.365 804.5,455 C772.688,471.464 747.653,504.045 731.61,529.925 " fill="none" id="mastermind.views.ErrorView-Error" style="stroke: #A80036; stroke-width: 1.0;"/><polygon fill="#A80036" points="724.879,541.263,732.9127,535.5656,727.4312,536.9635,726.0334,531.482,724.879,541.263" style="stroke: #A80036; stroke-width: 1.0;"/><line style="stroke: #A80036; stroke-width: 1.0;" x1="727.4312" x2="731.5155" y1="536.9635" y2="530.0845"/><polygon fill="#A80036" points="1618.89,389.536,1611.9413,387.6084,1607.4894,393.2812,1614.4381,395.2088,1618.89,389.536" style="stroke: #A80036; stroke-width: 1.0;"/><!--MD5=[dc8d05942454a1924107a8bb6b15b8e3]
link mastermind.views.ErrorView to mastermind.views.ColorView--><path codeLine="28" d="M1689.93,395.122 C1688.74,427.102 1687.08,471.514 1685.75,507.249 " fill="none" id="mastermind.views.ErrorView-to-mastermind.views.ColorView" style="stroke: #A80036; stroke-width: 1.0; stroke-dasharray: 7.0,7.0;"/><polygon fill="#A80036" points="1685.55,512.456,1689.8838,503.6119,1685.737,507.4595,1681.8894,503.3127,1685.55,512.456" style="stroke: #A80036; stroke-width: 1.0;"/><!--MD5=[0ef7364e5b8ea95886e9466644a6300a]
link mastermind.views.ErrorView to Console--><path codeLine="29" d="M1618.91,389.628 C1613.11,391.703 1607.27,393.536 1601.5,395 C1495.23,421.993 691.638,375.145 616.5,455 C540.054,536.244 552.898,614.352 616.5,706 C637.815,736.714 676.3,752.239 710.851,760.075 " fill="none" id="mastermind.views.ErrorView-to-Console" style="stroke: #A80036; stroke-width: 1.0; stroke-dasharray: 7.0,7.0;"/><polygon fill="#A80036" points="715.917,761.176,707.9714,755.3565,711.031,760.1145,706.273,763.1741,715.917,761.176" style="stroke: #A80036; stroke-width: 1.0;"/><!--MD5=[c81e859640ee05dcf83fb3c8cbba10e1]
reverse link WithConsoleView to mastermind.views.ErrorView--><path codeLine="30" d="M1836.97,122.284 C1804.45,173.416 1750.7,257.921 1718.44,308.645 " fill="none" id="WithConsoleView-backto-mastermind.views.ErrorView" style="stroke: #A80036; stroke-width: 1.0;"/><polygon fill="none" points="1831.27,118.2,1847.91,105.081,1843.09,125.713,1831.27,118.2" style="stroke: #A80036; stroke-width: 1.0;"/><!--MD5=[8de8c1bee7935963fa81515d9fb1d994]
link mastermind.views.MessageView to Console--><path codeLine="49" d="M895.94,655.411 C866.201,684.927 834.846,716.047 812.656,738.07 " fill="none" id="mastermind.views.MessageView-to-Console" style="stroke: #A80036; stroke-width: 1.0; stroke-dasharray: 7.0,7.0;"/><polygon fill="#A80036" points="808.899,741.799,818.1049,738.2988,812.4481,738.2771,812.4698,732.6203,808.899,741.799" style="stroke: #A80036; stroke-width: 1.0;"/><!--MD5=[8b166df798203b5d4e0c1cf3e2ebb266]
link mastermind.views.ProposalView to ProposedCombination--><path codeLine="55" d="M1110.05,242.762 C1104.14,244.95 1098.24,247.058 1092.5,249 C998.529,280.802 968.789,270.163 877.5,309 C808.201,338.482 802.359,369.496 731.5,395 C572.687,452.161 504.308,373.503 356.5,455 C321.61,474.238 293.035,510.717 275.706,536.926 " fill="none" id="mastermind.views.ProposalView-to-ProposedCombination" style="stroke: #A80036; stroke-width: 1.0; stroke-dasharray: 7.0,7.0;"/><polygon fill="#A80036" points="272.812,541.366,281.0773,536.0103,275.5422,537.1772,274.3752,531.642,272.812,541.366" style="stroke: #A80036; stroke-width: 1.0;"/><!--MD5=[4757e7398c126dfe9b8eaa0c555b4b4f]
reverse link WithConsoleView to mastermind.views.ProposalView--><path codeLine="56" d="M1790.37,112.015 C1787.06,113.094 1783.76,114.096 1780.5,115 C1591.16,167.506 1535.85,140.07 1342.5,175 C1313.64,180.214 1282.1,187.06 1254.71,193.38 " fill="none" id="WithConsoleView-backto-mastermind.views.ProposalView" style="stroke: #A80036; stroke-width: 1.0;"/><polygon fill="none" points="1788.04,105.413,1809.23,105.159,1792.82,118.57,1788.04,105.413" style="stroke: #A80036; stroke-width: 1.0;"/><!--MD5=[1cafa90f1bedd5cd090fa94e85c38f8c]
link mastermind.views.ProposalView to Game--><path codeLine="57" d="M1098.8421,247.1131 C1098.8421,247.1131 1094.23,248.512 1092.5,249 C940.18,291.961 893.749,265.787 741.5,309 C730.476,312.129 719.024,316.039 707.924,320.206 " fill="none" id="mastermind.views.ProposalView-Game" style="stroke: #A80036; stroke-width: 1.0;"/><polygon fill="#A80036" points="695.582,324.991,705.4194,325.4668,700.2438,323.1834,702.5272,318.0079,695.582,324.991" style="stroke: #A80036; stroke-width: 1.0;"/><line style="stroke: #A80036; stroke-width: 1.0;" x1="700.2438" x2="707.703" y1="323.1834" y2="320.2915"/><polygon fill="#A80036" points="1110.26,243.421,1103.3203,241.4611,1098.8421,247.1131,1105.7818,249.073,1110.26,243.421" style="stroke: #A80036; stroke-width: 1.0;"/><!--MD5=[08a105026e923a8b09966a1d0d4eca6a]
link mastermind.views.ProposalView to mastermind.views.MessageView--><path codeLine="58" d="M1159.53,249.344 C1148.69,267.058 1135.89,288.842 1125.5,309 C1106.35,346.143 1106.85,357.963 1087.5,395 C1078.07,413.048 1067.52,431.785 1056.83,449.97 " fill="none" id="mastermind.views.ProposalView-to-mastermind.views.MessageView" style="stroke: #A80036; stroke-width: 1.0; stroke-dasharray: 7.0,7.0;"/><polygon fill="#A80036" points="1054.11,454.58,1062.1314,448.8653,1056.653,450.275,1055.2433,444.7966,1054.11,454.58" style="stroke: #A80036; stroke-width: 1.0;"/><!--MD5=[8bfd539995de3793b648e93fe09818e7]
link mastermind.views.ProposalView to mastermind.views.SecretCombinationView--><path codeLine="59" d="M1120.3342,255.8948 C1120.3342,255.8948 1069.18,291.193 1045.71,307.382 " fill="none" id="mastermind.views.ProposalView-mastermind.views.SecretCombinationView" style="stroke: #A80036; stroke-width: 1.0;"/><polygon fill="#A80036" points="1034.83,314.894,1044.5091,313.0733,1038.9449,312.0537,1039.9646,306.4895,1034.83,314.894" style="stroke: #A80036; stroke-width: 1.0;"/><line style="stroke: #A80036; stroke-width: 1.0;" x1="1038.9449" x2="1045.525" y1="312.0537" y2="307.51"/><polygon fill="#A80036" points="1130.21,249.078,1122.9998,249.1945,1120.3342,255.8948,1127.5444,255.7783,1130.21,249.078" style="stroke: #A80036; stroke-width: 1.0;"/><!--MD5=[268d82247948adc30e7cd29b2c579786]
link mastermind.views.ProposalView to mastermind.views.ProposedCombinationView--><path codeLine="60" d="M1247.07,249.078 C1278.4,266.58 1316.33,287.773 1349.48,306.291 " fill="none" id="mastermind.views.ProposalView-to-mastermind.views.ProposedCombinationView" style="stroke: #A80036; stroke-width: 1.0; stroke-dasharray: 7.0,7.0;"/><polygon fill="#A80036" points="1353.91,308.768,1348.0103,300.8817,1349.547,306.3259,1344.1029,307.8625,1353.91,308.768" style="stroke: #A80036; stroke-width: 1.0;"/><!--MD5=[292863b854abbadc0e7b2c24338b0e2a]
link mastermind.views.ProposalView to mastermind.views.ResultView--><path codeLine="61" d="M1184.86,249.258 C1186.07,267.799 1187.55,290.445 1188.8,309.662 " fill="none" id="mastermind.views.ProposalView-to-mastermind.views.ResultView" style="stroke: #A80036; stroke-width: 1.0; stroke-dasharray: 7.0,7.0;"/><polygon fill="#A80036" points="1189.15,314.984,1192.5548,305.7424,1188.824,309.9946,1184.5718,306.2639,1189.15,314.984" style="stroke: #A80036; stroke-width: 1.0;"/><!--MD5=[9bf144ed7f12c4b07ee427dbecf2f88b]
reverse link WithConsoleView to mastermind.views.ProposedCombinationView--><path codeLine="68" d="M1805.69,115.771 C1725.31,166.034 1581.47,255.975 1496.85,308.886 " fill="none" id="WithConsoleView-backto-mastermind.views.ProposedCombinationView" style="stroke: #A80036; stroke-width: 1.0;"/><polygon fill="none" points="1802.12,109.749,1822.79,105.081,1809.54,121.619,1802.12,109.749" style="stroke: #A80036; stroke-width: 1.0;"/><!--MD5=[62a8f057d5c4cd25e610b57addce22db]
link mastermind.views.ProposedCombinationView to mastermind.views.MessageView--><path codeLine="69" d="M1341.72,395.122 C1264.44,432.206 1152.32,486.009 1073.96,523.612 " fill="none" id="mastermind.views.ProposedCombinationView-to-mastermind.views.MessageView" style="stroke: #A80036; stroke-width: 1.0; stroke-dasharray: 7.0,7.0;"/><polygon fill="#A80036" points="1069.32,525.839,1079.165,525.5629,1073.8303,523.681,1075.7122,518.3464,1069.32,525.839" style="stroke: #A80036; stroke-width: 1.0;"/><!--MD5=[0210c9898c41663db3b46e4e8644a713]
link mastermind.views.ProposedCombinationView to ProposedCombination--><path codeLine="70" d="M1263.2131,394.0827 C1263.2131,394.0827 1259.03,394.764 1257.5,395 C1059.18,425.582 536.501,366.307 356.5,455 C323.363,471.328 296.529,504.151 279.201,530.15 " fill="none" id="mastermind.views.ProposedCombinationView-ProposedCombination" style="stroke: #A80036; stroke-width: 1.0;"/><polygon fill="#A80036" points="272.142,541.167,280.3652,535.7468,274.8393,536.957,273.6292,531.4311,272.142,541.167" style="stroke: #A80036; stroke-width: 1.0;"/><line style="stroke: #A80036; stroke-width: 1.0;" x1="274.8393" x2="279.155" y1="536.957" y2="530.2205"/><polygon fill="#A80036" points="1275.04,392.052,1268.4496,389.125,1263.2131,394.0827,1269.8034,397.0097,1275.04,392.052" style="stroke: #A80036; stroke-width: 1.0;"/><!--MD5=[3a12498e22f98d970310e61ba9a2b5b2]
link mastermind.views.ProposedCombinationView to mastermind.views.ColorView--><path codeLine="71" d="M1479.38,395.122 C1517.95,427.692 1571.78,473.157 1614.48,509.218 " fill="none" id="mastermind.views.ProposedCombinationView-to-mastermind.views.ColorView" style="stroke: #A80036; stroke-width: 1.0; stroke-dasharray: 7.0,7.0;"/><polygon fill="#A80036" points="1618.32,512.456,1614.0282,503.5914,1614.5012,509.2285,1608.8642,509.7015,1618.32,512.456" style="stroke: #A80036; stroke-width: 1.0;"/><!--MD5=[82abeb15351e6dc4d33f4552e257c7ee]
reverse link WithConsoleView to mastermind.views.ResultView--><path codeLine="77" d="M1786.7,112.677 C1784.62,113.471 1782.55,114.247 1780.5,115 C1695.8,146.152 1671.48,144.616 1586.5,175 C1549.33,188.288 1292.57,290.887 1257.5,309 C1251.83,311.929 1246.01,315.199 1240.3,318.585 " fill="none" id="WithConsoleView-backto-mastermind.views.ResultView" style="stroke: #A80036; stroke-width: 1.0;"/><polygon fill="none" points="1784.44,106.042,1805.61,105.158,1789.61,119.052,1784.44,106.042" style="stroke: #A80036; stroke-width: 1.0;"/><!--MD5=[316a03e671ab8070d9f3cd58e30047d7]
link mastermind.views.ResultView to Result--><path codeLine="78" d="M1131.8297,380.2938 C1131.8297,380.2938 1101.74,391.394 1087.5,395 C856.84,453.421 767.807,347.563 555.5,455 C521.802,472.053 493.492,504.797 474.959,530.581 " fill="none" id="mastermind.views.ResultView-Result" style="stroke: #A80036; stroke-width: 1.0;"/><polygon fill="#A80036" points="467.388,541.497,475.8041,536.3814,470.2376,537.3885,469.2305,531.822,467.388,541.497" style="stroke: #A80036; stroke-width: 1.0;"/><line style="stroke: #A80036; stroke-width: 1.0;" x1="470.2376" x2="474.7965" y1="537.3885" y2="530.815"/><polygon fill="#A80036" points="1142.95,375.784,1135.8866,374.3321,1131.8297,380.2938,1138.8931,381.7457,1142.95,375.784" style="stroke: #A80036; stroke-width: 1.0;"/><!--MD5=[3f914b3e8f203cde9ef4aaa6970ff031]
link mastermind.views.ResultView to mastermind.views.MessageView--><path codeLine="79" d="M1156.05,389.387 C1133.1,412.933 1102.13,444.727 1072.69,474.936 " fill="none" id="mastermind.views.ResultView-to-mastermind.views.MessageView" style="stroke: #A80036; stroke-width: 1.0; stroke-dasharray: 7.0,7.0;"/><polygon fill="#A80036" points="1069.11,478.612,1078.2537,474.9525,1072.5974,475.029,1072.5209,469.3726,1069.11,478.612" style="stroke: #A80036; stroke-width: 1.0;"/><!--MD5=[0770305248c0e1f7dd2ab974e321a500]
link mastermind.views.ResumeView to Game--><path codeLine="85" d="M810.1792,254.913 C810.1792,254.913 729.697,299.697 695.885,318.511 " fill="none" id="mastermind.views.ResumeView-Game" style="stroke: #A80036; stroke-width: 1.0;"/><polygon fill="#A80036" points="684.332,324.94,694.1414,324.059,688.7011,322.5088,690.2514,317.0685,684.332,324.94" style="stroke: #A80036; stroke-width: 1.0;"/><line style="stroke: #A80036; stroke-width: 1.0;" x1="688.7011" x2="695.6925" y1="322.5088" y2="318.619"/><polygon fill="#A80036" points="820.665,249.078,813.4771,248.5002,810.1792,254.913,817.3671,255.4908,820.665,249.078" style="stroke: #A80036; stroke-width: 1.0;"/><!--MD5=[0d419e494f17a3c5743a7242366f3b92]
link mastermind.views.ResumeView to YesNoDialog--><path codeLine="86" d="M820.447,220.505 C684.778,238.965 366.887,297.157 157.5,455 C128.365,476.963 104.5832,511.703 89.8549,536.771 " fill="none" id="mastermind.views.ResumeView-to-YesNoDialog" style="stroke: #A80036; stroke-width: 1.0; stroke-dasharray: 7.0,7.0;"/><polygon fill="#A80036" points="87.2109,541.333,95.1845,535.5518,89.718,537.007,88.2628,531.5405,87.2109,541.333" style="stroke: #A80036; stroke-width: 1.0;"/><!--MD5=[2344d815b5d16f10252d17b4c4c7824e]
link mastermind.views.ResumeView to mastermind.views.MessageView--><path codeLine="87" d="M870.009,249.01 C856.207,286.3 840.47,345.876 856.5,395 C864.643,419.955 877.916,444.297 892.859,466.458 " fill="none" id="mastermind.views.ResumeView-to-mastermind.views.MessageView" style="stroke: #A80036; stroke-width: 1.0; stroke-dasharray: 7.0,7.0;"/><polygon fill="#A80036" points="895.869,470.861,894.0919,461.1738,893.0472,466.7333,887.4877,465.6886,895.869,470.861" style="stroke: #A80036; stroke-width: 1.0;"/><!--MD5=[5718323612c6a7adcbdb1d8147e31e3e]
reverse link WithConsoleView to mastermind.views.SecretCombinationView--><path codeLine="93" d="M1790.34,111.937 C1787.04,113.037 1783.75,114.066 1780.5,115 C1614.49,162.728 1559.07,116.62 1396.5,175 C1335.74,196.819 1330,221.682 1271.5,249 C1205.94,279.619 1128.47,306.492 1070.25,324.958 " fill="none" id="WithConsoleView-backto-mastermind.views.SecretCombinationView" style="stroke: #A80036; stroke-width: 1.0;"/><polygon fill="none" points="1788,105.343,1809.18,105.005,1792.83,118.481,1788,105.343" style="stroke: #A80036; stroke-width: 1.0;"/><!--MD5=[ce8c4249f73fb0657477cb05d0776e2d]
link mastermind.views.SecretCombinationView to mastermind.views.MessageView--><path codeLine="94" d="M982.5,389.387 C982.5,406.317 982.5,427.512 982.5,449.316 " fill="none" id="mastermind.views.SecretCombinationView-to-mastermind.views.MessageView" style="stroke: #A80036; stroke-width: 1.0; stroke-dasharray: 7.0,7.0;"/><polygon fill="#A80036" points="982.5,454.57,986.5,445.57,982.5,449.57,978.5,445.57,982.5,454.57" style="stroke: #A80036; stroke-width: 1.0;"/><!--MD5=[99efe4bdc6b73a5f3884eee223b4addf]
reverse link WithConsoleView to mastermind.views.StartView--><path codeLine="99" d="M1791.85,111.771 C1788.05,112.97 1784.25,114.058 1780.5,115 C1482.8,189.73 1385.13,82.381 1092.5,175 C1086.69,176.84 1080.83,179.295 1075.15,182.062 " fill="none" id="WithConsoleView-backto-mastermind.views.StartView" style="stroke: #A80036; stroke-width: 1.0;"/><polygon fill="none" points="1789.51,105.174,1810.7,105.023,1794.23,118.354,1789.51,105.174" style="stroke: #A80036; stroke-width: 1.0;"/><!--MD5=[3981b5d2cded2f1aa4394844d68207ab]
link mastermind.views.StartView to Game--><path codeLine="100" d="M985.787,240.411 C979.758,243.552 973.56,246.514 967.5,249 C871.353,288.446 840.094,276.145 741.5,309 C729.024,313.157 715.892,318.044 703.32,322.987 " fill="none" id="mastermind.views.StartView-to-Game" style="stroke: #A80036; stroke-width: 1.0; stroke-dasharray: 7.0,7.0;"/><polygon fill="#A80036" points="698.345,324.956,708.1854,325.3629,702.9941,323.1158,705.2411,317.9244,698.345,324.956" style="stroke: #A80036; stroke-width: 1.0;"/><!--MD5=[db061c34674d61c574fa429272c8ff9e]
link mastermind.views.StartView to mastermind.views.MessageView--><path codeLine="101" d="M985.819,239.59 C941.775,266.018 880.592,303.409 877.5,309 C851.892,355.299 867.251,409.148 893.28,455.676 " fill="none" id="mastermind.views.StartView-to-mastermind.views.MessageView" style="stroke: #A80036; stroke-width: 1.0; stroke-dasharray: 7.0,7.0;"/><polygon fill="#A80036" points="895.831,460.155,894.8526,450.3549,893.3565,455.8103,887.901,454.3141,895.831,460.155" style="stroke: #A80036; stroke-width: 1.0;"/><!--MD5=[09176bfd7bef3ddf6b4099a05e05b081]
link mastermind.views.StartView to mastermind.views.SecretCombinationView--><path codeLine="102" d="M1020.2,242.604 C1013.36,262.263 1004.295,288.338 996.765,309.988 " fill="none" id="mastermind.views.StartView-to-mastermind.views.SecretCombinationView" style="stroke: #A80036; stroke-width: 1.0; stroke-dasharray: 7.0,7.0;"/><polygon fill="#A80036" points="995.085,314.819,1001.8205,307.6334,996.7282,310.0967,994.2649,305.0044,995.085,314.819" style="stroke: #A80036; stroke-width: 1.0;"/><!--MD5=[277f2fd8b77d28b75c217ae916dd62bb]
link mastermind.views.View to mastermind.views.ProposalView--><path codeLine="108" d="M1016.398,113.5475 C1016.398,113.5475 1079.48,150.56 1109.17,167.979 " fill="none" id="mastermind.views.View-mastermind.views.ProposalView" style="stroke: #A80036; stroke-width: 1.0;"/><polygon fill="#A80036" points="1120.75,174.774,1115.0077,166.7724,1116.4362,172.2459,1110.9627,173.6744,1120.75,174.774" style="stroke: #A80036; stroke-width: 1.0;"/><line style="stroke: #A80036; stroke-width: 1.0;" x1="1116.4362" x2="1109.54" y1="172.2459" y2="168.1955"/><polygon fill="#A80036" points="1006.045,107.48,1009.199,113.9648,1016.398,113.5475,1013.244,107.0627,1006.045,107.48" style="stroke: #A80036; stroke-width: 1.0;"/><!--MD5=[bf97da5fe657ae69f287f34e8a237ad2]
link mastermind.views.View to mastermind.views.StartView--><path codeLine="109" d="M983.2551,125.5713 C983.2551,125.5713 1000.12,156.066 1007.67,169.714 " fill="none" id="mastermind.views.View-mastermind.views.StartView" style="stroke: #A80036; stroke-width: 1.0;"/><polygon fill="#A80036" points="1014.03,181.212,1013.1767,171.4002,1011.6111,176.8361,1006.1752,175.2705,1014.03,181.212" style="stroke: #A80036; stroke-width: 1.0;"/><line style="stroke: #A80036; stroke-width: 1.0;" x1="1011.6111" x2="1007.7365" y1="176.8361" y2="169.836"/><polygon fill="#A80036" points="977.448,115.07,976.8511,122.2564,983.2551,125.5713,983.852,118.385,977.448,115.07" style="stroke: #A80036; stroke-width: 1.0;"/><!--MD5=[17998a52fa5fa063b5f7b00b7e9ee36d]
link mastermind.views.View to Game--><path codeLine="110" d="M898.4331,110.6639 C898.4331,110.6639 831.796,151.013 802.5,175 C750.146,217.866 698.16,276.72 666.926,314.313 " fill="none" id="mastermind.views.View-Game" style="stroke: #A80036; stroke-width: 1.0;"/><polygon fill="#A80036" points="658.303,324.788,667.1116,320.3825,661.4811,320.928,660.9356,315.2975,658.303,324.788" style="stroke: #A80036; stroke-width: 1.0;"/><line style="stroke: #A80036; stroke-width: 1.0;" x1="661.4811" x2="666.5655" y1="320.928" y2="314.751"/><polygon fill="#A80036" points="908.861,104.726,901.6677,104.219,898.4331,110.6639,905.6263,111.1709,908.861,104.726" style="stroke: #A80036; stroke-width: 1.0;"/><!--MD5=[d9d92d6dc97b208b24aa04d98e384545]
link mastermind.views.View to mastermind.views.ResumeView--><path codeLine="111" d="M932.0794,125.6045 C932.0794,125.6045 917.938,151.53 911.448,163.429 " fill="none" id="mastermind.views.View-mastermind.views.ResumeView" style="stroke: #A80036; stroke-width: 1.0;"/><polygon fill="#A80036" points="905.151,174.974,912.9719,168.9879,907.545,170.5844,905.9485,165.1575,905.151,174.974" style="stroke: #A80036; stroke-width: 1.0;"/><line style="stroke: #A80036; stroke-width: 1.0;" x1="907.545" x2="911.3755" y1="170.5844" y2="163.5615"/><polygon fill="#A80036" points="937.826,115.07,931.4412,118.4217,932.0794,125.6045,938.4642,122.2528,937.826,115.07" style="stroke: #A80036; stroke-width: 1.0;"/><!--MD5=[24d180d8f3cf0b8af3e339b5f720f4fe]
@startuml
class ColorCode as "mastermind.utils.\nColorCode"{}
class Error as "mastermind.models.\nError"{}
class Color as "mastermind.models.\nColor"{}
class ProposedCombination as "mastermind.models.\nProposedCombination"{}
class WithConsoleView as "mastermind.utils.\nWithConsoleView"{}
class Result as "mastermind.models.\nResult"{}
class Game as "mastermind.models.\nGame"{}
class YesNoDialog as "mastermind.utils.\nYesNoDialog"{}
class Console as "mastermind.utils.\nConsole"{}

class mastermind.views.ColorView{
- {static} INITIALS: char []
~ ColorView(Color)
~ {static} allInitials(): String
~ {static} getInstance(char): Color
~ write()
}
ColorCode <..down- mastermind.views.ColorView
mastermind.views.ColorView *-down-> Color
WithConsoleView <|-down- mastermind.views.ColorView

class mastermind.views.ErrorView{
- {static} MESSAGES: String []
~ ErrorView(Error error)
~ writeln()
}
mastermind.views.ErrorView *-down-> Error
mastermind.views.ErrorView ..> mastermind.views.ColorView
mastermind.views.ErrorView ..> Console
WithConsoleView <|-down- mastermind.views.ErrorView

enum mastermind.views.MessageView{
+ ATTEMPTS
+ SECRET_COMBINATION
+ RESUME
+ RESULT
+ PROPOSED_COMBINATION
+ TITLE
+ WINNER
+ LOOSER
- message: String
~ MessageView(String)
~ write()
~ writeln()
~ writeln(int)
~ writeln(int, int)
}

mastermind.views.MessageView ..> Console

class mastermind.views.ProposalView {
~ ProposalView(Game)
~ interact(): boolean
}
ProposedCombination <..down- mastermind.views.ProposalView
WithConsoleView <|-down- mastermind.views.ProposalView
mastermind.views.ProposalView *-down-> Game
mastermind.views.ProposalView ..> mastermind.views.MessageView
mastermind.views.ProposalView *-down-> mastermind.views.SecretCombinationView
mastermind.views.ProposalView ..> mastermind.views.ProposedCombinationView
mastermind.views.ProposalView ..> mastermind.views.ResultView

class mastermind.views.ProposedCombinationView{
~ ProposedCombinationView(ProposedCombination)
~ write()
~ read()
}
WithConsoleView <|-down- mastermind.views.ProposedCombinationView
mastermind.views.ProposedCombinationView ..> mastermind.views.MessageView
mastermind.views.ProposedCombinationView *-down-> ProposedCombination
mastermind.views.ProposedCombinationView ..> mastermind.views.ColorView

class mastermind.views.ResultView {
~ ResultView()
~ writeln()
}
WithConsoleView <|-down- mastermind.views.ResultView
mastermind.views.ResultView *-down-> Result
mastermind.views.ResultView..> mastermind.views.MessageView

class mastermind.views.ResumeView {
~ ResumeView()
~ interact(): boolean
}
mastermind.views.ResumeView *-down-> Game
YesNoDialog <..down- mastermind.views.ResumeView
mastermind.views.ResumeView..> mastermind.views.MessageView

class mastermind.views.SecretCombinationView {
~ SecretCombinationView()
~ writeln()
}
WithConsoleView <|-down- mastermind.views.SecretCombinationView
mastermind.views.SecretCombinationView..> mastermind.views.MessageView

class mastermind.views.StartView {
~ interact()
}
WithConsoleView <|-down- mastermind.views.StartView
mastermind.views.StartView ..> Game
mastermind.views.StartView..> mastermind.views.MessageView
mastermind.views.StartView..> mastermind.views.SecretCombinationView

class mastermind.views.View {
+ View(Game)
+ interact()
}
mastermind.views.View *-down-> mastermind.views.ProposalView
mastermind.views.View *-down-> mastermind.views.StartView
mastermind.views.View *-down-> Game
mastermind.views.View *-down-> mastermind.views.ResumeView
@enduml

PlantUML version 1.2020.20beta4(Unknown compile time)
(GPL source distribution)
Java Runtime: Java(TM) SE Runtime Environment
JVM: Java HotSpot(TM) 64-Bit Server VM
Default Encoding: UTF-8
Language: en
Country: US
--></g></svg>