<?xml version="1.0" encoding="UTF-8" standalone="no"?><svg xmlns="http://www.w3.org/2000/svg" xmlns:xlink="http://www.w3.org/1999/xlink" contentScriptType="application/ecmascript" contentStyleType="text/css" height="246px" preserveAspectRatio="none" style="width:277px;height:246px;" version="1.1" viewBox="0 0 277 246" width="277px" zoomAndPan="magnify"><defs><filter height="300%" id="f195p23ljksbc9" width="300%" x="-1" y="-1"><feGaussianBlur result="blurOut" stdDeviation="2.0"/><feColorMatrix in="blurOut" result="blurOut2" type="matrix" values="0 0 0 0 0 0 0 0 0 0 0 0 0 0 0 0 0 0 .4 0"/><feOffset dx="4.0" dy="4.0" in="blurOut2" result="blurOut3"/><feBlend in="SourceGraphic" in2="blurOut3" mode="normal"/></filter></defs><g><!--MD5=[7283a9eed84464550b6d5ebf39c68b05]
class Mastermind--><rect codeLine="1" fill="#FEFECE" filter="url(#f195p23ljksbc9)" height="112.0234" id="Mastermind" style="stroke: #A80036; stroke-width: 1.5;" width="176" x="45" y="7"/><ellipse cx="60" cy="23" fill="#ADD1B2" rx="11" ry="11" style="stroke: #A80036; stroke-width: 1.0;"/><path d="M62.3438,18.6719 C61.4063,18.2344 60.8125,18.0938 59.9375,18.0938 C57.3125,18.0938 55.3125,20.1719 55.3125,22.8906 L55.3125,24.0156 C55.3125,26.5938 57.4219,28.4844 60.3125,28.4844 C61.5313,28.4844 62.6875,28.1875 63.4375,27.6406 C64.0156,27.2344 64.3438,26.7813 64.3438,26.3906 C64.3438,25.9375 63.9531,25.5469 63.4844,25.5469 C63.2656,25.5469 63.0625,25.625 62.875,25.8125 C62.4219,26.2969 62.4219,26.2969 62.2344,26.3906 C61.8125,26.6563 61.125,26.7813 60.3594,26.7813 C58.3125,26.7813 57.0156,25.6875 57.0156,23.9844 L57.0156,22.8906 C57.0156,21.1094 58.2656,19.7969 60,19.7969 C60.5781,19.7969 61.1875,19.9531 61.6563,20.2031 C62.1406,20.4844 62.3125,20.7031 62.4063,21.1094 C62.4688,21.5156 62.5,21.6406 62.6406,21.7656 C62.7813,21.9063 63.0156,22.0156 63.2344,22.0156 C63.5,22.0156 63.7656,21.875 63.9375,21.6563 C64.0469,21.5 64.0781,21.3125 64.0781,20.8906 L64.0781,19.4688 C64.0781,19.0313 64.0625,18.9063 63.9688,18.75 C63.8125,18.4844 63.5313,18.3438 63.2344,18.3438 C62.9375,18.3438 62.7344,18.4375 62.5156,18.75 L62.3438,18.6719 Z "/><text fill="#000000" font-family="sans-serif" font-size="12" lengthAdjust="spacingAndGlyphs" textLength="144" x="74" y="27.1543">mastermind.Mastermind</text><line style="stroke: #A80036; stroke-width: 1.5;" x1="46" x2="220" y1="39" y2="39"/><rect fill="none" height="6" style="stroke: #C82930; stroke-width: 1.0;" width="6" x="53" y="47"/><text fill="#000000" font-family="sans-serif" font-size="11" lengthAdjust="spacingAndGlyphs" textLength="75" x="65" y="53.2104">game: Game</text><rect fill="none" height="6" style="stroke: #C82930; stroke-width: 1.0;" width="6" x="53" y="59.8047"/><text fill="#000000" font-family="sans-serif" font-size="11" lengthAdjust="spacingAndGlyphs" textLength="62" x="65" y="66.0151">view: View</text><line style="stroke: #A80036; stroke-width: 1.5;" x1="46" x2="220" y1="72.6094" y2="72.6094"/><rect fill="#F24D5C" height="6" style="stroke: #C82930; stroke-width: 1.0;" width="6" x="53" y="80.6094"/><text fill="#000000" font-family="sans-serif" font-size="11" lengthAdjust="spacingAndGlyphs" textLength="74" x="65" y="86.8198">Mastermind()</text><ellipse cx="56" cy="96.4141" fill="#84BE84" rx="3" ry="3" style="stroke: #038048; stroke-width: 1.0;"/><text fill="#000000" font-family="sans-serif" font-size="11" lengthAdjust="spacingAndGlyphs" text-decoration="underline" textLength="108" x="65" y="99.6245">main(String[]): void</text><rect fill="#F24D5C" height="6" style="stroke: #C82930; stroke-width: 1.0;" width="6" x="53" y="106.2188"/><text fill="#000000" font-family="sans-serif" font-size="11" lengthAdjust="spacingAndGlyphs" textLength="63" x="65" y="112.4292">play(): void</text><!--MD5=[c045e12321b83266d36d22b9096c24ea]
class View--><rect codeLine="9" fill="#FEFECE" filter="url(#f195p23ljksbc9)" height="53.9375" id="View" style="stroke: #A80036; stroke-width: 1.5;" width="106" x="7" y="179"/><ellipse cx="22" cy="197.9688" fill="#ADD1B2" rx="11" ry="11" style="stroke: #A80036; stroke-width: 1.0;"/><path d="M24.3438,193.6406 C23.4063,193.2031 22.8125,193.0625 21.9375,193.0625 C19.3125,193.0625 17.3125,195.1406 17.3125,197.8594 L17.3125,198.9844 C17.3125,201.5625 19.4219,203.4531 22.3125,203.4531 C23.5313,203.4531 24.6875,203.1563 25.4375,202.6094 C26.0156,202.2031 26.3438,201.75 26.3438,201.3594 C26.3438,200.9063 25.9531,200.5156 25.4844,200.5156 C25.2656,200.5156 25.0625,200.5938 24.875,200.7813 C24.4219,201.2656 24.4219,201.2656 24.2344,201.3594 C23.8125,201.625 23.125,201.75 22.3594,201.75 C20.3125,201.75 19.0156,200.6563 19.0156,198.9531 L19.0156,197.8594 C19.0156,196.0781 20.2656,194.7656 22,194.7656 C22.5781,194.7656 23.1875,194.9219 23.6563,195.1719 C24.1406,195.4531 24.3125,195.6719 24.4063,196.0781 C24.4688,196.4844 24.5,196.6094 24.6406,196.7344 C24.7813,196.875 25.0156,196.9844 25.2344,196.9844 C25.5,196.9844 25.7656,196.8438 25.9375,196.625 C26.0469,196.4688 26.0781,196.2813 26.0781,195.8594 L26.0781,194.4375 C26.0781,194 26.0625,193.875 25.9688,193.7188 C25.8125,193.4531 25.5313,193.3125 25.2344,193.3125 C24.9375,193.3125 24.7344,193.4063 24.5156,193.7188 L24.3438,193.6406 Z "/><text fill="#000000" font-family="sans-serif" font-size="12" lengthAdjust="spacingAndGlyphs" textLength="74" x="36" y="195.1387">mastermind.</text><text fill="#000000" font-family="sans-serif" font-size="12" lengthAdjust="spacingAndGlyphs" textLength="67" x="39.5" y="209.1074">views.View</text><line style="stroke: #A80036; stroke-width: 1.5;" x1="8" x2="112" y1="216.9375" y2="216.9375"/><line style="stroke: #A80036; stroke-width: 1.5;" x1="8" x2="112" y1="224.9375" y2="224.9375"/><!--MD5=[b6dcce5e5ef3c84b0b048d11301373dd]
class Game--><rect codeLine="10" fill="#FEFECE" filter="url(#f195p23ljksbc9)" height="53.9375" id="Game" style="stroke: #A80036; stroke-width: 1.5;" width="115" x="148.5" y="179"/><ellipse cx="163.5" cy="197.9688" fill="#ADD1B2" rx="11" ry="11" style="stroke: #A80036; stroke-width: 1.0;"/><path d="M165.8438,193.6406 C164.9063,193.2031 164.3125,193.0625 163.4375,193.0625 C160.8125,193.0625 158.8125,195.1406 158.8125,197.8594 L158.8125,198.9844 C158.8125,201.5625 160.9219,203.4531 163.8125,203.4531 C165.0313,203.4531 166.1875,203.1563 166.9375,202.6094 C167.5156,202.2031 167.8438,201.75 167.8438,201.3594 C167.8438,200.9063 167.4531,200.5156 166.9844,200.5156 C166.7656,200.5156 166.5625,200.5938 166.375,200.7813 C165.9219,201.2656 165.9219,201.2656 165.7344,201.3594 C165.3125,201.625 164.625,201.75 163.8594,201.75 C161.8125,201.75 160.5156,200.6563 160.5156,198.9531 L160.5156,197.8594 C160.5156,196.0781 161.7656,194.7656 163.5,194.7656 C164.0781,194.7656 164.6875,194.9219 165.1563,195.1719 C165.6406,195.4531 165.8125,195.6719 165.9063,196.0781 C165.9688,196.4844 166,196.6094 166.1406,196.7344 C166.2813,196.875 166.5156,196.9844 166.7344,196.9844 C167,196.9844 167.2656,196.8438 167.4375,196.625 C167.5469,196.4688 167.5781,196.2813 167.5781,195.8594 L167.5781,194.4375 C167.5781,194 167.5625,193.875 167.4688,193.7188 C167.3125,193.4531 167.0313,193.3125 166.7344,193.3125 C166.4375,193.3125 166.2344,193.4063 166.0156,193.7188 L165.8438,193.6406 Z "/><text fill="#000000" font-family="sans-serif" font-size="12" lengthAdjust="spacingAndGlyphs" textLength="74" x="182" y="195.1387">mastermind.</text><text fill="#000000" font-family="sans-serif" font-size="12" lengthAdjust="spacingAndGlyphs" textLength="83" x="177.5" y="209.1074">models.Game</text><line style="stroke: #A80036; stroke-width: 1.5;" x1="149.5" x2="262.5" y1="216.9375" y2="216.9375"/><line style="stroke: #A80036; stroke-width: 1.5;" x1="149.5" x2="262.5" y1="224.9375" y2="224.9375"/><!--MD5=[e0d6a58d416f5dd7f306d819ce9731e8]
link Mastermind to View--><path codeLine="11" d="M98.8407,129.9784 C98.8407,129.9784 85.4356,155.8709 79.6772,166.9933 " fill="none" id="Mastermind-View" style="stroke: #A80036; stroke-width: 1.0;"/><polygon fill="#A80036" points="73.5217,178.8828,81.2118,172.7295,75.8205,174.4426,74.1074,169.0514,73.5217,178.8828" style="stroke: #A80036; stroke-width: 1.0;"/><line style="stroke: #A80036; stroke-width: 1.0;" x1="75.8205" x2="79.4987" y1="174.4426" y2="167.3383"/><polygon fill="#A80036" points="104.358,119.322,98.0472,122.8111,98.8407,129.9784,105.1515,126.4893,104.358,119.322" style="stroke: #A80036; stroke-width: 1.0;"/><!--MD5=[213c4a734ac0e7e97a7308e8138ed0fa]
link Mastermind to Game--><path codeLine="12" d="M167.1589,129.9786 C167.1589,129.9786 180.564,155.8709 186.323,166.9933 " fill="none" id="Mastermind-Game" style="stroke: #A80036; stroke-width: 1.0;"/><polygon fill="#A80036" points="192.478,178.8828,191.8922,169.0514,190.1791,174.4426,184.7879,172.7296,192.478,178.8828" style="stroke: #A80036; stroke-width: 1.0;"/><line style="stroke: #A80036; stroke-width: 1.0;" x1="190.1791" x2="186.5015" y1="174.4426" y2="167.3383"/><polygon fill="#A80036" points="161.642,119.322,160.8482,126.4893,167.1589,129.9786,167.9527,122.8114,161.642,119.322" style="stroke: #A80036; stroke-width: 1.0;"/><!--MD5=[6b76e1a6fe011fa460f366b4e0555e82]
@startuml
class  Mastermind as "mastermind.Mastermind"{
- game: Game
- view: View
- Mastermind()
+ {static} main(String[]): void
- play(): void
}

class View as "mastermind.\nviews.View"{}
class Game as "mastermind.\nmodels.Game"{}
Mastermind *-down-> View
Mastermind *-down-> Game
@enduml

PlantUML version 1.2020.20beta4(Unknown compile time)
(GPL source distribution)
Java Runtime: Java(TM) SE Runtime Environment
JVM: Java HotSpot(TM) 64-Bit Server VM
Default Encoding: UTF-8
Language: en
Country: US
--></g></svg>