<?xml version="1.0" encoding="UTF-8" standalone="no"?><svg xmlns="http://www.w3.org/2000/svg" xmlns:xlink="http://www.w3.org/1999/xlink" contentScriptType="application/ecmascript" contentStyleType="text/css" height="795px" preserveAspectRatio="none" style="width:686px;height:795px;" version="1.1" viewBox="0 0 686 795" width="686px" zoomAndPan="magnify"><defs><filter height="300%" id="f1rqgh73mpblnp" width="300%" x="-1" y="-1"><feGaussianBlur result="blurOut" stdDeviation="2.0"/><feColorMatrix in="blurOut" result="blurOut2" type="matrix" values="0 0 0 0 0 0 0 0 0 0 0 0 0 0 0 0 0 0 .4 0"/><feOffset dx="4.0" dy="4.0" in="blurOut2" result="blurOut3"/><feBlend in="SourceGraphic" in2="blurOut3" mode="normal"/></filter></defs><g><!--MD5=[8e0b9655f0966c29230933410523611d]
cluster mastermind.models--><polygon fill="#FFFFFF" filter="url(#f1rqgh73mpblnp)" points="38.6113,6,205.6113,6,212.6113,28.2969,561.6113,28.2969,561.6113,788,38.6113,788,38.6113,6" style="stroke: #000000; stroke-width: 1.5;"/><line style="stroke: #000000; stroke-width: 1.5;" x1="38.6113" x2="212.6113" y1="28.2969" y2="28.2969"/><text fill="#000000" font-family="sans-serif" font-size="14" font-weight="bold" lengthAdjust="spacingAndGlyphs" textLength="161" x="42.6113" y="20.9951">mastermind.models</text><!--MD5=[7db3c59d38ae5b37b484eb2df9368145]
cluster java.util--><polygon fill="#FFFFFF" filter="url(#f1rqgh73mpblnp)" points="585.6113,293,658.6113,293,665.6113,315.2969,669.6113,315.2969,669.6113,392,585.6113,392,585.6113,293" style="stroke: #000000; stroke-width: 1.5;"/><line style="stroke: #000000; stroke-width: 1.5;" x1="585.6113" x2="665.6113" y1="315.2969" y2="315.2969"/><text fill="#000000" font-family="sans-serif" font-size="14" font-weight="bold" lengthAdjust="spacingAndGlyphs" textLength="67" x="589.6113" y="307.9951">java.util</text><!--MD5=[d5dd2c70e89db13b97018ba79382d349]
class mastermind.models.Color--><rect codeLine="1" fill="#FEFECE" filter="url(#f1rqgh73mpblnp)" height="137.6328" id="mastermind.models.Color" style="stroke: #A80036; stroke-width: 1.5;" width="110" x="275.6113" y="634"/><ellipse cx="311.3113" cy="650" fill="#EB937F" rx="11" ry="11" style="stroke: #A80036; stroke-width: 1.0;"/><path d="M310.1082,650.875 L311.5613,650.875 L311.5613,650.9844 C311.5613,651.3906 311.5926,651.5469 311.6707,651.7031 C311.8269,651.9531 312.1082,652.1094 312.4051,652.1094 C312.6551,652.1094 312.9207,651.9688 313.0769,651.75 C313.2019,651.5938 313.2332,651.4375 313.2332,650.9844 L313.2332,649.0625 C313.2332,648.9063 313.2332,648.8594 313.2176,648.7031 C313.1551,648.2344 312.8426,647.9219 312.3894,647.9219 C312.1394,647.9219 311.8738,648.0625 311.7019,648.2813 C311.5926,648.4531 311.5613,648.6094 311.5613,649.0625 L311.5613,649.1875 L310.1082,649.1875 L310.1082,646.7813 L314.0926,646.7813 L314.0926,647.6406 C314.0926,648.0469 314.1238,648.2188 314.2019,648.375 C314.3738,648.625 314.6551,648.7813 314.9363,648.7813 C315.2019,648.7813 315.4676,648.6406 315.6394,648.4219 C315.7488,648.25 315.7801,648.1094 315.7801,647.6406 L315.7801,645.0938 L308.1551,645.0938 C307.7176,645.0938 307.5926,645.1094 307.4363,645.2031 C307.1863,645.3594 307.0301,645.6563 307.0301,645.9375 C307.0301,646.2188 307.1707,646.4688 307.3894,646.6406 C307.5457,646.75 307.7332,646.7813 308.1551,646.7813 L308.4051,646.7813 L308.4051,653.2969 L308.1551,653.2969 C307.7488,653.2969 307.5926,653.3125 307.4363,653.4219 C307.1863,653.5938 307.0301,653.8594 307.0301,654.1563 C307.0301,654.4219 307.1707,654.6719 307.3894,654.8281 C307.5301,654.9531 307.7644,655 308.1551,655 L316.1551,655 L316.1551,652.4219 C316.1551,651.9844 316.1238,651.8438 316.0457,651.6875 C315.8738,651.4375 315.5926,651.2813 315.3113,651.2813 C315.0457,651.2813 314.7801,651.3906 314.6082,651.6406 C314.4988,651.7969 314.4676,651.9375 314.4676,652.4219 L314.4676,653.2969 L310.1082,653.2969 L310.1082,650.875 Z "/><text fill="#000000" font-family="sans-serif" font-size="12" lengthAdjust="spacingAndGlyphs" textLength="32" x="329.9113" y="654.1543">Color</text><line style="stroke: #A80036; stroke-width: 1.5;" x1="276.6113" x2="384.6113" y1="666" y2="666"/><ellipse cx="286.6113" cy="677" fill="none" rx="3" ry="3" style="stroke: #038048; stroke-width: 1.0;"/><text fill="#000000" font-family="sans-serif" font-size="11" lengthAdjust="spacingAndGlyphs" text-decoration="underline" textLength="59" x="295.6113" y="680.2104">RED: Color</text><ellipse cx="286.6113" cy="689.8047" fill="none" rx="3" ry="3" style="stroke: #038048; stroke-width: 1.0;"/><text fill="#000000" font-family="sans-serif" font-size="11" lengthAdjust="spacingAndGlyphs" text-decoration="underline" textLength="65" x="295.6113" y="693.0151">BLUE: Color</text><ellipse cx="286.6113" cy="702.6094" fill="none" rx="3" ry="3" style="stroke: #038048; stroke-width: 1.0;"/><text fill="#000000" font-family="sans-serif" font-size="11" lengthAdjust="spacingAndGlyphs" text-decoration="underline" textLength="82" x="295.6113" y="705.8198">YELLOW: Color</text><ellipse cx="286.6113" cy="715.4141" fill="none" rx="3" ry="3" style="stroke: #038048; stroke-width: 1.0;"/><text fill="#000000" font-family="sans-serif" font-size="11" lengthAdjust="spacingAndGlyphs" text-decoration="underline" textLength="74" x="295.6113" y="718.6245">GREEN: Color</text><ellipse cx="286.6113" cy="728.2188" fill="none" rx="3" ry="3" style="stroke: #038048; stroke-width: 1.0;"/><text fill="#000000" font-family="sans-serif" font-size="11" lengthAdjust="spacingAndGlyphs" text-decoration="underline" textLength="84" x="295.6113" y="731.4292">ORANGE: Color</text><ellipse cx="286.6113" cy="741.0234" fill="none" rx="3" ry="3" style="stroke: #038048; stroke-width: 1.0;"/><text fill="#000000" font-family="sans-serif" font-size="11" lengthAdjust="spacingAndGlyphs" text-decoration="underline" textLength="76" x="295.6113" y="744.2339">PURPLE: Color</text><line style="stroke: #A80036; stroke-width: 1.5;" x1="276.6113" x2="384.6113" y1="750.8281" y2="750.8281"/><polygon fill="#4177AF" points="286.6113,757.8281,282.6113,763.8281,290.6113,763.8281" style="stroke: #1963A0; stroke-width: 1.0;"/><text fill="#000000" font-family="sans-serif" font-size="11" lengthAdjust="spacingAndGlyphs" text-decoration="underline" textLength="65" x="295.6113" y="765.0386">length(): int</text><!--MD5=[9c5442b9d48adcb788f4fd60193e9fcb]
class mastermind.models.Combination--><rect codeLine="11" fill="#FEFECE" filter="url(#f1rqgh73mpblnp)" height="99.2188" id="mastermind.models.Combination" style="stroke: #A80036; stroke-width: 1.5;" width="132" x="54.6113" y="98.5"/><ellipse cx="80.4113" cy="114.5" fill="#A9DCDF" rx="11" ry="11" style="stroke: #A80036; stroke-width: 1.0;"/><path d="M82.4894,116.3125 L82.8801,117.2969 L82.4894,117.2969 C82.0363,117.2969 81.9269,117.3125 81.7707,117.4219 C81.5207,117.5781 81.3644,117.8594 81.3644,118.1563 C81.3644,118.4219 81.5051,118.6719 81.7238,118.8281 C81.8644,118.9531 82.0676,119 82.4894,119 L84.8488,119 C85.2082,119 85.4269,118.9688 85.5676,118.875 C85.8176,118.7344 85.9738,118.4375 85.9738,118.1563 C85.9738,117.875 85.8332,117.625 85.6144,117.4688 C85.4426,117.3281 85.2863,117.2969 84.8176,117.2969 L81.4269,109.0938 L77.7551,109.0938 C77.3019,109.0938 77.1769,109.1094 77.0207,109.2031 C76.7707,109.375 76.6144,109.6563 76.6144,109.9375 C76.6144,110.2188 76.7551,110.4688 76.9738,110.6406 C77.1457,110.75 77.3176,110.7813 77.7551,110.7813 L78.8332,110.7813 L76.1926,117.2969 C75.7707,117.2969 75.6144,117.3125 75.4582,117.4219 C75.2082,117.5781 75.0519,117.8594 75.0519,118.1563 C75.0519,118.7188 75.4269,119 76.1769,119 L78.4426,119 C78.8019,119 79.0207,118.9688 79.1457,118.875 C79.4113,118.7344 79.5519,118.4375 79.5519,118.1563 C79.5519,117.875 79.4269,117.625 79.2082,117.4531 C79.0363,117.3281 78.8957,117.2969 78.4426,117.2969 L78.0519,117.2969 L78.4426,116.3125 L82.4894,116.3125 Z M81.7863,114.6094 L79.1144,114.6094 L80.4582,111.3438 L81.7863,114.6094 Z "/><text fill="#000000" font-family="sans-serif" font-size="12" font-style="italic" lengthAdjust="spacingAndGlyphs" textLength="76" x="96.8113" y="118.6543">Combination</text><line style="stroke: #A80036; stroke-width: 1.5;" x1="55.6113" x2="185.6113" y1="130.5" y2="130.5"/><rect fill="none" height="6" style="stroke: #C82930; stroke-width: 1.0;" width="6" x="62.6113" y="138.5"/><text fill="#000000" font-family="sans-serif" font-size="11" lengthAdjust="spacingAndGlyphs" text-decoration="underline" textLength="59" x="74.6113" y="144.7104">WIDTH: int</text><polygon fill="none" points="65.6113,149.3047,69.6113,153.3047,65.6113,157.3047,61.6113,153.3047" style="stroke: #B38D22; stroke-width: 1.0;"/><text fill="#000000" font-family="sans-serif" font-size="11" lengthAdjust="spacingAndGlyphs" textLength="106" x="74.6113" y="157.5151">colors: List&lt;Color&gt;</text><line style="stroke: #A80036; stroke-width: 1.5;" x1="55.6113" x2="185.6113" y1="164.1094" y2="164.1094"/><polygon fill="#FFFF44" points="65.6113,170.1094,69.6113,174.1094,65.6113,178.1094,61.6113,174.1094" style="stroke: #B38D22; stroke-width: 1.0;"/><text fill="#000000" font-family="sans-serif" font-size="11" lengthAdjust="spacingAndGlyphs" textLength="79" x="74.6113" y="178.3198">Combination()</text><ellipse cx="65.6113" cy="187.9141" fill="#84BE84" rx="3" ry="3" style="stroke: #038048; stroke-width: 1.0;"/><text fill="#000000" font-family="sans-serif" font-size="11" lengthAdjust="spacingAndGlyphs" text-decoration="underline" textLength="80" x="74.6113" y="191.1245">getWidth(): int</text><!--MD5=[3bbd847d2bed55d759f67ce45ba3cf97]
class mastermind.models.Error--><rect codeLine="20" fill="#FEFECE" filter="url(#f1rqgh73mpblnp)" height="86.4141" id="mastermind.models.Error" style="stroke: #A80036; stroke-width: 1.5;" width="185" x="55.1113" y="660"/><ellipse cx="128.3613" cy="676" fill="#EB937F" rx="11" ry="11" style="stroke: #A80036; stroke-width: 1.0;"/><path d="M127.1582,676.875 L128.6113,676.875 L128.6113,676.9844 C128.6113,677.3906 128.6426,677.5469 128.7207,677.7031 C128.8769,677.9531 129.1582,678.1094 129.4551,678.1094 C129.7051,678.1094 129.9707,677.9688 130.1269,677.75 C130.2519,677.5938 130.2832,677.4375 130.2832,676.9844 L130.2832,675.0625 C130.2832,674.9063 130.2832,674.8594 130.2676,674.7031 C130.2051,674.2344 129.8926,673.9219 129.4394,673.9219 C129.1894,673.9219 128.9238,674.0625 128.7519,674.2813 C128.6426,674.4531 128.6113,674.6094 128.6113,675.0625 L128.6113,675.1875 L127.1582,675.1875 L127.1582,672.7813 L131.1426,672.7813 L131.1426,673.6406 C131.1426,674.0469 131.1738,674.2188 131.2519,674.375 C131.4238,674.625 131.7051,674.7813 131.9863,674.7813 C132.2519,674.7813 132.5176,674.6406 132.6894,674.4219 C132.7988,674.25 132.8301,674.1094 132.8301,673.6406 L132.8301,671.0938 L125.2051,671.0938 C124.7676,671.0938 124.6426,671.1094 124.4863,671.2031 C124.2363,671.3594 124.0801,671.6563 124.0801,671.9375 C124.0801,672.2188 124.2207,672.4688 124.4394,672.6406 C124.5957,672.75 124.7832,672.7813 125.2051,672.7813 L125.4551,672.7813 L125.4551,679.2969 L125.2051,679.2969 C124.7988,679.2969 124.6426,679.3125 124.4863,679.4219 C124.2363,679.5938 124.0801,679.8594 124.0801,680.1563 C124.0801,680.4219 124.2207,680.6719 124.4394,680.8281 C124.5801,680.9531 124.8144,681 125.2051,681 L133.2051,681 L133.2051,678.4219 C133.2051,677.9844 133.1738,677.8438 133.0957,677.6875 C132.9238,677.4375 132.6426,677.2813 132.3613,677.2813 C132.0957,677.2813 131.8301,677.3906 131.6582,677.6406 C131.5488,677.7969 131.5176,677.9375 131.5176,678.4219 L131.5176,679.2969 L127.1582,679.2969 L127.1582,676.875 Z "/><text fill="#000000" font-family="sans-serif" font-size="12" lengthAdjust="spacingAndGlyphs" textLength="30" x="148.8613" y="680.1543">Error</text><line style="stroke: #A80036; stroke-width: 1.5;" x1="56.1113" x2="239.1113" y1="692" y2="692"/><ellipse cx="66.1113" cy="703" fill="none" rx="3" ry="3" style="stroke: #038048; stroke-width: 1.0;"/><text fill="#000000" font-family="sans-serif" font-size="11" lengthAdjust="spacingAndGlyphs" text-decoration="underline" textLength="104" x="75.1113" y="706.2104">DUPLICATED: Error</text><ellipse cx="66.1113" cy="715.8047" fill="none" rx="3" ry="3" style="stroke: #038048; stroke-width: 1.0;"/><text fill="#000000" font-family="sans-serif" font-size="11" lengthAdjust="spacingAndGlyphs" text-decoration="underline" textLength="159" x="75.1113" y="719.0151">WRONG_CHARACTERS: Error</text><ellipse cx="66.1113" cy="728.6094" fill="none" rx="3" ry="3" style="stroke: #038048; stroke-width: 1.0;"/><text fill="#000000" font-family="sans-serif" font-size="11" lengthAdjust="spacingAndGlyphs" text-decoration="underline" textLength="128" x="75.1113" y="731.8198">WRONG_LENGTH: Error</text><line style="stroke: #A80036; stroke-width: 1.5;" x1="56.1113" x2="239.1113" y1="738.4141" y2="738.4141"/><!--MD5=[5e669b60aaac1a014a32b452096260f0]
class mastermind.models.Game--><rect codeLine="26" fill="#FEFECE" filter="url(#f1rqgh73mpblnp)" height="214.4609" id="mastermind.models.Game" style="stroke: #A80036; stroke-width: 1.5;" width="323" x="222.1113" y="41"/><ellipse cx="361.8613" cy="57" fill="#ADD1B2" rx="11" ry="11" style="stroke: #A80036; stroke-width: 1.0;"/><path d="M364.2051,52.6719 C363.2676,52.2344 362.6738,52.0938 361.7988,52.0938 C359.1738,52.0938 357.1738,54.1719 357.1738,56.8906 L357.1738,58.0156 C357.1738,60.5938 359.2832,62.4844 362.1738,62.4844 C363.3926,62.4844 364.5488,62.1875 365.2988,61.6406 C365.8769,61.2344 366.2051,60.7813 366.2051,60.3906 C366.2051,59.9375 365.8144,59.5469 365.3457,59.5469 C365.1269,59.5469 364.9238,59.625 364.7363,59.8125 C364.2832,60.2969 364.2832,60.2969 364.0957,60.3906 C363.6738,60.6563 362.9863,60.7813 362.2207,60.7813 C360.1738,60.7813 358.8769,59.6875 358.8769,57.9844 L358.8769,56.8906 C358.8769,55.1094 360.1269,53.7969 361.8613,53.7969 C362.4394,53.7969 363.0488,53.9531 363.5176,54.2031 C364.0019,54.4844 364.1738,54.7031 364.2676,55.1094 C364.3301,55.5156 364.3613,55.6406 364.5019,55.7656 C364.6426,55.9063 364.8769,56.0156 365.0957,56.0156 C365.3613,56.0156 365.6269,55.875 365.7988,55.6563 C365.9082,55.5 365.9394,55.3125 365.9394,54.8906 L365.9394,53.4688 C365.9394,53.0313 365.9238,52.9063 365.8301,52.75 C365.6738,52.4844 365.3926,52.3438 365.0957,52.3438 C364.7988,52.3438 364.5957,52.4375 364.3769,52.75 L364.2051,52.6719 Z "/><text fill="#000000" font-family="sans-serif" font-size="12" lengthAdjust="spacingAndGlyphs" textLength="35" x="382.3613" y="61.1543">Game</text><line style="stroke: #A80036; stroke-width: 1.5;" x1="223.1113" x2="544.1113" y1="73" y2="73"/><rect fill="none" height="6" style="stroke: #C82930; stroke-width: 1.0;" width="6" x="230.1113" y="81"/><text fill="#000000" font-family="sans-serif" font-size="11" lengthAdjust="spacingAndGlyphs" text-decoration="underline" textLength="84" x="242.1113" y="87.2104">MAX_LONG: int</text><rect fill="none" height="6" style="stroke: #C82930; stroke-width: 1.0;" width="6" x="230.1113" y="93.8047"/><text fill="#000000" font-family="sans-serif" font-size="11" lengthAdjust="spacingAndGlyphs" textLength="223" x="242.1113" y="100.0151">secretCombination: SecretCombination</text><rect fill="none" height="6" style="stroke: #C82930; stroke-width: 1.0;" width="6" x="230.1113" y="106.6094"/><text fill="#000000" font-family="sans-serif" font-size="11" lengthAdjust="spacingAndGlyphs" textLength="297" x="242.1113" y="112.8198">proposedCombinations: List&lt;ProposedCombination&gt;</text><rect fill="none" height="6" style="stroke: #C82930; stroke-width: 1.0;" width="6" x="230.1113" y="119.4141"/><text fill="#000000" font-family="sans-serif" font-size="11" lengthAdjust="spacingAndGlyphs" textLength="117" x="242.1113" y="125.6245">results: List&lt;Result&gt;</text><rect fill="none" height="6" style="stroke: #C82930; stroke-width: 1.0;" width="6" x="230.1113" y="132.2188"/><text fill="#000000" font-family="sans-serif" font-size="11" lengthAdjust="spacingAndGlyphs" textLength="72" x="242.1113" y="138.4292">attempts: int</text><line style="stroke: #A80036; stroke-width: 1.5;" x1="223.1113" x2="544.1113" y1="145.0234" y2="145.0234"/><ellipse cx="233.1113" cy="156.0234" fill="#84BE84" rx="3" ry="3" style="stroke: #038048; stroke-width: 1.0;"/><text fill="#000000" font-family="sans-serif" font-size="11" lengthAdjust="spacingAndGlyphs" textLength="43" x="242.1113" y="159.2339">Game()</text><ellipse cx="233.1113" cy="168.8281" fill="#84BE84" rx="3" ry="3" style="stroke: #038048; stroke-width: 1.0;"/><text fill="#000000" font-family="sans-serif" font-size="11" lengthAdjust="spacingAndGlyphs" textLength="36" x="242.1113" y="172.0386">clear()</text><ellipse cx="233.1113" cy="181.6328" fill="#84BE84" rx="3" ry="3" style="stroke: #038048; stroke-width: 1.0;"/><text fill="#000000" font-family="sans-serif" font-size="11" lengthAdjust="spacingAndGlyphs" textLength="268" x="242.1113" y="184.8433">addProposeCombination(ProposedCombination)</text><ellipse cx="233.1113" cy="194.4375" fill="#84BE84" rx="3" ry="3" style="stroke: #038048; stroke-width: 1.0;"/><text fill="#000000" font-family="sans-serif" font-size="11" lengthAdjust="spacingAndGlyphs" textLength="108" x="242.1113" y="197.6479">isLooser(): boolean</text><ellipse cx="233.1113" cy="207.2422" fill="#84BE84" rx="3" ry="3" style="stroke: #038048; stroke-width: 1.0;"/><text fill="#000000" font-family="sans-serif" font-size="11" lengthAdjust="spacingAndGlyphs" textLength="110" x="242.1113" y="210.4526">isWinner(): boolean</text><ellipse cx="233.1113" cy="220.0469" fill="#84BE84" rx="3" ry="3" style="stroke: #038048; stroke-width: 1.0;"/><text fill="#000000" font-family="sans-serif" font-size="11" lengthAdjust="spacingAndGlyphs" textLength="100" x="242.1113" y="223.2573">getAttempts(): int</text><ellipse cx="233.1113" cy="232.8516" fill="#84BE84" rx="3" ry="3" style="stroke: #038048; stroke-width: 1.0;"/><text fill="#000000" font-family="sans-serif" font-size="11" lengthAdjust="spacingAndGlyphs" textLength="294" x="242.1113" y="236.062">getProposedCombination(int): ProposedCombination</text><ellipse cx="233.1113" cy="245.6563" fill="#84BE84" rx="3" ry="3" style="stroke: #038048; stroke-width: 1.0;"/><text fill="#000000" font-family="sans-serif" font-size="11" lengthAdjust="spacingAndGlyphs" textLength="118" x="242.1113" y="248.8667">getResult(int): Result</text><!--MD5=[18e11a8af630f25f1c94857378af7d3d]
class mastermind.models.SecretCombination--><rect codeLine="67" fill="#FEFECE" filter="url(#f1rqgh73mpblnp)" height="73.6094" id="mastermind.models.SecretCombination" style="stroke: #A80036; stroke-width: 1.5;" width="253" x="204.1113" y="315"/><ellipse cx="269.3613" cy="331" fill="#ADD1B2" rx="11" ry="11" style="stroke: #A80036; stroke-width: 1.0;"/><path d="M271.7051,326.6719 C270.7676,326.2344 270.1738,326.0938 269.2988,326.0938 C266.6738,326.0938 264.6738,328.1719 264.6738,330.8906 L264.6738,332.0156 C264.6738,334.5938 266.7832,336.4844 269.6738,336.4844 C270.8926,336.4844 272.0488,336.1875 272.7988,335.6406 C273.3769,335.2344 273.7051,334.7813 273.7051,334.3906 C273.7051,333.9375 273.3144,333.5469 272.8457,333.5469 C272.6269,333.5469 272.4238,333.625 272.2363,333.8125 C271.7832,334.2969 271.7832,334.2969 271.5957,334.3906 C271.1738,334.6563 270.4863,334.7813 269.7207,334.7813 C267.6738,334.7813 266.3769,333.6875 266.3769,331.9844 L266.3769,330.8906 C266.3769,329.1094 267.6269,327.7969 269.3613,327.7969 C269.9394,327.7969 270.5488,327.9531 271.0176,328.2031 C271.5019,328.4844 271.6738,328.7031 271.7676,329.1094 C271.8301,329.5156 271.8613,329.6406 272.0019,329.7656 C272.1426,329.9063 272.3769,330.0156 272.5957,330.0156 C272.8613,330.0156 273.1269,329.875 273.2988,329.6563 C273.4082,329.5 273.4394,329.3125 273.4394,328.8906 L273.4394,327.4688 C273.4394,327.0313 273.4238,326.9063 273.3301,326.75 C273.1738,326.4844 272.8926,326.3438 272.5957,326.3438 C272.2988,326.3438 272.0957,326.4375 271.8769,326.75 L271.7051,326.6719 Z "/><text fill="#000000" font-family="sans-serif" font-size="12" lengthAdjust="spacingAndGlyphs" textLength="114" x="289.8613" y="335.1543">SecretCombination</text><line style="stroke: #A80036; stroke-width: 1.5;" x1="205.1113" x2="456.1113" y1="347" y2="347"/><line style="stroke: #A80036; stroke-width: 1.5;" x1="205.1113" x2="456.1113" y1="355" y2="355"/><polygon fill="#4177AF" points="215.1113,362,211.1113,368,219.1113,368" style="stroke: #1963A0; stroke-width: 1.0;"/><text fill="#000000" font-family="sans-serif" font-size="11" lengthAdjust="spacingAndGlyphs" textLength="117" x="224.1113" y="369.2104">SecretCombination()</text><polygon fill="#4177AF" points="215.1113,374.8047,211.1113,380.8047,219.1113,380.8047" style="stroke: #1963A0; stroke-width: 1.0;"/><text fill="#000000" font-family="sans-serif" font-size="11" lengthAdjust="spacingAndGlyphs" textLength="227" x="224.1113" y="382.0151">getResult(ProposedCombination): Result</text><!--MD5=[603f91c77aeeb81b8bb339fe7f288f7b]
class mastermind.models.Result--><rect codeLine="56" fill="#FEFECE" filter="url(#f1rqgh73mpblnp)" height="124.8281" id="mastermind.models.Result" style="stroke: #A80036; stroke-width: 1.5;" width="136" x="387.6113" y="449"/><ellipse cx="433.3613" cy="465" fill="#ADD1B2" rx="11" ry="11" style="stroke: #A80036; stroke-width: 1.0;"/><path d="M435.7051,460.6719 C434.7676,460.2344 434.1738,460.0938 433.2988,460.0938 C430.6738,460.0938 428.6738,462.1719 428.6738,464.8906 L428.6738,466.0156 C428.6738,468.5938 430.7832,470.4844 433.6738,470.4844 C434.8926,470.4844 436.0488,470.1875 436.7988,469.6406 C437.3769,469.2344 437.7051,468.7813 437.7051,468.3906 C437.7051,467.9375 437.3144,467.5469 436.8457,467.5469 C436.6269,467.5469 436.4238,467.625 436.2363,467.8125 C435.7832,468.2969 435.7832,468.2969 435.5957,468.3906 C435.1738,468.6563 434.4863,468.7813 433.7207,468.7813 C431.6738,468.7813 430.3769,467.6875 430.3769,465.9844 L430.3769,464.8906 C430.3769,463.1094 431.6269,461.7969 433.3613,461.7969 C433.9394,461.7969 434.5488,461.9531 435.0176,462.2031 C435.5019,462.4844 435.6738,462.7031 435.7676,463.1094 C435.8301,463.5156 435.8613,463.6406 436.0019,463.7656 C436.1426,463.9063 436.3769,464.0156 436.5957,464.0156 C436.8613,464.0156 437.1269,463.875 437.2988,463.6563 C437.4082,463.5 437.4394,463.3125 437.4394,462.8906 L437.4394,461.4688 C437.4394,461.0313 437.4238,460.9063 437.3301,460.75 C437.1738,460.4844 436.8926,460.3438 436.5957,460.3438 C436.2988,460.3438 436.0957,460.4375 435.8769,460.75 L435.7051,460.6719 Z "/><text fill="#000000" font-family="sans-serif" font-size="12" lengthAdjust="spacingAndGlyphs" textLength="36" x="453.8613" y="469.1543">Result</text><line style="stroke: #A80036; stroke-width: 1.5;" x1="388.6113" x2="522.6113" y1="481" y2="481"/><rect fill="none" height="6" style="stroke: #C82930; stroke-width: 1.0;" width="6" x="395.6113" y="489"/><text fill="#000000" font-family="sans-serif" font-size="11" lengthAdjust="spacingAndGlyphs" textLength="56" x="407.6113" y="495.2104">blacks: int</text><rect fill="none" height="6" style="stroke: #C82930; stroke-width: 1.0;" width="6" x="395.6113" y="501.8047"/><text fill="#000000" font-family="sans-serif" font-size="11" lengthAdjust="spacingAndGlyphs" textLength="58" x="407.6113" y="508.0151">whites: int</text><line style="stroke: #A80036; stroke-width: 1.5;" x1="388.6113" x2="522.6113" y1="514.6094" y2="514.6094"/><polygon fill="#4177AF" points="398.6113,521.6094,394.6113,527.6094,402.6113,527.6094" style="stroke: #1963A0; stroke-width: 1.0;"/><text fill="#000000" font-family="sans-serif" font-size="11" lengthAdjust="spacingAndGlyphs" textLength="78" x="407.6113" y="528.8198">Result(int, int)</text><polygon fill="#4177AF" points="398.6113,534.4141,394.6113,540.4141,402.6113,540.4141" style="stroke: #1963A0; stroke-width: 1.0;"/><text fill="#000000" font-family="sans-serif" font-size="11" lengthAdjust="spacingAndGlyphs" textLength="110" x="407.6113" y="541.6245">isWinner(): boolean</text><ellipse cx="398.6113" cy="551.2188" fill="#84BE84" rx="3" ry="3" style="stroke: #038048; stroke-width: 1.0;"/><text fill="#000000" font-family="sans-serif" font-size="11" lengthAdjust="spacingAndGlyphs" textLength="84" x="407.6113" y="554.4292">getBlacks(): int</text><ellipse cx="398.6113" cy="564.0234" fill="#84BE84" rx="3" ry="3" style="stroke: #038048; stroke-width: 1.0;"/><text fill="#000000" font-family="sans-serif" font-size="11" lengthAdjust="spacingAndGlyphs" textLength="87" x="407.6113" y="567.2339">getWhites(): int</text><!--MD5=[ce8dc00f64766c3d9ddc5c23d11e019b]
class mastermind.models.ProposedCombination--><rect codeLine="46" fill="#FEFECE" filter="url(#f1rqgh73mpblnp)" height="99.2188" id="mastermind.models.ProposedCombination" style="stroke: #A80036; stroke-width: 1.5;" width="184" x="101.6113" y="462"/><ellipse cx="125.6113" cy="478" fill="#ADD1B2" rx="11" ry="11" style="stroke: #A80036; stroke-width: 1.0;"/><path d="M127.9551,473.6719 C127.0176,473.2344 126.4238,473.0938 125.5488,473.0938 C122.9238,473.0938 120.9238,475.1719 120.9238,477.8906 L120.9238,479.0156 C120.9238,481.5938 123.0332,483.4844 125.9238,483.4844 C127.1426,483.4844 128.2988,483.1875 129.0488,482.6406 C129.6269,482.2344 129.9551,481.7813 129.9551,481.3906 C129.9551,480.9375 129.5644,480.5469 129.0957,480.5469 C128.8769,480.5469 128.6738,480.625 128.4863,480.8125 C128.0332,481.2969 128.0332,481.2969 127.8457,481.3906 C127.4238,481.6563 126.7363,481.7813 125.9707,481.7813 C123.9238,481.7813 122.6269,480.6875 122.6269,478.9844 L122.6269,477.8906 C122.6269,476.1094 123.8769,474.7969 125.6113,474.7969 C126.1894,474.7969 126.7988,474.9531 127.2676,475.2031 C127.7519,475.4844 127.9238,475.7031 128.0176,476.1094 C128.0801,476.5156 128.1113,476.6406 128.2519,476.7656 C128.3926,476.9063 128.6269,477.0156 128.8457,477.0156 C129.1113,477.0156 129.3769,476.875 129.5488,476.6563 C129.6582,476.5 129.6894,476.3125 129.6894,475.8906 L129.6894,474.4688 C129.6894,474.0313 129.6738,473.9063 129.5801,473.75 C129.4238,473.4844 129.1426,473.3438 128.8457,473.3438 C128.5488,473.3438 128.3457,473.4375 128.1269,473.75 L127.9551,473.6719 Z "/><text fill="#000000" font-family="sans-serif" font-size="12" lengthAdjust="spacingAndGlyphs" textLength="132" x="141.6113" y="482.1543">ProposedCombination</text><line style="stroke: #A80036; stroke-width: 1.5;" x1="102.6113" x2="284.6113" y1="494" y2="494"/><line style="stroke: #A80036; stroke-width: 1.5;" x1="102.6113" x2="284.6113" y1="502" y2="502"/><ellipse cx="112.6113" cy="513" fill="#84BE84" rx="3" ry="3" style="stroke: #038048; stroke-width: 1.0;"/><text fill="#000000" font-family="sans-serif" font-size="11" lengthAdjust="spacingAndGlyphs" textLength="131" x="121.6113" y="516.2104">ProposedCombination()</text><polygon fill="#4177AF" points="112.6113,521.8047,108.6113,527.8047,116.6113,527.8047" style="stroke: #1963A0; stroke-width: 1.0;"/><text fill="#000000" font-family="sans-serif" font-size="11" lengthAdjust="spacingAndGlyphs" textLength="158" x="121.6113" y="529.0151">contains(Color, int): boolean</text><polygon fill="#4177AF" points="112.6113,534.6094,108.6113,540.6094,116.6113,540.6094" style="stroke: #1963A0; stroke-width: 1.0;"/><text fill="#000000" font-family="sans-serif" font-size="11" lengthAdjust="spacingAndGlyphs" textLength="137" x="121.6113" y="541.8198">contains(Color): boolean</text><ellipse cx="112.6113" cy="551.4141" fill="#84BE84" rx="3" ry="3" style="stroke: #038048; stroke-width: 1.0;"/><text fill="#000000" font-family="sans-serif" font-size="11" lengthAdjust="spacingAndGlyphs" textLength="135" x="121.6113" y="554.6245">getColors(): List&lt;Color&gt;</text><!--MD5=[6b7a9fc05e2cf62df8c1411c2048df3f]
class java.util.List--><rect fill="#FEFECE" filter="url(#f1rqgh73mpblnp)" height="48" id="java.util.List" style="stroke: #A80036; stroke-width: 1.5;" width="52" x="601.6113" y="328"/><ellipse cx="616.6113" cy="344" fill="#ADD1B2" rx="11" ry="11" style="stroke: #A80036; stroke-width: 1.0;"/><path d="M618.9551,339.6719 C618.0176,339.2344 617.4238,339.0938 616.5488,339.0938 C613.9238,339.0938 611.9238,341.1719 611.9238,343.8906 L611.9238,345.0156 C611.9238,347.5938 614.0332,349.4844 616.9238,349.4844 C618.1426,349.4844 619.2988,349.1875 620.0488,348.6406 C620.6269,348.2344 620.9551,347.7813 620.9551,347.3906 C620.9551,346.9375 620.5644,346.5469 620.0957,346.5469 C619.8769,346.5469 619.6738,346.625 619.4863,346.8125 C619.0332,347.2969 619.0332,347.2969 618.8457,347.3906 C618.4238,347.6563 617.7363,347.7813 616.9707,347.7813 C614.9238,347.7813 613.6269,346.6875 613.6269,344.9844 L613.6269,343.8906 C613.6269,342.1094 614.8769,340.7969 616.6113,340.7969 C617.1894,340.7969 617.7988,340.9531 618.2676,341.2031 C618.7519,341.4844 618.9238,341.7031 619.0176,342.1094 C619.0801,342.5156 619.1113,342.6406 619.2519,342.7656 C619.3926,342.9063 619.6269,343.0156 619.8457,343.0156 C620.1113,343.0156 620.3769,342.875 620.5488,342.6563 C620.6582,342.5 620.6894,342.3125 620.6894,341.8906 L620.6894,340.4688 C620.6894,340.0313 620.6738,339.9063 620.5801,339.75 C620.4238,339.4844 620.1426,339.3438 619.8457,339.3438 C619.5488,339.3438 619.3457,339.4375 619.1269,339.75 L618.9551,339.6719 Z "/><text fill="#000000" font-family="sans-serif" font-size="12" lengthAdjust="spacingAndGlyphs" textLength="20" x="630.6113" y="348.1543">List</text><line style="stroke: #A80036; stroke-width: 1.5;" x1="602.6113" x2="652.6113" y1="360" y2="360"/><line style="stroke: #A80036; stroke-width: 1.5;" x1="602.6113" x2="652.6113" y1="368" y2="368"/><!--MD5=[99e2525e256e9b321e06eb12de08589d]
link mastermind.models.Combination to java.util.List--><path codeLine="17" d="M153.6594,207.4402 C153.6594,207.4402 184.5533,244.243 204.6113,255 C344.9323,330.253 417.1883,217.956 561.6113,285 C577.4573,292.356 591.6623,305.222 602.7983,317.652 " fill="none" id="mastermind.models.Combination-java.util.List" style="stroke: #A80036; stroke-width: 1.0;"/><polygon fill="#A80036" points="611.3993,327.861,608.6587,318.4011,608.1774,324.0375,602.5411,323.5562,611.3993,327.861" style="stroke: #A80036; stroke-width: 1.0;"/><line style="stroke: #A80036; stroke-width: 1.0;" x1="608.1774" x2="603.0228" y1="324.0375" y2="317.919"/><polygon fill="#A80036" points="146.7813,197.607,146.9426,204.8163,153.6594,207.4402,153.4981,200.2309,146.7813,197.607" style="stroke: #A80036; stroke-width: 1.0;"/><!--MD5=[ef2bf6466fd2ef34b9ffecd6201583c7]
link mastermind.models.Combination to mastermind.models.Color--><path codeLine="18" d="M93,208.7422 C93,208.7422 6,465.142 83.6113,574 C131.0993,640.607 187.4913,591.872 257.6113,634 C260.0843,635.486 262.5443,637.066 264.9833,638.722 " fill="none" id="mastermind.models.Combination-mastermind.models.Color" style="stroke: #A80036; stroke-width: 1.0;"/><polygon fill="#A80036" points="275.5093,646.413,270.6016,637.874,271.4719,643.4635,265.8824,644.3339,275.5093,646.413" style="stroke: #A80036; stroke-width: 1.0;"/><line style="stroke: #A80036; stroke-width: 1.0;" x1="271.4719" x2="265.0123" y1="643.4635" y2="638.744"/><polygon fill="#A80036" points="97.6363,197.674,91.6288,201.6627,93,208.7422,99.0075,204.7535,97.6363,197.674" style="stroke: #A80036; stroke-width: 1.0;"/><!--MD5=[72c827c1cbe735fc2edd154dc7e7ce19]
link mastermind.models.Game to java.util.List--><path codeLine="41" d="M535.6271,262.9498 C535.6271,262.9498 553.5133,277.913 561.6113,285 C573.4683,295.377 585.8393,307.392 596.6243,318.305 " fill="none" id="mastermind.models.Game-java.util.List" style="stroke: #A80036; stroke-width: 1.0;"/><polygon fill="#A80036" points="606.0223,327.938,602.5999,318.7029,602.5304,324.3593,596.874,324.2899,606.0223,327.938" style="stroke: #A80036; stroke-width: 1.0;"/><line style="stroke: #A80036; stroke-width: 1.0;" x1="602.5304" x2="596.9438" y1="324.3593" y2="318.6325"/><polygon fill="#A80036" points="526.3453,255.344,528.4509,262.2408,535.6271,262.9498,533.5215,256.053,526.3453,255.344" style="stroke: #A80036; stroke-width: 1.0;"/><!--MD5=[51d817dc75f97c6f89eda65baf901e9a]
link mastermind.models.Game to mastermind.models.SecretCombination--><path codeLine="42" d="M352.7462,266.6349 C352.7462,266.6349 346.2143,291.533 343.4543,302.051 " fill="none" id="mastermind.models.Game-mastermind.models.SecretCombination" style="stroke: #A80036; stroke-width: 1.0;"/><polygon fill="#A80036" points="340.1173,314.769,346.2701,307.0785,341.386,309.9326,338.5319,305.0486,340.1173,314.769" style="stroke: #A80036; stroke-width: 1.0;"/><line style="stroke: #A80036; stroke-width: 1.0;" x1="341.386" x2="343.4163" y1="309.9326" y2="302.1945"/><polygon fill="#A80036" points="355.7923,255.028,350.4003,259.8161,352.7462,266.6349,358.1382,261.8468,355.7923,255.028" style="stroke: #A80036; stroke-width: 1.0;"/><!--MD5=[f3dfce6ee53d74daeb4523d26c9127c0]
link mastermind.models.Game to mastermind.models.Result--><path codeLine="43" d="M467.6966,266.1506 C467.6966,266.1506 472.7973,279.028 474.6113,285 C489.4703,333.928 484.3093,391.392 475.6443,436.066 " fill="none" id="mastermind.models.Game-mastermind.models.Result" style="stroke: #A80036; stroke-width: 1.0;"/><polygon fill="#A80036" points="472.9923,448.901,478.7312,440.8969,474.0043,444.0045,470.8968,439.2777,472.9923,448.901" style="stroke: #A80036; stroke-width: 1.0;"/><line style="stroke: #A80036; stroke-width: 1.0;" x1="474.0043" x2="475.6233" y1="444.0045" y2="436.17"/><polygon fill="#A80036" points="462.7513,255.217,461.5794,262.3322,467.6966,266.1506,468.8685,259.0354,462.7513,255.217" style="stroke: #A80036; stroke-width: 1.0;"/><!--MD5=[0bfb87d985ab5751d2f1c815e30e0bc2]
link mastermind.models.Game to mastermind.models.ProposedCombination--><path codeLine="44" d="M221.7923,238.788 C207.8093,252.505 195.5913,267.888 186.6113,285 C158.6893,338.206 166.7453,408.623 177.6873,456.517 " fill="none" id="mastermind.models.Game-to-mastermind.models.ProposedCombination" style="stroke: #A80036; stroke-width: 1.0;"/><polygon fill="#A80036" points="178.8933,461.661,180.7327,451.9854,177.7517,456.7931,172.9441,453.812,178.8933,461.661" style="stroke: #A80036; stroke-width: 1.0;"/><!--MD5=[7b29684056909414a3cc5ff3d855d9cb]
reverse link mastermind.models.Combination to mastermind.models.ProposedCombination--><path codeLine="52" d="M113.9697,217.657 C117.2844,268.417 127.4283,339.015 141.6113,400 C146.3973,420.58 153.1453,442.868 160.6143,461.999 " fill="none" id="mastermind.models.Combination-backto-mastermind.models.ProposedCombination" style="stroke: #A80036; stroke-width: 1.0;"/><polygon fill="none" points="106.9714,217.862,112.9854,197.544,120.9547,217.178,106.9714,217.862" style="stroke: #A80036; stroke-width: 1.0;"/><!--MD5=[9bbf6f8a79dc032e26eb14ab800669a4]
link mastermind.models.ProposedCombination to mastermind.models.Combination--><path codeLine="65" d="M193.1993,461.999 C188.1453,442.868 181.3973,420.58 176.6113,400 C160.9753,332.767 150.2483,253.851 140.1543,202.713 " fill="none" id="mastermind.models.ProposedCombination-to-mastermind.models.Combination" style="stroke: #A80036; stroke-width: 1.0; stroke-dasharray: 7.0,7.0;"/><polygon fill="#A80036" points="139.1163,197.544,136.966,207.1553,140.1005,202.4462,144.8095,205.5806,139.1163,197.544" style="stroke: #A80036; stroke-width: 1.0;"/><!--MD5=[ade6e74b660bcc3c74e70abb8c2e26de]
link mastermind.models.ProposedCombination to mastermind.models.Error--><path codeLine="53" d="M181.7653,561.301 C174.7693,590.12 165.9573,626.422 159.0363,654.933 " fill="none" id="mastermind.models.ProposedCombination-to-mastermind.models.Error" style="stroke: #A80036; stroke-width: 1.0; stroke-dasharray: 7.0,7.0;"/><polygon fill="#A80036" points="157.8553,659.8,163.8642,651.9966,159.034,654.9409,156.0897,650.1107,157.8553,659.8" style="stroke: #A80036; stroke-width: 1.0;"/><!--MD5=[d7d124d7e1f2333215e4578cf60f9cf9]
link mastermind.models.ProposedCombination to mastermind.models.Color--><path codeLine="54" d="M228.8923,561.301 C243.8943,582.052 261.7003,606.682 278.1903,629.49 " fill="none" id="mastermind.models.ProposedCombination-to-mastermind.models.Color" style="stroke: #A80036; stroke-width: 1.0; stroke-dasharray: 7.0,7.0;"/><polygon fill="#A80036" points="281.2523,633.726,279.2194,624.0892,278.3222,629.6745,272.737,628.7773,281.2523,633.726" style="stroke: #A80036; stroke-width: 1.0;"/><!--MD5=[8b7fe5937727b3f2af2b7e0c077d6894]
reverse link mastermind.models.Combination to mastermind.models.SecretCombination--><path codeLine="71" d="M167.4483,213.419 C178.9593,227.697 191.7033,242.335 204.6113,255 C226.7933,276.764 253.9423,298.019 277.3523,314.974 " fill="none" id="mastermind.models.Combination-backto-mastermind.models.SecretCombination" style="stroke: #A80036; stroke-width: 1.0;"/><polygon fill="none" points="161.8603,217.636,155.0343,197.576,172.8803,209.001,161.8603,217.636" style="stroke: #A80036; stroke-width: 1.0;"/><!--MD5=[608050f9e03cd77b6b0a92b040850965]
link mastermind.models.SecretCombination to mastermind.models.Result--><path codeLine="72" d="M359.2893,389.134 C372.3563,405.598 388.2453,425.619 403.3213,444.614 " fill="none" id="mastermind.models.SecretCombination-to-mastermind.models.Result" style="stroke: #A80036; stroke-width: 1.0; stroke-dasharray: 7.0,7.0;"/><polygon fill="#A80036" points="406.7253,448.904,404.2639,439.3677,403.6172,444.9874,397.9974,444.3407,406.7253,448.904" style="stroke: #A80036; stroke-width: 1.0;"/><!--MD5=[54781d8fdb284276f9889310d1de69a6]
link mastermind.models.SecretCombination to mastermind.models.ProposedCombination--><path codeLine="73" d="M299.1803,389.134 C281.4073,409.567 258.8693,435.477 239.1863,458.106 " fill="none" id="mastermind.models.SecretCombination-to-mastermind.models.ProposedCombination" style="stroke: #A80036; stroke-width: 1.0; stroke-dasharray: 7.0,7.0;"/><polygon fill="#A80036" points="235.8003,461.998,244.7248,457.8322,239.0816,458.2253,238.6885,452.5821,235.8003,461.998" style="stroke: #A80036; stroke-width: 1.0;"/><!--MD5=[e1ae3c6f117e82f929fd4c81fd109de0]
link mastermind.models.SecretCombination to mastermind.models.Color--><path codeLine="74" d="M330.6113,389.035 C330.6113,445.33 330.6113,555.285 330.6113,628.707 " fill="none" id="mastermind.models.SecretCombination-to-mastermind.models.Color" style="stroke: #A80036; stroke-width: 1.0; stroke-dasharray: 7.0,7.0;"/><polygon fill="#A80036" points="330.6113,633.929,334.6113,624.929,330.6113,628.929,326.6113,624.929,330.6113,633.929" style="stroke: #A80036; stroke-width: 1.0;"/><!--MD5=[fb1cf2e04d7706e816f6aefe7ae04de5]
@startuml
enum  mastermind.models.Color{
+ {static} RED: Color
+ {static} BLUE: Color
+ {static} YELLOW: Color
+ {static} GREEN: Color
+ {static} ORANGE: Color
+ {static} PURPLE: Color
~ {static} length(): int
}

abstract class  mastermind.models.Combination{
- {static} WIDTH: int
# colors: List<Color>
# Combination()
+ {static} getWidth(): int
}
mastermind.models.Combination *-down-> java.util.List
mastermind.models.Combination *-down-> mastermind.models.Color

enum  mastermind.models.Error{
+ {static} DUPLICATED: Error
+ {static} WRONG_CHARACTERS: Error
+ {static} WRONG_LENGTH: Error
}

class  mastermind.models.Game{
- {static} MAX_LONG: int
- secretCombination: SecretCombination
- proposedCombinations: List<ProposedCombination>
- results: List<Result>
- attempts: int
+ Game()
+ clear()
+ addProposeCombination(ProposedCombination)
+ isLooser(): boolean
+ isWinner(): boolean
+ getAttempts(): int
+ getProposedCombination(int): ProposedCombination
+ getResult(int): Result
}
mastermind.models.Game *-down-> java.util.List
mastermind.models.Game *-down-> mastermind.models.SecretCombination
mastermind.models.Game *-down-> mastermind.models.Result
mastermind.models.Game - -> mastermind.models.ProposedCombination

class  mastermind.models.ProposedCombination{
+ ProposedCombination()
~ contains(Color, int): boolean
~ contains(Color): boolean
+ getColors(): List<Color>
}
mastermind.models.Combination <|-down- mastermind.models.ProposedCombination
mastermind.models.ProposedCombination ..> mastermind.models.Error
mastermind.models.ProposedCombination ..> mastermind.models.Color

class  mastermind.models.Result{
- blacks: int
- whites: int
~ Result(int, int)
~ isWinner(): boolean
+ getBlacks(): int
+ getWhites(): int
}

mastermind.models.ProposedCombination ..> mastermind.models.Combination

class  mastermind.models.SecretCombination{
~ SecretCombination()
~ getResult(ProposedCombination): Result
}
mastermind.models.Combination <|-down- mastermind.models.SecretCombination
mastermind.models.SecretCombination ..> mastermind.models.Result
mastermind.models.SecretCombination ..> mastermind.models.ProposedCombination
mastermind.models.SecretCombination ..> mastermind.models.Color
@enduml

PlantUML version 1.2020.20beta4(Unknown compile time)
(GPL source distribution)
Java Runtime: Java(TM) SE Runtime Environment
JVM: Java HotSpot(TM) 64-Bit Server VM
Default Encoding: UTF-8
Language: en
Country: US
--></g></svg>