<?xml version="1.0" encoding="UTF-8" standalone="no"?><svg xmlns="http://www.w3.org/2000/svg" xmlns:xlink="http://www.w3.org/1999/xlink" contentScriptType="application/ecmascript" contentStyleType="text/css" height="535px" preserveAspectRatio="none" style="width:494px;height:535px;" version="1.1" viewBox="0 0 494 535" width="494px" zoomAndPan="magnify"><defs><filter height="300%" id="fmho5g9y9d3ob" width="300%" x="-1" y="-1"><feGaussianBlur result="blurOut" stdDeviation="2.0"/><feColorMatrix in="blurOut" result="blurOut2" type="matrix" values="0 0 0 0 0 0 0 0 0 0 0 0 0 0 0 0 0 0 .4 0"/><feOffset dx="4.0" dy="4.0" in="blurOut2" result="blurOut3"/><feBlend in="SourceGraphic" in2="blurOut3" mode="normal"/></filter></defs><g><!--MD5=[f2bedc297083edee028363469990e0f1]
cluster mastermind.utils--><polygon fill="#FFFFFF" filter="url(#fmho5g9y9d3ob)" points="16,6,162,6,169,28.2969,477,28.2969,477,405,16,405,16,6" style="stroke: #000000; stroke-width: 1.5;"/><line style="stroke: #000000; stroke-width: 1.5;" x1="16" x2="169" y1="28.2969" y2="28.2969"/><text fill="#000000" font-family="sans-serif" font-size="14" font-weight="bold" lengthAdjust="spacingAndGlyphs" textLength="140" x="20" y="20.9951">mastermind.utils</text><!--MD5=[0d852700fdad35b7061d461d6907a324]
cluster java.io--><polygon fill="#FFFFFF" filter="url(#fmho5g9y9d3ob)" points="59,429,119,429,126,451.2969,219,451.2969,219,528,59,528,59,429" style="stroke: #000000; stroke-width: 1.5;"/><line style="stroke: #000000; stroke-width: 1.5;" x1="59" x2="126" y1="451.2969" y2="451.2969"/><text fill="#000000" font-family="sans-serif" font-size="14" font-weight="bold" lengthAdjust="spacingAndGlyphs" textLength="54" x="63" y="443.9951">java.io</text><!--MD5=[2a0dd88fc4abf06286587b862e356914]
class mastermind.utils.ClosedInterval--><rect codeLine="1" fill="#FEFECE" filter="url(#fmho5g9y9d3ob)" height="99.2188" id="mastermind.utils.ClosedInterval" style="stroke: #A80036; stroke-width: 1.5;" width="151" x="292.5" y="41"/><ellipse cx="322.35" cy="57" fill="#ADD1B2" rx="11" ry="11" style="stroke: #A80036; stroke-width: 1.0;"/><path d="M324.6938,52.6719 C323.7563,52.2344 323.1625,52.0938 322.2875,52.0938 C319.6625,52.0938 317.6625,54.1719 317.6625,56.8906 L317.6625,58.0156 C317.6625,60.5938 319.7719,62.4844 322.6625,62.4844 C323.8813,62.4844 325.0375,62.1875 325.7875,61.6406 C326.3656,61.2344 326.6938,60.7813 326.6938,60.3906 C326.6938,59.9375 326.3031,59.5469 325.8344,59.5469 C325.6156,59.5469 325.4125,59.625 325.225,59.8125 C324.7719,60.2969 324.7719,60.2969 324.5844,60.3906 C324.1625,60.6563 323.475,60.7813 322.7094,60.7813 C320.6625,60.7813 319.3656,59.6875 319.3656,57.9844 L319.3656,56.8906 C319.3656,55.1094 320.6156,53.7969 322.35,53.7969 C322.9281,53.7969 323.5375,53.9531 324.0063,54.2031 C324.4906,54.4844 324.6625,54.7031 324.7563,55.1094 C324.8188,55.5156 324.85,55.6406 324.9906,55.7656 C325.1313,55.9063 325.3656,56.0156 325.5844,56.0156 C325.85,56.0156 326.1156,55.875 326.2875,55.6563 C326.3969,55.5 326.4281,55.3125 326.4281,54.8906 L326.4281,53.4688 C326.4281,53.0313 326.4125,52.9063 326.3188,52.75 C326.1625,52.4844 325.8813,52.3438 325.5844,52.3438 C325.2875,52.3438 325.0844,52.4375 324.8656,52.75 L324.6938,52.6719 Z "/><text fill="#000000" font-family="sans-serif" font-size="12" lengthAdjust="spacingAndGlyphs" textLength="86" x="339.65" y="61.1543">ClosedInterval</text><line style="stroke: #A80036; stroke-width: 1.5;" x1="293.5" x2="442.5" y1="73" y2="73"/><rect fill="none" height="6" style="stroke: #C82930; stroke-width: 1.0;" width="6" x="300.5" y="81"/><text fill="#000000" font-family="sans-serif" font-size="11" lengthAdjust="spacingAndGlyphs" textLength="42" x="312.5" y="87.2104">min: int</text><rect fill="none" height="6" style="stroke: #C82930; stroke-width: 1.0;" width="6" x="300.5" y="93.8047"/><text fill="#000000" font-family="sans-serif" font-size="11" lengthAdjust="spacingAndGlyphs" textLength="46" x="312.5" y="100.0151">max: int</text><line style="stroke: #A80036; stroke-width: 1.5;" x1="293.5" x2="442.5" y1="106.6094" y2="106.6094"/><ellipse cx="303.5" cy="117.6094" fill="#84BE84" rx="3" ry="3" style="stroke: #038048; stroke-width: 1.0;"/><text fill="#000000" font-family="sans-serif" font-size="11" lengthAdjust="spacingAndGlyphs" textLength="125" x="312.5" y="120.8198">ClosedInterval(int, int)</text><ellipse cx="303.5" cy="130.4141" fill="#84BE84" rx="3" ry="3" style="stroke: #038048; stroke-width: 1.0;"/><text fill="#000000" font-family="sans-serif" font-size="11" lengthAdjust="spacingAndGlyphs" textLength="122" x="312.5" y="133.6245">includes(int): boolean</text><!--MD5=[ff88fef78a03b99ee0a0b34d5c9e19a9]
class mastermind.utils.Console--><rect codeLine="8" fill="#FEFECE" filter="url(#fmho5g9y9d3ob)" height="188.8516" id="mastermind.utils.Console" style="stroke: #A80036; stroke-width: 1.5;" width="214" x="32" y="200"/><ellipse cx="110.25" cy="216" fill="#ADD1B2" rx="11" ry="11" style="stroke: #A80036; stroke-width: 1.0;"/><path d="M112.5938,211.6719 C111.6563,211.2344 111.0625,211.0938 110.1875,211.0938 C107.5625,211.0938 105.5625,213.1719 105.5625,215.8906 L105.5625,217.0156 C105.5625,219.5938 107.6719,221.4844 110.5625,221.4844 C111.7813,221.4844 112.9375,221.1875 113.6875,220.6406 C114.2656,220.2344 114.5938,219.7813 114.5938,219.3906 C114.5938,218.9375 114.2031,218.5469 113.7344,218.5469 C113.5156,218.5469 113.3125,218.625 113.125,218.8125 C112.6719,219.2969 112.6719,219.2969 112.4844,219.3906 C112.0625,219.6563 111.375,219.7813 110.6094,219.7813 C108.5625,219.7813 107.2656,218.6875 107.2656,216.9844 L107.2656,215.8906 C107.2656,214.1094 108.5156,212.7969 110.25,212.7969 C110.8281,212.7969 111.4375,212.9531 111.9063,213.2031 C112.3906,213.4844 112.5625,213.7031 112.6563,214.1094 C112.7188,214.5156 112.75,214.6406 112.8906,214.7656 C113.0313,214.9063 113.2656,215.0156 113.4844,215.0156 C113.75,215.0156 114.0156,214.875 114.1875,214.6563 C114.2969,214.5 114.3281,214.3125 114.3281,213.8906 L114.3281,212.4688 C114.3281,212.0313 114.3125,211.9063 114.2188,211.75 C114.0625,211.4844 113.7813,211.3438 113.4844,211.3438 C113.1875,211.3438 112.9844,211.4375 112.7656,211.75 L112.5938,211.6719 Z "/><text fill="#000000" font-family="sans-serif" font-size="12" lengthAdjust="spacingAndGlyphs" textLength="49" x="130.75" y="220.1543">Console</text><line style="stroke: #A80036; stroke-width: 1.5;" x1="33" x2="245" y1="232" y2="232"/><rect fill="none" height="6" style="stroke: #C82930; stroke-width: 1.0;" width="6" x="40" y="240"/><text fill="#000000" font-family="sans-serif" font-size="11" lengthAdjust="spacingAndGlyphs" textLength="188" x="52" y="246.2104">bufferedReader: BufferedReader</text><line style="stroke: #A80036; stroke-width: 1.5;" x1="33" x2="245" y1="252.8047" y2="252.8047"/><ellipse cx="43" cy="263.8047" fill="#84BE84" rx="3" ry="3" style="stroke: #038048; stroke-width: 1.0;"/><text fill="#000000" font-family="sans-serif" font-size="11" lengthAdjust="spacingAndGlyphs" textLength="54" x="52" y="267.0151">Console()</text><ellipse cx="43" cy="276.6094" fill="#84BE84" rx="3" ry="3" style="stroke: #038048; stroke-width: 1.0;"/><text fill="#000000" font-family="sans-serif" font-size="11" lengthAdjust="spacingAndGlyphs" textLength="91" x="52" y="279.8198">write(char): void</text><ellipse cx="43" cy="289.4141" fill="#84BE84" rx="3" ry="3" style="stroke: #038048; stroke-width: 1.0;"/><text fill="#000000" font-family="sans-serif" font-size="11" lengthAdjust="spacingAndGlyphs" textLength="100" x="52" y="292.6245">write(String): void</text><ellipse cx="43" cy="302.2188" fill="#84BE84" rx="3" ry="3" style="stroke: #038048; stroke-width: 1.0;"/><text fill="#000000" font-family="sans-serif" font-size="11" lengthAdjust="spacingAndGlyphs" textLength="102" x="52" y="305.4292">readInt(String): int</text><ellipse cx="43" cy="315.0234" fill="#84BE84" rx="3" ry="3" style="stroke: #038048; stroke-width: 1.0;"/><text fill="#000000" font-family="sans-serif" font-size="11" lengthAdjust="spacingAndGlyphs" textLength="124" x="52" y="318.2339">readChar(String): char</text><rect fill="#F24D5C" height="6" style="stroke: #C82930; stroke-width: 1.0;" width="6" x="40" y="324.8281"/><text fill="#000000" font-family="sans-serif" font-size="11" lengthAdjust="spacingAndGlyphs" textLength="126" x="52" y="331.0386">writeError(String): void</text><ellipse cx="43" cy="340.6328" fill="#84BE84" rx="3" ry="3" style="stroke: #038048; stroke-width: 1.0;"/><text fill="#000000" font-family="sans-serif" font-size="11" lengthAdjust="spacingAndGlyphs" textLength="110" x="52" y="343.8433">writeln(String): void</text><ellipse cx="43" cy="353.4375" fill="#84BE84" rx="3" ry="3" style="stroke: #038048; stroke-width: 1.0;"/><text fill="#000000" font-family="sans-serif" font-size="11" lengthAdjust="spacingAndGlyphs" textLength="91" x="52" y="356.6479">writeln(int): void</text><ellipse cx="43" cy="366.2422" fill="#84BE84" rx="3" ry="3" style="stroke: #038048; stroke-width: 1.0;"/><text fill="#000000" font-family="sans-serif" font-size="11" lengthAdjust="spacingAndGlyphs" textLength="77" x="52" y="369.4526">writeln(): void</text><ellipse cx="43" cy="379.0469" fill="#84BE84" rx="3" ry="3" style="stroke: #038048; stroke-width: 1.0;"/><text fill="#000000" font-family="sans-serif" font-size="11" lengthAdjust="spacingAndGlyphs" textLength="140" x="52" y="382.2573">readString(String): String</text><!--MD5=[418484cb0ecde680b0da58aa805d4175]
class mastermind.utils.WithConsoleView--><rect codeLine="23" fill="#FEFECE" filter="url(#fmho5g9y9d3ob)" height="73.6094" id="mastermind.utils.WithConsoleView" style="stroke: #A80036; stroke-width: 1.5;" width="136" x="88" y="53.5"/><ellipse cx="103" cy="69.5" fill="#ADD1B2" rx="11" ry="11" style="stroke: #A80036; stroke-width: 1.0;"/><path d="M105.3438,65.1719 C104.4063,64.7344 103.8125,64.5938 102.9375,64.5938 C100.3125,64.5938 98.3125,66.6719 98.3125,69.3906 L98.3125,70.5156 C98.3125,73.0938 100.4219,74.9844 103.3125,74.9844 C104.5313,74.9844 105.6875,74.6875 106.4375,74.1406 C107.0156,73.7344 107.3438,73.2813 107.3438,72.8906 C107.3438,72.4375 106.9531,72.0469 106.4844,72.0469 C106.2656,72.0469 106.0625,72.125 105.875,72.3125 C105.4219,72.7969 105.4219,72.7969 105.2344,72.8906 C104.8125,73.1563 104.125,73.2813 103.3594,73.2813 C101.3125,73.2813 100.0156,72.1875 100.0156,70.4844 L100.0156,69.3906 C100.0156,67.6094 101.2656,66.2969 103,66.2969 C103.5781,66.2969 104.1875,66.4531 104.6563,66.7031 C105.1406,66.9844 105.3125,67.2031 105.4063,67.6094 C105.4688,68.0156 105.5,68.1406 105.6406,68.2656 C105.7813,68.4063 106.0156,68.5156 106.2344,68.5156 C106.5,68.5156 106.7656,68.375 106.9375,68.1563 C107.0469,68 107.0781,67.8125 107.0781,67.3906 L107.0781,65.9688 C107.0781,65.5313 107.0625,65.4063 106.9688,65.25 C106.8125,64.9844 106.5313,64.8438 106.2344,64.8438 C105.9375,64.8438 105.7344,64.9375 105.5156,65.25 L105.3438,65.1719 Z "/><text fill="#000000" font-family="sans-serif" font-size="12" lengthAdjust="spacingAndGlyphs" textLength="104" x="117" y="73.6543">WithConsoleView</text><line style="stroke: #A80036; stroke-width: 1.5;" x1="89" x2="223" y1="85.5" y2="85.5"/><polygon fill="none" points="99,91.5,103,95.5,99,99.5,95,95.5" style="stroke: #B38D22; stroke-width: 1.0;"/><text fill="#000000" font-family="sans-serif" font-size="11" lengthAdjust="spacingAndGlyphs" textLength="97" x="108" y="99.7104">console: Console</text><line style="stroke: #A80036; stroke-width: 1.5;" x1="89" x2="223" y1="106.3047" y2="106.3047"/><polygon fill="#FFFF44" points="99,112.3047,103,116.3047,99,120.3047,95,116.3047" style="stroke: #B38D22; stroke-width: 1.0;"/><text fill="#000000" font-family="sans-serif" font-size="11" lengthAdjust="spacingAndGlyphs" textLength="107" x="108" y="120.5151">WithConsoleView()</text><!--MD5=[8fefce232ba7ae99aa926d324ff560e5]
class mastermind.utils.YesNoDialog--><rect codeLine="29" fill="#FEFECE" filter="url(#fmho5g9y9d3ob)" height="150.4375" id="mastermind.utils.YesNoDialog" style="stroke: #A80036; stroke-width: 1.5;" width="179" x="281.5" y="219.5"/><ellipse cx="328.75" cy="235.5" fill="#ADD1B2" rx="11" ry="11" style="stroke: #A80036; stroke-width: 1.0;"/><path d="M331.0938,231.1719 C330.1563,230.7344 329.5625,230.5938 328.6875,230.5938 C326.0625,230.5938 324.0625,232.6719 324.0625,235.3906 L324.0625,236.5156 C324.0625,239.0938 326.1719,240.9844 329.0625,240.9844 C330.2813,240.9844 331.4375,240.6875 332.1875,240.1406 C332.7656,239.7344 333.0938,239.2813 333.0938,238.8906 C333.0938,238.4375 332.7031,238.0469 332.2344,238.0469 C332.0156,238.0469 331.8125,238.125 331.625,238.3125 C331.1719,238.7969 331.1719,238.7969 330.9844,238.8906 C330.5625,239.1563 329.875,239.2813 329.1094,239.2813 C327.0625,239.2813 325.7656,238.1875 325.7656,236.4844 L325.7656,235.3906 C325.7656,233.6094 327.0156,232.2969 328.75,232.2969 C329.3281,232.2969 329.9375,232.4531 330.4063,232.7031 C330.8906,232.9844 331.0625,233.2031 331.1563,233.6094 C331.2188,234.0156 331.25,234.1406 331.3906,234.2656 C331.5313,234.4063 331.7656,234.5156 331.9844,234.5156 C332.25,234.5156 332.5156,234.375 332.6875,234.1563 C332.7969,234 332.8281,233.8125 332.8281,233.3906 L332.8281,231.9688 C332.8281,231.5313 332.8125,231.4063 332.7188,231.25 C332.5625,230.9844 332.2813,230.8438 331.9844,230.8438 C331.6875,230.8438 331.4844,230.9375 331.2656,231.25 L331.0938,231.1719 Z "/><text fill="#000000" font-family="sans-serif" font-size="12" lengthAdjust="spacingAndGlyphs" textLength="76" x="349.25" y="239.6543">YesNoDialog</text><line style="stroke: #A80036; stroke-width: 1.5;" x1="282.5" x2="459.5" y1="251.5" y2="251.5"/><rect fill="none" height="6" style="stroke: #C82930; stroke-width: 1.0;" width="6" x="289.5" y="259.5"/><text fill="#000000" font-family="sans-serif" font-size="11" lengthAdjust="spacingAndGlyphs" text-decoration="underline" textLength="97" x="301.5" y="265.7104">AFIRMATIVE: char</text><rect fill="none" height="6" style="stroke: #C82930; stroke-width: 1.0;" width="6" x="289.5" y="272.3047"/><text fill="#000000" font-family="sans-serif" font-size="11" lengthAdjust="spacingAndGlyphs" text-decoration="underline" textLength="88" x="301.5" y="278.5151">NEGATIVE: char</text><rect fill="none" height="6" style="stroke: #C82930; stroke-width: 1.0;" width="6" x="289.5" y="285.1094"/><text fill="#000000" font-family="sans-serif" font-size="11" lengthAdjust="spacingAndGlyphs" text-decoration="underline" textLength="99" x="301.5" y="291.3198">QUESTION: String</text><rect fill="none" height="6" style="stroke: #C82930; stroke-width: 1.0;" width="6" x="289.5" y="297.9141"/><text fill="#000000" font-family="sans-serif" font-size="11" lengthAdjust="spacingAndGlyphs" text-decoration="underline" textLength="96" x="301.5" y="304.1245">MESSAGE: String</text><line style="stroke: #A80036; stroke-width: 1.5;" x1="282.5" x2="459.5" y1="310.7188" y2="310.7188"/><ellipse cx="292.5" cy="321.7188" fill="#84BE84" rx="3" ry="3" style="stroke: #038048; stroke-width: 1.0;"/><text fill="#000000" font-family="sans-serif" font-size="11" lengthAdjust="spacingAndGlyphs" textLength="80" x="301.5" y="324.9292">YesNoDialog()</text><ellipse cx="292.5" cy="334.5234" fill="#84BE84" rx="3" ry="3" style="stroke: #038048; stroke-width: 1.0;"/><text fill="#000000" font-family="sans-serif" font-size="11" lengthAdjust="spacingAndGlyphs" textLength="120" x="301.5" y="337.7339">read(String): boolean</text><rect fill="#F24D5C" height="6" style="stroke: #C82930; stroke-width: 1.0;" width="6" x="289.5" y="344.3281"/><text fill="#000000" font-family="sans-serif" font-size="11" lengthAdjust="spacingAndGlyphs" text-decoration="underline" textLength="153" x="301.5" y="350.5386">isAfirmative(char): boolean</text><rect fill="#F24D5C" height="6" style="stroke: #C82930; stroke-width: 1.0;" width="6" x="289.5" y="357.1328"/><text fill="#000000" font-family="sans-serif" font-size="11" lengthAdjust="spacingAndGlyphs" text-decoration="underline" textLength="146" x="301.5" y="363.3433">isNegative(char): boolean</text><!--MD5=[06343bf850d7d7a24456cd327e63b99b]
class java.io.BufferedReader--><rect fill="#FEFECE" filter="url(#fmho5g9y9d3ob)" height="48" id="java.io.BufferedReader" style="stroke: #A80036; stroke-width: 1.5;" width="127" x="75.5" y="464"/><ellipse cx="90.5" cy="480" fill="#ADD1B2" rx="11" ry="11" style="stroke: #A80036; stroke-width: 1.0;"/><path d="M92.8438,475.6719 C91.9063,475.2344 91.3125,475.0938 90.4375,475.0938 C87.8125,475.0938 85.8125,477.1719 85.8125,479.8906 L85.8125,481.0156 C85.8125,483.5938 87.9219,485.4844 90.8125,485.4844 C92.0313,485.4844 93.1875,485.1875 93.9375,484.6406 C94.5156,484.2344 94.8438,483.7813 94.8438,483.3906 C94.8438,482.9375 94.4531,482.5469 93.9844,482.5469 C93.7656,482.5469 93.5625,482.625 93.375,482.8125 C92.9219,483.2969 92.9219,483.2969 92.7344,483.3906 C92.3125,483.6563 91.625,483.7813 90.8594,483.7813 C88.8125,483.7813 87.5156,482.6875 87.5156,480.9844 L87.5156,479.8906 C87.5156,478.1094 88.7656,476.7969 90.5,476.7969 C91.0781,476.7969 91.6875,476.9531 92.1563,477.2031 C92.6406,477.4844 92.8125,477.7031 92.9063,478.1094 C92.9688,478.5156 93,478.6406 93.1406,478.7656 C93.2813,478.9063 93.5156,479.0156 93.7344,479.0156 C94,479.0156 94.2656,478.875 94.4375,478.6563 C94.5469,478.5 94.5781,478.3125 94.5781,477.8906 L94.5781,476.4688 C94.5781,476.0313 94.5625,475.9063 94.4688,475.75 C94.3125,475.4844 94.0313,475.3438 93.7344,475.3438 C93.4375,475.3438 93.2344,475.4375 93.0156,475.75 L92.8438,475.6719 Z "/><text fill="#000000" font-family="sans-serif" font-size="12" lengthAdjust="spacingAndGlyphs" textLength="95" x="104.5" y="484.1543">BufferedReader</text><line style="stroke: #A80036; stroke-width: 1.5;" x1="76.5" x2="201.5" y1="496" y2="496"/><line style="stroke: #A80036; stroke-width: 1.5;" x1="76.5" x2="201.5" y1="504" y2="504"/><!--MD5=[d68db8d595495ae22a1642cd78155fdb]
link mastermind.utils.Console to java.io.BufferedReader--><path codeLine="21" d="M139,401.006 C139,401.006 139,436.542 139,450.5964 " fill="none" id="mastermind.utils.Console-java.io.BufferedReader" style="stroke: #A80036; stroke-width: 1.0;"/><polygon fill="#A80036" points="139,463.6261,143,454.6261,139,458.6261,135,454.6261,139,463.6261" style="stroke: #A80036; stroke-width: 1.0;"/><line style="stroke: #A80036; stroke-width: 1.0;" x1="139" x2="139" y1="458.6261" y2="450.6261"/><polygon fill="#A80036" points="139,389.006,135,395.006,139,401.006,143,395.006,139,389.006" style="stroke: #A80036; stroke-width: 1.0;"/><!--MD5=[ea820ba5d47472bf08a857464d1c1568]
link mastermind.utils.WithConsoleView to mastermind.utils.Console--><path codeLine="27" d="M151.9549,139.5717 C151.9549,139.5717 149.371,170.265 148.03,186.206 " fill="none" id="mastermind.utils.WithConsoleView-mastermind.utils.Console" style="stroke: #A80036; stroke-width: 1.0;"/><polygon fill="#A80036" points="146.902,199.61,151.6435,190.9776,147.3218,194.6277,143.6717,190.306,146.902,199.61" style="stroke: #A80036; stroke-width: 1.0;"/><line style="stroke: #A80036; stroke-width: 1.0;" x1="147.3218" x2="147.992" y1="194.6277" y2="186.656"/><polygon fill="#A80036" points="152.961,127.614,148.472,133.2575,151.9549,139.5717,156.4438,133.9283,152.961,127.614" style="stroke: #A80036; stroke-width: 1.0;"/><!--MD5=[6ecc60e00d827fdddc2b895f15bd4c4f]
reverse link mastermind.utils.WithConsoleView to mastermind.utils.YesNoDialog--><path codeLine="39" d="M209.214,141.496 C234.157,164.932 264.388,193.334 291.934,219.215 " fill="none" id="mastermind.utils.WithConsoleView-backto-mastermind.utils.YesNoDialog" style="stroke: #A80036; stroke-width: 1.0;"/><polygon fill="none" points="204.221,146.41,194.438,127.614,213.807,136.207,204.221,146.41" style="stroke: #A80036; stroke-width: 1.0;"/><!--MD5=[539a6cd37f1d9dcaae408ff05e327e88]
@startuml
class  mastermind.utils.ClosedInterval{
- min: int
- max: int
+ ClosedInterval(int, int)
+ includes(int): boolean
}

class  mastermind.utils.Console{
- bufferedReader: BufferedReader
+ Console()
+ write(char): void
+ write(String): void
+ readInt(String): int
+ readChar(String): char
- writeError(String): void
+ writeln(String): void
+ writeln(int): void
+ writeln(): void
+ readString(String): String
}
mastermind.utils.Console *-down-> java.io.BufferedReader

class  mastermind.utils.WithConsoleView{
# console: Console
# WithConsoleView()
}
mastermind.utils.WithConsoleView *-down-> mastermind.utils.Console

class  mastermind.utils.YesNoDialog{
- {static} AFIRMATIVE: char
- {static} NEGATIVE: char
- {static} QUESTION: String
- {static} MESSAGE: String
+ YesNoDialog()
+ read(String): boolean
- {static} isAfirmative(char): boolean
- {static} isNegative(char): boolean
}
mastermind.utils.WithConsoleView <|-down- mastermind.utils.YesNoDialog
@enduml

PlantUML version 1.2020.20beta2(Unknown compile time)
(GPL source distribution)
Java Runtime: Java(TM) SE Runtime Environment
JVM: Java HotSpot(TM) 64-Bit Server VM
Default Encoding: UTF-8
Language: en
Country: US
--></g></svg>