<?xml version="1.0" encoding="UTF-8" standalone="no"?><svg xmlns="http://www.w3.org/2000/svg" xmlns:xlink="http://www.w3.org/1999/xlink" contentScriptType="application/ecmascript" contentStyleType="text/css" height="782px" preserveAspectRatio="none" style="width:715px;height:782px;" version="1.1" viewBox="0 0 715 782" width="715px" zoomAndPan="magnify"><defs><filter height="300%" id="fhrdwac8nbhn0" width="300%" x="-1" y="-1"><feGaussianBlur result="blurOut" stdDeviation="2.0"/><feColorMatrix in="blurOut" result="blurOut2" type="matrix" values="0 0 0 0 0 0 0 0 0 0 0 0 0 0 0 0 0 0 .4 0"/><feOffset dx="4.0" dy="4.0" in="blurOut2" result="blurOut3"/><feBlend in="SourceGraphic" in2="blurOut3" mode="normal"/></filter></defs><g><!--MD5=[073ce8cb2fd2a0b2556785fe35fbd544]
cluster usantatecla.mastermind.models--><polygon fill="#FFFFFF" filter="url(#fhrdwac8nbhn0)" points="16,6,286,6,293,28.2969,698,28.2969,698,775,16,775,16,6" style="stroke: #000000; stroke-width: 1.5;"/><line style="stroke: #000000; stroke-width: 1.5;" x1="16" x2="293" y1="28.2969" y2="28.2969"/><text fill="#000000" font-family="sans-serif" font-size="14" font-weight="bold" lengthAdjust="spacingAndGlyphs" textLength="264" x="20" y="20.9951">usantatecla.mastermind.models</text><!--MD5=[9e4d1129e603bd228b5a29156e32a6b6]
class usantatecla.mastermind.types.Color--><rect codeLine="1" fill="#FEFECE" filter="url(#fhrdwac8nbhn0)" height="163.2422" id="usantatecla.mastermind.types.Color" style="stroke: #A80036; stroke-width: 1.5;" width="121" x="331.5" y="596"/><ellipse cx="372.15" cy="612" fill="#EB937F" rx="11" ry="11" style="stroke: #A80036; stroke-width: 1.0;"/><path d="M370.9469,612.875 L372.4,612.875 L372.4,612.9844 C372.4,613.3906 372.4313,613.5469 372.5094,613.7031 C372.6656,613.9531 372.9469,614.1094 373.2438,614.1094 C373.4938,614.1094 373.7594,613.9688 373.9156,613.75 C374.0406,613.5938 374.0719,613.4375 374.0719,612.9844 L374.0719,611.0625 C374.0719,610.9063 374.0719,610.8594 374.0563,610.7031 C373.9938,610.2344 373.6813,609.9219 373.2281,609.9219 C372.9781,609.9219 372.7125,610.0625 372.5406,610.2813 C372.4313,610.4531 372.4,610.6094 372.4,611.0625 L372.4,611.1875 L370.9469,611.1875 L370.9469,608.7813 L374.9313,608.7813 L374.9313,609.6406 C374.9313,610.0469 374.9625,610.2188 375.0406,610.375 C375.2125,610.625 375.4938,610.7813 375.775,610.7813 C376.0406,610.7813 376.3063,610.6406 376.4781,610.4219 C376.5875,610.25 376.6188,610.1094 376.6188,609.6406 L376.6188,607.0938 L368.9938,607.0938 C368.5563,607.0938 368.4313,607.1094 368.275,607.2031 C368.025,607.3594 367.8688,607.6563 367.8688,607.9375 C367.8688,608.2188 368.0094,608.4688 368.2281,608.6406 C368.3844,608.75 368.5719,608.7813 368.9938,608.7813 L369.2438,608.7813 L369.2438,615.2969 L368.9938,615.2969 C368.5875,615.2969 368.4313,615.3125 368.275,615.4219 C368.025,615.5938 367.8688,615.8594 367.8688,616.1563 C367.8688,616.4219 368.0094,616.6719 368.2281,616.8281 C368.3688,616.9531 368.6031,617 368.9938,617 L376.9938,617 L376.9938,614.4219 C376.9938,613.9844 376.9625,613.8438 376.8844,613.6875 C376.7125,613.4375 376.4313,613.2813 376.15,613.2813 C375.8844,613.2813 375.6188,613.3906 375.4469,613.6406 C375.3375,613.7969 375.3063,613.9375 375.3063,614.4219 L375.3063,615.2969 L370.9469,615.2969 L370.9469,612.875 Z " fill="#000000"/><text fill="#000000" font-family="sans-serif" font-size="12" lengthAdjust="spacingAndGlyphs" textLength="32" x="391.85" y="616.1543">Color</text><line style="stroke: #A80036; stroke-width: 1.5;" x1="332.5" x2="451.5" y1="628" y2="628"/><ellipse cx="342.5" cy="639" fill="none" rx="3" ry="3" style="stroke: #038048; stroke-width: 1.0;"/><text fill="#000000" font-family="sans-serif" font-size="11" lengthAdjust="spacingAndGlyphs" textLength="23" x="351.5" y="642.2104">RED</text><ellipse cx="342.5" cy="651.8047" fill="none" rx="3" ry="3" style="stroke: #038048; stroke-width: 1.0;"/><text fill="#000000" font-family="sans-serif" font-size="11" lengthAdjust="spacingAndGlyphs" textLength="29" x="351.5" y="655.0151">BLUE</text><ellipse cx="342.5" cy="664.6094" fill="none" rx="3" ry="3" style="stroke: #038048; stroke-width: 1.0;"/><text fill="#000000" font-family="sans-serif" font-size="11" lengthAdjust="spacingAndGlyphs" textLength="46" x="351.5" y="667.8198">YELLOW</text><ellipse cx="342.5" cy="677.4141" fill="none" rx="3" ry="3" style="stroke: #038048; stroke-width: 1.0;"/><text fill="#000000" font-family="sans-serif" font-size="11" lengthAdjust="spacingAndGlyphs" textLength="38" x="351.5" y="680.6245">GREEN</text><ellipse cx="342.5" cy="690.2188" fill="none" rx="3" ry="3" style="stroke: #038048; stroke-width: 1.0;"/><text fill="#000000" font-family="sans-serif" font-size="11" lengthAdjust="spacingAndGlyphs" textLength="48" x="351.5" y="693.4292">ORANGE</text><ellipse cx="342.5" cy="703.0234" fill="none" rx="3" ry="3" style="stroke: #038048; stroke-width: 1.0;"/><text fill="#000000" font-family="sans-serif" font-size="11" lengthAdjust="spacingAndGlyphs" textLength="40" x="351.5" y="706.2339">PURPLE</text><ellipse cx="342.5" cy="715.8281" fill="none" rx="3" ry="3" style="stroke: #038048; stroke-width: 1.0;"/><text fill="#000000" font-family="sans-serif" font-size="11" lengthAdjust="spacingAndGlyphs" textLength="28" x="351.5" y="719.0386">NULL</text><line style="stroke: #A80036; stroke-width: 1.5;" x1="332.5" x2="451.5" y1="725.6328" y2="725.6328"/><polygon fill="#4177AF" points="342.5,732.6328,338.5,738.6328,346.5,738.6328" style="stroke: #1963A0; stroke-width: 1.0;"/><text fill="#000000" font-family="sans-serif" font-size="11" lengthAdjust="spacingAndGlyphs" text-decoration="underline" textLength="65" x="351.5" y="739.8433">length(): int</text><ellipse cx="342.5" cy="749.4375" fill="#84BE84" rx="3" ry="3" style="stroke: #038048; stroke-width: 1.0;"/><text fill="#000000" font-family="sans-serif" font-size="11" lengthAdjust="spacingAndGlyphs" textLength="95" x="351.5" y="752.6479">isNull() : boolean</text><!--MD5=[9e09d6096b99d1406435ac08840c9240]
class usantatecla.mastermind.models.Combination--><rect codeLine="13" fill="#FEFECE" filter="url(#fhrdwac8nbhn0)" height="86.4141" id="usantatecla.mastermind.models.Combination" style="stroke: #A80036; stroke-width: 1.5;" width="108" x="574" y="86"/><ellipse cx="589" cy="102" fill="#A9DCDF" rx="11" ry="11" style="stroke: #A80036; stroke-width: 1.0;"/><path d="M591.0781,103.8125 L591.4688,104.7969 L591.0781,104.7969 C590.625,104.7969 590.5156,104.8125 590.3594,104.9219 C590.1094,105.0781 589.9531,105.3594 589.9531,105.6563 C589.9531,105.9219 590.0938,106.1719 590.3125,106.3281 C590.4531,106.4531 590.6563,106.5 591.0781,106.5 L593.4375,106.5 C593.7969,106.5 594.0156,106.4688 594.1563,106.375 C594.4063,106.2344 594.5625,105.9375 594.5625,105.6563 C594.5625,105.375 594.4219,105.125 594.2031,104.9688 C594.0313,104.8281 593.875,104.7969 593.4063,104.7969 L590.0156,96.5938 L586.3438,96.5938 C585.8906,96.5938 585.7656,96.6094 585.6094,96.7031 C585.3594,96.875 585.2031,97.1563 585.2031,97.4375 C585.2031,97.7188 585.3438,97.9688 585.5625,98.1406 C585.7344,98.25 585.9063,98.2813 586.3438,98.2813 L587.4219,98.2813 L584.7813,104.7969 C584.3594,104.7969 584.2031,104.8125 584.0469,104.9219 C583.7969,105.0781 583.6406,105.3594 583.6406,105.6563 C583.6406,106.2188 584.0156,106.5 584.7656,106.5 L587.0313,106.5 C587.3906,106.5 587.6094,106.4688 587.7344,106.375 C588,106.2344 588.1406,105.9375 588.1406,105.6563 C588.1406,105.375 588.0156,105.125 587.7969,104.9531 C587.625,104.8281 587.4844,104.7969 587.0313,104.7969 L586.6406,104.7969 L587.0313,103.8125 L591.0781,103.8125 Z M590.375,102.1094 L587.7031,102.1094 L589.0469,98.8438 L590.375,102.1094 Z " fill="#000000"/><text fill="#000000" font-family="sans-serif" font-size="12" font-style="italic" lengthAdjust="spacingAndGlyphs" textLength="76" x="603" y="106.1543">Combination</text><line style="stroke: #A80036; stroke-width: 1.5;" x1="575" x2="681" y1="118" y2="118"/><rect fill="none" height="6" style="stroke: #C82930; stroke-width: 1.0;" width="6" x="582" y="126"/><text fill="#000000" font-family="sans-serif" font-size="11" lengthAdjust="spacingAndGlyphs" text-decoration="underline" textLength="59" x="594" y="132.2104">WIDTH: int</text><line style="stroke: #A80036; stroke-width: 1.5;" x1="575" x2="681" y1="138.8047" y2="138.8047"/><polygon fill="#FFFF44" points="585,144.8047,589,148.8047,585,152.8047,581,148.8047" style="stroke: #B38D22; stroke-width: 1.0;"/><text fill="#000000" font-family="sans-serif" font-size="11" lengthAdjust="spacingAndGlyphs" textLength="79" x="594" y="153.0151">Combination()</text><ellipse cx="585" cy="162.6094" fill="#84BE84" rx="3" ry="3" style="stroke: #038048; stroke-width: 1.0;"/><text fill="#000000" font-family="sans-serif" font-size="11" lengthAdjust="spacingAndGlyphs" text-decoration="underline" textLength="80" x="594" y="165.8198">getWidth(): int</text><!--MD5=[05ebf8e4d33ec5537e6bfd99b097e1b4]
class usantatecla.mastermind.types.Error--><rect codeLine="20" fill="#FEFECE" filter="url(#fhrdwac8nbhn0)" height="112.0234" id="usantatecla.mastermind.types.Error" style="stroke: #A80036; stroke-width: 1.5;" width="152" x="387" y="73"/><ellipse cx="443.75" cy="89" fill="#EB937F" rx="11" ry="11" style="stroke: #A80036; stroke-width: 1.0;"/><path d="M442.5469,89.875 L444,89.875 L444,89.9844 C444,90.3906 444.0313,90.5469 444.1094,90.7031 C444.2656,90.9531 444.5469,91.1094 444.8438,91.1094 C445.0938,91.1094 445.3594,90.9688 445.5156,90.75 C445.6406,90.5938 445.6719,90.4375 445.6719,89.9844 L445.6719,88.0625 C445.6719,87.9063 445.6719,87.8594 445.6563,87.7031 C445.5938,87.2344 445.2813,86.9219 444.8281,86.9219 C444.5781,86.9219 444.3125,87.0625 444.1406,87.2813 C444.0313,87.4531 444,87.6094 444,88.0625 L444,88.1875 L442.5469,88.1875 L442.5469,85.7813 L446.5313,85.7813 L446.5313,86.6406 C446.5313,87.0469 446.5625,87.2188 446.6406,87.375 C446.8125,87.625 447.0938,87.7813 447.375,87.7813 C447.6406,87.7813 447.9063,87.6406 448.0781,87.4219 C448.1875,87.25 448.2188,87.1094 448.2188,86.6406 L448.2188,84.0938 L440.5938,84.0938 C440.1563,84.0938 440.0313,84.1094 439.875,84.2031 C439.625,84.3594 439.4688,84.6563 439.4688,84.9375 C439.4688,85.2188 439.6094,85.4688 439.8281,85.6406 C439.9844,85.75 440.1719,85.7813 440.5938,85.7813 L440.8438,85.7813 L440.8438,92.2969 L440.5938,92.2969 C440.1875,92.2969 440.0313,92.3125 439.875,92.4219 C439.625,92.5938 439.4688,92.8594 439.4688,93.1563 C439.4688,93.4219 439.6094,93.6719 439.8281,93.8281 C439.9688,93.9531 440.2031,94 440.5938,94 L448.5938,94 L448.5938,91.4219 C448.5938,90.9844 448.5625,90.8438 448.4844,90.6875 C448.3125,90.4375 448.0313,90.2813 447.75,90.2813 C447.4844,90.2813 447.2188,90.3906 447.0469,90.6406 C446.9375,90.7969 446.9063,90.9375 446.9063,91.4219 L446.9063,92.2969 L442.5469,92.2969 L442.5469,89.875 Z " fill="#000000"/><text fill="#000000" font-family="sans-serif" font-size="12" lengthAdjust="spacingAndGlyphs" textLength="30" x="464.25" y="93.1543">Error</text><line style="stroke: #A80036; stroke-width: 1.5;" x1="388" x2="538" y1="105" y2="105"/><ellipse cx="398" cy="116" fill="none" rx="3" ry="3" style="stroke: #038048; stroke-width: 1.0;"/><text fill="#000000" font-family="sans-serif" font-size="11" lengthAdjust="spacingAndGlyphs" textLength="71" x="407" y="119.2104">DUPLICATED</text><ellipse cx="398" cy="128.8047" fill="none" rx="3" ry="3" style="stroke: #038048; stroke-width: 1.0;"/><text fill="#000000" font-family="sans-serif" font-size="11" lengthAdjust="spacingAndGlyphs" textLength="126" x="407" y="132.0151">WRONG_CHARACTERS</text><ellipse cx="398" cy="141.6094" fill="none" rx="3" ry="3" style="stroke: #038048; stroke-width: 1.0;"/><text fill="#000000" font-family="sans-serif" font-size="11" lengthAdjust="spacingAndGlyphs" textLength="95" x="407" y="144.8198">WRONG_LENGTH</text><ellipse cx="398" cy="154.4141" fill="none" rx="3" ry="3" style="stroke: #038048; stroke-width: 1.0;"/><text fill="#000000" font-family="sans-serif" font-size="11" lengthAdjust="spacingAndGlyphs" textLength="28" x="407" y="157.6245">NULL</text><line style="stroke: #A80036; stroke-width: 1.5;" x1="388" x2="538" y1="164.2188" y2="164.2188"/><ellipse cx="398" cy="175.2188" fill="#84BE84" rx="3" ry="3" style="stroke: #038048; stroke-width: 1.0;"/><text fill="#000000" font-family="sans-serif" font-size="11" lengthAdjust="spacingAndGlyphs" textLength="95" x="407" y="178.4292">isNull() : boolean</text><!--MD5=[133b2a20d5a8d4980692cee85e8c0684]
class usantatecla.mastermind.models.Game--><rect codeLine="28" fill="#FEFECE" filter="url(#fhrdwac8nbhn0)" height="176.0469" id="usantatecla.mastermind.models.Game" style="stroke: #A80036; stroke-width: 1.5;" width="320" x="32" y="41"/><ellipse cx="170.25" cy="57" fill="#ADD1B2" rx="11" ry="11" style="stroke: #A80036; stroke-width: 1.0;"/><path d="M172.5938,52.6719 C171.6563,52.2344 171.0625,52.0938 170.1875,52.0938 C167.5625,52.0938 165.5625,54.1719 165.5625,56.8906 L165.5625,58.0156 C165.5625,60.5938 167.6719,62.4844 170.5625,62.4844 C171.7813,62.4844 172.9375,62.1875 173.6875,61.6406 C174.2656,61.2344 174.5938,60.7813 174.5938,60.3906 C174.5938,59.9375 174.2031,59.5469 173.7344,59.5469 C173.5156,59.5469 173.3125,59.625 173.125,59.8125 C172.6719,60.2969 172.6719,60.2969 172.4844,60.3906 C172.0625,60.6563 171.375,60.7813 170.6094,60.7813 C168.5625,60.7813 167.2656,59.6875 167.2656,57.9844 L167.2656,56.8906 C167.2656,55.1094 168.5156,53.7969 170.25,53.7969 C170.8281,53.7969 171.4375,53.9531 171.9063,54.2031 C172.3906,54.4844 172.5625,54.7031 172.6563,55.1094 C172.7188,55.5156 172.75,55.6406 172.8906,55.7656 C173.0313,55.9063 173.2656,56.0156 173.4844,56.0156 C173.75,56.0156 174.0156,55.875 174.1875,55.6563 C174.2969,55.5 174.3281,55.3125 174.3281,54.8906 L174.3281,53.4688 C174.3281,53.0313 174.3125,52.9063 174.2188,52.75 C174.0625,52.4844 173.7813,52.3438 173.4844,52.3438 C173.1875,52.3438 172.9844,52.4375 172.7656,52.75 L172.5938,52.6719 Z " fill="#000000"/><text fill="#000000" font-family="sans-serif" font-size="12" lengthAdjust="spacingAndGlyphs" textLength="35" x="190.75" y="61.1543">Game</text><line style="stroke: #A80036; stroke-width: 1.5;" x1="33" x2="351" y1="73" y2="73"/><rect fill="none" height="6" style="stroke: #C82930; stroke-width: 1.0;" width="6" x="40" y="81"/><text fill="#000000" font-family="sans-serif" font-size="11" lengthAdjust="spacingAndGlyphs" text-decoration="underline" textLength="84" x="52" y="87.2104">MAX_LONG: int</text><rect fill="none" height="6" style="stroke: #C82930; stroke-width: 1.0;" width="6" x="40" y="93.8047"/><text fill="#000000" font-family="sans-serif" font-size="11" lengthAdjust="spacingAndGlyphs" textLength="72" x="52" y="100.0151">attempts: int</text><line style="stroke: #A80036; stroke-width: 1.5;" x1="33" x2="351" y1="106.6094" y2="106.6094"/><ellipse cx="43" cy="117.6094" fill="#84BE84" rx="3" ry="3" style="stroke: #038048; stroke-width: 1.0;"/><text fill="#000000" font-family="sans-serif" font-size="11" lengthAdjust="spacingAndGlyphs" textLength="43" x="52" y="120.8198">Game()</text><ellipse cx="43" cy="130.4141" fill="#84BE84" rx="3" ry="3" style="stroke: #038048; stroke-width: 1.0;"/><text fill="#000000" font-family="sans-serif" font-size="11" lengthAdjust="spacingAndGlyphs" textLength="38" x="52" y="133.6245">reset()</text><ellipse cx="43" cy="143.2188" fill="#84BE84" rx="3" ry="3" style="stroke: #038048; stroke-width: 1.0;"/><text fill="#000000" font-family="sans-serif" font-size="11" lengthAdjust="spacingAndGlyphs" textLength="268" x="52" y="146.4292">addProposeCombination(ProposedCombination)</text><ellipse cx="43" cy="156.0234" fill="#84BE84" rx="3" ry="3" style="stroke: #038048; stroke-width: 1.0;"/><text fill="#000000" font-family="sans-serif" font-size="11" lengthAdjust="spacingAndGlyphs" textLength="108" x="52" y="159.2339">isLooser(): boolean</text><ellipse cx="43" cy="168.8281" fill="#84BE84" rx="3" ry="3" style="stroke: #038048; stroke-width: 1.0;"/><text fill="#000000" font-family="sans-serif" font-size="11" lengthAdjust="spacingAndGlyphs" textLength="110" x="52" y="172.0386">isWinner(): boolean</text><ellipse cx="43" cy="181.6328" fill="#84BE84" rx="3" ry="3" style="stroke: #038048; stroke-width: 1.0;"/><text fill="#000000" font-family="sans-serif" font-size="11" lengthAdjust="spacingAndGlyphs" textLength="100" x="52" y="184.8433">getAttempts(): int</text><ellipse cx="43" cy="194.4375" fill="#84BE84" rx="3" ry="3" style="stroke: #038048; stroke-width: 1.0;"/><text fill="#000000" font-family="sans-serif" font-size="11" lengthAdjust="spacingAndGlyphs" textLength="294" x="52" y="197.6479">getProposedCombination(int): ProposedCombination</text><ellipse cx="43" cy="207.2422" fill="#84BE84" rx="3" ry="3" style="stroke: #038048; stroke-width: 1.0;"/><text fill="#000000" font-family="sans-serif" font-size="11" lengthAdjust="spacingAndGlyphs" textLength="118" x="52" y="210.4526">getResult(int): Result</text><!--MD5=[a212aeeb69ab78e602f8fa1f3e5ba19f]
class usantatecla.mastermind.models.SecretCombination--><rect codeLine="63" fill="#FEFECE" filter="url(#fhrdwac8nbhn0)" height="73.6094" id="usantatecla.mastermind.models.SecretCombination" style="stroke: #A80036; stroke-width: 1.5;" width="253" x="265.5" y="277"/><ellipse cx="330.75" cy="293" fill="#ADD1B2" rx="11" ry="11" style="stroke: #A80036; stroke-width: 1.0;"/><path d="M333.0938,288.6719 C332.1563,288.2344 331.5625,288.0938 330.6875,288.0938 C328.0625,288.0938 326.0625,290.1719 326.0625,292.8906 L326.0625,294.0156 C326.0625,296.5938 328.1719,298.4844 331.0625,298.4844 C332.2813,298.4844 333.4375,298.1875 334.1875,297.6406 C334.7656,297.2344 335.0938,296.7813 335.0938,296.3906 C335.0938,295.9375 334.7031,295.5469 334.2344,295.5469 C334.0156,295.5469 333.8125,295.625 333.625,295.8125 C333.1719,296.2969 333.1719,296.2969 332.9844,296.3906 C332.5625,296.6563 331.875,296.7813 331.1094,296.7813 C329.0625,296.7813 327.7656,295.6875 327.7656,293.9844 L327.7656,292.8906 C327.7656,291.1094 329.0156,289.7969 330.75,289.7969 C331.3281,289.7969 331.9375,289.9531 332.4063,290.2031 C332.8906,290.4844 333.0625,290.7031 333.1563,291.1094 C333.2188,291.5156 333.25,291.6406 333.3906,291.7656 C333.5313,291.9063 333.7656,292.0156 333.9844,292.0156 C334.25,292.0156 334.5156,291.875 334.6875,291.6563 C334.7969,291.5 334.8281,291.3125 334.8281,290.8906 L334.8281,289.4688 C334.8281,289.0313 334.8125,288.9063 334.7188,288.75 C334.5625,288.4844 334.2813,288.3438 333.9844,288.3438 C333.6875,288.3438 333.4844,288.4375 333.2656,288.75 L333.0938,288.6719 Z " fill="#000000"/><text fill="#000000" font-family="sans-serif" font-size="12" lengthAdjust="spacingAndGlyphs" textLength="114" x="351.25" y="297.1543">SecretCombination</text><line style="stroke: #A80036; stroke-width: 1.5;" x1="266.5" x2="517.5" y1="309" y2="309"/><line style="stroke: #A80036; stroke-width: 1.5;" x1="266.5" x2="517.5" y1="317" y2="317"/><polygon fill="#4177AF" points="276.5,324,272.5,330,280.5,330" style="stroke: #1963A0; stroke-width: 1.0;"/><text fill="#000000" font-family="sans-serif" font-size="11" lengthAdjust="spacingAndGlyphs" textLength="117" x="285.5" y="331.2104">SecretCombination()</text><polygon fill="#4177AF" points="276.5,336.8047,272.5,342.8047,280.5,342.8047" style="stroke: #1963A0; stroke-width: 1.0;"/><text fill="#000000" font-family="sans-serif" font-size="11" lengthAdjust="spacingAndGlyphs" textLength="227" x="285.5" y="344.0151">getResult(ProposedCombination): Result</text><!--MD5=[f33d10797af0f3b71126f0e937fc2775]
class usantatecla.mastermind.models.Result--><rect codeLine="52" fill="#FEFECE" filter="url(#fhrdwac8nbhn0)" height="124.8281" id="usantatecla.mastermind.models.Result" style="stroke: #A80036; stroke-width: 1.5;" width="136" x="457" y="411"/><ellipse cx="502.75" cy="427" fill="#ADD1B2" rx="11" ry="11" style="stroke: #A80036; stroke-width: 1.0;"/><path d="M505.0938,422.6719 C504.1563,422.2344 503.5625,422.0938 502.6875,422.0938 C500.0625,422.0938 498.0625,424.1719 498.0625,426.8906 L498.0625,428.0156 C498.0625,430.5938 500.1719,432.4844 503.0625,432.4844 C504.2813,432.4844 505.4375,432.1875 506.1875,431.6406 C506.7656,431.2344 507.0938,430.7813 507.0938,430.3906 C507.0938,429.9375 506.7031,429.5469 506.2344,429.5469 C506.0156,429.5469 505.8125,429.625 505.625,429.8125 C505.1719,430.2969 505.1719,430.2969 504.9844,430.3906 C504.5625,430.6563 503.875,430.7813 503.1094,430.7813 C501.0625,430.7813 499.7656,429.6875 499.7656,427.9844 L499.7656,426.8906 C499.7656,425.1094 501.0156,423.7969 502.75,423.7969 C503.3281,423.7969 503.9375,423.9531 504.4063,424.2031 C504.8906,424.4844 505.0625,424.7031 505.1563,425.1094 C505.2188,425.5156 505.25,425.6406 505.3906,425.7656 C505.5313,425.9063 505.7656,426.0156 505.9844,426.0156 C506.25,426.0156 506.5156,425.875 506.6875,425.6563 C506.7969,425.5 506.8281,425.3125 506.8281,424.8906 L506.8281,423.4688 C506.8281,423.0313 506.8125,422.9063 506.7188,422.75 C506.5625,422.4844 506.2813,422.3438 505.9844,422.3438 C505.6875,422.3438 505.4844,422.4375 505.2656,422.75 L505.0938,422.6719 Z " fill="#000000"/><text fill="#000000" font-family="sans-serif" font-size="12" lengthAdjust="spacingAndGlyphs" textLength="36" x="523.25" y="431.1543">Result</text><line style="stroke: #A80036; stroke-width: 1.5;" x1="458" x2="592" y1="443" y2="443"/><rect fill="none" height="6" style="stroke: #C82930; stroke-width: 1.0;" width="6" x="465" y="451"/><text fill="#000000" font-family="sans-serif" font-size="11" lengthAdjust="spacingAndGlyphs" textLength="56" x="477" y="457.2104">blacks: int</text><rect fill="none" height="6" style="stroke: #C82930; stroke-width: 1.0;" width="6" x="465" y="463.8047"/><text fill="#000000" font-family="sans-serif" font-size="11" lengthAdjust="spacingAndGlyphs" textLength="58" x="477" y="470.0151">whites: int</text><line style="stroke: #A80036; stroke-width: 1.5;" x1="458" x2="592" y1="476.6094" y2="476.6094"/><polygon fill="#4177AF" points="468,483.6094,464,489.6094,472,489.6094" style="stroke: #1963A0; stroke-width: 1.0;"/><text fill="#000000" font-family="sans-serif" font-size="11" lengthAdjust="spacingAndGlyphs" textLength="78" x="477" y="490.8198">Result(int, int)</text><polygon fill="#4177AF" points="468,496.4141,464,502.4141,472,502.4141" style="stroke: #1963A0; stroke-width: 1.0;"/><text fill="#000000" font-family="sans-serif" font-size="11" lengthAdjust="spacingAndGlyphs" textLength="110" x="477" y="503.6245">isWinner(): boolean</text><ellipse cx="468" cy="513.2188" fill="#84BE84" rx="3" ry="3" style="stroke: #038048; stroke-width: 1.0;"/><text fill="#000000" font-family="sans-serif" font-size="11" lengthAdjust="spacingAndGlyphs" textLength="84" x="477" y="516.4292">getBlacks(): int</text><ellipse cx="468" cy="526.0234" fill="#84BE84" rx="3" ry="3" style="stroke: #038048; stroke-width: 1.0;"/><text fill="#000000" font-family="sans-serif" font-size="11" lengthAdjust="spacingAndGlyphs" textLength="87" x="477" y="529.2339">getWhites(): int</text><!--MD5=[29c0d014c840bf5e3383a02197df5a5a]
class usantatecla.mastermind.models.ProposedCombination--><rect codeLine="44" fill="#FEFECE" filter="url(#fhrdwac8nbhn0)" height="86.4141" id="usantatecla.mastermind.models.ProposedCombination" style="stroke: #A80036; stroke-width: 1.5;" width="184" x="155" y="430.5"/><ellipse cx="179" cy="446.5" fill="#ADD1B2" rx="11" ry="11" style="stroke: #A80036; stroke-width: 1.0;"/><path d="M181.3438,442.1719 C180.4063,441.7344 179.8125,441.5938 178.9375,441.5938 C176.3125,441.5938 174.3125,443.6719 174.3125,446.3906 L174.3125,447.5156 C174.3125,450.0938 176.4219,451.9844 179.3125,451.9844 C180.5313,451.9844 181.6875,451.6875 182.4375,451.1406 C183.0156,450.7344 183.3438,450.2813 183.3438,449.8906 C183.3438,449.4375 182.9531,449.0469 182.4844,449.0469 C182.2656,449.0469 182.0625,449.125 181.875,449.3125 C181.4219,449.7969 181.4219,449.7969 181.2344,449.8906 C180.8125,450.1563 180.125,450.2813 179.3594,450.2813 C177.3125,450.2813 176.0156,449.1875 176.0156,447.4844 L176.0156,446.3906 C176.0156,444.6094 177.2656,443.2969 179,443.2969 C179.5781,443.2969 180.1875,443.4531 180.6563,443.7031 C181.1406,443.9844 181.3125,444.2031 181.4063,444.6094 C181.4688,445.0156 181.5,445.1406 181.6406,445.2656 C181.7813,445.4063 182.0156,445.5156 182.2344,445.5156 C182.5,445.5156 182.7656,445.375 182.9375,445.1563 C183.0469,445 183.0781,444.8125 183.0781,444.3906 L183.0781,442.9688 C183.0781,442.5313 183.0625,442.4063 182.9688,442.25 C182.8125,441.9844 182.5313,441.8438 182.2344,441.8438 C181.9375,441.8438 181.7344,441.9375 181.5156,442.25 L181.3438,442.1719 Z " fill="#000000"/><text fill="#000000" font-family="sans-serif" font-size="12" lengthAdjust="spacingAndGlyphs" textLength="132" x="195" y="450.6543">ProposedCombination</text><line style="stroke: #A80036; stroke-width: 1.5;" x1="156" x2="338" y1="462.5" y2="462.5"/><line style="stroke: #A80036; stroke-width: 1.5;" x1="156" x2="338" y1="470.5" y2="470.5"/><polygon fill="#4177AF" points="166,477.5,162,483.5,170,483.5" style="stroke: #1963A0; stroke-width: 1.0;"/><text fill="#000000" font-family="sans-serif" font-size="11" lengthAdjust="spacingAndGlyphs" textLength="158" x="175" y="484.7104">contains(Color, int): boolean</text><polygon fill="#4177AF" points="166,490.3047,162,496.3047,170,496.3047" style="stroke: #1963A0; stroke-width: 1.0;"/><text fill="#000000" font-family="sans-serif" font-size="11" lengthAdjust="spacingAndGlyphs" textLength="137" x="175" y="497.5151">contains(Color): boolean</text><ellipse cx="166" cy="507.1094" fill="#84BE84" rx="3" ry="3" style="stroke: #038048; stroke-width: 1.0;"/><text fill="#000000" font-family="sans-serif" font-size="11" lengthAdjust="spacingAndGlyphs" textLength="135" x="175" y="510.3198">getColors(): List&lt;Color&gt;</text><!--MD5=[6ebd3315cbeaf18b4e0f9c8a5569f687]
link usantatecla.mastermind.models.Combination to usantatecla.mastermind.types.Color--><path codeLine="18" d="M640.4849,183.7827 C640.4849,183.7827 674.778,424.898 611,536 C579.109,591.555 515.35,628.674 464.814,650.735 " fill="none" id="usantatecla.mastermind.models.Combination-usantatecla.mastermind.types.Color" style="stroke: #A80036; stroke-width: 1.0;"/><polygon fill="#A80036" points="452.609,655.887,462.4561,656.0717,457.2153,653.9424,459.3447,648.7016,452.609,655.887" style="stroke: #A80036; stroke-width: 1.0;"/><line style="stroke: #A80036; stroke-width: 1.0;" x1="457.2153" x2="464.5855" y1="653.9424" y2="650.8315"/><polygon fill="#A80036" points="638.115,172.019,635.3787,178.6908,640.4849,183.7827,643.2212,177.1109,638.115,172.019" style="stroke: #A80036; stroke-width: 1.0;"/><text fill="#000000" font-family="sans-serif" font-size="13" lengthAdjust="spacingAndGlyphs" textLength="7" x="460.4223" y="649.3991">*</text><!--MD5=[12c828a60891e76557ccb918ce156a05]
link usantatecla.mastermind.models.Game to usantatecla.mastermind.models.SecretCombination--><path codeLine="40" d="M296.1667,225.3132 C296.1667,225.3132 328.551,254.944 342.474,267.684 " fill="none" id="usantatecla.mastermind.models.Game-usantatecla.mastermind.models.SecretCombination" style="stroke: #A80036; stroke-width: 1.0;"/><polygon fill="#A80036" points="352.277,276.654,348.3371,267.6275,348.5881,273.2788,342.9368,273.5298,352.277,276.654" style="stroke: #A80036; stroke-width: 1.0;"/><line style="stroke: #A80036; stroke-width: 1.0;" x1="348.5881" x2="342.6865" y1="273.2788" y2="267.878"/><polygon fill="#A80036" points="287.314,217.212,289.04,224.2135,296.1667,225.3132,294.4408,218.3117,287.314,217.212" style="stroke: #A80036; stroke-width: 1.0;"/><!--MD5=[280ea308128396330f7bbc2193cef62d]
link usantatecla.mastermind.models.Game to usantatecla.mastermind.models.Result--><path codeLine="41" d="M363.2658,214.5433 C363.2658,214.5433 367.448,216.342 369,217 C441.614,247.776 490.63,212.49 536,277 C560.299,311.55 558.419,358.618 550.048,397.912 " fill="none" id="usantatecla.mastermind.models.Game-usantatecla.mastermind.models.Result" style="stroke: #A80036; stroke-width: 1.0;"/><polygon fill="#A80036" points="547.058,410.64,553.0101,402.7932,548.2014,405.7725,545.2221,400.9638,547.058,410.64" style="stroke: #A80036; stroke-width: 1.0;"/><line style="stroke: #A80036; stroke-width: 1.0;" x1="548.2014" x2="550.0315" y1="405.7725" y2="397.9845"/><polygon fill="#A80036" points="352.266,209.747,356.1671,215.8118,363.2658,214.5433,359.3647,208.4786,352.266,209.747" style="stroke: #A80036; stroke-width: 1.0;"/><text fill="#000000" font-family="sans-serif" font-size="13" lengthAdjust="spacingAndGlyphs" textLength="7" x="542.0878" y="400.0279">*</text><!--MD5=[e6a772672154e2b4215389ae3fc2764d]
link usantatecla.mastermind.models.Game to usantatecla.mastermind.models.ProposedCombination--><path codeLine="42" d="M202.5679,229.0503 C202.5679,229.0503 213.162,311.719 220,351 C223.803,372.845 228.895,396.699 233.632,417.442 " fill="none" id="usantatecla.mastermind.models.Game-usantatecla.mastermind.models.ProposedCombination" style="stroke: #A80036; stroke-width: 1.0;"/><polygon fill="#A80036" points="236.598,430.239,238.4623,420.5682,235.4689,425.3682,230.6689,422.3748,236.598,430.239" style="stroke: #A80036; stroke-width: 1.0;"/><line style="stroke: #A80036; stroke-width: 1.0;" x1="235.4689" x2="233.6625" y1="425.3682" y2="417.5745"/><polygon fill="#A80036" points="201.153,217.134,197.8883,223.5638,202.5679,229.0503,205.8325,222.6205,201.153,217.134" style="stroke: #A80036; stroke-width: 1.0;"/><text fill="#000000" font-family="sans-serif" font-size="13" lengthAdjust="spacingAndGlyphs" textLength="7" x="227.4693" y="419.5116">*</text><!--MD5=[c8e3115d06e825a18a556418b72e64a9]
reverse link usantatecla.mastermind.models.Combination to usantatecla.mastermind.models.ProposedCombination--><path codeLine="49" d="M590.174,188.127 C580.563,199.177 569.395,209.586 557,217 C436.94,288.813 337.273,169.288 248,277 C229.373,299.474 235.325,380 241.236,430.426 " fill="none" id="usantatecla.mastermind.models.Combination-backto-usantatecla.mastermind.models.ProposedCombination" style="stroke: #A80036; stroke-width: 1.0;"/><polygon fill="none" points="584.787,183.654,602.693,172.324,595.761,192.348,584.787,183.654" style="stroke: #A80036; stroke-width: 1.0;"/><!--MD5=[a41c7f13719228e6ada8a77d910bf0dc]
link usantatecla.mastermind.models.ProposedCombination to usantatecla.mastermind.types.Color--><path codeLine="50" d="M277.397,516.846 C293.005,538.589 312.596,565.882 331.144,591.721 " fill="none" id="usantatecla.mastermind.models.ProposedCombination-to-usantatecla.mastermind.types.Color" style="stroke: #A80036; stroke-width: 1.0; stroke-dasharray: 7.0,7.0;"/><polygon fill="#A80036" points="334.111,595.855,332.1117,586.2112,331.1951,591.7933,325.613,590.8767,334.111,595.855" style="stroke: #A80036; stroke-width: 1.0;"/><!--MD5=[6f6994a70a46872d34bd35a5dd21f76b]
link usantatecla.mastermind.models.Result to usantatecla.mastermind.models.Combination--><path codeLine="61" d="M545.184,410.798 C551.34,391.668 558.05,370.494 564,351 C582.246,291.221 602.096,221.957 614.774,177.134 " fill="none" id="usantatecla.mastermind.models.Result-to-usantatecla.mastermind.models.Combination" style="stroke: #A80036; stroke-width: 1.0; stroke-dasharray: 7.0,7.0;"/><polygon fill="#A80036" points="616.207,172.062,609.9098,179.6347,614.847,176.8735,617.6082,181.8107,616.207,172.062" style="stroke: #A80036; stroke-width: 1.0;"/><!--MD5=[c1581850849ed6ede223799cd35a067f]
reverse link usantatecla.mastermind.models.Combination to usantatecla.mastermind.models.SecretCombination--><path codeLine="67" d="M585.836,187.739 C576.932,198.1 567.142,208.342 557,217 C529.904,240.132 496.469,260.765 466.797,276.918 " fill="none" id="usantatecla.mastermind.models.Combination-backto-usantatecla.mastermind.models.SecretCombination" style="stroke: #A80036; stroke-width: 1.0;"/><polygon fill="none" points="580.525,183.175,598.597,172.111,591.369,192.03,580.525,183.175" style="stroke: #A80036; stroke-width: 1.0;"/><!--MD5=[37df5b907d636f1fcade6857244b0a7e]
link usantatecla.mastermind.models.SecretCombination to usantatecla.mastermind.models.Result--><path codeLine="68" d="M422.513,351.134 C436.416,367.598 453.323,387.619 469.363,406.614 " fill="none" id="usantatecla.mastermind.models.SecretCombination-to-usantatecla.mastermind.models.Result" style="stroke: #A80036; stroke-width: 1.0; stroke-dasharray: 7.0,7.0;"/><polygon fill="#A80036" points="472.986,410.904,470.2356,401.447,469.7601,407.0838,464.1233,406.6084,472.986,410.904" style="stroke: #A80036; stroke-width: 1.0;"/><!--MD5=[be5e6334e25a1733719410e897fbe715]
link usantatecla.mastermind.models.SecretCombination to usantatecla.mastermind.models.ProposedCombination--><path codeLine="69" d="M358.734,351.134 C338.099,373.548 311.396,402.553 289.269,426.587 " fill="none" id="usantatecla.mastermind.models.SecretCombination-to-usantatecla.mastermind.models.ProposedCombination" style="stroke: #A80036; stroke-width: 1.0; stroke-dasharray: 7.0,7.0;"/><polygon fill="#A80036" points="285.759,430.4,294.7971,426.4867,289.1451,426.7211,288.9107,421.0691,285.759,430.4" style="stroke: #A80036; stroke-width: 1.0;"/><!--MD5=[117e805e17dd8995bb23fe45f96608c4]
link usantatecla.mastermind.models.SecretCombination to usantatecla.mastermind.types.Color--><path codeLine="70" d="M392,351.317 C392,406.832 392,514.364 392,590.552 " fill="none" id="usantatecla.mastermind.models.SecretCombination-to-usantatecla.mastermind.types.Color" style="stroke: #A80036; stroke-width: 1.0; stroke-dasharray: 7.0,7.0;"/><polygon fill="#A80036" points="392,595.982,396,586.982,392,590.982,388,586.982,392,595.982" style="stroke: #A80036; stroke-width: 1.0;"/><!--MD5=[548d0588003ce32f8e3c337b2f7b26a7]
@startuml
enum usantatecla.mastermind.types.Color {
    + RED
    + BLUE
    + YELLOW
    + GREEN
    + ORANGE
    + PURPLE
    + NULL
    ~ {static} length(): int
    + isNull() : boolean
}

abstract class usantatecla.mastermind.models.Combination {
    - {static} WIDTH: int
    # Combination()
    + {static} getWidth(): int
}
usantatecla.mastermind.models.Combination *-down-> "*" usantatecla.mastermind.types.Color

enum usantatecla.mastermind.types.Error {
    + DUPLICATED
    + WRONG_CHARACTERS
    + WRONG_LENGTH
    + NULL
    + isNull() : boolean
}

class usantatecla.mastermind.models.Game {
    - {static} MAX_LONG: int
    - attempts: int
    + Game()
    + reset()
    + addProposeCombination(ProposedCombination)
    + isLooser(): boolean
    + isWinner(): boolean
    + getAttempts(): int
    + getProposedCombination(int): ProposedCombination
    + getResult(int): Result
}
usantatecla.mastermind.models.Game *-down-> usantatecla.mastermind.models.SecretCombination
usantatecla.mastermind.models.Game *-down-> "*" usantatecla.mastermind.models.Result
usantatecla.mastermind.models.Game *-down-> "*" usantatecla.mastermind.models.ProposedCombination

class usantatecla.mastermind.models.ProposedCombination {
    ~ contains(Color, int): boolean
    ~ contains(Color): boolean
    + getColors(): List<Color>
}
usantatecla.mastermind.models.ProposedCombination -up-|> usantatecla.mastermind.models.Combination
usantatecla.mastermind.models.ProposedCombination ..> usantatecla.mastermind.types.Color

class usantatecla.mastermind.models.Result {
    - blacks: int
    - whites: int
    ~ Result(int, int)
    ~ isWinner(): boolean
    + getBlacks(): int
    + getWhites(): int
}

usantatecla.mastermind.models.Result ..> usantatecla.mastermind.models.Combination

class usantatecla.mastermind.models.SecretCombination {
    ~ SecretCombination()
    ~ getResult(ProposedCombination): Result
}
usantatecla.mastermind.models.SecretCombination -up-|> usantatecla.mastermind.models.Combination
usantatecla.mastermind.models.SecretCombination ..> usantatecla.mastermind.models.Result
usantatecla.mastermind.models.SecretCombination ..> usantatecla.mastermind.models.ProposedCombination
usantatecla.mastermind.models.SecretCombination ..> usantatecla.mastermind.types.Color
@enduml

PlantUML version 1.2020.20beta11(Unknown compile time)
(GPL source distribution)
Java Runtime: Java(TM) SE Runtime Environment
JVM: Java HotSpot(TM) 64-Bit Server VM
Default Encoding: UTF-8
Language: en
Country: US
--></g></svg>