<?xml version="1.0" encoding="UTF-8" standalone="no"?><svg xmlns="http://www.w3.org/2000/svg" xmlns:xlink="http://www.w3.org/1999/xlink" contentScriptType="application/ecmascript" contentStyleType="text/css" height="254px" preserveAspectRatio="none" style="width:348px;height:254px;" version="1.1" viewBox="0 0 348 254" width="348px" zoomAndPan="magnify"><defs><filter height="300%" id="f1v6j7gqtzh8c2" width="300%" x="-1" y="-1"><feGaussianBlur result="blurOut" stdDeviation="2.0"/><feColorMatrix in="blurOut" result="blurOut2" type="matrix" values="0 0 0 0 0 0 0 0 0 0 0 0 0 0 0 0 0 0 .4 0"/><feOffset dx="4.0" dy="4.0" in="blurOut2" result="blurOut3"/><feBlend in="SourceGraphic" in2="blurOut3" mode="normal"/></filter></defs><g><!--MD5=[9be0839337cfdab5d118a2e29cf0a8c4]
cluster usantatecla.mastermind--><polygon fill="#FFFFFF" filter="url(#f1v6j7gqtzh8c2)" points="59.5,6,266.5,6,273.5,28.2969,276.5,28.2969,276.5,143,59.5,143,59.5,6" style="stroke: #000000; stroke-width: 1.5;"/><line style="stroke: #000000; stroke-width: 1.5;" x1="59.5" x2="273.5" y1="28.2969" y2="28.2969"/><text fill="#000000" font-family="sans-serif" font-size="14" font-weight="bold" lengthAdjust="spacingAndGlyphs" textLength="201" x="63.5" y="20.9951">usantatecla.mastermind</text><!--MD5=[904099970a9cea29a476bd38c8d887ee]
class usantatecla.mastermind.Mastermind--><rect codeLine="4" fill="#FEFECE" filter="url(#f1v6j7gqtzh8c2)" height="86.4141" id="usantatecla.mastermind.Mastermind" style="stroke: #A80036; stroke-width: 1.5;" width="134" x="100.5" y="41"/><ellipse cx="129.9" cy="57" fill="#ADD1B2" rx="11" ry="11" style="stroke: #A80036; stroke-width: 1.0;"/><path d="M132.2438,52.6719 C131.3063,52.2344 130.7125,52.0938 129.8375,52.0938 C127.2125,52.0938 125.2125,54.1719 125.2125,56.8906 L125.2125,58.0156 C125.2125,60.5938 127.3219,62.4844 130.2125,62.4844 C131.4313,62.4844 132.5875,62.1875 133.3375,61.6406 C133.9156,61.2344 134.2438,60.7813 134.2438,60.3906 C134.2438,59.9375 133.8531,59.5469 133.3844,59.5469 C133.1656,59.5469 132.9625,59.625 132.775,59.8125 C132.3219,60.2969 132.3219,60.2969 132.1344,60.3906 C131.7125,60.6563 131.025,60.7813 130.2594,60.7813 C128.2125,60.7813 126.9156,59.6875 126.9156,57.9844 L126.9156,56.8906 C126.9156,55.1094 128.1656,53.7969 129.9,53.7969 C130.4781,53.7969 131.0875,53.9531 131.5563,54.2031 C132.0406,54.4844 132.2125,54.7031 132.3063,55.1094 C132.3688,55.5156 132.4,55.6406 132.5406,55.7656 C132.6813,55.9063 132.9156,56.0156 133.1344,56.0156 C133.4,56.0156 133.6656,55.875 133.8375,55.6563 C133.9469,55.5 133.9781,55.3125 133.9781,54.8906 L133.9781,53.4688 C133.9781,53.0313 133.9625,52.9063 133.8688,52.75 C133.7125,52.4844 133.4313,52.3438 133.1344,52.3438 C132.8375,52.3438 132.6344,52.4375 132.4156,52.75 L132.2438,52.6719 Z " fill="#000000"/><text fill="#000000" font-family="sans-serif" font-size="12" lengthAdjust="spacingAndGlyphs" textLength="70" x="147.1" y="61.1543">Mastermind</text><line style="stroke: #A80036; stroke-width: 1.5;" x1="101.5" x2="233.5" y1="73" y2="73"/><line style="stroke: #A80036; stroke-width: 1.5;" x1="101.5" x2="233.5" y1="81" y2="81"/><rect fill="#F24D5C" height="6" style="stroke: #C82930; stroke-width: 1.0;" width="6" x="108.5" y="89"/><text fill="#000000" font-family="sans-serif" font-size="11" lengthAdjust="spacingAndGlyphs" textLength="74" x="120.5" y="95.2104">Mastermind()</text><rect fill="#F24D5C" height="6" style="stroke: #C82930; stroke-width: 1.0;" width="6" x="108.5" y="101.8047"/><text fill="#000000" font-family="sans-serif" font-size="11" lengthAdjust="spacingAndGlyphs" textLength="63" x="120.5" y="108.0151">play(): void</text><ellipse cx="111.5" cy="117.6094" fill="#84BE84" rx="3" ry="3" style="stroke: #038048; stroke-width: 1.0;"/><text fill="#000000" font-family="sans-serif" font-size="11" lengthAdjust="spacingAndGlyphs" text-decoration="underline" textLength="108" x="120.5" y="120.8198">main(String[]): void</text><!--MD5=[c045e12321b83266d36d22b9096c24ea]
class View--><rect codeLine="1" fill="#FEFECE" filter="url(#f1v6j7gqtzh8c2)" height="53.9375" id="View" style="stroke: #A80036; stroke-width: 1.5;" width="141" x="7" y="187"/><ellipse cx="22" cy="205.9688" fill="#ADD1B2" rx="11" ry="11" style="stroke: #A80036; stroke-width: 1.0;"/><path d="M24.3438,201.6406 C23.4063,201.2031 22.8125,201.0625 21.9375,201.0625 C19.3125,201.0625 17.3125,203.1406 17.3125,205.8594 L17.3125,206.9844 C17.3125,209.5625 19.4219,211.4531 22.3125,211.4531 C23.5313,211.4531 24.6875,211.1563 25.4375,210.6094 C26.0156,210.2031 26.3438,209.75 26.3438,209.3594 C26.3438,208.9063 25.9531,208.5156 25.4844,208.5156 C25.2656,208.5156 25.0625,208.5938 24.875,208.7813 C24.4219,209.2656 24.4219,209.2656 24.2344,209.3594 C23.8125,209.625 23.125,209.75 22.3594,209.75 C20.3125,209.75 19.0156,208.6563 19.0156,206.9531 L19.0156,205.8594 C19.0156,204.0781 20.2656,202.7656 22,202.7656 C22.5781,202.7656 23.1875,202.9219 23.6563,203.1719 C24.1406,203.4531 24.3125,203.6719 24.4063,204.0781 C24.4688,204.4844 24.5,204.6094 24.6406,204.7344 C24.7813,204.875 25.0156,204.9844 25.2344,204.9844 C25.5,204.9844 25.7656,204.8438 25.9375,204.625 C26.0469,204.4688 26.0781,204.2813 26.0781,203.8594 L26.0781,202.4375 C26.0781,202 26.0625,201.875 25.9688,201.7188 C25.8125,201.4531 25.5313,201.3125 25.2344,201.3125 C24.9375,201.3125 24.7344,201.4063 24.5156,201.7188 L24.3438,201.6406 Z " fill="#000000"/><text fill="#000000" font-family="sans-serif" font-size="12" lengthAdjust="spacingAndGlyphs" textLength="109" x="36" y="203.1387">usantatecla.views.</text><text fill="#000000" font-family="sans-serif" font-size="12" lengthAdjust="spacingAndGlyphs" textLength="29" x="76" y="217.1074">View</text><line style="stroke: #A80036; stroke-width: 1.5;" x1="8" x2="147" y1="224.9375" y2="224.9375"/><line style="stroke: #A80036; stroke-width: 1.5;" x1="8" x2="147" y1="232.9375" y2="232.9375"/><!--MD5=[b6dcce5e5ef3c84b0b048d11301373dd]
class Game--><rect codeLine="2" fill="#FEFECE" filter="url(#f1v6j7gqtzh8c2)" height="53.9375" id="Game" style="stroke: #A80036; stroke-width: 1.5;" width="151" x="183" y="187"/><ellipse cx="198" cy="205.9688" fill="#ADD1B2" rx="11" ry="11" style="stroke: #A80036; stroke-width: 1.0;"/><path d="M200.3438,201.6406 C199.4063,201.2031 198.8125,201.0625 197.9375,201.0625 C195.3125,201.0625 193.3125,203.1406 193.3125,205.8594 L193.3125,206.9844 C193.3125,209.5625 195.4219,211.4531 198.3125,211.4531 C199.5313,211.4531 200.6875,211.1563 201.4375,210.6094 C202.0156,210.2031 202.3438,209.75 202.3438,209.3594 C202.3438,208.9063 201.9531,208.5156 201.4844,208.5156 C201.2656,208.5156 201.0625,208.5938 200.875,208.7813 C200.4219,209.2656 200.4219,209.2656 200.2344,209.3594 C199.8125,209.625 199.125,209.75 198.3594,209.75 C196.3125,209.75 195.0156,208.6563 195.0156,206.9531 L195.0156,205.8594 C195.0156,204.0781 196.2656,202.7656 198,202.7656 C198.5781,202.7656 199.1875,202.9219 199.6563,203.1719 C200.1406,203.4531 200.3125,203.6719 200.4063,204.0781 C200.4688,204.4844 200.5,204.6094 200.6406,204.7344 C200.7813,204.875 201.0156,204.9844 201.2344,204.9844 C201.5,204.9844 201.7656,204.8438 201.9375,204.625 C202.0469,204.4688 202.0781,204.2813 202.0781,203.8594 L202.0781,202.4375 C202.0781,202 202.0625,201.875 201.9688,201.7188 C201.8125,201.4531 201.5313,201.3125 201.2344,201.3125 C200.9375,201.3125 200.7344,201.4063 200.5156,201.7188 L200.3438,201.6406 Z " fill="#000000"/><text fill="#000000" font-family="sans-serif" font-size="12" lengthAdjust="spacingAndGlyphs" textLength="119" x="212" y="203.1387">usantatecla.models.</text><text fill="#000000" font-family="sans-serif" font-size="12" lengthAdjust="spacingAndGlyphs" textLength="35" x="254" y="217.1074">Game</text><line style="stroke: #A80036; stroke-width: 1.5;" x1="184" x2="333" y1="224.9375" y2="224.9375"/><line style="stroke: #A80036; stroke-width: 1.5;" x1="184" x2="333" y1="232.9375" y2="232.9375"/><!--MD5=[a5f8ce13268a0ab6e1eb93d1cfb2a7ef]
link usantatecla.mastermind.Mastermind to View--><path codeLine="9" d="M130.8789,137.0834 C130.8789,137.0834 111.82,164.1894 103.5048,176.0155 " fill="none" id="usantatecla.mastermind.Mastermind-View" style="stroke: #A80036; stroke-width: 1.0;"/><polygon fill="#A80036" points="95.9054,186.8235,104.354,181.7618,98.7812,182.7333,97.8097,177.1605,95.9054,186.8235" style="stroke: #A80036; stroke-width: 1.0;"/><line style="stroke: #A80036; stroke-width: 1.0;" x1="98.7812" x2="103.3829" y1="182.7333" y2="176.1891"/><polygon fill="#A80036" points="137.781,127.267,131.0578,129.8745,130.8789,137.0834,137.6021,134.4759,137.781,127.267" style="stroke: #A80036; stroke-width: 1.0;"/><!--MD5=[c98fbe24533c431fdf254f685bb4ac7c]
link usantatecla.mastermind.Mastermind to Game--><path codeLine="10" d="M204.5013,137.0479 C204.5013,137.0479 223.799,164.1894 232.206,176.0155 " fill="none" id="usantatecla.mastermind.Mastermind-Game" style="stroke: #A80036; stroke-width: 1.0;"/><polygon fill="#A80036" points="239.89,186.8235,237.9353,177.1706,236.9929,182.7484,231.4151,181.8059,239.89,186.8235" style="stroke: #A80036; stroke-width: 1.0;"/><line style="stroke: #A80036; stroke-width: 1.0;" x1="236.9929" x2="232.3575" y1="182.7484" y2="176.2282"/><polygon fill="#A80036" points="197.549,127.267,197.7648,134.4749,204.5013,137.0479,204.2854,129.84,197.549,127.267" style="stroke: #A80036; stroke-width: 1.0;"/><!--MD5=[c17b1703d6cb7468880a4d7ebc506396]
@startuml
class View as "usantatecla.views.\nView"
class Game as "usantatecla.models.\nGame"

class usantatecla.mastermind.Mastermind{
    - Mastermind()
    - play(): void
    + {static} main(String[]): void
}
usantatecla.mastermind.Mastermind *-down-> View
usantatecla.mastermind.Mastermind *-down-> Game
@enduml

PlantUML version 1.2020.20beta11(Unknown compile time)
(GPL source distribution)
Java Runtime: Java(TM) SE Runtime Environment
JVM: Java HotSpot(TM) 64-Bit Server VM
Default Encoding: UTF-8
Language: en
Country: US
--></g></svg>