<?xml version="1.0" encoding="UTF-8" standalone="no"?><svg xmlns="http://www.w3.org/2000/svg" xmlns:xlink="http://www.w3.org/1999/xlink" contentScriptType="application/ecmascript" contentStyleType="text/css" height="1063px" preserveAspectRatio="none" style="width:2408px;height:1063px;" version="1.1" viewBox="0 0 2408 1063" width="2408px" zoomAndPan="magnify"><defs><filter height="300%" id="f1bi5ism1ogayy" width="300%" x="-1" y="-1"><feGaussianBlur result="blurOut" stdDeviation="2.0"/><feColorMatrix in="blurOut" result="blurOut2" type="matrix" values="0 0 0 0 0 0 0 0 0 0 0 0 0 0 0 0 0 0 .4 0"/><feOffset dx="4.0" dy="4.0" in="blurOut2" result="blurOut3"/><feBlend in="SourceGraphic" in2="blurOut3" mode="normal"/></filter></defs><g><!--MD5=[29d5d00c8f272934fcfbf235a28c504f]
cluster usantatecla.mastermind.views--><polygon fill="#FFFFFF" filter="url(#f1bi5ism1ogayy)" points="1061.2207,100,1318.2207,100,1325.2207,122.2969,2071.2207,122.2969,2071.2207,938,1061.2207,938,1061.2207,100" style="stroke: #000000; stroke-width: 1.5;"/><line style="stroke: #000000; stroke-width: 1.5;" x1="1061.2207" x2="1325.2207" y1="122.2969" y2="122.2969"/><text fill="#000000" font-family="sans-serif" font-size="14" font-weight="bold" lengthAdjust="spacingAndGlyphs" textLength="251" x="1065.2207" y="114.9951">usantatecla.mastermind.views</text><!--MD5=[dab5b8162ddba5d4d249ad537ad64188]
class usantatecla.mastermind.views.ColorView--><rect codeLine="11" fill="#FEFECE" filter="url(#f1bi5ism1ogayy)" height="112.0234" id="usantatecla.mastermind.views.ColorView" style="stroke: #A80036; stroke-width: 1.5;" width="161" x="1347.7207" y="752.5"/><ellipse cx="1393.4707" cy="768.5" fill="#ADD1B2" rx="11" ry="11" style="stroke: #A80036; stroke-width: 1.0;"/><path d="M1395.8145,764.1719 C1394.877,763.7344 1394.2832,763.5938 1393.4082,763.5938 C1390.7832,763.5938 1388.7832,765.6719 1388.7832,768.3906 L1388.7832,769.5156 C1388.7832,772.0938 1390.8926,773.9844 1393.7832,773.9844 C1395.002,773.9844 1396.1582,773.6875 1396.9082,773.1406 C1397.4863,772.7344 1397.8145,772.2813 1397.8145,771.8906 C1397.8145,771.4375 1397.4238,771.0469 1396.9551,771.0469 C1396.7363,771.0469 1396.5332,771.125 1396.3457,771.3125 C1395.8926,771.7969 1395.8926,771.7969 1395.7051,771.8906 C1395.2832,772.1563 1394.5957,772.2813 1393.8301,772.2813 C1391.7832,772.2813 1390.4863,771.1875 1390.4863,769.4844 L1390.4863,768.3906 C1390.4863,766.6094 1391.7363,765.2969 1393.4707,765.2969 C1394.0488,765.2969 1394.6582,765.4531 1395.127,765.7031 C1395.6113,765.9844 1395.7832,766.2031 1395.877,766.6094 C1395.9395,767.0156 1395.9707,767.1406 1396.1113,767.2656 C1396.252,767.4063 1396.4863,767.5156 1396.7051,767.5156 C1396.9707,767.5156 1397.2363,767.375 1397.4082,767.1563 C1397.5176,767 1397.5488,766.8125 1397.5488,766.3906 L1397.5488,764.9688 C1397.5488,764.5313 1397.5332,764.4063 1397.4395,764.25 C1397.2832,763.9844 1397.002,763.8438 1396.7051,763.8438 C1396.4082,763.8438 1396.2051,763.9375 1395.9863,764.25 L1395.8145,764.1719 Z " fill="#000000"/><text fill="#000000" font-family="sans-serif" font-size="12" lengthAdjust="spacingAndGlyphs" textLength="61" x="1413.9707" y="772.6543">ColorView</text><line style="stroke: #A80036; stroke-width: 1.5;" x1="1348.7207" x2="1507.7207" y1="784.5" y2="784.5"/><rect fill="none" height="6" style="stroke: #C82930; stroke-width: 1.0;" width="6" x="1355.7207" y="792.5"/><text fill="#000000" font-family="sans-serif" font-size="11" lengthAdjust="spacingAndGlyphs" text-decoration="underline" textLength="89" x="1367.7207" y="798.7104">INITIALS: char []</text><line style="stroke: #A80036; stroke-width: 1.5;" x1="1348.7207" x2="1507.7207" y1="805.3047" y2="805.3047"/><polygon fill="#4177AF" points="1358.7207,812.3047,1354.7207,818.3047,1362.7207,818.3047" style="stroke: #1963A0; stroke-width: 1.0;"/><text fill="#000000" font-family="sans-serif" font-size="11" lengthAdjust="spacingAndGlyphs" textLength="94" x="1367.7207" y="819.5151">ColorView(Color)</text><polygon fill="#4177AF" points="1358.7207,825.1094,1354.7207,831.1094,1362.7207,831.1094" style="stroke: #1963A0; stroke-width: 1.0;"/><text fill="#000000" font-family="sans-serif" font-size="11" lengthAdjust="spacingAndGlyphs" text-decoration="underline" textLength="97" x="1367.7207" y="832.3198">allInitials(): String</text><polygon fill="#4177AF" points="1358.7207,837.9141,1354.7207,843.9141,1362.7207,843.9141" style="stroke: #1963A0; stroke-width: 1.0;"/><text fill="#000000" font-family="sans-serif" font-size="11" lengthAdjust="spacingAndGlyphs" text-decoration="underline" textLength="135" x="1367.7207" y="845.1245">getInstance(char): Color</text><polygon fill="#4177AF" points="1358.7207,850.7188,1354.7207,856.7188,1362.7207,856.7188" style="stroke: #1963A0; stroke-width: 1.0;"/><text fill="#000000" font-family="sans-serif" font-size="11" lengthAdjust="spacingAndGlyphs" textLength="36" x="1367.7207" y="857.9292">write()</text><!--MD5=[bd953d99961dd365a3924fc1e98cf727]
class usantatecla.mastermind.views.ErrorView--><rect codeLine="21" fill="#FEFECE" filter="url(#f1bi5ism1ogayy)" height="86.4141" id="usantatecla.mastermind.views.ErrorView" style="stroke: #A80036; stroke-width: 1.5;" width="145" x="1420.7207" y="549"/><ellipse cx="1460.0207" cy="565" fill="#ADD1B2" rx="11" ry="11" style="stroke: #A80036; stroke-width: 1.0;"/><path d="M1462.3645,560.6719 C1461.427,560.2344 1460.8332,560.0938 1459.9582,560.0938 C1457.3332,560.0938 1455.3332,562.1719 1455.3332,564.8906 L1455.3332,566.0156 C1455.3332,568.5938 1457.4426,570.4844 1460.3332,570.4844 C1461.552,570.4844 1462.7082,570.1875 1463.4582,569.6406 C1464.0363,569.2344 1464.3645,568.7813 1464.3645,568.3906 C1464.3645,567.9375 1463.9738,567.5469 1463.5051,567.5469 C1463.2863,567.5469 1463.0832,567.625 1462.8957,567.8125 C1462.4426,568.2969 1462.4426,568.2969 1462.2551,568.3906 C1461.8332,568.6563 1461.1457,568.7813 1460.3801,568.7813 C1458.3332,568.7813 1457.0363,567.6875 1457.0363,565.9844 L1457.0363,564.8906 C1457.0363,563.1094 1458.2863,561.7969 1460.0207,561.7969 C1460.5988,561.7969 1461.2082,561.9531 1461.677,562.2031 C1462.1613,562.4844 1462.3332,562.7031 1462.427,563.1094 C1462.4895,563.5156 1462.5207,563.6406 1462.6613,563.7656 C1462.802,563.9063 1463.0363,564.0156 1463.2551,564.0156 C1463.5207,564.0156 1463.7863,563.875 1463.9582,563.6563 C1464.0676,563.5 1464.0988,563.3125 1464.0988,562.8906 L1464.0988,561.4688 C1464.0988,561.0313 1464.0832,560.9063 1463.9895,560.75 C1463.8332,560.4844 1463.552,560.3438 1463.2551,560.3438 C1462.9582,560.3438 1462.7551,560.4375 1462.5363,560.75 L1462.3645,560.6719 Z " fill="#000000"/><text fill="#000000" font-family="sans-serif" font-size="12" lengthAdjust="spacingAndGlyphs" textLength="59" x="1479.4207" y="569.1543">ErrorView</text><line style="stroke: #A80036; stroke-width: 1.5;" x1="1421.7207" x2="1564.7207" y1="581" y2="581"/><rect fill="none" height="6" style="stroke: #C82930; stroke-width: 1.0;" width="6" x="1428.7207" y="589"/><text fill="#000000" font-family="sans-serif" font-size="11" lengthAdjust="spacingAndGlyphs" text-decoration="underline" textLength="116" x="1440.7207" y="595.2104">MESSAGES: String []</text><line style="stroke: #A80036; stroke-width: 1.5;" x1="1421.7207" x2="1564.7207" y1="601.8047" y2="601.8047"/><polygon fill="#4177AF" points="1431.7207,608.8047,1427.7207,614.8047,1435.7207,614.8047" style="stroke: #1963A0; stroke-width: 1.0;"/><text fill="#000000" font-family="sans-serif" font-size="11" lengthAdjust="spacingAndGlyphs" textLength="119" x="1440.7207" y="616.0151">ErrorView(Error error)</text><polygon fill="#4177AF" points="1431.7207,621.6094,1427.7207,627.6094,1435.7207,627.6094" style="stroke: #1963A0; stroke-width: 1.0;"/><text fill="#000000" font-family="sans-serif" font-size="11" lengthAdjust="spacingAndGlyphs" textLength="46" x="1440.7207" y="628.8198">writeln()</text><!--MD5=[212a0e60755c6b1108194c65ec19a74b]
class usantatecla.mastermind.views.GameView--><rect codeLine="30" fill="#FEFECE" filter="url(#f1bi5ism1ogayy)" height="86.4141" id="usantatecla.mastermind.views.GameView" style="stroke: #A80036; stroke-width: 1.5;" width="191" x="1597.7207" y="403"/><ellipse cx="1656.9707" cy="419" fill="#ADD1B2" rx="11" ry="11" style="stroke: #A80036; stroke-width: 1.0;"/><path d="M1659.3145,414.6719 C1658.377,414.2344 1657.7832,414.0938 1656.9082,414.0938 C1654.2832,414.0938 1652.2832,416.1719 1652.2832,418.8906 L1652.2832,420.0156 C1652.2832,422.5938 1654.3926,424.4844 1657.2832,424.4844 C1658.502,424.4844 1659.6582,424.1875 1660.4082,423.6406 C1660.9863,423.2344 1661.3145,422.7813 1661.3145,422.3906 C1661.3145,421.9375 1660.9238,421.5469 1660.4551,421.5469 C1660.2363,421.5469 1660.0332,421.625 1659.8457,421.8125 C1659.3926,422.2969 1659.3926,422.2969 1659.2051,422.3906 C1658.7832,422.6563 1658.0957,422.7813 1657.3301,422.7813 C1655.2832,422.7813 1653.9863,421.6875 1653.9863,419.9844 L1653.9863,418.8906 C1653.9863,417.1094 1655.2363,415.7969 1656.9707,415.7969 C1657.5488,415.7969 1658.1582,415.9531 1658.627,416.2031 C1659.1113,416.4844 1659.2832,416.7031 1659.377,417.1094 C1659.4395,417.5156 1659.4707,417.6406 1659.6113,417.7656 C1659.752,417.9063 1659.9863,418.0156 1660.2051,418.0156 C1660.4707,418.0156 1660.7363,417.875 1660.9082,417.6563 C1661.0176,417.5 1661.0488,417.3125 1661.0488,416.8906 L1661.0488,415.4688 C1661.0488,415.0313 1661.0332,414.9063 1660.9395,414.75 C1660.7832,414.4844 1660.502,414.3438 1660.2051,414.3438 C1659.9082,414.3438 1659.7051,414.4375 1659.4863,414.75 L1659.3145,414.6719 Z " fill="#000000"/><text fill="#000000" font-family="sans-serif" font-size="12" lengthAdjust="spacingAndGlyphs" textLength="64" x="1677.4707" y="423.1543">GameView</text><line style="stroke: #A80036; stroke-width: 1.5;" x1="1598.7207" x2="1787.7207" y1="435" y2="435"/><line style="stroke: #A80036; stroke-width: 1.5;" x1="1598.7207" x2="1787.7207" y1="443" y2="443"/><polygon fill="#4177AF" points="1608.7207,450,1604.7207,456,1612.7207,456" style="stroke: #1963A0; stroke-width: 1.0;"/><text fill="#000000" font-family="sans-serif" font-size="11" lengthAdjust="spacingAndGlyphs" textLength="106" x="1617.7207" y="457.2104">GameView(Game)</text><polygon fill="#4177AF" points="1608.7207,462.8047,1604.7207,468.8047,1612.7207,468.8047" style="stroke: #1963A0; stroke-width: 1.0;"/><text fill="#000000" font-family="sans-serif" font-size="11" lengthAdjust="spacingAndGlyphs" textLength="36" x="1617.7207" y="470.0151">write()</text><polygon fill="#4177AF" points="1608.7207,475.6094,1604.7207,481.6094,1612.7207,481.6094" style="stroke: #1963A0; stroke-width: 1.0;"/><text fill="#000000" font-family="sans-serif" font-size="11" lengthAdjust="spacingAndGlyphs" textLength="165" x="1617.7207" y="482.8198">isWinnerOrLooser() : boolean</text><!--MD5=[826ffe1d7ae0fc27ec50d9c84508f1a7]
class usantatecla.mastermind.views.SecretCombinationView--><rect codeLine="97" fill="#FEFECE" filter="url(#f1bi5ism1ogayy)" height="73.6094" id="usantatecla.mastermind.views.SecretCombinationView" style="stroke: #A80036; stroke-width: 1.5;" width="175" x="1805.7207" y="555"/><ellipse cx="1820.7207" cy="571" fill="#ADD1B2" rx="11" ry="11" style="stroke: #A80036; stroke-width: 1.0;"/><path d="M1823.0645,566.6719 C1822.127,566.2344 1821.5332,566.0938 1820.6582,566.0938 C1818.0332,566.0938 1816.0332,568.1719 1816.0332,570.8906 L1816.0332,572.0156 C1816.0332,574.5938 1818.1426,576.4844 1821.0332,576.4844 C1822.252,576.4844 1823.4082,576.1875 1824.1582,575.6406 C1824.7363,575.2344 1825.0645,574.7813 1825.0645,574.3906 C1825.0645,573.9375 1824.6738,573.5469 1824.2051,573.5469 C1823.9863,573.5469 1823.7832,573.625 1823.5957,573.8125 C1823.1426,574.2969 1823.1426,574.2969 1822.9551,574.3906 C1822.5332,574.6563 1821.8457,574.7813 1821.0801,574.7813 C1819.0332,574.7813 1817.7363,573.6875 1817.7363,571.9844 L1817.7363,570.8906 C1817.7363,569.1094 1818.9863,567.7969 1820.7207,567.7969 C1821.2988,567.7969 1821.9082,567.9531 1822.377,568.2031 C1822.8613,568.4844 1823.0332,568.7031 1823.127,569.1094 C1823.1895,569.5156 1823.2207,569.6406 1823.3613,569.7656 C1823.502,569.9063 1823.7363,570.0156 1823.9551,570.0156 C1824.2207,570.0156 1824.4863,569.875 1824.6582,569.6563 C1824.7676,569.5 1824.7988,569.3125 1824.7988,568.8906 L1824.7988,567.4688 C1824.7988,567.0313 1824.7832,566.9063 1824.6895,566.75 C1824.5332,566.4844 1824.252,566.3438 1823.9551,566.3438 C1823.6582,566.3438 1823.4551,566.4375 1823.2363,566.75 L1823.0645,566.6719 Z " fill="#000000"/><text fill="#000000" font-family="sans-serif" font-size="12" lengthAdjust="spacingAndGlyphs" textLength="143" x="1834.7207" y="575.1543">SecretCombinationView</text><line style="stroke: #A80036; stroke-width: 1.5;" x1="1806.7207" x2="1979.7207" y1="587" y2="587"/><line style="stroke: #A80036; stroke-width: 1.5;" x1="1806.7207" x2="1979.7207" y1="595" y2="595"/><polygon fill="#4177AF" points="1816.7207,602,1812.7207,608,1820.7207,608" style="stroke: #1963A0; stroke-width: 1.0;"/><text fill="#000000" font-family="sans-serif" font-size="11" lengthAdjust="spacingAndGlyphs" textLength="145" x="1825.7207" y="609.2104">SecretCombinationView()</text><polygon fill="#4177AF" points="1816.7207,614.8047,1812.7207,620.8047,1820.7207,620.8047" style="stroke: #1963A0; stroke-width: 1.0;"/><text fill="#000000" font-family="sans-serif" font-size="11" lengthAdjust="spacingAndGlyphs" textLength="46" x="1825.7207" y="622.0151">writeln()</text><!--MD5=[869bb932d54482a0e6fc3ac31d21d51b]
class usantatecla.mastermind.views.MessageView--><rect codeLine="42" fill="#FEFECE" filter="url(#f1bi5ism1ogayy)" height="227.2656" id="usantatecla.mastermind.views.MessageView" style="stroke: #A80036; stroke-width: 1.5;" width="173" x="1682.7207" y="695"/><ellipse cx="1723.3707" cy="711" fill="#EB937F" rx="11" ry="11" style="stroke: #A80036; stroke-width: 1.0;"/><path d="M1722.1676,711.875 L1723.6207,711.875 L1723.6207,711.9844 C1723.6207,712.3906 1723.652,712.5469 1723.7301,712.7031 C1723.8863,712.9531 1724.1676,713.1094 1724.4645,713.1094 C1724.7145,713.1094 1724.9801,712.9688 1725.1363,712.75 C1725.2613,712.5938 1725.2926,712.4375 1725.2926,711.9844 L1725.2926,710.0625 C1725.2926,709.9063 1725.2926,709.8594 1725.277,709.7031 C1725.2145,709.2344 1724.902,708.9219 1724.4488,708.9219 C1724.1988,708.9219 1723.9332,709.0625 1723.7613,709.2813 C1723.652,709.4531 1723.6207,709.6094 1723.6207,710.0625 L1723.6207,710.1875 L1722.1676,710.1875 L1722.1676,707.7813 L1726.152,707.7813 L1726.152,708.6406 C1726.152,709.0469 1726.1832,709.2188 1726.2613,709.375 C1726.4332,709.625 1726.7145,709.7813 1726.9957,709.7813 C1727.2613,709.7813 1727.527,709.6406 1727.6988,709.4219 C1727.8082,709.25 1727.8395,709.1094 1727.8395,708.6406 L1727.8395,706.0938 L1720.2145,706.0938 C1719.777,706.0938 1719.652,706.1094 1719.4957,706.2031 C1719.2457,706.3594 1719.0895,706.6563 1719.0895,706.9375 C1719.0895,707.2188 1719.2301,707.4688 1719.4488,707.6406 C1719.6051,707.75 1719.7926,707.7813 1720.2145,707.7813 L1720.4645,707.7813 L1720.4645,714.2969 L1720.2145,714.2969 C1719.8082,714.2969 1719.652,714.3125 1719.4957,714.4219 C1719.2457,714.5938 1719.0895,714.8594 1719.0895,715.1563 C1719.0895,715.4219 1719.2301,715.6719 1719.4488,715.8281 C1719.5895,715.9531 1719.8238,716 1720.2145,716 L1728.2145,716 L1728.2145,713.4219 C1728.2145,712.9844 1728.1832,712.8438 1728.1051,712.6875 C1727.9332,712.4375 1727.652,712.2813 1727.3707,712.2813 C1727.1051,712.2813 1726.8395,712.3906 1726.6676,712.6406 C1726.5582,712.7969 1726.527,712.9375 1726.527,713.4219 L1726.527,714.2969 L1722.1676,714.2969 L1722.1676,711.875 Z " fill="#000000"/><text fill="#000000" font-family="sans-serif" font-size="12" lengthAdjust="spacingAndGlyphs" textLength="84" x="1743.0707" y="715.1543">MessageView</text><line style="stroke: #A80036; stroke-width: 1.5;" x1="1683.7207" x2="1854.7207" y1="727" y2="727"/><ellipse cx="1693.7207" cy="738" fill="none" rx="3" ry="3" style="stroke: #038048; stroke-width: 1.0;"/><text fill="#000000" font-family="sans-serif" font-size="11" lengthAdjust="spacingAndGlyphs" textLength="59" x="1702.7207" y="741.2104">ATTEMPTS</text><ellipse cx="1693.7207" cy="750.8047" fill="none" rx="3" ry="3" style="stroke: #038048; stroke-width: 1.0;"/><text fill="#000000" font-family="sans-serif" font-size="11" lengthAdjust="spacingAndGlyphs" textLength="130" x="1702.7207" y="754.0151">SECRET_COMBINATION</text><ellipse cx="1693.7207" cy="763.6094" fill="none" rx="3" ry="3" style="stroke: #038048; stroke-width: 1.0;"/><text fill="#000000" font-family="sans-serif" font-size="11" lengthAdjust="spacingAndGlyphs" textLength="46" x="1702.7207" y="766.8198">RESUME</text><ellipse cx="1693.7207" cy="776.4141" fill="none" rx="3" ry="3" style="stroke: #038048; stroke-width: 1.0;"/><text fill="#000000" font-family="sans-serif" font-size="11" lengthAdjust="spacingAndGlyphs" textLength="43" x="1702.7207" y="779.6245">RESULT</text><ellipse cx="1693.7207" cy="789.2188" fill="none" rx="3" ry="3" style="stroke: #038048; stroke-width: 1.0;"/><text fill="#000000" font-family="sans-serif" font-size="11" lengthAdjust="spacingAndGlyphs" textLength="147" x="1702.7207" y="792.4292">PROPOSED_COMBINATION</text><ellipse cx="1693.7207" cy="802.0234" fill="none" rx="3" ry="3" style="stroke: #038048; stroke-width: 1.0;"/><text fill="#000000" font-family="sans-serif" font-size="11" lengthAdjust="spacingAndGlyphs" textLength="30" x="1702.7207" y="805.2339">TITLE</text><ellipse cx="1693.7207" cy="814.8281" fill="none" rx="3" ry="3" style="stroke: #038048; stroke-width: 1.0;"/><text fill="#000000" font-family="sans-serif" font-size="11" lengthAdjust="spacingAndGlyphs" textLength="44" x="1702.7207" y="818.0386">WINNER</text><ellipse cx="1693.7207" cy="827.6328" fill="none" rx="3" ry="3" style="stroke: #038048; stroke-width: 1.0;"/><text fill="#000000" font-family="sans-serif" font-size="11" lengthAdjust="spacingAndGlyphs" textLength="46" x="1702.7207" y="830.8433">LOOSER</text><rect fill="none" height="6" style="stroke: #C82930; stroke-width: 1.0;" width="6" x="1690.7207" y="837.4375"/><text fill="#000000" font-family="sans-serif" font-size="11" lengthAdjust="spacingAndGlyphs" textLength="93" x="1702.7207" y="843.6479">message: String</text><line style="stroke: #A80036; stroke-width: 1.5;" x1="1683.7207" x2="1854.7207" y1="850.2422" y2="850.2422"/><polygon fill="#4177AF" points="1693.7207,857.2422,1689.7207,863.2422,1697.7207,863.2422" style="stroke: #1963A0; stroke-width: 1.0;"/><text fill="#000000" font-family="sans-serif" font-size="11" lengthAdjust="spacingAndGlyphs" textLength="120" x="1702.7207" y="864.4526">MessageView(String)</text><polygon fill="#4177AF" points="1693.7207,870.0469,1689.7207,876.0469,1697.7207,876.0469" style="stroke: #1963A0; stroke-width: 1.0;"/><text fill="#000000" font-family="sans-serif" font-size="11" lengthAdjust="spacingAndGlyphs" textLength="36" x="1702.7207" y="877.2573">write()</text><polygon fill="#4177AF" points="1693.7207,882.8516,1689.7207,888.8516,1697.7207,888.8516" style="stroke: #1963A0; stroke-width: 1.0;"/><text fill="#000000" font-family="sans-serif" font-size="11" lengthAdjust="spacingAndGlyphs" textLength="46" x="1702.7207" y="890.062">writeln()</text><polygon fill="#4177AF" points="1693.7207,895.6563,1689.7207,901.6563,1697.7207,901.6563" style="stroke: #1963A0; stroke-width: 1.0;"/><text fill="#000000" font-family="sans-serif" font-size="11" lengthAdjust="spacingAndGlyphs" textLength="60" x="1702.7207" y="902.8667">writeln(int)</text><polygon fill="#4177AF" points="1693.7207,908.4609,1689.7207,914.4609,1697.7207,914.4609" style="stroke: #1963A0; stroke-width: 1.0;"/><text fill="#000000" font-family="sans-serif" font-size="11" lengthAdjust="spacingAndGlyphs" textLength="81" x="1702.7207" y="915.6714">writeln(int, int)</text><!--MD5=[9baa3c67970b674f09e45f119e307b36]
class usantatecla.mastermind.views.ProposedCombinationView--><rect codeLine="69" fill="#FEFECE" filter="url(#f1bi5ism1ogayy)" height="86.4141" id="usantatecla.mastermind.views.ProposedCombinationView" style="stroke: #A80036; stroke-width: 1.5;" width="308" x="1077.2207" y="549"/><ellipse cx="1146.4707" cy="565" fill="#ADD1B2" rx="11" ry="11" style="stroke: #A80036; stroke-width: 1.0;"/><path d="M1148.8145,560.6719 C1147.877,560.2344 1147.2832,560.0938 1146.4082,560.0938 C1143.7832,560.0938 1141.7832,562.1719 1141.7832,564.8906 L1141.7832,566.0156 C1141.7832,568.5938 1143.8926,570.4844 1146.7832,570.4844 C1148.002,570.4844 1149.1582,570.1875 1149.9082,569.6406 C1150.4863,569.2344 1150.8145,568.7813 1150.8145,568.3906 C1150.8145,567.9375 1150.4238,567.5469 1149.9551,567.5469 C1149.7363,567.5469 1149.5332,567.625 1149.3457,567.8125 C1148.8926,568.2969 1148.8926,568.2969 1148.7051,568.3906 C1148.2832,568.6563 1147.5957,568.7813 1146.8301,568.7813 C1144.7832,568.7813 1143.4863,567.6875 1143.4863,565.9844 L1143.4863,564.8906 C1143.4863,563.1094 1144.7363,561.7969 1146.4707,561.7969 C1147.0488,561.7969 1147.6582,561.9531 1148.127,562.2031 C1148.6113,562.4844 1148.7832,562.7031 1148.877,563.1094 C1148.9395,563.5156 1148.9707,563.6406 1149.1113,563.7656 C1149.252,563.9063 1149.4863,564.0156 1149.7051,564.0156 C1149.9707,564.0156 1150.2363,563.875 1150.4082,563.6563 C1150.5176,563.5 1150.5488,563.3125 1150.5488,562.8906 L1150.5488,561.4688 C1150.5488,561.0313 1150.5332,560.9063 1150.4395,560.75 C1150.2832,560.4844 1150.002,560.3438 1149.7051,560.3438 C1149.4082,560.3438 1149.2051,560.4375 1148.9863,560.75 L1148.8145,560.6719 Z " fill="#000000"/><text fill="#000000" font-family="sans-serif" font-size="12" lengthAdjust="spacingAndGlyphs" textLength="161" x="1166.9707" y="569.1543">ProposedCombinationView</text><line style="stroke: #A80036; stroke-width: 1.5;" x1="1078.2207" x2="1384.2207" y1="581" y2="581"/><line style="stroke: #A80036; stroke-width: 1.5;" x1="1078.2207" x2="1384.2207" y1="589" y2="589"/><polygon fill="#4177AF" points="1088.2207,596,1084.2207,602,1092.2207,602" style="stroke: #1963A0; stroke-width: 1.0;"/><text fill="#000000" font-family="sans-serif" font-size="11" lengthAdjust="spacingAndGlyphs" textLength="282" x="1097.2207" y="603.2104">ProposedCombinationView(ProposedCombination)</text><polygon fill="#4177AF" points="1088.2207,608.8047,1084.2207,614.8047,1092.2207,614.8047" style="stroke: #1963A0; stroke-width: 1.0;"/><text fill="#000000" font-family="sans-serif" font-size="11" lengthAdjust="spacingAndGlyphs" textLength="36" x="1097.2207" y="616.0151">write()</text><polygon fill="#4177AF" points="1088.2207,621.6094,1084.2207,627.6094,1092.2207,627.6094" style="stroke: #1963A0; stroke-width: 1.0;"/><text fill="#000000" font-family="sans-serif" font-size="11" lengthAdjust="spacingAndGlyphs" textLength="34" x="1097.2207" y="628.8198">read()</text><!--MD5=[417e2fbd6195c1b6c8b5b41eb42f33ec]
class usantatecla.mastermind.views.ResultView--><rect codeLine="82" fill="#FEFECE" filter="url(#f1bi5ism1ogayy)" height="73.6094" id="usantatecla.mastermind.views.ResultView" style="stroke: #A80036; stroke-width: 1.5;" width="132" x="1601.2207" y="555"/><ellipse cx="1631.9707" cy="571" fill="#ADD1B2" rx="11" ry="11" style="stroke: #A80036; stroke-width: 1.0;"/><path d="M1634.3145,566.6719 C1633.377,566.2344 1632.7832,566.0938 1631.9082,566.0938 C1629.2832,566.0938 1627.2832,568.1719 1627.2832,570.8906 L1627.2832,572.0156 C1627.2832,574.5938 1629.3926,576.4844 1632.2832,576.4844 C1633.502,576.4844 1634.6582,576.1875 1635.4082,575.6406 C1635.9863,575.2344 1636.3145,574.7813 1636.3145,574.3906 C1636.3145,573.9375 1635.9238,573.5469 1635.4551,573.5469 C1635.2363,573.5469 1635.0332,573.625 1634.8457,573.8125 C1634.3926,574.2969 1634.3926,574.2969 1634.2051,574.3906 C1633.7832,574.6563 1633.0957,574.7813 1632.3301,574.7813 C1630.2832,574.7813 1628.9863,573.6875 1628.9863,571.9844 L1628.9863,570.8906 C1628.9863,569.1094 1630.2363,567.7969 1631.9707,567.7969 C1632.5488,567.7969 1633.1582,567.9531 1633.627,568.2031 C1634.1113,568.4844 1634.2832,568.7031 1634.377,569.1094 C1634.4395,569.5156 1634.4707,569.6406 1634.6113,569.7656 C1634.752,569.9063 1634.9863,570.0156 1635.2051,570.0156 C1635.4707,570.0156 1635.7363,569.875 1635.9082,569.6563 C1636.0176,569.5 1636.0488,569.3125 1636.0488,568.8906 L1636.0488,567.4688 C1636.0488,567.0313 1636.0332,566.9063 1635.9395,566.75 C1635.7832,566.4844 1635.502,566.3438 1635.2051,566.3438 C1634.9082,566.3438 1634.7051,566.4375 1634.4863,566.75 L1634.3145,566.6719 Z " fill="#000000"/><text fill="#000000" font-family="sans-serif" font-size="12" lengthAdjust="spacingAndGlyphs" textLength="65" x="1649.4707" y="575.1543">ResultView</text><line style="stroke: #A80036; stroke-width: 1.5;" x1="1602.2207" x2="1732.2207" y1="587" y2="587"/><line style="stroke: #A80036; stroke-width: 1.5;" x1="1602.2207" x2="1732.2207" y1="595" y2="595"/><polygon fill="#4177AF" points="1612.2207,602,1608.2207,608,1616.2207,608" style="stroke: #1963A0; stroke-width: 1.0;"/><text fill="#000000" font-family="sans-serif" font-size="11" lengthAdjust="spacingAndGlyphs" textLength="106" x="1621.2207" y="609.2104">ResultView(Result)</text><polygon fill="#4177AF" points="1612.2207,614.8047,1608.2207,620.8047,1616.2207,620.8047" style="stroke: #1963A0; stroke-width: 1.0;"/><text fill="#000000" font-family="sans-serif" font-size="11" lengthAdjust="spacingAndGlyphs" textLength="46" x="1621.2207" y="622.0151">writeln()</text><!--MD5=[319c5dc11669ced95ee1d652131436b7]
class usantatecla.mastermind.views.ProposalView--><rect codeLine="60" fill="#FEFECE" filter="url(#f1bi5ism1ogayy)" height="73.6094" id="usantatecla.mastermind.views.ProposalView" style="stroke: #A80036; stroke-width: 1.5;" width="144" x="1621.2207" y="269"/><ellipse cx="1650.1707" cy="285" fill="#ADD1B2" rx="11" ry="11" style="stroke: #A80036; stroke-width: 1.0;"/><path d="M1652.5145,280.6719 C1651.577,280.2344 1650.9832,280.0938 1650.1082,280.0938 C1647.4832,280.0938 1645.4832,282.1719 1645.4832,284.8906 L1645.4832,286.0156 C1645.4832,288.5938 1647.5926,290.4844 1650.4832,290.4844 C1651.702,290.4844 1652.8582,290.1875 1653.6082,289.6406 C1654.1863,289.2344 1654.5145,288.7813 1654.5145,288.3906 C1654.5145,287.9375 1654.1238,287.5469 1653.6551,287.5469 C1653.4363,287.5469 1653.2332,287.625 1653.0457,287.8125 C1652.5926,288.2969 1652.5926,288.2969 1652.4051,288.3906 C1651.9832,288.6563 1651.2957,288.7813 1650.5301,288.7813 C1648.4832,288.7813 1647.1863,287.6875 1647.1863,285.9844 L1647.1863,284.8906 C1647.1863,283.1094 1648.4363,281.7969 1650.1707,281.7969 C1650.7488,281.7969 1651.3582,281.9531 1651.827,282.2031 C1652.3113,282.4844 1652.4832,282.7031 1652.577,283.1094 C1652.6395,283.5156 1652.6707,283.6406 1652.8113,283.7656 C1652.952,283.9063 1653.1863,284.0156 1653.4051,284.0156 C1653.6707,284.0156 1653.9363,283.875 1654.1082,283.6563 C1654.2176,283.5 1654.2488,283.3125 1654.2488,282.8906 L1654.2488,281.4688 C1654.2488,281.0313 1654.2332,280.9063 1654.1395,280.75 C1653.9832,280.4844 1653.702,280.3438 1653.4051,280.3438 C1653.1082,280.3438 1652.9051,280.4375 1652.6863,280.75 L1652.5145,280.6719 Z " fill="#000000"/><text fill="#000000" font-family="sans-serif" font-size="12" lengthAdjust="spacingAndGlyphs" textLength="81" x="1667.2707" y="289.1543">ProposalView</text><line style="stroke: #A80036; stroke-width: 1.5;" x1="1622.2207" x2="1764.2207" y1="301" y2="301"/><line style="stroke: #A80036; stroke-width: 1.5;" x1="1622.2207" x2="1764.2207" y1="309" y2="309"/><polygon fill="#4177AF" points="1632.2207,316,1628.2207,322,1636.2207,322" style="stroke: #1963A0; stroke-width: 1.0;"/><text fill="#000000" font-family="sans-serif" font-size="11" lengthAdjust="spacingAndGlyphs" textLength="118" x="1641.2207" y="323.2104">ProposalView(Game)</text><polygon fill="#4177AF" points="1632.2207,328.8047,1628.2207,334.8047,1636.2207,334.8047" style="stroke: #1963A0; stroke-width: 1.0;"/><text fill="#000000" font-family="sans-serif" font-size="11" lengthAdjust="spacingAndGlyphs" textLength="104" x="1641.2207" y="336.0151">interact(): boolean</text><!--MD5=[f2328b4c97b842ac1a4522e7c76a3a7f]
class usantatecla.mastermind.views.ResumeView--><rect codeLine="89" fill="#FEFECE" filter="url(#f1bi5ism1ogayy)" height="73.6094" id="usantatecla.mastermind.views.ResumeView" style="stroke: #A80036; stroke-width: 1.5;" width="144" x="1911.2207" y="269"/><ellipse cx="1941.9707" cy="285" fill="#ADD1B2" rx="11" ry="11" style="stroke: #A80036; stroke-width: 1.0;"/><path d="M1944.3145,280.6719 C1943.377,280.2344 1942.7832,280.0938 1941.9082,280.0938 C1939.2832,280.0938 1937.2832,282.1719 1937.2832,284.8906 L1937.2832,286.0156 C1937.2832,288.5938 1939.3926,290.4844 1942.2832,290.4844 C1943.502,290.4844 1944.6582,290.1875 1945.4082,289.6406 C1945.9863,289.2344 1946.3145,288.7813 1946.3145,288.3906 C1946.3145,287.9375 1945.9238,287.5469 1945.4551,287.5469 C1945.2363,287.5469 1945.0332,287.625 1944.8457,287.8125 C1944.3926,288.2969 1944.3926,288.2969 1944.2051,288.3906 C1943.7832,288.6563 1943.0957,288.7813 1942.3301,288.7813 C1940.2832,288.7813 1938.9863,287.6875 1938.9863,285.9844 L1938.9863,284.8906 C1938.9863,283.1094 1940.2363,281.7969 1941.9707,281.7969 C1942.5488,281.7969 1943.1582,281.9531 1943.627,282.2031 C1944.1113,282.4844 1944.2832,282.7031 1944.377,283.1094 C1944.4395,283.5156 1944.4707,283.6406 1944.6113,283.7656 C1944.752,283.9063 1944.9863,284.0156 1945.2051,284.0156 C1945.4707,284.0156 1945.7363,283.875 1945.9082,283.6563 C1946.0176,283.5 1946.0488,283.3125 1946.0488,282.8906 L1946.0488,281.4688 C1946.0488,281.0313 1946.0332,280.9063 1945.9395,280.75 C1945.7832,280.4844 1945.502,280.3438 1945.2051,280.3438 C1944.9082,280.3438 1944.7051,280.4375 1944.4863,280.75 L1944.3145,280.6719 Z " fill="#000000"/><text fill="#000000" font-family="sans-serif" font-size="12" lengthAdjust="spacingAndGlyphs" textLength="77" x="1959.4707" y="289.1543">ResumeView</text><line style="stroke: #A80036; stroke-width: 1.5;" x1="1912.2207" x2="2054.2207" y1="301" y2="301"/><line style="stroke: #A80036; stroke-width: 1.5;" x1="1912.2207" x2="2054.2207" y1="309" y2="309"/><polygon fill="#4177AF" points="1922.2207,316,1918.2207,322,1926.2207,322" style="stroke: #1963A0; stroke-width: 1.0;"/><text fill="#000000" font-family="sans-serif" font-size="11" lengthAdjust="spacingAndGlyphs" textLength="118" x="1931.2207" y="323.2104">ResumeView(Game)</text><polygon fill="#4177AF" points="1922.2207,328.8047,1918.2207,334.8047,1926.2207,334.8047" style="stroke: #1963A0; stroke-width: 1.0;"/><text fill="#000000" font-family="sans-serif" font-size="11" lengthAdjust="spacingAndGlyphs" textLength="104" x="1931.2207" y="336.0151">interact(): boolean</text><!--MD5=[ee0b5fdabe0a489c3962ab40c84a426b]
class usantatecla.mastermind.views.StartView--><rect codeLine="104" fill="#FEFECE" filter="url(#f1bi5ism1ogayy)" height="60.8047" id="usantatecla.mastermind.views.StartView" style="stroke: #A80036; stroke-width: 1.5;" width="89" x="1848.7207" y="415.5"/><ellipse cx="1863.7207" cy="431.5" fill="#ADD1B2" rx="11" ry="11" style="stroke: #A80036; stroke-width: 1.0;"/><path d="M1866.0645,427.1719 C1865.127,426.7344 1864.5332,426.5938 1863.6582,426.5938 C1861.0332,426.5938 1859.0332,428.6719 1859.0332,431.3906 L1859.0332,432.5156 C1859.0332,435.0938 1861.1426,436.9844 1864.0332,436.9844 C1865.252,436.9844 1866.4082,436.6875 1867.1582,436.1406 C1867.7363,435.7344 1868.0645,435.2813 1868.0645,434.8906 C1868.0645,434.4375 1867.6738,434.0469 1867.2051,434.0469 C1866.9863,434.0469 1866.7832,434.125 1866.5957,434.3125 C1866.1426,434.7969 1866.1426,434.7969 1865.9551,434.8906 C1865.5332,435.1563 1864.8457,435.2813 1864.0801,435.2813 C1862.0332,435.2813 1860.7363,434.1875 1860.7363,432.4844 L1860.7363,431.3906 C1860.7363,429.6094 1861.9863,428.2969 1863.7207,428.2969 C1864.2988,428.2969 1864.9082,428.4531 1865.377,428.7031 C1865.8613,428.9844 1866.0332,429.2031 1866.127,429.6094 C1866.1895,430.0156 1866.2207,430.1406 1866.3613,430.2656 C1866.502,430.4063 1866.7363,430.5156 1866.9551,430.5156 C1867.2207,430.5156 1867.4863,430.375 1867.6582,430.1563 C1867.7676,430 1867.7988,429.8125 1867.7988,429.3906 L1867.7988,427.9688 C1867.7988,427.5313 1867.7832,427.4063 1867.6895,427.25 C1867.5332,426.9844 1867.252,426.8438 1866.9551,426.8438 C1866.6582,426.8438 1866.4551,426.9375 1866.2363,427.25 L1866.0645,427.1719 Z " fill="#000000"/><text fill="#000000" font-family="sans-serif" font-size="12" lengthAdjust="spacingAndGlyphs" textLength="57" x="1877.7207" y="435.6543">StartView</text><line style="stroke: #A80036; stroke-width: 1.5;" x1="1849.7207" x2="1936.7207" y1="447.5" y2="447.5"/><line style="stroke: #A80036; stroke-width: 1.5;" x1="1849.7207" x2="1936.7207" y1="455.5" y2="455.5"/><polygon fill="#4177AF" points="1859.7207,462.5,1855.7207,468.5,1863.7207,468.5" style="stroke: #1963A0; stroke-width: 1.0;"/><text fill="#000000" font-family="sans-serif" font-size="11" lengthAdjust="spacingAndGlyphs" textLength="51" x="1868.7207" y="469.7104">interact()</text><!--MD5=[f5534db0476bcf0d5af6a596dc954aba]
class usantatecla.mastermind.views.View--><rect codeLine="110" fill="#FEFECE" filter="url(#f1bi5ism1ogayy)" height="73.6094" id="usantatecla.mastermind.views.View" style="stroke: #A80036; stroke-width: 1.5;" width="97" x="1934.7207" y="135"/><ellipse cx="1965.9207" cy="151" fill="#ADD1B2" rx="11" ry="11" style="stroke: #A80036; stroke-width: 1.0;"/><path d="M1968.2645,146.6719 C1967.327,146.2344 1966.7332,146.0938 1965.8582,146.0938 C1963.2332,146.0938 1961.2332,148.1719 1961.2332,150.8906 L1961.2332,152.0156 C1961.2332,154.5938 1963.3426,156.4844 1966.2332,156.4844 C1967.452,156.4844 1968.6082,156.1875 1969.3582,155.6406 C1969.9363,155.2344 1970.2645,154.7813 1970.2645,154.3906 C1970.2645,153.9375 1969.8738,153.5469 1969.4051,153.5469 C1969.1863,153.5469 1968.9832,153.625 1968.7957,153.8125 C1968.3426,154.2969 1968.3426,154.2969 1968.1551,154.3906 C1967.7332,154.6563 1967.0457,154.7813 1966.2801,154.7813 C1964.2332,154.7813 1962.9363,153.6875 1962.9363,151.9844 L1962.9363,150.8906 C1962.9363,149.1094 1964.1863,147.7969 1965.9207,147.7969 C1966.4988,147.7969 1967.1082,147.9531 1967.577,148.2031 C1968.0613,148.4844 1968.2332,148.7031 1968.327,149.1094 C1968.3895,149.5156 1968.4207,149.6406 1968.5613,149.7656 C1968.702,149.9063 1968.9363,150.0156 1969.1551,150.0156 C1969.4207,150.0156 1969.6863,149.875 1969.8582,149.6563 C1969.9676,149.5 1969.9988,149.3125 1969.9988,148.8906 L1969.9988,147.4688 C1969.9988,147.0313 1969.9832,146.9063 1969.8895,146.75 C1969.7332,146.4844 1969.452,146.3438 1969.1551,146.3438 C1968.8582,146.3438 1968.6551,146.4375 1968.4363,146.75 L1968.2645,146.6719 Z " fill="#000000"/><text fill="#000000" font-family="sans-serif" font-size="12" lengthAdjust="spacingAndGlyphs" textLength="29" x="1983.5207" y="155.1543">View</text><line style="stroke: #A80036; stroke-width: 1.5;" x1="1935.7207" x2="2030.7207" y1="167" y2="167"/><line style="stroke: #A80036; stroke-width: 1.5;" x1="1935.7207" x2="2030.7207" y1="175" y2="175"/><ellipse cx="1945.7207" cy="186" fill="#84BE84" rx="3" ry="3" style="stroke: #038048; stroke-width: 1.0;"/><text fill="#000000" font-family="sans-serif" font-size="11" lengthAdjust="spacingAndGlyphs" textLength="71" x="1954.7207" y="189.2104">View(Game)</text><ellipse cx="1945.7207" cy="198.8047" fill="#84BE84" rx="3" ry="3" style="stroke: #038048; stroke-width: 1.0;"/><text fill="#000000" font-family="sans-serif" font-size="11" lengthAdjust="spacingAndGlyphs" textLength="51" x="1954.7207" y="202.0151">interact()</text><!--MD5=[ce3aceb15685c4a66d1e1b8ea7e2c984]
class ColorCode--><rect codeLine="1" fill="#FEFECE" filter="url(#f1bi5ism1ogayy)" height="67.9063" id="ColorCode" style="stroke: #A80036; stroke-width: 1.5;" width="133" x="2261.7207" y="412"/><ellipse cx="2276.7207" cy="437.9531" fill="#ADD1B2" rx="11" ry="11" style="stroke: #A80036; stroke-width: 1.0;"/><path d="M2279.0645,433.625 C2278.127,433.1875 2277.5332,433.0469 2276.6582,433.0469 C2274.0332,433.0469 2272.0332,435.125 2272.0332,437.8438 L2272.0332,438.9688 C2272.0332,441.5469 2274.1426,443.4375 2277.0332,443.4375 C2278.252,443.4375 2279.4082,443.1406 2280.1582,442.5938 C2280.7363,442.1875 2281.0645,441.7344 2281.0645,441.3438 C2281.0645,440.8906 2280.6738,440.5 2280.2051,440.5 C2279.9863,440.5 2279.7832,440.5781 2279.5957,440.7656 C2279.1426,441.25 2279.1426,441.25 2278.9551,441.3438 C2278.5332,441.6094 2277.8457,441.7344 2277.0801,441.7344 C2275.0332,441.7344 2273.7363,440.6406 2273.7363,438.9375 L2273.7363,437.8438 C2273.7363,436.0625 2274.9863,434.75 2276.7207,434.75 C2277.2988,434.75 2277.9082,434.9063 2278.377,435.1563 C2278.8613,435.4375 2279.0332,435.6563 2279.127,436.0625 C2279.1895,436.4688 2279.2207,436.5938 2279.3613,436.7188 C2279.502,436.8594 2279.7363,436.9688 2279.9551,436.9688 C2280.2207,436.9688 2280.4863,436.8281 2280.6582,436.6094 C2280.7676,436.4531 2280.7988,436.2656 2280.7988,435.8438 L2280.7988,434.4219 C2280.7988,433.9844 2280.7832,433.8594 2280.6895,433.7031 C2280.5332,433.4375 2280.252,433.2969 2279.9551,433.2969 C2279.6582,433.2969 2279.4551,433.3906 2279.2363,433.7031 L2279.0645,433.625 Z " fill="#000000"/><text fill="#000000" font-family="sans-serif" font-size="12" lengthAdjust="spacingAndGlyphs" textLength="71" x="2305.7207" y="428.1387">usantatecla.</text><text fill="#000000" font-family="sans-serif" font-size="12" lengthAdjust="spacingAndGlyphs" textLength="101" x="2290.7207" y="442.1074">mastermind.utils.</text><text fill="#000000" font-family="sans-serif" font-size="12" lengthAdjust="spacingAndGlyphs" textLength="64" x="2309.2207" y="456.0762">ColorCode</text><line style="stroke: #A80036; stroke-width: 1.5;" x1="2262.7207" x2="2393.7207" y1="463.9063" y2="463.9063"/><line style="stroke: #A80036; stroke-width: 1.5;" x1="2262.7207" x2="2393.7207" y1="471.9063" y2="471.9063"/><!--MD5=[b8cfd8c4119a3b0a7a46bfc5fc780f85]
class Error--><rect codeLine="2" fill="#FEFECE" filter="url(#f1bi5ism1ogayy)" height="67.9063" id="Error" style="stroke: #A80036; stroke-width: 1.5;" width="154" x="631.2167" y="774.5"/><ellipse cx="646.2167" cy="800.4531" fill="#ADD1B2" rx="11" ry="11" style="stroke: #A80036; stroke-width: 1.0;"/><path d="M648.5605,796.125 C647.623,795.6875 647.0292,795.5469 646.1542,795.5469 C643.5292,795.5469 641.5292,797.625 641.5292,800.3438 L641.5292,801.4688 C641.5292,804.0469 643.6386,805.9375 646.5292,805.9375 C647.748,805.9375 648.9042,805.6406 649.6542,805.0938 C650.2323,804.6875 650.5605,804.2344 650.5605,803.8438 C650.5605,803.3906 650.1698,803 649.7011,803 C649.4823,803 649.2792,803.0781 649.0917,803.2656 C648.6386,803.75 648.6386,803.75 648.4511,803.8438 C648.0292,804.1094 647.3417,804.2344 646.5761,804.2344 C644.5292,804.2344 643.2323,803.1406 643.2323,801.4375 L643.2323,800.3438 C643.2323,798.5625 644.4823,797.25 646.2167,797.25 C646.7948,797.25 647.4042,797.4063 647.873,797.6563 C648.3573,797.9375 648.5292,798.1563 648.623,798.5625 C648.6855,798.9688 648.7167,799.0938 648.8573,799.2188 C648.998,799.3594 649.2323,799.4688 649.4511,799.4688 C649.7167,799.4688 649.9823,799.3281 650.1542,799.1094 C650.2636,798.9531 650.2948,798.7656 650.2948,798.3438 L650.2948,796.9219 C650.2948,796.4844 650.2792,796.3594 650.1855,796.2031 C650.0292,795.9375 649.748,795.7969 649.4511,795.7969 C649.1542,795.7969 648.9511,795.8906 648.7323,796.2031 L648.5605,796.125 Z " fill="#000000"/><text fill="#000000" font-family="sans-serif" font-size="12" lengthAdjust="spacingAndGlyphs" textLength="71" x="685.7167" y="790.6387">usantatecla.</text><text fill="#000000" font-family="sans-serif" font-size="12" lengthAdjust="spacingAndGlyphs" textLength="122" x="660.2167" y="804.6074">mastermind.models.</text><text fill="#000000" font-family="sans-serif" font-size="12" lengthAdjust="spacingAndGlyphs" textLength="30" x="706.2167" y="818.5762">Error</text><line style="stroke: #A80036; stroke-width: 1.5;" x1="632.2167" x2="784.2167" y1="826.4063" y2="826.4063"/><line style="stroke: #A80036; stroke-width: 1.5;" x1="632.2167" x2="784.2167" y1="834.4063" y2="834.4063"/><!--MD5=[18eee71c88ab61f27581b8cbdd3ef5ee]
class Color--><rect codeLine="3" fill="#FEFECE" filter="url(#f1bi5ism1ogayy)" height="67.9063" id="Color" style="stroke: #A80036; stroke-width: 1.5;" width="154" x="1138.2207" y="982"/><ellipse cx="1153.2207" cy="1007.9531" fill="#ADD1B2" rx="11" ry="11" style="stroke: #A80036; stroke-width: 1.0;"/><path d="M1155.5645,1003.625 C1154.627,1003.1875 1154.0332,1003.0469 1153.1582,1003.0469 C1150.5332,1003.0469 1148.5332,1005.125 1148.5332,1007.8438 L1148.5332,1008.9688 C1148.5332,1011.5469 1150.6426,1013.4375 1153.5332,1013.4375 C1154.752,1013.4375 1155.9082,1013.1406 1156.6582,1012.5938 C1157.2363,1012.1875 1157.5645,1011.7344 1157.5645,1011.3438 C1157.5645,1010.8906 1157.1738,1010.5 1156.7051,1010.5 C1156.4863,1010.5 1156.2832,1010.5781 1156.0957,1010.7656 C1155.6426,1011.25 1155.6426,1011.25 1155.4551,1011.3438 C1155.0332,1011.6094 1154.3457,1011.7344 1153.5801,1011.7344 C1151.5332,1011.7344 1150.2363,1010.6406 1150.2363,1008.9375 L1150.2363,1007.8438 C1150.2363,1006.0625 1151.4863,1004.75 1153.2207,1004.75 C1153.7988,1004.75 1154.4082,1004.9063 1154.877,1005.1563 C1155.3613,1005.4375 1155.5332,1005.6563 1155.627,1006.0625 C1155.6895,1006.4688 1155.7207,1006.5938 1155.8613,1006.7188 C1156.002,1006.8594 1156.2363,1006.9688 1156.4551,1006.9688 C1156.7207,1006.9688 1156.9863,1006.8281 1157.1582,1006.6094 C1157.2676,1006.4531 1157.2988,1006.2656 1157.2988,1005.8438 L1157.2988,1004.4219 C1157.2988,1003.9844 1157.2832,1003.8594 1157.1895,1003.7031 C1157.0332,1003.4375 1156.752,1003.2969 1156.4551,1003.2969 C1156.1582,1003.2969 1155.9551,1003.3906 1155.7363,1003.7031 L1155.5645,1003.625 Z " fill="#000000"/><text fill="#000000" font-family="sans-serif" font-size="12" lengthAdjust="spacingAndGlyphs" textLength="71" x="1192.7207" y="998.1387">usantatecla.</text><text fill="#000000" font-family="sans-serif" font-size="12" lengthAdjust="spacingAndGlyphs" textLength="122" x="1167.2207" y="1012.1074">mastermind.models.</text><text fill="#000000" font-family="sans-serif" font-size="12" lengthAdjust="spacingAndGlyphs" textLength="32" x="1212.2207" y="1026.0762">Color</text><line style="stroke: #A80036; stroke-width: 1.5;" x1="1139.2207" x2="1291.2207" y1="1033.9063" y2="1033.9063"/><line style="stroke: #A80036; stroke-width: 1.5;" x1="1139.2207" x2="1291.2207" y1="1041.9063" y2="1041.9063"/><!--MD5=[28491d17d5ee38c9c116625a5ffc259a]
class Combination--><rect codeLine="4" fill="#FEFECE" filter="url(#f1bi5ism1ogayy)" height="67.9063" id="Combination" style="stroke: #A80036; stroke-width: 1.5;" width="156" x="440.2167" y="774.5"/><ellipse cx="455.2167" cy="800.4531" fill="#A9DCDF" rx="11" ry="11" style="stroke: #A80036; stroke-width: 1.0;"/><path d="M457.2948,802.2656 L457.6855,803.25 L457.2948,803.25 C456.8417,803.25 456.7323,803.2656 456.5761,803.375 C456.3261,803.5313 456.1698,803.8125 456.1698,804.1094 C456.1698,804.375 456.3105,804.625 456.5292,804.7813 C456.6698,804.9063 456.873,804.9531 457.2948,804.9531 L459.6542,804.9531 C460.0136,804.9531 460.2323,804.9219 460.373,804.8281 C460.623,804.6875 460.7792,804.3906 460.7792,804.1094 C460.7792,803.8281 460.6386,803.5781 460.4198,803.4219 C460.248,803.2813 460.0917,803.25 459.623,803.25 L456.2323,795.0469 L452.5605,795.0469 C452.1073,795.0469 451.9823,795.0625 451.8261,795.1563 C451.5761,795.3281 451.4198,795.6094 451.4198,795.8906 C451.4198,796.1719 451.5605,796.4219 451.7792,796.5938 C451.9511,796.7031 452.123,796.7344 452.5605,796.7344 L453.6386,796.7344 L450.998,803.25 C450.5761,803.25 450.4198,803.2656 450.2636,803.375 C450.0136,803.5313 449.8573,803.8125 449.8573,804.1094 C449.8573,804.6719 450.2323,804.9531 450.9823,804.9531 L453.248,804.9531 C453.6073,804.9531 453.8261,804.9219 453.9511,804.8281 C454.2167,804.6875 454.3573,804.3906 454.3573,804.1094 C454.3573,803.8281 454.2323,803.5781 454.0136,803.4063 C453.8417,803.2813 453.7011,803.25 453.248,803.25 L452.8573,803.25 L453.248,802.2656 L457.2948,802.2656 Z M456.5917,800.5625 L453.9198,800.5625 L455.2636,797.2969 L456.5917,800.5625 Z " fill="#000000"/><text fill="#000000" font-family="sans-serif" font-size="12" font-style="italic" lengthAdjust="spacingAndGlyphs" textLength="74" x="494.2167" y="790.6387">usantatecla.</text><text fill="#000000" font-family="sans-serif" font-size="12" font-style="italic" lengthAdjust="spacingAndGlyphs" textLength="124" x="469.2167" y="804.6074">mastermind.models.</text><text fill="#000000" font-family="sans-serif" font-size="12" font-style="italic" lengthAdjust="spacingAndGlyphs" textLength="76" x="493.2167" y="818.5762">Combination</text><line style="stroke: #A80036; stroke-width: 1.5;" x1="441.2167" x2="595.2167" y1="826.4063" y2="826.4063"/><line style="stroke: #A80036; stroke-width: 1.5;" x1="441.2167" x2="595.2167" y1="834.4063" y2="834.4063"/><!--MD5=[cf489b19c51ee25e76ddca093e62e620]
class ProposedCombination--><rect codeLine="5" fill="#FEFECE" filter="url(#f1bi5ism1ogayy)" height="67.9063" id="ProposedCombination" style="stroke: #A80036; stroke-width: 1.5;" width="164" x="99.2164" y="774.5"/><ellipse cx="114.2164" cy="800.4531" fill="#ADD1B2" rx="11" ry="11" style="stroke: #A80036; stroke-width: 1.0;"/><path d="M116.5602,796.125 C115.6227,795.6875 115.0289,795.5469 114.1539,795.5469 C111.5289,795.5469 109.5289,797.625 109.5289,800.3438 L109.5289,801.4688 C109.5289,804.0469 111.6383,805.9375 114.5289,805.9375 C115.7477,805.9375 116.9039,805.6406 117.6539,805.0938 C118.232,804.6875 118.5602,804.2344 118.5602,803.8438 C118.5602,803.3906 118.1695,803 117.7008,803 C117.482,803 117.2789,803.0781 117.0914,803.2656 C116.6383,803.75 116.6383,803.75 116.4508,803.8438 C116.0289,804.1094 115.3414,804.2344 114.5758,804.2344 C112.5289,804.2344 111.232,803.1406 111.232,801.4375 L111.232,800.3438 C111.232,798.5625 112.482,797.25 114.2164,797.25 C114.7945,797.25 115.4039,797.4063 115.8727,797.6563 C116.357,797.9375 116.5289,798.1563 116.6227,798.5625 C116.6852,798.9688 116.7164,799.0938 116.857,799.2188 C116.9977,799.3594 117.232,799.4688 117.4508,799.4688 C117.7164,799.4688 117.982,799.3281 118.1539,799.1094 C118.2633,798.9531 118.2945,798.7656 118.2945,798.3438 L118.2945,796.9219 C118.2945,796.4844 118.2789,796.3594 118.1852,796.2031 C118.0289,795.9375 117.7477,795.7969 117.4508,795.7969 C117.1539,795.7969 116.9508,795.8906 116.732,796.2031 L116.5602,796.125 Z " fill="#000000"/><text fill="#000000" font-family="sans-serif" font-size="12" lengthAdjust="spacingAndGlyphs" textLength="71" x="158.7164" y="790.6387">usantatecla.</text><text fill="#000000" font-family="sans-serif" font-size="12" lengthAdjust="spacingAndGlyphs" textLength="122" x="133.2164" y="804.6074">mastermind.models.</text><text fill="#000000" font-family="sans-serif" font-size="12" lengthAdjust="spacingAndGlyphs" textLength="132" x="128.2164" y="818.5762">ProposedCombination</text><line style="stroke: #A80036; stroke-width: 1.5;" x1="100.2164" x2="262.2164" y1="826.4063" y2="826.4063"/><line style="stroke: #A80036; stroke-width: 1.5;" x1="100.2164" x2="262.2164" y1="834.4063" y2="834.4063"/><!--MD5=[2741598bdf59a7d7e0d5c97658fd3022]
class Result--><rect codeLine="6" fill="#FEFECE" filter="url(#f1bi5ism1ogayy)" height="67.9063" id="Result" style="stroke: #A80036; stroke-width: 1.5;" width="154" x="891.2167" y="774.5"/><ellipse cx="906.2167" cy="800.4531" fill="#ADD1B2" rx="11" ry="11" style="stroke: #A80036; stroke-width: 1.0;"/><path d="M908.5605,796.125 C907.623,795.6875 907.0292,795.5469 906.1542,795.5469 C903.5292,795.5469 901.5292,797.625 901.5292,800.3438 L901.5292,801.4688 C901.5292,804.0469 903.6386,805.9375 906.5292,805.9375 C907.748,805.9375 908.9042,805.6406 909.6542,805.0938 C910.2323,804.6875 910.5605,804.2344 910.5605,803.8438 C910.5605,803.3906 910.1698,803 909.7011,803 C909.4823,803 909.2792,803.0781 909.0917,803.2656 C908.6386,803.75 908.6386,803.75 908.4511,803.8438 C908.0292,804.1094 907.3417,804.2344 906.5761,804.2344 C904.5292,804.2344 903.2323,803.1406 903.2323,801.4375 L903.2323,800.3438 C903.2323,798.5625 904.4823,797.25 906.2167,797.25 C906.7948,797.25 907.4042,797.4063 907.873,797.6563 C908.3573,797.9375 908.5292,798.1563 908.623,798.5625 C908.6855,798.9688 908.7167,799.0938 908.8573,799.2188 C908.998,799.3594 909.2323,799.4688 909.4511,799.4688 C909.7167,799.4688 909.9823,799.3281 910.1542,799.1094 C910.2636,798.9531 910.2948,798.7656 910.2948,798.3438 L910.2948,796.9219 C910.2948,796.4844 910.2792,796.3594 910.1855,796.2031 C910.0292,795.9375 909.748,795.7969 909.4511,795.7969 C909.1542,795.7969 908.9511,795.8906 908.7323,796.2031 L908.5605,796.125 Z " fill="#000000"/><text fill="#000000" font-family="sans-serif" font-size="12" lengthAdjust="spacingAndGlyphs" textLength="71" x="945.7167" y="790.6387">usantatecla.</text><text fill="#000000" font-family="sans-serif" font-size="12" lengthAdjust="spacingAndGlyphs" textLength="122" x="920.2167" y="804.6074">mastermind.models.</text><text fill="#000000" font-family="sans-serif" font-size="12" lengthAdjust="spacingAndGlyphs" textLength="36" x="963.2167" y="818.5762">Result</text><line style="stroke: #A80036; stroke-width: 1.5;" x1="892.2167" x2="1044.2167" y1="826.4063" y2="826.4063"/><line style="stroke: #A80036; stroke-width: 1.5;" x1="892.2167" x2="1044.2167" y1="834.4063" y2="834.4063"/><!--MD5=[b6dcce5e5ef3c84b0b048d11301373dd]
class Game--><rect codeLine="7" fill="#FEFECE" filter="url(#f1bi5ism1ogayy)" height="67.9063" id="Game" style="stroke: #A80036; stroke-width: 1.5;" width="154" x="2090.2207" y="558"/><ellipse cx="2105.2207" cy="583.9531" fill="#ADD1B2" rx="11" ry="11" style="stroke: #A80036; stroke-width: 1.0;"/><path d="M2107.5645,579.625 C2106.627,579.1875 2106.0332,579.0469 2105.1582,579.0469 C2102.5332,579.0469 2100.5332,581.125 2100.5332,583.8438 L2100.5332,584.9688 C2100.5332,587.5469 2102.6426,589.4375 2105.5332,589.4375 C2106.752,589.4375 2107.9082,589.1406 2108.6582,588.5938 C2109.2363,588.1875 2109.5645,587.7344 2109.5645,587.3438 C2109.5645,586.8906 2109.1738,586.5 2108.7051,586.5 C2108.4863,586.5 2108.2832,586.5781 2108.0957,586.7656 C2107.6426,587.25 2107.6426,587.25 2107.4551,587.3438 C2107.0332,587.6094 2106.3457,587.7344 2105.5801,587.7344 C2103.5332,587.7344 2102.2363,586.6406 2102.2363,584.9375 L2102.2363,583.8438 C2102.2363,582.0625 2103.4863,580.75 2105.2207,580.75 C2105.7988,580.75 2106.4082,580.9063 2106.877,581.1563 C2107.3613,581.4375 2107.5332,581.6563 2107.627,582.0625 C2107.6895,582.4688 2107.7207,582.5938 2107.8613,582.7188 C2108.002,582.8594 2108.2363,582.9688 2108.4551,582.9688 C2108.7207,582.9688 2108.9863,582.8281 2109.1582,582.6094 C2109.2676,582.4531 2109.2988,582.2656 2109.2988,581.8438 L2109.2988,580.4219 C2109.2988,579.9844 2109.2832,579.8594 2109.1895,579.7031 C2109.0332,579.4375 2108.752,579.2969 2108.4551,579.2969 C2108.1582,579.2969 2107.9551,579.3906 2107.7363,579.7031 L2107.5645,579.625 Z " fill="#000000"/><text fill="#000000" font-family="sans-serif" font-size="12" lengthAdjust="spacingAndGlyphs" textLength="71" x="2144.7207" y="574.1387">usantatecla.</text><text fill="#000000" font-family="sans-serif" font-size="12" lengthAdjust="spacingAndGlyphs" textLength="122" x="2119.2207" y="588.1074">mastermind.models.</text><text fill="#000000" font-family="sans-serif" font-size="12" lengthAdjust="spacingAndGlyphs" textLength="35" x="2162.7207" y="602.0762">Game</text><line style="stroke: #A80036; stroke-width: 1.5;" x1="2091.2207" x2="2243.2207" y1="609.9063" y2="609.9063"/><line style="stroke: #A80036; stroke-width: 1.5;" x1="2091.2207" x2="2243.2207" y1="617.9063" y2="617.9063"/><!--MD5=[d93cf99d2b92276f27fe8dbf15140505]
class YesNoDialog--><rect codeLine="8" fill="#FEFECE" filter="url(#f1bi5ism1ogayy)" height="67.9063" id="YesNoDialog" style="stroke: #A80036; stroke-width: 1.5;" width="108" x="1827.2207" y="7"/><ellipse cx="1842.2207" cy="32.9531" fill="#ADD1B2" rx="11" ry="11" style="stroke: #A80036; stroke-width: 1.0;"/><path d="M1844.5645,28.625 C1843.627,28.1875 1843.0332,28.0469 1842.1582,28.0469 C1839.5332,28.0469 1837.5332,30.125 1837.5332,32.8438 L1837.5332,33.9688 C1837.5332,36.5469 1839.6426,38.4375 1842.5332,38.4375 C1843.752,38.4375 1844.9082,38.1406 1845.6582,37.5938 C1846.2363,37.1875 1846.5645,36.7344 1846.5645,36.3438 C1846.5645,35.8906 1846.1738,35.5 1845.7051,35.5 C1845.4863,35.5 1845.2832,35.5781 1845.0957,35.7656 C1844.6426,36.25 1844.6426,36.25 1844.4551,36.3438 C1844.0332,36.6094 1843.3457,36.7344 1842.5801,36.7344 C1840.5332,36.7344 1839.2363,35.6406 1839.2363,33.9375 L1839.2363,32.8438 C1839.2363,31.0625 1840.4863,29.75 1842.2207,29.75 C1842.7988,29.75 1843.4082,29.9063 1843.877,30.1563 C1844.3613,30.4375 1844.5332,30.6563 1844.627,31.0625 C1844.6895,31.4688 1844.7207,31.5938 1844.8613,31.7188 C1845.002,31.8594 1845.2363,31.9688 1845.4551,31.9688 C1845.7207,31.9688 1845.9863,31.8281 1846.1582,31.6094 C1846.2676,31.4531 1846.2988,31.2656 1846.2988,30.8438 L1846.2988,29.4219 C1846.2988,28.9844 1846.2832,28.8594 1846.1895,28.7031 C1846.0332,28.4375 1845.752,28.2969 1845.4551,28.2969 C1845.1582,28.2969 1844.9551,28.3906 1844.7363,28.7031 L1844.5645,28.625 Z " fill="#000000"/><text fill="#000000" font-family="sans-serif" font-size="12" lengthAdjust="spacingAndGlyphs" textLength="71" x="1858.7207" y="23.1387">usantatecla.</text><text fill="#000000" font-family="sans-serif" font-size="12" lengthAdjust="spacingAndGlyphs" textLength="27" x="1880.7207" y="37.1074">utils.</text><text fill="#000000" font-family="sans-serif" font-size="12" lengthAdjust="spacingAndGlyphs" textLength="76" x="1856.2207" y="51.0762">YesNoDialog</text><line style="stroke: #A80036; stroke-width: 1.5;" x1="1828.2207" x2="1934.2207" y1="58.9063" y2="58.9063"/><line style="stroke: #A80036; stroke-width: 1.5;" x1="1828.2207" x2="1934.2207" y1="66.9063" y2="66.9063"/><!--MD5=[315b61b427ec618d6861d47eee00cca3]
class Console--><rect codeLine="9" fill="#FEFECE" filter="url(#f1bi5ism1ogayy)" height="67.9063" id="Console" style="stroke: #A80036; stroke-width: 1.5;" width="103" x="786.7167" y="982"/><ellipse cx="801.7167" cy="1007.9531" fill="#ADD1B2" rx="11" ry="11" style="stroke: #A80036; stroke-width: 1.0;"/><path d="M804.0605,1003.625 C803.123,1003.1875 802.5292,1003.0469 801.6542,1003.0469 C799.0292,1003.0469 797.0292,1005.125 797.0292,1007.8438 L797.0292,1008.9688 C797.0292,1011.5469 799.1386,1013.4375 802.0292,1013.4375 C803.248,1013.4375 804.4042,1013.1406 805.1542,1012.5938 C805.7323,1012.1875 806.0605,1011.7344 806.0605,1011.3438 C806.0605,1010.8906 805.6698,1010.5 805.2011,1010.5 C804.9823,1010.5 804.7792,1010.5781 804.5917,1010.7656 C804.1386,1011.25 804.1386,1011.25 803.9511,1011.3438 C803.5292,1011.6094 802.8417,1011.7344 802.0761,1011.7344 C800.0292,1011.7344 798.7323,1010.6406 798.7323,1008.9375 L798.7323,1007.8438 C798.7323,1006.0625 799.9823,1004.75 801.7167,1004.75 C802.2948,1004.75 802.9042,1004.9063 803.373,1005.1563 C803.8573,1005.4375 804.0292,1005.6563 804.123,1006.0625 C804.1855,1006.4688 804.2167,1006.5938 804.3573,1006.7188 C804.498,1006.8594 804.7323,1006.9688 804.9511,1006.9688 C805.2167,1006.9688 805.4823,1006.8281 805.6542,1006.6094 C805.7636,1006.4531 805.7948,1006.2656 805.7948,1005.8438 L805.7948,1004.4219 C805.7948,1003.9844 805.7792,1003.8594 805.6855,1003.7031 C805.5292,1003.4375 805.248,1003.2969 804.9511,1003.2969 C804.6542,1003.2969 804.4511,1003.3906 804.2323,1003.7031 L804.0605,1003.625 Z " fill="#000000"/><text fill="#000000" font-family="sans-serif" font-size="12" lengthAdjust="spacingAndGlyphs" textLength="71" x="815.7167" y="998.1387">usantatecla.</text><text fill="#000000" font-family="sans-serif" font-size="12" lengthAdjust="spacingAndGlyphs" textLength="27" x="837.7167" y="1012.1074">utils.</text><text fill="#000000" font-family="sans-serif" font-size="12" lengthAdjust="spacingAndGlyphs" textLength="49" x="826.7167" y="1026.0762">Console</text><line style="stroke: #A80036; stroke-width: 1.5;" x1="787.7167" x2="888.7167" y1="1033.9063" y2="1033.9063"/><line style="stroke: #A80036; stroke-width: 1.5;" x1="787.7167" x2="888.7167" y1="1041.9063" y2="1041.9063"/><!--MD5=[b8e7a0ae8ffce36e5e03f76ef98debd5]
reverse link ColorCode to usantatecla.mastermind.views.ColorView--><path codeLine="18" d="M2326.3807,485.505 C2322.0707,529.193 2307.9307,599.029 2262.2207,635 C2157.4307,717.451 1793.6607,659.22 1665.2207,695 C1610.8107,710.156 1553.5107,737.024 1508.8707,760.702 " fill="none" id="ColorCode-backto-usantatecla.mastermind.views.ColorView" style="stroke: #A80036; stroke-width: 1.0; stroke-dasharray: 7.0,7.0;"/><polygon fill="#A80036" points="2326.8607,480.311,2322.0532,488.9068,2326.4027,485.29,2330.0196,489.6395,2326.8607,480.311" style="stroke: #A80036; stroke-width: 1.0;"/><!--MD5=[037b2a79b64666ba83d382cd2f7d163f]
link usantatecla.mastermind.views.ColorView to Color--><path codeLine="19" d="M1362.5058,872.903 C1362.5058,872.903 1288.5507,944.246 1259.0607,972.7002 " fill="none" id="usantatecla.mastermind.views.ColorView-Color" style="stroke: #A80036; stroke-width: 1.0;"/><polygon fill="#A80036" points="1249.4607,981.9597,1258.7145,978.5882,1253.0586,978.4876,1253.1592,972.8316,1249.4607,981.9597" style="stroke: #A80036; stroke-width: 1.0;"/><line style="stroke: #A80036; stroke-width: 1.0;" x1="1253.0586" x2="1258.8207" y1="978.4876" y2="972.9335"/><polygon fill="#A80036" points="1371.1407,864.57,1364.0456,865.8582,1362.5058,872.903,1369.6009,871.6148,1371.1407,864.57" style="stroke: #A80036; stroke-width: 1.0;"/><!--MD5=[41b24afec43bb3213296ed92b425fcbe]
link usantatecla.mastermind.views.ErrorView to Error--><path codeLine="26" d="M1409.1354,632.9329 C1409.1354,632.9329 1404.1007,634.484 1402.2207,635 C1147.9707,704.51 1048.0407,577.28 812.2167,695 C781.3277,710.419 755.0277,739.121 736.6017,763.674 " fill="none" id="usantatecla.mastermind.views.ErrorView-Error" style="stroke: #A80036; stroke-width: 1.0;"/><polygon fill="#A80036" points="728.9507,774.245,737.4679,769.2996,731.8823,770.1946,730.9873,764.609,728.9507,774.245" style="stroke: #A80036; stroke-width: 1.0;"/><line style="stroke: #A80036; stroke-width: 1.0;" x1="731.8823" x2="736.5732" y1="770.1946" y2="763.7145"/><polygon fill="#A80036" points="1420.5007,629.082,1413.5344,627.219,1409.1354,632.9329,1416.1017,634.7959,1420.5007,629.082" style="stroke: #A80036; stroke-width: 1.0;"/><!--MD5=[23fe9cc800f1edc669d74feefb61dc25]
link usantatecla.mastermind.views.ErrorView to usantatecla.mastermind.views.ColorView--><path codeLine="27" d="M1480.4507,635.122 C1470.7607,667.102 1457.3007,711.514 1446.4707,747.249 " fill="none" id="usantatecla.mastermind.views.ErrorView-to-usantatecla.mastermind.views.ColorView" style="stroke: #A80036; stroke-width: 1.0; stroke-dasharray: 7.0,7.0;"/><polygon fill="#A80036" points="1444.9007,752.456,1451.3386,745.0025,1446.3505,747.6708,1443.6823,742.6828,1444.9007,752.456" style="stroke: #A80036; stroke-width: 1.0;"/><!--MD5=[2ab14ef0c676d1e092523411315054a4]
link usantatecla.mastermind.views.ErrorView to Console--><path codeLine="28" d="M1420.4707,629.004 C1414.3807,631.27 1408.2507,633.313 1402.2207,635 C1288.2807,666.862 956.7067,611.176 873.2167,695 C798.4557,770.06 815.2207,909.417 828.9587,976.6946 " fill="none" id="usantatecla.mastermind.views.ErrorView-to-Console" style="stroke: #A80036; stroke-width: 1.0; stroke-dasharray: 7.0,7.0;"/><polygon fill="#A80036" points="830.0247,981.8036,832.1022,972.1763,829.0035,976.909,824.2708,973.8103,830.0247,981.8036" style="stroke: #A80036; stroke-width: 1.0;"/><!--MD5=[f3262bb1d0e247f9b0497e858399faf2]
link usantatecla.mastermind.views.GameView to Game--><path codeLine="35" d="M1800.3084,480.1751 C1800.3084,480.1751 1821.5407,486.321 1831.2207,489 C1937.1807,518.349 1967.1507,513.507 2071.2207,549 C2075.0107,550.294 2078.8607,551.677 2082.7407,553.123 " fill="none" id="usantatecla.mastermind.views.GameView-Game" style="stroke: #A80036; stroke-width: 1.0;"/><polygon fill="#A80036" points="2095.1307,557.928,2088.1858,550.9446,2090.4689,556.1202,2085.2933,558.4034,2095.1307,557.928" style="stroke: #A80036; stroke-width: 1.0;"/><line style="stroke: #A80036; stroke-width: 1.0;" x1="2090.4689" x2="2083.0057" y1="556.1202" y2="553.228"/><polygon fill="#A80036" points="1788.8007,476.773,1793.4205,482.3099,1800.3084,480.1751,1795.6885,474.6381,1788.8007,476.773" style="stroke: #A80036; stroke-width: 1.0;"/><!--MD5=[d21d0405a173f87ae1b9534fb23491c5]
link usantatecla.mastermind.views.GameView to usantatecla.mastermind.views.SecretCombinationView--><path codeLine="36" d="M1761.3374,496.0521 C1761.3374,496.0521 1810.2207,531.241 1832.3107,547.151 " fill="none" id="usantatecla.mastermind.views.GameView-usantatecla.mastermind.views.SecretCombinationView" style="stroke: #A80036; stroke-width: 1.0;"/><polygon fill="#A80036" points="1842.9007,554.769,1837.9286,546.2673,1838.8412,551.8501,1833.2584,552.7626,1842.9007,554.769" style="stroke: #A80036; stroke-width: 1.0;"/><line style="stroke: #A80036; stroke-width: 1.0;" x1="1838.8412" x2="1832.3457" y1="551.8501" y2="547.1735"/><polygon fill="#A80036" points="1751.6007,489.038,1754.131,495.7906,1761.3374,496.0521,1758.8071,489.2995,1751.6007,489.038" style="stroke: #A80036; stroke-width: 1.0;"/><!--MD5=[ab8c4cbe1278ff9146849d94d3d0e59f]
link usantatecla.mastermind.views.GameView to usantatecla.mastermind.views.MessageView--><path codeLine="37" d="M1722.3307,489.309 C1733.0007,506.98 1743.9807,528.21 1750.2207,549 C1763.6607,593.822 1769.3207,644.885 1771.3007,689.723 " fill="none" id="usantatecla.mastermind.views.GameView-to-usantatecla.mastermind.views.MessageView" style="stroke: #A80036; stroke-width: 1.0; stroke-dasharray: 7.0,7.0;"/><polygon fill="#A80036" points="1771.5107,694.878,1775.1363,685.7207,1771.3046,689.8823,1767.1431,686.0506,1771.5107,694.878" style="stroke: #A80036; stroke-width: 1.0;"/><!--MD5=[d35345d9c0915df373a5969884055f0f]
link usantatecla.mastermind.views.GameView to usantatecla.mastermind.views.ProposedCombinationView--><path codeLine="38" d="M1597.4907,476.837 C1532.0607,497.231 1444.2707,524.594 1371.0407,547.418 " fill="none" id="usantatecla.mastermind.views.GameView-to-usantatecla.mastermind.views.ProposedCombinationView" style="stroke: #A80036; stroke-width: 1.0; stroke-dasharray: 7.0,7.0;"/><polygon fill="#A80036" points="1366.2407,548.915,1376.0229,550.0593,1371.0147,547.4289,1373.6451,542.4208,1366.2407,548.915" style="stroke: #A80036; stroke-width: 1.0;"/><!--MD5=[c014ac327ca3a38d25898a1aa8388ae4]
link usantatecla.mastermind.views.GameView to usantatecla.mastermind.views.ResultView--><path codeLine="39" d="M1685.6307,489.038 C1682.2007,508.008 1678.1707,530.356 1674.7507,549.287 " fill="none" id="usantatecla.mastermind.views.GameView-to-usantatecla.mastermind.views.ResultView" style="stroke: #A80036; stroke-width: 1.0; stroke-dasharray: 7.0,7.0;"/><polygon fill="#A80036" points="1673.8007,554.53,1679.3382,546.3853,1674.6903,549.6098,1671.4659,544.9619,1673.8007,554.53" style="stroke: #A80036; stroke-width: 1.0;"/><!--MD5=[02db24aa4557775c2c6707ce511d9174]
link usantatecla.mastermind.views.GameView to Console--><path codeLine="40" d="M1597.6707,446.269 C1281.7107,446.077 279.4147,463.978 81.2164,695 C8.5791,779.667 6,863.616 81.2164,946 C128.1987,997.46 612.9227,1010.9744 781.1127,1014.1283 " fill="none" id="usantatecla.mastermind.views.GameView-to-Console" style="stroke: #A80036; stroke-width: 1.0; stroke-dasharray: 7.0,7.0;"/><polygon fill="#A80036" points="786.4797,1014.2274,777.5555,1010.0609,781.4806,1014.1345,777.407,1018.0596,786.4797,1014.2274" style="stroke: #A80036; stroke-width: 1.0;"/><!--MD5=[c77fbeccc9b442b1389d16630dac2b60]
link usantatecla.mastermind.views.MessageView to Console--><path codeLine="58" d="M1682.4607,870.134 C1637.8407,898.156 1581.3407,928.941 1526.2207,946 C1353.1607,999.5551 1300.4207,963.4707 1120.2207,982 C1042.0407,990.0387 951.8557,1000.8646 894.9457,1007.8878 " fill="none" id="usantatecla.mastermind.views.MessageView-to-Console" style="stroke: #A80036; stroke-width: 1.0; stroke-dasharray: 7.0,7.0;"/><polygon fill="#A80036" points="889.8847,1008.5131,899.3071,1011.3798,894.847,1007.9002,898.3265,1003.4401,889.8847,1008.5131" style="stroke: #A80036; stroke-width: 1.0;"/><!--MD5=[c2784a6485428a9d0ed385435558fc48]
link usantatecla.mastermind.views.ProposalView to Game--><path codeLine="64" d="M1776.8982,328.9114 C1776.8982,328.9114 1899.7707,369.888 1955.2207,403 C2022.6607,443.279 2088.4607,506.464 2128.4207,548.303 " fill="none" id="usantatecla.mastermind.views.ProposalView-Game" style="stroke: #A80036; stroke-width: 1.0;"/><polygon fill="#A80036" points="2137.5207,557.931,2134.25,548.6411,2134.0879,554.2956,2128.4334,554.1335,2137.5207,557.931" style="stroke: #A80036; stroke-width: 1.0;"/><line style="stroke: #A80036; stroke-width: 1.0;" x1="2134.0879" x2="2128.5907" y1="554.2956" y2="548.4825"/><polygon fill="#A80036" points="1765.3907,325.509,1770.0103,331.0461,1776.8982,328.9114,1772.2786,323.3744,1765.3907,325.509" style="stroke: #A80036; stroke-width: 1.0;"/><!--MD5=[589169685814c50dcf07056edbdea2f2]
link usantatecla.mastermind.views.ProposalView to usantatecla.mastermind.views.GameView--><path codeLine="65" d="M1693.2207,355.258 C1693.2207,355.258 1693.2207,378.463 1693.2207,389.265 " fill="none" id="usantatecla.mastermind.views.ProposalView-usantatecla.mastermind.views.GameView" style="stroke: #A80036; stroke-width: 1.0;"/><polygon fill="#A80036" points="1693.2207,402.622,1697.2207,393.622,1693.2207,397.622,1689.2207,393.622,1693.2207,402.622" style="stroke: #A80036; stroke-width: 1.0;"/><line style="stroke: #A80036; stroke-width: 1.0;" x1="1693.2207" x2="1693.2207" y1="397.622" y2="389.622"/><polygon fill="#A80036" points="1693.2207,343.258,1689.2207,349.258,1693.2207,355.258,1697.2207,349.258,1693.2207,343.258" style="stroke: #A80036; stroke-width: 1.0;"/><!--MD5=[f503835e5ca3b1d9868d8dad9aa6dfc4]
reverse link ProposedCombination to usantatecla.mastermind.views.ProposalView--><path codeLine="66" d="M210.1147,770.396 C231.2157,745.679 261.8657,714.306 295.2167,695 C754.9057,428.892 1405.8607,337.916 1621.0707,314.112 " fill="none" id="ProposedCombination-backto-usantatecla.mastermind.views.ProposalView" style="stroke: #A80036; stroke-width: 1.0; stroke-dasharray: 7.0,7.0;"/><polygon fill="#A80036" points="206.8117,774.303,215.6769,770.0126,210.0398,770.4847,209.5677,764.8476,206.8117,774.303" style="stroke: #A80036; stroke-width: 1.0;"/><!--MD5=[4f7bde776b1e2d017ca28122a33b562e]
link usantatecla.mastermind.views.ProposalView to usantatecla.mastermind.views.ProposedCombinationView--><path codeLine="67" d="M1634.2307,343.257 C1549.9407,395.072 1395.1607,490.221 1303.9007,546.32 " fill="none" id="usantatecla.mastermind.views.ProposalView-to-usantatecla.mastermind.views.ProposedCombinationView" style="stroke: #A80036; stroke-width: 1.0; stroke-dasharray: 7.0,7.0;"/><polygon fill="#A80036" points="1299.6007,548.961,1309.3634,547.6614,1303.8618,546.3451,1305.1781,540.8435,1299.6007,548.961" style="stroke: #A80036; stroke-width: 1.0;"/><!--MD5=[30c32eefd07a434877c34ca9bbcb31d9]
link usantatecla.mastermind.views.ProposedCombinationView to ProposedCombination--><path codeLine="74" d="M1064.8486,597.5322 C1064.8486,597.5322 422.5257,630.337 290.2167,695 C258.5037,710.499 230.9297,739.2 211.4487,763.732 " fill="none" id="usantatecla.mastermind.views.ProposedCombinationView-ProposedCombination" style="stroke: #A80036; stroke-width: 1.0;"/><polygon fill="#A80036" points="203.3447,774.293,211.9969,769.5878,206.3885,770.3262,205.6501,764.7178,203.3447,774.293" style="stroke: #A80036; stroke-width: 1.0;"/><line style="stroke: #A80036; stroke-width: 1.0;" x1="206.3885" x2="211.2587" y1="770.3262" y2="763.98"/><polygon fill="#A80036" points="1076.8407,597.097,1070.6996,593.3172,1064.8486,597.5322,1070.9897,601.312,1076.8407,597.097" style="stroke: #A80036; stroke-width: 1.0;"/><!--MD5=[24244a11dc75b3f56b77a957d668d189]
link usantatecla.mastermind.views.ProposedCombinationView to usantatecla.mastermind.views.MessageView--><path codeLine="75" d="M1361.8607,635.02 C1413.4907,652.442 1473.0707,673.572 1526.2207,695 C1577.1807,715.546 1632.8807,741.1 1678.0807,762.658 " fill="none" id="usantatecla.mastermind.views.ProposedCombinationView-to-usantatecla.mastermind.views.MessageView" style="stroke: #A80036; stroke-width: 1.0; stroke-dasharray: 7.0,7.0;"/><polygon fill="#A80036" points="1682.7007,764.865,1676.3066,757.3739,1678.1898,762.7081,1672.8556,764.5913,1682.7007,764.865" style="stroke: #A80036; stroke-width: 1.0;"/><!--MD5=[2ab50d729eb054776fe940bcdac8856e]
link usantatecla.mastermind.views.ProposedCombinationView to usantatecla.mastermind.views.ColorView--><path codeLine="76" d="M1269.9007,635.122 C1299.6307,667.495 1341.0707,712.608 1374.0907,748.563 " fill="none" id="usantatecla.mastermind.views.ProposedCombinationView-to-usantatecla.mastermind.views.ColorView" style="stroke: #A80036; stroke-width: 1.0; stroke-dasharray: 7.0,7.0;"/><polygon fill="#A80036" points="1377.6607,752.456,1374.5239,743.12,1374.2805,748.7717,1368.6289,748.5283,1377.6607,752.456" style="stroke: #A80036; stroke-width: 1.0;"/><!--MD5=[5d92d9b18a5089c82fdb31aadc95e332]
link usantatecla.mastermind.views.ProposedCombinationView to Combination--><path codeLine="77" d="M1077.0307,606.202 C920.4547,621.756 690.3967,651.162 613.2167,695 C582.1177,712.664 556.6367,744.621 539.9217,769.974 " fill="none" id="usantatecla.mastermind.views.ProposedCombinationView-to-Combination" style="stroke: #A80036; stroke-width: 1.0; stroke-dasharray: 7.0,7.0;"/><polygon fill="#A80036" points="537.1087,774.303,545.3656,768.9342,539.8322,770.1099,538.6566,764.5765,537.1087,774.303" style="stroke: #A80036; stroke-width: 1.0;"/><!--MD5=[e60a2df0fed20911b64094c7775ce731]
link usantatecla.mastermind.views.ProposedCombinationView to Error--><path codeLine="78" d="M1076.7207,608.682 C993.8547,622.325 892.5577,647.741 812.2167,695 C780.3577,713.74 752.4427,745.283 733.5767,770.208 " fill="none" id="usantatecla.mastermind.views.ProposedCombinationView-to-Error" style="stroke: #A80036; stroke-width: 1.0; stroke-dasharray: 7.0,7.0;"/><polygon fill="#A80036" points="730.3937,774.464,738.9868,769.6517,733.388,770.4597,732.58,764.8609,730.3937,774.464" style="stroke: #A80036; stroke-width: 1.0;"/><!--MD5=[249db334c5b556894bf9316e2debba62]
link usantatecla.mastermind.views.ProposedCombinationView to Color--><path codeLine="79" d="M1076.8007,601.618 C854.1307,615.645 464.7307,646.789 422.2167,695 C348.4327,778.67 346.3107,864.251 422.2167,946 C458.9847,985.599 853.3997,977.121 907.2167,982 C983.7947,988.9426 1070.9107,998.4242 1132.9007,1005.4429 " fill="none" id="usantatecla.mastermind.views.ProposedCombinationView-to-Color" style="stroke: #A80036; stroke-width: 1.0; stroke-dasharray: 7.0,7.0;"/><polygon fill="#A80036" points="1138.0707,1006.0289,1129.5725,1001.0508,1133.1018,1005.4717,1128.681,1009.001,1138.0707,1006.0289" style="stroke: #A80036; stroke-width: 1.0;"/><!--MD5=[55951ac0bb525a41c4301bdcf95ea348]
link usantatecla.mastermind.views.ProposedCombinationView to Console--><path codeLine="80" d="M1076.8707,600.07 C838.9757,612.57 405.0717,642.351 358.2167,695 C284.0527,778.333 285.1617,861.693 358.2167,946 C412.4067,1008.537 666.4017,1015.7173 781.3957,1015.6812 " fill="none" id="usantatecla.mastermind.views.ProposedCombinationView-to-Console" style="stroke: #A80036; stroke-width: 1.0; stroke-dasharray: 7.0,7.0;"/><polygon fill="#A80036" points="786.4307,1015.675,777.425,1011.6879,781.4307,1015.6821,777.4364,1019.6879,786.4307,1015.675" style="stroke: #A80036; stroke-width: 1.0;"/><!--MD5=[9898b494071eafd9f5c981c57aeef0ce]
link usantatecla.mastermind.views.ResultView to Result--><path codeLine="86" d="M1589.8877,632.8248 C1589.8877,632.8248 1585.0707,634.448 1583.2207,635 C1359.3807,701.564 1266.4707,583.611 1061.2207,695 C1032.5707,710.548 1009.2297,738.873 993.0977,763.211 " fill="none" id="usantatecla.mastermind.views.ResultView-Result" style="stroke: #A80036; stroke-width: 1.0;"/><polygon fill="#A80036" points="985.9837,774.407,994.1862,768.9555,988.665,770.1867,987.4338,764.6655,985.9837,774.407" style="stroke: #A80036; stroke-width: 1.0;"/><line style="stroke: #A80036; stroke-width: 1.0;" x1="988.665" x2="992.9552" y1="770.1867" y2="763.435"/><polygon fill="#A80036" points="1601.1407,628.657,1594.125,626.9899,1589.8877,632.8248,1596.9035,634.4919,1601.1407,628.657" style="stroke: #A80036; stroke-width: 1.0;"/><!--MD5=[570007609a7eb30850b20d785a7700df]
link usantatecla.mastermind.views.ResultView to usantatecla.mastermind.views.MessageView--><path codeLine="87" d="M1684.5207,629.387 C1692.6407,646.46 1702.8207,667.87 1713.2807,689.868 " fill="none" id="usantatecla.mastermind.views.ResultView-to-usantatecla.mastermind.views.MessageView" style="stroke: #A80036; stroke-width: 1.0; stroke-dasharray: 7.0,7.0;"/><polygon fill="#A80036" points="1715.5107,694.57,1715.2572,684.7244,1713.3631,690.0547,1708.0328,688.1606,1715.5107,694.57" style="stroke: #A80036; stroke-width: 1.0;"/><!--MD5=[489b5091198213f7a918b375ddeb2d43]
link usantatecla.mastermind.views.ResumeView to Game--><path codeLine="93" d="M2043.0247,350.8627 C2043.0247,350.8627 2078.9107,384.136 2092.2207,403 C2123.1207,446.829 2143.8307,505.216 2155.5207,545.226 " fill="none" id="usantatecla.mastermind.views.ResumeView-Game" style="stroke: #A80036; stroke-width: 1.0;"/><polygon fill="#A80036" points="2159.0707,557.786,2160.4701,548.0371,2157.7098,552.9748,2152.7721,550.2145,2159.0707,557.786" style="stroke: #A80036; stroke-width: 1.0;"/><line style="stroke: #A80036; stroke-width: 1.0;" x1="2157.7098" x2="2155.5357" y1="552.9748" y2="545.2755"/><polygon fill="#A80036" points="2033.8207,343.163,2035.8562,350.0809,2043.0247,350.8627,2040.9893,343.9448,2033.8207,343.163" style="stroke: #A80036; stroke-width: 1.0;"/><!--MD5=[f2fed4efb3a3d0d2fc92470d2fcd894d]
reverse link YesNoDialog to usantatecla.mastermind.views.ResumeView--><path codeLine="94" d="M1885.1507,80.161 C1889.7207,114.873 1899.0707,166.951 1917.2207,209 C1926.3507,230.171 1940.4407,251.524 1953.2507,268.698 " fill="none" id="YesNoDialog-backto-usantatecla.mastermind.views.ResumeView" style="stroke: #A80036; stroke-width: 1.0; stroke-dasharray: 7.0,7.0;"/><polygon fill="#A80036" points="1884.5107,75.168,1881.6819,84.6019,1885.1435,80.1278,1889.6176,83.5894,1884.5107,75.168" style="stroke: #A80036; stroke-width: 1.0;"/><!--MD5=[2ef77f0825b5a6f7d41a935deeb11291]
link usantatecla.mastermind.views.ResumeView to usantatecla.mastermind.views.MessageView--><path codeLine="95" d="M1998.6107,343.169 C2022.9807,406.335 2062.8407,539.151 2013.2207,635 C1981.2007,696.839 1915.6807,741.253 1860.5907,769.515 " fill="none" id="usantatecla.mastermind.views.ResumeView-to-usantatecla.mastermind.views.MessageView" style="stroke: #A80036; stroke-width: 1.0; stroke-dasharray: 7.0,7.0;"/><polygon fill="#A80036" points="1855.9707,771.86,1865.807,771.3637,1860.4316,769.6017,1862.1937,764.2262,1855.9707,771.86" style="stroke: #A80036; stroke-width: 1.0;"/><!--MD5=[fc54064a8031554032ca74d58cc579ae]
link usantatecla.mastermind.views.SecretCombinationView to usantatecla.mastermind.views.MessageView--><path codeLine="101" d="M1872.1807,629.387 C1862.2707,646.532 1849.8307,668.049 1837.0607,690.144 " fill="none" id="usantatecla.mastermind.views.SecretCombinationView-to-usantatecla.mastermind.views.MessageView" style="stroke: #A80036; stroke-width: 1.0; stroke-dasharray: 7.0,7.0;"/><polygon fill="#A80036" points="1834.5007,694.57,1842.4686,688.781,1837.0035,690.2415,1835.543,684.7764,1834.5007,694.57" style="stroke: #A80036; stroke-width: 1.0;"/><!--MD5=[f813e6f14017a463ae44ada5fbb1ae93]
link usantatecla.mastermind.views.SecretCombinationView to Console--><path codeLine="102" d="M1805.6207,620.885 C1787.4307,626.066 1768.3007,631.075 1750.2207,635 C1565.9507,675.005 1500.2307,613.445 1330.2207,695 C1183.0807,765.583 1203.3707,864.102 1062.2207,946 C1009.5797,976.5401 941.9967,994.9458 894.8947,1004.9721 " fill="none" id="usantatecla.mastermind.views.SecretCombinationView-to-Console" style="stroke: #A80036; stroke-width: 1.0; stroke-dasharray: 7.0,7.0;"/><polygon fill="#A80036" points="889.8287,1006.0349,899.4579,1008.1035,894.7224,1005.0091,897.8167,1000.2736,889.8287,1006.0349" style="stroke: #A80036; stroke-width: 1.0;"/><!--MD5=[bb3a27c36d45984c7db5c617585cdb2f]
link usantatecla.mastermind.views.StartView to usantatecla.mastermind.views.MessageView--><path codeLine="107" d="M1937.5707,476.591 C1960.3207,494.535 1985.8007,519.622 1998.2207,549 C2013.1007,584.206 2015.2707,600.795 1998.2207,635 C1969.4307,692.723 1911.1107,736.208 1860.5307,765.08 " fill="none" id="usantatecla.mastermind.views.StartView-to-usantatecla.mastermind.views.MessageView" style="stroke: #A80036; stroke-width: 1.0; stroke-dasharray: 7.0,7.0;"/><polygon fill="#A80036" points="1855.9707,767.654,1865.7746,766.7145,1860.3252,765.1967,1861.843,759.7473,1855.9707,767.654" style="stroke: #A80036; stroke-width: 1.0;"/><!--MD5=[3407484fcf72abbae8816931e8b31818]
link usantatecla.mastermind.views.StartView to usantatecla.mastermind.views.SecretCombinationView--><path codeLine="108" d="M1893.2207,476.837 C1893.2207,497.898 1893.2207,526.392 1893.2207,549.644 " fill="none" id="usantatecla.mastermind.views.StartView-to-usantatecla.mastermind.views.SecretCombinationView" style="stroke: #A80036; stroke-width: 1.0; stroke-dasharray: 7.0,7.0;"/><polygon fill="#A80036" points="1893.2207,554.824,1897.2207,545.824,1893.2207,549.824,1889.2207,545.824,1893.2207,554.824" style="stroke: #A80036; stroke-width: 1.0;"/><!--MD5=[11fad62bc1e111ff3373acd70b4e0a0f]
link usantatecla.mastermind.views.View to usantatecla.mastermind.views.ProposalView--><path codeLine="114" d="M1923.7588,200.0651 C1923.7588,200.0651 1823.8107,245.557 1777.2307,266.76 " fill="none" id="usantatecla.mastermind.views.View-usantatecla.mastermind.views.ProposalView" style="stroke: #A80036; stroke-width: 1.0;"/><polygon fill="#A80036" points="1765.3107,272.183,1775.1592,272.0953,1769.8615,270.1117,1771.8451,264.814,1765.3107,272.183" style="stroke: #A80036; stroke-width: 1.0;"/><line style="stroke: #A80036; stroke-width: 1.0;" x1="1769.8615" x2="1777.1457" y1="270.1117" y2="266.7975"/><polygon fill="#A80036" points="1934.6807,195.094,1927.5627,193.9389,1923.7588,200.0651,1930.8768,201.2202,1934.6807,195.094" style="stroke: #A80036; stroke-width: 1.0;"/><!--MD5=[a7d4c56091e8f703d8c94744d971f949]
link usantatecla.mastermind.views.View to usantatecla.mastermind.views.StartView--><path codeLine="115" d="M1928.3569,217.6297 C1928.3569,217.6297 1900.5907,250.358 1893.2207,269 C1876.2307,311.959 1879.3007,365.561 1884.6707,402.253 " fill="none" id="usantatecla.mastermind.views.View-usantatecla.mastermind.views.StartView" style="stroke: #A80036; stroke-width: 1.0;"/><polygon fill="#A80036" points="1886.8007,415.43,1889.3118,405.9066,1886.0021,410.4942,1881.4145,407.1845,1886.8007,415.43" style="stroke: #A80036; stroke-width: 1.0;"/><line style="stroke: #A80036; stroke-width: 1.0;" x1="1886.0021" x2="1884.7307" y1="410.4942" y2="402.5965"/><polygon fill="#A80036" points="1936.8507,209.153,1929.7782,210.5601,1928.3569,217.6297,1935.4293,216.2226,1936.8507,209.153" style="stroke: #A80036; stroke-width: 1.0;"/><!--MD5=[aa08d413cb14e320a155507437df65be]
link usantatecla.mastermind.views.View to Game--><path codeLine="116" d="M2029.6382,217.8728 C2029.6382,217.8728 2060.0607,251.563 2072.2207,269 C2110.4007,323.794 2120.0907,339.32 2140.2207,403 C2155.0307,449.866 2161.7407,505.893 2164.7707,544.524 " fill="none" id="usantatecla.mastermind.views.View-Game" style="stroke: #A80036; stroke-width: 1.0;"/><polygon fill="#A80036" points="2165.7107,557.67,2169.0571,548.4071,2165.3533,552.6828,2161.0776,548.9789,2165.7107,557.67" style="stroke: #A80036; stroke-width: 1.0;"/><line style="stroke: #A80036; stroke-width: 1.0;" x1="2165.3533" x2="2164.7857" y1="552.6828" y2="544.703"/><polygon fill="#A80036" points="2021.3207,209.223,2022.5962,216.3204,2029.6382,217.8728,2028.3627,210.7754,2021.3207,209.223" style="stroke: #A80036; stroke-width: 1.0;"/><!--MD5=[1fcb8ce60ea5c9d952c165bd8b13c9ee]
link usantatecla.mastermind.views.View to usantatecla.mastermind.views.ResumeView--><path codeLine="117" d="M1983.2207,221.07 C1983.2207,221.07 1983.2207,244.961 1983.2207,255.97 " fill="none" id="usantatecla.mastermind.views.View-usantatecla.mastermind.views.ResumeView" style="stroke: #A80036; stroke-width: 1.0;"/><polygon fill="#A80036" points="1983.2207,268.974,1987.2207,259.974,1983.2207,263.974,1979.2207,259.974,1983.2207,268.974" style="stroke: #A80036; stroke-width: 1.0;"/><line style="stroke: #A80036; stroke-width: 1.0;" x1="1983.2207" x2="1983.2207" y1="263.974" y2="255.974"/><polygon fill="#A80036" points="1983.2207,209.07,1979.2207,215.07,1983.2207,221.07,1987.2207,215.07,1983.2207,209.07" style="stroke: #A80036; stroke-width: 1.0;"/><!--MD5=[12575c33ec58fbcbf3f381d256bfbde3]
@startuml
class ColorCode as "usantatecla.\nmastermind.utils.\nColorCode"
class Error as "usantatecla.\nmastermind.models.\nError"
class Color as "usantatecla.\nmastermind.models.\nColor"
abstract class Combination as "usantatecla.\nmastermind.models.\nCombination"
class ProposedCombination as "usantatecla.\nmastermind.models.\nProposedCombination"
class Result as "usantatecla.\nmastermind.models.\nResult"
class Game as "usantatecla.\nmastermind.models.\nGame"
class YesNoDialog as "usantatecla.\nutils.\nYesNoDialog"
class Console as "usantatecla.\nutils.\nConsole"

class usantatecla.mastermind.views.ColorView{
    - {static} INITIALS: char []
    ~ ColorView(Color)
    ~ {static} allInitials(): String
    ~ {static} getInstance(char): Color
    ~ write()
}
usantatecla.mastermind.views.ColorView -up..> ColorCode
usantatecla.mastermind.views.ColorView *-down-> Color

class usantatecla.mastermind.views.ErrorView{
    - {static} MESSAGES: String []
    ~ ErrorView(Error error)
    ~ writeln()
}
usantatecla.mastermind.views.ErrorView *-down-> Error
usantatecla.mastermind.views.ErrorView ..> usantatecla.mastermind.views.ColorView
usantatecla.mastermind.views.ErrorView ..> Console

class usantatecla.mastermind.views.GameView {
    ~ GameView(Game)
    ~ write()
    ~ isWinnerOrLooser() : boolean
}
usantatecla.mastermind.views.GameView *-down-> Game
usantatecla.mastermind.views.GameView *-down-> usantatecla.mastermind.views.SecretCombinationView
usantatecla.mastermind.views.GameView ..> usantatecla.mastermind.views.MessageView
usantatecla.mastermind.views.GameView ..> usantatecla.mastermind.views.ProposedCombinationView
usantatecla.mastermind.views.GameView ..> usantatecla.mastermind.views.ResultView
usantatecla.mastermind.views.GameView ..> Console

enum usantatecla.mastermind.views.MessageView{
    + ATTEMPTS
    + SECRET_COMBINATION
    + RESUME
    + RESULT
    + PROPOSED_COMBINATION
    + TITLE
    + WINNER
    + LOOSER
    - message: String
    ~ MessageView(String)
    ~ write()
    ~ writeln()
    ~ writeln(int)
    ~ writeln(int, int)
}
usantatecla.mastermind.views.MessageView ..> Console

class usantatecla.mastermind.views.ProposalView {
    ~ ProposalView(Game)
    ~ interact(): boolean
}
usantatecla.mastermind.views.ProposalView *-down-> Game
usantatecla.mastermind.views.ProposalView *-down-> usantatecla.mastermind.views.GameView
usantatecla.mastermind.views.ProposalView -up..> ProposedCombination
usantatecla.mastermind.views.ProposalView ..> usantatecla.mastermind.views.ProposedCombinationView

class usantatecla.mastermind.views.ProposedCombinationView {
    ~ ProposedCombinationView(ProposedCombination)
    ~ write()
    ~ read()
}
usantatecla.mastermind.views.ProposedCombinationView *-down-> ProposedCombination
usantatecla.mastermind.views.ProposedCombinationView ..> usantatecla.mastermind.views.MessageView
usantatecla.mastermind.views.ProposedCombinationView ..> usantatecla.mastermind.views.ColorView
usantatecla.mastermind.views.ProposedCombinationView ..> Combination
usantatecla.mastermind.views.ProposedCombinationView ..> Error
usantatecla.mastermind.views.ProposedCombinationView ..> Color
usantatecla.mastermind.views.ProposedCombinationView ..> Console

class usantatecla.mastermind.views.ResultView {
    ~ ResultView(Result)
    ~ writeln()
}
usantatecla.mastermind.views.ResultView *-down-> Result
usantatecla.mastermind.views.ResultView ..> usantatecla.mastermind.views.MessageView

class usantatecla.mastermind.views.ResumeView {
    ~ ResumeView(Game)
    ~ interact(): boolean
}
usantatecla.mastermind.views.ResumeView *-down-> Game
usantatecla.mastermind.views.ResumeView -up..> YesNoDialog
usantatecla.mastermind.views.ResumeView ..> usantatecla.mastermind.views.MessageView

class usantatecla.mastermind.views.SecretCombinationView {
    ~ SecretCombinationView()
    ~ writeln()
}
usantatecla.mastermind.views.SecretCombinationView ..> usantatecla.mastermind.views.MessageView
usantatecla.mastermind.views.SecretCombinationView ..> Console

class usantatecla.mastermind.views.StartView {
    ~ interact()
}
usantatecla.mastermind.views.StartView..> usantatecla.mastermind.views.MessageView
usantatecla.mastermind.views.StartView..> usantatecla.mastermind.views.SecretCombinationView

class usantatecla.mastermind.views.View {
    + View(Game)
    + interact()
}
usantatecla.mastermind.views.View *-down-> usantatecla.mastermind.views.ProposalView
usantatecla.mastermind.views.View *-down-> usantatecla.mastermind.views.StartView
usantatecla.mastermind.views.View *-down-> Game
usantatecla.mastermind.views.View *-down-> usantatecla.mastermind.views.ResumeView
@enduml

PlantUML version 1.2020.20beta11(Unknown compile time)
(GPL source distribution)
Java Runtime: Java(TM) SE Runtime Environment
JVM: Java HotSpot(TM) 64-Bit Server VM
Default Encoding: UTF-8
Language: en
Country: US
--></g></svg>