<?xml version="1.0" encoding="UTF-8" standalone="no"?><svg xmlns="http://www.w3.org/2000/svg" xmlns:xlink="http://www.w3.org/1999/xlink" contentScriptType="application/ecmascript" contentStyleType="text/css" height="1097px" preserveAspectRatio="none" style="width:1935px;height:1097px;" version="1.1" viewBox="0 0 1935 1097" width="1935px" zoomAndPan="magnify"><defs><filter height="300%" id="f1wru4i9q01hpf" width="300%" x="-1" y="-1"><feGaussianBlur result="blurOut" stdDeviation="2.0"/><feColorMatrix in="blurOut" result="blurOut2" type="matrix" values="0 0 0 0 0 0 0 0 0 0 0 0 0 0 0 0 0 0 .4 0"/><feOffset dx="4.0" dy="4.0" in="blurOut2" result="blurOut3"/><feBlend in="SourceGraphic" in2="blurOut3" mode="normal"/></filter></defs><g><!--MD5=[29d5d00c8f272934fcfbf235a28c504f]
cluster usantatecla.mastermind.views--><polygon fill="#FFFFFF" filter="url(#f1wru4i9q01hpf)" points="713.9169,6,970.9169,6,977.9169,28.2969,1723.9179,28.2969,1723.9179,844,713.9169,844,713.9169,6" style="stroke: #000000; stroke-width: 1.5;"/><line style="stroke: #000000; stroke-width: 1.5;" x1="713.9169" x2="977.9169" y1="28.2969" y2="28.2969"/><text fill="#000000" font-family="sans-serif" font-size="14" font-weight="bold" lengthAdjust="spacingAndGlyphs" textLength="251" x="717.9169" y="20.9951">usantatecla.mastermind.views</text><!--MD5=[dab5b8162ddba5d4d249ad537ad64188]
class usantatecla.mastermind.views.ColorView--><rect codeLine="11" fill="#FEFECE" filter="url(#f1wru4i9q01hpf)" height="112.0234" id="usantatecla.mastermind.views.ColorView" style="stroke: #A80036; stroke-width: 1.5;" width="161" x="1139.4179" y="658.5"/><ellipse cx="1185.1679" cy="674.5" fill="#ADD1B2" rx="11" ry="11" style="stroke: #A80036; stroke-width: 1.0;"/><path d="M1187.5117,670.1719 C1186.5742,669.7344 1185.9804,669.5938 1185.1054,669.5938 C1182.4804,669.5938 1180.4804,671.6719 1180.4804,674.3906 L1180.4804,675.5156 C1180.4804,678.0938 1182.5898,679.9844 1185.4804,679.9844 C1186.6992,679.9844 1187.8554,679.6875 1188.6054,679.1406 C1189.1835,678.7344 1189.5117,678.2813 1189.5117,677.8906 C1189.5117,677.4375 1189.121,677.0469 1188.6523,677.0469 C1188.4335,677.0469 1188.2304,677.125 1188.0429,677.3125 C1187.5898,677.7969 1187.5898,677.7969 1187.4023,677.8906 C1186.9804,678.1563 1186.2929,678.2813 1185.5273,678.2813 C1183.4804,678.2813 1182.1835,677.1875 1182.1835,675.4844 L1182.1835,674.3906 C1182.1835,672.6094 1183.4335,671.2969 1185.1679,671.2969 C1185.746,671.2969 1186.3554,671.4531 1186.8242,671.7031 C1187.3085,671.9844 1187.4804,672.2031 1187.5742,672.6094 C1187.6367,673.0156 1187.6679,673.1406 1187.8085,673.2656 C1187.9492,673.4063 1188.1835,673.5156 1188.4023,673.5156 C1188.6679,673.5156 1188.9335,673.375 1189.1054,673.1563 C1189.2148,673 1189.246,672.8125 1189.246,672.3906 L1189.246,670.9688 C1189.246,670.5313 1189.2304,670.4063 1189.1367,670.25 C1188.9804,669.9844 1188.6992,669.8438 1188.4023,669.8438 C1188.1054,669.8438 1187.9023,669.9375 1187.6835,670.25 L1187.5117,670.1719 Z " fill="#000000"/><text fill="#000000" font-family="sans-serif" font-size="12" lengthAdjust="spacingAndGlyphs" textLength="61" x="1205.6679" y="678.6543">ColorView</text><line style="stroke: #A80036; stroke-width: 1.5;" x1="1140.4179" x2="1299.4179" y1="690.5" y2="690.5"/><rect fill="none" height="6" style="stroke: #C82930; stroke-width: 1.0;" width="6" x="1147.4179" y="698.5"/><text fill="#000000" font-family="sans-serif" font-size="11" lengthAdjust="spacingAndGlyphs" text-decoration="underline" textLength="89" x="1159.4179" y="704.7104">INITIALS: char []</text><line style="stroke: #A80036; stroke-width: 1.5;" x1="1140.4179" x2="1299.4179" y1="711.3047" y2="711.3047"/><polygon fill="#4177AF" points="1150.4179,718.3047,1146.4179,724.3047,1154.4179,724.3047" style="stroke: #1963A0; stroke-width: 1.0;"/><text fill="#000000" font-family="sans-serif" font-size="11" lengthAdjust="spacingAndGlyphs" textLength="94" x="1159.4179" y="725.5151">ColorView(Color)</text><polygon fill="#4177AF" points="1150.4179,731.1094,1146.4179,737.1094,1154.4179,737.1094" style="stroke: #1963A0; stroke-width: 1.0;"/><text fill="#000000" font-family="sans-serif" font-size="11" lengthAdjust="spacingAndGlyphs" text-decoration="underline" textLength="97" x="1159.4179" y="738.3198">allInitials(): String</text><polygon fill="#4177AF" points="1150.4179,743.9141,1146.4179,749.9141,1154.4179,749.9141" style="stroke: #1963A0; stroke-width: 1.0;"/><text fill="#000000" font-family="sans-serif" font-size="11" lengthAdjust="spacingAndGlyphs" text-decoration="underline" textLength="135" x="1159.4179" y="751.1245">getInstance(char): Color</text><polygon fill="#4177AF" points="1150.4179,756.7188,1146.4179,762.7188,1154.4179,762.7188" style="stroke: #1963A0; stroke-width: 1.0;"/><text fill="#000000" font-family="sans-serif" font-size="11" lengthAdjust="spacingAndGlyphs" textLength="36" x="1159.4179" y="763.9292">write()</text><!--MD5=[bd953d99961dd365a3924fc1e98cf727]
class usantatecla.mastermind.views.ErrorView--><rect codeLine="21" fill="#FEFECE" filter="url(#f1wru4i9q01hpf)" height="86.4141" id="usantatecla.mastermind.views.ErrorView" style="stroke: #A80036; stroke-width: 1.5;" width="145" x="730.4169" y="455"/><ellipse cx="769.7169" cy="471" fill="#ADD1B2" rx="11" ry="11" style="stroke: #A80036; stroke-width: 1.0;"/><path d="M772.0607,466.6719 C771.1232,466.2344 770.5294,466.0938 769.6544,466.0938 C767.0294,466.0938 765.0294,468.1719 765.0294,470.8906 L765.0294,472.0156 C765.0294,474.5938 767.1388,476.4844 770.0294,476.4844 C771.2482,476.4844 772.4044,476.1875 773.1544,475.6406 C773.7325,475.2344 774.0607,474.7813 774.0607,474.3906 C774.0607,473.9375 773.67,473.5469 773.2013,473.5469 C772.9825,473.5469 772.7794,473.625 772.5919,473.8125 C772.1388,474.2969 772.1388,474.2969 771.9513,474.3906 C771.5294,474.6563 770.8419,474.7813 770.0763,474.7813 C768.0294,474.7813 766.7325,473.6875 766.7325,471.9844 L766.7325,470.8906 C766.7325,469.1094 767.9825,467.7969 769.7169,467.7969 C770.295,467.7969 770.9044,467.9531 771.3732,468.2031 C771.8575,468.4844 772.0294,468.7031 772.1232,469.1094 C772.1857,469.5156 772.2169,469.6406 772.3575,469.7656 C772.4982,469.9063 772.7325,470.0156 772.9513,470.0156 C773.2169,470.0156 773.4825,469.875 773.6544,469.6563 C773.7638,469.5 773.795,469.3125 773.795,468.8906 L773.795,467.4688 C773.795,467.0313 773.7794,466.9063 773.6857,466.75 C773.5294,466.4844 773.2482,466.3438 772.9513,466.3438 C772.6544,466.3438 772.4513,466.4375 772.2325,466.75 L772.0607,466.6719 Z " fill="#000000"/><text fill="#000000" font-family="sans-serif" font-size="12" lengthAdjust="spacingAndGlyphs" textLength="59" x="789.1169" y="475.1543">ErrorView</text><line style="stroke: #A80036; stroke-width: 1.5;" x1="731.4169" x2="874.4169" y1="487" y2="487"/><rect fill="none" height="6" style="stroke: #C82930; stroke-width: 1.0;" width="6" x="738.4169" y="495"/><text fill="#000000" font-family="sans-serif" font-size="11" lengthAdjust="spacingAndGlyphs" text-decoration="underline" textLength="116" x="750.4169" y="501.2104">MESSAGES: String []</text><line style="stroke: #A80036; stroke-width: 1.5;" x1="731.4169" x2="874.4169" y1="507.8047" y2="507.8047"/><polygon fill="#4177AF" points="741.4169,514.8047,737.4169,520.8047,745.4169,520.8047" style="stroke: #1963A0; stroke-width: 1.0;"/><text fill="#000000" font-family="sans-serif" font-size="11" lengthAdjust="spacingAndGlyphs" textLength="119" x="750.4169" y="522.0151">ErrorView(Error error)</text><polygon fill="#4177AF" points="741.4169,527.6094,737.4169,533.6094,745.4169,533.6094" style="stroke: #1963A0; stroke-width: 1.0;"/><text fill="#000000" font-family="sans-serif" font-size="11" lengthAdjust="spacingAndGlyphs" textLength="46" x="750.4169" y="534.8198">writeln()</text><!--MD5=[212a0e60755c6b1108194c65ec19a74b]
class usantatecla.mastermind.views.GameView--><rect codeLine="30" fill="#FEFECE" filter="url(#f1wru4i9q01hpf)" height="86.4141" id="usantatecla.mastermind.views.GameView" style="stroke: #A80036; stroke-width: 1.5;" width="191" x="1027.4179" y="309"/><ellipse cx="1086.6679" cy="325" fill="#ADD1B2" rx="11" ry="11" style="stroke: #A80036; stroke-width: 1.0;"/><path d="M1089.0117,320.6719 C1088.0742,320.2344 1087.4804,320.0938 1086.6054,320.0938 C1083.9804,320.0938 1081.9804,322.1719 1081.9804,324.8906 L1081.9804,326.0156 C1081.9804,328.5938 1084.0898,330.4844 1086.9804,330.4844 C1088.1992,330.4844 1089.3554,330.1875 1090.1054,329.6406 C1090.6835,329.2344 1091.0117,328.7813 1091.0117,328.3906 C1091.0117,327.9375 1090.621,327.5469 1090.1523,327.5469 C1089.9335,327.5469 1089.7304,327.625 1089.5429,327.8125 C1089.0898,328.2969 1089.0898,328.2969 1088.9023,328.3906 C1088.4804,328.6563 1087.7929,328.7813 1087.0273,328.7813 C1084.9804,328.7813 1083.6835,327.6875 1083.6835,325.9844 L1083.6835,324.8906 C1083.6835,323.1094 1084.9335,321.7969 1086.6679,321.7969 C1087.246,321.7969 1087.8554,321.9531 1088.3242,322.2031 C1088.8085,322.4844 1088.9804,322.7031 1089.0742,323.1094 C1089.1367,323.5156 1089.1679,323.6406 1089.3085,323.7656 C1089.4492,323.9063 1089.6835,324.0156 1089.9023,324.0156 C1090.1679,324.0156 1090.4335,323.875 1090.6054,323.6563 C1090.7148,323.5 1090.746,323.3125 1090.746,322.8906 L1090.746,321.4688 C1090.746,321.0313 1090.7304,320.9063 1090.6367,320.75 C1090.4804,320.4844 1090.1992,320.3438 1089.9023,320.3438 C1089.6054,320.3438 1089.4023,320.4375 1089.1835,320.75 L1089.0117,320.6719 Z " fill="#000000"/><text fill="#000000" font-family="sans-serif" font-size="12" lengthAdjust="spacingAndGlyphs" textLength="64" x="1107.1679" y="329.1543">GameView</text><line style="stroke: #A80036; stroke-width: 1.5;" x1="1028.4179" x2="1217.4179" y1="341" y2="341"/><line style="stroke: #A80036; stroke-width: 1.5;" x1="1028.4179" x2="1217.4179" y1="349" y2="349"/><polygon fill="#4177AF" points="1038.4179,356,1034.4179,362,1042.4179,362" style="stroke: #1963A0; stroke-width: 1.0;"/><text fill="#000000" font-family="sans-serif" font-size="11" lengthAdjust="spacingAndGlyphs" textLength="106" x="1047.4179" y="363.2104">GameView(Game)</text><polygon fill="#4177AF" points="1038.4179,368.8047,1034.4179,374.8047,1042.4179,374.8047" style="stroke: #1963A0; stroke-width: 1.0;"/><text fill="#000000" font-family="sans-serif" font-size="11" lengthAdjust="spacingAndGlyphs" textLength="36" x="1047.4179" y="376.0151">write()</text><polygon fill="#4177AF" points="1038.4179,381.6094,1034.4179,387.6094,1042.4179,387.6094" style="stroke: #1963A0; stroke-width: 1.0;"/><text fill="#000000" font-family="sans-serif" font-size="11" lengthAdjust="spacingAndGlyphs" textLength="165" x="1047.4179" y="388.8198">isWinnerOrLooser() : boolean</text><!--MD5=[826ffe1d7ae0fc27ec50d9c84508f1a7]
class usantatecla.mastermind.views.SecretCombinationView--><rect codeLine="97" fill="#FEFECE" filter="url(#f1wru4i9q01hpf)" height="73.6094" id="usantatecla.mastermind.views.SecretCombinationView" style="stroke: #A80036; stroke-width: 1.5;" width="175" x="1458.4179" y="461"/><ellipse cx="1473.4179" cy="477" fill="#ADD1B2" rx="11" ry="11" style="stroke: #A80036; stroke-width: 1.0;"/><path d="M1475.7617,472.6719 C1474.8242,472.2344 1474.2304,472.0938 1473.3554,472.0938 C1470.7304,472.0938 1468.7304,474.1719 1468.7304,476.8906 L1468.7304,478.0156 C1468.7304,480.5938 1470.8398,482.4844 1473.7304,482.4844 C1474.9492,482.4844 1476.1054,482.1875 1476.8554,481.6406 C1477.4335,481.2344 1477.7617,480.7813 1477.7617,480.3906 C1477.7617,479.9375 1477.371,479.5469 1476.9023,479.5469 C1476.6835,479.5469 1476.4804,479.625 1476.2929,479.8125 C1475.8398,480.2969 1475.8398,480.2969 1475.6523,480.3906 C1475.2304,480.6563 1474.5429,480.7813 1473.7773,480.7813 C1471.7304,480.7813 1470.4335,479.6875 1470.4335,477.9844 L1470.4335,476.8906 C1470.4335,475.1094 1471.6835,473.7969 1473.4179,473.7969 C1473.996,473.7969 1474.6054,473.9531 1475.0742,474.2031 C1475.5585,474.4844 1475.7304,474.7031 1475.8242,475.1094 C1475.8867,475.5156 1475.9179,475.6406 1476.0585,475.7656 C1476.1992,475.9063 1476.4335,476.0156 1476.6523,476.0156 C1476.9179,476.0156 1477.1835,475.875 1477.3554,475.6563 C1477.4648,475.5 1477.496,475.3125 1477.496,474.8906 L1477.496,473.4688 C1477.496,473.0313 1477.4804,472.9063 1477.3867,472.75 C1477.2304,472.4844 1476.9492,472.3438 1476.6523,472.3438 C1476.3554,472.3438 1476.1523,472.4375 1475.9335,472.75 L1475.7617,472.6719 Z " fill="#000000"/><text fill="#000000" font-family="sans-serif" font-size="12" lengthAdjust="spacingAndGlyphs" textLength="143" x="1487.4179" y="481.1543">SecretCombinationView</text><line style="stroke: #A80036; stroke-width: 1.5;" x1="1459.4179" x2="1632.4179" y1="493" y2="493"/><line style="stroke: #A80036; stroke-width: 1.5;" x1="1459.4179" x2="1632.4179" y1="501" y2="501"/><polygon fill="#4177AF" points="1469.4179,508,1465.4179,514,1473.4179,514" style="stroke: #1963A0; stroke-width: 1.0;"/><text fill="#000000" font-family="sans-serif" font-size="11" lengthAdjust="spacingAndGlyphs" textLength="145" x="1478.4179" y="515.2104">SecretCombinationView()</text><polygon fill="#4177AF" points="1469.4179,520.8047,1465.4179,526.8047,1473.4179,526.8047" style="stroke: #1963A0; stroke-width: 1.0;"/><text fill="#000000" font-family="sans-serif" font-size="11" lengthAdjust="spacingAndGlyphs" textLength="46" x="1478.4179" y="528.0151">writeln()</text><!--MD5=[869bb932d54482a0e6fc3ac31d21d51b]
class usantatecla.mastermind.views.MessageView--><rect codeLine="42" fill="#FEFECE" filter="url(#f1wru4i9q01hpf)" height="227.2656" id="usantatecla.mastermind.views.MessageView" style="stroke: #A80036; stroke-width: 1.5;" width="173" x="1335.4179" y="601"/><ellipse cx="1376.0679" cy="617" fill="#EB937F" rx="11" ry="11" style="stroke: #A80036; stroke-width: 1.0;"/><path d="M1374.8648,617.875 L1376.3179,617.875 L1376.3179,617.9844 C1376.3179,618.3906 1376.3492,618.5469 1376.4273,618.7031 C1376.5835,618.9531 1376.8648,619.1094 1377.1617,619.1094 C1377.4117,619.1094 1377.6773,618.9688 1377.8335,618.75 C1377.9585,618.5938 1377.9898,618.4375 1377.9898,617.9844 L1377.9898,616.0625 C1377.9898,615.9063 1377.9898,615.8594 1377.9742,615.7031 C1377.9117,615.2344 1377.5992,614.9219 1377.146,614.9219 C1376.896,614.9219 1376.6304,615.0625 1376.4585,615.2813 C1376.3492,615.4531 1376.3179,615.6094 1376.3179,616.0625 L1376.3179,616.1875 L1374.8648,616.1875 L1374.8648,613.7813 L1378.8492,613.7813 L1378.8492,614.6406 C1378.8492,615.0469 1378.8804,615.2188 1378.9585,615.375 C1379.1304,615.625 1379.4117,615.7813 1379.6929,615.7813 C1379.9585,615.7813 1380.2242,615.6406 1380.396,615.4219 C1380.5054,615.25 1380.5367,615.1094 1380.5367,614.6406 L1380.5367,612.0938 L1372.9117,612.0938 C1372.4742,612.0938 1372.3492,612.1094 1372.1929,612.2031 C1371.9429,612.3594 1371.7867,612.6563 1371.7867,612.9375 C1371.7867,613.2188 1371.9273,613.4688 1372.146,613.6406 C1372.3023,613.75 1372.4898,613.7813 1372.9117,613.7813 L1373.1617,613.7813 L1373.1617,620.2969 L1372.9117,620.2969 C1372.5054,620.2969 1372.3492,620.3125 1372.1929,620.4219 C1371.9429,620.5938 1371.7867,620.8594 1371.7867,621.1563 C1371.7867,621.4219 1371.9273,621.6719 1372.146,621.8281 C1372.2867,621.9531 1372.521,622 1372.9117,622 L1380.9117,622 L1380.9117,619.4219 C1380.9117,618.9844 1380.8804,618.8438 1380.8023,618.6875 C1380.6304,618.4375 1380.3492,618.2813 1380.0679,618.2813 C1379.8023,618.2813 1379.5367,618.3906 1379.3648,618.6406 C1379.2554,618.7969 1379.2242,618.9375 1379.2242,619.4219 L1379.2242,620.2969 L1374.8648,620.2969 L1374.8648,617.875 Z " fill="#000000"/><text fill="#000000" font-family="sans-serif" font-size="12" lengthAdjust="spacingAndGlyphs" textLength="84" x="1395.7679" y="621.1543">MessageView</text><line style="stroke: #A80036; stroke-width: 1.5;" x1="1336.4179" x2="1507.4179" y1="633" y2="633"/><ellipse cx="1346.4179" cy="644" fill="none" rx="3" ry="3" style="stroke: #038048; stroke-width: 1.0;"/><text fill="#000000" font-family="sans-serif" font-size="11" lengthAdjust="spacingAndGlyphs" textLength="59" x="1355.4179" y="647.2104">ATTEMPTS</text><ellipse cx="1346.4179" cy="656.8047" fill="none" rx="3" ry="3" style="stroke: #038048; stroke-width: 1.0;"/><text fill="#000000" font-family="sans-serif" font-size="11" lengthAdjust="spacingAndGlyphs" textLength="130" x="1355.4179" y="660.0151">SECRET_COMBINATION</text><ellipse cx="1346.4179" cy="669.6094" fill="none" rx="3" ry="3" style="stroke: #038048; stroke-width: 1.0;"/><text fill="#000000" font-family="sans-serif" font-size="11" lengthAdjust="spacingAndGlyphs" textLength="46" x="1355.4179" y="672.8198">RESUME</text><ellipse cx="1346.4179" cy="682.4141" fill="none" rx="3" ry="3" style="stroke: #038048; stroke-width: 1.0;"/><text fill="#000000" font-family="sans-serif" font-size="11" lengthAdjust="spacingAndGlyphs" textLength="43" x="1355.4179" y="685.6245">RESULT</text><ellipse cx="1346.4179" cy="695.2188" fill="none" rx="3" ry="3" style="stroke: #038048; stroke-width: 1.0;"/><text fill="#000000" font-family="sans-serif" font-size="11" lengthAdjust="spacingAndGlyphs" textLength="147" x="1355.4179" y="698.4292">PROPOSED_COMBINATION</text><ellipse cx="1346.4179" cy="708.0234" fill="none" rx="3" ry="3" style="stroke: #038048; stroke-width: 1.0;"/><text fill="#000000" font-family="sans-serif" font-size="11" lengthAdjust="spacingAndGlyphs" textLength="30" x="1355.4179" y="711.2339">TITLE</text><ellipse cx="1346.4179" cy="720.8281" fill="none" rx="3" ry="3" style="stroke: #038048; stroke-width: 1.0;"/><text fill="#000000" font-family="sans-serif" font-size="11" lengthAdjust="spacingAndGlyphs" textLength="44" x="1355.4179" y="724.0386">WINNER</text><ellipse cx="1346.4179" cy="733.6328" fill="none" rx="3" ry="3" style="stroke: #038048; stroke-width: 1.0;"/><text fill="#000000" font-family="sans-serif" font-size="11" lengthAdjust="spacingAndGlyphs" textLength="46" x="1355.4179" y="736.8433">LOOSER</text><rect fill="none" height="6" style="stroke: #C82930; stroke-width: 1.0;" width="6" x="1343.4179" y="743.4375"/><text fill="#000000" font-family="sans-serif" font-size="11" lengthAdjust="spacingAndGlyphs" textLength="93" x="1355.4179" y="749.6479">message: String</text><line style="stroke: #A80036; stroke-width: 1.5;" x1="1336.4179" x2="1507.4179" y1="756.2422" y2="756.2422"/><polygon fill="#4177AF" points="1346.4179,763.2422,1342.4179,769.2422,1350.4179,769.2422" style="stroke: #1963A0; stroke-width: 1.0;"/><text fill="#000000" font-family="sans-serif" font-size="11" lengthAdjust="spacingAndGlyphs" textLength="120" x="1355.4179" y="770.4526">MessageView(String)</text><polygon fill="#4177AF" points="1346.4179,776.0469,1342.4179,782.0469,1350.4179,782.0469" style="stroke: #1963A0; stroke-width: 1.0;"/><text fill="#000000" font-family="sans-serif" font-size="11" lengthAdjust="spacingAndGlyphs" textLength="36" x="1355.4179" y="783.2573">write()</text><polygon fill="#4177AF" points="1346.4179,788.8516,1342.4179,794.8516,1350.4179,794.8516" style="stroke: #1963A0; stroke-width: 1.0;"/><text fill="#000000" font-family="sans-serif" font-size="11" lengthAdjust="spacingAndGlyphs" textLength="46" x="1355.4179" y="796.062">writeln()</text><polygon fill="#4177AF" points="1346.4179,801.6563,1342.4179,807.6563,1350.4179,807.6563" style="stroke: #1963A0; stroke-width: 1.0;"/><text fill="#000000" font-family="sans-serif" font-size="11" lengthAdjust="spacingAndGlyphs" textLength="60" x="1355.4179" y="808.8667">writeln(int)</text><polygon fill="#4177AF" points="1346.4179,814.4609,1342.4179,820.4609,1350.4179,820.4609" style="stroke: #1963A0; stroke-width: 1.0;"/><text fill="#000000" font-family="sans-serif" font-size="11" lengthAdjust="spacingAndGlyphs" textLength="81" x="1355.4179" y="821.6714">writeln(int, int)</text><!--MD5=[9baa3c67970b674f09e45f119e307b36]
class usantatecla.mastermind.views.ProposedCombinationView--><rect codeLine="69" fill="#FEFECE" filter="url(#f1wru4i9q01hpf)" height="86.4141" id="usantatecla.mastermind.views.ProposedCombinationView" style="stroke: #A80036; stroke-width: 1.5;" width="308" x="1077.9179" y="455"/><ellipse cx="1147.1679" cy="471" fill="#ADD1B2" rx="11" ry="11" style="stroke: #A80036; stroke-width: 1.0;"/><path d="M1149.5117,466.6719 C1148.5742,466.2344 1147.9804,466.0938 1147.1054,466.0938 C1144.4804,466.0938 1142.4804,468.1719 1142.4804,470.8906 L1142.4804,472.0156 C1142.4804,474.5938 1144.5898,476.4844 1147.4804,476.4844 C1148.6992,476.4844 1149.8554,476.1875 1150.6054,475.6406 C1151.1835,475.2344 1151.5117,474.7813 1151.5117,474.3906 C1151.5117,473.9375 1151.121,473.5469 1150.6523,473.5469 C1150.4335,473.5469 1150.2304,473.625 1150.0429,473.8125 C1149.5898,474.2969 1149.5898,474.2969 1149.4023,474.3906 C1148.9804,474.6563 1148.2929,474.7813 1147.5273,474.7813 C1145.4804,474.7813 1144.1835,473.6875 1144.1835,471.9844 L1144.1835,470.8906 C1144.1835,469.1094 1145.4335,467.7969 1147.1679,467.7969 C1147.746,467.7969 1148.3554,467.9531 1148.8242,468.2031 C1149.3085,468.4844 1149.4804,468.7031 1149.5742,469.1094 C1149.6367,469.5156 1149.6679,469.6406 1149.8085,469.7656 C1149.9492,469.9063 1150.1835,470.0156 1150.4023,470.0156 C1150.6679,470.0156 1150.9335,469.875 1151.1054,469.6563 C1151.2148,469.5 1151.246,469.3125 1151.246,468.8906 L1151.246,467.4688 C1151.246,467.0313 1151.2304,466.9063 1151.1367,466.75 C1150.9804,466.4844 1150.6992,466.3438 1150.4023,466.3438 C1150.1054,466.3438 1149.9023,466.4375 1149.6835,466.75 L1149.5117,466.6719 Z " fill="#000000"/><text fill="#000000" font-family="sans-serif" font-size="12" lengthAdjust="spacingAndGlyphs" textLength="161" x="1167.6679" y="475.1543">ProposedCombinationView</text><line style="stroke: #A80036; stroke-width: 1.5;" x1="1078.9179" x2="1384.9179" y1="487" y2="487"/><line style="stroke: #A80036; stroke-width: 1.5;" x1="1078.9179" x2="1384.9179" y1="495" y2="495"/><polygon fill="#4177AF" points="1088.9179,502,1084.9179,508,1092.9179,508" style="stroke: #1963A0; stroke-width: 1.0;"/><text fill="#000000" font-family="sans-serif" font-size="11" lengthAdjust="spacingAndGlyphs" textLength="282" x="1097.9179" y="509.2104">ProposedCombinationView(ProposedCombination)</text><polygon fill="#4177AF" points="1088.9179,514.8047,1084.9179,520.8047,1092.9179,520.8047" style="stroke: #1963A0; stroke-width: 1.0;"/><text fill="#000000" font-family="sans-serif" font-size="11" lengthAdjust="spacingAndGlyphs" textLength="36" x="1097.9179" y="522.0151">write()</text><polygon fill="#4177AF" points="1088.9179,527.6094,1084.9179,533.6094,1092.9179,533.6094" style="stroke: #1963A0; stroke-width: 1.0;"/><text fill="#000000" font-family="sans-serif" font-size="11" lengthAdjust="spacingAndGlyphs" textLength="34" x="1097.9179" y="534.8198">read()</text><!--MD5=[417e2fbd6195c1b6c8b5b41eb42f33ec]
class usantatecla.mastermind.views.ResultView--><rect codeLine="82" fill="#FEFECE" filter="url(#f1wru4i9q01hpf)" height="73.6094" id="usantatecla.mastermind.views.ResultView" style="stroke: #A80036; stroke-width: 1.5;" width="132" x="910.9169" y="461"/><ellipse cx="941.6669" cy="477" fill="#ADD1B2" rx="11" ry="11" style="stroke: #A80036; stroke-width: 1.0;"/><path d="M944.0107,472.6719 C943.0732,472.2344 942.4794,472.0938 941.6044,472.0938 C938.9794,472.0938 936.9794,474.1719 936.9794,476.8906 L936.9794,478.0156 C936.9794,480.5938 939.0888,482.4844 941.9794,482.4844 C943.1982,482.4844 944.3544,482.1875 945.1044,481.6406 C945.6825,481.2344 946.0107,480.7813 946.0107,480.3906 C946.0107,479.9375 945.62,479.5469 945.1513,479.5469 C944.9325,479.5469 944.7294,479.625 944.5419,479.8125 C944.0888,480.2969 944.0888,480.2969 943.9013,480.3906 C943.4794,480.6563 942.7919,480.7813 942.0263,480.7813 C939.9794,480.7813 938.6825,479.6875 938.6825,477.9844 L938.6825,476.8906 C938.6825,475.1094 939.9325,473.7969 941.6669,473.7969 C942.245,473.7969 942.8544,473.9531 943.3232,474.2031 C943.8075,474.4844 943.9794,474.7031 944.0732,475.1094 C944.1357,475.5156 944.1669,475.6406 944.3075,475.7656 C944.4482,475.9063 944.6825,476.0156 944.9013,476.0156 C945.1669,476.0156 945.4325,475.875 945.6044,475.6563 C945.7138,475.5 945.745,475.3125 945.745,474.8906 L945.745,473.4688 C945.745,473.0313 945.7294,472.9063 945.6357,472.75 C945.4794,472.4844 945.1982,472.3438 944.9013,472.3438 C944.6044,472.3438 944.4013,472.4375 944.1825,472.75 L944.0107,472.6719 Z " fill="#000000"/><text fill="#000000" font-family="sans-serif" font-size="12" lengthAdjust="spacingAndGlyphs" textLength="65" x="959.1669" y="481.1543">ResultView</text><line style="stroke: #A80036; stroke-width: 1.5;" x1="911.9169" x2="1041.9169" y1="493" y2="493"/><line style="stroke: #A80036; stroke-width: 1.5;" x1="911.9169" x2="1041.9169" y1="501" y2="501"/><polygon fill="#4177AF" points="921.9169,508,917.9169,514,925.9169,514" style="stroke: #1963A0; stroke-width: 1.0;"/><text fill="#000000" font-family="sans-serif" font-size="11" lengthAdjust="spacingAndGlyphs" textLength="106" x="930.9169" y="515.2104">ResultView(Result)</text><polygon fill="#4177AF" points="921.9169,520.8047,917.9169,526.8047,925.9169,526.8047" style="stroke: #1963A0; stroke-width: 1.0;"/><text fill="#000000" font-family="sans-serif" font-size="11" lengthAdjust="spacingAndGlyphs" textLength="46" x="930.9169" y="528.0151">writeln()</text><!--MD5=[319c5dc11669ced95ee1d652131436b7]
class usantatecla.mastermind.views.ProposalView--><rect codeLine="60" fill="#FEFECE" filter="url(#f1wru4i9q01hpf)" height="73.6094" id="usantatecla.mastermind.views.ProposalView" style="stroke: #A80036; stroke-width: 1.5;" width="144" x="1182.9179" y="175"/><ellipse cx="1211.8679" cy="191" fill="#ADD1B2" rx="11" ry="11" style="stroke: #A80036; stroke-width: 1.0;"/><path d="M1214.2117,186.6719 C1213.2742,186.2344 1212.6804,186.0938 1211.8054,186.0938 C1209.1804,186.0938 1207.1804,188.1719 1207.1804,190.8906 L1207.1804,192.0156 C1207.1804,194.5938 1209.2898,196.4844 1212.1804,196.4844 C1213.3992,196.4844 1214.5554,196.1875 1215.3054,195.6406 C1215.8835,195.2344 1216.2117,194.7813 1216.2117,194.3906 C1216.2117,193.9375 1215.821,193.5469 1215.3523,193.5469 C1215.1335,193.5469 1214.9304,193.625 1214.7429,193.8125 C1214.2898,194.2969 1214.2898,194.2969 1214.1023,194.3906 C1213.6804,194.6563 1212.9929,194.7813 1212.2273,194.7813 C1210.1804,194.7813 1208.8835,193.6875 1208.8835,191.9844 L1208.8835,190.8906 C1208.8835,189.1094 1210.1335,187.7969 1211.8679,187.7969 C1212.446,187.7969 1213.0554,187.9531 1213.5242,188.2031 C1214.0085,188.4844 1214.1804,188.7031 1214.2742,189.1094 C1214.3367,189.5156 1214.3679,189.6406 1214.5085,189.7656 C1214.6492,189.9063 1214.8835,190.0156 1215.1023,190.0156 C1215.3679,190.0156 1215.6335,189.875 1215.8054,189.6563 C1215.9148,189.5 1215.946,189.3125 1215.946,188.8906 L1215.946,187.4688 C1215.946,187.0313 1215.9304,186.9063 1215.8367,186.75 C1215.6804,186.4844 1215.3992,186.3438 1215.1023,186.3438 C1214.8054,186.3438 1214.6023,186.4375 1214.3835,186.75 L1214.2117,186.6719 Z " fill="#000000"/><text fill="#000000" font-family="sans-serif" font-size="12" lengthAdjust="spacingAndGlyphs" textLength="81" x="1228.9679" y="195.1543">ProposalView</text><line style="stroke: #A80036; stroke-width: 1.5;" x1="1183.9179" x2="1325.9179" y1="207" y2="207"/><line style="stroke: #A80036; stroke-width: 1.5;" x1="1183.9179" x2="1325.9179" y1="215" y2="215"/><polygon fill="#4177AF" points="1193.9179,222,1189.9179,228,1197.9179,228" style="stroke: #1963A0; stroke-width: 1.0;"/><text fill="#000000" font-family="sans-serif" font-size="11" lengthAdjust="spacingAndGlyphs" textLength="118" x="1202.9179" y="229.2104">ProposalView(Game)</text><polygon fill="#4177AF" points="1193.9179,234.8047,1189.9179,240.8047,1197.9179,240.8047" style="stroke: #1963A0; stroke-width: 1.0;"/><text fill="#000000" font-family="sans-serif" font-size="11" lengthAdjust="spacingAndGlyphs" textLength="104" x="1202.9179" y="242.0151">interact(): boolean</text><!--MD5=[f2328b4c97b842ac1a4522e7c76a3a7f]
class usantatecla.mastermind.views.ResumeView--><rect codeLine="89" fill="#FEFECE" filter="url(#f1wru4i9q01hpf)" height="73.6094" id="usantatecla.mastermind.views.ResumeView" style="stroke: #A80036; stroke-width: 1.5;" width="144" x="1539.9179" y="175"/><ellipse cx="1570.6679" cy="191" fill="#ADD1B2" rx="11" ry="11" style="stroke: #A80036; stroke-width: 1.0;"/><path d="M1573.0117,186.6719 C1572.0742,186.2344 1571.4804,186.0938 1570.6054,186.0938 C1567.9804,186.0938 1565.9804,188.1719 1565.9804,190.8906 L1565.9804,192.0156 C1565.9804,194.5938 1568.0898,196.4844 1570.9804,196.4844 C1572.1992,196.4844 1573.3554,196.1875 1574.1054,195.6406 C1574.6835,195.2344 1575.0117,194.7813 1575.0117,194.3906 C1575.0117,193.9375 1574.621,193.5469 1574.1523,193.5469 C1573.9335,193.5469 1573.7304,193.625 1573.5429,193.8125 C1573.0898,194.2969 1573.0898,194.2969 1572.9023,194.3906 C1572.4804,194.6563 1571.7929,194.7813 1571.0273,194.7813 C1568.9804,194.7813 1567.6835,193.6875 1567.6835,191.9844 L1567.6835,190.8906 C1567.6835,189.1094 1568.9335,187.7969 1570.6679,187.7969 C1571.246,187.7969 1571.8554,187.9531 1572.3242,188.2031 C1572.8085,188.4844 1572.9804,188.7031 1573.0742,189.1094 C1573.1367,189.5156 1573.1679,189.6406 1573.3085,189.7656 C1573.4492,189.9063 1573.6835,190.0156 1573.9023,190.0156 C1574.1679,190.0156 1574.4335,189.875 1574.6054,189.6563 C1574.7148,189.5 1574.746,189.3125 1574.746,188.8906 L1574.746,187.4688 C1574.746,187.0313 1574.7304,186.9063 1574.6367,186.75 C1574.4804,186.4844 1574.1992,186.3438 1573.9023,186.3438 C1573.6054,186.3438 1573.4023,186.4375 1573.1835,186.75 L1573.0117,186.6719 Z " fill="#000000"/><text fill="#000000" font-family="sans-serif" font-size="12" lengthAdjust="spacingAndGlyphs" textLength="77" x="1588.1679" y="195.1543">ResumeView</text><line style="stroke: #A80036; stroke-width: 1.5;" x1="1540.9179" x2="1682.9179" y1="207" y2="207"/><line style="stroke: #A80036; stroke-width: 1.5;" x1="1540.9179" x2="1682.9179" y1="215" y2="215"/><polygon fill="#4177AF" points="1550.9179,222,1546.9179,228,1554.9179,228" style="stroke: #1963A0; stroke-width: 1.0;"/><text fill="#000000" font-family="sans-serif" font-size="11" lengthAdjust="spacingAndGlyphs" textLength="118" x="1559.9179" y="229.2104">ResumeView(Game)</text><polygon fill="#4177AF" points="1550.9179,234.8047,1546.9179,240.8047,1554.9179,240.8047" style="stroke: #1963A0; stroke-width: 1.0;"/><text fill="#000000" font-family="sans-serif" font-size="11" lengthAdjust="spacingAndGlyphs" textLength="104" x="1559.9179" y="242.0151">interact(): boolean</text><!--MD5=[ee0b5fdabe0a489c3962ab40c84a426b]
class usantatecla.mastermind.views.StartView--><rect codeLine="104" fill="#FEFECE" filter="url(#f1wru4i9q01hpf)" height="60.8047" id="usantatecla.mastermind.views.StartView" style="stroke: #A80036; stroke-width: 1.5;" width="89" x="1501.4179" y="321.5"/><ellipse cx="1516.4179" cy="337.5" fill="#ADD1B2" rx="11" ry="11" style="stroke: #A80036; stroke-width: 1.0;"/><path d="M1518.7617,333.1719 C1517.8242,332.7344 1517.2304,332.5938 1516.3554,332.5938 C1513.7304,332.5938 1511.7304,334.6719 1511.7304,337.3906 L1511.7304,338.5156 C1511.7304,341.0938 1513.8398,342.9844 1516.7304,342.9844 C1517.9492,342.9844 1519.1054,342.6875 1519.8554,342.1406 C1520.4335,341.7344 1520.7617,341.2813 1520.7617,340.8906 C1520.7617,340.4375 1520.371,340.0469 1519.9023,340.0469 C1519.6835,340.0469 1519.4804,340.125 1519.2929,340.3125 C1518.8398,340.7969 1518.8398,340.7969 1518.6523,340.8906 C1518.2304,341.1563 1517.5429,341.2813 1516.7773,341.2813 C1514.7304,341.2813 1513.4335,340.1875 1513.4335,338.4844 L1513.4335,337.3906 C1513.4335,335.6094 1514.6835,334.2969 1516.4179,334.2969 C1516.996,334.2969 1517.6054,334.4531 1518.0742,334.7031 C1518.5585,334.9844 1518.7304,335.2031 1518.8242,335.6094 C1518.8867,336.0156 1518.9179,336.1406 1519.0585,336.2656 C1519.1992,336.4063 1519.4335,336.5156 1519.6523,336.5156 C1519.9179,336.5156 1520.1835,336.375 1520.3554,336.1563 C1520.4648,336 1520.496,335.8125 1520.496,335.3906 L1520.496,333.9688 C1520.496,333.5313 1520.4804,333.4063 1520.3867,333.25 C1520.2304,332.9844 1519.9492,332.8438 1519.6523,332.8438 C1519.3554,332.8438 1519.1523,332.9375 1518.9335,333.25 L1518.7617,333.1719 Z " fill="#000000"/><text fill="#000000" font-family="sans-serif" font-size="12" lengthAdjust="spacingAndGlyphs" textLength="57" x="1530.4179" y="341.6543">StartView</text><line style="stroke: #A80036; stroke-width: 1.5;" x1="1502.4179" x2="1589.4179" y1="353.5" y2="353.5"/><line style="stroke: #A80036; stroke-width: 1.5;" x1="1502.4179" x2="1589.4179" y1="361.5" y2="361.5"/><polygon fill="#4177AF" points="1512.4179,368.5,1508.4179,374.5,1516.4179,374.5" style="stroke: #1963A0; stroke-width: 1.0;"/><text fill="#000000" font-family="sans-serif" font-size="11" lengthAdjust="spacingAndGlyphs" textLength="51" x="1521.4179" y="375.7104">interact()</text><!--MD5=[f5534db0476bcf0d5af6a596dc954aba]
class usantatecla.mastermind.views.View--><rect codeLine="110" fill="#FEFECE" filter="url(#f1wru4i9q01hpf)" height="73.6094" id="usantatecla.mastermind.views.View" style="stroke: #A80036; stroke-width: 1.5;" width="97" x="1260.4179" y="41"/><ellipse cx="1291.6179" cy="57" fill="#ADD1B2" rx="11" ry="11" style="stroke: #A80036; stroke-width: 1.0;"/><path d="M1293.9617,52.6719 C1293.0242,52.2344 1292.4304,52.0938 1291.5554,52.0938 C1288.9304,52.0938 1286.9304,54.1719 1286.9304,56.8906 L1286.9304,58.0156 C1286.9304,60.5938 1289.0398,62.4844 1291.9304,62.4844 C1293.1492,62.4844 1294.3054,62.1875 1295.0554,61.6406 C1295.6335,61.2344 1295.9617,60.7813 1295.9617,60.3906 C1295.9617,59.9375 1295.571,59.5469 1295.1023,59.5469 C1294.8835,59.5469 1294.6804,59.625 1294.4929,59.8125 C1294.0398,60.2969 1294.0398,60.2969 1293.8523,60.3906 C1293.4304,60.6563 1292.7429,60.7813 1291.9773,60.7813 C1289.9304,60.7813 1288.6335,59.6875 1288.6335,57.9844 L1288.6335,56.8906 C1288.6335,55.1094 1289.8835,53.7969 1291.6179,53.7969 C1292.196,53.7969 1292.8054,53.9531 1293.2742,54.2031 C1293.7585,54.4844 1293.9304,54.7031 1294.0242,55.1094 C1294.0867,55.5156 1294.1179,55.6406 1294.2585,55.7656 C1294.3992,55.9063 1294.6335,56.0156 1294.8523,56.0156 C1295.1179,56.0156 1295.3835,55.875 1295.5554,55.6563 C1295.6648,55.5 1295.696,55.3125 1295.696,54.8906 L1295.696,53.4688 C1295.696,53.0313 1295.6804,52.9063 1295.5867,52.75 C1295.4304,52.4844 1295.1492,52.3438 1294.8523,52.3438 C1294.5554,52.3438 1294.3523,52.4375 1294.1335,52.75 L1293.9617,52.6719 Z " fill="#000000"/><text fill="#000000" font-family="sans-serif" font-size="12" lengthAdjust="spacingAndGlyphs" textLength="29" x="1309.2179" y="61.1543">View</text><line style="stroke: #A80036; stroke-width: 1.5;" x1="1261.4179" x2="1356.4179" y1="73" y2="73"/><line style="stroke: #A80036; stroke-width: 1.5;" x1="1261.4179" x2="1356.4179" y1="81" y2="81"/><ellipse cx="1271.4179" cy="92" fill="#84BE84" rx="3" ry="3" style="stroke: #038048; stroke-width: 1.0;"/><text fill="#000000" font-family="sans-serif" font-size="11" lengthAdjust="spacingAndGlyphs" textLength="71" x="1280.4179" y="95.2104">View(Game)</text><ellipse cx="1271.4179" cy="104.8047" fill="#84BE84" rx="3" ry="3" style="stroke: #038048; stroke-width: 1.0;"/><text fill="#000000" font-family="sans-serif" font-size="11" lengthAdjust="spacingAndGlyphs" textLength="51" x="1280.4179" y="108.0151">interact()</text><!--MD5=[ce3aceb15685c4a66d1e1b8ea7e2c984]
class ColorCode--><rect codeLine="1" fill="#FEFECE" filter="url(#f1wru4i9q01hpf)" height="67.9063" id="ColorCode" style="stroke: #A80036; stroke-width: 1.5;" width="133" x="1153.4179" y="1016"/><ellipse cx="1168.4179" cy="1041.9531" fill="#ADD1B2" rx="11" ry="11" style="stroke: #A80036; stroke-width: 1.0;"/><path d="M1170.7617,1037.625 C1169.8242,1037.1875 1169.2304,1037.0469 1168.3554,1037.0469 C1165.7304,1037.0469 1163.7304,1039.125 1163.7304,1041.8438 L1163.7304,1042.9688 C1163.7304,1045.5469 1165.8398,1047.4375 1168.7304,1047.4375 C1169.9492,1047.4375 1171.1054,1047.1406 1171.8554,1046.5938 C1172.4335,1046.1875 1172.7617,1045.7344 1172.7617,1045.3438 C1172.7617,1044.8906 1172.371,1044.5 1171.9023,1044.5 C1171.6835,1044.5 1171.4804,1044.5781 1171.2929,1044.7656 C1170.8398,1045.25 1170.8398,1045.25 1170.6523,1045.3438 C1170.2304,1045.6094 1169.5429,1045.7344 1168.7773,1045.7344 C1166.7304,1045.7344 1165.4335,1044.6406 1165.4335,1042.9375 L1165.4335,1041.8438 C1165.4335,1040.0625 1166.6835,1038.75 1168.4179,1038.75 C1168.996,1038.75 1169.6054,1038.9063 1170.0742,1039.1563 C1170.5585,1039.4375 1170.7304,1039.6563 1170.8242,1040.0625 C1170.8867,1040.4688 1170.9179,1040.5938 1171.0585,1040.7188 C1171.1992,1040.8594 1171.4335,1040.9688 1171.6523,1040.9688 C1171.9179,1040.9688 1172.1835,1040.8281 1172.3554,1040.6094 C1172.4648,1040.4531 1172.496,1040.2656 1172.496,1039.8438 L1172.496,1038.4219 C1172.496,1037.9844 1172.4804,1037.8594 1172.3867,1037.7031 C1172.2304,1037.4375 1171.9492,1037.2969 1171.6523,1037.2969 C1171.3554,1037.2969 1171.1523,1037.3906 1170.9335,1037.7031 L1170.7617,1037.625 Z " fill="#000000"/><text fill="#000000" font-family="sans-serif" font-size="12" lengthAdjust="spacingAndGlyphs" textLength="71" x="1197.4179" y="1032.1387">usantatecla.</text><text fill="#000000" font-family="sans-serif" font-size="12" lengthAdjust="spacingAndGlyphs" textLength="101" x="1182.4179" y="1046.1074">mastermind.utils.</text><text fill="#000000" font-family="sans-serif" font-size="12" lengthAdjust="spacingAndGlyphs" textLength="64" x="1200.9179" y="1060.0762">ColorCode</text><line style="stroke: #A80036; stroke-width: 1.5;" x1="1154.4179" x2="1285.4179" y1="1067.9063" y2="1067.9063"/><line style="stroke: #A80036; stroke-width: 1.5;" x1="1154.4179" x2="1285.4179" y1="1075.9063" y2="1075.9063"/><!--MD5=[b8cfd8c4119a3b0a7a46bfc5fc780f85]
class Error--><rect codeLine="2" fill="#FEFECE" filter="url(#f1wru4i9q01hpf)" height="67.9063" id="Error" style="stroke: #A80036; stroke-width: 1.5;" width="154" x="352.9169" y="680.5"/><ellipse cx="367.9169" cy="706.4531" fill="#ADD1B2" rx="11" ry="11" style="stroke: #A80036; stroke-width: 1.0;"/><path d="M370.2607,702.125 C369.3232,701.6875 368.7294,701.5469 367.8544,701.5469 C365.2294,701.5469 363.2294,703.625 363.2294,706.3438 L363.2294,707.4688 C363.2294,710.0469 365.3388,711.9375 368.2294,711.9375 C369.4482,711.9375 370.6044,711.6406 371.3544,711.0938 C371.9325,710.6875 372.2607,710.2344 372.2607,709.8438 C372.2607,709.3906 371.87,709 371.4013,709 C371.1825,709 370.9794,709.0781 370.7919,709.2656 C370.3388,709.75 370.3388,709.75 370.1513,709.8438 C369.7294,710.1094 369.0419,710.2344 368.2763,710.2344 C366.2294,710.2344 364.9325,709.1406 364.9325,707.4375 L364.9325,706.3438 C364.9325,704.5625 366.1825,703.25 367.9169,703.25 C368.495,703.25 369.1044,703.4063 369.5732,703.6563 C370.0575,703.9375 370.2294,704.1563 370.3232,704.5625 C370.3857,704.9688 370.4169,705.0938 370.5575,705.2188 C370.6982,705.3594 370.9325,705.4688 371.1513,705.4688 C371.4169,705.4688 371.6825,705.3281 371.8544,705.1094 C371.9638,704.9531 371.995,704.7656 371.995,704.3438 L371.995,702.9219 C371.995,702.4844 371.9794,702.3594 371.8857,702.2031 C371.7294,701.9375 371.4482,701.7969 371.1513,701.7969 C370.8544,701.7969 370.6513,701.8906 370.4325,702.2031 L370.2607,702.125 Z " fill="#000000"/><text fill="#000000" font-family="sans-serif" font-size="12" lengthAdjust="spacingAndGlyphs" textLength="71" x="407.4169" y="696.6387">usantatecla.</text><text fill="#000000" font-family="sans-serif" font-size="12" lengthAdjust="spacingAndGlyphs" textLength="122" x="381.9169" y="710.6074">mastermind.models.</text><text fill="#000000" font-family="sans-serif" font-size="12" lengthAdjust="spacingAndGlyphs" textLength="30" x="427.9169" y="724.5762">Error</text><line style="stroke: #A80036; stroke-width: 1.5;" x1="353.9169" x2="505.9169" y1="732.4063" y2="732.4063"/><line style="stroke: #A80036; stroke-width: 1.5;" x1="353.9169" x2="505.9169" y1="740.4063" y2="740.4063"/><!--MD5=[18eee71c88ab61f27581b8cbdd3ef5ee]
class Color--><rect codeLine="3" fill="#FEFECE" filter="url(#f1wru4i9q01hpf)" height="67.9063" id="Color" style="stroke: #A80036; stroke-width: 1.5;" width="154" x="1378.9179" y="888"/><ellipse cx="1393.9179" cy="913.9531" fill="#ADD1B2" rx="11" ry="11" style="stroke: #A80036; stroke-width: 1.0;"/><path d="M1396.2617,909.625 C1395.3242,909.1875 1394.7304,909.0469 1393.8554,909.0469 C1391.2304,909.0469 1389.2304,911.125 1389.2304,913.8438 L1389.2304,914.9688 C1389.2304,917.5469 1391.3398,919.4375 1394.2304,919.4375 C1395.4492,919.4375 1396.6054,919.1406 1397.3554,918.5938 C1397.9335,918.1875 1398.2617,917.7344 1398.2617,917.3438 C1398.2617,916.8906 1397.871,916.5 1397.4023,916.5 C1397.1835,916.5 1396.9804,916.5781 1396.7929,916.7656 C1396.3398,917.25 1396.3398,917.25 1396.1523,917.3438 C1395.7304,917.6094 1395.0429,917.7344 1394.2773,917.7344 C1392.2304,917.7344 1390.9335,916.6406 1390.9335,914.9375 L1390.9335,913.8438 C1390.9335,912.0625 1392.1835,910.75 1393.9179,910.75 C1394.496,910.75 1395.1054,910.9063 1395.5742,911.1563 C1396.0585,911.4375 1396.2304,911.6563 1396.3242,912.0625 C1396.3867,912.4688 1396.4179,912.5938 1396.5585,912.7188 C1396.6992,912.8594 1396.9335,912.9688 1397.1523,912.9688 C1397.4179,912.9688 1397.6835,912.8281 1397.8554,912.6094 C1397.9648,912.4531 1397.996,912.2656 1397.996,911.8438 L1397.996,910.4219 C1397.996,909.9844 1397.9804,909.8594 1397.8867,909.7031 C1397.7304,909.4375 1397.4492,909.2969 1397.1523,909.2969 C1396.8554,909.2969 1396.6523,909.3906 1396.4335,909.7031 L1396.2617,909.625 Z " fill="#000000"/><text fill="#000000" font-family="sans-serif" font-size="12" lengthAdjust="spacingAndGlyphs" textLength="71" x="1433.4179" y="904.1387">usantatecla.</text><text fill="#000000" font-family="sans-serif" font-size="12" lengthAdjust="spacingAndGlyphs" textLength="122" x="1407.9179" y="918.1074">mastermind.models.</text><text fill="#000000" font-family="sans-serif" font-size="12" lengthAdjust="spacingAndGlyphs" textLength="32" x="1452.9179" y="932.0762">Color</text><line style="stroke: #A80036; stroke-width: 1.5;" x1="1379.9179" x2="1531.9179" y1="939.9063" y2="939.9063"/><line style="stroke: #A80036; stroke-width: 1.5;" x1="1379.9179" x2="1531.9179" y1="947.9063" y2="947.9063"/><!--MD5=[28491d17d5ee38c9c116625a5ffc259a]
class Combination--><rect codeLine="4" fill="#FEFECE" filter="url(#f1wru4i9q01hpf)" height="67.9063" id="Combination" style="stroke: #A80036; stroke-width: 1.5;" width="156" x="541.9169" y="680.5"/><ellipse cx="556.9169" cy="706.4531" fill="#A9DCDF" rx="11" ry="11" style="stroke: #A80036; stroke-width: 1.0;"/><path d="M558.995,708.2656 L559.3857,709.25 L558.995,709.25 C558.5419,709.25 558.4325,709.2656 558.2763,709.375 C558.0263,709.5313 557.87,709.8125 557.87,710.1094 C557.87,710.375 558.0107,710.625 558.2294,710.7813 C558.37,710.9063 558.5732,710.9531 558.995,710.9531 L561.3544,710.9531 C561.7138,710.9531 561.9325,710.9219 562.0732,710.8281 C562.3232,710.6875 562.4794,710.3906 562.4794,710.1094 C562.4794,709.8281 562.3388,709.5781 562.12,709.4219 C561.9482,709.2813 561.7919,709.25 561.3232,709.25 L557.9325,701.0469 L554.2607,701.0469 C553.8075,701.0469 553.6825,701.0625 553.5263,701.1563 C553.2763,701.3281 553.12,701.6094 553.12,701.8906 C553.12,702.1719 553.2607,702.4219 553.4794,702.5938 C553.6513,702.7031 553.8232,702.7344 554.2607,702.7344 L555.3388,702.7344 L552.6982,709.25 C552.2763,709.25 552.12,709.2656 551.9638,709.375 C551.7138,709.5313 551.5575,709.8125 551.5575,710.1094 C551.5575,710.6719 551.9325,710.9531 552.6825,710.9531 L554.9482,710.9531 C555.3075,710.9531 555.5263,710.9219 555.6513,710.8281 C555.9169,710.6875 556.0575,710.3906 556.0575,710.1094 C556.0575,709.8281 555.9325,709.5781 555.7138,709.4063 C555.5419,709.2813 555.4013,709.25 554.9482,709.25 L554.5575,709.25 L554.9482,708.2656 L558.995,708.2656 Z M558.2919,706.5625 L555.62,706.5625 L556.9638,703.2969 L558.2919,706.5625 Z " fill="#000000"/><text fill="#000000" font-family="sans-serif" font-size="12" font-style="italic" lengthAdjust="spacingAndGlyphs" textLength="74" x="595.9169" y="696.6387">usantatecla.</text><text fill="#000000" font-family="sans-serif" font-size="12" font-style="italic" lengthAdjust="spacingAndGlyphs" textLength="124" x="570.9169" y="710.6074">mastermind.models.</text><text fill="#000000" font-family="sans-serif" font-size="12" font-style="italic" lengthAdjust="spacingAndGlyphs" textLength="76" x="594.9169" y="724.5762">Combination</text><line style="stroke: #A80036; stroke-width: 1.5;" x1="542.9169" x2="696.9169" y1="732.4063" y2="732.4063"/><line style="stroke: #A80036; stroke-width: 1.5;" x1="542.9169" x2="696.9169" y1="740.4063" y2="740.4063"/><!--MD5=[cf489b19c51ee25e76ddca093e62e620]
class ProposedCombination--><rect codeLine="5" fill="#FEFECE" filter="url(#f1wru4i9q01hpf)" height="67.9063" id="ProposedCombination" style="stroke: #A80036; stroke-width: 1.5;" width="164" x="1739.9179" y="680.5"/><ellipse cx="1754.9179" cy="706.4531" fill="#ADD1B2" rx="11" ry="11" style="stroke: #A80036; stroke-width: 1.0;"/><path d="M1757.2617,702.125 C1756.3242,701.6875 1755.7304,701.5469 1754.8554,701.5469 C1752.2304,701.5469 1750.2304,703.625 1750.2304,706.3438 L1750.2304,707.4688 C1750.2304,710.0469 1752.3398,711.9375 1755.2304,711.9375 C1756.4492,711.9375 1757.6054,711.6406 1758.3554,711.0938 C1758.9335,710.6875 1759.2617,710.2344 1759.2617,709.8438 C1759.2617,709.3906 1758.871,709 1758.4023,709 C1758.1835,709 1757.9804,709.0781 1757.7929,709.2656 C1757.3398,709.75 1757.3398,709.75 1757.1523,709.8438 C1756.7304,710.1094 1756.0429,710.2344 1755.2773,710.2344 C1753.2304,710.2344 1751.9335,709.1406 1751.9335,707.4375 L1751.9335,706.3438 C1751.9335,704.5625 1753.1835,703.25 1754.9179,703.25 C1755.496,703.25 1756.1054,703.4063 1756.5742,703.6563 C1757.0585,703.9375 1757.2304,704.1563 1757.3242,704.5625 C1757.3867,704.9688 1757.4179,705.0938 1757.5585,705.2188 C1757.6992,705.3594 1757.9335,705.4688 1758.1523,705.4688 C1758.4179,705.4688 1758.6835,705.3281 1758.8554,705.1094 C1758.9648,704.9531 1758.996,704.7656 1758.996,704.3438 L1758.996,702.9219 C1758.996,702.4844 1758.9804,702.3594 1758.8867,702.2031 C1758.7304,701.9375 1758.4492,701.7969 1758.1523,701.7969 C1757.8554,701.7969 1757.6523,701.8906 1757.4335,702.2031 L1757.2617,702.125 Z " fill="#000000"/><text fill="#000000" font-family="sans-serif" font-size="12" lengthAdjust="spacingAndGlyphs" textLength="71" x="1799.4179" y="696.6387">usantatecla.</text><text fill="#000000" font-family="sans-serif" font-size="12" lengthAdjust="spacingAndGlyphs" textLength="122" x="1773.9179" y="710.6074">mastermind.models.</text><text fill="#000000" font-family="sans-serif" font-size="12" lengthAdjust="spacingAndGlyphs" textLength="132" x="1768.9179" y="724.5762">ProposedCombination</text><line style="stroke: #A80036; stroke-width: 1.5;" x1="1740.9179" x2="1902.9179" y1="732.4063" y2="732.4063"/><line style="stroke: #A80036; stroke-width: 1.5;" x1="1740.9179" x2="1902.9179" y1="740.4063" y2="740.4063"/><!--MD5=[2741598bdf59a7d7e0d5c97658fd3022]
class Result--><rect codeLine="6" fill="#FEFECE" filter="url(#f1wru4i9q01hpf)" height="67.9063" id="Result" style="stroke: #A80036; stroke-width: 1.5;" width="154" x="163.9169" y="680.5"/><ellipse cx="178.9169" cy="706.4531" fill="#ADD1B2" rx="11" ry="11" style="stroke: #A80036; stroke-width: 1.0;"/><path d="M181.2607,702.125 C180.3232,701.6875 179.7294,701.5469 178.8544,701.5469 C176.2294,701.5469 174.2294,703.625 174.2294,706.3438 L174.2294,707.4688 C174.2294,710.0469 176.3388,711.9375 179.2294,711.9375 C180.4482,711.9375 181.6044,711.6406 182.3544,711.0938 C182.9325,710.6875 183.2607,710.2344 183.2607,709.8438 C183.2607,709.3906 182.87,709 182.4013,709 C182.1825,709 181.9794,709.0781 181.7919,709.2656 C181.3388,709.75 181.3388,709.75 181.1513,709.8438 C180.7294,710.1094 180.0419,710.2344 179.2763,710.2344 C177.2294,710.2344 175.9325,709.1406 175.9325,707.4375 L175.9325,706.3438 C175.9325,704.5625 177.1825,703.25 178.9169,703.25 C179.495,703.25 180.1044,703.4063 180.5732,703.6563 C181.0575,703.9375 181.2294,704.1563 181.3232,704.5625 C181.3857,704.9688 181.4169,705.0938 181.5575,705.2188 C181.6982,705.3594 181.9325,705.4688 182.1513,705.4688 C182.4169,705.4688 182.6825,705.3281 182.8544,705.1094 C182.9638,704.9531 182.995,704.7656 182.995,704.3438 L182.995,702.9219 C182.995,702.4844 182.9794,702.3594 182.8857,702.2031 C182.7294,701.9375 182.4482,701.7969 182.1513,701.7969 C181.8544,701.7969 181.6513,701.8906 181.4325,702.2031 L181.2607,702.125 Z " fill="#000000"/><text fill="#000000" font-family="sans-serif" font-size="12" lengthAdjust="spacingAndGlyphs" textLength="71" x="218.4169" y="696.6387">usantatecla.</text><text fill="#000000" font-family="sans-serif" font-size="12" lengthAdjust="spacingAndGlyphs" textLength="122" x="192.9169" y="710.6074">mastermind.models.</text><text fill="#000000" font-family="sans-serif" font-size="12" lengthAdjust="spacingAndGlyphs" textLength="36" x="235.9169" y="724.5762">Result</text><line style="stroke: #A80036; stroke-width: 1.5;" x1="164.9169" x2="316.9169" y1="732.4063" y2="732.4063"/><line style="stroke: #A80036; stroke-width: 1.5;" x1="164.9169" x2="316.9169" y1="740.4063" y2="740.4063"/><!--MD5=[b6dcce5e5ef3c84b0b048d11301373dd]
class Game--><rect codeLine="7" fill="#FEFECE" filter="url(#f1wru4i9q01hpf)" height="67.9063" id="Game" style="stroke: #A80036; stroke-width: 1.5;" width="154" x="469.9169" y="464"/><ellipse cx="484.9169" cy="489.9531" fill="#ADD1B2" rx="11" ry="11" style="stroke: #A80036; stroke-width: 1.0;"/><path d="M487.2607,485.625 C486.3232,485.1875 485.7294,485.0469 484.8544,485.0469 C482.2294,485.0469 480.2294,487.125 480.2294,489.8438 L480.2294,490.9688 C480.2294,493.5469 482.3388,495.4375 485.2294,495.4375 C486.4482,495.4375 487.6044,495.1406 488.3544,494.5938 C488.9325,494.1875 489.2607,493.7344 489.2607,493.3438 C489.2607,492.8906 488.87,492.5 488.4013,492.5 C488.1825,492.5 487.9794,492.5781 487.7919,492.7656 C487.3388,493.25 487.3388,493.25 487.1513,493.3438 C486.7294,493.6094 486.0419,493.7344 485.2763,493.7344 C483.2294,493.7344 481.9325,492.6406 481.9325,490.9375 L481.9325,489.8438 C481.9325,488.0625 483.1825,486.75 484.9169,486.75 C485.495,486.75 486.1044,486.9063 486.5732,487.1563 C487.0575,487.4375 487.2294,487.6563 487.3232,488.0625 C487.3857,488.4688 487.4169,488.5938 487.5575,488.7188 C487.6982,488.8594 487.9325,488.9688 488.1513,488.9688 C488.4169,488.9688 488.6825,488.8281 488.8544,488.6094 C488.9638,488.4531 488.995,488.2656 488.995,487.8438 L488.995,486.4219 C488.995,485.9844 488.9794,485.8594 488.8857,485.7031 C488.7294,485.4375 488.4482,485.2969 488.1513,485.2969 C487.8544,485.2969 487.6513,485.3906 487.4325,485.7031 L487.2607,485.625 Z " fill="#000000"/><text fill="#000000" font-family="sans-serif" font-size="12" lengthAdjust="spacingAndGlyphs" textLength="71" x="524.4169" y="480.1387">usantatecla.</text><text fill="#000000" font-family="sans-serif" font-size="12" lengthAdjust="spacingAndGlyphs" textLength="122" x="498.9169" y="494.1074">mastermind.models.</text><text fill="#000000" font-family="sans-serif" font-size="12" lengthAdjust="spacingAndGlyphs" textLength="35" x="542.4169" y="508.0762">Game</text><line style="stroke: #A80036; stroke-width: 1.5;" x1="470.9169" x2="622.9169" y1="515.9063" y2="515.9063"/><line style="stroke: #A80036; stroke-width: 1.5;" x1="470.9169" x2="622.9169" y1="523.9063" y2="523.9063"/><!--MD5=[d93cf99d2b92276f27fe8dbf15140505]
class YesNoDialog--><rect codeLine="8" fill="#FEFECE" filter="url(#f1wru4i9q01hpf)" height="67.9063" id="YesNoDialog" style="stroke: #A80036; stroke-width: 1.5;" width="108" x="1813.9179" y="464"/><ellipse cx="1828.9179" cy="489.9531" fill="#ADD1B2" rx="11" ry="11" style="stroke: #A80036; stroke-width: 1.0;"/><path d="M1831.2617,485.625 C1830.3242,485.1875 1829.7304,485.0469 1828.8554,485.0469 C1826.2304,485.0469 1824.2304,487.125 1824.2304,489.8438 L1824.2304,490.9688 C1824.2304,493.5469 1826.3398,495.4375 1829.2304,495.4375 C1830.4492,495.4375 1831.6054,495.1406 1832.3554,494.5938 C1832.9335,494.1875 1833.2617,493.7344 1833.2617,493.3438 C1833.2617,492.8906 1832.871,492.5 1832.4023,492.5 C1832.1835,492.5 1831.9804,492.5781 1831.7929,492.7656 C1831.3398,493.25 1831.3398,493.25 1831.1523,493.3438 C1830.7304,493.6094 1830.0429,493.7344 1829.2773,493.7344 C1827.2304,493.7344 1825.9335,492.6406 1825.9335,490.9375 L1825.9335,489.8438 C1825.9335,488.0625 1827.1835,486.75 1828.9179,486.75 C1829.496,486.75 1830.1054,486.9063 1830.5742,487.1563 C1831.0585,487.4375 1831.2304,487.6563 1831.3242,488.0625 C1831.3867,488.4688 1831.4179,488.5938 1831.5585,488.7188 C1831.6992,488.8594 1831.9335,488.9688 1832.1523,488.9688 C1832.4179,488.9688 1832.6835,488.8281 1832.8554,488.6094 C1832.9648,488.4531 1832.996,488.2656 1832.996,487.8438 L1832.996,486.4219 C1832.996,485.9844 1832.9804,485.8594 1832.8867,485.7031 C1832.7304,485.4375 1832.4492,485.2969 1832.1523,485.2969 C1831.8554,485.2969 1831.6523,485.3906 1831.4335,485.7031 L1831.2617,485.625 Z " fill="#000000"/><text fill="#000000" font-family="sans-serif" font-size="12" lengthAdjust="spacingAndGlyphs" textLength="71" x="1845.4179" y="480.1387">usantatecla.</text><text fill="#000000" font-family="sans-serif" font-size="12" lengthAdjust="spacingAndGlyphs" textLength="27" x="1867.4179" y="494.1074">utils.</text><text fill="#000000" font-family="sans-serif" font-size="12" lengthAdjust="spacingAndGlyphs" textLength="76" x="1842.9179" y="508.0762">YesNoDialog</text><line style="stroke: #A80036; stroke-width: 1.5;" x1="1814.9179" x2="1920.9179" y1="515.9063" y2="515.9063"/><line style="stroke: #A80036; stroke-width: 1.5;" x1="1814.9179" x2="1920.9179" y1="523.9063" y2="523.9063"/><!--MD5=[315b61b427ec618d6861d47eee00cca3]
class Console--><rect codeLine="9" fill="#FEFECE" filter="url(#f1wru4i9q01hpf)" height="67.9063" id="Console" style="stroke: #A80036; stroke-width: 1.5;" width="103" x="963.4169" y="888"/><ellipse cx="978.4169" cy="913.9531" fill="#ADD1B2" rx="11" ry="11" style="stroke: #A80036; stroke-width: 1.0;"/><path d="M980.7607,909.625 C979.8232,909.1875 979.2294,909.0469 978.3544,909.0469 C975.7294,909.0469 973.7294,911.125 973.7294,913.8438 L973.7294,914.9688 C973.7294,917.5469 975.8388,919.4375 978.7294,919.4375 C979.9482,919.4375 981.1044,919.1406 981.8544,918.5938 C982.4325,918.1875 982.7607,917.7344 982.7607,917.3438 C982.7607,916.8906 982.37,916.5 981.9013,916.5 C981.6825,916.5 981.4794,916.5781 981.2919,916.7656 C980.8388,917.25 980.8388,917.25 980.6513,917.3438 C980.2294,917.6094 979.5419,917.7344 978.7763,917.7344 C976.7294,917.7344 975.4325,916.6406 975.4325,914.9375 L975.4325,913.8438 C975.4325,912.0625 976.6825,910.75 978.4169,910.75 C978.995,910.75 979.6044,910.9063 980.0732,911.1563 C980.5575,911.4375 980.7294,911.6563 980.8232,912.0625 C980.8857,912.4688 980.9169,912.5938 981.0575,912.7188 C981.1982,912.8594 981.4325,912.9688 981.6513,912.9688 C981.9169,912.9688 982.1825,912.8281 982.3544,912.6094 C982.4638,912.4531 982.495,912.2656 982.495,911.8438 L982.495,910.4219 C982.495,909.9844 982.4794,909.8594 982.3857,909.7031 C982.2294,909.4375 981.9482,909.2969 981.6513,909.2969 C981.3544,909.2969 981.1513,909.3906 980.9325,909.7031 L980.7607,909.625 Z " fill="#000000"/><text fill="#000000" font-family="sans-serif" font-size="12" lengthAdjust="spacingAndGlyphs" textLength="71" x="992.4169" y="904.1387">usantatecla.</text><text fill="#000000" font-family="sans-serif" font-size="12" lengthAdjust="spacingAndGlyphs" textLength="27" x="1014.4169" y="918.1074">utils.</text><text fill="#000000" font-family="sans-serif" font-size="12" lengthAdjust="spacingAndGlyphs" textLength="49" x="1003.4169" y="932.0762">Console</text><line style="stroke: #A80036; stroke-width: 1.5;" x1="964.4169" x2="1065.4169" y1="939.9063" y2="939.9063"/><line style="stroke: #A80036; stroke-width: 1.5;" x1="964.4169" x2="1065.4169" y1="947.9063" y2="947.9063"/><!--MD5=[08383a8f6fc9f9ff7dbf35b6e8de8180]
link usantatecla.mastermind.views.ColorView to ColorCode--><path codeLine="18" d="M1219.9179,770.571 C1219.9179,838.275 1219.9179,951.438 1219.9179,1010.4875 " fill="none" id="usantatecla.mastermind.views.ColorView-to-ColorCode" style="stroke: #A80036; stroke-width: 1.0; stroke-dasharray: 7.0,7.0;"/><polygon fill="#A80036" points="1219.9179,1015.6834,1223.9179,1006.6834,1219.9179,1010.6834,1215.9179,1006.6834,1219.9179,1015.6834" style="stroke: #A80036; stroke-width: 1.0;"/><!--MD5=[037b2a79b64666ba83d382cd2f7d163f]
link usantatecla.mastermind.views.ColorView to Color--><path codeLine="19" d="M1257.2889,780.6291 C1257.2889,780.6291 1294.7179,832.224 1317.9179,852 C1332.4879,864.424 1349.6879,875.291 1366.9079,884.501 " fill="none" id="usantatecla.mastermind.views.ColorView-Color" style="stroke: #A80036; stroke-width: 1.0;"/><polygon fill="#A80036" points="1378.8079,890.611,1372.6317,882.9393,1374.3609,888.3254,1368.9748,890.0545,1378.8079,890.611" style="stroke: #A80036; stroke-width: 1.0;"/><line style="stroke: #A80036; stroke-width: 1.0;" x1="1374.3609" x2="1367.2379" y1="888.3254" y2="884.67"/><polygon fill="#A80036" points="1250.7379,770.575,1250.662,777.7857,1257.2889,780.6291,1257.3648,773.4184,1250.7379,770.575" style="stroke: #A80036; stroke-width: 1.0;"/><!--MD5=[41b24afec43bb3213296ed92b425fcbe]
link usantatecla.mastermind.views.ErrorView to Error--><path codeLine="26" d="M719.1186,534.7223 C719.1186,534.7223 707.7829,539.165 702.9169,541 C624.4059,570.599 593.2109,553.686 523.9169,601 C497.5149,619.027 474.3919,646.448 457.6859,669.704 " fill="none" id="usantatecla.mastermind.views.ErrorView-Error" style="stroke: #A80036; stroke-width: 1.0;"/><polygon fill="#A80036" points="450.2439,680.386,458.6706,675.2879,453.102,676.2834,452.1065,670.7149,450.2439,680.386" style="stroke: #A80036; stroke-width: 1.0;"/><line style="stroke: #A80036; stroke-width: 1.0;" x1="453.102" x2="457.6754" y1="676.2834" y2="669.719"/><polygon fill="#A80036" points="730.2569,530.257,723.1993,528.7769,719.1186,534.7223,726.1762,536.2024,730.2569,530.257" style="stroke: #A80036; stroke-width: 1.0;"/><!--MD5=[23fe9cc800f1edc669d74feefb61dc25]
link usantatecla.mastermind.views.ErrorView to usantatecla.mastermind.views.ColorView--><path codeLine="27" d="M875.5529,536.363 C947.7359,573.493 1058.3979,630.417 1134.6979,669.663 " fill="none" id="usantatecla.mastermind.views.ErrorView-to-usantatecla.mastermind.views.ColorView" style="stroke: #A80036; stroke-width: 1.0; stroke-dasharray: 7.0,7.0;"/><polygon fill="#A80036" points="1139.2179,671.987,1133.0428,664.3144,1134.7712,669.7008,1129.3849,671.4292,1139.2179,671.987" style="stroke: #A80036; stroke-width: 1.0;"/><!--MD5=[2ab14ef0c676d1e092523411315054a4]
link usantatecla.mastermind.views.ErrorView to Console--><path codeLine="28" d="M730.3049,532.352 C721.2169,535.673 711.9429,538.672 702.9169,541 C582.3699,572.098 229.0999,508.375 145.9169,601 C71.3791,683.998 70.2216,770.056 145.9169,852 C200.9839,911.613 773.8169,919.77 958.1299,920.848 " fill="none" id="usantatecla.mastermind.views.ErrorView-to-Console" style="stroke: #A80036; stroke-width: 1.0; stroke-dasharray: 7.0,7.0;"/><polygon fill="#A80036" points="963.2049,920.876,954.2279,916.8246,958.205,920.8474,954.1822,924.8245,963.2049,920.876" style="stroke: #A80036; stroke-width: 1.0;"/><!--MD5=[f3262bb1d0e247f9b0497e858399faf2]
link usantatecla.mastermind.views.GameView to Game--><path codeLine="35" d="M1015.7093,382.3912 C1015.7093,382.3912 980.3329,391.263 963.9169,395 C825.8059,426.439 786.7829,414.957 650.9169,455 C646.2539,456.374 641.5099,457.88 636.7469,459.479 " fill="none" id="usantatecla.mastermind.views.GameView-Game" style="stroke: #A80036; stroke-width: 1.0;"/><polygon fill="#A80036" points="624.1339,463.901,633.9505,464.698,628.8523,462.2467,631.3036,457.1485,624.1339,463.901" style="stroke: #A80036; stroke-width: 1.0;"/><line style="stroke: #A80036; stroke-width: 1.0;" x1="628.8523" x2="636.4024" y1="462.2467" y2="459.6"/><polygon fill="#A80036" points="1027.3279,379.39,1020.5182,377.0177,1015.7093,382.3912,1022.519,384.7635,1027.3279,379.39" style="stroke: #A80036; stroke-width: 1.0;"/><!--MD5=[d21d0405a173f87ae1b9534fb23491c5]
link usantatecla.mastermind.views.GameView to usantatecla.mastermind.views.SecretCombinationView--><path codeLine="36" d="M1229.9631,387.576 C1229.9631,387.576 1364.7379,431.963 1430.9179,455 C1435.7479,456.681 1440.6879,458.418 1445.6679,460.184 " fill="none" id="usantatecla.mastermind.views.GameView-usantatecla.mastermind.views.SecretCombinationView" style="stroke: #A80036; stroke-width: 1.0;"/><polygon fill="#A80036" points="1458.1079,464.621,1450.9766,457.8281,1453.3989,462.94,1448.287,465.3624,1458.1079,464.621" style="stroke: #A80036; stroke-width: 1.0;"/><line style="stroke: #A80036; stroke-width: 1.0;" x1="1453.3989" x2="1445.8679" y1="462.94" y2="460.255"/><polygon fill="#A80036" points="1218.5579,383.845,1223.0169,389.5122,1229.9631,387.576,1225.5042,381.9087,1218.5579,383.845" style="stroke: #A80036; stroke-width: 1.0;"/><!--MD5=[ab8c4cbe1278ff9146849d94d3d0e59f]
link usantatecla.mastermind.views.GameView to usantatecla.mastermind.views.MessageView--><path codeLine="37" d="M1218.7579,361.677 C1281.5779,372.769 1359.7779,397.948 1402.9179,455 C1432.7679,494.48 1440.4779,547.755 1439.5579,595.682 " fill="none" id="usantatecla.mastermind.views.GameView-to-usantatecla.mastermind.views.MessageView" style="stroke: #A80036; stroke-width: 1.0; stroke-dasharray: 7.0,7.0;"/><polygon fill="#A80036" points="1439.4279,600.899,1443.6579,592.0048,1439.5564,595.9007,1435.6606,591.7992,1439.4279,600.899" style="stroke: #A80036; stroke-width: 1.0;"/><!--MD5=[d35345d9c0915df373a5969884055f0f]
link usantatecla.mastermind.views.GameView to usantatecla.mastermind.views.ProposedCombinationView--><path codeLine="38" d="M1154.7379,395.038 C1167.9379,412.48 1183.3079,432.778 1196.8279,450.649 " fill="none" id="usantatecla.mastermind.views.GameView-to-usantatecla.mastermind.views.ProposedCombinationView" style="stroke: #A80036; stroke-width: 1.0; stroke-dasharray: 7.0,7.0;"/><polygon fill="#A80036" points="1199.8679,454.661,1197.6251,445.0709,1196.8501,450.6744,1191.2466,449.8994,1199.8679,454.661" style="stroke: #A80036; stroke-width: 1.0;"/><!--MD5=[c014ac327ca3a38d25898a1aa8388ae4]
link usantatecla.mastermind.views.GameView to usantatecla.mastermind.views.ResultView--><path codeLine="39" d="M1080.2979,395.038 C1060.5679,414.494 1037.2379,437.504 1017.7399,456.736 " fill="none" id="usantatecla.mastermind.views.GameView-to-usantatecla.mastermind.views.ResultView" style="stroke: #A80036; stroke-width: 1.0; stroke-dasharray: 7.0,7.0;"/><polygon fill="#A80036" points="1013.8929,460.53,1023.1094,457.0577,1017.4526,457.0188,1017.4915,451.3621,1013.8929,460.53" style="stroke: #A80036; stroke-width: 1.0;"/><!--MD5=[02db24aa4557775c2c6707ce511d9174]
link usantatecla.mastermind.views.GameView to Console--><path codeLine="40" d="M1026.9779,377.019 C1003.4149,382.909 978.2559,389.189 954.9169,395 C847.3879,421.771 806.8969,396.288 712.9169,455 C670.6399,481.412 684.8929,517.524 640.9169,541 C530.7029,599.837 165.4129,508.063 81.9171,601 C7.3633,683.984 6,770.261 81.9171,852 C141.6279,916.29 765.2699,921.209 958.2969,921.18 " fill="none" id="usantatecla.mastermind.views.GameView-to-Console" style="stroke: #A80036; stroke-width: 1.0; stroke-dasharray: 7.0,7.0;"/><polygon fill="#A80036" points="963.3299,921.178,954.3299,917.178,958.3299,921.178,954.3299,925.178,963.3299,921.178" style="stroke: #A80036; stroke-width: 1.0;"/><!--MD5=[c77fbeccc9b442b1389d16630dac2b60]
link usantatecla.mastermind.views.MessageView to Console--><path codeLine="58" d="M1347.1279,828.31 C1338.0779,837.201 1328.3179,845.309 1317.9179,852 C1242.1279,900.773 1136.2279,915.274 1071.7879,919.463 " fill="none" id="usantatecla.mastermind.views.MessageView-to-Console" style="stroke: #A80036; stroke-width: 1.0; stroke-dasharray: 7.0,7.0;"/><polygon fill="#A80036" points="1066.4479,919.792,1075.6717,923.2448,1071.4389,919.492,1075.1917,915.2593,1066.4479,919.792" style="stroke: #A80036; stroke-width: 1.0;"/><!--MD5=[c2784a6485428a9d0ed385435558fc48]
link usantatecla.mastermind.views.ProposalView to Game--><path codeLine="64" d="M1170.9056,231.4739 C1170.9056,231.4739 997.5279,275.374 911.9169,309 C803.9779,351.396 685.8159,415.836 614.0189,457.177 " fill="none" id="usantatecla.mastermind.views.ProposalView-Game" style="stroke: #A80036; stroke-width: 1.0;"/><polygon fill="#A80036" points="602.4689,463.859,612.2622,462.814,606.7967,461.355,608.2557,455.8895,602.4689,463.859" style="stroke: #A80036; stroke-width: 1.0;"/><line style="stroke: #A80036; stroke-width: 1.0;" x1="606.7967" x2="613.7214" y1="461.355" y2="457.349"/><polygon fill="#A80036" points="1182.5879,228.731,1175.8324,226.2083,1170.9056,231.4739,1177.661,233.9965,1182.5879,228.731" style="stroke: #A80036; stroke-width: 1.0;"/><!--MD5=[589169685814c50dcf07056edbdea2f2]
link usantatecla.mastermind.views.ProposalView to usantatecla.mastermind.views.GameView--><path codeLine="65" d="M1211.9459,257.9323 C1211.9459,257.9323 1185.1179,285.974 1172.4779,299.189 " fill="none" id="usantatecla.mastermind.views.ProposalView-usantatecla.mastermind.views.GameView" style="stroke: #A80036; stroke-width: 1.0;"/><polygon fill="#A80036" points="1163.4479,308.622,1172.5583,304.8803,1166.9029,305.0077,1166.7755,299.3523,1163.4479,308.622" style="stroke: #A80036; stroke-width: 1.0;"/><line style="stroke: #A80036; stroke-width: 1.0;" x1="1166.9029" x2="1172.4379" y1="305.0077" y2="299.228"/><polygon fill="#A80036" points="1220.2379,249.258,1213.2005,250.8311,1211.9459,257.9323,1218.9833,256.3591,1220.2379,249.258" style="stroke: #A80036; stroke-width: 1.0;"/><!--MD5=[c078b19fca140f06bb1462ff06f2f96a]
link usantatecla.mastermind.views.ProposalView to ProposedCombination--><path codeLine="66" d="M1327.0579,216.039 C1404.2179,222.764 1526.4679,243.825 1607.9179,309 C1730.5279,407.114 1791.3779,594.863 1812.7479,675.339 " fill="none" id="usantatecla.mastermind.views.ProposalView-to-ProposedCombination" style="stroke: #A80036; stroke-width: 1.0; stroke-dasharray: 7.0,7.0;"/><polygon fill="#A80036" points="1814.0979,680.483,1815.6841,670.7627,1812.8296,675.6465,1807.9458,672.792,1814.0979,680.483" style="stroke: #A80036; stroke-width: 1.0;"/><!--MD5=[4f7bde776b1e2d017ca28122a33b562e]
link usantatecla.mastermind.views.ProposalView to usantatecla.mastermind.views.ProposedCombinationView--><path codeLine="67" d="M1251.9779,249.257 C1247.8379,300.352 1240.2879,393.586 1235.7279,449.96 " fill="none" id="usantatecla.mastermind.views.ProposalView-to-usantatecla.mastermind.views.ProposedCombinationView" style="stroke: #A80036; stroke-width: 1.0; stroke-dasharray: 7.0,7.0;"/><polygon fill="#A80036" points="1235.3179,454.961,1240.0322,446.3137,1235.722,449.9774,1232.0584,445.6672,1235.3179,454.961" style="stroke: #A80036; stroke-width: 1.0;"/><!--MD5=[30c32eefd07a434877c34ca9bbcb31d9]
link usantatecla.mastermind.views.ProposedCombinationView to ProposedCombination--><path codeLine="74" d="M1397.7554,532.744 C1397.7554,532.744 1720.2679,598.864 1723.9179,601 C1752.3879,617.654 1776.7779,645.574 1794.1079,669.432 " fill="none" id="usantatecla.mastermind.views.ProposedCombinationView-ProposedCombination" style="stroke: #A80036; stroke-width: 1.0;"/><polygon fill="#A80036" points="1801.7979,680.401,1799.9058,670.7356,1798.9273,676.3072,1793.3557,675.3286,1801.7979,680.401" style="stroke: #A80036; stroke-width: 1.0;"/><line style="stroke: #A80036; stroke-width: 1.0;" x1="1798.9273" x2="1794.3329" y1="676.3072" y2="669.756"/><polygon fill="#A80036" points="1385.9979,530.344,1391.0767,535.4632,1397.7554,532.744,1392.6767,527.6248,1385.9979,530.344" style="stroke: #A80036; stroke-width: 1.0;"/><!--MD5=[24244a11dc75b3f56b77a957d668d189]
link usantatecla.mastermind.views.ProposedCombinationView to usantatecla.mastermind.views.MessageView--><path codeLine="75" d="M1269.2279,541.122 C1287.1779,561.39 1309.5579,586.65 1331.5979,611.531 " fill="none" id="usantatecla.mastermind.views.ProposedCombinationView-to-usantatecla.mastermind.views.MessageView" style="stroke: #A80036; stroke-width: 1.0; stroke-dasharray: 7.0,7.0;"/><polygon fill="#A80036" points="1335.1279,615.521,1332.1541,606.1318,1331.8124,611.7784,1326.1659,611.4367,1335.1279,615.521" style="stroke: #A80036; stroke-width: 1.0;"/><!--MD5=[2ab50d729eb054776fe940bcdac8856e]
link usantatecla.mastermind.views.ProposedCombinationView to usantatecla.mastermind.views.ColorView--><path codeLine="76" d="M1229.5579,541.122 C1227.7679,573.102 1225.2879,617.514 1223.2879,653.249 " fill="none" id="usantatecla.mastermind.views.ProposedCombinationView-to-usantatecla.mastermind.views.ColorView" style="stroke: #A80036; stroke-width: 1.0; stroke-dasharray: 7.0,7.0;"/><polygon fill="#A80036" points="1222.9979,658.456,1227.4949,649.6937,1223.2775,653.4638,1219.5074,649.2464,1222.9979,658.456" style="stroke: #A80036; stroke-width: 1.0;"/><!--MD5=[5d92d9b18a5089c82fdb31aadc95e332]
link usantatecla.mastermind.views.ProposedCombinationView to Combination--><path codeLine="77" d="M1077.7779,537.173 C1071.7579,538.495 1065.7879,539.776 1059.9179,541 C907.1319,572.863 849.1089,523.014 713.9169,601 C683.0729,618.793 657.8659,650.738 641.3479,676.053 " fill="none" id="usantatecla.mastermind.views.ProposedCombinationView-to-Combination" style="stroke: #A80036; stroke-width: 1.0; stroke-dasharray: 7.0,7.0;"/><polygon fill="#A80036" points="638.5689,680.376,646.801,674.9693,641.2731,676.1704,640.072,670.6425,638.5689,680.376" style="stroke: #A80036; stroke-width: 1.0;"/><!--MD5=[e60a2df0fed20911b64094c7775ce731]
link usantatecla.mastermind.views.ProposedCombinationView to Error--><path codeLine="78" d="M1077.8679,537.627 C1071.8179,538.823 1065.8179,539.954 1059.9179,541 C823.8889,582.851 735.0689,487.529 523.9169,601 C492.3389,617.97 467.0539,650.322 450.6959,675.993 " fill="none" id="usantatecla.mastermind.views.ProposedCombinationView-to-Error" style="stroke: #A80036; stroke-width: 1.0; stroke-dasharray: 7.0,7.0;"/><polygon fill="#A80036" points="447.9469,680.377,456.1167,674.8766,450.6029,676.1408,449.3388,670.627,447.9469,680.377" style="stroke: #A80036; stroke-width: 1.0;"/><!--MD5=[249db334c5b556894bf9316e2debba62]
link usantatecla.mastermind.views.ProposedCombinationView to Color--><path codeLine="79" d="M1386.0579,535.057 C1447.5479,552.836 1508.0279,575.853 1525.9179,601 C1590.5879,691.895 1568.9779,749.09 1525.9179,852 C1521.0179,863.708 1513.0579,874.437 1504.2279,883.768 " fill="none" id="usantatecla.mastermind.views.ProposedCombinationView-to-Color" style="stroke: #A80036; stroke-width: 1.0; stroke-dasharray: 7.0,7.0;"/><polygon fill="#A80036" points="1500.3979,887.68,1509.5534,884.0499,1503.8968,884.1082,1503.8385,878.4517,1500.3979,887.68" style="stroke: #A80036; stroke-width: 1.0;"/><!--MD5=[55951ac0bb525a41c4301bdcf95ea348]
link usantatecla.mastermind.views.ProposedCombinationView to Console--><path codeLine="80" d="M1127.4579,541.064 C1101.5979,556.258 1076.5679,576.007 1059.9179,601 C1001.8349,688.197 1004.5459,818.466 1010.2639,882.563 " fill="none" id="usantatecla.mastermind.views.ProposedCombinationView-to-Console" style="stroke: #A80036; stroke-width: 1.0; stroke-dasharray: 7.0,7.0;"/><polygon fill="#A80036" points="1010.7519,887.809,1013.8989,878.4765,1010.2876,882.8306,1005.9335,879.2193,1010.7519,887.809" style="stroke: #A80036; stroke-width: 1.0;"/><!--MD5=[9898b494071eafd9f5c981c57aeef0ce]
link usantatecla.mastermind.views.ResultView to Result--><path codeLine="86" d="M899.5938,538.8525 C899.5938,538.8525 894.7749,540.455 892.9169,541 C653.5759,611.22 554.8879,483.407 334.9169,601 C306.0449,616.434 282.4559,644.761 266.1289,669.127 " fill="none" id="usantatecla.mastermind.views.ResultView-Result" style="stroke: #A80036; stroke-width: 1.0;"/><polygon fill="#A80036" points="258.9269,680.339,267.1566,674.9286,261.6292,676.1322,260.4257,670.6048,258.9269,680.339" style="stroke: #A80036; stroke-width: 1.0;"/><line style="stroke: #A80036; stroke-width: 1.0;" x1="261.6292" x2="265.9529" y1="676.1322" y2="669.401"/><polygon fill="#A80036" points="910.8539,534.704,903.841,533.0249,899.5938,538.8525,906.6067,540.5316,910.8539,534.704" style="stroke: #A80036; stroke-width: 1.0;"/><!--MD5=[570007609a7eb30850b20d785a7700df]
link usantatecla.mastermind.views.ResultView to usantatecla.mastermind.views.MessageView--><path codeLine="87" d="M1043.3479,534.343 C1048.8879,536.757 1054.4479,539.015 1059.9179,541 C1170.5679,581.2 1216.1379,541.834 1317.9179,601 C1322.3979,603.607 1326.8079,606.469 1331.1179,609.533 " fill="none" id="usantatecla.mastermind.views.ResultView-to-usantatecla.mastermind.views.MessageView" style="stroke: #A80036; stroke-width: 1.0; stroke-dasharray: 7.0,7.0;"/><polygon fill="#A80036" points="1335.3979,612.662,1330.4827,604.1273,1331.3579,609.716,1325.7692,610.5912,1335.3979,612.662" style="stroke: #A80036; stroke-width: 1.0;"/><!--MD5=[489b5091198213f7a918b375ddeb2d43]
link usantatecla.mastermind.views.ResumeView to Game--><path codeLine="93" d="M1527.8572,224.847 C1527.8572,224.847 1058.0879,292.94 1009.9169,309 C932.2129,334.907 922.6359,363.762 846.9169,395 C762.7009,429.743 736.7899,424.581 650.9169,455 C646.1489,456.689 641.2779,458.468 636.3739,460.3 " fill="none" id="usantatecla.mastermind.views.ResumeView-Game" style="stroke: #A80036; stroke-width: 1.0;"/><polygon fill="#A80036" points="624.1549,464.947,633.989,465.4864,628.8283,463.1696,631.1451,458.009,624.1549,464.947" style="stroke: #A80036; stroke-width: 1.0;"/><line style="stroke: #A80036; stroke-width: 1.0;" x1="628.8283" x2="636.3054" y1="463.1696" y2="460.326"/><polygon fill="#A80036" points="1539.7379,223.159,1533.2349,220.0428,1527.8572,224.847,1534.3602,227.9632,1539.7379,223.159" style="stroke: #A80036; stroke-width: 1.0;"/><!--MD5=[7ae48b70e9aa4a0d63c6512d9e8167b2]
link usantatecla.mastermind.views.ResumeView to YesNoDialog--><path codeLine="94" d="M1683.9179,239.445 C1718.7379,255.217 1758.9379,278.234 1786.9179,309 C1826.3179,352.333 1848.5579,417.785 1859.4079,458.92 " fill="none" id="usantatecla.mastermind.views.ResumeView-to-YesNoDialog" style="stroke: #A80036; stroke-width: 1.0; stroke-dasharray: 7.0,7.0;"/><polygon fill="#A80036" points="1860.6679,463.813,1862.2793,454.0969,1859.4121,458.9733,1854.5357,456.1061,1860.6679,463.813" style="stroke: #A80036; stroke-width: 1.0;"/><!--MD5=[2ef77f0825b5a6f7d41a935deeb11291]
link usantatecla.mastermind.views.ResumeView to usantatecla.mastermind.views.MessageView--><path codeLine="95" d="M1631.6279,249.236 C1663.0179,312.22 1715.9279,444.393 1665.9179,541 C1633.9079,602.839 1568.3779,647.253 1513.2879,675.515 " fill="none" id="usantatecla.mastermind.views.ResumeView-to-usantatecla.mastermind.views.MessageView" style="stroke: #A80036; stroke-width: 1.0; stroke-dasharray: 7.0,7.0;"/><polygon fill="#A80036" points="1508.6679,677.86,1518.5042,677.3637,1513.1288,675.6017,1514.8909,670.2262,1508.6679,677.86" style="stroke: #A80036; stroke-width: 1.0;"/><!--MD5=[fc54064a8031554032ca74d58cc579ae]
link usantatecla.mastermind.views.SecretCombinationView to usantatecla.mastermind.views.MessageView--><path codeLine="101" d="M1524.8779,535.387 C1514.9679,552.532 1502.5279,574.049 1489.7579,596.144 " fill="none" id="usantatecla.mastermind.views.SecretCombinationView-to-usantatecla.mastermind.views.MessageView" style="stroke: #A80036; stroke-width: 1.0; stroke-dasharray: 7.0,7.0;"/><polygon fill="#A80036" points="1487.1979,600.57,1495.1658,594.781,1489.7007,596.2415,1488.2402,590.7764,1487.1979,600.57" style="stroke: #A80036; stroke-width: 1.0;"/><!--MD5=[f813e6f14017a463ae44ada5fbb1ae93]
link usantatecla.mastermind.views.SecretCombinationView to Console--><path codeLine="102" d="M1458.0979,525.924 C1439.9279,531.177 1420.8479,536.458 1402.9179,541 C1279.1179,572.349 1213.6379,512.147 1121.9179,601 C1039.3879,680.95 1105.7279,746.617 1059.9179,852 C1055.2279,862.788 1048.9079,873.766 1042.4879,883.699 " fill="none" id="usantatecla.mastermind.views.SecretCombinationView-to-Console" style="stroke: #A80036; stroke-width: 1.0; stroke-dasharray: 7.0,7.0;"/><polygon fill="#A80036" points="1039.7279,887.889,1048.0186,882.5726,1042.4779,883.7132,1041.3373,878.1725,1039.7279,887.889" style="stroke: #A80036; stroke-width: 1.0;"/><!--MD5=[bb3a27c36d45984c7db5c617585cdb2f]
link usantatecla.mastermind.views.StartView to usantatecla.mastermind.views.MessageView--><path codeLine="107" d="M1590.2779,382.591 C1613.0179,400.535 1638.4979,425.622 1650.9179,455 C1665.7979,490.206 1667.9779,506.795 1650.9179,541 C1622.1279,598.723 1563.8079,642.208 1513.2279,671.08 " fill="none" id="usantatecla.mastermind.views.StartView-to-usantatecla.mastermind.views.MessageView" style="stroke: #A80036; stroke-width: 1.0; stroke-dasharray: 7.0,7.0;"/><polygon fill="#A80036" points="1508.6679,673.654,1518.4718,672.7145,1513.0224,671.1967,1514.5402,665.7473,1508.6679,673.654" style="stroke: #A80036; stroke-width: 1.0;"/><!--MD5=[3407484fcf72abbae8816931e8b31818]
link usantatecla.mastermind.views.StartView to usantatecla.mastermind.views.SecretCombinationView--><path codeLine="108" d="M1545.9179,382.837 C1545.9179,403.898 1545.9179,432.392 1545.9179,455.644 " fill="none" id="usantatecla.mastermind.views.StartView-to-usantatecla.mastermind.views.SecretCombinationView" style="stroke: #A80036; stroke-width: 1.0; stroke-dasharray: 7.0,7.0;"/><polygon fill="#A80036" points="1545.9179,460.824,1549.9179,451.824,1545.9179,455.824,1541.9179,451.824,1545.9179,460.824" style="stroke: #A80036; stroke-width: 1.0;"/><!--MD5=[11fad62bc1e111ff3373acd70b4e0a0f]
link usantatecla.mastermind.views.View to usantatecla.mastermind.views.ProposalView--><path codeLine="114" d="M1289.6138,126.1764 C1289.6138,126.1764 1279.3679,151.243 1274.6279,162.808 " fill="none" id="usantatecla.mastermind.views.View-usantatecla.mastermind.views.ProposalView" style="stroke: #A80036; stroke-width: 1.0;"/><polygon fill="#A80036" points="1269.6579,174.974,1276.7688,168.1597,1271.5517,170.3465,1269.3649,165.1295,1269.6579,174.974" style="stroke: #A80036; stroke-width: 1.0;"/><line style="stroke: #A80036; stroke-width: 1.0;" x1="1271.5517" x2="1274.5779" y1="170.3465" y2="162.942"/><polygon fill="#A80036" points="1294.1579,115.07,1288.1837,119.1085,1289.6138,126.1764,1295.588,122.1379,1294.1579,115.07" style="stroke: #A80036; stroke-width: 1.0;"/><!--MD5=[a7d4c56091e8f703d8c94744d971f949]
link usantatecla.mastermind.views.View to usantatecla.mastermind.views.StartView--><path codeLine="115" d="M1348.2716,124.1659 C1348.2716,124.1659 1468.3379,261.959 1511.4279,311.416 " fill="none" id="usantatecla.mastermind.views.View-usantatecla.mastermind.views.StartView" style="stroke: #A80036; stroke-width: 1.0;"/><polygon fill="#A80036" points="1520.1379,321.414,1517.2407,312.0009,1516.853,317.6445,1511.2095,317.2567,1520.1379,321.414" style="stroke: #A80036; stroke-width: 1.0;"/><line style="stroke: #A80036; stroke-width: 1.0;" x1="1516.853" x2="1511.5979" y1="317.6445" y2="311.613"/><polygon fill="#A80036" points="1340.3879,115.119,1341.3141,122.2704,1348.2716,124.1659,1347.3454,117.0145,1340.3879,115.119" style="stroke: #A80036; stroke-width: 1.0;"/><!--MD5=[aa08d413cb14e320a155507437df65be]
link usantatecla.mastermind.views.View to Game--><path codeLine="116" d="M1248.5206,93.0891 C1248.5206,93.0891 894.5029,191.607 721.9169,309 C663.4089,348.797 610.1939,411.493 578.1909,453.408 " fill="none" id="usantatecla.mastermind.views.View-Game" style="stroke: #A80036; stroke-width: 1.0;"/><polygon fill="#A80036" points="570.3269,463.852,578.9363,459.0688,573.3347,459.8579,572.5457,454.2563,570.3269,463.852" style="stroke: #A80036; stroke-width: 1.0;"/><line style="stroke: #A80036; stroke-width: 1.0;" x1="573.3347" x2="578.1464" y1="459.8579" y2="453.467"/><polygon fill="#A80036" points="1260.1679,90.201,1253.3816,87.7626,1248.5206,93.0891,1255.307,95.5275,1260.1679,90.201" style="stroke: #A80036; stroke-width: 1.0;"/><!--MD5=[1fcb8ce60ea5c9d952c165bd8b13c9ee]
link usantatecla.mastermind.views.View to usantatecla.mastermind.views.ResumeView--><path codeLine="117" d="M1368.5967,105.0067 C1368.5967,105.0067 1477.5579,152.468 1527.7479,174.334 " fill="none" id="usantatecla.mastermind.views.View-usantatecla.mastermind.views.ResumeView" style="stroke: #A80036; stroke-width: 1.0;"/><polygon fill="#A80036" points="1539.8979,179.626,1533.2411,172.3674,1535.3131,177.6312,1530.0493,179.7032,1539.8979,179.626" style="stroke: #A80036; stroke-width: 1.0;"/><line style="stroke: #A80036; stroke-width: 1.0;" x1="1535.3131" x2="1527.9829" y1="177.6312" y2="174.4335"/><polygon fill="#A80036" points="1357.5979,100.208,1361.4977,106.2736,1368.5967,105.0067,1364.6968,98.9411,1357.5979,100.208" style="stroke: #A80036; stroke-width: 1.0;"/><!--MD5=[2ec43920affde964118c5f8b5a97c2cb]
@startuml
class ColorCode as "usantatecla.\nmastermind.utils.\nColorCode"
class Error as "usantatecla.\nmastermind.models.\nError"
class Color as "usantatecla.\nmastermind.models.\nColor"
abstract class Combination as "usantatecla.\nmastermind.models.\nCombination"
class ProposedCombination as "usantatecla.\nmastermind.models.\nProposedCombination"
class Result as "usantatecla.\nmastermind.models.\nResult"
class Game as "usantatecla.\nmastermind.models.\nGame"
class YesNoDialog as "usantatecla.\nutils.\nYesNoDialog"
class Console as "usantatecla.\nutils.\nConsole"

class usantatecla.mastermind.views.ColorView{
    - {static} INITIALS: char []
    ~ ColorView(Color)
    ~ {static} allInitials(): String
    ~ {static} getInstance(char): Color
    ~ write()
}
usantatecla.mastermind.views.ColorView -down..> ColorCode
usantatecla.mastermind.views.ColorView *-down-> Color

class usantatecla.mastermind.views.ErrorView{
    - {static} MESSAGES: String []
    ~ ErrorView(Error error)
    ~ writeln()
}
usantatecla.mastermind.views.ErrorView *-down-> Error
usantatecla.mastermind.views.ErrorView ..> usantatecla.mastermind.views.ColorView
usantatecla.mastermind.views.ErrorView ..> Console

class usantatecla.mastermind.views.GameView {
    ~ GameView(Game)
    ~ write()
    ~ isWinnerOrLooser() : boolean
}
usantatecla.mastermind.views.GameView *-down-> Game
usantatecla.mastermind.views.GameView *-down-> usantatecla.mastermind.views.SecretCombinationView
usantatecla.mastermind.views.GameView ..> usantatecla.mastermind.views.MessageView
usantatecla.mastermind.views.GameView ..> usantatecla.mastermind.views.ProposedCombinationView
usantatecla.mastermind.views.GameView ..> usantatecla.mastermind.views.ResultView
usantatecla.mastermind.views.GameView ..> Console

enum usantatecla.mastermind.views.MessageView{
    + ATTEMPTS
    + SECRET_COMBINATION
    + RESUME
    + RESULT
    + PROPOSED_COMBINATION
    + TITLE
    + WINNER
    + LOOSER
    - message: String
    ~ MessageView(String)
    ~ write()
    ~ writeln()
    ~ writeln(int)
    ~ writeln(int, int)
}
usantatecla.mastermind.views.MessageView ..> Console

class usantatecla.mastermind.views.ProposalView {
    ~ ProposalView(Game)
    ~ interact(): boolean
}
usantatecla.mastermind.views.ProposalView *-down-> Game
usantatecla.mastermind.views.ProposalView *-down-> usantatecla.mastermind.views.GameView
usantatecla.mastermind.views.ProposalView -down..> ProposedCombination
usantatecla.mastermind.views.ProposalView ..> usantatecla.mastermind.views.ProposedCombinationView

class usantatecla.mastermind.views.ProposedCombinationView {
    ~ ProposedCombinationView(ProposedCombination)
    ~ write()
    ~ read()
}
usantatecla.mastermind.views.ProposedCombinationView *-down-> ProposedCombination
usantatecla.mastermind.views.ProposedCombinationView ..> usantatecla.mastermind.views.MessageView
usantatecla.mastermind.views.ProposedCombinationView ..> usantatecla.mastermind.views.ColorView
usantatecla.mastermind.views.ProposedCombinationView ..> Combination
usantatecla.mastermind.views.ProposedCombinationView ..> Error
usantatecla.mastermind.views.ProposedCombinationView ..> Color
usantatecla.mastermind.views.ProposedCombinationView ..> Console

class usantatecla.mastermind.views.ResultView {
    ~ ResultView(Result)
    ~ writeln()
}
usantatecla.mastermind.views.ResultView *-down-> Result
usantatecla.mastermind.views.ResultView ..> usantatecla.mastermind.views.MessageView

class usantatecla.mastermind.views.ResumeView {
    ~ ResumeView(Game)
    ~ interact(): boolean
}
usantatecla.mastermind.views.ResumeView *-down-> Game
usantatecla.mastermind.views.ResumeView -down..> YesNoDialog
usantatecla.mastermind.views.ResumeView ..> usantatecla.mastermind.views.MessageView

class usantatecla.mastermind.views.SecretCombinationView {
    ~ SecretCombinationView()
    ~ writeln()
}
usantatecla.mastermind.views.SecretCombinationView ..> usantatecla.mastermind.views.MessageView
usantatecla.mastermind.views.SecretCombinationView ..> Console

class usantatecla.mastermind.views.StartView {
    ~ interact()
}
usantatecla.mastermind.views.StartView..> usantatecla.mastermind.views.MessageView
usantatecla.mastermind.views.StartView..> usantatecla.mastermind.views.SecretCombinationView

class usantatecla.mastermind.views.View {
    + View(Game)
    + interact()
}
usantatecla.mastermind.views.View *-down-> usantatecla.mastermind.views.ProposalView
usantatecla.mastermind.views.View *-down-> usantatecla.mastermind.views.StartView
usantatecla.mastermind.views.View *-down-> Game
usantatecla.mastermind.views.View *-down-> usantatecla.mastermind.views.ResumeView
@enduml

PlantUML version 1.2020.20beta11(Unknown compile time)
(GPL source distribution)
Java Runtime: Java(TM) SE Runtime Environment
JVM: Java HotSpot(TM) 64-Bit Server VM
Default Encoding: UTF-8
Language: en
Country: US
--></g></svg>