<?xml version="1.0" encoding="UTF-8" standalone="no"?><svg xmlns="http://www.w3.org/2000/svg" xmlns:xlink="http://www.w3.org/1999/xlink" contentScriptType="application/ecmascript" contentStyleType="text/css" height="159px" preserveAspectRatio="none" style="width:1367px;height:159px;" version="1.1" viewBox="0 0 1367 159" width="1367px" zoomAndPan="magnify"><defs><filter height="300%" id="f1e3bzf009q2x7" width="300%" x="-1" y="-1"><feGaussianBlur result="blurOut" stdDeviation="2.0"/><feColorMatrix in="blurOut" result="blurOut2" type="matrix" values="0 0 0 0 0 0 0 0 0 0 0 0 0 0 0 0 0 0 .4 0"/><feOffset dx="4.0" dy="4.0" in="blurOut2" result="blurOut3"/><feBlend in="SourceGraphic" in2="blurOut3" mode="normal"/></filter></defs><g><!--MD5=[6a8eef24a865597df0dc119d71c20fa1]
entity usantatecla.mastermind--><polygon fill="#FFFFFF" filter="url(#f1e3bzf009q2x7)" points="16,113,223,113,230,135.2969,247,135.2969,247,152.2969,16,152.2969,16,113" style="stroke:#000000;stroke-width:1.5;"/><line style="stroke:#000000;stroke-width:1.5;" x1="16" x2="230" y1="135.2969" y2="135.2969"/><text fill="#000000" font-family="sans-serif" font-size="14" font-weight="bold" lengthAdjust="spacingAndGlyphs" textLength="201" x="20" y="128.9951">usantatecla.mastermind</text><!--MD5=[a18a8a1618c58d11a8fd222203fd8af2]
entity usantatecla.mastermind.models--><polygon fill="#FFFFFF" filter="url(#f1e3bzf009q2x7)" points="282.5,113,552.5,113,559.5,135.2969,576.5,135.2969,576.5,152.2969,282.5,152.2969,282.5,113" style="stroke:#000000;stroke-width:1.5;"/><line style="stroke:#000000;stroke-width:1.5;" x1="282.5" x2="559.5" y1="135.2969" y2="135.2969"/><text fill="#000000" font-family="sans-serif" font-size="14" font-weight="bold" lengthAdjust="spacingAndGlyphs" textLength="264" x="286.5" y="128.9951">usantatecla.mastermind.models</text><!--MD5=[d9d3a2b7fd30791a054c299cd80fb2ef]
entity usantatecla.mastermind.views--><polygon fill="#FFFFFF" filter="url(#f1e3bzf009q2x7)" points="612,113,869,113,876,135.2969,893,135.2969,893,152.2969,612,152.2969,612,113" style="stroke:#000000;stroke-width:1.5;"/><line style="stroke:#000000;stroke-width:1.5;" x1="612" x2="876" y1="135.2969" y2="135.2969"/><text fill="#000000" font-family="sans-serif" font-size="14" font-weight="bold" lengthAdjust="spacingAndGlyphs" textLength="251" x="616" y="128.9951">usantatecla.mastermind.views</text><!--MD5=[612a536d1c85efa17c7d118cc1e7b020]
entity usantatecla.utils--><polygon fill="#FFFFFF" filter="url(#f1e3bzf009q2x7)" points="928.5,113,1074.5,113,1081.5,135.2969,1098.5,135.2969,1098.5,152.2969,928.5,152.2969,928.5,113" style="stroke:#000000;stroke-width:1.5;"/><line style="stroke:#000000;stroke-width:1.5;" x1="928.5" x2="1081.5" y1="135.2969" y2="135.2969"/><text fill="#000000" font-family="sans-serif" font-size="14" font-weight="bold" lengthAdjust="spacingAndGlyphs" textLength="140" x="932.5" y="128.9951">usantatecla.utils</text><!--MD5=[48fa9072fd51d9920e6db8484beec696]
entity java.io--><polygon fill="#FFFFFF" filter="url(#f1e3bzf009q2x7)" points="1133.5,113,1193.5,113,1200.5,135.2969,1217.5,135.2969,1217.5,152.2969,1133.5,152.2969,1133.5,113" style="stroke:#000000;stroke-width:1.5;"/><line style="stroke:#000000;stroke-width:1.5;" x1="1133.5" x2="1200.5" y1="135.2969" y2="135.2969"/><text fill="#000000" font-family="sans-serif" font-size="14" font-weight="bold" lengthAdjust="spacingAndGlyphs" textLength="54" x="1137.5" y="128.9951">java.io</text><!--MD5=[034f0f7ed136bf78fc117f7e41f76e93]
entity java.util--><polygon fill="#FFFFFF" filter="url(#f1e3bzf009q2x7)" points="1253,113,1326,113,1333,135.2969,1350,135.2969,1350,152.2969,1253,152.2969,1253,113" style="stroke:#000000;stroke-width:1.5;"/><line style="stroke:#000000;stroke-width:1.5;" x1="1253" x2="1333" y1="135.2969" y2="135.2969"/><text fill="#000000" font-family="sans-serif" font-size="14" font-weight="bold" lengthAdjust="spacingAndGlyphs" textLength="67" x="1257" y="128.9951">java.util</text><!--MD5=[c2796faf4134bd8b5f3bc71f44d02e74]
entity jar--><rect fill="#FEFECE" filter="url(#f1e3bzf009q2x7)" height="46.2969" style="stroke:#A80036;stroke-width:1.5;" width="150" x="807.5" y="7"/><rect fill="#FEFECE" height="10" style="stroke:#A80036;stroke-width:1.5;" width="15" x="937.5" y="12"/><rect fill="#FEFECE" height="2" style="stroke:#A80036;stroke-width:1.5;" width="4" x="935.5" y="14"/><rect fill="#FEFECE" height="2" style="stroke:#A80036;stroke-width:1.5;" width="4" x="935.5" y="18"/><text fill="#000000" font-family="sans-serif" font-size="14" lengthAdjust="spacingAndGlyphs" textLength="110" x="822.5" y="39.9951">mastermind.jar</text><!--MD5=[33871d850b885cae0f32fcf5f82e5a8f]
link jar to usantatecla.mastermind--><path d="M795.4277,42.3777 C795.4277,42.3777 453.152,87.3639 264.5,113 C263.085,113.1923 261.662,113.3859 260.231,113.5808 " fill="none" id="jar-usantatecla.mastermind" style="stroke:#A80036;stroke-width:1.0;"/><polygon fill="#A80036" points="247.194,115.3627,256.653,118.1064,252.1479,114.6852,255.569,110.1802,247.194,115.3627" style="stroke:#A80036;stroke-width:1.0;"/><line style="stroke:#A80036;stroke-width:1.0;" x1="252.1479" x2="260.0745" y1="114.6852" y2="113.6021"/><polygon fill="#A80036" points="807.326,40.819,800.8573,37.6322,795.4277,42.3777,801.8964,45.5644,807.326,40.819" style="stroke:#A80036;stroke-width:1.0;"/><!--MD5=[2390947b1b119a53a88c2001f23d7e65]
link jar to usantatecla.mastermind.models--><path d="M795.7269,50.2512 C795.7269,50.2512 605.755,92.3972 526.152,110.0572 " fill="none" id="jar-usantatecla.mastermind.models" style="stroke:#A80036;stroke-width:1.0;"/><polygon fill="#A80036" points="513.17,112.9374,522.8227,114.8931,518.0513,111.8544,521.09,107.083,513.17,112.9374" style="stroke:#A80036;stroke-width:1.0;"/><line style="stroke:#A80036;stroke-width:1.0;" x1="518.0513" x2="525.8615" y1="111.8544" y2="110.1217"/><polygon fill="#A80036" points="807.442,47.652,800.718,45.0466,795.7269,50.2512,802.4508,52.8567,807.442,47.652" style="stroke:#A80036;stroke-width:1.0;"/><!--MD5=[9b931e9ad5c3902361053e698395b79d]
link jar to usantatecla.mastermind.views--><path d="M844.4773,60.3948 C844.4773,60.3948 804.648,91.1859 787.363,104.5483 " fill="none" id="jar-usantatecla.mastermind.views" style="stroke:#A80036;stroke-width:1.0;"/><polygon fill="#A80036" points="776.601,112.868,786.1678,110.5278,780.5567,109.8098,781.2747,104.1987,776.601,112.868" style="stroke:#A80036;stroke-width:1.0;"/><line style="stroke:#A80036;stroke-width:1.0;" x1="780.5567" x2="786.886" y1="109.8098" y2="104.917"/><polygon fill="#A80036" points="853.971,53.0552,846.7776,53.5605,844.4773,60.3948,851.6707,59.8896,853.971,53.0552" style="stroke:#A80036;stroke-width:1.0;"/><!--MD5=[8059cd5737844cbfa7541e4ee98eb909]
link jar to usantatecla.utils--><path d="M920.7699,60.3594 C920.7699,60.3594 961.216,91.3893 978.816,104.8911 " fill="none" id="jar-usantatecla.utils" style="stroke:#A80036;stroke-width:1.0;"/><polygon fill="#A80036" points="989.214,112.868,984.508,104.2162,985.2469,109.8246,979.6386,110.5635,989.214,112.868" style="stroke:#A80036;stroke-width:1.0;"/><line style="stroke:#A80036;stroke-width:1.0;" x1="985.2469" x2="978.8995" y1="109.8246" y2="104.9551"/><polygon fill="#A80036" points="911.249,53.0552,913.5747,59.881,920.7699,60.3594,918.4442,53.5337,911.249,53.0552" style="stroke:#A80036;stroke-width:1.0;"/><!--MD5=[f17a38c250a1605cd3da9b9fac2ef94b]
link jar to java.io--><path d="M958.151,56.948 C958.151,56.948 1075.07,97.0523 1120.51,112.6388 " fill="none" id="jar-java.io" style="stroke:#A80036;stroke-width:1.0;"/><polygon fill="#A80036" points="1133.07,116.9468,1125.8529,110.245,1128.3401,115.3258,1123.2593,117.8129,1133.07,116.9468" style="stroke:#A80036;stroke-width:1.0;"/><line style="stroke:#A80036;stroke-width:1.0;" x1="1128.3401" x2="1120.775" y1="115.3258" y2="112.729"/><polygon fill="#A80036" points="946.8,53.0552,951.1779,58.7853,958.151,56.948,953.7731,51.2179,946.8,53.0552" style="stroke:#A80036;stroke-width:1.0;"/><!--MD5=[a929e6d2b54380e4c3e4c2b17ce7cd9b]
link jar to java.util--><path d="M969.5114,50.067 C969.5114,50.067 1145.7,89.9979 1235.5,113 C1237.09,113.407 1238.7,113.8237 1240.32,114.248 " fill="none" id="jar-java.util" style="stroke:#A80036;stroke-width:1.0;"/><polygon fill="#A80036" points="1252.91,117.612,1245.2482,111.4235,1248.0796,116.3208,1243.1823,119.1522,1252.91,117.612" style="stroke:#A80036;stroke-width:1.0;"/><line style="stroke:#A80036;stroke-width:1.0;" x1="1248.0796" x2="1240.345" y1="116.3208" y2="114.2557"/><polygon fill="#A80036" points="957.798,47.46,962.7857,52.668,969.5114,50.067,964.5237,44.859,957.798,47.46" style="stroke:#A80036;stroke-width:1.0;"/><!--MD5=[8f3140189d4001494b5b79d026018d03]
@startuml
package "  "  as usantatecla.mastermind {
}
package "  "  as usantatecla.mastermind.models {
}
package "  "  as usantatecla.mastermind.views {
}
package "  "  as usantatecla.utils {
}
package "  "  as java.io {
}
package "  "  as java.util {
}

[mastermind.jar] as jar

jar *- -> usantatecla.mastermind
jar *- -> usantatecla.mastermind.models
jar *- -> usantatecla.mastermind.views
jar *- -> usantatecla.utils
jar *- -> java.io
jar *- -> java.util
@enduml

PlantUML version 1.2020.21beta7(Unknown compile time)
(GPL source distribution)
Java Runtime: Java(TM) SE Runtime Environment
JVM: Java HotSpot(TM) 64-Bit Server VM
Default Encoding: UTF-8
Language: en
Country: US
--></g></svg>