<?xml version="1.0" encoding="UTF-8" standalone="no"?><svg xmlns="http://www.w3.org/2000/svg" xmlns:xlink="http://www.w3.org/1999/xlink" contentScriptType="application/ecmascript" contentStyleType="text/css" height="670px" preserveAspectRatio="none" style="width:975px;height:670px;" version="1.1" viewBox="0 0 975 670" width="975px" zoomAndPan="magnify"><defs><filter height="300%" id="f1m0l5fomv1qhd" width="300%" x="-1" y="-1"><feGaussianBlur result="blurOut" stdDeviation="2.0"/><feColorMatrix in="blurOut" result="blurOut2" type="matrix" values="0 0 0 0 0 0 0 0 0 0 0 0 0 0 0 0 0 0 .4 0"/><feOffset dx="4.0" dy="4.0" in="blurOut2" result="blurOut3"/><feBlend in="SourceGraphic" in2="blurOut3" mode="normal"/></filter></defs><g><!--cluster mastermind.views.console--><polygon fill="#FFFFFF" filter="url(#f1m0l5fomv1qhd)" points="199,148,392,148,399,171.6094,767,171.6094,767,658,199,658,199,148" style="stroke: #000000; stroke-width: 1.5;"/><line style="stroke: #000000; stroke-width: 1.5;" x1="199" x2="399" y1="171.6094" y2="171.6094"/><text fill="#000000" font-family="sans-serif" font-size="14" font-weight="bold" lengthAdjust="spacingAndGlyphs" textLength="187" x="203" y="164.5332">mastermind.views.console</text><!--cluster mastermind.views--><polygon fill="#FFFFFF" filter="url(#f1m0l5fomv1qhd)" points="383,24,516,24,523,47.6094,526,47.6094,526,124,383,124,383,24" style="stroke: #000000; stroke-width: 1.5;"/><line style="stroke: #000000; stroke-width: 1.5;" x1="383" x2="523" y1="47.6094" y2="47.6094"/><text fill="#000000" font-family="sans-serif" font-size="14" font-weight="bold" lengthAdjust="spacingAndGlyphs" textLength="127" x="387" y="40.5332">mastermind.views</text><!--cluster mastermind.utils--><polygon fill="#FFFFFF" filter="url(#f1m0l5fomv1qhd)" points="791,196.5,913,196.5,920,220.1094,953,220.1094,953,296.5,791,296.5,791,196.5" style="stroke: #000000; stroke-width: 1.5;"/><line style="stroke: #000000; stroke-width: 1.5;" x1="791" x2="920" y1="220.1094" y2="220.1094"/><text fill="#000000" font-family="sans-serif" font-size="14" font-weight="bold" lengthAdjust="spacingAndGlyphs" textLength="116" x="795" y="213.0332">mastermind.utils</text><!--cluster mastermind.models--><polygon fill="#FFFFFF" filter="url(#f1m0l5fomv1qhd)" points="22,530.5,165,530.5,172,554.1094,175,554.1094,175,630.5,22,630.5,22,530.5" style="stroke: #000000; stroke-width: 1.5;"/><line style="stroke: #000000; stroke-width: 1.5;" x1="22" x2="172" y1="554.1094" y2="554.1094"/><text fill="#000000" font-family="sans-serif" font-size="14" font-weight="bold" lengthAdjust="spacingAndGlyphs" textLength="137" x="26" y="547.0332">mastermind.models</text><!--class mastermind.views.console.ConsoleView--><rect fill="#FEFECE" filter="url(#f1m0l5fomv1qhd)" height="144.8516" id="mastermind.views.console.ConsoleView" style="stroke: #A80036; stroke-width: 1.5;" width="168" x="370" y="184"/><ellipse cx="413.35" cy="200" fill="#ADD1B2" rx="11" ry="11" style="stroke: #A80036; stroke-width: 1.0;"/><path d="M416.1156,195.875 Q416.2719,195.6563 416.4594,195.5469 Q416.6469,195.4375 416.8656,195.4375 Q417.2406,195.4375 417.475,195.6953 Q417.7094,195.9531 417.7094,196.5625 L417.7094,198.0156 Q417.7094,198.625 417.475,198.8906 Q417.2406,199.1563 416.8656,199.1563 Q416.5219,199.1563 416.3188,198.9531 Q416.1156,198.7656 416.0063,198.25 Q415.9594,197.8906 415.7719,197.7031 Q415.4438,197.3281 414.8344,197.1094 Q414.225,196.8906 413.6,196.8906 Q412.8344,196.8906 412.2016,197.2188 Q411.5688,197.5469 411.0766,198.2969 Q410.5844,199.0469 410.5844,200.0781 L410.5844,201.1719 Q410.5844,202.4063 411.475,203.2266 Q412.3656,204.0469 413.9594,204.0469 Q414.8969,204.0469 415.5531,203.7969 Q415.9438,203.6406 416.3656,203.2031 Q416.6313,202.9375 416.7797,202.8594 Q416.9281,202.7813 417.1313,202.7813 Q417.4594,202.7813 417.7172,203.0391 Q417.975,203.2969 417.975,203.6406 Q417.975,203.9844 417.6313,204.3906 Q417.1313,204.9688 416.3344,205.2969 Q415.2563,205.75 413.9594,205.75 Q412.4438,205.75 411.2406,205.125 Q410.2563,204.625 409.5688,203.5547 Q408.8813,202.4844 408.8813,201.2031 L408.8813,200.0469 Q408.8813,198.7188 409.4984,197.5703 Q410.1156,196.4219 411.2094,195.8047 Q412.3031,195.1875 413.5375,195.1875 Q414.2719,195.1875 414.9203,195.3516 Q415.5688,195.5156 416.1156,195.875 Z "/><text fill="#000000" font-family="sans-serif" font-size="12" lengthAdjust="spacingAndGlyphs" textLength="73" x="433.65" y="204.9102">ConsoleView</text><line style="stroke: #A80036; stroke-width: 1.5;" x1="371" x2="537" y1="216" y2="216"/><rect fill="none" height="6" style="stroke: #C82930; stroke-width: 1.0;" width="6" x="378" y="225.418"/><text fill="#000000" font-family="sans-serif" font-size="11" lengthAdjust="spacingAndGlyphs" textLength="103" x="390" y="231.4189">startView: StartView</text><rect fill="none" height="6" style="stroke: #C82930; stroke-width: 1.0;" width="6" x="378" y="239.2539"/><text fill="#000000" font-family="sans-serif" font-size="11" lengthAdjust="spacingAndGlyphs" textLength="142" x="390" y="245.2549">proposalView: ProposalView</text><rect fill="none" height="6" style="stroke: #C82930; stroke-width: 1.0;" width="6" x="378" y="253.0898"/><text fill="#000000" font-family="sans-serif" font-size="11" lengthAdjust="spacingAndGlyphs" textLength="133" x="390" y="259.0908">resumeView: ResumeView</text><line style="stroke: #A80036; stroke-width: 1.5;" x1="371" x2="537" y1="265.5078" y2="265.5078"/><ellipse cx="381" cy="277.9258" fill="#84BE84" rx="3" ry="3" style="stroke: #038048; stroke-width: 1.0;"/><text fill="#000000" font-family="sans-serif" font-size="11" lengthAdjust="spacingAndGlyphs" textLength="101" x="390" y="280.9268">ConsoleView(Game)</text><polygon fill="#FFFF44" points="381,286.7617,385,290.7617,381,294.7617,377,290.7617" style="stroke: #B38D22; stroke-width: 1.0;"/><text fill="#000000" font-family="sans-serif" font-size="11" lengthAdjust="spacingAndGlyphs" textLength="56" x="390" y="294.7627">start(): void</text><polygon fill="#FFFF44" points="381,300.5977,385,304.5977,381,308.5977,377,304.5977" style="stroke: #B38D22; stroke-width: 1.0;"/><text fill="#000000" font-family="sans-serif" font-size="11" lengthAdjust="spacingAndGlyphs" textLength="88" x="390" y="308.5986">resume(): boolean</text><polygon fill="#FFFF44" points="381,314.4336,385,318.4336,381,322.4336,377,318.4336" style="stroke: #B38D22; stroke-width: 1.0;"/><text fill="#000000" font-family="sans-serif" font-size="11" lengthAdjust="spacingAndGlyphs" textLength="92" x="390" y="322.4346">propose(): boolean</text><!--class mastermind.views.console.ProposalView--><rect fill="#FEFECE" filter="url(#f1m0l5fomv1qhd)" height="89.5078" id="mastermind.views.console.ProposalView" style="stroke: #A80036; stroke-width: 1.5;" width="200" x="551" y="389"/><ellipse cx="608.75" cy="405" fill="#ADD1B2" rx="11" ry="11" style="stroke: #A80036; stroke-width: 1.0;"/><path d="M611.5156,400.875 Q611.6719,400.6563 611.8594,400.5469 Q612.0469,400.4375 612.2656,400.4375 Q612.6406,400.4375 612.875,400.6953 Q613.1094,400.9531 613.1094,401.5625 L613.1094,403.0156 Q613.1094,403.625 612.875,403.8906 Q612.6406,404.1563 612.2656,404.1563 Q611.9219,404.1563 611.7188,403.9531 Q611.5156,403.7656 611.4063,403.25 Q611.3594,402.8906 611.1719,402.7031 Q610.8438,402.3281 610.2344,402.1094 Q609.625,401.8906 609,401.8906 Q608.2344,401.8906 607.6016,402.2188 Q606.9688,402.5469 606.4766,403.2969 Q605.9844,404.0469 605.9844,405.0781 L605.9844,406.1719 Q605.9844,407.4063 606.875,408.2266 Q607.7656,409.0469 609.3594,409.0469 Q610.2969,409.0469 610.9531,408.7969 Q611.3438,408.6406 611.7656,408.2031 Q612.0313,407.9375 612.1797,407.8594 Q612.3281,407.7813 612.5313,407.7813 Q612.8594,407.7813 613.1172,408.0391 Q613.375,408.2969 613.375,408.6406 Q613.375,408.9844 613.0313,409.3906 Q612.5313,409.9688 611.7344,410.2969 Q610.6563,410.75 609.3594,410.75 Q607.8438,410.75 606.6406,410.125 Q605.6563,409.625 604.9688,408.5547 Q604.2813,407.4844 604.2813,406.2031 L604.2813,405.0469 Q604.2813,403.7188 604.8984,402.5703 Q605.5156,401.4219 606.6094,400.8047 Q607.7031,400.1875 608.9375,400.1875 Q609.6719,400.1875 610.3203,400.3516 Q610.9688,400.5156 611.5156,400.875 Z "/><text fill="#000000" font-family="sans-serif" font-size="12" lengthAdjust="spacingAndGlyphs" textLength="76" x="629.25" y="409.9102">ProposalView</text><line style="stroke: #A80036; stroke-width: 1.5;" x1="552" x2="750" y1="421" y2="421"/><line style="stroke: #A80036; stroke-width: 1.5;" x1="552" x2="750" y1="429" y2="429"/><polygon fill="#4177AF" points="562,437.418,558,443.418,566,443.418" style="stroke: #1963A0; stroke-width: 1.0;"/><text fill="#000000" font-family="sans-serif" font-size="11" lengthAdjust="spacingAndGlyphs" textLength="76" x="571" y="444.4189">ProposalView()</text><rect fill="#F24D5C" height="6" style="stroke: #C82930; stroke-width: 1.0;" width="6" x="559" y="452.2539"/><text fill="#000000" font-family="sans-serif" font-size="11" lengthAdjust="spacingAndGlyphs" textLength="174" x="571" y="458.2549">proposeCombination(int[], Game): int</text><polygon fill="#4177AF" points="562,465.0898,558,471.0898,566,471.0898" style="stroke: #1963A0; stroke-width: 1.0;"/><text fill="#000000" font-family="sans-serif" font-size="11" lengthAdjust="spacingAndGlyphs" textLength="116" x="571" y="472.0908">interact(Game): boolean</text><!--class mastermind.views.console.ResumeView--><rect fill="#FEFECE" filter="url(#f1m0l5fomv1qhd)" height="75.6719" id="mastermind.views.console.ResumeView" style="stroke: #A80036; stroke-width: 1.5;" width="142" x="215" y="396"/><ellipse cx="246.2" cy="412" fill="#ADD1B2" rx="11" ry="11" style="stroke: #A80036; stroke-width: 1.0;"/><path d="M248.9656,407.875 Q249.1219,407.6563 249.3094,407.5469 Q249.4969,407.4375 249.7156,407.4375 Q250.0906,407.4375 250.325,407.6953 Q250.5594,407.9531 250.5594,408.5625 L250.5594,410.0156 Q250.5594,410.625 250.325,410.8906 Q250.0906,411.1563 249.7156,411.1563 Q249.3719,411.1563 249.1688,410.9531 Q248.9656,410.7656 248.8563,410.25 Q248.8094,409.8906 248.6219,409.7031 Q248.2938,409.3281 247.6844,409.1094 Q247.075,408.8906 246.45,408.8906 Q245.6844,408.8906 245.0516,409.2188 Q244.4188,409.5469 243.9266,410.2969 Q243.4344,411.0469 243.4344,412.0781 L243.4344,413.1719 Q243.4344,414.4063 244.325,415.2266 Q245.2156,416.0469 246.8094,416.0469 Q247.7469,416.0469 248.4031,415.7969 Q248.7938,415.6406 249.2156,415.2031 Q249.4813,414.9375 249.6297,414.8594 Q249.7781,414.7813 249.9813,414.7813 Q250.3094,414.7813 250.5672,415.0391 Q250.825,415.2969 250.825,415.6406 Q250.825,415.9844 250.4813,416.3906 Q249.9813,416.9688 249.1844,417.2969 Q248.1063,417.75 246.8094,417.75 Q245.2938,417.75 244.0906,417.125 Q243.1063,416.625 242.4188,415.5547 Q241.7313,414.4844 241.7313,413.2031 L241.7313,412.0469 Q241.7313,410.7188 242.3484,409.5703 Q242.9656,408.4219 244.0594,407.8047 Q245.1531,407.1875 246.3875,407.1875 Q247.1219,407.1875 247.7703,407.3516 Q248.4188,407.5156 248.9656,407.875 Z "/><text fill="#000000" font-family="sans-serif" font-size="12" lengthAdjust="spacingAndGlyphs" textLength="74" x="263.8" y="416.9102">ResumeView</text><line style="stroke: #A80036; stroke-width: 1.5;" x1="216" x2="356" y1="428" y2="428"/><line style="stroke: #A80036; stroke-width: 1.5;" x1="216" x2="356" y1="436" y2="436"/><polygon fill="#4177AF" points="226,444.418,222,450.418,230,450.418" style="stroke: #1963A0; stroke-width: 1.0;"/><text fill="#000000" font-family="sans-serif" font-size="11" lengthAdjust="spacingAndGlyphs" textLength="73" x="235" y="451.4189">ResumeView()</text><polygon fill="#4177AF" points="226,458.2539,222,464.2539,230,464.2539" style="stroke: #1963A0; stroke-width: 1.0;"/><text fill="#000000" font-family="sans-serif" font-size="11" lengthAdjust="spacingAndGlyphs" textLength="116" x="235" y="465.2549">interact(Game): boolean</text><!--class mastermind.views.console.StartView--><rect fill="#FEFECE" filter="url(#f1m0l5fomv1qhd)" height="75.6719" id="mastermind.views.console.StartView" style="stroke: #A80036; stroke-width: 1.5;" width="124" x="392" y="396"/><ellipse cx="425.45" cy="412" fill="#ADD1B2" rx="11" ry="11" style="stroke: #A80036; stroke-width: 1.0;"/><path d="M428.2156,407.875 Q428.3719,407.6563 428.5594,407.5469 Q428.7469,407.4375 428.9656,407.4375 Q429.3406,407.4375 429.575,407.6953 Q429.8094,407.9531 429.8094,408.5625 L429.8094,410.0156 Q429.8094,410.625 429.575,410.8906 Q429.3406,411.1563 428.9656,411.1563 Q428.6219,411.1563 428.4188,410.9531 Q428.2156,410.7656 428.1063,410.25 Q428.0594,409.8906 427.8719,409.7031 Q427.5438,409.3281 426.9344,409.1094 Q426.325,408.8906 425.7,408.8906 Q424.9344,408.8906 424.3016,409.2188 Q423.6688,409.5469 423.1766,410.2969 Q422.6844,411.0469 422.6844,412.0781 L422.6844,413.1719 Q422.6844,414.4063 423.575,415.2266 Q424.4656,416.0469 426.0594,416.0469 Q426.9969,416.0469 427.6531,415.7969 Q428.0438,415.6406 428.4656,415.2031 Q428.7313,414.9375 428.8797,414.8594 Q429.0281,414.7813 429.2313,414.7813 Q429.5594,414.7813 429.8172,415.0391 Q430.075,415.2969 430.075,415.6406 Q430.075,415.9844 429.7313,416.3906 Q429.2313,416.9688 428.4344,417.2969 Q427.3563,417.75 426.0594,417.75 Q424.5438,417.75 423.3406,417.125 Q422.3563,416.625 421.6688,415.5547 Q420.9813,414.4844 420.9813,413.2031 L420.9813,412.0469 Q420.9813,410.7188 421.5984,409.5703 Q422.2156,408.4219 423.3094,407.8047 Q424.4031,407.1875 425.6375,407.1875 Q426.3719,407.1875 427.0203,407.3516 Q427.6688,407.5156 428.2156,407.875 Z "/><text fill="#000000" font-family="sans-serif" font-size="12" lengthAdjust="spacingAndGlyphs" textLength="51" x="443.55" y="416.9102">StartView</text><line style="stroke: #A80036; stroke-width: 1.5;" x1="393" x2="515" y1="428" y2="428"/><line style="stroke: #A80036; stroke-width: 1.5;" x1="393" x2="515" y1="436" y2="436"/><polygon fill="#4177AF" points="403,444.418,399,450.418,407,450.418" style="stroke: #1963A0; stroke-width: 1.0;"/><text fill="#000000" font-family="sans-serif" font-size="11" lengthAdjust="spacingAndGlyphs" textLength="57" x="412" y="451.4189">StartView()</text><polygon fill="#4177AF" points="403,458.2539,399,464.2539,407,464.2539" style="stroke: #1963A0; stroke-width: 1.0;"/><text fill="#000000" font-family="sans-serif" font-size="11" lengthAdjust="spacingAndGlyphs" textLength="98" x="412" y="465.2549">interact(Game): void</text><!--class mastermind.views.console.SecretCombinationView--><rect fill="#FEFECE" filter="url(#f1m0l5fomv1qhd)" height="75.6719" id="mastermind.views.console.SecretCombinationView" style="stroke: #A80036; stroke-width: 1.5;" width="164" x="223" y="552.5"/><ellipse cx="238" cy="568.5" fill="#ADD1B2" rx="11" ry="11" style="stroke: #A80036; stroke-width: 1.0;"/><path d="M240.7656,564.375 Q240.9219,564.1563 241.1094,564.0469 Q241.2969,563.9375 241.5156,563.9375 Q241.8906,563.9375 242.125,564.1953 Q242.3594,564.4531 242.3594,565.0625 L242.3594,566.5156 Q242.3594,567.125 242.125,567.3906 Q241.8906,567.6563 241.5156,567.6563 Q241.1719,567.6563 240.9688,567.4531 Q240.7656,567.2656 240.6563,566.75 Q240.6094,566.3906 240.4219,566.2031 Q240.0938,565.8281 239.4844,565.6094 Q238.875,565.3906 238.25,565.3906 Q237.4844,565.3906 236.8516,565.7188 Q236.2188,566.0469 235.7266,566.7969 Q235.2344,567.5469 235.2344,568.5781 L235.2344,569.6719 Q235.2344,570.9063 236.125,571.7266 Q237.0156,572.5469 238.6094,572.5469 Q239.5469,572.5469 240.2031,572.2969 Q240.5938,572.1406 241.0156,571.7031 Q241.2813,571.4375 241.4297,571.3594 Q241.5781,571.2813 241.7813,571.2813 Q242.1094,571.2813 242.3672,571.5391 Q242.625,571.7969 242.625,572.1406 Q242.625,572.4844 242.2813,572.8906 Q241.7813,573.4688 240.9844,573.7969 Q239.9063,574.25 238.6094,574.25 Q237.0938,574.25 235.8906,573.625 Q234.9063,573.125 234.2188,572.0547 Q233.5313,570.9844 233.5313,569.7031 L233.5313,568.5469 Q233.5313,567.2188 234.1484,566.0703 Q234.7656,564.9219 235.8594,564.3047 Q236.9531,563.6875 238.1875,563.6875 Q238.9219,563.6875 239.5703,563.8516 Q240.2188,564.0156 240.7656,564.375 Z "/><text fill="#000000" font-family="sans-serif" font-size="12" lengthAdjust="spacingAndGlyphs" textLength="132" x="252" y="573.4102">SecretCombinationView</text><line style="stroke: #A80036; stroke-width: 1.5;" x1="224" x2="386" y1="584.5" y2="584.5"/><line style="stroke: #A80036; stroke-width: 1.5;" x1="224" x2="386" y1="592.5" y2="592.5"/><polygon fill="#4177AF" points="234,600.918,230,606.918,238,606.918" style="stroke: #1963A0; stroke-width: 1.0;"/><text fill="#000000" font-family="sans-serif" font-size="11" lengthAdjust="spacingAndGlyphs" textLength="124" x="243" y="607.9189">SecretCombinationView()</text><polygon fill="#4177AF" points="234,614.7539,230,620.7539,238,620.7539" style="stroke: #1963A0; stroke-width: 1.0;"/><text fill="#000000" font-family="sans-serif" font-size="11" lengthAdjust="spacingAndGlyphs" textLength="78" x="243" y="621.7549">writeln(int): void</text><!--class mastermind.views.console.ProposedCombinationView--><rect fill="#FEFECE" filter="url(#f1m0l5fomv1qhd)" height="103.3438" id="mastermind.views.console.ProposedCombinationView" style="stroke: #A80036; stroke-width: 1.5;" width="183" x="422.5" y="539"/><ellipse cx="437.5" cy="555" fill="#ADD1B2" rx="11" ry="11" style="stroke: #A80036; stroke-width: 1.0;"/><path d="M440.2656,550.875 Q440.4219,550.6563 440.6094,550.5469 Q440.7969,550.4375 441.0156,550.4375 Q441.3906,550.4375 441.625,550.6953 Q441.8594,550.9531 441.8594,551.5625 L441.8594,553.0156 Q441.8594,553.625 441.625,553.8906 Q441.3906,554.1563 441.0156,554.1563 Q440.6719,554.1563 440.4688,553.9531 Q440.2656,553.7656 440.1563,553.25 Q440.1094,552.8906 439.9219,552.7031 Q439.5938,552.3281 438.9844,552.1094 Q438.375,551.8906 437.75,551.8906 Q436.9844,551.8906 436.3516,552.2188 Q435.7188,552.5469 435.2266,553.2969 Q434.7344,554.0469 434.7344,555.0781 L434.7344,556.1719 Q434.7344,557.4063 435.625,558.2266 Q436.5156,559.0469 438.1094,559.0469 Q439.0469,559.0469 439.7031,558.7969 Q440.0938,558.6406 440.5156,558.2031 Q440.7813,557.9375 440.9297,557.8594 Q441.0781,557.7813 441.2813,557.7813 Q441.6094,557.7813 441.8672,558.0391 Q442.125,558.2969 442.125,558.6406 Q442.125,558.9844 441.7813,559.3906 Q441.2813,559.9688 440.4844,560.2969 Q439.4063,560.75 438.1094,560.75 Q436.5938,560.75 435.3906,560.125 Q434.4063,559.625 433.7188,558.5547 Q433.0313,557.4844 433.0313,556.2031 L433.0313,555.0469 Q433.0313,553.7188 433.6484,552.5703 Q434.2656,551.4219 435.3594,550.8047 Q436.4531,550.1875 437.6875,550.1875 Q438.4219,550.1875 439.0703,550.3516 Q439.7188,550.5156 440.2656,550.875 Z "/><text fill="#000000" font-family="sans-serif" font-size="12" lengthAdjust="spacingAndGlyphs" textLength="151" x="451.5" y="559.9102">ProposedCombinationView</text><line style="stroke: #A80036; stroke-width: 1.5;" x1="423.5" x2="604.5" y1="571" y2="571"/><rect fill="none" height="6" style="stroke: #C82930; stroke-width: 1.0;" width="6" x="430.5" y="580.418"/><text fill="#000000" font-family="sans-serif" font-size="11" lengthAdjust="spacingAndGlyphs" text-decoration="underline" textLength="86" x="442.5" y="586.4189">ERROR_CODE: int</text><line style="stroke: #A80036; stroke-width: 1.5;" x1="423.5" x2="604.5" y1="592.8359" y2="592.8359"/><polygon fill="#4177AF" points="433.5,601.2539,429.5,607.2539,437.5,607.2539" style="stroke: #1963A0; stroke-width: 1.0;"/><text fill="#000000" font-family="sans-serif" font-size="11" lengthAdjust="spacingAndGlyphs" textLength="138" x="442.5" y="608.2549">ProposedCombinationView()</text><polygon fill="#4177AF" points="433.5,615.0898,429.5,621.0898,437.5,621.0898" style="stroke: #1963A0; stroke-width: 1.0;"/><text fill="#000000" font-family="sans-serif" font-size="11" lengthAdjust="spacingAndGlyphs" textLength="76" x="442.5" y="622.0908">write(int[]): void</text><polygon fill="#4177AF" points="433.5,628.9258,429.5,634.9258,437.5,634.9258" style="stroke: #1963A0; stroke-width: 1.0;"/><text fill="#000000" font-family="sans-serif" font-size="11" lengthAdjust="spacingAndGlyphs" textLength="53" x="442.5" y="635.9268">read(): int[]</text><!--class mastermind.views.console.ResultView--><rect fill="#FEFECE" filter="url(#f1m0l5fomv1qhd)" height="75.6719" id="mastermind.views.console.ResultView" style="stroke: #A80036; stroke-width: 1.5;" width="110" x="641" y="552.5"/><ellipse cx="663.2" cy="568.5" fill="#ADD1B2" rx="11" ry="11" style="stroke: #A80036; stroke-width: 1.0;"/><path d="M665.9656,564.375 Q666.1219,564.1563 666.3094,564.0469 Q666.4969,563.9375 666.7156,563.9375 Q667.0906,563.9375 667.325,564.1953 Q667.5594,564.4531 667.5594,565.0625 L667.5594,566.5156 Q667.5594,567.125 667.325,567.3906 Q667.0906,567.6563 666.7156,567.6563 Q666.3719,567.6563 666.1688,567.4531 Q665.9656,567.2656 665.8563,566.75 Q665.8094,566.3906 665.6219,566.2031 Q665.2938,565.8281 664.6844,565.6094 Q664.075,565.3906 663.45,565.3906 Q662.6844,565.3906 662.0516,565.7188 Q661.4188,566.0469 660.9266,566.7969 Q660.4344,567.5469 660.4344,568.5781 L660.4344,569.6719 Q660.4344,570.9063 661.325,571.7266 Q662.2156,572.5469 663.8094,572.5469 Q664.7469,572.5469 665.4031,572.2969 Q665.7938,572.1406 666.2156,571.7031 Q666.4813,571.4375 666.6297,571.3594 Q666.7781,571.2813 666.9813,571.2813 Q667.3094,571.2813 667.5672,571.5391 Q667.825,571.7969 667.825,572.1406 Q667.825,572.4844 667.4813,572.8906 Q666.9813,573.4688 666.1844,573.7969 Q665.1063,574.25 663.8094,574.25 Q662.2938,574.25 661.0906,573.625 Q660.1063,573.125 659.4188,572.0547 Q658.7313,570.9844 658.7313,569.7031 L658.7313,568.5469 Q658.7313,567.2188 659.3484,566.0703 Q659.9656,564.9219 661.0594,564.3047 Q662.1531,563.6875 663.3875,563.6875 Q664.1219,563.6875 664.7703,563.8516 Q665.4188,564.0156 665.9656,564.375 Z "/><text fill="#000000" font-family="sans-serif" font-size="12" lengthAdjust="spacingAndGlyphs" textLength="62" x="678.8" y="573.4102">ResultView</text><line style="stroke: #A80036; stroke-width: 1.5;" x1="642" x2="750" y1="584.5" y2="584.5"/><line style="stroke: #A80036; stroke-width: 1.5;" x1="642" x2="750" y1="592.5" y2="592.5"/><polygon fill="#4177AF" points="652,600.918,648,606.918,656,606.918" style="stroke: #1963A0; stroke-width: 1.0;"/><text fill="#000000" font-family="sans-serif" font-size="11" lengthAdjust="spacingAndGlyphs" textLength="64" x="661" y="607.9189">ResultView()</text><polygon fill="#4177AF" points="652,614.7539,648,620.7539,656,620.7539" style="stroke: #1963A0; stroke-width: 1.0;"/><text fill="#000000" font-family="sans-serif" font-size="11" lengthAdjust="spacingAndGlyphs" textLength="84" x="661" y="621.7549">writeln(int[]): void</text><!--class mastermind.views.View--><rect fill="#FEFECE" filter="url(#f1m0l5fomv1qhd)" height="48" id="mastermind.views.View" style="stroke: #A80036; stroke-width: 1.5;" width="58" x="425" y="60"/><ellipse cx="440" cy="76" fill="#ADD1B2" rx="11" ry="11" style="stroke: #A80036; stroke-width: 1.0;"/><path d="M442.7656,71.875 Q442.9219,71.6563 443.1094,71.5469 Q443.2969,71.4375 443.5156,71.4375 Q443.8906,71.4375 444.125,71.6953 Q444.3594,71.9531 444.3594,72.5625 L444.3594,74.0156 Q444.3594,74.625 444.125,74.8906 Q443.8906,75.1563 443.5156,75.1563 Q443.1719,75.1563 442.9688,74.9531 Q442.7656,74.7656 442.6563,74.25 Q442.6094,73.8906 442.4219,73.7031 Q442.0938,73.3281 441.4844,73.1094 Q440.875,72.8906 440.25,72.8906 Q439.4844,72.8906 438.8516,73.2188 Q438.2188,73.5469 437.7266,74.2969 Q437.2344,75.0469 437.2344,76.0781 L437.2344,77.1719 Q437.2344,78.4063 438.125,79.2266 Q439.0156,80.0469 440.6094,80.0469 Q441.5469,80.0469 442.2031,79.7969 Q442.5938,79.6406 443.0156,79.2031 Q443.2813,78.9375 443.4297,78.8594 Q443.5781,78.7813 443.7813,78.7813 Q444.1094,78.7813 444.3672,79.0391 Q444.625,79.2969 444.625,79.6406 Q444.625,79.9844 444.2813,80.3906 Q443.7813,80.9688 442.9844,81.2969 Q441.9063,81.75 440.6094,81.75 Q439.0938,81.75 437.8906,81.125 Q436.9063,80.625 436.2188,79.5547 Q435.5313,78.4844 435.5313,77.2031 L435.5313,76.0469 Q435.5313,74.7188 436.1484,73.5703 Q436.7656,72.4219 437.8594,71.8047 Q438.9531,71.1875 440.1875,71.1875 Q440.9219,71.1875 441.5703,71.3516 Q442.2188,71.5156 442.7656,71.875 Z "/><text fill="#000000" font-family="sans-serif" font-size="12" lengthAdjust="spacingAndGlyphs" textLength="26" x="454" y="80.9102">View</text><line style="stroke: #A80036; stroke-width: 1.5;" x1="426" x2="482" y1="92" y2="92"/><line style="stroke: #A80036; stroke-width: 1.5;" x1="426" x2="482" y1="100" y2="100"/><!--class mastermind.utils.WithConsoleView--><rect fill="#FEFECE" filter="url(#f1m0l5fomv1qhd)" height="48" id="mastermind.utils.WithConsoleView" style="stroke: #A80036; stroke-width: 1.5;" width="129" x="807.5" y="232.5"/><ellipse cx="822.5" cy="248.5" fill="#ADD1B2" rx="11" ry="11" style="stroke: #A80036; stroke-width: 1.0;"/><path d="M825.2656,244.375 Q825.4219,244.1563 825.6094,244.0469 Q825.7969,243.9375 826.0156,243.9375 Q826.3906,243.9375 826.625,244.1953 Q826.8594,244.4531 826.8594,245.0625 L826.8594,246.5156 Q826.8594,247.125 826.625,247.3906 Q826.3906,247.6563 826.0156,247.6563 Q825.6719,247.6563 825.4688,247.4531 Q825.2656,247.2656 825.1563,246.75 Q825.1094,246.3906 824.9219,246.2031 Q824.5938,245.8281 823.9844,245.6094 Q823.375,245.3906 822.75,245.3906 Q821.9844,245.3906 821.3516,245.7188 Q820.7188,246.0469 820.2266,246.7969 Q819.7344,247.5469 819.7344,248.5781 L819.7344,249.6719 Q819.7344,250.9063 820.625,251.7266 Q821.5156,252.5469 823.1094,252.5469 Q824.0469,252.5469 824.7031,252.2969 Q825.0938,252.1406 825.5156,251.7031 Q825.7813,251.4375 825.9297,251.3594 Q826.0781,251.2813 826.2813,251.2813 Q826.6094,251.2813 826.8672,251.5391 Q827.125,251.7969 827.125,252.1406 Q827.125,252.4844 826.7813,252.8906 Q826.2813,253.4688 825.4844,253.7969 Q824.4063,254.25 823.1094,254.25 Q821.5938,254.25 820.3906,253.625 Q819.4063,253.125 818.7188,252.0547 Q818.0313,250.9844 818.0313,249.7031 L818.0313,248.5469 Q818.0313,247.2188 818.6484,246.0703 Q819.2656,244.9219 820.3594,244.3047 Q821.4531,243.6875 822.6875,243.6875 Q823.4219,243.6875 824.0703,243.8516 Q824.7188,244.0156 825.2656,244.375 Z "/><text fill="#000000" font-family="sans-serif" font-size="12" lengthAdjust="spacingAndGlyphs" textLength="97" x="836.5" y="253.4102">WithConsoleView</text><line style="stroke: #A80036; stroke-width: 1.5;" x1="808.5" x2="935.5" y1="264.5" y2="264.5"/><line style="stroke: #A80036; stroke-width: 1.5;" x1="808.5" x2="935.5" y1="272.5" y2="272.5"/><!--class mastermind.models.Game--><rect fill="#FEFECE" filter="url(#f1m0l5fomv1qhd)" height="48" id="mastermind.models.Game" style="stroke: #A80036; stroke-width: 1.5;" width="66" x="93" y="566.5"/><ellipse cx="108" cy="582.5" fill="#ADD1B2" rx="11" ry="11" style="stroke: #A80036; stroke-width: 1.0;"/><path d="M110.7656,578.375 Q110.9219,578.1563 111.1094,578.0469 Q111.2969,577.9375 111.5156,577.9375 Q111.8906,577.9375 112.125,578.1953 Q112.3594,578.4531 112.3594,579.0625 L112.3594,580.5156 Q112.3594,581.125 112.125,581.3906 Q111.8906,581.6563 111.5156,581.6563 Q111.1719,581.6563 110.9688,581.4531 Q110.7656,581.2656 110.6563,580.75 Q110.6094,580.3906 110.4219,580.2031 Q110.0938,579.8281 109.4844,579.6094 Q108.875,579.3906 108.25,579.3906 Q107.4844,579.3906 106.8516,579.7188 Q106.2188,580.0469 105.7266,580.7969 Q105.2344,581.5469 105.2344,582.5781 L105.2344,583.6719 Q105.2344,584.9063 106.125,585.7266 Q107.0156,586.5469 108.6094,586.5469 Q109.5469,586.5469 110.2031,586.2969 Q110.5938,586.1406 111.0156,585.7031 Q111.2813,585.4375 111.4297,585.3594 Q111.5781,585.2813 111.7813,585.2813 Q112.1094,585.2813 112.3672,585.5391 Q112.625,585.7969 112.625,586.1406 Q112.625,586.4844 112.2813,586.8906 Q111.7813,587.4688 110.9844,587.7969 Q109.9063,588.25 108.6094,588.25 Q107.0938,588.25 105.8906,587.625 Q104.9063,587.125 104.2188,586.0547 Q103.5313,584.9844 103.5313,583.7031 L103.5313,582.5469 Q103.5313,581.2188 104.1484,580.0703 Q104.7656,578.9219 105.8594,578.3047 Q106.9531,577.6875 108.1875,577.6875 Q108.9219,577.6875 109.5703,577.8516 Q110.2188,578.0156 110.7656,578.375 Z "/><text fill="#000000" font-family="sans-serif" font-size="12" lengthAdjust="spacingAndGlyphs" textLength="34" x="122" y="587.4102">Game</text><line style="stroke: #A80036; stroke-width: 1.5;" x1="94" x2="158" y1="598.5" y2="598.5"/><line style="stroke: #A80036; stroke-width: 1.5;" x1="94" x2="158" y1="606.5" y2="606.5"/><!--link mastermind.views.View to mastermind.views.console.ConsoleView--><path d="M454,128.487 C454,145.31 454,165.015 454,183.816 " fill="none" id="mastermind.views.View-mastermind.views.console.ConsoleView" style="stroke: #A80036; stroke-width: 1.0;"/><polygon fill="none" points="447,128.35,454,108.35,461,128.35,447,128.35" style="stroke: #A80036; stroke-width: 1.0;"/><!--link mastermind.views.console.ConsoleView to mastermind.views.console.ProposalView--><path d="M544.305,337.95 C560.249,352.154 576.482,366.614 591.316,379.83 " fill="none" id="mastermind.views.console.ConsoleView-mastermind.views.console.ProposalView" style="stroke: #A80036; stroke-width: 1.0;"/><polygon fill="#A80036" points="601.342,388.761,597.2831,379.7874,597.6088,385.4349,591.9613,385.7606,601.342,388.761" style="stroke: #A80036; stroke-width: 1.0;"/><line style="stroke: #A80036; stroke-width: 1.0;" x1="597.6088" x2="591.635" y1="385.4349" y2="380.1135"/><polygon fill="#A80036" points="534.412,329.136,536.2316,336.1138,543.3724,337.1179,541.5528,330.1402,534.412,329.136" style="stroke: #A80036; stroke-width: 1.0;"/><!--link mastermind.views.console.ConsoleView to mastermind.views.console.ResumeView--><path d="M376.354,338.612 C360.757,354.906 344.865,371.507 330.847,386.15 " fill="none" id="mastermind.views.console.ConsoleView-mastermind.views.console.ResumeView" style="stroke: #A80036; stroke-width: 1.0;"/><polygon fill="#A80036" points="321.469,395.948,330.5823,392.2133,324.9268,392.3364,324.8037,386.6809,321.469,395.948" style="stroke: #A80036; stroke-width: 1.0;"/><line style="stroke: #A80036; stroke-width: 1.0;" x1="324.9268" x2="330.4585" y1="392.3364" y2="386.5565"/><polygon fill="#A80036" points="385.426,329.136,378.3875,330.7043,377.128,337.8045,384.1665,336.2363,385.426,329.136" style="stroke: #A80036; stroke-width: 1.0;"/><!--link mastermind.views.console.ConsoleView to mastermind.views.console.StartView--><path d="M454,342.155 C454,356.044 454,370.036 454,382.737 " fill="none" id="mastermind.views.console.ConsoleView-mastermind.views.console.StartView" style="stroke: #A80036; stroke-width: 1.0;"/><polygon fill="#A80036" points="454,395.948,458,386.948,454,390.948,450,386.948,454,395.948" style="stroke: #A80036; stroke-width: 1.0;"/><line style="stroke: #A80036; stroke-width: 1.0;" x1="454" x2="454" y1="390.948" y2="382.948"/><polygon fill="#A80036" points="454,329.136,450,335.136,454,341.136,458,335.136,454,329.136" style="stroke: #A80036; stroke-width: 1.0;"/><!--link mastermind.utils.WithConsoleView to mastermind.views.console.ProposalView--><path d="M826.742,293.44 C791.904,321.105 743.588,359.474 706.432,388.98 " fill="none" id="mastermind.utils.WithConsoleView-mastermind.views.console.ProposalView" style="stroke: #A80036; stroke-width: 1.0;"/><polygon fill="none" points="822.637,287.761,842.653,280.805,831.344,298.725,822.637,287.761" style="stroke: #A80036; stroke-width: 1.0;"/><!--link mastermind.views.console.ProposalView to mastermind.models.Game--><path d="M550.74,474.125 C544.779,475.907 538.836,477.552 533,479 C387.708,515.05 334.691,459.275 199,522.5 C179.331,531.665 161.322,548.065 148.112,562.345 " fill="none" id="mastermind.views.console.ProposalView-mastermind.models.Game" style="stroke: #A80036; stroke-width: 1.0; stroke-dasharray: 7.0,7.0;"/><polygon fill="#A80036" points="144.516,566.308,153.5254,562.3292,147.8752,562.6046,147.5999,556.9544,144.516,566.308" style="stroke: #A80036; stroke-width: 1.0;"/><!--link mastermind.views.console.ProposalView to mastermind.views.console.SecretCombinationView--><path d="M550.969,472.531 C544.895,474.738 538.87,476.909 533,479 C476.401,499.165 458.867,495.882 405,522.5 C389.549,530.135 373.676,539.804 359.255,549.404 " fill="none" id="mastermind.views.console.ProposalView-mastermind.views.console.SecretCombinationView" style="stroke: #A80036; stroke-width: 1.0; stroke-dasharray: 7.0,7.0;"/><polygon fill="#A80036" points="354.828,552.378,364.5287,550.6762,358.9775,549.5884,360.0653,544.0371,354.828,552.378" style="stroke: #A80036; stroke-width: 1.0;"/><!--link mastermind.views.console.ProposalView to mastermind.views.console.ProposedCombinationView--><path d="M611.741,479.273 C596.378,496.599 578.598,516.65 562.45,534.862 " fill="none" id="mastermind.views.console.ProposalView-mastermind.views.console.ProposedCombinationView" style="stroke: #A80036; stroke-width: 1.0; stroke-dasharray: 7.0,7.0;"/><polygon fill="#A80036" points="558.815,538.96,567.7787,534.8793,562.132,535.2187,561.7926,529.572,558.815,538.96" style="stroke: #A80036; stroke-width: 1.0;"/><!--link mastermind.views.console.ProposalView to mastermind.views.console.ResultView--><path d="M663.895,479.273 C670.123,500.654 677.558,526.184 683.705,547.287 " fill="none" id="mastermind.views.console.ProposalView-mastermind.views.console.ResultView" style="stroke: #A80036; stroke-width: 1.0; stroke-dasharray: 7.0,7.0;"/><polygon fill="#A80036" points="685.157,552.273,686.4797,542.5134,683.7583,547.4726,678.7991,544.7513,685.157,552.273" style="stroke: #A80036; stroke-width: 1.0;"/><!--link mastermind.utils.WithConsoleView to mastermind.views.console.ProposedCombinationView--><path d="M876.81,300.836 C879.763,350.738 876.203,431.876 830,479 C764.185,546.128 710.333,487.705 623,522.5 C611.547,527.063 599.938,532.796 588.777,538.978 " fill="none" id="mastermind.utils.WithConsoleView-mastermind.views.console.ProposedCombinationView" style="stroke: #A80036; stroke-width: 1.0;"/><polygon fill="none" points="869.813,301.147,875.157,280.642,883.766,300.004,869.813,301.147" style="stroke: #A80036; stroke-width: 1.0;"/><!--link mastermind.utils.WithConsoleView to mastermind.views.console.ResultView--><path d="M892.204,299.246 C911.81,346.303 934.151,423.471 901,479 C868.772,532.983 800.059,562.155 751.076,576.7402 " fill="none" id="mastermind.utils.WithConsoleView-mastermind.views.console.ResultView" style="stroke: #A80036; stroke-width: 1.0;"/><polygon fill="none" points="885.726,301.906,884.003,280.787,898.52,296.222,885.726,301.906" style="stroke: #A80036; stroke-width: 1.0;"/><!--link mastermind.views.console.ResumeView to mastermind.models.Game--><path d="M247.676,472.007 C218.774,499.915 179.803,537.547 153.834,562.623 " fill="none" id="mastermind.views.console.ResumeView-mastermind.models.Game" style="stroke: #A80036; stroke-width: 1.0; stroke-dasharray: 7.0,7.0;"/><polygon fill="#A80036" points="150.1,566.229,159.3524,562.8537,153.6964,562.7554,153.7947,557.0994,150.1,566.229" style="stroke: #A80036; stroke-width: 1.0;"/><!--link mastermind.utils.WithConsoleView to mastermind.views.console.SecretCombinationView--><path d="M857.652,299.937 C837.203,357.791 798.748,456.79 768,479 C636.28,574.1428 557.368,466.053 405,522.5 C385.894,529.578 366.836,540.983 350.561,552.393 " fill="none" id="mastermind.utils.WithConsoleView-mastermind.views.console.SecretCombinationView" style="stroke: #A80036; stroke-width: 1.0;"/><polygon fill="none" points="851.156,297.304,864.323,280.702,864.383,301.891,851.156,297.304" style="stroke: #A80036; stroke-width: 1.0;"/><!--link mastermind.utils.WithConsoleView to mastermind.views.console.StartView--><path d="M827.7,292.705 C809.696,305.635 788.17,319.434 767,329 C669.161,373.211 632.722,349.217 533,389 C527.459,391.21 521.822,393.734 516.24,396.43 " fill="none" id="mastermind.utils.WithConsoleView-mastermind.views.console.StartView" style="stroke: #A80036; stroke-width: 1.0;"/><polygon fill="none" points="823.536,287.078,843.756,280.743,831.9,298.305,823.536,287.078" style="stroke: #A80036; stroke-width: 1.0;"/><!--link mastermind.views.console.StartView to mastermind.models.Game--><path d="M391.858,471.175 C385.916,474.024 379.904,476.688 374,479 C299.373,508.223 269.597,484.563 199,522.5 C180.163,532.623 162.407,548.713 149.123,562.588 " fill="none" id="mastermind.views.console.StartView-mastermind.models.Game" style="stroke: #A80036; stroke-width: 1.0; stroke-dasharray: 7.0,7.0;"/><polygon fill="#A80036" points="145.498,566.437,154.5813,562.63,148.927,562.798,148.7589,557.1437,145.498,566.437" style="stroke: #A80036; stroke-width: 1.0;"/><!--
@startuml

class  mastermind.views.console.ConsoleView{
- startView: StartView
- proposalView: ProposalView
- resumeView: ResumeView
+ ConsoleView(Game)
# start(): void
# resume(): boolean
# propose(): boolean
}
mastermind.views.View <|-down- mastermind.views.console.ConsoleView
mastermind.views.console.ConsoleView *-down-> mastermind.views.console.ProposalView
mastermind.views.console.ConsoleView *-down-> mastermind.views.console.ResumeView
mastermind.views.console.ConsoleView *-down-> mastermind.views.console.StartView

class  mastermind.views.console.ProposalView{
~ ProposalView()
- proposeCombination(int[], Game): int
~ interact(Game): boolean
}
mastermind.utils.WithConsoleView <|-down- mastermind.views.console.ProposalView
mastermind.views.console.ProposalView ..> mastermind.models.Game
mastermind.views.console.ProposalView ..> mastermind.views.console.SecretCombinationView
mastermind.views.console.ProposalView ..> mastermind.views.console.ProposedCombinationView
mastermind.views.console.ProposalView ..> mastermind.views.console.ResultView

class  mastermind.views.console.ProposedCombinationView{
- {static} ERROR_CODE: int
~ ProposedCombinationView()
~ write(int[]): void
~ read(): int[]
}
mastermind.utils.WithConsoleView <|-down- mastermind.views.console.ProposedCombinationView

class  mastermind.views.console.ResultView{
~ ResultView()
~ writeln(int[]): void
}
mastermind.utils.WithConsoleView <|-down- mastermind.views.console.ResultView

class  mastermind.views.console.ResumeView{
~ ResumeView()
~ interact(Game): boolean
}
mastermind.views.console.ResumeView ..> mastermind.models.Game

class  mastermind.views.console.SecretCombinationView{
~ SecretCombinationView()
~ writeln(int): void
}
mastermind.utils.WithConsoleView <|-down- mastermind.views.console.SecretCombinationView

class  mastermind.views.console.StartView{
~ StartView()
~ interact(Game): void
}
mastermind.utils.WithConsoleView <|-down- mastermind.views.console.StartView
mastermind.views.console.StartView ..> mastermind.models.Game

@enduml

PlantUML version 1.2019.05(Sat Apr 20 18:45:36 CEST 2019)
(GPL source distribution)
Java Runtime: OpenJDK Runtime Environment
JVM: OpenJDK 64-Bit Server VM
Java Version: 1.8.0_222-b10
Operating System: Windows 10
OS Version: 10.0
Default Encoding: windows-1252
Language: es
Country: ES
--></g></svg>