<?xml version="1.0" encoding="UTF-8" standalone="no"?><svg xmlns="http://www.w3.org/2000/svg" xmlns:xlink="http://www.w3.org/1999/xlink" contentScriptType="application/ecmascript" contentStyleType="text/css" height="260px" preserveAspectRatio="none" style="width:519px;height:260px;" version="1.1" viewBox="0 0 519 260" width="519px" zoomAndPan="magnify"><defs><filter height="300%" id="fkgem8leao0u7" width="300%" x="-1" y="-1"><feGaussianBlur result="blurOut" stdDeviation="2.0"/><feColorMatrix in="blurOut" result="blurOut2" type="matrix" values="0 0 0 0 0 0 0 0 0 0 0 0 0 0 0 0 0 0 .4 0"/><feOffset dx="4.0" dy="4.0" in="blurOut2" result="blurOut3"/><feBlend in="SourceGraphic" in2="blurOut3" mode="normal"/></filter></defs><g><!--MD5=[b42ceb2c5584a967df5f7acfe803d0f5]
class ConsoleMastermind--><rect codeLine="1" fill="#FEFECE" filter="url(#fkgem8leao0u7)" height="112.0234" id="ConsoleMastermind" style="stroke: #A80036; stroke-width: 1.5;" width="225" x="7" y="7"/><ellipse cx="22" cy="23" fill="#ADD1B2" rx="11" ry="11" style="stroke: #A80036; stroke-width: 1.0;"/><path d="M24.3438,18.6719 C23.4063,18.2344 22.8125,18.0938 21.9375,18.0938 C19.3125,18.0938 17.3125,20.1719 17.3125,22.8906 L17.3125,24.0156 C17.3125,26.5938 19.4219,28.4844 22.3125,28.4844 C23.5313,28.4844 24.6875,28.1875 25.4375,27.6406 C26.0156,27.2344 26.3438,26.7813 26.3438,26.3906 C26.3438,25.9375 25.9531,25.5469 25.4844,25.5469 C25.2656,25.5469 25.0625,25.625 24.875,25.8125 C24.4219,26.2969 24.4219,26.2969 24.2344,26.3906 C23.8125,26.6563 23.125,26.7813 22.3594,26.7813 C20.3125,26.7813 19.0156,25.6875 19.0156,23.9844 L19.0156,22.8906 C19.0156,21.1094 20.2656,19.7969 22,19.7969 C22.5781,19.7969 23.1875,19.9531 23.6563,20.2031 C24.1406,20.4844 24.3125,20.7031 24.4063,21.1094 C24.4688,21.5156 24.5,21.6406 24.6406,21.7656 C24.7813,21.9063 25.0156,22.0156 25.2344,22.0156 C25.5,22.0156 25.7656,21.875 25.9375,21.6563 C26.0469,21.5 26.0781,21.3125 26.0781,20.8906 L26.0781,19.4688 C26.0781,19.0313 26.0625,18.9063 25.9688,18.75 C25.8125,18.4844 25.5313,18.3438 25.2344,18.3438 C24.9375,18.3438 24.7344,18.4375 24.5156,18.75 L24.3438,18.6719 Z "/><text fill="#000000" font-family="sans-serif" font-size="12" lengthAdjust="spacingAndGlyphs" textLength="193" x="36" y="27.1543">mastermind.ConsoleMastermind</text><line style="stroke: #A80036; stroke-width: 1.5;" x1="8" x2="231" y1="39" y2="39"/><rect fill="none" height="6" style="stroke: #C82930; stroke-width: 1.0;" width="6" x="15" y="47"/><text fill="#000000" font-family="sans-serif" font-size="11" lengthAdjust="spacingAndGlyphs" textLength="75" x="27" y="53.2104">game: Game</text><rect fill="none" height="6" style="stroke: #C82930; stroke-width: 1.0;" width="6" x="15" y="59.8047"/><text fill="#000000" font-family="sans-serif" font-size="11" lengthAdjust="spacingAndGlyphs" textLength="153" x="27" y="66.0151">consoleView: ConsoleView</text><line style="stroke: #A80036; stroke-width: 1.5;" x1="8" x2="231" y1="72.6094" y2="72.6094"/><rect fill="#F24D5C" height="6" style="stroke: #C82930; stroke-width: 1.0;" width="6" x="15" y="80.6094"/><text fill="#000000" font-family="sans-serif" font-size="11" lengthAdjust="spacingAndGlyphs" textLength="120" x="27" y="86.8198">ConsoleMastermind()</text><ellipse cx="18" cy="96.4141" fill="#84BE84" rx="3" ry="3" style="stroke: #038048; stroke-width: 1.0;"/><text fill="#000000" font-family="sans-serif" font-size="11" lengthAdjust="spacingAndGlyphs" text-decoration="underline" textLength="108" x="27" y="99.6245">main(String[]): void</text><rect fill="#F24D5C" height="6" style="stroke: #C82930; stroke-width: 1.0;" width="6" x="15" y="106.2188"/><text fill="#000000" font-family="sans-serif" font-size="11" lengthAdjust="spacingAndGlyphs" textLength="63" x="27" y="112.4292">play(): void</text><!--MD5=[82f5d369923afe538b59fbe9650e3ee6]
class GraphicsMastermind--><rect codeLine="9" fill="#FEFECE" filter="url(#fkgem8leao0u7)" height="112.0234" id="GraphicsMastermind" style="stroke: #A80036; stroke-width: 1.5;" width="229" x="276" y="7"/><ellipse cx="291" cy="23" fill="#ADD1B2" rx="11" ry="11" style="stroke: #A80036; stroke-width: 1.0;"/><path d="M293.3438,18.6719 C292.4063,18.2344 291.8125,18.0938 290.9375,18.0938 C288.3125,18.0938 286.3125,20.1719 286.3125,22.8906 L286.3125,24.0156 C286.3125,26.5938 288.4219,28.4844 291.3125,28.4844 C292.5313,28.4844 293.6875,28.1875 294.4375,27.6406 C295.0156,27.2344 295.3438,26.7813 295.3438,26.3906 C295.3438,25.9375 294.9531,25.5469 294.4844,25.5469 C294.2656,25.5469 294.0625,25.625 293.875,25.8125 C293.4219,26.2969 293.4219,26.2969 293.2344,26.3906 C292.8125,26.6563 292.125,26.7813 291.3594,26.7813 C289.3125,26.7813 288.0156,25.6875 288.0156,23.9844 L288.0156,22.8906 C288.0156,21.1094 289.2656,19.7969 291,19.7969 C291.5781,19.7969 292.1875,19.9531 292.6563,20.2031 C293.1406,20.4844 293.3125,20.7031 293.4063,21.1094 C293.4688,21.5156 293.5,21.6406 293.6406,21.7656 C293.7813,21.9063 294.0156,22.0156 294.2344,22.0156 C294.5,22.0156 294.7656,21.875 294.9375,21.6563 C295.0469,21.5 295.0781,21.3125 295.0781,20.8906 L295.0781,19.4688 C295.0781,19.0313 295.0625,18.9063 294.9688,18.75 C294.8125,18.4844 294.5313,18.3438 294.2344,18.3438 C293.9375,18.3438 293.7344,18.4375 293.5156,18.75 L293.3438,18.6719 Z "/><text fill="#000000" font-family="sans-serif" font-size="12" lengthAdjust="spacingAndGlyphs" textLength="197" x="305" y="27.1543">mastermind.GraphicsMastermind</text><line style="stroke: #A80036; stroke-width: 1.5;" x1="277" x2="504" y1="39" y2="39"/><rect fill="none" height="6" style="stroke: #C82930; stroke-width: 1.0;" width="6" x="284" y="47"/><text fill="#000000" font-family="sans-serif" font-size="11" lengthAdjust="spacingAndGlyphs" textLength="75" x="296" y="53.2104">game: Game</text><rect fill="none" height="6" style="stroke: #C82930; stroke-width: 1.0;" width="6" x="284" y="59.8047"/><text fill="#000000" font-family="sans-serif" font-size="11" lengthAdjust="spacingAndGlyphs" textLength="159" x="296" y="66.0151">graphicsView: GraphicsView</text><line style="stroke: #A80036; stroke-width: 1.5;" x1="277" x2="504" y1="72.6094" y2="72.6094"/><rect fill="#F24D5C" height="6" style="stroke: #C82930; stroke-width: 1.0;" width="6" x="284" y="80.6094"/><text fill="#000000" font-family="sans-serif" font-size="11" lengthAdjust="spacingAndGlyphs" textLength="123" x="296" y="86.8198">GraphicsMastermind()</text><ellipse cx="287" cy="96.4141" fill="#84BE84" rx="3" ry="3" style="stroke: #038048; stroke-width: 1.0;"/><text fill="#000000" font-family="sans-serif" font-size="11" lengthAdjust="spacingAndGlyphs" text-decoration="underline" textLength="108" x="296" y="99.6245">main(String[]): void</text><rect fill="#F24D5C" height="6" style="stroke: #C82930; stroke-width: 1.0;" width="6" x="284" y="106.2188"/><text fill="#000000" font-family="sans-serif" font-size="11" lengthAdjust="spacingAndGlyphs" textLength="63" x="296" y="112.4292">play(): void</text><!--MD5=[51d729737bd84a4c43136dd336c2eea1]
class ConsoleView--><rect codeLine="17" fill="#FEFECE" filter="url(#fkgem8leao0u7)" height="67.9063" id="ConsoleView" style="stroke: #A80036; stroke-width: 1.5;" width="121" x="40" y="179"/><ellipse cx="55" cy="204.9531" fill="#ADD1B2" rx="11" ry="11" style="stroke: #A80036; stroke-width: 1.0;"/><path d="M57.3438,200.625 C56.4063,200.1875 55.8125,200.0469 54.9375,200.0469 C52.3125,200.0469 50.3125,202.125 50.3125,204.8438 L50.3125,205.9688 C50.3125,208.5469 52.4219,210.4375 55.3125,210.4375 C56.5313,210.4375 57.6875,210.1406 58.4375,209.5938 C59.0156,209.1875 59.3438,208.7344 59.3438,208.3438 C59.3438,207.8906 58.9531,207.5 58.4844,207.5 C58.2656,207.5 58.0625,207.5781 57.875,207.7656 C57.4219,208.25 57.4219,208.25 57.2344,208.3438 C56.8125,208.6094 56.125,208.7344 55.3594,208.7344 C53.3125,208.7344 52.0156,207.6406 52.0156,205.9375 L52.0156,204.8438 C52.0156,203.0625 53.2656,201.75 55,201.75 C55.5781,201.75 56.1875,201.9063 56.6563,202.1563 C57.1406,202.4375 57.3125,202.6563 57.4063,203.0625 C57.4688,203.4688 57.5,203.5938 57.6406,203.7188 C57.7813,203.8594 58.0156,203.9688 58.2344,203.9688 C58.5,203.9688 58.7656,203.8281 58.9375,203.6094 C59.0469,203.4531 59.0781,203.2656 59.0781,202.8438 L59.0781,201.4219 C59.0781,200.9844 59.0625,200.8594 58.9688,200.7031 C58.8125,200.4375 58.5313,200.2969 58.2344,200.2969 C57.9375,200.2969 57.7344,200.3906 57.5156,200.7031 L57.3438,200.625 Z "/><text fill="#000000" font-family="sans-serif" font-size="12" lengthAdjust="spacingAndGlyphs" textLength="74" x="76.5" y="195.1387">mastermind.</text><text fill="#000000" font-family="sans-serif" font-size="12" lengthAdjust="spacingAndGlyphs" textLength="89" x="69" y="209.1074">views.console.</text><text fill="#000000" font-family="sans-serif" font-size="12" lengthAdjust="spacingAndGlyphs" textLength="78" x="74.5" y="223.0762">ConsoleView</text><line style="stroke: #A80036; stroke-width: 1.5;" x1="41" x2="160" y1="230.9063" y2="230.9063"/><line style="stroke: #A80036; stroke-width: 1.5;" x1="41" x2="160" y1="238.9063" y2="238.9063"/><!--MD5=[10250df365dc999637be629d910c1f35]
class GraphicsView--><rect codeLine="18" fill="#FEFECE" filter="url(#fkgem8leao0u7)" height="67.9063" id="GraphicsView" style="stroke: #A80036; stroke-width: 1.5;" width="125" x="338" y="179"/><ellipse cx="353" cy="204.9531" fill="#ADD1B2" rx="11" ry="11" style="stroke: #A80036; stroke-width: 1.0;"/><path d="M355.3438,200.625 C354.4063,200.1875 353.8125,200.0469 352.9375,200.0469 C350.3125,200.0469 348.3125,202.125 348.3125,204.8438 L348.3125,205.9688 C348.3125,208.5469 350.4219,210.4375 353.3125,210.4375 C354.5313,210.4375 355.6875,210.1406 356.4375,209.5938 C357.0156,209.1875 357.3438,208.7344 357.3438,208.3438 C357.3438,207.8906 356.9531,207.5 356.4844,207.5 C356.2656,207.5 356.0625,207.5781 355.875,207.7656 C355.4219,208.25 355.4219,208.25 355.2344,208.3438 C354.8125,208.6094 354.125,208.7344 353.3594,208.7344 C351.3125,208.7344 350.0156,207.6406 350.0156,205.9375 L350.0156,204.8438 C350.0156,203.0625 351.2656,201.75 353,201.75 C353.5781,201.75 354.1875,201.9063 354.6563,202.1563 C355.1406,202.4375 355.3125,202.6563 355.4063,203.0625 C355.4688,203.4688 355.5,203.5938 355.6406,203.7188 C355.7813,203.8594 356.0156,203.9688 356.2344,203.9688 C356.5,203.9688 356.7656,203.8281 356.9375,203.6094 C357.0469,203.4531 357.0781,203.2656 357.0781,202.8438 L357.0781,201.4219 C357.0781,200.9844 357.0625,200.8594 356.9688,200.7031 C356.8125,200.4375 356.5313,200.2969 356.2344,200.2969 C355.9375,200.2969 355.7344,200.3906 355.5156,200.7031 L355.3438,200.625 Z "/><text fill="#000000" font-family="sans-serif" font-size="12" lengthAdjust="spacingAndGlyphs" textLength="74" x="376.5" y="195.1387">mastermind.</text><text fill="#000000" font-family="sans-serif" font-size="12" lengthAdjust="spacingAndGlyphs" textLength="93" x="367" y="209.1074">views.graphics.</text><text fill="#000000" font-family="sans-serif" font-size="12" lengthAdjust="spacingAndGlyphs" textLength="82" x="372.5" y="223.0762">GraphicsView</text><line style="stroke: #A80036; stroke-width: 1.5;" x1="339" x2="462" y1="230.9063" y2="230.9063"/><line style="stroke: #A80036; stroke-width: 1.5;" x1="339" x2="462" y1="238.9063" y2="238.9063"/><!--MD5=[b6dcce5e5ef3c84b0b048d11301373dd]
class Game--><rect codeLine="19" fill="#FEFECE" filter="url(#fkgem8leao0u7)" height="67.9063" id="Game" style="stroke: #A80036; stroke-width: 1.5;" width="106" x="196.5" y="179"/><ellipse cx="211.5" cy="204.9531" fill="#ADD1B2" rx="11" ry="11" style="stroke: #A80036; stroke-width: 1.0;"/><path d="M213.8438,200.625 C212.9063,200.1875 212.3125,200.0469 211.4375,200.0469 C208.8125,200.0469 206.8125,202.125 206.8125,204.8438 L206.8125,205.9688 C206.8125,208.5469 208.9219,210.4375 211.8125,210.4375 C213.0313,210.4375 214.1875,210.1406 214.9375,209.5938 C215.5156,209.1875 215.8438,208.7344 215.8438,208.3438 C215.8438,207.8906 215.4531,207.5 214.9844,207.5 C214.7656,207.5 214.5625,207.5781 214.375,207.7656 C213.9219,208.25 213.9219,208.25 213.7344,208.3438 C213.3125,208.6094 212.625,208.7344 211.8594,208.7344 C209.8125,208.7344 208.5156,207.6406 208.5156,205.9375 L208.5156,204.8438 C208.5156,203.0625 209.7656,201.75 211.5,201.75 C212.0781,201.75 212.6875,201.9063 213.1563,202.1563 C213.6406,202.4375 213.8125,202.6563 213.9063,203.0625 C213.9688,203.4688 214,203.5938 214.1406,203.7188 C214.2813,203.8594 214.5156,203.9688 214.7344,203.9688 C215,203.9688 215.2656,203.8281 215.4375,203.6094 C215.5469,203.4531 215.5781,203.2656 215.5781,202.8438 L215.5781,201.4219 C215.5781,200.9844 215.5625,200.8594 215.4688,200.7031 C215.3125,200.4375 215.0313,200.2969 214.7344,200.2969 C214.4375,200.2969 214.2344,200.3906 214.0156,200.7031 L213.8438,200.625 Z "/><text fill="#000000" font-family="sans-serif" font-size="12" lengthAdjust="spacingAndGlyphs" textLength="74" x="225.5" y="195.1387">mastermind.</text><text fill="#000000" font-family="sans-serif" font-size="12" lengthAdjust="spacingAndGlyphs" textLength="48" x="238.5" y="209.1074">models.</text><text fill="#000000" font-family="sans-serif" font-size="12" lengthAdjust="spacingAndGlyphs" textLength="35" x="245" y="223.0762">Game</text><line style="stroke: #A80036; stroke-width: 1.5;" x1="197.5" x2="301.5" y1="230.9063" y2="230.9063"/><line style="stroke: #A80036; stroke-width: 1.5;" x1="197.5" x2="301.5" y1="238.9063" y2="238.9063"/><!--MD5=[9c67bf499d44dfc8371d2921d66d8312]
link ConsoleMastermind to ConsoleView--><path codeLine="20" d="M110.898,131.0124 C110.898,131.0124 107.811,155.0499 106.4629,165.5523 " fill="none" id="ConsoleMastermind-ConsoleView" style="stroke: #A80036; stroke-width: 1.0;"/><polygon fill="#A80036" points="104.7655,178.7744,109.879,170.357,105.4022,173.8151,101.9441,169.3383,104.7655,178.7744" style="stroke: #A80036; stroke-width: 1.0;"/><line style="stroke: #A80036; stroke-width: 1.0;" x1="105.4022" x2="106.421" y1="173.8151" y2="165.8802"/><polygon fill="#A80036" points="112.425,119.11,107.694,124.5522,110.898,131.0124,115.629,125.5702,112.425,119.11" style="stroke: #A80036; stroke-width: 1.0;"/><!--MD5=[ec55e9e5ae078d385f7aae9feb4dc689]
link ConsoleMastermind to Game--><path codeLine="21" d="M175.8267,128.1255 C175.8267,128.1255 200.594,156.3221 211.488,168.7248 " fill="none" id="ConsoleMastermind-Game" style="stroke: #A80036; stroke-width: 1.0;"/><polygon fill="#A80036" points="220.315,178.7744,217.3808,169.3728,217.0153,175.0178,211.3703,174.6523,220.315,178.7744" style="stroke: #A80036; stroke-width: 1.0;"/><line style="stroke: #A80036; stroke-width: 1.0;" x1="217.0153" x2="211.7365" y1="175.0178" y2="169.0073"/><polygon fill="#A80036" points="167.907,119.11,168.8617,126.2576,175.8267,128.1255,174.872,120.9778,167.907,119.11" style="stroke: #A80036; stroke-width: 1.0;"/><!--MD5=[3f60c73cafb5ecd1ace852a383197d3c]
link GraphicsMastermind to GraphicsView--><path codeLine="22" d="M395.0336,131.0827 C395.0336,131.0827 396.652,155.0499 397.362,165.5523 " fill="none" id="GraphicsMastermind-GraphicsView" style="stroke: #A80036; stroke-width: 1.0;"/><polygon fill="#A80036" points="398.255,178.7744,401.6391,169.5252,397.9179,173.7858,393.6573,170.0646,398.255,178.7744" style="stroke: #A80036; stroke-width: 1.0;"/><line style="stroke: #A80036; stroke-width: 1.0;" x1="397.9179" x2="397.3785" y1="173.7858" y2="165.804"/><polygon fill="#A80036" points="394.224,119.11,390.6379,125.3662,395.0336,131.0827,398.6197,124.8265,394.224,119.11" style="stroke: #A80036; stroke-width: 1.0;"/><!--MD5=[d1fc99af4a403066334e7fc517b48241]
link GraphicsMastermind to Game--><path codeLine="23" d="M329.7199,127.7985 C329.7199,127.7985 302.489,156.3804 290.464,169.0028 " fill="none" id="GraphicsMastermind-Game" style="stroke: #A80036; stroke-width: 1.0;"/><polygon fill="#A80036" points="281.154,178.7744,290.258,175.0171,284.6028,175.1542,284.4656,169.499,281.154,178.7744" style="stroke: #A80036; stroke-width: 1.0;"/><line style="stroke: #A80036; stroke-width: 1.0;" x1="284.6028" x2="290.1215" y1="175.1542" y2="169.3621"/><polygon fill="#A80036" points="337.997,119.11,330.9623,120.6952,329.7199,127.7985,336.7546,126.2133,337.997,119.11" style="stroke: #A80036; stroke-width: 1.0;"/><!--MD5=[e8e419eae46450f63d10e75db08e086f]
@startuml
class ConsoleMastermind as "mastermind.ConsoleMastermind"{
- game: Game
- consoleView: ConsoleView
- ConsoleMastermind()
+ {static} main(String[]): void
- play(): void
}

class GraphicsMastermind as "mastermind.GraphicsMastermind"{
- game: Game
- graphicsView: GraphicsView
- GraphicsMastermind()
+ {static} main(String[]): void
- play(): void
}

class ConsoleView as "mastermind.\nviews.console.\nConsoleView"{}
class GraphicsView as "mastermind.\nviews.graphics.\nGraphicsView"{}
class Game as "mastermind.\nmodels.\nGame"{}
ConsoleMastermind *-down-> ConsoleView
ConsoleMastermind *-down-> Game
GraphicsMastermind *-down-> GraphicsView
GraphicsMastermind *-down-> Game
@enduml

PlantUML version 1.2020.20beta4(Unknown compile time)
(GPL source distribution)
Java Runtime: Java(TM) SE Runtime Environment
JVM: Java HotSpot(TM) 64-Bit Server VM
Default Encoding: UTF-8
Language: en
Country: US
--></g></svg>