<?xml version="1.0" encoding="UTF-8" standalone="no"?><svg xmlns="http://www.w3.org/2000/svg" xmlns:xlink="http://www.w3.org/1999/xlink" contentScriptType="application/ecmascript" contentStyleType="text/css" height="1012px" preserveAspectRatio="none" style="width:2406px;height:1012px;" version="1.1" viewBox="0 0 2406 1012" width="2406px" zoomAndPan="magnify"><defs><filter height="300%" id="facqspwvszjjf" width="300%" x="-1" y="-1"><feGaussianBlur result="blurOut" stdDeviation="2.0"/><feColorMatrix in="blurOut" result="blurOut2" type="matrix" values="0 0 0 0 0 0 0 0 0 0 0 0 0 0 0 0 0 0 .4 0"/><feOffset dx="4.0" dy="4.0" in="blurOut2" result="blurOut3"/><feBlend in="SourceGraphic" in2="blurOut3" mode="normal"/></filter></defs><g><!--cluster mastermind.views.graphics--><polygon fill="#FFFFFF" filter="url(#facqspwvszjjf)" points="919,148,1117,148,1124,171.6094,1661,171.6094,1661,1000,919,1000,919,148" style="stroke: #000000; stroke-width: 1.5;"/><line style="stroke: #000000; stroke-width: 1.5;" x1="919" x2="1124" y1="171.6094" y2="171.6094"/><text fill="#000000" font-family="sans-serif" font-size="14" font-weight="bold" lengthAdjust="spacingAndGlyphs" textLength="192" x="923" y="164.5332">mastermind.views.graphics</text><!--cluster java.awt--><polygon fill="#FFFFFF" filter="url(#facqspwvszjjf)" points="721,654,784,654,791,677.6094,895,677.6094,895,754,721,754,721,654" style="stroke: #000000; stroke-width: 1.5;"/><line style="stroke: #000000; stroke-width: 1.5;" x1="721" x2="791" y1="677.6094" y2="677.6094"/><text fill="#000000" font-family="sans-serif" font-size="14" font-weight="bold" lengthAdjust="spacingAndGlyphs" textLength="57" x="725" y="670.5332">java.awt</text><!--cluster javax.swing--><polygon fill="#FFFFFF" filter="url(#facqspwvszjjf)" points="22,654,110,654,117,677.6094,697,677.6094,697,754,22,754,22,654" style="stroke: #000000; stroke-width: 1.5;"/><line style="stroke: #000000; stroke-width: 1.5;" x1="22" x2="117" y1="677.6094" y2="677.6094"/><text fill="#000000" font-family="sans-serif" font-size="14" font-weight="bold" lengthAdjust="spacingAndGlyphs" textLength="82" x="26" y="670.5332">javax.swing</text><!--cluster mastermind.models--><polygon fill="#FFFFFF" filter="url(#facqspwvszjjf)" points="2231,872.5,2374,872.5,2381,896.1094,2384,896.1094,2384,972.5,2231,972.5,2231,872.5" style="stroke: #000000; stroke-width: 1.5;"/><line style="stroke: #000000; stroke-width: 1.5;" x1="2231" x2="2381" y1="896.1094" y2="896.1094"/><text fill="#000000" font-family="sans-serif" font-size="14" font-weight="bold" lengthAdjust="spacingAndGlyphs" textLength="137" x="2235" y="889.0332">mastermind.models</text><!--cluster mastermind.views--><polygon fill="#FFFFFF" filter="url(#facqspwvszjjf)" points="967,24,1100,24,1107,47.6094,1110,47.6094,1110,124,967,124,967,24" style="stroke: #000000; stroke-width: 1.5;"/><line style="stroke: #000000; stroke-width: 1.5;" x1="967" x2="1107" y1="47.6094" y2="47.6094"/><text fill="#000000" font-family="sans-serif" font-size="14" font-weight="bold" lengthAdjust="spacingAndGlyphs" textLength="127" x="971" y="40.5332">mastermind.views</text><!--cluster java.awt.event--><polygon fill="#FFFFFF" filter="url(#facqspwvszjjf)" points="1685,872.5,1793,872.5,1800,896.1094,2207,896.1094,2207,972.5,1685,972.5,1685,872.5" style="stroke: #000000; stroke-width: 1.5;"/><line style="stroke: #000000; stroke-width: 1.5;" x1="1685" x2="1800" y1="896.1094" y2="896.1094"/><text fill="#000000" font-family="sans-serif" font-size="14" font-weight="bold" lengthAdjust="spacingAndGlyphs" textLength="102" x="1689" y="889.0332">java.awt.event</text><!--class mastermind.views.graphics.Constraints--><rect fill="#FEFECE" filter="url(#facqspwvszjjf)" height="61.8359" id="mastermind.views.graphics.Constraints" style="stroke: #A80036; stroke-width: 1.5;" width="151" x="1423.5" y="901.5"/><ellipse cx="1463.25" cy="917.5" fill="#ADD1B2" rx="11" ry="11" style="stroke: #A80036; stroke-width: 1.0;"/><path d="M1466.0156,913.375 Q1466.1719,913.1563 1466.3594,913.0469 Q1466.5469,912.9375 1466.7656,912.9375 Q1467.1406,912.9375 1467.375,913.1953 Q1467.6094,913.4531 1467.6094,914.0625 L1467.6094,915.5156 Q1467.6094,916.125 1467.375,916.3906 Q1467.1406,916.6563 1466.7656,916.6563 Q1466.4219,916.6563 1466.2188,916.4531 Q1466.0156,916.2656 1465.9063,915.75 Q1465.8594,915.3906 1465.6719,915.2031 Q1465.3438,914.8281 1464.7344,914.6094 Q1464.125,914.3906 1463.5,914.3906 Q1462.7344,914.3906 1462.1016,914.7188 Q1461.4688,915.0469 1460.9766,915.7969 Q1460.4844,916.5469 1460.4844,917.5781 L1460.4844,918.6719 Q1460.4844,919.9063 1461.375,920.7266 Q1462.2656,921.5469 1463.8594,921.5469 Q1464.7969,921.5469 1465.4531,921.2969 Q1465.8438,921.1406 1466.2656,920.7031 Q1466.5313,920.4375 1466.6797,920.3594 Q1466.8281,920.2813 1467.0313,920.2813 Q1467.3594,920.2813 1467.6172,920.5391 Q1467.875,920.7969 1467.875,921.1406 Q1467.875,921.4844 1467.5313,921.8906 Q1467.0313,922.4688 1466.2344,922.7969 Q1465.1563,923.25 1463.8594,923.25 Q1462.3438,923.25 1461.1406,922.625 Q1460.1563,922.125 1459.4688,921.0547 Q1458.7813,919.9844 1458.7813,918.7031 L1458.7813,917.5469 Q1458.7813,916.2188 1459.3984,915.0703 Q1460.0156,913.9219 1461.1094,913.3047 Q1462.2031,912.6875 1463.4375,912.6875 Q1464.1719,912.6875 1464.8203,912.8516 Q1465.4688,913.0156 1466.0156,913.375 Z "/><text fill="#000000" font-family="sans-serif" font-size="12" lengthAdjust="spacingAndGlyphs" textLength="64" x="1482.75" y="922.4102">Constraints</text><line style="stroke: #A80036; stroke-width: 1.5;" x1="1424.5" x2="1573.5" y1="933.5" y2="933.5"/><line style="stroke: #A80036; stroke-width: 1.5;" x1="1424.5" x2="1573.5" y1="941.5" y2="941.5"/><polygon fill="#4177AF" points="1434.5,949.918,1430.5,955.918,1438.5,955.918" style="stroke: #1963A0; stroke-width: 1.0;"/><text fill="#000000" font-family="sans-serif" font-size="11" lengthAdjust="spacingAndGlyphs" textLength="125" x="1443.5" y="956.9189">Constraints(int, int, int, int)</text><!--class mastermind.views.graphics.GameView--><rect fill="#FEFECE" filter="url(#facqspwvszjjf)" height="186.3594" id="mastermind.views.graphics.GameView" style="stroke: #A80036; stroke-width: 1.5;" width="304" x="1139" y="361"/><ellipse cx="1256.75" cy="377" fill="#ADD1B2" rx="11" ry="11" style="stroke: #A80036; stroke-width: 1.0;"/><path d="M1259.5156,372.875 Q1259.6719,372.6563 1259.8594,372.5469 Q1260.0469,372.4375 1260.2656,372.4375 Q1260.6406,372.4375 1260.875,372.6953 Q1261.1094,372.9531 1261.1094,373.5625 L1261.1094,375.0156 Q1261.1094,375.625 1260.875,375.8906 Q1260.6406,376.1563 1260.2656,376.1563 Q1259.9219,376.1563 1259.7188,375.9531 Q1259.5156,375.7656 1259.4063,375.25 Q1259.3594,374.8906 1259.1719,374.7031 Q1258.8438,374.3281 1258.2344,374.1094 Q1257.625,373.8906 1257,373.8906 Q1256.2344,373.8906 1255.6016,374.2188 Q1254.9688,374.5469 1254.4766,375.2969 Q1253.9844,376.0469 1253.9844,377.0781 L1253.9844,378.1719 Q1253.9844,379.4063 1254.875,380.2266 Q1255.7656,381.0469 1257.3594,381.0469 Q1258.2969,381.0469 1258.9531,380.7969 Q1259.3438,380.6406 1259.7656,380.2031 Q1260.0313,379.9375 1260.1797,379.8594 Q1260.3281,379.7813 1260.5313,379.7813 Q1260.8594,379.7813 1261.1172,380.0391 Q1261.375,380.2969 1261.375,380.6406 Q1261.375,380.9844 1261.0313,381.3906 Q1260.5313,381.9688 1259.7344,382.2969 Q1258.6563,382.75 1257.3594,382.75 Q1255.8438,382.75 1254.6406,382.125 Q1253.6563,381.625 1252.9688,380.5547 Q1252.2813,379.4844 1252.2813,378.2031 L1252.2813,377.0469 Q1252.2813,375.7188 1252.8984,374.5703 Q1253.5156,373.4219 1254.6094,372.8047 Q1255.7031,372.1875 1256.9375,372.1875 Q1257.6719,372.1875 1258.3203,372.3516 Q1258.9688,372.5156 1259.5156,372.875 Z "/><text fill="#000000" font-family="sans-serif" font-size="12" lengthAdjust="spacingAndGlyphs" textLength="60" x="1277.25" y="381.9102">GameView</text><line style="stroke: #A80036; stroke-width: 1.5;" x1="1140" x2="1442" y1="393" y2="393"/><rect fill="none" height="6" style="stroke: #C82930; stroke-width: 1.0;" width="6" x="1147" y="402.418"/><text fill="#000000" font-family="sans-serif" font-size="11" lengthAdjust="spacingAndGlyphs" text-decoration="underline" textLength="99" x="1159" y="408.4189">GAME_OVER: String</text><rect fill="none" height="6" style="stroke: #C82930; stroke-width: 1.0;" width="6" x="1147" y="416.2539"/><text fill="#000000" font-family="sans-serif" font-size="11" lengthAdjust="spacingAndGlyphs" textLength="237" x="1159" y="422.2549">secretCombinationView: SecretCombinationView</text><rect fill="none" height="6" style="stroke: #C82930; stroke-width: 1.0;" width="6" x="1147" y="430.0898"/><text fill="#000000" font-family="sans-serif" font-size="11" lengthAdjust="spacingAndGlyphs" textLength="278" x="1159" y="436.0908">proposedCombinationsView: ProposedCombinationsView</text><rect fill="none" height="6" style="stroke: #C82930; stroke-width: 1.0;" width="6" x="1147" y="443.9258"/><text fill="#000000" font-family="sans-serif" font-size="11" lengthAdjust="spacingAndGlyphs" textLength="258" x="1159" y="449.9268">proposalCombinationView: ProposalCombinationView</text><line style="stroke: #A80036; stroke-width: 1.5;" x1="1140" x2="1442" y1="456.3438" y2="456.3438"/><polygon fill="#4177AF" points="1150,464.7617,1146,470.7617,1154,470.7617" style="stroke: #1963A0; stroke-width: 1.0;"/><text fill="#000000" font-family="sans-serif" font-size="11" lengthAdjust="spacingAndGlyphs" textLength="62" x="1159" y="471.7627">GameView()</text><rect fill="#F24D5C" height="6" style="stroke: #C82930; stroke-width: 1.0;" width="6" x="1147" y="479.5977"/><text fill="#000000" font-family="sans-serif" font-size="11" lengthAdjust="spacingAndGlyphs" textLength="58" x="1159" y="485.5986">clear(): void</text><polygon fill="#4177AF" points="1150,492.4336,1146,498.4336,1154,498.4336" style="stroke: #1963A0; stroke-width: 1.0;"/><text fill="#000000" font-family="sans-serif" font-size="11" lengthAdjust="spacingAndGlyphs" textLength="84" x="1159" y="499.4346">start(Game): void</text><rect fill="#F24D5C" height="6" style="stroke: #C82930; stroke-width: 1.0;" width="6" x="1147" y="507.2695"/><text fill="#000000" font-family="sans-serif" font-size="11" lengthAdjust="spacingAndGlyphs" textLength="174" x="1159" y="513.2705">proposeCombination(int[], Game): int</text><polygon fill="#4177AF" points="1150,520.1055,1146,526.1055,1154,526.1055" style="stroke: #1963A0; stroke-width: 1.0;"/><text fill="#000000" font-family="sans-serif" font-size="11" lengthAdjust="spacingAndGlyphs" textLength="120" x="1159" y="527.1064">propose(Game): boolean</text><rect fill="#F24D5C" height="6" style="stroke: #C82930; stroke-width: 1.0;" width="6" x="1147" y="534.9414"/><text fill="#000000" font-family="sans-serif" font-size="11" lengthAdjust="spacingAndGlyphs" textLength="158" x="1159" y="540.9424">drawGameOver(Game): boolean</text><!--class mastermind.views.graphics.ProposedCombinationsView--><rect fill="#FEFECE" filter="url(#facqspwvszjjf)" height="75.6719" id="mastermind.views.graphics.ProposedCombinationsView" style="stroke: #A80036; stroke-width: 1.5;" width="190" x="972" y="676"/><ellipse cx="987" cy="692" fill="#ADD1B2" rx="11" ry="11" style="stroke: #A80036; stroke-width: 1.0;"/><path d="M989.7656,687.875 Q989.9219,687.6563 990.1094,687.5469 Q990.2969,687.4375 990.5156,687.4375 Q990.8906,687.4375 991.125,687.6953 Q991.3594,687.9531 991.3594,688.5625 L991.3594,690.0156 Q991.3594,690.625 991.125,690.8906 Q990.8906,691.1563 990.5156,691.1563 Q990.1719,691.1563 989.9688,690.9531 Q989.7656,690.7656 989.6563,690.25 Q989.6094,689.8906 989.4219,689.7031 Q989.0938,689.3281 988.4844,689.1094 Q987.875,688.8906 987.25,688.8906 Q986.4844,688.8906 985.8516,689.2188 Q985.2188,689.5469 984.7266,690.2969 Q984.2344,691.0469 984.2344,692.0781 L984.2344,693.1719 Q984.2344,694.4063 985.125,695.2266 Q986.0156,696.0469 987.6094,696.0469 Q988.5469,696.0469 989.2031,695.7969 Q989.5938,695.6406 990.0156,695.2031 Q990.2813,694.9375 990.4297,694.8594 Q990.5781,694.7813 990.7813,694.7813 Q991.1094,694.7813 991.3672,695.0391 Q991.625,695.2969 991.625,695.6406 Q991.625,695.9844 991.2813,696.3906 Q990.7813,696.9688 989.9844,697.2969 Q988.9063,697.75 987.6094,697.75 Q986.0938,697.75 984.8906,697.125 Q983.9063,696.625 983.2188,695.5547 Q982.5313,694.4844 982.5313,693.2031 L982.5313,692.0469 Q982.5313,690.7188 983.1484,689.5703 Q983.7656,688.4219 984.8594,687.8047 Q985.9531,687.1875 987.1875,687.1875 Q987.9219,687.1875 988.5703,687.3516 Q989.2188,687.5156 989.7656,687.875 Z "/><text fill="#000000" font-family="sans-serif" font-size="12" lengthAdjust="spacingAndGlyphs" textLength="158" x="1001" y="696.9102">ProposedCombinationsView</text><line style="stroke: #A80036; stroke-width: 1.5;" x1="973" x2="1161" y1="708" y2="708"/><line style="stroke: #A80036; stroke-width: 1.5;" x1="973" x2="1161" y1="716" y2="716"/><polygon fill="#4177AF" points="983,724.418,979,730.418,987,730.418" style="stroke: #1963A0; stroke-width: 1.0;"/><text fill="#000000" font-family="sans-serif" font-size="11" lengthAdjust="spacingAndGlyphs" textLength="144" x="992" y="731.4189">ProposedCombinationsView()</text><polygon fill="#4177AF" points="983,738.2539,979,744.2539,987,744.2539" style="stroke: #1963A0; stroke-width: 1.0;"/><text fill="#000000" font-family="sans-serif" font-size="11" lengthAdjust="spacingAndGlyphs" textLength="80" x="992" y="745.2549">add(Game): void</text><!--class mastermind.views.graphics.SecretCombinationView--><rect fill="#FEFECE" filter="url(#facqspwvszjjf)" height="103.3438" id="mastermind.views.graphics.SecretCombinationView" style="stroke: #A80036; stroke-width: 1.5;" width="164" x="1234" y="662.5"/><ellipse cx="1249" cy="678.5" fill="#ADD1B2" rx="11" ry="11" style="stroke: #A80036; stroke-width: 1.0;"/><path d="M1251.7656,674.375 Q1251.9219,674.1563 1252.1094,674.0469 Q1252.2969,673.9375 1252.5156,673.9375 Q1252.8906,673.9375 1253.125,674.1953 Q1253.3594,674.4531 1253.3594,675.0625 L1253.3594,676.5156 Q1253.3594,677.125 1253.125,677.3906 Q1252.8906,677.6563 1252.5156,677.6563 Q1252.1719,677.6563 1251.9688,677.4531 Q1251.7656,677.2656 1251.6563,676.75 Q1251.6094,676.3906 1251.4219,676.2031 Q1251.0938,675.8281 1250.4844,675.6094 Q1249.875,675.3906 1249.25,675.3906 Q1248.4844,675.3906 1247.8516,675.7188 Q1247.2188,676.0469 1246.7266,676.7969 Q1246.2344,677.5469 1246.2344,678.5781 L1246.2344,679.6719 Q1246.2344,680.9063 1247.125,681.7266 Q1248.0156,682.5469 1249.6094,682.5469 Q1250.5469,682.5469 1251.2031,682.2969 Q1251.5938,682.1406 1252.0156,681.7031 Q1252.2813,681.4375 1252.4297,681.3594 Q1252.5781,681.2813 1252.7813,681.2813 Q1253.1094,681.2813 1253.3672,681.5391 Q1253.625,681.7969 1253.625,682.1406 Q1253.625,682.4844 1253.2813,682.8906 Q1252.7813,683.4688 1251.9844,683.7969 Q1250.9063,684.25 1249.6094,684.25 Q1248.0938,684.25 1246.8906,683.625 Q1245.9063,683.125 1245.2188,682.0547 Q1244.5313,680.9844 1244.5313,679.7031 L1244.5313,678.5469 Q1244.5313,677.2188 1245.1484,676.0703 Q1245.7656,674.9219 1246.8594,674.3047 Q1247.9531,673.6875 1249.1875,673.6875 Q1249.9219,673.6875 1250.5703,673.8516 Q1251.2188,674.0156 1251.7656,674.375 Z "/><text fill="#000000" font-family="sans-serif" font-size="12" lengthAdjust="spacingAndGlyphs" textLength="132" x="1263" y="683.4102">SecretCombinationView</text><line style="stroke: #A80036; stroke-width: 1.5;" x1="1235" x2="1397" y1="694.5" y2="694.5"/><rect fill="none" height="6" style="stroke: #C82930; stroke-width: 1.0;" width="6" x="1242" y="703.918"/><text fill="#000000" font-family="sans-serif" font-size="11" lengthAdjust="spacingAndGlyphs" text-decoration="underline" textLength="60" x="1254" y="709.9189">TITLE: String</text><rect fill="none" height="6" style="stroke: #C82930; stroke-width: 1.0;" width="6" x="1242" y="717.7539"/><text fill="#000000" font-family="sans-serif" font-size="11" lengthAdjust="spacingAndGlyphs" textLength="53" x="1254" y="723.7549">title: JLabel</text><rect fill="none" height="6" style="stroke: #C82930; stroke-width: 1.0;" width="6" x="1242" y="731.5898"/><text fill="#000000" font-family="sans-serif" font-size="11" lengthAdjust="spacingAndGlyphs" textLength="126" x="1254" y="737.5908">secretCombination: JLabel</text><line style="stroke: #A80036; stroke-width: 1.5;" x1="1235" x2="1397" y1="744.0078" y2="744.0078"/><polygon fill="#4177AF" points="1245,752.4258,1241,758.4258,1249,758.4258" style="stroke: #1963A0; stroke-width: 1.0;"/><text fill="#000000" font-family="sans-serif" font-size="11" lengthAdjust="spacingAndGlyphs" textLength="135" x="1254" y="759.4268">SecretCombinationView(int)</text><!--class mastermind.views.graphics.ProposalCombinationView--><rect fill="#FEFECE" filter="url(#facqspwvszjjf)" height="214.0313" id="mastermind.views.graphics.ProposalCombinationView" style="stroke: #A80036; stroke-width: 1.5;" width="211" x="1433.5" y="607"/><ellipse cx="1462.9" cy="623" fill="#ADD1B2" rx="11" ry="11" style="stroke: #A80036; stroke-width: 1.0;"/><path d="M1465.6656,618.875 Q1465.8219,618.6563 1466.0094,618.5469 Q1466.1969,618.4375 1466.4156,618.4375 Q1466.7906,618.4375 1467.025,618.6953 Q1467.2594,618.9531 1467.2594,619.5625 L1467.2594,621.0156 Q1467.2594,621.625 1467.025,621.8906 Q1466.7906,622.1563 1466.4156,622.1563 Q1466.0719,622.1563 1465.8688,621.9531 Q1465.6656,621.7656 1465.5563,621.25 Q1465.5094,620.8906 1465.3219,620.7031 Q1464.9938,620.3281 1464.3844,620.1094 Q1463.775,619.8906 1463.15,619.8906 Q1462.3844,619.8906 1461.7516,620.2188 Q1461.1188,620.5469 1460.6266,621.2969 Q1460.1344,622.0469 1460.1344,623.0781 L1460.1344,624.1719 Q1460.1344,625.4063 1461.025,626.2266 Q1461.9156,627.0469 1463.5094,627.0469 Q1464.4469,627.0469 1465.1031,626.7969 Q1465.4938,626.6406 1465.9156,626.2031 Q1466.1813,625.9375 1466.3297,625.8594 Q1466.4781,625.7813 1466.6813,625.7813 Q1467.0094,625.7813 1467.2672,626.0391 Q1467.525,626.2969 1467.525,626.6406 Q1467.525,626.9844 1467.1813,627.3906 Q1466.6813,627.9688 1465.8844,628.2969 Q1464.8063,628.75 1463.5094,628.75 Q1461.9938,628.75 1460.7906,628.125 Q1459.8063,627.625 1459.1188,626.5547 Q1458.4313,625.4844 1458.4313,624.2031 L1458.4313,623.0469 Q1458.4313,621.7188 1459.0484,620.5703 Q1459.6656,619.4219 1460.7594,618.8047 Q1461.8531,618.1875 1463.0875,618.1875 Q1463.8219,618.1875 1464.4703,618.3516 Q1465.1188,618.5156 1465.6656,618.875 Z "/><text fill="#000000" font-family="sans-serif" font-size="12" lengthAdjust="spacingAndGlyphs" textLength="147" x="1480.1" y="627.9102">ProposalCombinationView</text><line style="stroke: #A80036; stroke-width: 1.5;" x1="1434.5" x2="1643.5" y1="639" y2="639"/><rect fill="none" height="6" style="stroke: #C82930; stroke-width: 1.0;" width="6" x="1441.5" y="648.418"/><text fill="#000000" font-family="sans-serif" font-size="11" lengthAdjust="spacingAndGlyphs" text-decoration="underline" textLength="74" x="1453.5" y="654.4189">ACCEPT: String</text><rect fill="none" height="6" style="stroke: #C82930; stroke-width: 1.0;" width="6" x="1441.5" y="662.2539"/><text fill="#000000" font-family="sans-serif" font-size="11" lengthAdjust="spacingAndGlyphs" textLength="59" x="1453.5" y="668.2549">label: JLabel</text><rect fill="none" height="6" style="stroke: #C82930; stroke-width: 1.0;" width="6" x="1441.5" y="676.0898"/><text fill="#000000" font-family="sans-serif" font-size="11" lengthAdjust="spacingAndGlyphs" textLength="94" x="1453.5" y="682.0908">textField: JTextField</text><rect fill="none" height="6" style="stroke: #C82930; stroke-width: 1.0;" width="6" x="1441.5" y="689.9258"/><text fill="#000000" font-family="sans-serif" font-size="11" lengthAdjust="spacingAndGlyphs" textLength="72" x="1453.5" y="695.9268">button: JButton</text><rect fill="none" height="6" style="stroke: #C82930; stroke-width: 1.0;" width="6" x="1441.5" y="703.7617"/><text fill="#000000" font-family="sans-serif" font-size="11" lengthAdjust="spacingAndGlyphs" textLength="87" x="1453.5" y="709.7627">characters: String</text><line style="stroke: #A80036; stroke-width: 1.5;" x1="1434.5" x2="1643.5" y1="716.1797" y2="716.1797"/><polygon fill="#4177AF" points="1444.5,724.5977,1440.5,730.5977,1448.5,730.5977" style="stroke: #1963A0; stroke-width: 1.0;"/><text fill="#000000" font-family="sans-serif" font-size="11" lengthAdjust="spacingAndGlyphs" textLength="185" x="1453.5" y="731.5986">ProposalCombinationView(JRootPane)</text><ellipse cx="1444.5" cy="742.4336" fill="#84BE84" rx="3" ry="3" style="stroke: #038048; stroke-width: 1.0;"/><text fill="#000000" font-family="sans-serif" font-size="11" lengthAdjust="spacingAndGlyphs" textLength="171" x="1453.5" y="745.4346">actionPerformed(ActionEvent): void</text><polygon fill="#4177AF" points="1444.5,752.2695,1440.5,758.2695,1448.5,758.2695" style="stroke: #1963A0; stroke-width: 1.0;"/><text fill="#000000" font-family="sans-serif" font-size="11" lengthAdjust="spacingAndGlyphs" textLength="111" x="1453.5" y="759.2705">getCharacters(): String</text><polygon fill="#4177AF" points="1444.5,766.1055,1440.5,772.1055,1448.5,772.1055" style="stroke: #1963A0; stroke-width: 1.0;"/><text fill="#000000" font-family="sans-serif" font-size="11" lengthAdjust="spacingAndGlyphs" textLength="113" x="1453.5" y="773.1064">resetCharacters(): void</text><ellipse cx="1444.5" cy="783.9414" fill="#84BE84" rx="3" ry="3" style="stroke: #038048; stroke-width: 1.0;"/><text fill="#000000" font-family="sans-serif" font-size="11" lengthAdjust="spacingAndGlyphs" textLength="137" x="1453.5" y="786.9424">keyPressed(KeyEvent): void</text><ellipse cx="1444.5" cy="797.7773" fill="#84BE84" rx="3" ry="3" style="stroke: #038048; stroke-width: 1.0;"/><text fill="#000000" font-family="sans-serif" font-size="11" lengthAdjust="spacingAndGlyphs" textLength="142" x="1453.5" y="800.7783">keyReleased(KeyEvent): void</text><ellipse cx="1444.5" cy="811.6133" fill="#84BE84" rx="3" ry="3" style="stroke: #038048; stroke-width: 1.0;"/><text fill="#000000" font-family="sans-serif" font-size="11" lengthAdjust="spacingAndGlyphs" textLength="127" x="1453.5" y="814.6143">keyTyped(KeyEvent): void</text><!--class mastermind.views.graphics.GraphicsView--><rect fill="#FEFECE" filter="url(#facqspwvszjjf)" height="117.1797" id="mastermind.views.graphics.GraphicsView" style="stroke: #A80036; stroke-width: 1.5;" width="138" x="969" y="184"/><ellipse cx="997.5" cy="200" fill="#ADD1B2" rx="11" ry="11" style="stroke: #A80036; stroke-width: 1.0;"/><path d="M1000.2656,195.875 Q1000.4219,195.6563 1000.6094,195.5469 Q1000.7969,195.4375 1001.0156,195.4375 Q1001.3906,195.4375 1001.625,195.6953 Q1001.8594,195.9531 1001.8594,196.5625 L1001.8594,198.0156 Q1001.8594,198.625 1001.625,198.8906 Q1001.3906,199.1563 1001.0156,199.1563 Q1000.6719,199.1563 1000.4688,198.9531 Q1000.2656,198.7656 1000.1563,198.25 Q1000.1094,197.8906 999.9219,197.7031 Q999.5938,197.3281 998.9844,197.1094 Q998.375,196.8906 997.75,196.8906 Q996.9844,196.8906 996.3516,197.2188 Q995.7188,197.5469 995.2266,198.2969 Q994.7344,199.0469 994.7344,200.0781 L994.7344,201.1719 Q994.7344,202.4063 995.625,203.2266 Q996.5156,204.0469 998.1094,204.0469 Q999.0469,204.0469 999.7031,203.7969 Q1000.0938,203.6406 1000.5156,203.2031 Q1000.7813,202.9375 1000.9297,202.8594 Q1001.0781,202.7813 1001.2813,202.7813 Q1001.6094,202.7813 1001.8672,203.0391 Q1002.125,203.2969 1002.125,203.6406 Q1002.125,203.9844 1001.7813,204.3906 Q1001.2813,204.9688 1000.4844,205.2969 Q999.4063,205.75 998.1094,205.75 Q996.5938,205.75 995.3906,205.125 Q994.4063,204.625 993.7188,203.5547 Q993.0313,202.4844 993.0313,201.2031 L993.0313,200.0469 Q993.0313,198.7188 993.6484,197.5703 Q994.2656,196.4219 995.3594,195.8047 Q996.4531,195.1875 997.6875,195.1875 Q998.4219,195.1875 999.0703,195.3516 Q999.7188,195.5156 1000.2656,195.875 Z "/><text fill="#000000" font-family="sans-serif" font-size="12" lengthAdjust="spacingAndGlyphs" textLength="76" x="1014.5" y="204.9102">GraphicsView</text><line style="stroke: #A80036; stroke-width: 1.5;" x1="970" x2="1106" y1="216" y2="216"/><rect fill="none" height="6" style="stroke: #C82930; stroke-width: 1.0;" width="6" x="977" y="225.418"/><text fill="#000000" font-family="sans-serif" font-size="11" lengthAdjust="spacingAndGlyphs" textLength="112" x="989" y="231.4189">gameView: GameView</text><line style="stroke: #A80036; stroke-width: 1.5;" x1="970" x2="1106" y1="237.8359" y2="237.8359"/><ellipse cx="980" cy="250.2539" fill="#84BE84" rx="3" ry="3" style="stroke: #038048; stroke-width: 1.0;"/><text fill="#000000" font-family="sans-serif" font-size="11" lengthAdjust="spacingAndGlyphs" textLength="106" x="989" y="253.2549">GraphicsView(Game)</text><polygon fill="#FFFF44" points="980,259.0898,984,263.0898,980,267.0898,976,263.0898" style="stroke: #B38D22; stroke-width: 1.0;"/><text fill="#000000" font-family="sans-serif" font-size="11" lengthAdjust="spacingAndGlyphs" textLength="56" x="989" y="267.0908">start(): void</text><polygon fill="#FFFF44" points="980,272.9258,984,276.9258,980,280.9258,976,276.9258" style="stroke: #B38D22; stroke-width: 1.0;"/><text fill="#000000" font-family="sans-serif" font-size="11" lengthAdjust="spacingAndGlyphs" textLength="88" x="989" y="280.9268">resume(): boolean</text><polygon fill="#FFFF44" points="980,286.7617,984,290.7617,980,294.7617,976,290.7617" style="stroke: #B38D22; stroke-width: 1.0;"/><text fill="#000000" font-family="sans-serif" font-size="11" lengthAdjust="spacingAndGlyphs" textLength="92" x="989" y="294.7627">propose(): boolean</text><!--class mastermind.views.graphics.ResumeDialog--><rect fill="#FEFECE" filter="url(#facqspwvszjjf)" height="89.5078" id="mastermind.views.graphics.ResumeDialog" style="stroke: #A80036; stroke-width: 1.5;" width="131" x="972.5" y="409"/><ellipse cx="994.25" cy="425" fill="#ADD1B2" rx="11" ry="11" style="stroke: #A80036; stroke-width: 1.0;"/><path d="M997.0156,420.875 Q997.1719,420.6563 997.3594,420.5469 Q997.5469,420.4375 997.7656,420.4375 Q998.1406,420.4375 998.375,420.6953 Q998.6094,420.9531 998.6094,421.5625 L998.6094,423.0156 Q998.6094,423.625 998.375,423.8906 Q998.1406,424.1563 997.7656,424.1563 Q997.4219,424.1563 997.2188,423.9531 Q997.0156,423.7656 996.9063,423.25 Q996.8594,422.8906 996.6719,422.7031 Q996.3438,422.3281 995.7344,422.1094 Q995.125,421.8906 994.5,421.8906 Q993.7344,421.8906 993.1016,422.2188 Q992.4688,422.5469 991.9766,423.2969 Q991.4844,424.0469 991.4844,425.0781 L991.4844,426.1719 Q991.4844,427.4063 992.375,428.2266 Q993.2656,429.0469 994.8594,429.0469 Q995.7969,429.0469 996.4531,428.7969 Q996.8438,428.6406 997.2656,428.2031 Q997.5313,427.9375 997.6797,427.8594 Q997.8281,427.7813 998.0313,427.7813 Q998.3594,427.7813 998.6172,428.0391 Q998.875,428.2969 998.875,428.6406 Q998.875,428.9844 998.5313,429.3906 Q998.0313,429.9688 997.2344,430.2969 Q996.1563,430.75 994.8594,430.75 Q993.3438,430.75 992.1406,430.125 Q991.1563,429.625 990.4688,428.5547 Q989.7813,427.4844 989.7813,426.2031 L989.7813,425.0469 Q989.7813,423.7188 990.3984,422.5703 Q991.0156,421.4219 992.1094,420.8047 Q993.2031,420.1875 994.4375,420.1875 Q995.1719,420.1875 995.8203,420.3516 Q996.4688,420.5156 997.0156,420.875 Z "/><text fill="#000000" font-family="sans-serif" font-size="12" lengthAdjust="spacingAndGlyphs" textLength="84" x="1009.75" y="429.9102">ResumeDialog</text><line style="stroke: #A80036; stroke-width: 1.5;" x1="973.5" x2="1102.5" y1="441" y2="441"/><rect fill="none" height="6" style="stroke: #C82930; stroke-width: 1.0;" width="6" x="980.5" y="450.418"/><text fill="#000000" font-family="sans-serif" font-size="11" lengthAdjust="spacingAndGlyphs" textLength="80" x="992.5" y="456.4189">resume: boolean</text><line style="stroke: #A80036; stroke-width: 1.5;" x1="973.5" x2="1102.5" y1="462.8359" y2="462.8359"/><polygon fill="#4177AF" points="983.5,471.2539,979.5,477.2539,987.5,477.2539" style="stroke: #1963A0; stroke-width: 1.0;"/><text fill="#000000" font-family="sans-serif" font-size="11" lengthAdjust="spacingAndGlyphs" textLength="76" x="992.5" y="478.2549">ResumeDialog()</text><polygon fill="#4177AF" points="983.5,485.0898,979.5,491.0898,987.5,491.0898" style="stroke: #1963A0; stroke-width: 1.0;"/><text fill="#000000" font-family="sans-serif" font-size="11" lengthAdjust="spacingAndGlyphs" textLength="105" x="992.5" y="492.0908">isResumed(): boolean</text><!--class mastermind.views.graphics.ProposedCombinationView--><rect fill="#FEFECE" filter="url(#facqspwvszjjf)" height="103.3438" id="mastermind.views.graphics.ProposedCombinationView" style="stroke: #A80036; stroke-width: 1.5;" width="183" x="935.5" y="881"/><ellipse cx="950.5" cy="897" fill="#ADD1B2" rx="11" ry="11" style="stroke: #A80036; stroke-width: 1.0;"/><path d="M953.2656,892.875 Q953.4219,892.6563 953.6094,892.5469 Q953.7969,892.4375 954.0156,892.4375 Q954.3906,892.4375 954.625,892.6953 Q954.8594,892.9531 954.8594,893.5625 L954.8594,895.0156 Q954.8594,895.625 954.625,895.8906 Q954.3906,896.1563 954.0156,896.1563 Q953.6719,896.1563 953.4688,895.9531 Q953.2656,895.7656 953.1563,895.25 Q953.1094,894.8906 952.9219,894.7031 Q952.5938,894.3281 951.9844,894.1094 Q951.375,893.8906 950.75,893.8906 Q949.9844,893.8906 949.3516,894.2188 Q948.7188,894.5469 948.2266,895.2969 Q947.7344,896.0469 947.7344,897.0781 L947.7344,898.1719 Q947.7344,899.4063 948.625,900.2266 Q949.5156,901.0469 951.1094,901.0469 Q952.0469,901.0469 952.7031,900.7969 Q953.0938,900.6406 953.5156,900.2031 Q953.7813,899.9375 953.9297,899.8594 Q954.0781,899.7813 954.2813,899.7813 Q954.6094,899.7813 954.8672,900.0391 Q955.125,900.2969 955.125,900.6406 Q955.125,900.9844 954.7813,901.3906 Q954.2813,901.9688 953.4844,902.2969 Q952.4063,902.75 951.1094,902.75 Q949.5938,902.75 948.3906,902.125 Q947.4063,901.625 946.7188,900.5547 Q946.0313,899.4844 946.0313,898.2031 L946.0313,897.0469 Q946.0313,895.7188 946.6484,894.5703 Q947.2656,893.4219 948.3594,892.8047 Q949.4531,892.1875 950.6875,892.1875 Q951.4219,892.1875 952.0703,892.3516 Q952.7188,892.5156 953.2656,892.875 Z "/><text fill="#000000" font-family="sans-serif" font-size="12" lengthAdjust="spacingAndGlyphs" textLength="151" x="964.5" y="901.9102">ProposedCombinationView</text><line style="stroke: #A80036; stroke-width: 1.5;" x1="936.5" x2="1117.5" y1="913" y2="913"/><polygon fill="none" points="946.5,921.418,942.5,927.418,950.5,927.418" style="stroke: #1963A0; stroke-width: 1.0;"/><text fill="#000000" font-family="sans-serif" font-size="11" lengthAdjust="spacingAndGlyphs" text-decoration="underline" textLength="86" x="955.5" y="928.4189">ERROR_CODE: int</text><line style="stroke: #A80036; stroke-width: 1.5;" x1="936.5" x2="1117.5" y1="934.8359" y2="934.8359"/><polygon fill="#4177AF" points="946.5,943.2539,942.5,949.2539,950.5,949.2539" style="stroke: #1963A0; stroke-width: 1.0;"/><text fill="#000000" font-family="sans-serif" font-size="11" lengthAdjust="spacingAndGlyphs" textLength="155" x="955.5" y="950.2549">ProposedCombinationView(int[])</text><polygon fill="#4177AF" points="946.5,957.0898,942.5,963.0898,950.5,963.0898" style="stroke: #1963A0; stroke-width: 1.0;"/><text fill="#000000" font-family="sans-serif" font-size="11" lengthAdjust="spacingAndGlyphs" textLength="138" x="955.5" y="964.0908">ProposedCombinationView()</text><polygon fill="#4177AF" points="946.5,970.9258,942.5,976.9258,950.5,976.9258" style="stroke: #1963A0; stroke-width: 1.0;"/><text fill="#000000" font-family="sans-serif" font-size="11" lengthAdjust="spacingAndGlyphs" textLength="81" x="955.5" y="977.9268">read(String): int[]</text><!--class mastermind.views.graphics.ResultView--><rect fill="#FEFECE" filter="url(#facqspwvszjjf)" height="61.8359" id="mastermind.views.graphics.ResultView" style="stroke: #A80036; stroke-width: 1.5;" width="107" x="1153.5" y="901.5"/><ellipse cx="1174.35" cy="917.5" fill="#ADD1B2" rx="11" ry="11" style="stroke: #A80036; stroke-width: 1.0;"/><path d="M1177.1156,913.375 Q1177.2719,913.1563 1177.4594,913.0469 Q1177.6469,912.9375 1177.8656,912.9375 Q1178.2406,912.9375 1178.475,913.1953 Q1178.7094,913.4531 1178.7094,914.0625 L1178.7094,915.5156 Q1178.7094,916.125 1178.475,916.3906 Q1178.2406,916.6563 1177.8656,916.6563 Q1177.5219,916.6563 1177.3188,916.4531 Q1177.1156,916.2656 1177.0063,915.75 Q1176.9594,915.3906 1176.7719,915.2031 Q1176.4438,914.8281 1175.8344,914.6094 Q1175.225,914.3906 1174.6,914.3906 Q1173.8344,914.3906 1173.2016,914.7188 Q1172.5688,915.0469 1172.0766,915.7969 Q1171.5844,916.5469 1171.5844,917.5781 L1171.5844,918.6719 Q1171.5844,919.9063 1172.475,920.7266 Q1173.3656,921.5469 1174.9594,921.5469 Q1175.8969,921.5469 1176.5531,921.2969 Q1176.9438,921.1406 1177.3656,920.7031 Q1177.6313,920.4375 1177.7797,920.3594 Q1177.9281,920.2813 1178.1313,920.2813 Q1178.4594,920.2813 1178.7172,920.5391 Q1178.975,920.7969 1178.975,921.1406 Q1178.975,921.4844 1178.6313,921.8906 Q1178.1313,922.4688 1177.3344,922.7969 Q1176.2563,923.25 1174.9594,923.25 Q1173.4438,923.25 1172.2406,922.625 Q1171.2563,922.125 1170.5688,921.0547 Q1169.8813,919.9844 1169.8813,918.7031 L1169.8813,917.5469 Q1169.8813,916.2188 1170.4984,915.0703 Q1171.1156,913.9219 1172.2094,913.3047 Q1173.3031,912.6875 1174.5375,912.6875 Q1175.2719,912.6875 1175.9203,912.8516 Q1176.5688,913.0156 1177.1156,913.375 Z "/><text fill="#000000" font-family="sans-serif" font-size="12" lengthAdjust="spacingAndGlyphs" textLength="62" x="1189.65" y="922.4102">ResultView</text><line style="stroke: #A80036; stroke-width: 1.5;" x1="1154.5" x2="1259.5" y1="933.5" y2="933.5"/><line style="stroke: #A80036; stroke-width: 1.5;" x1="1154.5" x2="1259.5" y1="941.5" y2="941.5"/><polygon fill="#4177AF" points="1164.5,949.918,1160.5,955.918,1168.5,955.918" style="stroke: #1963A0; stroke-width: 1.0;"/><text fill="#000000" font-family="sans-serif" font-size="11" lengthAdjust="spacingAndGlyphs" textLength="81" x="1173.5" y="956.9189">ResultView(int[])</text><!--class mastermind.views.graphics.TurnView--><rect fill="#FEFECE" filter="url(#facqspwvszjjf)" height="61.8359" id="mastermind.views.graphics.TurnView" style="stroke: #A80036; stroke-width: 1.5;" width="93" x="1295.5" y="901.5"/><ellipse cx="1315" cy="917.5" fill="#ADD1B2" rx="11" ry="11" style="stroke: #A80036; stroke-width: 1.0;"/><path d="M1317.7656,913.375 Q1317.9219,913.1563 1318.1094,913.0469 Q1318.2969,912.9375 1318.5156,912.9375 Q1318.8906,912.9375 1319.125,913.1953 Q1319.3594,913.4531 1319.3594,914.0625 L1319.3594,915.5156 Q1319.3594,916.125 1319.125,916.3906 Q1318.8906,916.6563 1318.5156,916.6563 Q1318.1719,916.6563 1317.9688,916.4531 Q1317.7656,916.2656 1317.6563,915.75 Q1317.6094,915.3906 1317.4219,915.2031 Q1317.0938,914.8281 1316.4844,914.6094 Q1315.875,914.3906 1315.25,914.3906 Q1314.4844,914.3906 1313.8516,914.7188 Q1313.2188,915.0469 1312.7266,915.7969 Q1312.2344,916.5469 1312.2344,917.5781 L1312.2344,918.6719 Q1312.2344,919.9063 1313.125,920.7266 Q1314.0156,921.5469 1315.6094,921.5469 Q1316.5469,921.5469 1317.2031,921.2969 Q1317.5938,921.1406 1318.0156,920.7031 Q1318.2813,920.4375 1318.4297,920.3594 Q1318.5781,920.2813 1318.7813,920.2813 Q1319.1094,920.2813 1319.3672,920.5391 Q1319.625,920.7969 1319.625,921.1406 Q1319.625,921.4844 1319.2813,921.8906 Q1318.7813,922.4688 1317.9844,922.7969 Q1316.9063,923.25 1315.6094,923.25 Q1314.0938,923.25 1312.8906,922.625 Q1311.9063,922.125 1311.2188,921.0547 Q1310.5313,919.9844 1310.5313,918.7031 L1310.5313,917.5469 Q1310.5313,916.2188 1311.1484,915.0703 Q1311.7656,913.9219 1312.8594,913.3047 Q1313.9531,912.6875 1315.1875,912.6875 Q1315.9219,912.6875 1316.5703,912.8516 Q1317.2188,913.0156 1317.7656,913.375 Z "/><text fill="#000000" font-family="sans-serif" font-size="12" lengthAdjust="spacingAndGlyphs" textLength="51" x="1330" y="922.4102">TurnView</text><line style="stroke: #A80036; stroke-width: 1.5;" x1="1296.5" x2="1387.5" y1="933.5" y2="933.5"/><line style="stroke: #A80036; stroke-width: 1.5;" x1="1296.5" x2="1387.5" y1="941.5" y2="941.5"/><polygon fill="#4177AF" points="1306.5,949.918,1302.5,955.918,1310.5,955.918" style="stroke: #1963A0; stroke-width: 1.0;"/><text fill="#000000" font-family="sans-serif" font-size="11" lengthAdjust="spacingAndGlyphs" textLength="67" x="1315.5" y="956.9189">TurnView(int)</text><!--class java.awt.GridBagConstraints--><rect fill="#FEFECE" filter="url(#facqspwvszjjf)" height="48" id="java.awt.GridBagConstraints" style="stroke: #A80036; stroke-width: 1.5;" width="141" x="737.5" y="690"/><ellipse cx="752.5" cy="706" fill="#ADD1B2" rx="11" ry="11" style="stroke: #A80036; stroke-width: 1.0;"/><path d="M755.2656,701.875 Q755.4219,701.6563 755.6094,701.5469 Q755.7969,701.4375 756.0156,701.4375 Q756.3906,701.4375 756.625,701.6953 Q756.8594,701.9531 756.8594,702.5625 L756.8594,704.0156 Q756.8594,704.625 756.625,704.8906 Q756.3906,705.1563 756.0156,705.1563 Q755.6719,705.1563 755.4688,704.9531 Q755.2656,704.7656 755.1563,704.25 Q755.1094,703.8906 754.9219,703.7031 Q754.5938,703.3281 753.9844,703.1094 Q753.375,702.8906 752.75,702.8906 Q751.9844,702.8906 751.3516,703.2188 Q750.7188,703.5469 750.2266,704.2969 Q749.7344,705.0469 749.7344,706.0781 L749.7344,707.1719 Q749.7344,708.4063 750.625,709.2266 Q751.5156,710.0469 753.1094,710.0469 Q754.0469,710.0469 754.7031,709.7969 Q755.0938,709.6406 755.5156,709.2031 Q755.7813,708.9375 755.9297,708.8594 Q756.0781,708.7813 756.2813,708.7813 Q756.6094,708.7813 756.8672,709.0391 Q757.125,709.2969 757.125,709.6406 Q757.125,709.9844 756.7813,710.3906 Q756.2813,710.9688 755.4844,711.2969 Q754.4063,711.75 753.1094,711.75 Q751.5938,711.75 750.3906,711.125 Q749.4063,710.625 748.7188,709.5547 Q748.0313,708.4844 748.0313,707.2031 L748.0313,706.0469 Q748.0313,704.7188 748.6484,703.5703 Q749.2656,702.4219 750.3594,701.8047 Q751.4531,701.1875 752.6875,701.1875 Q753.4219,701.1875 754.0703,701.3516 Q754.7188,701.5156 755.2656,701.875 Z "/><text fill="#000000" font-family="sans-serif" font-size="12" lengthAdjust="spacingAndGlyphs" textLength="109" x="766.5" y="710.9102">GridBagConstraints</text><line style="stroke: #A80036; stroke-width: 1.5;" x1="738.5" x2="877.5" y1="722" y2="722"/><line style="stroke: #A80036; stroke-width: 1.5;" x1="738.5" x2="877.5" y1="730" y2="730"/><!--class javax.swing.JFrame--><rect fill="#FEFECE" filter="url(#facqspwvszjjf)" height="48" id="javax.swing.JFrame" style="stroke: #A80036; stroke-width: 1.5;" width="74" x="248" y="690"/><ellipse cx="263" cy="706" fill="#ADD1B2" rx="11" ry="11" style="stroke: #A80036; stroke-width: 1.0;"/><path d="M265.7656,701.875 Q265.9219,701.6563 266.1094,701.5469 Q266.2969,701.4375 266.5156,701.4375 Q266.8906,701.4375 267.125,701.6953 Q267.3594,701.9531 267.3594,702.5625 L267.3594,704.0156 Q267.3594,704.625 267.125,704.8906 Q266.8906,705.1563 266.5156,705.1563 Q266.1719,705.1563 265.9688,704.9531 Q265.7656,704.7656 265.6563,704.25 Q265.6094,703.8906 265.4219,703.7031 Q265.0938,703.3281 264.4844,703.1094 Q263.875,702.8906 263.25,702.8906 Q262.4844,702.8906 261.8516,703.2188 Q261.2188,703.5469 260.7266,704.2969 Q260.2344,705.0469 260.2344,706.0781 L260.2344,707.1719 Q260.2344,708.4063 261.125,709.2266 Q262.0156,710.0469 263.6094,710.0469 Q264.5469,710.0469 265.2031,709.7969 Q265.5938,709.6406 266.0156,709.2031 Q266.2813,708.9375 266.4297,708.8594 Q266.5781,708.7813 266.7813,708.7813 Q267.1094,708.7813 267.3672,709.0391 Q267.625,709.2969 267.625,709.6406 Q267.625,709.9844 267.2813,710.3906 Q266.7813,710.9688 265.9844,711.2969 Q264.9063,711.75 263.6094,711.75 Q262.0938,711.75 260.8906,711.125 Q259.9063,710.625 259.2188,709.5547 Q258.5313,708.4844 258.5313,707.2031 L258.5313,706.0469 Q258.5313,704.7188 259.1484,703.5703 Q259.7656,702.4219 260.8594,701.8047 Q261.9531,701.1875 263.1875,701.1875 Q263.9219,701.1875 264.5703,701.3516 Q265.2188,701.5156 265.7656,701.875 Z "/><text fill="#000000" font-family="sans-serif" font-size="12" lengthAdjust="spacingAndGlyphs" textLength="42" x="277" y="710.9102">JFrame</text><line style="stroke: #A80036; stroke-width: 1.5;" x1="249" x2="321" y1="722" y2="722"/><line style="stroke: #A80036; stroke-width: 1.5;" x1="249" x2="321" y1="730" y2="730"/><!--class javax.swing.JPanel--><rect fill="#FEFECE" filter="url(#facqspwvszjjf)" height="48" id="javax.swing.JPanel" style="stroke: #A80036; stroke-width: 1.5;" width="70" x="143" y="690"/><ellipse cx="158" cy="706" fill="#ADD1B2" rx="11" ry="11" style="stroke: #A80036; stroke-width: 1.0;"/><path d="M160.7656,701.875 Q160.9219,701.6563 161.1094,701.5469 Q161.2969,701.4375 161.5156,701.4375 Q161.8906,701.4375 162.125,701.6953 Q162.3594,701.9531 162.3594,702.5625 L162.3594,704.0156 Q162.3594,704.625 162.125,704.8906 Q161.8906,705.1563 161.5156,705.1563 Q161.1719,705.1563 160.9688,704.9531 Q160.7656,704.7656 160.6563,704.25 Q160.6094,703.8906 160.4219,703.7031 Q160.0938,703.3281 159.4844,703.1094 Q158.875,702.8906 158.25,702.8906 Q157.4844,702.8906 156.8516,703.2188 Q156.2188,703.5469 155.7266,704.2969 Q155.2344,705.0469 155.2344,706.0781 L155.2344,707.1719 Q155.2344,708.4063 156.125,709.2266 Q157.0156,710.0469 158.6094,710.0469 Q159.5469,710.0469 160.2031,709.7969 Q160.5938,709.6406 161.0156,709.2031 Q161.2813,708.9375 161.4297,708.8594 Q161.5781,708.7813 161.7813,708.7813 Q162.1094,708.7813 162.3672,709.0391 Q162.625,709.2969 162.625,709.6406 Q162.625,709.9844 162.2813,710.3906 Q161.7813,710.9688 160.9844,711.2969 Q159.9063,711.75 158.6094,711.75 Q157.0938,711.75 155.8906,711.125 Q154.9063,710.625 154.2188,709.5547 Q153.5313,708.4844 153.5313,707.2031 L153.5313,706.0469 Q153.5313,704.7188 154.1484,703.5703 Q154.7656,702.4219 155.8594,701.8047 Q156.9531,701.1875 158.1875,701.1875 Q158.9219,701.1875 159.5703,701.3516 Q160.2188,701.5156 160.7656,701.875 Z "/><text fill="#000000" font-family="sans-serif" font-size="12" lengthAdjust="spacingAndGlyphs" textLength="38" x="172" y="710.9102">JPanel</text><line style="stroke: #A80036; stroke-width: 1.5;" x1="144" x2="212" y1="722" y2="722"/><line style="stroke: #A80036; stroke-width: 1.5;" x1="144" x2="212" y1="730" y2="730"/><!--class javax.swing.JButton--><rect fill="#FEFECE" filter="url(#facqspwvszjjf)" height="48" id="javax.swing.JButton" style="stroke: #A80036; stroke-width: 1.5;" width="73" x="357.5" y="690"/><ellipse cx="372.5" cy="706" fill="#ADD1B2" rx="11" ry="11" style="stroke: #A80036; stroke-width: 1.0;"/><path d="M375.2656,701.875 Q375.4219,701.6563 375.6094,701.5469 Q375.7969,701.4375 376.0156,701.4375 Q376.3906,701.4375 376.625,701.6953 Q376.8594,701.9531 376.8594,702.5625 L376.8594,704.0156 Q376.8594,704.625 376.625,704.8906 Q376.3906,705.1563 376.0156,705.1563 Q375.6719,705.1563 375.4688,704.9531 Q375.2656,704.7656 375.1563,704.25 Q375.1094,703.8906 374.9219,703.7031 Q374.5938,703.3281 373.9844,703.1094 Q373.375,702.8906 372.75,702.8906 Q371.9844,702.8906 371.3516,703.2188 Q370.7188,703.5469 370.2266,704.2969 Q369.7344,705.0469 369.7344,706.0781 L369.7344,707.1719 Q369.7344,708.4063 370.625,709.2266 Q371.5156,710.0469 373.1094,710.0469 Q374.0469,710.0469 374.7031,709.7969 Q375.0938,709.6406 375.5156,709.2031 Q375.7813,708.9375 375.9297,708.8594 Q376.0781,708.7813 376.2813,708.7813 Q376.6094,708.7813 376.8672,709.0391 Q377.125,709.2969 377.125,709.6406 Q377.125,709.9844 376.7813,710.3906 Q376.2813,710.9688 375.4844,711.2969 Q374.4063,711.75 373.1094,711.75 Q371.5938,711.75 370.3906,711.125 Q369.4063,710.625 368.7188,709.5547 Q368.0313,708.4844 368.0313,707.2031 L368.0313,706.0469 Q368.0313,704.7188 368.6484,703.5703 Q369.2656,702.4219 370.3594,701.8047 Q371.4531,701.1875 372.6875,701.1875 Q373.4219,701.1875 374.0703,701.3516 Q374.7188,701.5156 375.2656,701.875 Z "/><text fill="#000000" font-family="sans-serif" font-size="12" lengthAdjust="spacingAndGlyphs" textLength="41" x="386.5" y="710.9102">JButton</text><line style="stroke: #A80036; stroke-width: 1.5;" x1="358.5" x2="429.5" y1="722" y2="722"/><line style="stroke: #A80036; stroke-width: 1.5;" x1="358.5" x2="429.5" y1="730" y2="730"/><!--class javax.swing.JTextField--><rect fill="#FEFECE" filter="url(#facqspwvszjjf)" height="48" id="javax.swing.JTextField" style="stroke: #A80036; stroke-width: 1.5;" width="87" x="593.5" y="690"/><ellipse cx="608.5" cy="706" fill="#ADD1B2" rx="11" ry="11" style="stroke: #A80036; stroke-width: 1.0;"/><path d="M611.2656,701.875 Q611.4219,701.6563 611.6094,701.5469 Q611.7969,701.4375 612.0156,701.4375 Q612.3906,701.4375 612.625,701.6953 Q612.8594,701.9531 612.8594,702.5625 L612.8594,704.0156 Q612.8594,704.625 612.625,704.8906 Q612.3906,705.1563 612.0156,705.1563 Q611.6719,705.1563 611.4688,704.9531 Q611.2656,704.7656 611.1563,704.25 Q611.1094,703.8906 610.9219,703.7031 Q610.5938,703.3281 609.9844,703.1094 Q609.375,702.8906 608.75,702.8906 Q607.9844,702.8906 607.3516,703.2188 Q606.7188,703.5469 606.2266,704.2969 Q605.7344,705.0469 605.7344,706.0781 L605.7344,707.1719 Q605.7344,708.4063 606.625,709.2266 Q607.5156,710.0469 609.1094,710.0469 Q610.0469,710.0469 610.7031,709.7969 Q611.0938,709.6406 611.5156,709.2031 Q611.7813,708.9375 611.9297,708.8594 Q612.0781,708.7813 612.2813,708.7813 Q612.6094,708.7813 612.8672,709.0391 Q613.125,709.2969 613.125,709.6406 Q613.125,709.9844 612.7813,710.3906 Q612.2813,710.9688 611.4844,711.2969 Q610.4063,711.75 609.1094,711.75 Q607.5938,711.75 606.3906,711.125 Q605.4063,710.625 604.7188,709.5547 Q604.0313,708.4844 604.0313,707.2031 L604.0313,706.0469 Q604.0313,704.7188 604.6484,703.5703 Q605.2656,702.4219 606.3594,701.8047 Q607.4531,701.1875 608.6875,701.1875 Q609.4219,701.1875 610.0703,701.3516 Q610.7188,701.5156 611.2656,701.875 Z "/><text fill="#000000" font-family="sans-serif" font-size="12" lengthAdjust="spacingAndGlyphs" textLength="55" x="622.5" y="710.9102">JTextField</text><line style="stroke: #A80036; stroke-width: 1.5;" x1="594.5" x2="679.5" y1="722" y2="722"/><line style="stroke: #A80036; stroke-width: 1.5;" x1="594.5" x2="679.5" y1="730" y2="730"/><!--class javax.swing.JLabel--><rect fill="#FEFECE" filter="url(#facqspwvszjjf)" height="48" id="javax.swing.JLabel" style="stroke: #A80036; stroke-width: 1.5;" width="69" x="38.5" y="690"/><ellipse cx="53.5" cy="706" fill="#ADD1B2" rx="11" ry="11" style="stroke: #A80036; stroke-width: 1.0;"/><path d="M56.2656,701.875 Q56.4219,701.6563 56.6094,701.5469 Q56.7969,701.4375 57.0156,701.4375 Q57.3906,701.4375 57.625,701.6953 Q57.8594,701.9531 57.8594,702.5625 L57.8594,704.0156 Q57.8594,704.625 57.625,704.8906 Q57.3906,705.1563 57.0156,705.1563 Q56.6719,705.1563 56.4688,704.9531 Q56.2656,704.7656 56.1563,704.25 Q56.1094,703.8906 55.9219,703.7031 Q55.5938,703.3281 54.9844,703.1094 Q54.375,702.8906 53.75,702.8906 Q52.9844,702.8906 52.3516,703.2188 Q51.7188,703.5469 51.2266,704.2969 Q50.7344,705.0469 50.7344,706.0781 L50.7344,707.1719 Q50.7344,708.4063 51.625,709.2266 Q52.5156,710.0469 54.1094,710.0469 Q55.0469,710.0469 55.7031,709.7969 Q56.0938,709.6406 56.5156,709.2031 Q56.7813,708.9375 56.9297,708.8594 Q57.0781,708.7813 57.2813,708.7813 Q57.6094,708.7813 57.8672,709.0391 Q58.125,709.2969 58.125,709.6406 Q58.125,709.9844 57.7813,710.3906 Q57.2813,710.9688 56.4844,711.2969 Q55.4063,711.75 54.1094,711.75 Q52.5938,711.75 51.3906,711.125 Q50.4063,710.625 49.7188,709.5547 Q49.0313,708.4844 49.0313,707.2031 L49.0313,706.0469 Q49.0313,704.7188 49.6484,703.5703 Q50.2656,702.4219 51.3594,701.8047 Q52.4531,701.1875 53.6875,701.1875 Q54.4219,701.1875 55.0703,701.3516 Q55.7188,701.5156 56.2656,701.875 Z "/><text fill="#000000" font-family="sans-serif" font-size="12" lengthAdjust="spacingAndGlyphs" textLength="37" x="67.5" y="710.9102">JLabel</text><line style="stroke: #A80036; stroke-width: 1.5;" x1="39.5" x2="106.5" y1="722" y2="722"/><line style="stroke: #A80036; stroke-width: 1.5;" x1="39.5" x2="106.5" y1="730" y2="730"/><!--class javax.swing.JRootPane--><rect fill="#FEFECE" filter="url(#facqspwvszjjf)" height="48" id="javax.swing.JRootPane" style="stroke: #A80036; stroke-width: 1.5;" width="93" x="465.5" y="690"/><ellipse cx="480.5" cy="706" fill="#ADD1B2" rx="11" ry="11" style="stroke: #A80036; stroke-width: 1.0;"/><path d="M483.2656,701.875 Q483.4219,701.6563 483.6094,701.5469 Q483.7969,701.4375 484.0156,701.4375 Q484.3906,701.4375 484.625,701.6953 Q484.8594,701.9531 484.8594,702.5625 L484.8594,704.0156 Q484.8594,704.625 484.625,704.8906 Q484.3906,705.1563 484.0156,705.1563 Q483.6719,705.1563 483.4688,704.9531 Q483.2656,704.7656 483.1563,704.25 Q483.1094,703.8906 482.9219,703.7031 Q482.5938,703.3281 481.9844,703.1094 Q481.375,702.8906 480.75,702.8906 Q479.9844,702.8906 479.3516,703.2188 Q478.7188,703.5469 478.2266,704.2969 Q477.7344,705.0469 477.7344,706.0781 L477.7344,707.1719 Q477.7344,708.4063 478.625,709.2266 Q479.5156,710.0469 481.1094,710.0469 Q482.0469,710.0469 482.7031,709.7969 Q483.0938,709.6406 483.5156,709.2031 Q483.7813,708.9375 483.9297,708.8594 Q484.0781,708.7813 484.2813,708.7813 Q484.6094,708.7813 484.8672,709.0391 Q485.125,709.2969 485.125,709.6406 Q485.125,709.9844 484.7813,710.3906 Q484.2813,710.9688 483.4844,711.2969 Q482.4063,711.75 481.1094,711.75 Q479.5938,711.75 478.3906,711.125 Q477.4063,710.625 476.7188,709.5547 Q476.0313,708.4844 476.0313,707.2031 L476.0313,706.0469 Q476.0313,704.7188 476.6484,703.5703 Q477.2656,702.4219 478.3594,701.8047 Q479.4531,701.1875 480.6875,701.1875 Q481.4219,701.1875 482.0703,701.3516 Q482.7188,701.5156 483.2656,701.875 Z "/><text fill="#000000" font-family="sans-serif" font-size="12" lengthAdjust="spacingAndGlyphs" textLength="61" x="494.5" y="710.9102">JRootPane</text><line style="stroke: #A80036; stroke-width: 1.5;" x1="466.5" x2="557.5" y1="722" y2="722"/><line style="stroke: #A80036; stroke-width: 1.5;" x1="466.5" x2="557.5" y1="730" y2="730"/><!--class mastermind.models.Game--><rect fill="#FEFECE" filter="url(#facqspwvszjjf)" height="48" id="mastermind.models.Game" style="stroke: #A80036; stroke-width: 1.5;" width="66" x="2247" y="908.5"/><ellipse cx="2262" cy="924.5" fill="#ADD1B2" rx="11" ry="11" style="stroke: #A80036; stroke-width: 1.0;"/><path d="M2264.7656,920.375 Q2264.9219,920.1563 2265.1094,920.0469 Q2265.2969,919.9375 2265.5156,919.9375 Q2265.8906,919.9375 2266.125,920.1953 Q2266.3594,920.4531 2266.3594,921.0625 L2266.3594,922.5156 Q2266.3594,923.125 2266.125,923.3906 Q2265.8906,923.6563 2265.5156,923.6563 Q2265.1719,923.6563 2264.9688,923.4531 Q2264.7656,923.2656 2264.6563,922.75 Q2264.6094,922.3906 2264.4219,922.2031 Q2264.0938,921.8281 2263.4844,921.6094 Q2262.875,921.3906 2262.25,921.3906 Q2261.4844,921.3906 2260.8516,921.7188 Q2260.2188,922.0469 2259.7266,922.7969 Q2259.2344,923.5469 2259.2344,924.5781 L2259.2344,925.6719 Q2259.2344,926.9063 2260.125,927.7266 Q2261.0156,928.5469 2262.6094,928.5469 Q2263.5469,928.5469 2264.2031,928.2969 Q2264.5938,928.1406 2265.0156,927.7031 Q2265.2813,927.4375 2265.4297,927.3594 Q2265.5781,927.2813 2265.7813,927.2813 Q2266.1094,927.2813 2266.3672,927.5391 Q2266.625,927.7969 2266.625,928.1406 Q2266.625,928.4844 2266.2813,928.8906 Q2265.7813,929.4688 2264.9844,929.7969 Q2263.9063,930.25 2262.6094,930.25 Q2261.0938,930.25 2259.8906,929.625 Q2258.9063,929.125 2258.2188,928.0547 Q2257.5313,926.9844 2257.5313,925.7031 L2257.5313,924.5469 Q2257.5313,923.2188 2258.1484,922.0703 Q2258.7656,920.9219 2259.8594,920.3047 Q2260.9531,919.6875 2262.1875,919.6875 Q2262.9219,919.6875 2263.5703,919.8516 Q2264.2188,920.0156 2264.7656,920.375 Z "/><text fill="#000000" font-family="sans-serif" font-size="12" lengthAdjust="spacingAndGlyphs" textLength="34" x="2276" y="929.4102">Game</text><line style="stroke: #A80036; stroke-width: 1.5;" x1="2248" x2="2312" y1="940.5" y2="940.5"/><line style="stroke: #A80036; stroke-width: 1.5;" x1="2248" x2="2312" y1="948.5" y2="948.5"/><!--class mastermind.views.View--><rect fill="#FEFECE" filter="url(#facqspwvszjjf)" height="48" id="mastermind.views.View" style="stroke: #A80036; stroke-width: 1.5;" width="58" x="1009" y="60"/><ellipse cx="1024" cy="76" fill="#ADD1B2" rx="11" ry="11" style="stroke: #A80036; stroke-width: 1.0;"/><path d="M1026.7656,71.875 Q1026.9219,71.6563 1027.1094,71.5469 Q1027.2969,71.4375 1027.5156,71.4375 Q1027.8906,71.4375 1028.125,71.6953 Q1028.3594,71.9531 1028.3594,72.5625 L1028.3594,74.0156 Q1028.3594,74.625 1028.125,74.8906 Q1027.8906,75.1563 1027.5156,75.1563 Q1027.1719,75.1563 1026.9688,74.9531 Q1026.7656,74.7656 1026.6563,74.25 Q1026.6094,73.8906 1026.4219,73.7031 Q1026.0938,73.3281 1025.4844,73.1094 Q1024.875,72.8906 1024.25,72.8906 Q1023.4844,72.8906 1022.8516,73.2188 Q1022.2188,73.5469 1021.7266,74.2969 Q1021.2344,75.0469 1021.2344,76.0781 L1021.2344,77.1719 Q1021.2344,78.4063 1022.125,79.2266 Q1023.0156,80.0469 1024.6094,80.0469 Q1025.5469,80.0469 1026.2031,79.7969 Q1026.5938,79.6406 1027.0156,79.2031 Q1027.2813,78.9375 1027.4297,78.8594 Q1027.5781,78.7813 1027.7813,78.7813 Q1028.1094,78.7813 1028.3672,79.0391 Q1028.625,79.2969 1028.625,79.6406 Q1028.625,79.9844 1028.2813,80.3906 Q1027.7813,80.9688 1026.9844,81.2969 Q1025.9063,81.75 1024.6094,81.75 Q1023.0938,81.75 1021.8906,81.125 Q1020.9063,80.625 1020.2188,79.5547 Q1019.5313,78.4844 1019.5313,77.2031 L1019.5313,76.0469 Q1019.5313,74.7188 1020.1484,73.5703 Q1020.7656,72.4219 1021.8594,71.8047 Q1022.9531,71.1875 1024.1875,71.1875 Q1024.9219,71.1875 1025.5703,71.3516 Q1026.2188,71.5156 1026.7656,71.875 Z "/><text fill="#000000" font-family="sans-serif" font-size="12" lengthAdjust="spacingAndGlyphs" textLength="26" x="1038" y="80.9102">View</text><line style="stroke: #A80036; stroke-width: 1.5;" x1="1010" x2="1066" y1="92" y2="92"/><line style="stroke: #A80036; stroke-width: 1.5;" x1="1010" x2="1066" y1="100" y2="100"/><!--class java.awt.event.KeyListener--><rect fill="#FEFECE" filter="url(#facqspwvszjjf)" height="48" id="java.awt.event.KeyListener" style="stroke: #A80036; stroke-width: 1.5;" width="97" x="1846.5" y="908.5"/><ellipse cx="1861.5" cy="924.5" fill="#ADD1B2" rx="11" ry="11" style="stroke: #A80036; stroke-width: 1.0;"/><path d="M1864.2656,920.375 Q1864.4219,920.1563 1864.6094,920.0469 Q1864.7969,919.9375 1865.0156,919.9375 Q1865.3906,919.9375 1865.625,920.1953 Q1865.8594,920.4531 1865.8594,921.0625 L1865.8594,922.5156 Q1865.8594,923.125 1865.625,923.3906 Q1865.3906,923.6563 1865.0156,923.6563 Q1864.6719,923.6563 1864.4688,923.4531 Q1864.2656,923.2656 1864.1563,922.75 Q1864.1094,922.3906 1863.9219,922.2031 Q1863.5938,921.8281 1862.9844,921.6094 Q1862.375,921.3906 1861.75,921.3906 Q1860.9844,921.3906 1860.3516,921.7188 Q1859.7188,922.0469 1859.2266,922.7969 Q1858.7344,923.5469 1858.7344,924.5781 L1858.7344,925.6719 Q1858.7344,926.9063 1859.625,927.7266 Q1860.5156,928.5469 1862.1094,928.5469 Q1863.0469,928.5469 1863.7031,928.2969 Q1864.0938,928.1406 1864.5156,927.7031 Q1864.7813,927.4375 1864.9297,927.3594 Q1865.0781,927.2813 1865.2813,927.2813 Q1865.6094,927.2813 1865.8672,927.5391 Q1866.125,927.7969 1866.125,928.1406 Q1866.125,928.4844 1865.7813,928.8906 Q1865.2813,929.4688 1864.4844,929.7969 Q1863.4063,930.25 1862.1094,930.25 Q1860.5938,930.25 1859.3906,929.625 Q1858.4063,929.125 1857.7188,928.0547 Q1857.0313,926.9844 1857.0313,925.7031 L1857.0313,924.5469 Q1857.0313,923.2188 1857.6484,922.0703 Q1858.2656,920.9219 1859.3594,920.3047 Q1860.4531,919.6875 1861.6875,919.6875 Q1862.4219,919.6875 1863.0703,919.8516 Q1863.7188,920.0156 1864.2656,920.375 Z "/><text fill="#000000" font-family="sans-serif" font-size="12" lengthAdjust="spacingAndGlyphs" textLength="65" x="1875.5" y="929.4102">KeyListener</text><line style="stroke: #A80036; stroke-width: 1.5;" x1="1847.5" x2="1942.5" y1="940.5" y2="940.5"/><line style="stroke: #A80036; stroke-width: 1.5;" x1="1847.5" x2="1942.5" y1="948.5" y2="948.5"/><!--class java.awt.event.ActionListener--><rect fill="#FEFECE" filter="url(#facqspwvszjjf)" height="48" id="java.awt.event.ActionListener" style="stroke: #A80036; stroke-width: 1.5;" width="110" x="1701" y="908.5"/><ellipse cx="1716" cy="924.5" fill="#ADD1B2" rx="11" ry="11" style="stroke: #A80036; stroke-width: 1.0;"/><path d="M1718.7656,920.375 Q1718.9219,920.1563 1719.1094,920.0469 Q1719.2969,919.9375 1719.5156,919.9375 Q1719.8906,919.9375 1720.125,920.1953 Q1720.3594,920.4531 1720.3594,921.0625 L1720.3594,922.5156 Q1720.3594,923.125 1720.125,923.3906 Q1719.8906,923.6563 1719.5156,923.6563 Q1719.1719,923.6563 1718.9688,923.4531 Q1718.7656,923.2656 1718.6563,922.75 Q1718.6094,922.3906 1718.4219,922.2031 Q1718.0938,921.8281 1717.4844,921.6094 Q1716.875,921.3906 1716.25,921.3906 Q1715.4844,921.3906 1714.8516,921.7188 Q1714.2188,922.0469 1713.7266,922.7969 Q1713.2344,923.5469 1713.2344,924.5781 L1713.2344,925.6719 Q1713.2344,926.9063 1714.125,927.7266 Q1715.0156,928.5469 1716.6094,928.5469 Q1717.5469,928.5469 1718.2031,928.2969 Q1718.5938,928.1406 1719.0156,927.7031 Q1719.2813,927.4375 1719.4297,927.3594 Q1719.5781,927.2813 1719.7813,927.2813 Q1720.1094,927.2813 1720.3672,927.5391 Q1720.625,927.7969 1720.625,928.1406 Q1720.625,928.4844 1720.2813,928.8906 Q1719.7813,929.4688 1718.9844,929.7969 Q1717.9063,930.25 1716.6094,930.25 Q1715.0938,930.25 1713.8906,929.625 Q1712.9063,929.125 1712.2188,928.0547 Q1711.5313,926.9844 1711.5313,925.7031 L1711.5313,924.5469 Q1711.5313,923.2188 1712.1484,922.0703 Q1712.7656,920.9219 1713.8594,920.3047 Q1714.9531,919.6875 1716.1875,919.6875 Q1716.9219,919.6875 1717.5703,919.8516 Q1718.2188,920.0156 1718.7656,920.375 Z "/><text fill="#000000" font-family="sans-serif" font-size="12" lengthAdjust="spacingAndGlyphs" textLength="78" x="1730" y="929.4102">ActionListener</text><line style="stroke: #A80036; stroke-width: 1.5;" x1="1702" x2="1810" y1="940.5" y2="940.5"/><line style="stroke: #A80036; stroke-width: 1.5;" x1="1702" x2="1810" y1="948.5" y2="948.5"/><!--class java.awt.event.KeyEvent--><rect fill="#FEFECE" filter="url(#facqspwvszjjf)" height="48" id="java.awt.event.KeyEvent" style="stroke: #A80036; stroke-width: 1.5;" width="82" x="2109" y="908.5"/><ellipse cx="2124" cy="924.5" fill="#ADD1B2" rx="11" ry="11" style="stroke: #A80036; stroke-width: 1.0;"/><path d="M2126.7656,920.375 Q2126.9219,920.1563 2127.1094,920.0469 Q2127.2969,919.9375 2127.5156,919.9375 Q2127.8906,919.9375 2128.125,920.1953 Q2128.3594,920.4531 2128.3594,921.0625 L2128.3594,922.5156 Q2128.3594,923.125 2128.125,923.3906 Q2127.8906,923.6563 2127.5156,923.6563 Q2127.1719,923.6563 2126.9688,923.4531 Q2126.7656,923.2656 2126.6563,922.75 Q2126.6094,922.3906 2126.4219,922.2031 Q2126.0938,921.8281 2125.4844,921.6094 Q2124.875,921.3906 2124.25,921.3906 Q2123.4844,921.3906 2122.8516,921.7188 Q2122.2188,922.0469 2121.7266,922.7969 Q2121.2344,923.5469 2121.2344,924.5781 L2121.2344,925.6719 Q2121.2344,926.9063 2122.125,927.7266 Q2123.0156,928.5469 2124.6094,928.5469 Q2125.5469,928.5469 2126.2031,928.2969 Q2126.5938,928.1406 2127.0156,927.7031 Q2127.2813,927.4375 2127.4297,927.3594 Q2127.5781,927.2813 2127.7813,927.2813 Q2128.1094,927.2813 2128.3672,927.5391 Q2128.625,927.7969 2128.625,928.1406 Q2128.625,928.4844 2128.2813,928.8906 Q2127.7813,929.4688 2126.9844,929.7969 Q2125.9063,930.25 2124.6094,930.25 Q2123.0938,930.25 2121.8906,929.625 Q2120.9063,929.125 2120.2188,928.0547 Q2119.5313,926.9844 2119.5313,925.7031 L2119.5313,924.5469 Q2119.5313,923.2188 2120.1484,922.0703 Q2120.7656,920.9219 2121.8594,920.3047 Q2122.9531,919.6875 2124.1875,919.6875 Q2124.9219,919.6875 2125.5703,919.8516 Q2126.2188,920.0156 2126.7656,920.375 Z "/><text fill="#000000" font-family="sans-serif" font-size="12" lengthAdjust="spacingAndGlyphs" textLength="50" x="2138" y="929.4102">KeyEvent</text><line style="stroke: #A80036; stroke-width: 1.5;" x1="2110" x2="2190" y1="940.5" y2="940.5"/><line style="stroke: #A80036; stroke-width: 1.5;" x1="2110" x2="2190" y1="948.5" y2="948.5"/><!--class java.awt.event.ActionEvent--><rect fill="#FEFECE" filter="url(#facqspwvszjjf)" height="48" id="java.awt.event.ActionEvent" style="stroke: #A80036; stroke-width: 1.5;" width="95" x="1978.5" y="908.5"/><ellipse cx="1993.5" cy="924.5" fill="#ADD1B2" rx="11" ry="11" style="stroke: #A80036; stroke-width: 1.0;"/><path d="M1996.2656,920.375 Q1996.4219,920.1563 1996.6094,920.0469 Q1996.7969,919.9375 1997.0156,919.9375 Q1997.3906,919.9375 1997.625,920.1953 Q1997.8594,920.4531 1997.8594,921.0625 L1997.8594,922.5156 Q1997.8594,923.125 1997.625,923.3906 Q1997.3906,923.6563 1997.0156,923.6563 Q1996.6719,923.6563 1996.4688,923.4531 Q1996.2656,923.2656 1996.1563,922.75 Q1996.1094,922.3906 1995.9219,922.2031 Q1995.5938,921.8281 1994.9844,921.6094 Q1994.375,921.3906 1993.75,921.3906 Q1992.9844,921.3906 1992.3516,921.7188 Q1991.7188,922.0469 1991.2266,922.7969 Q1990.7344,923.5469 1990.7344,924.5781 L1990.7344,925.6719 Q1990.7344,926.9063 1991.625,927.7266 Q1992.5156,928.5469 1994.1094,928.5469 Q1995.0469,928.5469 1995.7031,928.2969 Q1996.0938,928.1406 1996.5156,927.7031 Q1996.7813,927.4375 1996.9297,927.3594 Q1997.0781,927.2813 1997.2813,927.2813 Q1997.6094,927.2813 1997.8672,927.5391 Q1998.125,927.7969 1998.125,928.1406 Q1998.125,928.4844 1997.7813,928.8906 Q1997.2813,929.4688 1996.4844,929.7969 Q1995.4063,930.25 1994.1094,930.25 Q1992.5938,930.25 1991.3906,929.625 Q1990.4063,929.125 1989.7188,928.0547 Q1989.0313,926.9844 1989.0313,925.7031 L1989.0313,924.5469 Q1989.0313,923.2188 1989.6484,922.0703 Q1990.2656,920.9219 1991.3594,920.3047 Q1992.4531,919.6875 1993.6875,919.6875 Q1994.4219,919.6875 1995.0703,919.8516 Q1995.7188,920.0156 1996.2656,920.375 Z "/><text fill="#000000" font-family="sans-serif" font-size="12" lengthAdjust="spacingAndGlyphs" textLength="63" x="2007.5" y="929.4102">ActionEvent</text><line style="stroke: #A80036; stroke-width: 1.5;" x1="1979.5" x2="2072.5" y1="940.5" y2="940.5"/><line style="stroke: #A80036; stroke-width: 1.5;" x1="1979.5" x2="2072.5" y1="948.5" y2="948.5"/><!--link java.awt.GridBagConstraints to mastermind.views.graphics.Constraints--><path d="M837.342,754.109 C857.495,777.807 886.426,806.229 919,821 C1116.91,910.743 1202.37,788.621 1406,864.5 C1428,872.699 1449.48,887.575 1466.24,901.23 " fill="none" id="java.awt.GridBagConstraints-mastermind.views.graphics.Constraints" style="stroke: #A80036; stroke-width: 1.0;"/><polygon fill="none" points="831.706,758.272,824.574,738.319,842.592,749.469,831.706,758.272" style="stroke: #A80036; stroke-width: 1.0;"/><!--link javax.swing.JFrame to mastermind.views.graphics.GameView--><path d="M295.95,670.843 C304.172,648.035 317.911,621.612 340,607 C485.177,510.964 954.021,596.167 1121,547 C1126.96,545.246 1132.94,543.266 1138.91,541.1 " fill="none" id="javax.swing.JFrame-mastermind.views.graphics.GameView" style="stroke: #A80036; stroke-width: 1.0;"/><polygon fill="none" points="302.625,672.952,289.971,689.949,289.264,668.771,302.625,672.952" style="stroke: #A80036; stroke-width: 1.0;"/><!--link mastermind.views.graphics.GameView to mastermind.views.graphics.ProposedCombinationsView--><path d="M1202.41,557.039 C1169.73,594.672 1134.28,635.509 1107.85,665.953 " fill="none" id="mastermind.views.graphics.GameView-mastermind.views.graphics.ProposedCombinationsView" style="stroke: #A80036; stroke-width: 1.0;"/><polygon fill="#A80036" points="1099.25,675.859,1108.1713,671.6864,1102.5284,672.0838,1102.131,666.4409,1099.25,675.859" style="stroke: #A80036; stroke-width: 1.0;"/><line style="stroke: #A80036; stroke-width: 1.0;" x1="1102.5284" x2="1107.765" y1="672.0838" y2="666.043"/><polygon fill="#A80036" points="1211.08,547.051,1204.1258,548.9585,1203.2118,556.1114,1210.166,554.2039,1211.08,547.051" style="stroke: #A80036; stroke-width: 1.0;"/><!--link mastermind.views.graphics.GameView to mastermind.views.graphics.SecretCombinationView--><path d="M1301.21,560.396 C1304.13,590.499 1307.22,622.377 1309.81,649.169 " fill="none" id="mastermind.views.graphics.GameView-mastermind.views.graphics.SecretCombinationView" style="stroke: #A80036; stroke-width: 1.0;"/><polygon fill="#A80036" points="1311.09,662.28,1314.2032,652.9361,1310.6077,657.3033,1306.2405,653.7078,1311.09,662.28" style="stroke: #A80036; stroke-width: 1.0;"/><line style="stroke: #A80036; stroke-width: 1.0;" x1="1310.6077" x2="1309.83" y1="657.3033" y2="649.341"/><polygon fill="#A80036" points="1299.92,547.051,1296.5174,553.4089,1301.0775,558.995,1304.4801,552.6372,1299.92,547.051" style="stroke: #A80036; stroke-width: 1.0;"/><!--link mastermind.views.graphics.GameView to mastermind.views.graphics.ProposalCombinationView--><path d="M1388.74,556.685 C1401.63,570.091 1414.91,583.91 1428,597.525 " fill="none" id="mastermind.views.graphics.GameView-mastermind.views.graphics.ProposalCombinationView" style="stroke: #A80036; stroke-width: 1.0;"/><polygon fill="#A80036" points="1437.02,606.911,1433.6666,597.6506,1433.5549,603.3064,1427.8992,603.1947,1437.02,606.911" style="stroke: #A80036; stroke-width: 1.0;"/><line style="stroke: #A80036; stroke-width: 1.0;" x1="1433.5549" x2="1428.01" y1="603.3064" y2="597.539"/><polygon fill="#A80036" points="1379.48,547.051,1380.7549,554.1485,1387.7968,555.7015,1386.5219,548.6039,1379.48,547.051" style="stroke: #A80036; stroke-width: 1.0;"/><!--link mastermind.views.graphics.GameView to mastermind.models.Game--><path d="M1443.07,504.763 C1631.77,570.484 1958.91,697.677 2207,864.5 C2224.22,876.082 2241.43,891.629 2254.81,904.832 " fill="none" id="mastermind.views.graphics.GameView-mastermind.models.Game" style="stroke: #A80036; stroke-width: 1.0; stroke-dasharray: 7.0,7.0;"/><polygon fill="#A80036" points="2258.47,908.488,2254.9178,899.3021,2254.928,904.9589,2249.2712,904.9692,2258.47,908.488" style="stroke: #A80036; stroke-width: 1.0;"/><!--link mastermind.views.graphics.GameView to mastermind.views.graphics.Constraints--><path d="M1234.31,547.378 C1193.02,627.817 1154.15,743.391 1216,821 C1269.99,888.748 1327.07,828.806 1406,864.5 C1425.22,873.193 1444.47,886.176 1460.43,898.405 " fill="none" id="mastermind.views.graphics.GameView-mastermind.views.graphics.Constraints" style="stroke: #A80036; stroke-width: 1.0; stroke-dasharray: 7.0,7.0;"/><polygon fill="#A80036" points="1464.42,901.495,1459.769,892.8135,1460.4723,898.4265,1454.8594,899.1298,1464.42,901.495" style="stroke: #A80036; stroke-width: 1.0;"/><!--link mastermind.views.View to mastermind.views.graphics.GraphicsView--><path d="M1038,128.318 C1038,145.479 1038,165.46 1038,183.816 " fill="none" id="mastermind.views.View-mastermind.views.graphics.GraphicsView" style="stroke: #A80036; stroke-width: 1.0;"/><polygon fill="none" points="1031,128.092,1038,108.092,1045,128.092,1031,128.092" style="stroke: #A80036; stroke-width: 1.0;"/><!--link mastermind.views.graphics.GraphicsView to mastermind.views.graphics.GameView--><path d="M1117.29,309.157 C1133.81,322.835 1151.58,337.55 1169.23,352.164 " fill="none" id="mastermind.views.graphics.GraphicsView-mastermind.views.graphics.GameView" style="stroke: #A80036; stroke-width: 1.0;"/><polygon fill="#A80036" points="1179.59,360.748,1175.2063,351.9285,1175.7379,357.5603,1170.1061,358.0919,1179.59,360.748" style="stroke: #A80036; stroke-width: 1.0;"/><line style="stroke: #A80036; stroke-width: 1.0;" x1="1175.7379" x2="1169.58" y1="357.5603" y2="352.4565"/><polygon fill="#A80036" points="1107.13,300.747,1109.1966,307.6556,1116.3686,308.4052,1114.302,301.4966,1107.13,300.747" style="stroke: #A80036; stroke-width: 1.0;"/><!--link mastermind.views.graphics.GraphicsView to mastermind.views.graphics.ResumeDialog--><path d="M1038,301.024 C1038,333.201 1038,372.897 1038,403.65 " fill="none" id="mastermind.views.graphics.GraphicsView-mastermind.views.graphics.ResumeDialog" style="stroke: #A80036; stroke-width: 1.0; stroke-dasharray: 7.0,7.0;"/><polygon fill="#A80036" points="1038,408.894,1042,399.894,1038,403.894,1034,399.894,1038,408.894" style="stroke: #A80036; stroke-width: 1.0;"/><!--link mastermind.views.graphics.GraphicsView to mastermind.views.graphics.ProposedCombinationView--><path d="M986.764,301.241 C973.866,319.176 961.771,339.828 955,361 C892.724,555.729 895.165,625.204 954,821 C959.856,840.487 970.387,859.707 981.661,876.515 " fill="none" id="mastermind.views.graphics.GraphicsView-mastermind.views.graphics.ProposedCombinationView" style="stroke: #A80036; stroke-width: 1.0; stroke-dasharray: 7.0,7.0;"/><polygon fill="#A80036" points="984.541,880.735,982.7716,871.0464,981.7225,876.6051,976.1638,875.556,984.541,880.735" style="stroke: #A80036; stroke-width: 1.0;"/><!--link java.awt.event.KeyListener to mastermind.views.graphics.ProposalCombinationView--><path d="M1861.64,893.46 C1851.73,883.353 1840.44,872.919 1829,864.5 C1772.09,822.616 1701.78,786.051 1644.64,759.568 " fill="none" id="java.awt.event.KeyListener-mastermind.views.graphics.ProposalCombinationView" style="stroke: #A80036; stroke-width: 1.0;"/><polygon fill="none" points="1866.92,888.861,1875.48,908.246,1856.7,898.428,1866.92,888.861" style="stroke: #A80036; stroke-width: 1.0;"/><!--link java.awt.event.ActionListener to mastermind.views.graphics.ProposalCombinationView--><path d="M1718.69,894.276 C1698.04,873.671 1671.22,846.919 1644.64,820.396 " fill="none" id="java.awt.event.ActionListener-mastermind.views.graphics.ProposalCombinationView" style="stroke: #A80036; stroke-width: 1.0;"/><polygon fill="none" points="1723.65,889.334,1732.86,908.416,1713.76,899.245,1723.65,889.334" style="stroke: #A80036; stroke-width: 1.0;"/><!--link javax.swing.JPanel to mastermind.views.graphics.ProposalCombinationView--><path d="M186.84,670.333 C195.974,638.001 213.826,596.341 247.5,577 C302.901,545.179 1338.28,553.028 1397.5,577 C1415.25,584.185 1432,594.782 1447.35,606.954 " fill="none" id="javax.swing.JPanel-mastermind.views.graphics.ProposalCombinationView" style="stroke: #A80036; stroke-width: 1.0;"/><polygon fill="none" points="193.599,672.161,182.017,689.906,180.006,668.812,193.599,672.161" style="stroke: #A80036; stroke-width: 1.0;"/><!--link mastermind.views.graphics.ProposalCombinationView to javax.swing.JButton--><path d="M1436.71,598.945 C1424.36,590.155 1411.23,582.557 1397.5,577 C1349.51,557.573 510.399,551.212 465.5,577 C429.206,597.846 410.594,644.162 401.592,677.164 " fill="none" id="mastermind.views.graphics.ProposalCombinationView-javax.swing.JButton" style="stroke: #A80036; stroke-width: 1.0;"/><polygon fill="#A80036" points="398.397,689.945,404.4604,682.1839,399.6097,685.0943,396.6993,680.2436,398.397,689.945" style="stroke: #A80036; stroke-width: 1.0;"/><line style="stroke: #A80036; stroke-width: 1.0;" x1="399.6097" x2="401.55" y1="685.0943" y2="677.3335"/><polygon fill="#A80036" points="1447.35,606.954,1444.96,600.1505,1437.7606,599.7399,1440.1506,606.5434,1447.35,606.954" style="stroke: #A80036; stroke-width: 1.0;"/><!--link mastermind.views.graphics.ProposalCombinationView to javax.swing.JTextField--><path d="M1436.71,598.945 C1424.36,590.155 1411.23,582.557 1397.5,577 C1329.63,549.526 803.896,544.062 738.5,577 C696.89,597.958 668.078,644.931 652.056,678.008 " fill="none" id="mastermind.views.graphics.ProposalCombinationView-javax.swing.JTextField" style="stroke: #A80036; stroke-width: 1.0;"/><polygon fill="#A80036" points="646.541,689.922,653.9512,683.4344,648.6411,685.3844,646.6911,680.0743,646.541,689.922" style="stroke: #A80036; stroke-width: 1.0;"/><line style="stroke: #A80036; stroke-width: 1.0;" x1="648.6411" x2="652.002" y1="685.3844" y2="678.124"/><polygon fill="#A80036" points="1447.35,606.954,1444.96,600.1505,1437.7606,599.7399,1440.1506,606.5434,1447.35,606.954" style="stroke: #A80036; stroke-width: 1.0;"/><!--link mastermind.views.graphics.ProposalCombinationView to javax.swing.JLabel--><path d="M1436.71,598.945 C1424.36,590.155 1411.23,582.557 1397.5,577 C1332.87,550.84 202.959,542.274 142.5,577 C106.421,597.723 88.5048,644.066 80.0134,677.108 " fill="none" id="mastermind.views.graphics.ProposalCombinationView-javax.swing.JLabel" style="stroke: #A80036; stroke-width: 1.0;"/><polygon fill="#A80036" points="77.0175,689.906,82.9634,682.0545,78.1571,685.0376,75.174,680.2312,77.0175,689.906" style="stroke: #A80036; stroke-width: 1.0;"/><line style="stroke: #A80036; stroke-width: 1.0;" x1="78.1571" x2="79.9807" y1="685.0376" y2="677.248"/><polygon fill="#A80036" points="1447.35,606.954,1444.96,600.1505,1437.7606,599.7399,1440.1506,606.5434,1447.35,606.954" style="stroke: #A80036; stroke-width: 1.0;"/><!--link mastermind.views.graphics.ProposalCombinationView to javax.swing.JRootPane--><path d="M1447.35,606.954 C1432,594.782 1415.25,584.185 1397.5,577 C1314.69,543.481 671.155,532.839 593.5,577 C553.081,599.985 530.612,651.81 519.941,684.719 " fill="none" id="mastermind.views.graphics.ProposalCombinationView-javax.swing.JRootPane" style="stroke: #A80036; stroke-width: 1.0; stroke-dasharray: 7.0,7.0;"/><polygon fill="#A80036" points="518.329,689.831,524.8519,682.4519,519.8336,685.0628,517.2227,680.0445,518.329,689.831" style="stroke: #A80036; stroke-width: 1.0;"/><!--link mastermind.views.graphics.ProposalCombinationView to java.awt.event.KeyEvent--><path d="M1644.79,740.163 C1794.14,776.216 2052.96,840.829 2091,864.5 C2107.22,874.593 2121.5,890.497 2131.94,904.278 " fill="none" id="mastermind.views.graphics.ProposalCombinationView-java.awt.event.KeyEvent" style="stroke: #A80036; stroke-width: 1.0; stroke-dasharray: 7.0,7.0;"/><polygon fill="#A80036" points="2135.06,908.478,2132.9094,898.8668,2132.0806,904.4626,2126.4848,903.6338,2135.06,908.478" style="stroke: #A80036; stroke-width: 1.0;"/><!--link mastermind.views.graphics.ProposalCombinationView to java.awt.event.ActionEvent--><path d="M1644.78,738.056 C1734.01,760.761 1862.55,801.325 1961,864.5 C1977.56,875.129 1993.04,890.75 2004.73,904.236 " fill="none" id="mastermind.views.graphics.ProposalCombinationView-java.awt.event.ActionEvent" style="stroke: #A80036; stroke-width: 1.0; stroke-dasharray: 7.0,7.0;"/><polygon fill="#A80036" points="2008.24,908.345,2005.4383,898.903,2004.9935,904.5424,1999.3541,904.0975,2008.24,908.345" style="stroke: #A80036; stroke-width: 1.0;"/><!--link mastermind.views.graphics.ProposalCombinationView to mastermind.views.graphics.Constraints--><path d="M1519.41,821.03 C1514.41,848.093 1509.38,875.34 1505.56,896.003 " fill="none" id="mastermind.views.graphics.ProposalCombinationView-mastermind.views.graphics.Constraints" style="stroke: #A80036; stroke-width: 1.0; stroke-dasharray: 7.0,7.0;"/><polygon fill="#A80036" points="1504.61,901.111,1510.1796,892.9882,1505.519,896.1943,1502.3129,891.5338,1504.61,901.111" style="stroke: #A80036; stroke-width: 1.0;"/><!--link javax.swing.JPanel to mastermind.views.graphics.ProposedCombinationsView--><path d="M186.84,670.333 C195.974,638.001 213.826,596.341 247.5,577 C313.017,539.369 857.566,548.402 927.5,577 C976.043,596.851 1016.8,642.641 1041.49,675.83 " fill="none" id="javax.swing.JPanel-mastermind.views.graphics.ProposedCombinationsView" style="stroke: #A80036; stroke-width: 1.0;"/><polygon fill="none" points="193.599,672.161,182.017,689.906,180.006,668.812,193.599,672.161" style="stroke: #A80036; stroke-width: 1.0;"/><!--link mastermind.views.graphics.ProposedCombinationsView to mastermind.models.Game--><path d="M1105.77,752.196 C1133.93,776.637 1174.27,806.655 1216,821 C1424.46,892.661 2003.39,780.038 2207,864.5 C2227.33,872.935 2245.58,889.679 2258.74,904.317 " fill="none" id="mastermind.views.graphics.ProposedCombinationsView-mastermind.models.Game" style="stroke: #A80036; stroke-width: 1.0; stroke-dasharray: 7.0,7.0;"/><polygon fill="#A80036" points="2262.32,908.381,2259.382,898.9806,2259.0188,904.6257,2253.3736,904.2625,2262.32,908.381" style="stroke: #A80036; stroke-width: 1.0;"/><!--link mastermind.views.graphics.ProposedCombinationsView to mastermind.views.graphics.Constraints--><path d="M1099.96,752.206 C1122.7,775.523 1154.88,804.238 1189,821 C1277.29,864.367 1315.83,825.195 1406,864.5 C1425.34,872.93 1444.61,885.868 1460.55,898.135 " fill="none" id="mastermind.views.graphics.ProposedCombinationsView-mastermind.views.graphics.Constraints" style="stroke: #A80036; stroke-width: 1.0; stroke-dasharray: 7.0,7.0;"/><polygon fill="#A80036" points="1464.53,901.236,1459.8866,892.5504,1460.585,898.164,1454.9714,898.8624,1464.53,901.236" style="stroke: #A80036; stroke-width: 1.0;"/><!--link mastermind.views.graphics.ProposedCombinationsView to mastermind.views.graphics.ResultView--><path d="M1091.07,752.218 C1117.39,792.928 1159.24,857.637 1184.8,897.168 " fill="none" id="mastermind.views.graphics.ProposedCombinationsView-mastermind.views.graphics.ResultView" style="stroke: #A80036; stroke-width: 1.0; stroke-dasharray: 7.0,7.0;"/><polygon fill="#A80036" points="1187.53,901.387,1186.0045,891.657,1184.8161,897.1876,1179.2855,895.9992,1187.53,901.387" style="stroke: #A80036; stroke-width: 1.0;"/><!--link mastermind.views.graphics.ProposedCombinationsView to mastermind.views.graphics.TurnView--><path d="M1104.47,752.12 C1127.6,773.839 1158.59,800.859 1189,821 C1225.71,845.311 1242.46,838.51 1278,864.5 C1290.83,873.885 1303.29,886.009 1313.76,897.358 " fill="none" id="mastermind.views.graphics.ProposedCombinationsView-mastermind.views.graphics.TurnView" style="stroke: #A80036; stroke-width: 1.0; stroke-dasharray: 7.0,7.0;"/><polygon fill="#A80036" points="1317.23,901.173,1314.1348,891.8231,1313.8663,897.4736,1308.2158,897.2051,1317.23,901.173" style="stroke: #A80036; stroke-width: 1.0;"/><!--link mastermind.views.graphics.ProposedCombinationsView to mastermind.views.graphics.ProposedCombinationView--><path d="M1060.12,752.218 C1053.86,786.119 1044.52,836.662 1037.36,875.45 " fill="none" id="mastermind.views.graphics.ProposedCombinationsView-mastermind.views.graphics.ProposedCombinationView" style="stroke: #A80036; stroke-width: 1.0; stroke-dasharray: 7.0,7.0;"/><polygon fill="#A80036" points="1036.4,880.6,1041.9696,872.4772,1037.309,875.6833,1034.1029,871.0228,1036.4,880.6" style="stroke: #A80036; stroke-width: 1.0;"/><!--link javax.swing.JLabel to mastermind.views.graphics.ProposedCombinationView--><path d="M83.2679,757.485 C90.9614,779.982 103.8996,805.99 125,821 C253.639,912.509 732.379,928.474 935.233,931.0838 " fill="none" id="javax.swing.JLabel-mastermind.views.graphics.ProposedCombinationView" style="stroke: #A80036; stroke-width: 1.0;"/><polygon fill="none" points="76.5321,759.391,77.5934,738.228,89.9612,755.434,76.5321,759.391" style="stroke: #A80036; stroke-width: 1.0;"/><!--link javax.swing.JLabel to mastermind.views.graphics.ResultView--><path d="M82.6882,757.722 C90.2217,780.521 103.1926,806.748 125,821 C219.12,882.511 1032.43,820.745 1136,864.5 C1154.58,872.349 1171.23,887.378 1183.72,901.216 " fill="none" id="javax.swing.JLabel-mastermind.views.graphics.ResultView" style="stroke: #A80036; stroke-width: 1.0;"/><polygon fill="none" points="75.8711,759.337,77.2008,738.19,89.3493,755.551,75.8711,759.337" style="stroke: #A80036; stroke-width: 1.0;"/><!--link javax.swing.JPanel to mastermind.views.graphics.SecretCombinationView--><path d="M186.84,670.333 C195.974,638.001 213.826,596.341 247.5,577 C292.88,550.935 1141.56,556.014 1189.5,577 C1229.24,594.396 1262.04,631.116 1284.27,662.165 " fill="none" id="javax.swing.JPanel-mastermind.views.graphics.SecretCombinationView" style="stroke: #A80036; stroke-width: 1.0;"/><polygon fill="none" points="193.599,672.161,182.017,689.906,180.006,668.812,193.599,672.161" style="stroke: #A80036; stroke-width: 1.0;"/><!--link mastermind.views.graphics.SecretCombinationView to javax.swing.JLabel--><path d="M1276.31,651.431 C1254.52,623.045 1224.74,592.425 1189.5,577 C1136.21,553.675 192.939,548.029 142.5,577 C106.421,597.723 88.5048,644.066 80.0134,677.108 " fill="none" id="mastermind.views.graphics.SecretCombinationView-javax.swing.JLabel" style="stroke: #A80036; stroke-width: 1.0;"/><polygon fill="#A80036" points="77.0175,689.906,82.9634,682.0545,78.1571,685.0376,75.174,680.2312,77.0175,689.906" style="stroke: #A80036; stroke-width: 1.0;"/><line style="stroke: #A80036; stroke-width: 1.0;" x1="78.1571" x2="79.9807" y1="685.0376" y2="677.248"/><polygon fill="#A80036" points="1284.27,662.165,1283.9096,654.9629,1277.1229,652.5256,1277.4833,659.7277,1284.27,662.165" style="stroke: #A80036; stroke-width: 1.0;"/><!--link mastermind.views.graphics.SecretCombinationView to mastermind.views.graphics.Constraints--><path d="M1358.91,765.76 C1393.12,806.233 1440.1,861.812 1470.01,897.197 " fill="none" id="mastermind.views.graphics.SecretCombinationView-mastermind.views.graphics.Constraints" style="stroke: #A80036; stroke-width: 1.0; stroke-dasharray: 7.0,7.0;"/><polygon fill="#A80036" points="1473.57,901.41,1470.8105,891.9556,1470.3405,897.5929,1464.7032,897.1228,1473.57,901.41" style="stroke: #A80036; stroke-width: 1.0;"/><!--link javax.swing.JLabel to mastermind.views.graphics.TurnView--><path d="M82.6596,757.766 C90.1838,780.579 103.155,806.806 125,821 C232.501,890.852 1161.1,811.873 1278,864.5 C1295.46,872.358 1310.51,887.388 1321.63,901.224 " fill="none" id="javax.swing.JLabel-mastermind.views.graphics.TurnView" style="stroke: #A80036; stroke-width: 1.0;"/><polygon fill="none" points="75.838,759.365,77.1826,738.218,89.3189,755.587,75.838,759.365" style="stroke: #A80036; stroke-width: 1.0;"/><!--
@startuml

class  mastermind.views.graphics.Constraints{
~ Constraints(int, int, int, int)
}
java.awt.GridBagConstraints <|-down- mastermind.views.graphics.Constraints

class  mastermind.views.graphics.GameView{
- {static} GAME_OVER: String
- secretCombinationView: SecretCombinationView
- proposedCombinationsView: ProposedCombinationsView
- proposalCombinationView: ProposalCombinationView
~ GameView()
- clear(): void
~ start(Game): void
- proposeCombination(int[], Game): int
~ propose(Game): boolean
- drawGameOver(Game): boolean
}
javax.swing.JFrame <|-down- mastermind.views.graphics.GameView
mastermind.views.graphics.GameView *-down-> mastermind.views.graphics.ProposedCombinationsView
mastermind.views.graphics.GameView *-down-> mastermind.views.graphics.SecretCombinationView
mastermind.views.graphics.GameView *-down-> mastermind.views.graphics.ProposalCombinationView
mastermind.views.graphics.GameView ..> mastermind.models.Game
mastermind.views.graphics.GameView ..> mastermind.views.graphics.Constraints

class  mastermind.views.graphics.GraphicsView{
- gameView: GameView
+ GraphicsView(Game)
# start(): void
# resume(): boolean
# propose(): boolean
}
mastermind.views.View <|-down- mastermind.views.graphics.GraphicsView
mastermind.views.graphics.GraphicsView *-down-> mastermind.views.graphics.GameView
mastermind.views.graphics.GraphicsView ..> mastermind.views.graphics.ResumeDialog
mastermind.views.graphics.GraphicsView..> mastermind.views.graphics.ProposedCombinationView

class  mastermind.views.graphics.ProposalCombinationView{
- {static} ACCEPT: String
- label: JLabel
- textField: JTextField
- button: JButton
- characters: String
~ ProposalCombinationView(JRootPane)
+ actionPerformed(ActionEvent): void
~ getCharacters(): String
~ resetCharacters(): void
+ keyPressed(KeyEvent): void
+ keyReleased(KeyEvent): void
+ keyTyped(KeyEvent): void
}
java.awt.event.KeyListener <|-down- mastermind.views.graphics.ProposalCombinationView
java.awt.event.ActionListener <|-down- mastermind.views.graphics.ProposalCombinationView
javax.swing.JPanel <|-down- mastermind.views.graphics.ProposalCombinationView
mastermind.views.graphics.ProposalCombinationView *-down-> javax.swing.JButton
mastermind.views.graphics.ProposalCombinationView *-down-> javax.swing.JTextField
mastermind.views.graphics.ProposalCombinationView *-down-> javax.swing.JLabel
mastermind.views.graphics.ProposalCombinationView ..> javax.swing.JRootPane
mastermind.views.graphics.ProposalCombinationView ..> java.awt.event.KeyEvent
mastermind.views.graphics.ProposalCombinationView ..> java.awt.event.ActionEvent
mastermind.views.graphics.ProposalCombinationView..> mastermind.views.graphics.Constraints

class  mastermind.views.graphics.ProposedCombinationsView{
~ ProposedCombinationsView()
~ add(Game): void
}
javax.swing.JPanel <|-down- mastermind.views.graphics.ProposedCombinationsView
mastermind.views.graphics.ProposedCombinationsView ..> mastermind.models.Game
mastermind.views.graphics.ProposedCombinationsView..> mastermind.views.graphics.Constraints
mastermind.views.graphics.ProposedCombinationsView..> mastermind.views.graphics.ResultView
mastermind.views.graphics.ProposedCombinationsView..> mastermind.views.graphics.TurnView
mastermind.views.graphics.ProposedCombinationsView..> mastermind.views.graphics.ProposedCombinationView

class  mastermind.views.graphics.ProposedCombinationView{
~ {static} ERROR_CODE: int
~ ProposedCombinationView(int[])
~ ProposedCombinationView()
~ read(String): int[]
}
javax.swing.JLabel <|-down- mastermind.views.graphics.ProposedCombinationView

class  mastermind.views.graphics.ResultView{
~ ResultView(int[])
}
javax.swing.JLabel <|-down- mastermind.views.graphics.ResultView

class  mastermind.views.graphics.ResumeDialog{
- resume: boolean
~ ResumeDialog()
~ isResumed(): boolean
}

class  mastermind.views.graphics.SecretCombinationView{
- {static} TITLE: String
- title: JLabel
- secretCombination: JLabel
~ SecretCombinationView(int)
}
javax.swing.JPanel <|-down- mastermind.views.graphics.SecretCombinationView
mastermind.views.graphics.SecretCombinationView *-down-> javax.swing.JLabel
mastermind.views.graphics.SecretCombinationView..> mastermind.views.graphics.Constraints

class  mastermind.views.graphics.TurnView{
~ TurnView(int)
}
javax.swing.JLabel <|-down- mastermind.views.graphics.TurnView


@enduml

PlantUML version 1.2019.05(Sat Apr 20 18:45:36 CEST 2019)
(GPL source distribution)
Java Runtime: OpenJDK Runtime Environment
JVM: OpenJDK 64-Bit Server VM
Java Version: 1.8.0_222-b10
Operating System: Windows 10
OS Version: 10.0
Default Encoding: windows-1252
Language: es
Country: ES
--></g></svg>