<?xml version="1.0" encoding="UTF-8" standalone="no"?><svg xmlns="http://www.w3.org/2000/svg" xmlns:xlink="http://www.w3.org/1999/xlink" contentScriptType="application/ecmascript" contentStyleType="text/css" height="797px" preserveAspectRatio="none" style="width:569px;height:797px;" version="1.1" viewBox="0 0 569 797" width="569px" zoomAndPan="magnify"><defs><filter height="300%" id="fbe6qgp59dzcz" width="300%" x="-1" y="-1"><feGaussianBlur result="blurOut" stdDeviation="2.0"/><feColorMatrix in="blurOut" result="blurOut2" type="matrix" values="0 0 0 0 0 0 0 0 0 0 0 0 0 0 0 0 0 0 .4 0"/><feOffset dx="4.0" dy="4.0" in="blurOut2" result="blurOut3"/><feBlend in="SourceGraphic" in2="blurOut3" mode="normal"/></filter></defs><g><!--MD5=[073ce8cb2fd2a0b2556785fe35fbd544]
cluster usantatecla.mastermind.models--><polygon fill="#FFFFFF" filter="url(#fbe6qgp59dzcz)" points="16,6,286,6,293,28.2969,511,28.2969,511,552,16,552,16,6" style="stroke:#000000;stroke-width:1.5;"/><line style="stroke:#000000;stroke-width:1.5;" x1="16" x2="293" y1="28.2969" y2="28.2969"/><text fill="#000000" font-family="sans-serif" font-size="14" font-weight="bold" lengthAdjust="spacingAndGlyphs" textLength="264" x="20" y="20.9951">usantatecla.mastermind.models</text><!--MD5=[8c0210f25e02723f65a0c6cf47cc6884]
cluster usantatecla.mastermind.types--><polygon fill="#FFFFFF" filter="url(#fbe6qgp59dzcz)" points="215,576,472,576,479,598.2969,552,598.2969,552,790,215,790,215,576" style="stroke:#000000;stroke-width:1.5;"/><line style="stroke:#000000;stroke-width:1.5;" x1="215" x2="479" y1="598.2969" y2="598.2969"/><text fill="#000000" font-family="sans-serif" font-size="14" font-weight="bold" lengthAdjust="spacingAndGlyphs" textLength="251" x="219" y="590.9951">usantatecla.mastermind.types</text><!--MD5=[9e09d6096b99d1406435ac08840c9240]
class usantatecla.mastermind.models.Combination--><rect codeLine="1" fill="#FEFECE" filter="url(#fbe6qgp59dzcz)" height="86.4141" id="usantatecla.mastermind.models.Combination" style="stroke:#A80036;stroke-width:1.5;" width="108" x="387" y="86"/><ellipse cx="402" cy="102" fill="#A9DCDF" rx="11" ry="11" style="stroke:#A80036;stroke-width:1.0;"/><path d="M404.0781,103.8125 L404.4688,104.7969 L404.0781,104.7969 C403.625,104.7969 403.5156,104.8125 403.3594,104.9219 C403.1094,105.0781 402.9531,105.3594 402.9531,105.6563 C402.9531,105.9219 403.0938,106.1719 403.3125,106.3281 C403.4531,106.4531 403.6563,106.5 404.0781,106.5 L406.4375,106.5 C406.7969,106.5 407.0156,106.4688 407.1563,106.375 C407.4063,106.2344 407.5625,105.9375 407.5625,105.6563 C407.5625,105.375 407.4219,105.125 407.2031,104.9688 C407.0313,104.8281 406.875,104.7969 406.4063,104.7969 L403.0156,96.5938 L399.3438,96.5938 C398.8906,96.5938 398.7656,96.6094 398.6094,96.7031 C398.3594,96.875 398.2031,97.1563 398.2031,97.4375 C398.2031,97.7188 398.3438,97.9688 398.5625,98.1406 C398.7344,98.25 398.9063,98.2813 399.3438,98.2813 L400.4219,98.2813 L397.7813,104.7969 C397.3594,104.7969 397.2031,104.8125 397.0469,104.9219 C396.7969,105.0781 396.6406,105.3594 396.6406,105.6563 C396.6406,106.2188 397.0156,106.5 397.7656,106.5 L400.0313,106.5 C400.3906,106.5 400.6094,106.4688 400.7344,106.375 C401,106.2344 401.1406,105.9375 401.1406,105.6563 C401.1406,105.375 401.0156,105.125 400.7969,104.9531 C400.625,104.8281 400.4844,104.7969 400.0313,104.7969 L399.6406,104.7969 L400.0313,103.8125 L404.0781,103.8125 Z M403.375,102.1094 L400.7031,102.1094 L402.0469,98.8438 L403.375,102.1094 Z " fill="#000000"/><text fill="#000000" font-family="sans-serif" font-size="12" font-style="italic" lengthAdjust="spacingAndGlyphs" textLength="76" x="416" y="106.1543">Combination</text><line style="stroke:#A80036;stroke-width:1.5;" x1="388" x2="494" y1="118" y2="118"/><rect fill="none" height="6" style="stroke:#C82930;stroke-width:1.0;" width="6" x="395" y="126"/><text fill="#000000" font-family="sans-serif" font-size="11" lengthAdjust="spacingAndGlyphs" text-decoration="underline" textLength="59" x="407" y="132.2104">WIDTH: int</text><line style="stroke:#A80036;stroke-width:1.5;" x1="388" x2="494" y1="138.8047" y2="138.8047"/><polygon fill="#FFFF44" points="398,144.8047,402,148.8047,398,152.8047,394,148.8047" style="stroke:#B38D22;stroke-width:1.0;"/><text fill="#000000" font-family="sans-serif" font-size="11" lengthAdjust="spacingAndGlyphs" textLength="79" x="407" y="153.0151">Combination()</text><ellipse cx="398" cy="162.6094" fill="#84BE84" rx="3" ry="3" style="stroke:#038048;stroke-width:1.0;"/><text fill="#000000" font-family="sans-serif" font-size="11" lengthAdjust="spacingAndGlyphs" text-decoration="underline" textLength="80" x="407" y="165.8198">getWidth(): int</text><!--MD5=[133b2a20d5a8d4980692cee85e8c0684]
class usantatecla.mastermind.models.Game--><rect codeLine="8" fill="#FEFECE" filter="url(#fbe6qgp59dzcz)" height="176.0469" id="usantatecla.mastermind.models.Game" style="stroke:#A80036;stroke-width:1.5;" width="320" x="32" y="41"/><ellipse cx="170.25" cy="57" fill="#ADD1B2" rx="11" ry="11" style="stroke:#A80036;stroke-width:1.0;"/><path d="M172.5938,52.6719 C171.6563,52.2344 171.0625,52.0938 170.1875,52.0938 C167.5625,52.0938 165.5625,54.1719 165.5625,56.8906 L165.5625,58.0156 C165.5625,60.5938 167.6719,62.4844 170.5625,62.4844 C171.7813,62.4844 172.9375,62.1875 173.6875,61.6406 C174.2656,61.2344 174.5938,60.7813 174.5938,60.3906 C174.5938,59.9375 174.2031,59.5469 173.7344,59.5469 C173.5156,59.5469 173.3125,59.625 173.125,59.8125 C172.6719,60.2969 172.6719,60.2969 172.4844,60.3906 C172.0625,60.6563 171.375,60.7813 170.6094,60.7813 C168.5625,60.7813 167.2656,59.6875 167.2656,57.9844 L167.2656,56.8906 C167.2656,55.1094 168.5156,53.7969 170.25,53.7969 C170.8281,53.7969 171.4375,53.9531 171.9063,54.2031 C172.3906,54.4844 172.5625,54.7031 172.6563,55.1094 C172.7188,55.5156 172.75,55.6406 172.8906,55.7656 C173.0313,55.9063 173.2656,56.0156 173.4844,56.0156 C173.75,56.0156 174.0156,55.875 174.1875,55.6563 C174.2969,55.5 174.3281,55.3125 174.3281,54.8906 L174.3281,53.4688 C174.3281,53.0313 174.3125,52.9063 174.2188,52.75 C174.0625,52.4844 173.7813,52.3438 173.4844,52.3438 C173.1875,52.3438 172.9844,52.4375 172.7656,52.75 L172.5938,52.6719 Z " fill="#000000"/><text fill="#000000" font-family="sans-serif" font-size="12" lengthAdjust="spacingAndGlyphs" textLength="35" x="190.75" y="61.1543">Game</text><line style="stroke:#A80036;stroke-width:1.5;" x1="33" x2="351" y1="73" y2="73"/><rect fill="none" height="6" style="stroke:#C82930;stroke-width:1.0;" width="6" x="40" y="81"/><text fill="#000000" font-family="sans-serif" font-size="11" lengthAdjust="spacingAndGlyphs" text-decoration="underline" textLength="84" x="52" y="87.2104">MAX_LONG: int</text><rect fill="none" height="6" style="stroke:#C82930;stroke-width:1.0;" width="6" x="40" y="93.8047"/><text fill="#000000" font-family="sans-serif" font-size="11" lengthAdjust="spacingAndGlyphs" textLength="72" x="52" y="100.0151">attempts: int</text><line style="stroke:#A80036;stroke-width:1.5;" x1="33" x2="351" y1="106.6094" y2="106.6094"/><ellipse cx="43" cy="117.6094" fill="#84BE84" rx="3" ry="3" style="stroke:#038048;stroke-width:1.0;"/><text fill="#000000" font-family="sans-serif" font-size="11" lengthAdjust="spacingAndGlyphs" textLength="43" x="52" y="120.8198">Game()</text><ellipse cx="43" cy="130.4141" fill="#84BE84" rx="3" ry="3" style="stroke:#038048;stroke-width:1.0;"/><text fill="#000000" font-family="sans-serif" font-size="11" lengthAdjust="spacingAndGlyphs" textLength="36" x="52" y="133.6245">clear()</text><ellipse cx="43" cy="143.2188" fill="#84BE84" rx="3" ry="3" style="stroke:#038048;stroke-width:1.0;"/><text fill="#000000" font-family="sans-serif" font-size="11" lengthAdjust="spacingAndGlyphs" textLength="268" x="52" y="146.4292">addProposeCombination(ProposedCombination)</text><ellipse cx="43" cy="156.0234" fill="#84BE84" rx="3" ry="3" style="stroke:#038048;stroke-width:1.0;"/><text fill="#000000" font-family="sans-serif" font-size="11" lengthAdjust="spacingAndGlyphs" textLength="108" x="52" y="159.2339">isLooser(): boolean</text><ellipse cx="43" cy="168.8281" fill="#84BE84" rx="3" ry="3" style="stroke:#038048;stroke-width:1.0;"/><text fill="#000000" font-family="sans-serif" font-size="11" lengthAdjust="spacingAndGlyphs" textLength="110" x="52" y="172.0386">isWinner(): boolean</text><ellipse cx="43" cy="181.6328" fill="#84BE84" rx="3" ry="3" style="stroke:#038048;stroke-width:1.0;"/><text fill="#000000" font-family="sans-serif" font-size="11" lengthAdjust="spacingAndGlyphs" textLength="100" x="52" y="184.8433">getAttempts(): int</text><ellipse cx="43" cy="194.4375" fill="#84BE84" rx="3" ry="3" style="stroke:#038048;stroke-width:1.0;"/><text fill="#000000" font-family="sans-serif" font-size="11" lengthAdjust="spacingAndGlyphs" textLength="294" x="52" y="197.6479">getProposedCombination(int): ProposedCombination</text><ellipse cx="43" cy="207.2422" fill="#84BE84" rx="3" ry="3" style="stroke:#038048;stroke-width:1.0;"/><text fill="#000000" font-family="sans-serif" font-size="11" lengthAdjust="spacingAndGlyphs" textLength="118" x="52" y="210.4526">getResult(int): Result</text><!--MD5=[a212aeeb69ab78e602f8fa1f3e5ba19f]
class usantatecla.mastermind.models.SecretCombination--><rect codeLine="33" fill="#FEFECE" filter="url(#fbe6qgp59dzcz)" height="73.6094" id="usantatecla.mastermind.models.SecretCombination" style="stroke:#A80036;stroke-width:1.5;" width="253" x="204.5" y="277"/><ellipse cx="269.75" cy="293" fill="#ADD1B2" rx="11" ry="11" style="stroke:#A80036;stroke-width:1.0;"/><path d="M272.0938,288.6719 C271.1563,288.2344 270.5625,288.0938 269.6875,288.0938 C267.0625,288.0938 265.0625,290.1719 265.0625,292.8906 L265.0625,294.0156 C265.0625,296.5938 267.1719,298.4844 270.0625,298.4844 C271.2813,298.4844 272.4375,298.1875 273.1875,297.6406 C273.7656,297.2344 274.0938,296.7813 274.0938,296.3906 C274.0938,295.9375 273.7031,295.5469 273.2344,295.5469 C273.0156,295.5469 272.8125,295.625 272.625,295.8125 C272.1719,296.2969 272.1719,296.2969 271.9844,296.3906 C271.5625,296.6563 270.875,296.7813 270.1094,296.7813 C268.0625,296.7813 266.7656,295.6875 266.7656,293.9844 L266.7656,292.8906 C266.7656,291.1094 268.0156,289.7969 269.75,289.7969 C270.3281,289.7969 270.9375,289.9531 271.4063,290.2031 C271.8906,290.4844 272.0625,290.7031 272.1563,291.1094 C272.2188,291.5156 272.25,291.6406 272.3906,291.7656 C272.5313,291.9063 272.7656,292.0156 272.9844,292.0156 C273.25,292.0156 273.5156,291.875 273.6875,291.6563 C273.7969,291.5 273.8281,291.3125 273.8281,290.8906 L273.8281,289.4688 C273.8281,289.0313 273.8125,288.9063 273.7188,288.75 C273.5625,288.4844 273.2813,288.3438 272.9844,288.3438 C272.6875,288.3438 272.4844,288.4375 272.2656,288.75 L272.0938,288.6719 Z " fill="#000000"/><text fill="#000000" font-family="sans-serif" font-size="12" lengthAdjust="spacingAndGlyphs" textLength="114" x="290.25" y="297.1543">SecretCombination</text><line style="stroke:#A80036;stroke-width:1.5;" x1="205.5" x2="456.5" y1="309" y2="309"/><line style="stroke:#A80036;stroke-width:1.5;" x1="205.5" x2="456.5" y1="317" y2="317"/><polygon fill="#4177AF" points="215.5,324,211.5,330,219.5,330" style="stroke:#1963A0;stroke-width:1.0;"/><text fill="#000000" font-family="sans-serif" font-size="11" lengthAdjust="spacingAndGlyphs" textLength="117" x="224.5" y="331.2104">SecretCombination()</text><polygon fill="#4177AF" points="215.5,336.8047,211.5,342.8047,219.5,342.8047" style="stroke:#1963A0;stroke-width:1.0;"/><text fill="#000000" font-family="sans-serif" font-size="11" lengthAdjust="spacingAndGlyphs" textLength="227" x="224.5" y="344.0151">getResult(ProposedCombination): Result</text><!--MD5=[f33d10797af0f3b71126f0e937fc2775]
class usantatecla.mastermind.models.Result--><rect codeLine="42" fill="#FEFECE" filter="url(#fbe6qgp59dzcz)" height="124.8281" id="usantatecla.mastermind.models.Result" style="stroke:#A80036;stroke-width:1.5;" width="136" x="69" y="411"/><ellipse cx="114.75" cy="427" fill="#ADD1B2" rx="11" ry="11" style="stroke:#A80036;stroke-width:1.0;"/><path d="M117.0938,422.6719 C116.1563,422.2344 115.5625,422.0938 114.6875,422.0938 C112.0625,422.0938 110.0625,424.1719 110.0625,426.8906 L110.0625,428.0156 C110.0625,430.5938 112.1719,432.4844 115.0625,432.4844 C116.2813,432.4844 117.4375,432.1875 118.1875,431.6406 C118.7656,431.2344 119.0938,430.7813 119.0938,430.3906 C119.0938,429.9375 118.7031,429.5469 118.2344,429.5469 C118.0156,429.5469 117.8125,429.625 117.625,429.8125 C117.1719,430.2969 117.1719,430.2969 116.9844,430.3906 C116.5625,430.6563 115.875,430.7813 115.1094,430.7813 C113.0625,430.7813 111.7656,429.6875 111.7656,427.9844 L111.7656,426.8906 C111.7656,425.1094 113.0156,423.7969 114.75,423.7969 C115.3281,423.7969 115.9375,423.9531 116.4063,424.2031 C116.8906,424.4844 117.0625,424.7031 117.1563,425.1094 C117.2188,425.5156 117.25,425.6406 117.3906,425.7656 C117.5313,425.9063 117.7656,426.0156 117.9844,426.0156 C118.25,426.0156 118.5156,425.875 118.6875,425.6563 C118.7969,425.5 118.8281,425.3125 118.8281,424.8906 L118.8281,423.4688 C118.8281,423.0313 118.8125,422.9063 118.7188,422.75 C118.5625,422.4844 118.2813,422.3438 117.9844,422.3438 C117.6875,422.3438 117.4844,422.4375 117.2656,422.75 L117.0938,422.6719 Z " fill="#000000"/><text fill="#000000" font-family="sans-serif" font-size="12" lengthAdjust="spacingAndGlyphs" textLength="36" x="135.25" y="431.1543">Result</text><line style="stroke:#A80036;stroke-width:1.5;" x1="70" x2="204" y1="443" y2="443"/><rect fill="none" height="6" style="stroke:#C82930;stroke-width:1.0;" width="6" x="77" y="451"/><text fill="#000000" font-family="sans-serif" font-size="11" lengthAdjust="spacingAndGlyphs" textLength="56" x="89" y="457.2104">blacks: int</text><rect fill="none" height="6" style="stroke:#C82930;stroke-width:1.0;" width="6" x="77" y="463.8047"/><text fill="#000000" font-family="sans-serif" font-size="11" lengthAdjust="spacingAndGlyphs" textLength="58" x="89" y="470.0151">whites: int</text><line style="stroke:#A80036;stroke-width:1.5;" x1="70" x2="204" y1="476.6094" y2="476.6094"/><polygon fill="#4177AF" points="80,483.6094,76,489.6094,84,489.6094" style="stroke:#1963A0;stroke-width:1.0;"/><text fill="#000000" font-family="sans-serif" font-size="11" lengthAdjust="spacingAndGlyphs" textLength="78" x="89" y="490.8198">Result(int, int)</text><polygon fill="#4177AF" points="80,496.4141,76,502.4141,84,502.4141" style="stroke:#1963A0;stroke-width:1.0;"/><text fill="#000000" font-family="sans-serif" font-size="11" lengthAdjust="spacingAndGlyphs" textLength="110" x="89" y="503.6245">isWinner(): boolean</text><ellipse cx="80" cy="513.2188" fill="#84BE84" rx="3" ry="3" style="stroke:#038048;stroke-width:1.0;"/><text fill="#000000" font-family="sans-serif" font-size="11" lengthAdjust="spacingAndGlyphs" textLength="84" x="89" y="516.4292">getBlacks(): int</text><ellipse cx="80" cy="526.0234" fill="#84BE84" rx="3" ry="3" style="stroke:#038048;stroke-width:1.0;"/><text fill="#000000" font-family="sans-serif" font-size="11" lengthAdjust="spacingAndGlyphs" textLength="87" x="89" y="529.2339">getWhites(): int</text><!--MD5=[29c0d014c840bf5e3383a02197df5a5a]
class usantatecla.mastermind.models.ProposedCombination--><rect codeLine="24" fill="#FEFECE" filter="url(#fbe6qgp59dzcz)" height="99.2188" id="usantatecla.mastermind.models.ProposedCombination" style="stroke:#A80036;stroke-width:1.5;" width="184" x="240" y="424"/><ellipse cx="264" cy="440" fill="#ADD1B2" rx="11" ry="11" style="stroke:#A80036;stroke-width:1.0;"/><path d="M266.3438,435.6719 C265.4063,435.2344 264.8125,435.0938 263.9375,435.0938 C261.3125,435.0938 259.3125,437.1719 259.3125,439.8906 L259.3125,441.0156 C259.3125,443.5938 261.4219,445.4844 264.3125,445.4844 C265.5313,445.4844 266.6875,445.1875 267.4375,444.6406 C268.0156,444.2344 268.3438,443.7813 268.3438,443.3906 C268.3438,442.9375 267.9531,442.5469 267.4844,442.5469 C267.2656,442.5469 267.0625,442.625 266.875,442.8125 C266.4219,443.2969 266.4219,443.2969 266.2344,443.3906 C265.8125,443.6563 265.125,443.7813 264.3594,443.7813 C262.3125,443.7813 261.0156,442.6875 261.0156,440.9844 L261.0156,439.8906 C261.0156,438.1094 262.2656,436.7969 264,436.7969 C264.5781,436.7969 265.1875,436.9531 265.6563,437.2031 C266.1406,437.4844 266.3125,437.7031 266.4063,438.1094 C266.4688,438.5156 266.5,438.6406 266.6406,438.7656 C266.7813,438.9063 267.0156,439.0156 267.2344,439.0156 C267.5,439.0156 267.7656,438.875 267.9375,438.6563 C268.0469,438.5 268.0781,438.3125 268.0781,437.8906 L268.0781,436.4688 C268.0781,436.0313 268.0625,435.9063 267.9688,435.75 C267.8125,435.4844 267.5313,435.3438 267.2344,435.3438 C266.9375,435.3438 266.7344,435.4375 266.5156,435.75 L266.3438,435.6719 Z " fill="#000000"/><text fill="#000000" font-family="sans-serif" font-size="12" lengthAdjust="spacingAndGlyphs" textLength="132" x="280" y="444.1543">ProposedCombination</text><line style="stroke:#A80036;stroke-width:1.5;" x1="241" x2="423" y1="456" y2="456"/><line style="stroke:#A80036;stroke-width:1.5;" x1="241" x2="423" y1="464" y2="464"/><ellipse cx="251" cy="475" fill="#84BE84" rx="3" ry="3" style="stroke:#038048;stroke-width:1.0;"/><text fill="#000000" font-family="sans-serif" font-size="11" lengthAdjust="spacingAndGlyphs" textLength="131" x="260" y="478.2104">ProposedCombination()</text><polygon fill="#4177AF" points="251,483.8047,247,489.8047,255,489.8047" style="stroke:#1963A0;stroke-width:1.0;"/><text fill="#000000" font-family="sans-serif" font-size="11" lengthAdjust="spacingAndGlyphs" textLength="158" x="260" y="491.0151">contains(Color, int): boolean</text><polygon fill="#4177AF" points="251,496.6094,247,502.6094,255,502.6094" style="stroke:#1963A0;stroke-width:1.0;"/><text fill="#000000" font-family="sans-serif" font-size="11" lengthAdjust="spacingAndGlyphs" textLength="137" x="260" y="503.8198">contains(Color): boolean</text><ellipse cx="251" cy="513.4141" fill="#84BE84" rx="3" ry="3" style="stroke:#038048;stroke-width:1.0;"/><text fill="#000000" font-family="sans-serif" font-size="11" lengthAdjust="spacingAndGlyphs" textLength="135" x="260" y="516.6245">getColors(): List&lt;Color&gt;</text><!--MD5=[9ba97027f3433c7bc0635c95b0f40e9e]
class usantatecla.mastermind.types.Color--><rect codeLine="53" fill="#FEFECE" filter="url(#fbe6qgp59dzcz)" height="163.2422" id="usantatecla.mastermind.types.Color" style="stroke:#A80036;stroke-width:1.5;" width="117" x="418.5" y="611"/><ellipse cx="457.35" cy="627" fill="#EB937F" rx="11" ry="11" style="stroke:#A80036;stroke-width:1.0;"/><path d="M456.1469,627.875 L457.6,627.875 L457.6,627.9844 C457.6,628.3906 457.6313,628.5469 457.7094,628.7031 C457.8656,628.9531 458.1469,629.1094 458.4438,629.1094 C458.6938,629.1094 458.9594,628.9688 459.1156,628.75 C459.2406,628.5938 459.2719,628.4375 459.2719,627.9844 L459.2719,626.0625 C459.2719,625.9063 459.2719,625.8594 459.2563,625.7031 C459.1938,625.2344 458.8813,624.9219 458.4281,624.9219 C458.1781,624.9219 457.9125,625.0625 457.7406,625.2813 C457.6313,625.4531 457.6,625.6094 457.6,626.0625 L457.6,626.1875 L456.1469,626.1875 L456.1469,623.7813 L460.1313,623.7813 L460.1313,624.6406 C460.1313,625.0469 460.1625,625.2188 460.2406,625.375 C460.4125,625.625 460.6938,625.7813 460.975,625.7813 C461.2406,625.7813 461.5063,625.6406 461.6781,625.4219 C461.7875,625.25 461.8188,625.1094 461.8188,624.6406 L461.8188,622.0938 L454.1938,622.0938 C453.7563,622.0938 453.6313,622.1094 453.475,622.2031 C453.225,622.3594 453.0688,622.6563 453.0688,622.9375 C453.0688,623.2188 453.2094,623.4688 453.4281,623.6406 C453.5844,623.75 453.7719,623.7813 454.1938,623.7813 L454.4438,623.7813 L454.4438,630.2969 L454.1938,630.2969 C453.7875,630.2969 453.6313,630.3125 453.475,630.4219 C453.225,630.5938 453.0688,630.8594 453.0688,631.1563 C453.0688,631.4219 453.2094,631.6719 453.4281,631.8281 C453.5688,631.9531 453.8031,632 454.1938,632 L462.1938,632 L462.1938,629.4219 C462.1938,628.9844 462.1625,628.8438 462.0844,628.6875 C461.9125,628.4375 461.6313,628.2813 461.35,628.2813 C461.0844,628.2813 460.8188,628.3906 460.6469,628.6406 C460.5375,628.7969 460.5063,628.9375 460.5063,629.4219 L460.5063,630.2969 L456.1469,630.2969 L456.1469,627.875 Z " fill="#000000"/><text fill="#000000" font-family="sans-serif" font-size="12" lengthAdjust="spacingAndGlyphs" textLength="32" x="476.65" y="631.1543">Color</text><line style="stroke:#A80036;stroke-width:1.5;" x1="419.5" x2="534.5" y1="643" y2="643"/><ellipse cx="429.5" cy="654" fill="none" rx="3" ry="3" style="stroke:#038048;stroke-width:1.0;"/><text fill="#000000" font-family="sans-serif" font-size="11" lengthAdjust="spacingAndGlyphs" textLength="23" x="438.5" y="657.2104">RED</text><ellipse cx="429.5" cy="666.8047" fill="none" rx="3" ry="3" style="stroke:#038048;stroke-width:1.0;"/><text fill="#000000" font-family="sans-serif" font-size="11" lengthAdjust="spacingAndGlyphs" textLength="29" x="438.5" y="670.0151">BLUE</text><ellipse cx="429.5" cy="679.6094" fill="none" rx="3" ry="3" style="stroke:#038048;stroke-width:1.0;"/><text fill="#000000" font-family="sans-serif" font-size="11" lengthAdjust="spacingAndGlyphs" textLength="46" x="438.5" y="682.8198">YELLOW</text><ellipse cx="429.5" cy="692.4141" fill="none" rx="3" ry="3" style="stroke:#038048;stroke-width:1.0;"/><text fill="#000000" font-family="sans-serif" font-size="11" lengthAdjust="spacingAndGlyphs" textLength="38" x="438.5" y="695.6245">GREEN</text><ellipse cx="429.5" cy="705.2188" fill="none" rx="3" ry="3" style="stroke:#038048;stroke-width:1.0;"/><text fill="#000000" font-family="sans-serif" font-size="11" lengthAdjust="spacingAndGlyphs" textLength="48" x="438.5" y="708.4292">ORANGE</text><ellipse cx="429.5" cy="718.0234" fill="none" rx="3" ry="3" style="stroke:#038048;stroke-width:1.0;"/><text fill="#000000" font-family="sans-serif" font-size="11" lengthAdjust="spacingAndGlyphs" textLength="40" x="438.5" y="721.2339">PURPLE</text><ellipse cx="429.5" cy="730.8281" fill="none" rx="3" ry="3" style="stroke:#038048;stroke-width:1.0;"/><text fill="#000000" font-family="sans-serif" font-size="11" lengthAdjust="spacingAndGlyphs" textLength="28" x="438.5" y="734.0386">NULL</text><line style="stroke:#A80036;stroke-width:1.5;" x1="419.5" x2="534.5" y1="740.6328" y2="740.6328"/><polygon fill="#4177AF" points="429.5,747.6328,425.5,753.6328,433.5,753.6328" style="stroke:#1963A0;stroke-width:1.0;"/><text fill="#000000" font-family="sans-serif" font-size="11" lengthAdjust="spacingAndGlyphs" text-decoration="underline" textLength="65" x="438.5" y="754.8433">length(): int</text><ellipse cx="429.5" cy="764.4375" fill="#84BE84" rx="3" ry="3" style="stroke:#038048;stroke-width:1.0;"/><text fill="#000000" font-family="sans-serif" font-size="11" lengthAdjust="spacingAndGlyphs" textLength="91" x="438.5" y="767.6479">isNull(): boolean</text><!--MD5=[361325273302787e4c8f3934acbb17be]
class usantatecla.mastermind.types.Error--><rect codeLine="65" fill="#FEFECE" filter="url(#fbe6qgp59dzcz)" height="112.0234" id="usantatecla.mastermind.types.Error" style="stroke:#A80036;stroke-width:1.5;" width="152" x="231" y="636.5"/><ellipse cx="287.75" cy="652.5" fill="#EB937F" rx="11" ry="11" style="stroke:#A80036;stroke-width:1.0;"/><path d="M286.5469,653.375 L288,653.375 L288,653.4844 C288,653.8906 288.0313,654.0469 288.1094,654.2031 C288.2656,654.4531 288.5469,654.6094 288.8438,654.6094 C289.0938,654.6094 289.3594,654.4688 289.5156,654.25 C289.6406,654.0938 289.6719,653.9375 289.6719,653.4844 L289.6719,651.5625 C289.6719,651.4063 289.6719,651.3594 289.6563,651.2031 C289.5938,650.7344 289.2813,650.4219 288.8281,650.4219 C288.5781,650.4219 288.3125,650.5625 288.1406,650.7813 C288.0313,650.9531 288,651.1094 288,651.5625 L288,651.6875 L286.5469,651.6875 L286.5469,649.2813 L290.5313,649.2813 L290.5313,650.1406 C290.5313,650.5469 290.5625,650.7188 290.6406,650.875 C290.8125,651.125 291.0938,651.2813 291.375,651.2813 C291.6406,651.2813 291.9063,651.1406 292.0781,650.9219 C292.1875,650.75 292.2188,650.6094 292.2188,650.1406 L292.2188,647.5938 L284.5938,647.5938 C284.1563,647.5938 284.0313,647.6094 283.875,647.7031 C283.625,647.8594 283.4688,648.1563 283.4688,648.4375 C283.4688,648.7188 283.6094,648.9688 283.8281,649.1406 C283.9844,649.25 284.1719,649.2813 284.5938,649.2813 L284.8438,649.2813 L284.8438,655.7969 L284.5938,655.7969 C284.1875,655.7969 284.0313,655.8125 283.875,655.9219 C283.625,656.0938 283.4688,656.3594 283.4688,656.6563 C283.4688,656.9219 283.6094,657.1719 283.8281,657.3281 C283.9688,657.4531 284.2031,657.5 284.5938,657.5 L292.5938,657.5 L292.5938,654.9219 C292.5938,654.4844 292.5625,654.3438 292.4844,654.1875 C292.3125,653.9375 292.0313,653.7813 291.75,653.7813 C291.4844,653.7813 291.2188,653.8906 291.0469,654.1406 C290.9375,654.2969 290.9063,654.4375 290.9063,654.9219 L290.9063,655.7969 L286.5469,655.7969 L286.5469,653.375 Z " fill="#000000"/><text fill="#000000" font-family="sans-serif" font-size="12" lengthAdjust="spacingAndGlyphs" textLength="30" x="308.25" y="656.6543">Error</text><line style="stroke:#A80036;stroke-width:1.5;" x1="232" x2="382" y1="668.5" y2="668.5"/><ellipse cx="242" cy="679.5" fill="none" rx="3" ry="3" style="stroke:#038048;stroke-width:1.0;"/><text fill="#000000" font-family="sans-serif" font-size="11" lengthAdjust="spacingAndGlyphs" textLength="71" x="251" y="682.7104">DUPLICATED</text><ellipse cx="242" cy="692.3047" fill="none" rx="3" ry="3" style="stroke:#038048;stroke-width:1.0;"/><text fill="#000000" font-family="sans-serif" font-size="11" lengthAdjust="spacingAndGlyphs" textLength="126" x="251" y="695.5151">WRONG_CHARACTERS</text><ellipse cx="242" cy="705.1094" fill="none" rx="3" ry="3" style="stroke:#038048;stroke-width:1.0;"/><text fill="#000000" font-family="sans-serif" font-size="11" lengthAdjust="spacingAndGlyphs" textLength="95" x="251" y="708.3198">WRONG_LENGTH</text><ellipse cx="242" cy="717.9141" fill="none" rx="3" ry="3" style="stroke:#038048;stroke-width:1.0;"/><text fill="#000000" font-family="sans-serif" font-size="11" lengthAdjust="spacingAndGlyphs" textLength="28" x="251" y="721.1245">NULL</text><line style="stroke:#A80036;stroke-width:1.5;" x1="232" x2="382" y1="727.7188" y2="727.7188"/><ellipse cx="242" cy="738.7188" fill="#84BE84" rx="3" ry="3" style="stroke:#038048;stroke-width:1.0;"/><text fill="#000000" font-family="sans-serif" font-size="11" lengthAdjust="spacingAndGlyphs" textLength="91" x="251" y="741.9292">isNull(): boolean</text><!--MD5=[695784cf58eb370cc2c2d12b8251ec79]
link usantatecla.mastermind.models.Combination to usantatecla.mastermind.types.Color--><path codeLine="6" d="M463.8428,183.3134 C463.8428,183.3134 485.797,245.546 491,277 C509.032,386.012 500.415,513.273 490.619,597.734 " fill="none" id="usantatecla.mastermind.models.Combination-usantatecla.mastermind.types.Color" style="stroke:#A80036;stroke-width:1.0;"/><polygon fill="#A80036" points="489.073,610.653,494.1139,602.1919,489.667,605.6884,486.1705,601.2415,489.073,610.653" style="stroke:#A80036;stroke-width:1.0;"/><line style="stroke:#A80036;stroke-width:1.0;" x1="489.667" x2="490.6175" y1="605.6884" y2="597.7455"/><polygon fill="#A80036" points="459.461,172.142,457.9281,179.1883,463.8428,183.3134,465.3757,176.2671,459.461,172.142" style="stroke:#A80036;stroke-width:1.0;"/><text fill="#000000" font-family="sans-serif" font-size="13" lengthAdjust="spacingAndGlyphs" textLength="7" x="482.8097" y="600.0369">*</text><!--MD5=[12c828a60891e76557ccb918ce156a05]
link usantatecla.mastermind.models.Game to usantatecla.mastermind.models.SecretCombination--><path codeLine="20" d="M265.5009,226.7683 C265.5009,226.7683 286.516,254.435 295.473,266.227 " fill="none" id="usantatecla.mastermind.models.Game-usantatecla.mastermind.models.SecretCombination" style="stroke:#A80036;stroke-width:1.0;"/><polygon fill="#A80036" points="303.393,276.654,301.135,267.0675,300.3689,272.6722,294.7641,271.9061,303.393,276.654" style="stroke:#A80036;stroke-width:1.0;"/><line style="stroke:#A80036;stroke-width:1.0;" x1="300.3689" x2="295.5295" y1="272.6722" y2="266.301"/><polygon fill="#A80036" points="258.243,217.212,258.6865,224.4095,265.5009,226.7683,265.0574,219.5709,258.243,217.212" style="stroke:#A80036;stroke-width:1.0;"/><!--MD5=[280ea308128396330f7bbc2193cef62d]
link usantatecla.mastermind.models.Game to usantatecla.mastermind.models.Result--><path codeLine="21" d="M138.0539,228.1231 C138.0539,228.1231 125.588,261.118 122,277 C113.147,316.183 115.643,360.784 120.907,397.482 " fill="none" id="usantatecla.mastermind.models.Game-usantatecla.mastermind.models.Result" style="stroke:#A80036;stroke-width:1.0;"/><polygon fill="#A80036" points="122.955,410.62,125.5206,401.1112,122.1846,405.6797,117.6161,402.3438,122.955,410.62" style="stroke:#A80036;stroke-width:1.0;"/><line style="stroke:#A80036;stroke-width:1.0;" x1="122.1846" x2="120.9525" y1="405.6797" y2="397.775"/><polygon fill="#A80036" points="142.801,217.102,136.7538,221.0302,138.0539,228.1231,144.1012,224.1949,142.801,217.102" style="stroke:#A80036;stroke-width:1.0;"/><text fill="#000000" font-family="sans-serif" font-size="13" lengthAdjust="spacingAndGlyphs" textLength="23" x="97.1611" y="400.0057">0..*</text><!--MD5=[e6a772672154e2b4215389ae3fc2764d]
link usantatecla.mastermind.models.Game to usantatecla.mastermind.models.ProposedCombination--><path codeLine="22" d="M171.3126,229.0463 C171.3126,229.0463 169.72,313.975 187,351 C198.691,376.05 218.37,397.762 239.519,415.623 " fill="none" id="usantatecla.mastermind.models.Game-usantatecla.mastermind.models.ProposedCombination" style="stroke:#A80036;stroke-width:1.0;"/><polygon fill="#A80036" points="249.652,423.817,245.169,415.0476,245.7641,420.6731,240.1387,421.2682,249.652,423.817" style="stroke:#A80036;stroke-width:1.0;"/><line style="stroke:#A80036;stroke-width:1.0;" x1="245.7641" x2="239.543" y1="420.6731" y2="415.643"/><polygon fill="#A80036" points="172.576,217.113,167.9666,222.6585,171.3126,229.0463,175.9221,223.5008,172.576,217.113" style="stroke:#A80036;stroke-width:1.0;"/><text fill="#000000" font-family="sans-serif" font-size="13" lengthAdjust="spacingAndGlyphs" textLength="23" x="213.4546" y="412.8365">0..*</text><!--MD5=[c8e3115d06e825a18a556418b72e64a9]
reverse link usantatecla.mastermind.models.Combination to usantatecla.mastermind.models.ProposedCombination--><path codeLine="30" d="M468.437,191.124 C484.85,237.02 498.406,300.4 475,351 C461.597,379.976 437.499,404.573 412.86,423.897 " fill="none" id="usantatecla.mastermind.models.Combination-backto-usantatecla.mastermind.models.ProposedCombination" style="stroke:#A80036;stroke-width:1.0;"/><polygon fill="none" points="461.845,193.484,461.2,172.304,474.912,188.459,461.845,193.484" style="stroke:#A80036;stroke-width:1.0;"/><!--MD5=[2ea52f716e2e11a1bf08ec742181724b]
link usantatecla.mastermind.models.ProposedCombination to usantatecla.mastermind.types.Color--><path codeLine="31" d="M368.31,523.045 C378.753,537.374 390.015,553.188 400,568 C408.311,580.329 416.871,593.516 425.124,606.515 " fill="none" id="usantatecla.mastermind.models.ProposedCombination-to-usantatecla.mastermind.types.Color" style="stroke:#A80036;stroke-width:1.0;stroke-dasharray:7.0,7.0;"/><polygon fill="#A80036" points="427.911,610.914,426.4743,601.1705,425.2355,606.6901,419.7159,605.4513,427.911,610.914" style="stroke:#A80036;stroke-width:1.0;"/><!--MD5=[c1581850849ed6ede223799cd35a067f]
reverse link usantatecla.mastermind.models.Combination to usantatecla.mastermind.models.SecretCombination--><path codeLine="37" d="M405.15,189.642 C387.828,218.458 367.612,252.092 352.667,276.954 " fill="none" id="usantatecla.mastermind.models.Combination-backto-usantatecla.mastermind.models.SecretCombination" style="stroke:#A80036;stroke-width:1.0;"/><polygon fill="none" points="399.184,185.979,415.487,172.444,411.183,193.192,399.184,185.979" style="stroke:#A80036;stroke-width:1.0;"/><!--MD5=[37df5b907d636f1fcade6857244b0a7e]
link usantatecla.mastermind.models.SecretCombination to usantatecla.mastermind.models.Result--><path codeLine="38" d="M286.492,351.134 C263.663,369.668 235.281,392.71 209.401,413.721 " fill="none" id="usantatecla.mastermind.models.SecretCombination-to-usantatecla.mastermind.models.Result" style="stroke:#A80036;stroke-width:1.0;stroke-dasharray:7.0,7.0;"/><polygon fill="#A80036" points="205.27,417.074,214.7787,414.5081,209.1522,413.9231,209.7373,408.2966,205.27,417.074" style="stroke:#A80036;stroke-width:1.0;"/><!--MD5=[be5e6334e25a1733719410e897fbe715]
link usantatecla.mastermind.models.SecretCombination to usantatecla.mastermind.models.ProposedCombination--><path codeLine="39" d="M331.229,351.134 C331.357,371.229 331.518,396.622 331.66,418.981 " fill="none" id="usantatecla.mastermind.models.SecretCombination-to-usantatecla.mastermind.models.ProposedCombination" style="stroke:#A80036;stroke-width:1.0;stroke-dasharray:7.0,7.0;"/><polygon fill="#A80036" points="331.692,423.998,335.6328,414.9719,331.6591,418.9981,327.6329,415.0245,331.692,423.998" style="stroke:#A80036;stroke-width:1.0;"/><!--MD5=[5ad286f9c8779d13f70a16acb15e8d92]
link usantatecla.mastermind.models.SecretCombination to usantatecla.mastermind.types.Color--><path codeLine="40" d="M387.293,351.068 C407.508,366.96 428.404,387.411 441,411 C472.877,470.698 480.863,547.43 481.445,605.545 " fill="none" id="usantatecla.mastermind.models.SecretCombination-to-usantatecla.mastermind.types.Color" style="stroke:#A80036;stroke-width:1.0;stroke-dasharray:7.0,7.0;"/><polygon fill="#A80036" points="481.478,610.755,485.4214,601.73,481.4466,605.7551,477.4215,601.7803,481.478,610.755" style="stroke:#A80036;stroke-width:1.0;"/><!--MD5=[6f6994a70a46872d34bd35a5dd21f76b]
link usantatecla.mastermind.models.Result to usantatecla.mastermind.models.Combination--><path codeLine="51" d="M137.831,410.989 C141.62,368.344 153.399,312.969 187,277 C245.141,214.761 298.655,265.018 369,217 C384.837,206.189 399.083,190.94 410.641,176.222 " fill="none" id="usantatecla.mastermind.models.Result-to-usantatecla.mastermind.models.Combination" style="stroke:#A80036;stroke-width:1.0;stroke-dasharray:7.0,7.0;"/><polygon fill="#A80036" points="413.829,172.089,405.1661,176.7746,410.7762,176.0489,411.5019,181.659,413.829,172.089" style="stroke:#A80036;stroke-width:1.0;"/><!--MD5=[9476b3e316b33d78a2eb7bb66a1110d4]
@startuml
abstract class usantatecla.mastermind.models.Combination {
- {static} WIDTH: int
# Combination()
+ {static} getWidth(): int
}
usantatecla.mastermind.models.Combination *-down-> "*" usantatecla.mastermind.types.Color

class usantatecla.mastermind.models.Game {
- {static} MAX_LONG: int
- attempts: int
+ Game()
+ clear()
+ addProposeCombination(ProposedCombination)
+ isLooser(): boolean
+ isWinner(): boolean
+ getAttempts(): int
+ getProposedCombination(int): ProposedCombination
+ getResult(int): Result
}
usantatecla.mastermind.models.Game *-down-> usantatecla.mastermind.models.SecretCombination
usantatecla.mastermind.models.Game *-down-> "0..*" usantatecla.mastermind.models.Result
usantatecla.mastermind.models.Game *-down-> "0..*" usantatecla.mastermind.models.ProposedCombination

class usantatecla.mastermind.models.ProposedCombination {
+ ProposedCombination()
~ contains(Color, int): boolean
~ contains(Color): boolean
+ getColors(): List<Color>
}
usantatecla.mastermind.models.Combination <|-down- usantatecla.mastermind.models.ProposedCombination
usantatecla.mastermind.models.ProposedCombination ..> usantatecla.mastermind.types.Color

class usantatecla.mastermind.models.SecretCombination {
~ SecretCombination()
~ getResult(ProposedCombination): Result
}
usantatecla.mastermind.models.Combination <|-down- usantatecla.mastermind.models.SecretCombination
usantatecla.mastermind.models.SecretCombination ..> usantatecla.mastermind.models.Result
usantatecla.mastermind.models.SecretCombination ..> usantatecla.mastermind.models.ProposedCombination
usantatecla.mastermind.models.SecretCombination ..> usantatecla.mastermind.types.Color

class usantatecla.mastermind.models.Result {
- blacks: int
- whites: int
~ Result(int, int)
~ isWinner(): boolean
+ getBlacks(): int
+ getWhites(): int
}

usantatecla.mastermind.models.Result ..> usantatecla.mastermind.models.Combination

enum usantatecla.mastermind.types.Color {
+ RED
+ BLUE
+ YELLOW
+ GREEN
+ ORANGE
+ PURPLE
+ NULL
~ {static} length(): int
+ isNull(): boolean
}

enum usantatecla.mastermind.types.Error {
+ DUPLICATED
+ WRONG_CHARACTERS
+ WRONG_LENGTH
+ NULL
+ isNull(): boolean
}
@enduml

PlantUML version 1.2020.22beta3(Unknown compile time)
(GPL source distribution)
Java Runtime: Java(TM) SE Runtime Environment
JVM: Java HotSpot(TM) 64-Bit Server VM
Default Encoding: UTF-8
Language: en
Country: US
--></g></svg>