<?xml version="1.0" encoding="UTF-8" standalone="no"?><svg xmlns="http://www.w3.org/2000/svg" xmlns:xlink="http://www.w3.org/1999/xlink" contentScriptType="application/ecmascript" contentStyleType="text/css" height="1234px" preserveAspectRatio="none" style="width:2074px;height:1234px;" version="1.1" viewBox="0 0 2074 1234" width="2074px" zoomAndPan="magnify"><defs><filter height="300%" id="f6se40rid50rk" width="300%" x="-1" y="-1"><feGaussianBlur result="blurOut" stdDeviation="2.0"/><feColorMatrix in="blurOut" result="blurOut2" type="matrix" values="0 0 0 0 0 0 0 0 0 0 0 0 0 0 0 0 0 0 .4 0"/><feOffset dx="4.0" dy="4.0" in="blurOut2" result="blurOut3"/><feBlend in="SourceGraphic" in2="blurOut3" mode="normal"/></filter></defs><g><!--MD5=[198f6a9fd1874ab7e84c2d286edb44b0]
cluster usantatecla.mastermind.views.graphics--><polygon fill="#FFFFFF" filter="url(#f6se40rid50rk)" points="888,100,1220,100,1227,122.2969,1767,122.2969,1767,1109,888,1109,888,100" style="stroke: #000000; stroke-width: 1.5;"/><line style="stroke: #000000; stroke-width: 1.5;" x1="888" x2="1227" y1="122.2969" y2="122.2969"/><text fill="#000000" font-family="sans-serif" font-size="14" font-weight="bold" lengthAdjust="spacingAndGlyphs" textLength="326" x="892" y="114.9951">usantatecla.mastermind.views.graphics</text><polygon fill="#FFFFFF" filter="url(#f6se40rid50rk)" points="1783.5,330,1884.5,330,1891.5,352.2969,1898.5,352.2969,1898.5,382.5938,1783.5,382.5938,1783.5,330" style="stroke: #000000; stroke-width: 1.5;"/><line style="stroke: #000000; stroke-width: 1.5;" x1="1783.5" x2="1891.5" y1="352.2969" y2="352.2969"/><text fill="#000000" font-family="sans-serif" font-size="14" font-weight="bold" lengthAdjust="spacingAndGlyphs" textLength="95" x="1787.5" y="344.9951">javax.swing</text><polygon fill="#FFFFFF" filter="url(#f6se40rid50rk)" points="1783,534,1859,534,1866,556.2969,1873,556.2969,1873,586.5938,1783,586.5938,1783,534" style="stroke: #000000; stroke-width: 1.5;"/><line style="stroke: #000000; stroke-width: 1.5;" x1="1783" x2="1866" y1="556.2969" y2="556.2969"/><text fill="#000000" font-family="sans-serif" font-size="14" font-weight="bold" lengthAdjust="spacingAndGlyphs" textLength="70" x="1787" y="548.9951">java.awt</text><!--MD5=[ae451f0c8a51e9325f6a8f55da885dd7]
class usantatecla.mastermind.views.graphics.GraphicsView--><rect codeLine="16" fill="#FEFECE" filter="url(#f6se40rid50rk)" height="99.2188" id="usantatecla.mastermind.views.graphics.GraphicsView" style="stroke: #A80036; stroke-width: 1.5;" width="160" x="909" y="135"/><ellipse cx="944.7" cy="151" fill="#ADD1B2" rx="11" ry="11" style="stroke: #A80036; stroke-width: 1.0;"/><path d="M947.0438,146.6719 C946.1063,146.2344 945.5125,146.0938 944.6375,146.0938 C942.0125,146.0938 940.0125,148.1719 940.0125,150.8906 L940.0125,152.0156 C940.0125,154.5938 942.1219,156.4844 945.0125,156.4844 C946.2313,156.4844 947.3875,156.1875 948.1375,155.6406 C948.7156,155.2344 949.0438,154.7813 949.0438,154.3906 C949.0438,153.9375 948.6531,153.5469 948.1844,153.5469 C947.9656,153.5469 947.7625,153.625 947.575,153.8125 C947.1219,154.2969 947.1219,154.2969 946.9344,154.3906 C946.5125,154.6563 945.825,154.7813 945.0594,154.7813 C943.0125,154.7813 941.7156,153.6875 941.7156,151.9844 L941.7156,150.8906 C941.7156,149.1094 942.9656,147.7969 944.7,147.7969 C945.2781,147.7969 945.8875,147.9531 946.3563,148.2031 C946.8406,148.4844 947.0125,148.7031 947.1063,149.1094 C947.1688,149.5156 947.2,149.6406 947.3406,149.7656 C947.4813,149.9063 947.7156,150.0156 947.9344,150.0156 C948.2,150.0156 948.4656,149.875 948.6375,149.6563 C948.7469,149.5 948.7781,149.3125 948.7781,148.8906 L948.7781,147.4688 C948.7781,147.0313 948.7625,146.9063 948.6688,146.75 C948.5125,146.4844 948.2313,146.3438 947.9344,146.3438 C947.6375,146.3438 947.4344,146.4375 947.2156,146.75 L947.0438,146.6719 Z " fill="#000000"/><text fill="#000000" font-family="sans-serif" font-size="12" lengthAdjust="spacingAndGlyphs" textLength="82" x="963.3" y="155.1543">GraphicsView</text><line style="stroke: #A80036; stroke-width: 1.5;" x1="910" x2="1068" y1="167" y2="167"/><line style="stroke: #A80036; stroke-width: 1.5;" x1="910" x2="1068" y1="175" y2="175"/><ellipse cx="920" cy="186" fill="#84BE84" rx="3" ry="3" style="stroke: #038048; stroke-width: 1.0;"/><text fill="#000000" font-family="sans-serif" font-size="11" lengthAdjust="spacingAndGlyphs" textLength="120" x="929" y="189.2104">GraphicsView(Game)</text><polygon fill="#FFFF44" points="920,193.8047,924,197.8047,920,201.8047,916,197.8047" style="stroke: #B38D22; stroke-width: 1.0;"/><text fill="#000000" font-family="sans-serif" font-size="11" lengthAdjust="spacingAndGlyphs" textLength="33" x="929" y="202.0151">start()</text><polygon fill="#FFFF44" points="920,206.6094,924,210.6094,920,214.6094,916,210.6094" style="stroke: #B38D22; stroke-width: 1.0;"/><text fill="#000000" font-family="sans-serif" font-size="11" lengthAdjust="spacingAndGlyphs" textLength="111" x="929" y="214.8198">propose() : boolean</text><polygon fill="#FFFF44" points="920,219.4141,924,223.4141,920,227.4141,916,223.4141" style="stroke: #B38D22; stroke-width: 1.0;"/><text fill="#000000" font-family="sans-serif" font-size="11" lengthAdjust="spacingAndGlyphs" textLength="134" x="929" y="227.6245">isNewGame() : boolean</text><!--MD5=[7e7dc5cbc8668901c521772882b3b4ea]
class usantatecla.mastermind.views.graphics.GameView--><rect codeLine="27" fill="#FEFECE" filter="url(#f6se40rid50rk)" height="124.8281" id="usantatecla.mastermind.views.graphics.GameView" style="stroke: #A80036; stroke-width: 1.5;" width="181" x="964.5" y="294"/><ellipse cx="1018.75" cy="310" fill="#ADD1B2" rx="11" ry="11" style="stroke: #A80036; stroke-width: 1.0;"/><path d="M1021.0938,305.6719 C1020.1563,305.2344 1019.5625,305.0938 1018.6875,305.0938 C1016.0625,305.0938 1014.0625,307.1719 1014.0625,309.8906 L1014.0625,311.0156 C1014.0625,313.5938 1016.1719,315.4844 1019.0625,315.4844 C1020.2813,315.4844 1021.4375,315.1875 1022.1875,314.6406 C1022.7656,314.2344 1023.0938,313.7813 1023.0938,313.3906 C1023.0938,312.9375 1022.7031,312.5469 1022.2344,312.5469 C1022.0156,312.5469 1021.8125,312.625 1021.625,312.8125 C1021.1719,313.2969 1021.1719,313.2969 1020.9844,313.3906 C1020.5625,313.6563 1019.875,313.7813 1019.1094,313.7813 C1017.0625,313.7813 1015.7656,312.6875 1015.7656,310.9844 L1015.7656,309.8906 C1015.7656,308.1094 1017.0156,306.7969 1018.75,306.7969 C1019.3281,306.7969 1019.9375,306.9531 1020.4063,307.2031 C1020.8906,307.4844 1021.0625,307.7031 1021.1563,308.1094 C1021.2188,308.5156 1021.25,308.6406 1021.3906,308.7656 C1021.5313,308.9063 1021.7656,309.0156 1021.9844,309.0156 C1022.25,309.0156 1022.5156,308.875 1022.6875,308.6563 C1022.7969,308.5 1022.8281,308.3125 1022.8281,307.8906 L1022.8281,306.4688 C1022.8281,306.0313 1022.8125,305.9063 1022.7188,305.75 C1022.5625,305.4844 1022.2813,305.3438 1021.9844,305.3438 C1021.6875,305.3438 1021.4844,305.4375 1021.2656,305.75 L1021.0938,305.6719 Z " fill="#000000"/><text fill="#000000" font-family="sans-serif" font-size="12" lengthAdjust="spacingAndGlyphs" textLength="64" x="1039.25" y="314.1543">GameView</text><line style="stroke: #A80036; stroke-width: 1.5;" x1="965.5" x2="1144.5" y1="326" y2="326"/><rect fill="none" height="6" style="stroke: #C82930; stroke-width: 1.0;" width="6" x="972.5" y="334"/><text fill="#000000" font-family="sans-serif" font-size="11" lengthAdjust="spacingAndGlyphs" text-decoration="underline" textLength="114" x="984.5" y="340.2104">GAME_OVER : String</text><line style="stroke: #A80036; stroke-width: 1.5;" x1="965.5" x2="1144.5" y1="346.8047" y2="346.8047"/><polygon fill="#4177AF" points="975.5,353.8047,971.5,359.8047,979.5,359.8047" style="stroke: #1963A0; stroke-width: 1.0;"/><text fill="#000000" font-family="sans-serif" font-size="11" lengthAdjust="spacingAndGlyphs" textLength="106" x="984.5" y="361.0151">GameView(Game)</text><polygon fill="#4177AF" points="975.5,366.6094,971.5,372.6094,979.5,372.6094" style="stroke: #1963A0; stroke-width: 1.0;"/><text fill="#000000" font-family="sans-serif" font-size="11" lengthAdjust="spacingAndGlyphs" textLength="33" x="984.5" y="373.8198">start()</text><polygon fill="#4177AF" points="975.5,379.4141,971.5,385.4141,979.5,385.4141" style="stroke: #1963A0; stroke-width: 1.0;"/><text fill="#000000" font-family="sans-serif" font-size="11" lengthAdjust="spacingAndGlyphs" textLength="111" x="984.5" y="386.6245">propose() : boolean</text><rect fill="#F24D5C" height="6" style="stroke: #C82930; stroke-width: 1.0;" width="6" x="972.5" y="393.2188"/><text fill="#000000" font-family="sans-serif" font-size="11" lengthAdjust="spacingAndGlyphs" textLength="155" x="984.5" y="399.4292">drawGameOver() : boolean</text><rect fill="#F24D5C" height="6" style="stroke: #C82930; stroke-width: 1.0;" width="6" x="972.5" y="406.0234"/><text fill="#000000" font-family="sans-serif" font-size="11" lengthAdjust="spacingAndGlyphs" textLength="36" x="984.5" y="412.2339">clear()</text><!--MD5=[9c37dfb6f104d7b46d37d4654c0dc095]
class usantatecla.mastermind.views.graphics.ResumeDialog--><rect codeLine="130" fill="#FEFECE" filter="url(#f6se40rid50rk)" height="86.4141" id="usantatecla.mastermind.views.graphics.ResumeDialog" style="stroke: #A80036; stroke-width: 1.5;" width="160" x="1104" y="141.5"/><ellipse cx="1137.9" cy="157.5" fill="#ADD1B2" rx="11" ry="11" style="stroke: #A80036; stroke-width: 1.0;"/><path d="M1140.2438,153.1719 C1139.3063,152.7344 1138.7125,152.5938 1137.8375,152.5938 C1135.2125,152.5938 1133.2125,154.6719 1133.2125,157.3906 L1133.2125,158.5156 C1133.2125,161.0938 1135.3219,162.9844 1138.2125,162.9844 C1139.4313,162.9844 1140.5875,162.6875 1141.3375,162.1406 C1141.9156,161.7344 1142.2438,161.2813 1142.2438,160.8906 C1142.2438,160.4375 1141.8531,160.0469 1141.3844,160.0469 C1141.1656,160.0469 1140.9625,160.125 1140.775,160.3125 C1140.3219,160.7969 1140.3219,160.7969 1140.1344,160.8906 C1139.7125,161.1563 1139.025,161.2813 1138.2594,161.2813 C1136.2125,161.2813 1134.9156,160.1875 1134.9156,158.4844 L1134.9156,157.3906 C1134.9156,155.6094 1136.1656,154.2969 1137.9,154.2969 C1138.4781,154.2969 1139.0875,154.4531 1139.5563,154.7031 C1140.0406,154.9844 1140.2125,155.2031 1140.3063,155.6094 C1140.3688,156.0156 1140.4,156.1406 1140.5406,156.2656 C1140.6813,156.4063 1140.9156,156.5156 1141.1344,156.5156 C1141.4,156.5156 1141.6656,156.375 1141.8375,156.1563 C1141.9469,156 1141.9781,155.8125 1141.9781,155.3906 L1141.9781,153.9688 C1141.9781,153.5313 1141.9625,153.4063 1141.8688,153.25 C1141.7125,152.9844 1141.4313,152.8438 1141.1344,152.8438 C1140.8375,152.8438 1140.6344,152.9375 1140.4156,153.25 L1140.2438,153.1719 Z " fill="#000000"/><text fill="#000000" font-family="sans-serif" font-size="12" lengthAdjust="spacingAndGlyphs" textLength="86" x="1156.1" y="161.6543">ResumeDialog</text><line style="stroke: #A80036; stroke-width: 1.5;" x1="1105" x2="1263" y1="173.5" y2="173.5"/><rect fill="none" height="6" style="stroke: #C82930; stroke-width: 1.0;" width="6" x="1112" y="181.5"/><text fill="#000000" font-family="sans-serif" font-size="11" lengthAdjust="spacingAndGlyphs" textLength="116" x="1124" y="187.7104">newGame : boolean</text><line style="stroke: #A80036; stroke-width: 1.5;" x1="1105" x2="1263" y1="194.3047" y2="194.3047"/><polygon fill="#4177AF" points="1115,201.3047,1111,207.3047,1119,207.3047" style="stroke: #1963A0; stroke-width: 1.0;"/><text fill="#000000" font-family="sans-serif" font-size="11" lengthAdjust="spacingAndGlyphs" textLength="91" x="1124" y="208.5151">ResumeDialog()</text><polygon fill="#4177AF" points="1115,214.1094,1111,220.1094,1119,220.1094" style="stroke: #1963A0; stroke-width: 1.0;"/><text fill="#000000" font-family="sans-serif" font-size="11" lengthAdjust="spacingAndGlyphs" textLength="134" x="1124" y="221.3198">isNewGame() : boolean</text><!--MD5=[0a51c4a8256f6c42e2d45b907f1fde85]
class usantatecla.mastermind.views.graphics.SecretCombinationView--><rect codeLine="72" fill="#FEFECE" filter="url(#f6se40rid50rk)" height="73.6094" id="usantatecla.mastermind.views.graphics.SecretCombinationView" style="stroke: #A80036; stroke-width: 1.5;" width="175" x="904.5" y="523.5"/><ellipse cx="919.5" cy="539.5" fill="#ADD1B2" rx="11" ry="11" style="stroke: #A80036; stroke-width: 1.0;"/><path d="M921.8438,535.1719 C920.9063,534.7344 920.3125,534.5938 919.4375,534.5938 C916.8125,534.5938 914.8125,536.6719 914.8125,539.3906 L914.8125,540.5156 C914.8125,543.0938 916.9219,544.9844 919.8125,544.9844 C921.0313,544.9844 922.1875,544.6875 922.9375,544.1406 C923.5156,543.7344 923.8438,543.2813 923.8438,542.8906 C923.8438,542.4375 923.4531,542.0469 922.9844,542.0469 C922.7656,542.0469 922.5625,542.125 922.375,542.3125 C921.9219,542.7969 921.9219,542.7969 921.7344,542.8906 C921.3125,543.1563 920.625,543.2813 919.8594,543.2813 C917.8125,543.2813 916.5156,542.1875 916.5156,540.4844 L916.5156,539.3906 C916.5156,537.6094 917.7656,536.2969 919.5,536.2969 C920.0781,536.2969 920.6875,536.4531 921.1563,536.7031 C921.6406,536.9844 921.8125,537.2031 921.9063,537.6094 C921.9688,538.0156 922,538.1406 922.1406,538.2656 C922.2813,538.4063 922.5156,538.5156 922.7344,538.5156 C923,538.5156 923.2656,538.375 923.4375,538.1563 C923.5469,538 923.5781,537.8125 923.5781,537.3906 L923.5781,535.9688 C923.5781,535.5313 923.5625,535.4063 923.4688,535.25 C923.3125,534.9844 923.0313,534.8438 922.7344,534.8438 C922.4375,534.8438 922.2344,534.9375 922.0156,535.25 L921.8438,535.1719 Z " fill="#000000"/><text fill="#000000" font-family="sans-serif" font-size="12" lengthAdjust="spacingAndGlyphs" textLength="143" x="933.5" y="543.6543">SecretCombinationView</text><line style="stroke: #A80036; stroke-width: 1.5;" x1="905.5" x2="1078.5" y1="555.5" y2="555.5"/><rect fill="none" height="6" style="stroke: #C82930; stroke-width: 1.0;" width="6" x="912.5" y="563.5"/><text fill="#000000" font-family="sans-serif" font-size="11" lengthAdjust="spacingAndGlyphs" text-decoration="underline" textLength="74" x="924.5" y="569.7104">TITLE : String</text><line style="stroke: #A80036; stroke-width: 1.5;" x1="905.5" x2="1078.5" y1="576.3047" y2="576.3047"/><polygon fill="#4177AF" points="915.5,583.3047,911.5,589.3047,919.5,589.3047" style="stroke: #1963A0; stroke-width: 1.0;"/><text fill="#000000" font-family="sans-serif" font-size="11" lengthAdjust="spacingAndGlyphs" textLength="145" x="924.5" y="590.5151">SecretCombinationView()</text><!--MD5=[bc999c10004c6ac6cce7192a23f3928f]
class usantatecla.mastermind.views.graphics.ProposedCombinationsView--><rect codeLine="61" fill="#FEFECE" filter="url(#f6se40rid50rk)" height="73.6094" id="usantatecla.mastermind.views.graphics.ProposedCombinationsView" style="stroke: #A80036; stroke-width: 1.5;" width="226" x="1423" y="523.5"/><ellipse cx="1449.7" cy="539.5" fill="#ADD1B2" rx="11" ry="11" style="stroke: #A80036; stroke-width: 1.0;"/><path d="M1452.0438,535.1719 C1451.1063,534.7344 1450.5125,534.5938 1449.6375,534.5938 C1447.0125,534.5938 1445.0125,536.6719 1445.0125,539.3906 L1445.0125,540.5156 C1445.0125,543.0938 1447.1219,544.9844 1450.0125,544.9844 C1451.2313,544.9844 1452.3875,544.6875 1453.1375,544.1406 C1453.7156,543.7344 1454.0438,543.2813 1454.0438,542.8906 C1454.0438,542.4375 1453.6531,542.0469 1453.1844,542.0469 C1452.9656,542.0469 1452.7625,542.125 1452.575,542.3125 C1452.1219,542.7969 1452.1219,542.7969 1451.9344,542.8906 C1451.5125,543.1563 1450.825,543.2813 1450.0594,543.2813 C1448.0125,543.2813 1446.7156,542.1875 1446.7156,540.4844 L1446.7156,539.3906 C1446.7156,537.6094 1447.9656,536.2969 1449.7,536.2969 C1450.2781,536.2969 1450.8875,536.4531 1451.3563,536.7031 C1451.8406,536.9844 1452.0125,537.2031 1452.1063,537.6094 C1452.1688,538.0156 1452.2,538.1406 1452.3406,538.2656 C1452.4813,538.4063 1452.7156,538.5156 1452.9344,538.5156 C1453.2,538.5156 1453.4656,538.375 1453.6375,538.1563 C1453.7469,538 1453.7781,537.8125 1453.7781,537.3906 L1453.7781,535.9688 C1453.7781,535.5313 1453.7625,535.4063 1453.6688,535.25 C1453.5125,534.9844 1453.2313,534.8438 1452.9344,534.8438 C1452.6375,534.8438 1452.4344,534.9375 1452.2156,535.25 L1452.0438,535.1719 Z " fill="#000000"/><text fill="#000000" font-family="sans-serif" font-size="12" lengthAdjust="spacingAndGlyphs" textLength="168" x="1466.3" y="543.6543">ProposedCombinationsView</text><line style="stroke: #A80036; stroke-width: 1.5;" x1="1424" x2="1648" y1="555.5" y2="555.5"/><line style="stroke: #A80036; stroke-width: 1.5;" x1="1424" x2="1648" y1="563.5" y2="563.5"/><polygon fill="#4177AF" points="1434,570.5,1430,576.5,1438,576.5" style="stroke: #1963A0; stroke-width: 1.0;"/><text fill="#000000" font-family="sans-serif" font-size="11" lengthAdjust="spacingAndGlyphs" textLength="200" x="1443" y="577.7104">ProposedCombinationsView(Game)</text><polygon fill="#4177AF" points="1434,583.3047,1430,589.3047,1438,589.3047" style="stroke: #1963A0; stroke-width: 1.0;"/><text fill="#000000" font-family="sans-serif" font-size="11" lengthAdjust="spacingAndGlyphs" textLength="29" x="1443" y="590.5151">add()</text><!--MD5=[a92297da4ed579d5d3387aae7a98faa1]
class usantatecla.mastermind.views.graphics.ProposalCombinationView--><rect codeLine="45" fill="#FEFECE" filter="url(#f6se40rid50rk)" height="163.2422" id="usantatecla.mastermind.views.graphics.ProposalCombinationView" style="stroke: #A80036; stroke-width: 1.5;" width="236" x="1152" y="479"/><ellipse cx="1189.05" cy="495" fill="#ADD1B2" rx="11" ry="11" style="stroke: #A80036; stroke-width: 1.0;"/><path d="M1191.3938,490.6719 C1190.4563,490.2344 1189.8625,490.0938 1188.9875,490.0938 C1186.3625,490.0938 1184.3625,492.1719 1184.3625,494.8906 L1184.3625,496.0156 C1184.3625,498.5938 1186.4719,500.4844 1189.3625,500.4844 C1190.5813,500.4844 1191.7375,500.1875 1192.4875,499.6406 C1193.0656,499.2344 1193.3938,498.7813 1193.3938,498.3906 C1193.3938,497.9375 1193.0031,497.5469 1192.5344,497.5469 C1192.3156,497.5469 1192.1125,497.625 1191.925,497.8125 C1191.4719,498.2969 1191.4719,498.2969 1191.2844,498.3906 C1190.8625,498.6563 1190.175,498.7813 1189.4094,498.7813 C1187.3625,498.7813 1186.0656,497.6875 1186.0656,495.9844 L1186.0656,494.8906 C1186.0656,493.1094 1187.3156,491.7969 1189.05,491.7969 C1189.6281,491.7969 1190.2375,491.9531 1190.7063,492.2031 C1191.1906,492.4844 1191.3625,492.7031 1191.4563,493.1094 C1191.5188,493.5156 1191.55,493.6406 1191.6906,493.7656 C1191.8313,493.9063 1192.0656,494.0156 1192.2844,494.0156 C1192.55,494.0156 1192.8156,493.875 1192.9875,493.6563 C1193.0969,493.5 1193.1281,493.3125 1193.1281,492.8906 L1193.1281,491.4688 C1193.1281,491.0313 1193.1125,490.9063 1193.0188,490.75 C1192.8625,490.4844 1192.5813,490.3438 1192.2844,490.3438 C1191.9875,490.3438 1191.7844,490.4375 1191.5656,490.75 L1191.3938,490.6719 Z " fill="#000000"/><text fill="#000000" font-family="sans-serif" font-size="12" lengthAdjust="spacingAndGlyphs" textLength="155" x="1207.95" y="499.1543">ProposalCombinationView</text><line style="stroke: #A80036; stroke-width: 1.5;" x1="1153" x2="1387" y1="511" y2="511"/><rect fill="none" height="6" style="stroke: #C82930; stroke-width: 1.0;" width="6" x="1160" y="519"/><text fill="#000000" font-family="sans-serif" font-size="11" lengthAdjust="spacingAndGlyphs" text-decoration="underline" textLength="88" x="1172" y="525.2104">ACCEPT : String</text><rect fill="none" height="6" style="stroke: #C82930; stroke-width: 1.0;" width="6" x="1160" y="531.8047"/><text fill="#000000" font-family="sans-serif" font-size="11" lengthAdjust="spacingAndGlyphs" textLength="103" x="1172" y="538.0151">characters : String</text><line style="stroke: #A80036; stroke-width: 1.5;" x1="1153" x2="1387" y1="544.6094" y2="544.6094"/><polygon fill="#4177AF" points="1163,551.6094,1159,557.6094,1167,557.6094" style="stroke: #1963A0; stroke-width: 1.0;"/><text fill="#000000" font-family="sans-serif" font-size="11" lengthAdjust="spacingAndGlyphs" textLength="210" x="1172" y="558.8198">ProposalCombinationView(JRootPane)</text><polygon fill="#4177AF" points="1163,564.4141,1159,570.4141,1167,570.4141" style="stroke: #1963A0; stroke-width: 1.0;"/><text fill="#000000" font-family="sans-serif" font-size="11" lengthAdjust="spacingAndGlyphs" textLength="99" x="1172" y="571.6245">resetCharacters()</text><polygon fill="#4177AF" points="1163,577.2188,1159,583.2188,1167,583.2188" style="stroke: #1963A0; stroke-width: 1.0;"/><text fill="#000000" font-family="sans-serif" font-size="11" lengthAdjust="spacingAndGlyphs" textLength="132" x="1172" y="584.4292">getCharacters() : String</text><ellipse cx="1163" cy="594.0234" fill="#84BE84" rx="3" ry="3" style="stroke: #038048; stroke-width: 1.0;"/><text fill="#000000" font-family="sans-serif" font-size="11" lengthAdjust="spacingAndGlyphs" textLength="169" x="1172" y="597.2339">actionPerformed(ActionEvent)</text><ellipse cx="1163" cy="606.8281" fill="#84BE84" rx="3" ry="3" style="stroke: #038048; stroke-width: 1.0;"/><text fill="#000000" font-family="sans-serif" font-size="11" lengthAdjust="spacingAndGlyphs" textLength="120" x="1172" y="610.0386">keyTyped(KeyEvent)</text><ellipse cx="1163" cy="619.6328" fill="#84BE84" rx="3" ry="3" style="stroke: #038048; stroke-width: 1.0;"/><text fill="#000000" font-family="sans-serif" font-size="11" lengthAdjust="spacingAndGlyphs" textLength="129" x="1172" y="622.8433">keyPressed(KeyEvent)</text><ellipse cx="1163" cy="632.4375" fill="#84BE84" rx="3" ry="3" style="stroke: #038048; stroke-width: 1.0;"/><text fill="#000000" font-family="sans-serif" font-size="11" lengthAdjust="spacingAndGlyphs" textLength="138" x="1172" y="635.6479">keyReleased(KeyEvent)</text><!--MD5=[673552eece3ab092884d0657ca5032f5]
class usantatecla.mastermind.views.graphics.Constraints--><rect codeLine="109" fill="#FEFECE" filter="url(#f6se40rid50rk)" height="60.8047" id="usantatecla.mastermind.views.graphics.Constraints" style="stroke: #A80036; stroke-width: 1.5;" width="174" x="904" y="721"/><ellipse cx="953.25" cy="737" fill="#ADD1B2" rx="11" ry="11" style="stroke: #A80036; stroke-width: 1.0;"/><path d="M955.5938,732.6719 C954.6563,732.2344 954.0625,732.0938 953.1875,732.0938 C950.5625,732.0938 948.5625,734.1719 948.5625,736.8906 L948.5625,738.0156 C948.5625,740.5938 950.6719,742.4844 953.5625,742.4844 C954.7813,742.4844 955.9375,742.1875 956.6875,741.6406 C957.2656,741.2344 957.5938,740.7813 957.5938,740.3906 C957.5938,739.9375 957.2031,739.5469 956.7344,739.5469 C956.5156,739.5469 956.3125,739.625 956.125,739.8125 C955.6719,740.2969 955.6719,740.2969 955.4844,740.3906 C955.0625,740.6563 954.375,740.7813 953.6094,740.7813 C951.5625,740.7813 950.2656,739.6875 950.2656,737.9844 L950.2656,736.8906 C950.2656,735.1094 951.5156,733.7969 953.25,733.7969 C953.8281,733.7969 954.4375,733.9531 954.9063,734.2031 C955.3906,734.4844 955.5625,734.7031 955.6563,735.1094 C955.7188,735.5156 955.75,735.6406 955.8906,735.7656 C956.0313,735.9063 956.2656,736.0156 956.4844,736.0156 C956.75,736.0156 957.0156,735.875 957.1875,735.6563 C957.2969,735.5 957.3281,735.3125 957.3281,734.8906 L957.3281,733.4688 C957.3281,733.0313 957.3125,732.9063 957.2188,732.75 C957.0625,732.4844 956.7813,732.3438 956.4844,732.3438 C956.1875,732.3438 955.9844,732.4375 955.7656,732.75 L955.5938,732.6719 Z " fill="#000000"/><text fill="#000000" font-family="sans-serif" font-size="12" lengthAdjust="spacingAndGlyphs" textLength="67" x="973.75" y="741.1543">Constraints</text><line style="stroke: #A80036; stroke-width: 1.5;" x1="905" x2="1077" y1="753" y2="753"/><line style="stroke: #A80036; stroke-width: 1.5;" x1="905" x2="1077" y1="761" y2="761"/><polygon fill="#4177AF" points="915,768,911,774,919,774" style="stroke: #1963A0; stroke-width: 1.0;"/><text fill="#000000" font-family="sans-serif" font-size="11" lengthAdjust="spacingAndGlyphs" textLength="148" x="924" y="775.2104">Constraints(int, int, int, int)</text><!--MD5=[5f3e1853aaa8558cdc9ad3895ee81f2b]
class usantatecla.mastermind.views.graphics.AttemptsView--><rect codeLine="95" fill="#FEFECE" filter="url(#f6se40rid50rk)" height="60.8047" id="usantatecla.mastermind.views.graphics.AttemptsView" style="stroke: #A80036; stroke-width: 1.5;" width="128" x="1113" y="721"/><ellipse cx="1133.85" cy="737" fill="#ADD1B2" rx="11" ry="11" style="stroke: #A80036; stroke-width: 1.0;"/><path d="M1136.1938,732.6719 C1135.2563,732.2344 1134.6625,732.0938 1133.7875,732.0938 C1131.1625,732.0938 1129.1625,734.1719 1129.1625,736.8906 L1129.1625,738.0156 C1129.1625,740.5938 1131.2719,742.4844 1134.1625,742.4844 C1135.3813,742.4844 1136.5375,742.1875 1137.2875,741.6406 C1137.8656,741.2344 1138.1938,740.7813 1138.1938,740.3906 C1138.1938,739.9375 1137.8031,739.5469 1137.3344,739.5469 C1137.1156,739.5469 1136.9125,739.625 1136.725,739.8125 C1136.2719,740.2969 1136.2719,740.2969 1136.0844,740.3906 C1135.6625,740.6563 1134.975,740.7813 1134.2094,740.7813 C1132.1625,740.7813 1130.8656,739.6875 1130.8656,737.9844 L1130.8656,736.8906 C1130.8656,735.1094 1132.1156,733.7969 1133.85,733.7969 C1134.4281,733.7969 1135.0375,733.9531 1135.5063,734.2031 C1135.9906,734.4844 1136.1625,734.7031 1136.2563,735.1094 C1136.3188,735.5156 1136.35,735.6406 1136.4906,735.7656 C1136.6313,735.9063 1136.8656,736.0156 1137.0844,736.0156 C1137.35,736.0156 1137.6156,735.875 1137.7875,735.6563 C1137.8969,735.5 1137.9281,735.3125 1137.9281,734.8906 L1137.9281,733.4688 C1137.9281,733.0313 1137.9125,732.9063 1137.8188,732.75 C1137.6625,732.4844 1137.3813,732.3438 1137.0844,732.3438 C1136.7875,732.3438 1136.5844,732.4375 1136.3656,732.75 L1136.1938,732.6719 Z " fill="#000000"/><text fill="#000000" font-family="sans-serif" font-size="12" lengthAdjust="spacingAndGlyphs" textLength="83" x="1149.15" y="741.1543">AttemptsView</text><line style="stroke: #A80036; stroke-width: 1.5;" x1="1114" x2="1240" y1="753" y2="753"/><line style="stroke: #A80036; stroke-width: 1.5;" x1="1114" x2="1240" y1="761" y2="761"/><polygon fill="#4177AF" points="1124,768,1120,774,1128,774" style="stroke: #1963A0; stroke-width: 1.0;"/><text fill="#000000" font-family="sans-serif" font-size="11" lengthAdjust="spacingAndGlyphs" textLength="102" x="1133" y="775.2104">AttemptsView(int)</text><!--MD5=[7abc73296995ddb3ef73e08bc922f56c]
class usantatecla.mastermind.views.graphics.ProposedCombinationView--><rect codeLine="81" fill="#FEFECE" filter="url(#f6se40rid50rk)" height="99.2188" id="usantatecla.mastermind.views.graphics.ProposedCombinationView" style="stroke: #A80036; stroke-width: 1.5;" width="308" x="1443" y="702"/><ellipse cx="1512.25" cy="718" fill="#ADD1B2" rx="11" ry="11" style="stroke: #A80036; stroke-width: 1.0;"/><path d="M1514.5938,713.6719 C1513.6563,713.2344 1513.0625,713.0938 1512.1875,713.0938 C1509.5625,713.0938 1507.5625,715.1719 1507.5625,717.8906 L1507.5625,719.0156 C1507.5625,721.5938 1509.6719,723.4844 1512.5625,723.4844 C1513.7813,723.4844 1514.9375,723.1875 1515.6875,722.6406 C1516.2656,722.2344 1516.5938,721.7813 1516.5938,721.3906 C1516.5938,720.9375 1516.2031,720.5469 1515.7344,720.5469 C1515.5156,720.5469 1515.3125,720.625 1515.125,720.8125 C1514.6719,721.2969 1514.6719,721.2969 1514.4844,721.3906 C1514.0625,721.6563 1513.375,721.7813 1512.6094,721.7813 C1510.5625,721.7813 1509.2656,720.6875 1509.2656,718.9844 L1509.2656,717.8906 C1509.2656,716.1094 1510.5156,714.7969 1512.25,714.7969 C1512.8281,714.7969 1513.4375,714.9531 1513.9063,715.2031 C1514.3906,715.4844 1514.5625,715.7031 1514.6563,716.1094 C1514.7188,716.5156 1514.75,716.6406 1514.8906,716.7656 C1515.0313,716.9063 1515.2656,717.0156 1515.4844,717.0156 C1515.75,717.0156 1516.0156,716.875 1516.1875,716.6563 C1516.2969,716.5 1516.3281,716.3125 1516.3281,715.8906 L1516.3281,714.4688 C1516.3281,714.0313 1516.3125,713.9063 1516.2188,713.75 C1516.0625,713.4844 1515.7813,713.3438 1515.4844,713.3438 C1515.1875,713.3438 1514.9844,713.4375 1514.7656,713.75 L1514.5938,713.6719 Z " fill="#000000"/><text fill="#000000" font-family="sans-serif" font-size="12" lengthAdjust="spacingAndGlyphs" textLength="161" x="1532.75" y="722.1543">ProposedCombinationView</text><line style="stroke: #A80036; stroke-width: 1.5;" x1="1444" x2="1750" y1="734" y2="734"/><line style="stroke: #A80036; stroke-width: 1.5;" x1="1444" x2="1750" y1="742" y2="742"/><polygon fill="#4177AF" points="1454,749,1450,755,1458,755" style="stroke: #1963A0; stroke-width: 1.0;"/><text fill="#000000" font-family="sans-serif" font-size="11" lengthAdjust="spacingAndGlyphs" textLength="282" x="1463" y="756.2104">ProposedCombinationView(ProposedCombination)</text><polygon fill="#4177AF" points="1454,761.8047,1450,767.8047,1458,767.8047" style="stroke: #1963A0; stroke-width: 1.0;"/><text fill="#000000" font-family="sans-serif" font-size="11" lengthAdjust="spacingAndGlyphs" textLength="159" x="1463" y="769.0151">ProposedCombinationView()</text><polygon fill="#4177AF" points="1454,774.6094,1450,780.6094,1458,780.6094" style="stroke: #1963A0; stroke-width: 1.0;"/><text fill="#000000" font-family="sans-serif" font-size="11" lengthAdjust="spacingAndGlyphs" textLength="67" x="1463" y="781.8198">read(String)</text><ellipse cx="1454" cy="791.4141" fill="#84BE84" rx="3" ry="3" style="stroke: #038048; stroke-width: 1.0;"/><text fill="#000000" font-family="sans-serif" font-size="11" lengthAdjust="spacingAndGlyphs" textLength="102" x="1463" y="794.6245">isValid() : boolean</text><!--MD5=[524a1cd33cc0f551bad139f1b3197a2d]
class usantatecla.mastermind.views.graphics.ResultView--><rect codeLine="123" fill="#FEFECE" filter="url(#f6se40rid50rk)" height="60.8047" id="usantatecla.mastermind.views.graphics.ResultView" style="stroke: #A80036; stroke-width: 1.5;" width="132" x="1276" y="721"/><ellipse cx="1306.75" cy="737" fill="#ADD1B2" rx="11" ry="11" style="stroke: #A80036; stroke-width: 1.0;"/><path d="M1309.0938,732.6719 C1308.1563,732.2344 1307.5625,732.0938 1306.6875,732.0938 C1304.0625,732.0938 1302.0625,734.1719 1302.0625,736.8906 L1302.0625,738.0156 C1302.0625,740.5938 1304.1719,742.4844 1307.0625,742.4844 C1308.2813,742.4844 1309.4375,742.1875 1310.1875,741.6406 C1310.7656,741.2344 1311.0938,740.7813 1311.0938,740.3906 C1311.0938,739.9375 1310.7031,739.5469 1310.2344,739.5469 C1310.0156,739.5469 1309.8125,739.625 1309.625,739.8125 C1309.1719,740.2969 1309.1719,740.2969 1308.9844,740.3906 C1308.5625,740.6563 1307.875,740.7813 1307.1094,740.7813 C1305.0625,740.7813 1303.7656,739.6875 1303.7656,737.9844 L1303.7656,736.8906 C1303.7656,735.1094 1305.0156,733.7969 1306.75,733.7969 C1307.3281,733.7969 1307.9375,733.9531 1308.4063,734.2031 C1308.8906,734.4844 1309.0625,734.7031 1309.1563,735.1094 C1309.2188,735.5156 1309.25,735.6406 1309.3906,735.7656 C1309.5313,735.9063 1309.7656,736.0156 1309.9844,736.0156 C1310.25,736.0156 1310.5156,735.875 1310.6875,735.6563 C1310.7969,735.5 1310.8281,735.3125 1310.8281,734.8906 L1310.8281,733.4688 C1310.8281,733.0313 1310.8125,732.9063 1310.7188,732.75 C1310.5625,732.4844 1310.2813,732.3438 1309.9844,732.3438 C1309.6875,732.3438 1309.4844,732.4375 1309.2656,732.75 L1309.0938,732.6719 Z " fill="#000000"/><text fill="#000000" font-family="sans-serif" font-size="12" lengthAdjust="spacingAndGlyphs" textLength="65" x="1324.25" y="741.1543">ResultView</text><line style="stroke: #A80036; stroke-width: 1.5;" x1="1277" x2="1407" y1="753" y2="753"/><line style="stroke: #A80036; stroke-width: 1.5;" x1="1277" x2="1407" y1="761" y2="761"/><polygon fill="#4177AF" points="1287,768,1283,774,1291,774" style="stroke: #1963A0; stroke-width: 1.0;"/><text fill="#000000" font-family="sans-serif" font-size="11" lengthAdjust="spacingAndGlyphs" textLength="106" x="1296" y="775.2104">ResultView(Result)</text><!--MD5=[ded0038c7ccc7ea48696cbaf2a51eb21]
class usantatecla.mastermind.views.graphics.ErrorView--><rect codeLine="114" fill="#FEFECE" filter="url(#f6se40rid50rk)" height="86.4141" id="usantatecla.mastermind.views.graphics.ErrorView" style="stroke: #A80036; stroke-width: 1.5;" width="141" x="1526.5" y="861"/><ellipse cx="1564" cy="877" fill="#ADD1B2" rx="11" ry="11" style="stroke: #A80036; stroke-width: 1.0;"/><path d="M1566.3438,872.6719 C1565.4063,872.2344 1564.8125,872.0938 1563.9375,872.0938 C1561.3125,872.0938 1559.3125,874.1719 1559.3125,876.8906 L1559.3125,878.0156 C1559.3125,880.5938 1561.4219,882.4844 1564.3125,882.4844 C1565.5313,882.4844 1566.6875,882.1875 1567.4375,881.6406 C1568.0156,881.2344 1568.3438,880.7813 1568.3438,880.3906 C1568.3438,879.9375 1567.9531,879.5469 1567.4844,879.5469 C1567.2656,879.5469 1567.0625,879.625 1566.875,879.8125 C1566.4219,880.2969 1566.4219,880.2969 1566.2344,880.3906 C1565.8125,880.6563 1565.125,880.7813 1564.3594,880.7813 C1562.3125,880.7813 1561.0156,879.6875 1561.0156,877.9844 L1561.0156,876.8906 C1561.0156,875.1094 1562.2656,873.7969 1564,873.7969 C1564.5781,873.7969 1565.1875,873.9531 1565.6563,874.2031 C1566.1406,874.4844 1566.3125,874.7031 1566.4063,875.1094 C1566.4688,875.5156 1566.5,875.6406 1566.6406,875.7656 C1566.7813,875.9063 1567.0156,876.0156 1567.2344,876.0156 C1567.5,876.0156 1567.7656,875.875 1567.9375,875.6563 C1568.0469,875.5 1568.0781,875.3125 1568.0781,874.8906 L1568.0781,873.4688 C1568.0781,873.0313 1568.0625,872.9063 1567.9688,872.75 C1567.8125,872.4844 1567.5313,872.3438 1567.2344,872.3438 C1566.9375,872.3438 1566.7344,872.4375 1566.5156,872.75 L1566.3438,872.6719 Z " fill="#000000"/><text fill="#000000" font-family="sans-serif" font-size="12" lengthAdjust="spacingAndGlyphs" textLength="59" x="1583" y="881.1543">ErrorView</text><line style="stroke: #A80036; stroke-width: 1.5;" x1="1527.5" x2="1666.5" y1="893" y2="893"/><line style="stroke: #A80036; stroke-width: 1.5;" x1="1527.5" x2="1666.5" y1="901" y2="901"/><polygon fill="#4177AF" points="1537.5,908,1533.5,914,1541.5,914" style="stroke: #1963A0; stroke-width: 1.0;"/><text fill="#000000" font-family="sans-serif" font-size="11" lengthAdjust="spacingAndGlyphs" textLength="62" x="1546.5" y="915.2104">ErrorView()</text><polygon fill="#4177AF" points="1537.5,920.8047,1533.5,926.8047,1541.5,926.8047" style="stroke: #1963A0; stroke-width: 1.0;"/><text fill="#000000" font-family="sans-serif" font-size="11" lengthAdjust="spacingAndGlyphs" textLength="88" x="1546.5" y="928.0151">ErrorView(Error)</text><polygon fill="#FFFF44" points="1537.5,932.6094,1541.5,936.6094,1537.5,940.6094,1533.5,936.6094" style="stroke: #B38D22; stroke-width: 1.0;"/><text fill="#000000" font-family="sans-serif" font-size="11" lengthAdjust="spacingAndGlyphs" textLength="115" x="1546.5" y="940.8198">colorInitials() : String</text><!--MD5=[da937fb33dbbc15bcf7b23eaba624e6f]
class usantatecla.mastermind.views.graphics.ColorView--><rect codeLine="101" fill="#FEFECE" filter="url(#f6se40rid50rk)" height="86.4141" id="usantatecla.mastermind.views.graphics.ColorView" style="stroke: #A80036; stroke-width: 1.5;" width="160" x="1517" y="1007"/><ellipse cx="1562.25" cy="1023" fill="#ADD1B2" rx="11" ry="11" style="stroke: #A80036; stroke-width: 1.0;"/><path d="M1564.5938,1018.6719 C1563.6563,1018.2344 1563.0625,1018.0938 1562.1875,1018.0938 C1559.5625,1018.0938 1557.5625,1020.1719 1557.5625,1022.8906 L1557.5625,1024.0156 C1557.5625,1026.5938 1559.6719,1028.4844 1562.5625,1028.4844 C1563.7813,1028.4844 1564.9375,1028.1875 1565.6875,1027.6406 C1566.2656,1027.2344 1566.5938,1026.7813 1566.5938,1026.3906 C1566.5938,1025.9375 1566.2031,1025.5469 1565.7344,1025.5469 C1565.5156,1025.5469 1565.3125,1025.625 1565.125,1025.8125 C1564.6719,1026.2969 1564.6719,1026.2969 1564.4844,1026.3906 C1564.0625,1026.6563 1563.375,1026.7813 1562.6094,1026.7813 C1560.5625,1026.7813 1559.2656,1025.6875 1559.2656,1023.9844 L1559.2656,1022.8906 C1559.2656,1021.1094 1560.5156,1019.7969 1562.25,1019.7969 C1562.8281,1019.7969 1563.4375,1019.9531 1563.9063,1020.2031 C1564.3906,1020.4844 1564.5625,1020.7031 1564.6563,1021.1094 C1564.7188,1021.5156 1564.75,1021.6406 1564.8906,1021.7656 C1565.0313,1021.9063 1565.2656,1022.0156 1565.4844,1022.0156 C1565.75,1022.0156 1566.0156,1021.875 1566.1875,1021.6563 C1566.2969,1021.5 1566.3281,1021.3125 1566.3281,1020.8906 L1566.3281,1019.4688 C1566.3281,1019.0313 1566.3125,1018.9063 1566.2188,1018.75 C1566.0625,1018.4844 1565.7813,1018.3438 1565.4844,1018.3438 C1565.1875,1018.3438 1564.9844,1018.4375 1564.7656,1018.75 L1564.5938,1018.6719 Z " fill="#000000"/><text fill="#000000" font-family="sans-serif" font-size="12" lengthAdjust="spacingAndGlyphs" textLength="61" x="1582.75" y="1027.1543">ColorView</text><line style="stroke: #A80036; stroke-width: 1.5;" x1="1518" x2="1676" y1="1039" y2="1039"/><line style="stroke: #A80036; stroke-width: 1.5;" x1="1518" x2="1676" y1="1047" y2="1047"/><polygon fill="#4177AF" points="1528,1054,1524,1060,1532,1060" style="stroke: #1963A0; stroke-width: 1.0;"/><text fill="#000000" font-family="sans-serif" font-size="11" lengthAdjust="spacingAndGlyphs" textLength="65" x="1537" y="1061.2104">ColorView()</text><polygon fill="#4177AF" points="1528,1066.8047,1524,1072.8047,1532,1072.8047" style="stroke: #1963A0; stroke-width: 1.0;"/><text fill="#000000" font-family="sans-serif" font-size="11" lengthAdjust="spacingAndGlyphs" textLength="94" x="1537" y="1074.0151">ColorView(Color)</text><polygon fill="#FFFF44" points="1528,1078.6094,1532,1082.6094,1528,1086.6094,1524,1082.6094" style="stroke: #B38D22; stroke-width: 1.0;"/><text fill="#000000" font-family="sans-serif" font-size="11" lengthAdjust="spacingAndGlyphs" textLength="134" x="1537" y="1086.8198">resultInitials(int) : String</text><!--MD5=[b6dcce5e5ef3c84b0b048d11301373dd]
class Game--><rect codeLine="1" fill="#FEFECE" filter="url(#f6se40rid50rk)" height="67.9063" id="Game" style="stroke: #A80036; stroke-width: 1.5;" width="154" x="384" y="717.5"/><ellipse cx="399" cy="743.4531" fill="#ADD1B2" rx="11" ry="11" style="stroke: #A80036; stroke-width: 1.0;"/><path d="M401.3438,739.125 C400.4063,738.6875 399.8125,738.5469 398.9375,738.5469 C396.3125,738.5469 394.3125,740.625 394.3125,743.3438 L394.3125,744.4688 C394.3125,747.0469 396.4219,748.9375 399.3125,748.9375 C400.5313,748.9375 401.6875,748.6406 402.4375,748.0938 C403.0156,747.6875 403.3438,747.2344 403.3438,746.8438 C403.3438,746.3906 402.9531,746 402.4844,746 C402.2656,746 402.0625,746.0781 401.875,746.2656 C401.4219,746.75 401.4219,746.75 401.2344,746.8438 C400.8125,747.1094 400.125,747.2344 399.3594,747.2344 C397.3125,747.2344 396.0156,746.1406 396.0156,744.4375 L396.0156,743.3438 C396.0156,741.5625 397.2656,740.25 399,740.25 C399.5781,740.25 400.1875,740.4063 400.6563,740.6563 C401.1406,740.9375 401.3125,741.1563 401.4063,741.5625 C401.4688,741.9688 401.5,742.0938 401.6406,742.2188 C401.7813,742.3594 402.0156,742.4688 402.2344,742.4688 C402.5,742.4688 402.7656,742.3281 402.9375,742.1094 C403.0469,741.9531 403.0781,741.7656 403.0781,741.3438 L403.0781,739.9219 C403.0781,739.4844 403.0625,739.3594 402.9688,739.2031 C402.8125,738.9375 402.5313,738.7969 402.2344,738.7969 C401.9375,738.7969 401.7344,738.8906 401.5156,739.2031 L401.3438,739.125 Z " fill="#000000"/><text fill="#000000" font-family="sans-serif" font-size="12" lengthAdjust="spacingAndGlyphs" textLength="71" x="438.5" y="733.6387">usantatecla.</text><text fill="#000000" font-family="sans-serif" font-size="12" lengthAdjust="spacingAndGlyphs" textLength="122" x="413" y="747.6074">mastermind.models.</text><text fill="#000000" font-family="sans-serif" font-size="12" lengthAdjust="spacingAndGlyphs" textLength="35" x="456.5" y="761.5762">Game</text><line style="stroke: #A80036; stroke-width: 1.5;" x1="385" x2="537" y1="769.4063" y2="769.4063"/><line style="stroke: #A80036; stroke-width: 1.5;" x1="385" x2="537" y1="777.4063" y2="777.4063"/><!--MD5=[b8cfd8c4119a3b0a7a46bfc5fc780f85]
class Error--><rect codeLine="2" fill="#FEFECE" filter="url(#f6se40rid50rk)" height="67.9063" id="Error" style="stroke: #A80036; stroke-width: 1.5;" width="154" x="681" y="1016"/><ellipse cx="696" cy="1041.9531" fill="#ADD1B2" rx="11" ry="11" style="stroke: #A80036; stroke-width: 1.0;"/><path d="M698.3438,1037.625 C697.4063,1037.1875 696.8125,1037.0469 695.9375,1037.0469 C693.3125,1037.0469 691.3125,1039.125 691.3125,1041.8438 L691.3125,1042.9688 C691.3125,1045.5469 693.4219,1047.4375 696.3125,1047.4375 C697.5313,1047.4375 698.6875,1047.1406 699.4375,1046.5938 C700.0156,1046.1875 700.3438,1045.7344 700.3438,1045.3438 C700.3438,1044.8906 699.9531,1044.5 699.4844,1044.5 C699.2656,1044.5 699.0625,1044.5781 698.875,1044.7656 C698.4219,1045.25 698.4219,1045.25 698.2344,1045.3438 C697.8125,1045.6094 697.125,1045.7344 696.3594,1045.7344 C694.3125,1045.7344 693.0156,1044.6406 693.0156,1042.9375 L693.0156,1041.8438 C693.0156,1040.0625 694.2656,1038.75 696,1038.75 C696.5781,1038.75 697.1875,1038.9063 697.6563,1039.1563 C698.1406,1039.4375 698.3125,1039.6563 698.4063,1040.0625 C698.4688,1040.4688 698.5,1040.5938 698.6406,1040.7188 C698.7813,1040.8594 699.0156,1040.9688 699.2344,1040.9688 C699.5,1040.9688 699.7656,1040.8281 699.9375,1040.6094 C700.0469,1040.4531 700.0781,1040.2656 700.0781,1039.8438 L700.0781,1038.4219 C700.0781,1037.9844 700.0625,1037.8594 699.9688,1037.7031 C699.8125,1037.4375 699.5313,1037.2969 699.2344,1037.2969 C698.9375,1037.2969 698.7344,1037.3906 698.5156,1037.7031 L698.3438,1037.625 Z " fill="#000000"/><text fill="#000000" font-family="sans-serif" font-size="12" lengthAdjust="spacingAndGlyphs" textLength="71" x="735.5" y="1032.1387">usantatecla.</text><text fill="#000000" font-family="sans-serif" font-size="12" lengthAdjust="spacingAndGlyphs" textLength="122" x="710" y="1046.1074">mastermind.models.</text><text fill="#000000" font-family="sans-serif" font-size="12" lengthAdjust="spacingAndGlyphs" textLength="30" x="756" y="1060.0762">Error</text><line style="stroke: #A80036; stroke-width: 1.5;" x1="682" x2="834" y1="1067.9063" y2="1067.9063"/><line style="stroke: #A80036; stroke-width: 1.5;" x1="682" x2="834" y1="1075.9063" y2="1075.9063"/><!--MD5=[2741598bdf59a7d7e0d5c97658fd3022]
class Result--><rect codeLine="3" fill="#FEFECE" filter="url(#f6se40rid50rk)" height="67.9063" id="Result" style="stroke: #A80036; stroke-width: 1.5;" width="154" x="385" y="870"/><ellipse cx="400" cy="895.9531" fill="#ADD1B2" rx="11" ry="11" style="stroke: #A80036; stroke-width: 1.0;"/><path d="M402.3438,891.625 C401.4063,891.1875 400.8125,891.0469 399.9375,891.0469 C397.3125,891.0469 395.3125,893.125 395.3125,895.8438 L395.3125,896.9688 C395.3125,899.5469 397.4219,901.4375 400.3125,901.4375 C401.5313,901.4375 402.6875,901.1406 403.4375,900.5938 C404.0156,900.1875 404.3438,899.7344 404.3438,899.3438 C404.3438,898.8906 403.9531,898.5 403.4844,898.5 C403.2656,898.5 403.0625,898.5781 402.875,898.7656 C402.4219,899.25 402.4219,899.25 402.2344,899.3438 C401.8125,899.6094 401.125,899.7344 400.3594,899.7344 C398.3125,899.7344 397.0156,898.6406 397.0156,896.9375 L397.0156,895.8438 C397.0156,894.0625 398.2656,892.75 400,892.75 C400.5781,892.75 401.1875,892.9063 401.6563,893.1563 C402.1406,893.4375 402.3125,893.6563 402.4063,894.0625 C402.4688,894.4688 402.5,894.5938 402.6406,894.7188 C402.7813,894.8594 403.0156,894.9688 403.2344,894.9688 C403.5,894.9688 403.7656,894.8281 403.9375,894.6094 C404.0469,894.4531 404.0781,894.2656 404.0781,893.8438 L404.0781,892.4219 C404.0781,891.9844 404.0625,891.8594 403.9688,891.7031 C403.8125,891.4375 403.5313,891.2969 403.2344,891.2969 C402.9375,891.2969 402.7344,891.3906 402.5156,891.7031 L402.3438,891.625 Z " fill="#000000"/><text fill="#000000" font-family="sans-serif" font-size="12" lengthAdjust="spacingAndGlyphs" textLength="71" x="439.5" y="886.1387">usantatecla.</text><text fill="#000000" font-family="sans-serif" font-size="12" lengthAdjust="spacingAndGlyphs" textLength="122" x="414" y="900.1074">mastermind.models.</text><text fill="#000000" font-family="sans-serif" font-size="12" lengthAdjust="spacingAndGlyphs" textLength="36" x="457" y="914.0762">Result</text><line style="stroke: #A80036; stroke-width: 1.5;" x1="386" x2="538" y1="921.9063" y2="921.9063"/><line style="stroke: #A80036; stroke-width: 1.5;" x1="386" x2="538" y1="929.9063" y2="929.9063"/><!--MD5=[18eee71c88ab61f27581b8cbdd3ef5ee]
class Color--><rect codeLine="4" fill="#FEFECE" filter="url(#f6se40rid50rk)" height="67.9063" id="Color" style="stroke: #A80036; stroke-width: 1.5;" width="154" x="1017" y="1153"/><ellipse cx="1032" cy="1178.9531" fill="#EB937F" rx="11" ry="11" style="stroke: #A80036; stroke-width: 1.0;"/><path d="M1030.7969,1179.8281 L1032.25,1179.8281 L1032.25,1179.9375 C1032.25,1180.3438 1032.2813,1180.5 1032.3594,1180.6563 C1032.5156,1180.9063 1032.7969,1181.0625 1033.0938,1181.0625 C1033.3438,1181.0625 1033.6094,1180.9219 1033.7656,1180.7031 C1033.8906,1180.5469 1033.9219,1180.3906 1033.9219,1179.9375 L1033.9219,1178.0156 C1033.9219,1177.8594 1033.9219,1177.8125 1033.9063,1177.6563 C1033.8438,1177.1875 1033.5313,1176.875 1033.0781,1176.875 C1032.8281,1176.875 1032.5625,1177.0156 1032.3906,1177.2344 C1032.2813,1177.4063 1032.25,1177.5625 1032.25,1178.0156 L1032.25,1178.1406 L1030.7969,1178.1406 L1030.7969,1175.7344 L1034.7813,1175.7344 L1034.7813,1176.5938 C1034.7813,1177 1034.8125,1177.1719 1034.8906,1177.3281 C1035.0625,1177.5781 1035.3438,1177.7344 1035.625,1177.7344 C1035.8906,1177.7344 1036.1563,1177.5938 1036.3281,1177.375 C1036.4375,1177.2031 1036.4688,1177.0625 1036.4688,1176.5938 L1036.4688,1174.0469 L1028.8438,1174.0469 C1028.4063,1174.0469 1028.2813,1174.0625 1028.125,1174.1563 C1027.875,1174.3125 1027.7188,1174.6094 1027.7188,1174.8906 C1027.7188,1175.1719 1027.8594,1175.4219 1028.0781,1175.5938 C1028.2344,1175.7031 1028.4219,1175.7344 1028.8438,1175.7344 L1029.0938,1175.7344 L1029.0938,1182.25 L1028.8438,1182.25 C1028.4375,1182.25 1028.2813,1182.2656 1028.125,1182.375 C1027.875,1182.5469 1027.7188,1182.8125 1027.7188,1183.1094 C1027.7188,1183.375 1027.8594,1183.625 1028.0781,1183.7813 C1028.2188,1183.9063 1028.4531,1183.9531 1028.8438,1183.9531 L1036.8438,1183.9531 L1036.8438,1181.375 C1036.8438,1180.9375 1036.8125,1180.7969 1036.7344,1180.6406 C1036.5625,1180.3906 1036.2813,1180.2344 1036,1180.2344 C1035.7344,1180.2344 1035.4688,1180.3438 1035.2969,1180.5938 C1035.1875,1180.75 1035.1563,1180.8906 1035.1563,1181.375 L1035.1563,1182.25 L1030.7969,1182.25 L1030.7969,1179.8281 Z " fill="#000000"/><text fill="#000000" font-family="sans-serif" font-size="12" lengthAdjust="spacingAndGlyphs" textLength="71" x="1071.5" y="1169.1387">usantatecla.</text><text fill="#000000" font-family="sans-serif" font-size="12" lengthAdjust="spacingAndGlyphs" textLength="122" x="1046" y="1183.1074">mastermind.models.</text><text fill="#000000" font-family="sans-serif" font-size="12" lengthAdjust="spacingAndGlyphs" textLength="32" x="1091" y="1197.0762">Color</text><line style="stroke: #A80036; stroke-width: 1.5;" x1="1018" x2="1170" y1="1204.9063" y2="1204.9063"/><line style="stroke: #A80036; stroke-width: 1.5;" x1="1018" x2="1170" y1="1212.9063" y2="1212.9063"/><!--MD5=[28491d17d5ee38c9c116625a5ffc259a]
class Combination--><rect codeLine="5" fill="#FEFECE" filter="url(#f6se40rid50rk)" height="67.9063" id="Combination" style="stroke: #A80036; stroke-width: 1.5;" width="156" x="716" y="870"/><ellipse cx="731" cy="895.9531" fill="#A9DCDF" rx="11" ry="11" style="stroke: #A80036; stroke-width: 1.0;"/><path d="M733.0781,897.7656 L733.4688,898.75 L733.0781,898.75 C732.625,898.75 732.5156,898.7656 732.3594,898.875 C732.1094,899.0313 731.9531,899.3125 731.9531,899.6094 C731.9531,899.875 732.0938,900.125 732.3125,900.2813 C732.4531,900.4063 732.6563,900.4531 733.0781,900.4531 L735.4375,900.4531 C735.7969,900.4531 736.0156,900.4219 736.1563,900.3281 C736.4063,900.1875 736.5625,899.8906 736.5625,899.6094 C736.5625,899.3281 736.4219,899.0781 736.2031,898.9219 C736.0313,898.7813 735.875,898.75 735.4063,898.75 L732.0156,890.5469 L728.3438,890.5469 C727.8906,890.5469 727.7656,890.5625 727.6094,890.6563 C727.3594,890.8281 727.2031,891.1094 727.2031,891.3906 C727.2031,891.6719 727.3438,891.9219 727.5625,892.0938 C727.7344,892.2031 727.9063,892.2344 728.3438,892.2344 L729.4219,892.2344 L726.7813,898.75 C726.3594,898.75 726.2031,898.7656 726.0469,898.875 C725.7969,899.0313 725.6406,899.3125 725.6406,899.6094 C725.6406,900.1719 726.0156,900.4531 726.7656,900.4531 L729.0313,900.4531 C729.3906,900.4531 729.6094,900.4219 729.7344,900.3281 C730,900.1875 730.1406,899.8906 730.1406,899.6094 C730.1406,899.3281 730.0156,899.0781 729.7969,898.9063 C729.625,898.7813 729.4844,898.75 729.0313,898.75 L728.6406,898.75 L729.0313,897.7656 L733.0781,897.7656 Z M732.375,896.0625 L729.7031,896.0625 L731.0469,892.7969 L732.375,896.0625 Z " fill="#000000"/><text fill="#000000" font-family="sans-serif" font-size="12" font-style="italic" lengthAdjust="spacingAndGlyphs" textLength="74" x="770" y="886.1387">usantatecla.</text><text fill="#000000" font-family="sans-serif" font-size="12" font-style="italic" lengthAdjust="spacingAndGlyphs" textLength="124" x="745" y="900.1074">mastermind.models.</text><text fill="#000000" font-family="sans-serif" font-size="12" font-style="italic" lengthAdjust="spacingAndGlyphs" textLength="76" x="769" y="914.0762">Combination</text><line style="stroke: #A80036; stroke-width: 1.5;" x1="717" x2="871" y1="921.9063" y2="921.9063"/><line style="stroke: #A80036; stroke-width: 1.5;" x1="717" x2="871" y1="929.9063" y2="929.9063"/><!--MD5=[cf489b19c51ee25e76ddca093e62e620]
class ProposedCombination--><rect codeLine="6" fill="#FEFECE" filter="url(#f6se40rid50rk)" height="67.9063" id="ProposedCombination" style="stroke: #A80036; stroke-width: 1.5;" width="164" x="186" y="870"/><ellipse cx="201" cy="895.9531" fill="#ADD1B2" rx="11" ry="11" style="stroke: #A80036; stroke-width: 1.0;"/><path d="M203.3438,891.625 C202.4063,891.1875 201.8125,891.0469 200.9375,891.0469 C198.3125,891.0469 196.3125,893.125 196.3125,895.8438 L196.3125,896.9688 C196.3125,899.5469 198.4219,901.4375 201.3125,901.4375 C202.5313,901.4375 203.6875,901.1406 204.4375,900.5938 C205.0156,900.1875 205.3438,899.7344 205.3438,899.3438 C205.3438,898.8906 204.9531,898.5 204.4844,898.5 C204.2656,898.5 204.0625,898.5781 203.875,898.7656 C203.4219,899.25 203.4219,899.25 203.2344,899.3438 C202.8125,899.6094 202.125,899.7344 201.3594,899.7344 C199.3125,899.7344 198.0156,898.6406 198.0156,896.9375 L198.0156,895.8438 C198.0156,894.0625 199.2656,892.75 201,892.75 C201.5781,892.75 202.1875,892.9063 202.6563,893.1563 C203.1406,893.4375 203.3125,893.6563 203.4063,894.0625 C203.4688,894.4688 203.5,894.5938 203.6406,894.7188 C203.7813,894.8594 204.0156,894.9688 204.2344,894.9688 C204.5,894.9688 204.7656,894.8281 204.9375,894.6094 C205.0469,894.4531 205.0781,894.2656 205.0781,893.8438 L205.0781,892.4219 C205.0781,891.9844 205.0625,891.8594 204.9688,891.7031 C204.8125,891.4375 204.5313,891.2969 204.2344,891.2969 C203.9375,891.2969 203.7344,891.3906 203.5156,891.7031 L203.3438,891.625 Z " fill="#000000"/><text fill="#000000" font-family="sans-serif" font-size="12" lengthAdjust="spacingAndGlyphs" textLength="71" x="245.5" y="886.1387">usantatecla.</text><text fill="#000000" font-family="sans-serif" font-size="12" lengthAdjust="spacingAndGlyphs" textLength="122" x="220" y="900.1074">mastermind.models.</text><text fill="#000000" font-family="sans-serif" font-size="12" lengthAdjust="spacingAndGlyphs" textLength="132" x="215" y="914.0762">ProposedCombination</text><line style="stroke: #A80036; stroke-width: 1.5;" x1="187" x2="349" y1="921.9063" y2="921.9063"/><line style="stroke: #A80036; stroke-width: 1.5;" x1="187" x2="349" y1="929.9063" y2="929.9063"/><!--MD5=[e370ee5c0c15ce04544d5f5a73174d72]
class SecretCombination--><rect codeLine="7" fill="#FEFECE" filter="url(#f6se40rid50rk)" height="67.9063" id="SecretCombination" style="stroke: #A80036; stroke-width: 1.5;" width="154" x="573" y="717.5"/><ellipse cx="588" cy="743.4531" fill="#ADD1B2" rx="11" ry="11" style="stroke: #A80036; stroke-width: 1.0;"/><path d="M590.3438,739.125 C589.4063,738.6875 588.8125,738.5469 587.9375,738.5469 C585.3125,738.5469 583.3125,740.625 583.3125,743.3438 L583.3125,744.4688 C583.3125,747.0469 585.4219,748.9375 588.3125,748.9375 C589.5313,748.9375 590.6875,748.6406 591.4375,748.0938 C592.0156,747.6875 592.3438,747.2344 592.3438,746.8438 C592.3438,746.3906 591.9531,746 591.4844,746 C591.2656,746 591.0625,746.0781 590.875,746.2656 C590.4219,746.75 590.4219,746.75 590.2344,746.8438 C589.8125,747.1094 589.125,747.2344 588.3594,747.2344 C586.3125,747.2344 585.0156,746.1406 585.0156,744.4375 L585.0156,743.3438 C585.0156,741.5625 586.2656,740.25 588,740.25 C588.5781,740.25 589.1875,740.4063 589.6563,740.6563 C590.1406,740.9375 590.3125,741.1563 590.4063,741.5625 C590.4688,741.9688 590.5,742.0938 590.6406,742.2188 C590.7813,742.3594 591.0156,742.4688 591.2344,742.4688 C591.5,742.4688 591.7656,742.3281 591.9375,742.1094 C592.0469,741.9531 592.0781,741.7656 592.0781,741.3438 L592.0781,739.9219 C592.0781,739.4844 592.0625,739.3594 591.9688,739.2031 C591.8125,738.9375 591.5313,738.7969 591.2344,738.7969 C590.9375,738.7969 590.7344,738.8906 590.5156,739.2031 L590.3438,739.125 Z " fill="#000000"/><text fill="#000000" font-family="sans-serif" font-size="12" lengthAdjust="spacingAndGlyphs" textLength="71" x="627.5" y="733.6387">usantatecla.</text><text fill="#000000" font-family="sans-serif" font-size="12" lengthAdjust="spacingAndGlyphs" textLength="122" x="602" y="747.6074">mastermind.models.</text><text fill="#000000" font-family="sans-serif" font-size="12" lengthAdjust="spacingAndGlyphs" textLength="114" x="606" y="761.5762">SecretCombination</text><line style="stroke: #A80036; stroke-width: 1.5;" x1="574" x2="726" y1="769.4063" y2="769.4063"/><line style="stroke: #A80036; stroke-width: 1.5;" x1="574" x2="726" y1="777.4063" y2="777.4063"/><!--MD5=[c045e12321b83266d36d22b9096c24ea]
class View--><rect codeLine="8" fill="#FEFECE" filter="url(#f6se40rid50rk)" height="67.9063" id="View" style="stroke: #A80036; stroke-width: 1.5;" width="146" x="916" y="7"/><ellipse cx="931" cy="32.9531" fill="#A9DCDF" rx="11" ry="11" style="stroke: #A80036; stroke-width: 1.0;"/><path d="M933.0781,34.7656 L933.4688,35.75 L933.0781,35.75 C932.625,35.75 932.5156,35.7656 932.3594,35.875 C932.1094,36.0313 931.9531,36.3125 931.9531,36.6094 C931.9531,36.875 932.0938,37.125 932.3125,37.2813 C932.4531,37.4063 932.6563,37.4531 933.0781,37.4531 L935.4375,37.4531 C935.7969,37.4531 936.0156,37.4219 936.1563,37.3281 C936.4063,37.1875 936.5625,36.8906 936.5625,36.6094 C936.5625,36.3281 936.4219,36.0781 936.2031,35.9219 C936.0313,35.7813 935.875,35.75 935.4063,35.75 L932.0156,27.5469 L928.3438,27.5469 C927.8906,27.5469 927.7656,27.5625 927.6094,27.6563 C927.3594,27.8281 927.2031,28.1094 927.2031,28.3906 C927.2031,28.6719 927.3438,28.9219 927.5625,29.0938 C927.7344,29.2031 927.9063,29.2344 928.3438,29.2344 L929.4219,29.2344 L926.7813,35.75 C926.3594,35.75 926.2031,35.7656 926.0469,35.875 C925.7969,36.0313 925.6406,36.3125 925.6406,36.6094 C925.6406,37.1719 926.0156,37.4531 926.7656,37.4531 L929.0313,37.4531 C929.3906,37.4531 929.6094,37.4219 929.7344,37.3281 C930,37.1875 930.1406,36.8906 930.1406,36.6094 C930.1406,36.3281 930.0156,36.0781 929.7969,35.9063 C929.625,35.7813 929.4844,35.75 929.0313,35.75 L928.6406,35.75 L929.0313,34.7656 L933.0781,34.7656 Z M932.375,33.0625 L929.7031,33.0625 L931.0469,29.7969 L932.375,33.0625 Z " fill="#000000"/><text fill="#000000" font-family="sans-serif" font-size="12" font-style="italic" lengthAdjust="spacingAndGlyphs" textLength="74" x="965" y="23.1387">usantatecla.</text><text fill="#000000" font-family="sans-serif" font-size="12" font-style="italic" lengthAdjust="spacingAndGlyphs" textLength="114" x="945" y="37.1074">mastermind.views.</text><text fill="#000000" font-family="sans-serif" font-size="12" font-style="italic" lengthAdjust="spacingAndGlyphs" textLength="28" x="988" y="51.0762">View</text><line style="stroke: #A80036; stroke-width: 1.5;" x1="917" x2="1061" y1="58.9063" y2="58.9063"/><line style="stroke: #A80036; stroke-width: 1.5;" x1="917" x2="1061" y1="66.9063" y2="66.9063"/><!--MD5=[5c0d2bf114541dffca76af5edd55a1b5]
class ColorView--><rect codeLine="9" fill="#FEFECE" filter="url(#f6se40rid50rk)" height="67.9063" id="ColorView" style="stroke: #A80036; stroke-width: 1.5;" width="146" x="1783" y="870"/><ellipse cx="1798" cy="895.9531" fill="#A9DCDF" rx="11" ry="11" style="stroke: #A80036; stroke-width: 1.0;"/><path d="M1800.0781,897.7656 L1800.4688,898.75 L1800.0781,898.75 C1799.625,898.75 1799.5156,898.7656 1799.3594,898.875 C1799.1094,899.0313 1798.9531,899.3125 1798.9531,899.6094 C1798.9531,899.875 1799.0938,900.125 1799.3125,900.2813 C1799.4531,900.4063 1799.6563,900.4531 1800.0781,900.4531 L1802.4375,900.4531 C1802.7969,900.4531 1803.0156,900.4219 1803.1563,900.3281 C1803.4063,900.1875 1803.5625,899.8906 1803.5625,899.6094 C1803.5625,899.3281 1803.4219,899.0781 1803.2031,898.9219 C1803.0313,898.7813 1802.875,898.75 1802.4063,898.75 L1799.0156,890.5469 L1795.3438,890.5469 C1794.8906,890.5469 1794.7656,890.5625 1794.6094,890.6563 C1794.3594,890.8281 1794.2031,891.1094 1794.2031,891.3906 C1794.2031,891.6719 1794.3438,891.9219 1794.5625,892.0938 C1794.7344,892.2031 1794.9063,892.2344 1795.3438,892.2344 L1796.4219,892.2344 L1793.7813,898.75 C1793.3594,898.75 1793.2031,898.7656 1793.0469,898.875 C1792.7969,899.0313 1792.6406,899.3125 1792.6406,899.6094 C1792.6406,900.1719 1793.0156,900.4531 1793.7656,900.4531 L1796.0313,900.4531 C1796.3906,900.4531 1796.6094,900.4219 1796.7344,900.3281 C1797,900.1875 1797.1406,899.8906 1797.1406,899.6094 C1797.1406,899.3281 1797.0156,899.0781 1796.7969,898.9063 C1796.625,898.7813 1796.4844,898.75 1796.0313,898.75 L1795.6406,898.75 L1796.0313,897.7656 L1800.0781,897.7656 Z M1799.375,896.0625 L1796.7031,896.0625 L1798.0469,892.7969 L1799.375,896.0625 Z " fill="#000000"/><text fill="#000000" font-family="sans-serif" font-size="12" font-style="italic" lengthAdjust="spacingAndGlyphs" textLength="74" x="1832" y="886.1387">usantatecla.</text><text fill="#000000" font-family="sans-serif" font-size="12" font-style="italic" lengthAdjust="spacingAndGlyphs" textLength="114" x="1812" y="900.1074">mastermind.views.</text><text fill="#000000" font-family="sans-serif" font-size="12" font-style="italic" lengthAdjust="spacingAndGlyphs" textLength="58" x="1840" y="914.0762">ColorView</text><line style="stroke: #A80036; stroke-width: 1.5;" x1="1784" x2="1928" y1="921.9063" y2="921.9063"/><line style="stroke: #A80036; stroke-width: 1.5;" x1="1784" x2="1928" y1="929.9063" y2="929.9063"/><!--MD5=[86cec68673cafdfc1c204348d5b2cca6]
class ErrorView--><rect codeLine="10" fill="#FEFECE" filter="url(#f6se40rid50rk)" height="67.9063" id="ErrorView" style="stroke: #A80036; stroke-width: 1.5;" width="146" x="1786" y="717.5"/><ellipse cx="1801" cy="743.4531" fill="#A9DCDF" rx="11" ry="11" style="stroke: #A80036; stroke-width: 1.0;"/><path d="M1803.0781,745.2656 L1803.4688,746.25 L1803.0781,746.25 C1802.625,746.25 1802.5156,746.2656 1802.3594,746.375 C1802.1094,746.5313 1801.9531,746.8125 1801.9531,747.1094 C1801.9531,747.375 1802.0938,747.625 1802.3125,747.7813 C1802.4531,747.9063 1802.6563,747.9531 1803.0781,747.9531 L1805.4375,747.9531 C1805.7969,747.9531 1806.0156,747.9219 1806.1563,747.8281 C1806.4063,747.6875 1806.5625,747.3906 1806.5625,747.1094 C1806.5625,746.8281 1806.4219,746.5781 1806.2031,746.4219 C1806.0313,746.2813 1805.875,746.25 1805.4063,746.25 L1802.0156,738.0469 L1798.3438,738.0469 C1797.8906,738.0469 1797.7656,738.0625 1797.6094,738.1563 C1797.3594,738.3281 1797.2031,738.6094 1797.2031,738.8906 C1797.2031,739.1719 1797.3438,739.4219 1797.5625,739.5938 C1797.7344,739.7031 1797.9063,739.7344 1798.3438,739.7344 L1799.4219,739.7344 L1796.7813,746.25 C1796.3594,746.25 1796.2031,746.2656 1796.0469,746.375 C1795.7969,746.5313 1795.6406,746.8125 1795.6406,747.1094 C1795.6406,747.6719 1796.0156,747.9531 1796.7656,747.9531 L1799.0313,747.9531 C1799.3906,747.9531 1799.6094,747.9219 1799.7344,747.8281 C1800,747.6875 1800.1406,747.3906 1800.1406,747.1094 C1800.1406,746.8281 1800.0156,746.5781 1799.7969,746.4063 C1799.625,746.2813 1799.4844,746.25 1799.0313,746.25 L1798.6406,746.25 L1799.0313,745.2656 L1803.0781,745.2656 Z M1802.375,743.5625 L1799.7031,743.5625 L1801.0469,740.2969 L1802.375,743.5625 Z " fill="#000000"/><text fill="#000000" font-family="sans-serif" font-size="12" font-style="italic" lengthAdjust="spacingAndGlyphs" textLength="74" x="1835" y="733.6387">usantatecla.</text><text fill="#000000" font-family="sans-serif" font-size="12" font-style="italic" lengthAdjust="spacingAndGlyphs" textLength="114" x="1815" y="747.6074">mastermind.views.</text><text fill="#000000" font-family="sans-serif" font-size="12" font-style="italic" lengthAdjust="spacingAndGlyphs" textLength="58" x="1843" y="761.5762">ErrorView</text><line style="stroke: #A80036; stroke-width: 1.5;" x1="1787" x2="1931" y1="769.4063" y2="769.4063"/><line style="stroke: #A80036; stroke-width: 1.5;" x1="1787" x2="1931" y1="777.4063" y2="777.4063"/><!--MD5=[bea5b0d46523efab5ea1c1d339f396f0]
class Message--><rect codeLine="11" fill="#FEFECE" filter="url(#f6se40rid50rk)" height="67.9063" id="Message" style="stroke: #A80036; stroke-width: 1.5;" width="144" x="7" y="870"/><ellipse cx="22" cy="895.9531" fill="#EB937F" rx="11" ry="11" style="stroke: #A80036; stroke-width: 1.0;"/><path d="M20.7969,896.8281 L22.25,896.8281 L22.25,896.9375 C22.25,897.3438 22.2813,897.5 22.3594,897.6563 C22.5156,897.9063 22.7969,898.0625 23.0938,898.0625 C23.3438,898.0625 23.6094,897.9219 23.7656,897.7031 C23.8906,897.5469 23.9219,897.3906 23.9219,896.9375 L23.9219,895.0156 C23.9219,894.8594 23.9219,894.8125 23.9063,894.6563 C23.8438,894.1875 23.5313,893.875 23.0781,893.875 C22.8281,893.875 22.5625,894.0156 22.3906,894.2344 C22.2813,894.4063 22.25,894.5625 22.25,895.0156 L22.25,895.1406 L20.7969,895.1406 L20.7969,892.7344 L24.7813,892.7344 L24.7813,893.5938 C24.7813,894 24.8125,894.1719 24.8906,894.3281 C25.0625,894.5781 25.3438,894.7344 25.625,894.7344 C25.8906,894.7344 26.1563,894.5938 26.3281,894.375 C26.4375,894.2031 26.4688,894.0625 26.4688,893.5938 L26.4688,891.0469 L18.8438,891.0469 C18.4063,891.0469 18.2813,891.0625 18.125,891.1563 C17.875,891.3125 17.7188,891.6094 17.7188,891.8906 C17.7188,892.1719 17.8594,892.4219 18.0781,892.5938 C18.2344,892.7031 18.4219,892.7344 18.8438,892.7344 L19.0938,892.7344 L19.0938,899.25 L18.8438,899.25 C18.4375,899.25 18.2813,899.2656 18.125,899.375 C17.875,899.5469 17.7188,899.8125 17.7188,900.1094 C17.7188,900.375 17.8594,900.625 18.0781,900.7813 C18.2188,900.9063 18.4531,900.9531 18.8438,900.9531 L26.8438,900.9531 L26.8438,898.375 C26.8438,897.9375 26.8125,897.7969 26.7344,897.6406 C26.5625,897.3906 26.2813,897.2344 26,897.2344 C25.7344,897.2344 25.4688,897.3438 25.2969,897.5938 C25.1875,897.75 25.1563,897.8906 25.1563,898.375 L25.1563,899.25 L20.7969,899.25 L20.7969,896.8281 Z " fill="#000000"/><text fill="#000000" font-family="sans-serif" font-size="12" lengthAdjust="spacingAndGlyphs" textLength="71" x="56.5" y="886.1387">usantatecla.</text><text fill="#000000" font-family="sans-serif" font-size="12" lengthAdjust="spacingAndGlyphs" textLength="112" x="36" y="900.1074">mastermind.views.</text><text fill="#000000" font-family="sans-serif" font-size="12" lengthAdjust="spacingAndGlyphs" textLength="55" x="64.5" y="914.0762">Message</text><line style="stroke: #A80036; stroke-width: 1.5;" x1="8" x2="150" y1="921.9063" y2="921.9063"/><line style="stroke: #A80036; stroke-width: 1.5;" x1="8" x2="150" y1="929.9063" y2="929.9063"/><!--MD5=[67914d88e57407f31bdff3578020dd1d]
reverse link View to usantatecla.mastermind.views.graphics.GraphicsView--><path codeLine="22" d="M989,95.31 C989,108.33 989,122.2 989,134.98 " fill="none" id="View-backto-usantatecla.mastermind.views.graphics.GraphicsView" style="stroke: #A80036; stroke-width: 1.0;"/><polygon fill="none" points="982,95.18,989,75.18,996,95.18,982,95.18" style="stroke: #A80036; stroke-width: 1.0;"/><!--MD5=[b9e9af62091b4c82609aa1a15f8b8f5f]
link usantatecla.mastermind.views.graphics.GraphicsView to usantatecla.mastermind.views.graphics.GameView--><path codeLine="23" d="M1012.255,245.4007 C1012.255,245.4007 1021.73,269.793 1026.21,281.346 " fill="none" id="usantatecla.mastermind.views.graphics.GraphicsView-usantatecla.mastermind.views.graphics.GameView" style="stroke: #A80036; stroke-width: 1.0;"/><polygon fill="#A80036" points="1031.02,293.734,1031.4947,283.8966,1029.2119,289.0724,1024.0361,286.7895,1031.02,293.734" style="stroke: #A80036; stroke-width: 1.0;"/><line style="stroke: #A80036; stroke-width: 1.0;" x1="1029.2119" x2="1026.315" y1="289.0724" y2="281.6155"/><polygon fill="#A80036" points="1007.91,234.215,1006.3539,241.2562,1012.255,245.4007,1013.8111,238.3595,1007.91,234.215" style="stroke: #A80036; stroke-width: 1.0;"/><!--MD5=[c7457b5016fac9194c1d32859b38999f]
link usantatecla.mastermind.views.graphics.GraphicsView to Game--><path codeLine="24" d="M915.677,234.204 C838.328,287.961 715.849,380.07 629,479 C563.198,553.955 506.897,657.677 479.251,712.693 " fill="none" id="usantatecla.mastermind.views.graphics.GraphicsView-to-Game" style="stroke: #A80036; stroke-width: 1.0; stroke-dasharray: 7.0,7.0;"/><polygon fill="#A80036" points="476.988,717.216,484.5922,710.957,479.2252,712.7444,477.4377,707.3774,476.988,717.216" style="stroke: #A80036; stroke-width: 1.0;"/><!--MD5=[9b5fd559ddcb893eaa2c60b86c53c828]
link usantatecla.mastermind.views.graphics.GraphicsView to usantatecla.mastermind.views.graphics.ResumeDialog--><path codeLine="25" d="M1069.36,184.5 C1079.15,184.5 1088.94,184.5 1098.72,184.5 " fill="none" id="usantatecla.mastermind.views.graphics.GraphicsView-to-usantatecla.mastermind.views.graphics.ResumeDialog" style="stroke: #A80036; stroke-width: 1.0; stroke-dasharray: 7.0,7.0;"/><polygon fill="#A80036" points="1103.84,184.5,1094.84,180.5,1098.84,184.5,1094.84,188.5,1103.84,184.5" style="stroke: #A80036; stroke-width: 1.0;"/><!--MD5=[ae8958868a338dac2d8b79b00261be60]
reverse link javax.swing to usantatecla.mastermind.views.graphics.GameView--><path codeLine="35" d="M1763.03,356.5 C1557.21,356.5 1351.39,356.5 1145.57,356.5 " fill="none" id="javax.swing-backto-usantatecla.mastermind.views.graphics.GameView" style="stroke: #A80036; stroke-width: 1.0;"/><polygon fill="none" points="1763.27,349.5,1783.27,356.5,1763.27,363.5,1763.27,349.5" style="stroke: #A80036; stroke-width: 1.0;"/><!--MD5=[e9fc16e1808ce4fa62d1bd0d33dc1ef9]
link usantatecla.mastermind.views.graphics.GameView to Game--><path codeLine="36" d="M954.4531,424.0234 C954.4531,424.0234 624.086,642.6 522.187,710.018 " fill="none" id="usantatecla.mastermind.views.graphics.GameView-Game" style="stroke: #A80036; stroke-width: 1.0;"/><polygon fill="#A80036" points="511.173,717.305,520.886,715.6749,515.3429,714.5461,516.4718,709.003,511.173,717.305" style="stroke: #A80036; stroke-width: 1.0;"/><line style="stroke: #A80036; stroke-width: 1.0;" x1="515.3429" x2="522.0155" y1="714.5461" y2="710.1315"/><polygon fill="#A80036" points="964.461,417.402,957.2499,417.3767,954.4531,424.0234,961.6642,424.0486,964.461,417.402" style="stroke: #A80036; stroke-width: 1.0;"/><!--MD5=[d471d9df9d9b6b159d6bd4f3cb7c5575]
link usantatecla.mastermind.views.graphics.GameView to usantatecla.mastermind.views.graphics.SecretCombinationView--><path codeLine="37" d="M1032.1887,430.6602 C1032.1887,430.6602 1014.55,487.194 1007.17,510.857 " fill="none" id="usantatecla.mastermind.views.graphics.GameView-usantatecla.mastermind.views.graphics.SecretCombinationView" style="stroke: #A80036; stroke-width: 1.0;"/><polygon fill="#A80036" points="1003.256,523.408,1009.7548,516.0076,1004.745,518.6349,1002.1177,513.6251,1003.256,523.408" style="stroke: #A80036; stroke-width: 1.0;"/><line style="stroke: #A80036; stroke-width: 1.0;" x1="1004.745" x2="1007.1265" y1="518.6349" y2="510.998"/><polygon fill="#A80036" points="1035.76,419.204,1030.1556,423.7417,1032.1887,430.6602,1037.7931,426.1226,1035.76,419.204" style="stroke: #A80036; stroke-width: 1.0;"/><!--MD5=[2cf294f0035086b20124541417c28bb0]
link usantatecla.mastermind.views.graphics.GameView to usantatecla.mastermind.views.graphics.ProposedCombinationsView--><path codeLine="38" d="M1157.0702,386.5146 C1157.0702,386.5146 1324.67,440.93 1405,479 C1427.59,489.707 1451.19,503.354 1472.03,516.357 " fill="none" id="usantatecla.mastermind.views.graphics.GameView-usantatecla.mastermind.views.graphics.ProposedCombinationsView" style="stroke: #A80036; stroke-width: 1.0;"/><polygon fill="#A80036" points="1483.3,523.492,1477.8371,515.2971,1479.076,520.8166,1473.5565,522.0555,1483.3,523.492" style="stroke: #A80036; stroke-width: 1.0;"/><line style="stroke: #A80036; stroke-width: 1.0;" x1="1479.076" x2="1472.315" y1="520.8166" y2="516.5385"/><polygon fill="#A80036" points="1145.59,383.021,1150.1655,388.5945,1157.0702,386.5146,1152.4946,380.9411,1145.59,383.021" style="stroke: #A80036; stroke-width: 1.0;"/><!--MD5=[c270350af9218ddec0e2ae1354e49943]
link usantatecla.mastermind.views.graphics.GameView to usantatecla.mastermind.views.graphics.ProposalCombinationView--><path codeLine="39" d="M1129.4196,427.4271 C1129.4196,427.4271 1159.61,455.788 1174.43,469.708 " fill="none" id="usantatecla.mastermind.views.graphics.GameView-usantatecla.mastermind.views.graphics.ProposalCombinationView" style="stroke: #A80036; stroke-width: 1.0;"/><polygon fill="#A80036" points="1184.11,478.802,1180.289,469.7245,1180.4657,475.3786,1174.8116,475.5554,1184.11,478.802" style="stroke: #A80036; stroke-width: 1.0;"/><line style="stroke: #A80036; stroke-width: 1.0;" x1="1180.4657" x2="1174.635" y1="475.3786" y2="469.901"/><polygon fill="#A80036" points="1120.68,419.204,1122.3088,426.2287,1129.4196,427.4271,1127.7908,420.4023,1120.68,419.204" style="stroke: #A80036; stroke-width: 1.0;"/><!--MD5=[6ef4741a18ef4ca1c77b2d524244f93e]
link usantatecla.mastermind.views.graphics.GameView to java.awt--><path codeLine="40" d="M1145.65,364.656 C1313.23,379.224 1663.83,416.359 1767,479 C1786.76,490.997 1802.34,511.985 1812.81,529.523 " fill="none" id="usantatecla.mastermind.views.graphics.GameView-to-java.awt" style="stroke: #A80036; stroke-width: 1.0; stroke-dasharray: 7.0,7.0;"/><polygon fill="#A80036" points="1815.37,533.9,1814.2895,524.1106,1812.8503,529.5813,1807.3796,528.1421,1815.37,533.9" style="stroke: #A80036; stroke-width: 1.0;"/><!--MD5=[60f09834d997e7b7db7c81cb332b3369]
link usantatecla.mastermind.views.graphics.GameView to Message--><path codeLine="41" d="M964.334,366.572 C809.301,383.383 501.07,422.847 409,479 C327.277,528.843 164.48,771.298 103.1364,865.483 " fill="none" id="usantatecla.mastermind.views.graphics.GameView-to-Message" style="stroke: #A80036; stroke-width: 1.0; stroke-dasharray: 7.0,7.0;"/><polygon fill="#A80036" points="100.2927,869.855,108.5539,864.4928,103.0196,865.6641,101.8484,860.1298,100.2927,869.855" style="stroke: #A80036; stroke-width: 1.0;"/><!--MD5=[600b86a8148b156ae6f664ac5bd3a4ef]
link usantatecla.mastermind.views.graphics.GameView to usantatecla.mastermind.views.graphics.Constraints--><path codeLine="42" d="M1082.05,419.101 C1103.93,478.272 1126.67,569.176 1097,642 C1084.74,672.086 1059.68,698.371 1037.01,717.532 " fill="none" id="usantatecla.mastermind.views.graphics.GameView-to-usantatecla.mastermind.views.graphics.Constraints" style="stroke: #A80036; stroke-width: 1.0; stroke-dasharray: 7.0,7.0;"/><polygon fill="#A80036" points="1033.1,720.786,1042.5757,718.1007,1036.9423,717.5865,1037.4565,711.953,1033.1,720.786" style="stroke: #A80036; stroke-width: 1.0;"/><!--MD5=[70b8375a39ef3db837351c6181e9c77b]
link usantatecla.mastermind.views.graphics.GameView to ProposedCombination--><path codeLine="43" d="M964.323,371.799 C875.072,388.473 736.862,421.39 629,479 C493.821,551.199 460.032,580.987 366,702 C326.434,752.919 296.956,822.378 281.131,864.884 " fill="none" id="usantatecla.mastermind.views.graphics.GameView-to-ProposedCombination" style="stroke: #A80036; stroke-width: 1.0; stroke-dasharray: 7.0,7.0;"/><polygon fill="#A80036" points="279.362,869.675,286.2314,862.6173,281.0936,864.9844,278.7265,859.8467,279.362,869.675" style="stroke: #A80036; stroke-width: 1.0;"/><!--MD5=[ce6572083e0bc282e734779ad9f8eed1]
reverse link javax.swing to usantatecla.mastermind.views.graphics.ProposalCombinationView--><path codeLine="56" d="M1801.68,396.628 C1791.15,405.208 1779.26,413.393 1767,419 C1618.68,486.811 1558.14,422.93 1405,479 C1399.36,481.064 1393.7,483.368 1388.05,485.855 " fill="none" id="javax.swing-backto-usantatecla.mastermind.views.graphics.ProposalCombinationView" style="stroke: #A80036; stroke-width: 1.0;"/><polygon fill="none" points="1797.34,391.122,1816.96,383.133,1806.6,401.617,1797.34,391.122" style="stroke: #A80036; stroke-width: 1.0;"/><!--MD5=[5931bbdf26bb47e6f58a0b87c1486a55]
reverse link java.awt to usantatecla.mastermind.views.graphics.ProposalCombinationView--><path codeLine="57" d="M1809.06,515.482 C1796.16,491.034 1776.49,463.008 1749.5,449 C1685,415.529 1491.58,426.441 1422.5,449 C1401.77,455.771 1381.52,466.548 1362.89,478.793 " fill="none" id="java.awt-backto-usantatecla.mastermind.views.graphics.ProposalCombinationView" style="stroke: #A80036; stroke-width: 1.0; stroke-dasharray: 7.0,7.0;"/><polygon fill="none" points="1815.41,512.53,1817.79,533.586,1802.8,518.61,1815.41,512.53" style="stroke: #A80036; stroke-width: 1.0;"/><!--MD5=[3e385503b7d271549026dfd91c1b6b8e]
link usantatecla.mastermind.views.graphics.ProposalCombinationView to Message--><path codeLine="58" d="M1151.93,619.449 C1133.73,627.501 1115.01,635.298 1097,642 C1005.627,676.006 966.48,646.97 886,702 C840.433,733.158 859.236,774.161 811,801 C685.596,870.777 306.425,823.139 168,861 C161.037,862.904 153.948,865.324 146.965,868.037 " fill="none" id="usantatecla.mastermind.views.graphics.ProposalCombinationView-to-Message" style="stroke: #A80036; stroke-width: 1.0; stroke-dasharray: 7.0,7.0;"/><polygon fill="#A80036" points="142.15,869.96,151.9916,870.3392,146.7939,868.1067,149.0263,862.909,142.15,869.96" style="stroke: #A80036; stroke-width: 1.0;"/><!--MD5=[cee001e70f9e7d98a6a521cdbc26cf4b]
link usantatecla.mastermind.views.graphics.ProposalCombinationView to usantatecla.mastermind.views.graphics.Constraints--><path codeLine="59" d="M1151.68,641.653 C1112.18,668.407 1070.37,696.732 1039.3,717.779 " fill="none" id="usantatecla.mastermind.views.graphics.ProposalCombinationView-to-usantatecla.mastermind.views.graphics.Constraints" style="stroke: #A80036; stroke-width: 1.0; stroke-dasharray: 7.0,7.0;"/><polygon fill="#A80036" points="1034.8,720.831,1044.4957,719.1007,1038.9412,718.0292,1040.0128,712.4748,1034.8,720.831" style="stroke: #A80036; stroke-width: 1.0;"/><!--MD5=[4011f5c372ca49f22f0c01dcb67d6ab5]
reverse link javax.swing to usantatecla.mastermind.views.graphics.ProposedCombinationsView--><path codeLine="65" d="M1796.85,395.979 C1787.22,403.863 1776.93,411.912 1767,419 C1712.94,457.588 1648.07,496.443 1600.85,523.481 " fill="none" id="javax.swing-backto-usantatecla.mastermind.views.graphics.ProposedCombinationsView" style="stroke: #A80036; stroke-width: 1.0;"/><polygon fill="none" points="1792.44,390.543,1812.26,383.063,1801.43,401.274,1792.44,390.543" style="stroke: #A80036; stroke-width: 1.0;"/><!--MD5=[6c231acc0c4ffa6b625cb8e27fb8ae26]
link usantatecla.mastermind.views.graphics.ProposedCombinationsView to Game--><path codeLine="66" d="M1479.6408,604.3522 C1479.6408,604.3522 1430.76,633.729 1405,642 C1044.42,757.799 919.651,599.743 555,702 C546.005,704.523 536.872,707.958 528.012,711.844 " fill="none" id="usantatecla.mastermind.views.graphics.ProposedCombinationsView-Game" style="stroke: #A80036; stroke-width: 1.0;"/><polygon fill="#A80036" points="516.138,717.378,525.9853,717.2017,520.67,715.2659,522.6059,709.9506,516.138,717.378" style="stroke: #A80036; stroke-width: 1.0;"/><line style="stroke: #A80036; stroke-width: 1.0;" x1="520.67" x2="527.921" y1="715.2659" y2="711.886"/><polygon fill="#A80036" points="1489.59,597.643,1482.379,597.6812,1479.6408,604.3522,1486.8518,604.314,1489.59,597.643" style="stroke: #A80036; stroke-width: 1.0;"/><!--MD5=[ec92dc1b7d5c1e061bcca74092731588]
link usantatecla.mastermind.views.graphics.ProposedCombinationsView to usantatecla.mastermind.views.graphics.AttemptsView--><path codeLine="67" d="M1481.69,597.63 C1458.55,612.295 1430.95,628.842 1405,642 C1342.06,673.912 1321.12,670.45 1258,702 C1248.21,706.893 1238.02,712.534 1228.3,718.198 " fill="none" id="usantatecla.mastermind.views.graphics.ProposedCombinationsView-to-usantatecla.mastermind.views.graphics.AttemptsView" style="stroke: #A80036; stroke-width: 1.0; stroke-dasharray: 7.0,7.0;"/><polygon fill="#A80036" points="1223.87,720.8,1233.6569,719.6973,1228.183,718.2705,1229.6098,712.7966,1223.87,720.8" style="stroke: #A80036; stroke-width: 1.0;"/><!--MD5=[36801b42676cceff4cfbc8d2277725f3]
link usantatecla.mastermind.views.graphics.ProposedCombinationsView to usantatecla.mastermind.views.graphics.ProposedCombinationView--><path codeLine="68" d="M1547.76,597.941 C1556.8,625.942 1569.42,665.046 1579.62,696.653 " fill="none" id="usantatecla.mastermind.views.graphics.ProposedCombinationsView-to-usantatecla.mastermind.views.graphics.ProposedCombinationView" style="stroke: #A80036; stroke-width: 1.0; stroke-dasharray: 7.0,7.0;"/><polygon fill="#A80036" points="1581.24,701.659,1582.2817,691.8654,1579.7039,696.9008,1574.6685,694.3231,1581.24,701.659" style="stroke: #A80036; stroke-width: 1.0;"/><!--MD5=[2bceb4ac9a4ae3dfb2948e961e67c336]
link usantatecla.mastermind.views.graphics.ProposedCombinationsView to usantatecla.mastermind.views.graphics.ResultView--><path codeLine="69" d="M1498.59,597.941 C1463.11,632.509 1410.26,683.999 1375.96,717.416 " fill="none" id="usantatecla.mastermind.views.graphics.ProposedCombinationsView-to-usantatecla.mastermind.views.graphics.ResultView" style="stroke: #A80036; stroke-width: 1.0; stroke-dasharray: 7.0,7.0;"/><polygon fill="#A80036" points="1372.29,720.995,1381.5294,717.5843,1375.8731,717.5077,1375.9497,711.8513,1372.29,720.995" style="stroke: #A80036; stroke-width: 1.0;"/><!--MD5=[043d265101ddedb6cdd2777427e095ae]
link usantatecla.mastermind.views.graphics.ProposedCombinationsView to java.awt--><path codeLine="70" d="M1649.21,560.5 C1692.05,560.5 1734.89,560.5 1777.73,560.5 " fill="none" id="usantatecla.mastermind.views.graphics.ProposedCombinationsView-to-java.awt" style="stroke: #A80036; stroke-width: 1.0; stroke-dasharray: 7.0,7.0;"/><polygon fill="#A80036" points="1782.95,560.5,1773.95,556.5,1777.95,560.5,1773.95,564.5,1782.95,560.5" style="stroke: #A80036; stroke-width: 1.0;"/><!--MD5=[950316a1ae16c0b677c149bd52801200]
reverse link javax.swing to usantatecla.mastermind.views.graphics.SecretCombinationView--><path codeLine="76" d="M1802.84,396.504 C1792.08,405.341 1779.8,413.677 1767,419 C1506.05,527.472 1403.54,394.108 1134,479 C1102.1,489.045 1069.44,506.933 1043.5,523.3 " fill="none" id="javax.swing-backto-usantatecla.mastermind.views.graphics.SecretCombinationView" style="stroke: #A80036; stroke-width: 1.0;"/><polygon fill="none" points="1798.29,391.182,1817.85,383.034,1807.64,401.602,1798.29,391.182" style="stroke: #A80036; stroke-width: 1.0;"/><!--MD5=[a2e4bed8562ba28f372d4536a76f3fc8]
link usantatecla.mastermind.views.graphics.SecretCombinationView to Message--><path codeLine="77" d="M944.256,597.771 C909.7,624.932 862.65,663.831 825,702 C785.077,742.474 794.042,774.023 744,801 C517.439,923.137 415.898,791.762 168,861 C161.181,862.904 154.238,865.293 147.389,867.959 " fill="none" id="usantatecla.mastermind.views.graphics.SecretCombinationView-to-Message" style="stroke: #A80036; stroke-width: 1.0; stroke-dasharray: 7.0,7.0;"/><polygon fill="#A80036" points="142.666,869.846,152.5077,870.2226,147.3094,867.9915,149.5405,862.7932,142.666,869.846" style="stroke: #A80036; stroke-width: 1.0;"/><!--MD5=[1ef77cb584b813b23835054db25fa512]
link usantatecla.mastermind.views.graphics.SecretCombinationView to SecretCombination--><path codeLine="78" d="M926.464,597.717 C865.501,631.407 775.199,681.311 714.554,714.825 " fill="none" id="usantatecla.mastermind.views.graphics.SecretCombinationView-to-SecretCombination" style="stroke: #A80036; stroke-width: 1.0; stroke-dasharray: 7.0,7.0;"/><polygon fill="#A80036" points="709.876,717.411,719.6879,716.5581,714.252,714.9923,715.8179,709.5564,709.876,717.411" style="stroke: #A80036; stroke-width: 1.0;"/><!--MD5=[c036b6c0bc4b72271f53aa8ac593775b]
link usantatecla.mastermind.views.graphics.SecretCombinationView to usantatecla.mastermind.views.graphics.Constraints--><path codeLine="79" d="M991.807,597.941 C991.627,631.949 991.361,682.336 991.184,715.778 " fill="none" id="usantatecla.mastermind.views.graphics.SecretCombinationView-to-usantatecla.mastermind.views.graphics.Constraints" style="stroke: #A80036; stroke-width: 1.0; stroke-dasharray: 7.0,7.0;"/><polygon fill="#A80036" points="991.156,720.995,995.2048,712.0168,991.1831,715.9951,987.2049,711.9734,991.156,720.995" style="stroke: #A80036; stroke-width: 1.0;"/><!--MD5=[a78c36622e02f42507342fcd238f64ca]
reverse link javax.swing to usantatecla.mastermind.views.graphics.ProposedCombinationView--><path codeLine="87" d="M1917.04,387.202 C1956.26,406.883 2000.5,436.92 2023,479 C2057.16,542.883 2067.98,585.21 2023,642 C1950.71,733.27 1880.7,672.775 1768,702 C1762.47,703.433 1756.85,704.912 1751.18,706.423 " fill="none" id="javax.swing-backto-usantatecla.mastermind.views.graphics.ProposedCombinationView" style="stroke: #A80036; stroke-width: 1.0;"/><polygon fill="none" points="1913.98,393.498,1898.88,378.624,1919.96,380.84,1913.98,393.498" style="stroke: #A80036; stroke-width: 1.0;"/><!--MD5=[ffc144aa4f6b2ba4e8a85f777673bfb9]
link usantatecla.mastermind.views.graphics.ProposedCombinationView to ProposedCombination--><path codeLine="88" d="M1430.8588,799.9657 C1430.8588,799.9657 1426.54,800.742 1425,801 C960.477,878.705 825.689,754.114 367,861 C361.376,862.311 355.666,863.917 349.972,865.73 " fill="none" id="usantatecla.mastermind.views.graphics.ProposedCombinationView-ProposedCombination" style="stroke: #A80036; stroke-width: 1.0;"/><polygon fill="#A80036" points="337.575,869.991,347.3865,870.848,342.3034,868.3656,344.7858,863.2825,337.575,869.991" style="stroke: #A80036; stroke-width: 1.0;"/><line style="stroke: #A80036; stroke-width: 1.0;" x1="342.3034" x2="349.869" y1="868.3656" y2="865.7655"/><polygon fill="#A80036" points="1442.65,797.737,1436.0115,794.921,1430.8588,799.9657,1437.4973,802.7818,1442.65,797.737" style="stroke: #A80036; stroke-width: 1.0;"/><!--MD5=[cfab219a82f14f8f6f67db75967c0398]
link usantatecla.mastermind.views.graphics.ProposedCombinationView to Error--><path codeLine="89" d="M1430.8519,799.8936 C1430.8519,799.8936 1426.54,800.722 1425,801 C1345.24,815.399 752.905,801.377 698,861 C661.25,900.908 692.92,963.376 722.428,1005.226 " fill="none" id="usantatecla.mastermind.views.graphics.ProposedCombinationView-Error" style="stroke: #A80036; stroke-width: 1.0;"/><polygon fill="#A80036" points="730.237,1015.92,728.1602,1006.2926,727.2885,1011.8819,721.6992,1011.0102,730.237,1015.92" style="stroke: #A80036; stroke-width: 1.0;"/><line style="stroke: #A80036; stroke-width: 1.0;" x1="727.2885" x2="722.5705" y1="1011.8819" y2="1005.421"/><polygon fill="#A80036" points="1442.62,797.546,1435.9534,794.7971,1430.8519,799.8936,1437.5185,802.6425,1442.62,797.546" style="stroke: #A80036; stroke-width: 1.0;"/><!--MD5=[530c89dbc6be5a903a6e9819f22b01cd]
link usantatecla.mastermind.views.graphics.ProposedCombinationView to Color--><path codeLine="90" d="M1442.62,797.565 C1436.69,798.808 1430.8,799.96 1425,801 C1342.6,815.763 733.058,801.674 674,861 C593.655,941.709 589.111,1030.341 663,1117 C706.861,1168.4414 898.935,1181.6947 1011.33,1185.0031 " fill="none" id="usantatecla.mastermind.views.graphics.ProposedCombinationView-to-Color" style="stroke: #A80036; stroke-width: 1.0; stroke-dasharray: 7.0,7.0;"/><polygon fill="#A80036" points="1016.62,1185.1533,1007.738,1180.8978,1011.622,1185.0104,1007.5094,1188.8945,1016.62,1185.1533" style="stroke: #A80036; stroke-width: 1.0;"/><!--MD5=[bd2e7a94221183e7e9681c083bf96584]
link usantatecla.mastermind.views.graphics.ProposedCombinationView to Combination--><path codeLine="91" d="M1442.58,797.33 C1436.66,798.639 1430.79,799.869 1425,801 C1189.31,847.075 1119.72,797.932 888,861 C880.853,862.945 873.557,865.361 866.348,868.044 " fill="none" id="usantatecla.mastermind.views.graphics.ProposedCombinationView-to-Combination" style="stroke: #A80036; stroke-width: 1.0; stroke-dasharray: 7.0,7.0;"/><polygon fill="#A80036" points="861.373,869.942,871.2077,870.47,866.0444,868.1592,868.3552,862.9958,861.373,869.942" style="stroke: #A80036; stroke-width: 1.0;"/><!--MD5=[7dd5ca1a845e63f9fd3be0021cfb493f]
link usantatecla.mastermind.views.graphics.ProposedCombinationView to ColorView--><path codeLine="92" d="M1680.73,801.155 C1717.79,822.689 1760.59,847.557 1794.61,867.33 " fill="none" id="usantatecla.mastermind.views.graphics.ProposedCombinationView-to-ColorView" style="stroke: #A80036; stroke-width: 1.0; stroke-dasharray: 7.0,7.0;"/><polygon fill="#A80036" points="1799.14,869.961,1793.3713,861.9784,1794.8179,867.4472,1789.3491,868.8938,1799.14,869.961" style="stroke: #A80036; stroke-width: 1.0;"/><!--MD5=[80aeffae412552fbe684acaa1f5fd0ec]
link usantatecla.mastermind.views.graphics.ProposedCombinationView to usantatecla.mastermind.views.graphics.ErrorView--><path codeLine="93" d="M1597,801.363 C1597,818.787 1597,838.371 1597,855.664 " fill="none" id="usantatecla.mastermind.views.graphics.ProposedCombinationView-to-usantatecla.mastermind.views.graphics.ErrorView" style="stroke: #A80036; stroke-width: 1.0; stroke-dasharray: 7.0,7.0;"/><polygon fill="#A80036" points="1597,860.952,1601,851.952,1597,855.952,1593,851.952,1597,860.952" style="stroke: #A80036; stroke-width: 1.0;"/><!--MD5=[7e6bef54083d603816dc74f8698fcc54]
reverse link javax.swing to usantatecla.mastermind.views.graphics.AttemptsView--><path codeLine="98" d="M1867.99,400.758 C1902.65,462.41 1951.55,575.435 1891,642 C1795.92,746.52 1392.26,657.954 1258,702 C1244.45,706.445 1230.76,713.47 1218.58,720.809 " fill="none" id="javax.swing-backto-usantatecla.mastermind.views.graphics.AttemptsView" style="stroke: #A80036; stroke-width: 1.0;"/><polygon fill="none" points="1861.88,404.18,1857.83,383.383,1873.97,397.111,1861.88,404.18" style="stroke: #A80036; stroke-width: 1.0;"/><!--MD5=[247ed5ba126ff665df06b16194ee72b6]
link usantatecla.mastermind.views.graphics.AttemptsView to Message--><path codeLine="99" d="M1135.38,782.201 C1122.94,789.635 1108.91,796.707 1095,801 C700.502,922.763 567.742,757.745 168,861 C160.876,862.84 153.631,865.25 146.506,867.985 " fill="none" id="usantatecla.mastermind.views.graphics.AttemptsView-to-Message" style="stroke: #A80036; stroke-width: 1.0; stroke-dasharray: 7.0,7.0;"/><polygon fill="#A80036" points="141.596,869.927,151.4364,870.3339,146.2451,868.0868,148.4921,862.8954,141.596,869.927" style="stroke: #A80036; stroke-width: 1.0;"/><!--MD5=[5017a6b629f6b2b326b40ec3f10da7dc]
reverse link ColorView to usantatecla.mastermind.views.graphics.ColorView--><path codeLine="106" d="M1778.64,948.01 C1745.19,966.608 1706.17,988.304 1672.88,1006.809 " fill="none" id="ColorView-backto-usantatecla.mastermind.views.graphics.ColorView" style="stroke: #A80036; stroke-width: 1.0;"/><polygon fill="none" points="1775.7,941.637,1796.58,938.037,1782.5,953.873,1775.7,941.637" style="stroke: #A80036; stroke-width: 1.0;"/><!--MD5=[c8a7950e65294a6e65c2cfe065a1361e]
link usantatecla.mastermind.views.graphics.ColorView to Color--><path codeLine="107" d="M1516.74,1072.54 C1423.41,1097.589 1270.17,1138.7166 1176.08,1163.9714 " fill="none" id="usantatecla.mastermind.views.graphics.ColorView-to-Color" style="stroke: #A80036; stroke-width: 1.0; stroke-dasharray: 7.0,7.0;"/><polygon fill="#A80036" points="1171.08,1165.3116,1180.8104,1166.8346,1175.9081,1164.0119,1178.7308,1159.1096,1171.08,1165.3116" style="stroke: #A80036; stroke-width: 1.0;"/><!--MD5=[6a5b692d629da7b869b104dde83ae4fc]
reverse link java.awt to usantatecla.mastermind.views.graphics.Constraints--><path codeLine="112" d="M1805.43,604.281 C1795.6,618.689 1782.7,633.304 1767,642 C1635.84,714.627 1239.78,663.065 1095,702 C1078.26,706.501 1060.89,713.544 1045.25,720.882 " fill="none" id="java.awt-backto-usantatecla.mastermind.views.graphics.Constraints" style="stroke: #A80036; stroke-width: 1.0;"/><polygon fill="none" points="1799.46,600.622,1815.87,587.219,1811.4,607.931,1799.46,600.622" style="stroke: #A80036; stroke-width: 1.0;"/><!--MD5=[277b35482d189b99bfd494505f9d443a]
reverse link ErrorView to usantatecla.mastermind.views.graphics.ErrorView--><path codeLine="119" d="M1783.71,795.749 C1747.27,816.682 1703.76,841.676 1667.91,862.267 " fill="none" id="ErrorView-backto-usantatecla.mastermind.views.graphics.ErrorView" style="stroke: #A80036; stroke-width: 1.0;"/><polygon fill="none" points="1780.67,789.42,1801.5,785.528,1787.65,801.56,1780.67,789.42" style="stroke: #A80036; stroke-width: 1.0;"/><!--MD5=[7f923aa91879dd6b7eadfda88317a8bb]
link usantatecla.mastermind.views.graphics.ErrorView to usantatecla.mastermind.views.graphics.ColorView--><path codeLine="120" d="M1597,947.038 C1597,964.04 1597,983.756 1597,1001.293 " fill="none" id="usantatecla.mastermind.views.graphics.ErrorView-to-usantatecla.mastermind.views.graphics.ColorView" style="stroke: #A80036; stroke-width: 1.0; stroke-dasharray: 7.0,7.0;"/><polygon fill="#A80036" points="1597,1006.661,1601,997.661,1597,1001.661,1593,997.661,1597,1006.661" style="stroke: #A80036; stroke-width: 1.0;"/><!--MD5=[9a7ee4e33d305fea593257d6c8dca8e7]
link usantatecla.mastermind.views.graphics.ErrorView to Error--><path codeLine="121" d="M1526.33,911.161 C1397.97,923.234 1118.48,953.596 888,1007 C872.295,1010.639 855.766,1015.306 839.957,1020.199 " fill="none" id="usantatecla.mastermind.views.graphics.ErrorView-to-Error" style="stroke: #A80036; stroke-width: 1.0; stroke-dasharray: 7.0,7.0;"/><polygon fill="#A80036" points="835.075,1021.724,844.8584,1022.8576,839.8474,1020.2327,842.4723,1015.2217,835.075,1021.724" style="stroke: #A80036; stroke-width: 1.0;"/><!--MD5=[57dd8beb91e8400519c67340cad68c57]
reverse link javax.swing to usantatecla.mastermind.views.graphics.ResultView--><path codeLine="126" d="M1890.71,396.432 C1914.08,417.946 1939.51,446.816 1952,479 C1978.21,546.538 2000.24,587.954 1952,642 C1873.51,729.933 1536.84,664.8 1425,702 C1411.22,706.583 1397.22,713.652 1384.74,720.988 " fill="none" id="javax.swing-backto-usantatecla.mastermind.views.graphics.ResultView" style="stroke: #A80036; stroke-width: 1.0;"/><polygon fill="none" points="1885.89,401.509,1875.43,383.079,1895.1,390.966,1885.89,401.509" style="stroke: #A80036; stroke-width: 1.0;"/><!--MD5=[4f902ecfec41ca11c45c3e5fcc1270b9]
link usantatecla.mastermind.views.graphics.ResultView to Result--><path codeLine="127" d="M1288.2625,788.0278 C1288.2625,788.0278 1267.83,797.906 1258,801 C963.544,893.72 866.213,789.073 566,861 C560.307,862.364 554.517,863.987 548.732,865.789 " fill="none" id="usantatecla.mastermind.views.graphics.ResultView-Result" style="stroke: #A80036; stroke-width: 1.0;"/><polygon fill="#A80036" points="536.111,869.989,545.9136,870.9421,540.8551,868.41,543.3872,863.3515,536.111,869.989" style="stroke: #A80036; stroke-width: 1.0;"/><line style="stroke: #A80036; stroke-width: 1.0;" x1="540.8551" x2="548.446" y1="868.41" y2="865.8835"/><polygon fill="#A80036" points="1298.78,782.25,1291.5953,781.6331,1288.2625,788.0278,1295.4472,788.6447,1298.78,782.25" style="stroke: #A80036; stroke-width: 1.0;"/><!--MD5=[76bf8b6771fa3401187a7882c8157b70]
link usantatecla.mastermind.views.graphics.ResultView to Message--><path codeLine="128" d="M1299.74,782.031 C1286.89,789.56 1272.36,796.724 1258,801 C792.985,939.415 638.339,741.926 168,861 C160.868,862.806 153.616,865.192 146.488,867.913 " fill="none" id="usantatecla.mastermind.views.graphics.ResultView-to-Message" style="stroke: #A80036; stroke-width: 1.0; stroke-dasharray: 7.0,7.0;"/><polygon fill="#A80036" points="141.576,869.848,151.4157,870.2737,146.2286,868.0167,148.4856,862.8296,141.576,869.848" style="stroke: #A80036; stroke-width: 1.0;"/><!--MD5=[a5dbd60b45f0609ea7bab6e86736ea46]
link usantatecla.mastermind.views.graphics.ResumeDialog to javax.swing--><path codeLine="135" d="M1264.25,187.75 C1380.38,193.74 1599.7,215.5 1767,294 C1783.72,301.845 1799.8,314.385 1812.68,326.101 " fill="none" id="usantatecla.mastermind.views.graphics.ResumeDialog-to-javax.swing" style="stroke: #A80036; stroke-width: 1.0; stroke-dasharray: 7.0,7.0;"/><polygon fill="#A80036" points="1816.57,329.705,1812.688,320.6535,1812.9028,326.3063,1807.25,326.521,1816.57,329.705" style="stroke: #A80036; stroke-width: 1.0;"/><!--MD5=[42e6e5217a474b840da2bf52c7ec1f02]
link usantatecla.mastermind.views.graphics.ResumeDialog to Message--><path codeLine="136" d="M1103.75,226.594 C1097.79,229.217 1091.83,231.717 1086,234 C727.025,374.46 549.409,231.359 254,479 C132.356,580.974 94.0471,781.2 83.0473,864.854 " fill="none" id="usantatecla.mastermind.views.graphics.ResumeDialog-to-Message" style="stroke: #A80036; stroke-width: 1.0; stroke-dasharray: 7.0,7.0;"/><polygon fill="#A80036" points="82.3918,869.953,87.506,861.5361,83.0289,864.9938,79.5713,860.5167,82.3918,869.953" style="stroke: #A80036; stroke-width: 1.0;"/><!--MD5=[68e1f325316de17d7dde6aee4ac62bf4]
@startuml
class Game as "usantatecla.\nmastermind.models.\nGame"
class Error as "usantatecla.\nmastermind.models.\nError"
class Result as "usantatecla.\nmastermind.models.\nResult"
enum Color as "usantatecla.\nmastermind.models.\nColor"
abstract class Combination as "usantatecla.\nmastermind.models.\nCombination"
class ProposedCombination as "usantatecla.\nmastermind.models.\nProposedCombination"
class SecretCombination as "usantatecla.\nmastermind.models.\nSecretCombination"
abstract class View as "usantatecla.\nmastermind.views.\nView"
abstract class ColorView as "usantatecla.\nmastermind.views.\nColorView"
abstract class ErrorView as "usantatecla.\nmastermind.views.\nErrorView"
enum Message as "usantatecla.\nmastermind.views.\nMessage"

package javax.swing {}
package java.awt {}

class usantatecla.mastermind.views.graphics.GraphicsView {
    + GraphicsView(Game)
    # start()
    # propose() : boolean
    # isNewGame() : boolean
}
usantatecla.mastermind.views.graphics.GraphicsView -up-|> View
usantatecla.mastermind.views.graphics.GraphicsView *-down-> usantatecla.mastermind.views.graphics.GameView
usantatecla.mastermind.views.graphics.GraphicsView ..> Game
usantatecla.mastermind.views.graphics.GraphicsView .> usantatecla.mastermind.views.graphics.ResumeDialog

class usantatecla.mastermind.views.graphics.GameView {
    - {static} GAME_OVER : String
    ~ GameView(Game)
    ~ start()
    ~ propose() : boolean
    - drawGameOver() : boolean
    - clear()
}
usantatecla.mastermind.views.graphics.GameView -up-|> javax.swing
usantatecla.mastermind.views.graphics.GameView *-down-> Game
usantatecla.mastermind.views.graphics.GameView *-down-> usantatecla.mastermind.views.graphics.SecretCombinationView
usantatecla.mastermind.views.graphics.GameView *-down-> usantatecla.mastermind.views.graphics.ProposedCombinationsView
usantatecla.mastermind.views.graphics.GameView *-down-> usantatecla.mastermind.views.graphics.ProposalCombinationView
usantatecla.mastermind.views.graphics.GameView ..> java.awt
usantatecla.mastermind.views.graphics.GameView ..> Message
usantatecla.mastermind.views.graphics.GameView ..> usantatecla.mastermind.views.graphics.Constraints
usantatecla.mastermind.views.graphics.GameView ..> ProposedCombination

class usantatecla.mastermind.views.graphics.ProposalCombinationView {
    - {static} ACCEPT : String
    - characters : String
    ~ ProposalCombinationView(JRootPane)
    ~ resetCharacters()
    ~ getCharacters() : String
    + actionPerformed(ActionEvent)
    + keyTyped(KeyEvent)
    + keyPressed(KeyEvent)
    + keyReleased(KeyEvent)
}
usantatecla.mastermind.views.graphics.ProposalCombinationView -up-|> javax.swing
usantatecla.mastermind.views.graphics.ProposalCombinationView .up.|> java.awt
usantatecla.mastermind.views.graphics.ProposalCombinationView ..> Message
usantatecla.mastermind.views.graphics.ProposalCombinationView ..> usantatecla.mastermind.views.graphics.Constraints

class usantatecla.mastermind.views.graphics.ProposedCombinationsView {
    ~ ProposedCombinationsView(Game)
    ~ add()
}
usantatecla.mastermind.views.graphics.ProposedCombinationsView -up-|> javax.swing
usantatecla.mastermind.views.graphics.ProposedCombinationsView *-down-> Game
usantatecla.mastermind.views.graphics.ProposedCombinationsView ..> usantatecla.mastermind.views.graphics.AttemptsView
usantatecla.mastermind.views.graphics.ProposedCombinationsView ..> usantatecla.mastermind.views.graphics.ProposedCombinationView
usantatecla.mastermind.views.graphics.ProposedCombinationsView ..> usantatecla.mastermind.views.graphics.ResultView
usantatecla.mastermind.views.graphics.ProposedCombinationsView ..> java.awt

class usantatecla.mastermind.views.graphics.SecretCombinationView {
    - {static} TITLE : String
    ~ SecretCombinationView()
}
usantatecla.mastermind.views.graphics.SecretCombinationView -up-|> javax.swing
usantatecla.mastermind.views.graphics.SecretCombinationView ..> Message
usantatecla.mastermind.views.graphics.SecretCombinationView ..> SecretCombination
usantatecla.mastermind.views.graphics.SecretCombinationView ..> usantatecla.mastermind.views.graphics.Constraints

class usantatecla.mastermind.views.graphics.ProposedCombinationView {
    ~ ProposedCombinationView(ProposedCombination)
    ~ ProposedCombinationView()
    ~ read(String)
    + isValid() : boolean
}
usantatecla.mastermind.views.graphics.ProposedCombinationView -up-|> javax.swing
usantatecla.mastermind.views.graphics.ProposedCombinationView *-down-> ProposedCombination
usantatecla.mastermind.views.graphics.ProposedCombinationView *-down-> Error
usantatecla.mastermind.views.graphics.ProposedCombinationView ..> Color
usantatecla.mastermind.views.graphics.ProposedCombinationView ..> Combination
usantatecla.mastermind.views.graphics.ProposedCombinationView ..> ColorView
usantatecla.mastermind.views.graphics.ProposedCombinationView ..> usantatecla.mastermind.views.graphics.ErrorView

class usantatecla.mastermind.views.graphics.AttemptsView {
    ~ AttemptsView(int)
}
usantatecla.mastermind.views.graphics.AttemptsView -up-|> javax.swing
usantatecla.mastermind.views.graphics.AttemptsView ..> Message

class usantatecla.mastermind.views.graphics.ColorView {
    ~ ColorView()
    ~ ColorView(Color)
    # resultInitials(int) : String
}
usantatecla.mastermind.views.graphics.ColorView -up-|> ColorView
usantatecla.mastermind.views.graphics.ColorView ..> Color

class usantatecla.mastermind.views.graphics.Constraints {
    ~ Constraints(int, int, int, int)
}
usantatecla.mastermind.views.graphics.Constraints -up-|> java.awt

class usantatecla.mastermind.views.graphics.ErrorView {
    ~ ErrorView()
    ~ ErrorView(Error)
    # colorInitials() : String
}
usantatecla.mastermind.views.graphics.ErrorView -up-|> ErrorView
usantatecla.mastermind.views.graphics.ErrorView ..> usantatecla.mastermind.views.graphics.ColorView
usantatecla.mastermind.views.graphics.ErrorView ..> Error

class usantatecla.mastermind.views.graphics.ResultView {
    ~ ResultView(Result)
}
usantatecla.mastermind.views.graphics.ResultView -up-|> javax.swing
usantatecla.mastermind.views.graphics.ResultView *-down-> Result
usantatecla.mastermind.views.graphics.ResultView ..> Message

class usantatecla.mastermind.views.graphics.ResumeDialog {
    - newGame : boolean
    ~ ResumeDialog()
    ~ isNewGame() : boolean
}
usantatecla.mastermind.views.graphics.ResumeDialog ..> javax.swing
usantatecla.mastermind.views.graphics.ResumeDialog ..> Message
@enduml

PlantUML version 1.2020.20beta11(Unknown compile time)
(GPL source distribution)
Java Runtime: Java(TM) SE Runtime Environment
JVM: Java HotSpot(TM) 64-Bit Server VM
Default Encoding: UTF-8
Language: en
Country: US
--></g></svg>