<?xml version="1.0" encoding="UTF-8" standalone="no"?><svg xmlns="http://www.w3.org/2000/svg" xmlns:xlink="http://www.w3.org/1999/xlink" contentScriptType="application/ecmascript" contentStyleType="text/css" height="782px" preserveAspectRatio="none" style="width:715px;height:782px;" version="1.1" viewBox="0 0 715 782" width="715px" zoomAndPan="magnify"><defs><filter height="300%" id="f1er0trbglp66s" width="300%" x="-1" y="-1"><feGaussianBlur result="blurOut" stdDeviation="2.0"/><feColorMatrix in="blurOut" result="blurOut2" type="matrix" values="0 0 0 0 0 0 0 0 0 0 0 0 0 0 0 0 0 0 .4 0"/><feOffset dx="4.0" dy="4.0" in="blurOut2" result="blurOut3"/><feBlend in="SourceGraphic" in2="blurOut3" mode="normal"/></filter></defs><g><!--MD5=[073ce8cb2fd2a0b2556785fe35fbd544]
cluster usantatecla.mastermind.models--><polygon fill="#FFFFFF" filter="url(#f1er0trbglp66s)" points="16,6,286,6,293,28.2969,698,28.2969,698,775,16,775,16,6" style="stroke: #000000; stroke-width: 1.5;"/><line style="stroke: #000000; stroke-width: 1.5;" x1="16" x2="293" y1="28.2969" y2="28.2969"/><text fill="#000000" font-family="sans-serif" font-size="14" font-weight="bold" lengthAdjust="spacingAndGlyphs" textLength="264" x="20" y="20.9951">usantatecla.mastermind.models</text><!--MD5=[9e09d6096b99d1406435ac08840c9240]
class usantatecla.mastermind.models.Combination--><rect codeLine="1" fill="#FEFECE" filter="url(#f1er0trbglp66s)" height="86.4141" id="usantatecla.mastermind.models.Combination" style="stroke: #A80036; stroke-width: 1.5;" width="108" x="574" y="86"/><ellipse cx="589" cy="102" fill="#A9DCDF" rx="11" ry="11" style="stroke: #A80036; stroke-width: 1.0;"/><path d="M591.0781,103.8125 L591.4688,104.7969 L591.0781,104.7969 C590.625,104.7969 590.5156,104.8125 590.3594,104.9219 C590.1094,105.0781 589.9531,105.3594 589.9531,105.6563 C589.9531,105.9219 590.0938,106.1719 590.3125,106.3281 C590.4531,106.4531 590.6563,106.5 591.0781,106.5 L593.4375,106.5 C593.7969,106.5 594.0156,106.4688 594.1563,106.375 C594.4063,106.2344 594.5625,105.9375 594.5625,105.6563 C594.5625,105.375 594.4219,105.125 594.2031,104.9688 C594.0313,104.8281 593.875,104.7969 593.4063,104.7969 L590.0156,96.5938 L586.3438,96.5938 C585.8906,96.5938 585.7656,96.6094 585.6094,96.7031 C585.3594,96.875 585.2031,97.1563 585.2031,97.4375 C585.2031,97.7188 585.3438,97.9688 585.5625,98.1406 C585.7344,98.25 585.9063,98.2813 586.3438,98.2813 L587.4219,98.2813 L584.7813,104.7969 C584.3594,104.7969 584.2031,104.8125 584.0469,104.9219 C583.7969,105.0781 583.6406,105.3594 583.6406,105.6563 C583.6406,106.2188 584.0156,106.5 584.7656,106.5 L587.0313,106.5 C587.3906,106.5 587.6094,106.4688 587.7344,106.375 C588,106.2344 588.1406,105.9375 588.1406,105.6563 C588.1406,105.375 588.0156,105.125 587.7969,104.9531 C587.625,104.8281 587.4844,104.7969 587.0313,104.7969 L586.6406,104.7969 L587.0313,103.8125 L591.0781,103.8125 Z M590.375,102.1094 L587.7031,102.1094 L589.0469,98.8438 L590.375,102.1094 Z " fill="#000000"/><text fill="#000000" font-family="sans-serif" font-size="12" font-style="italic" lengthAdjust="spacingAndGlyphs" textLength="76" x="603" y="106.1543">Combination</text><line style="stroke: #A80036; stroke-width: 1.5;" x1="575" x2="681" y1="118" y2="118"/><rect fill="none" height="6" style="stroke: #C82930; stroke-width: 1.0;" width="6" x="582" y="126"/><text fill="#000000" font-family="sans-serif" font-size="11" lengthAdjust="spacingAndGlyphs" text-decoration="underline" textLength="59" x="594" y="132.2104">WIDTH: int</text><line style="stroke: #A80036; stroke-width: 1.5;" x1="575" x2="681" y1="138.8047" y2="138.8047"/><polygon fill="#FFFF44" points="585,144.8047,589,148.8047,585,152.8047,581,148.8047" style="stroke: #B38D22; stroke-width: 1.0;"/><text fill="#000000" font-family="sans-serif" font-size="11" lengthAdjust="spacingAndGlyphs" textLength="79" x="594" y="153.0151">Combination()</text><ellipse cx="585" cy="162.6094" fill="#84BE84" rx="3" ry="3" style="stroke: #038048; stroke-width: 1.0;"/><text fill="#000000" font-family="sans-serif" font-size="11" lengthAdjust="spacingAndGlyphs" text-decoration="underline" textLength="80" x="594" y="165.8198">getWidth(): int</text><!--MD5=[9e4d1129e603bd228b5a29156e32a6b6]
class usantatecla.mastermind.types.Color--><rect codeLine="53" fill="#FEFECE" filter="url(#f1er0trbglp66s)" height="163.2422" id="usantatecla.mastermind.types.Color" style="stroke: #A80036; stroke-width: 1.5;" width="117" x="369.5" y="596"/><ellipse cx="408.35" cy="612" fill="#EB937F" rx="11" ry="11" style="stroke: #A80036; stroke-width: 1.0;"/><path d="M407.1469,612.875 L408.6,612.875 L408.6,612.9844 C408.6,613.3906 408.6313,613.5469 408.7094,613.7031 C408.8656,613.9531 409.1469,614.1094 409.4438,614.1094 C409.6938,614.1094 409.9594,613.9688 410.1156,613.75 C410.2406,613.5938 410.2719,613.4375 410.2719,612.9844 L410.2719,611.0625 C410.2719,610.9063 410.2719,610.8594 410.2563,610.7031 C410.1938,610.2344 409.8813,609.9219 409.4281,609.9219 C409.1781,609.9219 408.9125,610.0625 408.7406,610.2813 C408.6313,610.4531 408.6,610.6094 408.6,611.0625 L408.6,611.1875 L407.1469,611.1875 L407.1469,608.7813 L411.1313,608.7813 L411.1313,609.6406 C411.1313,610.0469 411.1625,610.2188 411.2406,610.375 C411.4125,610.625 411.6938,610.7813 411.975,610.7813 C412.2406,610.7813 412.5063,610.6406 412.6781,610.4219 C412.7875,610.25 412.8188,610.1094 412.8188,609.6406 L412.8188,607.0938 L405.1938,607.0938 C404.7563,607.0938 404.6313,607.1094 404.475,607.2031 C404.225,607.3594 404.0688,607.6563 404.0688,607.9375 C404.0688,608.2188 404.2094,608.4688 404.4281,608.6406 C404.5844,608.75 404.7719,608.7813 405.1938,608.7813 L405.4438,608.7813 L405.4438,615.2969 L405.1938,615.2969 C404.7875,615.2969 404.6313,615.3125 404.475,615.4219 C404.225,615.5938 404.0688,615.8594 404.0688,616.1563 C404.0688,616.4219 404.2094,616.6719 404.4281,616.8281 C404.5688,616.9531 404.8031,617 405.1938,617 L413.1938,617 L413.1938,614.4219 C413.1938,613.9844 413.1625,613.8438 413.0844,613.6875 C412.9125,613.4375 412.6313,613.2813 412.35,613.2813 C412.0844,613.2813 411.8188,613.3906 411.6469,613.6406 C411.5375,613.7969 411.5063,613.9375 411.5063,614.4219 L411.5063,615.2969 L407.1469,615.2969 L407.1469,612.875 Z " fill="#000000"/><text fill="#000000" font-family="sans-serif" font-size="12" lengthAdjust="spacingAndGlyphs" textLength="32" x="427.65" y="616.1543">Color</text><line style="stroke: #A80036; stroke-width: 1.5;" x1="370.5" x2="485.5" y1="628" y2="628"/><ellipse cx="380.5" cy="639" fill="none" rx="3" ry="3" style="stroke: #038048; stroke-width: 1.0;"/><text fill="#000000" font-family="sans-serif" font-size="11" lengthAdjust="spacingAndGlyphs" textLength="23" x="389.5" y="642.2104">RED</text><ellipse cx="380.5" cy="651.8047" fill="none" rx="3" ry="3" style="stroke: #038048; stroke-width: 1.0;"/><text fill="#000000" font-family="sans-serif" font-size="11" lengthAdjust="spacingAndGlyphs" textLength="29" x="389.5" y="655.0151">BLUE</text><ellipse cx="380.5" cy="664.6094" fill="none" rx="3" ry="3" style="stroke: #038048; stroke-width: 1.0;"/><text fill="#000000" font-family="sans-serif" font-size="11" lengthAdjust="spacingAndGlyphs" textLength="46" x="389.5" y="667.8198">YELLOW</text><ellipse cx="380.5" cy="677.4141" fill="none" rx="3" ry="3" style="stroke: #038048; stroke-width: 1.0;"/><text fill="#000000" font-family="sans-serif" font-size="11" lengthAdjust="spacingAndGlyphs" textLength="38" x="389.5" y="680.6245">GREEN</text><ellipse cx="380.5" cy="690.2188" fill="none" rx="3" ry="3" style="stroke: #038048; stroke-width: 1.0;"/><text fill="#000000" font-family="sans-serif" font-size="11" lengthAdjust="spacingAndGlyphs" textLength="48" x="389.5" y="693.4292">ORANGE</text><ellipse cx="380.5" cy="703.0234" fill="none" rx="3" ry="3" style="stroke: #038048; stroke-width: 1.0;"/><text fill="#000000" font-family="sans-serif" font-size="11" lengthAdjust="spacingAndGlyphs" textLength="40" x="389.5" y="706.2339">PURPLE</text><ellipse cx="380.5" cy="715.8281" fill="none" rx="3" ry="3" style="stroke: #038048; stroke-width: 1.0;"/><text fill="#000000" font-family="sans-serif" font-size="11" lengthAdjust="spacingAndGlyphs" textLength="28" x="389.5" y="719.0386">NULL</text><line style="stroke: #A80036; stroke-width: 1.5;" x1="370.5" x2="485.5" y1="725.6328" y2="725.6328"/><polygon fill="#4177AF" points="380.5,732.6328,376.5,738.6328,384.5,738.6328" style="stroke: #1963A0; stroke-width: 1.0;"/><text fill="#000000" font-family="sans-serif" font-size="11" lengthAdjust="spacingAndGlyphs" text-decoration="underline" textLength="65" x="389.5" y="739.8433">length(): int</text><ellipse cx="380.5" cy="749.4375" fill="#84BE84" rx="3" ry="3" style="stroke: #038048; stroke-width: 1.0;"/><text fill="#000000" font-family="sans-serif" font-size="11" lengthAdjust="spacingAndGlyphs" textLength="91" x="389.5" y="752.6479">isNull(): boolean</text><!--MD5=[133b2a20d5a8d4980692cee85e8c0684]
class usantatecla.mastermind.models.Game--><rect codeLine="8" fill="#FEFECE" filter="url(#f1er0trbglp66s)" height="176.0469" id="usantatecla.mastermind.models.Game" style="stroke: #A80036; stroke-width: 1.5;" width="320" x="219" y="41"/><ellipse cx="357.25" cy="57" fill="#ADD1B2" rx="11" ry="11" style="stroke: #A80036; stroke-width: 1.0;"/><path d="M359.5938,52.6719 C358.6563,52.2344 358.0625,52.0938 357.1875,52.0938 C354.5625,52.0938 352.5625,54.1719 352.5625,56.8906 L352.5625,58.0156 C352.5625,60.5938 354.6719,62.4844 357.5625,62.4844 C358.7813,62.4844 359.9375,62.1875 360.6875,61.6406 C361.2656,61.2344 361.5938,60.7813 361.5938,60.3906 C361.5938,59.9375 361.2031,59.5469 360.7344,59.5469 C360.5156,59.5469 360.3125,59.625 360.125,59.8125 C359.6719,60.2969 359.6719,60.2969 359.4844,60.3906 C359.0625,60.6563 358.375,60.7813 357.6094,60.7813 C355.5625,60.7813 354.2656,59.6875 354.2656,57.9844 L354.2656,56.8906 C354.2656,55.1094 355.5156,53.7969 357.25,53.7969 C357.8281,53.7969 358.4375,53.9531 358.9063,54.2031 C359.3906,54.4844 359.5625,54.7031 359.6563,55.1094 C359.7188,55.5156 359.75,55.6406 359.8906,55.7656 C360.0313,55.9063 360.2656,56.0156 360.4844,56.0156 C360.75,56.0156 361.0156,55.875 361.1875,55.6563 C361.2969,55.5 361.3281,55.3125 361.3281,54.8906 L361.3281,53.4688 C361.3281,53.0313 361.3125,52.9063 361.2188,52.75 C361.0625,52.4844 360.7813,52.3438 360.4844,52.3438 C360.1875,52.3438 359.9844,52.4375 359.7656,52.75 L359.5938,52.6719 Z " fill="#000000"/><text fill="#000000" font-family="sans-serif" font-size="12" lengthAdjust="spacingAndGlyphs" textLength="35" x="377.75" y="61.1543">Game</text><line style="stroke: #A80036; stroke-width: 1.5;" x1="220" x2="538" y1="73" y2="73"/><rect fill="none" height="6" style="stroke: #C82930; stroke-width: 1.0;" width="6" x="227" y="81"/><text fill="#000000" font-family="sans-serif" font-size="11" lengthAdjust="spacingAndGlyphs" text-decoration="underline" textLength="84" x="239" y="87.2104">MAX_LONG: int</text><rect fill="none" height="6" style="stroke: #C82930; stroke-width: 1.0;" width="6" x="227" y="93.8047"/><text fill="#000000" font-family="sans-serif" font-size="11" lengthAdjust="spacingAndGlyphs" textLength="72" x="239" y="100.0151">attempts: int</text><line style="stroke: #A80036; stroke-width: 1.5;" x1="220" x2="538" y1="106.6094" y2="106.6094"/><ellipse cx="230" cy="117.6094" fill="#84BE84" rx="3" ry="3" style="stroke: #038048; stroke-width: 1.0;"/><text fill="#000000" font-family="sans-serif" font-size="11" lengthAdjust="spacingAndGlyphs" textLength="43" x="239" y="120.8198">Game()</text><ellipse cx="230" cy="130.4141" fill="#84BE84" rx="3" ry="3" style="stroke: #038048; stroke-width: 1.0;"/><text fill="#000000" font-family="sans-serif" font-size="11" lengthAdjust="spacingAndGlyphs" textLength="36" x="239" y="133.6245">clear()</text><ellipse cx="230" cy="143.2188" fill="#84BE84" rx="3" ry="3" style="stroke: #038048; stroke-width: 1.0;"/><text fill="#000000" font-family="sans-serif" font-size="11" lengthAdjust="spacingAndGlyphs" textLength="268" x="239" y="146.4292">addProposeCombination(ProposedCombination)</text><ellipse cx="230" cy="156.0234" fill="#84BE84" rx="3" ry="3" style="stroke: #038048; stroke-width: 1.0;"/><text fill="#000000" font-family="sans-serif" font-size="11" lengthAdjust="spacingAndGlyphs" textLength="108" x="239" y="159.2339">isLooser(): boolean</text><ellipse cx="230" cy="168.8281" fill="#84BE84" rx="3" ry="3" style="stroke: #038048; stroke-width: 1.0;"/><text fill="#000000" font-family="sans-serif" font-size="11" lengthAdjust="spacingAndGlyphs" textLength="110" x="239" y="172.0386">isWinner(): boolean</text><ellipse cx="230" cy="181.6328" fill="#84BE84" rx="3" ry="3" style="stroke: #038048; stroke-width: 1.0;"/><text fill="#000000" font-family="sans-serif" font-size="11" lengthAdjust="spacingAndGlyphs" textLength="100" x="239" y="184.8433">getAttempts(): int</text><ellipse cx="230" cy="194.4375" fill="#84BE84" rx="3" ry="3" style="stroke: #038048; stroke-width: 1.0;"/><text fill="#000000" font-family="sans-serif" font-size="11" lengthAdjust="spacingAndGlyphs" textLength="294" x="239" y="197.6479">getProposedCombination(int): ProposedCombination</text><ellipse cx="230" cy="207.2422" fill="#84BE84" rx="3" ry="3" style="stroke: #038048; stroke-width: 1.0;"/><text fill="#000000" font-family="sans-serif" font-size="11" lengthAdjust="spacingAndGlyphs" textLength="118" x="239" y="210.4526">getResult(int): Result</text><!--MD5=[a212aeeb69ab78e602f8fa1f3e5ba19f]
class usantatecla.mastermind.models.SecretCombination--><rect codeLine="33" fill="#FEFECE" filter="url(#f1er0trbglp66s)" height="73.6094" id="usantatecla.mastermind.models.SecretCombination" style="stroke: #A80036; stroke-width: 1.5;" width="253" x="301.5" y="277"/><ellipse cx="366.75" cy="293" fill="#ADD1B2" rx="11" ry="11" style="stroke: #A80036; stroke-width: 1.0;"/><path d="M369.0938,288.6719 C368.1563,288.2344 367.5625,288.0938 366.6875,288.0938 C364.0625,288.0938 362.0625,290.1719 362.0625,292.8906 L362.0625,294.0156 C362.0625,296.5938 364.1719,298.4844 367.0625,298.4844 C368.2813,298.4844 369.4375,298.1875 370.1875,297.6406 C370.7656,297.2344 371.0938,296.7813 371.0938,296.3906 C371.0938,295.9375 370.7031,295.5469 370.2344,295.5469 C370.0156,295.5469 369.8125,295.625 369.625,295.8125 C369.1719,296.2969 369.1719,296.2969 368.9844,296.3906 C368.5625,296.6563 367.875,296.7813 367.1094,296.7813 C365.0625,296.7813 363.7656,295.6875 363.7656,293.9844 L363.7656,292.8906 C363.7656,291.1094 365.0156,289.7969 366.75,289.7969 C367.3281,289.7969 367.9375,289.9531 368.4063,290.2031 C368.8906,290.4844 369.0625,290.7031 369.1563,291.1094 C369.2188,291.5156 369.25,291.6406 369.3906,291.7656 C369.5313,291.9063 369.7656,292.0156 369.9844,292.0156 C370.25,292.0156 370.5156,291.875 370.6875,291.6563 C370.7969,291.5 370.8281,291.3125 370.8281,290.8906 L370.8281,289.4688 C370.8281,289.0313 370.8125,288.9063 370.7188,288.75 C370.5625,288.4844 370.2813,288.3438 369.9844,288.3438 C369.6875,288.3438 369.4844,288.4375 369.2656,288.75 L369.0938,288.6719 Z " fill="#000000"/><text fill="#000000" font-family="sans-serif" font-size="12" lengthAdjust="spacingAndGlyphs" textLength="114" x="387.25" y="297.1543">SecretCombination</text><line style="stroke: #A80036; stroke-width: 1.5;" x1="302.5" x2="553.5" y1="309" y2="309"/><line style="stroke: #A80036; stroke-width: 1.5;" x1="302.5" x2="553.5" y1="317" y2="317"/><polygon fill="#4177AF" points="312.5,324,308.5,330,316.5,330" style="stroke: #1963A0; stroke-width: 1.0;"/><text fill="#000000" font-family="sans-serif" font-size="11" lengthAdjust="spacingAndGlyphs" textLength="117" x="321.5" y="331.2104">SecretCombination()</text><polygon fill="#4177AF" points="312.5,336.8047,308.5,342.8047,316.5,342.8047" style="stroke: #1963A0; stroke-width: 1.0;"/><text fill="#000000" font-family="sans-serif" font-size="11" lengthAdjust="spacingAndGlyphs" textLength="227" x="321.5" y="344.0151">getResult(ProposedCombination): Result</text><!--MD5=[f33d10797af0f3b71126f0e937fc2775]
class usantatecla.mastermind.models.Result--><rect codeLine="42" fill="#FEFECE" filter="url(#f1er0trbglp66s)" height="124.8281" id="usantatecla.mastermind.models.Result" style="stroke: #A80036; stroke-width: 1.5;" width="136" x="493" y="411"/><ellipse cx="538.75" cy="427" fill="#ADD1B2" rx="11" ry="11" style="stroke: #A80036; stroke-width: 1.0;"/><path d="M541.0938,422.6719 C540.1563,422.2344 539.5625,422.0938 538.6875,422.0938 C536.0625,422.0938 534.0625,424.1719 534.0625,426.8906 L534.0625,428.0156 C534.0625,430.5938 536.1719,432.4844 539.0625,432.4844 C540.2813,432.4844 541.4375,432.1875 542.1875,431.6406 C542.7656,431.2344 543.0938,430.7813 543.0938,430.3906 C543.0938,429.9375 542.7031,429.5469 542.2344,429.5469 C542.0156,429.5469 541.8125,429.625 541.625,429.8125 C541.1719,430.2969 541.1719,430.2969 540.9844,430.3906 C540.5625,430.6563 539.875,430.7813 539.1094,430.7813 C537.0625,430.7813 535.7656,429.6875 535.7656,427.9844 L535.7656,426.8906 C535.7656,425.1094 537.0156,423.7969 538.75,423.7969 C539.3281,423.7969 539.9375,423.9531 540.4063,424.2031 C540.8906,424.4844 541.0625,424.7031 541.1563,425.1094 C541.2188,425.5156 541.25,425.6406 541.3906,425.7656 C541.5313,425.9063 541.7656,426.0156 541.9844,426.0156 C542.25,426.0156 542.5156,425.875 542.6875,425.6563 C542.7969,425.5 542.8281,425.3125 542.8281,424.8906 L542.8281,423.4688 C542.8281,423.0313 542.8125,422.9063 542.7188,422.75 C542.5625,422.4844 542.2813,422.3438 541.9844,422.3438 C541.6875,422.3438 541.4844,422.4375 541.2656,422.75 L541.0938,422.6719 Z " fill="#000000"/><text fill="#000000" font-family="sans-serif" font-size="12" lengthAdjust="spacingAndGlyphs" textLength="36" x="559.25" y="431.1543">Result</text><line style="stroke: #A80036; stroke-width: 1.5;" x1="494" x2="628" y1="443" y2="443"/><rect fill="none" height="6" style="stroke: #C82930; stroke-width: 1.0;" width="6" x="501" y="451"/><text fill="#000000" font-family="sans-serif" font-size="11" lengthAdjust="spacingAndGlyphs" textLength="56" x="513" y="457.2104">blacks: int</text><rect fill="none" height="6" style="stroke: #C82930; stroke-width: 1.0;" width="6" x="501" y="463.8047"/><text fill="#000000" font-family="sans-serif" font-size="11" lengthAdjust="spacingAndGlyphs" textLength="58" x="513" y="470.0151">whites: int</text><line style="stroke: #A80036; stroke-width: 1.5;" x1="494" x2="628" y1="476.6094" y2="476.6094"/><polygon fill="#4177AF" points="504,483.6094,500,489.6094,508,489.6094" style="stroke: #1963A0; stroke-width: 1.0;"/><text fill="#000000" font-family="sans-serif" font-size="11" lengthAdjust="spacingAndGlyphs" textLength="78" x="513" y="490.8198">Result(int, int)</text><polygon fill="#4177AF" points="504,496.4141,500,502.4141,508,502.4141" style="stroke: #1963A0; stroke-width: 1.0;"/><text fill="#000000" font-family="sans-serif" font-size="11" lengthAdjust="spacingAndGlyphs" textLength="110" x="513" y="503.6245">isWinner(): boolean</text><ellipse cx="504" cy="513.2188" fill="#84BE84" rx="3" ry="3" style="stroke: #038048; stroke-width: 1.0;"/><text fill="#000000" font-family="sans-serif" font-size="11" lengthAdjust="spacingAndGlyphs" textLength="84" x="513" y="516.4292">getBlacks(): int</text><ellipse cx="504" cy="526.0234" fill="#84BE84" rx="3" ry="3" style="stroke: #038048; stroke-width: 1.0;"/><text fill="#000000" font-family="sans-serif" font-size="11" lengthAdjust="spacingAndGlyphs" textLength="87" x="513" y="529.2339">getWhites(): int</text><!--MD5=[29c0d014c840bf5e3383a02197df5a5a]
class usantatecla.mastermind.models.ProposedCombination--><rect codeLine="24" fill="#FEFECE" filter="url(#f1er0trbglp66s)" height="99.2188" id="usantatecla.mastermind.models.ProposedCombination" style="stroke: #A80036; stroke-width: 1.5;" width="184" x="191" y="424"/><ellipse cx="215" cy="440" fill="#ADD1B2" rx="11" ry="11" style="stroke: #A80036; stroke-width: 1.0;"/><path d="M217.3438,435.6719 C216.4063,435.2344 215.8125,435.0938 214.9375,435.0938 C212.3125,435.0938 210.3125,437.1719 210.3125,439.8906 L210.3125,441.0156 C210.3125,443.5938 212.4219,445.4844 215.3125,445.4844 C216.5313,445.4844 217.6875,445.1875 218.4375,444.6406 C219.0156,444.2344 219.3438,443.7813 219.3438,443.3906 C219.3438,442.9375 218.9531,442.5469 218.4844,442.5469 C218.2656,442.5469 218.0625,442.625 217.875,442.8125 C217.4219,443.2969 217.4219,443.2969 217.2344,443.3906 C216.8125,443.6563 216.125,443.7813 215.3594,443.7813 C213.3125,443.7813 212.0156,442.6875 212.0156,440.9844 L212.0156,439.8906 C212.0156,438.1094 213.2656,436.7969 215,436.7969 C215.5781,436.7969 216.1875,436.9531 216.6563,437.2031 C217.1406,437.4844 217.3125,437.7031 217.4063,438.1094 C217.4688,438.5156 217.5,438.6406 217.6406,438.7656 C217.7813,438.9063 218.0156,439.0156 218.2344,439.0156 C218.5,439.0156 218.7656,438.875 218.9375,438.6563 C219.0469,438.5 219.0781,438.3125 219.0781,437.8906 L219.0781,436.4688 C219.0781,436.0313 219.0625,435.9063 218.9688,435.75 C218.8125,435.4844 218.5313,435.3438 218.2344,435.3438 C217.9375,435.3438 217.7344,435.4375 217.5156,435.75 L217.3438,435.6719 Z " fill="#000000"/><text fill="#000000" font-family="sans-serif" font-size="12" lengthAdjust="spacingAndGlyphs" textLength="132" x="231" y="444.1543">ProposedCombination</text><line style="stroke: #A80036; stroke-width: 1.5;" x1="192" x2="374" y1="456" y2="456"/><line style="stroke: #A80036; stroke-width: 1.5;" x1="192" x2="374" y1="464" y2="464"/><ellipse cx="202" cy="475" fill="#84BE84" rx="3" ry="3" style="stroke: #038048; stroke-width: 1.0;"/><text fill="#000000" font-family="sans-serif" font-size="11" lengthAdjust="spacingAndGlyphs" textLength="131" x="211" y="478.2104">ProposedCombination()</text><polygon fill="#4177AF" points="202,483.8047,198,489.8047,206,489.8047" style="stroke: #1963A0; stroke-width: 1.0;"/><text fill="#000000" font-family="sans-serif" font-size="11" lengthAdjust="spacingAndGlyphs" textLength="158" x="211" y="491.0151">contains(Color, int): boolean</text><polygon fill="#4177AF" points="202,496.6094,198,502.6094,206,502.6094" style="stroke: #1963A0; stroke-width: 1.0;"/><text fill="#000000" font-family="sans-serif" font-size="11" lengthAdjust="spacingAndGlyphs" textLength="137" x="211" y="503.8198">contains(Color): boolean</text><ellipse cx="202" cy="513.4141" fill="#84BE84" rx="3" ry="3" style="stroke: #038048; stroke-width: 1.0;"/><text fill="#000000" font-family="sans-serif" font-size="11" lengthAdjust="spacingAndGlyphs" textLength="135" x="211" y="516.6245">getColors(): List&lt;Color&gt;</text><!--MD5=[05ebf8e4d33ec5537e6bfd99b097e1b4]
class usantatecla.mastermind.types.Error--><rect codeLine="65" fill="#FEFECE" filter="url(#f1er0trbglp66s)" height="112.0234" id="usantatecla.mastermind.types.Error" style="stroke: #A80036; stroke-width: 1.5;" width="152" x="32" y="73"/><ellipse cx="88.75" cy="89" fill="#EB937F" rx="11" ry="11" style="stroke: #A80036; stroke-width: 1.0;"/><path d="M87.5469,89.875 L89,89.875 L89,89.9844 C89,90.3906 89.0313,90.5469 89.1094,90.7031 C89.2656,90.9531 89.5469,91.1094 89.8438,91.1094 C90.0938,91.1094 90.3594,90.9688 90.5156,90.75 C90.6406,90.5938 90.6719,90.4375 90.6719,89.9844 L90.6719,88.0625 C90.6719,87.9063 90.6719,87.8594 90.6563,87.7031 C90.5938,87.2344 90.2813,86.9219 89.8281,86.9219 C89.5781,86.9219 89.3125,87.0625 89.1406,87.2813 C89.0313,87.4531 89,87.6094 89,88.0625 L89,88.1875 L87.5469,88.1875 L87.5469,85.7813 L91.5313,85.7813 L91.5313,86.6406 C91.5313,87.0469 91.5625,87.2188 91.6406,87.375 C91.8125,87.625 92.0938,87.7813 92.375,87.7813 C92.6406,87.7813 92.9063,87.6406 93.0781,87.4219 C93.1875,87.25 93.2188,87.1094 93.2188,86.6406 L93.2188,84.0938 L85.5938,84.0938 C85.1563,84.0938 85.0313,84.1094 84.875,84.2031 C84.625,84.3594 84.4688,84.6563 84.4688,84.9375 C84.4688,85.2188 84.6094,85.4688 84.8281,85.6406 C84.9844,85.75 85.1719,85.7813 85.5938,85.7813 L85.8438,85.7813 L85.8438,92.2969 L85.5938,92.2969 C85.1875,92.2969 85.0313,92.3125 84.875,92.4219 C84.625,92.5938 84.4688,92.8594 84.4688,93.1563 C84.4688,93.4219 84.6094,93.6719 84.8281,93.8281 C84.9688,93.9531 85.2031,94 85.5938,94 L93.5938,94 L93.5938,91.4219 C93.5938,90.9844 93.5625,90.8438 93.4844,90.6875 C93.3125,90.4375 93.0313,90.2813 92.75,90.2813 C92.4844,90.2813 92.2188,90.3906 92.0469,90.6406 C91.9375,90.7969 91.9063,90.9375 91.9063,91.4219 L91.9063,92.2969 L87.5469,92.2969 L87.5469,89.875 Z " fill="#000000"/><text fill="#000000" font-family="sans-serif" font-size="12" lengthAdjust="spacingAndGlyphs" textLength="30" x="109.25" y="93.1543">Error</text><line style="stroke: #A80036; stroke-width: 1.5;" x1="33" x2="183" y1="105" y2="105"/><ellipse cx="43" cy="116" fill="none" rx="3" ry="3" style="stroke: #038048; stroke-width: 1.0;"/><text fill="#000000" font-family="sans-serif" font-size="11" lengthAdjust="spacingAndGlyphs" textLength="71" x="52" y="119.2104">DUPLICATED</text><ellipse cx="43" cy="128.8047" fill="none" rx="3" ry="3" style="stroke: #038048; stroke-width: 1.0;"/><text fill="#000000" font-family="sans-serif" font-size="11" lengthAdjust="spacingAndGlyphs" textLength="126" x="52" y="132.0151">WRONG_CHARACTERS</text><ellipse cx="43" cy="141.6094" fill="none" rx="3" ry="3" style="stroke: #038048; stroke-width: 1.0;"/><text fill="#000000" font-family="sans-serif" font-size="11" lengthAdjust="spacingAndGlyphs" textLength="95" x="52" y="144.8198">WRONG_LENGTH</text><ellipse cx="43" cy="154.4141" fill="none" rx="3" ry="3" style="stroke: #038048; stroke-width: 1.0;"/><text fill="#000000" font-family="sans-serif" font-size="11" lengthAdjust="spacingAndGlyphs" textLength="28" x="52" y="157.6245">NULL</text><line style="stroke: #A80036; stroke-width: 1.5;" x1="33" x2="183" y1="164.2188" y2="164.2188"/><ellipse cx="43" cy="175.2188" fill="#84BE84" rx="3" ry="3" style="stroke: #038048; stroke-width: 1.0;"/><text fill="#000000" font-family="sans-serif" font-size="11" lengthAdjust="spacingAndGlyphs" textLength="91" x="52" y="178.4292">isNull(): boolean</text><!--MD5=[6ebd3315cbeaf18b4e0f9c8a5569f687]
link usantatecla.mastermind.models.Combination to usantatecla.mastermind.types.Color--><path codeLine="6" d="M647.1376,183.4743 C647.1376,183.4743 708.436,423.594 647,536 C615.712,593.247 550.026,630.618 498.712,652.32 " fill="none" id="usantatecla.mastermind.models.Combination-usantatecla.mastermind.types.Color" style="stroke: #A80036; stroke-width: 1.0;"/><polygon fill="#A80036" points="486.673,657.239,496.5173,657.5377,491.3015,655.3478,493.4914,650.132,486.673,657.239" style="stroke: #A80036; stroke-width: 1.0;"/><line style="stroke: #A80036; stroke-width: 1.0;" x1="491.3015" x2="498.707" y1="655.3478" y2="652.322"/><polygon fill="#A80036" points="643.453,172.054,641.4885,178.9924,647.1376,183.4743,649.1021,176.536,643.453,172.054" style="stroke: #A80036; stroke-width: 1.0;"/><text fill="#000000" font-family="sans-serif" font-size="13" lengthAdjust="spacingAndGlyphs" textLength="7" x="494.6389" y="650.742">*</text><!--MD5=[12c828a60891e76557ccb918ce156a05]
link usantatecla.mastermind.models.Game to usantatecla.mastermind.models.SecretCombination--><path codeLine="20" d="M405.4559,228.8036 C405.4559,228.8036 412.006,253.268 414.837,263.839 " fill="none" id="usantatecla.mastermind.models.Game-usantatecla.mastermind.models.SecretCombination" style="stroke: #A80036; stroke-width: 1.0;"/><polygon fill="#A80036" points="418.268,276.654,419.8039,266.9256,416.9747,271.8242,412.0762,268.9949,418.268,276.654" style="stroke: #A80036; stroke-width: 1.0;"/><line style="stroke: #A80036; stroke-width: 1.0;" x1="416.9747" x2="414.9055" y1="271.8242" y2="264.096"/><polygon fill="#A80036" points="402.352,217.212,400.0401,224.0425,405.4559,228.8036,407.7678,221.9732,402.352,217.212" style="stroke: #A80036; stroke-width: 1.0;"/><!--MD5=[280ea308128396330f7bbc2193cef62d]
link usantatecla.mastermind.models.Game to usantatecla.mastermind.models.Result--><path codeLine="21" d="M534.4694,225.5825 C534.4694,225.5825 562.788,258.403 572,277 C590.29,313.923 588.795,359.708 582.149,397.686 " fill="none" id="usantatecla.mastermind.models.Game-usantatecla.mastermind.models.Result" style="stroke: #A80036; stroke-width: 1.0;"/><polygon fill="#A80036" points="579.608,410.767,585.2506,402.6947,580.5613,405.8587,577.3973,401.1695,579.608,410.767" style="stroke: #A80036; stroke-width: 1.0;"/><line style="stroke: #A80036; stroke-width: 1.0;" x1="580.5613" x2="582.0875" y1="405.8587" y2="398.0055"/><polygon fill="#A80036" points="525.906,217.176,527.3855,224.2337,534.4694,225.5825,532.9898,218.5248,525.906,217.176" style="stroke: #A80036; stroke-width: 1.0;"/><text fill="#000000" font-family="sans-serif" font-size="13" lengthAdjust="spacingAndGlyphs" textLength="23" x="557.4299" y="399.7308">0..*</text><!--MD5=[e6a772672154e2b4215389ae3fc2764d]
link usantatecla.mastermind.models.Game to usantatecla.mastermind.models.ProposedCombination--><path codeLine="22" d="M282.6075,227.1307 C282.6075,227.1307 262.17,260.011 256,277 C240.308,320.206 248.478,371.818 259.81,411.16 " fill="none" id="usantatecla.mastermind.models.Game-usantatecla.mastermind.models.ProposedCombination" style="stroke: #A80036; stroke-width: 1.0;"/><polygon fill="#A80036" points="263.659,423.739,264.8503,413.9625,262.1959,418.9579,257.2005,416.3035,263.659,423.739" style="stroke: #A80036; stroke-width: 1.0;"/><line style="stroke: #A80036; stroke-width: 1.0;" x1="262.1959" x2="259.855" y1="418.9579" y2="411.3075"/><polygon fill="#A80036" points="289.616,217.39,282.8649,219.9242,282.6075,227.1307,289.3586,224.5965,289.616,217.39" style="stroke: #A80036; stroke-width: 1.0;"/><text fill="#000000" font-family="sans-serif" font-size="13" lengthAdjust="spacingAndGlyphs" textLength="23" x="236.5147" y="413.1057">0..*</text><!--MD5=[c8e3115d06e825a18a556418b72e64a9]
reverse link usantatecla.mastermind.models.Combination to usantatecla.mastermind.models.ProposedCombination--><path codeLine="30" d="M590.035,187.897 C580.432,198.961 569.303,209.434 557,217 C451.178,282.074 362.094,180.386 284,277 C266.451,298.711 271.042,373.243 276.566,423.749 " fill="none" id="usantatecla.mastermind.models.Combination-backto-usantatecla.mastermind.models.ProposedCombination" style="stroke: #A80036; stroke-width: 1.0;"/><polygon fill="none" points="584.648,183.425,602.559,172.104,595.617,192.124,584.648,183.425" style="stroke: #A80036; stroke-width: 1.0;"/><!--MD5=[a41c7f13719228e6ada8a77d910bf0dc]
link usantatecla.mastermind.models.ProposedCombination to usantatecla.mastermind.types.Color--><path codeLine="31" d="M317.916,523.141 C332.668,543.693 350.29,568.242 367.064,591.61 " fill="none" id="usantatecla.mastermind.models.ProposedCombination-to-usantatecla.mastermind.types.Color" style="stroke: #A80036; stroke-width: 1.0; stroke-dasharray: 7.0,7.0;"/><polygon fill="#A80036" points="370.186,595.958,368.1867,586.3142,367.2701,591.8963,361.688,590.9797,370.186,595.958" style="stroke: #A80036; stroke-width: 1.0;"/><!--MD5=[c1581850849ed6ede223799cd35a067f]
reverse link usantatecla.mastermind.models.Combination to usantatecla.mastermind.models.SecretCombination--><path codeLine="37" d="M584.201,187.809 C575.602,197.931 566.339,208.069 557,217 C534.301,238.706 506.64,259.874 482.762,276.785 " fill="none" id="usantatecla.mastermind.models.Combination-backto-usantatecla.mastermind.models.SecretCombination" style="stroke: #A80036; stroke-width: 1.0;"/><polygon fill="none" points="578.992,183.122,597.085,172.093,589.819,191.998,578.992,183.122" style="stroke: #A80036; stroke-width: 1.0;"/><!--MD5=[37df5b907d636f1fcade6857244b0a7e]
link usantatecla.mastermind.models.SecretCombination to usantatecla.mastermind.models.Result--><path codeLine="38" d="M458.513,351.134 C472.416,367.598 489.323,387.619 505.363,406.614 " fill="none" id="usantatecla.mastermind.models.SecretCombination-to-usantatecla.mastermind.models.Result" style="stroke: #A80036; stroke-width: 1.0; stroke-dasharray: 7.0,7.0;"/><polygon fill="#A80036" points="508.986,410.904,506.2356,401.447,505.7601,407.0838,500.1233,406.6084,508.986,410.904" style="stroke: #A80036; stroke-width: 1.0;"/><!--MD5=[be5e6334e25a1733719410e897fbe715]
link usantatecla.mastermind.models.SecretCombination to usantatecla.mastermind.models.ProposedCombination--><path codeLine="39" d="M394.734,351.134 C375.923,371.567 352.069,397.477 331.236,420.106 " fill="none" id="usantatecla.mastermind.models.SecretCombination-to-usantatecla.mastermind.models.ProposedCombination" style="stroke: #A80036; stroke-width: 1.0; stroke-dasharray: 7.0,7.0;"/><polygon fill="#A80036" points="327.652,423.998,336.6909,420.0866,331.0388,420.3198,330.8057,414.6677,327.652,423.998" style="stroke: #A80036; stroke-width: 1.0;"/><!--MD5=[117e805e17dd8995bb23fe45f96608c4]
link usantatecla.mastermind.models.SecretCombination to usantatecla.mastermind.types.Color--><path codeLine="40" d="M428,351.317 C428,406.832 428,514.364 428,590.552 " fill="none" id="usantatecla.mastermind.models.SecretCombination-to-usantatecla.mastermind.types.Color" style="stroke: #A80036; stroke-width: 1.0; stroke-dasharray: 7.0,7.0;"/><polygon fill="#A80036" points="428,595.982,432,586.982,428,590.982,424,586.982,428,595.982" style="stroke: #A80036; stroke-width: 1.0;"/><!--MD5=[6f6994a70a46872d34bd35a5dd21f76b]
link usantatecla.mastermind.models.Result to usantatecla.mastermind.models.Combination--><path codeLine="51" d="M583.176,410.983 C589.376,391.954 595.61,370.79 600,351 C613.106,291.922 620.651,222.502 624.537,177.452 " fill="none" id="usantatecla.mastermind.models.Result-to-usantatecla.mastermind.models.Combination" style="stroke: #A80036; stroke-width: 1.0; stroke-dasharray: 7.0,7.0;"/><polygon fill="#A80036" points="624.97,172.354,620.2208,180.9822,624.5458,177.336,628.192,181.6609,624.97,172.354" style="stroke: #A80036; stroke-width: 1.0;"/><!--MD5=[b1b5fc47107dcfef8272898f24b8f1e2]
@startuml
abstract class usantatecla.mastermind.models.Combination {
- {static} WIDTH: int
# Combination()
+ {static} getWidth(): int
}
usantatecla.mastermind.models.Combination *-down-> "*" usantatecla.mastermind.types.Color

class usantatecla.mastermind.models.Game {
- {static} MAX_LONG: int
- attempts: int
+ Game()
+ clear()
+ addProposeCombination(ProposedCombination)
+ isLooser(): boolean
+ isWinner(): boolean
+ getAttempts(): int
+ getProposedCombination(int): ProposedCombination
+ getResult(int): Result
}
usantatecla.mastermind.models.Game *-down-> usantatecla.mastermind.models.SecretCombination
usantatecla.mastermind.models.Game *-down-> "0..*" usantatecla.mastermind.models.Result
usantatecla.mastermind.models.Game *-down-> "0..*" usantatecla.mastermind.models.ProposedCombination

class usantatecla.mastermind.models.ProposedCombination {
+ ProposedCombination()
~ contains(Color, int): boolean
~ contains(Color): boolean
+ getColors(): List<Color>
}
usantatecla.mastermind.models.Combination <|-down- usantatecla.mastermind.models.ProposedCombination
usantatecla.mastermind.models.ProposedCombination ..> usantatecla.mastermind.types.Color

class usantatecla.mastermind.models.SecretCombination {
~ SecretCombination()
~ getResult(ProposedCombination): Result
}
usantatecla.mastermind.models.Combination <|-down- usantatecla.mastermind.models.SecretCombination
usantatecla.mastermind.models.SecretCombination ..> usantatecla.mastermind.models.Result
usantatecla.mastermind.models.SecretCombination ..> usantatecla.mastermind.models.ProposedCombination
usantatecla.mastermind.models.SecretCombination ..> usantatecla.mastermind.types.Color

class usantatecla.mastermind.models.Result {
- blacks: int
- whites: int
~ Result(int, int)
~ isWinner(): boolean
+ getBlacks(): int
+ getWhites(): int
}

usantatecla.mastermind.models.Result ..> usantatecla.mastermind.models.Combination

enum usantatecla.mastermind.types.Color {
+ RED
+ BLUE
+ YELLOW
+ GREEN
+ ORANGE
+ PURPLE
+ NULL
~ {static} length(): int
+ isNull(): boolean
}

enum usantatecla.mastermind.types.Error {
+ DUPLICATED
+ WRONG_CHARACTERS
+ WRONG_LENGTH
+ NULL
+ isNull(): boolean
}
@enduml

PlantUML version 1.2020.20beta11(Unknown compile time)
(GPL source distribution)
Java Runtime: Java(TM) SE Runtime Environment
JVM: Java HotSpot(TM) 64-Bit Server VM
Default Encoding: UTF-8
Language: en
Country: US
--></g></svg>