<?xml version="1.0" encoding="UTF-8" standalone="no"?><svg xmlns="http://www.w3.org/2000/svg" xmlns:xlink="http://www.w3.org/1999/xlink" contentScriptType="application/ecmascript" contentStyleType="text/css" height="973px" preserveAspectRatio="none" style="width:2528px;height:973px;" version="1.1" viewBox="0 0 2528 973" width="2528px" zoomAndPan="magnify"><defs><filter height="300%" id="f1535mixaq0cit" width="300%" x="-1" y="-1"><feGaussianBlur result="blurOut" stdDeviation="2.0"/><feColorMatrix in="blurOut" result="blurOut2" type="matrix" values="0 0 0 0 0 0 0 0 0 0 0 0 0 0 0 0 0 0 .4 0"/><feOffset dx="4.0" dy="4.0" in="blurOut2" result="blurOut3"/><feBlend in="SourceGraphic" in2="blurOut3" mode="normal"/></filter></defs><g><!--MD5=[870a69ce9634146fd8c5498968cba5fd]
cluster usantatecla.mastermind.views.console--><polygon fill="#FFFFFF" filter="url(#f1535mixaq0cit)" points="1447,100,1771,100,1778,122.2969,2349,122.2969,2349,848,1447,848,1447,100" style="stroke: #000000; stroke-width: 1.5;"/><line style="stroke: #000000; stroke-width: 1.5;" x1="1447" x2="1778" y1="122.2969" y2="122.2969"/><text fill="#000000" font-family="sans-serif" font-size="14" font-weight="bold" lengthAdjust="spacingAndGlyphs" textLength="318" x="1451" y="114.9951">usantatecla.mastermind.views.console</text><!--MD5=[dd3efb2c58b4e82c246b11a4f49b163b]
class usantatecla.mastermind.views.console.ConsoleView--><rect codeLine="17" fill="#FEFECE" filter="url(#f1535mixaq0cit)" height="99.2188" id="usantatecla.mastermind.views.console.ConsoleView" style="stroke: #A80036; stroke-width: 1.5;" width="160" x="1535" y="135"/><ellipse cx="1572.5" cy="151" fill="#ADD1B2" rx="11" ry="11" style="stroke: #A80036; stroke-width: 1.0;"/><path d="M1574.8438,146.6719 C1573.9063,146.2344 1573.3125,146.0938 1572.4375,146.0938 C1569.8125,146.0938 1567.8125,148.1719 1567.8125,150.8906 L1567.8125,152.0156 C1567.8125,154.5938 1569.9219,156.4844 1572.8125,156.4844 C1574.0313,156.4844 1575.1875,156.1875 1575.9375,155.6406 C1576.5156,155.2344 1576.8438,154.7813 1576.8438,154.3906 C1576.8438,153.9375 1576.4531,153.5469 1575.9844,153.5469 C1575.7656,153.5469 1575.5625,153.625 1575.375,153.8125 C1574.9219,154.2969 1574.9219,154.2969 1574.7344,154.3906 C1574.3125,154.6563 1573.625,154.7813 1572.8594,154.7813 C1570.8125,154.7813 1569.5156,153.6875 1569.5156,151.9844 L1569.5156,150.8906 C1569.5156,149.1094 1570.7656,147.7969 1572.5,147.7969 C1573.0781,147.7969 1573.6875,147.9531 1574.1563,148.2031 C1574.6406,148.4844 1574.8125,148.7031 1574.9063,149.1094 C1574.9688,149.5156 1575,149.6406 1575.1406,149.7656 C1575.2813,149.9063 1575.5156,150.0156 1575.7344,150.0156 C1576,150.0156 1576.2656,149.875 1576.4375,149.6563 C1576.5469,149.5 1576.5781,149.3125 1576.5781,148.8906 L1576.5781,147.4688 C1576.5781,147.0313 1576.5625,146.9063 1576.4688,146.75 C1576.3125,146.4844 1576.0313,146.3438 1575.7344,146.3438 C1575.4375,146.3438 1575.2344,146.4375 1575.0156,146.75 L1574.8438,146.6719 Z "/><text fill="#000000" font-family="sans-serif" font-size="12" lengthAdjust="spacingAndGlyphs" textLength="78" x="1591.5" y="155.1543">ConsoleView</text><line style="stroke: #A80036; stroke-width: 1.5;" x1="1536" x2="1694" y1="167" y2="167"/><line style="stroke: #A80036; stroke-width: 1.5;" x1="1536" x2="1694" y1="175" y2="175"/><ellipse cx="1546" cy="186" fill="#84BE84" rx="3" ry="3" style="stroke: #038048; stroke-width: 1.0;"/><text fill="#000000" font-family="sans-serif" font-size="11" lengthAdjust="spacingAndGlyphs" textLength="117" x="1555" y="189.2104">ConsoleView(Game)</text><polygon fill="#FFFF44" points="1546,193.8047,1550,197.8047,1546,201.8047,1542,197.8047" style="stroke: #B38D22; stroke-width: 1.0;"/><text fill="#000000" font-family="sans-serif" font-size="11" lengthAdjust="spacingAndGlyphs" textLength="33" x="1555" y="202.0151">start()</text><polygon fill="#FFFF44" points="1546,206.6094,1550,210.6094,1546,214.6094,1542,210.6094" style="stroke: #B38D22; stroke-width: 1.0;"/><text fill="#000000" font-family="sans-serif" font-size="11" lengthAdjust="spacingAndGlyphs" textLength="111" x="1555" y="214.8198">propose() : boolean</text><polygon fill="#FFFF44" points="1546,219.4141,1550,223.4141,1546,227.4141,1542,223.4141" style="stroke: #B38D22; stroke-width: 1.0;"/><text fill="#000000" font-family="sans-serif" font-size="11" lengthAdjust="spacingAndGlyphs" textLength="134" x="1555" y="227.6245">isNewGame() : boolean</text><!--MD5=[0443121bcbe511df2c378d392fee4a36]
class usantatecla.mastermind.views.console.StartView--><rect codeLine="37" fill="#FEFECE" filter="url(#f1535mixaq0cit)" height="48" id="usantatecla.mastermind.views.console.StartView" style="stroke: #A80036; stroke-width: 1.5;" width="89" x="1642.5" y="307"/><ellipse cx="1657.5" cy="323" fill="#ADD1B2" rx="11" ry="11" style="stroke: #A80036; stroke-width: 1.0;"/><path d="M1659.8438,318.6719 C1658.9063,318.2344 1658.3125,318.0938 1657.4375,318.0938 C1654.8125,318.0938 1652.8125,320.1719 1652.8125,322.8906 L1652.8125,324.0156 C1652.8125,326.5938 1654.9219,328.4844 1657.8125,328.4844 C1659.0313,328.4844 1660.1875,328.1875 1660.9375,327.6406 C1661.5156,327.2344 1661.8438,326.7813 1661.8438,326.3906 C1661.8438,325.9375 1661.4531,325.5469 1660.9844,325.5469 C1660.7656,325.5469 1660.5625,325.625 1660.375,325.8125 C1659.9219,326.2969 1659.9219,326.2969 1659.7344,326.3906 C1659.3125,326.6563 1658.625,326.7813 1657.8594,326.7813 C1655.8125,326.7813 1654.5156,325.6875 1654.5156,323.9844 L1654.5156,322.8906 C1654.5156,321.1094 1655.7656,319.7969 1657.5,319.7969 C1658.0781,319.7969 1658.6875,319.9531 1659.1563,320.2031 C1659.6406,320.4844 1659.8125,320.7031 1659.9063,321.1094 C1659.9688,321.5156 1660,321.6406 1660.1406,321.7656 C1660.2813,321.9063 1660.5156,322.0156 1660.7344,322.0156 C1661,322.0156 1661.2656,321.875 1661.4375,321.6563 C1661.5469,321.5 1661.5781,321.3125 1661.5781,320.8906 L1661.5781,319.4688 C1661.5781,319.0313 1661.5625,318.9063 1661.4688,318.75 C1661.3125,318.4844 1661.0313,318.3438 1660.7344,318.3438 C1660.4375,318.3438 1660.2344,318.4375 1660.0156,318.75 L1659.8438,318.6719 Z "/><text fill="#000000" font-family="sans-serif" font-size="12" lengthAdjust="spacingAndGlyphs" textLength="57" x="1671.5" y="327.1543">StartView</text><line style="stroke: #A80036; stroke-width: 1.5;" x1="1643.5" x2="1730.5" y1="339" y2="339"/><line style="stroke: #A80036; stroke-width: 1.5;" x1="1643.5" x2="1730.5" y1="347" y2="347"/><!--MD5=[3fc381aa527804d9b0f68b14a0cbd981]
class usantatecla.mastermind.views.console.ProposalView--><rect codeLine="44" fill="#FEFECE" filter="url(#f1535mixaq0cit)" height="73.6094" id="usantatecla.mastermind.views.console.ProposalView" style="stroke: #A80036; stroke-width: 1.5;" width="144" x="1767" y="294"/><ellipse cx="1795.95" cy="310" fill="#ADD1B2" rx="11" ry="11" style="stroke: #A80036; stroke-width: 1.0;"/><path d="M1798.2938,305.6719 C1797.3563,305.2344 1796.7625,305.0938 1795.8875,305.0938 C1793.2625,305.0938 1791.2625,307.1719 1791.2625,309.8906 L1791.2625,311.0156 C1791.2625,313.5938 1793.3719,315.4844 1796.2625,315.4844 C1797.4813,315.4844 1798.6375,315.1875 1799.3875,314.6406 C1799.9656,314.2344 1800.2938,313.7813 1800.2938,313.3906 C1800.2938,312.9375 1799.9031,312.5469 1799.4344,312.5469 C1799.2156,312.5469 1799.0125,312.625 1798.825,312.8125 C1798.3719,313.2969 1798.3719,313.2969 1798.1844,313.3906 C1797.7625,313.6563 1797.075,313.7813 1796.3094,313.7813 C1794.2625,313.7813 1792.9656,312.6875 1792.9656,310.9844 L1792.9656,309.8906 C1792.9656,308.1094 1794.2156,306.7969 1795.95,306.7969 C1796.5281,306.7969 1797.1375,306.9531 1797.6063,307.2031 C1798.0906,307.4844 1798.2625,307.7031 1798.3563,308.1094 C1798.4188,308.5156 1798.45,308.6406 1798.5906,308.7656 C1798.7313,308.9063 1798.9656,309.0156 1799.1844,309.0156 C1799.45,309.0156 1799.7156,308.875 1799.8875,308.6563 C1799.9969,308.5 1800.0281,308.3125 1800.0281,307.8906 L1800.0281,306.4688 C1800.0281,306.0313 1800.0125,305.9063 1799.9188,305.75 C1799.7625,305.4844 1799.4813,305.3438 1799.1844,305.3438 C1798.8875,305.3438 1798.6844,305.4375 1798.4656,305.75 L1798.2938,305.6719 Z "/><text fill="#000000" font-family="sans-serif" font-size="12" lengthAdjust="spacingAndGlyphs" textLength="81" x="1813.05" y="314.1543">ProposalView</text><line style="stroke: #A80036; stroke-width: 1.5;" x1="1768" x2="1910" y1="326" y2="326"/><line style="stroke: #A80036; stroke-width: 1.5;" x1="1768" x2="1910" y1="334" y2="334"/><polygon fill="#4177AF" points="1778,341,1774,347,1782,347" style="stroke: #1963A0; stroke-width: 1.0;"/><text fill="#000000" font-family="sans-serif" font-size="11" lengthAdjust="spacingAndGlyphs" textLength="118" x="1787" y="348.2104">ProposalView(Game)</text><polygon fill="#4177AF" points="1778,353.8047,1774,359.8047,1782,359.8047" style="stroke: #1963A0; stroke-width: 1.0;"/><text fill="#000000" font-family="sans-serif" font-size="11" lengthAdjust="spacingAndGlyphs" textLength="108" x="1787" y="361.0151">interact() : boolean</text><!--MD5=[9bc3463fd80c6188f2068243b6359e84]
class usantatecla.mastermind.views.console.ResumeView--><rect codeLine="29" fill="#FEFECE" filter="url(#f1535mixaq0cit)" height="73.6094" id="usantatecla.mastermind.views.console.ResumeView" style="stroke: #A80036; stroke-width: 1.5;" width="144" x="1463" y="294"/><ellipse cx="1493.75" cy="310" fill="#ADD1B2" rx="11" ry="11" style="stroke: #A80036; stroke-width: 1.0;"/><path d="M1496.0938,305.6719 C1495.1563,305.2344 1494.5625,305.0938 1493.6875,305.0938 C1491.0625,305.0938 1489.0625,307.1719 1489.0625,309.8906 L1489.0625,311.0156 C1489.0625,313.5938 1491.1719,315.4844 1494.0625,315.4844 C1495.2813,315.4844 1496.4375,315.1875 1497.1875,314.6406 C1497.7656,314.2344 1498.0938,313.7813 1498.0938,313.3906 C1498.0938,312.9375 1497.7031,312.5469 1497.2344,312.5469 C1497.0156,312.5469 1496.8125,312.625 1496.625,312.8125 C1496.1719,313.2969 1496.1719,313.2969 1495.9844,313.3906 C1495.5625,313.6563 1494.875,313.7813 1494.1094,313.7813 C1492.0625,313.7813 1490.7656,312.6875 1490.7656,310.9844 L1490.7656,309.8906 C1490.7656,308.1094 1492.0156,306.7969 1493.75,306.7969 C1494.3281,306.7969 1494.9375,306.9531 1495.4063,307.2031 C1495.8906,307.4844 1496.0625,307.7031 1496.1563,308.1094 C1496.2188,308.5156 1496.25,308.6406 1496.3906,308.7656 C1496.5313,308.9063 1496.7656,309.0156 1496.9844,309.0156 C1497.25,309.0156 1497.5156,308.875 1497.6875,308.6563 C1497.7969,308.5 1497.8281,308.3125 1497.8281,307.8906 L1497.8281,306.4688 C1497.8281,306.0313 1497.8125,305.9063 1497.7188,305.75 C1497.5625,305.4844 1497.2813,305.3438 1496.9844,305.3438 C1496.6875,305.3438 1496.4844,305.4375 1496.2656,305.75 L1496.0938,305.6719 Z "/><text fill="#000000" font-family="sans-serif" font-size="12" lengthAdjust="spacingAndGlyphs" textLength="77" x="1511.25" y="314.1543">ResumeView</text><line style="stroke: #A80036; stroke-width: 1.5;" x1="1464" x2="1606" y1="326" y2="326"/><line style="stroke: #A80036; stroke-width: 1.5;" x1="1464" x2="1606" y1="334" y2="334"/><polygon fill="#4177AF" points="1474,341,1470,347,1478,347" style="stroke: #1963A0; stroke-width: 1.0;"/><text fill="#000000" font-family="sans-serif" font-size="11" lengthAdjust="spacingAndGlyphs" textLength="118" x="1483" y="348.2104">ResumeView(Game)</text><polygon fill="#4177AF" points="1474,353.8047,1470,359.8047,1478,359.8047" style="stroke: #1963A0; stroke-width: 1.0;"/><text fill="#000000" font-family="sans-serif" font-size="11" lengthAdjust="spacingAndGlyphs" textLength="108" x="1483" y="361.0151">interact() : boolean</text><!--MD5=[6895d7787d38d293342c8d69eaf320fc]
class usantatecla.mastermind.views.console.SecretCombinationView--><rect codeLine="72" fill="#FEFECE" filter="url(#f1535mixaq0cit)" height="73.6094" id="usantatecla.mastermind.views.console.SecretCombinationView" style="stroke: #A80036; stroke-width: 1.5;" width="175" x="1463.5" y="434"/><ellipse cx="1478.5" cy="450" fill="#ADD1B2" rx="11" ry="11" style="stroke: #A80036; stroke-width: 1.0;"/><path d="M1480.8438,445.6719 C1479.9063,445.2344 1479.3125,445.0938 1478.4375,445.0938 C1475.8125,445.0938 1473.8125,447.1719 1473.8125,449.8906 L1473.8125,451.0156 C1473.8125,453.5938 1475.9219,455.4844 1478.8125,455.4844 C1480.0313,455.4844 1481.1875,455.1875 1481.9375,454.6406 C1482.5156,454.2344 1482.8438,453.7813 1482.8438,453.3906 C1482.8438,452.9375 1482.4531,452.5469 1481.9844,452.5469 C1481.7656,452.5469 1481.5625,452.625 1481.375,452.8125 C1480.9219,453.2969 1480.9219,453.2969 1480.7344,453.3906 C1480.3125,453.6563 1479.625,453.7813 1478.8594,453.7813 C1476.8125,453.7813 1475.5156,452.6875 1475.5156,450.9844 L1475.5156,449.8906 C1475.5156,448.1094 1476.7656,446.7969 1478.5,446.7969 C1479.0781,446.7969 1479.6875,446.9531 1480.1563,447.2031 C1480.6406,447.4844 1480.8125,447.7031 1480.9063,448.1094 C1480.9688,448.5156 1481,448.6406 1481.1406,448.7656 C1481.2813,448.9063 1481.5156,449.0156 1481.7344,449.0156 C1482,449.0156 1482.2656,448.875 1482.4375,448.6563 C1482.5469,448.5 1482.5781,448.3125 1482.5781,447.8906 L1482.5781,446.4688 C1482.5781,446.0313 1482.5625,445.9063 1482.4688,445.75 C1482.3125,445.4844 1482.0313,445.3438 1481.7344,445.3438 C1481.4375,445.3438 1481.2344,445.4375 1481.0156,445.75 L1480.8438,445.6719 Z "/><text fill="#000000" font-family="sans-serif" font-size="12" lengthAdjust="spacingAndGlyphs" textLength="143" x="1492.5" y="454.1543">SecretCombinationView</text><line style="stroke: #A80036; stroke-width: 1.5;" x1="1464.5" x2="1637.5" y1="466" y2="466"/><line style="stroke: #A80036; stroke-width: 1.5;" x1="1464.5" x2="1637.5" y1="474" y2="474"/><polygon fill="#4177AF" points="1474.5,481,1470.5,487,1478.5,487" style="stroke: #1963A0; stroke-width: 1.0;"/><text fill="#000000" font-family="sans-serif" font-size="11" lengthAdjust="spacingAndGlyphs" textLength="145" x="1483.5" y="488.2104">SecretCombinationView()</text><polygon fill="#4177AF" points="1474.5,493.8047,1470.5,499.8047,1478.5,499.8047" style="stroke: #1963A0; stroke-width: 1.0;"/><text fill="#000000" font-family="sans-serif" font-size="11" lengthAdjust="spacingAndGlyphs" textLength="46" x="1483.5" y="501.0151">writeln()</text><!--MD5=[0738facfc05fd0e5380c8577e6609970]
class usantatecla.mastermind.views.console.AttemptsView--><rect codeLine="88" fill="#FEFECE" filter="url(#f1535mixaq0cit)" height="73.6094" id="usantatecla.mastermind.views.console.AttemptsView" style="stroke: #A80036; stroke-width: 1.5;" width="149" x="1673.5" y="434"/><ellipse cx="1703.8" cy="450" fill="#ADD1B2" rx="11" ry="11" style="stroke: #A80036; stroke-width: 1.0;"/><path d="M1706.1438,445.6719 C1705.2063,445.2344 1704.6125,445.0938 1703.7375,445.0938 C1701.1125,445.0938 1699.1125,447.1719 1699.1125,449.8906 L1699.1125,451.0156 C1699.1125,453.5938 1701.2219,455.4844 1704.1125,455.4844 C1705.3313,455.4844 1706.4875,455.1875 1707.2375,454.6406 C1707.8156,454.2344 1708.1438,453.7813 1708.1438,453.3906 C1708.1438,452.9375 1707.7531,452.5469 1707.2844,452.5469 C1707.0656,452.5469 1706.8625,452.625 1706.675,452.8125 C1706.2219,453.2969 1706.2219,453.2969 1706.0344,453.3906 C1705.6125,453.6563 1704.925,453.7813 1704.1594,453.7813 C1702.1125,453.7813 1700.8156,452.6875 1700.8156,450.9844 L1700.8156,449.8906 C1700.8156,448.1094 1702.0656,446.7969 1703.8,446.7969 C1704.3781,446.7969 1704.9875,446.9531 1705.4563,447.2031 C1705.9406,447.4844 1706.1125,447.7031 1706.2063,448.1094 C1706.2688,448.5156 1706.3,448.6406 1706.4406,448.7656 C1706.5813,448.9063 1706.8156,449.0156 1707.0344,449.0156 C1707.3,449.0156 1707.5656,448.875 1707.7375,448.6563 C1707.8469,448.5 1707.8781,448.3125 1707.8781,447.8906 L1707.8781,446.4688 C1707.8781,446.0313 1707.8625,445.9063 1707.7688,445.75 C1707.6125,445.4844 1707.3313,445.3438 1707.0344,445.3438 C1706.7375,445.3438 1706.5344,445.4375 1706.3156,445.75 L1706.1438,445.6719 Z "/><text fill="#000000" font-family="sans-serif" font-size="12" lengthAdjust="spacingAndGlyphs" textLength="83" x="1721.2" y="454.1543">AttemptsView</text><line style="stroke: #A80036; stroke-width: 1.5;" x1="1674.5" x2="1821.5" y1="466" y2="466"/><line style="stroke: #A80036; stroke-width: 1.5;" x1="1674.5" x2="1821.5" y1="474" y2="474"/><polygon fill="#4177AF" points="1684.5,481,1680.5,487,1688.5,487" style="stroke: #1963A0; stroke-width: 1.0;"/><text fill="#000000" font-family="sans-serif" font-size="11" lengthAdjust="spacingAndGlyphs" textLength="123" x="1693.5" y="488.2104">AttemptsView(Game)</text><polygon fill="#4177AF" points="1684.5,493.8047,1680.5,499.8047,1688.5,499.8047" style="stroke: #1963A0; stroke-width: 1.0;"/><text fill="#000000" font-family="sans-serif" font-size="11" lengthAdjust="spacingAndGlyphs" textLength="46" x="1693.5" y="501.0151">writeln()</text><!--MD5=[f72db8a2bcbe9ab8c7a89f2fd89e6b01]
class usantatecla.mastermind.views.console.ResultView--><rect codeLine="80" fill="#FEFECE" filter="url(#f1535mixaq0cit)" height="73.6094" id="usantatecla.mastermind.views.console.ResultView" style="stroke: #A80036; stroke-width: 1.5;" width="132" x="1858" y="434"/><ellipse cx="1888.75" cy="450" fill="#ADD1B2" rx="11" ry="11" style="stroke: #A80036; stroke-width: 1.0;"/><path d="M1891.0938,445.6719 C1890.1563,445.2344 1889.5625,445.0938 1888.6875,445.0938 C1886.0625,445.0938 1884.0625,447.1719 1884.0625,449.8906 L1884.0625,451.0156 C1884.0625,453.5938 1886.1719,455.4844 1889.0625,455.4844 C1890.2813,455.4844 1891.4375,455.1875 1892.1875,454.6406 C1892.7656,454.2344 1893.0938,453.7813 1893.0938,453.3906 C1893.0938,452.9375 1892.7031,452.5469 1892.2344,452.5469 C1892.0156,452.5469 1891.8125,452.625 1891.625,452.8125 C1891.1719,453.2969 1891.1719,453.2969 1890.9844,453.3906 C1890.5625,453.6563 1889.875,453.7813 1889.1094,453.7813 C1887.0625,453.7813 1885.7656,452.6875 1885.7656,450.9844 L1885.7656,449.8906 C1885.7656,448.1094 1887.0156,446.7969 1888.75,446.7969 C1889.3281,446.7969 1889.9375,446.9531 1890.4063,447.2031 C1890.8906,447.4844 1891.0625,447.7031 1891.1563,448.1094 C1891.2188,448.5156 1891.25,448.6406 1891.3906,448.7656 C1891.5313,448.9063 1891.7656,449.0156 1891.9844,449.0156 C1892.25,449.0156 1892.5156,448.875 1892.6875,448.6563 C1892.7969,448.5 1892.8281,448.3125 1892.8281,447.8906 L1892.8281,446.4688 C1892.8281,446.0313 1892.8125,445.9063 1892.7188,445.75 C1892.5625,445.4844 1892.2813,445.3438 1891.9844,445.3438 C1891.6875,445.3438 1891.4844,445.4375 1891.2656,445.75 L1891.0938,445.6719 Z "/><text fill="#000000" font-family="sans-serif" font-size="12" lengthAdjust="spacingAndGlyphs" textLength="65" x="1906.25" y="454.1543">ResultView</text><line style="stroke: #A80036; stroke-width: 1.5;" x1="1859" x2="1989" y1="466" y2="466"/><line style="stroke: #A80036; stroke-width: 1.5;" x1="1859" x2="1989" y1="474" y2="474"/><polygon fill="#4177AF" points="1869,481,1865,487,1873,487" style="stroke: #1963A0; stroke-width: 1.0;"/><text fill="#000000" font-family="sans-serif" font-size="11" lengthAdjust="spacingAndGlyphs" textLength="106" x="1878" y="488.2104">ResultView(Result)</text><polygon fill="#4177AF" points="1869,493.8047,1865,499.8047,1873,499.8047" style="stroke: #1963A0; stroke-width: 1.0;"/><text fill="#000000" font-family="sans-serif" font-size="11" lengthAdjust="spacingAndGlyphs" textLength="46" x="1878" y="501.0151">writeln()</text><!--MD5=[b9e96ebb3841247a1bc6f6a4b0e36cb2]
class usantatecla.mastermind.views.console.ProposedCombinationView--><rect codeLine="58" fill="#FEFECE" filter="url(#f1535mixaq0cit)" height="86.4141" id="usantatecla.mastermind.views.console.ProposedCombinationView" style="stroke: #A80036; stroke-width: 1.5;" width="308" x="2025" y="428"/><ellipse cx="2094.25" cy="444" fill="#ADD1B2" rx="11" ry="11" style="stroke: #A80036; stroke-width: 1.0;"/><path d="M2096.5938,439.6719 C2095.6563,439.2344 2095.0625,439.0938 2094.1875,439.0938 C2091.5625,439.0938 2089.5625,441.1719 2089.5625,443.8906 L2089.5625,445.0156 C2089.5625,447.5938 2091.6719,449.4844 2094.5625,449.4844 C2095.7813,449.4844 2096.9375,449.1875 2097.6875,448.6406 C2098.2656,448.2344 2098.5938,447.7813 2098.5938,447.3906 C2098.5938,446.9375 2098.2031,446.5469 2097.7344,446.5469 C2097.5156,446.5469 2097.3125,446.625 2097.125,446.8125 C2096.6719,447.2969 2096.6719,447.2969 2096.4844,447.3906 C2096.0625,447.6563 2095.375,447.7813 2094.6094,447.7813 C2092.5625,447.7813 2091.2656,446.6875 2091.2656,444.9844 L2091.2656,443.8906 C2091.2656,442.1094 2092.5156,440.7969 2094.25,440.7969 C2094.8281,440.7969 2095.4375,440.9531 2095.9063,441.2031 C2096.3906,441.4844 2096.5625,441.7031 2096.6563,442.1094 C2096.7188,442.5156 2096.75,442.6406 2096.8906,442.7656 C2097.0313,442.9063 2097.2656,443.0156 2097.4844,443.0156 C2097.75,443.0156 2098.0156,442.875 2098.1875,442.6563 C2098.2969,442.5 2098.3281,442.3125 2098.3281,441.8906 L2098.3281,440.4688 C2098.3281,440.0313 2098.3125,439.9063 2098.2188,439.75 C2098.0625,439.4844 2097.7813,439.3438 2097.4844,439.3438 C2097.1875,439.3438 2096.9844,439.4375 2096.7656,439.75 L2096.5938,439.6719 Z "/><text fill="#000000" font-family="sans-serif" font-size="12" lengthAdjust="spacingAndGlyphs" textLength="161" x="2114.75" y="448.1543">ProposedCombinationView</text><line style="stroke: #A80036; stroke-width: 1.5;" x1="2026" x2="2332" y1="460" y2="460"/><line style="stroke: #A80036; stroke-width: 1.5;" x1="2026" x2="2332" y1="468" y2="468"/><polygon fill="#4177AF" points="2036,475,2032,481,2040,481" style="stroke: #1963A0; stroke-width: 1.0;"/><text fill="#000000" font-family="sans-serif" font-size="11" lengthAdjust="spacingAndGlyphs" textLength="282" x="2045" y="482.2104">ProposedCombinationView(ProposedCombination)</text><polygon fill="#4177AF" points="2036,487.8047,2032,493.8047,2040,493.8047" style="stroke: #1963A0; stroke-width: 1.0;"/><text fill="#000000" font-family="sans-serif" font-size="11" lengthAdjust="spacingAndGlyphs" textLength="36" x="2045" y="495.0151">write()</text><polygon fill="#4177AF" points="2036,500.6094,2032,506.6094,2040,506.6094" style="stroke: #1963A0; stroke-width: 1.0;"/><text fill="#000000" font-family="sans-serif" font-size="11" lengthAdjust="spacingAndGlyphs" textLength="34" x="2045" y="507.8198">read()</text><!--MD5=[f95016829e4a1954e9b815203fd5b79a]
class usantatecla.mastermind.views.console.ErrorView--><rect codeLine="106" fill="#FEFECE" filter="url(#f1535mixaq0cit)" height="99.2188" id="usantatecla.mastermind.views.console.ErrorView" style="stroke: #A80036; stroke-width: 1.5;" width="141" x="1872.5" y="574"/><ellipse cx="1910" cy="590" fill="#ADD1B2" rx="11" ry="11" style="stroke: #A80036; stroke-width: 1.0;"/><path d="M1912.3438,585.6719 C1911.4063,585.2344 1910.8125,585.0938 1909.9375,585.0938 C1907.3125,585.0938 1905.3125,587.1719 1905.3125,589.8906 L1905.3125,591.0156 C1905.3125,593.5938 1907.4219,595.4844 1910.3125,595.4844 C1911.5313,595.4844 1912.6875,595.1875 1913.4375,594.6406 C1914.0156,594.2344 1914.3438,593.7813 1914.3438,593.3906 C1914.3438,592.9375 1913.9531,592.5469 1913.4844,592.5469 C1913.2656,592.5469 1913.0625,592.625 1912.875,592.8125 C1912.4219,593.2969 1912.4219,593.2969 1912.2344,593.3906 C1911.8125,593.6563 1911.125,593.7813 1910.3594,593.7813 C1908.3125,593.7813 1907.0156,592.6875 1907.0156,590.9844 L1907.0156,589.8906 C1907.0156,588.1094 1908.2656,586.7969 1910,586.7969 C1910.5781,586.7969 1911.1875,586.9531 1911.6563,587.2031 C1912.1406,587.4844 1912.3125,587.7031 1912.4063,588.1094 C1912.4688,588.5156 1912.5,588.6406 1912.6406,588.7656 C1912.7813,588.9063 1913.0156,589.0156 1913.2344,589.0156 C1913.5,589.0156 1913.7656,588.875 1913.9375,588.6563 C1914.0469,588.5 1914.0781,588.3125 1914.0781,587.8906 L1914.0781,586.4688 C1914.0781,586.0313 1914.0625,585.9063 1913.9688,585.75 C1913.8125,585.4844 1913.5313,585.3438 1913.2344,585.3438 C1912.9375,585.3438 1912.7344,585.4375 1912.5156,585.75 L1912.3438,585.6719 Z "/><text fill="#000000" font-family="sans-serif" font-size="12" lengthAdjust="spacingAndGlyphs" textLength="59" x="1929" y="594.1543">ErrorView</text><line style="stroke: #A80036; stroke-width: 1.5;" x1="1873.5" x2="2012.5" y1="606" y2="606"/><line style="stroke: #A80036; stroke-width: 1.5;" x1="1873.5" x2="2012.5" y1="614" y2="614"/><polygon fill="#4177AF" points="1883.5,621,1879.5,627,1887.5,627" style="stroke: #1963A0; stroke-width: 1.0;"/><text fill="#000000" font-family="sans-serif" font-size="11" lengthAdjust="spacingAndGlyphs" textLength="62" x="1892.5" y="628.2104">ErrorView()</text><polygon fill="#4177AF" points="1883.5,633.8047,1879.5,639.8047,1887.5,639.8047" style="stroke: #1963A0; stroke-width: 1.0;"/><text fill="#000000" font-family="sans-serif" font-size="11" lengthAdjust="spacingAndGlyphs" textLength="88" x="1892.5" y="641.0151">ErrorView(Error)</text><polygon fill="#4177AF" points="1883.5,646.6094,1879.5,652.6094,1887.5,652.6094" style="stroke: #1963A0; stroke-width: 1.0;"/><text fill="#000000" font-family="sans-serif" font-size="11" lengthAdjust="spacingAndGlyphs" textLength="46" x="1892.5" y="653.8198">writeln()</text><polygon fill="#FFFF44" points="1883.5,658.4141,1887.5,662.4141,1883.5,666.4141,1879.5,662.4141" style="stroke: #B38D22; stroke-width: 1.0;"/><text fill="#000000" font-family="sans-serif" font-size="11" lengthAdjust="spacingAndGlyphs" textLength="115" x="1892.5" y="666.6245">colorInitials() : String</text><!--MD5=[8568eedd71fb556356f784345d001495]
class usantatecla.mastermind.views.console.ColorView--><rect codeLine="95" fill="#FEFECE" filter="url(#f1535mixaq0cit)" height="99.2188" id="usantatecla.mastermind.views.console.ColorView" style="stroke: #A80036; stroke-width: 1.5;" width="160" x="1714" y="733"/><ellipse cx="1759.25" cy="749" fill="#ADD1B2" rx="11" ry="11" style="stroke: #A80036; stroke-width: 1.0;"/><path d="M1761.5938,744.6719 C1760.6563,744.2344 1760.0625,744.0938 1759.1875,744.0938 C1756.5625,744.0938 1754.5625,746.1719 1754.5625,748.8906 L1754.5625,750.0156 C1754.5625,752.5938 1756.6719,754.4844 1759.5625,754.4844 C1760.7813,754.4844 1761.9375,754.1875 1762.6875,753.6406 C1763.2656,753.2344 1763.5938,752.7813 1763.5938,752.3906 C1763.5938,751.9375 1763.2031,751.5469 1762.7344,751.5469 C1762.5156,751.5469 1762.3125,751.625 1762.125,751.8125 C1761.6719,752.2969 1761.6719,752.2969 1761.4844,752.3906 C1761.0625,752.6563 1760.375,752.7813 1759.6094,752.7813 C1757.5625,752.7813 1756.2656,751.6875 1756.2656,749.9844 L1756.2656,748.8906 C1756.2656,747.1094 1757.5156,745.7969 1759.25,745.7969 C1759.8281,745.7969 1760.4375,745.9531 1760.9063,746.2031 C1761.3906,746.4844 1761.5625,746.7031 1761.6563,747.1094 C1761.7188,747.5156 1761.75,747.6406 1761.8906,747.7656 C1762.0313,747.9063 1762.2656,748.0156 1762.4844,748.0156 C1762.75,748.0156 1763.0156,747.875 1763.1875,747.6563 C1763.2969,747.5 1763.3281,747.3125 1763.3281,746.8906 L1763.3281,745.4688 C1763.3281,745.0313 1763.3125,744.9063 1763.2188,744.75 C1763.0625,744.4844 1762.7813,744.3438 1762.4844,744.3438 C1762.1875,744.3438 1761.9844,744.4375 1761.7656,744.75 L1761.5938,744.6719 Z "/><text fill="#000000" font-family="sans-serif" font-size="12" lengthAdjust="spacingAndGlyphs" textLength="61" x="1779.75" y="753.1543">ColorView</text><line style="stroke: #A80036; stroke-width: 1.5;" x1="1715" x2="1873" y1="765" y2="765"/><line style="stroke: #A80036; stroke-width: 1.5;" x1="1715" x2="1873" y1="773" y2="773"/><polygon fill="#4177AF" points="1725,780,1721,786,1729,786" style="stroke: #1963A0; stroke-width: 1.0;"/><text fill="#000000" font-family="sans-serif" font-size="11" lengthAdjust="spacingAndGlyphs" textLength="65" x="1734" y="787.2104">ColorView()</text><polygon fill="#4177AF" points="1725,792.8047,1721,798.8047,1729,798.8047" style="stroke: #1963A0; stroke-width: 1.0;"/><text fill="#000000" font-family="sans-serif" font-size="11" lengthAdjust="spacingAndGlyphs" textLength="94" x="1734" y="800.0151">ColorView(Color)</text><polygon fill="#FFFF44" points="1725,804.6094,1729,808.6094,1725,812.6094,1721,808.6094" style="stroke: #B38D22; stroke-width: 1.0;"/><text fill="#000000" font-family="sans-serif" font-size="11" lengthAdjust="spacingAndGlyphs" textLength="134" x="1734" y="812.8198">resultInitials(int) : String</text><polygon fill="#4177AF" points="1725,818.4141,1721,824.4141,1729,824.4141" style="stroke: #1963A0; stroke-width: 1.0;"/><text fill="#000000" font-family="sans-serif" font-size="11" lengthAdjust="spacingAndGlyphs" textLength="36" x="1734" y="825.6245">write()</text><!--MD5=[b6dcce5e5ef3c84b0b048d11301373dd]
class Game--><rect codeLine="1" fill="#FEFECE" filter="url(#f1535mixaq0cit)" height="67.9063" id="Game" style="stroke: #A80036; stroke-width: 1.5;" width="154" x="7" y="589.5"/><ellipse cx="22" cy="615.4531" fill="#ADD1B2" rx="11" ry="11" style="stroke: #A80036; stroke-width: 1.0;"/><path d="M24.3438,611.125 C23.4063,610.6875 22.8125,610.5469 21.9375,610.5469 C19.3125,610.5469 17.3125,612.625 17.3125,615.3438 L17.3125,616.4688 C17.3125,619.0469 19.4219,620.9375 22.3125,620.9375 C23.5313,620.9375 24.6875,620.6406 25.4375,620.0938 C26.0156,619.6875 26.3438,619.2344 26.3438,618.8438 C26.3438,618.3906 25.9531,618 25.4844,618 C25.2656,618 25.0625,618.0781 24.875,618.2656 C24.4219,618.75 24.4219,618.75 24.2344,618.8438 C23.8125,619.1094 23.125,619.2344 22.3594,619.2344 C20.3125,619.2344 19.0156,618.1406 19.0156,616.4375 L19.0156,615.3438 C19.0156,613.5625 20.2656,612.25 22,612.25 C22.5781,612.25 23.1875,612.4063 23.6563,612.6563 C24.1406,612.9375 24.3125,613.1563 24.4063,613.5625 C24.4688,613.9688 24.5,614.0938 24.6406,614.2188 C24.7813,614.3594 25.0156,614.4688 25.2344,614.4688 C25.5,614.4688 25.7656,614.3281 25.9375,614.1094 C26.0469,613.9531 26.0781,613.7656 26.0781,613.3438 L26.0781,611.9219 C26.0781,611.4844 26.0625,611.3594 25.9688,611.2031 C25.8125,610.9375 25.5313,610.7969 25.2344,610.7969 C24.9375,610.7969 24.7344,610.8906 24.5156,611.2031 L24.3438,611.125 Z "/><text fill="#000000" font-family="sans-serif" font-size="12" lengthAdjust="spacingAndGlyphs" textLength="71" x="61.5" y="605.6387">usantatecla.</text><text fill="#000000" font-family="sans-serif" font-size="12" lengthAdjust="spacingAndGlyphs" textLength="122" x="36" y="619.6074">mastermind.models.</text><text fill="#000000" font-family="sans-serif" font-size="12" lengthAdjust="spacingAndGlyphs" textLength="35" x="79.5" y="633.5762">Game</text><line style="stroke: #A80036; stroke-width: 1.5;" x1="8" x2="160" y1="641.4063" y2="641.4063"/><line style="stroke: #A80036; stroke-width: 1.5;" x1="8" x2="160" y1="649.4063" y2="649.4063"/><!--MD5=[b8cfd8c4119a3b0a7a46bfc5fc780f85]
class Error--><rect codeLine="2" fill="#FEFECE" filter="url(#f1535mixaq0cit)" height="67.9063" id="Error" style="stroke: #A80036; stroke-width: 1.5;" width="154" x="1150" y="748.5"/><ellipse cx="1165" cy="774.4531" fill="#ADD1B2" rx="11" ry="11" style="stroke: #A80036; stroke-width: 1.0;"/><path d="M1167.3438,770.125 C1166.4063,769.6875 1165.8125,769.5469 1164.9375,769.5469 C1162.3125,769.5469 1160.3125,771.625 1160.3125,774.3438 L1160.3125,775.4688 C1160.3125,778.0469 1162.4219,779.9375 1165.3125,779.9375 C1166.5313,779.9375 1167.6875,779.6406 1168.4375,779.0938 C1169.0156,778.6875 1169.3438,778.2344 1169.3438,777.8438 C1169.3438,777.3906 1168.9531,777 1168.4844,777 C1168.2656,777 1168.0625,777.0781 1167.875,777.2656 C1167.4219,777.75 1167.4219,777.75 1167.2344,777.8438 C1166.8125,778.1094 1166.125,778.2344 1165.3594,778.2344 C1163.3125,778.2344 1162.0156,777.1406 1162.0156,775.4375 L1162.0156,774.3438 C1162.0156,772.5625 1163.2656,771.25 1165,771.25 C1165.5781,771.25 1166.1875,771.4063 1166.6563,771.6563 C1167.1406,771.9375 1167.3125,772.1563 1167.4063,772.5625 C1167.4688,772.9688 1167.5,773.0938 1167.6406,773.2188 C1167.7813,773.3594 1168.0156,773.4688 1168.2344,773.4688 C1168.5,773.4688 1168.7656,773.3281 1168.9375,773.1094 C1169.0469,772.9531 1169.0781,772.7656 1169.0781,772.3438 L1169.0781,770.9219 C1169.0781,770.4844 1169.0625,770.3594 1168.9688,770.2031 C1168.8125,769.9375 1168.5313,769.7969 1168.2344,769.7969 C1167.9375,769.7969 1167.7344,769.8906 1167.5156,770.2031 L1167.3438,770.125 Z "/><text fill="#000000" font-family="sans-serif" font-size="12" lengthAdjust="spacingAndGlyphs" textLength="71" x="1204.5" y="764.6387">usantatecla.</text><text fill="#000000" font-family="sans-serif" font-size="12" lengthAdjust="spacingAndGlyphs" textLength="122" x="1179" y="778.6074">mastermind.models.</text><text fill="#000000" font-family="sans-serif" font-size="12" lengthAdjust="spacingAndGlyphs" textLength="30" x="1225" y="792.5762">Error</text><line style="stroke: #A80036; stroke-width: 1.5;" x1="1151" x2="1303" y1="800.4063" y2="800.4063"/><line style="stroke: #A80036; stroke-width: 1.5;" x1="1151" x2="1303" y1="808.4063" y2="808.4063"/><!--MD5=[2741598bdf59a7d7e0d5c97658fd3022]
class Result--><rect codeLine="3" fill="#FEFECE" filter="url(#f1535mixaq0cit)" height="67.9063" id="Result" style="stroke: #A80036; stroke-width: 1.5;" width="154" x="763" y="589.5"/><ellipse cx="778" cy="615.4531" fill="#ADD1B2" rx="11" ry="11" style="stroke: #A80036; stroke-width: 1.0;"/><path d="M780.3438,611.125 C779.4063,610.6875 778.8125,610.5469 777.9375,610.5469 C775.3125,610.5469 773.3125,612.625 773.3125,615.3438 L773.3125,616.4688 C773.3125,619.0469 775.4219,620.9375 778.3125,620.9375 C779.5313,620.9375 780.6875,620.6406 781.4375,620.0938 C782.0156,619.6875 782.3438,619.2344 782.3438,618.8438 C782.3438,618.3906 781.9531,618 781.4844,618 C781.2656,618 781.0625,618.0781 780.875,618.2656 C780.4219,618.75 780.4219,618.75 780.2344,618.8438 C779.8125,619.1094 779.125,619.2344 778.3594,619.2344 C776.3125,619.2344 775.0156,618.1406 775.0156,616.4375 L775.0156,615.3438 C775.0156,613.5625 776.2656,612.25 778,612.25 C778.5781,612.25 779.1875,612.4063 779.6563,612.6563 C780.1406,612.9375 780.3125,613.1563 780.4063,613.5625 C780.4688,613.9688 780.5,614.0938 780.6406,614.2188 C780.7813,614.3594 781.0156,614.4688 781.2344,614.4688 C781.5,614.4688 781.7656,614.3281 781.9375,614.1094 C782.0469,613.9531 782.0781,613.7656 782.0781,613.3438 L782.0781,611.9219 C782.0781,611.4844 782.0625,611.3594 781.9688,611.2031 C781.8125,610.9375 781.5313,610.7969 781.2344,610.7969 C780.9375,610.7969 780.7344,610.8906 780.5156,611.2031 L780.3438,611.125 Z "/><text fill="#000000" font-family="sans-serif" font-size="12" lengthAdjust="spacingAndGlyphs" textLength="71" x="817.5" y="605.6387">usantatecla.</text><text fill="#000000" font-family="sans-serif" font-size="12" lengthAdjust="spacingAndGlyphs" textLength="122" x="792" y="619.6074">mastermind.models.</text><text fill="#000000" font-family="sans-serif" font-size="12" lengthAdjust="spacingAndGlyphs" textLength="36" x="835" y="633.5762">Result</text><line style="stroke: #A80036; stroke-width: 1.5;" x1="764" x2="916" y1="641.4063" y2="641.4063"/><line style="stroke: #A80036; stroke-width: 1.5;" x1="764" x2="916" y1="649.4063" y2="649.4063"/><!--MD5=[18eee71c88ab61f27581b8cbdd3ef5ee]
class Color--><rect codeLine="4" fill="#FEFECE" filter="url(#f1535mixaq0cit)" height="67.9063" id="Color" style="stroke: #A80036; stroke-width: 1.5;" width="154" x="1209" y="892"/><ellipse cx="1224" cy="917.9531" fill="#EB937F" rx="11" ry="11" style="stroke: #A80036; stroke-width: 1.0;"/><path d="M1222.7969,918.8281 L1224.25,918.8281 L1224.25,918.9375 C1224.25,919.3438 1224.2813,919.5 1224.3594,919.6563 C1224.5156,919.9063 1224.7969,920.0625 1225.0938,920.0625 C1225.3438,920.0625 1225.6094,919.9219 1225.7656,919.7031 C1225.8906,919.5469 1225.9219,919.3906 1225.9219,918.9375 L1225.9219,917.0156 C1225.9219,916.8594 1225.9219,916.8125 1225.9063,916.6563 C1225.8438,916.1875 1225.5313,915.875 1225.0781,915.875 C1224.8281,915.875 1224.5625,916.0156 1224.3906,916.2344 C1224.2813,916.4063 1224.25,916.5625 1224.25,917.0156 L1224.25,917.1406 L1222.7969,917.1406 L1222.7969,914.7344 L1226.7813,914.7344 L1226.7813,915.5938 C1226.7813,916 1226.8125,916.1719 1226.8906,916.3281 C1227.0625,916.5781 1227.3438,916.7344 1227.625,916.7344 C1227.8906,916.7344 1228.1563,916.5938 1228.3281,916.375 C1228.4375,916.2031 1228.4688,916.0625 1228.4688,915.5938 L1228.4688,913.0469 L1220.8438,913.0469 C1220.4063,913.0469 1220.2813,913.0625 1220.125,913.1563 C1219.875,913.3125 1219.7188,913.6094 1219.7188,913.8906 C1219.7188,914.1719 1219.8594,914.4219 1220.0781,914.5938 C1220.2344,914.7031 1220.4219,914.7344 1220.8438,914.7344 L1221.0938,914.7344 L1221.0938,921.25 L1220.8438,921.25 C1220.4375,921.25 1220.2813,921.2656 1220.125,921.375 C1219.875,921.5469 1219.7188,921.8125 1219.7188,922.1094 C1219.7188,922.375 1219.8594,922.625 1220.0781,922.7813 C1220.2188,922.9063 1220.4531,922.9531 1220.8438,922.9531 L1228.8438,922.9531 L1228.8438,920.375 C1228.8438,919.9375 1228.8125,919.7969 1228.7344,919.6406 C1228.5625,919.3906 1228.2813,919.2344 1228,919.2344 C1227.7344,919.2344 1227.4688,919.3438 1227.2969,919.5938 C1227.1875,919.75 1227.1563,919.8906 1227.1563,920.375 L1227.1563,921.25 L1222.7969,921.25 L1222.7969,918.8281 Z "/><text fill="#000000" font-family="sans-serif" font-size="12" lengthAdjust="spacingAndGlyphs" textLength="71" x="1263.5" y="908.1387">usantatecla.</text><text fill="#000000" font-family="sans-serif" font-size="12" lengthAdjust="spacingAndGlyphs" textLength="122" x="1238" y="922.1074">mastermind.models.</text><text fill="#000000" font-family="sans-serif" font-size="12" lengthAdjust="spacingAndGlyphs" textLength="32" x="1283" y="936.0762">Color</text><line style="stroke: #A80036; stroke-width: 1.5;" x1="1210" x2="1362" y1="943.9063" y2="943.9063"/><line style="stroke: #A80036; stroke-width: 1.5;" x1="1210" x2="1362" y1="951.9063" y2="951.9063"/><!--MD5=[28491d17d5ee38c9c116625a5ffc259a]
class Combination--><rect codeLine="5" fill="#FEFECE" filter="url(#f1535mixaq0cit)" height="67.9063" id="Combination" style="stroke: #A80036; stroke-width: 1.5;" width="156" x="1275" y="589.5"/><ellipse cx="1290" cy="615.4531" fill="#A9DCDF" rx="11" ry="11" style="stroke: #A80036; stroke-width: 1.0;"/><path d="M1292.0781,617.2656 L1292.4688,618.25 L1292.0781,618.25 C1291.625,618.25 1291.5156,618.2656 1291.3594,618.375 C1291.1094,618.5313 1290.9531,618.8125 1290.9531,619.1094 C1290.9531,619.375 1291.0938,619.625 1291.3125,619.7813 C1291.4531,619.9063 1291.6563,619.9531 1292.0781,619.9531 L1294.4375,619.9531 C1294.7969,619.9531 1295.0156,619.9219 1295.1563,619.8281 C1295.4063,619.6875 1295.5625,619.3906 1295.5625,619.1094 C1295.5625,618.8281 1295.4219,618.5781 1295.2031,618.4219 C1295.0313,618.2813 1294.875,618.25 1294.4063,618.25 L1291.0156,610.0469 L1287.3438,610.0469 C1286.8906,610.0469 1286.7656,610.0625 1286.6094,610.1563 C1286.3594,610.3281 1286.2031,610.6094 1286.2031,610.8906 C1286.2031,611.1719 1286.3438,611.4219 1286.5625,611.5938 C1286.7344,611.7031 1286.9063,611.7344 1287.3438,611.7344 L1288.4219,611.7344 L1285.7813,618.25 C1285.3594,618.25 1285.2031,618.2656 1285.0469,618.375 C1284.7969,618.5313 1284.6406,618.8125 1284.6406,619.1094 C1284.6406,619.6719 1285.0156,619.9531 1285.7656,619.9531 L1288.0313,619.9531 C1288.3906,619.9531 1288.6094,619.9219 1288.7344,619.8281 C1289,619.6875 1289.1406,619.3906 1289.1406,619.1094 C1289.1406,618.8281 1289.0156,618.5781 1288.7969,618.4063 C1288.625,618.2813 1288.4844,618.25 1288.0313,618.25 L1287.6406,618.25 L1288.0313,617.2656 L1292.0781,617.2656 Z M1291.375,615.5625 L1288.7031,615.5625 L1290.0469,612.2969 L1291.375,615.5625 Z "/><text fill="#000000" font-family="sans-serif" font-size="12" font-style="italic" lengthAdjust="spacingAndGlyphs" textLength="74" x="1329" y="605.6387">usantatecla.</text><text fill="#000000" font-family="sans-serif" font-size="12" font-style="italic" lengthAdjust="spacingAndGlyphs" textLength="124" x="1304" y="619.6074">mastermind.models.</text><text fill="#000000" font-family="sans-serif" font-size="12" font-style="italic" lengthAdjust="spacingAndGlyphs" textLength="76" x="1328" y="633.5762">Combination</text><line style="stroke: #A80036; stroke-width: 1.5;" x1="1276" x2="1430" y1="641.4063" y2="641.4063"/><line style="stroke: #A80036; stroke-width: 1.5;" x1="1276" x2="1430" y1="649.4063" y2="649.4063"/><!--MD5=[cf489b19c51ee25e76ddca093e62e620]
class ProposedCombination--><rect codeLine="6" fill="#FEFECE" filter="url(#f1535mixaq0cit)" height="67.9063" id="ProposedCombination" style="stroke: #A80036; stroke-width: 1.5;" width="164" x="564" y="589.5"/><ellipse cx="579" cy="615.4531" fill="#ADD1B2" rx="11" ry="11" style="stroke: #A80036; stroke-width: 1.0;"/><path d="M581.3438,611.125 C580.4063,610.6875 579.8125,610.5469 578.9375,610.5469 C576.3125,610.5469 574.3125,612.625 574.3125,615.3438 L574.3125,616.4688 C574.3125,619.0469 576.4219,620.9375 579.3125,620.9375 C580.5313,620.9375 581.6875,620.6406 582.4375,620.0938 C583.0156,619.6875 583.3438,619.2344 583.3438,618.8438 C583.3438,618.3906 582.9531,618 582.4844,618 C582.2656,618 582.0625,618.0781 581.875,618.2656 C581.4219,618.75 581.4219,618.75 581.2344,618.8438 C580.8125,619.1094 580.125,619.2344 579.3594,619.2344 C577.3125,619.2344 576.0156,618.1406 576.0156,616.4375 L576.0156,615.3438 C576.0156,613.5625 577.2656,612.25 579,612.25 C579.5781,612.25 580.1875,612.4063 580.6563,612.6563 C581.1406,612.9375 581.3125,613.1563 581.4063,613.5625 C581.4688,613.9688 581.5,614.0938 581.6406,614.2188 C581.7813,614.3594 582.0156,614.4688 582.2344,614.4688 C582.5,614.4688 582.7656,614.3281 582.9375,614.1094 C583.0469,613.9531 583.0781,613.7656 583.0781,613.3438 L583.0781,611.9219 C583.0781,611.4844 583.0625,611.3594 582.9688,611.2031 C582.8125,610.9375 582.5313,610.7969 582.2344,610.7969 C581.9375,610.7969 581.7344,610.8906 581.5156,611.2031 L581.3438,611.125 Z "/><text fill="#000000" font-family="sans-serif" font-size="12" lengthAdjust="spacingAndGlyphs" textLength="71" x="623.5" y="605.6387">usantatecla.</text><text fill="#000000" font-family="sans-serif" font-size="12" lengthAdjust="spacingAndGlyphs" textLength="122" x="598" y="619.6074">mastermind.models.</text><text fill="#000000" font-family="sans-serif" font-size="12" lengthAdjust="spacingAndGlyphs" textLength="132" x="593" y="633.5762">ProposedCombination</text><line style="stroke: #A80036; stroke-width: 1.5;" x1="565" x2="727" y1="641.4063" y2="641.4063"/><line style="stroke: #A80036; stroke-width: 1.5;" x1="565" x2="727" y1="649.4063" y2="649.4063"/><!--MD5=[e370ee5c0c15ce04544d5f5a73174d72]
class SecretCombination--><rect codeLine="7" fill="#FEFECE" filter="url(#f1535mixaq0cit)" height="67.9063" id="SecretCombination" style="stroke: #A80036; stroke-width: 1.5;" width="154" x="375" y="589.5"/><ellipse cx="390" cy="615.4531" fill="#ADD1B2" rx="11" ry="11" style="stroke: #A80036; stroke-width: 1.0;"/><path d="M392.3438,611.125 C391.4063,610.6875 390.8125,610.5469 389.9375,610.5469 C387.3125,610.5469 385.3125,612.625 385.3125,615.3438 L385.3125,616.4688 C385.3125,619.0469 387.4219,620.9375 390.3125,620.9375 C391.5313,620.9375 392.6875,620.6406 393.4375,620.0938 C394.0156,619.6875 394.3438,619.2344 394.3438,618.8438 C394.3438,618.3906 393.9531,618 393.4844,618 C393.2656,618 393.0625,618.0781 392.875,618.2656 C392.4219,618.75 392.4219,618.75 392.2344,618.8438 C391.8125,619.1094 391.125,619.2344 390.3594,619.2344 C388.3125,619.2344 387.0156,618.1406 387.0156,616.4375 L387.0156,615.3438 C387.0156,613.5625 388.2656,612.25 390,612.25 C390.5781,612.25 391.1875,612.4063 391.6563,612.6563 C392.1406,612.9375 392.3125,613.1563 392.4063,613.5625 C392.4688,613.9688 392.5,614.0938 392.6406,614.2188 C392.7813,614.3594 393.0156,614.4688 393.2344,614.4688 C393.5,614.4688 393.7656,614.3281 393.9375,614.1094 C394.0469,613.9531 394.0781,613.7656 394.0781,613.3438 L394.0781,611.9219 C394.0781,611.4844 394.0625,611.3594 393.9688,611.2031 C393.8125,610.9375 393.5313,610.7969 393.2344,610.7969 C392.9375,610.7969 392.7344,610.8906 392.5156,611.2031 L392.3438,611.125 Z "/><text fill="#000000" font-family="sans-serif" font-size="12" lengthAdjust="spacingAndGlyphs" textLength="71" x="429.5" y="605.6387">usantatecla.</text><text fill="#000000" font-family="sans-serif" font-size="12" lengthAdjust="spacingAndGlyphs" textLength="122" x="404" y="619.6074">mastermind.models.</text><text fill="#000000" font-family="sans-serif" font-size="12" lengthAdjust="spacingAndGlyphs" textLength="114" x="408" y="633.5762">SecretCombination</text><line style="stroke: #A80036; stroke-width: 1.5;" x1="376" x2="528" y1="641.4063" y2="641.4063"/><line style="stroke: #A80036; stroke-width: 1.5;" x1="376" x2="528" y1="649.4063" y2="649.4063"/><!--MD5=[c045e12321b83266d36d22b9096c24ea]
class View--><rect codeLine="8" fill="#FEFECE" filter="url(#f1535mixaq0cit)" height="67.9063" id="View" style="stroke: #A80036; stroke-width: 1.5;" width="146" x="1542" y="7"/><ellipse cx="1557" cy="32.9531" fill="#A9DCDF" rx="11" ry="11" style="stroke: #A80036; stroke-width: 1.0;"/><path d="M1559.0781,34.7656 L1559.4688,35.75 L1559.0781,35.75 C1558.625,35.75 1558.5156,35.7656 1558.3594,35.875 C1558.1094,36.0313 1557.9531,36.3125 1557.9531,36.6094 C1557.9531,36.875 1558.0938,37.125 1558.3125,37.2813 C1558.4531,37.4063 1558.6563,37.4531 1559.0781,37.4531 L1561.4375,37.4531 C1561.7969,37.4531 1562.0156,37.4219 1562.1563,37.3281 C1562.4063,37.1875 1562.5625,36.8906 1562.5625,36.6094 C1562.5625,36.3281 1562.4219,36.0781 1562.2031,35.9219 C1562.0313,35.7813 1561.875,35.75 1561.4063,35.75 L1558.0156,27.5469 L1554.3438,27.5469 C1553.8906,27.5469 1553.7656,27.5625 1553.6094,27.6563 C1553.3594,27.8281 1553.2031,28.1094 1553.2031,28.3906 C1553.2031,28.6719 1553.3438,28.9219 1553.5625,29.0938 C1553.7344,29.2031 1553.9063,29.2344 1554.3438,29.2344 L1555.4219,29.2344 L1552.7813,35.75 C1552.3594,35.75 1552.2031,35.7656 1552.0469,35.875 C1551.7969,36.0313 1551.6406,36.3125 1551.6406,36.6094 C1551.6406,37.1719 1552.0156,37.4531 1552.7656,37.4531 L1555.0313,37.4531 C1555.3906,37.4531 1555.6094,37.4219 1555.7344,37.3281 C1556,37.1875 1556.1406,36.8906 1556.1406,36.6094 C1556.1406,36.3281 1556.0156,36.0781 1555.7969,35.9063 C1555.625,35.7813 1555.4844,35.75 1555.0313,35.75 L1554.6406,35.75 L1555.0313,34.7656 L1559.0781,34.7656 Z M1558.375,33.0625 L1555.7031,33.0625 L1557.0469,29.7969 L1558.375,33.0625 Z "/><text fill="#000000" font-family="sans-serif" font-size="12" font-style="italic" lengthAdjust="spacingAndGlyphs" textLength="74" x="1591" y="23.1387">usantatecla.</text><text fill="#000000" font-family="sans-serif" font-size="12" font-style="italic" lengthAdjust="spacingAndGlyphs" textLength="114" x="1571" y="37.1074">mastermind.views.</text><text fill="#000000" font-family="sans-serif" font-size="12" font-style="italic" lengthAdjust="spacingAndGlyphs" textLength="28" x="1614" y="51.0762">View</text><line style="stroke: #A80036; stroke-width: 1.5;" x1="1543" x2="1687" y1="58.9063" y2="58.9063"/><line style="stroke: #A80036; stroke-width: 1.5;" x1="1543" x2="1687" y1="66.9063" y2="66.9063"/><!--MD5=[5c0d2bf114541dffca76af5edd55a1b5]
class ColorView--><rect codeLine="9" fill="#FEFECE" filter="url(#f1535mixaq0cit)" height="67.9063" id="ColorView" style="stroke: #A80036; stroke-width: 1.5;" width="146" x="1094" y="589.5"/><ellipse cx="1109" cy="615.4531" fill="#A9DCDF" rx="11" ry="11" style="stroke: #A80036; stroke-width: 1.0;"/><path d="M1111.0781,617.2656 L1111.4688,618.25 L1111.0781,618.25 C1110.625,618.25 1110.5156,618.2656 1110.3594,618.375 C1110.1094,618.5313 1109.9531,618.8125 1109.9531,619.1094 C1109.9531,619.375 1110.0938,619.625 1110.3125,619.7813 C1110.4531,619.9063 1110.6563,619.9531 1111.0781,619.9531 L1113.4375,619.9531 C1113.7969,619.9531 1114.0156,619.9219 1114.1563,619.8281 C1114.4063,619.6875 1114.5625,619.3906 1114.5625,619.1094 C1114.5625,618.8281 1114.4219,618.5781 1114.2031,618.4219 C1114.0313,618.2813 1113.875,618.25 1113.4063,618.25 L1110.0156,610.0469 L1106.3438,610.0469 C1105.8906,610.0469 1105.7656,610.0625 1105.6094,610.1563 C1105.3594,610.3281 1105.2031,610.6094 1105.2031,610.8906 C1105.2031,611.1719 1105.3438,611.4219 1105.5625,611.5938 C1105.7344,611.7031 1105.9063,611.7344 1106.3438,611.7344 L1107.4219,611.7344 L1104.7813,618.25 C1104.3594,618.25 1104.2031,618.2656 1104.0469,618.375 C1103.7969,618.5313 1103.6406,618.8125 1103.6406,619.1094 C1103.6406,619.6719 1104.0156,619.9531 1104.7656,619.9531 L1107.0313,619.9531 C1107.3906,619.9531 1107.6094,619.9219 1107.7344,619.8281 C1108,619.6875 1108.1406,619.3906 1108.1406,619.1094 C1108.1406,618.8281 1108.0156,618.5781 1107.7969,618.4063 C1107.625,618.2813 1107.4844,618.25 1107.0313,618.25 L1106.6406,618.25 L1107.0313,617.2656 L1111.0781,617.2656 Z M1110.375,615.5625 L1107.7031,615.5625 L1109.0469,612.2969 L1110.375,615.5625 Z "/><text fill="#000000" font-family="sans-serif" font-size="12" font-style="italic" lengthAdjust="spacingAndGlyphs" textLength="74" x="1143" y="605.6387">usantatecla.</text><text fill="#000000" font-family="sans-serif" font-size="12" font-style="italic" lengthAdjust="spacingAndGlyphs" textLength="114" x="1123" y="619.6074">mastermind.views.</text><text fill="#000000" font-family="sans-serif" font-size="12" font-style="italic" lengthAdjust="spacingAndGlyphs" textLength="58" x="1151" y="633.5762">ColorView</text><line style="stroke: #A80036; stroke-width: 1.5;" x1="1095" x2="1239" y1="641.4063" y2="641.4063"/><line style="stroke: #A80036; stroke-width: 1.5;" x1="1095" x2="1239" y1="649.4063" y2="649.4063"/><!--MD5=[86cec68673cafdfc1c204348d5b2cca6]
class ErrorView--><rect codeLine="10" fill="#FEFECE" filter="url(#f1535mixaq0cit)" height="67.9063" id="ErrorView" style="stroke: #A80036; stroke-width: 1.5;" width="146" x="2368" y="437"/><ellipse cx="2383" cy="462.9531" fill="#A9DCDF" rx="11" ry="11" style="stroke: #A80036; stroke-width: 1.0;"/><path d="M2385.0781,464.7656 L2385.4688,465.75 L2385.0781,465.75 C2384.625,465.75 2384.5156,465.7656 2384.3594,465.875 C2384.1094,466.0313 2383.9531,466.3125 2383.9531,466.6094 C2383.9531,466.875 2384.0938,467.125 2384.3125,467.2813 C2384.4531,467.4063 2384.6563,467.4531 2385.0781,467.4531 L2387.4375,467.4531 C2387.7969,467.4531 2388.0156,467.4219 2388.1563,467.3281 C2388.4063,467.1875 2388.5625,466.8906 2388.5625,466.6094 C2388.5625,466.3281 2388.4219,466.0781 2388.2031,465.9219 C2388.0313,465.7813 2387.875,465.75 2387.4063,465.75 L2384.0156,457.5469 L2380.3438,457.5469 C2379.8906,457.5469 2379.7656,457.5625 2379.6094,457.6563 C2379.3594,457.8281 2379.2031,458.1094 2379.2031,458.3906 C2379.2031,458.6719 2379.3438,458.9219 2379.5625,459.0938 C2379.7344,459.2031 2379.9063,459.2344 2380.3438,459.2344 L2381.4219,459.2344 L2378.7813,465.75 C2378.3594,465.75 2378.2031,465.7656 2378.0469,465.875 C2377.7969,466.0313 2377.6406,466.3125 2377.6406,466.6094 C2377.6406,467.1719 2378.0156,467.4531 2378.7656,467.4531 L2381.0313,467.4531 C2381.3906,467.4531 2381.6094,467.4219 2381.7344,467.3281 C2382,467.1875 2382.1406,466.8906 2382.1406,466.6094 C2382.1406,466.3281 2382.0156,466.0781 2381.7969,465.9063 C2381.625,465.7813 2381.4844,465.75 2381.0313,465.75 L2380.6406,465.75 L2381.0313,464.7656 L2385.0781,464.7656 Z M2384.375,463.0625 L2381.7031,463.0625 L2383.0469,459.7969 L2384.375,463.0625 Z "/><text fill="#000000" font-family="sans-serif" font-size="12" font-style="italic" lengthAdjust="spacingAndGlyphs" textLength="74" x="2417" y="453.1387">usantatecla.</text><text fill="#000000" font-family="sans-serif" font-size="12" font-style="italic" lengthAdjust="spacingAndGlyphs" textLength="114" x="2397" y="467.1074">mastermind.views.</text><text fill="#000000" font-family="sans-serif" font-size="12" font-style="italic" lengthAdjust="spacingAndGlyphs" textLength="58" x="2425" y="481.0762">ErrorView</text><line style="stroke: #A80036; stroke-width: 1.5;" x1="2369" x2="2513" y1="488.9063" y2="488.9063"/><line style="stroke: #A80036; stroke-width: 1.5;" x1="2369" x2="2513" y1="496.9063" y2="496.9063"/><!--MD5=[49feb4884a66ed250f9a27795111a05a]
class MessageView--><rect codeLine="11" fill="#FEFECE" filter="url(#f1535mixaq0cit)" height="67.9063" id="MessageView" style="stroke: #A80036; stroke-width: 1.5;" width="144" x="196" y="589.5"/><ellipse cx="211" cy="615.4531" fill="#EB937F" rx="11" ry="11" style="stroke: #A80036; stroke-width: 1.0;"/><path d="M209.7969,616.3281 L211.25,616.3281 L211.25,616.4375 C211.25,616.8438 211.2813,617 211.3594,617.1563 C211.5156,617.4063 211.7969,617.5625 212.0938,617.5625 C212.3438,617.5625 212.6094,617.4219 212.7656,617.2031 C212.8906,617.0469 212.9219,616.8906 212.9219,616.4375 L212.9219,614.5156 C212.9219,614.3594 212.9219,614.3125 212.9063,614.1563 C212.8438,613.6875 212.5313,613.375 212.0781,613.375 C211.8281,613.375 211.5625,613.5156 211.3906,613.7344 C211.2813,613.9063 211.25,614.0625 211.25,614.5156 L211.25,614.6406 L209.7969,614.6406 L209.7969,612.2344 L213.7813,612.2344 L213.7813,613.0938 C213.7813,613.5 213.8125,613.6719 213.8906,613.8281 C214.0625,614.0781 214.3438,614.2344 214.625,614.2344 C214.8906,614.2344 215.1563,614.0938 215.3281,613.875 C215.4375,613.7031 215.4688,613.5625 215.4688,613.0938 L215.4688,610.5469 L207.8438,610.5469 C207.4063,610.5469 207.2813,610.5625 207.125,610.6563 C206.875,610.8125 206.7188,611.1094 206.7188,611.3906 C206.7188,611.6719 206.8594,611.9219 207.0781,612.0938 C207.2344,612.2031 207.4219,612.2344 207.8438,612.2344 L208.0938,612.2344 L208.0938,618.75 L207.8438,618.75 C207.4375,618.75 207.2813,618.7656 207.125,618.875 C206.875,619.0469 206.7188,619.3125 206.7188,619.6094 C206.7188,619.875 206.8594,620.125 207.0781,620.2813 C207.2188,620.4063 207.4531,620.4531 207.8438,620.4531 L215.8438,620.4531 L215.8438,617.875 C215.8438,617.4375 215.8125,617.2969 215.7344,617.1406 C215.5625,616.8906 215.2813,616.7344 215,616.7344 C214.7344,616.7344 214.4688,616.8438 214.2969,617.0938 C214.1875,617.25 214.1563,617.3906 214.1563,617.875 L214.1563,618.75 L209.7969,618.75 L209.7969,616.3281 Z "/><text fill="#000000" font-family="sans-serif" font-size="12" lengthAdjust="spacingAndGlyphs" textLength="71" x="245.5" y="605.6387">usantatecla.</text><text fill="#000000" font-family="sans-serif" font-size="12" lengthAdjust="spacingAndGlyphs" textLength="112" x="225" y="619.6074">mastermind.views.</text><text fill="#000000" font-family="sans-serif" font-size="12" lengthAdjust="spacingAndGlyphs" textLength="84" x="239" y="633.5762">MessageView</text><line style="stroke: #A80036; stroke-width: 1.5;" x1="197" x2="339" y1="641.4063" y2="641.4063"/><line style="stroke: #A80036; stroke-width: 1.5;" x1="197" x2="339" y1="649.4063" y2="649.4063"/><!--MD5=[8e7e8d7e522e56c14d493dfee2dc57e6]
class WithConsoleView--><rect codeLine="12" fill="#FEFECE" filter="url(#f1535mixaq0cit)" height="53.9375" id="WithConsoleView" style="stroke: #A80036; stroke-width: 1.5;" width="135" x="2365.5" y="157.5"/><ellipse cx="2380.5" cy="176.4688" fill="#A9DCDF" rx="11" ry="11" style="stroke: #A80036; stroke-width: 1.0;"/><path d="M2382.5781,178.2813 L2382.9688,179.2656 L2382.5781,179.2656 C2382.125,179.2656 2382.0156,179.2813 2381.8594,179.3906 C2381.6094,179.5469 2381.4531,179.8281 2381.4531,180.125 C2381.4531,180.3906 2381.5938,180.6406 2381.8125,180.7969 C2381.9531,180.9219 2382.1563,180.9688 2382.5781,180.9688 L2384.9375,180.9688 C2385.2969,180.9688 2385.5156,180.9375 2385.6563,180.8438 C2385.9063,180.7031 2386.0625,180.4063 2386.0625,180.125 C2386.0625,179.8438 2385.9219,179.5938 2385.7031,179.4375 C2385.5313,179.2969 2385.375,179.2656 2384.9063,179.2656 L2381.5156,171.0625 L2377.8438,171.0625 C2377.3906,171.0625 2377.2656,171.0781 2377.1094,171.1719 C2376.8594,171.3438 2376.7031,171.625 2376.7031,171.9063 C2376.7031,172.1875 2376.8438,172.4375 2377.0625,172.6094 C2377.2344,172.7188 2377.4063,172.75 2377.8438,172.75 L2378.9219,172.75 L2376.2813,179.2656 C2375.8594,179.2656 2375.7031,179.2813 2375.5469,179.3906 C2375.2969,179.5469 2375.1406,179.8281 2375.1406,180.125 C2375.1406,180.6875 2375.5156,180.9688 2376.2656,180.9688 L2378.5313,180.9688 C2378.8906,180.9688 2379.1094,180.9375 2379.2344,180.8438 C2379.5,180.7031 2379.6406,180.4063 2379.6406,180.125 C2379.6406,179.8438 2379.5156,179.5938 2379.2969,179.4219 C2379.125,179.2969 2378.9844,179.2656 2378.5313,179.2656 L2378.1406,179.2656 L2378.5313,178.2813 L2382.5781,178.2813 Z M2381.875,176.5781 L2379.2031,176.5781 L2380.5469,173.3125 L2381.875,176.5781 Z "/><text fill="#000000" font-family="sans-serif" font-size="12" font-style="italic" lengthAdjust="spacingAndGlyphs" textLength="103" x="2394.5" y="173.6387">usantatecla.utils.</text><text fill="#000000" font-family="sans-serif" font-size="12" font-style="italic" lengthAdjust="spacingAndGlyphs" textLength="102" x="2395" y="187.6074">WithConsoleView</text><line style="stroke: #A80036; stroke-width: 1.5;" x1="2366.5" x2="2499.5" y1="195.4375" y2="195.4375"/><line style="stroke: #A80036; stroke-width: 1.5;" x1="2366.5" x2="2499.5" y1="203.4375" y2="203.4375"/><!--MD5=[315b61b427ec618d6861d47eee00cca3]
class Console--><rect codeLine="13" fill="#FEFECE" filter="url(#f1535mixaq0cit)" height="53.9375" id="Console" style="stroke: #A80036; stroke-width: 1.5;" width="130" x="1878" y="899"/><ellipse cx="1893" cy="917.9688" fill="#ADD1B2" rx="11" ry="11" style="stroke: #A80036; stroke-width: 1.0;"/><path d="M1895.3438,913.6406 C1894.4063,913.2031 1893.8125,913.0625 1892.9375,913.0625 C1890.3125,913.0625 1888.3125,915.1406 1888.3125,917.8594 L1888.3125,918.9844 C1888.3125,921.5625 1890.4219,923.4531 1893.3125,923.4531 C1894.5313,923.4531 1895.6875,923.1563 1896.4375,922.6094 C1897.0156,922.2031 1897.3438,921.75 1897.3438,921.3594 C1897.3438,920.9063 1896.9531,920.5156 1896.4844,920.5156 C1896.2656,920.5156 1896.0625,920.5938 1895.875,920.7813 C1895.4219,921.2656 1895.4219,921.2656 1895.2344,921.3594 C1894.8125,921.625 1894.125,921.75 1893.3594,921.75 C1891.3125,921.75 1890.0156,920.6563 1890.0156,918.9531 L1890.0156,917.8594 C1890.0156,916.0781 1891.2656,914.7656 1893,914.7656 C1893.5781,914.7656 1894.1875,914.9219 1894.6563,915.1719 C1895.1406,915.4531 1895.3125,915.6719 1895.4063,916.0781 C1895.4688,916.4844 1895.5,916.6094 1895.6406,916.7344 C1895.7813,916.875 1896.0156,916.9844 1896.2344,916.9844 C1896.5,916.9844 1896.7656,916.8438 1896.9375,916.625 C1897.0469,916.4688 1897.0781,916.2813 1897.0781,915.8594 L1897.0781,914.4375 C1897.0781,914 1897.0625,913.875 1896.9688,913.7188 C1896.8125,913.4531 1896.5313,913.3125 1896.2344,913.3125 C1895.9375,913.3125 1895.7344,913.4063 1895.5156,913.7188 L1895.3438,913.6406 Z "/><text fill="#000000" font-family="sans-serif" font-size="12" lengthAdjust="spacingAndGlyphs" textLength="98" x="1907" y="915.1387">usantatecla.utils.</text><text fill="#000000" font-family="sans-serif" font-size="12" lengthAdjust="spacingAndGlyphs" textLength="49" x="1931.5" y="929.1074">Console</text><line style="stroke: #A80036; stroke-width: 1.5;" x1="1879" x2="2007" y1="936.9375" y2="936.9375"/><line style="stroke: #A80036; stroke-width: 1.5;" x1="1879" x2="2007" y1="944.9375" y2="944.9375"/><!--MD5=[d93cf99d2b92276f27fe8dbf15140505]
class YesNoDialog--><rect codeLine="14" fill="#FEFECE" filter="url(#f1535mixaq0cit)" height="53.9375" id="YesNoDialog" style="stroke: #A80036; stroke-width: 1.5;" width="130" x="872" y="444"/><ellipse cx="887" cy="462.9688" fill="#ADD1B2" rx="11" ry="11" style="stroke: #A80036; stroke-width: 1.0;"/><path d="M889.3438,458.6406 C888.4063,458.2031 887.8125,458.0625 886.9375,458.0625 C884.3125,458.0625 882.3125,460.1406 882.3125,462.8594 L882.3125,463.9844 C882.3125,466.5625 884.4219,468.4531 887.3125,468.4531 C888.5313,468.4531 889.6875,468.1563 890.4375,467.6094 C891.0156,467.2031 891.3438,466.75 891.3438,466.3594 C891.3438,465.9063 890.9531,465.5156 890.4844,465.5156 C890.2656,465.5156 890.0625,465.5938 889.875,465.7813 C889.4219,466.2656 889.4219,466.2656 889.2344,466.3594 C888.8125,466.625 888.125,466.75 887.3594,466.75 C885.3125,466.75 884.0156,465.6563 884.0156,463.9531 L884.0156,462.8594 C884.0156,461.0781 885.2656,459.7656 887,459.7656 C887.5781,459.7656 888.1875,459.9219 888.6563,460.1719 C889.1406,460.4531 889.3125,460.6719 889.4063,461.0781 C889.4688,461.4844 889.5,461.6094 889.6406,461.7344 C889.7813,461.875 890.0156,461.9844 890.2344,461.9844 C890.5,461.9844 890.7656,461.8438 890.9375,461.625 C891.0469,461.4688 891.0781,461.2813 891.0781,460.8594 L891.0781,459.4375 C891.0781,459 891.0625,458.875 890.9688,458.7188 C890.8125,458.4531 890.5313,458.3125 890.2344,458.3125 C889.9375,458.3125 889.7344,458.4063 889.5156,458.7188 L889.3438,458.6406 Z "/><text fill="#000000" font-family="sans-serif" font-size="12" lengthAdjust="spacingAndGlyphs" textLength="98" x="901" y="460.1387">usantatecla.utils.</text><text fill="#000000" font-family="sans-serif" font-size="12" lengthAdjust="spacingAndGlyphs" textLength="76" x="912" y="474.1074">YesNoDialog</text><line style="stroke: #A80036; stroke-width: 1.5;" x1="873" x2="1001" y1="481.9375" y2="481.9375"/><line style="stroke: #A80036; stroke-width: 1.5;" x1="873" x2="1001" y1="489.9375" y2="489.9375"/><!--MD5=[ce3aceb15685c4a66d1e1b8ea7e2c984]
class ColorCode--><rect codeLine="15" fill="#FEFECE" filter="url(#f1535mixaq0cit)" height="53.9375" id="ColorCode" style="stroke: #A80036; stroke-width: 1.5;" width="130" x="1713" y="899"/><ellipse cx="1728" cy="917.9688" fill="#EB937F" rx="11" ry="11" style="stroke: #A80036; stroke-width: 1.0;"/><path d="M1726.7969,918.8438 L1728.25,918.8438 L1728.25,918.9531 C1728.25,919.3594 1728.2813,919.5156 1728.3594,919.6719 C1728.5156,919.9219 1728.7969,920.0781 1729.0938,920.0781 C1729.3438,920.0781 1729.6094,919.9375 1729.7656,919.7188 C1729.8906,919.5625 1729.9219,919.4063 1729.9219,918.9531 L1729.9219,917.0313 C1729.9219,916.875 1729.9219,916.8281 1729.9063,916.6719 C1729.8438,916.2031 1729.5313,915.8906 1729.0781,915.8906 C1728.8281,915.8906 1728.5625,916.0313 1728.3906,916.25 C1728.2813,916.4219 1728.25,916.5781 1728.25,917.0313 L1728.25,917.1563 L1726.7969,917.1563 L1726.7969,914.75 L1730.7813,914.75 L1730.7813,915.6094 C1730.7813,916.0156 1730.8125,916.1875 1730.8906,916.3438 C1731.0625,916.5938 1731.3438,916.75 1731.625,916.75 C1731.8906,916.75 1732.1563,916.6094 1732.3281,916.3906 C1732.4375,916.2188 1732.4688,916.0781 1732.4688,915.6094 L1732.4688,913.0625 L1724.8438,913.0625 C1724.4063,913.0625 1724.2813,913.0781 1724.125,913.1719 C1723.875,913.3281 1723.7188,913.625 1723.7188,913.9063 C1723.7188,914.1875 1723.8594,914.4375 1724.0781,914.6094 C1724.2344,914.7188 1724.4219,914.75 1724.8438,914.75 L1725.0938,914.75 L1725.0938,921.2656 L1724.8438,921.2656 C1724.4375,921.2656 1724.2813,921.2813 1724.125,921.3906 C1723.875,921.5625 1723.7188,921.8281 1723.7188,922.125 C1723.7188,922.3906 1723.8594,922.6406 1724.0781,922.7969 C1724.2188,922.9219 1724.4531,922.9688 1724.8438,922.9688 L1732.8438,922.9688 L1732.8438,920.3906 C1732.8438,919.9531 1732.8125,919.8125 1732.7344,919.6563 C1732.5625,919.4063 1732.2813,919.25 1732,919.25 C1731.7344,919.25 1731.4688,919.3594 1731.2969,919.6094 C1731.1875,919.7656 1731.1563,919.9063 1731.1563,920.3906 L1731.1563,921.2656 L1726.7969,921.2656 L1726.7969,918.8438 Z "/><text fill="#000000" font-family="sans-serif" font-size="12" lengthAdjust="spacingAndGlyphs" textLength="98" x="1742" y="915.1387">usantatecla.utils.</text><text fill="#000000" font-family="sans-serif" font-size="12" lengthAdjust="spacingAndGlyphs" textLength="64" x="1759" y="929.1074">ColorCode</text><line style="stroke: #A80036; stroke-width: 1.5;" x1="1714" x2="1842" y1="936.9375" y2="936.9375"/><line style="stroke: #A80036; stroke-width: 1.5;" x1="1714" x2="1842" y1="944.9375" y2="944.9375"/><!--MD5=[5cc2afc7699cbb48ec3daa48200efb03]
reverse link View to usantatecla.mastermind.views.console.ConsoleView--><path codeLine="23" d="M1615,95.31 C1615,108.333 1615,122.196 1615,134.982 " fill="none" id="View-backto-usantatecla.mastermind.views.console.ConsoleView" style="stroke: #A80036; stroke-width: 1.0;"/><polygon fill="none" points="1608,95.175,1615,75.175,1622,95.175,1608,95.175" style="stroke: #A80036; stroke-width: 1.0;"/><!--MD5=[62b989f1b7fd9494cd0a5a3595d138cf]
link usantatecla.mastermind.views.console.ConsoleView to usantatecla.mastermind.views.console.StartView--><path codeLine="24" d="M1644.5286,244.7601 C1644.5286,244.7601 1662.28,280.393 1669.67,295.223 " fill="none" id="usantatecla.mastermind.views.console.ConsoleView-usantatecla.mastermind.views.console.StartView" style="stroke: #A80036; stroke-width: 1.0;"/><polygon fill="#A80036" points="1675.5,306.911,1675.0634,297.0718,1673.2688,302.4364,1667.9041,300.6418,1675.5,306.911" style="stroke: #A80036; stroke-width: 1.0;"/><line style="stroke: #A80036; stroke-width: 1.0;" x1="1673.2688" x2="1669.7" y1="302.4364" y2="295.2755"/><polygon fill="#A80036" points="1639.18,234.018,1638.2736,241.1719,1644.5286,244.7601,1645.435,237.6062,1639.18,234.018" style="stroke: #A80036; stroke-width: 1.0;"/><!--MD5=[9e9e09f7b836be77202fb5a7c9dba601]
link usantatecla.mastermind.views.console.ConsoleView to usantatecla.mastermind.views.console.ProposalView--><path codeLine="25" d="M1700.2957,240.5202 C1700.2957,240.5202 1749.92,272.535 1772.12,286.86 " fill="none" id="usantatecla.mastermind.views.console.ConsoleView-usantatecla.mastermind.views.console.ProposalView" style="stroke: #A80036; stroke-width: 1.0;"/><polygon fill="#A80036" points="1783.12,293.949,1777.7307,285.7055,1778.9201,291.2359,1773.3897,292.4253,1783.12,293.949" style="stroke: #A80036; stroke-width: 1.0;"/><line style="stroke: #A80036; stroke-width: 1.0;" x1="1778.9201" x2="1772.19" y1="291.2359" y2="286.9025"/><polygon fill="#A80036" points="1690.21,234.018,1693.0854,240.631,1700.2957,240.5202,1697.4203,233.9072,1690.21,234.018" style="stroke: #A80036; stroke-width: 1.0;"/><!--MD5=[20a2805fbab39aefb16f40efe1c74efb]
link usantatecla.mastermind.views.console.ConsoleView to usantatecla.mastermind.views.console.ResumeView--><path codeLine="26" d="M1582.3266,244.5158 C1582.3266,244.5158 1568.01,270.383 1561.57,282.009 " fill="none" id="usantatecla.mastermind.views.console.ConsoleView-usantatecla.mastermind.views.console.ResumeView" style="stroke: #A80036; stroke-width: 1.0;"/><polygon fill="#A80036" points="1555.08,293.722,1562.9393,287.7864,1557.5022,289.3479,1555.9408,283.9108,1555.08,293.722" style="stroke: #A80036; stroke-width: 1.0;"/><line style="stroke: #A80036; stroke-width: 1.0;" x1="1557.5022" x2="1561.38" y1="289.3479" y2="282.348"/><polygon fill="#A80036" points="1588.14,234.018,1581.734,237.3291,1582.3266,244.5158,1588.7326,241.2047,1588.14,234.018" style="stroke: #A80036; stroke-width: 1.0;"/><!--MD5=[728af189909f61b53ae219602ed1957d]
link usantatecla.mastermind.views.console.ConsoleView to Game--><path codeLine="27" d="M1534.84,200.92 C1313.81,244.762 678.832,379.638 178,574 C168.127,577.831 157.933,582.398 148.062,587.173 " fill="none" id="usantatecla.mastermind.views.console.ConsoleView-to-Game" style="stroke: #A80036; stroke-width: 1.0;"/><polygon fill="#A80036" points="143.552,589.38,153.3942,589.0171,148.0431,587.1823,149.8779,581.8313,143.552,589.38" style="stroke: #A80036; stroke-width: 1.0;"/><!--MD5=[47ff448c33547e6e7517814cd7a391dd]
link usantatecla.mastermind.views.console.ResumeView to Game--><path codeLine="33" d="M1450.8879,341.9665 C1450.8879,341.9665 1136.96,387.674 1077,428 C1038.74,453.727 1058.91,490.919 1019,514 C856.807,607.801 358.386,523.342 178,574 C169.005,576.526 159.873,579.963 151.014,583.85 " fill="none" id="usantatecla.mastermind.views.console.ResumeView-Game" style="stroke: #A80036; stroke-width: 1.0;"/><polygon fill="#A80036" points="139.14,589.386,148.9873,589.2088,143.6718,587.2734,145.6071,581.9579,139.14,589.386" style="stroke: #A80036; stroke-width: 1.0;"/><line style="stroke: #A80036; stroke-width: 1.0;" x1="143.6718" x2="150.9225" y1="587.2734" y2="583.893"/><polygon fill="#A80036" points="1462.79,340.437,1456.3291,337.2344,1450.8879,341.9665,1457.3488,345.1691,1462.79,340.437" style="stroke: #A80036; stroke-width: 1.0;"/><!--MD5=[11a6206d39bd673b590966d1322f3f4d]
link usantatecla.mastermind.views.console.ResumeView to YesNoDialog--><path codeLine="34" d="M1462.85,340.135 C1363.45,352.585 1179.61,380.108 1029,428 C1017.04,431.805 1004.576,436.761 992.833,441.928 " fill="none" id="usantatecla.mastermind.views.console.ResumeView-to-YesNoDialog" style="stroke: #A80036; stroke-width: 1.0; stroke-dasharray: 7.0,7.0;"/><polygon fill="#A80036" points="988.197,443.995,998.0459,443.9844,992.7639,441.9594,994.7889,436.6774,988.197,443.995" style="stroke: #A80036; stroke-width: 1.0;"/><!--MD5=[c71a46e8f7376a5e678f0c6c2a019086]
link usantatecla.mastermind.views.console.ResumeView to MessageView--><path codeLine="35" d="M1462.94,340.153 C1386.48,351.202 1264.1,375.89 1171,428 C1122.72,455.022 1131.46,491.305 1081,514 C786.535,646.448 666.323,481.418 357,574 C346.182,577.238 335.195,581.9 324.804,587.069 " fill="none" id="usantatecla.mastermind.views.console.ResumeView-to-MessageView" style="stroke: #A80036; stroke-width: 1.0; stroke-dasharray: 7.0,7.0;"/><polygon fill="#A80036" points="320.074,589.476,329.9092,588.9571,324.5297,587.2074,326.2795,581.828,320.074,589.476" style="stroke: #A80036; stroke-width: 1.0;"/><!--MD5=[efb2c8b35477900b1e0d0392a24acc4a]
reverse link WithConsoleView to usantatecla.mastermind.views.console.StartView--><path codeLine="40" d="M2378.31,221.437 C2368.84,226.369 2358.87,230.822 2349,234 C2093.91,316.174 2003.99,211.514 1749,294 C1739.41,297.103 1729.68,301.847 1720.86,306.882 " fill="none" id="WithConsoleView-backto-usantatecla.mastermind.views.console.StartView" style="stroke: #A80036; stroke-width: 1.0;"/><polygon fill="none" points="2374.86,215.344,2395.71,211.574,2381.76,227.524,2374.86,215.344" style="stroke: #A80036; stroke-width: 1.0;"/><!--MD5=[f9b343c1fbe3eadc765cf5ced8758968]
link usantatecla.mastermind.views.console.StartView to MessageView--><path codeLine="41" d="M1651.35,355.059 C1642.66,359.91 1633.21,364.586 1624,368 C1492,416.913 1445.68,380.976 1313,428 C1236.54,455.099 1229.9,491.35 1152,514 C811.753,612.933 696.831,473.647 357,574 C346.17,577.198 335.177,581.84 324.784,587.002 " fill="none" id="usantatecla.mastermind.views.console.StartView-to-MessageView" style="stroke: #A80036; stroke-width: 1.0; stroke-dasharray: 7.0,7.0;"/><polygon fill="#A80036" points="320.053,589.407,329.8884,588.8919,324.5096,587.1401,326.2614,581.7614,320.053,589.407" style="stroke: #A80036; stroke-width: 1.0;"/><!--MD5=[80869c372aff1267a2951704c8fbb83c]
link usantatecla.mastermind.views.console.StartView to usantatecla.mastermind.views.console.SecretCombinationView--><path codeLine="42" d="M1664.24,355.098 C1644.14,375.491 1614.39,405.675 1590.43,429.988 " fill="none" id="usantatecla.mastermind.views.console.StartView-to-usantatecla.mastermind.views.console.SecretCombinationView" style="stroke: #A80036; stroke-width: 1.0; stroke-dasharray: 7.0,7.0;"/><polygon fill="#A80036" points="1586.64,433.838,1595.8086,430.2412,1590.1519,430.279,1590.1141,424.6222,1586.64,433.838" style="stroke: #A80036; stroke-width: 1.0;"/><!--MD5=[5e4d68cb2be65de7319b096bcad9bf7b]
reverse link WithConsoleView to usantatecla.mastermind.views.console.ProposalView--><path codeLine="49" d="M2376.5,221.524 C2367.54,226.233 2358.19,230.596 2349,234 C2308.45,249.026 2041.85,295.513 1911.08,317.817 " fill="none" id="WithConsoleView-backto-usantatecla.mastermind.views.console.ProposalView" style="stroke: #A80036; stroke-width: 1.0;"/><polygon fill="none" points="2373.33,215.28,2394.19,211.567,2380.2,227.479,2373.33,215.28" style="stroke: #A80036; stroke-width: 1.0;"/><!--MD5=[4ed3a01c0bedc0f05b4c3e02e3f468aa]
link usantatecla.mastermind.views.console.ProposalView to Game--><path codeLine="50" d="M1755.3662,366.223 C1755.3662,366.223 1750.74,367.546 1749,368 C1549.93,419.944 1489.11,376.215 1290,428 C1190,454.009 1174.77,491.159 1074,514 C684.759,602.223 562.484,466.929 178,574 C168.939,576.523 159.741,579.978 150.824,583.891 " fill="none" id="usantatecla.mastermind.views.console.ProposalView-Game" style="stroke: #A80036; stroke-width: 1.0;"/><polygon fill="#A80036" points="138.877,589.466,148.7242,589.2849,143.4079,587.3516,145.3412,582.0354,138.877,589.466" style="stroke: #A80036; stroke-width: 1.0;"/><line style="stroke: #A80036; stroke-width: 1.0;" x1="143.4079" x2="150.657" y1="587.3516" y2="583.969"/><polygon fill="#A80036" points="1766.83,362.676,1759.9158,360.6282,1755.3662,366.223,1762.2804,368.2708,1766.83,362.676" style="stroke: #A80036; stroke-width: 1.0;"/><!--MD5=[c4efb82cf29beff154a63dbcc31bdb78]
link usantatecla.mastermind.views.console.ProposalView to usantatecla.mastermind.views.console.SecretCombinationView--><path codeLine="51" d="M1755.8769,371.8277 C1755.8769,371.8277 1675.19,410.494 1638.15,428.241 " fill="none" id="usantatecla.mastermind.views.console.ProposalView-usantatecla.mastermind.views.console.SecretCombinationView" style="stroke: #A80036; stroke-width: 1.0;"/><polygon fill="#A80036" points="1626.35,433.895,1636.1949,433.6152,1630.8595,431.7353,1632.7394,426.3999,1626.35,433.895" style="stroke: #A80036; stroke-width: 1.0;"/><line style="stroke: #A80036; stroke-width: 1.0;" x1="1630.8595" x2="1638.075" y1="431.7353" y2="428.277"/><polygon fill="#A80036" points="1766.7,366.645,1759.5609,365.6287,1755.8769,371.8277,1763.016,372.8441,1766.7,366.645" style="stroke: #A80036; stroke-width: 1.0;"/><!--MD5=[3ac6d291c32b414ae68fbcf93e6e99de]
link usantatecla.mastermind.views.console.ProposalView to ProposedCombination--><path codeLine="52" d="M1766.71,362.252 C1760.76,364.331 1754.81,366.279 1749,368 C1617.37,406.993 1566.12,361.533 1446,428 C1400.06,453.422 1412.14,490.883 1365,514 C1116.43,635.886 1011.36,498.557 745,574 C733.133,577.361 720.966,582.104 709.403,587.319 " fill="none" id="usantatecla.mastermind.views.console.ProposalView-to-ProposedCombination" style="stroke: #A80036; stroke-width: 1.0; stroke-dasharray: 7.0,7.0;"/><polygon fill="#A80036" points="704.833,589.419,714.6811,589.2976,709.3767,587.3321,711.3421,582.0277,704.833,589.419" style="stroke: #A80036; stroke-width: 1.0;"/><!--MD5=[216368f847b90342d9affc1f27afb426]
link usantatecla.mastermind.views.console.ProposalView to usantatecla.mastermind.views.console.AttemptsView--><path codeLine="53" d="M1815.09,368.258 C1802.66,387.115 1787.42,410.221 1774.61,429.644 " fill="none" id="usantatecla.mastermind.views.console.ProposalView-to-usantatecla.mastermind.views.console.AttemptsView" style="stroke: #A80036; stroke-width: 1.0; stroke-dasharray: 7.0,7.0;"/><polygon fill="#A80036" points="1771.75,433.984,1780.0458,428.6755,1774.504,429.8108,1773.3687,424.2691,1771.75,433.984" style="stroke: #A80036; stroke-width: 1.0;"/><!--MD5=[019e801d1e3fd3e0fc3f226c1ace6491]
link usantatecla.mastermind.views.console.ProposalView to usantatecla.mastermind.views.console.ResultView--><path codeLine="54" d="M1861.33,368.258 C1872.95,387.115 1887.18,410.221 1899.14,429.644 " fill="none" id="usantatecla.mastermind.views.console.ProposalView-to-usantatecla.mastermind.views.console.ResultView" style="stroke: #A80036; stroke-width: 1.0; stroke-dasharray: 7.0,7.0;"/><polygon fill="#A80036" points="1901.82,433.984,1900.5046,424.2234,1899.1973,429.7271,1893.6936,428.4197,1901.82,433.984" style="stroke: #A80036; stroke-width: 1.0;"/><!--MD5=[7af6c83f995de445f81a1f725c5d2bc8]
link usantatecla.mastermind.views.console.ProposalView to usantatecla.mastermind.views.console.ProposedCombinationView--><path codeLine="55" d="M1911.11,361.266 C1957.46,380.082 2018.56,404.879 2070.69,426.04 " fill="none" id="usantatecla.mastermind.views.console.ProposalView-to-usantatecla.mastermind.views.console.ProposedCombinationView" style="stroke: #A80036; stroke-width: 1.0; stroke-dasharray: 7.0,7.0;"/><polygon fill="#A80036" points="2075.39,427.945,2068.5433,420.8653,2070.754,426.0723,2065.5469,428.2829,2075.39,427.945" style="stroke: #A80036; stroke-width: 1.0;"/><!--MD5=[f295f5f09d02645f000eab404005e8c0]
link usantatecla.mastermind.views.console.ProposalView to MessageView--><path codeLine="56" d="M1766.79,362.524 C1760.82,364.541 1754.84,366.402 1749,368 C1580.69,414.032 1511.45,339.609 1361,428 C1319.22,452.544 1336.83,491.349 1294,514 C1109.55,611.541 557.439,516.048 357,574 C346.152,577.136 335.15,581.748 324.754,586.898 " fill="none" id="usantatecla.mastermind.views.console.ProposalView-to-MessageView" style="stroke: #A80036; stroke-width: 1.0; stroke-dasharray: 7.0,7.0;"/><polygon fill="#A80036" points="320.022,589.299,329.8578,588.7927,324.4806,587.0361,326.2372,581.6589,320.022,589.299" style="stroke: #A80036; stroke-width: 1.0;"/><!--MD5=[6974b1e221a58d0b8785ea0d6203c86a]
reverse link WithConsoleView to usantatecla.mastermind.views.console.ProposedCombinationView--><path codeLine="63" d="M2396.42,226.471 C2348.5,280.149 2264.89,373.798 2216.51,427.987 " fill="none" id="WithConsoleView-backto-usantatecla.mastermind.views.console.ProposedCombinationView" style="stroke: #A80036; stroke-width: 1.0;"/><polygon fill="none" points="2391.24,221.759,2409.79,211.502,2401.69,231.083,2391.24,221.759" style="stroke: #A80036; stroke-width: 1.0;"/><!--MD5=[e409462199b294426953c37a78cc680a]
link usantatecla.mastermind.views.console.ProposedCombinationView to ProposedCombination--><path codeLine="64" d="M2012.7176,513.1316 C2012.7176,513.1316 2008.54,513.778 2007,514 C1451.25,594.304 1288.85,434.25 745,574 C735.225,576.512 725.276,580.047 715.639,584.077 " fill="none" id="usantatecla.mastermind.views.console.ProposedCombinationView-ProposedCombination" style="stroke: #A80036; stroke-width: 1.0;"/><polygon fill="#A80036" points="703.637,589.407,713.4859,589.4104,708.2068,587.3779,710.2393,582.0988,703.637,589.407" style="stroke: #A80036; stroke-width: 1.0;"/><line style="stroke: #A80036; stroke-width: 1.0;" x1="708.2068" x2="715.5185" y1="587.3779" y2="584.1305"/><polygon fill="#A80036" points="2024.56,511.193,2017.9926,508.2148,2012.7176,513.1316,2019.285,516.1097,2024.56,511.193" style="stroke: #A80036; stroke-width: 1.0;"/><!--MD5=[74f4a28ffe48b2ac6ea7a01daa8a2156]
link usantatecla.mastermind.views.console.ProposedCombinationView to usantatecla.mastermind.views.console.ErrorView--><path codeLine="65" d="M2112.95,514.123 C2083.44,532.937 2048.53,555.204 2018.04,574.645 " fill="none" id="usantatecla.mastermind.views.console.ProposedCombinationView-to-usantatecla.mastermind.views.console.ErrorView" style="stroke: #A80036; stroke-width: 1.0; stroke-dasharray: 7.0,7.0;"/><polygon fill="#A80036" points="2013.58,577.492,2023.3197,576.0299,2017.797,574.8055,2019.0213,569.2827,2013.58,577.492" style="stroke: #A80036; stroke-width: 1.0;"/><!--MD5=[44214b583fdef523f9f88d3b7a8d70b5]
link usantatecla.mastermind.views.console.ProposedCombinationView to usantatecla.mastermind.views.console.ColorView--><path codeLine="66" d="M2024.63,513.547 C1947.64,535.527 1868.09,560.661 1855,574 C1814.79,614.989 1800.85,681.054 1796.15,727.608 " fill="none" id="usantatecla.mastermind.views.console.ProposedCombinationView-to-usantatecla.mastermind.views.console.ColorView" style="stroke: #A80036; stroke-width: 1.0; stroke-dasharray: 7.0,7.0;"/><polygon fill="#A80036" points="1795.67,732.617,1800.5067,724.0376,1796.1449,727.6396,1792.5428,723.2778,1795.67,732.617" style="stroke: #A80036; stroke-width: 1.0;"/><!--MD5=[a0933519c1a055e22b8e4f80fd0a030c]
link usantatecla.mastermind.views.console.ProposedCombinationView to Color--><path codeLine="67" d="M2024.55,511.081 C2018.64,512.141 2012.77,513.121 2007,514 C1901.67,530.033 1122.94,496.342 1050,574 C980.399,648.101 1118.34,842.345 1132,856 C1151.89,875.8921 1178.53,890.5693 1204.05,901.1451 " fill="none" id="usantatecla.mastermind.views.console.ProposedCombinationView-to-Color" style="stroke: #A80036; stroke-width: 1.0; stroke-dasharray: 7.0,7.0;"/><polygon fill="#A80036" points="1208.8,903.0725,1201.9718,895.9749,1204.1689,901.1877,1198.9561,903.3847,1208.8,903.0725" style="stroke: #A80036; stroke-width: 1.0;"/><!--MD5=[4ac103d23bb388794cbd982b238c64ed]
link usantatecla.mastermind.views.console.ProposedCombinationView to Error--><path codeLine="68" d="M2024.55,511.068 C2018.64,512.132 2012.77,513.116 2007,514 C1904.53,529.688 1146.9,498.382 1076,574 C1045.9,606.098 1055.92,633.848 1076,673 C1091.87,703.946 1121.13,728.062 1149.69,745.615 " fill="none" id="usantatecla.mastermind.views.console.ProposedCombinationView-to-Error" style="stroke: #A80036; stroke-width: 1.0; stroke-dasharray: 7.0,7.0;"/><polygon fill="#A80036" points="1154.27,748.376,1148.6339,740.2992,1149.99,745.7911,1144.4981,747.1473,1154.27,748.376" style="stroke: #A80036; stroke-width: 1.0;"/><!--MD5=[ca9aa713c5001ec9921e8688523ab136]
link usantatecla.mastermind.views.console.ProposedCombinationView to Combination--><path codeLine="69" d="M2024.96,510.662 C2018.91,511.849 2012.9,512.968 2007,514 C1760.43,557.117 1686.75,502.055 1447,574 C1435.77,577.371 1424.28,582.08 1413.38,587.248 " fill="none" id="usantatecla.mastermind.views.console.ProposedCombinationView-to-Combination" style="stroke: #A80036; stroke-width: 1.0; stroke-dasharray: 7.0,7.0;"/><polygon fill="#A80036" points="1408.75,589.489,1418.5941,589.1814,1413.2534,587.3166,1415.1182,581.976,1408.75,589.489" style="stroke: #A80036; stroke-width: 1.0;"/><!--MD5=[978bbd9587e3a9cd1d06b8b89656802d]
link usantatecla.mastermind.views.console.ProposedCombinationView to MessageView--><path codeLine="70" d="M2024.58,511.276 C2018.66,512.282 2012.78,513.197 2007,514 C1643.58,564.445 710.845,476.965 357,574 C345.863,577.054 334.588,581.729 323.976,586.994 " fill="none" id="usantatecla.mastermind.views.console.ProposedCombinationView-to-MessageView" style="stroke: #A80036; stroke-width: 1.0; stroke-dasharray: 7.0,7.0;"/><polygon fill="#A80036" points="319.472,589.284,329.3075,588.7714,323.9292,587.0183,325.6823,581.6399,319.472,589.284" style="stroke: #A80036; stroke-width: 1.0;"/><!--MD5=[99ec5c7286ee3a7fd358aca32c2523c0]
reverse link WithConsoleView to usantatecla.mastermind.views.console.SecretCombinationView--><path codeLine="76" d="M2375.41,221.478 C2366.75,226.082 2357.77,230.427 2349,234 C2249.17,274.663 2216.51,260.674 2114,294 C2029.39,321.506 2013.05,341.888 1928,368 C1809.66,404.333 1774.31,391.557 1656,428 C1650.09,429.821 1644.04,431.829 1637.99,433.952 " fill="none" id="WithConsoleView-backto-usantatecla.mastermind.views.console.SecretCombinationView" style="stroke: #A80036; stroke-width: 1.0;"/><polygon fill="none" points="2372.26,215.216,2393.12,211.508,2379.13,227.417,2372.26,215.216" style="stroke: #A80036; stroke-width: 1.0;"/><!--MD5=[b39850bc25b214859b2028d226a19296]
link usantatecla.mastermind.views.console.SecretCombinationView to SecretCombination--><path codeLine="77" d="M1463.04,494.686 C1432.22,501.881 1397.25,509.204 1365,514 C1003.993,567.677 897.288,474.987 546,574 C534.555,577.226 522.887,581.922 511.839,587.14 " fill="none" id="usantatecla.mastermind.views.console.SecretCombinationView-to-SecretCombination" style="stroke: #A80036; stroke-width: 1.0; stroke-dasharray: 7.0,7.0;"/><polygon fill="#A80036" points="507.145,589.405,516.989,589.0961,511.6481,587.232,513.5122,581.8911,507.145,589.405" style="stroke: #A80036; stroke-width: 1.0;"/><!--MD5=[16e21f3518efc418f375bb96d70ac262]
link usantatecla.mastermind.views.console.SecretCombinationView to MessageView--><path codeLine="78" d="M1463.08,494.936 C1432.26,502.153 1397.29,509.425 1365,514 C920.646,576.967 788.414,450.317 357,574 C346.145,577.112 335.14,581.711 324.742,586.857 " fill="none" id="usantatecla.mastermind.views.console.SecretCombinationView-to-MessageView" style="stroke: #A80036; stroke-width: 1.0; stroke-dasharray: 7.0,7.0;"/><polygon fill="#A80036" points="320.01,589.256,329.846,588.7535,324.4695,586.9948,326.2282,581.6183,320.01,589.256" style="stroke: #A80036; stroke-width: 1.0;"/><!--MD5=[d0f8ea65883179283301213740c26771]
reverse link WithConsoleView to usantatecla.mastermind.views.console.ResultView--><path codeLine="84" d="M2370.68,222.377 C2338.69,242.248 2299.69,267.981 2267,294 C2229.86,323.557 2230.68,343.549 2190,368 C2116.64,412.093 2086.08,395.25 2007,428 C2001.48,430.286 1995.82,432.789 1990.18,435.398 " fill="none" id="WithConsoleView-backto-usantatecla.mastermind.views.console.ResultView" style="stroke: #A80036; stroke-width: 1.0;"/><polygon fill="none" points="2367.4,216.172,2388.11,211.687,2374.72,228.108,2367.4,216.172" style="stroke: #A80036; stroke-width: 1.0;"/><!--MD5=[5dcdd9aacd642e274017f9e4c83e7de4]
link usantatecla.mastermind.views.console.ResultView to Result--><path codeLine="85" d="M1846.2157,512.119 C1846.2157,512.119 1841.73,513.53 1840,514 C1454.84,618.63 1330.55,474.634 944,574 C933.849,576.609 923.478,580.195 913.406,584.244 " fill="none" id="usantatecla.mastermind.views.console.ResultView-Result" style="stroke: #A80036; stroke-width: 1.0;"/><polygon fill="#A80036" points="901.304,589.38,911.1515,589.5463,905.9067,587.4267,908.0262,582.182,901.304,589.38" style="stroke: #A80036; stroke-width: 1.0;"/><line style="stroke: #A80036; stroke-width: 1.0;" x1="905.9067" x2="913.2705" y1="587.4267" y2="584.3015"/><polygon fill="#A80036" points="1857.54,508.149,1850.5545,506.3592,1846.2157,512.119,1853.2012,513.9087,1857.54,508.149" style="stroke: #A80036; stroke-width: 1.0;"/><!--MD5=[83f1a06ef82928074da35129bdb9dd5b]
link usantatecla.mastermind.views.console.ResultView to MessageView--><path codeLine="86" d="M1858.06,508.137 C1852.07,510.443 1846,512.455 1840,514 C1520.6,596.252 674.903,486.122 357,574 C345.87,577.077 334.597,581.763 323.987,587.032 " fill="none" id="usantatecla.mastermind.views.console.ResultView-to-MessageView" style="stroke: #A80036; stroke-width: 1.0; stroke-dasharray: 7.0,7.0;"/><polygon fill="#A80036" points="319.483,589.323,329.3184,588.8079,323.9396,587.0561,325.6914,581.6774,319.483,589.323" style="stroke: #A80036; stroke-width: 1.0;"/><!--MD5=[1d236c431a3eb9e04547c66233dc5b9e]
reverse link WithConsoleView to usantatecla.mastermind.views.console.AttemptsView--><path codeLine="92" d="M2373.31,221.614 C2365.25,226.002 2357,230.251 2349,234 C2279.1,266.753 2250.14,251.04 2186,294 C2148.89,318.857 2156.76,345.803 2118,368 C2008.31,430.817 1959.97,388.189 1840,428 C1834.25,429.908 1828.38,432.064 1822.53,434.368 " fill="none" id="WithConsoleView-backto-usantatecla.mastermind.views.console.AttemptsView" style="stroke: #A80036; stroke-width: 1.0;"/><polygon fill="none" points="2370.16,215.353,2391.02,211.618,2377.04,227.545,2370.16,215.353" style="stroke: #A80036; stroke-width: 1.0;"/><!--MD5=[3ca5cfec62f53a65f95f8cad3332d93e]
link usantatecla.mastermind.views.console.AttemptsView to Game--><path codeLine="93" d="M1664.428,511.7154 C1664.428,511.7154 1658.47,513.411 1656,514 C1016.55,666.706 813.594,405.971 178,574 C168.68,576.464 159.23,579.957 150.094,583.953 " fill="none" id="usantatecla.mastermind.views.console.AttemptsView-Game" style="stroke: #A80036; stroke-width: 1.0;"/><polygon fill="#A80036" points="138.304,589.452,148.1512,589.2733,142.8355,587.3387,144.77,582.023,138.304,589.452" style="stroke: #A80036; stroke-width: 1.0;"/><line style="stroke: #A80036; stroke-width: 1.0;" x1="142.8355" x2="150.085" y1="587.3387" y2="583.9575"/><polygon fill="#A80036" points="1675.85,508.036,1668.9125,506.0684,1664.428,511.7154,1671.3655,513.683,1675.85,508.036" style="stroke: #A80036; stroke-width: 1.0;"/><!--MD5=[4e2709992aeba74cd8a18434f41dce90]
reverse link ColorView to usantatecla.mastermind.views.console.ColorView--><path codeLine="101" d="M1240.69,666.405 C1246.13,668.816 1251.6,671.049 1257,673 C1413.54,729.577 1607,759.505 1713.75,772.779 " fill="none" id="ColorView-backto-usantatecla.mastermind.views.console.ColorView" style="stroke: #A80036; stroke-width: 1.0;"/><polygon fill="none" points="1237.48,672.627,1222.47,657.665,1243.53,660.005,1237.48,672.627" style="stroke: #A80036; stroke-width: 1.0;"/><!--MD5=[2aef66e15b01ad184c4ce0d2e2e7310c]
link usantatecla.mastermind.views.console.ColorView to ColorCode--><path codeLine="102" d="M1788.49,832.196 C1786.2,852.482 1783.6,875.455 1781.57,893.4692 " fill="none" id="usantatecla.mastermind.views.console.ColorView-to-ColorCode" style="stroke: #A80036; stroke-width: 1.0; stroke-dasharray: 7.0,7.0;"/><polygon fill="#A80036" points="1780.95,898.8921,1785.9384,890.4,1781.5133,893.9239,1777.9893,889.4988,1780.95,898.8921" style="stroke: #A80036; stroke-width: 1.0;"/><!--MD5=[a37bf943a63f3006ec72e7a59689964d]
link usantatecla.mastermind.views.console.ColorView to Console--><path codeLine="103" d="M1845.28,832.196 C1867.37,853.181 1892.5,877.0426 1911.74,895.3147 " fill="none" id="usantatecla.mastermind.views.console.ColorView-to-Console" style="stroke: #A80036; stroke-width: 1.0; stroke-dasharray: 7.0,7.0;"/><polygon fill="#A80036" points="1915.51,898.8921,1911.7379,889.7942,1911.8842,895.4492,1906.2293,895.5955,1915.51,898.8921" style="stroke: #A80036; stroke-width: 1.0;"/><!--MD5=[69dc8072829cbbfdbc9d9a2751321cd9]
link usantatecla.mastermind.views.console.ColorView to Color--><path codeLine="104" d="M1713.79,805.843 C1619.43,832.124 1463.62,875.5253 1368.35,902.0617 " fill="none" id="usantatecla.mastermind.views.console.ColorView-to-Color" style="stroke: #A80036; stroke-width: 1.0; stroke-dasharray: 7.0,7.0;"/><polygon fill="#A80036" points="1363.3,903.4697,1373.0436,904.9058,1368.1163,902.127,1370.8952,897.1997,1363.3,903.4697" style="stroke: #A80036; stroke-width: 1.0;"/><!--MD5=[21f4368561ef8ab68eb0033a214ce281]
reverse link ErrorView to usantatecla.mastermind.views.console.ErrorView--><path codeLine="112" d="M2353.25,512.444 C2351.83,512.975 2350.41,513.494 2349,514 C2233.98,555.296 2095.66,589.002 2013.78,607.371 " fill="none" id="ErrorView-backto-usantatecla.mastermind.views.console.ErrorView" style="stroke: #A80036; stroke-width: 1.0;"/><polygon fill="none" points="2350.77,505.9,2371.94,505.016,2355.94,518.909,2350.77,505.9" style="stroke: #A80036; stroke-width: 1.0;"/><!--MD5=[7451bd3d087460174f80dc13e9004d7a]
link usantatecla.mastermind.views.console.ErrorView to Error--><path codeLine="113" d="M1872.35,639.916 C1776.14,660.919 1598.53,699.724 1447,733 C1401.39,743.016 1350.47,754.239 1309.11,763.365 " fill="none" id="usantatecla.mastermind.views.console.ErrorView-to-Error" style="stroke: #A80036; stroke-width: 1.0; stroke-dasharray: 7.0,7.0;"/><polygon fill="#A80036" points="1304.12,764.467,1313.7738,766.4176,1309.0007,763.3814,1312.0369,758.6084,1304.12,764.467" style="stroke: #A80036; stroke-width: 1.0;"/><!--MD5=[b6f3fff8c22bf6afa8b0a8da791006e0]
link usantatecla.mastermind.views.console.ErrorView to Console--><path codeLine="114" d="M1943,673.114 C1943,735.264 1943,841.091 1943,893.5708 " fill="none" id="usantatecla.mastermind.views.console.ErrorView-to-Console" style="stroke: #A80036; stroke-width: 1.0; stroke-dasharray: 7.0,7.0;"/><polygon fill="#A80036" points="1943,898.7851,1947,889.7851,1943,893.7851,1939,889.7851,1943,898.7851" style="stroke: #A80036; stroke-width: 1.0;"/><!--MD5=[0144a89e07469074881e23a062c69e12]
link usantatecla.mastermind.views.console.ErrorView to usantatecla.mastermind.views.console.ColorView--><path codeLine="115" d="M1896.67,673.315 C1879.91,690.973 1860.93,710.981 1843.88,728.946 " fill="none" id="usantatecla.mastermind.views.console.ErrorView-to-usantatecla.mastermind.views.console.ColorView" style="stroke: #A80036; stroke-width: 1.0; stroke-dasharray: 7.0,7.0;"/><polygon fill="#A80036" points="1840.04,732.985,1849.1438,729.2273,1843.4886,729.3647,1843.3513,723.7095,1840.04,732.985" style="stroke: #A80036; stroke-width: 1.0;"/><!--MD5=[40a20e30d87ec6ce7d8c405364695a46]
@startuml
class Game as "usantatecla.\nmastermind.models.\nGame"
class Error as "usantatecla.\nmastermind.models.\nError"
class Result as "usantatecla.\nmastermind.models.\nResult"
enum Color as "usantatecla.\nmastermind.models.\nColor"
abstract class Combination as "usantatecla.\nmastermind.models.\nCombination"
class ProposedCombination as "usantatecla.\nmastermind.models.\nProposedCombination"
class SecretCombination as "usantatecla.\nmastermind.models.\nSecretCombination"
abstract class View as "usantatecla.\nmastermind.views.\nView"
abstract class ColorView as "usantatecla.\nmastermind.views.\nColorView"
abstract class ErrorView as "usantatecla.\nmastermind.views.\nErrorView"
enum MessageView as "usantatecla.\nmastermind.views.\nMessageView"
abstract class WithConsoleView as "usantatecla.utils.\nWithConsoleView"
class Console as "usantatecla.utils.\nConsole"
class YesNoDialog as "usantatecla.utils.\nYesNoDialog"
enum ColorCode as "usantatecla.utils.\nColorCode"

class usantatecla.mastermind.views.console.ConsoleView {
    + ConsoleView(Game)
    # start()
    # propose() : boolean
    # isNewGame() : boolean
}
usantatecla.mastermind.views.console.ConsoleView -up-|> View
usantatecla.mastermind.views.console.ConsoleView *-down-> usantatecla.mastermind.views.console.StartView
usantatecla.mastermind.views.console.ConsoleView *-down-> usantatecla.mastermind.views.console.ProposalView
usantatecla.mastermind.views.console.ConsoleView *-down-> usantatecla.mastermind.views.console.ResumeView
usantatecla.mastermind.views.console.ConsoleView - -> Game

class usantatecla.mastermind.views.console.ResumeView {
    ~ ResumeView(Game)
    ~ interact() : boolean
}
usantatecla.mastermind.views.console.ResumeView *-down-> Game
usantatecla.mastermind.views.console.ResumeView ..> YesNoDialog
usantatecla.mastermind.views.console.ResumeView ..> MessageView

class usantatecla.mastermind.views.console.StartView {
    
}
usantatecla.mastermind.views.console.StartView -up-|> WithConsoleView
usantatecla.mastermind.views.console.StartView ..> MessageView
usantatecla.mastermind.views.console.StartView ..> usantatecla.mastermind.views.console.SecretCombinationView

class usantatecla.mastermind.views.console.ProposalView {
    ~ ProposalView(Game)
    ~ interact() : boolean

}
usantatecla.mastermind.views.console.ProposalView -up-|> WithConsoleView
usantatecla.mastermind.views.console.ProposalView *-down-> Game
usantatecla.mastermind.views.console.ProposalView *-down-> usantatecla.mastermind.views.console.SecretCombinationView
usantatecla.mastermind.views.console.ProposalView ..> ProposedCombination
usantatecla.mastermind.views.console.ProposalView ..> usantatecla.mastermind.views.console.AttemptsView
usantatecla.mastermind.views.console.ProposalView ..> usantatecla.mastermind.views.console.ResultView
usantatecla.mastermind.views.console.ProposalView ..> usantatecla.mastermind.views.console.ProposedCombinationView
usantatecla.mastermind.views.console.ProposalView ..> MessageView

class usantatecla.mastermind.views.console.ProposedCombinationView {
    ~ ProposedCombinationView(ProposedCombination)
    ~ write()
    ~ read()
}
usantatecla.mastermind.views.console.ProposedCombinationView -up-|> WithConsoleView
usantatecla.mastermind.views.console.ProposedCombinationView *-down-> ProposedCombination
usantatecla.mastermind.views.console.ProposedCombinationView ..> usantatecla.mastermind.views.console.ErrorView
usantatecla.mastermind.views.console.ProposedCombinationView ..> usantatecla.mastermind.views.console.ColorView
usantatecla.mastermind.views.console.ProposedCombinationView ..> Color
usantatecla.mastermind.views.console.ProposedCombinationView ..> Error
usantatecla.mastermind.views.console.ProposedCombinationView ..> Combination
usantatecla.mastermind.views.console.ProposedCombinationView ..> MessageView

class usantatecla.mastermind.views.console.SecretCombinationView {
    ~ SecretCombinationView()
    ~ writeln()
}
usantatecla.mastermind.views.console.SecretCombinationView -up-|> WithConsoleView
usantatecla.mastermind.views.console.SecretCombinationView ..> SecretCombination
usantatecla.mastermind.views.console.SecretCombinationView ..> MessageView

class usantatecla.mastermind.views.console.ResultView {
    ~ ResultView(Result)
    ~ writeln()
}
usantatecla.mastermind.views.console.ResultView -up-|> WithConsoleView
usantatecla.mastermind.views.console.ResultView *-down-> Result
usantatecla.mastermind.views.console.ResultView ..> MessageView

class usantatecla.mastermind.views.console.AttemptsView {
    ~ AttemptsView(Game)
    ~ writeln()
}
usantatecla.mastermind.views.console.AttemptsView -up-|> WithConsoleView
usantatecla.mastermind.views.console.AttemptsView *-down-> Game

class usantatecla.mastermind.views.console.ColorView {
    ~ ColorView()
    ~ ColorView(Color)
    # resultInitials(int) : String
    ~ write()
}
usantatecla.mastermind.views.console.ColorView -up-|> ColorView
usantatecla.mastermind.views.console.ColorView ..> ColorCode
usantatecla.mastermind.views.console.ColorView ..> Console
usantatecla.mastermind.views.console.ColorView ..> Color

class usantatecla.mastermind.views.console.ErrorView {
    ~ ErrorView()
    ~ ErrorView(Error)
    ~ writeln()
    # colorInitials() : String
}
usantatecla.mastermind.views.console.ErrorView -up-|> ErrorView
usantatecla.mastermind.views.console.ErrorView ..> Error
usantatecla.mastermind.views.console.ErrorView ..> Console
usantatecla.mastermind.views.console.ErrorView ..> usantatecla.mastermind.views.console.ColorView
@enduml

PlantUML version 1.2020.20beta7(Unknown compile time)
(GPL source distribution)
Java Runtime: Java(TM) SE Runtime Environment
JVM: Java HotSpot(TM) 64-Bit Server VM
Default Encoding: UTF-8
Language: en
Country: US
--></g></svg>