<?xml version="1.0" encoding="UTF-8" standalone="no"?><svg xmlns="http://www.w3.org/2000/svg" xmlns:xlink="http://www.w3.org/1999/xlink" contentScriptType="application/ecmascript" contentStyleType="text/css" height="294px" preserveAspectRatio="none" style="width:622px;height:294px;" version="1.1" viewBox="0 0 622 294" width="622px" zoomAndPan="magnify"><defs><filter height="300%" id="fypgc7ygkhefs" width="300%" x="-1" y="-1"><feGaussianBlur result="blurOut" stdDeviation="2.0"/><feColorMatrix in="blurOut" result="blurOut2" type="matrix" values="0 0 0 0 0 0 0 0 0 0 0 0 0 0 0 0 0 0 .4 0"/><feOffset dx="4.0" dy="4.0" in="blurOut2" result="blurOut3"/><feBlend in="SourceGraphic" in2="blurOut3" mode="normal"/></filter></defs><g><!--MD5=[9be0839337cfdab5d118a2e29cf0a8c4]
cluster usantatecla.mastermind--><polygon fill="#FFFFFF" filter="url(#fypgc7ygkhefs)" points="92.5,6,299.5,6,306.5,28.2969,524.5,28.2969,524.5,169,92.5,169,92.5,6" style="stroke: #000000; stroke-width: 1.5;"/><line style="stroke: #000000; stroke-width: 1.5;" x1="92.5" x2="306.5" y1="28.2969" y2="28.2969"/><text fill="#000000" font-family="sans-serif" font-size="14" font-weight="bold" lengthAdjust="spacingAndGlyphs" textLength="201" x="96.5" y="20.9951">usantatecla.mastermind</text><!--MD5=[315b8ca9da34f9ebf61c511bec4164b0]
class usantatecla.mastermind.ConsoleMastermind--><rect codeLine="1" fill="#FEFECE" filter="url(#fypgc7ygkhefs)" height="112.0234" id="usantatecla.mastermind.ConsoleMastermind" style="stroke: #A80036; stroke-width: 1.5;" width="179" x="109" y="41"/><ellipse cx="136.6" cy="57" fill="#ADD1B2" rx="11" ry="11" style="stroke: #A80036; stroke-width: 1.0;"/><path d="M138.9438,52.6719 C138.0063,52.2344 137.4125,52.0938 136.5375,52.0938 C133.9125,52.0938 131.9125,54.1719 131.9125,56.8906 L131.9125,58.0156 C131.9125,60.5938 134.0219,62.4844 136.9125,62.4844 C138.1313,62.4844 139.2875,62.1875 140.0375,61.6406 C140.6156,61.2344 140.9438,60.7813 140.9438,60.3906 C140.9438,59.9375 140.5531,59.5469 140.0844,59.5469 C139.8656,59.5469 139.6625,59.625 139.475,59.8125 C139.0219,60.2969 139.0219,60.2969 138.8344,60.3906 C138.4125,60.6563 137.725,60.7813 136.9594,60.7813 C134.9125,60.7813 133.6156,59.6875 133.6156,57.9844 L133.6156,56.8906 C133.6156,55.1094 134.8656,53.7969 136.6,53.7969 C137.1781,53.7969 137.7875,53.9531 138.2563,54.2031 C138.7406,54.4844 138.9125,54.7031 139.0063,55.1094 C139.0688,55.5156 139.1,55.6406 139.2406,55.7656 C139.3813,55.9063 139.6156,56.0156 139.8344,56.0156 C140.1,56.0156 140.3656,55.875 140.5375,55.6563 C140.6469,55.5 140.6781,55.3125 140.6781,54.8906 L140.6781,53.4688 C140.6781,53.0313 140.6625,52.9063 140.5688,52.75 C140.4125,52.4844 140.1313,52.3438 139.8344,52.3438 C139.5375,52.3438 139.3344,52.4375 139.1156,52.75 L138.9438,52.6719 Z "/><text fill="#000000" font-family="sans-serif" font-size="12" lengthAdjust="spacingAndGlyphs" textLength="119" x="153.4" y="61.1543">ConsoleMastermind</text><line style="stroke: #A80036; stroke-width: 1.5;" x1="110" x2="287" y1="73" y2="73"/><rect fill="none" height="6" style="stroke: #C82930; stroke-width: 1.0;" width="6" x="117" y="81"/><text fill="#000000" font-family="sans-serif" font-size="11" lengthAdjust="spacingAndGlyphs" textLength="75" x="129" y="87.2104">game: Game</text><rect fill="none" height="6" style="stroke: #C82930; stroke-width: 1.0;" width="6" x="117" y="93.8047"/><text fill="#000000" font-family="sans-serif" font-size="11" lengthAdjust="spacingAndGlyphs" textLength="153" x="129" y="100.0151">consoleView: ConsoleView</text><line style="stroke: #A80036; stroke-width: 1.5;" x1="110" x2="287" y1="106.6094" y2="106.6094"/><rect fill="#F24D5C" height="6" style="stroke: #C82930; stroke-width: 1.0;" width="6" x="117" y="114.6094"/><text fill="#000000" font-family="sans-serif" font-size="11" lengthAdjust="spacingAndGlyphs" textLength="120" x="129" y="120.8198">ConsoleMastermind()</text><ellipse cx="120" cy="130.4141" fill="#84BE84" rx="3" ry="3" style="stroke: #038048; stroke-width: 1.0;"/><text fill="#000000" font-family="sans-serif" font-size="11" lengthAdjust="spacingAndGlyphs" text-decoration="underline" textLength="108" x="129" y="133.6245">main(String[]): void</text><rect fill="#F24D5C" height="6" style="stroke: #C82930; stroke-width: 1.0;" width="6" x="117" y="140.2188"/><text fill="#000000" font-family="sans-serif" font-size="11" lengthAdjust="spacingAndGlyphs" textLength="63" x="129" y="146.4292">play(): void</text><!--MD5=[e3ccb0142e457ddb33bd230b9167ec6f]
class usantatecla.mastermind.GraphicsMastermind--><rect codeLine="9" fill="#FEFECE" filter="url(#fypgc7ygkhefs)" height="112.0234" id="usantatecla.mastermind.GraphicsMastermind" style="stroke: #A80036; stroke-width: 1.5;" width="185" x="323" y="41"/><ellipse cx="351.5" cy="57" fill="#ADD1B2" rx="11" ry="11" style="stroke: #A80036; stroke-width: 1.0;"/><path d="M353.8438,52.6719 C352.9063,52.2344 352.3125,52.0938 351.4375,52.0938 C348.8125,52.0938 346.8125,54.1719 346.8125,56.8906 L346.8125,58.0156 C346.8125,60.5938 348.9219,62.4844 351.8125,62.4844 C353.0313,62.4844 354.1875,62.1875 354.9375,61.6406 C355.5156,61.2344 355.8438,60.7813 355.8438,60.3906 C355.8438,59.9375 355.4531,59.5469 354.9844,59.5469 C354.7656,59.5469 354.5625,59.625 354.375,59.8125 C353.9219,60.2969 353.9219,60.2969 353.7344,60.3906 C353.3125,60.6563 352.625,60.7813 351.8594,60.7813 C349.8125,60.7813 348.5156,59.6875 348.5156,57.9844 L348.5156,56.8906 C348.5156,55.1094 349.7656,53.7969 351.5,53.7969 C352.0781,53.7969 352.6875,53.9531 353.1563,54.2031 C353.6406,54.4844 353.8125,54.7031 353.9063,55.1094 C353.9688,55.5156 354,55.6406 354.1406,55.7656 C354.2813,55.9063 354.5156,56.0156 354.7344,56.0156 C355,56.0156 355.2656,55.875 355.4375,55.6563 C355.5469,55.5 355.5781,55.3125 355.5781,54.8906 L355.5781,53.4688 C355.5781,53.0313 355.5625,52.9063 355.4688,52.75 C355.3125,52.4844 355.0313,52.3438 354.7344,52.3438 C354.4375,52.3438 354.2344,52.4375 354.0156,52.75 L353.8438,52.6719 Z "/><text fill="#000000" font-family="sans-serif" font-size="12" lengthAdjust="spacingAndGlyphs" textLength="123" x="368.5" y="61.1543">GraphicsMastermind</text><line style="stroke: #A80036; stroke-width: 1.5;" x1="324" x2="507" y1="73" y2="73"/><rect fill="none" height="6" style="stroke: #C82930; stroke-width: 1.0;" width="6" x="331" y="81"/><text fill="#000000" font-family="sans-serif" font-size="11" lengthAdjust="spacingAndGlyphs" textLength="75" x="343" y="87.2104">game: Game</text><rect fill="none" height="6" style="stroke: #C82930; stroke-width: 1.0;" width="6" x="331" y="93.8047"/><text fill="#000000" font-family="sans-serif" font-size="11" lengthAdjust="spacingAndGlyphs" textLength="159" x="343" y="100.0151">graphicsView: GraphicsView</text><line style="stroke: #A80036; stroke-width: 1.5;" x1="324" x2="507" y1="106.6094" y2="106.6094"/><rect fill="#F24D5C" height="6" style="stroke: #C82930; stroke-width: 1.0;" width="6" x="331" y="114.6094"/><text fill="#000000" font-family="sans-serif" font-size="11" lengthAdjust="spacingAndGlyphs" textLength="123" x="343" y="120.8198">GraphicsMastermind()</text><ellipse cx="334" cy="130.4141" fill="#84BE84" rx="3" ry="3" style="stroke: #038048; stroke-width: 1.0;"/><text fill="#000000" font-family="sans-serif" font-size="11" lengthAdjust="spacingAndGlyphs" text-decoration="underline" textLength="108" x="343" y="133.6245">main(String[]): void</text><rect fill="#F24D5C" height="6" style="stroke: #C82930; stroke-width: 1.0;" width="6" x="331" y="140.2188"/><text fill="#000000" font-family="sans-serif" font-size="11" lengthAdjust="spacingAndGlyphs" textLength="63" x="343" y="146.4292">play(): void</text><!--MD5=[51d729737bd84a4c43136dd336c2eea1]
class ConsoleView--><rect codeLine="17" fill="#FEFECE" filter="url(#fypgc7ygkhefs)" height="67.9063" id="ConsoleView" style="stroke: #A80036; stroke-width: 1.5;" width="177" x="7" y="213"/><ellipse cx="22" cy="238.9531" fill="#ADD1B2" rx="11" ry="11" style="stroke: #A80036; stroke-width: 1.0;"/><path d="M24.3438,234.625 C23.4063,234.1875 22.8125,234.0469 21.9375,234.0469 C19.3125,234.0469 17.3125,236.125 17.3125,238.8438 L17.3125,239.9688 C17.3125,242.5469 19.4219,244.4375 22.3125,244.4375 C23.5313,244.4375 24.6875,244.1406 25.4375,243.5938 C26.0156,243.1875 26.3438,242.7344 26.3438,242.3438 C26.3438,241.8906 25.9531,241.5 25.4844,241.5 C25.2656,241.5 25.0625,241.5781 24.875,241.7656 C24.4219,242.25 24.4219,242.25 24.2344,242.3438 C23.8125,242.6094 23.125,242.7344 22.3594,242.7344 C20.3125,242.7344 19.0156,241.6406 19.0156,239.9375 L19.0156,238.8438 C19.0156,237.0625 20.2656,235.75 22,235.75 C22.5781,235.75 23.1875,235.9063 23.6563,236.1563 C24.1406,236.4375 24.3125,236.6563 24.4063,237.0625 C24.4688,237.4688 24.5,237.5938 24.6406,237.7188 C24.7813,237.8594 25.0156,237.9688 25.2344,237.9688 C25.5,237.9688 25.7656,237.8281 25.9375,237.6094 C26.0469,237.4531 26.0781,237.2656 26.0781,236.8438 L26.0781,235.4219 C26.0781,234.9844 26.0625,234.8594 25.9688,234.7031 C25.8125,234.4375 25.5313,234.2969 25.2344,234.2969 C24.9375,234.2969 24.7344,234.3906 24.5156,234.7031 L24.3438,234.625 Z "/><text fill="#000000" font-family="sans-serif" font-size="12" lengthAdjust="spacingAndGlyphs" textLength="145" x="36" y="229.1387">usantatecla.mastermind.</text><text fill="#000000" font-family="sans-serif" font-size="12" lengthAdjust="spacingAndGlyphs" textLength="89" x="64" y="243.1074">views.console.</text><text fill="#000000" font-family="sans-serif" font-size="12" lengthAdjust="spacingAndGlyphs" textLength="78" x="69.5" y="257.0762">ConsoleView</text><line style="stroke: #A80036; stroke-width: 1.5;" x1="8" x2="183" y1="264.9063" y2="264.9063"/><line style="stroke: #A80036; stroke-width: 1.5;" x1="8" x2="183" y1="272.9063" y2="272.9063"/><!--MD5=[10250df365dc999637be629d910c1f35]
class GraphicsView--><rect codeLine="18" fill="#FEFECE" filter="url(#fypgc7ygkhefs)" height="67.9063" id="GraphicsView" style="stroke: #A80036; stroke-width: 1.5;" width="177" x="431" y="213"/><ellipse cx="446" cy="238.9531" fill="#ADD1B2" rx="11" ry="11" style="stroke: #A80036; stroke-width: 1.0;"/><path d="M448.3438,234.625 C447.4063,234.1875 446.8125,234.0469 445.9375,234.0469 C443.3125,234.0469 441.3125,236.125 441.3125,238.8438 L441.3125,239.9688 C441.3125,242.5469 443.4219,244.4375 446.3125,244.4375 C447.5313,244.4375 448.6875,244.1406 449.4375,243.5938 C450.0156,243.1875 450.3438,242.7344 450.3438,242.3438 C450.3438,241.8906 449.9531,241.5 449.4844,241.5 C449.2656,241.5 449.0625,241.5781 448.875,241.7656 C448.4219,242.25 448.4219,242.25 448.2344,242.3438 C447.8125,242.6094 447.125,242.7344 446.3594,242.7344 C444.3125,242.7344 443.0156,241.6406 443.0156,239.9375 L443.0156,238.8438 C443.0156,237.0625 444.2656,235.75 446,235.75 C446.5781,235.75 447.1875,235.9063 447.6563,236.1563 C448.1406,236.4375 448.3125,236.6563 448.4063,237.0625 C448.4688,237.4688 448.5,237.5938 448.6406,237.7188 C448.7813,237.8594 449.0156,237.9688 449.2344,237.9688 C449.5,237.9688 449.7656,237.8281 449.9375,237.6094 C450.0469,237.4531 450.0781,237.2656 450.0781,236.8438 L450.0781,235.4219 C450.0781,234.9844 450.0625,234.8594 449.9688,234.7031 C449.8125,234.4375 449.5313,234.2969 449.2344,234.2969 C448.9375,234.2969 448.7344,234.3906 448.5156,234.7031 L448.3438,234.625 Z "/><text fill="#000000" font-family="sans-serif" font-size="12" lengthAdjust="spacingAndGlyphs" textLength="145" x="460" y="229.1387">usantatecla.mastermind.</text><text fill="#000000" font-family="sans-serif" font-size="12" lengthAdjust="spacingAndGlyphs" textLength="93" x="486" y="243.1074">views.graphics.</text><text fill="#000000" font-family="sans-serif" font-size="12" lengthAdjust="spacingAndGlyphs" textLength="82" x="491.5" y="257.0762">GraphicsView</text><line style="stroke: #A80036; stroke-width: 1.5;" x1="432" x2="607" y1="264.9063" y2="264.9063"/><line style="stroke: #A80036; stroke-width: 1.5;" x1="432" x2="607" y1="272.9063" y2="272.9063"/><!--MD5=[b6dcce5e5ef3c84b0b048d11301373dd]
class Game--><rect codeLine="19" fill="#FEFECE" filter="url(#fypgc7ygkhefs)" height="67.9063" id="Game" style="stroke: #A80036; stroke-width: 1.5;" width="177" x="219" y="213"/><ellipse cx="234" cy="238.9531" fill="#ADD1B2" rx="11" ry="11" style="stroke: #A80036; stroke-width: 1.0;"/><path d="M236.3438,234.625 C235.4063,234.1875 234.8125,234.0469 233.9375,234.0469 C231.3125,234.0469 229.3125,236.125 229.3125,238.8438 L229.3125,239.9688 C229.3125,242.5469 231.4219,244.4375 234.3125,244.4375 C235.5313,244.4375 236.6875,244.1406 237.4375,243.5938 C238.0156,243.1875 238.3438,242.7344 238.3438,242.3438 C238.3438,241.8906 237.9531,241.5 237.4844,241.5 C237.2656,241.5 237.0625,241.5781 236.875,241.7656 C236.4219,242.25 236.4219,242.25 236.2344,242.3438 C235.8125,242.6094 235.125,242.7344 234.3594,242.7344 C232.3125,242.7344 231.0156,241.6406 231.0156,239.9375 L231.0156,238.8438 C231.0156,237.0625 232.2656,235.75 234,235.75 C234.5781,235.75 235.1875,235.9063 235.6563,236.1563 C236.1406,236.4375 236.3125,236.6563 236.4063,237.0625 C236.4688,237.4688 236.5,237.5938 236.6406,237.7188 C236.7813,237.8594 237.0156,237.9688 237.2344,237.9688 C237.5,237.9688 237.7656,237.8281 237.9375,237.6094 C238.0469,237.4531 238.0781,237.2656 238.0781,236.8438 L238.0781,235.4219 C238.0781,234.9844 238.0625,234.8594 237.9688,234.7031 C237.8125,234.4375 237.5313,234.2969 237.2344,234.2969 C236.9375,234.2969 236.7344,234.3906 236.5156,234.7031 L236.3438,234.625 Z "/><text fill="#000000" font-family="sans-serif" font-size="12" lengthAdjust="spacingAndGlyphs" textLength="145" x="248" y="229.1387">usantatecla.mastermind.</text><text fill="#000000" font-family="sans-serif" font-size="12" lengthAdjust="spacingAndGlyphs" textLength="48" x="296.5" y="243.1074">models.</text><text fill="#000000" font-family="sans-serif" font-size="12" lengthAdjust="spacingAndGlyphs" textLength="35" x="303" y="257.0762">Game</text><line style="stroke: #A80036; stroke-width: 1.5;" x1="220" x2="395" y1="264.9063" y2="264.9063"/><line style="stroke: #A80036; stroke-width: 1.5;" x1="220" x2="395" y1="272.9063" y2="272.9063"/><!--MD5=[86660d01f18f2f4aaa6ae1176c50cf28]
link usantatecla.mastermind.ConsoleMastermind to ConsoleView--><path codeLine="20" d="M153.2923,162.9595 C153.2923,162.9595 134.506,189.9524 126.246,201.8217 " fill="none" id="usantatecla.mastermind.ConsoleMastermind-ConsoleView" style="stroke: #A80036; stroke-width: 1.0;"/><polygon fill="#A80036" points="118.623,212.7744,127.0473,207.6723,121.4792,208.6705,120.481,203.1024,118.623,212.7744" style="stroke: #A80036; stroke-width: 1.0;"/><line style="stroke: #A80036; stroke-width: 1.0;" x1="121.4792" x2="126.0495" y1="208.6705" y2="202.1041"/><polygon fill="#A80036" points="160.147,153.11,153.4365,155.7499,153.2923,162.9595,160.0028,160.3197,160.147,153.11" style="stroke: #A80036; stroke-width: 1.0;"/><!--MD5=[691abe244985a18320bde7682afcac44]
link usantatecla.mastermind.ConsoleMastermind to Game--><path codeLine="21" d="M246.204,162.7725 C246.204,162.7725 266.254,189.9964 275.156,202.0837 " fill="none" id="usantatecla.mastermind.ConsoleMastermind-Game" style="stroke: #A80036; stroke-width: 1.0;"/><polygon fill="#A80036" points="283.03,212.7744,280.9134,203.1557,280.0648,208.7485,274.472,207.8999,283.03,212.7744" style="stroke: #A80036; stroke-width: 1.0;"/><line style="stroke: #A80036; stroke-width: 1.0;" x1="280.0648" x2="275.3205" y1="208.7485" y2="202.3069"/><polygon fill="#A80036" points="239.088,153.11,239.4252,160.3132,246.204,162.7725,245.8668,155.5692,239.088,153.11" style="stroke: #A80036; stroke-width: 1.0;"/><!--MD5=[0a501c15156d4559f00f932bd01623b3]
link usantatecla.mastermind.GraphicsMastermind to GraphicsView--><path codeLine="22" d="M461.1251,162.9285 C461.1251,162.9285 480.115,189.9524 488.456,201.8217 " fill="none" id="usantatecla.mastermind.GraphicsMastermind-GraphicsView" style="stroke: #A80036; stroke-width: 1.0;"/><polygon fill="#A80036" points="496.152,212.7744,494.2505,203.1108,493.2774,208.6834,487.7049,207.7102,496.152,212.7744" style="stroke: #A80036; stroke-width: 1.0;"/><line style="stroke: #A80036; stroke-width: 1.0;" x1="493.2774" x2="488.678" y1="208.6834" y2="202.1379"/><polygon fill="#A80036" points="454.226,153.11,454.4027,160.3189,461.1251,162.9285,460.9484,155.7196,454.226,153.11" style="stroke: #A80036; stroke-width: 1.0;"/><!--MD5=[4ee85ce9374a43648197be627c3539b8]
link usantatecla.mastermind.GraphicsMastermind to Game--><path codeLine="23" d="M368.2116,162.8036 C368.2116,162.8036 348.202,190.2225 339.471,202.1884 " fill="none" id="usantatecla.mastermind.GraphicsMastermind-Game" style="stroke: #A80036; stroke-width: 1.0;"/><polygon fill="#A80036" points="331.746,212.7744,340.2824,207.8621,334.6933,208.7354,333.82,203.1464,331.746,212.7744" style="stroke: #A80036; stroke-width: 1.0;"/><line style="stroke: #A80036; stroke-width: 1.0;" x1="334.6933" x2="339.4085" y1="208.7354" y2="202.2731"/><polygon fill="#A80036" points="375.285,153.11,368.5171,155.599,368.2116,162.8036,374.9795,160.3146,375.285,153.11" style="stroke: #A80036; stroke-width: 1.0;"/><!--MD5=[7971c6fc2e88b4a0efc84b20dab77bf2]
@startuml
class usantatecla.mastermind.ConsoleMastermind{
- game: Game
- consoleView: ConsoleView
- ConsoleMastermind()
+ {static} main(String[]): void
- play(): void
}

class usantatecla.mastermind.GraphicsMastermind{
- game: Game
- graphicsView: GraphicsView
- GraphicsMastermind()
+ {static} main(String[]): void
- play(): void
}

class ConsoleView as "usantatecla.mastermind.\nviews.console.\nConsoleView"{}
class GraphicsView as "usantatecla.mastermind.\nviews.graphics.\nGraphicsView"{}
class Game as "usantatecla.mastermind.\nmodels.\nGame"{}
usantatecla.mastermind.ConsoleMastermind *-down-> ConsoleView
usantatecla.mastermind.ConsoleMastermind *-down-> Game
usantatecla.mastermind.GraphicsMastermind *-down-> GraphicsView
usantatecla.mastermind.GraphicsMastermind *-down-> Game
@enduml

PlantUML version 1.2020.20beta7(Unknown compile time)
(GPL source distribution)
Java Runtime: Java(TM) SE Runtime Environment
JVM: Java HotSpot(TM) 64-Bit Server VM
Default Encoding: UTF-8
Language: en
Country: US
--></g></svg>