<?xml version="1.0" encoding="UTF-8" standalone="no"?><svg xmlns="http://www.w3.org/2000/svg" xmlns:xlink="http://www.w3.org/1999/xlink" contentScriptType="application/ecmascript" contentStyleType="text/css" height="614px" preserveAspectRatio="none" style="width:494px;height:614px;" version="1.1" viewBox="0 0 494 614" width="494px" zoomAndPan="magnify"><defs><filter height="300%" id="fscsblrin270o" width="300%" x="-1" y="-1"><feGaussianBlur result="blurOut" stdDeviation="2.0"/><feColorMatrix in="blurOut" result="blurOut2" type="matrix" values="0 0 0 0 0 0 0 0 0 0 0 0 0 0 0 0 0 0 .4 0"/><feOffset dx="4.0" dy="4.0" in="blurOut2" result="blurOut3"/><feBlend in="SourceGraphic" in2="blurOut3" mode="normal"/></filter></defs><g><!--MD5=[908cbfa8709a8ec6ee3beb0409fea32c]
cluster usantatecla.utils--><polygon fill="#FFFFFF" filter="url(#fscsblrin270o)" points="16,6,162,6,169,28.2969,477,28.2969,477,508,16,508,16,6" style="stroke: #000000; stroke-width: 1.5;"/><line style="stroke: #000000; stroke-width: 1.5;" x1="16" x2="169" y1="28.2969" y2="28.2969"/><text fill="#000000" font-family="sans-serif" font-size="14" font-weight="bold" lengthAdjust="spacingAndGlyphs" textLength="140" x="20" y="20.9951">usantatecla.utils</text><!--MD5=[5f6eaca964039dd95284677bcb120bda]
class usantatecla.utils.ColorCode--><rect codeLine="3" fill="#FEFECE" filter="url(#fscsblrin270o)" height="188.8516" id="usantatecla.utils.ColorCode" style="stroke: #A80036; stroke-width: 1.5;" width="183" x="268.5" y="41"/><ellipse cx="323.75" cy="57" fill="#EB937F" rx="11" ry="11" style="stroke: #A80036; stroke-width: 1.0;"/><path d="M322.5469,57.875 L324,57.875 L324,57.9844 C324,58.3906 324.0313,58.5469 324.1094,58.7031 C324.2656,58.9531 324.5469,59.1094 324.8438,59.1094 C325.0938,59.1094 325.3594,58.9688 325.5156,58.75 C325.6406,58.5938 325.6719,58.4375 325.6719,57.9844 L325.6719,56.0625 C325.6719,55.9063 325.6719,55.8594 325.6563,55.7031 C325.5938,55.2344 325.2813,54.9219 324.8281,54.9219 C324.5781,54.9219 324.3125,55.0625 324.1406,55.2813 C324.0313,55.4531 324,55.6094 324,56.0625 L324,56.1875 L322.5469,56.1875 L322.5469,53.7813 L326.5313,53.7813 L326.5313,54.6406 C326.5313,55.0469 326.5625,55.2188 326.6406,55.375 C326.8125,55.625 327.0938,55.7813 327.375,55.7813 C327.6406,55.7813 327.9063,55.6406 328.0781,55.4219 C328.1875,55.25 328.2188,55.1094 328.2188,54.6406 L328.2188,52.0938 L320.5938,52.0938 C320.1563,52.0938 320.0313,52.1094 319.875,52.2031 C319.625,52.3594 319.4688,52.6563 319.4688,52.9375 C319.4688,53.2188 319.6094,53.4688 319.8281,53.6406 C319.9844,53.75 320.1719,53.7813 320.5938,53.7813 L320.8438,53.7813 L320.8438,60.2969 L320.5938,60.2969 C320.1875,60.2969 320.0313,60.3125 319.875,60.4219 C319.625,60.5938 319.4688,60.8594 319.4688,61.1563 C319.4688,61.4219 319.6094,61.6719 319.8281,61.8281 C319.9688,61.9531 320.2031,62 320.5938,62 L328.5938,62 L328.5938,59.4219 C328.5938,58.9844 328.5625,58.8438 328.4844,58.6875 C328.3125,58.4375 328.0313,58.2813 327.75,58.2813 C327.4844,58.2813 327.2188,58.3906 327.0469,58.6406 C326.9375,58.7969 326.9063,58.9375 326.9063,59.4219 L326.9063,60.2969 L322.5469,60.2969 L322.5469,57.875 Z "/><text fill="#000000" font-family="sans-serif" font-size="12" lengthAdjust="spacingAndGlyphs" textLength="64" x="344.25" y="61.1543">ColorCode</text><line style="stroke: #A80036; stroke-width: 1.5;" x1="269.5" x2="450.5" y1="73" y2="73"/><ellipse cx="279.5" cy="84" fill="none" rx="3" ry="3" style="stroke: #038048; stroke-width: 1.0;"/><text fill="#000000" font-family="sans-serif" font-size="11" lengthAdjust="spacingAndGlyphs" textLength="23" x="288.5" y="87.2104">RED</text><ellipse cx="279.5" cy="96.8047" fill="none" rx="3" ry="3" style="stroke: #038048; stroke-width: 1.0;"/><text fill="#000000" font-family="sans-serif" font-size="11" lengthAdjust="spacingAndGlyphs" textLength="29" x="288.5" y="100.0151">BLUE</text><ellipse cx="279.5" cy="109.6094" fill="none" rx="3" ry="3" style="stroke: #038048; stroke-width: 1.0;"/><text fill="#000000" font-family="sans-serif" font-size="11" lengthAdjust="spacingAndGlyphs" textLength="46" x="288.5" y="112.8198">YELLOW</text><ellipse cx="279.5" cy="122.4141" fill="none" rx="3" ry="3" style="stroke: #038048; stroke-width: 1.0;"/><text fill="#000000" font-family="sans-serif" font-size="11" lengthAdjust="spacingAndGlyphs" textLength="38" x="288.5" y="125.6245">GREEN</text><ellipse cx="279.5" cy="135.2188" fill="none" rx="3" ry="3" style="stroke: #038048; stroke-width: 1.0;"/><text fill="#000000" font-family="sans-serif" font-size="11" lengthAdjust="spacingAndGlyphs" textLength="48" x="288.5" y="138.4292">ORANGE</text><ellipse cx="279.5" cy="148.0234" fill="none" rx="3" ry="3" style="stroke: #038048; stroke-width: 1.0;"/><text fill="#000000" font-family="sans-serif" font-size="11" lengthAdjust="spacingAndGlyphs" textLength="40" x="288.5" y="151.2339">PURPLE</text><ellipse cx="279.5" cy="160.8281" fill="none" rx="3" ry="3" style="stroke: #038048; stroke-width: 1.0;"/><text fill="#000000" font-family="sans-serif" font-size="11" lengthAdjust="spacingAndGlyphs" textLength="81" x="288.5" y="164.0386">RESET_COLOR</text><rect fill="none" height="6" style="stroke: #C82930; stroke-width: 1.0;" width="6" x="276.5" y="170.6328"/><text fill="#000000" font-family="sans-serif" font-size="11" lengthAdjust="spacingAndGlyphs" textLength="67" x="288.5" y="176.8433">color: String</text><line style="stroke: #A80036; stroke-width: 1.5;" x1="269.5" x2="450.5" y1="183.4375" y2="183.4375"/><polygon fill="#4177AF" points="279.5,190.4375,275.5,196.4375,283.5,196.4375" style="stroke: #1963A0; stroke-width: 1.0;"/><text fill="#000000" font-family="sans-serif" font-size="11" lengthAdjust="spacingAndGlyphs" textLength="100" x="288.5" y="197.6479">ColorCode(String)</text><ellipse cx="279.5" cy="207.2422" fill="#84BE84" rx="3" ry="3" style="stroke: #038048; stroke-width: 1.0;"/><text fill="#000000" font-family="sans-serif" font-size="11" lengthAdjust="spacingAndGlyphs" textLength="96" x="288.5" y="210.4526">getColor(): String</text><ellipse cx="279.5" cy="220.0469" fill="#84BE84" rx="3" ry="3" style="stroke: #038048; stroke-width: 1.0;"/><text fill="#000000" font-family="sans-serif" font-size="11" lengthAdjust="spacingAndGlyphs" text-decoration="underline" textLength="157" x="288.5" y="223.2573">getColorByIndex(int): String</text><!--MD5=[5a5a2ad444bc00c1498d76ebf80a1dc4]
class usantatecla.utils.Console--><rect codeLine="17" fill="#FEFECE" filter="url(#fscsblrin270o)" height="201.6563" id="usantatecla.utils.Console" style="stroke: #A80036; stroke-width: 1.5;" width="214" x="32" y="290"/><ellipse cx="110.25" cy="306" fill="#ADD1B2" rx="11" ry="11" style="stroke: #A80036; stroke-width: 1.0;"/><path d="M112.5938,301.6719 C111.6563,301.2344 111.0625,301.0938 110.1875,301.0938 C107.5625,301.0938 105.5625,303.1719 105.5625,305.8906 L105.5625,307.0156 C105.5625,309.5938 107.6719,311.4844 110.5625,311.4844 C111.7813,311.4844 112.9375,311.1875 113.6875,310.6406 C114.2656,310.2344 114.5938,309.7813 114.5938,309.3906 C114.5938,308.9375 114.2031,308.5469 113.7344,308.5469 C113.5156,308.5469 113.3125,308.625 113.125,308.8125 C112.6719,309.2969 112.6719,309.2969 112.4844,309.3906 C112.0625,309.6563 111.375,309.7813 110.6094,309.7813 C108.5625,309.7813 107.2656,308.6875 107.2656,306.9844 L107.2656,305.8906 C107.2656,304.1094 108.5156,302.7969 110.25,302.7969 C110.8281,302.7969 111.4375,302.9531 111.9063,303.2031 C112.3906,303.4844 112.5625,303.7031 112.6563,304.1094 C112.7188,304.5156 112.75,304.6406 112.8906,304.7656 C113.0313,304.9063 113.2656,305.0156 113.4844,305.0156 C113.75,305.0156 114.0156,304.875 114.1875,304.6563 C114.2969,304.5 114.3281,304.3125 114.3281,303.8906 L114.3281,302.4688 C114.3281,302.0313 114.3125,301.9063 114.2188,301.75 C114.0625,301.4844 113.7813,301.3438 113.4844,301.3438 C113.1875,301.3438 112.9844,301.4375 112.7656,301.75 L112.5938,301.6719 Z "/><text fill="#000000" font-family="sans-serif" font-size="12" lengthAdjust="spacingAndGlyphs" textLength="49" x="130.75" y="310.1543">Console</text><line style="stroke: #A80036; stroke-width: 1.5;" x1="33" x2="245" y1="322" y2="322"/><rect fill="none" height="6" style="stroke: #C82930; stroke-width: 1.0;" width="6" x="40" y="330"/><text fill="#000000" font-family="sans-serif" font-size="11" lengthAdjust="spacingAndGlyphs" text-decoration="underline" textLength="97" x="52" y="336.2104">console: Console</text><rect fill="none" height="6" style="stroke: #C82930; stroke-width: 1.0;" width="6" x="40" y="342.8047"/><text fill="#000000" font-family="sans-serif" font-size="11" lengthAdjust="spacingAndGlyphs" textLength="188" x="52" y="349.0151">bufferedReader: BufferedReader</text><line style="stroke: #A80036; stroke-width: 1.5;" x1="33" x2="245" y1="355.6094" y2="355.6094"/><ellipse cx="43" cy="366.6094" fill="#84BE84" rx="3" ry="3" style="stroke: #038048; stroke-width: 1.0;"/><text fill="#000000" font-family="sans-serif" font-size="11" lengthAdjust="spacingAndGlyphs" text-decoration="underline" textLength="128" x="52" y="369.8198">getInstance(): Console</text><ellipse cx="43" cy="379.4141" fill="#84BE84" rx="3" ry="3" style="stroke: #038048; stroke-width: 1.0;"/><text fill="#000000" font-family="sans-serif" font-size="11" lengthAdjust="spacingAndGlyphs" textLength="140" x="52" y="382.6245">readString(String): String</text><ellipse cx="43" cy="392.2188" fill="#84BE84" rx="3" ry="3" style="stroke: #038048; stroke-width: 1.0;"/><text fill="#000000" font-family="sans-serif" font-size="11" lengthAdjust="spacingAndGlyphs" textLength="107" x="52" y="395.4292">readString(): String</text><ellipse cx="43" cy="405.0234" fill="#84BE84" rx="3" ry="3" style="stroke: #038048; stroke-width: 1.0;"/><text fill="#000000" font-family="sans-serif" font-size="11" lengthAdjust="spacingAndGlyphs" textLength="102" x="52" y="408.2339">readInt(String): int</text><ellipse cx="43" cy="417.8281" fill="#84BE84" rx="3" ry="3" style="stroke: #038048; stroke-width: 1.0;"/><text fill="#000000" font-family="sans-serif" font-size="11" lengthAdjust="spacingAndGlyphs" textLength="124" x="52" y="421.0386">readChar(String): char</text><ellipse cx="43" cy="430.6328" fill="#84BE84" rx="3" ry="3" style="stroke: #038048; stroke-width: 1.0;"/><text fill="#000000" font-family="sans-serif" font-size="11" lengthAdjust="spacingAndGlyphs" textLength="46" x="52" y="433.8433">writeln()</text><ellipse cx="43" cy="443.4375" fill="#84BE84" rx="3" ry="3" style="stroke: #038048; stroke-width: 1.0;"/><text fill="#000000" font-family="sans-serif" font-size="11" lengthAdjust="spacingAndGlyphs" textLength="69" x="52" y="446.6479">write(String)</text><ellipse cx="43" cy="456.2422" fill="#84BE84" rx="3" ry="3" style="stroke: #038048; stroke-width: 1.0;"/><text fill="#000000" font-family="sans-serif" font-size="11" lengthAdjust="spacingAndGlyphs" textLength="79" x="52" y="459.4526">writeln(String)</text><ellipse cx="43" cy="469.0469" fill="#84BE84" rx="3" ry="3" style="stroke: #038048; stroke-width: 1.0;"/><text fill="#000000" font-family="sans-serif" font-size="11" lengthAdjust="spacingAndGlyphs" textLength="60" x="52" y="472.2573">write(char)</text><rect fill="#F24D5C" height="6" style="stroke: #C82930; stroke-width: 1.0;" width="6" x="40" y="478.8516"/><text fill="#000000" font-family="sans-serif" font-size="11" lengthAdjust="spacingAndGlyphs" textLength="95" x="52" y="485.062">writeError(String)</text><!--MD5=[ba58421efd58e7293b281009adee2615]
class usantatecla.utils.WithConsoleView--><rect codeLine="33" fill="#FEFECE" filter="url(#fscsblrin270o)" height="73.6094" id="usantatecla.utils.WithConsoleView" style="stroke: #A80036; stroke-width: 1.5;" width="134" x="81" y="98.5"/><ellipse cx="96" cy="114.5" fill="#A9DCDF" rx="11" ry="11" style="stroke: #A80036; stroke-width: 1.0;"/><path d="M98.0781,116.3125 L98.4688,117.2969 L98.0781,117.2969 C97.625,117.2969 97.5156,117.3125 97.3594,117.4219 C97.1094,117.5781 96.9531,117.8594 96.9531,118.1563 C96.9531,118.4219 97.0938,118.6719 97.3125,118.8281 C97.4531,118.9531 97.6563,119 98.0781,119 L100.4375,119 C100.7969,119 101.0156,118.9688 101.1563,118.875 C101.4063,118.7344 101.5625,118.4375 101.5625,118.1563 C101.5625,117.875 101.4219,117.625 101.2031,117.4688 C101.0313,117.3281 100.875,117.2969 100.4063,117.2969 L97.0156,109.0938 L93.3438,109.0938 C92.8906,109.0938 92.7656,109.1094 92.6094,109.2031 C92.3594,109.375 92.2031,109.6563 92.2031,109.9375 C92.2031,110.2188 92.3438,110.4688 92.5625,110.6406 C92.7344,110.75 92.9063,110.7813 93.3438,110.7813 L94.4219,110.7813 L91.7813,117.2969 C91.3594,117.2969 91.2031,117.3125 91.0469,117.4219 C90.7969,117.5781 90.6406,117.8594 90.6406,118.1563 C90.6406,118.7188 91.0156,119 91.7656,119 L94.0313,119 C94.3906,119 94.6094,118.9688 94.7344,118.875 C95,118.7344 95.1406,118.4375 95.1406,118.1563 C95.1406,117.875 95.0156,117.625 94.7969,117.4531 C94.625,117.3281 94.4844,117.2969 94.0313,117.2969 L93.6406,117.2969 L94.0313,116.3125 L98.0781,116.3125 Z M97.375,114.6094 L94.7031,114.6094 L96.0469,111.3438 L97.375,114.6094 Z "/><text fill="#000000" font-family="sans-serif" font-size="12" font-style="italic" lengthAdjust="spacingAndGlyphs" textLength="102" x="110" y="118.6543">WithConsoleView</text><line style="stroke: #A80036; stroke-width: 1.5;" x1="82" x2="214" y1="130.5" y2="130.5"/><polygon fill="none" points="92,136.5,96,140.5,92,144.5,88,140.5" style="stroke: #B38D22; stroke-width: 1.0;"/><text fill="#000000" font-family="sans-serif" font-size="11" lengthAdjust="spacingAndGlyphs" textLength="97" x="101" y="144.7104">console: Console</text><line style="stroke: #A80036; stroke-width: 1.5;" x1="82" x2="214" y1="151.3047" y2="151.3047"/><polygon fill="#FFFF44" points="92,157.3047,96,161.3047,92,165.3047,88,161.3047" style="stroke: #B38D22; stroke-width: 1.0;"/><text fill="#000000" font-family="sans-serif" font-size="11" lengthAdjust="spacingAndGlyphs" textLength="107" x="101" y="165.5151">WithConsoleView()</text><!--MD5=[115031fed92a4467bd358dd9ee6729dd]
class usantatecla.utils.YesNoDialog--><rect codeLine="39" fill="#FEFECE" filter="url(#fscsblrin270o)" height="150.4375" id="usantatecla.utils.YesNoDialog" style="stroke: #A80036; stroke-width: 1.5;" width="179" x="281.5" y="316"/><ellipse cx="328.75" cy="332" fill="#ADD1B2" rx="11" ry="11" style="stroke: #A80036; stroke-width: 1.0;"/><path d="M331.0938,327.6719 C330.1563,327.2344 329.5625,327.0938 328.6875,327.0938 C326.0625,327.0938 324.0625,329.1719 324.0625,331.8906 L324.0625,333.0156 C324.0625,335.5938 326.1719,337.4844 329.0625,337.4844 C330.2813,337.4844 331.4375,337.1875 332.1875,336.6406 C332.7656,336.2344 333.0938,335.7813 333.0938,335.3906 C333.0938,334.9375 332.7031,334.5469 332.2344,334.5469 C332.0156,334.5469 331.8125,334.625 331.625,334.8125 C331.1719,335.2969 331.1719,335.2969 330.9844,335.3906 C330.5625,335.6563 329.875,335.7813 329.1094,335.7813 C327.0625,335.7813 325.7656,334.6875 325.7656,332.9844 L325.7656,331.8906 C325.7656,330.1094 327.0156,328.7969 328.75,328.7969 C329.3281,328.7969 329.9375,328.9531 330.4063,329.2031 C330.8906,329.4844 331.0625,329.7031 331.1563,330.1094 C331.2188,330.5156 331.25,330.6406 331.3906,330.7656 C331.5313,330.9063 331.7656,331.0156 331.9844,331.0156 C332.25,331.0156 332.5156,330.875 332.6875,330.6563 C332.7969,330.5 332.8281,330.3125 332.8281,329.8906 L332.8281,328.4688 C332.8281,328.0313 332.8125,327.9063 332.7188,327.75 C332.5625,327.4844 332.2813,327.3438 331.9844,327.3438 C331.6875,327.3438 331.4844,327.4375 331.2656,327.75 L331.0938,327.6719 Z "/><text fill="#000000" font-family="sans-serif" font-size="12" lengthAdjust="spacingAndGlyphs" textLength="76" x="349.25" y="336.1543">YesNoDialog</text><line style="stroke: #A80036; stroke-width: 1.5;" x1="282.5" x2="459.5" y1="348" y2="348"/><rect fill="none" height="6" style="stroke: #C82930; stroke-width: 1.0;" width="6" x="289.5" y="356"/><text fill="#000000" font-family="sans-serif" font-size="11" lengthAdjust="spacingAndGlyphs" text-decoration="underline" textLength="97" x="301.5" y="362.2104">AFIRMATIVE: char</text><rect fill="none" height="6" style="stroke: #C82930; stroke-width: 1.0;" width="6" x="289.5" y="368.8047"/><text fill="#000000" font-family="sans-serif" font-size="11" lengthAdjust="spacingAndGlyphs" text-decoration="underline" textLength="88" x="301.5" y="375.0151">NEGATIVE: char</text><rect fill="none" height="6" style="stroke: #C82930; stroke-width: 1.0;" width="6" x="289.5" y="381.6094"/><text fill="#000000" font-family="sans-serif" font-size="11" lengthAdjust="spacingAndGlyphs" text-decoration="underline" textLength="99" x="301.5" y="387.8198">QUESTION: String</text><rect fill="none" height="6" style="stroke: #C82930; stroke-width: 1.0;" width="6" x="289.5" y="394.4141"/><text fill="#000000" font-family="sans-serif" font-size="11" lengthAdjust="spacingAndGlyphs" text-decoration="underline" textLength="96" x="301.5" y="400.6245">MESSAGE: String</text><line style="stroke: #A80036; stroke-width: 1.5;" x1="282.5" x2="459.5" y1="407.2188" y2="407.2188"/><ellipse cx="292.5" cy="418.2188" fill="#84BE84" rx="3" ry="3" style="stroke: #038048; stroke-width: 1.0;"/><text fill="#000000" font-family="sans-serif" font-size="11" lengthAdjust="spacingAndGlyphs" textLength="80" x="301.5" y="421.4292">YesNoDialog()</text><ellipse cx="292.5" cy="431.0234" fill="#84BE84" rx="3" ry="3" style="stroke: #038048; stroke-width: 1.0;"/><text fill="#000000" font-family="sans-serif" font-size="11" lengthAdjust="spacingAndGlyphs" textLength="120" x="301.5" y="434.2339">read(String): boolean</text><rect fill="#F24D5C" height="6" style="stroke: #C82930; stroke-width: 1.0;" width="6" x="289.5" y="440.8281"/><text fill="#000000" font-family="sans-serif" font-size="11" lengthAdjust="spacingAndGlyphs" text-decoration="underline" textLength="153" x="301.5" y="447.0386">isAfirmative(char): boolean</text><rect fill="#F24D5C" height="6" style="stroke: #C82930; stroke-width: 1.0;" width="6" x="289.5" y="453.6328"/><text fill="#000000" font-family="sans-serif" font-size="11" lengthAdjust="spacingAndGlyphs" text-decoration="underline" textLength="146" x="301.5" y="459.8433">isNegative(char): boolean</text><!--MD5=[ee4f8f5c2b5eaa5df2ba8c0614cd4e83]
class BufferedReader--><rect codeLine="1" fill="#FEFECE" filter="url(#fscsblrin270o)" height="48" id="BufferedReader" style="stroke: #A80036; stroke-width: 1.5;" width="168" x="55" y="552"/><ellipse cx="70" cy="568" fill="#ADD1B2" rx="11" ry="11" style="stroke: #A80036; stroke-width: 1.0;"/><path d="M72.3438,563.6719 C71.4063,563.2344 70.8125,563.0938 69.9375,563.0938 C67.3125,563.0938 65.3125,565.1719 65.3125,567.8906 L65.3125,569.0156 C65.3125,571.5938 67.4219,573.4844 70.3125,573.4844 C71.5313,573.4844 72.6875,573.1875 73.4375,572.6406 C74.0156,572.2344 74.3438,571.7813 74.3438,571.3906 C74.3438,570.9375 73.9531,570.5469 73.4844,570.5469 C73.2656,570.5469 73.0625,570.625 72.875,570.8125 C72.4219,571.2969 72.4219,571.2969 72.2344,571.3906 C71.8125,571.6563 71.125,571.7813 70.3594,571.7813 C68.3125,571.7813 67.0156,570.6875 67.0156,568.9844 L67.0156,567.8906 C67.0156,566.1094 68.2656,564.7969 70,564.7969 C70.5781,564.7969 71.1875,564.9531 71.6563,565.2031 C72.1406,565.4844 72.3125,565.7031 72.4063,566.1094 C72.4688,566.5156 72.5,566.6406 72.6406,566.7656 C72.7813,566.9063 73.0156,567.0156 73.2344,567.0156 C73.5,567.0156 73.7656,566.875 73.9375,566.6563 C74.0469,566.5 74.0781,566.3125 74.0781,565.8906 L74.0781,564.4688 C74.0781,564.0313 74.0625,563.9063 73.9688,563.75 C73.8125,563.4844 73.5313,563.3438 73.2344,563.3438 C72.9375,563.3438 72.7344,563.4375 72.5156,563.75 L72.3438,563.6719 Z "/><text fill="#000000" font-family="sans-serif" font-size="12" lengthAdjust="spacingAndGlyphs" textLength="136" x="84" y="572.1543">java.io.BufferedReader</text><line style="stroke: #A80036; stroke-width: 1.5;" x1="56" x2="222" y1="584" y2="584"/><line style="stroke: #A80036; stroke-width: 1.5;" x1="56" x2="222" y1="592" y2="592"/><!--MD5=[14426ff67e875e6661b88179367ed759]
link usantatecla.utils.Console to BufferedReader--><path codeLine="31" d="M139,504.067 C139,504.067 139,528.5956 139,538.5834 " fill="none" id="usantatecla.utils.Console-BufferedReader" style="stroke: #A80036; stroke-width: 1.0;"/><polygon fill="#A80036" points="139,551.6836,143,542.6836,139,546.6836,135,542.6836,139,551.6836" style="stroke: #A80036; stroke-width: 1.0;"/><line style="stroke: #A80036; stroke-width: 1.0;" x1="139" x2="139" y1="546.6836" y2="538.6836"/><polygon fill="#A80036" points="139,492.067,135,498.067,139,504.067,143,498.067,139,492.067" style="stroke: #A80036; stroke-width: 1.0;"/><!--MD5=[0ea67b4831d36ae8fbc1ab9e7f0763b3]
link usantatecla.utils.WithConsoleView to usantatecla.utils.Console--><path codeLine="37" d="M146.2941,184.5434 C146.2941,184.5434 144.153,244.844 143.022,276.702 " fill="none" id="usantatecla.utils.WithConsoleView-usantatecla.utils.Console" style="stroke: #A80036; stroke-width: 1.0;"/><polygon fill="#A80036" points="142.558,289.783,146.8749,280.9307,142.7355,284.7862,138.88,280.6467,142.558,289.783" style="stroke: #A80036; stroke-width: 1.0;"/><line style="stroke: #A80036; stroke-width: 1.0;" x1="142.7355" x2="143.019" y1="284.7862" y2="276.7905"/><polygon fill="#A80036" points="146.72,172.551,142.5095,178.4052,146.2941,184.5434,150.5045,178.6892,146.72,172.551" style="stroke: #A80036; stroke-width: 1.0;"/><!--MD5=[d8364031ab8e3812dea498ff2b39f3cd]
reverse link usantatecla.utils.WithConsoleView to usantatecla.utils.YesNoDialog--><path codeLine="49" d="M193.257,187.947 C225.639,224.757 269.713,274.86 305.872,315.964 " fill="none" id="usantatecla.utils.WithConsoleView-backto-usantatecla.utils.YesNoDialog" style="stroke: #A80036; stroke-width: 1.0;"/><polygon fill="none" points="187.668,192.191,179.714,172.551,198.179,182.944,187.668,192.191" style="stroke: #A80036; stroke-width: 1.0;"/><!--MD5=[7fb068fc452bc06120e19585a0a0b168]
@startuml
class BufferedReader as "java.io.BufferedReader"{}

enum usantatecla.utils.ColorCode{
+ RED
+ BLUE
+ YELLOW
+ GREEN
+ ORANGE
+ PURPLE
+ RESET_COLOR
- color: String
~ ColorCode(String)
+ getColor(): String
+ {static} getColorByIndex(int): String
}

class usantatecla.utils.Console{
- {static} console: Console
- bufferedReader: BufferedReader
+ {static} getInstance(): Console
+ readString(String): String
+ readString(): String
+ readInt(String): int
+ readChar(String): char
+ writeln()
+ write(String)
+ writeln(String)
+ write(char)
- writeError(String)
}
usantatecla.utils.Console *-down-> BufferedReader

abstract class usantatecla.utils.WithConsoleView{
# console: Console
# WithConsoleView()
}
usantatecla.utils.WithConsoleView *-down-> usantatecla.utils.Console

class  usantatecla.utils.YesNoDialog{
- {static} AFIRMATIVE: char
- {static} NEGATIVE: char
- {static} QUESTION: String
- {static} MESSAGE: String
+ YesNoDialog()
+ read(String): boolean
- {static} isAfirmative(char): boolean
- {static} isNegative(char): boolean
}
usantatecla.utils.WithConsoleView <|-down- usantatecla.utils.YesNoDialog
@enduml

PlantUML version 1.2020.20beta7(Unknown compile time)
(GPL source distribution)
Java Runtime: Java(TM) SE Runtime Environment
JVM: Java HotSpot(TM) 64-Bit Server VM
Default Encoding: UTF-8
Language: en
Country: US
--></g></svg>