<?xml version="1.0" encoding="UTF-8" standalone="no"?><svg xmlns="http://www.w3.org/2000/svg" xmlns:xlink="http://www.w3.org/1999/xlink" contentScriptType="application/ecmascript" contentStyleType="text/css" height="357px" preserveAspectRatio="none" style="width:864px;height:357px;" version="1.1" viewBox="0 0 864 357" width="864px" zoomAndPan="magnify"><defs><filter height="300%" id="f1frjx3dmxdryn" width="300%" x="-1" y="-1"><feGaussianBlur result="blurOut" stdDeviation="2.0"/><feColorMatrix in="blurOut" result="blurOut2" type="matrix" values="0 0 0 0 0 0 0 0 0 0 0 0 0 0 0 0 0 0 .4 0"/><feOffset dx="4.0" dy="4.0" in="blurOut2" result="blurOut3"/><feBlend in="SourceGraphic" in2="blurOut3" mode="normal"/></filter></defs><g><!--MD5=[29d5d00c8f272934fcfbf235a28c504f]
cluster usantatecla.mastermind.views--><polygon fill="#FFFFFF" filter="url(#f1frjx3dmxdryn)" points="22.5,6,279.5,6,286.5,28.2969,793.5,28.2969,793.5,246,22.5,246,22.5,6" style="stroke: #000000; stroke-width: 1.5;"/><line style="stroke: #000000; stroke-width: 1.5;" x1="22.5" x2="286.5" y1="28.2969" y2="28.2969"/><text fill="#000000" font-family="sans-serif" font-size="14" font-weight="bold" lengthAdjust="spacingAndGlyphs" textLength="251" x="26.5" y="20.9951">usantatecla.mastermind.views</text><!--MD5=[dab5b8162ddba5d4d249ad537ad64188]
class usantatecla.mastermind.views.ColorView--><rect codeLine="5" fill="#FEFECE" filter="url(#f1frjx3dmxdryn)" height="124.8281" id="usantatecla.mastermind.views.ColorView" style="stroke: #A80036; stroke-width: 1.5;" width="161" x="39" y="73"/><ellipse cx="86.25" cy="89" fill="#A9DCDF" rx="11" ry="11" style="stroke: #A80036; stroke-width: 1.0;"/><path d="M88.3281,90.8125 L88.7188,91.7969 L88.3281,91.7969 C87.875,91.7969 87.7656,91.8125 87.6094,91.9219 C87.3594,92.0781 87.2031,92.3594 87.2031,92.6563 C87.2031,92.9219 87.3438,93.1719 87.5625,93.3281 C87.7031,93.4531 87.9063,93.5 88.3281,93.5 L90.6875,93.5 C91.0469,93.5 91.2656,93.4688 91.4063,93.375 C91.6563,93.2344 91.8125,92.9375 91.8125,92.6563 C91.8125,92.375 91.6719,92.125 91.4531,91.9688 C91.2813,91.8281 91.125,91.7969 90.6563,91.7969 L87.2656,83.5938 L83.5938,83.5938 C83.1406,83.5938 83.0156,83.6094 82.8594,83.7031 C82.6094,83.875 82.4531,84.1563 82.4531,84.4375 C82.4531,84.7188 82.5938,84.9688 82.8125,85.1406 C82.9844,85.25 83.1563,85.2813 83.5938,85.2813 L84.6719,85.2813 L82.0313,91.7969 C81.6094,91.7969 81.4531,91.8125 81.2969,91.9219 C81.0469,92.0781 80.8906,92.3594 80.8906,92.6563 C80.8906,93.2188 81.2656,93.5 82.0156,93.5 L84.2813,93.5 C84.6406,93.5 84.8594,93.4688 84.9844,93.375 C85.25,93.2344 85.3906,92.9375 85.3906,92.6563 C85.3906,92.375 85.2656,92.125 85.0469,91.9531 C84.875,91.8281 84.7344,91.7969 84.2813,91.7969 L83.8906,91.7969 L84.2813,90.8125 L88.3281,90.8125 Z M87.625,89.1094 L84.9531,89.1094 L86.2969,85.8438 L87.625,89.1094 Z "/><text fill="#000000" font-family="sans-serif" font-size="12" font-style="italic" lengthAdjust="spacingAndGlyphs" textLength="58" x="106.75" y="93.1543">ColorView</text><line style="stroke: #A80036; stroke-width: 1.5;" x1="40" x2="199" y1="105" y2="105"/><ellipse cx="50" cy="116" fill="none" rx="3" ry="3" style="stroke: #038048; stroke-width: 1.0;"/><text fill="#000000" font-family="sans-serif" font-size="11" lengthAdjust="spacingAndGlyphs" text-decoration="underline" textLength="89" x="59" y="119.2104">INITIALS: char []</text><line style="stroke: #A80036; stroke-width: 1.5;" x1="40" x2="199" y1="125.8047" y2="125.8047"/><polygon fill="#FFFF44" points="50,131.8047,54,135.8047,50,139.8047,46,135.8047" style="stroke: #B38D22; stroke-width: 1.0;"/><text fill="#000000" font-family="sans-serif" font-size="11" lengthAdjust="spacingAndGlyphs" textLength="65" x="59" y="140.0151">ColorView()</text><polygon fill="#FFFF44" points="50,144.6094,54,148.6094,50,152.6094,46,148.6094" style="stroke: #B38D22; stroke-width: 1.0;"/><text fill="#000000" font-family="sans-serif" font-size="11" lengthAdjust="spacingAndGlyphs" textLength="94" x="59" y="152.8198">ColorView(Color)</text><ellipse cx="50" cy="162.4141" fill="#84BE84" rx="3" ry="3" style="stroke: #038048; stroke-width: 1.0;"/><text fill="#000000" font-family="sans-serif" font-size="11" lengthAdjust="spacingAndGlyphs" textLength="97" x="59" y="165.6245">allInitials(): String</text><polygon fill="#FFFF44" points="50,170.2188,54,174.2188,50,178.2188,46,174.2188" style="stroke: #B38D22; stroke-width: 1.0;"/><text fill="#000000" font-family="sans-serif" font-size="11" font-style="italic" lengthAdjust="spacingAndGlyphs" textLength="131" x="59" y="178.4292">resultInitials(int): String</text><ellipse cx="50" cy="188.0234" fill="#84BE84" rx="3" ry="3" style="stroke: #038048; stroke-width: 1.0;"/><text fill="#000000" font-family="sans-serif" font-size="11" lengthAdjust="spacingAndGlyphs" text-decoration="underline" textLength="135" x="59" y="191.2339">getInstance(char): Color</text><!--MD5=[bd953d99961dd365a3924fc1e98cf727]
class usantatecla.mastermind.views.ErrorView--><rect codeLine="15" fill="#FEFECE" filter="url(#f1frjx3dmxdryn)" height="99.2188" id="usantatecla.mastermind.views.ErrorView" style="stroke: #A80036; stroke-width: 1.5;" width="145" x="443" y="86"/><ellipse cx="482.75" cy="102" fill="#A9DCDF" rx="11" ry="11" style="stroke: #A80036; stroke-width: 1.0;"/><path d="M484.8281,103.8125 L485.2188,104.7969 L484.8281,104.7969 C484.375,104.7969 484.2656,104.8125 484.1094,104.9219 C483.8594,105.0781 483.7031,105.3594 483.7031,105.6563 C483.7031,105.9219 483.8438,106.1719 484.0625,106.3281 C484.2031,106.4531 484.4063,106.5 484.8281,106.5 L487.1875,106.5 C487.5469,106.5 487.7656,106.4688 487.9063,106.375 C488.1563,106.2344 488.3125,105.9375 488.3125,105.6563 C488.3125,105.375 488.1719,105.125 487.9531,104.9688 C487.7813,104.8281 487.625,104.7969 487.1563,104.7969 L483.7656,96.5938 L480.0938,96.5938 C479.6406,96.5938 479.5156,96.6094 479.3594,96.7031 C479.1094,96.875 478.9531,97.1563 478.9531,97.4375 C478.9531,97.7188 479.0938,97.9688 479.3125,98.1406 C479.4844,98.25 479.6563,98.2813 480.0938,98.2813 L481.1719,98.2813 L478.5313,104.7969 C478.1094,104.7969 477.9531,104.8125 477.7969,104.9219 C477.5469,105.0781 477.3906,105.3594 477.3906,105.6563 C477.3906,106.2188 477.7656,106.5 478.5156,106.5 L480.7813,106.5 C481.1406,106.5 481.3594,106.4688 481.4844,106.375 C481.75,106.2344 481.8906,105.9375 481.8906,105.6563 C481.8906,105.375 481.7656,105.125 481.5469,104.9531 C481.375,104.8281 481.2344,104.7969 480.7813,104.7969 L480.3906,104.7969 L480.7813,103.8125 L484.8281,103.8125 Z M484.125,102.1094 L481.4531,102.1094 L482.7969,98.8438 L484.125,102.1094 Z "/><text fill="#000000" font-family="sans-serif" font-size="12" font-style="italic" lengthAdjust="spacingAndGlyphs" textLength="58" x="502.25" y="106.1543">ErrorView</text><line style="stroke: #A80036; stroke-width: 1.5;" x1="444" x2="587" y1="118" y2="118"/><ellipse cx="454" cy="129" fill="none" rx="3" ry="3" style="stroke: #038048; stroke-width: 1.0;"/><text fill="#000000" font-family="sans-serif" font-size="11" lengthAdjust="spacingAndGlyphs" textLength="116" x="463" y="132.2104">MESSAGES: String []</text><line style="stroke: #A80036; stroke-width: 1.5;" x1="444" x2="587" y1="138.8047" y2="138.8047"/><polygon fill="#FFFF44" points="454,144.8047,458,148.8047,454,152.8047,450,148.8047" style="stroke: #B38D22; stroke-width: 1.0;"/><text fill="#000000" font-family="sans-serif" font-size="11" lengthAdjust="spacingAndGlyphs" textLength="62" x="463" y="153.0151">ErrorView()</text><ellipse cx="454" cy="162.6094" fill="#84BE84" rx="3" ry="3" style="stroke: #038048; stroke-width: 1.0;"/><text fill="#000000" font-family="sans-serif" font-size="11" lengthAdjust="spacingAndGlyphs" textLength="119" x="463" y="165.8198">ErrorView(Error error)</text><polygon fill="#FFFF44" points="454,170.4141,458,174.4141,454,178.4141,450,174.4141" style="stroke: #B38D22; stroke-width: 1.0;"/><text fill="#000000" font-family="sans-serif" font-size="11" font-style="italic" lengthAdjust="spacingAndGlyphs" textLength="113" x="463" y="178.6245">colorInitials(): String</text><!--MD5=[869bb932d54482a0e6fc3ac31d21d51b]
class usantatecla.mastermind.views.MessageView--><rect codeLine="23" fill="#FEFECE" filter="url(#f1frjx3dmxdryn)" height="188.8516" id="usantatecla.mastermind.views.MessageView" style="stroke: #A80036; stroke-width: 1.5;" width="173" x="235" y="41"/><ellipse cx="275.65" cy="57" fill="#EB937F" rx="11" ry="11" style="stroke: #A80036; stroke-width: 1.0;"/><path d="M274.4469,57.875 L275.9,57.875 L275.9,57.9844 C275.9,58.3906 275.9313,58.5469 276.0094,58.7031 C276.1656,58.9531 276.4469,59.1094 276.7438,59.1094 C276.9938,59.1094 277.2594,58.9688 277.4156,58.75 C277.5406,58.5938 277.5719,58.4375 277.5719,57.9844 L277.5719,56.0625 C277.5719,55.9063 277.5719,55.8594 277.5563,55.7031 C277.4938,55.2344 277.1813,54.9219 276.7281,54.9219 C276.4781,54.9219 276.2125,55.0625 276.0406,55.2813 C275.9313,55.4531 275.9,55.6094 275.9,56.0625 L275.9,56.1875 L274.4469,56.1875 L274.4469,53.7813 L278.4313,53.7813 L278.4313,54.6406 C278.4313,55.0469 278.4625,55.2188 278.5406,55.375 C278.7125,55.625 278.9938,55.7813 279.275,55.7813 C279.5406,55.7813 279.8063,55.6406 279.9781,55.4219 C280.0875,55.25 280.1188,55.1094 280.1188,54.6406 L280.1188,52.0938 L272.4938,52.0938 C272.0563,52.0938 271.9313,52.1094 271.775,52.2031 C271.525,52.3594 271.3688,52.6563 271.3688,52.9375 C271.3688,53.2188 271.5094,53.4688 271.7281,53.6406 C271.8844,53.75 272.0719,53.7813 272.4938,53.7813 L272.7438,53.7813 L272.7438,60.2969 L272.4938,60.2969 C272.0875,60.2969 271.9313,60.3125 271.775,60.4219 C271.525,60.5938 271.3688,60.8594 271.3688,61.1563 C271.3688,61.4219 271.5094,61.6719 271.7281,61.8281 C271.8688,61.9531 272.1031,62 272.4938,62 L280.4938,62 L280.4938,59.4219 C280.4938,58.9844 280.4625,58.8438 280.3844,58.6875 C280.2125,58.4375 279.9313,58.2813 279.65,58.2813 C279.3844,58.2813 279.1188,58.3906 278.9469,58.6406 C278.8375,58.7969 278.8063,58.9375 278.8063,59.4219 L278.8063,60.2969 L274.4469,60.2969 L274.4469,57.875 Z "/><text fill="#000000" font-family="sans-serif" font-size="12" lengthAdjust="spacingAndGlyphs" textLength="84" x="295.35" y="61.1543">MessageView</text><line style="stroke: #A80036; stroke-width: 1.5;" x1="236" x2="407" y1="73" y2="73"/><ellipse cx="246" cy="84" fill="none" rx="3" ry="3" style="stroke: #038048; stroke-width: 1.0;"/><text fill="#000000" font-family="sans-serif" font-size="11" lengthAdjust="spacingAndGlyphs" textLength="59" x="255" y="87.2104">ATTEMPTS</text><ellipse cx="246" cy="96.8047" fill="none" rx="3" ry="3" style="stroke: #038048; stroke-width: 1.0;"/><text fill="#000000" font-family="sans-serif" font-size="11" lengthAdjust="spacingAndGlyphs" textLength="44" x="255" y="100.0151">SECRET</text><ellipse cx="246" cy="109.6094" fill="none" rx="3" ry="3" style="stroke: #038048; stroke-width: 1.0;"/><text fill="#000000" font-family="sans-serif" font-size="11" lengthAdjust="spacingAndGlyphs" textLength="46" x="255" y="112.8198">RESUME</text><ellipse cx="246" cy="122.4141" fill="none" rx="3" ry="3" style="stroke: #038048; stroke-width: 1.0;"/><text fill="#000000" font-family="sans-serif" font-size="11" lengthAdjust="spacingAndGlyphs" textLength="43" x="255" y="125.6245">RESULT</text><ellipse cx="246" cy="135.2188" fill="none" rx="3" ry="3" style="stroke: #038048; stroke-width: 1.0;"/><text fill="#000000" font-family="sans-serif" font-size="11" lengthAdjust="spacingAndGlyphs" textLength="147" x="255" y="138.4292">PROPOSED_COMBINATION</text><ellipse cx="246" cy="148.0234" fill="none" rx="3" ry="3" style="stroke: #038048; stroke-width: 1.0;"/><text fill="#000000" font-family="sans-serif" font-size="11" lengthAdjust="spacingAndGlyphs" textLength="30" x="255" y="151.2339">TITLE</text><ellipse cx="246" cy="160.8281" fill="none" rx="3" ry="3" style="stroke: #038048; stroke-width: 1.0;"/><text fill="#000000" font-family="sans-serif" font-size="11" lengthAdjust="spacingAndGlyphs" textLength="44" x="255" y="164.0386">WINNER</text><ellipse cx="246" cy="173.6328" fill="none" rx="3" ry="3" style="stroke: #038048; stroke-width: 1.0;"/><text fill="#000000" font-family="sans-serif" font-size="11" lengthAdjust="spacingAndGlyphs" textLength="46" x="255" y="176.8433">LOOSER</text><rect fill="none" height="6" style="stroke: #C82930; stroke-width: 1.0;" width="6" x="243" y="183.4375"/><text fill="#000000" font-family="sans-serif" font-size="11" lengthAdjust="spacingAndGlyphs" textLength="93" x="255" y="189.6479">message: String</text><line style="stroke: #A80036; stroke-width: 1.5;" x1="236" x2="407" y1="196.2422" y2="196.2422"/><rect fill="#F24D5C" height="6" style="stroke: #C82930; stroke-width: 1.0;" width="6" x="243" y="204.2422"/><text fill="#000000" font-family="sans-serif" font-size="11" lengthAdjust="spacingAndGlyphs" textLength="120" x="255" y="210.4526">MessageView(String)</text><ellipse cx="246" cy="220.0469" fill="#84BE84" rx="3" ry="3" style="stroke: #038048; stroke-width: 1.0;"/><text fill="#000000" font-family="sans-serif" font-size="11" lengthAdjust="spacingAndGlyphs" textLength="118" x="255" y="223.2573">getMessage(): String</text><!--MD5=[f5534db0476bcf0d5af6a596dc954aba]
class usantatecla.mastermind.views.View--><rect codeLine="37" fill="#FEFECE" filter="url(#f1frjx3dmxdryn)" height="112.0234" id="usantatecla.mastermind.views.View" style="stroke: #A80036; stroke-width: 1.5;" width="154" x="623.5" y="79.5"/><ellipse cx="682.25" cy="95.5" fill="#A9DCDF" rx="11" ry="11" style="stroke: #A80036; stroke-width: 1.0;"/><path d="M684.3281,97.3125 L684.7188,98.2969 L684.3281,98.2969 C683.875,98.2969 683.7656,98.3125 683.6094,98.4219 C683.3594,98.5781 683.2031,98.8594 683.2031,99.1563 C683.2031,99.4219 683.3438,99.6719 683.5625,99.8281 C683.7031,99.9531 683.9063,100 684.3281,100 L686.6875,100 C687.0469,100 687.2656,99.9688 687.4063,99.875 C687.6563,99.7344 687.8125,99.4375 687.8125,99.1563 C687.8125,98.875 687.6719,98.625 687.4531,98.4688 C687.2813,98.3281 687.125,98.2969 686.6563,98.2969 L683.2656,90.0938 L679.5938,90.0938 C679.1406,90.0938 679.0156,90.1094 678.8594,90.2031 C678.6094,90.375 678.4531,90.6563 678.4531,90.9375 C678.4531,91.2188 678.5938,91.4688 678.8125,91.6406 C678.9844,91.75 679.1563,91.7813 679.5938,91.7813 L680.6719,91.7813 L678.0313,98.2969 C677.6094,98.2969 677.4531,98.3125 677.2969,98.4219 C677.0469,98.5781 676.8906,98.8594 676.8906,99.1563 C676.8906,99.7188 677.2656,100 678.0156,100 L680.2813,100 C680.6406,100 680.8594,99.9688 680.9844,99.875 C681.25,99.7344 681.3906,99.4375 681.3906,99.1563 C681.3906,98.875 681.2656,98.625 681.0469,98.4531 C680.875,98.3281 680.7344,98.2969 680.2813,98.2969 L679.8906,98.2969 L680.2813,97.3125 L684.3281,97.3125 Z M683.625,95.6094 L680.9531,95.6094 L682.2969,92.3438 L683.625,95.6094 Z "/><text fill="#000000" font-family="sans-serif" font-size="12" font-style="italic" lengthAdjust="spacingAndGlyphs" textLength="28" x="702.75" y="99.6543">View</text><line style="stroke: #A80036; stroke-width: 1.5;" x1="624.5" x2="776.5" y1="111.5" y2="111.5"/><line style="stroke: #A80036; stroke-width: 1.5;" x1="624.5" x2="776.5" y1="119.5" y2="119.5"/><ellipse cx="634.5" cy="130.5" fill="#84BE84" rx="3" ry="3" style="stroke: #038048; stroke-width: 1.0;"/><text fill="#000000" font-family="sans-serif" font-size="11" lengthAdjust="spacingAndGlyphs" textLength="71" x="643.5" y="133.7104">View(Game)</text><ellipse cx="634.5" cy="143.3047" fill="#84BE84" rx="3" ry="3" style="stroke: #038048; stroke-width: 1.0;"/><text fill="#000000" font-family="sans-serif" font-size="11" lengthAdjust="spacingAndGlyphs" textLength="51" x="643.5" y="146.5151">interact()</text><polygon fill="#FFFF44" points="634.5,151.1094,638.5,155.1094,634.5,159.1094,630.5,155.1094" style="stroke: #B38D22; stroke-width: 1.0;"/><text fill="#000000" font-family="sans-serif" font-size="11" font-style="italic" lengthAdjust="spacingAndGlyphs" textLength="66" x="643.5" y="159.3198">start(): void</text><polygon fill="#FFFF44" points="634.5,163.9141,638.5,167.9141,634.5,171.9141,630.5,167.9141" style="stroke: #B38D22; stroke-width: 1.0;"/><text fill="#000000" font-family="sans-serif" font-size="11" font-style="italic" lengthAdjust="spacingAndGlyphs" textLength="107" x="643.5" y="172.1245">propose(): boolean</text><polygon fill="#FFFF44" points="634.5,176.7188,638.5,180.7188,634.5,184.7188,630.5,180.7188" style="stroke: #B38D22; stroke-width: 1.0;"/><text fill="#000000" font-family="sans-serif" font-size="11" font-style="italic" lengthAdjust="spacingAndGlyphs" textLength="128" x="643.5" y="184.9292">isNewGame(): boolean</text><!--MD5=[b8cfd8c4119a3b0a7a46bfc5fc780f85]
class Error--><rect codeLine="1" fill="#FEFECE" filter="url(#f1frjx3dmxdryn)" height="53.9375" id="Error" style="stroke: #A80036; stroke-width: 1.5;" width="225" x="365" y="290"/><ellipse cx="380" cy="308.9688" fill="#ADD1B2" rx="11" ry="11" style="stroke: #A80036; stroke-width: 1.0;"/><path d="M382.3438,304.6406 C381.4063,304.2031 380.8125,304.0625 379.9375,304.0625 C377.3125,304.0625 375.3125,306.1406 375.3125,308.8594 L375.3125,309.9844 C375.3125,312.5625 377.4219,314.4531 380.3125,314.4531 C381.5313,314.4531 382.6875,314.1563 383.4375,313.6094 C384.0156,313.2031 384.3438,312.75 384.3438,312.3594 C384.3438,311.9063 383.9531,311.5156 383.4844,311.5156 C383.2656,311.5156 383.0625,311.5938 382.875,311.7813 C382.4219,312.2656 382.4219,312.2656 382.2344,312.3594 C381.8125,312.625 381.125,312.75 380.3594,312.75 C378.3125,312.75 377.0156,311.6563 377.0156,309.9531 L377.0156,308.8594 C377.0156,307.0781 378.2656,305.7656 380,305.7656 C380.5781,305.7656 381.1875,305.9219 381.6563,306.1719 C382.1406,306.4531 382.3125,306.6719 382.4063,307.0781 C382.4688,307.4844 382.5,307.6094 382.6406,307.7344 C382.7813,307.875 383.0156,307.9844 383.2344,307.9844 C383.5,307.9844 383.7656,307.8438 383.9375,307.625 C384.0469,307.4688 384.0781,307.2813 384.0781,306.8594 L384.0781,305.4375 C384.0781,305 384.0625,304.875 383.9688,304.7188 C383.8125,304.4531 383.5313,304.3125 383.2344,304.3125 C382.9375,304.3125 382.7344,304.4063 382.5156,304.7188 L382.3438,304.6406 Z "/><text fill="#000000" font-family="sans-serif" font-size="12" lengthAdjust="spacingAndGlyphs" textLength="193" x="394" y="306.1387">usantatecla.mastermind.models.</text><text fill="#000000" font-family="sans-serif" font-size="12" lengthAdjust="spacingAndGlyphs" textLength="30" x="475.5" y="320.1074">Error</text><line style="stroke: #A80036; stroke-width: 1.5;" x1="366" x2="589" y1="327.9375" y2="327.9375"/><line style="stroke: #A80036; stroke-width: 1.5;" x1="366" x2="589" y1="335.9375" y2="335.9375"/><!--MD5=[18eee71c88ab61f27581b8cbdd3ef5ee]
class Color--><rect codeLine="2" fill="#FEFECE" filter="url(#f1frjx3dmxdryn)" height="53.9375" id="Color" style="stroke: #A80036; stroke-width: 1.5;" width="225" x="7" y="290"/><ellipse cx="22" cy="308.9688" fill="#ADD1B2" rx="11" ry="11" style="stroke: #A80036; stroke-width: 1.0;"/><path d="M24.3438,304.6406 C23.4063,304.2031 22.8125,304.0625 21.9375,304.0625 C19.3125,304.0625 17.3125,306.1406 17.3125,308.8594 L17.3125,309.9844 C17.3125,312.5625 19.4219,314.4531 22.3125,314.4531 C23.5313,314.4531 24.6875,314.1563 25.4375,313.6094 C26.0156,313.2031 26.3438,312.75 26.3438,312.3594 C26.3438,311.9063 25.9531,311.5156 25.4844,311.5156 C25.2656,311.5156 25.0625,311.5938 24.875,311.7813 C24.4219,312.2656 24.4219,312.2656 24.2344,312.3594 C23.8125,312.625 23.125,312.75 22.3594,312.75 C20.3125,312.75 19.0156,311.6563 19.0156,309.9531 L19.0156,308.8594 C19.0156,307.0781 20.2656,305.7656 22,305.7656 C22.5781,305.7656 23.1875,305.9219 23.6563,306.1719 C24.1406,306.4531 24.3125,306.6719 24.4063,307.0781 C24.4688,307.4844 24.5,307.6094 24.6406,307.7344 C24.7813,307.875 25.0156,307.9844 25.2344,307.9844 C25.5,307.9844 25.7656,307.8438 25.9375,307.625 C26.0469,307.4688 26.0781,307.2813 26.0781,306.8594 L26.0781,305.4375 C26.0781,305 26.0625,304.875 25.9688,304.7188 C25.8125,304.4531 25.5313,304.3125 25.2344,304.3125 C24.9375,304.3125 24.7344,304.4063 24.5156,304.7188 L24.3438,304.6406 Z "/><text fill="#000000" font-family="sans-serif" font-size="12" lengthAdjust="spacingAndGlyphs" textLength="193" x="36" y="306.1387">usantatecla.mastermind.models.</text><text fill="#000000" font-family="sans-serif" font-size="12" lengthAdjust="spacingAndGlyphs" textLength="32" x="116.5" y="320.1074">Color</text><line style="stroke: #A80036; stroke-width: 1.5;" x1="8" x2="231" y1="327.9375" y2="327.9375"/><line style="stroke: #A80036; stroke-width: 1.5;" x1="8" x2="231" y1="335.9375" y2="335.9375"/><!--MD5=[b6dcce5e5ef3c84b0b048d11301373dd]
class Game--><rect codeLine="3" fill="#FEFECE" filter="url(#f1frjx3dmxdryn)" height="53.9375" id="Game" style="stroke: #A80036; stroke-width: 1.5;" width="225" x="625" y="290"/><ellipse cx="640" cy="308.9688" fill="#ADD1B2" rx="11" ry="11" style="stroke: #A80036; stroke-width: 1.0;"/><path d="M642.3438,304.6406 C641.4063,304.2031 640.8125,304.0625 639.9375,304.0625 C637.3125,304.0625 635.3125,306.1406 635.3125,308.8594 L635.3125,309.9844 C635.3125,312.5625 637.4219,314.4531 640.3125,314.4531 C641.5313,314.4531 642.6875,314.1563 643.4375,313.6094 C644.0156,313.2031 644.3438,312.75 644.3438,312.3594 C644.3438,311.9063 643.9531,311.5156 643.4844,311.5156 C643.2656,311.5156 643.0625,311.5938 642.875,311.7813 C642.4219,312.2656 642.4219,312.2656 642.2344,312.3594 C641.8125,312.625 641.125,312.75 640.3594,312.75 C638.3125,312.75 637.0156,311.6563 637.0156,309.9531 L637.0156,308.8594 C637.0156,307.0781 638.2656,305.7656 640,305.7656 C640.5781,305.7656 641.1875,305.9219 641.6563,306.1719 C642.1406,306.4531 642.3125,306.6719 642.4063,307.0781 C642.4688,307.4844 642.5,307.6094 642.6406,307.7344 C642.7813,307.875 643.0156,307.9844 643.2344,307.9844 C643.5,307.9844 643.7656,307.8438 643.9375,307.625 C644.0469,307.4688 644.0781,307.2813 644.0781,306.8594 L644.0781,305.4375 C644.0781,305 644.0625,304.875 643.9688,304.7188 C643.8125,304.4531 643.5313,304.3125 643.2344,304.3125 C642.9375,304.3125 642.7344,304.4063 642.5156,304.7188 L642.3438,304.6406 Z "/><text fill="#000000" font-family="sans-serif" font-size="12" lengthAdjust="spacingAndGlyphs" textLength="193" x="654" y="306.1387">usantatecla.mastermind.models.</text><text fill="#000000" font-family="sans-serif" font-size="12" lengthAdjust="spacingAndGlyphs" textLength="35" x="733" y="320.1074">Game</text><line style="stroke: #A80036; stroke-width: 1.5;" x1="626" x2="849" y1="327.9375" y2="327.9375"/><line style="stroke: #A80036; stroke-width: 1.5;" x1="626" x2="849" y1="335.9375" y2="335.9375"/><!--MD5=[037b2a79b64666ba83d382cd2f7d163f]
link usantatecla.mastermind.views.ColorView to Color--><path codeLine="13" d="M119.5,210.023 C119.5,210.023 119.5,257.296 119.5,276.5153 " fill="none" id="usantatecla.mastermind.views.ColorView-Color" style="stroke: #A80036; stroke-width: 1.0;"/><polygon fill="#A80036" points="119.5,289.6242,123.5,280.6242,119.5,284.6242,115.5,280.6242,119.5,289.6242" style="stroke: #A80036; stroke-width: 1.0;"/><line style="stroke: #A80036; stroke-width: 1.0;" x1="119.5" x2="119.5" y1="284.6242" y2="276.6242"/><polygon fill="#A80036" points="119.5,198.023,115.5,204.023,119.5,210.023,123.5,204.023,119.5,198.023" style="stroke: #A80036; stroke-width: 1.0;"/><!--MD5=[41b24afec43bb3213296ed92b425fcbe]
link usantatecla.mastermind.views.ErrorView to Error--><path codeLine="21" d="M502.7314,196.8147 C502.7314,196.8147 490.607,254.0871 485.726,277.1429 " fill="none" id="usantatecla.mastermind.views.ErrorView-Error" style="stroke: #A80036; stroke-width: 1.0;"/><polygon fill="#A80036" points="483.032,289.8669,488.8094,281.8906,484.0676,284.9753,480.9829,280.2336,483.032,289.8669" style="stroke: #A80036; stroke-width: 1.0;"/><line style="stroke: #A80036; stroke-width: 1.0;" x1="484.0676" x2="485.725" y1="284.9753" y2="277.1488"/><polygon fill="#A80036" points="505.217,185.075,500.0609,190.1163,502.7314,196.8147,507.8874,191.7734,505.217,185.075" style="stroke: #A80036; stroke-width: 1.0;"/><!--MD5=[aa08d413cb14e320a155507437df65be]
link usantatecla.mastermind.views.View to Game--><path codeLine="44" d="M714.3266,203.5737 C714.3266,203.5737 725.05,255.6014 729.394,276.6737 " fill="none" id="usantatecla.mastermind.views.View-Game" style="stroke: #A80036; stroke-width: 1.0;"/><polygon fill="#A80036" points="732.068,289.6498,734.1685,280.0275,731.0585,284.7528,726.3332,281.6428,732.068,289.6498" style="stroke: #A80036; stroke-width: 1.0;"/><line style="stroke: #A80036; stroke-width: 1.0;" x1="731.0585" x2="729.444" y1="284.7528" y2="276.9174"/><polygon fill="#A80036" points="711.903,191.821,709.1972,198.5052,714.3266,203.5737,717.0324,196.8895,711.903,191.821" style="stroke: #A80036; stroke-width: 1.0;"/><!--MD5=[88647613d568e787aee8fe923d0a2ace]
@startuml
class Error as "usantatecla.mastermind.models.\nError"{}
class Color as "usantatecla.mastermind.models.\nColor"{}
class Game as "usantatecla.mastermind.models.\nGame"{}

abstract class usantatecla.mastermind.views.ColorView{
    + {static} INITIALS: char []
    # ColorView()
    # ColorView(Color)
    + allInitials(): String
    # {abstract} resultInitials(int): String
    + {static} getInstance(char): Color
}
usantatecla.mastermind.views.ColorView *-down-> Color

abstract class usantatecla.mastermind.views.ErrorView{
    + MESSAGES: String []
    # ErrorView()
    + ErrorView(Error error)
    # {abstract} colorInitials(): String
}
usantatecla.mastermind.views.ErrorView *-down-> Error

enum usantatecla.mastermind.views.MessageView{
    + ATTEMPTS
    + SECRET
    + RESUME
    + RESULT
    + PROPOSED_COMBINATION
    + TITLE
    + WINNER
    + LOOSER
    - message: String
    - MessageView(String)
    + getMessage(): String
}

abstract class usantatecla.mastermind.views.View {
    + View(Game)
    + interact()
    # {abstract} start(): void
    # {abstract} propose(): boolean
    # {abstract} isNewGame(): boolean
}
usantatecla.mastermind.views.View *-down-> Game
@enduml

PlantUML version 1.2020.20beta7(Unknown compile time)
(GPL source distribution)
Java Runtime: Java(TM) SE Runtime Environment
JVM: Java HotSpot(TM) 64-Bit Server VM
Default Encoding: UTF-8
Language: en
Country: US
--></g></svg>