<?xml version="1.0" encoding="UTF-8" standalone="no"?><svg xmlns="http://www.w3.org/2000/svg" xmlns:xlink="http://www.w3.org/1999/xlink" contentScriptType="application/ecmascript" contentStyleType="text/css" height="1184px" preserveAspectRatio="none" style="width:1439px;height:1184px;" version="1.1" viewBox="0 0 1439 1184" width="1439px" zoomAndPan="magnify"><defs><filter height="300%" id="f6plrvzzeut9k" width="300%" x="-1" y="-1"><feGaussianBlur result="blurOut" stdDeviation="2.0"/><feColorMatrix in="blurOut" result="blurOut2" type="matrix" values="0 0 0 0 0 0 0 0 0 0 0 0 0 0 0 0 0 0 .4 0"/><feOffset dx="4.0" dy="4.0" in="blurOut2" result="blurOut3"/><feBlend in="SourceGraphic" in2="blurOut3" mode="normal"/></filter></defs><g><!--MD5=[9be0839337cfdab5d118a2e29cf0a8c4]
cluster usantatecla.mastermind--><polygon fill="#FFFFFF" filter="url(#f6plrvzzeut9k)" points="121.5561,6,328.5561,6,335.5561,28.2969,1068.5559,28.2969,1068.5559,1066,121.5561,1066,121.5561,6" style="stroke: #000000; stroke-width: 1.5;"/><line style="stroke: #000000; stroke-width: 1.5;" x1="121.5561" x2="335.5561" y1="28.2969" y2="28.2969"/><text fill="#000000" font-family="sans-serif" font-size="14" font-weight="bold" lengthAdjust="spacingAndGlyphs" textLength="201" x="125.5561" y="20.9951">usantatecla.mastermind</text><!--MD5=[908cbfa8709a8ec6ee3beb0409fea32c]
cluster usantatecla.utils--><polygon fill="#FFFFFF" filter="url(#f6plrvzzeut9k)" points="1092.5559,877.5,1238.5559,877.5,1245.5559,899.7969,1363.5529,899.7969,1363.5529,1177,1092.5559,1177,1092.5559,877.5" style="stroke: #000000; stroke-width: 1.5;"/><line style="stroke: #000000; stroke-width: 1.5;" x1="1092.5559" x2="1245.5559" y1="899.7969" y2="899.7969"/><text fill="#000000" font-family="sans-serif" font-size="14" font-weight="bold" lengthAdjust="spacingAndGlyphs" textLength="140" x="1096.5559" y="892.4951">usantatecla.utils</text><!--MD5=[7283a9eed84464550b6d5ebf39c68b05]
class Mastermind--><rect codeLine="2" fill="#FEFECE" filter="url(#f6plrvzzeut9k)" height="112.0234" id="Mastermind" style="stroke: #A80036; stroke-width: 1.5;" width="185" x="239.0559" y="41"/><ellipse cx="292.3059" cy="57" fill="#ADD1B2" rx="11" ry="11" style="stroke: #A80036; stroke-width: 1.0;"/><path d="M294.6497,52.6719 C293.7122,52.2344 293.1184,52.0938 292.2434,52.0938 C289.6184,52.0938 287.6184,54.1719 287.6184,56.8906 L287.6184,58.0156 C287.6184,60.5938 289.7278,62.4844 292.6184,62.4844 C293.8372,62.4844 294.9934,62.1875 295.7434,61.6406 C296.3215,61.2344 296.6497,60.7813 296.6497,60.3906 C296.6497,59.9375 296.259,59.5469 295.7903,59.5469 C295.5715,59.5469 295.3684,59.625 295.1809,59.8125 C294.7278,60.2969 294.7278,60.2969 294.5403,60.3906 C294.1184,60.6563 293.4309,60.7813 292.6653,60.7813 C290.6184,60.7813 289.3215,59.6875 289.3215,57.9844 L289.3215,56.8906 C289.3215,55.1094 290.5715,53.7969 292.3059,53.7969 C292.884,53.7969 293.4934,53.9531 293.9622,54.2031 C294.4465,54.4844 294.6184,54.7031 294.7122,55.1094 C294.7747,55.5156 294.8059,55.6406 294.9465,55.7656 C295.0872,55.9063 295.3215,56.0156 295.5403,56.0156 C295.8059,56.0156 296.0715,55.875 296.2434,55.6563 C296.3528,55.5 296.384,55.3125 296.384,54.8906 L296.384,53.4688 C296.384,53.0313 296.3684,52.9063 296.2747,52.75 C296.1184,52.4844 295.8372,52.3438 295.5403,52.3438 C295.2434,52.3438 295.0403,52.4375 294.8215,52.75 L294.6497,52.6719 Z "/><text fill="#000000" font-family="sans-serif" font-size="12" lengthAdjust="spacingAndGlyphs" textLength="70" x="312.8059" y="61.1543">Mastermind</text><line style="stroke: #A80036; stroke-width: 1.5;" x1="240.0559" x2="423.0559" y1="73" y2="73"/><rect fill="none" height="6" style="stroke: #C82930; stroke-width: 1.0;" width="6" x="247.0559" y="81"/><text fill="#000000" font-family="sans-serif" font-size="11" lengthAdjust="spacingAndGlyphs" textLength="72" x="259.0559" y="87.2104">board: Board</text><line style="stroke: #A80036; stroke-width: 1.5;" x1="240.0559" x2="423.0559" y1="93.8047" y2="93.8047"/><ellipse cx="250.0559" cy="104.8047" fill="#84BE84" rx="3" ry="3" style="stroke: #038048; stroke-width: 1.0;"/><text fill="#000000" font-family="sans-serif" font-size="11" lengthAdjust="spacingAndGlyphs" textLength="32" x="259.0559" y="108.0151">play()</text><rect fill="#F24D5C" height="6" style="stroke: #C82930; stroke-width: 1.0;" width="6" x="247.0559" y="114.6094"/><text fill="#000000" font-family="sans-serif" font-size="11" lengthAdjust="spacingAndGlyphs" textLength="67" x="259.0559" y="120.8198">playGame()</text><rect fill="#F24D5C" height="6" style="stroke: #C82930; stroke-width: 1.0;" width="6" x="247.0559" y="127.4141"/><text fill="#000000" font-family="sans-serif" font-size="11" lengthAdjust="spacingAndGlyphs" textLength="159" x="259.0559" y="133.6245">isResumedGame(): boolean</text><ellipse cx="250.0559" cy="143.2188" fill="#84BE84" rx="3" ry="3" style="stroke: #038048; stroke-width: 1.0;"/><text fill="#000000" font-family="sans-serif" font-size="11" lengthAdjust="spacingAndGlyphs" text-decoration="underline" textLength="77" x="259.0559" y="146.4292">main(String[])</text><!--MD5=[9563755d011c5cec7ec66dc53565a59e]
class Board--><rect codeLine="11" fill="#FEFECE" filter="url(#f6plrvzzeut9k)" height="188.8516" id="Board" style="stroke: #A80036; stroke-width: 1.5;" width="294" x="495.5559" y="230"/><ellipse cx="620.3059" cy="246" fill="#ADD1B2" rx="11" ry="11" style="stroke: #A80036; stroke-width: 1.0;"/><path d="M622.6497,241.6719 C621.7122,241.2344 621.1184,241.0938 620.2434,241.0938 C617.6184,241.0938 615.6184,243.1719 615.6184,245.8906 L615.6184,247.0156 C615.6184,249.5938 617.7278,251.4844 620.6184,251.4844 C621.8372,251.4844 622.9934,251.1875 623.7434,250.6406 C624.3215,250.2344 624.6497,249.7813 624.6497,249.3906 C624.6497,248.9375 624.259,248.5469 623.7903,248.5469 C623.5715,248.5469 623.3684,248.625 623.1809,248.8125 C622.7278,249.2969 622.7278,249.2969 622.5403,249.3906 C622.1184,249.6563 621.4309,249.7813 620.6653,249.7813 C618.6184,249.7813 617.3215,248.6875 617.3215,246.9844 L617.3215,245.8906 C617.3215,244.1094 618.5715,242.7969 620.3059,242.7969 C620.884,242.7969 621.4934,242.9531 621.9622,243.2031 C622.4465,243.4844 622.6184,243.7031 622.7122,244.1094 C622.7747,244.5156 622.8059,244.6406 622.9465,244.7656 C623.0872,244.9063 623.3215,245.0156 623.5403,245.0156 C623.8059,245.0156 624.0715,244.875 624.2434,244.6563 C624.3528,244.5 624.384,244.3125 624.384,243.8906 L624.384,242.4688 C624.384,242.0313 624.3684,241.9063 624.2747,241.75 C624.1184,241.4844 623.8372,241.3438 623.5403,241.3438 C623.2434,241.3438 623.0403,241.4375 622.8215,241.75 L622.6497,241.6719 Z "/><text fill="#000000" font-family="sans-serif" font-size="12" lengthAdjust="spacingAndGlyphs" textLength="36" x="640.8059" y="250.1543">Board</text><line style="stroke: #A80036; stroke-width: 1.5;" x1="496.5559" x2="788.5559" y1="262" y2="262"/><rect fill="none" height="6" style="stroke: #C82930; stroke-width: 1.0;" width="6" x="503.5559" y="270"/><text fill="#000000" font-family="sans-serif" font-size="11" lengthAdjust="spacingAndGlyphs" text-decoration="underline" textLength="104" x="515.5559" y="276.2104">MAX_ATTEMPS: int</text><rect fill="none" height="6" style="stroke: #C82930; stroke-width: 1.0;" width="6" x="503.5559" y="282.8047"/><text fill="#000000" font-family="sans-serif" font-size="11" lengthAdjust="spacingAndGlyphs" textLength="223" x="515.5559" y="289.0151">secretCombination: SecretCombination</text><rect fill="none" height="6" style="stroke: #C82930; stroke-width: 1.0;" width="6" x="503.5559" y="295.6094"/><text fill="#000000" font-family="sans-serif" font-size="11" lengthAdjust="spacingAndGlyphs" textLength="268" x="515.5559" y="301.8198">proposedCombinations: ProposedCombination[]</text><rect fill="none" height="6" style="stroke: #C82930; stroke-width: 1.0;" width="6" x="503.5559" y="308.4141"/><text fill="#000000" font-family="sans-serif" font-size="11" lengthAdjust="spacingAndGlyphs" textLength="88" x="515.5559" y="314.6245">results: Result[]</text><rect fill="none" height="6" style="stroke: #C82930; stroke-width: 1.0;" width="6" x="503.5559" y="321.2188"/><text fill="#000000" font-family="sans-serif" font-size="11" lengthAdjust="spacingAndGlyphs" textLength="72" x="515.5559" y="327.4292">attempts: int</text><line style="stroke: #A80036; stroke-width: 1.5;" x1="496.5559" x2="788.5559" y1="334.0234" y2="334.0234"/><polygon fill="#4177AF" points="506.5559,341.0234,502.5559,347.0234,510.5559,347.0234" style="stroke: #1963A0; stroke-width: 1.0;"/><text fill="#000000" font-family="sans-serif" font-size="11" lengthAdjust="spacingAndGlyphs" textLength="41" x="515.5559" y="348.2339">Board()</text><ellipse cx="506.5559" cy="357.8281" fill="#84BE84" rx="3" ry="3" style="stroke: #038048; stroke-width: 1.0;"/><text fill="#000000" font-family="sans-serif" font-size="11" lengthAdjust="spacingAndGlyphs" textLength="46" x="515.5559" y="361.0386">writeln()</text><ellipse cx="506.5559" cy="370.6328" fill="#84BE84" rx="3" ry="3" style="stroke: #038048; stroke-width: 1.0;"/><text fill="#000000" font-family="sans-serif" font-size="11" lengthAdjust="spacingAndGlyphs" textLength="152" x="515.5559" y="373.8433">add(ProposedCombination)</text><ellipse cx="506.5559" cy="383.4375" fill="#84BE84" rx="3" ry="3" style="stroke: #038048; stroke-width: 1.0;"/><text fill="#000000" font-family="sans-serif" font-size="11" lengthAdjust="spacingAndGlyphs" textLength="117" x="515.5559" y="386.6479">isFinished(): boolean</text><ellipse cx="506.5559" cy="396.2422" fill="#84BE84" rx="3" ry="3" style="stroke: #038048; stroke-width: 1.0;"/><text fill="#000000" font-family="sans-serif" font-size="11" lengthAdjust="spacingAndGlyphs" textLength="110" x="515.5559" y="399.4526">isWinner(): boolean</text><rect fill="#F24D5C" height="6" style="stroke: #C82930; stroke-width: 1.0;" width="6" x="503.5559" y="406.0469"/><text fill="#000000" font-family="sans-serif" font-size="11" lengthAdjust="spacingAndGlyphs" textLength="108" x="515.5559" y="412.2573">isLooser(): boolean</text><!--MD5=[28491d17d5ee38c9c116625a5ffc259a]
class Combination--><rect codeLine="25" fill="#FEFECE" filter="url(#f6plrvzzeut9k)" height="73.6094" id="Combination" style="stroke: #A80036; stroke-width: 1.5;" width="132" x="302.5559" y="287.5"/><ellipse cx="328.3559" cy="303.5" fill="#A9DCDF" rx="11" ry="11" style="stroke: #A80036; stroke-width: 1.0;"/><path d="M330.434,305.3125 L330.8247,306.2969 L330.434,306.2969 C329.9809,306.2969 329.8715,306.3125 329.7153,306.4219 C329.4653,306.5781 329.309,306.8594 329.309,307.1563 C329.309,307.4219 329.4497,307.6719 329.6684,307.8281 C329.809,307.9531 330.0122,308 330.434,308 L332.7934,308 C333.1528,308 333.3715,307.9688 333.5122,307.875 C333.7622,307.7344 333.9184,307.4375 333.9184,307.1563 C333.9184,306.875 333.7778,306.625 333.559,306.4688 C333.3872,306.3281 333.2309,306.2969 332.7622,306.2969 L329.3715,298.0938 L325.6997,298.0938 C325.2465,298.0938 325.1215,298.1094 324.9653,298.2031 C324.7153,298.375 324.559,298.6563 324.559,298.9375 C324.559,299.2188 324.6997,299.4688 324.9184,299.6406 C325.0903,299.75 325.2622,299.7813 325.6997,299.7813 L326.7778,299.7813 L324.1372,306.2969 C323.7153,306.2969 323.559,306.3125 323.4028,306.4219 C323.1528,306.5781 322.9965,306.8594 322.9965,307.1563 C322.9965,307.7188 323.3715,308 324.1215,308 L326.3872,308 C326.7465,308 326.9653,307.9688 327.0903,307.875 C327.3559,307.7344 327.4965,307.4375 327.4965,307.1563 C327.4965,306.875 327.3715,306.625 327.1528,306.4531 C326.9809,306.3281 326.8403,306.2969 326.3872,306.2969 L325.9965,306.2969 L326.3872,305.3125 L330.434,305.3125 Z M329.7309,303.6094 L327.059,303.6094 L328.4028,300.3438 L329.7309,303.6094 Z "/><text fill="#000000" font-family="sans-serif" font-size="12" font-style="italic" lengthAdjust="spacingAndGlyphs" textLength="76" x="344.7559" y="307.6543">Combination</text><line style="stroke: #A80036; stroke-width: 1.5;" x1="303.5559" x2="433.5559" y1="319.5" y2="319.5"/><polygon fill="none" points="313.5559,326.5,309.5559,332.5,317.5559,332.5" style="stroke: #1963A0; stroke-width: 1.0;"/><text fill="#000000" font-family="sans-serif" font-size="11" lengthAdjust="spacingAndGlyphs" textLength="106" x="322.5559" y="333.7104">colors: List&lt;Color&gt;</text><line style="stroke: #A80036; stroke-width: 1.5;" x1="303.5559" x2="433.5559" y1="340.3047" y2="340.3047"/><polygon fill="#4177AF" points="313.5559,347.3047,309.5559,353.3047,317.5559,353.3047" style="stroke: #1963A0; stroke-width: 1.0;"/><text fill="#000000" font-family="sans-serif" font-size="11" lengthAdjust="spacingAndGlyphs" textLength="83" x="322.5559" y="354.5151">Combination ()</text><!--MD5=[e370ee5c0c15ce04544d5f5a73174d72]
class SecretCombination--><rect codeLine="30" fill="#FEFECE" filter="url(#f6plrvzzeut9k)" height="86.4141" id="SecretCombination" style="stroke: #A80036; stroke-width: 1.5;" width="253" x="799.0559" y="586"/><ellipse cx="864.3059" cy="602" fill="#ADD1B2" rx="11" ry="11" style="stroke: #A80036; stroke-width: 1.0;"/><path d="M866.6497,597.6719 C865.7122,597.2344 865.1184,597.0938 864.2434,597.0938 C861.6184,597.0938 859.6184,599.1719 859.6184,601.8906 L859.6184,603.0156 C859.6184,605.5938 861.7278,607.4844 864.6184,607.4844 C865.8372,607.4844 866.9934,607.1875 867.7434,606.6406 C868.3215,606.2344 868.6497,605.7813 868.6497,605.3906 C868.6497,604.9375 868.259,604.5469 867.7903,604.5469 C867.5715,604.5469 867.3684,604.625 867.1809,604.8125 C866.7278,605.2969 866.7278,605.2969 866.5403,605.3906 C866.1184,605.6563 865.4309,605.7813 864.6653,605.7813 C862.6184,605.7813 861.3215,604.6875 861.3215,602.9844 L861.3215,601.8906 C861.3215,600.1094 862.5715,598.7969 864.3059,598.7969 C864.884,598.7969 865.4934,598.9531 865.9622,599.2031 C866.4465,599.4844 866.6184,599.7031 866.7122,600.1094 C866.7747,600.5156 866.8059,600.6406 866.9465,600.7656 C867.0872,600.9063 867.3215,601.0156 867.5403,601.0156 C867.8059,601.0156 868.0715,600.875 868.2434,600.6563 C868.3528,600.5 868.384,600.3125 868.384,599.8906 L868.384,598.4688 C868.384,598.0313 868.3684,597.9063 868.2747,597.75 C868.1184,597.4844 867.8372,597.3438 867.5403,597.3438 C867.2434,597.3438 867.0403,597.4375 866.8215,597.75 L866.6497,597.6719 Z "/><text fill="#000000" font-family="sans-serif" font-size="12" lengthAdjust="spacingAndGlyphs" textLength="114" x="884.8059" y="606.1543">SecretCombination</text><line style="stroke: #A80036; stroke-width: 1.5;" x1="800.0559" x2="1051.0559" y1="618" y2="618"/><line style="stroke: #A80036; stroke-width: 1.5;" x1="800.0559" x2="1051.0559" y1="626" y2="626"/><polygon fill="#4177AF" points="810.0559,633,806.0559,639,814.0559,639" style="stroke: #1963A0; stroke-width: 1.0;"/><text fill="#000000" font-family="sans-serif" font-size="11" lengthAdjust="spacingAndGlyphs" textLength="117" x="819.0559" y="640.2104">SecretCombination()</text><polygon fill="#4177AF" points="810.0559,645.8047,806.0559,651.8047,814.0559,651.8047" style="stroke: #1963A0; stroke-width: 1.0;"/><text fill="#000000" font-family="sans-serif" font-size="11" lengthAdjust="spacingAndGlyphs" textLength="227" x="819.0559" y="653.0151">getResult(ProposedCombination): Result</text><polygon fill="#4177AF" points="810.0559,658.6094,806.0559,664.6094,814.0559,664.6094" style="stroke: #1963A0; stroke-width: 1.0;"/><text fill="#000000" font-family="sans-serif" font-size="11" lengthAdjust="spacingAndGlyphs" textLength="46" x="819.0559" y="665.8198">writeln()</text><!--MD5=[cf489b19c51ee25e76ddca093e62e620]
class ProposedCombination--><rect codeLine="36" fill="#FEFECE" filter="url(#f6plrvzzeut9k)" height="112.0234" id="ProposedCombination" style="stroke: #A80036; stroke-width: 1.5;" width="184" x="174.5561" y="573"/><ellipse cx="198.5561" cy="589" fill="#ADD1B2" rx="11" ry="11" style="stroke: #A80036; stroke-width: 1.0;"/><path d="M200.8999,584.6719 C199.9624,584.2344 199.3686,584.0938 198.4936,584.0938 C195.8686,584.0938 193.8686,586.1719 193.8686,588.8906 L193.8686,590.0156 C193.8686,592.5938 195.978,594.4844 198.8686,594.4844 C200.0874,594.4844 201.2436,594.1875 201.9936,593.6406 C202.5717,593.2344 202.8999,592.7813 202.8999,592.3906 C202.8999,591.9375 202.5092,591.5469 202.0405,591.5469 C201.8217,591.5469 201.6186,591.625 201.4311,591.8125 C200.978,592.2969 200.978,592.2969 200.7905,592.3906 C200.3686,592.6563 199.6811,592.7813 198.9155,592.7813 C196.8686,592.7813 195.5717,591.6875 195.5717,589.9844 L195.5717,588.8906 C195.5717,587.1094 196.8217,585.7969 198.5561,585.7969 C199.1342,585.7969 199.7436,585.9531 200.2124,586.2031 C200.6967,586.4844 200.8686,586.7031 200.9624,587.1094 C201.0249,587.5156 201.0561,587.6406 201.1967,587.7656 C201.3374,587.9063 201.5717,588.0156 201.7905,588.0156 C202.0561,588.0156 202.3217,587.875 202.4936,587.6563 C202.603,587.5 202.6342,587.3125 202.6342,586.8906 L202.6342,585.4688 C202.6342,585.0313 202.6186,584.9063 202.5249,584.75 C202.3686,584.4844 202.0874,584.3438 201.7905,584.3438 C201.4936,584.3438 201.2905,584.4375 201.0717,584.75 L200.8999,584.6719 Z "/><text fill="#000000" font-family="sans-serif" font-size="12" lengthAdjust="spacingAndGlyphs" textLength="132" x="214.5561" y="593.1543">ProposedCombination</text><line style="stroke: #A80036; stroke-width: 1.5;" x1="175.5561" x2="357.5561" y1="605" y2="605"/><line style="stroke: #A80036; stroke-width: 1.5;" x1="175.5561" x2="357.5561" y1="613" y2="613"/><polygon fill="#4177AF" points="185.5561,620,181.5561,626,189.5561,626" style="stroke: #1963A0; stroke-width: 1.0;"/><text fill="#000000" font-family="sans-serif" font-size="11" lengthAdjust="spacingAndGlyphs" textLength="36" x="194.5561" y="627.2104">write()</text><polygon fill="#4177AF" points="185.5561,632.8047,181.5561,638.8047,189.5561,638.8047" style="stroke: #1963A0; stroke-width: 1.0;"/><text fill="#000000" font-family="sans-serif" font-size="11" lengthAdjust="spacingAndGlyphs" textLength="34" x="194.5561" y="640.0151">read()</text><rect fill="#F24D5C" height="6" style="stroke: #C82930; stroke-width: 1.0;" width="6" x="182.5561" y="646.6094"/><text fill="#000000" font-family="sans-serif" font-size="11" lengthAdjust="spacingAndGlyphs" textLength="133" x="194.5561" y="652.8198">checkError(String): Error</text><polygon fill="#4177AF" points="185.5561,658.4141,181.5561,664.4141,189.5561,664.4141" style="stroke: #1963A0; stroke-width: 1.0;"/><text fill="#000000" font-family="sans-serif" font-size="11" lengthAdjust="spacingAndGlyphs" textLength="158" x="194.5561" y="665.6245">contains(Color, int): boolean</text><polygon fill="#4177AF" points="185.5561,671.2188,181.5561,677.2188,189.5561,677.2188" style="stroke: #1963A0; stroke-width: 1.0;"/><text fill="#000000" font-family="sans-serif" font-size="11" lengthAdjust="spacingAndGlyphs" textLength="137" x="194.5561" y="678.4292">contains(Color): boolean</text><!--MD5=[2741598bdf59a7d7e0d5c97658fd3022]
class Result--><rect codeLine="44" fill="#FEFECE" filter="url(#f6plrvzzeut9k)" height="124.8281" id="Result" style="stroke: #A80036; stroke-width: 1.5;" width="136" x="627.5559" y="566.5"/><ellipse cx="673.3059" cy="582.5" fill="#ADD1B2" rx="11" ry="11" style="stroke: #A80036; stroke-width: 1.0;"/><path d="M675.6497,578.1719 C674.7122,577.7344 674.1184,577.5938 673.2434,577.5938 C670.6184,577.5938 668.6184,579.6719 668.6184,582.3906 L668.6184,583.5156 C668.6184,586.0938 670.7278,587.9844 673.6184,587.9844 C674.8372,587.9844 675.9934,587.6875 676.7434,587.1406 C677.3215,586.7344 677.6497,586.2813 677.6497,585.8906 C677.6497,585.4375 677.259,585.0469 676.7903,585.0469 C676.5715,585.0469 676.3684,585.125 676.1809,585.3125 C675.7278,585.7969 675.7278,585.7969 675.5403,585.8906 C675.1184,586.1563 674.4309,586.2813 673.6653,586.2813 C671.6184,586.2813 670.3215,585.1875 670.3215,583.4844 L670.3215,582.3906 C670.3215,580.6094 671.5715,579.2969 673.3059,579.2969 C673.884,579.2969 674.4934,579.4531 674.9622,579.7031 C675.4465,579.9844 675.6184,580.2031 675.7122,580.6094 C675.7747,581.0156 675.8059,581.1406 675.9465,581.2656 C676.0872,581.4063 676.3215,581.5156 676.5403,581.5156 C676.8059,581.5156 677.0715,581.375 677.2434,581.1563 C677.3528,581 677.384,580.8125 677.384,580.3906 L677.384,578.9688 C677.384,578.5313 677.3684,578.4063 677.2747,578.25 C677.1184,577.9844 676.8372,577.8438 676.5403,577.8438 C676.2434,577.8438 676.0403,577.9375 675.8215,578.25 L675.6497,578.1719 Z "/><text fill="#000000" font-family="sans-serif" font-size="12" lengthAdjust="spacingAndGlyphs" textLength="36" x="693.8059" y="586.6543">Result</text><line style="stroke: #A80036; stroke-width: 1.5;" x1="628.5559" x2="762.5559" y1="598.5" y2="598.5"/><ellipse cx="638.5559" cy="609.5" fill="none" rx="3" ry="3" style="stroke: #038048; stroke-width: 1.0;"/><text fill="#000000" font-family="sans-serif" font-size="11" lengthAdjust="spacingAndGlyphs" text-decoration="underline" textLength="59" x="647.5559" y="612.7104">WIDTH: int</text><rect fill="none" height="6" style="stroke: #C82930; stroke-width: 1.0;" width="6" x="635.5559" y="619.3047"/><text fill="#000000" font-family="sans-serif" font-size="11" lengthAdjust="spacingAndGlyphs" textLength="56" x="647.5559" y="625.5151">blacks: int</text><rect fill="none" height="6" style="stroke: #C82930; stroke-width: 1.0;" width="6" x="635.5559" y="632.1094"/><text fill="#000000" font-family="sans-serif" font-size="11" lengthAdjust="spacingAndGlyphs" textLength="58" x="647.5559" y="638.3198">whites: int</text><line style="stroke: #A80036; stroke-width: 1.5;" x1="628.5559" x2="762.5559" y1="644.9141" y2="644.9141"/><polygon fill="#4177AF" points="638.5559,651.9141,634.5559,657.9141,642.5559,657.9141" style="stroke: #1963A0; stroke-width: 1.0;"/><text fill="#000000" font-family="sans-serif" font-size="11" lengthAdjust="spacingAndGlyphs" textLength="78" x="647.5559" y="659.1245">Result(int, int)</text><polygon fill="#4177AF" points="638.5559,664.7188,634.5559,670.7188,642.5559,670.7188" style="stroke: #1963A0; stroke-width: 1.0;"/><text fill="#000000" font-family="sans-serif" font-size="11" lengthAdjust="spacingAndGlyphs" textLength="110" x="647.5559" y="671.9292">isWinner(): boolean</text><polygon fill="#4177AF" points="638.5559,677.5234,634.5559,683.5234,642.5559,683.5234" style="stroke: #1963A0; stroke-width: 1.0;"/><text fill="#000000" font-family="sans-serif" font-size="11" lengthAdjust="spacingAndGlyphs" textLength="46" x="647.5559" y="684.7339">writeln()</text><!--MD5=[18eee71c88ab61f27581b8cbdd3ef5ee]
class Color--><rect codeLine="53" fill="#FEFECE" filter="url(#f6plrvzzeut9k)" height="265.6797" id="Color" style="stroke: #A80036; stroke-width: 1.5;" width="161" x="394.0559" y="496"/><ellipse cx="454.3059" cy="512" fill="#EB937F" rx="11" ry="11" style="stroke: #A80036; stroke-width: 1.0;"/><path d="M453.1028,512.875 L454.5559,512.875 L454.5559,512.9844 C454.5559,513.3906 454.5872,513.5469 454.6653,513.7031 C454.8215,513.9531 455.1028,514.1094 455.3997,514.1094 C455.6497,514.1094 455.9153,513.9688 456.0715,513.75 C456.1965,513.5938 456.2278,513.4375 456.2278,512.9844 L456.2278,511.0625 C456.2278,510.9063 456.2278,510.8594 456.2122,510.7031 C456.1497,510.2344 455.8372,509.9219 455.384,509.9219 C455.134,509.9219 454.8684,510.0625 454.6965,510.2813 C454.5872,510.4531 454.5559,510.6094 454.5559,511.0625 L454.5559,511.1875 L453.1028,511.1875 L453.1028,508.7813 L457.0872,508.7813 L457.0872,509.6406 C457.0872,510.0469 457.1184,510.2188 457.1965,510.375 C457.3684,510.625 457.6497,510.7813 457.9309,510.7813 C458.1965,510.7813 458.4622,510.6406 458.634,510.4219 C458.7434,510.25 458.7747,510.1094 458.7747,509.6406 L458.7747,507.0938 L451.1497,507.0938 C450.7122,507.0938 450.5872,507.1094 450.4309,507.2031 C450.1809,507.3594 450.0247,507.6563 450.0247,507.9375 C450.0247,508.2188 450.1653,508.4688 450.384,508.6406 C450.5403,508.75 450.7278,508.7813 451.1497,508.7813 L451.3997,508.7813 L451.3997,515.2969 L451.1497,515.2969 C450.7434,515.2969 450.5872,515.3125 450.4309,515.4219 C450.1809,515.5938 450.0247,515.8594 450.0247,516.1563 C450.0247,516.4219 450.1653,516.6719 450.384,516.8281 C450.5247,516.9531 450.759,517 451.1497,517 L459.1497,517 L459.1497,514.4219 C459.1497,513.9844 459.1184,513.8438 459.0403,513.6875 C458.8684,513.4375 458.5872,513.2813 458.3059,513.2813 C458.0403,513.2813 457.7747,513.3906 457.6028,513.6406 C457.4934,513.7969 457.4622,513.9375 457.4622,514.4219 L457.4622,515.2969 L453.1028,515.2969 L453.1028,512.875 Z "/><text fill="#000000" font-family="sans-serif" font-size="12" lengthAdjust="spacingAndGlyphs" textLength="32" x="474.8059" y="516.1543">Color</text><line style="stroke: #A80036; stroke-width: 1.5;" x1="395.0559" x2="554.0559" y1="528" y2="528"/><ellipse cx="405.0559" cy="539" fill="none" rx="3" ry="3" style="stroke: #038048; stroke-width: 1.0;"/><text fill="#000000" font-family="sans-serif" font-size="11" lengthAdjust="spacingAndGlyphs" textLength="23" x="414.0559" y="542.2104">RED</text><ellipse cx="405.0559" cy="551.8047" fill="none" rx="3" ry="3" style="stroke: #038048; stroke-width: 1.0;"/><text fill="#000000" font-family="sans-serif" font-size="11" lengthAdjust="spacingAndGlyphs" textLength="29" x="414.0559" y="555.0151">BLUE</text><ellipse cx="405.0559" cy="564.6094" fill="none" rx="3" ry="3" style="stroke: #038048; stroke-width: 1.0;"/><text fill="#000000" font-family="sans-serif" font-size="11" lengthAdjust="spacingAndGlyphs" textLength="46" x="414.0559" y="567.8198">YELLOW</text><ellipse cx="405.0559" cy="577.4141" fill="none" rx="3" ry="3" style="stroke: #038048; stroke-width: 1.0;"/><text fill="#000000" font-family="sans-serif" font-size="11" lengthAdjust="spacingAndGlyphs" textLength="38" x="414.0559" y="580.6245">GREEN</text><ellipse cx="405.0559" cy="590.2188" fill="none" rx="3" ry="3" style="stroke: #038048; stroke-width: 1.0;"/><text fill="#000000" font-family="sans-serif" font-size="11" lengthAdjust="spacingAndGlyphs" textLength="48" x="414.0559" y="593.4292">ORANGE</text><ellipse cx="405.0559" cy="603.0234" fill="none" rx="3" ry="3" style="stroke: #038048; stroke-width: 1.0;"/><text fill="#000000" font-family="sans-serif" font-size="11" lengthAdjust="spacingAndGlyphs" textLength="40" x="414.0559" y="606.2339">PURPLE</text><ellipse cx="405.0559" cy="615.8281" fill="none" rx="3" ry="3" style="stroke: #038048; stroke-width: 1.0;"/><text fill="#000000" font-family="sans-serif" font-size="11" lengthAdjust="spacingAndGlyphs" textLength="73" x="414.0559" y="619.0386">NULL_COLOR</text><rect fill="none" height="6" style="stroke: #C82930; stroke-width: 1.0;" width="6" x="402.0559" y="625.6328"/><text fill="#000000" font-family="sans-serif" font-size="11" lengthAdjust="spacingAndGlyphs" textLength="70" x="414.0559" y="631.8433">initial: String</text><rect fill="none" height="6" style="stroke: #C82930; stroke-width: 1.0;" width="6" x="402.0559" y="638.4375"/><text fill="#000000" font-family="sans-serif" font-size="11" lengthAdjust="spacingAndGlyphs" text-decoration="underline" textLength="121" x="414.0559" y="644.6479">RESET_COLOR: String</text><line style="stroke: #A80036; stroke-width: 1.5;" x1="395.0559" x2="554.0559" y1="651.2422" y2="651.2422"/><rect fill="#F24D5C" height="6" style="stroke: #C82930; stroke-width: 1.0;" width="6" x="402.0559" y="659.2422"/><text fill="#000000" font-family="sans-serif" font-size="11" lengthAdjust="spacingAndGlyphs" textLength="37" x="414.0559" y="665.4526">Color()</text><rect fill="#F24D5C" height="6" style="stroke: #C82930; stroke-width: 1.0;" width="6" x="402.0559" y="672.0469"/><text fill="#000000" font-family="sans-serif" font-size="11" lengthAdjust="spacingAndGlyphs" textLength="61" x="414.0559" y="678.2573">Color(char)</text><polygon fill="#4177AF" points="405.0559,683.8516,401.0559,689.8516,409.0559,689.8516" style="stroke: #1963A0; stroke-width: 1.0;"/><text fill="#000000" font-family="sans-serif" font-size="11" lengthAdjust="spacingAndGlyphs" text-decoration="underline" textLength="103" x="414.0559" y="691.062">getInitials(): String</text><polygon fill="#4177AF" points="405.0559,696.6563,401.0559,702.6563,409.0559,702.6563" style="stroke: #1963A0; stroke-width: 1.0;"/><text fill="#000000" font-family="sans-serif" font-size="11" lengthAdjust="spacingAndGlyphs" text-decoration="underline" textLength="135" x="414.0559" y="703.8667">getInstance(char): Color</text><polygon fill="#4177AF" points="405.0559,709.4609,401.0559,715.4609,409.0559,715.4609" style="stroke: #1963A0; stroke-width: 1.0;"/><text fill="#000000" font-family="sans-serif" font-size="11" lengthAdjust="spacingAndGlyphs" text-decoration="underline" textLength="65" x="414.0559" y="716.6714">length(): int</text><polygon fill="#4177AF" points="405.0559,722.2656,401.0559,728.2656,409.0559,728.2656" style="stroke: #1963A0; stroke-width: 1.0;"/><text fill="#000000" font-family="sans-serif" font-size="11" lengthAdjust="spacingAndGlyphs" text-decoration="underline" textLength="77" x="414.0559" y="729.4761">get(int): Color</text><polygon fill="#4177AF" points="405.0559,735.0703,401.0559,741.0703,409.0559,741.0703" style="stroke: #1963A0; stroke-width: 1.0;"/><text fill="#000000" font-family="sans-serif" font-size="11" lengthAdjust="spacingAndGlyphs" textLength="36" x="414.0559" y="742.2808">write()</text><polygon fill="#4177AF" points="405.0559,747.875,401.0559,753.875,409.0559,753.875" style="stroke: #1963A0; stroke-width: 1.0;"/><text fill="#000000" font-family="sans-serif" font-size="11" lengthAdjust="spacingAndGlyphs" textLength="91" x="414.0559" y="755.0854">isNull(): boolean</text><!--MD5=[b8cfd8c4119a3b0a7a46bfc5fc780f85]
class Error--><rect codeLine="73" fill="#FEFECE" filter="url(#f6plrvzzeut9k)" height="163.2422" id="Error" style="stroke: #A80036; stroke-width: 1.5;" width="152" x="285.5559" y="855"/><ellipse cx="342.3059" cy="871" fill="#EB937F" rx="11" ry="11" style="stroke: #A80036; stroke-width: 1.0;"/><path d="M341.1028,871.875 L342.5559,871.875 L342.5559,871.9844 C342.5559,872.3906 342.5872,872.5469 342.6653,872.7031 C342.8215,872.9531 343.1028,873.1094 343.3997,873.1094 C343.6497,873.1094 343.9153,872.9688 344.0715,872.75 C344.1965,872.5938 344.2278,872.4375 344.2278,871.9844 L344.2278,870.0625 C344.2278,869.9063 344.2278,869.8594 344.2122,869.7031 C344.1497,869.2344 343.8372,868.9219 343.384,868.9219 C343.134,868.9219 342.8684,869.0625 342.6965,869.2813 C342.5872,869.4531 342.5559,869.6094 342.5559,870.0625 L342.5559,870.1875 L341.1028,870.1875 L341.1028,867.7813 L345.0872,867.7813 L345.0872,868.6406 C345.0872,869.0469 345.1184,869.2188 345.1965,869.375 C345.3684,869.625 345.6497,869.7813 345.9309,869.7813 C346.1965,869.7813 346.4622,869.6406 346.634,869.4219 C346.7434,869.25 346.7747,869.1094 346.7747,868.6406 L346.7747,866.0938 L339.1497,866.0938 C338.7122,866.0938 338.5872,866.1094 338.4309,866.2031 C338.1809,866.3594 338.0247,866.6563 338.0247,866.9375 C338.0247,867.2188 338.1653,867.4688 338.384,867.6406 C338.5403,867.75 338.7278,867.7813 339.1497,867.7813 L339.3997,867.7813 L339.3997,874.2969 L339.1497,874.2969 C338.7434,874.2969 338.5872,874.3125 338.4309,874.4219 C338.1809,874.5938 338.0247,874.8594 338.0247,875.1563 C338.0247,875.4219 338.1653,875.6719 338.384,875.8281 C338.5247,875.9531 338.759,876 339.1497,876 L347.1497,876 L347.1497,873.4219 C347.1497,872.9844 347.1184,872.8438 347.0403,872.6875 C346.8684,872.4375 346.5872,872.2813 346.3059,872.2813 C346.0403,872.2813 345.7747,872.3906 345.6028,872.6406 C345.4934,872.7969 345.4622,872.9375 345.4622,873.4219 L345.4622,874.2969 L341.1028,874.2969 L341.1028,871.875 Z "/><text fill="#000000" font-family="sans-serif" font-size="12" lengthAdjust="spacingAndGlyphs" textLength="30" x="362.8059" y="875.1543">Error</text><line style="stroke: #A80036; stroke-width: 1.5;" x1="286.5559" x2="436.5559" y1="887" y2="887"/><ellipse cx="296.5559" cy="898" fill="none" rx="3" ry="3" style="stroke: #038048; stroke-width: 1.0;"/><text fill="#000000" font-family="sans-serif" font-size="11" lengthAdjust="spacingAndGlyphs" textLength="71" x="305.5559" y="901.2104">DUPLICATED</text><ellipse cx="296.5559" cy="910.8047" fill="none" rx="3" ry="3" style="stroke: #038048; stroke-width: 1.0;"/><text fill="#000000" font-family="sans-serif" font-size="11" lengthAdjust="spacingAndGlyphs" textLength="126" x="305.5559" y="914.0151">WRONG_CHARACTERS</text><ellipse cx="296.5559" cy="923.6094" fill="none" rx="3" ry="3" style="stroke: #038048; stroke-width: 1.0;"/><text fill="#000000" font-family="sans-serif" font-size="11" lengthAdjust="spacingAndGlyphs" textLength="95" x="305.5559" y="926.8198">WRONG_LENGTH</text><ellipse cx="296.5559" cy="936.4141" fill="none" rx="3" ry="3" style="stroke: #038048; stroke-width: 1.0;"/><text fill="#000000" font-family="sans-serif" font-size="11" lengthAdjust="spacingAndGlyphs" textLength="71" x="305.5559" y="939.6245">NULL_ERROR</text><rect fill="none" height="6" style="stroke: #C82930; stroke-width: 1.0;" width="6" x="293.5559" y="946.2188"/><text fill="#000000" font-family="sans-serif" font-size="11" lengthAdjust="spacingAndGlyphs" textLength="93" x="305.5559" y="952.4292">message: String</text><line style="stroke: #A80036; stroke-width: 1.5;" x1="286.5559" x2="436.5559" y1="959.0234" y2="959.0234"/><rect fill="#F24D5C" height="6" style="stroke: #C82930; stroke-width: 1.0;" width="6" x="293.5559" y="967.0234"/><text fill="#000000" font-family="sans-serif" font-size="11" lengthAdjust="spacingAndGlyphs" textLength="34" x="305.5559" y="973.2339">Error()</text><rect fill="#F24D5C" height="6" style="stroke: #C82930; stroke-width: 1.0;" width="6" x="293.5559" y="979.8281"/><text fill="#000000" font-family="sans-serif" font-size="11" lengthAdjust="spacingAndGlyphs" textLength="67" x="305.5559" y="986.0386">Error(String)</text><polygon fill="#4177AF" points="296.5559,991.6328,292.5559,997.6328,300.5559,997.6328" style="stroke: #1963A0; stroke-width: 1.0;"/><text fill="#000000" font-family="sans-serif" font-size="11" lengthAdjust="spacingAndGlyphs" textLength="46" x="305.5559" y="998.8433">writeln()</text><ellipse cx="296.5559" cy="1008.4375" fill="#84BE84" rx="3" ry="3" style="stroke: #038048; stroke-width: 1.0;"/><text fill="#000000" font-family="sans-serif" font-size="11" lengthAdjust="spacingAndGlyphs" textLength="91" x="305.5559" y="1011.6479">isNull(): boolean</text><!--MD5=[bea5b0d46523efab5ea1c1d339f396f0]
class Message--><rect codeLine="85" fill="#FEFECE" filter="url(#f6plrvzzeut9k)" height="227.2656" id="Message" style="stroke: #A80036; stroke-width: 1.5;" width="173" x="505.0559" y="823"/><ellipse cx="559.8059" cy="839" fill="#EB937F" rx="11" ry="11" style="stroke: #A80036; stroke-width: 1.0;"/><path d="M558.6028,839.875 L560.0559,839.875 L560.0559,839.9844 C560.0559,840.3906 560.0872,840.5469 560.1653,840.7031 C560.3215,840.9531 560.6028,841.1094 560.8997,841.1094 C561.1497,841.1094 561.4153,840.9688 561.5715,840.75 C561.6965,840.5938 561.7278,840.4375 561.7278,839.9844 L561.7278,838.0625 C561.7278,837.9063 561.7278,837.8594 561.7122,837.7031 C561.6497,837.2344 561.3372,836.9219 560.884,836.9219 C560.634,836.9219 560.3684,837.0625 560.1965,837.2813 C560.0872,837.4531 560.0559,837.6094 560.0559,838.0625 L560.0559,838.1875 L558.6028,838.1875 L558.6028,835.7813 L562.5872,835.7813 L562.5872,836.6406 C562.5872,837.0469 562.6184,837.2188 562.6965,837.375 C562.8684,837.625 563.1497,837.7813 563.4309,837.7813 C563.6965,837.7813 563.9622,837.6406 564.134,837.4219 C564.2434,837.25 564.2747,837.1094 564.2747,836.6406 L564.2747,834.0938 L556.6497,834.0938 C556.2122,834.0938 556.0872,834.1094 555.9309,834.2031 C555.6809,834.3594 555.5247,834.6563 555.5247,834.9375 C555.5247,835.2188 555.6653,835.4688 555.884,835.6406 C556.0403,835.75 556.2278,835.7813 556.6497,835.7813 L556.8997,835.7813 L556.8997,842.2969 L556.6497,842.2969 C556.2434,842.2969 556.0872,842.3125 555.9309,842.4219 C555.6809,842.5938 555.5247,842.8594 555.5247,843.1563 C555.5247,843.4219 555.6653,843.6719 555.884,843.8281 C556.0247,843.9531 556.259,844 556.6497,844 L564.6497,844 L564.6497,841.4219 C564.6497,840.9844 564.6184,840.8438 564.5403,840.6875 C564.3684,840.4375 564.0872,840.2813 563.8059,840.2813 C563.5403,840.2813 563.2747,840.3906 563.1028,840.6406 C562.9934,840.7969 562.9622,840.9375 562.9622,841.4219 L562.9622,842.2969 L558.6028,842.2969 L558.6028,839.875 Z "/><text fill="#000000" font-family="sans-serif" font-size="12" lengthAdjust="spacingAndGlyphs" textLength="55" x="580.3059" y="843.1543">Message</text><line style="stroke: #A80036; stroke-width: 1.5;" x1="506.0559" x2="677.0559" y1="855" y2="855"/><ellipse cx="516.0559" cy="866" fill="none" rx="3" ry="3" style="stroke: #038048; stroke-width: 1.0;"/><text fill="#000000" font-family="sans-serif" font-size="11" lengthAdjust="spacingAndGlyphs" textLength="59" x="525.0559" y="869.2104">ATTEMPTS</text><ellipse cx="516.0559" cy="878.8047" fill="none" rx="3" ry="3" style="stroke: #038048; stroke-width: 1.0;"/><text fill="#000000" font-family="sans-serif" font-size="11" lengthAdjust="spacingAndGlyphs" textLength="130" x="525.0559" y="882.0151">SECRET_COMBINATION</text><ellipse cx="516.0559" cy="891.6094" fill="none" rx="3" ry="3" style="stroke: #038048; stroke-width: 1.0;"/><text fill="#000000" font-family="sans-serif" font-size="11" lengthAdjust="spacingAndGlyphs" textLength="46" x="525.0559" y="894.8198">RESUME</text><ellipse cx="516.0559" cy="904.4141" fill="none" rx="3" ry="3" style="stroke: #038048; stroke-width: 1.0;"/><text fill="#000000" font-family="sans-serif" font-size="11" lengthAdjust="spacingAndGlyphs" textLength="43" x="525.0559" y="907.6245">RESULT</text><ellipse cx="516.0559" cy="917.2188" fill="none" rx="3" ry="3" style="stroke: #038048; stroke-width: 1.0;"/><text fill="#000000" font-family="sans-serif" font-size="11" lengthAdjust="spacingAndGlyphs" textLength="147" x="525.0559" y="920.4292">PROPOSED_COMBINATION</text><ellipse cx="516.0559" cy="930.0234" fill="none" rx="3" ry="3" style="stroke: #038048; stroke-width: 1.0;"/><text fill="#000000" font-family="sans-serif" font-size="11" lengthAdjust="spacingAndGlyphs" textLength="30" x="525.0559" y="933.2339">TITLE</text><ellipse cx="516.0559" cy="942.8281" fill="none" rx="3" ry="3" style="stroke: #038048; stroke-width: 1.0;"/><text fill="#000000" font-family="sans-serif" font-size="11" lengthAdjust="spacingAndGlyphs" textLength="44" x="525.0559" y="946.0386">WINNER</text><ellipse cx="516.0559" cy="955.6328" fill="none" rx="3" ry="3" style="stroke: #038048; stroke-width: 1.0;"/><text fill="#000000" font-family="sans-serif" font-size="11" lengthAdjust="spacingAndGlyphs" textLength="46" x="525.0559" y="958.8433">LOOSER</text><rect fill="none" height="6" style="stroke: #C82930; stroke-width: 1.0;" width="6" x="513.0559" y="965.4375"/><text fill="#000000" font-family="sans-serif" font-size="11" lengthAdjust="spacingAndGlyphs" textLength="93" x="525.0559" y="971.6479">message: String</text><line style="stroke: #A80036; stroke-width: 1.5;" x1="506.0559" x2="677.0559" y1="978.2422" y2="978.2422"/><rect fill="#F24D5C" height="6" style="stroke: #C82930; stroke-width: 1.0;" width="6" x="513.0559" y="986.2422"/><text fill="#000000" font-family="sans-serif" font-size="11" lengthAdjust="spacingAndGlyphs" textLength="92" x="525.0559" y="992.4526">Message(String)</text><polygon fill="#4177AF" points="516.0559,998.0469,512.0559,1004.0469,520.0559,1004.0469" style="stroke: #1963A0; stroke-width: 1.0;"/><text fill="#000000" font-family="sans-serif" font-size="11" lengthAdjust="spacingAndGlyphs" textLength="36" x="525.0559" y="1005.2573">write()</text><polygon fill="#4177AF" points="516.0559,1010.8516,512.0559,1016.8516,520.0559,1016.8516" style="stroke: #1963A0; stroke-width: 1.0;"/><text fill="#000000" font-family="sans-serif" font-size="11" lengthAdjust="spacingAndGlyphs" textLength="46" x="525.0559" y="1018.062">writeln()</text><polygon fill="#4177AF" points="516.0559,1023.6563,512.0559,1029.6563,520.0559,1029.6563" style="stroke: #1963A0; stroke-width: 1.0;"/><text fill="#000000" font-family="sans-serif" font-size="11" lengthAdjust="spacingAndGlyphs" textLength="60" x="525.0559" y="1030.8667">writeln(int)</text><polygon fill="#4177AF" points="516.0559,1036.4609,512.0559,1042.4609,520.0559,1042.4609" style="stroke: #1963A0; stroke-width: 1.0;"/><text fill="#000000" font-family="sans-serif" font-size="11" lengthAdjust="spacingAndGlyphs" textLength="81" x="525.0559" y="1043.6714">writeln(int, int)</text><!--MD5=[315b61b427ec618d6861d47eee00cca3]
class Console--><rect codeLine="125" fill="#FEFECE" filter="url(#f6plrvzzeut9k)" height="48" id="Console" style="stroke: #A80036; stroke-width: 1.5;" width="81" x="1109.0529" y="1113"/><ellipse cx="1124.0529" cy="1129" fill="#ADD1B2" rx="11" ry="11" style="stroke: #A80036; stroke-width: 1.0;"/><path d="M1126.3967,1124.6719 C1125.4592,1124.2344 1124.8654,1124.0938 1123.9904,1124.0938 C1121.3654,1124.0938 1119.3654,1126.1719 1119.3654,1128.8906 L1119.3654,1130.0156 C1119.3654,1132.5938 1121.4748,1134.4844 1124.3654,1134.4844 C1125.5842,1134.4844 1126.7404,1134.1875 1127.4904,1133.6406 C1128.0685,1133.2344 1128.3967,1132.7813 1128.3967,1132.3906 C1128.3967,1131.9375 1128.006,1131.5469 1127.5373,1131.5469 C1127.3185,1131.5469 1127.1154,1131.625 1126.9279,1131.8125 C1126.4748,1132.2969 1126.4748,1132.2969 1126.2873,1132.3906 C1125.8654,1132.6563 1125.1779,1132.7813 1124.4123,1132.7813 C1122.3654,1132.7813 1121.0685,1131.6875 1121.0685,1129.9844 L1121.0685,1128.8906 C1121.0685,1127.1094 1122.3185,1125.7969 1124.0529,1125.7969 C1124.631,1125.7969 1125.2404,1125.9531 1125.7092,1126.2031 C1126.1935,1126.4844 1126.3654,1126.7031 1126.4592,1127.1094 C1126.5217,1127.5156 1126.5529,1127.6406 1126.6935,1127.7656 C1126.8342,1127.9063 1127.0685,1128.0156 1127.2873,1128.0156 C1127.5529,1128.0156 1127.8185,1127.875 1127.9904,1127.6563 C1128.0998,1127.5 1128.131,1127.3125 1128.131,1126.8906 L1128.131,1125.4688 C1128.131,1125.0313 1128.1154,1124.9063 1128.0217,1124.75 C1127.8654,1124.4844 1127.5842,1124.3438 1127.2873,1124.3438 C1126.9904,1124.3438 1126.7873,1124.4375 1126.5685,1124.75 L1126.3967,1124.6719 Z "/><text fill="#000000" font-family="sans-serif" font-size="12" lengthAdjust="spacingAndGlyphs" textLength="49" x="1138.0529" y="1133.1543">Console</text><line style="stroke: #A80036; stroke-width: 1.5;" x1="1110.0529" x2="1189.0529" y1="1145" y2="1145"/><line style="stroke: #A80036; stroke-width: 1.5;" x1="1110.0529" x2="1189.0529" y1="1153" y2="1153"/><!--MD5=[d93cf99d2b92276f27fe8dbf15140505]
class YesNoDialog--><rect codeLine="130" fill="#FEFECE" filter="url(#f6plrvzzeut9k)" height="48" id="YesNoDialog" style="stroke: #A80036; stroke-width: 1.5;" width="108" x="1239.5529" y="912.5"/><ellipse cx="1254.5529" cy="928.5" fill="#ADD1B2" rx="11" ry="11" style="stroke: #A80036; stroke-width: 1.0;"/><path d="M1256.8967,924.1719 C1255.9592,923.7344 1255.3654,923.5938 1254.4904,923.5938 C1251.8654,923.5938 1249.8654,925.6719 1249.8654,928.3906 L1249.8654,929.5156 C1249.8654,932.0938 1251.9748,933.9844 1254.8654,933.9844 C1256.0842,933.9844 1257.2404,933.6875 1257.9904,933.1406 C1258.5685,932.7344 1258.8967,932.2813 1258.8967,931.8906 C1258.8967,931.4375 1258.506,931.0469 1258.0373,931.0469 C1257.8185,931.0469 1257.6154,931.125 1257.4279,931.3125 C1256.9748,931.7969 1256.9748,931.7969 1256.7873,931.8906 C1256.3654,932.1563 1255.6779,932.2813 1254.9123,932.2813 C1252.8654,932.2813 1251.5685,931.1875 1251.5685,929.4844 L1251.5685,928.3906 C1251.5685,926.6094 1252.8185,925.2969 1254.5529,925.2969 C1255.131,925.2969 1255.7404,925.4531 1256.2092,925.7031 C1256.6935,925.9844 1256.8654,926.2031 1256.9592,926.6094 C1257.0217,927.0156 1257.0529,927.1406 1257.1935,927.2656 C1257.3342,927.4063 1257.5685,927.5156 1257.7873,927.5156 C1258.0529,927.5156 1258.3185,927.375 1258.4904,927.1563 C1258.5998,927 1258.631,926.8125 1258.631,926.3906 L1258.631,924.9688 C1258.631,924.5313 1258.6154,924.4063 1258.5217,924.25 C1258.3654,923.9844 1258.0842,923.8438 1257.7873,923.8438 C1257.4904,923.8438 1257.2873,923.9375 1257.0685,924.25 L1256.8967,924.1719 Z "/><text fill="#000000" font-family="sans-serif" font-size="12" lengthAdjust="spacingAndGlyphs" textLength="76" x="1268.5529" y="932.6543">YesNoDialog</text><line style="stroke: #A80036; stroke-width: 1.5;" x1="1240.5529" x2="1346.5529" y1="944.5" y2="944.5"/><line style="stroke: #A80036; stroke-width: 1.5;" x1="1240.5529" x2="1346.5529" y1="952.5" y2="952.5"/><!--MD5=[5f6eaca964039dd95284677bcb120bda]
class usantatecla.utils.ColorCode--><rect fill="#FEFECE" filter="url(#f6plrvzzeut9k)" height="48" id="usantatecla.utils.ColorCode" style="stroke: #A80036; stroke-width: 1.5;" width="96" x="1108.5529" y="912.5"/><ellipse cx="1123.5529" cy="928.5" fill="#ADD1B2" rx="11" ry="11" style="stroke: #A80036; stroke-width: 1.0;"/><path d="M1125.8967,924.1719 C1124.9592,923.7344 1124.3654,923.5938 1123.4904,923.5938 C1120.8654,923.5938 1118.8654,925.6719 1118.8654,928.3906 L1118.8654,929.5156 C1118.8654,932.0938 1120.9748,933.9844 1123.8654,933.9844 C1125.0842,933.9844 1126.2404,933.6875 1126.9904,933.1406 C1127.5685,932.7344 1127.8967,932.2813 1127.8967,931.8906 C1127.8967,931.4375 1127.506,931.0469 1127.0373,931.0469 C1126.8185,931.0469 1126.6154,931.125 1126.4279,931.3125 C1125.9748,931.7969 1125.9748,931.7969 1125.7873,931.8906 C1125.3654,932.1563 1124.6779,932.2813 1123.9123,932.2813 C1121.8654,932.2813 1120.5685,931.1875 1120.5685,929.4844 L1120.5685,928.3906 C1120.5685,926.6094 1121.8185,925.2969 1123.5529,925.2969 C1124.131,925.2969 1124.7404,925.4531 1125.2092,925.7031 C1125.6935,925.9844 1125.8654,926.2031 1125.9592,926.6094 C1126.0217,927.0156 1126.0529,927.1406 1126.1935,927.2656 C1126.3342,927.4063 1126.5685,927.5156 1126.7873,927.5156 C1127.0529,927.5156 1127.3185,927.375 1127.4904,927.1563 C1127.5998,927 1127.631,926.8125 1127.631,926.3906 L1127.631,924.9688 C1127.631,924.5313 1127.6154,924.4063 1127.5217,924.25 C1127.3654,923.9844 1127.0842,923.8438 1126.7873,923.8438 C1126.4904,923.8438 1126.2873,923.9375 1126.0685,924.25 L1125.8967,924.1719 Z "/><text fill="#000000" font-family="sans-serif" font-size="12" lengthAdjust="spacingAndGlyphs" textLength="64" x="1137.5529" y="932.6543">ColorCode</text><line style="stroke: #A80036; stroke-width: 1.5;" x1="1109.5529" x2="1203.5529" y1="944.5" y2="944.5"/><line style="stroke: #A80036; stroke-width: 1.5;" x1="1109.5529" x2="1203.5529" y1="952.5" y2="952.5"/><!--MD5=[ba28573f2062cf9f5d1d4aa517f0cc38]
link Mastermind to Board--><path codeLine="104" d="M417.351,160.2025 C417.351,160.2025 474.0029,201.286 502.7709,222.144 " fill="none" id="Mastermind-Board" style="stroke: #A80036; stroke-width: 1.0;"/><polygon fill="#A80036" points="513.3289,229.8,508.3902,221.2789,509.2808,226.8652,503.6945,227.7558,513.3289,229.8" style="stroke: #A80036; stroke-width: 1.0;"/><line style="stroke: #A80036; stroke-width: 1.0;" x1="509.2808" x2="502.8044" y1="226.8652" y2="222.1685"/><polygon fill="#A80036" points="407.6349,153.16,410.1454,159.92,417.351,160.2025,414.8405,153.4426,407.6349,153.16" style="stroke: #A80036; stroke-width: 1.0;"/><text fill="#000000" font-family="sans-serif" font-size="13" lengthAdjust="spacingAndGlyphs" textLength="37" x="469.5559" y="196.0669">board</text><!--MD5=[165aae362738a81ed253bf2cad9e16e5]
link Mastermind to ProposedCombination--><path codeLine="105" d="M307.7859,153.17 C298.8509,176.44 289.6349,204.1 284.5559,230 C261.4069,348.056 261.4049,489.414 263.7819,567.914 " fill="none" id="Mastermind-to-ProposedCombination" style="stroke: #A80036; stroke-width: 1.0; stroke-dasharray: 7.0,7.0;"/><polygon fill="#A80036" points="263.9419,572.993,267.6544,563.8707,263.7833,567.9955,259.6585,564.1244,263.9419,572.993" style="stroke: #A80036; stroke-width: 1.0;"/><!--MD5=[5e915b8ab835b2366405aaf6901e131b]
link Board to SecretCombination--><path codeLine="106" d="M738.3593,427.9038 C738.3593,427.9038 839.2219,535.717 877.0119,576.111 " fill="none" id="Board-SecretCombination" style="stroke: #A80036; stroke-width: 1.0;"/><polygon fill="#A80036" points="886.0229,585.743,882.795,576.4381,882.6069,582.0918,876.9532,581.9037,886.0229,585.743" style="stroke: #A80036; stroke-width: 1.0;"/><line style="stroke: #A80036; stroke-width: 1.0;" x1="882.6069" x2="877.1414" y1="582.0918" y2="576.2495"/><polygon fill="#A80036" points="730.1609,419.141,731.3392,426.2552,738.3593,427.9038,737.181,420.7896,730.1609,419.141" style="stroke: #A80036; stroke-width: 1.0;"/><text fill="#000000" font-family="sans-serif" font-size="13" lengthAdjust="spacingAndGlyphs" textLength="121" x="768.5559" y="462.0669">secretCombination</text><!--MD5=[e0b5d9907fda64872c10fd6493e0c51f]
link Board to ProposedCombination--><path codeLine="107" d="M485.2314,410.395 C485.2314,410.395 408.0959,464.349 376.5559,496 C356.0149,516.613 335.1559,540.684 317.2039,562.583 " fill="none" id="Board-ProposedCombination" style="stroke: #A80036; stroke-width: 1.0;"/><polygon fill="#A80036" points="308.9069,572.803,317.685,568.3371,312.0584,568.9213,311.4743,563.2947,308.9069,572.803" style="stroke: #A80036; stroke-width: 1.0;"/><line style="stroke: #A80036; stroke-width: 1.0;" x1="312.0584" x2="317.1014" y1="568.9213" y2="562.711"/><polygon fill="#FFFFFF" points="495.3359,403.922,488.126,403.7904,485.2314,410.395,492.4413,410.5267,495.3359,403.922" style="stroke: #A80036; stroke-width: 1.0;"/><text fill="#000000" font-family="sans-serif" font-size="13" lengthAdjust="spacingAndGlyphs" textLength="148" x="429.5559" y="462.0669">proposedCombinations</text><text fill="#000000" font-family="sans-serif" font-size="13" lengthAdjust="spacingAndGlyphs" textLength="32" x="280.1184" y="562.1135">0..10</text><!--MD5=[8dd95aff79c51151a18c835e3410b3cd]
link Board to Result--><path codeLine="108" d="M661.0334,430.961 C661.0334,430.961 676.0499,516.666 682.4559,553.228 " fill="none" id="Board-Result" style="stroke: #A80036; stroke-width: 1.0;"/><polygon fill="#A80036" points="684.7469,566.309,687.1343,556.7539,683.8843,561.384,679.2542,558.134,684.7469,566.309" style="stroke: #A80036; stroke-width: 1.0;"/><line style="stroke: #A80036; stroke-width: 1.0;" x1="683.8843" x2="682.5039" y1="561.384" y2="553.504"/><polygon fill="#FFFFFF" points="658.9629,419.141,656.0581,425.7412,661.0334,430.961,663.9381,424.3609,658.9629,419.141" style="stroke: #A80036; stroke-width: 1.0;"/><text fill="#000000" font-family="sans-serif" font-size="13" lengthAdjust="spacingAndGlyphs" textLength="43" x="667.5559" y="462.0669">results</text><text fill="#000000" font-family="sans-serif" font-size="13" lengthAdjust="spacingAndGlyphs" textLength="32" x="649.6471" y="555.2777">0..10</text><!--MD5=[6e8433e42d71f9427401b78cd95c6f0c]
link Combination to Color--><path codeLine="110" d="M353.0508,373.2631 C353.0508,373.2631 342.5929,436.63 352.5559,466 C357.9529,481.91 365.4049,482.613 375.5559,496 C378.9149,500.43 382.3339,504.946 385.7839,509.511 " fill="none" id="Combination-Color" style="stroke: #A80036; stroke-width: 1.0;"/><polygon fill="#A80036" points="393.8769,520.232,391.6467,510.639,390.8643,516.2414,385.2619,515.4591,393.8769,520.232" style="stroke: #A80036; stroke-width: 1.0;"/><line style="stroke: #A80036; stroke-width: 1.0;" x1="390.8643" x2="386.0444" y1="516.2414" y2="509.8565"/><polygon fill="#A80036" points="356.0189,361.636,350.6591,366.4602,353.0508,373.2631,358.4106,368.4389,356.0189,361.636" style="stroke: #A80036; stroke-width: 1.0;"/><text fill="#000000" font-family="sans-serif" font-size="13" lengthAdjust="spacingAndGlyphs" textLength="38" x="353.5559" y="462.0669">colors</text><text fill="#000000" font-family="sans-serif" font-size="13" lengthAdjust="spacingAndGlyphs" textLength="8" x="378.0706" y="506.6013">4</text><!--MD5=[ed81d3472c9069d2de3c2f5cd308846f]
reverse link Combination to SecretCombination--><path codeLine="111" d="M417.0139,375.309 C434.7739,391.218 455.8669,407.628 477.5559,419 C486.6619,423.774 646.5869,463.485 656.5559,466 C711.5349,479.867 730.4719,469.418 780.5559,496 C823.1049,518.582 862.9169,556.529 890.0179,585.955 " fill="none" id="Combination-backto-SecretCombination" style="stroke: #A80036; stroke-width: 1.0;"/><polygon fill="none" points="412.1709,380.365,402.3329,361.598,421.7269,370.133,412.1709,380.365" style="stroke: #A80036; stroke-width: 1.0;"/><!--MD5=[2f10888865b2f559cc24db01ac34cee3]
reverse link Combination to ProposedCombination--><path codeLine="112" d="M341.4109,379.913 C331.4829,401.135 320.6989,425.879 312.5559,449 C298.2199,489.705 286.2509,537.048 278.1179,572.818 " fill="none" id="Combination-backto-ProposedCombination" style="stroke: #A80036; stroke-width: 1.0;"/><polygon fill="none" points="335.2439,376.584,350.1889,361.562,347.8739,382.625,335.2439,376.584" style="stroke: #A80036; stroke-width: 1.0;"/><!--MD5=[03e1adeaed11e2ac298b9b43cd912fbb]
link ProposedCombination to Error--><path codeLine="113" d="M283.7599,685.324 C298.0299,731.215 318.5619,797.241 334.9499,849.941 " fill="none" id="ProposedCombination-to-Error" style="stroke: #A80036; stroke-width: 1.0; stroke-dasharray: 7.0,7.0;"/><polygon fill="#A80036" points="336.5229,854.999,337.668,845.2169,335.0372,850.2248,330.0293,847.594,336.5229,854.999" style="stroke: #A80036; stroke-width: 1.0;"/><!--MD5=[c90363da1e54012406e61a987ebdf2c8]
link Mastermind to Message--><path codeLine="116" d="M288.1159,153.36 C196.9384,276.662 6,577.504 156.5561,762 C242.0289,866.742 332.5149,764.841 454.5559,823 C470.4279,830.564 486.0389,840.354 500.7139,851.001 " fill="none" id="Mastermind-to-Message" style="stroke: #A80036; stroke-width: 1.0; stroke-dasharray: 7.0,7.0;"/><polygon fill="#A80036" points="504.8279,854.025,499.9456,845.4715,500.7993,851.0635,495.2072,851.9173,504.8279,854.025" style="stroke: #A80036; stroke-width: 1.0;"/><!--MD5=[f93e57f7ded8581437b27fa1712e0f0d]
link Board to Message--><path codeLine="117" d="M621.7689,419.354 C616.9959,444.161 612.4709,470.994 609.5559,496 C596.9189,604.395 592.7819,728.725 591.5919,817.423 " fill="none" id="Board-to-Message" style="stroke: #A80036; stroke-width: 1.0; stroke-dasharray: 7.0,7.0;"/><polygon fill="#A80036" points="591.5249,822.681,595.6403,813.7332,591.5892,817.6814,587.6409,813.6303,591.5249,822.681" style="stroke: #A80036; stroke-width: 1.0;"/><!--MD5=[b9347c562a69bbba75d70bb21299d009]
link ProposedCombination to Message--><path codeLine="118" d="M308.2649,685.26 C327.8699,709.817 352.2459,738.433 376.5559,762 C408.1539,792.632 420.2149,795.478 454.5559,823 C469.6109,835.065 485.5079,847.967 500.9309,860.573 " fill="none" id="ProposedCombination-to-Message" style="stroke: #A80036; stroke-width: 1.0; stroke-dasharray: 7.0,7.0;"/><polygon fill="#A80036" points="504.8409,863.771,500.4074,854.9765,500.9708,860.6052,495.3421,861.1686,504.8409,863.771" style="stroke: #A80036; stroke-width: 1.0;"/><!--MD5=[478a268921f9a7a4cb7b8daeb48ad6b0]
link Result to Message--><path codeLine="119" d="M674.5099,691.822 C662.1939,728.001 646.2359,774.879 631.6099,817.842 " fill="none" id="Result-to-Message" style="stroke: #A80036; stroke-width: 1.0; stroke-dasharray: 7.0,7.0;"/><polygon fill="#A80036" points="629.9249,822.791,636.6122,815.5605,631.5364,818.0578,629.0391,812.9821,629.9249,822.791" style="stroke: #A80036; stroke-width: 1.0;"/><!--MD5=[463cc8af4a3cc64d4486d23129543027]
link YesNoDialog to Console--><path codeLine="136" d="M1284.7929,960.591 C1273.2729,989.094 1251.1129,1038.183 1222.5529,1074 C1212.2129,1086.965 1198.8529,1099.2374 1186.3929,1109.3895 " fill="none" id="YesNoDialog-to-Console" style="stroke: #A80036; stroke-width: 1.0; stroke-dasharray: 7.0,7.0;"/><polygon fill="#A80036" points="1182.2129,1112.7491,1191.7359,1110.2367,1186.1128,1109.6201,1186.7294,1103.9969,1182.2129,1112.7491" style="stroke: #A80036; stroke-width: 1.0;"/><!--MD5=[922eb40535b2da68a8faa8740884533b]
link Board to Console--><path codeLine="137" d="M789.6309,365.866 C875.9909,393.889 984.5169,436.879 1069.5559,496 C1230.5129,607.9 1295.0629,640.081 1365.5529,823 C1405.6729,927.093 1432.6829,984.899 1365.5529,1074 C1345.1029,1101.1479 1252.4329,1120.0624 1195.3229,1129.3748 " fill="none" id="Board-to-Console" style="stroke: #A80036; stroke-width: 1.0; stroke-dasharray: 7.0,7.0;"/><polygon fill="#A80036" points="1190.2529,1130.1917,1199.7769,1132.7004,1195.1885,1129.3918,1198.4971,1124.8034,1190.2529,1130.1917" style="stroke: #A80036; stroke-width: 1.0;"/><!--MD5=[913a83e29969536c5e075cf265ec81cd]
link Color to Console--><path codeLine="138" d="M393.8019,744.371 C387.8959,750.584 381.7979,756.518 375.5559,762 C334.1369,798.38 295.3449,775.389 267.5559,823 C211.3219,919.345 191.4903,992.4 267.5559,1074 C324.9219,1135.5397 930.8559,1137.1469 1103.7429,1136.339 " fill="none" id="Color-to-Console" style="stroke: #A80036; stroke-width: 1.0; stroke-dasharray: 7.0,7.0;"/><polygon fill="#A80036" points="1108.9729,1136.3132,1099.9502,1132.3647,1103.973,1136.3418,1099.9959,1140.3646,1108.9729,1136.3132" style="stroke: #A80036; stroke-width: 1.0;"/><!--MD5=[42b148366534e08341523a69727818ae]
link Color to usantatecla.utils.ColorCode--><path codeLine="139" d="M555.1199,724.551 C571.7109,739.167 590.1049,752.529 609.5559,762 C702.0679,807.048 979.2379,771.912 1068.5559,823 C1102.7429,842.552 1128.3729,881.141 1142.9129,907.623 " fill="none" id="Color-to-usantatecla.utils.ColorCode" style="stroke: #A80036; stroke-width: 1.0; stroke-dasharray: 7.0,7.0;"/><polygon fill="#A80036" points="1145.3329,912.091,1144.5791,902.271,1142.9585,907.6908,1137.5388,906.0701,1145.3329,912.091" style="stroke: #A80036; stroke-width: 1.0;"/><!--MD5=[702d0bc4071943235df53e25e5a40cdb]
link Error to Console--><path codeLine="140" d="M418.3279,1018.301 C437.7259,1039.978 461.2509,1060.987 487.5559,1074 C596.1139,1127.7009 971.4989,1135.0229 1103.3429,1135.9174 " fill="none" id="Error-to-Console" style="stroke: #A80036; stroke-width: 1.0; stroke-dasharray: 7.0,7.0;"/><polygon fill="#A80036" points="1108.6829,1135.951,1099.7059,1131.8996,1103.683,1135.9224,1099.6602,1139.8995,1108.6829,1135.951" style="stroke: #A80036; stroke-width: 1.0;"/><!--MD5=[fde603ad956a440325a7db2e94c3d038]
link Message to Console--><path codeLine="141" d="M678.4219,1026.255 C704.4459,1048.128 734.4099,1069.211 765.5559,1083 C825.2879,1109.4453 1015.2519,1126.2605 1103.5829,1132.8434 " fill="none" id="Message-to-Console" style="stroke: #A80036; stroke-width: 1.0; stroke-dasharray: 7.0,7.0;"/><polygon fill="#A80036" points="1108.7329,1133.2247,1100.0549,1128.5672,1103.7467,1132.8533,1099.4606,1136.5451,1108.7329,1133.2247" style="stroke: #A80036; stroke-width: 1.0;"/><!--MD5=[6bfe31e80e6e77060baa4b8d6064148a]
link ProposedCombination to Console--><path codeLine="142" d="M299.4139,685.116 C318.5329,712.425 345.0729,743.448 376.5559,762 C500.9169,835.283 566.4949,758.353 695.5559,823 C843.5099,897.111 828.3379,989.402 970.5559,1074 C1012.6199,1099.0213 1066.2689,1115.9037 1103.8229,1125.6543 " fill="none" id="ProposedCombination-to-Console" style="stroke: #A80036; stroke-width: 1.0; stroke-dasharray: 7.0,7.0;"/><polygon fill="#A80036" points="1108.7729,1126.9246,1101.0326,1120.8346,1103.9264,1125.6953,1099.0657,1128.589,1108.7729,1126.9246" style="stroke: #A80036; stroke-width: 1.0;"/><!--MD5=[336a78eb14894e486e0ed36e439320b7]
link SecretCombination to Console--><path codeLine="143" d="M935.1099,672.019 C955.0019,753.953 1006.1649,938.857 1090.5559,1074 C1098.4769,1086.684 1109.2929,1098.9772 1119.4929,1109.2265 " fill="none" id="SecretCombination-to-Console" style="stroke: #A80036; stroke-width: 1.0; stroke-dasharray: 7.0,7.0;"/><polygon fill="#A80036" points="1123.2229,1112.9071,1119.6317,1103.7363,1119.666,1109.3931,1114.0093,1109.4273,1123.2229,1112.9071" style="stroke: #A80036; stroke-width: 1.0;"/><!--MD5=[1499d68dab61e96ede2ae386f5ea1cf6]
link Mastermind to YesNoDialog--><path codeLine="144" d="M424.2859,109.9 C524.0249,125.76 684.6899,160.34 806.5559,230 C1090.8339,392.487 1246.1829,796.756 1284.2429,907.22 " fill="none" id="Mastermind-to-YesNoDialog" style="stroke: #A80036; stroke-width: 1.0; stroke-dasharray: 7.0,7.0;"/><polygon fill="#A80036" points="1285.9629,912.256,1286.83,902.4454,1284.3424,907.5259,1279.2619,905.0382,1285.9629,912.256" style="stroke: #A80036; stroke-width: 1.0;"/><!--MD5=[594a88dab134c9a87d1d50abd25df814]
@startuml
package usantatecla.mastermind {
class Mastermind {
	- board: Board 
	+ play()
	- playGame()
	- isResumedGame(): boolean 
	+ {static} main(String[])
}


class Board {
  - MAX_ATTEMPS: {static} int 
  - secretCombination: SecretCombination 
  - proposedCombinations: ProposedCombination[] 
  - results: Result[] 
  - attempts: int 
  ~ Board()
  + writeln()
  + add(ProposedCombination)
  + isFinished(): boolean 
  + isWinner(): boolean 
  - isLooser(): boolean 
}

abstract class Combination {
	~ colors: List<Color> 
	~ Combination ()
}

class SecretCombination {
	~ SecretCombination()
	~ getResult(ProposedCombination): Result 
	~ writeln()
}

class ProposedCombination {
	~write()
	~read()
	- checkError(String): Error 
	~ contains(Color, int): boolean 
	~ contains(Color): boolean 
}

class Result{
	+ WIDTH: {static} int 
	- blacks: int 
	- whites: int 
	~ Result(int, int)
	~ isWinner(): boolean 
	~ writeln()
}

enum Color {
	+ RED
	+ BLUE
	+ YELLOW
	+ GREEN
	+ ORANGE
	+ PURPLE
	+ NULL_COLOR
	- initial: String 
	- RESET_COLOR: {static} String 
	- Color()
	- Color(char)
	~ {static} getInitials(): String 
	~ {static} getInstance(char): Color
	~ {static} length(): int 
	~ {static} get(int): Color 
	~ write()
	~ isNull(): boolean 
}

enum Error {
	+ DUPLICATED
	+ WRONG_CHARACTERS
	+ WRONG_LENGTH
	+ NULL_ERROR
	- message: String
	- Error()
	- Error(String)
	~ writeln()
	+ isNull(): boolean 
}

enum Message {
	+ ATTEMPTS
	+ SECRET_COMBINATION
	+ RESUME
	+ RESULT
	+ PROPOSED_COMBINATION
	+ TITLE
	+ WINNER
	+ LOOSER
	- message: String 
	- Message(String)
	~ write()
	~ writeln()
	~ writeln(int)
	~ writeln(int, int)
}



Mastermind *-down-> Board : board
Mastermind .down.> ProposedCombination
Board *-down-> SecretCombination : secretCombination
Board o-down-> "0..10" ProposedCombination : proposedCombinations
Board o-down-> "0..10" Result : results

Combination *-down-> "4" Color : colors
Combination <|-down- SecretCombination
Combination <|-down- ProposedCombination
ProposedCombination .down.> Error


Mastermind .down.> Message
Board .down.> Message
ProposedCombination .down.> Message
Result .down.> Message

}

package usantatecla.utils {

class Console {


}

class YesNoDialog {

}

}

YesNoDialog .down.> Console
Board .down.> Console
Color .down.> Console
Color .down.> usantatecla.utils.ColorCode
Error .down.> Console
Message .down.> Console
ProposedCombination .down.> Console
SecretCombination .down.> Console
Mastermind .down.> YesNoDialog
@enduml

PlantUML version 1.2020.20beta4(Unknown compile time)
(GPL source distribution)
Java Runtime: Java(TM) SE Runtime Environment
JVM: Java HotSpot(TM) 64-Bit Server VM
Default Encoding: UTF-8
Language: en
Country: US
--></g></svg>