<?xml version="1.0" encoding="UTF-8" standalone="no"?><svg xmlns="http://www.w3.org/2000/svg" xmlns:xlink="http://www.w3.org/1999/xlink" contentScriptType="application/ecmascript" contentStyleType="text/css" height="1171px" preserveAspectRatio="none" style="width:1408px;height:1171px;" version="1.1" viewBox="0 0 1408 1171" width="1408px" zoomAndPan="magnify"><defs><filter height="300%" id="ft2a0lgvav31z" width="300%" x="-1" y="-1"><feGaussianBlur result="blurOut" stdDeviation="2.0"/><feColorMatrix in="blurOut" result="blurOut2" type="matrix" values="0 0 0 0 0 0 0 0 0 0 0 0 0 0 0 0 0 0 .4 0"/><feOffset dx="4.0" dy="4.0" in="blurOut2" result="blurOut3"/><feBlend in="SourceGraphic" in2="blurOut3" mode="normal"/></filter></defs><g><!--MD5=[9be0839337cfdab5d118a2e29cf0a8c4]
cluster usantatecla.mastermind--><polygon fill="#FFFFFF" filter="url(#ft2a0lgvav31z)" points="116.4813,6,323.4813,6,330.4813,28.2969,1037.4811,28.2969,1037.4811,1053,116.4813,1053,116.4813,6" style="stroke: #000000; stroke-width: 1.5;"/><line style="stroke: #000000; stroke-width: 1.5;" x1="116.4813" x2="330.4813" y1="28.2969" y2="28.2969"/><text fill="#000000" font-family="sans-serif" font-size="14" font-weight="bold" lengthAdjust="spacingAndGlyphs" textLength="201" x="120.4813" y="20.9951">usantatecla.mastermind</text><!--MD5=[908cbfa8709a8ec6ee3beb0409fea32c]
cluster usantatecla.utils--><polygon fill="#FFFFFF" filter="url(#ft2a0lgvav31z)" points="1061.4811,864.5,1207.4811,864.5,1214.4811,886.7969,1332.4861,886.7969,1332.4861,1164,1061.4811,1164,1061.4811,864.5" style="stroke: #000000; stroke-width: 1.5;"/><line style="stroke: #000000; stroke-width: 1.5;" x1="1061.4811" x2="1214.4811" y1="886.7969" y2="886.7969"/><text fill="#000000" font-family="sans-serif" font-size="14" font-weight="bold" lengthAdjust="spacingAndGlyphs" textLength="140" x="1065.4811" y="879.4951">usantatecla.utils</text><!--MD5=[7283a9eed84464550b6d5ebf39c68b05]
class Mastermind--><rect codeLine="2" fill="#FEFECE" filter="url(#ft2a0lgvav31z)" height="112.0234" id="Mastermind" style="stroke: #A80036; stroke-width: 1.5;" width="182" x="237.4811" y="41"/><ellipse cx="289.2311" cy="57" fill="#ADD1B2" rx="11" ry="11" style="stroke: #A80036; stroke-width: 1.0;"/><path d="M291.5748,52.6719 C290.6373,52.2344 290.0436,52.0938 289.1686,52.0938 C286.5436,52.0938 284.5436,54.1719 284.5436,56.8906 L284.5436,58.0156 C284.5436,60.5938 286.653,62.4844 289.5436,62.4844 C290.7623,62.4844 291.9186,62.1875 292.6686,61.6406 C293.2467,61.2344 293.5748,60.7813 293.5748,60.3906 C293.5748,59.9375 293.1842,59.5469 292.7155,59.5469 C292.4967,59.5469 292.2936,59.625 292.1061,59.8125 C291.653,60.2969 291.653,60.2969 291.4655,60.3906 C291.0436,60.6563 290.3561,60.7813 289.5905,60.7813 C287.5436,60.7813 286.2467,59.6875 286.2467,57.9844 L286.2467,56.8906 C286.2467,55.1094 287.4967,53.7969 289.2311,53.7969 C289.8092,53.7969 290.4186,53.9531 290.8873,54.2031 C291.3717,54.4844 291.5436,54.7031 291.6373,55.1094 C291.6998,55.5156 291.7311,55.6406 291.8717,55.7656 C292.0123,55.9063 292.2467,56.0156 292.4655,56.0156 C292.7311,56.0156 292.9967,55.875 293.1686,55.6563 C293.278,55.5 293.3092,55.3125 293.3092,54.8906 L293.3092,53.4688 C293.3092,53.0313 293.2936,52.9063 293.1998,52.75 C293.0436,52.4844 292.7623,52.3438 292.4655,52.3438 C292.1686,52.3438 291.9655,52.4375 291.7467,52.75 L291.5748,52.6719 Z "/><text fill="#000000" font-family="sans-serif" font-size="12" lengthAdjust="spacingAndGlyphs" textLength="70" x="309.7311" y="61.1543">Mastermind</text><line style="stroke: #A80036; stroke-width: 1.5;" x1="238.4811" x2="418.4811" y1="73" y2="73"/><rect fill="none" height="6" style="stroke: #C82930; stroke-width: 1.0;" width="6" x="245.4811" y="81"/><text fill="#000000" font-family="sans-serif" font-size="11" lengthAdjust="spacingAndGlyphs" textLength="69" x="257.4811" y="87.2104">Board board</text><line style="stroke: #A80036; stroke-width: 1.5;" x1="238.4811" x2="418.4811" y1="93.8047" y2="93.8047"/><ellipse cx="248.4811" cy="104.8047" fill="#84BE84" rx="3" ry="3" style="stroke: #038048; stroke-width: 1.0;"/><text fill="#000000" font-family="sans-serif" font-size="11" lengthAdjust="spacingAndGlyphs" textLength="32" x="257.4811" y="108.0151">play()</text><rect fill="#F24D5C" height="6" style="stroke: #C82930; stroke-width: 1.0;" width="6" x="245.4811" y="114.6094"/><text fill="#000000" font-family="sans-serif" font-size="11" lengthAdjust="spacingAndGlyphs" textLength="67" x="257.4811" y="120.8198">playGame()</text><rect fill="#F24D5C" height="6" style="stroke: #C82930; stroke-width: 1.0;" width="6" x="245.4811" y="127.4141"/><text fill="#000000" font-family="sans-serif" font-size="11" lengthAdjust="spacingAndGlyphs" textLength="156" x="257.4811" y="133.6245">boolean isResumedGame()</text><ellipse cx="248.4811" cy="143.2188" fill="#84BE84" rx="3" ry="3" style="stroke: #038048; stroke-width: 1.0;"/><text fill="#000000" font-family="sans-serif" font-size="11" lengthAdjust="spacingAndGlyphs" text-decoration="underline" textLength="105" x="257.4811" y="146.4292">void main(String[])</text><!--MD5=[9563755d011c5cec7ec66dc53565a59e]
class Board--><rect codeLine="11" fill="#FEFECE" filter="url(#ft2a0lgvav31z)" height="188.8516" id="Board" style="stroke: #A80036; stroke-width: 1.5;" width="291" x="478.9811" y="230"/><ellipse cx="602.2311" cy="246" fill="#ADD1B2" rx="11" ry="11" style="stroke: #A80036; stroke-width: 1.0;"/><path d="M604.5749,241.6719 C603.6374,241.2344 603.0436,241.0938 602.1686,241.0938 C599.5436,241.0938 597.5436,243.1719 597.5436,245.8906 L597.5436,247.0156 C597.5436,249.5938 599.653,251.4844 602.5436,251.4844 C603.7624,251.4844 604.9186,251.1875 605.6686,250.6406 C606.2467,250.2344 606.5749,249.7813 606.5749,249.3906 C606.5749,248.9375 606.1842,248.5469 605.7155,248.5469 C605.4967,248.5469 605.2936,248.625 605.1061,248.8125 C604.653,249.2969 604.653,249.2969 604.4655,249.3906 C604.0436,249.6563 603.3561,249.7813 602.5905,249.7813 C600.5436,249.7813 599.2467,248.6875 599.2467,246.9844 L599.2467,245.8906 C599.2467,244.1094 600.4967,242.7969 602.2311,242.7969 C602.8092,242.7969 603.4186,242.9531 603.8874,243.2031 C604.3717,243.4844 604.5436,243.7031 604.6374,244.1094 C604.6999,244.5156 604.7311,244.6406 604.8717,244.7656 C605.0124,244.9063 605.2467,245.0156 605.4655,245.0156 C605.7311,245.0156 605.9967,244.875 606.1686,244.6563 C606.278,244.5 606.3092,244.3125 606.3092,243.8906 L606.3092,242.4688 C606.3092,242.0313 606.2936,241.9063 606.1999,241.75 C606.0436,241.4844 605.7624,241.3438 605.4655,241.3438 C605.1686,241.3438 604.9655,241.4375 604.7467,241.75 L604.5749,241.6719 Z "/><text fill="#000000" font-family="sans-serif" font-size="12" lengthAdjust="spacingAndGlyphs" textLength="36" x="622.7311" y="250.1543">Board</text><line style="stroke: #A80036; stroke-width: 1.5;" x1="479.9811" x2="768.9811" y1="262" y2="262"/><rect fill="none" height="6" style="stroke: #C82930; stroke-width: 1.0;" width="6" x="486.9811" y="270"/><text fill="#000000" font-family="sans-serif" font-size="11" lengthAdjust="spacingAndGlyphs" text-decoration="underline" textLength="101" x="498.9811" y="276.2104">int MAX_ATTEMPS</text><rect fill="none" height="6" style="stroke: #C82930; stroke-width: 1.0;" width="6" x="486.9811" y="282.8047"/><text fill="#000000" font-family="sans-serif" font-size="11" lengthAdjust="spacingAndGlyphs" textLength="220" x="498.9811" y="289.0151">SecretCombination secretCombination</text><rect fill="none" height="6" style="stroke: #C82930; stroke-width: 1.0;" width="6" x="486.9811" y="295.6094"/><text fill="#000000" font-family="sans-serif" font-size="11" lengthAdjust="spacingAndGlyphs" textLength="265" x="498.9811" y="301.8198">ProposedCombination[] proposedCombinations</text><rect fill="none" height="6" style="stroke: #C82930; stroke-width: 1.0;" width="6" x="486.9811" y="308.4141"/><text fill="#000000" font-family="sans-serif" font-size="11" lengthAdjust="spacingAndGlyphs" textLength="85" x="498.9811" y="314.6245">Result[] results</text><rect fill="none" height="6" style="stroke: #C82930; stroke-width: 1.0;" width="6" x="486.9811" y="321.2188"/><text fill="#000000" font-family="sans-serif" font-size="11" lengthAdjust="spacingAndGlyphs" textLength="69" x="498.9811" y="327.4292">int attempts</text><line style="stroke: #A80036; stroke-width: 1.5;" x1="479.9811" x2="768.9811" y1="334.0234" y2="334.0234"/><polygon fill="#4177AF" points="489.9811,341.0234,485.9811,347.0234,493.9811,347.0234" style="stroke: #1963A0; stroke-width: 1.0;"/><text fill="#000000" font-family="sans-serif" font-size="11" lengthAdjust="spacingAndGlyphs" textLength="41" x="498.9811" y="348.2339">Board()</text><ellipse cx="489.9811" cy="357.8281" fill="#84BE84" rx="3" ry="3" style="stroke: #038048; stroke-width: 1.0;"/><text fill="#000000" font-family="sans-serif" font-size="11" lengthAdjust="spacingAndGlyphs" textLength="46" x="498.9811" y="361.0386">writeln()</text><ellipse cx="489.9811" cy="370.6328" fill="#84BE84" rx="3" ry="3" style="stroke: #038048; stroke-width: 1.0;"/><text fill="#000000" font-family="sans-serif" font-size="11" lengthAdjust="spacingAndGlyphs" textLength="152" x="498.9811" y="373.8433">add(ProposedCombination)</text><ellipse cx="489.9811" cy="383.4375" fill="#84BE84" rx="3" ry="3" style="stroke: #038048; stroke-width: 1.0;"/><text fill="#000000" font-family="sans-serif" font-size="11" lengthAdjust="spacingAndGlyphs" textLength="114" x="498.9811" y="386.6479">boolean isFinished()</text><ellipse cx="489.9811" cy="396.2422" fill="#84BE84" rx="3" ry="3" style="stroke: #038048; stroke-width: 1.0;"/><text fill="#000000" font-family="sans-serif" font-size="11" lengthAdjust="spacingAndGlyphs" textLength="107" x="498.9811" y="399.4526">boolean isWinner()</text><rect fill="#F24D5C" height="6" style="stroke: #C82930; stroke-width: 1.0;" width="6" x="486.9811" y="406.0469"/><text fill="#000000" font-family="sans-serif" font-size="11" lengthAdjust="spacingAndGlyphs" textLength="105" x="498.9811" y="412.2573">boolean isLooser()</text><!--MD5=[28491d17d5ee38c9c116625a5ffc259a]
class Combination--><rect codeLine="25" fill="#FEFECE" filter="url(#ft2a0lgvav31z)" height="73.6094" id="Combination" style="stroke: #A80036; stroke-width: 1.5;" width="129" x="296.9811" y="287.5"/><ellipse cx="321.4311" cy="303.5" fill="#A9DCDF" rx="11" ry="11" style="stroke: #A80036; stroke-width: 1.0;"/><path d="M323.5092,305.3125 L323.8998,306.2969 L323.5092,306.2969 C323.0561,306.2969 322.9467,306.3125 322.7905,306.4219 C322.5405,306.5781 322.3842,306.8594 322.3842,307.1563 C322.3842,307.4219 322.5248,307.6719 322.7436,307.8281 C322.8842,307.9531 323.0873,308 323.5092,308 L325.8686,308 C326.228,308 326.4467,307.9688 326.5873,307.875 C326.8373,307.7344 326.9936,307.4375 326.9936,307.1563 C326.9936,306.875 326.853,306.625 326.6342,306.4688 C326.4623,306.3281 326.3061,306.2969 325.8373,306.2969 L322.4467,298.0938 L318.7748,298.0938 C318.3217,298.0938 318.1967,298.1094 318.0405,298.2031 C317.7905,298.375 317.6342,298.6563 317.6342,298.9375 C317.6342,299.2188 317.7748,299.4688 317.9936,299.6406 C318.1655,299.75 318.3373,299.7813 318.7748,299.7813 L319.853,299.7813 L317.2123,306.2969 C316.7905,306.2969 316.6342,306.3125 316.478,306.4219 C316.228,306.5781 316.0717,306.8594 316.0717,307.1563 C316.0717,307.7188 316.4467,308 317.1967,308 L319.4623,308 C319.8217,308 320.0405,307.9688 320.1655,307.875 C320.4311,307.7344 320.5717,307.4375 320.5717,307.1563 C320.5717,306.875 320.4467,306.625 320.228,306.4531 C320.0561,306.3281 319.9155,306.2969 319.4623,306.2969 L319.0717,306.2969 L319.4623,305.3125 L323.5092,305.3125 Z M322.8061,303.6094 L320.1342,303.6094 L321.478,300.3438 L322.8061,303.6094 Z "/><text fill="#000000" font-family="sans-serif" font-size="12" font-style="italic" lengthAdjust="spacingAndGlyphs" textLength="76" x="337.5311" y="307.6543">Combination</text><line style="stroke: #A80036; stroke-width: 1.5;" x1="297.9811" x2="424.9811" y1="319.5" y2="319.5"/><polygon fill="none" points="307.9811,326.5,303.9811,332.5,311.9811,332.5" style="stroke: #1963A0; stroke-width: 1.0;"/><text fill="#000000" font-family="sans-serif" font-size="11" lengthAdjust="spacingAndGlyphs" textLength="103" x="316.9811" y="333.7104">List&lt;Color&gt; colors</text><line style="stroke: #A80036; stroke-width: 1.5;" x1="297.9811" x2="424.9811" y1="340.3047" y2="340.3047"/><polygon fill="#4177AF" points="307.9811,347.3047,303.9811,353.3047,311.9811,353.3047" style="stroke: #1963A0; stroke-width: 1.0;"/><text fill="#000000" font-family="sans-serif" font-size="11" lengthAdjust="spacingAndGlyphs" textLength="83" x="316.9811" y="354.5151">Combination ()</text><!--MD5=[e370ee5c0c15ce04544d5f5a73174d72]
class SecretCombination--><rect codeLine="30" fill="#FEFECE" filter="url(#ft2a0lgvav31z)" height="86.4141" id="SecretCombination" style="stroke: #A80036; stroke-width: 1.5;" width="250" x="771.4811" y="579.5"/><ellipse cx="835.2311" cy="595.5" fill="#ADD1B2" rx="11" ry="11" style="stroke: #A80036; stroke-width: 1.0;"/><path d="M837.5749,591.1719 C836.6374,590.7344 836.0436,590.5938 835.1686,590.5938 C832.5436,590.5938 830.5436,592.6719 830.5436,595.3906 L830.5436,596.5156 C830.5436,599.0938 832.653,600.9844 835.5436,600.9844 C836.7624,600.9844 837.9186,600.6875 838.6686,600.1406 C839.2467,599.7344 839.5749,599.2813 839.5749,598.8906 C839.5749,598.4375 839.1842,598.0469 838.7155,598.0469 C838.4967,598.0469 838.2936,598.125 838.1061,598.3125 C837.653,598.7969 837.653,598.7969 837.4655,598.8906 C837.0436,599.1563 836.3561,599.2813 835.5905,599.2813 C833.5436,599.2813 832.2467,598.1875 832.2467,596.4844 L832.2467,595.3906 C832.2467,593.6094 833.4967,592.2969 835.2311,592.2969 C835.8092,592.2969 836.4186,592.4531 836.8874,592.7031 C837.3717,592.9844 837.5436,593.2031 837.6374,593.6094 C837.6999,594.0156 837.7311,594.1406 837.8717,594.2656 C838.0124,594.4063 838.2467,594.5156 838.4655,594.5156 C838.7311,594.5156 838.9967,594.375 839.1686,594.1563 C839.278,594 839.3092,593.8125 839.3092,593.3906 L839.3092,591.9688 C839.3092,591.5313 839.2936,591.4063 839.1999,591.25 C839.0436,590.9844 838.7624,590.8438 838.4655,590.8438 C838.1686,590.8438 837.9655,590.9375 837.7467,591.25 L837.5749,591.1719 Z "/><text fill="#000000" font-family="sans-serif" font-size="12" lengthAdjust="spacingAndGlyphs" textLength="114" x="855.7311" y="599.6543">SecretCombination</text><line style="stroke: #A80036; stroke-width: 1.5;" x1="772.4811" x2="1020.4811" y1="611.5" y2="611.5"/><line style="stroke: #A80036; stroke-width: 1.5;" x1="772.4811" x2="1020.4811" y1="619.5" y2="619.5"/><polygon fill="#4177AF" points="782.4811,626.5,778.4811,632.5,786.4811,632.5" style="stroke: #1963A0; stroke-width: 1.0;"/><text fill="#000000" font-family="sans-serif" font-size="11" lengthAdjust="spacingAndGlyphs" textLength="117" x="791.4811" y="633.7104">SecretCombination()</text><polygon fill="#4177AF" points="782.4811,639.3047,778.4811,645.3047,786.4811,645.3047" style="stroke: #1963A0; stroke-width: 1.0;"/><text fill="#000000" font-family="sans-serif" font-size="11" lengthAdjust="spacingAndGlyphs" textLength="224" x="791.4811" y="646.5151">Result getResult(ProposedCombination)</text><polygon fill="#4177AF" points="782.4811,652.1094,778.4811,658.1094,786.4811,658.1094" style="stroke: #1963A0; stroke-width: 1.0;"/><text fill="#000000" font-family="sans-serif" font-size="11" lengthAdjust="spacingAndGlyphs" textLength="46" x="791.4811" y="659.3198">writeln()</text><!--MD5=[cf489b19c51ee25e76ddca093e62e620]
class ProposedCombination--><rect codeLine="36" fill="#FEFECE" filter="url(#ft2a0lgvav31z)" height="112.0234" id="ProposedCombination" style="stroke: #A80036; stroke-width: 1.5;" width="181" x="169.9813" y="566.5"/><ellipse cx="192.6313" cy="582.5" fill="#ADD1B2" rx="11" ry="11" style="stroke: #A80036; stroke-width: 1.0;"/><path d="M194.9751,578.1719 C194.0376,577.7344 193.4438,577.5938 192.5688,577.5938 C189.9438,577.5938 187.9438,579.6719 187.9438,582.3906 L187.9438,583.5156 C187.9438,586.0938 190.0532,587.9844 192.9438,587.9844 C194.1626,587.9844 195.3188,587.6875 196.0688,587.1406 C196.6469,586.7344 196.9751,586.2813 196.9751,585.8906 C196.9751,585.4375 196.5844,585.0469 196.1157,585.0469 C195.8969,585.0469 195.6938,585.125 195.5063,585.3125 C195.0532,585.7969 195.0532,585.7969 194.8657,585.8906 C194.4438,586.1563 193.7563,586.2813 192.9907,586.2813 C190.9438,586.2813 189.6469,585.1875 189.6469,583.4844 L189.6469,582.3906 C189.6469,580.6094 190.8969,579.2969 192.6313,579.2969 C193.2094,579.2969 193.8188,579.4531 194.2876,579.7031 C194.7719,579.9844 194.9438,580.2031 195.0376,580.6094 C195.1001,581.0156 195.1313,581.1406 195.2719,581.2656 C195.4126,581.4063 195.6469,581.5156 195.8657,581.5156 C196.1313,581.5156 196.3969,581.375 196.5688,581.1563 C196.6782,581 196.7094,580.8125 196.7094,580.3906 L196.7094,578.9688 C196.7094,578.5313 196.6938,578.4063 196.6001,578.25 C196.4438,577.9844 196.1626,577.8438 195.8657,577.8438 C195.5688,577.8438 195.3657,577.9375 195.1469,578.25 L194.9751,578.1719 Z "/><text fill="#000000" font-family="sans-serif" font-size="12" lengthAdjust="spacingAndGlyphs" textLength="132" x="208.3313" y="586.6543">ProposedCombination</text><line style="stroke: #A80036; stroke-width: 1.5;" x1="170.9813" x2="349.9813" y1="598.5" y2="598.5"/><line style="stroke: #A80036; stroke-width: 1.5;" x1="170.9813" x2="349.9813" y1="606.5" y2="606.5"/><polygon fill="#4177AF" points="180.9813,613.5,176.9813,619.5,184.9813,619.5" style="stroke: #1963A0; stroke-width: 1.0;"/><text fill="#000000" font-family="sans-serif" font-size="11" lengthAdjust="spacingAndGlyphs" textLength="36" x="189.9813" y="620.7104">write()</text><polygon fill="#4177AF" points="180.9813,626.3047,176.9813,632.3047,184.9813,632.3047" style="stroke: #1963A0; stroke-width: 1.0;"/><text fill="#000000" font-family="sans-serif" font-size="11" lengthAdjust="spacingAndGlyphs" textLength="34" x="189.9813" y="633.5151">read()</text><rect fill="#F24D5C" height="6" style="stroke: #C82930; stroke-width: 1.0;" width="6" x="177.9813" y="640.1094"/><text fill="#000000" font-family="sans-serif" font-size="11" lengthAdjust="spacingAndGlyphs" textLength="130" x="189.9813" y="646.3198">Error checkError(String)</text><polygon fill="#4177AF" points="180.9813,651.9141,176.9813,657.9141,184.9813,657.9141" style="stroke: #1963A0; stroke-width: 1.0;"/><text fill="#000000" font-family="sans-serif" font-size="11" lengthAdjust="spacingAndGlyphs" textLength="155" x="189.9813" y="659.1245">boolean contains(Color, int)</text><polygon fill="#4177AF" points="180.9813,664.7188,176.9813,670.7188,184.9813,670.7188" style="stroke: #1963A0; stroke-width: 1.0;"/><text fill="#000000" font-family="sans-serif" font-size="11" lengthAdjust="spacingAndGlyphs" textLength="134" x="189.9813" y="671.9292">boolean contains(Color)</text><!--MD5=[2741598bdf59a7d7e0d5c97658fd3022]
class Result--><rect codeLine="44" fill="#FEFECE" filter="url(#ft2a0lgvav31z)" height="124.8281" id="Result" style="stroke: #A80036; stroke-width: 1.5;" width="133" x="602.9811" y="560"/><ellipse cx="647.2311" cy="576" fill="#ADD1B2" rx="11" ry="11" style="stroke: #A80036; stroke-width: 1.0;"/><path d="M649.5749,571.6719 C648.6374,571.2344 648.0436,571.0938 647.1686,571.0938 C644.5436,571.0938 642.5436,573.1719 642.5436,575.8906 L642.5436,577.0156 C642.5436,579.5938 644.653,581.4844 647.5436,581.4844 C648.7624,581.4844 649.9186,581.1875 650.6686,580.6406 C651.2467,580.2344 651.5749,579.7813 651.5749,579.3906 C651.5749,578.9375 651.1842,578.5469 650.7155,578.5469 C650.4967,578.5469 650.2936,578.625 650.1061,578.8125 C649.653,579.2969 649.653,579.2969 649.4655,579.3906 C649.0436,579.6563 648.3561,579.7813 647.5905,579.7813 C645.5436,579.7813 644.2467,578.6875 644.2467,576.9844 L644.2467,575.8906 C644.2467,574.1094 645.4967,572.7969 647.2311,572.7969 C647.8092,572.7969 648.4186,572.9531 648.8874,573.2031 C649.3717,573.4844 649.5436,573.7031 649.6374,574.1094 C649.6999,574.5156 649.7311,574.6406 649.8717,574.7656 C650.0124,574.9063 650.2467,575.0156 650.4655,575.0156 C650.7311,575.0156 650.9967,574.875 651.1686,574.6563 C651.278,574.5 651.3092,574.3125 651.3092,573.8906 L651.3092,572.4688 C651.3092,572.0313 651.2936,571.9063 651.1999,571.75 C651.0436,571.4844 650.7624,571.3438 650.4655,571.3438 C650.1686,571.3438 649.9655,571.4375 649.7467,571.75 L649.5749,571.6719 Z "/><text fill="#000000" font-family="sans-serif" font-size="12" lengthAdjust="spacingAndGlyphs" textLength="36" x="667.7311" y="580.1543">Result</text><line style="stroke: #A80036; stroke-width: 1.5;" x1="603.9811" x2="734.9811" y1="592" y2="592"/><ellipse cx="613.9811" cy="603" fill="none" rx="3" ry="3" style="stroke: #038048; stroke-width: 1.0;"/><text fill="#000000" font-family="sans-serif" font-size="11" lengthAdjust="spacingAndGlyphs" text-decoration="underline" textLength="56" x="622.9811" y="606.2104">int WIDTH</text><rect fill="none" height="6" style="stroke: #C82930; stroke-width: 1.0;" width="6" x="610.9811" y="612.8047"/><text fill="#000000" font-family="sans-serif" font-size="11" lengthAdjust="spacingAndGlyphs" textLength="53" x="622.9811" y="619.0151">int blacks</text><rect fill="none" height="6" style="stroke: #C82930; stroke-width: 1.0;" width="6" x="610.9811" y="625.6094"/><text fill="#000000" font-family="sans-serif" font-size="11" lengthAdjust="spacingAndGlyphs" textLength="55" x="622.9811" y="631.8198">int whites</text><line style="stroke: #A80036; stroke-width: 1.5;" x1="603.9811" x2="734.9811" y1="638.4141" y2="638.4141"/><polygon fill="#4177AF" points="613.9811,645.4141,609.9811,651.4141,617.9811,651.4141" style="stroke: #1963A0; stroke-width: 1.0;"/><text fill="#000000" font-family="sans-serif" font-size="11" lengthAdjust="spacingAndGlyphs" textLength="78" x="622.9811" y="652.6245">Result(int, int)</text><polygon fill="#4177AF" points="613.9811,658.2188,609.9811,664.2188,617.9811,664.2188" style="stroke: #1963A0; stroke-width: 1.0;"/><text fill="#000000" font-family="sans-serif" font-size="11" lengthAdjust="spacingAndGlyphs" textLength="107" x="622.9811" y="665.4292">boolean isWinner()</text><polygon fill="#4177AF" points="613.9811,671.0234,609.9811,677.0234,617.9811,677.0234" style="stroke: #1963A0; stroke-width: 1.0;"/><text fill="#000000" font-family="sans-serif" font-size="11" lengthAdjust="spacingAndGlyphs" textLength="46" x="622.9811" y="678.2339">writeln()</text><!--MD5=[18eee71c88ab61f27581b8cbdd3ef5ee]
class Color--><rect codeLine="53" fill="#FEFECE" filter="url(#ft2a0lgvav31z)" height="252.875" id="Color" style="stroke: #A80036; stroke-width: 1.5;" width="144" x="386.4811" y="496"/><ellipse cx="438.2311" cy="512" fill="#EB937F" rx="11" ry="11" style="stroke: #A80036; stroke-width: 1.0;"/><path d="M437.028,512.875 L438.4811,512.875 L438.4811,512.9844 C438.4811,513.3906 438.5123,513.5469 438.5905,513.7031 C438.7467,513.9531 439.028,514.1094 439.3248,514.1094 C439.5748,514.1094 439.8405,513.9688 439.9967,513.75 C440.1217,513.5938 440.153,513.4375 440.153,512.9844 L440.153,511.0625 C440.153,510.9063 440.153,510.8594 440.1373,510.7031 C440.0748,510.2344 439.7623,509.9219 439.3092,509.9219 C439.0592,509.9219 438.7936,510.0625 438.6217,510.2813 C438.5123,510.4531 438.4811,510.6094 438.4811,511.0625 L438.4811,511.1875 L437.028,511.1875 L437.028,508.7813 L441.0123,508.7813 L441.0123,509.6406 C441.0123,510.0469 441.0436,510.2188 441.1217,510.375 C441.2936,510.625 441.5748,510.7813 441.8561,510.7813 C442.1217,510.7813 442.3873,510.6406 442.5592,510.4219 C442.6686,510.25 442.6998,510.1094 442.6998,509.6406 L442.6998,507.0938 L435.0748,507.0938 C434.6373,507.0938 434.5123,507.1094 434.3561,507.2031 C434.1061,507.3594 433.9498,507.6563 433.9498,507.9375 C433.9498,508.2188 434.0905,508.4688 434.3092,508.6406 C434.4655,508.75 434.653,508.7813 435.0748,508.7813 L435.3248,508.7813 L435.3248,515.2969 L435.0748,515.2969 C434.6686,515.2969 434.5123,515.3125 434.3561,515.4219 C434.1061,515.5938 433.9498,515.8594 433.9498,516.1563 C433.9498,516.4219 434.0905,516.6719 434.3092,516.8281 C434.4498,516.9531 434.6842,517 435.0748,517 L443.0748,517 L443.0748,514.4219 C443.0748,513.9844 443.0436,513.8438 442.9655,513.6875 C442.7936,513.4375 442.5123,513.2813 442.2311,513.2813 C441.9655,513.2813 441.6998,513.3906 441.528,513.6406 C441.4186,513.7969 441.3873,513.9375 441.3873,514.4219 L441.3873,515.2969 L437.028,515.2969 L437.028,512.875 Z "/><text fill="#000000" font-family="sans-serif" font-size="12" lengthAdjust="spacingAndGlyphs" textLength="32" x="458.7311" y="516.1543">Color</text><line style="stroke: #A80036; stroke-width: 1.5;" x1="387.4811" x2="529.4811" y1="528" y2="528"/><ellipse cx="397.4811" cy="539" fill="none" rx="3" ry="3" style="stroke: #038048; stroke-width: 1.0;"/><text fill="#000000" font-family="sans-serif" font-size="11" lengthAdjust="spacingAndGlyphs" textLength="23" x="406.4811" y="542.2104">RED</text><ellipse cx="397.4811" cy="551.8047" fill="none" rx="3" ry="3" style="stroke: #038048; stroke-width: 1.0;"/><text fill="#000000" font-family="sans-serif" font-size="11" lengthAdjust="spacingAndGlyphs" textLength="29" x="406.4811" y="555.0151">BLUE</text><ellipse cx="397.4811" cy="564.6094" fill="none" rx="3" ry="3" style="stroke: #038048; stroke-width: 1.0;"/><text fill="#000000" font-family="sans-serif" font-size="11" lengthAdjust="spacingAndGlyphs" textLength="46" x="406.4811" y="567.8198">YELLOW</text><ellipse cx="397.4811" cy="577.4141" fill="none" rx="3" ry="3" style="stroke: #038048; stroke-width: 1.0;"/><text fill="#000000" font-family="sans-serif" font-size="11" lengthAdjust="spacingAndGlyphs" textLength="38" x="406.4811" y="580.6245">GREEN</text><ellipse cx="397.4811" cy="590.2188" fill="none" rx="3" ry="3" style="stroke: #038048; stroke-width: 1.0;"/><text fill="#000000" font-family="sans-serif" font-size="11" lengthAdjust="spacingAndGlyphs" textLength="48" x="406.4811" y="593.4292">ORANGE</text><ellipse cx="397.4811" cy="603.0234" fill="none" rx="3" ry="3" style="stroke: #038048; stroke-width: 1.0;"/><text fill="#000000" font-family="sans-serif" font-size="11" lengthAdjust="spacingAndGlyphs" textLength="40" x="406.4811" y="606.2339">PURPLE</text><ellipse cx="397.4811" cy="615.8281" fill="none" rx="3" ry="3" style="stroke: #038048; stroke-width: 1.0;"/><text fill="#000000" font-family="sans-serif" font-size="11" lengthAdjust="spacingAndGlyphs" textLength="73" x="406.4811" y="619.0386">NULL_COLOR</text><rect fill="none" height="6" style="stroke: #C82930; stroke-width: 1.0;" width="6" x="394.4811" y="625.6328"/><text fill="#000000" font-family="sans-serif" font-size="11" lengthAdjust="spacingAndGlyphs" textLength="67" x="406.4811" y="631.8433">String initial</text><rect fill="none" height="6" style="stroke: #C82930; stroke-width: 1.0;" width="6" x="394.4811" y="638.4375"/><text fill="#000000" font-family="sans-serif" font-size="11" lengthAdjust="spacingAndGlyphs" text-decoration="underline" textLength="118" x="406.4811" y="644.6479">String RESET_COLOR</text><line style="stroke: #A80036; stroke-width: 1.5;" x1="387.4811" x2="529.4811" y1="651.2422" y2="651.2422"/><rect fill="#F24D5C" height="6" style="stroke: #C82930; stroke-width: 1.0;" width="6" x="394.4811" y="659.2422"/><text fill="#000000" font-family="sans-serif" font-size="11" lengthAdjust="spacingAndGlyphs" textLength="37" x="406.4811" y="665.4526">Color()</text><rect fill="#F24D5C" height="6" style="stroke: #C82930; stroke-width: 1.0;" width="6" x="394.4811" y="672.0469"/><text fill="#000000" font-family="sans-serif" font-size="11" lengthAdjust="spacingAndGlyphs" textLength="70" x="406.4811" y="678.2573">Color(String)</text><text fill="#000000" font-family="sans-serif" font-size="11" lengthAdjust="spacingAndGlyphs" text-decoration="underline" textLength="100" x="406.4811" y="691.062">String getInitials()</text><text fill="#000000" font-family="sans-serif" font-size="11" lengthAdjust="spacingAndGlyphs" text-decoration="underline" textLength="62" x="406.4811" y="703.8667">int length()</text><text fill="#000000" font-family="sans-serif" font-size="11" lengthAdjust="spacingAndGlyphs" text-decoration="underline" textLength="74" x="406.4811" y="716.6714">Color get(int)</text><text fill="#000000" font-family="sans-serif" font-size="11" lengthAdjust="spacingAndGlyphs" textLength="36" x="406.4811" y="729.4761">write()</text><text fill="#000000" font-family="sans-serif" font-size="11" lengthAdjust="spacingAndGlyphs" textLength="88" x="406.4811" y="742.2808">boolean isNull()</text><!--MD5=[b8cfd8c4119a3b0a7a46bfc5fc780f85]
class Error--><rect codeLine="72" fill="#FEFECE" filter="url(#ft2a0lgvav31z)" height="163.2422" id="Error" style="stroke: #A80036; stroke-width: 1.5;" width="152" x="265.4811" y="842"/><ellipse cx="322.2311" cy="858" fill="#EB937F" rx="11" ry="11" style="stroke: #A80036; stroke-width: 1.0;"/><path d="M321.028,858.875 L322.4811,858.875 L322.4811,858.9844 C322.4811,859.3906 322.5123,859.5469 322.5905,859.7031 C322.7467,859.9531 323.028,860.1094 323.3248,860.1094 C323.5748,860.1094 323.8405,859.9688 323.9967,859.75 C324.1217,859.5938 324.153,859.4375 324.153,858.9844 L324.153,857.0625 C324.153,856.9063 324.153,856.8594 324.1373,856.7031 C324.0748,856.2344 323.7623,855.9219 323.3092,855.9219 C323.0592,855.9219 322.7936,856.0625 322.6217,856.2813 C322.5123,856.4531 322.4811,856.6094 322.4811,857.0625 L322.4811,857.1875 L321.028,857.1875 L321.028,854.7813 L325.0123,854.7813 L325.0123,855.6406 C325.0123,856.0469 325.0436,856.2188 325.1217,856.375 C325.2936,856.625 325.5748,856.7813 325.8561,856.7813 C326.1217,856.7813 326.3873,856.6406 326.5592,856.4219 C326.6686,856.25 326.6998,856.1094 326.6998,855.6406 L326.6998,853.0938 L319.0748,853.0938 C318.6373,853.0938 318.5123,853.1094 318.3561,853.2031 C318.1061,853.3594 317.9498,853.6563 317.9498,853.9375 C317.9498,854.2188 318.0905,854.4688 318.3092,854.6406 C318.4655,854.75 318.653,854.7813 319.0748,854.7813 L319.3248,854.7813 L319.3248,861.2969 L319.0748,861.2969 C318.6686,861.2969 318.5123,861.3125 318.3561,861.4219 C318.1061,861.5938 317.9498,861.8594 317.9498,862.1563 C317.9498,862.4219 318.0905,862.6719 318.3092,862.8281 C318.4498,862.9531 318.6842,863 319.0748,863 L327.0748,863 L327.0748,860.4219 C327.0748,859.9844 327.0436,859.8438 326.9655,859.6875 C326.7936,859.4375 326.5123,859.2813 326.2311,859.2813 C325.9655,859.2813 325.6998,859.3906 325.528,859.6406 C325.4186,859.7969 325.3873,859.9375 325.3873,860.4219 L325.3873,861.2969 L321.028,861.2969 L321.028,858.875 Z "/><text fill="#000000" font-family="sans-serif" font-size="12" lengthAdjust="spacingAndGlyphs" textLength="30" x="342.7311" y="862.1543">Error</text><line style="stroke: #A80036; stroke-width: 1.5;" x1="266.4811" x2="416.4811" y1="874" y2="874"/><ellipse cx="276.4811" cy="885" fill="none" rx="3" ry="3" style="stroke: #038048; stroke-width: 1.0;"/><text fill="#000000" font-family="sans-serif" font-size="11" lengthAdjust="spacingAndGlyphs" textLength="71" x="285.4811" y="888.2104">DUPLICATED</text><ellipse cx="276.4811" cy="897.8047" fill="none" rx="3" ry="3" style="stroke: #038048; stroke-width: 1.0;"/><text fill="#000000" font-family="sans-serif" font-size="11" lengthAdjust="spacingAndGlyphs" textLength="126" x="285.4811" y="901.0151">WRONG_CHARACTERS</text><ellipse cx="276.4811" cy="910.6094" fill="none" rx="3" ry="3" style="stroke: #038048; stroke-width: 1.0;"/><text fill="#000000" font-family="sans-serif" font-size="11" lengthAdjust="spacingAndGlyphs" textLength="95" x="285.4811" y="913.8198">WRONG_LENGTH</text><ellipse cx="276.4811" cy="923.4141" fill="none" rx="3" ry="3" style="stroke: #038048; stroke-width: 1.0;"/><text fill="#000000" font-family="sans-serif" font-size="11" lengthAdjust="spacingAndGlyphs" textLength="71" x="285.4811" y="926.6245">NULL_ERROR</text><rect fill="none" height="6" style="stroke: #C82930; stroke-width: 1.0;" width="6" x="273.4811" y="933.2188"/><text fill="#000000" font-family="sans-serif" font-size="11" lengthAdjust="spacingAndGlyphs" textLength="90" x="285.4811" y="939.4292">String message</text><line style="stroke: #A80036; stroke-width: 1.5;" x1="266.4811" x2="416.4811" y1="946.0234" y2="946.0234"/><rect fill="#F24D5C" height="6" style="stroke: #C82930; stroke-width: 1.0;" width="6" x="273.4811" y="954.0234"/><text fill="#000000" font-family="sans-serif" font-size="11" lengthAdjust="spacingAndGlyphs" textLength="34" x="285.4811" y="960.2339">Error()</text><rect fill="#F24D5C" height="6" style="stroke: #C82930; stroke-width: 1.0;" width="6" x="273.4811" y="966.8281"/><text fill="#000000" font-family="sans-serif" font-size="11" lengthAdjust="spacingAndGlyphs" textLength="67" x="285.4811" y="973.0386">Error(String)</text><text fill="#000000" font-family="sans-serif" font-size="11" lengthAdjust="spacingAndGlyphs" textLength="46" x="285.4811" y="985.8433">writeln()</text><ellipse cx="276.4811" cy="995.4375" fill="#84BE84" rx="3" ry="3" style="stroke: #038048; stroke-width: 1.0;"/><text fill="#000000" font-family="sans-serif" font-size="11" lengthAdjust="spacingAndGlyphs" textLength="88" x="285.4811" y="998.6479">boolean isNull()</text><!--MD5=[bea5b0d46523efab5ea1c1d339f396f0]
class Message--><rect codeLine="84" fill="#FEFECE" filter="url(#ft2a0lgvav31z)" height="227.2656" id="Message" style="stroke: #A80036; stroke-width: 1.5;" width="173" x="479.9811" y="810"/><ellipse cx="534.7311" cy="826" fill="#EB937F" rx="11" ry="11" style="stroke: #A80036; stroke-width: 1.0;"/><path d="M533.528,826.875 L534.9811,826.875 L534.9811,826.9844 C534.9811,827.3906 535.0124,827.5469 535.0905,827.7031 C535.2467,827.9531 535.528,828.1094 535.8249,828.1094 C536.0749,828.1094 536.3405,827.9688 536.4967,827.75 C536.6217,827.5938 536.653,827.4375 536.653,826.9844 L536.653,825.0625 C536.653,824.9063 536.653,824.8594 536.6374,824.7031 C536.5749,824.2344 536.2624,823.9219 535.8092,823.9219 C535.5592,823.9219 535.2936,824.0625 535.1217,824.2813 C535.0124,824.4531 534.9811,824.6094 534.9811,825.0625 L534.9811,825.1875 L533.528,825.1875 L533.528,822.7813 L537.5124,822.7813 L537.5124,823.6406 C537.5124,824.0469 537.5436,824.2188 537.6217,824.375 C537.7936,824.625 538.0749,824.7813 538.3561,824.7813 C538.6217,824.7813 538.8874,824.6406 539.0592,824.4219 C539.1686,824.25 539.1999,824.1094 539.1999,823.6406 L539.1999,821.0938 L531.5749,821.0938 C531.1374,821.0938 531.0124,821.1094 530.8561,821.2031 C530.6061,821.3594 530.4499,821.6563 530.4499,821.9375 C530.4499,822.2188 530.5905,822.4688 530.8092,822.6406 C530.9655,822.75 531.153,822.7813 531.5749,822.7813 L531.8249,822.7813 L531.8249,829.2969 L531.5749,829.2969 C531.1686,829.2969 531.0124,829.3125 530.8561,829.4219 C530.6061,829.5938 530.4499,829.8594 530.4499,830.1563 C530.4499,830.4219 530.5905,830.6719 530.8092,830.8281 C530.9499,830.9531 531.1842,831 531.5749,831 L539.5749,831 L539.5749,828.4219 C539.5749,827.9844 539.5436,827.8438 539.4655,827.6875 C539.2936,827.4375 539.0124,827.2813 538.7311,827.2813 C538.4655,827.2813 538.1999,827.3906 538.028,827.6406 C537.9186,827.7969 537.8874,827.9375 537.8874,828.4219 L537.8874,829.2969 L533.528,829.2969 L533.528,826.875 Z "/><text fill="#000000" font-family="sans-serif" font-size="12" lengthAdjust="spacingAndGlyphs" textLength="55" x="555.2311" y="830.1543">Message</text><line style="stroke: #A80036; stroke-width: 1.5;" x1="480.9811" x2="651.9811" y1="842" y2="842"/><ellipse cx="490.9811" cy="853" fill="none" rx="3" ry="3" style="stroke: #038048; stroke-width: 1.0;"/><text fill="#000000" font-family="sans-serif" font-size="11" lengthAdjust="spacingAndGlyphs" textLength="59" x="499.9811" y="856.2104">ATTEMPTS</text><ellipse cx="490.9811" cy="865.8047" fill="none" rx="3" ry="3" style="stroke: #038048; stroke-width: 1.0;"/><text fill="#000000" font-family="sans-serif" font-size="11" lengthAdjust="spacingAndGlyphs" textLength="130" x="499.9811" y="869.0151">SECRET_COMBINATION</text><ellipse cx="490.9811" cy="878.6094" fill="none" rx="3" ry="3" style="stroke: #038048; stroke-width: 1.0;"/><text fill="#000000" font-family="sans-serif" font-size="11" lengthAdjust="spacingAndGlyphs" textLength="46" x="499.9811" y="881.8198">RESUME</text><ellipse cx="490.9811" cy="891.4141" fill="none" rx="3" ry="3" style="stroke: #038048; stroke-width: 1.0;"/><text fill="#000000" font-family="sans-serif" font-size="11" lengthAdjust="spacingAndGlyphs" textLength="43" x="499.9811" y="894.6245">RESULT</text><ellipse cx="490.9811" cy="904.2188" fill="none" rx="3" ry="3" style="stroke: #038048; stroke-width: 1.0;"/><text fill="#000000" font-family="sans-serif" font-size="11" lengthAdjust="spacingAndGlyphs" textLength="147" x="499.9811" y="907.4292">PROPOSED_COMBINATION</text><ellipse cx="490.9811" cy="917.0234" fill="none" rx="3" ry="3" style="stroke: #038048; stroke-width: 1.0;"/><text fill="#000000" font-family="sans-serif" font-size="11" lengthAdjust="spacingAndGlyphs" textLength="30" x="499.9811" y="920.2339">TITLE</text><ellipse cx="490.9811" cy="929.8281" fill="none" rx="3" ry="3" style="stroke: #038048; stroke-width: 1.0;"/><text fill="#000000" font-family="sans-serif" font-size="11" lengthAdjust="spacingAndGlyphs" textLength="44" x="499.9811" y="933.0386">WINNER</text><ellipse cx="490.9811" cy="942.6328" fill="none" rx="3" ry="3" style="stroke: #038048; stroke-width: 1.0;"/><text fill="#000000" font-family="sans-serif" font-size="11" lengthAdjust="spacingAndGlyphs" textLength="46" x="499.9811" y="945.8433">LOOSER</text><rect fill="none" height="6" style="stroke: #C82930; stroke-width: 1.0;" width="6" x="487.9811" y="952.4375"/><text fill="#000000" font-family="sans-serif" font-size="11" lengthAdjust="spacingAndGlyphs" textLength="93" x="499.9811" y="958.6479">String message;</text><line style="stroke: #A80036; stroke-width: 1.5;" x1="480.9811" x2="651.9811" y1="965.2422" y2="965.2422"/><rect fill="#F24D5C" height="6" style="stroke: #C82930; stroke-width: 1.0;" width="6" x="487.9811" y="973.2422"/><text fill="#000000" font-family="sans-serif" font-size="11" lengthAdjust="spacingAndGlyphs" textLength="92" x="499.9811" y="979.4526">Message(String)</text><text fill="#000000" font-family="sans-serif" font-size="11" lengthAdjust="spacingAndGlyphs" textLength="36" x="499.9811" y="992.2573">write()</text><text fill="#000000" font-family="sans-serif" font-size="11" lengthAdjust="spacingAndGlyphs" textLength="46" x="499.9811" y="1005.062">writeln()</text><text fill="#000000" font-family="sans-serif" font-size="11" lengthAdjust="spacingAndGlyphs" textLength="60" x="499.9811" y="1017.8667">writeln(int)</text><text fill="#000000" font-family="sans-serif" font-size="11" lengthAdjust="spacingAndGlyphs" textLength="81" x="499.9811" y="1030.6714">writeln(int, int)</text><!--MD5=[315b61b427ec618d6861d47eee00cca3]
class Console--><rect codeLine="124" fill="#FEFECE" filter="url(#ft2a0lgvav31z)" height="48" id="Console" style="stroke: #A80036; stroke-width: 1.5;" width="81" x="1077.9811" y="1100"/><ellipse cx="1092.9811" cy="1116" fill="#ADD1B2" rx="11" ry="11" style="stroke: #A80036; stroke-width: 1.0;"/><path d="M1095.3249,1111.6719 C1094.3874,1111.2344 1093.7936,1111.0938 1092.9186,1111.0938 C1090.2936,1111.0938 1088.2936,1113.1719 1088.2936,1115.8906 L1088.2936,1117.0156 C1088.2936,1119.5938 1090.403,1121.4844 1093.2936,1121.4844 C1094.5124,1121.4844 1095.6686,1121.1875 1096.4186,1120.6406 C1096.9967,1120.2344 1097.3249,1119.7813 1097.3249,1119.3906 C1097.3249,1118.9375 1096.9342,1118.5469 1096.4655,1118.5469 C1096.2467,1118.5469 1096.0436,1118.625 1095.8561,1118.8125 C1095.403,1119.2969 1095.403,1119.2969 1095.2155,1119.3906 C1094.7936,1119.6563 1094.1061,1119.7813 1093.3405,1119.7813 C1091.2936,1119.7813 1089.9967,1118.6875 1089.9967,1116.9844 L1089.9967,1115.8906 C1089.9967,1114.1094 1091.2467,1112.7969 1092.9811,1112.7969 C1093.5592,1112.7969 1094.1686,1112.9531 1094.6374,1113.2031 C1095.1217,1113.4844 1095.2936,1113.7031 1095.3874,1114.1094 C1095.4499,1114.5156 1095.4811,1114.6406 1095.6217,1114.7656 C1095.7624,1114.9063 1095.9967,1115.0156 1096.2155,1115.0156 C1096.4811,1115.0156 1096.7467,1114.875 1096.9186,1114.6563 C1097.028,1114.5 1097.0592,1114.3125 1097.0592,1113.8906 L1097.0592,1112.4688 C1097.0592,1112.0313 1097.0436,1111.9063 1096.9499,1111.75 C1096.7936,1111.4844 1096.5124,1111.3438 1096.2155,1111.3438 C1095.9186,1111.3438 1095.7155,1111.4375 1095.4967,1111.75 L1095.3249,1111.6719 Z "/><text fill="#000000" font-family="sans-serif" font-size="12" lengthAdjust="spacingAndGlyphs" textLength="49" x="1106.9811" y="1120.1543">Console</text><line style="stroke: #A80036; stroke-width: 1.5;" x1="1078.9811" x2="1157.9811" y1="1132" y2="1132"/><line style="stroke: #A80036; stroke-width: 1.5;" x1="1078.9811" x2="1157.9811" y1="1140" y2="1140"/><!--MD5=[d93cf99d2b92276f27fe8dbf15140505]
class YesNoDialog--><rect codeLine="129" fill="#FEFECE" filter="url(#ft2a0lgvav31z)" height="48" id="YesNoDialog" style="stroke: #A80036; stroke-width: 1.5;" width="108" x="1208.4861" y="899.5"/><ellipse cx="1223.4861" cy="915.5" fill="#ADD1B2" rx="11" ry="11" style="stroke: #A80036; stroke-width: 1.0;"/><path d="M1225.8299,911.1719 C1224.8924,910.7344 1224.2986,910.5938 1223.4236,910.5938 C1220.7986,910.5938 1218.7986,912.6719 1218.7986,915.3906 L1218.7986,916.5156 C1218.7986,919.0938 1220.908,920.9844 1223.7986,920.9844 C1225.0174,920.9844 1226.1736,920.6875 1226.9236,920.1406 C1227.5017,919.7344 1227.8299,919.2813 1227.8299,918.8906 C1227.8299,918.4375 1227.4392,918.0469 1226.9705,918.0469 C1226.7517,918.0469 1226.5486,918.125 1226.3611,918.3125 C1225.908,918.7969 1225.908,918.7969 1225.7205,918.8906 C1225.2986,919.1563 1224.6111,919.2813 1223.8455,919.2813 C1221.7986,919.2813 1220.5017,918.1875 1220.5017,916.4844 L1220.5017,915.3906 C1220.5017,913.6094 1221.7517,912.2969 1223.4861,912.2969 C1224.0642,912.2969 1224.6736,912.4531 1225.1424,912.7031 C1225.6267,912.9844 1225.7986,913.2031 1225.8924,913.6094 C1225.9549,914.0156 1225.9861,914.1406 1226.1267,914.2656 C1226.2674,914.4063 1226.5017,914.5156 1226.7205,914.5156 C1226.9861,914.5156 1227.2517,914.375 1227.4236,914.1563 C1227.533,914 1227.5642,913.8125 1227.5642,913.3906 L1227.5642,911.9688 C1227.5642,911.5313 1227.5486,911.4063 1227.4549,911.25 C1227.2986,910.9844 1227.0174,910.8438 1226.7205,910.8438 C1226.4236,910.8438 1226.2205,910.9375 1226.0017,911.25 L1225.8299,911.1719 Z "/><text fill="#000000" font-family="sans-serif" font-size="12" lengthAdjust="spacingAndGlyphs" textLength="76" x="1237.4861" y="919.6543">YesNoDialog</text><line style="stroke: #A80036; stroke-width: 1.5;" x1="1209.4861" x2="1315.4861" y1="931.5" y2="931.5"/><line style="stroke: #A80036; stroke-width: 1.5;" x1="1209.4861" x2="1315.4861" y1="939.5" y2="939.5"/><!--MD5=[5f6eaca964039dd95284677bcb120bda]
class usantatecla.utils.ColorCode--><rect fill="#FEFECE" filter="url(#ft2a0lgvav31z)" height="48" id="usantatecla.utils.ColorCode" style="stroke: #A80036; stroke-width: 1.5;" width="96" x="1077.4811" y="899.5"/><ellipse cx="1092.4811" cy="915.5" fill="#ADD1B2" rx="11" ry="11" style="stroke: #A80036; stroke-width: 1.0;"/><path d="M1094.8249,911.1719 C1093.8874,910.7344 1093.2936,910.5938 1092.4186,910.5938 C1089.7936,910.5938 1087.7936,912.6719 1087.7936,915.3906 L1087.7936,916.5156 C1087.7936,919.0938 1089.903,920.9844 1092.7936,920.9844 C1094.0124,920.9844 1095.1686,920.6875 1095.9186,920.1406 C1096.4967,919.7344 1096.8249,919.2813 1096.8249,918.8906 C1096.8249,918.4375 1096.4342,918.0469 1095.9655,918.0469 C1095.7467,918.0469 1095.5436,918.125 1095.3561,918.3125 C1094.903,918.7969 1094.903,918.7969 1094.7155,918.8906 C1094.2936,919.1563 1093.6061,919.2813 1092.8405,919.2813 C1090.7936,919.2813 1089.4967,918.1875 1089.4967,916.4844 L1089.4967,915.3906 C1089.4967,913.6094 1090.7467,912.2969 1092.4811,912.2969 C1093.0592,912.2969 1093.6686,912.4531 1094.1374,912.7031 C1094.6217,912.9844 1094.7936,913.2031 1094.8874,913.6094 C1094.9499,914.0156 1094.9811,914.1406 1095.1217,914.2656 C1095.2624,914.4063 1095.4967,914.5156 1095.7155,914.5156 C1095.9811,914.5156 1096.2467,914.375 1096.4186,914.1563 C1096.528,914 1096.5592,913.8125 1096.5592,913.3906 L1096.5592,911.9688 C1096.5592,911.5313 1096.5436,911.4063 1096.4499,911.25 C1096.2936,910.9844 1096.0124,910.8438 1095.7155,910.8438 C1095.4186,910.8438 1095.2155,910.9375 1094.9967,911.25 L1094.8249,911.1719 Z "/><text fill="#000000" font-family="sans-serif" font-size="12" lengthAdjust="spacingAndGlyphs" textLength="64" x="1106.4811" y="919.6543">ColorCode</text><line style="stroke: #A80036; stroke-width: 1.5;" x1="1078.4811" x2="1172.4811" y1="931.5" y2="931.5"/><line style="stroke: #A80036; stroke-width: 1.5;" x1="1078.4811" x2="1172.4811" y1="939.5" y2="939.5"/><!--MD5=[ba28573f2062cf9f5d1d4aa517f0cc38]
link Mastermind to Board--><path codeLine="103" d="M410.4377,160.4307 C410.4377,160.4307 463.9781,201.225 491.1231,221.905 " fill="none" id="Mastermind-Board" style="stroke: #A80036; stroke-width: 1.0;"/><polygon fill="#A80036" points="501.4871,229.8,496.7519,221.1642,497.5098,226.77,491.9039,227.5279,501.4871,229.8" style="stroke: #A80036; stroke-width: 1.0;"/><line style="stroke: #A80036; stroke-width: 1.0;" x1="497.5098" x2="491.1461" y1="226.77" y2="221.922"/><polygon fill="#A80036" points="400.8911,153.16,403.2408,159.9775,410.4377,160.4307,408.088,153.6132,400.8911,153.16" style="stroke: #A80036; stroke-width: 1.0;"/><text fill="#000000" font-family="sans-serif" font-size="13" lengthAdjust="spacingAndGlyphs" textLength="37" x="460.4811" y="196.0669">board</text><!--MD5=[165aae362738a81ed253bf2cad9e16e5]
link Mastermind to ProposedCombination--><path codeLine="104" d="M303.7251,153.09 C294.4141,176.35 284.8021,204.017 279.4811,230 C255.8391,345.463 255.4901,483.891 257.7381,561.36 " fill="none" id="Mastermind-to-ProposedCombination" style="stroke: #A80036; stroke-width: 1.0; stroke-dasharray: 7.0,7.0;"/><polygon fill="#A80036" points="257.8901,566.373,261.6157,557.256,257.7387,561.3753,253.6193,557.4983,257.8901,566.373" style="stroke: #A80036; stroke-width: 1.0;"/><!--MD5=[5e915b8ab835b2366405aaf6901e131b]
link Board to SecretCombination--><path codeLine="105" d="M718.6638,427.9918 C718.6638,427.9918 812.7881,530.422 848.3901,569.165 " fill="none" id="Board-SecretCombination" style="stroke: #A80036; stroke-width: 1.0;"/><polygon fill="#A80036" points="857.5831,579.169,854.4393,569.8354,854.2002,575.4872,848.5484,575.2481,857.5831,579.169" style="stroke: #A80036; stroke-width: 1.0;"/><line style="stroke: #A80036; stroke-width: 1.0;" x1="854.2002" x2="848.7866" y1="575.4872" y2="569.5965"/><polygon fill="#A80036" points="710.5441,419.156,711.6587,426.2804,718.6638,427.9918,717.5492,420.8673,710.5441,419.156" style="stroke: #A80036; stroke-width: 1.0;"/><text fill="#000000" font-family="sans-serif" font-size="13" lengthAdjust="spacingAndGlyphs" textLength="121" x="753.4811" y="462.0669">secretCombination</text><!--MD5=[e0b5d9907fda64872c10fd6493e0c51f]
link Board to ProposedCombination--><path codeLine="106" d="M468.6858,405.3122 C468.6858,405.3122 425.9531,433.716 407.4811,449 C369.9801,480.028 334.3971,521.348 307.6351,555.769 " fill="none" id="Board-ProposedCombination" style="stroke: #A80036; stroke-width: 1.0;"/><polygon fill="#A80036" points="299.6201,566.21,308.273,561.5061,302.6645,562.2437,301.9269,556.6351,299.6201,566.21" style="stroke: #A80036; stroke-width: 1.0;"/><line style="stroke: #A80036; stroke-width: 1.0;" x1="302.6645" x2="307.5356" y1="562.2437" y2="555.8975"/><polygon fill="#FFFFFF" points="478.8841,398.988,471.6769,398.7506,468.6858,405.3122,475.893,405.5495,478.8841,398.988" style="stroke: #A80036; stroke-width: 1.0;"/><text fill="#000000" font-family="sans-serif" font-size="13" lengthAdjust="spacingAndGlyphs" textLength="148" x="408.4811" y="462.0669">proposedCombinations</text><text fill="#000000" font-family="sans-serif" font-size="13" lengthAdjust="spacingAndGlyphs" textLength="32" x="270.4401" y="555.5092">0..10</text><!--MD5=[8dd95aff79c51151a18c835e3410b3cd]
link Board to Result--><path codeLine="107" d="M640.5227,431.0198 C640.5227,431.0198 652.8501,512.101 658.1241,546.797 " fill="none" id="Board-Result" style="stroke: #A80036; stroke-width: 1.0;"/><polygon fill="#A80036" points="660.0891,559.719,662.6906,550.2199,659.3374,554.7758,654.7815,551.4226,660.0891,559.719" style="stroke: #A80036; stroke-width: 1.0;"/><line style="stroke: #A80036; stroke-width: 1.0;" x1="659.3374" x2="658.1351" y1="554.7758" y2="546.867"/><polygon fill="#FFFFFF" points="638.7201,419.156,635.6668,425.6888,640.5227,431.0198,643.576,424.4871,638.7201,419.156" style="stroke: #A80036; stroke-width: 1.0;"/><text fill="#000000" font-family="sans-serif" font-size="13" lengthAdjust="spacingAndGlyphs" textLength="43" x="647.4811" y="462.0669">results</text><text fill="#000000" font-family="sans-serif" font-size="13" lengthAdjust="spacingAndGlyphs" textLength="32" x="625.3119" y="549.1156">0..10</text><!--MD5=[6e8433e42d71f9427401b78cd95c6f0c]
link Combination to Color--><path codeLine="109" d="M334.3472,372.5902 C334.3472,372.5902 312.8411,437.147 327.4811,466 C337.6981,486.136 352.5921,479.958 368.4811,496 C371.5001,499.048 374.4931,502.205 377.4521,505.446 " fill="none" id="Combination-Color" style="stroke: #A80036; stroke-width: 1.0;"/><polygon fill="#A80036" points="386.2161,515.394,383.2684,505.9966,382.911,511.6422,377.2654,511.2848,386.2161,515.394" style="stroke: #A80036; stroke-width: 1.0;"/><line style="stroke: #A80036; stroke-width: 1.0;" x1="382.911" x2="377.6221" y1="511.6422" y2="505.6395"/><polygon fill="#A80036" points="339.4601,361.734,333.2849,365.4578,334.3472,372.5902,340.5224,368.8664,339.4601,361.734" style="stroke: #A80036; stroke-width: 1.0;"/><text fill="#000000" font-family="sans-serif" font-size="13" lengthAdjust="spacingAndGlyphs" textLength="38" x="328.4811" y="462.0669">colors</text><text fill="#000000" font-family="sans-serif" font-size="13" lengthAdjust="spacingAndGlyphs" textLength="8" x="370.3513" y="500.6554">4</text><!--MD5=[ed81d3472c9069d2de3c2f5cd308846f]
reverse link Combination to SecretCombination--><path codeLine="110" d="M406.3461,376.313 C422.3911,391.92 441.4851,407.891 461.4811,419 C479.0811,428.778 617.0071,460.888 636.4811,466 C688.4051,479.629 706.0061,470.942 753.4811,496 C793.6481,517.201 831.9201,551.832 858.7461,579.351 " fill="none" id="Combination-backto-SecretCombination" style="stroke: #A80036; stroke-width: 1.0;"/><polygon fill="none" points="400.9601,380.818,391.9671,361.631,410.9621,371.022,400.9601,380.818" style="stroke: #A80036; stroke-width: 1.0;"/><!--MD5=[2f10888865b2f559cc24db01ac34cee3]
reverse link Combination to ProposedCombination--><path codeLine="111" d="M339.7041,380.586 C331.5091,401.859 322.2901,426.461 314.4811,449 C300.9721,487.992 287.0931,532.442 276.7891,566.453 " fill="none" id="Combination-backto-ProposedCombination" style="stroke: #A80036; stroke-width: 1.0;"/><polygon fill="none" points="333.2491,377.871,347.0201,361.766,346.2981,382.943,333.2491,377.871" style="stroke: #A80036; stroke-width: 1.0;"/><!--MD5=[03e1adeaed11e2ac298b9b43cd912fbb]
link ProposedCombination to Error--><path codeLine="112" d="M275.4321,678.69 C287.4551,723.071 304.5551,786.194 318.3441,837.091 " fill="none" id="ProposedCombination-to-Error" style="stroke: #A80036; stroke-width: 1.0; stroke-dasharray: 7.0,7.0;"/><polygon fill="#A80036" points="319.6671,841.977,321.1749,832.2442,318.3599,837.1509,313.4532,834.3358,319.6671,841.977" style="stroke: #A80036; stroke-width: 1.0;"/><!--MD5=[c90363da1e54012406e61a987ebdf2c8]
link Mastermind to Message--><path codeLine="115" d="M284.7741,153.02 C194.1552,274.142 6,567.445 152.4813,749 C233.0011,848.8 319.5461,753.138 434.4811,810 C448.6671,817.018 462.5921,825.897 475.7661,835.577 " fill="none" id="Mastermind-to-Message" style="stroke: #A80036; stroke-width: 1.0; stroke-dasharray: 7.0,7.0;"/><polygon fill="#A80036" points="479.8291,838.605,475.0026,830.0199,475.8199,835.6174,470.2224,836.4346,479.8291,838.605" style="stroke: #A80036; stroke-width: 1.0;"/><!--MD5=[f93e57f7ded8581437b27fa1712e0f0d]
link Board to Message--><path codeLine="116" d="M599.8601,419.191 C594.2191,444.001 588.8861,470.875 585.4811,496 C571.4291,599.698 567.0971,718.742 566.0391,804.663 " fill="none" id="Board-to-Message" style="stroke: #A80036; stroke-width: 1.0; stroke-dasharray: 7.0,7.0;"/><polygon fill="#A80036" points="565.9791,809.758,570.0843,800.8055,566.0377,804.7583,562.0848,800.7118,565.9791,809.758" style="stroke: #A80036; stroke-width: 1.0;"/><!--MD5=[b9347c562a69bbba75d70bb21299d009]
link ProposedCombination to Message--><path codeLine="117" d="M305.1221,678.728 C323.9911,701.168 346.6281,726.95 368.4811,749 C388.0001,768.695 433.4981,808.697 475.9621,845.332 " fill="none" id="ProposedCombination-to-Message" style="stroke: #A80036; stroke-width: 1.0; stroke-dasharray: 7.0,7.0;"/><polygon fill="#A80036" points="479.7981,848.639,475.5944,839.7323,476.0115,845.3738,470.3701,845.7908,479.7981,848.639" style="stroke: #A80036; stroke-width: 1.0;"/><!--MD5=[478a268921f9a7a4cb7b8daeb48ad6b0]
link Result to Message--><path codeLine="118" d="M648.2641,685.09 C636.3521,719.671 621.0871,763.983 606.9781,804.94 " fill="none" id="Result-to-Message" style="stroke: #A80036; stroke-width: 1.0; stroke-dasharray: 7.0,7.0;"/><polygon fill="#A80036" points="605.2641,809.917,611.9775,802.7107,606.8927,805.1897,604.4138,800.1049,605.2641,809.917" style="stroke: #A80036; stroke-width: 1.0;"/><!--MD5=[463cc8af4a3cc64d4486d23129543027]
link YesNoDialog to Console--><path codeLine="135" d="M1253.7161,947.591 C1242.1961,976.094 1220.0461,1025.183 1191.4861,1061 C1181.1461,1073.965 1167.7861,1086.2374 1155.3161,1096.3895 " fill="none" id="YesNoDialog-to-Console" style="stroke: #A80036; stroke-width: 1.0; stroke-dasharray: 7.0,7.0;"/><polygon fill="#A80036" points="1151.1361,1099.7491,1160.6591,1097.2367,1155.036,1096.6201,1155.6526,1090.9969,1151.1361,1099.7491" style="stroke: #A80036; stroke-width: 1.0;"/><!--MD5=[922eb40535b2da68a8faa8740884533b]
link Board to Console--><path codeLine="136" d="M770.3311,369.734 C948.8831,433.347 1239.2861,570.228 1334.4861,810 C1375.6461,913.682 1401.6061,971.899 1334.4861,1061 C1314.0261,1088.1479 1221.3561,1107.0624 1164.2461,1116.3748 " fill="none" id="Board-to-Console" style="stroke: #A80036; stroke-width: 1.0; stroke-dasharray: 7.0,7.0;"/><polygon fill="#A80036" points="1159.1761,1117.1917,1168.693,1119.7272,1164.1139,1116.4057,1167.4354,1111.8267,1159.1761,1117.1917" style="stroke: #A80036; stroke-width: 1.0;"/><!--MD5=[913a83e29969536c5e075cf265ec81cd]
link Color to Console--><path codeLine="137" d="M386.4721,731.704 C380.7051,737.852 374.6941,743.683 368.4811,749 C322.7231,788.156 279.0591,758.717 247.4811,810 C188.9898,904.991 171.4516,979.366 247.4811,1061 C304.0441,1121.7324 901.1521,1123.9298 1072.6581,1123.2954 " fill="none" id="Color-to-Console" style="stroke: #A80036; stroke-width: 1.0; stroke-dasharray: 7.0,7.0;"/><polygon fill="#A80036" points="1077.8501,1123.2749,1068.8342,1119.3109,1072.8501,1123.2949,1068.8662,1127.3109,1077.8501,1123.2749" style="stroke: #A80036; stroke-width: 1.0;"/><!--MD5=[42b148366534e08341523a69727818ae]
link Color to usantatecla.utils.ColorCode--><path codeLine="138" d="M530.6481,710.186 C547.1651,725.316 565.7291,739.293 585.4811,749 C676.4441,793.706 949.5521,759.589 1037.4811,810 C1071.6451,829.587 1097.2881,868.167 1111.8361,894.637 " fill="none" id="Color-to-usantatecla.utils.ColorCode" style="stroke: #A80036; stroke-width: 1.0; stroke-dasharray: 7.0,7.0;"/><polygon fill="#A80036" points="1114.2461,899.104,1113.4899,889.2842,1111.8706,894.7044,1106.4504,893.0851,1114.2461,899.104" style="stroke: #A80036; stroke-width: 1.0;"/><!--MD5=[702d0bc4071943235df53e25e5a40cdb]
link Error to Console--><path codeLine="139" d="M395.4601,1005.257 C414.0691,1026.932 436.7861,1047.952 462.4811,1061 C569.4991,1115.3446 941.8371,1122.255 1072.6291,1122.9802 " fill="none" id="Error-to-Console" style="stroke: #A80036; stroke-width: 1.0; stroke-dasharray: 7.0,7.0;"/><polygon fill="#A80036" points="1077.9271,1123.0069,1068.9478,1118.9607,1072.9272,1122.9812,1068.9066,1126.9606,1077.9271,1123.0069" style="stroke: #A80036; stroke-width: 1.0;"/><!--MD5=[fde603ad956a440325a7db2e94c3d038]
link Message to Console--><path codeLine="140" d="M653.2421,1013.602 C679.0121,1035.338 708.6521,1056.265 739.4811,1070 C798.3151,1096.2106 985.4311,1113.1203 1072.7661,1119.7829 " fill="none" id="Message-to-Console" style="stroke: #A80036; stroke-width: 1.0; stroke-dasharray: 7.0,7.0;"/><polygon fill="#A80036" points="1077.8641,1120.1689,1069.1928,1115.499,1072.8785,1119.7903,1068.5871,1123.476,1077.8641,1120.1689" style="stroke: #A80036; stroke-width: 1.0;"/><!--MD5=[6bfe31e80e6e77060baa4b8d6064148a]
link ProposedCombination to Console--><path codeLine="141" d="M295.2801,678.646 C313.9781,703.857 339.2111,731.86 368.4811,749 C486.6451,818.195 548.6531,747.482 670.4811,810 C816.2511,884.804 800.1251,976.473 940.4811,1061 C982.1991,1086.1238 1035.5661,1102.9896 1072.9411,1112.7082 " fill="none" id="ProposedCombination-to-Console" style="stroke: #A80036; stroke-width: 1.0; stroke-dasharray: 7.0,7.0;"/><polygon fill="#A80036" points="1077.8761,1113.9741,1070.1528,1107.8625,1073.033,1112.7313,1068.1643,1115.6114,1077.8761,1113.9741" style="stroke: #A80036; stroke-width: 1.0;"/><!--MD5=[336a78eb14894e486e0ed36e439320b7]
link SecretCombination to Console--><path codeLine="142" d="M906.0961,665.53 C925.8961,746.575 976.4591,928.172 1059.4811,1061 C1067.4071,1073.681 1078.2201,1085.9732 1088.4241,1096.2229 " fill="none" id="SecretCombination-to-Console" style="stroke: #A80036; stroke-width: 1.0; stroke-dasharray: 7.0,7.0;"/><polygon fill="#A80036" points="1092.1501,1099.9036,1088.5591,1090.7327,1088.5933,1096.3895,1082.9365,1096.4237,1092.1501,1099.9036" style="stroke: #A80036; stroke-width: 1.0;"/><!--MD5=[1499d68dab61e96ede2ae386f5ea1cf6]
link Mastermind to YesNoDialog--><path codeLine="143" d="M419.9101,109.93 C516.8001,125.72 671.5201,160.17 787.4811,230 C1061.6441,395.092 1214.8861,786.236 1252.9961,894.372 " fill="none" id="Mastermind-to-YesNoDialog" style="stroke: #A80036; stroke-width: 1.0; stroke-dasharray: 7.0,7.0;"/><polygon fill="#A80036" points="1254.7261,899.306,1255.5231,889.4894,1253.0718,894.5876,1247.9736,892.1363,1254.7261,899.306" style="stroke: #A80036; stroke-width: 1.0;"/><!--MD5=[f54a67750077b05f9cacc4c7b9e14e96]
@startuml
package usantatecla.mastermind {
class Mastermind {
	- Board board
	+ play()
	- playGame()
	- boolean isResumedGame()
	+ {static} void main(String[])
}


class Board {
  - {static} int MAX_ATTEMPS
  - SecretCombination secretCombination
  - ProposedCombination[] proposedCombinations
  - Result[] results 
  - int attempts
  ~ Board()
  + writeln()
  + add(ProposedCombination)
  + boolean isFinished()
  + boolean isWinner()
  - boolean isLooser()
}

abstract class Combination {
	~ List<Color> colors
	~ Combination ()
}

class SecretCombination {
	~ SecretCombination()
	~ Result getResult(ProposedCombination)
	~ writeln()
}

class ProposedCombination {
	~write()
	~read()
	- Error checkError(String)
	~ boolean contains(Color, int)
	~ boolean contains(Color)
}

class Result{
	+ {static} int WIDTH
	- int blacks
	- int whites
	~ Result(int, int)
	~ boolean isWinner()
	~ writeln()
}

enum Color {
	+ RED
	+ BLUE
	+ YELLOW
	+ GREEN
	+ ORANGE
	+ PURPLE
	+ NULL_COLOR
	- String initial
	- {static} String RESET_COLOR
	- Color()
	- Color(String)
	{static} String getInitials()
	{static} int length()
	{static} Color get(int)
	write()
	boolean isNull()
}

enum Error {
	+ DUPLICATED
	+ WRONG_CHARACTERS
	+ WRONG_LENGTH
	+ NULL_ERROR
	- String message
	- Error()
	- Error(String)
	writeln()
	+ boolean isNull()
}

enum Message {
	+ ATTEMPTS
	+ SECRET_COMBINATION
	+ RESUME
	+ RESULT
	+ PROPOSED_COMBINATION
	+ TITLE
	+ WINNER
	+ LOOSER
	- String message;
	- Message(String)
	write()
	writeln()
	writeln(int)
	writeln(int, int)
}



Mastermind *-down-> Board : board
Mastermind .down.> ProposedCombination
Board *-down-> SecretCombination : secretCombination
Board o-down-> "0..10" ProposedCombination : proposedCombinations
Board o-down-> "0..10" Result : results

Combination *-down-> "4" Color : colors
Combination <|-down- SecretCombination
Combination <|-down- ProposedCombination
ProposedCombination .down.> Error


Mastermind .down.> Message
Board .down.> Message
ProposedCombination .down.> Message
Result .down.> Message

}

package usantatecla.utils {

class Console {


}

class YesNoDialog {

}

}

YesNoDialog .down.> Console
Board .down.> Console
Color .down.> Console
Color .down.> usantatecla.utils.ColorCode
Error .down.> Console
Message .down.> Console
ProposedCombination .down.> Console
SecretCombination .down.> Console
Mastermind .down.> YesNoDialog
@enduml

PlantUML version 1.2020.20beta4(Unknown compile time)
(GPL source distribution)
Java Runtime: Java(TM) SE Runtime Environment
JVM: Java HotSpot(TM) 64-Bit Server VM
Default Encoding: UTF-8
Language: en
Country: US
--></g></svg>