<?xml version="1.0" encoding="UTF-8" standalone="no"?><svg xmlns="http://www.w3.org/2000/svg" xmlns:xlink="http://www.w3.org/1999/xlink" contentScriptType="application/ecmascript" contentStyleType="text/css" height="1175px" preserveAspectRatio="none" style="width:1468px;height:1175px;" version="1.1" viewBox="0 0 1468 1175" width="1468px" zoomAndPan="magnify"><defs><filter height="300%" id="f9soi9ic32pic" width="300%" x="-1" y="-1"><feGaussianBlur result="blurOut" stdDeviation="2.0"/><feColorMatrix in="blurOut" result="blurOut2" type="matrix" values="0 0 0 0 0 0 0 0 0 0 0 0 0 0 0 0 0 0 .4 0"/><feOffset dx="4.0" dy="4.0" in="blurOut2" result="blurOut3"/><feBlend in="SourceGraphic" in2="blurOut3" mode="normal"/></filter></defs><g><!--MD5=[9be0839337cfdab5d118a2e29cf0a8c4]
cluster usantatecla.mastermind--><polygon fill="#FFFFFF" filter="url(#f9soi9ic32pic)" points="16,6,223,6,230,28.2969,962,28.2969,962,1066,16,1066,16,6" style="stroke: #000000; stroke-width: 1.5;"/><line style="stroke: #000000; stroke-width: 1.5;" x1="16" x2="230" y1="28.2969" y2="28.2969"/><text fill="#000000" font-family="sans-serif" font-size="14" font-weight="bold" lengthAdjust="spacingAndGlyphs" textLength="201" x="20" y="20.9951">usantatecla.mastermind</text><!--MD5=[7283a9eed84464550b6d5ebf39c68b05]
class Mastermind--><rect codeLine="2" fill="#FEFECE" filter="url(#f9soi9ic32pic)" height="112.0234" id="Mastermind" style="stroke: #A80036; stroke-width: 1.5;" width="185" x="177.5" y="41"/><ellipse cx="230.75" cy="57" fill="#ADD1B2" rx="11" ry="11" style="stroke: #A80036; stroke-width: 1.0;"/><path d="M233.0938,52.6719 C232.1563,52.2344 231.5625,52.0938 230.6875,52.0938 C228.0625,52.0938 226.0625,54.1719 226.0625,56.8906 L226.0625,58.0156 C226.0625,60.5938 228.1719,62.4844 231.0625,62.4844 C232.2813,62.4844 233.4375,62.1875 234.1875,61.6406 C234.7656,61.2344 235.0938,60.7813 235.0938,60.3906 C235.0938,59.9375 234.7031,59.5469 234.2344,59.5469 C234.0156,59.5469 233.8125,59.625 233.625,59.8125 C233.1719,60.2969 233.1719,60.2969 232.9844,60.3906 C232.5625,60.6563 231.875,60.7813 231.1094,60.7813 C229.0625,60.7813 227.7656,59.6875 227.7656,57.9844 L227.7656,56.8906 C227.7656,55.1094 229.0156,53.7969 230.75,53.7969 C231.3281,53.7969 231.9375,53.9531 232.4063,54.2031 C232.8906,54.4844 233.0625,54.7031 233.1563,55.1094 C233.2188,55.5156 233.25,55.6406 233.3906,55.7656 C233.5313,55.9063 233.7656,56.0156 233.9844,56.0156 C234.25,56.0156 234.5156,55.875 234.6875,55.6563 C234.7969,55.5 234.8281,55.3125 234.8281,54.8906 L234.8281,53.4688 C234.8281,53.0313 234.8125,52.9063 234.7188,52.75 C234.5625,52.4844 234.2813,52.3438 233.9844,52.3438 C233.6875,52.3438 233.4844,52.4375 233.2656,52.75 L233.0938,52.6719 Z "/><text fill="#000000" font-family="sans-serif" font-size="12" lengthAdjust="spacingAndGlyphs" textLength="70" x="251.25" y="61.1543">Mastermind</text><line style="stroke: #A80036; stroke-width: 1.5;" x1="178.5" x2="361.5" y1="73" y2="73"/><rect fill="none" height="6" style="stroke: #C82930; stroke-width: 1.0;" width="6" x="185.5" y="81"/><text fill="#000000" font-family="sans-serif" font-size="11" lengthAdjust="spacingAndGlyphs" textLength="72" x="197.5" y="87.2104">board: Board</text><line style="stroke: #A80036; stroke-width: 1.5;" x1="178.5" x2="361.5" y1="93.8047" y2="93.8047"/><ellipse cx="188.5" cy="104.8047" fill="#84BE84" rx="3" ry="3" style="stroke: #038048; stroke-width: 1.0;"/><text fill="#000000" font-family="sans-serif" font-size="11" lengthAdjust="spacingAndGlyphs" textLength="32" x="197.5" y="108.0151">play()</text><rect fill="#F24D5C" height="6" style="stroke: #C82930; stroke-width: 1.0;" width="6" x="185.5" y="114.6094"/><text fill="#000000" font-family="sans-serif" font-size="11" lengthAdjust="spacingAndGlyphs" textLength="67" x="197.5" y="120.8198">playGame()</text><rect fill="#F24D5C" height="6" style="stroke: #C82930; stroke-width: 1.0;" width="6" x="185.5" y="127.4141"/><text fill="#000000" font-family="sans-serif" font-size="11" lengthAdjust="spacingAndGlyphs" textLength="159" x="197.5" y="133.6245">isResumedGame(): boolean</text><ellipse cx="188.5" cy="143.2188" fill="#84BE84" rx="3" ry="3" style="stroke: #038048; stroke-width: 1.0;"/><text fill="#000000" font-family="sans-serif" font-size="11" lengthAdjust="spacingAndGlyphs" text-decoration="underline" textLength="77" x="197.5" y="146.4292">main(String[])</text><!--MD5=[9563755d011c5cec7ec66dc53565a59e]
class Board--><rect codeLine="11" fill="#FEFECE" filter="url(#f9soi9ic32pic)" height="188.8516" id="Board" style="stroke: #A80036; stroke-width: 1.5;" width="294" x="250" y="230"/><ellipse cx="374.75" cy="246" fill="#ADD1B2" rx="11" ry="11" style="stroke: #A80036; stroke-width: 1.0;"/><path d="M377.0938,241.6719 C376.1563,241.2344 375.5625,241.0938 374.6875,241.0938 C372.0625,241.0938 370.0625,243.1719 370.0625,245.8906 L370.0625,247.0156 C370.0625,249.5938 372.1719,251.4844 375.0625,251.4844 C376.2813,251.4844 377.4375,251.1875 378.1875,250.6406 C378.7656,250.2344 379.0938,249.7813 379.0938,249.3906 C379.0938,248.9375 378.7031,248.5469 378.2344,248.5469 C378.0156,248.5469 377.8125,248.625 377.625,248.8125 C377.1719,249.2969 377.1719,249.2969 376.9844,249.3906 C376.5625,249.6563 375.875,249.7813 375.1094,249.7813 C373.0625,249.7813 371.7656,248.6875 371.7656,246.9844 L371.7656,245.8906 C371.7656,244.1094 373.0156,242.7969 374.75,242.7969 C375.3281,242.7969 375.9375,242.9531 376.4063,243.2031 C376.8906,243.4844 377.0625,243.7031 377.1563,244.1094 C377.2188,244.5156 377.25,244.6406 377.3906,244.7656 C377.5313,244.9063 377.7656,245.0156 377.9844,245.0156 C378.25,245.0156 378.5156,244.875 378.6875,244.6563 C378.7969,244.5 378.8281,244.3125 378.8281,243.8906 L378.8281,242.4688 C378.8281,242.0313 378.8125,241.9063 378.7188,241.75 C378.5625,241.4844 378.2813,241.3438 377.9844,241.3438 C377.6875,241.3438 377.4844,241.4375 377.2656,241.75 L377.0938,241.6719 Z "/><text fill="#000000" font-family="sans-serif" font-size="12" lengthAdjust="spacingAndGlyphs" textLength="36" x="395.25" y="250.1543">Board</text><line style="stroke: #A80036; stroke-width: 1.5;" x1="251" x2="543" y1="262" y2="262"/><rect fill="none" height="6" style="stroke: #C82930; stroke-width: 1.0;" width="6" x="258" y="270"/><text fill="#000000" font-family="sans-serif" font-size="11" lengthAdjust="spacingAndGlyphs" text-decoration="underline" textLength="104" x="270" y="276.2104">MAX_ATTEMPS: int</text><rect fill="none" height="6" style="stroke: #C82930; stroke-width: 1.0;" width="6" x="258" y="282.8047"/><text fill="#000000" font-family="sans-serif" font-size="11" lengthAdjust="spacingAndGlyphs" textLength="223" x="270" y="289.0151">secretCombination: SecretCombination</text><rect fill="none" height="6" style="stroke: #C82930; stroke-width: 1.0;" width="6" x="258" y="295.6094"/><text fill="#000000" font-family="sans-serif" font-size="11" lengthAdjust="spacingAndGlyphs" textLength="268" x="270" y="301.8198">proposedCombinations: ProposedCombination[]</text><rect fill="none" height="6" style="stroke: #C82930; stroke-width: 1.0;" width="6" x="258" y="308.4141"/><text fill="#000000" font-family="sans-serif" font-size="11" lengthAdjust="spacingAndGlyphs" textLength="88" x="270" y="314.6245">results: Result[]</text><rect fill="none" height="6" style="stroke: #C82930; stroke-width: 1.0;" width="6" x="258" y="321.2188"/><text fill="#000000" font-family="sans-serif" font-size="11" lengthAdjust="spacingAndGlyphs" textLength="72" x="270" y="327.4292">attempts: int</text><line style="stroke: #A80036; stroke-width: 1.5;" x1="251" x2="543" y1="334.0234" y2="334.0234"/><polygon fill="#4177AF" points="261,341.0234,257,347.0234,265,347.0234" style="stroke: #1963A0; stroke-width: 1.0;"/><text fill="#000000" font-family="sans-serif" font-size="11" lengthAdjust="spacingAndGlyphs" textLength="41" x="270" y="348.2339">Board()</text><ellipse cx="261" cy="357.8281" fill="#84BE84" rx="3" ry="3" style="stroke: #038048; stroke-width: 1.0;"/><text fill="#000000" font-family="sans-serif" font-size="11" lengthAdjust="spacingAndGlyphs" textLength="46" x="270" y="361.0386">writeln()</text><ellipse cx="261" cy="370.6328" fill="#84BE84" rx="3" ry="3" style="stroke: #038048; stroke-width: 1.0;"/><text fill="#000000" font-family="sans-serif" font-size="11" lengthAdjust="spacingAndGlyphs" textLength="152" x="270" y="373.8433">add(ProposedCombination)</text><ellipse cx="261" cy="383.4375" fill="#84BE84" rx="3" ry="3" style="stroke: #038048; stroke-width: 1.0;"/><text fill="#000000" font-family="sans-serif" font-size="11" lengthAdjust="spacingAndGlyphs" textLength="117" x="270" y="386.6479">isFinished(): boolean</text><ellipse cx="261" cy="396.2422" fill="#84BE84" rx="3" ry="3" style="stroke: #038048; stroke-width: 1.0;"/><text fill="#000000" font-family="sans-serif" font-size="11" lengthAdjust="spacingAndGlyphs" textLength="110" x="270" y="399.4526">isWinner(): boolean</text><rect fill="#F24D5C" height="6" style="stroke: #C82930; stroke-width: 1.0;" width="6" x="258" y="406.0469"/><text fill="#000000" font-family="sans-serif" font-size="11" lengthAdjust="spacingAndGlyphs" textLength="108" x="270" y="412.2573">isLooser(): boolean</text><!--MD5=[28491d17d5ee38c9c116625a5ffc259a]
class Combination--><rect codeLine="25" fill="#FEFECE" filter="url(#f9soi9ic32pic)" height="73.6094" id="Combination" style="stroke: #A80036; stroke-width: 1.5;" width="132" x="629" y="287.5"/><ellipse cx="654.8" cy="303.5" fill="#A9DCDF" rx="11" ry="11" style="stroke: #A80036; stroke-width: 1.0;"/><path d="M656.8781,305.3125 L657.2688,306.2969 L656.8781,306.2969 C656.425,306.2969 656.3156,306.3125 656.1594,306.4219 C655.9094,306.5781 655.7531,306.8594 655.7531,307.1563 C655.7531,307.4219 655.8938,307.6719 656.1125,307.8281 C656.2531,307.9531 656.4563,308 656.8781,308 L659.2375,308 C659.5969,308 659.8156,307.9688 659.9563,307.875 C660.2063,307.7344 660.3625,307.4375 660.3625,307.1563 C660.3625,306.875 660.2219,306.625 660.0031,306.4688 C659.8313,306.3281 659.675,306.2969 659.2063,306.2969 L655.8156,298.0938 L652.1438,298.0938 C651.6906,298.0938 651.5656,298.1094 651.4094,298.2031 C651.1594,298.375 651.0031,298.6563 651.0031,298.9375 C651.0031,299.2188 651.1438,299.4688 651.3625,299.6406 C651.5344,299.75 651.7063,299.7813 652.1438,299.7813 L653.2219,299.7813 L650.5813,306.2969 C650.1594,306.2969 650.0031,306.3125 649.8469,306.4219 C649.5969,306.5781 649.4406,306.8594 649.4406,307.1563 C649.4406,307.7188 649.8156,308 650.5656,308 L652.8313,308 C653.1906,308 653.4094,307.9688 653.5344,307.875 C653.8,307.7344 653.9406,307.4375 653.9406,307.1563 C653.9406,306.875 653.8156,306.625 653.5969,306.4531 C653.425,306.3281 653.2844,306.2969 652.8313,306.2969 L652.4406,306.2969 L652.8313,305.3125 L656.8781,305.3125 Z M656.175,303.6094 L653.5031,303.6094 L654.8469,300.3438 L656.175,303.6094 Z "/><text fill="#000000" font-family="sans-serif" font-size="12" font-style="italic" lengthAdjust="spacingAndGlyphs" textLength="76" x="671.2" y="307.6543">Combination</text><line style="stroke: #A80036; stroke-width: 1.5;" x1="630" x2="760" y1="319.5" y2="319.5"/><polygon fill="none" points="640,326.5,636,332.5,644,332.5" style="stroke: #1963A0; stroke-width: 1.0;"/><text fill="#000000" font-family="sans-serif" font-size="11" lengthAdjust="spacingAndGlyphs" textLength="106" x="649" y="333.7104">colors: List&lt;Color&gt;</text><line style="stroke: #A80036; stroke-width: 1.5;" x1="630" x2="760" y1="340.3047" y2="340.3047"/><polygon fill="#4177AF" points="640,347.3047,636,353.3047,644,353.3047" style="stroke: #1963A0; stroke-width: 1.0;"/><text fill="#000000" font-family="sans-serif" font-size="11" lengthAdjust="spacingAndGlyphs" textLength="83" x="649" y="354.5151">Combination ()</text><!--MD5=[e370ee5c0c15ce04544d5f5a73174d72]
class SecretCombination--><rect codeLine="30" fill="#FEFECE" filter="url(#f9soi9ic32pic)" height="86.4141" id="SecretCombination" style="stroke: #A80036; stroke-width: 1.5;" width="253" x="496.5" y="586"/><ellipse cx="561.75" cy="602" fill="#ADD1B2" rx="11" ry="11" style="stroke: #A80036; stroke-width: 1.0;"/><path d="M564.0938,597.6719 C563.1563,597.2344 562.5625,597.0938 561.6875,597.0938 C559.0625,597.0938 557.0625,599.1719 557.0625,601.8906 L557.0625,603.0156 C557.0625,605.5938 559.1719,607.4844 562.0625,607.4844 C563.2813,607.4844 564.4375,607.1875 565.1875,606.6406 C565.7656,606.2344 566.0938,605.7813 566.0938,605.3906 C566.0938,604.9375 565.7031,604.5469 565.2344,604.5469 C565.0156,604.5469 564.8125,604.625 564.625,604.8125 C564.1719,605.2969 564.1719,605.2969 563.9844,605.3906 C563.5625,605.6563 562.875,605.7813 562.1094,605.7813 C560.0625,605.7813 558.7656,604.6875 558.7656,602.9844 L558.7656,601.8906 C558.7656,600.1094 560.0156,598.7969 561.75,598.7969 C562.3281,598.7969 562.9375,598.9531 563.4063,599.2031 C563.8906,599.4844 564.0625,599.7031 564.1563,600.1094 C564.2188,600.5156 564.25,600.6406 564.3906,600.7656 C564.5313,600.9063 564.7656,601.0156 564.9844,601.0156 C565.25,601.0156 565.5156,600.875 565.6875,600.6563 C565.7969,600.5 565.8281,600.3125 565.8281,599.8906 L565.8281,598.4688 C565.8281,598.0313 565.8125,597.9063 565.7188,597.75 C565.5625,597.4844 565.2813,597.3438 564.9844,597.3438 C564.6875,597.3438 564.4844,597.4375 564.2656,597.75 L564.0938,597.6719 Z "/><text fill="#000000" font-family="sans-serif" font-size="12" lengthAdjust="spacingAndGlyphs" textLength="114" x="582.25" y="606.1543">SecretCombination</text><line style="stroke: #A80036; stroke-width: 1.5;" x1="497.5" x2="748.5" y1="618" y2="618"/><line style="stroke: #A80036; stroke-width: 1.5;" x1="497.5" x2="748.5" y1="626" y2="626"/><polygon fill="#4177AF" points="507.5,633,503.5,639,511.5,639" style="stroke: #1963A0; stroke-width: 1.0;"/><text fill="#000000" font-family="sans-serif" font-size="11" lengthAdjust="spacingAndGlyphs" textLength="117" x="516.5" y="640.2104">SecretCombination()</text><polygon fill="#4177AF" points="507.5,645.8047,503.5,651.8047,511.5,651.8047" style="stroke: #1963A0; stroke-width: 1.0;"/><text fill="#000000" font-family="sans-serif" font-size="11" lengthAdjust="spacingAndGlyphs" textLength="227" x="516.5" y="653.0151">getResult(ProposedCombination): Result</text><polygon fill="#4177AF" points="507.5,658.6094,503.5,664.6094,511.5,664.6094" style="stroke: #1963A0; stroke-width: 1.0;"/><text fill="#000000" font-family="sans-serif" font-size="11" lengthAdjust="spacingAndGlyphs" textLength="46" x="516.5" y="665.8198">writeln()</text><!--MD5=[cf489b19c51ee25e76ddca093e62e620]
class ProposedCombination--><rect codeLine="36" fill="#FEFECE" filter="url(#f9soi9ic32pic)" height="112.0234" id="ProposedCombination" style="stroke: #A80036; stroke-width: 1.5;" width="184" x="277" y="573"/><ellipse cx="301" cy="589" fill="#ADD1B2" rx="11" ry="11" style="stroke: #A80036; stroke-width: 1.0;"/><path d="M303.3438,584.6719 C302.4063,584.2344 301.8125,584.0938 300.9375,584.0938 C298.3125,584.0938 296.3125,586.1719 296.3125,588.8906 L296.3125,590.0156 C296.3125,592.5938 298.4219,594.4844 301.3125,594.4844 C302.5313,594.4844 303.6875,594.1875 304.4375,593.6406 C305.0156,593.2344 305.3438,592.7813 305.3438,592.3906 C305.3438,591.9375 304.9531,591.5469 304.4844,591.5469 C304.2656,591.5469 304.0625,591.625 303.875,591.8125 C303.4219,592.2969 303.4219,592.2969 303.2344,592.3906 C302.8125,592.6563 302.125,592.7813 301.3594,592.7813 C299.3125,592.7813 298.0156,591.6875 298.0156,589.9844 L298.0156,588.8906 C298.0156,587.1094 299.2656,585.7969 301,585.7969 C301.5781,585.7969 302.1875,585.9531 302.6563,586.2031 C303.1406,586.4844 303.3125,586.7031 303.4063,587.1094 C303.4688,587.5156 303.5,587.6406 303.6406,587.7656 C303.7813,587.9063 304.0156,588.0156 304.2344,588.0156 C304.5,588.0156 304.7656,587.875 304.9375,587.6563 C305.0469,587.5 305.0781,587.3125 305.0781,586.8906 L305.0781,585.4688 C305.0781,585.0313 305.0625,584.9063 304.9688,584.75 C304.8125,584.4844 304.5313,584.3438 304.2344,584.3438 C303.9375,584.3438 303.7344,584.4375 303.5156,584.75 L303.3438,584.6719 Z "/><text fill="#000000" font-family="sans-serif" font-size="12" lengthAdjust="spacingAndGlyphs" textLength="132" x="317" y="593.1543">ProposedCombination</text><line style="stroke: #A80036; stroke-width: 1.5;" x1="278" x2="460" y1="605" y2="605"/><line style="stroke: #A80036; stroke-width: 1.5;" x1="278" x2="460" y1="613" y2="613"/><polygon fill="#4177AF" points="288,620,284,626,292,626" style="stroke: #1963A0; stroke-width: 1.0;"/><text fill="#000000" font-family="sans-serif" font-size="11" lengthAdjust="spacingAndGlyphs" textLength="36" x="297" y="627.2104">write()</text><polygon fill="#4177AF" points="288,632.8047,284,638.8047,292,638.8047" style="stroke: #1963A0; stroke-width: 1.0;"/><text fill="#000000" font-family="sans-serif" font-size="11" lengthAdjust="spacingAndGlyphs" textLength="34" x="297" y="640.0151">read()</text><rect fill="#F24D5C" height="6" style="stroke: #C82930; stroke-width: 1.0;" width="6" x="285" y="646.6094"/><text fill="#000000" font-family="sans-serif" font-size="11" lengthAdjust="spacingAndGlyphs" textLength="133" x="297" y="652.8198">checkError(String): Error</text><polygon fill="#4177AF" points="288,658.4141,284,664.4141,292,664.4141" style="stroke: #1963A0; stroke-width: 1.0;"/><text fill="#000000" font-family="sans-serif" font-size="11" lengthAdjust="spacingAndGlyphs" textLength="158" x="297" y="665.6245">contains(Color, int): boolean</text><polygon fill="#4177AF" points="288,671.2188,284,677.2188,292,677.2188" style="stroke: #1963A0; stroke-width: 1.0;"/><text fill="#000000" font-family="sans-serif" font-size="11" lengthAdjust="spacingAndGlyphs" textLength="137" x="297" y="678.4292">contains(Color): boolean</text><!--MD5=[2741598bdf59a7d7e0d5c97658fd3022]
class Result--><rect codeLine="44" fill="#FEFECE" filter="url(#f9soi9ic32pic)" height="124.8281" id="Result" style="stroke: #A80036; stroke-width: 1.5;" width="136" x="106" y="566.5"/><ellipse cx="151.75" cy="582.5" fill="#ADD1B2" rx="11" ry="11" style="stroke: #A80036; stroke-width: 1.0;"/><path d="M154.0938,578.1719 C153.1563,577.7344 152.5625,577.5938 151.6875,577.5938 C149.0625,577.5938 147.0625,579.6719 147.0625,582.3906 L147.0625,583.5156 C147.0625,586.0938 149.1719,587.9844 152.0625,587.9844 C153.2813,587.9844 154.4375,587.6875 155.1875,587.1406 C155.7656,586.7344 156.0938,586.2813 156.0938,585.8906 C156.0938,585.4375 155.7031,585.0469 155.2344,585.0469 C155.0156,585.0469 154.8125,585.125 154.625,585.3125 C154.1719,585.7969 154.1719,585.7969 153.9844,585.8906 C153.5625,586.1563 152.875,586.2813 152.1094,586.2813 C150.0625,586.2813 148.7656,585.1875 148.7656,583.4844 L148.7656,582.3906 C148.7656,580.6094 150.0156,579.2969 151.75,579.2969 C152.3281,579.2969 152.9375,579.4531 153.4063,579.7031 C153.8906,579.9844 154.0625,580.2031 154.1563,580.6094 C154.2188,581.0156 154.25,581.1406 154.3906,581.2656 C154.5313,581.4063 154.7656,581.5156 154.9844,581.5156 C155.25,581.5156 155.5156,581.375 155.6875,581.1563 C155.7969,581 155.8281,580.8125 155.8281,580.3906 L155.8281,578.9688 C155.8281,578.5313 155.8125,578.4063 155.7188,578.25 C155.5625,577.9844 155.2813,577.8438 154.9844,577.8438 C154.6875,577.8438 154.4844,577.9375 154.2656,578.25 L154.0938,578.1719 Z "/><text fill="#000000" font-family="sans-serif" font-size="12" lengthAdjust="spacingAndGlyphs" textLength="36" x="172.25" y="586.6543">Result</text><line style="stroke: #A80036; stroke-width: 1.5;" x1="107" x2="241" y1="598.5" y2="598.5"/><ellipse cx="117" cy="609.5" fill="none" rx="3" ry="3" style="stroke: #038048; stroke-width: 1.0;"/><text fill="#000000" font-family="sans-serif" font-size="11" lengthAdjust="spacingAndGlyphs" text-decoration="underline" textLength="59" x="126" y="612.7104">WIDTH: int</text><rect fill="none" height="6" style="stroke: #C82930; stroke-width: 1.0;" width="6" x="114" y="619.3047"/><text fill="#000000" font-family="sans-serif" font-size="11" lengthAdjust="spacingAndGlyphs" textLength="56" x="126" y="625.5151">blacks: int</text><rect fill="none" height="6" style="stroke: #C82930; stroke-width: 1.0;" width="6" x="114" y="632.1094"/><text fill="#000000" font-family="sans-serif" font-size="11" lengthAdjust="spacingAndGlyphs" textLength="58" x="126" y="638.3198">whites: int</text><line style="stroke: #A80036; stroke-width: 1.5;" x1="107" x2="241" y1="644.9141" y2="644.9141"/><polygon fill="#4177AF" points="117,651.9141,113,657.9141,121,657.9141" style="stroke: #1963A0; stroke-width: 1.0;"/><text fill="#000000" font-family="sans-serif" font-size="11" lengthAdjust="spacingAndGlyphs" textLength="78" x="126" y="659.1245">Result(int, int)</text><polygon fill="#4177AF" points="117,664.7188,113,670.7188,121,670.7188" style="stroke: #1963A0; stroke-width: 1.0;"/><text fill="#000000" font-family="sans-serif" font-size="11" lengthAdjust="spacingAndGlyphs" textLength="110" x="126" y="671.9292">isWinner(): boolean</text><polygon fill="#4177AF" points="117,677.5234,113,683.5234,121,683.5234" style="stroke: #1963A0; stroke-width: 1.0;"/><text fill="#000000" font-family="sans-serif" font-size="11" lengthAdjust="spacingAndGlyphs" textLength="46" x="126" y="684.7339">writeln()</text><!--MD5=[18eee71c88ab61f27581b8cbdd3ef5ee]
class Color--><rect codeLine="53" fill="#FEFECE" filter="url(#f9soi9ic32pic)" height="265.6797" id="Color" style="stroke: #A80036; stroke-width: 1.5;" width="161" x="784.5" y="496"/><ellipse cx="844.75" cy="512" fill="#EB937F" rx="11" ry="11" style="stroke: #A80036; stroke-width: 1.0;"/><path d="M843.5469,512.875 L845,512.875 L845,512.9844 C845,513.3906 845.0313,513.5469 845.1094,513.7031 C845.2656,513.9531 845.5469,514.1094 845.8438,514.1094 C846.0938,514.1094 846.3594,513.9688 846.5156,513.75 C846.6406,513.5938 846.6719,513.4375 846.6719,512.9844 L846.6719,511.0625 C846.6719,510.9063 846.6719,510.8594 846.6563,510.7031 C846.5938,510.2344 846.2813,509.9219 845.8281,509.9219 C845.5781,509.9219 845.3125,510.0625 845.1406,510.2813 C845.0313,510.4531 845,510.6094 845,511.0625 L845,511.1875 L843.5469,511.1875 L843.5469,508.7813 L847.5313,508.7813 L847.5313,509.6406 C847.5313,510.0469 847.5625,510.2188 847.6406,510.375 C847.8125,510.625 848.0938,510.7813 848.375,510.7813 C848.6406,510.7813 848.9063,510.6406 849.0781,510.4219 C849.1875,510.25 849.2188,510.1094 849.2188,509.6406 L849.2188,507.0938 L841.5938,507.0938 C841.1563,507.0938 841.0313,507.1094 840.875,507.2031 C840.625,507.3594 840.4688,507.6563 840.4688,507.9375 C840.4688,508.2188 840.6094,508.4688 840.8281,508.6406 C840.9844,508.75 841.1719,508.7813 841.5938,508.7813 L841.8438,508.7813 L841.8438,515.2969 L841.5938,515.2969 C841.1875,515.2969 841.0313,515.3125 840.875,515.4219 C840.625,515.5938 840.4688,515.8594 840.4688,516.1563 C840.4688,516.4219 840.6094,516.6719 840.8281,516.8281 C840.9688,516.9531 841.2031,517 841.5938,517 L849.5938,517 L849.5938,514.4219 C849.5938,513.9844 849.5625,513.8438 849.4844,513.6875 C849.3125,513.4375 849.0313,513.2813 848.75,513.2813 C848.4844,513.2813 848.2188,513.3906 848.0469,513.6406 C847.9375,513.7969 847.9063,513.9375 847.9063,514.4219 L847.9063,515.2969 L843.5469,515.2969 L843.5469,512.875 Z "/><text fill="#000000" font-family="sans-serif" font-size="12" lengthAdjust="spacingAndGlyphs" textLength="32" x="865.25" y="516.1543">Color</text><line style="stroke: #A80036; stroke-width: 1.5;" x1="785.5" x2="944.5" y1="528" y2="528"/><ellipse cx="795.5" cy="539" fill="none" rx="3" ry="3" style="stroke: #038048; stroke-width: 1.0;"/><text fill="#000000" font-family="sans-serif" font-size="11" lengthAdjust="spacingAndGlyphs" textLength="23" x="804.5" y="542.2104">RED</text><ellipse cx="795.5" cy="551.8047" fill="none" rx="3" ry="3" style="stroke: #038048; stroke-width: 1.0;"/><text fill="#000000" font-family="sans-serif" font-size="11" lengthAdjust="spacingAndGlyphs" textLength="29" x="804.5" y="555.0151">BLUE</text><ellipse cx="795.5" cy="564.6094" fill="none" rx="3" ry="3" style="stroke: #038048; stroke-width: 1.0;"/><text fill="#000000" font-family="sans-serif" font-size="11" lengthAdjust="spacingAndGlyphs" textLength="46" x="804.5" y="567.8198">YELLOW</text><ellipse cx="795.5" cy="577.4141" fill="none" rx="3" ry="3" style="stroke: #038048; stroke-width: 1.0;"/><text fill="#000000" font-family="sans-serif" font-size="11" lengthAdjust="spacingAndGlyphs" textLength="38" x="804.5" y="580.6245">GREEN</text><ellipse cx="795.5" cy="590.2188" fill="none" rx="3" ry="3" style="stroke: #038048; stroke-width: 1.0;"/><text fill="#000000" font-family="sans-serif" font-size="11" lengthAdjust="spacingAndGlyphs" textLength="48" x="804.5" y="593.4292">ORANGE</text><ellipse cx="795.5" cy="603.0234" fill="none" rx="3" ry="3" style="stroke: #038048; stroke-width: 1.0;"/><text fill="#000000" font-family="sans-serif" font-size="11" lengthAdjust="spacingAndGlyphs" textLength="40" x="804.5" y="606.2339">PURPLE</text><ellipse cx="795.5" cy="615.8281" fill="none" rx="3" ry="3" style="stroke: #038048; stroke-width: 1.0;"/><text fill="#000000" font-family="sans-serif" font-size="11" lengthAdjust="spacingAndGlyphs" textLength="73" x="804.5" y="619.0386">NULL_COLOR</text><rect fill="none" height="6" style="stroke: #C82930; stroke-width: 1.0;" width="6" x="792.5" y="625.6328"/><text fill="#000000" font-family="sans-serif" font-size="11" lengthAdjust="spacingAndGlyphs" textLength="70" x="804.5" y="631.8433">initial: String</text><rect fill="none" height="6" style="stroke: #C82930; stroke-width: 1.0;" width="6" x="792.5" y="638.4375"/><text fill="#000000" font-family="sans-serif" font-size="11" lengthAdjust="spacingAndGlyphs" text-decoration="underline" textLength="121" x="804.5" y="644.6479">RESET_COLOR: String</text><line style="stroke: #A80036; stroke-width: 1.5;" x1="785.5" x2="944.5" y1="651.2422" y2="651.2422"/><rect fill="#F24D5C" height="6" style="stroke: #C82930; stroke-width: 1.0;" width="6" x="792.5" y="659.2422"/><text fill="#000000" font-family="sans-serif" font-size="11" lengthAdjust="spacingAndGlyphs" textLength="37" x="804.5" y="665.4526">Color()</text><rect fill="#F24D5C" height="6" style="stroke: #C82930; stroke-width: 1.0;" width="6" x="792.5" y="672.0469"/><text fill="#000000" font-family="sans-serif" font-size="11" lengthAdjust="spacingAndGlyphs" textLength="61" x="804.5" y="678.2573">Color(char)</text><polygon fill="#4177AF" points="795.5,683.8516,791.5,689.8516,799.5,689.8516" style="stroke: #1963A0; stroke-width: 1.0;"/><text fill="#000000" font-family="sans-serif" font-size="11" lengthAdjust="spacingAndGlyphs" text-decoration="underline" textLength="103" x="804.5" y="691.062">getInitials(): String</text><polygon fill="#4177AF" points="795.5,696.6563,791.5,702.6563,799.5,702.6563" style="stroke: #1963A0; stroke-width: 1.0;"/><text fill="#000000" font-family="sans-serif" font-size="11" lengthAdjust="spacingAndGlyphs" text-decoration="underline" textLength="135" x="804.5" y="703.8667">getInstance(char): Color</text><polygon fill="#4177AF" points="795.5,709.4609,791.5,715.4609,799.5,715.4609" style="stroke: #1963A0; stroke-width: 1.0;"/><text fill="#000000" font-family="sans-serif" font-size="11" lengthAdjust="spacingAndGlyphs" text-decoration="underline" textLength="65" x="804.5" y="716.6714">length(): int</text><polygon fill="#4177AF" points="795.5,722.2656,791.5,728.2656,799.5,728.2656" style="stroke: #1963A0; stroke-width: 1.0;"/><text fill="#000000" font-family="sans-serif" font-size="11" lengthAdjust="spacingAndGlyphs" text-decoration="underline" textLength="77" x="804.5" y="729.4761">get(int): Color</text><polygon fill="#4177AF" points="795.5,735.0703,791.5,741.0703,799.5,741.0703" style="stroke: #1963A0; stroke-width: 1.0;"/><text fill="#000000" font-family="sans-serif" font-size="11" lengthAdjust="spacingAndGlyphs" textLength="36" x="804.5" y="742.2808">write()</text><polygon fill="#4177AF" points="795.5,747.875,791.5,753.875,799.5,753.875" style="stroke: #1963A0; stroke-width: 1.0;"/><text fill="#000000" font-family="sans-serif" font-size="11" lengthAdjust="spacingAndGlyphs" textLength="91" x="804.5" y="755.0854">isNull(): boolean</text><!--MD5=[b8cfd8c4119a3b0a7a46bfc5fc780f85]
class Error--><rect codeLine="73" fill="#FEFECE" filter="url(#f9soi9ic32pic)" height="163.2422" id="Error" style="stroke: #A80036; stroke-width: 1.5;" width="152" x="327" y="855"/><ellipse cx="383.75" cy="871" fill="#EB937F" rx="11" ry="11" style="stroke: #A80036; stroke-width: 1.0;"/><path d="M382.5469,871.875 L384,871.875 L384,871.9844 C384,872.3906 384.0313,872.5469 384.1094,872.7031 C384.2656,872.9531 384.5469,873.1094 384.8438,873.1094 C385.0938,873.1094 385.3594,872.9688 385.5156,872.75 C385.6406,872.5938 385.6719,872.4375 385.6719,871.9844 L385.6719,870.0625 C385.6719,869.9063 385.6719,869.8594 385.6563,869.7031 C385.5938,869.2344 385.2813,868.9219 384.8281,868.9219 C384.5781,868.9219 384.3125,869.0625 384.1406,869.2813 C384.0313,869.4531 384,869.6094 384,870.0625 L384,870.1875 L382.5469,870.1875 L382.5469,867.7813 L386.5313,867.7813 L386.5313,868.6406 C386.5313,869.0469 386.5625,869.2188 386.6406,869.375 C386.8125,869.625 387.0938,869.7813 387.375,869.7813 C387.6406,869.7813 387.9063,869.6406 388.0781,869.4219 C388.1875,869.25 388.2188,869.1094 388.2188,868.6406 L388.2188,866.0938 L380.5938,866.0938 C380.1563,866.0938 380.0313,866.1094 379.875,866.2031 C379.625,866.3594 379.4688,866.6563 379.4688,866.9375 C379.4688,867.2188 379.6094,867.4688 379.8281,867.6406 C379.9844,867.75 380.1719,867.7813 380.5938,867.7813 L380.8438,867.7813 L380.8438,874.2969 L380.5938,874.2969 C380.1875,874.2969 380.0313,874.3125 379.875,874.4219 C379.625,874.5938 379.4688,874.8594 379.4688,875.1563 C379.4688,875.4219 379.6094,875.6719 379.8281,875.8281 C379.9688,875.9531 380.2031,876 380.5938,876 L388.5938,876 L388.5938,873.4219 C388.5938,872.9844 388.5625,872.8438 388.4844,872.6875 C388.3125,872.4375 388.0313,872.2813 387.75,872.2813 C387.4844,872.2813 387.2188,872.3906 387.0469,872.6406 C386.9375,872.7969 386.9063,872.9375 386.9063,873.4219 L386.9063,874.2969 L382.5469,874.2969 L382.5469,871.875 Z "/><text fill="#000000" font-family="sans-serif" font-size="12" lengthAdjust="spacingAndGlyphs" textLength="30" x="404.25" y="875.1543">Error</text><line style="stroke: #A80036; stroke-width: 1.5;" x1="328" x2="478" y1="887" y2="887"/><ellipse cx="338" cy="898" fill="none" rx="3" ry="3" style="stroke: #038048; stroke-width: 1.0;"/><text fill="#000000" font-family="sans-serif" font-size="11" lengthAdjust="spacingAndGlyphs" textLength="71" x="347" y="901.2104">DUPLICATED</text><ellipse cx="338" cy="910.8047" fill="none" rx="3" ry="3" style="stroke: #038048; stroke-width: 1.0;"/><text fill="#000000" font-family="sans-serif" font-size="11" lengthAdjust="spacingAndGlyphs" textLength="126" x="347" y="914.0151">WRONG_CHARACTERS</text><ellipse cx="338" cy="923.6094" fill="none" rx="3" ry="3" style="stroke: #038048; stroke-width: 1.0;"/><text fill="#000000" font-family="sans-serif" font-size="11" lengthAdjust="spacingAndGlyphs" textLength="95" x="347" y="926.8198">WRONG_LENGTH</text><ellipse cx="338" cy="936.4141" fill="none" rx="3" ry="3" style="stroke: #038048; stroke-width: 1.0;"/><text fill="#000000" font-family="sans-serif" font-size="11" lengthAdjust="spacingAndGlyphs" textLength="71" x="347" y="939.6245">NULL_ERROR</text><rect fill="none" height="6" style="stroke: #C82930; stroke-width: 1.0;" width="6" x="335" y="946.2188"/><text fill="#000000" font-family="sans-serif" font-size="11" lengthAdjust="spacingAndGlyphs" textLength="93" x="347" y="952.4292">message: String</text><line style="stroke: #A80036; stroke-width: 1.5;" x1="328" x2="478" y1="959.0234" y2="959.0234"/><rect fill="#F24D5C" height="6" style="stroke: #C82930; stroke-width: 1.0;" width="6" x="335" y="967.0234"/><text fill="#000000" font-family="sans-serif" font-size="11" lengthAdjust="spacingAndGlyphs" textLength="34" x="347" y="973.2339">Error()</text><rect fill="#F24D5C" height="6" style="stroke: #C82930; stroke-width: 1.0;" width="6" x="335" y="979.8281"/><text fill="#000000" font-family="sans-serif" font-size="11" lengthAdjust="spacingAndGlyphs" textLength="67" x="347" y="986.0386">Error(String)</text><polygon fill="#4177AF" points="338,991.6328,334,997.6328,342,997.6328" style="stroke: #1963A0; stroke-width: 1.0;"/><text fill="#000000" font-family="sans-serif" font-size="11" lengthAdjust="spacingAndGlyphs" textLength="46" x="347" y="998.8433">writeln()</text><ellipse cx="338" cy="1008.4375" fill="#84BE84" rx="3" ry="3" style="stroke: #038048; stroke-width: 1.0;"/><text fill="#000000" font-family="sans-serif" font-size="11" lengthAdjust="spacingAndGlyphs" textLength="91" x="347" y="1011.6479">isNull(): boolean</text><!--MD5=[bea5b0d46523efab5ea1c1d339f396f0]
class Message--><rect codeLine="85" fill="#FEFECE" filter="url(#f9soi9ic32pic)" height="227.2656" id="Message" style="stroke: #A80036; stroke-width: 1.5;" width="173" x="87.5" y="823"/><ellipse cx="142.25" cy="839" fill="#EB937F" rx="11" ry="11" style="stroke: #A80036; stroke-width: 1.0;"/><path d="M141.0469,839.875 L142.5,839.875 L142.5,839.9844 C142.5,840.3906 142.5313,840.5469 142.6094,840.7031 C142.7656,840.9531 143.0469,841.1094 143.3438,841.1094 C143.5938,841.1094 143.8594,840.9688 144.0156,840.75 C144.1406,840.5938 144.1719,840.4375 144.1719,839.9844 L144.1719,838.0625 C144.1719,837.9063 144.1719,837.8594 144.1563,837.7031 C144.0938,837.2344 143.7813,836.9219 143.3281,836.9219 C143.0781,836.9219 142.8125,837.0625 142.6406,837.2813 C142.5313,837.4531 142.5,837.6094 142.5,838.0625 L142.5,838.1875 L141.0469,838.1875 L141.0469,835.7813 L145.0313,835.7813 L145.0313,836.6406 C145.0313,837.0469 145.0625,837.2188 145.1406,837.375 C145.3125,837.625 145.5938,837.7813 145.875,837.7813 C146.1406,837.7813 146.4063,837.6406 146.5781,837.4219 C146.6875,837.25 146.7188,837.1094 146.7188,836.6406 L146.7188,834.0938 L139.0938,834.0938 C138.6563,834.0938 138.5313,834.1094 138.375,834.2031 C138.125,834.3594 137.9688,834.6563 137.9688,834.9375 C137.9688,835.2188 138.1094,835.4688 138.3281,835.6406 C138.4844,835.75 138.6719,835.7813 139.0938,835.7813 L139.3438,835.7813 L139.3438,842.2969 L139.0938,842.2969 C138.6875,842.2969 138.5313,842.3125 138.375,842.4219 C138.125,842.5938 137.9688,842.8594 137.9688,843.1563 C137.9688,843.4219 138.1094,843.6719 138.3281,843.8281 C138.4688,843.9531 138.7031,844 139.0938,844 L147.0938,844 L147.0938,841.4219 C147.0938,840.9844 147.0625,840.8438 146.9844,840.6875 C146.8125,840.4375 146.5313,840.2813 146.25,840.2813 C145.9844,840.2813 145.7188,840.3906 145.5469,840.6406 C145.4375,840.7969 145.4063,840.9375 145.4063,841.4219 L145.4063,842.2969 L141.0469,842.2969 L141.0469,839.875 Z "/><text fill="#000000" font-family="sans-serif" font-size="12" lengthAdjust="spacingAndGlyphs" textLength="55" x="162.75" y="843.1543">Message</text><line style="stroke: #A80036; stroke-width: 1.5;" x1="88.5" x2="259.5" y1="855" y2="855"/><ellipse cx="98.5" cy="866" fill="none" rx="3" ry="3" style="stroke: #038048; stroke-width: 1.0;"/><text fill="#000000" font-family="sans-serif" font-size="11" lengthAdjust="spacingAndGlyphs" textLength="59" x="107.5" y="869.2104">ATTEMPTS</text><ellipse cx="98.5" cy="878.8047" fill="none" rx="3" ry="3" style="stroke: #038048; stroke-width: 1.0;"/><text fill="#000000" font-family="sans-serif" font-size="11" lengthAdjust="spacingAndGlyphs" textLength="130" x="107.5" y="882.0151">SECRET_COMBINATION</text><ellipse cx="98.5" cy="891.6094" fill="none" rx="3" ry="3" style="stroke: #038048; stroke-width: 1.0;"/><text fill="#000000" font-family="sans-serif" font-size="11" lengthAdjust="spacingAndGlyphs" textLength="46" x="107.5" y="894.8198">RESUME</text><ellipse cx="98.5" cy="904.4141" fill="none" rx="3" ry="3" style="stroke: #038048; stroke-width: 1.0;"/><text fill="#000000" font-family="sans-serif" font-size="11" lengthAdjust="spacingAndGlyphs" textLength="43" x="107.5" y="907.6245">RESULT</text><ellipse cx="98.5" cy="917.2188" fill="none" rx="3" ry="3" style="stroke: #038048; stroke-width: 1.0;"/><text fill="#000000" font-family="sans-serif" font-size="11" lengthAdjust="spacingAndGlyphs" textLength="147" x="107.5" y="920.4292">PROPOSED_COMBINATION</text><ellipse cx="98.5" cy="930.0234" fill="none" rx="3" ry="3" style="stroke: #038048; stroke-width: 1.0;"/><text fill="#000000" font-family="sans-serif" font-size="11" lengthAdjust="spacingAndGlyphs" textLength="30" x="107.5" y="933.2339">TITLE</text><ellipse cx="98.5" cy="942.8281" fill="none" rx="3" ry="3" style="stroke: #038048; stroke-width: 1.0;"/><text fill="#000000" font-family="sans-serif" font-size="11" lengthAdjust="spacingAndGlyphs" textLength="44" x="107.5" y="946.0386">WINNER</text><ellipse cx="98.5" cy="955.6328" fill="none" rx="3" ry="3" style="stroke: #038048; stroke-width: 1.0;"/><text fill="#000000" font-family="sans-serif" font-size="11" lengthAdjust="spacingAndGlyphs" textLength="46" x="107.5" y="958.8433">LOOSER</text><rect fill="none" height="6" style="stroke: #C82930; stroke-width: 1.0;" width="6" x="95.5" y="965.4375"/><text fill="#000000" font-family="sans-serif" font-size="11" lengthAdjust="spacingAndGlyphs" textLength="93" x="107.5" y="971.6479">message: String</text><line style="stroke: #A80036; stroke-width: 1.5;" x1="88.5" x2="259.5" y1="978.2422" y2="978.2422"/><rect fill="#F24D5C" height="6" style="stroke: #C82930; stroke-width: 1.0;" width="6" x="95.5" y="986.2422"/><text fill="#000000" font-family="sans-serif" font-size="11" lengthAdjust="spacingAndGlyphs" textLength="92" x="107.5" y="992.4526">Message(String)</text><polygon fill="#4177AF" points="98.5,998.0469,94.5,1004.0469,102.5,1004.0469" style="stroke: #1963A0; stroke-width: 1.0;"/><text fill="#000000" font-family="sans-serif" font-size="11" lengthAdjust="spacingAndGlyphs" textLength="36" x="107.5" y="1005.2573">write()</text><polygon fill="#4177AF" points="98.5,1010.8516,94.5,1016.8516,102.5,1016.8516" style="stroke: #1963A0; stroke-width: 1.0;"/><text fill="#000000" font-family="sans-serif" font-size="11" lengthAdjust="spacingAndGlyphs" textLength="46" x="107.5" y="1018.062">writeln()</text><polygon fill="#4177AF" points="98.5,1023.6563,94.5,1029.6563,102.5,1029.6563" style="stroke: #1963A0; stroke-width: 1.0;"/><text fill="#000000" font-family="sans-serif" font-size="11" lengthAdjust="spacingAndGlyphs" textLength="60" x="107.5" y="1030.8667">writeln(int)</text><polygon fill="#4177AF" points="98.5,1036.4609,94.5,1042.4609,102.5,1042.4609" style="stroke: #1963A0; stroke-width: 1.0;"/><text fill="#000000" font-family="sans-serif" font-size="11" lengthAdjust="spacingAndGlyphs" textLength="81" x="107.5" y="1043.6714">writeln(int, int)</text><!--MD5=[315b61b427ec618d6861d47eee00cca3]
class Console--><rect codeLine="125" fill="#FEFECE" filter="url(#f9soi9ic32pic)" height="48" id="Console" style="stroke: #A80036; stroke-width: 1.5;" width="179" x="533.5" y="1113"/><ellipse cx="548.5" cy="1129" fill="#ADD1B2" rx="11" ry="11" style="stroke: #A80036; stroke-width: 1.0;"/><path d="M550.8438,1124.6719 C549.9063,1124.2344 549.3125,1124.0938 548.4375,1124.0938 C545.8125,1124.0938 543.8125,1126.1719 543.8125,1128.8906 L543.8125,1130.0156 C543.8125,1132.5938 545.9219,1134.4844 548.8125,1134.4844 C550.0313,1134.4844 551.1875,1134.1875 551.9375,1133.6406 C552.5156,1133.2344 552.8438,1132.7813 552.8438,1132.3906 C552.8438,1131.9375 552.4531,1131.5469 551.9844,1131.5469 C551.7656,1131.5469 551.5625,1131.625 551.375,1131.8125 C550.9219,1132.2969 550.9219,1132.2969 550.7344,1132.3906 C550.3125,1132.6563 549.625,1132.7813 548.8594,1132.7813 C546.8125,1132.7813 545.5156,1131.6875 545.5156,1129.9844 L545.5156,1128.8906 C545.5156,1127.1094 546.7656,1125.7969 548.5,1125.7969 C549.0781,1125.7969 549.6875,1125.9531 550.1563,1126.2031 C550.6406,1126.4844 550.8125,1126.7031 550.9063,1127.1094 C550.9688,1127.5156 551,1127.6406 551.1406,1127.7656 C551.2813,1127.9063 551.5156,1128.0156 551.7344,1128.0156 C552,1128.0156 552.2656,1127.875 552.4375,1127.6563 C552.5469,1127.5 552.5781,1127.3125 552.5781,1126.8906 L552.5781,1125.4688 C552.5781,1125.0313 552.5625,1124.9063 552.4688,1124.75 C552.3125,1124.4844 552.0313,1124.3438 551.7344,1124.3438 C551.4375,1124.3438 551.2344,1124.4375 551.0156,1124.75 L550.8438,1124.6719 Z "/><text fill="#000000" font-family="sans-serif" font-size="12" lengthAdjust="spacingAndGlyphs" textLength="147" x="562.5" y="1133.1543">usantatecla.utils.Console</text><line style="stroke: #A80036; stroke-width: 1.5;" x1="534.5" x2="711.5" y1="1145" y2="1145"/><line style="stroke: #A80036; stroke-width: 1.5;" x1="534.5" x2="711.5" y1="1153" y2="1153"/><!--MD5=[d93cf99d2b92276f27fe8dbf15140505]
class YesNoDialog--><rect codeLine="130" fill="#FEFECE" filter="url(#f9soi9ic32pic)" height="48" id="YesNoDialog" style="stroke: #A80036; stroke-width: 1.5;" width="206" x="1121" y="300.5"/><ellipse cx="1136" cy="316.5" fill="#ADD1B2" rx="11" ry="11" style="stroke: #A80036; stroke-width: 1.0;"/><path d="M1138.3438,312.1719 C1137.4063,311.7344 1136.8125,311.5938 1135.9375,311.5938 C1133.3125,311.5938 1131.3125,313.6719 1131.3125,316.3906 L1131.3125,317.5156 C1131.3125,320.0938 1133.4219,321.9844 1136.3125,321.9844 C1137.5313,321.9844 1138.6875,321.6875 1139.4375,321.1406 C1140.0156,320.7344 1140.3438,320.2813 1140.3438,319.8906 C1140.3438,319.4375 1139.9531,319.0469 1139.4844,319.0469 C1139.2656,319.0469 1139.0625,319.125 1138.875,319.3125 C1138.4219,319.7969 1138.4219,319.7969 1138.2344,319.8906 C1137.8125,320.1563 1137.125,320.2813 1136.3594,320.2813 C1134.3125,320.2813 1133.0156,319.1875 1133.0156,317.4844 L1133.0156,316.3906 C1133.0156,314.6094 1134.2656,313.2969 1136,313.2969 C1136.5781,313.2969 1137.1875,313.4531 1137.6563,313.7031 C1138.1406,313.9844 1138.3125,314.2031 1138.4063,314.6094 C1138.4688,315.0156 1138.5,315.1406 1138.6406,315.2656 C1138.7813,315.4063 1139.0156,315.5156 1139.2344,315.5156 C1139.5,315.5156 1139.7656,315.375 1139.9375,315.1563 C1140.0469,315 1140.0781,314.8125 1140.0781,314.3906 L1140.0781,312.9688 C1140.0781,312.5313 1140.0625,312.4063 1139.9688,312.25 C1139.8125,311.9844 1139.5313,311.8438 1139.2344,311.8438 C1138.9375,311.8438 1138.7344,311.9375 1138.5156,312.25 L1138.3438,312.1719 Z "/><text fill="#000000" font-family="sans-serif" font-size="12" lengthAdjust="spacingAndGlyphs" textLength="174" x="1150" y="320.6543">usantatecla.utils.YesNoDialog</text><line style="stroke: #A80036; stroke-width: 1.5;" x1="1122" x2="1326" y1="332.5" y2="332.5"/><line style="stroke: #A80036; stroke-width: 1.5;" x1="1122" x2="1326" y1="340.5" y2="340.5"/><!--MD5=[ce3aceb15685c4a66d1e1b8ea7e2c984]
class ColorCode--><rect codeLine="134" fill="#FEFECE" filter="url(#f9soi9ic32pic)" height="48" id="ColorCode" style="stroke: #A80036; stroke-width: 1.5;" width="194" x="978" y="912.5"/><ellipse cx="993" cy="928.5" fill="#EB937F" rx="11" ry="11" style="stroke: #A80036; stroke-width: 1.0;"/><path d="M991.7969,929.375 L993.25,929.375 L993.25,929.4844 C993.25,929.8906 993.2813,930.0469 993.3594,930.2031 C993.5156,930.4531 993.7969,930.6094 994.0938,930.6094 C994.3438,930.6094 994.6094,930.4688 994.7656,930.25 C994.8906,930.0938 994.9219,929.9375 994.9219,929.4844 L994.9219,927.5625 C994.9219,927.4063 994.9219,927.3594 994.9063,927.2031 C994.8438,926.7344 994.5313,926.4219 994.0781,926.4219 C993.8281,926.4219 993.5625,926.5625 993.3906,926.7813 C993.2813,926.9531 993.25,927.1094 993.25,927.5625 L993.25,927.6875 L991.7969,927.6875 L991.7969,925.2813 L995.7813,925.2813 L995.7813,926.1406 C995.7813,926.5469 995.8125,926.7188 995.8906,926.875 C996.0625,927.125 996.3438,927.2813 996.625,927.2813 C996.8906,927.2813 997.1563,927.1406 997.3281,926.9219 C997.4375,926.75 997.4688,926.6094 997.4688,926.1406 L997.4688,923.5938 L989.8438,923.5938 C989.4063,923.5938 989.2813,923.6094 989.125,923.7031 C988.875,923.8594 988.7188,924.1563 988.7188,924.4375 C988.7188,924.7188 988.8594,924.9688 989.0781,925.1406 C989.2344,925.25 989.4219,925.2813 989.8438,925.2813 L990.0938,925.2813 L990.0938,931.7969 L989.8438,931.7969 C989.4375,931.7969 989.2813,931.8125 989.125,931.9219 C988.875,932.0938 988.7188,932.3594 988.7188,932.6563 C988.7188,932.9219 988.8594,933.1719 989.0781,933.3281 C989.2188,933.4531 989.4531,933.5 989.8438,933.5 L997.8438,933.5 L997.8438,930.9219 C997.8438,930.4844 997.8125,930.3438 997.7344,930.1875 C997.5625,929.9375 997.2813,929.7813 997,929.7813 C996.7344,929.7813 996.4688,929.8906 996.2969,930.1406 C996.1875,930.2969 996.1563,930.4375 996.1563,930.9219 L996.1563,931.7969 L991.7969,931.7969 L991.7969,929.375 Z "/><text fill="#000000" font-family="sans-serif" font-size="12" lengthAdjust="spacingAndGlyphs" textLength="162" x="1007" y="932.6543">usantatecla.utils.ColorCode</text><line style="stroke: #A80036; stroke-width: 1.5;" x1="979" x2="1171" y1="944.5" y2="944.5"/><line style="stroke: #A80036; stroke-width: 1.5;" x1="979" x2="1171" y1="952.5" y2="952.5"/><!--MD5=[ba28573f2062cf9f5d1d4aa517f0cc38]
link Mastermind to Board--><path codeLine="104" d="M306.9561,163.6161 C306.9561,163.6161 327.503,200.102 337.829,218.437 " fill="none" id="Mastermind-Board" style="stroke: #A80036; stroke-width: 1.0;"/><polygon fill="#A80036" points="344.229,229.8,343.2974,219.9953,341.7752,225.4435,336.327,223.9214,344.229,229.8" style="stroke: #A80036; stroke-width: 1.0;"/><line style="stroke: #A80036; stroke-width: 1.0;" x1="341.7752" x2="337.8495" y1="225.4435" y2="218.473"/><polygon fill="#A80036" points="301.068,153.16,300.5267,160.3508,306.9561,163.6161,307.4974,156.4254,301.068,153.16" style="stroke: #A80036; stroke-width: 1.0;"/><text fill="#000000" font-family="sans-serif" font-size="13" lengthAdjust="spacingAndGlyphs" textLength="37" x="327" y="196.0669">board</text><!--MD5=[165aae362738a81ed253bf2cad9e16e5]
link Mastermind to ProposedCombination--><path codeLine="105" d="M250.236,153.11 C229.972,217.994 204.95,328.392 232,419 C248.585,474.553 285.185,529.058 316.386,568.471 " fill="none" id="Mastermind-to-ProposedCombination" style="stroke: #A80036; stroke-width: 1.0; stroke-dasharray: 7.0,7.0;"/><polygon fill="#A80036" points="319.773,572.719,317.2904,563.1882,316.6561,568.8094,311.035,568.1751,319.773,572.719" style="stroke: #A80036; stroke-width: 1.0;"/><!--MD5=[5e915b8ab835b2366405aaf6901e131b]
link Board to SecretCombination--><path codeLine="106" d="M503.1832,428.3392 C503.1832,428.3392 514.994,442.453 520,449 C550.033,488.281 577.599,537.187 596.641,573.949 " fill="none" id="Board-SecretCombination" style="stroke: #A80036; stroke-width: 1.0;"/><polygon fill="#A80036" points="602.763,585.918,602.2259,576.0838,600.4861,581.4665,595.1035,579.7268,602.763,585.918" style="stroke: #A80036; stroke-width: 1.0;"/><line style="stroke: #A80036; stroke-width: 1.0;" x1="600.4861" x2="596.843" y1="581.4665" y2="574.344"/><polygon fill="#A80036" points="495.286,419.304,496.2229,426.454,503.1832,428.3392,502.2463,421.1892,495.286,419.304" style="stroke: #A80036; stroke-width: 1.0;"/><text fill="#000000" font-family="sans-serif" font-size="13" lengthAdjust="spacingAndGlyphs" textLength="121" x="531" y="462.0669">secretCombination</text><!--MD5=[e0b5d9907fda64872c10fd6493e0c51f]
link Board to ProposedCombination--><path codeLine="107" d="M368.7463,430.906 C368.7463,430.906 366.679,443.508 366,449 C361.51,485.328 361.786,526.116 363.394,559.571 " fill="none" id="Board-ProposedCombination" style="stroke: #A80036; stroke-width: 1.0;"/><polygon fill="#A80036" points="364.125,572.95,367.6285,563.7454,363.8525,567.9574,359.6404,564.1814,364.125,572.95" style="stroke: #A80036; stroke-width: 1.0;"/><line style="stroke: #A80036; stroke-width: 1.0;" x1="363.8525" x2="363.4155" y1="567.9574" y2="559.97"/><polygon fill="#FFFFFF" points="370.955,419.111,365.919,424.2723,368.7463,430.906,373.7823,425.7447,370.955,419.111" style="stroke: #A80036; stroke-width: 1.0;"/><text fill="#000000" font-family="sans-serif" font-size="13" lengthAdjust="spacingAndGlyphs" textLength="148" x="367" y="462.0669">proposedCombinations</text><text fill="#000000" font-family="sans-serif" font-size="13" lengthAdjust="spacingAndGlyphs" textLength="32" x="329.4504" y="561.8816">0..10</text><!--MD5=[8dd95aff79c51151a18c835e3410b3cd]
link Board to Result--><path codeLine="108" d="M310.6182,428.5706 C310.6182,428.5706 274.897,474.025 259,496 C245.381,514.825 231.408,535.75 218.825,555.288 " fill="none" id="Board-Result" style="stroke: #A80036; stroke-width: 1.0;"/><polygon fill="#A80036" points="211.791,566.29,220.0091,560.8621,214.4844,562.0774,213.269,556.5527,211.791,566.29" style="stroke: #A80036; stroke-width: 1.0;"/><line style="stroke: #A80036; stroke-width: 1.0;" x1="214.4844" x2="218.7935" y1="562.0774" y2="555.337"/><polygon fill="#FFFFFF" points="318.133,419.215,311.2571,421.3879,310.6182,428.5706,317.4941,426.3977,318.133,419.215" style="stroke: #A80036; stroke-width: 1.0;"/><text fill="#000000" font-family="sans-serif" font-size="13" lengthAdjust="spacingAndGlyphs" textLength="43" x="293" y="462.0669">results</text><text fill="#000000" font-family="sans-serif" font-size="13" lengthAdjust="spacingAndGlyphs" textLength="32" x="182.3106" y="555.2565">0..10</text><!--MD5=[6e8433e42d71f9427401b78cd95c6f0c]
link Combination to Color--><path codeLine="110" d="M721.2158,372.1493 C721.2158,372.1493 761.708,444.201 784.21,484.241 " fill="none" id="Combination-Color" style="stroke: #A80036; stroke-width: 1.0;"/><polygon fill="#A80036" points="790.698,495.786,789.776,485.9804,788.2485,491.4271,782.8018,489.8996,790.698,495.786" style="stroke: #A80036; stroke-width: 1.0;"/><line style="stroke: #A80036; stroke-width: 1.0;" x1="788.2485" x2="784.3285" y1="491.4271" y2="484.453"/><polygon fill="#A80036" points="715.337,361.688,714.7893,368.8783,721.2158,372.1493,721.7635,364.9591,715.337,361.688" style="stroke: #A80036; stroke-width: 1.0;"/><text fill="#000000" font-family="sans-serif" font-size="13" lengthAdjust="spacingAndGlyphs" textLength="38" x="771" y="462.0669">colors</text><text fill="#000000" font-family="sans-serif" font-size="13" lengthAdjust="spacingAndGlyphs" textLength="8" x="778.1712" y="484.731">4</text><!--MD5=[ed81d3472c9069d2de3c2f5cd308846f]
reverse link Combination to SecretCombination--><path codeLine="111" d="M697.542,382.089 C697.545,407.94 695.909,438.794 690,466 C680.795,508.382 661.078,553.777 645.404,585.698 " fill="none" id="Combination-backto-SecretCombination" style="stroke: #A80036; stroke-width: 1.0;"/><polygon fill="none" points="690.538,381.851,697.213,361.741,704.536,381.625,690.538,381.851" style="stroke: #A80036; stroke-width: 1.0;"/><!--MD5=[2f10888865b2f559cc24db01ac34cee3]
reverse link Combination to ProposedCombination--><path codeLine="112" d="M695.415,381.925 C692.539,411.023 683.864,444.77 661,466 C600.925,521.783 550.156,455.286 479,496 C447.153,514.222 420.515,545.406 401.433,572.89 " fill="none" id="Combination-backto-ProposedCombination" style="stroke: #A80036; stroke-width: 1.0;"/><polygon fill="none" points="688.436,381.356,696.604,361.803,702.412,382.181,688.436,381.356" style="stroke: #A80036; stroke-width: 1.0;"/><!--MD5=[03e1adeaed11e2ac298b9b43cd912fbb]
link ProposedCombination to Error--><path codeLine="113" d="M375.157,685.324 C380.264,731.215 387.613,797.241 393.478,849.941 " fill="none" id="ProposedCombination-to-Error" style="stroke: #A80036; stroke-width: 1.0; stroke-dasharray: 7.0,7.0;"/><polygon fill="#A80036" points="394.041,854.999,397.0215,845.6119,393.4882,850.0297,389.0705,846.4964,394.041,854.999" style="stroke: #A80036; stroke-width: 1.0;"/><!--MD5=[c90363da1e54012406e61a987ebdf2c8]
link Mastermind to Message--><path codeLine="116" d="M227.538,153.08 C173.876,226.528 84.3665,362.79 50,496 C20.4672,610.474 13.9059,649.422 50,762 C57.7889,786.294 70.3686,810.079 84.5957,831.87 " fill="none" id="Mastermind-to-Message" style="stroke: #A80036; stroke-width: 1.0; stroke-dasharray: 7.0,7.0;"/><polygon fill="#A80036" points="87.4621,836.201,85.8299,826.4883,84.7023,832.0317,79.1589,830.9041,87.4621,836.201" style="stroke: #A80036; stroke-width: 1.0;"/><!--MD5=[f93e57f7ded8581437b27fa1712e0f0d]
link Board to Message--><path codeLine="117" d="M249.626,369.334 C188.383,395.639 123.431,435.983 88,496 C29.8903,594.433 66.8877,724.758 108.919,817.882 " fill="none" id="Board-to-Message" style="stroke: #A80036; stroke-width: 1.0; stroke-dasharray: 7.0,7.0;"/><polygon fill="#A80036" points="111.052,822.566,110.9646,812.7175,108.9808,818.0151,103.6832,816.0314,111.052,822.566" style="stroke: #A80036; stroke-width: 1.0;"/><!--MD5=[b9347c562a69bbba75d70bb21299d009]
link ProposedCombination to Message--><path codeLine="118" d="M333.687,685.324 C310.03,722.386 277.99,772.582 248.818,818.285 " fill="none" id="ProposedCombination-to-Message" style="stroke: #A80036; stroke-width: 1.0; stroke-dasharray: 7.0,7.0;"/><polygon fill="#A80036" points="246.004,822.693,254.2172,817.2576,248.6936,818.478,247.4732,812.9543,246.004,822.693" style="stroke: #A80036; stroke-width: 1.0;"/><!--MD5=[478a268921f9a7a4cb7b8daeb48ad6b0]
link Result to Message--><path codeLine="119" d="M174,691.822 C174,727.928 174,774.689 174,817.58 " fill="none" id="Result-to-Message" style="stroke: #A80036; stroke-width: 1.0; stroke-dasharray: 7.0,7.0;"/><polygon fill="#A80036" points="174,822.791,178,813.791,174,817.791,170,813.791,174,822.791" style="stroke: #A80036; stroke-width: 1.0;"/><!--MD5=[463cc8af4a3cc64d4486d23129543027]
link YesNoDialog to Console--><path codeLine="140" d="M1235.91,348.717 C1285.02,448.054 1461.19,842.741 1286,1074 C1252.32,1118.456 892.694,1131.1194 717.652,1134.6602 " fill="none" id="YesNoDialog-to-Console" style="stroke: #A80036; stroke-width: 1.0; stroke-dasharray: 7.0,7.0;"/><polygon fill="#A80036" points="712.528,1134.7623,721.6062,1138.5815,717.527,1134.6623,721.4462,1130.5831,712.528,1134.7623" style="stroke: #A80036; stroke-width: 1.0;"/><!--MD5=[922eb40535b2da68a8faa8740884533b]
link Board to Console--><path codeLine="141" d="M544.196,395.897 C566.243,404.65 588.972,412.715 611,419 C764.999,462.937 829.994,406.806 963,496 C1121.19,602.083 1174.44,644.171 1240,823 C1278.4,927.738 1308.93,986.29 1240,1074 C1208.37,1114.2454 883.206,1128.9121 718.102,1133.7934 " fill="none" id="Board-to-Console" style="stroke: #A80036; stroke-width: 1.0; stroke-dasharray: 7.0,7.0;"/><polygon fill="#A80036" points="712.781,1133.949,721.8937,1137.685,717.7789,1133.8033,721.6606,1129.6884,712.781,1133.949" style="stroke: #A80036; stroke-width: 1.0;"/><!--MD5=[913a83e29969536c5e075cf265ec81cd]
link Color to Console--><path codeLine="142" d="M945.554,652.446 C1023.74,679.008 1137.98,731.607 1190,823 C1245.18,919.951 1264.47,990.942 1190,1074 C1159.13,1108.4283 871.46,1125.6231 718.161,1132.4043 " fill="none" id="Color-to-Console" style="stroke: #A80036; stroke-width: 1.0; stroke-dasharray: 7.0,7.0;"/><polygon fill="#A80036" points="712.765,1132.6411,721.9313,1136.2438,717.7602,1132.4225,721.5815,1128.2515,712.765,1132.6411" style="stroke: #A80036; stroke-width: 1.0;"/><!--MD5=[e1c0657851f1818bbfea224ef31533f7]
link Color to ColorCode--><path codeLine="143" d="M945.591,747.241 C985.938,805.935 1031.37,872.036 1056.24,908.207 " fill="none" id="Color-to-ColorCode" style="stroke: #A80036; stroke-width: 1.0; stroke-dasharray: 7.0,7.0;"/><polygon fill="#A80036" points="1059.17,912.467,1057.3785,902.7824,1056.3421,908.3435,1050.781,907.3071,1059.17,912.467" style="stroke: #A80036; stroke-width: 1.0;"/><!--MD5=[702d0bc4071943235df53e25e5a40cdb]
link Error to Console--><path codeLine="144" d="M457.359,1018.127 C475.217,1040.914 496.35,1064.5135 519,1083 C532.018,1093.6253 547.515,1102.928 562.518,1110.6501 " fill="none" id="Error-to-Console" style="stroke: #A80036; stroke-width: 1.0; stroke-dasharray: 7.0,7.0;"/><polygon fill="#A80036" points="567.155,1112.9956,560.9279,1105.3652,562.6929,1110.7397,557.3184,1112.5046,567.155,1112.9956" style="stroke: #A80036; stroke-width: 1.0;"/><!--MD5=[fde603ad956a440325a7db2e94c3d038]
link Message to Console--><path codeLine="145" d="M260.789,1039.738 C275.727,1052.843 291.97,1064.8521 309,1074 C376.865,1110.4545 463.315,1125.6082 528.317,1131.8408 " fill="none" id="Message-to-Console" style="stroke: #A80036; stroke-width: 1.0; stroke-dasharray: 7.0,7.0;"/><polygon fill="#A80036" points="533.353,1132.31,524.7633,1127.4916,528.3746,1131.8457,524.0205,1135.457,533.353,1132.31" style="stroke: #A80036; stroke-width: 1.0;"/><!--MD5=[6bfe31e80e6e77060baa4b8d6064148a]
link ProposedCombination to Console--><path codeLine="146" d="M409.539,685.218 C436.12,722.878 470.536,774.531 496,823 C549.082,924.04 594.857,1052.358 613.754,1108.0779 " fill="none" id="ProposedCombination-to-Console" style="stroke: #A80036; stroke-width: 1.0; stroke-dasharray: 7.0,7.0;"/><polygon fill="#A80036" points="615.391,1112.9217,616.2979,1103.1147,613.7897,1108.1851,608.7193,1105.6768,615.391,1112.9217" style="stroke: #A80036; stroke-width: 1.0;"/><!--MD5=[336a78eb14894e486e0ed36e439320b7]
link SecretCombination to Console--><path codeLine="147" d="M623,672.271 C623,772.66 623,1023.309 623,1107.7338 " fill="none" id="SecretCombination-to-Console" style="stroke: #A80036; stroke-width: 1.0; stroke-dasharray: 7.0,7.0;"/><polygon fill="#A80036" points="623,1112.8151,627,1103.8151,623,1107.8151,619,1103.8151,623,1112.8151" style="stroke: #A80036; stroke-width: 1.0;"/><!--MD5=[1499d68dab61e96ede2ae386f5ea1cf6]
link Mastermind to YesNoDialog--><path codeLine="148" d="M362.539,111 C496.243,130.83 750.605,172.487 962,230 C1032.12,249.076 1110.32,278.027 1162.88,298.655 " fill="none" id="Mastermind-to-YesNoDialog" style="stroke: #A80036; stroke-width: 1.0; stroke-dasharray: 7.0,7.0;"/><polygon fill="#A80036" points="1167.56,300.499,1160.6467,293.4843,1162.9065,298.6702,1157.7206,300.9299,1167.56,300.499" style="stroke: #A80036; stroke-width: 1.0;"/><!--MD5=[905c409050a7ea6dc252d0980ae2463c]
@startuml
package usantatecla.mastermind {
class Mastermind {
	- board: Board 
	+ play()
	- playGame()
	- isResumedGame(): boolean 
	+ {static} main(String[])
}


class Board {
  - MAX_ATTEMPS: {static} int 
  - secretCombination: SecretCombination 
  - proposedCombinations: ProposedCombination[] 
  - results: Result[] 
  - attempts: int 
  ~ Board()
  + writeln()
  + add(ProposedCombination)
  + isFinished(): boolean 
  + isWinner(): boolean 
  - isLooser(): boolean 
}

abstract class Combination {
	~ colors: List<Color> 
	~ Combination ()
}

class SecretCombination {
	~ SecretCombination()
	~ getResult(ProposedCombination): Result 
	~ writeln()
}

class ProposedCombination {
	~write()
	~read()
	- checkError(String): Error 
	~ contains(Color, int): boolean 
	~ contains(Color): boolean 
}

class Result{
	+ WIDTH: {static} int 
	- blacks: int 
	- whites: int 
	~ Result(int, int)
	~ isWinner(): boolean 
	~ writeln()
}

enum Color {
	+ RED
	+ BLUE
	+ YELLOW
	+ GREEN
	+ ORANGE
	+ PURPLE
	+ NULL_COLOR
	- initial: String 
	- RESET_COLOR: {static} String 
	- Color()
	- Color(char)
	~ {static} getInitials(): String 
	~ {static} getInstance(char): Color
	~ {static} length(): int 
	~ {static} get(int): Color 
	~ write()
	~ isNull(): boolean 
}

enum Error {
	+ DUPLICATED
	+ WRONG_CHARACTERS
	+ WRONG_LENGTH
	+ NULL_ERROR
	- message: String
	- Error()
	- Error(String)
	~ writeln()
	+ isNull(): boolean 
}

enum Message {
	+ ATTEMPTS
	+ SECRET_COMBINATION
	+ RESUME
	+ RESULT
	+ PROPOSED_COMBINATION
	+ TITLE
	+ WINNER
	+ LOOSER
	- message: String 
	- Message(String)
	~ write()
	~ writeln()
	~ writeln(int)
	~ writeln(int, int)
}



Mastermind *-down-> Board : board
Mastermind .down.> ProposedCombination
Board *-down-> SecretCombination : secretCombination
Board o-down-> "0..10" ProposedCombination : proposedCombinations
Board o-down-> "0..10" Result : results

Combination *-down-> "4" Color : colors
Combination <|-down- SecretCombination
Combination <|-down- ProposedCombination
ProposedCombination .down.> Error


Mastermind .down.> Message
Board .down.> Message
ProposedCombination .down.> Message
Result .down.> Message

}



class Console as "usantatecla.utils.Console" {


}

class YesNoDialog as "usantatecla.utils.YesNoDialog" {

}

enum ColorCode as "usantatecla.utils.ColorCode" {

}



YesNoDialog .down.> Console
Board .down.> Console
Color .down.> Console
Color .down.> ColorCode 
Error .down.> Console
Message .down.> Console
ProposedCombination .down.> Console
SecretCombination .down.> Console
Mastermind .down.> YesNoDialog
@enduml

PlantUML version 1.2020.20beta4(Unknown compile time)
(GPL source distribution)
Java Runtime: Java(TM) SE Runtime Environment
JVM: Java HotSpot(TM) 64-Bit Server VM
Default Encoding: UTF-8
Language: en
Country: US
--></g></svg>