<?xml version="1.0" encoding="UTF-8" standalone="no"?><svg xmlns="http://www.w3.org/2000/svg" xmlns:xlink="http://www.w3.org/1999/xlink" contentScriptType="application/ecmascript" contentStyleType="text/css" height="1171px" preserveAspectRatio="none" style="width:1417px;height:1171px;" version="1.1" viewBox="0 0 1417 1171" width="1417px" zoomAndPan="magnify"><defs><filter height="300%" id="f6pa2libhzdtw" width="300%" x="-1" y="-1"><feGaussianBlur result="blurOut" stdDeviation="2.0"/><feColorMatrix in="blurOut" result="blurOut2" type="matrix" values="0 0 0 0 0 0 0 0 0 0 0 0 0 0 0 0 0 0 .4 0"/><feOffset dx="4.0" dy="4.0" in="blurOut2" result="blurOut3"/><feBlend in="SourceGraphic" in2="blurOut3" mode="normal"/></filter></defs><g><!--MD5=[9be0839337cfdab5d118a2e29cf0a8c4]
cluster usantatecla.mastermind--><polygon fill="#FFFFFF" filter="url(#f6pa2libhzdtw)" points="117.7357,6,324.7357,6,331.7357,28.2969,1046.7355,28.2969,1046.7355,1053,117.7357,1053,117.7357,6" style="stroke: #000000; stroke-width: 1.5;"/><line style="stroke: #000000; stroke-width: 1.5;" x1="117.7357" x2="331.7357" y1="28.2969" y2="28.2969"/><text fill="#000000" font-family="sans-serif" font-size="14" font-weight="bold" lengthAdjust="spacingAndGlyphs" textLength="201" x="121.7357" y="20.9951">usantatecla.mastermind</text><!--MD5=[908cbfa8709a8ec6ee3beb0409fea32c]
cluster usantatecla.utils--><polygon fill="#FFFFFF" filter="url(#f6pa2libhzdtw)" points="1070.7355,864.5,1216.7355,864.5,1223.7355,886.7969,1341.7355,886.7969,1341.7355,1164,1070.7355,1164,1070.7355,864.5" style="stroke: #000000; stroke-width: 1.5;"/><line style="stroke: #000000; stroke-width: 1.5;" x1="1070.7355" x2="1223.7355" y1="886.7969" y2="886.7969"/><text fill="#000000" font-family="sans-serif" font-size="14" font-weight="bold" lengthAdjust="spacingAndGlyphs" textLength="140" x="1074.7355" y="879.4951">usantatecla.utils</text><!--MD5=[7283a9eed84464550b6d5ebf39c68b05]
class Mastermind--><rect codeLine="2" fill="#FEFECE" filter="url(#f6pa2libhzdtw)" height="112.0234" id="Mastermind" style="stroke: #A80036; stroke-width: 1.5;" width="185" x="237.2355" y="41"/><ellipse cx="290.4855" cy="57" fill="#ADD1B2" rx="11" ry="11" style="stroke: #A80036; stroke-width: 1.0;"/><path d="M292.8293,52.6719 C291.8918,52.2344 291.298,52.0938 290.423,52.0938 C287.798,52.0938 285.798,54.1719 285.798,56.8906 L285.798,58.0156 C285.798,60.5938 287.9074,62.4844 290.798,62.4844 C292.0168,62.4844 293.173,62.1875 293.923,61.6406 C294.5011,61.2344 294.8293,60.7813 294.8293,60.3906 C294.8293,59.9375 294.4386,59.5469 293.9699,59.5469 C293.7511,59.5469 293.548,59.625 293.3605,59.8125 C292.9074,60.2969 292.9074,60.2969 292.7199,60.3906 C292.298,60.6563 291.6105,60.7813 290.8449,60.7813 C288.798,60.7813 287.5011,59.6875 287.5011,57.9844 L287.5011,56.8906 C287.5011,55.1094 288.7511,53.7969 290.4855,53.7969 C291.0636,53.7969 291.673,53.9531 292.1418,54.2031 C292.6261,54.4844 292.798,54.7031 292.8918,55.1094 C292.9543,55.5156 292.9855,55.6406 293.1261,55.7656 C293.2668,55.9063 293.5011,56.0156 293.7199,56.0156 C293.9855,56.0156 294.2511,55.875 294.423,55.6563 C294.5324,55.5 294.5636,55.3125 294.5636,54.8906 L294.5636,53.4688 C294.5636,53.0313 294.548,52.9063 294.4543,52.75 C294.298,52.4844 294.0168,52.3438 293.7199,52.3438 C293.423,52.3438 293.2199,52.4375 293.0011,52.75 L292.8293,52.6719 Z "/><text fill="#000000" font-family="sans-serif" font-size="12" lengthAdjust="spacingAndGlyphs" textLength="70" x="310.9855" y="61.1543">Mastermind</text><line style="stroke: #A80036; stroke-width: 1.5;" x1="238.2355" x2="421.2355" y1="73" y2="73"/><rect fill="none" height="6" style="stroke: #C82930; stroke-width: 1.0;" width="6" x="245.2355" y="81"/><text fill="#000000" font-family="sans-serif" font-size="11" lengthAdjust="spacingAndGlyphs" textLength="69" x="257.2355" y="87.2104">Board board</text><line style="stroke: #A80036; stroke-width: 1.5;" x1="238.2355" x2="421.2355" y1="93.8047" y2="93.8047"/><ellipse cx="248.2355" cy="104.8047" fill="#84BE84" rx="3" ry="3" style="stroke: #038048; stroke-width: 1.0;"/><text fill="#000000" font-family="sans-serif" font-size="11" lengthAdjust="spacingAndGlyphs" textLength="32" x="257.2355" y="108.0151">play()</text><rect fill="#F24D5C" height="6" style="stroke: #C82930; stroke-width: 1.0;" width="6" x="245.2355" y="114.6094"/><text fill="#000000" font-family="sans-serif" font-size="11" lengthAdjust="spacingAndGlyphs" textLength="67" x="257.2355" y="120.8198">playGame()</text><rect fill="#F24D5C" height="6" style="stroke: #C82930; stroke-width: 1.0;" width="6" x="245.2355" y="127.4141"/><text fill="#000000" font-family="sans-serif" font-size="11" lengthAdjust="spacingAndGlyphs" textLength="159" x="257.2355" y="133.6245">isResumedGame(): boolean</text><ellipse cx="248.2355" cy="143.2188" fill="#84BE84" rx="3" ry="3" style="stroke: #038048; stroke-width: 1.0;"/><text fill="#000000" font-family="sans-serif" font-size="11" lengthAdjust="spacingAndGlyphs" text-decoration="underline" textLength="77" x="257.2355" y="146.4292">main(String[])</text><!--MD5=[9563755d011c5cec7ec66dc53565a59e]
class Board--><rect codeLine="11" fill="#FEFECE" filter="url(#f6pa2libhzdtw)" height="188.8516" id="Board" style="stroke: #A80036; stroke-width: 1.5;" width="291" x="482.2355" y="230"/><ellipse cx="605.4855" cy="246" fill="#ADD1B2" rx="11" ry="11" style="stroke: #A80036; stroke-width: 1.0;"/><path d="M607.8293,241.6719 C606.8918,241.2344 606.298,241.0938 605.423,241.0938 C602.798,241.0938 600.798,243.1719 600.798,245.8906 L600.798,247.0156 C600.798,249.5938 602.9074,251.4844 605.798,251.4844 C607.0168,251.4844 608.173,251.1875 608.923,250.6406 C609.5011,250.2344 609.8293,249.7813 609.8293,249.3906 C609.8293,248.9375 609.4386,248.5469 608.9699,248.5469 C608.7511,248.5469 608.548,248.625 608.3605,248.8125 C607.9074,249.2969 607.9074,249.2969 607.7199,249.3906 C607.298,249.6563 606.6105,249.7813 605.8449,249.7813 C603.798,249.7813 602.5011,248.6875 602.5011,246.9844 L602.5011,245.8906 C602.5011,244.1094 603.7511,242.7969 605.4855,242.7969 C606.0636,242.7969 606.673,242.9531 607.1418,243.2031 C607.6261,243.4844 607.798,243.7031 607.8918,244.1094 C607.9543,244.5156 607.9855,244.6406 608.1261,244.7656 C608.2668,244.9063 608.5011,245.0156 608.7199,245.0156 C608.9855,245.0156 609.2511,244.875 609.423,244.6563 C609.5324,244.5 609.5636,244.3125 609.5636,243.8906 L609.5636,242.4688 C609.5636,242.0313 609.548,241.9063 609.4543,241.75 C609.298,241.4844 609.0168,241.3438 608.7199,241.3438 C608.423,241.3438 608.2199,241.4375 608.0011,241.75 L607.8293,241.6719 Z "/><text fill="#000000" font-family="sans-serif" font-size="12" lengthAdjust="spacingAndGlyphs" textLength="36" x="625.9855" y="250.1543">Board</text><line style="stroke: #A80036; stroke-width: 1.5;" x1="483.2355" x2="772.2355" y1="262" y2="262"/><rect fill="none" height="6" style="stroke: #C82930; stroke-width: 1.0;" width="6" x="490.2355" y="270"/><text fill="#000000" font-family="sans-serif" font-size="11" lengthAdjust="spacingAndGlyphs" text-decoration="underline" textLength="101" x="502.2355" y="276.2104">int MAX_ATTEMPS</text><rect fill="none" height="6" style="stroke: #C82930; stroke-width: 1.0;" width="6" x="490.2355" y="282.8047"/><text fill="#000000" font-family="sans-serif" font-size="11" lengthAdjust="spacingAndGlyphs" textLength="220" x="502.2355" y="289.0151">SecretCombination secretCombination</text><rect fill="none" height="6" style="stroke: #C82930; stroke-width: 1.0;" width="6" x="490.2355" y="295.6094"/><text fill="#000000" font-family="sans-serif" font-size="11" lengthAdjust="spacingAndGlyphs" textLength="265" x="502.2355" y="301.8198">ProposedCombination[] proposedCombinations</text><rect fill="none" height="6" style="stroke: #C82930; stroke-width: 1.0;" width="6" x="490.2355" y="308.4141"/><text fill="#000000" font-family="sans-serif" font-size="11" lengthAdjust="spacingAndGlyphs" textLength="85" x="502.2355" y="314.6245">Result[] results</text><rect fill="none" height="6" style="stroke: #C82930; stroke-width: 1.0;" width="6" x="490.2355" y="321.2188"/><text fill="#000000" font-family="sans-serif" font-size="11" lengthAdjust="spacingAndGlyphs" textLength="69" x="502.2355" y="327.4292">int attempts</text><line style="stroke: #A80036; stroke-width: 1.5;" x1="483.2355" x2="772.2355" y1="334.0234" y2="334.0234"/><polygon fill="#4177AF" points="493.2355,341.0234,489.2355,347.0234,497.2355,347.0234" style="stroke: #1963A0; stroke-width: 1.0;"/><text fill="#000000" font-family="sans-serif" font-size="11" lengthAdjust="spacingAndGlyphs" textLength="41" x="502.2355" y="348.2339">Board()</text><ellipse cx="493.2355" cy="357.8281" fill="#84BE84" rx="3" ry="3" style="stroke: #038048; stroke-width: 1.0;"/><text fill="#000000" font-family="sans-serif" font-size="11" lengthAdjust="spacingAndGlyphs" textLength="46" x="502.2355" y="361.0386">writeln()</text><ellipse cx="493.2355" cy="370.6328" fill="#84BE84" rx="3" ry="3" style="stroke: #038048; stroke-width: 1.0;"/><text fill="#000000" font-family="sans-serif" font-size="11" lengthAdjust="spacingAndGlyphs" textLength="152" x="502.2355" y="373.8433">add(ProposedCombination)</text><ellipse cx="493.2355" cy="383.4375" fill="#84BE84" rx="3" ry="3" style="stroke: #038048; stroke-width: 1.0;"/><text fill="#000000" font-family="sans-serif" font-size="11" lengthAdjust="spacingAndGlyphs" textLength="117" x="502.2355" y="386.6479">isFinished(): boolean</text><ellipse cx="493.2355" cy="396.2422" fill="#84BE84" rx="3" ry="3" style="stroke: #038048; stroke-width: 1.0;"/><text fill="#000000" font-family="sans-serif" font-size="11" lengthAdjust="spacingAndGlyphs" textLength="110" x="502.2355" y="399.4526">isWinner(): boolean</text><rect fill="#F24D5C" height="6" style="stroke: #C82930; stroke-width: 1.0;" width="6" x="490.2355" y="406.0469"/><text fill="#000000" font-family="sans-serif" font-size="11" lengthAdjust="spacingAndGlyphs" textLength="108" x="502.2355" y="412.2573">isLooser(): boolean</text><!--MD5=[28491d17d5ee38c9c116625a5ffc259a]
class Combination--><rect codeLine="25" fill="#FEFECE" filter="url(#f6pa2libhzdtw)" height="73.6094" id="Combination" style="stroke: #A80036; stroke-width: 1.5;" width="129" x="299.2355" y="287.5"/><ellipse cx="323.6855" cy="303.5" fill="#A9DCDF" rx="11" ry="11" style="stroke: #A80036; stroke-width: 1.0;"/><path d="M325.7636,305.3125 L326.1543,306.2969 L325.7636,306.2969 C325.3105,306.2969 325.2011,306.3125 325.0449,306.4219 C324.7949,306.5781 324.6386,306.8594 324.6386,307.1563 C324.6386,307.4219 324.7793,307.6719 324.998,307.8281 C325.1386,307.9531 325.3418,308 325.7636,308 L328.123,308 C328.4824,308 328.7011,307.9688 328.8418,307.875 C329.0918,307.7344 329.248,307.4375 329.248,307.1563 C329.248,306.875 329.1074,306.625 328.8886,306.4688 C328.7168,306.3281 328.5605,306.2969 328.0918,306.2969 L324.7011,298.0938 L321.0293,298.0938 C320.5761,298.0938 320.4511,298.1094 320.2949,298.2031 C320.0449,298.375 319.8886,298.6563 319.8886,298.9375 C319.8886,299.2188 320.0293,299.4688 320.248,299.6406 C320.4199,299.75 320.5918,299.7813 321.0293,299.7813 L322.1074,299.7813 L319.4668,306.2969 C319.0449,306.2969 318.8886,306.3125 318.7324,306.4219 C318.4824,306.5781 318.3261,306.8594 318.3261,307.1563 C318.3261,307.7188 318.7011,308 319.4511,308 L321.7168,308 C322.0761,308 322.2949,307.9688 322.4199,307.875 C322.6855,307.7344 322.8261,307.4375 322.8261,307.1563 C322.8261,306.875 322.7011,306.625 322.4824,306.4531 C322.3105,306.3281 322.1699,306.2969 321.7168,306.2969 L321.3261,306.2969 L321.7168,305.3125 L325.7636,305.3125 Z M325.0605,303.6094 L322.3886,303.6094 L323.7324,300.3438 L325.0605,303.6094 Z "/><text fill="#000000" font-family="sans-serif" font-size="12" font-style="italic" lengthAdjust="spacingAndGlyphs" textLength="76" x="339.7855" y="307.6543">Combination</text><line style="stroke: #A80036; stroke-width: 1.5;" x1="300.2355" x2="427.2355" y1="319.5" y2="319.5"/><polygon fill="none" points="310.2355,326.5,306.2355,332.5,314.2355,332.5" style="stroke: #1963A0; stroke-width: 1.0;"/><text fill="#000000" font-family="sans-serif" font-size="11" lengthAdjust="spacingAndGlyphs" textLength="103" x="319.2355" y="333.7104">List&lt;Color&gt; colors</text><line style="stroke: #A80036; stroke-width: 1.5;" x1="300.2355" x2="427.2355" y1="340.3047" y2="340.3047"/><polygon fill="#4177AF" points="310.2355,347.3047,306.2355,353.3047,314.2355,353.3047" style="stroke: #1963A0; stroke-width: 1.0;"/><text fill="#000000" font-family="sans-serif" font-size="11" lengthAdjust="spacingAndGlyphs" textLength="83" x="319.2355" y="354.5151">Combination ()</text><!--MD5=[e370ee5c0c15ce04544d5f5a73174d72]
class SecretCombination--><rect codeLine="30" fill="#FEFECE" filter="url(#f6pa2libhzdtw)" height="86.4141" id="SecretCombination" style="stroke: #A80036; stroke-width: 1.5;" width="253" x="777.2355" y="579.5"/><ellipse cx="842.4855" cy="595.5" fill="#ADD1B2" rx="11" ry="11" style="stroke: #A80036; stroke-width: 1.0;"/><path d="M844.8293,591.1719 C843.8918,590.7344 843.298,590.5938 842.423,590.5938 C839.798,590.5938 837.798,592.6719 837.798,595.3906 L837.798,596.5156 C837.798,599.0938 839.9074,600.9844 842.798,600.9844 C844.0168,600.9844 845.173,600.6875 845.923,600.1406 C846.5011,599.7344 846.8293,599.2813 846.8293,598.8906 C846.8293,598.4375 846.4386,598.0469 845.9699,598.0469 C845.7511,598.0469 845.548,598.125 845.3605,598.3125 C844.9074,598.7969 844.9074,598.7969 844.7199,598.8906 C844.298,599.1563 843.6105,599.2813 842.8449,599.2813 C840.798,599.2813 839.5011,598.1875 839.5011,596.4844 L839.5011,595.3906 C839.5011,593.6094 840.7511,592.2969 842.4855,592.2969 C843.0636,592.2969 843.673,592.4531 844.1418,592.7031 C844.6261,592.9844 844.798,593.2031 844.8918,593.6094 C844.9543,594.0156 844.9855,594.1406 845.1261,594.2656 C845.2668,594.4063 845.5011,594.5156 845.7199,594.5156 C845.9855,594.5156 846.2511,594.375 846.423,594.1563 C846.5324,594 846.5636,593.8125 846.5636,593.3906 L846.5636,591.9688 C846.5636,591.5313 846.548,591.4063 846.4543,591.25 C846.298,590.9844 846.0168,590.8438 845.7199,590.8438 C845.423,590.8438 845.2199,590.9375 845.0011,591.25 L844.8293,591.1719 Z "/><text fill="#000000" font-family="sans-serif" font-size="12" lengthAdjust="spacingAndGlyphs" textLength="114" x="862.9855" y="599.6543">SecretCombination</text><line style="stroke: #A80036; stroke-width: 1.5;" x1="778.2355" x2="1029.2355" y1="611.5" y2="611.5"/><line style="stroke: #A80036; stroke-width: 1.5;" x1="778.2355" x2="1029.2355" y1="619.5" y2="619.5"/><polygon fill="#4177AF" points="788.2355,626.5,784.2355,632.5,792.2355,632.5" style="stroke: #1963A0; stroke-width: 1.0;"/><text fill="#000000" font-family="sans-serif" font-size="11" lengthAdjust="spacingAndGlyphs" textLength="117" x="797.2355" y="633.7104">SecretCombination()</text><polygon fill="#4177AF" points="788.2355,639.3047,784.2355,645.3047,792.2355,645.3047" style="stroke: #1963A0; stroke-width: 1.0;"/><text fill="#000000" font-family="sans-serif" font-size="11" lengthAdjust="spacingAndGlyphs" textLength="227" x="797.2355" y="646.5151">getResult(ProposedCombination): Result</text><polygon fill="#4177AF" points="788.2355,652.1094,784.2355,658.1094,792.2355,658.1094" style="stroke: #1963A0; stroke-width: 1.0;"/><text fill="#000000" font-family="sans-serif" font-size="11" lengthAdjust="spacingAndGlyphs" textLength="46" x="797.2355" y="659.3198">writeln()</text><!--MD5=[cf489b19c51ee25e76ddca093e62e620]
class ProposedCombination--><rect codeLine="36" fill="#FEFECE" filter="url(#f6pa2libhzdtw)" height="112.0234" id="ProposedCombination" style="stroke: #A80036; stroke-width: 1.5;" width="184" x="170.7357" y="566.5"/><ellipse cx="194.7357" cy="582.5" fill="#ADD1B2" rx="11" ry="11" style="stroke: #A80036; stroke-width: 1.0;"/><path d="M197.0795,578.1719 C196.142,577.7344 195.5482,577.5938 194.6732,577.5938 C192.0482,577.5938 190.0482,579.6719 190.0482,582.3906 L190.0482,583.5156 C190.0482,586.0938 192.1576,587.9844 195.0482,587.9844 C196.267,587.9844 197.4232,587.6875 198.1732,587.1406 C198.7513,586.7344 199.0795,586.2813 199.0795,585.8906 C199.0795,585.4375 198.6888,585.0469 198.2201,585.0469 C198.0013,585.0469 197.7982,585.125 197.6107,585.3125 C197.1576,585.7969 197.1576,585.7969 196.9701,585.8906 C196.5482,586.1563 195.8607,586.2813 195.0951,586.2813 C193.0482,586.2813 191.7513,585.1875 191.7513,583.4844 L191.7513,582.3906 C191.7513,580.6094 193.0013,579.2969 194.7357,579.2969 C195.3138,579.2969 195.9232,579.4531 196.392,579.7031 C196.8763,579.9844 197.0482,580.2031 197.142,580.6094 C197.2045,581.0156 197.2357,581.1406 197.3763,581.2656 C197.517,581.4063 197.7513,581.5156 197.9701,581.5156 C198.2357,581.5156 198.5013,581.375 198.6732,581.1563 C198.7826,581 198.8138,580.8125 198.8138,580.3906 L198.8138,578.9688 C198.8138,578.5313 198.7982,578.4063 198.7045,578.25 C198.5482,577.9844 198.267,577.8438 197.9701,577.8438 C197.6732,577.8438 197.4701,577.9375 197.2513,578.25 L197.0795,578.1719 Z "/><text fill="#000000" font-family="sans-serif" font-size="12" lengthAdjust="spacingAndGlyphs" textLength="132" x="210.7357" y="586.6543">ProposedCombination</text><line style="stroke: #A80036; stroke-width: 1.5;" x1="171.7357" x2="353.7357" y1="598.5" y2="598.5"/><line style="stroke: #A80036; stroke-width: 1.5;" x1="171.7357" x2="353.7357" y1="606.5" y2="606.5"/><polygon fill="#4177AF" points="181.7357,613.5,177.7357,619.5,185.7357,619.5" style="stroke: #1963A0; stroke-width: 1.0;"/><text fill="#000000" font-family="sans-serif" font-size="11" lengthAdjust="spacingAndGlyphs" textLength="36" x="190.7357" y="620.7104">write()</text><polygon fill="#4177AF" points="181.7357,626.3047,177.7357,632.3047,185.7357,632.3047" style="stroke: #1963A0; stroke-width: 1.0;"/><text fill="#000000" font-family="sans-serif" font-size="11" lengthAdjust="spacingAndGlyphs" textLength="34" x="190.7357" y="633.5151">read()</text><rect fill="#F24D5C" height="6" style="stroke: #C82930; stroke-width: 1.0;" width="6" x="178.7357" y="640.1094"/><text fill="#000000" font-family="sans-serif" font-size="11" lengthAdjust="spacingAndGlyphs" textLength="133" x="190.7357" y="646.3198">checkError(String): Error</text><polygon fill="#4177AF" points="181.7357,651.9141,177.7357,657.9141,185.7357,657.9141" style="stroke: #1963A0; stroke-width: 1.0;"/><text fill="#000000" font-family="sans-serif" font-size="11" lengthAdjust="spacingAndGlyphs" textLength="158" x="190.7357" y="659.1245">contains(Color, int): boolean</text><polygon fill="#4177AF" points="181.7357,664.7188,177.7357,670.7188,185.7357,670.7188" style="stroke: #1963A0; stroke-width: 1.0;"/><text fill="#000000" font-family="sans-serif" font-size="11" lengthAdjust="spacingAndGlyphs" textLength="137" x="190.7357" y="671.9292">contains(Color): boolean</text><!--MD5=[2741598bdf59a7d7e0d5c97658fd3022]
class Result--><rect codeLine="44" fill="#FEFECE" filter="url(#f6pa2libhzdtw)" height="124.8281" id="Result" style="stroke: #A80036; stroke-width: 1.5;" width="136" x="605.7355" y="560"/><ellipse cx="651.4855" cy="576" fill="#ADD1B2" rx="11" ry="11" style="stroke: #A80036; stroke-width: 1.0;"/><path d="M653.8293,571.6719 C652.8918,571.2344 652.298,571.0938 651.423,571.0938 C648.798,571.0938 646.798,573.1719 646.798,575.8906 L646.798,577.0156 C646.798,579.5938 648.9074,581.4844 651.798,581.4844 C653.0168,581.4844 654.173,581.1875 654.923,580.6406 C655.5011,580.2344 655.8293,579.7813 655.8293,579.3906 C655.8293,578.9375 655.4386,578.5469 654.9699,578.5469 C654.7511,578.5469 654.548,578.625 654.3605,578.8125 C653.9074,579.2969 653.9074,579.2969 653.7199,579.3906 C653.298,579.6563 652.6105,579.7813 651.8449,579.7813 C649.798,579.7813 648.5011,578.6875 648.5011,576.9844 L648.5011,575.8906 C648.5011,574.1094 649.7511,572.7969 651.4855,572.7969 C652.0636,572.7969 652.673,572.9531 653.1418,573.2031 C653.6261,573.4844 653.798,573.7031 653.8918,574.1094 C653.9543,574.5156 653.9855,574.6406 654.1261,574.7656 C654.2668,574.9063 654.5011,575.0156 654.7199,575.0156 C654.9855,575.0156 655.2511,574.875 655.423,574.6563 C655.5324,574.5 655.5636,574.3125 655.5636,573.8906 L655.5636,572.4688 C655.5636,572.0313 655.548,571.9063 655.4543,571.75 C655.298,571.4844 655.0168,571.3438 654.7199,571.3438 C654.423,571.3438 654.2199,571.4375 654.0011,571.75 L653.8293,571.6719 Z "/><text fill="#000000" font-family="sans-serif" font-size="12" lengthAdjust="spacingAndGlyphs" textLength="36" x="671.9855" y="580.1543">Result</text><line style="stroke: #A80036; stroke-width: 1.5;" x1="606.7355" x2="740.7355" y1="592" y2="592"/><ellipse cx="616.7355" cy="603" fill="none" rx="3" ry="3" style="stroke: #038048; stroke-width: 1.0;"/><text fill="#000000" font-family="sans-serif" font-size="11" lengthAdjust="spacingAndGlyphs" text-decoration="underline" textLength="56" x="625.7355" y="606.2104">int WIDTH</text><rect fill="none" height="6" style="stroke: #C82930; stroke-width: 1.0;" width="6" x="613.7355" y="612.8047"/><text fill="#000000" font-family="sans-serif" font-size="11" lengthAdjust="spacingAndGlyphs" textLength="53" x="625.7355" y="619.0151">int blacks</text><rect fill="none" height="6" style="stroke: #C82930; stroke-width: 1.0;" width="6" x="613.7355" y="625.6094"/><text fill="#000000" font-family="sans-serif" font-size="11" lengthAdjust="spacingAndGlyphs" textLength="55" x="625.7355" y="631.8198">int whites</text><line style="stroke: #A80036; stroke-width: 1.5;" x1="606.7355" x2="740.7355" y1="638.4141" y2="638.4141"/><polygon fill="#4177AF" points="616.7355,645.4141,612.7355,651.4141,620.7355,651.4141" style="stroke: #1963A0; stroke-width: 1.0;"/><text fill="#000000" font-family="sans-serif" font-size="11" lengthAdjust="spacingAndGlyphs" textLength="78" x="625.7355" y="652.6245">Result(int, int)</text><polygon fill="#4177AF" points="616.7355,658.2188,612.7355,664.2188,620.7355,664.2188" style="stroke: #1963A0; stroke-width: 1.0;"/><text fill="#000000" font-family="sans-serif" font-size="11" lengthAdjust="spacingAndGlyphs" textLength="110" x="625.7355" y="665.4292">isWinner(): boolean</text><polygon fill="#4177AF" points="616.7355,671.0234,612.7355,677.0234,620.7355,677.0234" style="stroke: #1963A0; stroke-width: 1.0;"/><text fill="#000000" font-family="sans-serif" font-size="11" lengthAdjust="spacingAndGlyphs" textLength="46" x="625.7355" y="678.2339">writeln()</text><!--MD5=[18eee71c88ab61f27581b8cbdd3ef5ee]
class Color--><rect codeLine="53" fill="#FEFECE" filter="url(#f6pa2libhzdtw)" height="252.875" id="Color" style="stroke: #A80036; stroke-width: 1.5;" width="144" x="389.7355" y="496"/><ellipse cx="441.4855" cy="512" fill="#EB937F" rx="11" ry="11" style="stroke: #A80036; stroke-width: 1.0;"/><path d="M440.2824,512.875 L441.7355,512.875 L441.7355,512.9844 C441.7355,513.3906 441.7668,513.5469 441.8449,513.7031 C442.0011,513.9531 442.2824,514.1094 442.5793,514.1094 C442.8293,514.1094 443.0949,513.9688 443.2511,513.75 C443.3761,513.5938 443.4074,513.4375 443.4074,512.9844 L443.4074,511.0625 C443.4074,510.9063 443.4074,510.8594 443.3918,510.7031 C443.3293,510.2344 443.0168,509.9219 442.5636,509.9219 C442.3136,509.9219 442.048,510.0625 441.8761,510.2813 C441.7668,510.4531 441.7355,510.6094 441.7355,511.0625 L441.7355,511.1875 L440.2824,511.1875 L440.2824,508.7813 L444.2668,508.7813 L444.2668,509.6406 C444.2668,510.0469 444.298,510.2188 444.3761,510.375 C444.548,510.625 444.8293,510.7813 445.1105,510.7813 C445.3761,510.7813 445.6418,510.6406 445.8136,510.4219 C445.923,510.25 445.9543,510.1094 445.9543,509.6406 L445.9543,507.0938 L438.3293,507.0938 C437.8918,507.0938 437.7668,507.1094 437.6105,507.2031 C437.3605,507.3594 437.2043,507.6563 437.2043,507.9375 C437.2043,508.2188 437.3449,508.4688 437.5636,508.6406 C437.7199,508.75 437.9074,508.7813 438.3293,508.7813 L438.5793,508.7813 L438.5793,515.2969 L438.3293,515.2969 C437.923,515.2969 437.7668,515.3125 437.6105,515.4219 C437.3605,515.5938 437.2043,515.8594 437.2043,516.1563 C437.2043,516.4219 437.3449,516.6719 437.5636,516.8281 C437.7043,516.9531 437.9386,517 438.3293,517 L446.3293,517 L446.3293,514.4219 C446.3293,513.9844 446.298,513.8438 446.2199,513.6875 C446.048,513.4375 445.7668,513.2813 445.4855,513.2813 C445.2199,513.2813 444.9543,513.3906 444.7824,513.6406 C444.673,513.7969 444.6418,513.9375 444.6418,514.4219 L444.6418,515.2969 L440.2824,515.2969 L440.2824,512.875 Z "/><text fill="#000000" font-family="sans-serif" font-size="12" lengthAdjust="spacingAndGlyphs" textLength="32" x="461.9855" y="516.1543">Color</text><line style="stroke: #A80036; stroke-width: 1.5;" x1="390.7355" x2="532.7355" y1="528" y2="528"/><ellipse cx="400.7355" cy="539" fill="none" rx="3" ry="3" style="stroke: #038048; stroke-width: 1.0;"/><text fill="#000000" font-family="sans-serif" font-size="11" lengthAdjust="spacingAndGlyphs" textLength="23" x="409.7355" y="542.2104">RED</text><ellipse cx="400.7355" cy="551.8047" fill="none" rx="3" ry="3" style="stroke: #038048; stroke-width: 1.0;"/><text fill="#000000" font-family="sans-serif" font-size="11" lengthAdjust="spacingAndGlyphs" textLength="29" x="409.7355" y="555.0151">BLUE</text><ellipse cx="400.7355" cy="564.6094" fill="none" rx="3" ry="3" style="stroke: #038048; stroke-width: 1.0;"/><text fill="#000000" font-family="sans-serif" font-size="11" lengthAdjust="spacingAndGlyphs" textLength="46" x="409.7355" y="567.8198">YELLOW</text><ellipse cx="400.7355" cy="577.4141" fill="none" rx="3" ry="3" style="stroke: #038048; stroke-width: 1.0;"/><text fill="#000000" font-family="sans-serif" font-size="11" lengthAdjust="spacingAndGlyphs" textLength="38" x="409.7355" y="580.6245">GREEN</text><ellipse cx="400.7355" cy="590.2188" fill="none" rx="3" ry="3" style="stroke: #038048; stroke-width: 1.0;"/><text fill="#000000" font-family="sans-serif" font-size="11" lengthAdjust="spacingAndGlyphs" textLength="48" x="409.7355" y="593.4292">ORANGE</text><ellipse cx="400.7355" cy="603.0234" fill="none" rx="3" ry="3" style="stroke: #038048; stroke-width: 1.0;"/><text fill="#000000" font-family="sans-serif" font-size="11" lengthAdjust="spacingAndGlyphs" textLength="40" x="409.7355" y="606.2339">PURPLE</text><ellipse cx="400.7355" cy="615.8281" fill="none" rx="3" ry="3" style="stroke: #038048; stroke-width: 1.0;"/><text fill="#000000" font-family="sans-serif" font-size="11" lengthAdjust="spacingAndGlyphs" textLength="73" x="409.7355" y="619.0386">NULL_COLOR</text><rect fill="none" height="6" style="stroke: #C82930; stroke-width: 1.0;" width="6" x="397.7355" y="625.6328"/><text fill="#000000" font-family="sans-serif" font-size="11" lengthAdjust="spacingAndGlyphs" textLength="67" x="409.7355" y="631.8433">String initial</text><rect fill="none" height="6" style="stroke: #C82930; stroke-width: 1.0;" width="6" x="397.7355" y="638.4375"/><text fill="#000000" font-family="sans-serif" font-size="11" lengthAdjust="spacingAndGlyphs" text-decoration="underline" textLength="118" x="409.7355" y="644.6479">String RESET_COLOR</text><line style="stroke: #A80036; stroke-width: 1.5;" x1="390.7355" x2="532.7355" y1="651.2422" y2="651.2422"/><rect fill="#F24D5C" height="6" style="stroke: #C82930; stroke-width: 1.0;" width="6" x="397.7355" y="659.2422"/><text fill="#000000" font-family="sans-serif" font-size="11" lengthAdjust="spacingAndGlyphs" textLength="37" x="409.7355" y="665.4526">Color()</text><rect fill="#F24D5C" height="6" style="stroke: #C82930; stroke-width: 1.0;" width="6" x="397.7355" y="672.0469"/><text fill="#000000" font-family="sans-serif" font-size="11" lengthAdjust="spacingAndGlyphs" textLength="70" x="409.7355" y="678.2573">Color(String)</text><polygon fill="#4177AF" points="400.7355,683.8516,396.7355,689.8516,404.7355,689.8516" style="stroke: #1963A0; stroke-width: 1.0;"/><text fill="#000000" font-family="sans-serif" font-size="11" lengthAdjust="spacingAndGlyphs" text-decoration="underline" textLength="103" x="409.7355" y="691.062">getInitials(): String</text><polygon fill="#4177AF" points="400.7355,696.6563,396.7355,702.6563,404.7355,702.6563" style="stroke: #1963A0; stroke-width: 1.0;"/><text fill="#000000" font-family="sans-serif" font-size="11" lengthAdjust="spacingAndGlyphs" text-decoration="underline" textLength="65" x="409.7355" y="703.8667">length(): int</text><polygon fill="#4177AF" points="400.7355,709.4609,396.7355,715.4609,404.7355,715.4609" style="stroke: #1963A0; stroke-width: 1.0;"/><text fill="#000000" font-family="sans-serif" font-size="11" lengthAdjust="spacingAndGlyphs" text-decoration="underline" textLength="77" x="409.7355" y="716.6714">get(int): Color</text><polygon fill="#4177AF" points="400.7355,722.2656,396.7355,728.2656,404.7355,728.2656" style="stroke: #1963A0; stroke-width: 1.0;"/><text fill="#000000" font-family="sans-serif" font-size="11" lengthAdjust="spacingAndGlyphs" textLength="36" x="409.7355" y="729.4761">write()</text><polygon fill="#4177AF" points="400.7355,735.0703,396.7355,741.0703,404.7355,741.0703" style="stroke: #1963A0; stroke-width: 1.0;"/><text fill="#000000" font-family="sans-serif" font-size="11" lengthAdjust="spacingAndGlyphs" textLength="91" x="409.7355" y="742.2808">isNull(): boolean</text><!--MD5=[b8cfd8c4119a3b0a7a46bfc5fc780f85]
class Error--><rect codeLine="72" fill="#FEFECE" filter="url(#f6pa2libhzdtw)" height="163.2422" id="Error" style="stroke: #A80036; stroke-width: 1.5;" width="152" x="268.7355" y="842"/><ellipse cx="325.4855" cy="858" fill="#EB937F" rx="11" ry="11" style="stroke: #A80036; stroke-width: 1.0;"/><path d="M324.2824,858.875 L325.7355,858.875 L325.7355,858.9844 C325.7355,859.3906 325.7668,859.5469 325.8449,859.7031 C326.0011,859.9531 326.2824,860.1094 326.5793,860.1094 C326.8293,860.1094 327.0949,859.9688 327.2511,859.75 C327.3761,859.5938 327.4074,859.4375 327.4074,858.9844 L327.4074,857.0625 C327.4074,856.9063 327.4074,856.8594 327.3918,856.7031 C327.3293,856.2344 327.0168,855.9219 326.5636,855.9219 C326.3136,855.9219 326.048,856.0625 325.8761,856.2813 C325.7668,856.4531 325.7355,856.6094 325.7355,857.0625 L325.7355,857.1875 L324.2824,857.1875 L324.2824,854.7813 L328.2668,854.7813 L328.2668,855.6406 C328.2668,856.0469 328.298,856.2188 328.3761,856.375 C328.548,856.625 328.8293,856.7813 329.1105,856.7813 C329.3761,856.7813 329.6418,856.6406 329.8136,856.4219 C329.923,856.25 329.9543,856.1094 329.9543,855.6406 L329.9543,853.0938 L322.3293,853.0938 C321.8918,853.0938 321.7668,853.1094 321.6105,853.2031 C321.3605,853.3594 321.2043,853.6563 321.2043,853.9375 C321.2043,854.2188 321.3449,854.4688 321.5636,854.6406 C321.7199,854.75 321.9074,854.7813 322.3293,854.7813 L322.5793,854.7813 L322.5793,861.2969 L322.3293,861.2969 C321.923,861.2969 321.7668,861.3125 321.6105,861.4219 C321.3605,861.5938 321.2043,861.8594 321.2043,862.1563 C321.2043,862.4219 321.3449,862.6719 321.5636,862.8281 C321.7043,862.9531 321.9386,863 322.3293,863 L330.3293,863 L330.3293,860.4219 C330.3293,859.9844 330.298,859.8438 330.2199,859.6875 C330.048,859.4375 329.7668,859.2813 329.4855,859.2813 C329.2199,859.2813 328.9543,859.3906 328.7824,859.6406 C328.673,859.7969 328.6418,859.9375 328.6418,860.4219 L328.6418,861.2969 L324.2824,861.2969 L324.2824,858.875 Z "/><text fill="#000000" font-family="sans-serif" font-size="12" lengthAdjust="spacingAndGlyphs" textLength="30" x="345.9855" y="862.1543">Error</text><line style="stroke: #A80036; stroke-width: 1.5;" x1="269.7355" x2="419.7355" y1="874" y2="874"/><ellipse cx="279.7355" cy="885" fill="none" rx="3" ry="3" style="stroke: #038048; stroke-width: 1.0;"/><text fill="#000000" font-family="sans-serif" font-size="11" lengthAdjust="spacingAndGlyphs" textLength="71" x="288.7355" y="888.2104">DUPLICATED</text><ellipse cx="279.7355" cy="897.8047" fill="none" rx="3" ry="3" style="stroke: #038048; stroke-width: 1.0;"/><text fill="#000000" font-family="sans-serif" font-size="11" lengthAdjust="spacingAndGlyphs" textLength="126" x="288.7355" y="901.0151">WRONG_CHARACTERS</text><ellipse cx="279.7355" cy="910.6094" fill="none" rx="3" ry="3" style="stroke: #038048; stroke-width: 1.0;"/><text fill="#000000" font-family="sans-serif" font-size="11" lengthAdjust="spacingAndGlyphs" textLength="95" x="288.7355" y="913.8198">WRONG_LENGTH</text><ellipse cx="279.7355" cy="923.4141" fill="none" rx="3" ry="3" style="stroke: #038048; stroke-width: 1.0;"/><text fill="#000000" font-family="sans-serif" font-size="11" lengthAdjust="spacingAndGlyphs" textLength="71" x="288.7355" y="926.6245">NULL_ERROR</text><rect fill="none" height="6" style="stroke: #C82930; stroke-width: 1.0;" width="6" x="276.7355" y="933.2188"/><text fill="#000000" font-family="sans-serif" font-size="11" lengthAdjust="spacingAndGlyphs" textLength="90" x="288.7355" y="939.4292">String message</text><line style="stroke: #A80036; stroke-width: 1.5;" x1="269.7355" x2="419.7355" y1="946.0234" y2="946.0234"/><rect fill="#F24D5C" height="6" style="stroke: #C82930; stroke-width: 1.0;" width="6" x="276.7355" y="954.0234"/><text fill="#000000" font-family="sans-serif" font-size="11" lengthAdjust="spacingAndGlyphs" textLength="34" x="288.7355" y="960.2339">Error()</text><rect fill="#F24D5C" height="6" style="stroke: #C82930; stroke-width: 1.0;" width="6" x="276.7355" y="966.8281"/><text fill="#000000" font-family="sans-serif" font-size="11" lengthAdjust="spacingAndGlyphs" textLength="67" x="288.7355" y="973.0386">Error(String)</text><polygon fill="#4177AF" points="279.7355,978.6328,275.7355,984.6328,283.7355,984.6328" style="stroke: #1963A0; stroke-width: 1.0;"/><text fill="#000000" font-family="sans-serif" font-size="11" lengthAdjust="spacingAndGlyphs" textLength="46" x="288.7355" y="985.8433">writeln()</text><ellipse cx="279.7355" cy="995.4375" fill="#84BE84" rx="3" ry="3" style="stroke: #038048; stroke-width: 1.0;"/><text fill="#000000" font-family="sans-serif" font-size="11" lengthAdjust="spacingAndGlyphs" textLength="91" x="288.7355" y="998.6479">isNull(): boolean</text><!--MD5=[bea5b0d46523efab5ea1c1d339f396f0]
class Message--><rect codeLine="84" fill="#FEFECE" filter="url(#f6pa2libhzdtw)" height="227.2656" id="Message" style="stroke: #A80036; stroke-width: 1.5;" width="173" x="483.2355" y="810"/><ellipse cx="537.9855" cy="826" fill="#EB937F" rx="11" ry="11" style="stroke: #A80036; stroke-width: 1.0;"/><path d="M536.7824,826.875 L538.2355,826.875 L538.2355,826.9844 C538.2355,827.3906 538.2668,827.5469 538.3449,827.7031 C538.5011,827.9531 538.7824,828.1094 539.0793,828.1094 C539.3293,828.1094 539.5949,827.9688 539.7511,827.75 C539.8761,827.5938 539.9074,827.4375 539.9074,826.9844 L539.9074,825.0625 C539.9074,824.9063 539.9074,824.8594 539.8918,824.7031 C539.8293,824.2344 539.5168,823.9219 539.0636,823.9219 C538.8136,823.9219 538.548,824.0625 538.3761,824.2813 C538.2668,824.4531 538.2355,824.6094 538.2355,825.0625 L538.2355,825.1875 L536.7824,825.1875 L536.7824,822.7813 L540.7668,822.7813 L540.7668,823.6406 C540.7668,824.0469 540.798,824.2188 540.8761,824.375 C541.048,824.625 541.3293,824.7813 541.6105,824.7813 C541.8761,824.7813 542.1418,824.6406 542.3136,824.4219 C542.423,824.25 542.4543,824.1094 542.4543,823.6406 L542.4543,821.0938 L534.8293,821.0938 C534.3918,821.0938 534.2668,821.1094 534.1105,821.2031 C533.8605,821.3594 533.7043,821.6563 533.7043,821.9375 C533.7043,822.2188 533.8449,822.4688 534.0636,822.6406 C534.2199,822.75 534.4074,822.7813 534.8293,822.7813 L535.0793,822.7813 L535.0793,829.2969 L534.8293,829.2969 C534.423,829.2969 534.2668,829.3125 534.1105,829.4219 C533.8605,829.5938 533.7043,829.8594 533.7043,830.1563 C533.7043,830.4219 533.8449,830.6719 534.0636,830.8281 C534.2043,830.9531 534.4386,831 534.8293,831 L542.8293,831 L542.8293,828.4219 C542.8293,827.9844 542.798,827.8438 542.7199,827.6875 C542.548,827.4375 542.2668,827.2813 541.9855,827.2813 C541.7199,827.2813 541.4543,827.3906 541.2824,827.6406 C541.173,827.7969 541.1418,827.9375 541.1418,828.4219 L541.1418,829.2969 L536.7824,829.2969 L536.7824,826.875 Z "/><text fill="#000000" font-family="sans-serif" font-size="12" lengthAdjust="spacingAndGlyphs" textLength="55" x="558.4855" y="830.1543">Message</text><line style="stroke: #A80036; stroke-width: 1.5;" x1="484.2355" x2="655.2355" y1="842" y2="842"/><ellipse cx="494.2355" cy="853" fill="none" rx="3" ry="3" style="stroke: #038048; stroke-width: 1.0;"/><text fill="#000000" font-family="sans-serif" font-size="11" lengthAdjust="spacingAndGlyphs" textLength="59" x="503.2355" y="856.2104">ATTEMPTS</text><ellipse cx="494.2355" cy="865.8047" fill="none" rx="3" ry="3" style="stroke: #038048; stroke-width: 1.0;"/><text fill="#000000" font-family="sans-serif" font-size="11" lengthAdjust="spacingAndGlyphs" textLength="130" x="503.2355" y="869.0151">SECRET_COMBINATION</text><ellipse cx="494.2355" cy="878.6094" fill="none" rx="3" ry="3" style="stroke: #038048; stroke-width: 1.0;"/><text fill="#000000" font-family="sans-serif" font-size="11" lengthAdjust="spacingAndGlyphs" textLength="46" x="503.2355" y="881.8198">RESUME</text><ellipse cx="494.2355" cy="891.4141" fill="none" rx="3" ry="3" style="stroke: #038048; stroke-width: 1.0;"/><text fill="#000000" font-family="sans-serif" font-size="11" lengthAdjust="spacingAndGlyphs" textLength="43" x="503.2355" y="894.6245">RESULT</text><ellipse cx="494.2355" cy="904.2188" fill="none" rx="3" ry="3" style="stroke: #038048; stroke-width: 1.0;"/><text fill="#000000" font-family="sans-serif" font-size="11" lengthAdjust="spacingAndGlyphs" textLength="147" x="503.2355" y="907.4292">PROPOSED_COMBINATION</text><ellipse cx="494.2355" cy="917.0234" fill="none" rx="3" ry="3" style="stroke: #038048; stroke-width: 1.0;"/><text fill="#000000" font-family="sans-serif" font-size="11" lengthAdjust="spacingAndGlyphs" textLength="30" x="503.2355" y="920.2339">TITLE</text><ellipse cx="494.2355" cy="929.8281" fill="none" rx="3" ry="3" style="stroke: #038048; stroke-width: 1.0;"/><text fill="#000000" font-family="sans-serif" font-size="11" lengthAdjust="spacingAndGlyphs" textLength="44" x="503.2355" y="933.0386">WINNER</text><ellipse cx="494.2355" cy="942.6328" fill="none" rx="3" ry="3" style="stroke: #038048; stroke-width: 1.0;"/><text fill="#000000" font-family="sans-serif" font-size="11" lengthAdjust="spacingAndGlyphs" textLength="46" x="503.2355" y="945.8433">LOOSER</text><rect fill="none" height="6" style="stroke: #C82930; stroke-width: 1.0;" width="6" x="491.2355" y="952.4375"/><text fill="#000000" font-family="sans-serif" font-size="11" lengthAdjust="spacingAndGlyphs" textLength="90" x="503.2355" y="958.6479">String message</text><line style="stroke: #A80036; stroke-width: 1.5;" x1="484.2355" x2="655.2355" y1="965.2422" y2="965.2422"/><rect fill="#F24D5C" height="6" style="stroke: #C82930; stroke-width: 1.0;" width="6" x="491.2355" y="973.2422"/><text fill="#000000" font-family="sans-serif" font-size="11" lengthAdjust="spacingAndGlyphs" textLength="92" x="503.2355" y="979.4526">Message(String)</text><polygon fill="#4177AF" points="494.2355,985.0469,490.2355,991.0469,498.2355,991.0469" style="stroke: #1963A0; stroke-width: 1.0;"/><text fill="#000000" font-family="sans-serif" font-size="11" lengthAdjust="spacingAndGlyphs" textLength="36" x="503.2355" y="992.2573">write()</text><polygon fill="#4177AF" points="494.2355,997.8516,490.2355,1003.8516,498.2355,1003.8516" style="stroke: #1963A0; stroke-width: 1.0;"/><text fill="#000000" font-family="sans-serif" font-size="11" lengthAdjust="spacingAndGlyphs" textLength="46" x="503.2355" y="1005.062">writeln()</text><polygon fill="#4177AF" points="494.2355,1010.6563,490.2355,1016.6563,498.2355,1016.6563" style="stroke: #1963A0; stroke-width: 1.0;"/><text fill="#000000" font-family="sans-serif" font-size="11" lengthAdjust="spacingAndGlyphs" textLength="60" x="503.2355" y="1017.8667">writeln(int)</text><polygon fill="#4177AF" points="494.2355,1023.4609,490.2355,1029.4609,498.2355,1029.4609" style="stroke: #1963A0; stroke-width: 1.0;"/><text fill="#000000" font-family="sans-serif" font-size="11" lengthAdjust="spacingAndGlyphs" textLength="81" x="503.2355" y="1030.6714">writeln(int, int)</text><!--MD5=[315b61b427ec618d6861d47eee00cca3]
class Console--><rect codeLine="124" fill="#FEFECE" filter="url(#f6pa2libhzdtw)" height="48" id="Console" style="stroke: #A80036; stroke-width: 1.5;" width="81" x="1087.2355" y="1100"/><ellipse cx="1102.2355" cy="1116" fill="#ADD1B2" rx="11" ry="11" style="stroke: #A80036; stroke-width: 1.0;"/><path d="M1104.5793,1111.6719 C1103.6418,1111.2344 1103.048,1111.0938 1102.173,1111.0938 C1099.548,1111.0938 1097.548,1113.1719 1097.548,1115.8906 L1097.548,1117.0156 C1097.548,1119.5938 1099.6574,1121.4844 1102.548,1121.4844 C1103.7668,1121.4844 1104.923,1121.1875 1105.673,1120.6406 C1106.2511,1120.2344 1106.5793,1119.7813 1106.5793,1119.3906 C1106.5793,1118.9375 1106.1886,1118.5469 1105.7199,1118.5469 C1105.5011,1118.5469 1105.298,1118.625 1105.1105,1118.8125 C1104.6574,1119.2969 1104.6574,1119.2969 1104.4699,1119.3906 C1104.048,1119.6563 1103.3605,1119.7813 1102.5949,1119.7813 C1100.548,1119.7813 1099.2511,1118.6875 1099.2511,1116.9844 L1099.2511,1115.8906 C1099.2511,1114.1094 1100.5011,1112.7969 1102.2355,1112.7969 C1102.8136,1112.7969 1103.423,1112.9531 1103.8918,1113.2031 C1104.3761,1113.4844 1104.548,1113.7031 1104.6418,1114.1094 C1104.7043,1114.5156 1104.7355,1114.6406 1104.8761,1114.7656 C1105.0168,1114.9063 1105.2511,1115.0156 1105.4699,1115.0156 C1105.7355,1115.0156 1106.0011,1114.875 1106.173,1114.6563 C1106.2824,1114.5 1106.3136,1114.3125 1106.3136,1113.8906 L1106.3136,1112.4688 C1106.3136,1112.0313 1106.298,1111.9063 1106.2043,1111.75 C1106.048,1111.4844 1105.7668,1111.3438 1105.4699,1111.3438 C1105.173,1111.3438 1104.9699,1111.4375 1104.7511,1111.75 L1104.5793,1111.6719 Z "/><text fill="#000000" font-family="sans-serif" font-size="12" lengthAdjust="spacingAndGlyphs" textLength="49" x="1116.2355" y="1120.1543">Console</text><line style="stroke: #A80036; stroke-width: 1.5;" x1="1088.2355" x2="1167.2355" y1="1132" y2="1132"/><line style="stroke: #A80036; stroke-width: 1.5;" x1="1088.2355" x2="1167.2355" y1="1140" y2="1140"/><!--MD5=[d93cf99d2b92276f27fe8dbf15140505]
class YesNoDialog--><rect codeLine="129" fill="#FEFECE" filter="url(#f6pa2libhzdtw)" height="48" id="YesNoDialog" style="stroke: #A80036; stroke-width: 1.5;" width="108" x="1217.7355" y="899.5"/><ellipse cx="1232.7355" cy="915.5" fill="#ADD1B2" rx="11" ry="11" style="stroke: #A80036; stroke-width: 1.0;"/><path d="M1235.0793,911.1719 C1234.1418,910.7344 1233.548,910.5938 1232.673,910.5938 C1230.048,910.5938 1228.048,912.6719 1228.048,915.3906 L1228.048,916.5156 C1228.048,919.0938 1230.1574,920.9844 1233.048,920.9844 C1234.2668,920.9844 1235.423,920.6875 1236.173,920.1406 C1236.7511,919.7344 1237.0793,919.2813 1237.0793,918.8906 C1237.0793,918.4375 1236.6886,918.0469 1236.2199,918.0469 C1236.0011,918.0469 1235.798,918.125 1235.6105,918.3125 C1235.1574,918.7969 1235.1574,918.7969 1234.9699,918.8906 C1234.548,919.1563 1233.8605,919.2813 1233.0949,919.2813 C1231.048,919.2813 1229.7511,918.1875 1229.7511,916.4844 L1229.7511,915.3906 C1229.7511,913.6094 1231.0011,912.2969 1232.7355,912.2969 C1233.3136,912.2969 1233.923,912.4531 1234.3918,912.7031 C1234.8761,912.9844 1235.048,913.2031 1235.1418,913.6094 C1235.2043,914.0156 1235.2355,914.1406 1235.3761,914.2656 C1235.5168,914.4063 1235.7511,914.5156 1235.9699,914.5156 C1236.2355,914.5156 1236.5011,914.375 1236.673,914.1563 C1236.7824,914 1236.8136,913.8125 1236.8136,913.3906 L1236.8136,911.9688 C1236.8136,911.5313 1236.798,911.4063 1236.7043,911.25 C1236.548,910.9844 1236.2668,910.8438 1235.9699,910.8438 C1235.673,910.8438 1235.4699,910.9375 1235.2511,911.25 L1235.0793,911.1719 Z "/><text fill="#000000" font-family="sans-serif" font-size="12" lengthAdjust="spacingAndGlyphs" textLength="76" x="1246.7355" y="919.6543">YesNoDialog</text><line style="stroke: #A80036; stroke-width: 1.5;" x1="1218.7355" x2="1324.7355" y1="931.5" y2="931.5"/><line style="stroke: #A80036; stroke-width: 1.5;" x1="1218.7355" x2="1324.7355" y1="939.5" y2="939.5"/><!--MD5=[5f6eaca964039dd95284677bcb120bda]
class usantatecla.utils.ColorCode--><rect fill="#FEFECE" filter="url(#f6pa2libhzdtw)" height="48" id="usantatecla.utils.ColorCode" style="stroke: #A80036; stroke-width: 1.5;" width="96" x="1086.7355" y="899.5"/><ellipse cx="1101.7355" cy="915.5" fill="#ADD1B2" rx="11" ry="11" style="stroke: #A80036; stroke-width: 1.0;"/><path d="M1104.0793,911.1719 C1103.1418,910.7344 1102.548,910.5938 1101.673,910.5938 C1099.048,910.5938 1097.048,912.6719 1097.048,915.3906 L1097.048,916.5156 C1097.048,919.0938 1099.1574,920.9844 1102.048,920.9844 C1103.2668,920.9844 1104.423,920.6875 1105.173,920.1406 C1105.7511,919.7344 1106.0793,919.2813 1106.0793,918.8906 C1106.0793,918.4375 1105.6886,918.0469 1105.2199,918.0469 C1105.0011,918.0469 1104.798,918.125 1104.6105,918.3125 C1104.1574,918.7969 1104.1574,918.7969 1103.9699,918.8906 C1103.548,919.1563 1102.8605,919.2813 1102.0949,919.2813 C1100.048,919.2813 1098.7511,918.1875 1098.7511,916.4844 L1098.7511,915.3906 C1098.7511,913.6094 1100.0011,912.2969 1101.7355,912.2969 C1102.3136,912.2969 1102.923,912.4531 1103.3918,912.7031 C1103.8761,912.9844 1104.048,913.2031 1104.1418,913.6094 C1104.2043,914.0156 1104.2355,914.1406 1104.3761,914.2656 C1104.5168,914.4063 1104.7511,914.5156 1104.9699,914.5156 C1105.2355,914.5156 1105.5011,914.375 1105.673,914.1563 C1105.7824,914 1105.8136,913.8125 1105.8136,913.3906 L1105.8136,911.9688 C1105.8136,911.5313 1105.798,911.4063 1105.7043,911.25 C1105.548,910.9844 1105.2668,910.8438 1104.9699,910.8438 C1104.673,910.8438 1104.4699,910.9375 1104.2511,911.25 L1104.0793,911.1719 Z "/><text fill="#000000" font-family="sans-serif" font-size="12" lengthAdjust="spacingAndGlyphs" textLength="64" x="1115.7355" y="919.6543">ColorCode</text><line style="stroke: #A80036; stroke-width: 1.5;" x1="1087.7355" x2="1181.7355" y1="931.5" y2="931.5"/><line style="stroke: #A80036; stroke-width: 1.5;" x1="1087.7355" x2="1181.7355" y1="939.5" y2="939.5"/><!--MD5=[ba28573f2062cf9f5d1d4aa517f0cc38]
link Mastermind to Board--><path codeLine="103" d="M412.2053,160.3988 C412.2053,160.3988 466.1475,201.225 493.4765,221.905 " fill="none" id="Mastermind-Board" style="stroke: #A80036; stroke-width: 1.0;"/><polygon fill="#A80036" points="503.9105,229.8,499.147,221.1797,499.9233,226.7831,494.3199,227.5593,503.9105,229.8" style="stroke: #A80036; stroke-width: 1.0;"/><line style="stroke: #A80036; stroke-width: 1.0;" x1="499.9233" x2="493.544" y1="226.7831" y2="221.9555"/><polygon fill="#A80036" points="402.6345,153.16,405.007,159.9696,412.2053,160.3988,409.8328,153.5891,402.6345,153.16" style="stroke: #A80036; stroke-width: 1.0;"/><text fill="#000000" font-family="sans-serif" font-size="13" lengthAdjust="spacingAndGlyphs" textLength="37" x="462.7355" y="196.0669">board</text><!--MD5=[165aae362738a81ed253bf2cad9e16e5]
link Mastermind to ProposedCombination--><path codeLine="104" d="M305.4935,153.13 C296.3745,176.4 286.9565,204.063 281.7355,230 C258.4785,345.541 257.9945,483.941 260.1135,561.384 " fill="none" id="Mastermind-to-ProposedCombination" style="stroke: #A80036; stroke-width: 1.0; stroke-dasharray: 7.0,7.0;"/><polygon fill="#A80036" points="260.2565,566.396,263.9978,557.2854,260.1137,561.398,256.001,557.5139,260.2565,566.396" style="stroke: #A80036; stroke-width: 1.0;"/><!--MD5=[5e915b8ab835b2366405aaf6901e131b]
link Board to SecretCombination--><path codeLine="105" d="M723.2469,427.9328 C723.2469,427.9328 819.1415,530.775 855.3785,569.638 " fill="none" id="Board-SecretCombination" style="stroke: #A80036; stroke-width: 1.0;"/><polygon fill="#A80036" points="864.2655,579.169,861.0535,569.8586,860.8557,575.512,855.2024,575.3142,864.2655,579.169" style="stroke: #A80036; stroke-width: 1.0;"/><line style="stroke: #A80036; stroke-width: 1.0;" x1="860.8557" x2="855.3995" y1="575.512" y2="569.661"/><polygon fill="#A80036" points="715.0635,419.156,716.2296,426.2722,723.2469,427.9328,722.0808,420.8166,715.0635,419.156" style="stroke: #A80036; stroke-width: 1.0;"/><text fill="#000000" font-family="sans-serif" font-size="13" lengthAdjust="spacingAndGlyphs" textLength="121" x="758.7355" y="462.0669">secretCombination</text><!--MD5=[e0b5d9907fda64872c10fd6493e0c51f]
link Board to ProposedCombination--><path codeLine="106" d="M471.9881,405.3697 C471.9881,405.3697 429.2335,433.747 410.7355,449 C373.0745,480.054 337.2535,521.375 310.2865,555.789 " fill="none" id="Board-ProposedCombination" style="stroke: #A80036; stroke-width: 1.0;"/><polygon fill="#A80036" points="302.2095,566.229,310.8804,561.5583,305.269,562.2744,304.5529,556.663,302.2095,566.229" style="stroke: #A80036; stroke-width: 1.0;"/><line style="stroke: #A80036; stroke-width: 1.0;" x1="305.269" x2="310.165" y1="562.2744" y2="555.947"/><polygon fill="#FFFFFF" points="482.1885,399.049,474.9814,398.8092,471.9881,405.3697,479.1952,405.6095,482.1885,399.049" style="stroke: #A80036; stroke-width: 1.0;"/><text fill="#000000" font-family="sans-serif" font-size="13" lengthAdjust="spacingAndGlyphs" textLength="148" x="411.7355" y="462.0669">proposedCombinations</text><text fill="#000000" font-family="sans-serif" font-size="13" lengthAdjust="spacingAndGlyphs" textLength="32" x="273.0704" y="555.5305">0..10</text><!--MD5=[8dd95aff79c51151a18c835e3410b3cd]
link Board to Result--><path codeLine="107" d="M644.134,431.0135 C644.134,431.0135 656.7345,512.101 662.1265,546.797 " fill="none" id="Board-Result" style="stroke: #A80036; stroke-width: 1.0;"/><polygon fill="#A80036" points="664.1345,559.719,666.7044,550.2113,663.3664,554.7784,658.7994,551.4403,664.1345,559.719" style="stroke: #A80036; stroke-width: 1.0;"/><line style="stroke: #A80036; stroke-width: 1.0;" x1="663.3664" x2="662.1385" y1="554.7784" y2="546.873"/><polygon fill="#FFFFFF" points="642.2905,419.156,639.2597,425.6993,644.134,431.0135,647.1648,424.4703,642.2905,419.156" style="stroke: #A80036; stroke-width: 1.0;"/><text fill="#000000" font-family="sans-serif" font-size="13" lengthAdjust="spacingAndGlyphs" textLength="43" x="650.7355" y="462.0669">results</text><text fill="#000000" font-family="sans-serif" font-size="13" lengthAdjust="spacingAndGlyphs" textLength="32" x="629.3344" y="549.1156">0..10</text><!--MD5=[6e8433e42d71f9427401b78cd95c6f0c]
link Combination to Color--><path codeLine="109" d="M337.0872,372.6591 C337.0872,372.6591 316.1195,437.193 330.7355,466 C340.9525,486.136 355.8465,479.958 371.7355,496 C374.7545,499.048 377.7475,502.205 380.7065,505.446 " fill="none" id="Combination-Color" style="stroke: #A80036; stroke-width: 1.0;"/><polygon fill="#A80036" points="389.4705,515.394,386.5228,505.9966,386.1654,511.6422,380.5198,511.2848,389.4705,515.394" style="stroke: #A80036; stroke-width: 1.0;"/><line style="stroke: #A80036; stroke-width: 1.0;" x1="386.1654" x2="380.8765" y1="511.6422" y2="505.6395"/><polygon fill="#A80036" points="342.1125,361.762,335.9675,365.5355,337.0872,372.6591,343.2322,368.8856,342.1125,361.762" style="stroke: #A80036; stroke-width: 1.0;"/><text fill="#000000" font-family="sans-serif" font-size="13" lengthAdjust="spacingAndGlyphs" textLength="38" x="331.7355" y="462.0669">colors</text><text fill="#000000" font-family="sans-serif" font-size="13" lengthAdjust="spacingAndGlyphs" textLength="8" x="373.6057" y="500.6554">4</text><!--MD5=[ed81d3472c9069d2de3c2f5cd308846f]
reverse link Combination to SecretCombination--><path codeLine="110" d="M408.8655,376.077 C425.1275,391.761 444.4935,407.839 464.7355,419 C482.4605,428.773 621.1495,460.895 640.7355,466 C693.0995,479.648 710.7675,470.954 758.7355,496 C799.3155,517.188 838.1345,551.821 865.3765,579.343 " fill="none" id="Combination-backto-SecretCombination" style="stroke: #A80036; stroke-width: 1.0;"/><polygon fill="none" points="403.6705,380.779,394.5835,361.636,413.6245,370.934,403.6705,380.779" style="stroke: #A80036; stroke-width: 1.0;"/><!--MD5=[2f10888865b2f559cc24db01ac34cee3]
reverse link Combination to ProposedCombination--><path codeLine="111" d="M342.6415,380.409 C334.6155,401.741 325.5315,426.432 317.7355,449 C304.2915,487.921 290.2045,532.179 279.6525,566.12 " fill="none" id="Combination-backto-ProposedCombination" style="stroke: #A80036; stroke-width: 1.0;"/><polygon fill="none" points="336.1585,377.763,349.7915,361.542,349.2495,382.725,336.1585,377.763" style="stroke: #A80036; stroke-width: 1.0;"/><!--MD5=[03e1adeaed11e2ac298b9b43cd912fbb]
link ProposedCombination to Error--><path codeLine="112" d="M277.8715,678.69 C290.0425,723.071 307.3545,786.194 321.3125,837.091 " fill="none" id="ProposedCombination-to-Error" style="stroke: #A80036; stroke-width: 1.0; stroke-dasharray: 7.0,7.0;"/><polygon fill="#A80036" points="322.6525,841.977,324.1313,832.2398,321.3309,837.1548,316.4158,834.3544,322.6525,841.977" style="stroke: #A80036; stroke-width: 1.0;"/><!--MD5=[c90363da1e54012406e61a987ebdf2c8]
link Mastermind to Message--><path codeLine="115" d="M285.8655,153.04 C194.9026,274.181 6,567.534 152.7357,749 C234.1835,849.726 321.5695,752.687 437.7355,810 C451.9295,817.003 465.8585,825.872 479.0345,835.547 " fill="none" id="Mastermind-to-Message" style="stroke: #A80036; stroke-width: 1.0; stroke-dasharray: 7.0,7.0;"/><polygon fill="#A80036" points="483.0995,838.575,478.2715,829.9907,479.0898,835.588,473.4924,836.4063,483.0995,838.575" style="stroke: #A80036; stroke-width: 1.0;"/><!--MD5=[f93e57f7ded8581437b27fa1712e0f0d]
link Board to Message--><path codeLine="116" d="M602.4255,419.155 C596.6405,443.964 591.1855,470.848 587.7355,496 C573.5175,599.665 569.5075,718.712 568.7705,804.643 " fill="none" id="Board-to-Message" style="stroke: #A80036; stroke-width: 1.0; stroke-dasharray: 7.0,7.0;"/><polygon fill="#A80036" points="568.7295,809.738,572.7988,800.7691,568.7681,804.7381,564.799,800.7074,568.7295,809.738" style="stroke: #A80036; stroke-width: 1.0;"/><!--MD5=[b9347c562a69bbba75d70bb21299d009]
link ProposedCombination to Message--><path codeLine="117" d="M307.8555,678.691 C326.9095,701.126 349.7455,726.913 371.7355,749 C391.2995,768.65 436.7995,808.65 479.2535,845.295 " fill="none" id="ProposedCombination-to-Message" style="stroke: #A80036; stroke-width: 1.0; stroke-dasharray: 7.0,7.0;"/><polygon fill="#A80036" points="483.0885,848.603,478.8865,839.6955,479.3025,845.3371,473.661,845.7531,483.0885,848.603" style="stroke: #A80036; stroke-width: 1.0;"/><!--MD5=[478a268921f9a7a4cb7b8daeb48ad6b0]
link Result to Message--><path codeLine="118" d="M652.3125,685.09 C640.2855,719.671 624.8725,763.983 610.6265,804.94 " fill="none" id="Result-to-Message" style="stroke: #A80036; stroke-width: 1.0; stroke-dasharray: 7.0,7.0;"/><polygon fill="#A80036" points="608.8945,809.917,615.6293,802.7308,610.5372,805.1946,608.0734,800.1024,608.8945,809.917" style="stroke: #A80036; stroke-width: 1.0;"/><!--MD5=[463cc8af4a3cc64d4486d23129543027]
link YesNoDialog to Console--><path codeLine="135" d="M1262.9755,947.591 C1251.4555,976.094 1229.2955,1025.183 1200.7355,1061 C1190.3955,1073.965 1177.0355,1086.2374 1164.5755,1096.3895 " fill="none" id="YesNoDialog-to-Console" style="stroke: #A80036; stroke-width: 1.0; stroke-dasharray: 7.0,7.0;"/><polygon fill="#A80036" points="1160.3855,1099.7491,1169.9085,1097.2367,1164.2854,1096.6201,1164.902,1090.9969,1160.3855,1099.7491" style="stroke: #A80036; stroke-width: 1.0;"/><!--MD5=[922eb40535b2da68a8faa8740884533b]
link Board to Console--><path codeLine="136" d="M773.3385,368.75 C953.3485,431.66 1247.7155,568.146 1343.7355,810 C1384.9055,913.682 1410.8555,971.899 1343.7355,1061 C1323.2855,1088.1479 1230.6055,1107.0624 1173.4955,1116.3748 " fill="none" id="Board-to-Console" style="stroke: #A80036; stroke-width: 1.0; stroke-dasharray: 7.0,7.0;"/><polygon fill="#A80036" points="1168.4255,1117.1917,1177.9495,1119.7004,1173.3611,1116.3918,1176.6697,1111.8034,1168.4255,1117.1917" style="stroke: #A80036; stroke-width: 1.0;"/><!--MD5=[913a83e29969536c5e075cf265ec81cd]
link Color to Console--><path codeLine="137" d="M389.7265,731.704 C383.9595,737.852 377.9485,743.683 371.7355,749 C325.9775,788.156 282.3135,758.717 250.7355,810 C192.2442,904.991 174.6862,979.384 250.7355,1061 C307.7335,1122.1694 909.5925,1124.0484 1081.8895,1123.3194 " fill="none" id="Color-to-Console" style="stroke: #A80036; stroke-width: 1.0; stroke-dasharray: 7.0,7.0;"/><polygon fill="#A80036" points="1087.1055,1123.296,1078.0873,1119.3372,1082.1056,1123.3189,1078.1239,1127.3371,1087.1055,1123.296" style="stroke: #A80036; stroke-width: 1.0;"/><!--MD5=[42b148366534e08341523a69727818ae]
link Color to usantatecla.utils.ColorCode--><path codeLine="138" d="M533.9225,710.855 C550.1435,725.737 568.3485,739.449 587.7355,749 C680.0385,794.475 957.4175,758.912 1046.7355,810 C1080.9195,829.552 1106.5555,868.141 1121.0955,894.623 " fill="none" id="Color-to-usantatecla.utils.ColorCode" style="stroke: #A80036; stroke-width: 1.0; stroke-dasharray: 7.0,7.0;"/><polygon fill="#A80036" points="1123.5055,899.091,1122.7517,889.271,1121.1311,894.6908,1115.7114,893.0701,1123.5055,899.091" style="stroke: #A80036; stroke-width: 1.0;"/><!--MD5=[702d0bc4071943235df53e25e5a40cdb]
link Error to Console--><path codeLine="139" d="M398.7075,1005.271 C417.3165,1026.946 440.0355,1047.963 465.7355,1061 C573.7465,1115.7914 949.4815,1122.4162 1081.4655,1123.0238 " fill="none" id="Error-to-Console" style="stroke: #A80036; stroke-width: 1.0; stroke-dasharray: 7.0,7.0;"/><polygon fill="#A80036" points="1086.8115,1123.0457,1077.8276,1119.0097,1081.8115,1123.0257,1077.7956,1127.0097,1086.8115,1123.0457" style="stroke: #A80036; stroke-width: 1.0;"/><!--MD5=[fde603ad956a440325a7db2e94c3d038]
link Message to Console--><path codeLine="140" d="M656.6015,1013.255 C682.6255,1035.128 712.5895,1056.211 743.7355,1070 C803.4675,1096.4453 993.4315,1113.2605 1081.7605,1119.8434 " fill="none" id="Message-to-Console" style="stroke: #A80036; stroke-width: 1.0; stroke-dasharray: 7.0,7.0;"/><polygon fill="#A80036" points="1086.9155,1120.2247,1078.2348,1115.5722,1081.9291,1119.8561,1077.6451,1123.5504,1086.9155,1120.2247" style="stroke: #A80036; stroke-width: 1.0;"/><!--MD5=[6bfe31e80e6e77060baa4b8d6064148a]
link ProposedCombination to Console--><path codeLine="141" d="M297.9575,678.646 C316.8535,703.856 342.3105,731.859 371.7355,749 C490.0565,817.926 551.6235,748.039 673.7355,810 C821.3035,884.877 806.5175,976.402 948.7355,1061 C990.7995,1086.0213 1044.4485,1102.9037 1081.9985,1112.6543 " fill="none" id="ProposedCombination-to-Console" style="stroke: #A80036; stroke-width: 1.0; stroke-dasharray: 7.0,7.0;"/><polygon fill="#A80036" points="1086.9565,1113.9246,1079.2297,1107.8175,1082.1127,1112.6845,1077.2456,1115.5675,1086.9565,1113.9246" style="stroke: #A80036; stroke-width: 1.0;"/><!--MD5=[336a78eb14894e486e0ed36e439320b7]
link SecretCombination to Console--><path codeLine="142" d="M913.5815,665.524 C933.8185,746.559 985.3225,928.139 1068.7355,1061 C1076.6875,1073.665 1087.5045,1085.9539 1097.7065,1096.2053 " fill="none" id="SecretCombination-to-Console" style="stroke: #A80036; stroke-width: 1.0; stroke-dasharray: 7.0,7.0;"/><polygon fill="#A80036" points="1101.4355,1099.8869,1097.8478,1090.7147,1097.88,1096.3715,1092.2232,1096.4036,1101.4355,1099.8869" style="stroke: #A80036; stroke-width: 1.0;"/><!--MD5=[1499d68dab61e96ede2ae386f5ea1cf6]
link Mastermind to YesNoDialog--><path codeLine="143" d="M422.3275,110.21 C519.5875,126.18 674.2975,160.72 790.7355,230 C1066.8805,394.309 1223.1155,786.013 1262.0355,894.325 " fill="none" id="Mastermind-to-YesNoDialog" style="stroke: #A80036; stroke-width: 1.0; stroke-dasharray: 7.0,7.0;"/><polygon fill="#A80036" points="1263.8055,899.266,1264.5401,889.4446,1262.1213,894.5582,1257.0077,892.1393,1263.8055,899.266" style="stroke: #A80036; stroke-width: 1.0;"/><!--MD5=[f55ea221ac555ea1924c030397c3ac89]
@startuml
package usantatecla.mastermind {
class Mastermind {
	- Board board
	+ play()
	- playGame()
	- isResumedGame(): boolean 
	+ {static} main(String[])
}


class Board {
  - {static} int MAX_ATTEMPS
  - SecretCombination secretCombination
  - ProposedCombination[] proposedCombinations
  - Result[] results 
  - int attempts
  ~ Board()
  + writeln()
  + add(ProposedCombination)
  + isFinished(): boolean 
  + isWinner(): boolean 
  - isLooser(): boolean 
}

abstract class Combination {
	~ List<Color> colors
	~ Combination ()
}

class SecretCombination {
	~ SecretCombination()
	~ getResult(ProposedCombination): Result 
	~ writeln()
}

class ProposedCombination {
	~write()
	~read()
	- checkError(String): Error 
	~ contains(Color, int): boolean 
	~ contains(Color): boolean 
}

class Result{
	+ {static} int WIDTH
	- int blacks
	- int whites
	~ Result(int, int)
	~ isWinner(): boolean 
	~ writeln()
}

enum Color {
	+ RED
	+ BLUE
	+ YELLOW
	+ GREEN
	+ ORANGE
	+ PURPLE
	+ NULL_COLOR
	- String initial
	- {static} String RESET_COLOR
	- Color()
	- Color(String)
	~ {static} getInitials(): String 
	~ {static} length(): int 
	~ {static} get(int): Color 
	~ write()
	~ isNull(): boolean 
}

enum Error {
	+ DUPLICATED
	+ WRONG_CHARACTERS
	+ WRONG_LENGTH
	+ NULL_ERROR
	- String message
	- Error()
	- Error(String)
	~ writeln()
	+ isNull(): boolean 
}

enum Message {
	+ ATTEMPTS
	+ SECRET_COMBINATION
	+ RESUME
	+ RESULT
	+ PROPOSED_COMBINATION
	+ TITLE
	+ WINNER
	+ LOOSER
	- String message
	- Message(String)
	~ write()
	~ writeln()
	~ writeln(int)
	~ writeln(int, int)
}



Mastermind *-down-> Board : board
Mastermind .down.> ProposedCombination
Board *-down-> SecretCombination : secretCombination
Board o-down-> "0..10" ProposedCombination : proposedCombinations
Board o-down-> "0..10" Result : results

Combination *-down-> "4" Color : colors
Combination <|-down- SecretCombination
Combination <|-down- ProposedCombination
ProposedCombination .down.> Error


Mastermind .down.> Message
Board .down.> Message
ProposedCombination .down.> Message
Result .down.> Message

}

package usantatecla.utils {

class Console {


}

class YesNoDialog {

}

}

YesNoDialog .down.> Console
Board .down.> Console
Color .down.> Console
Color .down.> usantatecla.utils.ColorCode
Error .down.> Console
Message .down.> Console
ProposedCombination .down.> Console
SecretCombination .down.> Console
Mastermind .down.> YesNoDialog
@enduml

PlantUML version 1.2020.20beta4(Unknown compile time)
(GPL source distribution)
Java Runtime: Java(TM) SE Runtime Environment
JVM: Java HotSpot(TM) 64-Bit Server VM
Default Encoding: UTF-8
Language: en
Country: US
--></g></svg>