<?xml version="1.0" encoding="UTF-8" standalone="no"?><svg xmlns="http://www.w3.org/2000/svg" xmlns:xlink="http://www.w3.org/1999/xlink" contentScriptType="application/ecmascript" contentStyleType="text/css" height="1123px" preserveAspectRatio="none" style="width:1463px;height:1123px;" version="1.1" viewBox="0 0 1463 1123" width="1463px" zoomAndPan="magnify"><defs><filter height="300%" id="f6e8v1r1iebjh" width="300%" x="-1" y="-1"><feGaussianBlur result="blurOut" stdDeviation="2.0"/><feColorMatrix in="blurOut" result="blurOut2" type="matrix" values="0 0 0 0 0 0 0 0 0 0 0 0 0 0 0 0 0 0 .4 0"/><feOffset dx="4.0" dy="4.0" in="blurOut2" result="blurOut3"/><feBlend in="SourceGraphic" in2="blurOut3" mode="normal"/></filter></defs><g><!--MD5=[9be0839337cfdab5d118a2e29cf0a8c4]
cluster usantatecla.mastermind--><polygon fill="#FFFFFF" filter="url(#f6e8v1r1iebjh)" points="16,6,223,6,230,28.2969,962,28.2969,962,1014,16,1014,16,6" style="stroke: #000000; stroke-width: 1.5;"/><line style="stroke: #000000; stroke-width: 1.5;" x1="16" x2="230" y1="28.2969" y2="28.2969"/><text fill="#000000" font-family="sans-serif" font-size="14" font-weight="bold" lengthAdjust="spacingAndGlyphs" textLength="201" x="20" y="20.9951">usantatecla.mastermind</text><!--MD5=[7283a9eed84464550b6d5ebf39c68b05]
class Mastermind--><rect codeLine="2" fill="#FEFECE" filter="url(#f6e8v1r1iebjh)" height="99.2188" id="Mastermind" style="stroke: #A80036; stroke-width: 1.5;" width="185" x="192.5" y="41"/><ellipse cx="245.75" cy="57" fill="#ADD1B2" rx="11" ry="11" style="stroke: #A80036; stroke-width: 1.0;"/><path d="M248.0938,52.6719 C247.1563,52.2344 246.5625,52.0938 245.6875,52.0938 C243.0625,52.0938 241.0625,54.1719 241.0625,56.8906 L241.0625,58.0156 C241.0625,60.5938 243.1719,62.4844 246.0625,62.4844 C247.2813,62.4844 248.4375,62.1875 249.1875,61.6406 C249.7656,61.2344 250.0938,60.7813 250.0938,60.3906 C250.0938,59.9375 249.7031,59.5469 249.2344,59.5469 C249.0156,59.5469 248.8125,59.625 248.625,59.8125 C248.1719,60.2969 248.1719,60.2969 247.9844,60.3906 C247.5625,60.6563 246.875,60.7813 246.1094,60.7813 C244.0625,60.7813 242.7656,59.6875 242.7656,57.9844 L242.7656,56.8906 C242.7656,55.1094 244.0156,53.7969 245.75,53.7969 C246.3281,53.7969 246.9375,53.9531 247.4063,54.2031 C247.8906,54.4844 248.0625,54.7031 248.1563,55.1094 C248.2188,55.5156 248.25,55.6406 248.3906,55.7656 C248.5313,55.9063 248.7656,56.0156 248.9844,56.0156 C249.25,56.0156 249.5156,55.875 249.6875,55.6563 C249.7969,55.5 249.8281,55.3125 249.8281,54.8906 L249.8281,53.4688 C249.8281,53.0313 249.8125,52.9063 249.7188,52.75 C249.5625,52.4844 249.2813,52.3438 248.9844,52.3438 C248.6875,52.3438 248.4844,52.4375 248.2656,52.75 L248.0938,52.6719 Z "/><text fill="#000000" font-family="sans-serif" font-size="12" lengthAdjust="spacingAndGlyphs" textLength="70" x="266.25" y="61.1543">Mastermind</text><line style="stroke: #A80036; stroke-width: 1.5;" x1="193.5" x2="376.5" y1="73" y2="73"/><line style="stroke: #A80036; stroke-width: 1.5;" x1="193.5" x2="376.5" y1="81" y2="81"/><ellipse cx="203.5" cy="92" fill="#84BE84" rx="3" ry="3" style="stroke: #038048; stroke-width: 1.0;"/><text fill="#000000" font-family="sans-serif" font-size="11" lengthAdjust="spacingAndGlyphs" textLength="32" x="212.5" y="95.2104">play()</text><rect fill="#F24D5C" height="6" style="stroke: #C82930; stroke-width: 1.0;" width="6" x="200.5" y="101.8047"/><text fill="#000000" font-family="sans-serif" font-size="11" lengthAdjust="spacingAndGlyphs" textLength="67" x="212.5" y="108.0151">playGame()</text><rect fill="#F24D5C" height="6" style="stroke: #C82930; stroke-width: 1.0;" width="6" x="200.5" y="114.6094"/><text fill="#000000" font-family="sans-serif" font-size="11" lengthAdjust="spacingAndGlyphs" textLength="159" x="212.5" y="120.8198">isResumedGame(): boolean</text><ellipse cx="203.5" cy="130.4141" fill="#84BE84" rx="3" ry="3" style="stroke: #038048; stroke-width: 1.0;"/><text fill="#000000" font-family="sans-serif" font-size="11" lengthAdjust="spacingAndGlyphs" text-decoration="underline" textLength="77" x="212.5" y="133.6245">main(String[])</text><!--MD5=[9563755d011c5cec7ec66dc53565a59e]
class Board--><rect codeLine="10" fill="#FEFECE" filter="url(#f6e8v1r1iebjh)" height="150.4375" id="Board" style="stroke: #A80036; stroke-width: 1.5;" width="178" x="280" y="217"/><ellipse cx="346.75" cy="233" fill="#ADD1B2" rx="11" ry="11" style="stroke: #A80036; stroke-width: 1.0;"/><path d="M349.0938,228.6719 C348.1563,228.2344 347.5625,228.0938 346.6875,228.0938 C344.0625,228.0938 342.0625,230.1719 342.0625,232.8906 L342.0625,234.0156 C342.0625,236.5938 344.1719,238.4844 347.0625,238.4844 C348.2813,238.4844 349.4375,238.1875 350.1875,237.6406 C350.7656,237.2344 351.0938,236.7813 351.0938,236.3906 C351.0938,235.9375 350.7031,235.5469 350.2344,235.5469 C350.0156,235.5469 349.8125,235.625 349.625,235.8125 C349.1719,236.2969 349.1719,236.2969 348.9844,236.3906 C348.5625,236.6563 347.875,236.7813 347.1094,236.7813 C345.0625,236.7813 343.7656,235.6875 343.7656,233.9844 L343.7656,232.8906 C343.7656,231.1094 345.0156,229.7969 346.75,229.7969 C347.3281,229.7969 347.9375,229.9531 348.4063,230.2031 C348.8906,230.4844 349.0625,230.7031 349.1563,231.1094 C349.2188,231.5156 349.25,231.6406 349.3906,231.7656 C349.5313,231.9063 349.7656,232.0156 349.9844,232.0156 C350.25,232.0156 350.5156,231.875 350.6875,231.6563 C350.7969,231.5 350.8281,231.3125 350.8281,230.8906 L350.8281,229.4688 C350.8281,229.0313 350.8125,228.9063 350.7188,228.75 C350.5625,228.4844 350.2813,228.3438 349.9844,228.3438 C349.6875,228.3438 349.4844,228.4375 349.2656,228.75 L349.0938,228.6719 Z "/><text fill="#000000" font-family="sans-serif" font-size="12" lengthAdjust="spacingAndGlyphs" textLength="36" x="367.25" y="237.1543">Board</text><line style="stroke: #A80036; stroke-width: 1.5;" x1="281" x2="457" y1="249" y2="249"/><rect fill="none" height="6" style="stroke: #C82930; stroke-width: 1.0;" width="6" x="288" y="257"/><text fill="#000000" font-family="sans-serif" font-size="11" lengthAdjust="spacingAndGlyphs" text-decoration="underline" textLength="104" x="300" y="263.2104">MAX_ATTEMPS: int</text><rect fill="none" height="6" style="stroke: #C82930; stroke-width: 1.0;" width="6" x="288" y="269.8047"/><text fill="#000000" font-family="sans-serif" font-size="11" lengthAdjust="spacingAndGlyphs" textLength="72" x="300" y="276.0151">attempts: int</text><line style="stroke: #A80036; stroke-width: 1.5;" x1="281" x2="457" y1="282.6094" y2="282.6094"/><polygon fill="#4177AF" points="291,289.6094,287,295.6094,295,295.6094" style="stroke: #1963A0; stroke-width: 1.0;"/><text fill="#000000" font-family="sans-serif" font-size="11" lengthAdjust="spacingAndGlyphs" textLength="41" x="300" y="296.8198">Board()</text><ellipse cx="291" cy="306.4141" fill="#84BE84" rx="3" ry="3" style="stroke: #038048; stroke-width: 1.0;"/><text fill="#000000" font-family="sans-serif" font-size="11" lengthAdjust="spacingAndGlyphs" textLength="46" x="300" y="309.6245">writeln()</text><ellipse cx="291" cy="319.2188" fill="#84BE84" rx="3" ry="3" style="stroke: #038048; stroke-width: 1.0;"/><text fill="#000000" font-family="sans-serif" font-size="11" lengthAdjust="spacingAndGlyphs" textLength="152" x="300" y="322.4292">add(ProposedCombination)</text><ellipse cx="291" cy="332.0234" fill="#84BE84" rx="3" ry="3" style="stroke: #038048; stroke-width: 1.0;"/><text fill="#000000" font-family="sans-serif" font-size="11" lengthAdjust="spacingAndGlyphs" textLength="117" x="300" y="335.2339">isFinished(): boolean</text><ellipse cx="291" cy="344.8281" fill="#84BE84" rx="3" ry="3" style="stroke: #038048; stroke-width: 1.0;"/><text fill="#000000" font-family="sans-serif" font-size="11" lengthAdjust="spacingAndGlyphs" textLength="110" x="300" y="348.0386">isWinner(): boolean</text><rect fill="#F24D5C" height="6" style="stroke: #C82930; stroke-width: 1.0;" width="6" x="288" y="354.6328"/><text fill="#000000" font-family="sans-serif" font-size="11" lengthAdjust="spacingAndGlyphs" textLength="108" x="300" y="360.8433">isLooser(): boolean</text><!--MD5=[28491d17d5ee38c9c116625a5ffc259a]
class Combination--><rect codeLine="21" fill="#FEFECE" filter="url(#f6e8v1r1iebjh)" height="73.6094" id="Combination" style="stroke: #A80036; stroke-width: 1.5;" width="132" x="629" y="255"/><ellipse cx="654.8" cy="271" fill="#A9DCDF" rx="11" ry="11" style="stroke: #A80036; stroke-width: 1.0;"/><path d="M656.8781,272.8125 L657.2688,273.7969 L656.8781,273.7969 C656.425,273.7969 656.3156,273.8125 656.1594,273.9219 C655.9094,274.0781 655.7531,274.3594 655.7531,274.6563 C655.7531,274.9219 655.8938,275.1719 656.1125,275.3281 C656.2531,275.4531 656.4563,275.5 656.8781,275.5 L659.2375,275.5 C659.5969,275.5 659.8156,275.4688 659.9563,275.375 C660.2063,275.2344 660.3625,274.9375 660.3625,274.6563 C660.3625,274.375 660.2219,274.125 660.0031,273.9688 C659.8313,273.8281 659.675,273.7969 659.2063,273.7969 L655.8156,265.5938 L652.1438,265.5938 C651.6906,265.5938 651.5656,265.6094 651.4094,265.7031 C651.1594,265.875 651.0031,266.1563 651.0031,266.4375 C651.0031,266.7188 651.1438,266.9688 651.3625,267.1406 C651.5344,267.25 651.7063,267.2813 652.1438,267.2813 L653.2219,267.2813 L650.5813,273.7969 C650.1594,273.7969 650.0031,273.8125 649.8469,273.9219 C649.5969,274.0781 649.4406,274.3594 649.4406,274.6563 C649.4406,275.2188 649.8156,275.5 650.5656,275.5 L652.8313,275.5 C653.1906,275.5 653.4094,275.4688 653.5344,275.375 C653.8,275.2344 653.9406,274.9375 653.9406,274.6563 C653.9406,274.375 653.8156,274.125 653.5969,273.9531 C653.425,273.8281 653.2844,273.7969 652.8313,273.7969 L652.4406,273.7969 L652.8313,272.8125 L656.8781,272.8125 Z M656.175,271.1094 L653.5031,271.1094 L654.8469,267.8438 L656.175,271.1094 Z "/><text fill="#000000" font-family="sans-serif" font-size="12" font-style="italic" lengthAdjust="spacingAndGlyphs" textLength="76" x="671.2" y="275.1543">Combination</text><line style="stroke: #A80036; stroke-width: 1.5;" x1="630" x2="760" y1="287" y2="287"/><polygon fill="none" points="640,294,636,300,644,300" style="stroke: #1963A0; stroke-width: 1.0;"/><text fill="#000000" font-family="sans-serif" font-size="11" lengthAdjust="spacingAndGlyphs" textLength="106" x="649" y="301.2104">colors: List&lt;Color&gt;</text><line style="stroke: #A80036; stroke-width: 1.5;" x1="630" x2="760" y1="307.8047" y2="307.8047"/><polygon fill="#4177AF" points="640,314.8047,636,320.8047,644,320.8047" style="stroke: #1963A0; stroke-width: 1.0;"/><text fill="#000000" font-family="sans-serif" font-size="11" lengthAdjust="spacingAndGlyphs" textLength="83" x="649" y="322.0151">Combination ()</text><!--MD5=[e370ee5c0c15ce04544d5f5a73174d72]
class SecretCombination--><rect codeLine="26" fill="#FEFECE" filter="url(#f6e8v1r1iebjh)" height="86.4141" id="SecretCombination" style="stroke: #A80036; stroke-width: 1.5;" width="253" x="496.5" y="534"/><ellipse cx="561.75" cy="550" fill="#ADD1B2" rx="11" ry="11" style="stroke: #A80036; stroke-width: 1.0;"/><path d="M564.0938,545.6719 C563.1563,545.2344 562.5625,545.0938 561.6875,545.0938 C559.0625,545.0938 557.0625,547.1719 557.0625,549.8906 L557.0625,551.0156 C557.0625,553.5938 559.1719,555.4844 562.0625,555.4844 C563.2813,555.4844 564.4375,555.1875 565.1875,554.6406 C565.7656,554.2344 566.0938,553.7813 566.0938,553.3906 C566.0938,552.9375 565.7031,552.5469 565.2344,552.5469 C565.0156,552.5469 564.8125,552.625 564.625,552.8125 C564.1719,553.2969 564.1719,553.2969 563.9844,553.3906 C563.5625,553.6563 562.875,553.7813 562.1094,553.7813 C560.0625,553.7813 558.7656,552.6875 558.7656,550.9844 L558.7656,549.8906 C558.7656,548.1094 560.0156,546.7969 561.75,546.7969 C562.3281,546.7969 562.9375,546.9531 563.4063,547.2031 C563.8906,547.4844 564.0625,547.7031 564.1563,548.1094 C564.2188,548.5156 564.25,548.6406 564.3906,548.7656 C564.5313,548.9063 564.7656,549.0156 564.9844,549.0156 C565.25,549.0156 565.5156,548.875 565.6875,548.6563 C565.7969,548.5 565.8281,548.3125 565.8281,547.8906 L565.8281,546.4688 C565.8281,546.0313 565.8125,545.9063 565.7188,545.75 C565.5625,545.4844 565.2813,545.3438 564.9844,545.3438 C564.6875,545.3438 564.4844,545.4375 564.2656,545.75 L564.0938,545.6719 Z "/><text fill="#000000" font-family="sans-serif" font-size="12" lengthAdjust="spacingAndGlyphs" textLength="114" x="582.25" y="554.1543">SecretCombination</text><line style="stroke: #A80036; stroke-width: 1.5;" x1="497.5" x2="748.5" y1="566" y2="566"/><line style="stroke: #A80036; stroke-width: 1.5;" x1="497.5" x2="748.5" y1="574" y2="574"/><polygon fill="#4177AF" points="507.5,581,503.5,587,511.5,587" style="stroke: #1963A0; stroke-width: 1.0;"/><text fill="#000000" font-family="sans-serif" font-size="11" lengthAdjust="spacingAndGlyphs" textLength="117" x="516.5" y="588.2104">SecretCombination()</text><polygon fill="#4177AF" points="507.5,593.8047,503.5,599.8047,511.5,599.8047" style="stroke: #1963A0; stroke-width: 1.0;"/><text fill="#000000" font-family="sans-serif" font-size="11" lengthAdjust="spacingAndGlyphs" textLength="227" x="516.5" y="601.0151">getResult(ProposedCombination): Result</text><polygon fill="#4177AF" points="507.5,606.6094,503.5,612.6094,511.5,612.6094" style="stroke: #1963A0; stroke-width: 1.0;"/><text fill="#000000" font-family="sans-serif" font-size="11" lengthAdjust="spacingAndGlyphs" textLength="46" x="516.5" y="613.8198">writeln()</text><!--MD5=[cf489b19c51ee25e76ddca093e62e620]
class ProposedCombination--><rect codeLine="32" fill="#FEFECE" filter="url(#f6e8v1r1iebjh)" height="112.0234" id="ProposedCombination" style="stroke: #A80036; stroke-width: 1.5;" width="184" x="277" y="521"/><ellipse cx="301" cy="537" fill="#ADD1B2" rx="11" ry="11" style="stroke: #A80036; stroke-width: 1.0;"/><path d="M303.3438,532.6719 C302.4063,532.2344 301.8125,532.0938 300.9375,532.0938 C298.3125,532.0938 296.3125,534.1719 296.3125,536.8906 L296.3125,538.0156 C296.3125,540.5938 298.4219,542.4844 301.3125,542.4844 C302.5313,542.4844 303.6875,542.1875 304.4375,541.6406 C305.0156,541.2344 305.3438,540.7813 305.3438,540.3906 C305.3438,539.9375 304.9531,539.5469 304.4844,539.5469 C304.2656,539.5469 304.0625,539.625 303.875,539.8125 C303.4219,540.2969 303.4219,540.2969 303.2344,540.3906 C302.8125,540.6563 302.125,540.7813 301.3594,540.7813 C299.3125,540.7813 298.0156,539.6875 298.0156,537.9844 L298.0156,536.8906 C298.0156,535.1094 299.2656,533.7969 301,533.7969 C301.5781,533.7969 302.1875,533.9531 302.6563,534.2031 C303.1406,534.4844 303.3125,534.7031 303.4063,535.1094 C303.4688,535.5156 303.5,535.6406 303.6406,535.7656 C303.7813,535.9063 304.0156,536.0156 304.2344,536.0156 C304.5,536.0156 304.7656,535.875 304.9375,535.6563 C305.0469,535.5 305.0781,535.3125 305.0781,534.8906 L305.0781,533.4688 C305.0781,533.0313 305.0625,532.9063 304.9688,532.75 C304.8125,532.4844 304.5313,532.3438 304.2344,532.3438 C303.9375,532.3438 303.7344,532.4375 303.5156,532.75 L303.3438,532.6719 Z "/><text fill="#000000" font-family="sans-serif" font-size="12" lengthAdjust="spacingAndGlyphs" textLength="132" x="317" y="541.1543">ProposedCombination</text><line style="stroke: #A80036; stroke-width: 1.5;" x1="278" x2="460" y1="553" y2="553"/><line style="stroke: #A80036; stroke-width: 1.5;" x1="278" x2="460" y1="561" y2="561"/><polygon fill="#4177AF" points="288,568,284,574,292,574" style="stroke: #1963A0; stroke-width: 1.0;"/><text fill="#000000" font-family="sans-serif" font-size="11" lengthAdjust="spacingAndGlyphs" textLength="36" x="297" y="575.2104">write()</text><polygon fill="#4177AF" points="288,580.8047,284,586.8047,292,586.8047" style="stroke: #1963A0; stroke-width: 1.0;"/><text fill="#000000" font-family="sans-serif" font-size="11" lengthAdjust="spacingAndGlyphs" textLength="34" x="297" y="588.0151">read()</text><rect fill="#F24D5C" height="6" style="stroke: #C82930; stroke-width: 1.0;" width="6" x="285" y="594.6094"/><text fill="#000000" font-family="sans-serif" font-size="11" lengthAdjust="spacingAndGlyphs" textLength="133" x="297" y="600.8198">checkError(String): Error</text><polygon fill="#4177AF" points="288,606.4141,284,612.4141,292,612.4141" style="stroke: #1963A0; stroke-width: 1.0;"/><text fill="#000000" font-family="sans-serif" font-size="11" lengthAdjust="spacingAndGlyphs" textLength="158" x="297" y="613.6245">contains(Color, int): boolean</text><polygon fill="#4177AF" points="288,619.2188,284,625.2188,292,625.2188" style="stroke: #1963A0; stroke-width: 1.0;"/><text fill="#000000" font-family="sans-serif" font-size="11" lengthAdjust="spacingAndGlyphs" textLength="137" x="297" y="626.4292">contains(Color): boolean</text><!--MD5=[2741598bdf59a7d7e0d5c97658fd3022]
class Result--><rect codeLine="40" fill="#FEFECE" filter="url(#f6e8v1r1iebjh)" height="124.8281" id="Result" style="stroke: #A80036; stroke-width: 1.5;" width="136" x="106" y="514.5"/><ellipse cx="151.75" cy="530.5" fill="#ADD1B2" rx="11" ry="11" style="stroke: #A80036; stroke-width: 1.0;"/><path d="M154.0938,526.1719 C153.1563,525.7344 152.5625,525.5938 151.6875,525.5938 C149.0625,525.5938 147.0625,527.6719 147.0625,530.3906 L147.0625,531.5156 C147.0625,534.0938 149.1719,535.9844 152.0625,535.9844 C153.2813,535.9844 154.4375,535.6875 155.1875,535.1406 C155.7656,534.7344 156.0938,534.2813 156.0938,533.8906 C156.0938,533.4375 155.7031,533.0469 155.2344,533.0469 C155.0156,533.0469 154.8125,533.125 154.625,533.3125 C154.1719,533.7969 154.1719,533.7969 153.9844,533.8906 C153.5625,534.1563 152.875,534.2813 152.1094,534.2813 C150.0625,534.2813 148.7656,533.1875 148.7656,531.4844 L148.7656,530.3906 C148.7656,528.6094 150.0156,527.2969 151.75,527.2969 C152.3281,527.2969 152.9375,527.4531 153.4063,527.7031 C153.8906,527.9844 154.0625,528.2031 154.1563,528.6094 C154.2188,529.0156 154.25,529.1406 154.3906,529.2656 C154.5313,529.4063 154.7656,529.5156 154.9844,529.5156 C155.25,529.5156 155.5156,529.375 155.6875,529.1563 C155.7969,529 155.8281,528.8125 155.8281,528.3906 L155.8281,526.9688 C155.8281,526.5313 155.8125,526.4063 155.7188,526.25 C155.5625,525.9844 155.2813,525.8438 154.9844,525.8438 C154.6875,525.8438 154.4844,525.9375 154.2656,526.25 L154.0938,526.1719 Z "/><text fill="#000000" font-family="sans-serif" font-size="12" lengthAdjust="spacingAndGlyphs" textLength="36" x="172.25" y="534.6543">Result</text><line style="stroke: #A80036; stroke-width: 1.5;" x1="107" x2="241" y1="546.5" y2="546.5"/><ellipse cx="117" cy="557.5" fill="none" rx="3" ry="3" style="stroke: #038048; stroke-width: 1.0;"/><text fill="#000000" font-family="sans-serif" font-size="11" lengthAdjust="spacingAndGlyphs" text-decoration="underline" textLength="59" x="126" y="560.7104">WIDTH: int</text><rect fill="none" height="6" style="stroke: #C82930; stroke-width: 1.0;" width="6" x="114" y="567.3047"/><text fill="#000000" font-family="sans-serif" font-size="11" lengthAdjust="spacingAndGlyphs" textLength="56" x="126" y="573.5151">blacks: int</text><rect fill="none" height="6" style="stroke: #C82930; stroke-width: 1.0;" width="6" x="114" y="580.1094"/><text fill="#000000" font-family="sans-serif" font-size="11" lengthAdjust="spacingAndGlyphs" textLength="58" x="126" y="586.3198">whites: int</text><line style="stroke: #A80036; stroke-width: 1.5;" x1="107" x2="241" y1="592.9141" y2="592.9141"/><polygon fill="#4177AF" points="117,599.9141,113,605.9141,121,605.9141" style="stroke: #1963A0; stroke-width: 1.0;"/><text fill="#000000" font-family="sans-serif" font-size="11" lengthAdjust="spacingAndGlyphs" textLength="78" x="126" y="607.1245">Result(int, int)</text><polygon fill="#4177AF" points="117,612.7188,113,618.7188,121,618.7188" style="stroke: #1963A0; stroke-width: 1.0;"/><text fill="#000000" font-family="sans-serif" font-size="11" lengthAdjust="spacingAndGlyphs" textLength="110" x="126" y="619.9292">isWinner(): boolean</text><polygon fill="#4177AF" points="117,625.5234,113,631.5234,121,631.5234" style="stroke: #1963A0; stroke-width: 1.0;"/><text fill="#000000" font-family="sans-serif" font-size="11" lengthAdjust="spacingAndGlyphs" textLength="46" x="126" y="632.7339">writeln()</text><!--MD5=[18eee71c88ab61f27581b8cbdd3ef5ee]
class Color--><rect codeLine="49" fill="#FEFECE" filter="url(#f6e8v1r1iebjh)" height="265.6797" id="Color" style="stroke: #A80036; stroke-width: 1.5;" width="161" x="784.5" y="444"/><ellipse cx="844.75" cy="460" fill="#EB937F" rx="11" ry="11" style="stroke: #A80036; stroke-width: 1.0;"/><path d="M843.5469,460.875 L845,460.875 L845,460.9844 C845,461.3906 845.0313,461.5469 845.1094,461.7031 C845.2656,461.9531 845.5469,462.1094 845.8438,462.1094 C846.0938,462.1094 846.3594,461.9688 846.5156,461.75 C846.6406,461.5938 846.6719,461.4375 846.6719,460.9844 L846.6719,459.0625 C846.6719,458.9063 846.6719,458.8594 846.6563,458.7031 C846.5938,458.2344 846.2813,457.9219 845.8281,457.9219 C845.5781,457.9219 845.3125,458.0625 845.1406,458.2813 C845.0313,458.4531 845,458.6094 845,459.0625 L845,459.1875 L843.5469,459.1875 L843.5469,456.7813 L847.5313,456.7813 L847.5313,457.6406 C847.5313,458.0469 847.5625,458.2188 847.6406,458.375 C847.8125,458.625 848.0938,458.7813 848.375,458.7813 C848.6406,458.7813 848.9063,458.6406 849.0781,458.4219 C849.1875,458.25 849.2188,458.1094 849.2188,457.6406 L849.2188,455.0938 L841.5938,455.0938 C841.1563,455.0938 841.0313,455.1094 840.875,455.2031 C840.625,455.3594 840.4688,455.6563 840.4688,455.9375 C840.4688,456.2188 840.6094,456.4688 840.8281,456.6406 C840.9844,456.75 841.1719,456.7813 841.5938,456.7813 L841.8438,456.7813 L841.8438,463.2969 L841.5938,463.2969 C841.1875,463.2969 841.0313,463.3125 840.875,463.4219 C840.625,463.5938 840.4688,463.8594 840.4688,464.1563 C840.4688,464.4219 840.6094,464.6719 840.8281,464.8281 C840.9688,464.9531 841.2031,465 841.5938,465 L849.5938,465 L849.5938,462.4219 C849.5938,461.9844 849.5625,461.8438 849.4844,461.6875 C849.3125,461.4375 849.0313,461.2813 848.75,461.2813 C848.4844,461.2813 848.2188,461.3906 848.0469,461.6406 C847.9375,461.7969 847.9063,461.9375 847.9063,462.4219 L847.9063,463.2969 L843.5469,463.2969 L843.5469,460.875 Z "/><text fill="#000000" font-family="sans-serif" font-size="12" lengthAdjust="spacingAndGlyphs" textLength="32" x="865.25" y="464.1543">Color</text><line style="stroke: #A80036; stroke-width: 1.5;" x1="785.5" x2="944.5" y1="476" y2="476"/><ellipse cx="795.5" cy="487" fill="none" rx="3" ry="3" style="stroke: #038048; stroke-width: 1.0;"/><text fill="#000000" font-family="sans-serif" font-size="11" lengthAdjust="spacingAndGlyphs" textLength="23" x="804.5" y="490.2104">RED</text><ellipse cx="795.5" cy="499.8047" fill="none" rx="3" ry="3" style="stroke: #038048; stroke-width: 1.0;"/><text fill="#000000" font-family="sans-serif" font-size="11" lengthAdjust="spacingAndGlyphs" textLength="29" x="804.5" y="503.0151">BLUE</text><ellipse cx="795.5" cy="512.6094" fill="none" rx="3" ry="3" style="stroke: #038048; stroke-width: 1.0;"/><text fill="#000000" font-family="sans-serif" font-size="11" lengthAdjust="spacingAndGlyphs" textLength="46" x="804.5" y="515.8198">YELLOW</text><ellipse cx="795.5" cy="525.4141" fill="none" rx="3" ry="3" style="stroke: #038048; stroke-width: 1.0;"/><text fill="#000000" font-family="sans-serif" font-size="11" lengthAdjust="spacingAndGlyphs" textLength="38" x="804.5" y="528.6245">GREEN</text><ellipse cx="795.5" cy="538.2188" fill="none" rx="3" ry="3" style="stroke: #038048; stroke-width: 1.0;"/><text fill="#000000" font-family="sans-serif" font-size="11" lengthAdjust="spacingAndGlyphs" textLength="48" x="804.5" y="541.4292">ORANGE</text><ellipse cx="795.5" cy="551.0234" fill="none" rx="3" ry="3" style="stroke: #038048; stroke-width: 1.0;"/><text fill="#000000" font-family="sans-serif" font-size="11" lengthAdjust="spacingAndGlyphs" textLength="40" x="804.5" y="554.2339">PURPLE</text><ellipse cx="795.5" cy="563.8281" fill="none" rx="3" ry="3" style="stroke: #038048; stroke-width: 1.0;"/><text fill="#000000" font-family="sans-serif" font-size="11" lengthAdjust="spacingAndGlyphs" textLength="73" x="804.5" y="567.0386">NULL_COLOR</text><rect fill="none" height="6" style="stroke: #C82930; stroke-width: 1.0;" width="6" x="792.5" y="573.6328"/><text fill="#000000" font-family="sans-serif" font-size="11" lengthAdjust="spacingAndGlyphs" textLength="70" x="804.5" y="579.8433">initial: String</text><rect fill="none" height="6" style="stroke: #C82930; stroke-width: 1.0;" width="6" x="792.5" y="586.4375"/><text fill="#000000" font-family="sans-serif" font-size="11" lengthAdjust="spacingAndGlyphs" text-decoration="underline" textLength="121" x="804.5" y="592.6479">RESET_COLOR: String</text><line style="stroke: #A80036; stroke-width: 1.5;" x1="785.5" x2="944.5" y1="599.2422" y2="599.2422"/><rect fill="#F24D5C" height="6" style="stroke: #C82930; stroke-width: 1.0;" width="6" x="792.5" y="607.2422"/><text fill="#000000" font-family="sans-serif" font-size="11" lengthAdjust="spacingAndGlyphs" textLength="37" x="804.5" y="613.4526">Color()</text><rect fill="#F24D5C" height="6" style="stroke: #C82930; stroke-width: 1.0;" width="6" x="792.5" y="620.0469"/><text fill="#000000" font-family="sans-serif" font-size="11" lengthAdjust="spacingAndGlyphs" textLength="61" x="804.5" y="626.2573">Color(char)</text><polygon fill="#4177AF" points="795.5,631.8516,791.5,637.8516,799.5,637.8516" style="stroke: #1963A0; stroke-width: 1.0;"/><text fill="#000000" font-family="sans-serif" font-size="11" lengthAdjust="spacingAndGlyphs" text-decoration="underline" textLength="103" x="804.5" y="639.062">getInitials(): String</text><polygon fill="#4177AF" points="795.5,644.6563,791.5,650.6563,799.5,650.6563" style="stroke: #1963A0; stroke-width: 1.0;"/><text fill="#000000" font-family="sans-serif" font-size="11" lengthAdjust="spacingAndGlyphs" text-decoration="underline" textLength="135" x="804.5" y="651.8667">getInstance(char): Color</text><polygon fill="#4177AF" points="795.5,657.4609,791.5,663.4609,799.5,663.4609" style="stroke: #1963A0; stroke-width: 1.0;"/><text fill="#000000" font-family="sans-serif" font-size="11" lengthAdjust="spacingAndGlyphs" text-decoration="underline" textLength="65" x="804.5" y="664.6714">length(): int</text><polygon fill="#4177AF" points="795.5,670.2656,791.5,676.2656,799.5,676.2656" style="stroke: #1963A0; stroke-width: 1.0;"/><text fill="#000000" font-family="sans-serif" font-size="11" lengthAdjust="spacingAndGlyphs" text-decoration="underline" textLength="77" x="804.5" y="677.4761">get(int): Color</text><polygon fill="#4177AF" points="795.5,683.0703,791.5,689.0703,799.5,689.0703" style="stroke: #1963A0; stroke-width: 1.0;"/><text fill="#000000" font-family="sans-serif" font-size="11" lengthAdjust="spacingAndGlyphs" textLength="36" x="804.5" y="690.2808">write()</text><polygon fill="#4177AF" points="795.5,695.875,791.5,701.875,799.5,701.875" style="stroke: #1963A0; stroke-width: 1.0;"/><text fill="#000000" font-family="sans-serif" font-size="11" lengthAdjust="spacingAndGlyphs" textLength="91" x="804.5" y="703.0854">isNull(): boolean</text><!--MD5=[b8cfd8c4119a3b0a7a46bfc5fc780f85]
class Error--><rect codeLine="69" fill="#FEFECE" filter="url(#f6e8v1r1iebjh)" height="163.2422" id="Error" style="stroke: #A80036; stroke-width: 1.5;" width="152" x="327" y="803"/><ellipse cx="383.75" cy="819" fill="#EB937F" rx="11" ry="11" style="stroke: #A80036; stroke-width: 1.0;"/><path d="M382.5469,819.875 L384,819.875 L384,819.9844 C384,820.3906 384.0313,820.5469 384.1094,820.7031 C384.2656,820.9531 384.5469,821.1094 384.8438,821.1094 C385.0938,821.1094 385.3594,820.9688 385.5156,820.75 C385.6406,820.5938 385.6719,820.4375 385.6719,819.9844 L385.6719,818.0625 C385.6719,817.9063 385.6719,817.8594 385.6563,817.7031 C385.5938,817.2344 385.2813,816.9219 384.8281,816.9219 C384.5781,816.9219 384.3125,817.0625 384.1406,817.2813 C384.0313,817.4531 384,817.6094 384,818.0625 L384,818.1875 L382.5469,818.1875 L382.5469,815.7813 L386.5313,815.7813 L386.5313,816.6406 C386.5313,817.0469 386.5625,817.2188 386.6406,817.375 C386.8125,817.625 387.0938,817.7813 387.375,817.7813 C387.6406,817.7813 387.9063,817.6406 388.0781,817.4219 C388.1875,817.25 388.2188,817.1094 388.2188,816.6406 L388.2188,814.0938 L380.5938,814.0938 C380.1563,814.0938 380.0313,814.1094 379.875,814.2031 C379.625,814.3594 379.4688,814.6563 379.4688,814.9375 C379.4688,815.2188 379.6094,815.4688 379.8281,815.6406 C379.9844,815.75 380.1719,815.7813 380.5938,815.7813 L380.8438,815.7813 L380.8438,822.2969 L380.5938,822.2969 C380.1875,822.2969 380.0313,822.3125 379.875,822.4219 C379.625,822.5938 379.4688,822.8594 379.4688,823.1563 C379.4688,823.4219 379.6094,823.6719 379.8281,823.8281 C379.9688,823.9531 380.2031,824 380.5938,824 L388.5938,824 L388.5938,821.4219 C388.5938,820.9844 388.5625,820.8438 388.4844,820.6875 C388.3125,820.4375 388.0313,820.2813 387.75,820.2813 C387.4844,820.2813 387.2188,820.3906 387.0469,820.6406 C386.9375,820.7969 386.9063,820.9375 386.9063,821.4219 L386.9063,822.2969 L382.5469,822.2969 L382.5469,819.875 Z "/><text fill="#000000" font-family="sans-serif" font-size="12" lengthAdjust="spacingAndGlyphs" textLength="30" x="404.25" y="823.1543">Error</text><line style="stroke: #A80036; stroke-width: 1.5;" x1="328" x2="478" y1="835" y2="835"/><ellipse cx="338" cy="846" fill="none" rx="3" ry="3" style="stroke: #038048; stroke-width: 1.0;"/><text fill="#000000" font-family="sans-serif" font-size="11" lengthAdjust="spacingAndGlyphs" textLength="71" x="347" y="849.2104">DUPLICATED</text><ellipse cx="338" cy="858.8047" fill="none" rx="3" ry="3" style="stroke: #038048; stroke-width: 1.0;"/><text fill="#000000" font-family="sans-serif" font-size="11" lengthAdjust="spacingAndGlyphs" textLength="126" x="347" y="862.0151">WRONG_CHARACTERS</text><ellipse cx="338" cy="871.6094" fill="none" rx="3" ry="3" style="stroke: #038048; stroke-width: 1.0;"/><text fill="#000000" font-family="sans-serif" font-size="11" lengthAdjust="spacingAndGlyphs" textLength="95" x="347" y="874.8198">WRONG_LENGTH</text><ellipse cx="338" cy="884.4141" fill="none" rx="3" ry="3" style="stroke: #038048; stroke-width: 1.0;"/><text fill="#000000" font-family="sans-serif" font-size="11" lengthAdjust="spacingAndGlyphs" textLength="71" x="347" y="887.6245">NULL_ERROR</text><rect fill="none" height="6" style="stroke: #C82930; stroke-width: 1.0;" width="6" x="335" y="894.2188"/><text fill="#000000" font-family="sans-serif" font-size="11" lengthAdjust="spacingAndGlyphs" textLength="93" x="347" y="900.4292">message: String</text><line style="stroke: #A80036; stroke-width: 1.5;" x1="328" x2="478" y1="907.0234" y2="907.0234"/><rect fill="#F24D5C" height="6" style="stroke: #C82930; stroke-width: 1.0;" width="6" x="335" y="915.0234"/><text fill="#000000" font-family="sans-serif" font-size="11" lengthAdjust="spacingAndGlyphs" textLength="34" x="347" y="921.2339">Error()</text><rect fill="#F24D5C" height="6" style="stroke: #C82930; stroke-width: 1.0;" width="6" x="335" y="927.8281"/><text fill="#000000" font-family="sans-serif" font-size="11" lengthAdjust="spacingAndGlyphs" textLength="67" x="347" y="934.0386">Error(String)</text><polygon fill="#4177AF" points="338,939.6328,334,945.6328,342,945.6328" style="stroke: #1963A0; stroke-width: 1.0;"/><text fill="#000000" font-family="sans-serif" font-size="11" lengthAdjust="spacingAndGlyphs" textLength="46" x="347" y="946.8433">writeln()</text><ellipse cx="338" cy="956.4375" fill="#84BE84" rx="3" ry="3" style="stroke: #038048; stroke-width: 1.0;"/><text fill="#000000" font-family="sans-serif" font-size="11" lengthAdjust="spacingAndGlyphs" textLength="91" x="347" y="959.6479">isNull(): boolean</text><!--MD5=[bea5b0d46523efab5ea1c1d339f396f0]
class Message--><rect codeLine="81" fill="#FEFECE" filter="url(#f6e8v1r1iebjh)" height="227.2656" id="Message" style="stroke: #A80036; stroke-width: 1.5;" width="173" x="87.5" y="771"/><ellipse cx="142.25" cy="787" fill="#EB937F" rx="11" ry="11" style="stroke: #A80036; stroke-width: 1.0;"/><path d="M141.0469,787.875 L142.5,787.875 L142.5,787.9844 C142.5,788.3906 142.5313,788.5469 142.6094,788.7031 C142.7656,788.9531 143.0469,789.1094 143.3438,789.1094 C143.5938,789.1094 143.8594,788.9688 144.0156,788.75 C144.1406,788.5938 144.1719,788.4375 144.1719,787.9844 L144.1719,786.0625 C144.1719,785.9063 144.1719,785.8594 144.1563,785.7031 C144.0938,785.2344 143.7813,784.9219 143.3281,784.9219 C143.0781,784.9219 142.8125,785.0625 142.6406,785.2813 C142.5313,785.4531 142.5,785.6094 142.5,786.0625 L142.5,786.1875 L141.0469,786.1875 L141.0469,783.7813 L145.0313,783.7813 L145.0313,784.6406 C145.0313,785.0469 145.0625,785.2188 145.1406,785.375 C145.3125,785.625 145.5938,785.7813 145.875,785.7813 C146.1406,785.7813 146.4063,785.6406 146.5781,785.4219 C146.6875,785.25 146.7188,785.1094 146.7188,784.6406 L146.7188,782.0938 L139.0938,782.0938 C138.6563,782.0938 138.5313,782.1094 138.375,782.2031 C138.125,782.3594 137.9688,782.6563 137.9688,782.9375 C137.9688,783.2188 138.1094,783.4688 138.3281,783.6406 C138.4844,783.75 138.6719,783.7813 139.0938,783.7813 L139.3438,783.7813 L139.3438,790.2969 L139.0938,790.2969 C138.6875,790.2969 138.5313,790.3125 138.375,790.4219 C138.125,790.5938 137.9688,790.8594 137.9688,791.1563 C137.9688,791.4219 138.1094,791.6719 138.3281,791.8281 C138.4688,791.9531 138.7031,792 139.0938,792 L147.0938,792 L147.0938,789.4219 C147.0938,788.9844 147.0625,788.8438 146.9844,788.6875 C146.8125,788.4375 146.5313,788.2813 146.25,788.2813 C145.9844,788.2813 145.7188,788.3906 145.5469,788.6406 C145.4375,788.7969 145.4063,788.9375 145.4063,789.4219 L145.4063,790.2969 L141.0469,790.2969 L141.0469,787.875 Z "/><text fill="#000000" font-family="sans-serif" font-size="12" lengthAdjust="spacingAndGlyphs" textLength="55" x="162.75" y="791.1543">Message</text><line style="stroke: #A80036; stroke-width: 1.5;" x1="88.5" x2="259.5" y1="803" y2="803"/><ellipse cx="98.5" cy="814" fill="none" rx="3" ry="3" style="stroke: #038048; stroke-width: 1.0;"/><text fill="#000000" font-family="sans-serif" font-size="11" lengthAdjust="spacingAndGlyphs" textLength="59" x="107.5" y="817.2104">ATTEMPTS</text><ellipse cx="98.5" cy="826.8047" fill="none" rx="3" ry="3" style="stroke: #038048; stroke-width: 1.0;"/><text fill="#000000" font-family="sans-serif" font-size="11" lengthAdjust="spacingAndGlyphs" textLength="130" x="107.5" y="830.0151">SECRET_COMBINATION</text><ellipse cx="98.5" cy="839.6094" fill="none" rx="3" ry="3" style="stroke: #038048; stroke-width: 1.0;"/><text fill="#000000" font-family="sans-serif" font-size="11" lengthAdjust="spacingAndGlyphs" textLength="46" x="107.5" y="842.8198">RESUME</text><ellipse cx="98.5" cy="852.4141" fill="none" rx="3" ry="3" style="stroke: #038048; stroke-width: 1.0;"/><text fill="#000000" font-family="sans-serif" font-size="11" lengthAdjust="spacingAndGlyphs" textLength="43" x="107.5" y="855.6245">RESULT</text><ellipse cx="98.5" cy="865.2188" fill="none" rx="3" ry="3" style="stroke: #038048; stroke-width: 1.0;"/><text fill="#000000" font-family="sans-serif" font-size="11" lengthAdjust="spacingAndGlyphs" textLength="147" x="107.5" y="868.4292">PROPOSED_COMBINATION</text><ellipse cx="98.5" cy="878.0234" fill="none" rx="3" ry="3" style="stroke: #038048; stroke-width: 1.0;"/><text fill="#000000" font-family="sans-serif" font-size="11" lengthAdjust="spacingAndGlyphs" textLength="30" x="107.5" y="881.2339">TITLE</text><ellipse cx="98.5" cy="890.8281" fill="none" rx="3" ry="3" style="stroke: #038048; stroke-width: 1.0;"/><text fill="#000000" font-family="sans-serif" font-size="11" lengthAdjust="spacingAndGlyphs" textLength="44" x="107.5" y="894.0386">WINNER</text><ellipse cx="98.5" cy="903.6328" fill="none" rx="3" ry="3" style="stroke: #038048; stroke-width: 1.0;"/><text fill="#000000" font-family="sans-serif" font-size="11" lengthAdjust="spacingAndGlyphs" textLength="46" x="107.5" y="906.8433">LOOSER</text><rect fill="none" height="6" style="stroke: #C82930; stroke-width: 1.0;" width="6" x="95.5" y="913.4375"/><text fill="#000000" font-family="sans-serif" font-size="11" lengthAdjust="spacingAndGlyphs" textLength="93" x="107.5" y="919.6479">message: String</text><line style="stroke: #A80036; stroke-width: 1.5;" x1="88.5" x2="259.5" y1="926.2422" y2="926.2422"/><rect fill="#F24D5C" height="6" style="stroke: #C82930; stroke-width: 1.0;" width="6" x="95.5" y="934.2422"/><text fill="#000000" font-family="sans-serif" font-size="11" lengthAdjust="spacingAndGlyphs" textLength="92" x="107.5" y="940.4526">Message(String)</text><polygon fill="#4177AF" points="98.5,946.0469,94.5,952.0469,102.5,952.0469" style="stroke: #1963A0; stroke-width: 1.0;"/><text fill="#000000" font-family="sans-serif" font-size="11" lengthAdjust="spacingAndGlyphs" textLength="36" x="107.5" y="953.2573">write()</text><polygon fill="#4177AF" points="98.5,958.8516,94.5,964.8516,102.5,964.8516" style="stroke: #1963A0; stroke-width: 1.0;"/><text fill="#000000" font-family="sans-serif" font-size="11" lengthAdjust="spacingAndGlyphs" textLength="46" x="107.5" y="966.062">writeln()</text><polygon fill="#4177AF" points="98.5,971.6563,94.5,977.6563,102.5,977.6563" style="stroke: #1963A0; stroke-width: 1.0;"/><text fill="#000000" font-family="sans-serif" font-size="11" lengthAdjust="spacingAndGlyphs" textLength="60" x="107.5" y="978.8667">writeln(int)</text><polygon fill="#4177AF" points="98.5,984.4609,94.5,990.4609,102.5,990.4609" style="stroke: #1963A0; stroke-width: 1.0;"/><text fill="#000000" font-family="sans-serif" font-size="11" lengthAdjust="spacingAndGlyphs" textLength="81" x="107.5" y="991.6714">writeln(int, int)</text><!--MD5=[315b61b427ec618d6861d47eee00cca3]
class Console--><rect codeLine="121" fill="#FEFECE" filter="url(#f6e8v1r1iebjh)" height="48" id="Console" style="stroke: #A80036; stroke-width: 1.5;" width="179" x="533.5" y="1061"/><ellipse cx="548.5" cy="1077" fill="#ADD1B2" rx="11" ry="11" style="stroke: #A80036; stroke-width: 1.0;"/><path d="M550.8438,1072.6719 C549.9063,1072.2344 549.3125,1072.0938 548.4375,1072.0938 C545.8125,1072.0938 543.8125,1074.1719 543.8125,1076.8906 L543.8125,1078.0156 C543.8125,1080.5938 545.9219,1082.4844 548.8125,1082.4844 C550.0313,1082.4844 551.1875,1082.1875 551.9375,1081.6406 C552.5156,1081.2344 552.8438,1080.7813 552.8438,1080.3906 C552.8438,1079.9375 552.4531,1079.5469 551.9844,1079.5469 C551.7656,1079.5469 551.5625,1079.625 551.375,1079.8125 C550.9219,1080.2969 550.9219,1080.2969 550.7344,1080.3906 C550.3125,1080.6563 549.625,1080.7813 548.8594,1080.7813 C546.8125,1080.7813 545.5156,1079.6875 545.5156,1077.9844 L545.5156,1076.8906 C545.5156,1075.1094 546.7656,1073.7969 548.5,1073.7969 C549.0781,1073.7969 549.6875,1073.9531 550.1563,1074.2031 C550.6406,1074.4844 550.8125,1074.7031 550.9063,1075.1094 C550.9688,1075.5156 551,1075.6406 551.1406,1075.7656 C551.2813,1075.9063 551.5156,1076.0156 551.7344,1076.0156 C552,1076.0156 552.2656,1075.875 552.4375,1075.6563 C552.5469,1075.5 552.5781,1075.3125 552.5781,1074.8906 L552.5781,1073.4688 C552.5781,1073.0313 552.5625,1072.9063 552.4688,1072.75 C552.3125,1072.4844 552.0313,1072.3438 551.7344,1072.3438 C551.4375,1072.3438 551.2344,1072.4375 551.0156,1072.75 L550.8438,1072.6719 Z "/><text fill="#000000" font-family="sans-serif" font-size="12" lengthAdjust="spacingAndGlyphs" textLength="147" x="562.5" y="1081.1543">usantatecla.utils.Console</text><line style="stroke: #A80036; stroke-width: 1.5;" x1="534.5" x2="711.5" y1="1093" y2="1093"/><line style="stroke: #A80036; stroke-width: 1.5;" x1="534.5" x2="711.5" y1="1101" y2="1101"/><!--MD5=[d93cf99d2b92276f27fe8dbf15140505]
class YesNoDialog--><rect codeLine="126" fill="#FEFECE" filter="url(#f6e8v1r1iebjh)" height="48" id="YesNoDialog" style="stroke: #A80036; stroke-width: 1.5;" width="206" x="1121" y="268"/><ellipse cx="1136" cy="284" fill="#ADD1B2" rx="11" ry="11" style="stroke: #A80036; stroke-width: 1.0;"/><path d="M1138.3438,279.6719 C1137.4063,279.2344 1136.8125,279.0938 1135.9375,279.0938 C1133.3125,279.0938 1131.3125,281.1719 1131.3125,283.8906 L1131.3125,285.0156 C1131.3125,287.5938 1133.4219,289.4844 1136.3125,289.4844 C1137.5313,289.4844 1138.6875,289.1875 1139.4375,288.6406 C1140.0156,288.2344 1140.3438,287.7813 1140.3438,287.3906 C1140.3438,286.9375 1139.9531,286.5469 1139.4844,286.5469 C1139.2656,286.5469 1139.0625,286.625 1138.875,286.8125 C1138.4219,287.2969 1138.4219,287.2969 1138.2344,287.3906 C1137.8125,287.6563 1137.125,287.7813 1136.3594,287.7813 C1134.3125,287.7813 1133.0156,286.6875 1133.0156,284.9844 L1133.0156,283.8906 C1133.0156,282.1094 1134.2656,280.7969 1136,280.7969 C1136.5781,280.7969 1137.1875,280.9531 1137.6563,281.2031 C1138.1406,281.4844 1138.3125,281.7031 1138.4063,282.1094 C1138.4688,282.5156 1138.5,282.6406 1138.6406,282.7656 C1138.7813,282.9063 1139.0156,283.0156 1139.2344,283.0156 C1139.5,283.0156 1139.7656,282.875 1139.9375,282.6563 C1140.0469,282.5 1140.0781,282.3125 1140.0781,281.8906 L1140.0781,280.4688 C1140.0781,280.0313 1140.0625,279.9063 1139.9688,279.75 C1139.8125,279.4844 1139.5313,279.3438 1139.2344,279.3438 C1138.9375,279.3438 1138.7344,279.4375 1138.5156,279.75 L1138.3438,279.6719 Z "/><text fill="#000000" font-family="sans-serif" font-size="12" lengthAdjust="spacingAndGlyphs" textLength="174" x="1150" y="288.1543">usantatecla.utils.YesNoDialog</text><line style="stroke: #A80036; stroke-width: 1.5;" x1="1122" x2="1326" y1="300" y2="300"/><line style="stroke: #A80036; stroke-width: 1.5;" x1="1122" x2="1326" y1="308" y2="308"/><!--MD5=[ce3aceb15685c4a66d1e1b8ea7e2c984]
class ColorCode--><rect codeLine="130" fill="#FEFECE" filter="url(#f6e8v1r1iebjh)" height="48" id="ColorCode" style="stroke: #A80036; stroke-width: 1.5;" width="194" x="978" y="860.5"/><ellipse cx="993" cy="876.5" fill="#EB937F" rx="11" ry="11" style="stroke: #A80036; stroke-width: 1.0;"/><path d="M991.7969,877.375 L993.25,877.375 L993.25,877.4844 C993.25,877.8906 993.2813,878.0469 993.3594,878.2031 C993.5156,878.4531 993.7969,878.6094 994.0938,878.6094 C994.3438,878.6094 994.6094,878.4688 994.7656,878.25 C994.8906,878.0938 994.9219,877.9375 994.9219,877.4844 L994.9219,875.5625 C994.9219,875.4063 994.9219,875.3594 994.9063,875.2031 C994.8438,874.7344 994.5313,874.4219 994.0781,874.4219 C993.8281,874.4219 993.5625,874.5625 993.3906,874.7813 C993.2813,874.9531 993.25,875.1094 993.25,875.5625 L993.25,875.6875 L991.7969,875.6875 L991.7969,873.2813 L995.7813,873.2813 L995.7813,874.1406 C995.7813,874.5469 995.8125,874.7188 995.8906,874.875 C996.0625,875.125 996.3438,875.2813 996.625,875.2813 C996.8906,875.2813 997.1563,875.1406 997.3281,874.9219 C997.4375,874.75 997.4688,874.6094 997.4688,874.1406 L997.4688,871.5938 L989.8438,871.5938 C989.4063,871.5938 989.2813,871.6094 989.125,871.7031 C988.875,871.8594 988.7188,872.1563 988.7188,872.4375 C988.7188,872.7188 988.8594,872.9688 989.0781,873.1406 C989.2344,873.25 989.4219,873.2813 989.8438,873.2813 L990.0938,873.2813 L990.0938,879.7969 L989.8438,879.7969 C989.4375,879.7969 989.2813,879.8125 989.125,879.9219 C988.875,880.0938 988.7188,880.3594 988.7188,880.6563 C988.7188,880.9219 988.8594,881.1719 989.0781,881.3281 C989.2188,881.4531 989.4531,881.5 989.8438,881.5 L997.8438,881.5 L997.8438,878.9219 C997.8438,878.4844 997.8125,878.3438 997.7344,878.1875 C997.5625,877.9375 997.2813,877.7813 997,877.7813 C996.7344,877.7813 996.4688,877.8906 996.2969,878.1406 C996.1875,878.2969 996.1563,878.4375 996.1563,878.9219 L996.1563,879.7969 L991.7969,879.7969 L991.7969,877.375 Z "/><text fill="#000000" font-family="sans-serif" font-size="12" lengthAdjust="spacingAndGlyphs" textLength="162" x="1007" y="880.6543">usantatecla.utils.ColorCode</text><line style="stroke: #A80036; stroke-width: 1.5;" x1="979" x2="1171" y1="892.5" y2="892.5"/><line style="stroke: #A80036; stroke-width: 1.5;" x1="979" x2="1171" y1="900.5" y2="900.5"/><!--MD5=[ba28573f2062cf9f5d1d4aa517f0cc38]
link Mastermind to Board--><path codeLine="100" d="M310.0973,151.1078 C310.0973,151.1078 325.194,186.962 332.661,204.695 " fill="none" id="Mastermind-Board" style="stroke: #A80036; stroke-width: 1.0;"/><polygon fill="#A80036" points="337.779,216.851,337.9734,207.0041,335.8389,212.2428,330.6002,210.1082,337.779,216.851" style="stroke: #A80036; stroke-width: 1.0;"/><line style="stroke: #A80036; stroke-width: 1.0;" x1="335.8389" x2="332.7345" y1="212.2428" y2="204.8695"/><polygon fill="#A80036" points="305.441,140.048,304.0825,147.13,310.0973,151.1078,311.4557,144.0258,305.441,140.048" style="stroke: #A80036; stroke-width: 1.0;"/><text fill="#000000" font-family="sans-serif" font-size="13" lengthAdjust="spacingAndGlyphs" textLength="37" x="326" y="183.0669">board</text><!--MD5=[165aae362738a81ed253bf2cad9e16e5]
link Mastermind to ProposedCombination--><path codeLine="101" d="M271.358,140.227 C255.748,205.434 236.915,323.368 275,414 C289.888,449.43 311.064,486.674 329.55,516.507 " fill="none" id="Mastermind-to-ProposedCombination" style="stroke: #A80036; stroke-width: 1.0; stroke-dasharray: 7.0,7.0;"/><polygon fill="#A80036" points="332.256,520.853,330.8942,511.0987,329.6131,516.6086,324.1032,515.3274,332.256,520.853" style="stroke: #A80036; stroke-width: 1.0;"/><!--MD5=[5e915b8ab835b2366405aaf6901e131b]
link Board to SecretCombination--><path codeLine="102" d="M467.9048,351.6512 C467.9048,351.6512 505.028,380.764 520,397 C554.104,433.984 581.766,484.201 599.802,522.034 " fill="none" id="Board-SecretCombination" style="stroke: #A80036; stroke-width: 1.0;"/><polygon fill="#A80036" points="605.316,533.849,605.1349,524.0018,603.2016,529.3181,597.8854,527.3848,605.316,533.849" style="stroke: #A80036; stroke-width: 1.0;"/><line style="stroke: #A80036; stroke-width: 1.0;" x1="603.2016" x2="599.819" y1="529.3181" y2="522.069"/><polygon fill="#A80036" points="458.136,344.682,460.6973,351.4229,467.9048,351.6512,465.3435,344.9104,458.136,344.682" style="stroke: #A80036; stroke-width: 1.0;"/><text fill="#000000" font-family="sans-serif" font-size="13" lengthAdjust="spacingAndGlyphs" textLength="121" x="536" y="410.0669">secretCombination</text><!--MD5=[e0b5d9907fda64872c10fd6493e0c51f]
link Board to ProposedCombination--><path codeLine="103" d="M366.3244,379.1308 C366.3244,379.1308 366.078,391.565 366,397 C365.474,433.464 366.061,474.106 366.85,507.435 " fill="none" id="Board-ProposedCombination" style="stroke: #A80036; stroke-width: 1.0;"/><polygon fill="#A80036" points="367.186,520.765,370.9582,511.6672,367.0602,515.7666,362.9608,511.8685,367.186,520.765" style="stroke: #A80036; stroke-width: 1.0;"/><line style="stroke: #A80036; stroke-width: 1.0;" x1="367.0602" x2="366.8585" y1="515.7666" y2="507.7685"/><polygon fill="#FFFFFF" points="366.6,367.134,362.4633,373.0406,366.3244,379.1308,370.4611,373.2243,366.6,367.134" style="stroke: #A80036; stroke-width: 1.0;"/><text fill="#000000" font-family="sans-serif" font-size="13" lengthAdjust="spacingAndGlyphs" textLength="148" x="367" y="410.0669">proposedCombinations</text><text fill="#000000" font-family="sans-serif" font-size="13" lengthAdjust="spacingAndGlyphs" textLength="32" x="333.0149" y="510.0709">0..10</text><!--MD5=[8dd95aff79c51151a18c835e3410b3cd]
link Board to Result--><path codeLine="104" d="M306.5186,376.9738 C306.5186,376.9738 273.823,422.372 259,444 C245.929,463.071 232.188,483.996 219.656,503.453 " fill="none" id="Board-Result" style="stroke: #A80036; stroke-width: 1.0;"/><polygon fill="#A80036" points="212.631,514.401,220.8577,508.9861,215.331,510.1927,214.1244,504.666,212.631,514.401" style="stroke: #A80036; stroke-width: 1.0;"/><line style="stroke: #A80036; stroke-width: 1.0;" x1="215.331" x2="219.6515" y1="510.1927" y2="503.459"/><polygon fill="#FFFFFF" points="313.589,367.278,306.8218,369.7691,306.5186,376.9738,313.2857,374.4827,313.589,367.278" style="stroke: #A80036; stroke-width: 1.0;"/><text fill="#000000" font-family="sans-serif" font-size="13" lengthAdjust="spacingAndGlyphs" textLength="43" x="293" y="410.0669">results</text><text fill="#000000" font-family="sans-serif" font-size="13" lengthAdjust="spacingAndGlyphs" textLength="32" x="183.2477" y="503.3803">0..10</text><!--MD5=[6e8433e42d71f9427401b78cd95c6f0c]
link Combination to Color--><path codeLine="106" d="M722.8822,339.4168 C722.8822,339.4168 758.852,399.295 778.9,432.669 " fill="none" id="Combination-Color" style="stroke: #A80036; stroke-width: 1.0;"/><polygon fill="#A80036" points="785.696,443.982,784.4905,434.2072,783.1213,439.6958,777.6327,438.3266,785.696,443.982" style="stroke: #A80036; stroke-width: 1.0;"/><line style="stroke: #A80036; stroke-width: 1.0;" x1="783.1213" x2="779.0015" y1="439.6958" y2="432.838"/><polygon fill="#A80036" points="716.703,329.13,716.3637,336.3331,722.8822,339.4168,723.2215,332.2137,716.703,329.13" style="stroke: #A80036; stroke-width: 1.0;"/><text fill="#000000" font-family="sans-serif" font-size="13" lengthAdjust="spacingAndGlyphs" textLength="8" x="772.88" y="432.9383">4</text><!--MD5=[ed81d3472c9069d2de3c2f5cd308846f]
reverse link Combination to SecretCombination--><path codeLine="107" d="M696.747,349.363 C696.318,369.911 694.58,393.198 690,414 C680.674,456.356 660.97,501.753 645.332,533.682 " fill="none" id="Combination-backto-SecretCombination" style="stroke: #A80036; stroke-width: 1.0;"/><polygon fill="none" points="689.747,349.148,696.783,329.161,703.747,349.173,689.747,349.148" style="stroke: #A80036; stroke-width: 1.0;"/><!--MD5=[2f10888865b2f559cc24db01ac34cee3]
reverse link Combination to ProposedCombination--><path codeLine="108" d="M694.638,349.196 C691.511,372.355 683.741,397.561 666,414 C604.257,471.211 552.149,402.354 479,444 C447.114,462.154 420.475,493.335 401.402,520.835 " fill="none" id="Combination-backto-ProposedCombination" style="stroke: #A80036; stroke-width: 1.0;"/><polygon fill="none" points="687.667,348.562,696.341,329.23,701.616,349.752,687.667,348.562" style="stroke: #A80036; stroke-width: 1.0;"/><!--MD5=[03e1adeaed11e2ac298b9b43cd912fbb]
link ProposedCombination to Error--><path codeLine="109" d="M375.157,633.324 C380.264,679.215 387.613,745.241 393.478,797.941 " fill="none" id="ProposedCombination-to-Error" style="stroke: #A80036; stroke-width: 1.0; stroke-dasharray: 7.0,7.0;"/><polygon fill="#A80036" points="394.041,802.999,397.0215,793.6119,393.4882,798.0297,389.0705,794.4964,394.041,802.999" style="stroke: #A80036; stroke-width: 1.0;"/><!--MD5=[c90363da1e54012406e61a987ebdf2c8]
link Mastermind to Message--><path codeLine="112" d="M238.538,140.23 C181.23,204.051 86.8729,322.217 50,444 C15.7411,557.15 13.9059,597.422 50,710 C57.7889,734.294 70.3686,758.079 84.5957,779.87 " fill="none" id="Mastermind-to-Message" style="stroke: #A80036; stroke-width: 1.0; stroke-dasharray: 7.0,7.0;"/><polygon fill="#A80036" points="87.4621,784.201,85.8299,774.4883,84.7023,780.0317,79.1589,778.9041,87.4621,784.201" style="stroke: #A80036; stroke-width: 1.0;"/><!--MD5=[f93e57f7ded8581437b27fa1712e0f0d]
link Board to Message--><path codeLine="113" d="M279.907,314.564 C214.177,335.651 129.279,374.956 88,444 C29.246,542.272 66.5469,672.918 108.834,766.172 " fill="none" id="Board-to-Message" style="stroke: #A80036; stroke-width: 1.0; stroke-dasharray: 7.0,7.0;"/><polygon fill="#A80036" points="110.979,770.863,110.8727,761.0147,108.8991,766.3161,103.5977,764.3425,110.979,770.863" style="stroke: #A80036; stroke-width: 1.0;"/><!--MD5=[b9347c562a69bbba75d70bb21299d009]
link ProposedCombination to Message--><path codeLine="114" d="M333.687,633.324 C310.03,670.386 277.99,720.582 248.818,766.285 " fill="none" id="ProposedCombination-to-Message" style="stroke: #A80036; stroke-width: 1.0; stroke-dasharray: 7.0,7.0;"/><polygon fill="#A80036" points="246.004,770.693,254.2172,765.2576,248.6936,766.478,247.4732,760.9543,246.004,770.693" style="stroke: #A80036; stroke-width: 1.0;"/><!--MD5=[478a268921f9a7a4cb7b8daeb48ad6b0]
link Result to Message--><path codeLine="115" d="M174,639.822 C174,675.928 174,722.689 174,765.58 " fill="none" id="Result-to-Message" style="stroke: #A80036; stroke-width: 1.0; stroke-dasharray: 7.0,7.0;"/><polygon fill="#A80036" points="174,770.791,178,761.791,174,765.791,170,761.791,174,770.791" style="stroke: #A80036; stroke-width: 1.0;"/><!--MD5=[463cc8af4a3cc64d4486d23129543027]
link YesNoDialog to Console--><path codeLine="136" d="M1236,316.267 C1284.6,414.077 1456.27,797.231 1286,1022 C1252.32,1066.456 892.694,1079.1194 717.652,1082.6602 " fill="none" id="YesNoDialog-to-Console" style="stroke: #A80036; stroke-width: 1.0; stroke-dasharray: 7.0,7.0;"/><polygon fill="#A80036" points="712.528,1082.7623,721.6062,1086.5815,717.527,1082.6623,721.4462,1078.5831,712.528,1082.7623" style="stroke: #A80036; stroke-width: 1.0;"/><!--MD5=[922eb40535b2da68a8faa8740884533b]
link Board to Console--><path codeLine="137" d="M458.146,322.159 C503.636,336.553 559.998,353.647 611,367 C765.922,407.559 825.781,361.434 963,444 C1126.2,542.2 1174.44,592.171 1240,771 C1278.4,875.738 1308.93,934.29 1240,1022 C1208.37,1062.2454 883.206,1076.9121 718.102,1081.7934 " fill="none" id="Board-to-Console" style="stroke: #A80036; stroke-width: 1.0; stroke-dasharray: 7.0,7.0;"/><polygon fill="#A80036" points="712.781,1081.949,721.8937,1085.685,717.7789,1081.8033,721.6606,1077.6884,712.781,1081.949" style="stroke: #A80036; stroke-width: 1.0;"/><!--MD5=[913a83e29969536c5e075cf265ec81cd]
link Color to Console--><path codeLine="138" d="M945.554,600.446 C1023.74,627.008 1137.98,679.607 1190,771 C1245.18,867.951 1264.47,938.942 1190,1022 C1159.13,1056.4283 871.46,1073.6231 718.161,1080.4043 " fill="none" id="Color-to-Console" style="stroke: #A80036; stroke-width: 1.0; stroke-dasharray: 7.0,7.0;"/><polygon fill="#A80036" points="712.765,1080.6411,721.9313,1084.2438,717.7602,1080.4225,721.5815,1076.2515,712.765,1080.6411" style="stroke: #A80036; stroke-width: 1.0;"/><!--MD5=[e1c0657851f1818bbfea224ef31533f7]
link Color to ColorCode--><path codeLine="139" d="M945.591,695.241 C985.938,753.935 1031.37,820.036 1056.24,856.207 " fill="none" id="Color-to-ColorCode" style="stroke: #A80036; stroke-width: 1.0; stroke-dasharray: 7.0,7.0;"/><polygon fill="#A80036" points="1059.17,860.467,1057.3785,850.7824,1056.3421,856.3435,1050.781,855.3071,1059.17,860.467" style="stroke: #A80036; stroke-width: 1.0;"/><!--MD5=[702d0bc4071943235df53e25e5a40cdb]
link Error to Console--><path codeLine="140" d="M457.359,966.127 C475.217,988.914 496.35,1012.5135 519,1031 C532.018,1041.6253 547.515,1050.928 562.518,1058.6501 " fill="none" id="Error-to-Console" style="stroke: #A80036; stroke-width: 1.0; stroke-dasharray: 7.0,7.0;"/><polygon fill="#A80036" points="567.155,1060.9956,560.9279,1053.3652,562.6929,1058.7397,557.3184,1060.5046,567.155,1060.9956" style="stroke: #A80036; stroke-width: 1.0;"/><!--MD5=[fde603ad956a440325a7db2e94c3d038]
link Message to Console--><path codeLine="141" d="M260.789,987.738 C275.727,1000.843 291.97,1012.8521 309,1022 C376.865,1058.4545 463.315,1073.6082 528.317,1079.8408 " fill="none" id="Message-to-Console" style="stroke: #A80036; stroke-width: 1.0; stroke-dasharray: 7.0,7.0;"/><polygon fill="#A80036" points="533.353,1080.31,524.7633,1075.4916,528.3746,1079.8457,524.0205,1083.457,533.353,1080.31" style="stroke: #A80036; stroke-width: 1.0;"/><!--MD5=[6bfe31e80e6e77060baa4b8d6064148a]
link ProposedCombination to Console--><path codeLine="142" d="M409.539,633.218 C436.12,670.878 470.536,722.531 496,771 C549.082,872.04 594.857,1000.358 613.754,1056.0779 " fill="none" id="ProposedCombination-to-Console" style="stroke: #A80036; stroke-width: 1.0; stroke-dasharray: 7.0,7.0;"/><polygon fill="#A80036" points="615.391,1060.9217,616.2979,1051.1147,613.7897,1056.1851,608.7193,1053.6768,615.391,1060.9217" style="stroke: #A80036; stroke-width: 1.0;"/><!--MD5=[336a78eb14894e486e0ed36e439320b7]
link SecretCombination to Console--><path codeLine="143" d="M623,620.271 C623,720.66 623,971.309 623,1055.7338 " fill="none" id="SecretCombination-to-Console" style="stroke: #A80036; stroke-width: 1.0; stroke-dasharray: 7.0,7.0;"/><polygon fill="#A80036" points="623,1060.8151,627,1051.8151,623,1055.8151,619,1051.8151,623,1060.8151" style="stroke: #A80036; stroke-width: 1.0;"/><!--MD5=[1499d68dab61e96ede2ae386f5ea1cf6]
link Mastermind to YesNoDialog--><path codeLine="144" d="M377.54,105.88 C508.431,126.857 754.792,168.64 962,217 C1023.76,231.413 1092.75,251.046 1144.43,266.467 " fill="none" id="Mastermind-to-YesNoDialog" style="stroke: #A80036; stroke-width: 1.0; stroke-dasharray: 7.0,7.0;"/><polygon fill="#A80036" points="1149.37,267.946,1141.8886,261.5406,1144.5786,266.517,1139.6022,269.207,1149.37,267.946" style="stroke: #A80036; stroke-width: 1.0;"/><!--MD5=[171c2ac156c56da6090b0edcfa8aa798]
@startuml
package usantatecla.mastermind {
class Mastermind {
	+ play()
	- playGame()
	- isResumedGame(): boolean 
	+ {static} main(String[])
}


class Board {
  - MAX_ATTEMPS: {static} int 
  - attempts: int 
  ~ Board()
  + writeln()
  + add(ProposedCombination)
  + isFinished(): boolean 
  + isWinner(): boolean 
  - isLooser(): boolean 
}

abstract class Combination {
	~ colors: List<Color> 
	~ Combination ()
}

class SecretCombination {
	~ SecretCombination()
	~ getResult(ProposedCombination): Result 
	~ writeln()
}

class ProposedCombination {
	~write()
	~read()
	- checkError(String): Error 
	~ contains(Color, int): boolean 
	~ contains(Color): boolean 
}

class Result{
	+ WIDTH: {static} int 
	- blacks: int 
	- whites: int 
	~ Result(int, int)
	~ isWinner(): boolean 
	~ writeln()
}

enum Color {
	+ RED
	+ BLUE
	+ YELLOW
	+ GREEN
	+ ORANGE
	+ PURPLE
	+ NULL_COLOR
	- initial: String 
	- RESET_COLOR: {static} String 
	- Color()
	- Color(char)
	~ {static} getInitials(): String 
	~ {static} getInstance(char): Color
	~ {static} length(): int 
	~ {static} get(int): Color 
	~ write()
	~ isNull(): boolean 
}

enum Error {
	+ DUPLICATED
	+ WRONG_CHARACTERS
	+ WRONG_LENGTH
	+ NULL_ERROR
	- message: String
	- Error()
	- Error(String)
	~ writeln()
	+ isNull(): boolean 
}

enum Message {
	+ ATTEMPTS
	+ SECRET_COMBINATION
	+ RESUME
	+ RESULT
	+ PROPOSED_COMBINATION
	+ TITLE
	+ WINNER
	+ LOOSER
	- message: String 
	- Message(String)
	~ write()
	~ writeln()
	~ writeln(int)
	~ writeln(int, int)
}



Mastermind *-down-> Board : board
Mastermind .down.> ProposedCombination
Board *-down-> SecretCombination : secretCombination
Board o-down-> "0..10" ProposedCombination : proposedCombinations
Board o-down-> "0..10" Result : results

Combination *-down-> "4" Color 
Combination <|-down- SecretCombination
Combination <|-down- ProposedCombination
ProposedCombination .down.> Error


Mastermind .down.> Message
Board .down.> Message
ProposedCombination .down.> Message
Result .down.> Message

}



class Console as "usantatecla.utils.Console" {


}

class YesNoDialog as "usantatecla.utils.YesNoDialog" {

}

enum ColorCode as "usantatecla.utils.ColorCode" {

}



YesNoDialog .down.> Console
Board .down.> Console
Color .down.> Console
Color .down.> ColorCode 
Error .down.> Console
Message .down.> Console
ProposedCombination .down.> Console
SecretCombination .down.> Console
Mastermind .down.> YesNoDialog
@enduml

PlantUML version 1.2020.20beta4(Unknown compile time)
(GPL source distribution)
Java Runtime: Java(TM) SE Runtime Environment
JVM: Java HotSpot(TM) 64-Bit Server VM
Default Encoding: UTF-8
Language: en
Country: US
--></g></svg>