<?xml version="1.0" encoding="UTF-8" standalone="no"?><svg xmlns="http://www.w3.org/2000/svg" xmlns:xlink="http://www.w3.org/1999/xlink" contentScriptType="application/ecmascript" contentStyleType="text/css" height="1171px" preserveAspectRatio="none" style="width:1428px;height:1171px;" version="1.1" viewBox="0 0 1428 1171" width="1428px" zoomAndPan="magnify"><defs><filter height="300%" id="fmpkpexutbmxp" width="300%" x="-1" y="-1"><feGaussianBlur result="blurOut" stdDeviation="2.0"/><feColorMatrix in="blurOut" result="blurOut2" type="matrix" values="0 0 0 0 0 0 0 0 0 0 0 0 0 0 0 0 0 0 .4 0"/><feOffset dx="4.0" dy="4.0" in="blurOut2" result="blurOut3"/><feBlend in="SourceGraphic" in2="blurOut3" mode="normal"/></filter></defs><g><!--MD5=[9be0839337cfdab5d118a2e29cf0a8c4]
cluster usantatecla.mastermind--><polygon fill="#FFFFFF" filter="url(#fmpkpexutbmxp)" points="118.2224,6,325.2224,6,332.2224,28.2969,1057.2223,28.2969,1057.2223,1053,118.2224,1053,118.2224,6" style="stroke: #000000; stroke-width: 1.5;"/><line style="stroke: #000000; stroke-width: 1.5;" x1="118.2224" x2="332.2224" y1="28.2969" y2="28.2969"/><text fill="#000000" font-family="sans-serif" font-size="14" font-weight="bold" lengthAdjust="spacingAndGlyphs" textLength="201" x="122.2224" y="20.9951">usantatecla.mastermind</text><!--MD5=[908cbfa8709a8ec6ee3beb0409fea32c]
cluster usantatecla.utils--><polygon fill="#FFFFFF" filter="url(#fmpkpexutbmxp)" points="1081.2223,864.5,1227.2223,864.5,1234.2223,886.7969,1352.2213,886.7969,1352.2213,1164,1081.2223,1164,1081.2223,864.5" style="stroke: #000000; stroke-width: 1.5;"/><line style="stroke: #000000; stroke-width: 1.5;" x1="1081.2223" x2="1234.2223" y1="886.7969" y2="886.7969"/><text fill="#000000" font-family="sans-serif" font-size="14" font-weight="bold" lengthAdjust="spacingAndGlyphs" textLength="140" x="1085.2223" y="879.4951">usantatecla.utils</text><!--MD5=[7283a9eed84464550b6d5ebf39c68b05]
class Mastermind--><rect codeLine="2" fill="#FEFECE" filter="url(#fmpkpexutbmxp)" height="112.0234" id="Mastermind" style="stroke: #A80036; stroke-width: 1.5;" width="182" x="236.2223" y="41"/><ellipse cx="287.9723" cy="57" fill="#ADD1B2" rx="11" ry="11" style="stroke: #A80036; stroke-width: 1.0;"/><path d="M290.3161,52.6719 C289.3786,52.2344 288.7848,52.0938 287.9098,52.0938 C285.2848,52.0938 283.2848,54.1719 283.2848,56.8906 L283.2848,58.0156 C283.2848,60.5938 285.3942,62.4844 288.2848,62.4844 C289.5036,62.4844 290.6598,62.1875 291.4098,61.6406 C291.9879,61.2344 292.3161,60.7813 292.3161,60.3906 C292.3161,59.9375 291.9254,59.5469 291.4567,59.5469 C291.2379,59.5469 291.0348,59.625 290.8473,59.8125 C290.3942,60.2969 290.3942,60.2969 290.2067,60.3906 C289.7848,60.6563 289.0973,60.7813 288.3317,60.7813 C286.2848,60.7813 284.9879,59.6875 284.9879,57.9844 L284.9879,56.8906 C284.9879,55.1094 286.2379,53.7969 287.9723,53.7969 C288.5504,53.7969 289.1598,53.9531 289.6286,54.2031 C290.1129,54.4844 290.2848,54.7031 290.3786,55.1094 C290.4411,55.5156 290.4723,55.6406 290.6129,55.7656 C290.7536,55.9063 290.9879,56.0156 291.2067,56.0156 C291.4723,56.0156 291.7379,55.875 291.9098,55.6563 C292.0192,55.5 292.0504,55.3125 292.0504,54.8906 L292.0504,53.4688 C292.0504,53.0313 292.0348,52.9063 291.9411,52.75 C291.7848,52.4844 291.5036,52.3438 291.2067,52.3438 C290.9098,52.3438 290.7067,52.4375 290.4879,52.75 L290.3161,52.6719 Z "/><text fill="#000000" font-family="sans-serif" font-size="12" lengthAdjust="spacingAndGlyphs" textLength="70" x="308.4723" y="61.1543">Mastermind</text><line style="stroke: #A80036; stroke-width: 1.5;" x1="237.2223" x2="417.2223" y1="73" y2="73"/><rect fill="none" height="6" style="stroke: #C82930; stroke-width: 1.0;" width="6" x="244.2223" y="81"/><text fill="#000000" font-family="sans-serif" font-size="11" lengthAdjust="spacingAndGlyphs" textLength="69" x="256.2223" y="87.2104">Board board</text><line style="stroke: #A80036; stroke-width: 1.5;" x1="237.2223" x2="417.2223" y1="93.8047" y2="93.8047"/><ellipse cx="247.2223" cy="104.8047" fill="#84BE84" rx="3" ry="3" style="stroke: #038048; stroke-width: 1.0;"/><text fill="#000000" font-family="sans-serif" font-size="11" lengthAdjust="spacingAndGlyphs" textLength="60" x="256.2223" y="108.0151">void play()</text><rect fill="#F24D5C" height="6" style="stroke: #C82930; stroke-width: 1.0;" width="6" x="244.2223" y="114.6094"/><text fill="#000000" font-family="sans-serif" font-size="11" lengthAdjust="spacingAndGlyphs" textLength="95" x="256.2223" y="120.8198">void playGame()</text><rect fill="#F24D5C" height="6" style="stroke: #C82930; stroke-width: 1.0;" width="6" x="244.2223" y="127.4141"/><text fill="#000000" font-family="sans-serif" font-size="11" lengthAdjust="spacingAndGlyphs" textLength="156" x="256.2223" y="133.6245">boolean isResumedGame()</text><ellipse cx="247.2223" cy="143.2188" fill="#84BE84" rx="3" ry="3" style="stroke: #038048; stroke-width: 1.0;"/><text fill="#000000" font-family="sans-serif" font-size="11" lengthAdjust="spacingAndGlyphs" text-decoration="underline" textLength="105" x="256.2223" y="146.4292">void main(String[])</text><!--MD5=[9563755d011c5cec7ec66dc53565a59e]
class Board--><rect codeLine="11" fill="#FEFECE" filter="url(#fmpkpexutbmxp)" height="188.8516" id="Board" style="stroke: #A80036; stroke-width: 1.5;" width="291" x="505.7223" y="230"/><ellipse cx="628.9723" cy="246" fill="#ADD1B2" rx="11" ry="11" style="stroke: #A80036; stroke-width: 1.0;"/><path d="M631.3161,241.6719 C630.3786,241.2344 629.7848,241.0938 628.9098,241.0938 C626.2848,241.0938 624.2848,243.1719 624.2848,245.8906 L624.2848,247.0156 C624.2848,249.5938 626.3942,251.4844 629.2848,251.4844 C630.5036,251.4844 631.6598,251.1875 632.4098,250.6406 C632.9879,250.2344 633.3161,249.7813 633.3161,249.3906 C633.3161,248.9375 632.9254,248.5469 632.4567,248.5469 C632.2379,248.5469 632.0348,248.625 631.8473,248.8125 C631.3942,249.2969 631.3942,249.2969 631.2067,249.3906 C630.7848,249.6563 630.0973,249.7813 629.3317,249.7813 C627.2848,249.7813 625.9879,248.6875 625.9879,246.9844 L625.9879,245.8906 C625.9879,244.1094 627.2379,242.7969 628.9723,242.7969 C629.5504,242.7969 630.1598,242.9531 630.6286,243.2031 C631.1129,243.4844 631.2848,243.7031 631.3786,244.1094 C631.4411,244.5156 631.4723,244.6406 631.6129,244.7656 C631.7536,244.9063 631.9879,245.0156 632.2067,245.0156 C632.4723,245.0156 632.7379,244.875 632.9098,244.6563 C633.0192,244.5 633.0504,244.3125 633.0504,243.8906 L633.0504,242.4688 C633.0504,242.0313 633.0348,241.9063 632.9411,241.75 C632.7848,241.4844 632.5036,241.3438 632.2067,241.3438 C631.9098,241.3438 631.7067,241.4375 631.4879,241.75 L631.3161,241.6719 Z "/><text fill="#000000" font-family="sans-serif" font-size="12" lengthAdjust="spacingAndGlyphs" textLength="36" x="649.4723" y="250.1543">Board</text><line style="stroke: #A80036; stroke-width: 1.5;" x1="506.7223" x2="795.7223" y1="262" y2="262"/><rect fill="none" height="6" style="stroke: #C82930; stroke-width: 1.0;" width="6" x="513.7223" y="270"/><text fill="#000000" font-family="sans-serif" font-size="11" lengthAdjust="spacingAndGlyphs" text-decoration="underline" textLength="143" x="525.7223" y="276.2104">{final} int MAX_ATTEMPS</text><rect fill="none" height="6" style="stroke: #C82930; stroke-width: 1.0;" width="6" x="513.7223" y="282.8047"/><text fill="#000000" font-family="sans-serif" font-size="11" lengthAdjust="spacingAndGlyphs" textLength="220" x="525.7223" y="289.0151">SecretCombination secretCombination</text><rect fill="none" height="6" style="stroke: #C82930; stroke-width: 1.0;" width="6" x="513.7223" y="295.6094"/><text fill="#000000" font-family="sans-serif" font-size="11" lengthAdjust="spacingAndGlyphs" textLength="265" x="525.7223" y="301.8198">ProposedCombination[] proposedCombinations</text><rect fill="none" height="6" style="stroke: #C82930; stroke-width: 1.0;" width="6" x="513.7223" y="308.4141"/><text fill="#000000" font-family="sans-serif" font-size="11" lengthAdjust="spacingAndGlyphs" textLength="85" x="525.7223" y="314.6245">Result[] results</text><rect fill="none" height="6" style="stroke: #C82930; stroke-width: 1.0;" width="6" x="513.7223" y="321.2188"/><text fill="#000000" font-family="sans-serif" font-size="11" lengthAdjust="spacingAndGlyphs" textLength="69" x="525.7223" y="327.4292">int attempts</text><line style="stroke: #A80036; stroke-width: 1.5;" x1="506.7223" x2="795.7223" y1="334.0234" y2="334.0234"/><text fill="#000000" font-family="sans-serif" font-size="11" lengthAdjust="spacingAndGlyphs" textLength="41" x="525.7223" y="348.2339">Board()</text><ellipse cx="516.7223" cy="357.8281" fill="#84BE84" rx="3" ry="3" style="stroke: #038048; stroke-width: 1.0;"/><text fill="#000000" font-family="sans-serif" font-size="11" lengthAdjust="spacingAndGlyphs" textLength="74" x="525.7223" y="361.0386">void writeln()</text><ellipse cx="516.7223" cy="370.6328" fill="#84BE84" rx="3" ry="3" style="stroke: #038048; stroke-width: 1.0;"/><text fill="#000000" font-family="sans-serif" font-size="11" lengthAdjust="spacingAndGlyphs" textLength="180" x="525.7223" y="373.8433">void add(ProposedCombination)</text><ellipse cx="516.7223" cy="383.4375" fill="#84BE84" rx="3" ry="3" style="stroke: #038048; stroke-width: 1.0;"/><text fill="#000000" font-family="sans-serif" font-size="11" lengthAdjust="spacingAndGlyphs" textLength="114" x="525.7223" y="386.6479">boolean isFinished()</text><ellipse cx="516.7223" cy="396.2422" fill="#84BE84" rx="3" ry="3" style="stroke: #038048; stroke-width: 1.0;"/><text fill="#000000" font-family="sans-serif" font-size="11" lengthAdjust="spacingAndGlyphs" textLength="107" x="525.7223" y="399.4526">boolean isWinner()</text><rect fill="#F24D5C" height="6" style="stroke: #C82930; stroke-width: 1.0;" width="6" x="513.7223" y="406.0469"/><text fill="#000000" font-family="sans-serif" font-size="11" lengthAdjust="spacingAndGlyphs" textLength="105" x="525.7223" y="412.2573">boolean isLooser()</text><!--MD5=[28491d17d5ee38c9c116625a5ffc259a]
class Combination--><rect codeLine="25" fill="#FEFECE" filter="url(#fmpkpexutbmxp)" height="73.6094" id="Combination" style="stroke: #A80036; stroke-width: 1.5;" width="129" x="309.7223" y="287.5"/><ellipse cx="334.1723" cy="303.5" fill="#A9DCDF" rx="11" ry="11" style="stroke: #A80036; stroke-width: 1.0;"/><path d="M336.2504,305.3125 L336.6411,306.2969 L336.2504,306.2969 C335.7973,306.2969 335.6879,306.3125 335.5317,306.4219 C335.2817,306.5781 335.1254,306.8594 335.1254,307.1563 C335.1254,307.4219 335.2661,307.6719 335.4848,307.8281 C335.6254,307.9531 335.8286,308 336.2504,308 L338.6098,308 C338.9692,308 339.1879,307.9688 339.3286,307.875 C339.5786,307.7344 339.7348,307.4375 339.7348,307.1563 C339.7348,306.875 339.5942,306.625 339.3754,306.4688 C339.2036,306.3281 339.0473,306.2969 338.5786,306.2969 L335.1879,298.0938 L331.5161,298.0938 C331.0629,298.0938 330.9379,298.1094 330.7817,298.2031 C330.5317,298.375 330.3754,298.6563 330.3754,298.9375 C330.3754,299.2188 330.5161,299.4688 330.7348,299.6406 C330.9067,299.75 331.0786,299.7813 331.5161,299.7813 L332.5942,299.7813 L329.9536,306.2969 C329.5317,306.2969 329.3754,306.3125 329.2192,306.4219 C328.9692,306.5781 328.8129,306.8594 328.8129,307.1563 C328.8129,307.7188 329.1879,308 329.9379,308 L332.2036,308 C332.5629,308 332.7817,307.9688 332.9067,307.875 C333.1723,307.7344 333.3129,307.4375 333.3129,307.1563 C333.3129,306.875 333.1879,306.625 332.9692,306.4531 C332.7973,306.3281 332.6567,306.2969 332.2036,306.2969 L331.8129,306.2969 L332.2036,305.3125 L336.2504,305.3125 Z M335.5473,303.6094 L332.8754,303.6094 L334.2192,300.3438 L335.5473,303.6094 Z "/><text fill="#000000" font-family="sans-serif" font-size="12" font-style="italic" lengthAdjust="spacingAndGlyphs" textLength="76" x="350.2723" y="307.6543">Combination</text><line style="stroke: #A80036; stroke-width: 1.5;" x1="310.7223" x2="437.7223" y1="319.5" y2="319.5"/><polygon fill="none" points="320.7223,326.5,316.7223,332.5,324.7223,332.5" style="stroke: #1963A0; stroke-width: 1.0;"/><text fill="#000000" font-family="sans-serif" font-size="11" lengthAdjust="spacingAndGlyphs" textLength="103" x="329.7223" y="333.7104">List&lt;Color&gt; colors</text><line style="stroke: #A80036; stroke-width: 1.5;" x1="310.7223" x2="437.7223" y1="340.3047" y2="340.3047"/><polygon fill="#4177AF" points="320.7223,347.3047,316.7223,353.3047,324.7223,353.3047" style="stroke: #1963A0; stroke-width: 1.0;"/><text fill="#000000" font-family="sans-serif" font-size="11" lengthAdjust="spacingAndGlyphs" textLength="83" x="329.7223" y="354.5151">Combination ()</text><!--MD5=[e370ee5c0c15ce04544d5f5a73174d72]
class SecretCombination--><rect codeLine="30" fill="#FEFECE" filter="url(#fmpkpexutbmxp)" height="86.4141" id="SecretCombination" style="stroke: #A80036; stroke-width: 1.5;" width="236" x="805.2223" y="579.5"/><ellipse cx="861.9723" cy="595.5" fill="#ADD1B2" rx="11" ry="11" style="stroke: #A80036; stroke-width: 1.0;"/><path d="M864.3161,591.1719 C863.3786,590.7344 862.7848,590.5938 861.9098,590.5938 C859.2848,590.5938 857.2848,592.6719 857.2848,595.3906 L857.2848,596.5156 C857.2848,599.0938 859.3942,600.9844 862.2848,600.9844 C863.5036,600.9844 864.6598,600.6875 865.4098,600.1406 C865.9879,599.7344 866.3161,599.2813 866.3161,598.8906 C866.3161,598.4375 865.9254,598.0469 865.4567,598.0469 C865.2379,598.0469 865.0348,598.125 864.8473,598.3125 C864.3942,598.7969 864.3942,598.7969 864.2067,598.8906 C863.7848,599.1563 863.0973,599.2813 862.3317,599.2813 C860.2848,599.2813 858.9879,598.1875 858.9879,596.4844 L858.9879,595.3906 C858.9879,593.6094 860.2379,592.2969 861.9723,592.2969 C862.5504,592.2969 863.1598,592.4531 863.6286,592.7031 C864.1129,592.9844 864.2848,593.2031 864.3786,593.6094 C864.4411,594.0156 864.4723,594.1406 864.6129,594.2656 C864.7536,594.4063 864.9879,594.5156 865.2067,594.5156 C865.4723,594.5156 865.7379,594.375 865.9098,594.1563 C866.0192,594 866.0504,593.8125 866.0504,593.3906 L866.0504,591.9688 C866.0504,591.5313 866.0348,591.4063 865.9411,591.25 C865.7848,590.9844 865.5036,590.8438 865.2067,590.8438 C864.9098,590.8438 864.7067,590.9375 864.4879,591.25 L864.3161,591.1719 Z "/><text fill="#000000" font-family="sans-serif" font-size="12" lengthAdjust="spacingAndGlyphs" textLength="114" x="882.4723" y="599.6543">SecretCombination</text><line style="stroke: #A80036; stroke-width: 1.5;" x1="806.2223" x2="1040.2223" y1="611.5" y2="611.5"/><line style="stroke: #A80036; stroke-width: 1.5;" x1="806.2223" x2="1040.2223" y1="619.5" y2="619.5"/><text fill="#000000" font-family="sans-serif" font-size="11" lengthAdjust="spacingAndGlyphs" textLength="117" x="811.2223" y="633.7104">SecretCombination()</text><text fill="#000000" font-family="sans-serif" font-size="11" lengthAdjust="spacingAndGlyphs" textLength="224" x="811.2223" y="646.5151">Result getResult(ProposedCombination)</text><text fill="#000000" font-family="sans-serif" font-size="11" lengthAdjust="spacingAndGlyphs" textLength="74" x="811.2223" y="659.3198">void writeln()</text><!--MD5=[cf489b19c51ee25e76ddca093e62e620]
class ProposedCombination--><rect codeLine="36" fill="#FEFECE" filter="url(#fmpkpexutbmxp)" height="112.0234" id="ProposedCombination" style="stroke: #A80036; stroke-width: 1.5;" width="181" x="171.7224" y="566.5"/><ellipse cx="194.3724" cy="582.5" fill="#ADD1B2" rx="11" ry="11" style="stroke: #A80036; stroke-width: 1.0;"/><path d="M196.7162,578.1719 C195.7787,577.7344 195.1849,577.5938 194.3099,577.5938 C191.6849,577.5938 189.6849,579.6719 189.6849,582.3906 L189.6849,583.5156 C189.6849,586.0938 191.7943,587.9844 194.6849,587.9844 C195.9037,587.9844 197.0599,587.6875 197.8099,587.1406 C198.388,586.7344 198.7162,586.2813 198.7162,585.8906 C198.7162,585.4375 198.3255,585.0469 197.8568,585.0469 C197.638,585.0469 197.4349,585.125 197.2474,585.3125 C196.7943,585.7969 196.7943,585.7969 196.6068,585.8906 C196.1849,586.1563 195.4974,586.2813 194.7318,586.2813 C192.6849,586.2813 191.388,585.1875 191.388,583.4844 L191.388,582.3906 C191.388,580.6094 192.638,579.2969 194.3724,579.2969 C194.9505,579.2969 195.5599,579.4531 196.0287,579.7031 C196.513,579.9844 196.6849,580.2031 196.7787,580.6094 C196.8412,581.0156 196.8724,581.1406 197.013,581.2656 C197.1537,581.4063 197.388,581.5156 197.6068,581.5156 C197.8724,581.5156 198.138,581.375 198.3099,581.1563 C198.4193,581 198.4505,580.8125 198.4505,580.3906 L198.4505,578.9688 C198.4505,578.5313 198.4349,578.4063 198.3412,578.25 C198.1849,577.9844 197.9037,577.8438 197.6068,577.8438 C197.3099,577.8438 197.1068,577.9375 196.888,578.25 L196.7162,578.1719 Z "/><text fill="#000000" font-family="sans-serif" font-size="12" lengthAdjust="spacingAndGlyphs" textLength="132" x="210.0724" y="586.6543">ProposedCombination</text><line style="stroke: #A80036; stroke-width: 1.5;" x1="172.7224" x2="351.7224" y1="598.5" y2="598.5"/><line style="stroke: #A80036; stroke-width: 1.5;" x1="172.7224" x2="351.7224" y1="606.5" y2="606.5"/><text fill="#000000" font-family="sans-serif" font-size="11" lengthAdjust="spacingAndGlyphs" textLength="64" x="191.7224" y="620.7104">void write()</text><text fill="#000000" font-family="sans-serif" font-size="11" lengthAdjust="spacingAndGlyphs" textLength="62" x="191.7224" y="633.5151">void read()</text><rect fill="#F24D5C" height="6" style="stroke: #C82930; stroke-width: 1.0;" width="6" x="179.7224" y="640.1094"/><text fill="#000000" font-family="sans-serif" font-size="11" lengthAdjust="spacingAndGlyphs" textLength="130" x="191.7224" y="646.3198">Error checkError(String)</text><text fill="#000000" font-family="sans-serif" font-size="11" lengthAdjust="spacingAndGlyphs" textLength="155" x="191.7224" y="659.1245">boolean contains(Color, int)</text><text fill="#000000" font-family="sans-serif" font-size="11" lengthAdjust="spacingAndGlyphs" textLength="134" x="191.7224" y="671.9292">boolean contains(Color)</text><!--MD5=[2741598bdf59a7d7e0d5c97658fd3022]
class Result--><rect codeLine="44" fill="#FEFECE" filter="url(#fmpkpexutbmxp)" height="124.8281" id="Result" style="stroke: #A80036; stroke-width: 1.5;" width="124" x="646.2223" y="560"/><ellipse cx="686.4223" cy="576" fill="#ADD1B2" rx="11" ry="11" style="stroke: #A80036; stroke-width: 1.0;"/><path d="M688.7661,571.6719 C687.8286,571.2344 687.2348,571.0938 686.3598,571.0938 C683.7348,571.0938 681.7348,573.1719 681.7348,575.8906 L681.7348,577.0156 C681.7348,579.5938 683.8442,581.4844 686.7348,581.4844 C687.9536,581.4844 689.1098,581.1875 689.8598,580.6406 C690.4379,580.2344 690.7661,579.7813 690.7661,579.3906 C690.7661,578.9375 690.3754,578.5469 689.9067,578.5469 C689.6879,578.5469 689.4848,578.625 689.2973,578.8125 C688.8442,579.2969 688.8442,579.2969 688.6567,579.3906 C688.2348,579.6563 687.5473,579.7813 686.7817,579.7813 C684.7348,579.7813 683.4379,578.6875 683.4379,576.9844 L683.4379,575.8906 C683.4379,574.1094 684.6879,572.7969 686.4223,572.7969 C687.0004,572.7969 687.6098,572.9531 688.0786,573.2031 C688.5629,573.4844 688.7348,573.7031 688.8286,574.1094 C688.8911,574.5156 688.9223,574.6406 689.0629,574.7656 C689.2036,574.9063 689.4379,575.0156 689.6567,575.0156 C689.9223,575.0156 690.1879,574.875 690.3598,574.6563 C690.4692,574.5 690.5004,574.3125 690.5004,573.8906 L690.5004,572.4688 C690.5004,572.0313 690.4848,571.9063 690.3911,571.75 C690.2348,571.4844 689.9536,571.3438 689.6567,571.3438 C689.3598,571.3438 689.1567,571.4375 688.9379,571.75 L688.7661,571.6719 Z "/><text fill="#000000" font-family="sans-serif" font-size="12" lengthAdjust="spacingAndGlyphs" textLength="36" x="706.0223" y="580.1543">Result</text><line style="stroke: #A80036; stroke-width: 1.5;" x1="647.2223" x2="769.2223" y1="592" y2="592"/><ellipse cx="657.2223" cy="603" fill="none" rx="3" ry="3" style="stroke: #038048; stroke-width: 1.0;"/><text fill="#000000" font-family="sans-serif" font-size="11" lengthAdjust="spacingAndGlyphs" text-decoration="underline" textLength="98" x="666.2223" y="606.2104">{final} int WIDTH</text><rect fill="none" height="6" style="stroke: #C82930; stroke-width: 1.0;" width="6" x="654.2223" y="612.8047"/><text fill="#000000" font-family="sans-serif" font-size="11" lengthAdjust="spacingAndGlyphs" textLength="53" x="666.2223" y="619.0151">int blacks</text><rect fill="none" height="6" style="stroke: #C82930; stroke-width: 1.0;" width="6" x="654.2223" y="625.6094"/><text fill="#000000" font-family="sans-serif" font-size="11" lengthAdjust="spacingAndGlyphs" textLength="55" x="666.2223" y="631.8198">int whites</text><line style="stroke: #A80036; stroke-width: 1.5;" x1="647.2223" x2="769.2223" y1="638.4141" y2="638.4141"/><text fill="#000000" font-family="sans-serif" font-size="11" lengthAdjust="spacingAndGlyphs" textLength="78" x="652.2223" y="652.6245">Result(int, int)</text><text fill="#000000" font-family="sans-serif" font-size="11" lengthAdjust="spacingAndGlyphs" textLength="107" x="652.2223" y="665.4292">boolean isWinner()</text><text fill="#000000" font-family="sans-serif" font-size="11" lengthAdjust="spacingAndGlyphs" textLength="74" x="652.2223" y="678.2339">void writeln()</text><!--MD5=[18eee71c88ab61f27581b8cbdd3ef5ee]
class Color--><rect codeLine="53" fill="#FEFECE" filter="url(#fmpkpexutbmxp)" height="252.875" id="Color" style="stroke: #A80036; stroke-width: 1.5;" width="186" x="388.2223" y="496"/><ellipse cx="460.9723" cy="512" fill="#EB937F" rx="11" ry="11" style="stroke: #A80036; stroke-width: 1.0;"/><path d="M459.7692,512.875 L461.2223,512.875 L461.2223,512.9844 C461.2223,513.3906 461.2536,513.5469 461.3317,513.7031 C461.4879,513.9531 461.7692,514.1094 462.0661,514.1094 C462.3161,514.1094 462.5817,513.9688 462.7379,513.75 C462.8629,513.5938 462.8942,513.4375 462.8942,512.9844 L462.8942,511.0625 C462.8942,510.9063 462.8942,510.8594 462.8786,510.7031 C462.8161,510.2344 462.5036,509.9219 462.0504,509.9219 C461.8004,509.9219 461.5348,510.0625 461.3629,510.2813 C461.2536,510.4531 461.2223,510.6094 461.2223,511.0625 L461.2223,511.1875 L459.7692,511.1875 L459.7692,508.7813 L463.7536,508.7813 L463.7536,509.6406 C463.7536,510.0469 463.7848,510.2188 463.8629,510.375 C464.0348,510.625 464.3161,510.7813 464.5973,510.7813 C464.8629,510.7813 465.1286,510.6406 465.3004,510.4219 C465.4098,510.25 465.4411,510.1094 465.4411,509.6406 L465.4411,507.0938 L457.8161,507.0938 C457.3786,507.0938 457.2536,507.1094 457.0973,507.2031 C456.8473,507.3594 456.6911,507.6563 456.6911,507.9375 C456.6911,508.2188 456.8317,508.4688 457.0504,508.6406 C457.2067,508.75 457.3942,508.7813 457.8161,508.7813 L458.0661,508.7813 L458.0661,515.2969 L457.8161,515.2969 C457.4098,515.2969 457.2536,515.3125 457.0973,515.4219 C456.8473,515.5938 456.6911,515.8594 456.6911,516.1563 C456.6911,516.4219 456.8317,516.6719 457.0504,516.8281 C457.1911,516.9531 457.4254,517 457.8161,517 L465.8161,517 L465.8161,514.4219 C465.8161,513.9844 465.7848,513.8438 465.7067,513.6875 C465.5348,513.4375 465.2536,513.2813 464.9723,513.2813 C464.7067,513.2813 464.4411,513.3906 464.2692,513.6406 C464.1598,513.7969 464.1286,513.9375 464.1286,514.4219 L464.1286,515.2969 L459.7692,515.2969 L459.7692,512.875 Z "/><text fill="#000000" font-family="sans-serif" font-size="12" lengthAdjust="spacingAndGlyphs" textLength="32" x="481.4723" y="516.1543">Color</text><line style="stroke: #A80036; stroke-width: 1.5;" x1="389.2223" x2="573.2223" y1="528" y2="528"/><text fill="#000000" font-family="sans-serif" font-size="11" lengthAdjust="spacingAndGlyphs" textLength="23" x="408.2223" y="542.2104">RED</text><text fill="#000000" font-family="sans-serif" font-size="11" lengthAdjust="spacingAndGlyphs" textLength="29" x="408.2223" y="555.0151">BLUE</text><text fill="#000000" font-family="sans-serif" font-size="11" lengthAdjust="spacingAndGlyphs" textLength="46" x="408.2223" y="567.8198">YELLOW</text><text fill="#000000" font-family="sans-serif" font-size="11" lengthAdjust="spacingAndGlyphs" textLength="38" x="408.2223" y="580.6245">GREEN</text><text fill="#000000" font-family="sans-serif" font-size="11" lengthAdjust="spacingAndGlyphs" textLength="48" x="408.2223" y="593.4292">ORANGE</text><text fill="#000000" font-family="sans-serif" font-size="11" lengthAdjust="spacingAndGlyphs" textLength="40" x="408.2223" y="606.2339">PURPLE</text><text fill="#000000" font-family="sans-serif" font-size="11" lengthAdjust="spacingAndGlyphs" textLength="73" x="408.2223" y="619.0386">NULL_COLOR</text><rect fill="none" height="6" style="stroke: #C82930; stroke-width: 1.0;" width="6" x="396.2223" y="625.6328"/><text fill="#000000" font-family="sans-serif" font-size="11" lengthAdjust="spacingAndGlyphs" textLength="67" x="408.2223" y="631.8433">String initial</text><rect fill="none" height="6" style="stroke: #C82930; stroke-width: 1.0;" width="6" x="396.2223" y="638.4375"/><text fill="#000000" font-family="sans-serif" font-size="11" lengthAdjust="spacingAndGlyphs" text-decoration="underline" textLength="160" x="408.2223" y="644.6479">{final} String RESET_COLOR</text><line style="stroke: #A80036; stroke-width: 1.5;" x1="389.2223" x2="573.2223" y1="651.2422" y2="651.2422"/><rect fill="#F24D5C" height="6" style="stroke: #C82930; stroke-width: 1.0;" width="6" x="396.2223" y="659.2422"/><text fill="#000000" font-family="sans-serif" font-size="11" lengthAdjust="spacingAndGlyphs" textLength="37" x="408.2223" y="665.4526">Color()</text><rect fill="#F24D5C" height="6" style="stroke: #C82930; stroke-width: 1.0;" width="6" x="396.2223" y="672.0469"/><text fill="#000000" font-family="sans-serif" font-size="11" lengthAdjust="spacingAndGlyphs" textLength="70" x="408.2223" y="678.2573">Color(String)</text><text fill="#000000" font-family="sans-serif" font-size="11" lengthAdjust="spacingAndGlyphs" text-decoration="underline" textLength="100" x="408.2223" y="691.062">String getInitials()</text><text fill="#000000" font-family="sans-serif" font-size="11" lengthAdjust="spacingAndGlyphs" text-decoration="underline" textLength="62" x="408.2223" y="703.8667">int length()</text><text fill="#000000" font-family="sans-serif" font-size="11" lengthAdjust="spacingAndGlyphs" text-decoration="underline" textLength="74" x="408.2223" y="716.6714">Color get(int)</text><text fill="#000000" font-family="sans-serif" font-size="11" lengthAdjust="spacingAndGlyphs" textLength="64" x="408.2223" y="729.4761">void write()</text><text fill="#000000" font-family="sans-serif" font-size="11" lengthAdjust="spacingAndGlyphs" textLength="88" x="408.2223" y="742.2808">boolean isNull()</text><!--MD5=[b8cfd8c4119a3b0a7a46bfc5fc780f85]
class Error--><rect codeLine="72" fill="#FEFECE" filter="url(#fmpkpexutbmxp)" height="163.2422" id="Error" style="stroke: #A80036; stroke-width: 1.5;" width="152" x="299.2223" y="842"/><ellipse cx="355.9723" cy="858" fill="#EB937F" rx="11" ry="11" style="stroke: #A80036; stroke-width: 1.0;"/><path d="M354.7692,858.875 L356.2223,858.875 L356.2223,858.9844 C356.2223,859.3906 356.2536,859.5469 356.3317,859.7031 C356.4879,859.9531 356.7692,860.1094 357.0661,860.1094 C357.3161,860.1094 357.5817,859.9688 357.7379,859.75 C357.8629,859.5938 357.8942,859.4375 357.8942,858.9844 L357.8942,857.0625 C357.8942,856.9063 357.8942,856.8594 357.8786,856.7031 C357.8161,856.2344 357.5036,855.9219 357.0504,855.9219 C356.8004,855.9219 356.5348,856.0625 356.3629,856.2813 C356.2536,856.4531 356.2223,856.6094 356.2223,857.0625 L356.2223,857.1875 L354.7692,857.1875 L354.7692,854.7813 L358.7536,854.7813 L358.7536,855.6406 C358.7536,856.0469 358.7848,856.2188 358.8629,856.375 C359.0348,856.625 359.3161,856.7813 359.5973,856.7813 C359.8629,856.7813 360.1286,856.6406 360.3004,856.4219 C360.4098,856.25 360.4411,856.1094 360.4411,855.6406 L360.4411,853.0938 L352.8161,853.0938 C352.3786,853.0938 352.2536,853.1094 352.0973,853.2031 C351.8473,853.3594 351.6911,853.6563 351.6911,853.9375 C351.6911,854.2188 351.8317,854.4688 352.0504,854.6406 C352.2067,854.75 352.3942,854.7813 352.8161,854.7813 L353.0661,854.7813 L353.0661,861.2969 L352.8161,861.2969 C352.4098,861.2969 352.2536,861.3125 352.0973,861.4219 C351.8473,861.5938 351.6911,861.8594 351.6911,862.1563 C351.6911,862.4219 351.8317,862.6719 352.0504,862.8281 C352.1911,862.9531 352.4254,863 352.8161,863 L360.8161,863 L360.8161,860.4219 C360.8161,859.9844 360.7848,859.8438 360.7067,859.6875 C360.5348,859.4375 360.2536,859.2813 359.9723,859.2813 C359.7067,859.2813 359.4411,859.3906 359.2692,859.6406 C359.1598,859.7969 359.1286,859.9375 359.1286,860.4219 L359.1286,861.2969 L354.7692,861.2969 L354.7692,858.875 Z "/><text fill="#000000" font-family="sans-serif" font-size="12" lengthAdjust="spacingAndGlyphs" textLength="30" x="376.4723" y="862.1543">Error</text><line style="stroke: #A80036; stroke-width: 1.5;" x1="300.2223" x2="450.2223" y1="874" y2="874"/><text fill="#000000" font-family="sans-serif" font-size="11" lengthAdjust="spacingAndGlyphs" textLength="71" x="319.2223" y="888.2104">DUPLICATED</text><text fill="#000000" font-family="sans-serif" font-size="11" lengthAdjust="spacingAndGlyphs" textLength="126" x="319.2223" y="901.0151">WRONG_CHARACTERS</text><text fill="#000000" font-family="sans-serif" font-size="11" lengthAdjust="spacingAndGlyphs" textLength="95" x="319.2223" y="913.8198">WRONG_LENGTH</text><text fill="#000000" font-family="sans-serif" font-size="11" lengthAdjust="spacingAndGlyphs" textLength="71" x="319.2223" y="926.6245">NULL_ERROR</text><rect fill="none" height="6" style="stroke: #C82930; stroke-width: 1.0;" width="6" x="307.2223" y="933.2188"/><text fill="#000000" font-family="sans-serif" font-size="11" lengthAdjust="spacingAndGlyphs" textLength="93" x="319.2223" y="939.4292">String message;</text><line style="stroke: #A80036; stroke-width: 1.5;" x1="300.2223" x2="450.2223" y1="946.0234" y2="946.0234"/><rect fill="#F24D5C" height="6" style="stroke: #C82930; stroke-width: 1.0;" width="6" x="307.2223" y="954.0234"/><text fill="#000000" font-family="sans-serif" font-size="11" lengthAdjust="spacingAndGlyphs" textLength="34" x="319.2223" y="960.2339">Error()</text><rect fill="#F24D5C" height="6" style="stroke: #C82930; stroke-width: 1.0;" width="6" x="307.2223" y="966.8281"/><text fill="#000000" font-family="sans-serif" font-size="11" lengthAdjust="spacingAndGlyphs" textLength="67" x="319.2223" y="973.0386">Error(String)</text><text fill="#000000" font-family="sans-serif" font-size="11" lengthAdjust="spacingAndGlyphs" textLength="74" x="319.2223" y="985.8433">void writeln()</text><ellipse cx="310.2223" cy="995.4375" fill="#84BE84" rx="3" ry="3" style="stroke: #038048; stroke-width: 1.0;"/><text fill="#000000" font-family="sans-serif" font-size="11" lengthAdjust="spacingAndGlyphs" textLength="88" x="319.2223" y="998.6479">boolean isNull()</text><!--MD5=[bea5b0d46523efab5ea1c1d339f396f0]
class Message--><rect codeLine="84" fill="#FEFECE" filter="url(#fmpkpexutbmxp)" height="227.2656" id="Message" style="stroke: #A80036; stroke-width: 1.5;" width="173" x="523.7223" y="810"/><ellipse cx="578.4723" cy="826" fill="#EB937F" rx="11" ry="11" style="stroke: #A80036; stroke-width: 1.0;"/><path d="M577.2692,826.875 L578.7223,826.875 L578.7223,826.9844 C578.7223,827.3906 578.7536,827.5469 578.8317,827.7031 C578.9879,827.9531 579.2692,828.1094 579.5661,828.1094 C579.8161,828.1094 580.0817,827.9688 580.2379,827.75 C580.3629,827.5938 580.3942,827.4375 580.3942,826.9844 L580.3942,825.0625 C580.3942,824.9063 580.3942,824.8594 580.3786,824.7031 C580.3161,824.2344 580.0036,823.9219 579.5504,823.9219 C579.3004,823.9219 579.0348,824.0625 578.8629,824.2813 C578.7536,824.4531 578.7223,824.6094 578.7223,825.0625 L578.7223,825.1875 L577.2692,825.1875 L577.2692,822.7813 L581.2536,822.7813 L581.2536,823.6406 C581.2536,824.0469 581.2848,824.2188 581.3629,824.375 C581.5348,824.625 581.8161,824.7813 582.0973,824.7813 C582.3629,824.7813 582.6286,824.6406 582.8004,824.4219 C582.9098,824.25 582.9411,824.1094 582.9411,823.6406 L582.9411,821.0938 L575.3161,821.0938 C574.8786,821.0938 574.7536,821.1094 574.5973,821.2031 C574.3473,821.3594 574.1911,821.6563 574.1911,821.9375 C574.1911,822.2188 574.3317,822.4688 574.5504,822.6406 C574.7067,822.75 574.8942,822.7813 575.3161,822.7813 L575.5661,822.7813 L575.5661,829.2969 L575.3161,829.2969 C574.9098,829.2969 574.7536,829.3125 574.5973,829.4219 C574.3473,829.5938 574.1911,829.8594 574.1911,830.1563 C574.1911,830.4219 574.3317,830.6719 574.5504,830.8281 C574.6911,830.9531 574.9254,831 575.3161,831 L583.3161,831 L583.3161,828.4219 C583.3161,827.9844 583.2848,827.8438 583.2067,827.6875 C583.0348,827.4375 582.7536,827.2813 582.4723,827.2813 C582.2067,827.2813 581.9411,827.3906 581.7692,827.6406 C581.6598,827.7969 581.6286,827.9375 581.6286,828.4219 L581.6286,829.2969 L577.2692,829.2969 L577.2692,826.875 Z "/><text fill="#000000" font-family="sans-serif" font-size="12" lengthAdjust="spacingAndGlyphs" textLength="55" x="598.9723" y="830.1543">Message</text><line style="stroke: #A80036; stroke-width: 1.5;" x1="524.7223" x2="695.7223" y1="842" y2="842"/><text fill="#000000" font-family="sans-serif" font-size="11" lengthAdjust="spacingAndGlyphs" textLength="59" x="543.7223" y="856.2104">ATTEMPTS</text><text fill="#000000" font-family="sans-serif" font-size="11" lengthAdjust="spacingAndGlyphs" textLength="130" x="543.7223" y="869.0151">SECRET_COMBINATION</text><text fill="#000000" font-family="sans-serif" font-size="11" lengthAdjust="spacingAndGlyphs" textLength="46" x="543.7223" y="881.8198">RESUME</text><text fill="#000000" font-family="sans-serif" font-size="11" lengthAdjust="spacingAndGlyphs" textLength="43" x="543.7223" y="894.6245">RESULT</text><text fill="#000000" font-family="sans-serif" font-size="11" lengthAdjust="spacingAndGlyphs" textLength="147" x="543.7223" y="907.4292">PROPOSED_COMBINATION</text><text fill="#000000" font-family="sans-serif" font-size="11" lengthAdjust="spacingAndGlyphs" textLength="30" x="543.7223" y="920.2339">TITLE</text><text fill="#000000" font-family="sans-serif" font-size="11" lengthAdjust="spacingAndGlyphs" textLength="44" x="543.7223" y="933.0386">WINNER</text><text fill="#000000" font-family="sans-serif" font-size="11" lengthAdjust="spacingAndGlyphs" textLength="46" x="543.7223" y="945.8433">LOOSER</text><rect fill="none" height="6" style="stroke: #C82930; stroke-width: 1.0;" width="6" x="531.7223" y="952.4375"/><text fill="#000000" font-family="sans-serif" font-size="11" lengthAdjust="spacingAndGlyphs" textLength="93" x="543.7223" y="958.6479">String message;</text><line style="stroke: #A80036; stroke-width: 1.5;" x1="524.7223" x2="695.7223" y1="965.2422" y2="965.2422"/><rect fill="#F24D5C" height="6" style="stroke: #C82930; stroke-width: 1.0;" width="6" x="531.7223" y="973.2422"/><text fill="#000000" font-family="sans-serif" font-size="11" lengthAdjust="spacingAndGlyphs" textLength="92" x="543.7223" y="979.4526">Message(String)</text><text fill="#000000" font-family="sans-serif" font-size="11" lengthAdjust="spacingAndGlyphs" textLength="64" x="543.7223" y="992.2573">void write()</text><text fill="#000000" font-family="sans-serif" font-size="11" lengthAdjust="spacingAndGlyphs" textLength="74" x="543.7223" y="1005.062">void writeln()</text><text fill="#000000" font-family="sans-serif" font-size="11" lengthAdjust="spacingAndGlyphs" textLength="88" x="543.7223" y="1017.8667">void writeln(int)</text><text fill="#000000" font-family="sans-serif" font-size="11" lengthAdjust="spacingAndGlyphs" textLength="109" x="543.7223" y="1030.6714">void writeln(int, int)</text><!--MD5=[315b61b427ec618d6861d47eee00cca3]
class Console--><rect codeLine="124" fill="#FEFECE" filter="url(#fmpkpexutbmxp)" height="48" id="Console" style="stroke: #A80036; stroke-width: 1.5;" width="81" x="1097.7223" y="1100"/><ellipse cx="1112.7223" cy="1116" fill="#ADD1B2" rx="11" ry="11" style="stroke: #A80036; stroke-width: 1.0;"/><path d="M1115.0661,1111.6719 C1114.1286,1111.2344 1113.5348,1111.0938 1112.6598,1111.0938 C1110.0348,1111.0938 1108.0348,1113.1719 1108.0348,1115.8906 L1108.0348,1117.0156 C1108.0348,1119.5938 1110.1442,1121.4844 1113.0348,1121.4844 C1114.2536,1121.4844 1115.4098,1121.1875 1116.1598,1120.6406 C1116.7379,1120.2344 1117.0661,1119.7813 1117.0661,1119.3906 C1117.0661,1118.9375 1116.6754,1118.5469 1116.2067,1118.5469 C1115.9879,1118.5469 1115.7848,1118.625 1115.5973,1118.8125 C1115.1442,1119.2969 1115.1442,1119.2969 1114.9567,1119.3906 C1114.5348,1119.6563 1113.8473,1119.7813 1113.0817,1119.7813 C1111.0348,1119.7813 1109.7379,1118.6875 1109.7379,1116.9844 L1109.7379,1115.8906 C1109.7379,1114.1094 1110.9879,1112.7969 1112.7223,1112.7969 C1113.3004,1112.7969 1113.9098,1112.9531 1114.3786,1113.2031 C1114.8629,1113.4844 1115.0348,1113.7031 1115.1286,1114.1094 C1115.1911,1114.5156 1115.2223,1114.6406 1115.3629,1114.7656 C1115.5036,1114.9063 1115.7379,1115.0156 1115.9567,1115.0156 C1116.2223,1115.0156 1116.4879,1114.875 1116.6598,1114.6563 C1116.7692,1114.5 1116.8004,1114.3125 1116.8004,1113.8906 L1116.8004,1112.4688 C1116.8004,1112.0313 1116.7848,1111.9063 1116.6911,1111.75 C1116.5348,1111.4844 1116.2536,1111.3438 1115.9567,1111.3438 C1115.6598,1111.3438 1115.4567,1111.4375 1115.2379,1111.75 L1115.0661,1111.6719 Z "/><text fill="#000000" font-family="sans-serif" font-size="12" lengthAdjust="spacingAndGlyphs" textLength="49" x="1126.7223" y="1120.1543">Console</text><line style="stroke: #A80036; stroke-width: 1.5;" x1="1098.7223" x2="1177.7223" y1="1132" y2="1132"/><line style="stroke: #A80036; stroke-width: 1.5;" x1="1098.7223" x2="1177.7223" y1="1140" y2="1140"/><!--MD5=[d93cf99d2b92276f27fe8dbf15140505]
class YesNoDialog--><rect codeLine="129" fill="#FEFECE" filter="url(#fmpkpexutbmxp)" height="48" id="YesNoDialog" style="stroke: #A80036; stroke-width: 1.5;" width="108" x="1228.2213" y="899.5"/><ellipse cx="1243.2213" cy="915.5" fill="#ADD1B2" rx="11" ry="11" style="stroke: #A80036; stroke-width: 1.0;"/><path d="M1245.5651,911.1719 C1244.6276,910.7344 1244.0338,910.5938 1243.1588,910.5938 C1240.5338,910.5938 1238.5338,912.6719 1238.5338,915.3906 L1238.5338,916.5156 C1238.5338,919.0938 1240.6432,920.9844 1243.5338,920.9844 C1244.7526,920.9844 1245.9088,920.6875 1246.6588,920.1406 C1247.2369,919.7344 1247.5651,919.2813 1247.5651,918.8906 C1247.5651,918.4375 1247.1744,918.0469 1246.7057,918.0469 C1246.4869,918.0469 1246.2838,918.125 1246.0963,918.3125 C1245.6432,918.7969 1245.6432,918.7969 1245.4557,918.8906 C1245.0338,919.1563 1244.3463,919.2813 1243.5807,919.2813 C1241.5338,919.2813 1240.2369,918.1875 1240.2369,916.4844 L1240.2369,915.3906 C1240.2369,913.6094 1241.4869,912.2969 1243.2213,912.2969 C1243.7994,912.2969 1244.4088,912.4531 1244.8776,912.7031 C1245.3619,912.9844 1245.5338,913.2031 1245.6276,913.6094 C1245.6901,914.0156 1245.7213,914.1406 1245.8619,914.2656 C1246.0026,914.4063 1246.2369,914.5156 1246.4557,914.5156 C1246.7213,914.5156 1246.9869,914.375 1247.1588,914.1563 C1247.2682,914 1247.2994,913.8125 1247.2994,913.3906 L1247.2994,911.9688 C1247.2994,911.5313 1247.2838,911.4063 1247.1901,911.25 C1247.0338,910.9844 1246.7526,910.8438 1246.4557,910.8438 C1246.1588,910.8438 1245.9557,910.9375 1245.7369,911.25 L1245.5651,911.1719 Z "/><text fill="#000000" font-family="sans-serif" font-size="12" lengthAdjust="spacingAndGlyphs" textLength="76" x="1257.2213" y="919.6543">YesNoDialog</text><line style="stroke: #A80036; stroke-width: 1.5;" x1="1229.2213" x2="1335.2213" y1="931.5" y2="931.5"/><line style="stroke: #A80036; stroke-width: 1.5;" x1="1229.2213" x2="1335.2213" y1="939.5" y2="939.5"/><!--MD5=[5f6eaca964039dd95284677bcb120bda]
class usantatecla.utils.ColorCode--><rect fill="#FEFECE" filter="url(#fmpkpexutbmxp)" height="48" id="usantatecla.utils.ColorCode" style="stroke: #A80036; stroke-width: 1.5;" width="96" x="1097.2223" y="899.5"/><ellipse cx="1112.2223" cy="915.5" fill="#ADD1B2" rx="11" ry="11" style="stroke: #A80036; stroke-width: 1.0;"/><path d="M1114.5661,911.1719 C1113.6286,910.7344 1113.0348,910.5938 1112.1598,910.5938 C1109.5348,910.5938 1107.5348,912.6719 1107.5348,915.3906 L1107.5348,916.5156 C1107.5348,919.0938 1109.6442,920.9844 1112.5348,920.9844 C1113.7536,920.9844 1114.9098,920.6875 1115.6598,920.1406 C1116.2379,919.7344 1116.5661,919.2813 1116.5661,918.8906 C1116.5661,918.4375 1116.1754,918.0469 1115.7067,918.0469 C1115.4879,918.0469 1115.2848,918.125 1115.0973,918.3125 C1114.6442,918.7969 1114.6442,918.7969 1114.4567,918.8906 C1114.0348,919.1563 1113.3473,919.2813 1112.5817,919.2813 C1110.5348,919.2813 1109.2379,918.1875 1109.2379,916.4844 L1109.2379,915.3906 C1109.2379,913.6094 1110.4879,912.2969 1112.2223,912.2969 C1112.8004,912.2969 1113.4098,912.4531 1113.8786,912.7031 C1114.3629,912.9844 1114.5348,913.2031 1114.6286,913.6094 C1114.6911,914.0156 1114.7223,914.1406 1114.8629,914.2656 C1115.0036,914.4063 1115.2379,914.5156 1115.4567,914.5156 C1115.7223,914.5156 1115.9879,914.375 1116.1598,914.1563 C1116.2692,914 1116.3004,913.8125 1116.3004,913.3906 L1116.3004,911.9688 C1116.3004,911.5313 1116.2848,911.4063 1116.1911,911.25 C1116.0348,910.9844 1115.7536,910.8438 1115.4567,910.8438 C1115.1598,910.8438 1114.9567,910.9375 1114.7379,911.25 L1114.5661,911.1719 Z "/><text fill="#000000" font-family="sans-serif" font-size="12" lengthAdjust="spacingAndGlyphs" textLength="64" x="1126.2223" y="919.6543">ColorCode</text><line style="stroke: #A80036; stroke-width: 1.5;" x1="1098.2223" x2="1192.2223" y1="931.5" y2="931.5"/><line style="stroke: #A80036; stroke-width: 1.5;" x1="1098.2223" x2="1192.2223" y1="939.5" y2="939.5"/><!--MD5=[ba28573f2062cf9f5d1d4aa517f0cc38]
link Mastermind to Board--><path codeLine="103" d="M416.3263,160.0212 C416.3263,160.0212 475.4433,201.16 505.5453,222.111 " fill="none" id="Mastermind-Board" style="stroke: #A80036; stroke-width: 1.0;"/><polygon fill="#A80036" points="516.5933,229.8,511.4911,221.3758,512.4893,226.9439,506.9213,227.9421,516.5933,229.8" style="stroke: #A80036; stroke-width: 1.0;"/><line style="stroke: #A80036; stroke-width: 1.0;" x1="512.4893" x2="505.9233" y1="226.9439" y2="222.3735"/><polygon fill="#A80036" points="406.4813,153.16,409.1168,159.8723,416.3263,160.0212,413.6909,153.3089,406.4813,153.16" style="stroke: #A80036; stroke-width: 1.0;"/><text fill="#000000" font-family="sans-serif" font-size="13" lengthAdjust="spacingAndGlyphs" textLength="37" x="471.2223" y="196.0669">board</text><!--MD5=[165aae362738a81ed253bf2cad9e16e5]
link Mastermind to ProposedCombination--><path codeLine="104" d="M310.2153,153.06 C303.5893,176.55 296.5593,204.404 292.2223,230 C272.5673,346.01 265.7783,483.561 263.4413,560.865 " fill="none" id="Mastermind-to-ProposedCombination" style="stroke: #A80036; stroke-width: 1.0; stroke-dasharray: 7.0,7.0;"/><polygon fill="#A80036" points="263.2813,566.326,267.5444,557.4476,263.4284,561.3282,259.5479,557.2122,263.2813,566.326" style="stroke: #A80036; stroke-width: 1.0;"/><!--MD5=[5e915b8ab835b2366405aaf6901e131b]
link Board to SecretCombination--><path codeLine="105" d="M745.4043,427.9924 C745.4043,427.9924 839.5293,530.422 875.1303,569.165 " fill="none" id="Board-SecretCombination" style="stroke: #A80036; stroke-width: 1.0;"/><polygon fill="#A80036" points="884.3233,579.169,881.1795,569.8354,880.9404,575.4872,875.2886,575.2481,884.3233,579.169" style="stroke: #A80036; stroke-width: 1.0;"/><line style="stroke: #A80036; stroke-width: 1.0;" x1="880.9404" x2="875.5278" y1="575.4872" y2="569.5965"/><polygon fill="#A80036" points="737.2853,419.156,738.3994,426.2805,745.4043,427.9924,744.2903,420.8678,737.2853,419.156" style="stroke: #A80036; stroke-width: 1.0;"/><text fill="#000000" font-family="sans-serif" font-size="13" lengthAdjust="spacingAndGlyphs" textLength="121" x="780.2223" y="462.0669">secretCombination</text><!--MD5=[e0b5d9907fda64872c10fd6493e0c51f]
link Board to ProposedCombination--><path codeLine="106" d="M495.1863,417.3888 C495.1863,417.3888 382.2893,485.778 370.2223,496 C349.3013,513.722 328.9763,535.661 311.7083,556.213 " fill="none" id="Board-ProposedCombination" style="stroke: #A80036; stroke-width: 1.0;"/><polygon fill="#A80036" points="303.2303,566.485,312.0444,562.0905,306.4132,562.629,305.8748,556.9978,303.2303,566.485" style="stroke: #A80036; stroke-width: 1.0;"/><line style="stroke: #A80036; stroke-width: 1.0;" x1="306.4132" x2="311.5063" y1="562.629" y2="556.4595"/><polygon fill="#FFFFFF" points="505.4883,411.235,498.286,410.8779,495.1863,417.3888,502.3886,417.7459,505.4883,411.235" style="stroke: #A80036; stroke-width: 1.0;"/><text fill="#000000" font-family="sans-serif" font-size="13" lengthAdjust="spacingAndGlyphs" textLength="148" x="437.2223" y="462.0669">proposedCombinations</text><text fill="#000000" font-family="sans-serif" font-size="13" lengthAdjust="spacingAndGlyphs" textLength="32" x="274.4344" y="555.421">0..10</text><!--MD5=[8dd95aff79c51151a18c835e3410b3cd]
link Board to Result--><path codeLine="107" d="M671.5269,430.9394 C671.5269,430.9394 687.1353,511.993 693.8313,546.768 " fill="none" id="Board-Result" style="stroke: #A80036; stroke-width: 1.0;"/><polygon fill="#A80036" points="696.3253,559.719,698.5511,550.1249,695.3797,554.8092,690.6954,551.6379,696.3253,559.719" style="stroke: #A80036; stroke-width: 1.0;"/><line style="stroke: #A80036; stroke-width: 1.0;" x1="695.3797" x2="693.8673" y1="554.8092" y2="546.9535"/><polygon fill="#FFFFFF" points="669.2573,419.156,666.4643,425.8043,671.5269,430.9394,674.3199,424.2912,669.2573,419.156" style="stroke: #A80036; stroke-width: 1.0;"/><text fill="#000000" font-family="sans-serif" font-size="13" lengthAdjust="spacingAndGlyphs" textLength="43" x="679.2223" y="462.0669">results</text><text fill="#000000" font-family="sans-serif" font-size="13" lengthAdjust="spacingAndGlyphs" textLength="32" x="661.2741" y="549.1156">0..10</text><!--MD5=[6e8433e42d71f9427401b78cd95c6f0c]
link Combination to Color--><path codeLine="109" d="M365.6348,373.5388 C365.6348,373.5388 361.9263,436.761 371.2223,466 C374.1833,475.313 377.9263,484.547 382.2313,493.598 " fill="none" id="Combination-Color" style="stroke: #A80036; stroke-width: 1.0;"/><polygon fill="#A80036" points="388.1963,505.381,387.7003,495.5446,385.9381,500.92,380.5627,499.1578,388.1963,505.381" style="stroke: #A80036; stroke-width: 1.0;"/><line style="stroke: #A80036; stroke-width: 1.0;" x1="385.9381" x2="382.3248" y1="500.92" y2="493.782"/><polygon fill="#A80036" points="367.1433,361.634,362.4208,367.0836,365.6348,373.5388,370.3573,368.0892,367.1433,361.634" style="stroke: #A80036; stroke-width: 1.0;"/><text fill="#000000" font-family="sans-serif" font-size="13" lengthAdjust="spacingAndGlyphs" textLength="38" x="372.2223" y="462.0669">colors</text><text fill="#000000" font-family="sans-serif" font-size="13" lengthAdjust="spacingAndGlyphs" textLength="8" x="372.1613" y="492.1386">4</text><!--MD5=[ed81d3472c9069d2de3c2f5cd308846f]
reverse link Combination to SecretCombination--><path codeLine="110" d="M424.9323,375.038 C443.5923,391.019 465.6983,407.544 488.2223,419 C506.7433,428.419 649.0983,460.829 669.2223,466 C721.6323,479.467 739.6593,470.194 787.2223,496 C826.0513,517.067 862.4033,551.709 887.7383,579.265 " fill="none" id="Combination-backto-SecretCombination" style="stroke: #A80036; stroke-width: 1.0;"/><polygon fill="none" points="420.0943,380.103,409.8173,361.572,429.4073,369.65,420.0943,380.103" style="stroke: #A80036; stroke-width: 1.0;"/><!--MD5=[2f10888865b2f559cc24db01ac34cee3]
reverse link Combination to ProposedCombination--><path codeLine="111" d="M353.3413,380.685 C333.2973,433.66 303.1873,513.236 283.1323,566.237 " fill="none" id="Combination-backto-ProposedCombination" style="stroke: #A80036; stroke-width: 1.0;"/><polygon fill="none" points="346.8643,378.024,360.4893,361.795,359.9583,382.978,346.8643,378.024" style="stroke: #A80036; stroke-width: 1.0;"/><!--MD5=[03e1adeaed11e2ac298b9b43cd912fbb]
link ProposedCombination to Error--><path codeLine="112" d="M283.0803,678.69 C299.8523,723.071 323.7083,786.194 342.9443,837.091 " fill="none" id="ProposedCombination-to-Error" style="stroke: #A80036; stroke-width: 1.0; stroke-dasharray: 7.0,7.0;"/><polygon fill="#A80036" points="344.7903,841.977,345.3512,832.1441,343.0231,837.2997,337.8675,834.9716,344.7903,841.977" style="stroke: #A80036; stroke-width: 1.0;"/><!--MD5=[c90363da1e54012406e61a987ebdf2c8]
link Mastermind to Message--><path codeLine="115" d="M283.6353,153.29 C193.307,274.925 6,569.212 154.2224,749 C244.6563,858.693 339.0553,750.614 468.2223,810 C485.8733,818.115 503.2723,828.863 519.5143,840.501 " fill="none" id="Mastermind-to-Message" style="stroke: #A80036; stroke-width: 1.0; stroke-dasharray: 7.0,7.0;"/><polygon fill="#A80036" points="523.6183,843.478,518.6804,834.9565,519.5705,840.5428,513.9841,841.433,523.6183,843.478" style="stroke: #A80036; stroke-width: 1.0;"/><!--MD5=[f93e57f7ded8581437b27fa1712e0f0d]
link Board to Message--><path codeLine="116" d="M637.0173,419.13 C633.6663,444.059 630.4303,471.008 628.2223,496 C619.0283,600.048 614.5023,718.805 612.2903,804.536 " fill="none" id="Board-to-Message" style="stroke: #A80036; stroke-width: 1.0; stroke-dasharray: 7.0,7.0;"/><polygon fill="#A80036" points="612.1613,809.62,616.3889,800.7246,612.2884,804.6216,608.3914,800.5212,612.1613,809.62" style="stroke: #A80036; stroke-width: 1.0;"/><!--MD5=[b9347c562a69bbba75d70bb21299d009]
link ProposedCombination to Message--><path codeLine="117" d="M303.5983,678.696 C322.4713,701.887 345.9933,728.239 370.2223,749 C409.1803,782.383 426.2703,780.468 468.2223,810 C485.0563,821.85 502.5643,834.995 519.3013,847.998 " fill="none" id="ProposedCombination-to-Message" style="stroke: #A80036; stroke-width: 1.0; stroke-dasharray: 7.0,7.0;"/><polygon fill="#A80036" points="523.5393,851.299,518.8979,842.6124,519.595,848.2261,513.9813,848.9233,523.5393,851.299" style="stroke: #A80036; stroke-width: 1.0;"/><!--MD5=[478a268921f9a7a4cb7b8daeb48ad6b0]
link Result to Message--><path codeLine="118" d="M688.0353,685.09 C676.7013,719.671 662.1783,763.983 648.7533,804.94 " fill="none" id="Result-to-Message" style="stroke: #A80036; stroke-width: 1.0; stroke-dasharray: 7.0,7.0;"/><polygon fill="#A80036" points="647.1223,809.917,653.7262,802.6103,648.6794,805.1656,646.124,800.1189,647.1223,809.917" style="stroke: #A80036; stroke-width: 1.0;"/><!--MD5=[463cc8af4a3cc64d4486d23129543027]
link YesNoDialog to Console--><path codeLine="135" d="M1273.4613,947.591 C1261.9413,976.094 1239.7813,1025.183 1211.2213,1061 C1200.8813,1073.965 1187.5213,1086.2374 1175.0613,1096.3895 " fill="none" id="YesNoDialog-to-Console" style="stroke: #A80036; stroke-width: 1.0; stroke-dasharray: 7.0,7.0;"/><polygon fill="#A80036" points="1170.8713,1099.7491,1180.3943,1097.2367,1174.7712,1096.6201,1175.3878,1090.9969,1170.8713,1099.7491" style="stroke: #A80036; stroke-width: 1.0;"/><!--MD5=[922eb40535b2da68a8faa8740884533b]
link Board to Console--><path codeLine="136" d="M797.0753,370.802 C973.8933,435.188 1259.9413,572.527 1354.2213,810 C1395.3913,913.682 1421.3413,971.899 1354.2213,1061 C1333.7713,1088.1479 1241.0913,1107.0624 1183.9813,1116.3748 " fill="none" id="Board-to-Console" style="stroke: #A80036; stroke-width: 1.0; stroke-dasharray: 7.0,7.0;"/><polygon fill="#A80036" points="1178.9113,1117.1917,1188.4353,1119.7004,1183.8469,1116.3918,1187.1555,1111.8034,1178.9113,1117.1917" style="stroke: #A80036; stroke-width: 1.0;"/><!--MD5=[913a83e29969536c5e075cf265ec81cd]
link Color to Console--><path codeLine="137" d="M388.1163,732.306 C382.2033,738.096 376.2163,743.703 370.2223,749 C334.2883,780.755 303.5783,767.575 281.2223,810 C229.2173,908.692 205.2403,979.322 281.2223,1061 C336.7833,1120.7258 923.0503,1123.6517 1092.5603,1123.2379 " fill="none" id="Color-to-Console" style="stroke: #A80036; stroke-width: 1.0; stroke-dasharray: 7.0,7.0;"/><polygon fill="#A80036" points="1097.6933,1123.2241,1088.6819,1119.2498,1092.6933,1123.2384,1088.7048,1127.2498,1097.6933,1123.2241" style="stroke: #A80036; stroke-width: 1.0;"/><!--MD5=[42b148366534e08341523a69727818ae]
link Color to usantatecla.utils.ColorCode--><path codeLine="138" d="M574.2733,716.05 C591.1563,728.857 609.4123,740.511 628.2223,749 C803.7573,828.223 890.4893,713.621 1057.2223,810 C1091.3163,829.708 1116.9713,868.259 1131.5413,894.69 " fill="none" id="Color-to-usantatecla.utils.ColorCode" style="stroke: #A80036; stroke-width: 1.0; stroke-dasharray: 7.0,7.0;"/><polygon fill="#A80036" points="1133.9613,899.149,1133.1927,889.3302,1131.5803,894.7523,1126.1581,893.1399,1133.9613,899.149" style="stroke: #A80036; stroke-width: 1.0;"/><!--MD5=[702d0bc4071943235df53e25e5a40cdb]
link Error to Console--><path codeLine="139" d="M434.8203,1005.253 C455.0073,1026.928 479.3323,1047.949 506.2223,1061 C609.7973,1111.2717 965.0263,1120.7829 1092.3523,1122.5812 " fill="none" id="Error-to-Console" style="stroke: #A80036; stroke-width: 1.0; stroke-dasharray: 7.0,7.0;"/><polygon fill="#A80036" points="1097.5143,1122.6516,1088.57,1118.5285,1092.5148,1122.583,1088.4603,1126.5278,1097.5143,1122.6516" style="stroke: #A80036; stroke-width: 1.0;"/><!--MD5=[fde603ad956a440325a7db2e94c3d038]
link Message to Console--><path codeLine="140" d="M697.0963,1016.512 C721.1483,1037.155 748.5773,1056.82 777.2223,1070 C832.5313,1095.4489 1008.3193,1112.5622 1092.4703,1119.5093 " fill="none" id="Message-to-Console" style="stroke: #A80036; stroke-width: 1.0; stroke-dasharray: 7.0,7.0;"/><polygon fill="#A80036" points="1097.6343,1119.9323,1088.9913,1115.2102,1092.651,1119.5237,1088.3375,1123.1835,1097.6343,1119.9323" style="stroke: #A80036; stroke-width: 1.0;"/><!--MD5=[6bfe31e80e6e77060baa4b8d6064148a]
link ProposedCombination to Console--><path codeLine="141" d="M296.6083,678.63 C315.2883,703.996 340.6253,732.138 370.2223,749 C505.1373,825.863 576.5993,738.098 714.2223,810 C853.7733,882.909 831.2293,976.72 964.2223,1061 C1004.2743,1086.3817 1056.1063,1103.1267 1092.7493,1112.7444 " fill="none" id="ProposedCombination-to-Console" style="stroke: #A80036; stroke-width: 1.0; stroke-dasharray: 7.0,7.0;"/><polygon fill="#A80036" points="1097.5903,1113.9969,1089.8796,1107.8695,1092.7498,1112.7441,1087.8751,1115.6143,1097.5903,1113.9969" style="stroke: #A80036; stroke-width: 1.0;"/><!--MD5=[336a78eb14894e486e0ed36e439320b7]
link SecretCombination to Console--><path codeLine="142" d="M932.0273,665.548 C950.2933,746.625 997.5623,928.274 1079.2223,1061 C1087.0583,1073.736 1097.8523,1086.0407 1108.0613,1096.2844 " fill="none" id="SecretCombination-to-Console" style="stroke: #A80036; stroke-width: 1.0; stroke-dasharray: 7.0,7.0;"/><polygon fill="#A80036" points="1111.8013,1099.9621,1108.187,1090.8004,1108.2356,1096.457,1102.5789,1096.5056,1111.8013,1099.9621" style="stroke: #A80036; stroke-width: 1.0;"/><!--MD5=[1499d68dab61e96ede2ae386f5ea1cf6]
link Mastermind to YesNoDialog--><path codeLine="143" d="M418.3123,107.61 C520.7633,121.7 689.1483,154.97 814.2223,230 C1087.3743,393.859 1236.1913,785.885 1273.0613,894.297 " fill="none" id="Mastermind-to-YesNoDialog" style="stroke: #A80036; stroke-width: 1.0; stroke-dasharray: 7.0,7.0;"/><polygon fill="#A80036" points="1274.7313,899.243,1275.6419,889.4363,1273.1318,894.5058,1268.0623,891.9956,1274.7313,899.243" style="stroke: #A80036; stroke-width: 1.0;"/><!--MD5=[2340979b50067da2ba9db7009798aa7f]
@startuml
package usantatecla.mastermind {
class Mastermind {
	- Board board
	+ void play()
	- void playGame()
	- boolean isResumedGame()
	+ {static} void main(String[])
}


class Board {
  - {static} {final} int MAX_ATTEMPS
  - SecretCombination secretCombination
  - ProposedCombination[] proposedCombinations
  - Result[] results 
  - int attempts
  Board()
  + void writeln()
  + void add(ProposedCombination)
  +  boolean isFinished()
  + boolean isWinner()
  - boolean isLooser()
}

abstract class Combination {
	~ List<Color> colors
	~ Combination ()
}

class SecretCombination {
	SecretCombination()
	Result getResult(ProposedCombination)
	void writeln()
}

class ProposedCombination {
	void write()
	void read()
	- Error checkError(String)
	boolean contains(Color, int)
	boolean contains(Color)
}

class Result{
	+ {static} {final} int WIDTH
	- int blacks
	- int whites
	Result(int, int)
	boolean isWinner()
	void writeln()
}

enum Color {
	RED
	BLUE
	YELLOW
	GREEN
	ORANGE
	PURPLE
	NULL_COLOR
	- String initial
	- {static} {final} String RESET_COLOR
	- Color()
	- Color(String)
	{static} String getInitials()
	{static} int length()
	{static} Color get(int)
	void write()
	boolean isNull()
}

enum Error {
	DUPLICATED
	WRONG_CHARACTERS
	WRONG_LENGTH
	NULL_ERROR
	- String message;
	- Error()
	- Error(String)
	void writeln()
	+ boolean isNull()
}

enum Message {
	ATTEMPTS
	SECRET_COMBINATION
	RESUME
	RESULT
	PROPOSED_COMBINATION
	TITLE
	WINNER
	LOOSER
	- String message;
	- Message(String)
	void write()
	void writeln()
	void writeln(int)
	void writeln(int, int)
}



Mastermind *-down-> Board : board
Mastermind .down.> ProposedCombination
Board *-down-> SecretCombination : secretCombination
Board o-down-> "0..10" ProposedCombination : proposedCombinations
Board o-down-> "0..10" Result : results

Combination *-down-> "4" Color : colors
Combination <|-down- SecretCombination
Combination <|-down- ProposedCombination
ProposedCombination .down.> Error


Mastermind .down.> Message
Board .down.> Message
ProposedCombination .down.> Message
Result .down.> Message

}

package usantatecla.utils {

class Console {


}

class YesNoDialog {

}

}

YesNoDialog .down.> Console
Board .down.> Console
Color .down.> Console
Color .down.> usantatecla.utils.ColorCode
Error .down.> Console
Message .down.> Console
ProposedCombination .down.> Console
SecretCombination .down.> Console
Mastermind .down.> YesNoDialog
@enduml

PlantUML version 1.2020.20beta4(Unknown compile time)
(GPL source distribution)
Java Runtime: Java(TM) SE Runtime Environment
JVM: Java HotSpot(TM) 64-Bit Server VM
Default Encoding: UTF-8
Language: en
Country: US
--></g></svg>