<?xml version="1.0" encoding="UTF-8" standalone="no"?><svg xmlns="http://www.w3.org/2000/svg" xmlns:xlink="http://www.w3.org/1999/xlink" contentScriptType="application/ecmascript" contentStyleType="text/css" height="1123px" preserveAspectRatio="none" style="width:1272px;height:1123px;" version="1.1" viewBox="0 0 1272 1123" width="1272px" zoomAndPan="magnify"><defs><filter height="300%" id="ffs22qtx3ygwy" width="300%" x="-1" y="-1"><feGaussianBlur result="blurOut" stdDeviation="2.0"/><feColorMatrix in="blurOut" result="blurOut2" type="matrix" values="0 0 0 0 0 0 0 0 0 0 0 0 0 0 0 0 0 0 .4 0"/><feOffset dx="4.0" dy="4.0" in="blurOut2" result="blurOut3"/><feBlend in="SourceGraphic" in2="blurOut3" mode="normal"/></filter></defs><g><!--MD5=[9be0839337cfdab5d118a2e29cf0a8c4]
cluster usantatecla.mastermind--><polygon fill="#FFFFFF" filter="url(#ffs22qtx3ygwy)" points="16.3203,6,223.3203,6,230.3203,28.2969,962.3203,28.2969,962.3203,1014,16.3203,1014,16.3203,6" style="stroke: #000000; stroke-width: 1.5;"/><line style="stroke: #000000; stroke-width: 1.5;" x1="16.3203" x2="230.3203" y1="28.2969" y2="28.2969"/><text fill="#000000" font-family="sans-serif" font-size="14" font-weight="bold" lengthAdjust="spacingAndGlyphs" textLength="201" x="20.3203" y="20.9951">usantatecla.mastermind</text><!--MD5=[7283a9eed84464550b6d5ebf39c68b05]
class Mastermind--><rect codeLine="2" fill="#FEFECE" filter="url(#ffs22qtx3ygwy)" height="99.2188" id="Mastermind" style="stroke: #A80036; stroke-width: 1.5;" width="185" x="284.8203" y="41"/><ellipse cx="338.0703" cy="57" fill="#ADD1B2" rx="11" ry="11" style="stroke: #A80036; stroke-width: 1.0;"/><path d="M340.414,52.6719 C339.4765,52.2344 338.8828,52.0938 338.0078,52.0938 C335.3828,52.0938 333.3828,54.1719 333.3828,56.8906 L333.3828,58.0156 C333.3828,60.5938 335.4921,62.4844 338.3828,62.4844 C339.6015,62.4844 340.7578,62.1875 341.5078,61.6406 C342.0859,61.2344 342.414,60.7813 342.414,60.3906 C342.414,59.9375 342.0234,59.5469 341.5546,59.5469 C341.3359,59.5469 341.1328,59.625 340.9453,59.8125 C340.4921,60.2969 340.4921,60.2969 340.3046,60.3906 C339.8828,60.6563 339.1953,60.7813 338.4296,60.7813 C336.3828,60.7813 335.0859,59.6875 335.0859,57.9844 L335.0859,56.8906 C335.0859,55.1094 336.3359,53.7969 338.0703,53.7969 C338.6484,53.7969 339.2578,53.9531 339.7265,54.2031 C340.2109,54.4844 340.3828,54.7031 340.4765,55.1094 C340.539,55.5156 340.5703,55.6406 340.7109,55.7656 C340.8515,55.9063 341.0859,56.0156 341.3046,56.0156 C341.5703,56.0156 341.8359,55.875 342.0078,55.6563 C342.1171,55.5 342.1484,55.3125 342.1484,54.8906 L342.1484,53.4688 C342.1484,53.0313 342.1328,52.9063 342.039,52.75 C341.8828,52.4844 341.6015,52.3438 341.3046,52.3438 C341.0078,52.3438 340.8046,52.4375 340.5859,52.75 L340.414,52.6719 Z "/><text fill="#000000" font-family="sans-serif" font-size="12" lengthAdjust="spacingAndGlyphs" textLength="70" x="358.5703" y="61.1543">Mastermind</text><line style="stroke: #A80036; stroke-width: 1.5;" x1="285.8203" x2="468.8203" y1="73" y2="73"/><line style="stroke: #A80036; stroke-width: 1.5;" x1="285.8203" x2="468.8203" y1="81" y2="81"/><ellipse cx="295.8203" cy="92" fill="#84BE84" rx="3" ry="3" style="stroke: #038048; stroke-width: 1.0;"/><text fill="#000000" font-family="sans-serif" font-size="11" lengthAdjust="spacingAndGlyphs" textLength="32" x="304.8203" y="95.2104">play()</text><rect fill="#F24D5C" height="6" style="stroke: #C82930; stroke-width: 1.0;" width="6" x="292.8203" y="101.8047"/><text fill="#000000" font-family="sans-serif" font-size="11" lengthAdjust="spacingAndGlyphs" textLength="67" x="304.8203" y="108.0151">playGame()</text><rect fill="#F24D5C" height="6" style="stroke: #C82930; stroke-width: 1.0;" width="6" x="292.8203" y="114.6094"/><text fill="#000000" font-family="sans-serif" font-size="11" lengthAdjust="spacingAndGlyphs" textLength="159" x="304.8203" y="120.8198">isResumedGame(): boolean</text><ellipse cx="295.8203" cy="130.4141" fill="#84BE84" rx="3" ry="3" style="stroke: #038048; stroke-width: 1.0;"/><text fill="#000000" font-family="sans-serif" font-size="11" lengthAdjust="spacingAndGlyphs" text-decoration="underline" textLength="77" x="304.8203" y="133.6245">main(String[])</text><!--MD5=[9563755d011c5cec7ec66dc53565a59e]
class Board--><rect codeLine="10" fill="#FEFECE" filter="url(#ffs22qtx3ygwy)" height="150.4375" id="Board" style="stroke: #A80036; stroke-width: 1.5;" width="178" x="210.3203" y="217"/><ellipse cx="277.0703" cy="233" fill="#ADD1B2" rx="11" ry="11" style="stroke: #A80036; stroke-width: 1.0;"/><path d="M279.414,228.6719 C278.4765,228.2344 277.8828,228.0938 277.0078,228.0938 C274.3828,228.0938 272.3828,230.1719 272.3828,232.8906 L272.3828,234.0156 C272.3828,236.5938 274.4921,238.4844 277.3828,238.4844 C278.6015,238.4844 279.7578,238.1875 280.5078,237.6406 C281.0859,237.2344 281.414,236.7813 281.414,236.3906 C281.414,235.9375 281.0234,235.5469 280.5546,235.5469 C280.3359,235.5469 280.1328,235.625 279.9453,235.8125 C279.4921,236.2969 279.4921,236.2969 279.3046,236.3906 C278.8828,236.6563 278.1953,236.7813 277.4296,236.7813 C275.3828,236.7813 274.0859,235.6875 274.0859,233.9844 L274.0859,232.8906 C274.0859,231.1094 275.3359,229.7969 277.0703,229.7969 C277.6484,229.7969 278.2578,229.9531 278.7265,230.2031 C279.2109,230.4844 279.3828,230.7031 279.4765,231.1094 C279.539,231.5156 279.5703,231.6406 279.7109,231.7656 C279.8515,231.9063 280.0859,232.0156 280.3046,232.0156 C280.5703,232.0156 280.8359,231.875 281.0078,231.6563 C281.1171,231.5 281.1484,231.3125 281.1484,230.8906 L281.1484,229.4688 C281.1484,229.0313 281.1328,228.9063 281.039,228.75 C280.8828,228.4844 280.6015,228.3438 280.3046,228.3438 C280.0078,228.3438 279.8046,228.4375 279.5859,228.75 L279.414,228.6719 Z "/><text fill="#000000" font-family="sans-serif" font-size="12" lengthAdjust="spacingAndGlyphs" textLength="36" x="297.5703" y="237.1543">Board</text><line style="stroke: #A80036; stroke-width: 1.5;" x1="211.3203" x2="387.3203" y1="249" y2="249"/><rect fill="none" height="6" style="stroke: #C82930; stroke-width: 1.0;" width="6" x="218.3203" y="257"/><text fill="#000000" font-family="sans-serif" font-size="11" lengthAdjust="spacingAndGlyphs" text-decoration="underline" textLength="104" x="230.3203" y="263.2104">MAX_ATTEMPS: int</text><rect fill="none" height="6" style="stroke: #C82930; stroke-width: 1.0;" width="6" x="218.3203" y="269.8047"/><text fill="#000000" font-family="sans-serif" font-size="11" lengthAdjust="spacingAndGlyphs" textLength="72" x="230.3203" y="276.0151">attempts: int</text><line style="stroke: #A80036; stroke-width: 1.5;" x1="211.3203" x2="387.3203" y1="282.6094" y2="282.6094"/><polygon fill="#4177AF" points="221.3203,289.6094,217.3203,295.6094,225.3203,295.6094" style="stroke: #1963A0; stroke-width: 1.0;"/><text fill="#000000" font-family="sans-serif" font-size="11" lengthAdjust="spacingAndGlyphs" textLength="41" x="230.3203" y="296.8198">Board()</text><ellipse cx="221.3203" cy="306.4141" fill="#84BE84" rx="3" ry="3" style="stroke: #038048; stroke-width: 1.0;"/><text fill="#000000" font-family="sans-serif" font-size="11" lengthAdjust="spacingAndGlyphs" textLength="46" x="230.3203" y="309.6245">writeln()</text><ellipse cx="221.3203" cy="319.2188" fill="#84BE84" rx="3" ry="3" style="stroke: #038048; stroke-width: 1.0;"/><text fill="#000000" font-family="sans-serif" font-size="11" lengthAdjust="spacingAndGlyphs" textLength="152" x="230.3203" y="322.4292">add(ProposedCombination)</text><ellipse cx="221.3203" cy="332.0234" fill="#84BE84" rx="3" ry="3" style="stroke: #038048; stroke-width: 1.0;"/><text fill="#000000" font-family="sans-serif" font-size="11" lengthAdjust="spacingAndGlyphs" textLength="117" x="230.3203" y="335.2339">isFinished(): boolean</text><ellipse cx="221.3203" cy="344.8281" fill="#84BE84" rx="3" ry="3" style="stroke: #038048; stroke-width: 1.0;"/><text fill="#000000" font-family="sans-serif" font-size="11" lengthAdjust="spacingAndGlyphs" textLength="110" x="230.3203" y="348.0386">isWinner(): boolean</text><rect fill="#F24D5C" height="6" style="stroke: #C82930; stroke-width: 1.0;" width="6" x="218.3203" y="354.6328"/><text fill="#000000" font-family="sans-serif" font-size="11" lengthAdjust="spacingAndGlyphs" textLength="108" x="230.3203" y="360.8433">isLooser(): boolean</text><!--MD5=[28491d17d5ee38c9c116625a5ffc259a]
class Combination--><rect codeLine="21" fill="#FEFECE" filter="url(#ffs22qtx3ygwy)" height="73.6094" id="Combination" style="stroke: #A80036; stroke-width: 1.5;" width="132" x="557.3203" y="255"/><ellipse cx="583.1202" cy="271" fill="#A9DCDF" rx="11" ry="11" style="stroke: #A80036; stroke-width: 1.0;"/><path d="M585.1984,272.8125 L585.589,273.7969 L585.1984,273.7969 C584.7452,273.7969 584.6359,273.8125 584.4796,273.9219 C584.2296,274.0781 584.0734,274.3594 584.0734,274.6563 C584.0734,274.9219 584.214,275.1719 584.4327,275.3281 C584.5734,275.4531 584.7765,275.5 585.1984,275.5 L587.5577,275.5 C587.9171,275.5 588.1359,275.4688 588.2765,275.375 C588.5265,275.2344 588.6827,274.9375 588.6827,274.6563 C588.6827,274.375 588.5421,274.125 588.3234,273.9688 C588.1515,273.8281 587.9952,273.7969 587.5265,273.7969 L584.1359,265.5938 L580.464,265.5938 C580.0109,265.5938 579.8859,265.6094 579.7296,265.7031 C579.4796,265.875 579.3234,266.1563 579.3234,266.4375 C579.3234,266.7188 579.464,266.9688 579.6827,267.1406 C579.8546,267.25 580.0265,267.2813 580.464,267.2813 L581.5421,267.2813 L578.9015,273.7969 C578.4796,273.7969 578.3234,273.8125 578.1671,273.9219 C577.9171,274.0781 577.7609,274.3594 577.7609,274.6563 C577.7609,275.2188 578.1359,275.5 578.8859,275.5 L581.1515,275.5 C581.5109,275.5 581.7296,275.4688 581.8546,275.375 C582.1202,275.2344 582.2609,274.9375 582.2609,274.6563 C582.2609,274.375 582.1359,274.125 581.9171,273.9531 C581.7452,273.8281 581.6046,273.7969 581.1515,273.7969 L580.7609,273.7969 L581.1515,272.8125 L585.1984,272.8125 Z M584.4952,271.1094 L581.8234,271.1094 L583.1671,267.8438 L584.4952,271.1094 Z "/><text fill="#000000" font-family="sans-serif" font-size="12" font-style="italic" lengthAdjust="spacingAndGlyphs" textLength="76" x="599.5203" y="275.1543">Combination</text><line style="stroke: #A80036; stroke-width: 1.5;" x1="558.3203" x2="688.3203" y1="287" y2="287"/><polygon fill="none" points="568.3203,294,564.3203,300,572.3203,300" style="stroke: #1963A0; stroke-width: 1.0;"/><text fill="#000000" font-family="sans-serif" font-size="11" lengthAdjust="spacingAndGlyphs" textLength="106" x="577.3203" y="301.2104">colors: List&lt;Color&gt;</text><line style="stroke: #A80036; stroke-width: 1.5;" x1="558.3203" x2="688.3203" y1="307.8047" y2="307.8047"/><polygon fill="#4177AF" points="568.3203,314.8047,564.3203,320.8047,572.3203,320.8047" style="stroke: #1963A0; stroke-width: 1.0;"/><text fill="#000000" font-family="sans-serif" font-size="11" lengthAdjust="spacingAndGlyphs" textLength="83" x="577.3203" y="322.0151">Combination ()</text><!--MD5=[e370ee5c0c15ce04544d5f5a73174d72]
class SecretCombination--><rect codeLine="26" fill="#FEFECE" filter="url(#ffs22qtx3ygwy)" height="86.4141" id="SecretCombination" style="stroke: #A80036; stroke-width: 1.5;" width="253" x="496.8203" y="534"/><ellipse cx="562.0703" cy="550" fill="#ADD1B2" rx="11" ry="11" style="stroke: #A80036; stroke-width: 1.0;"/><path d="M564.414,545.6719 C563.4765,545.2344 562.8828,545.0938 562.0078,545.0938 C559.3828,545.0938 557.3828,547.1719 557.3828,549.8906 L557.3828,551.0156 C557.3828,553.5938 559.4921,555.4844 562.3828,555.4844 C563.6015,555.4844 564.7578,555.1875 565.5078,554.6406 C566.0859,554.2344 566.414,553.7813 566.414,553.3906 C566.414,552.9375 566.0234,552.5469 565.5546,552.5469 C565.3359,552.5469 565.1328,552.625 564.9453,552.8125 C564.4921,553.2969 564.4921,553.2969 564.3046,553.3906 C563.8828,553.6563 563.1953,553.7813 562.4296,553.7813 C560.3828,553.7813 559.0859,552.6875 559.0859,550.9844 L559.0859,549.8906 C559.0859,548.1094 560.3359,546.7969 562.0703,546.7969 C562.6484,546.7969 563.2578,546.9531 563.7265,547.2031 C564.2109,547.4844 564.3828,547.7031 564.4765,548.1094 C564.539,548.5156 564.5703,548.6406 564.7109,548.7656 C564.8515,548.9063 565.0859,549.0156 565.3046,549.0156 C565.5703,549.0156 565.8359,548.875 566.0078,548.6563 C566.1171,548.5 566.1484,548.3125 566.1484,547.8906 L566.1484,546.4688 C566.1484,546.0313 566.1328,545.9063 566.039,545.75 C565.8828,545.4844 565.6015,545.3438 565.3046,545.3438 C565.0078,545.3438 564.8046,545.4375 564.5859,545.75 L564.414,545.6719 Z "/><text fill="#000000" font-family="sans-serif" font-size="12" lengthAdjust="spacingAndGlyphs" textLength="114" x="582.5703" y="554.1543">SecretCombination</text><line style="stroke: #A80036; stroke-width: 1.5;" x1="497.8203" x2="748.8203" y1="566" y2="566"/><line style="stroke: #A80036; stroke-width: 1.5;" x1="497.8203" x2="748.8203" y1="574" y2="574"/><polygon fill="#4177AF" points="507.8203,581,503.8203,587,511.8203,587" style="stroke: #1963A0; stroke-width: 1.0;"/><text fill="#000000" font-family="sans-serif" font-size="11" lengthAdjust="spacingAndGlyphs" textLength="117" x="516.8203" y="588.2104">SecretCombination()</text><polygon fill="#4177AF" points="507.8203,593.8047,503.8203,599.8047,511.8203,599.8047" style="stroke: #1963A0; stroke-width: 1.0;"/><text fill="#000000" font-family="sans-serif" font-size="11" lengthAdjust="spacingAndGlyphs" textLength="227" x="516.8203" y="601.0151">getResult(ProposedCombination): Result</text><polygon fill="#4177AF" points="507.8203,606.6094,503.8203,612.6094,511.8203,612.6094" style="stroke: #1963A0; stroke-width: 1.0;"/><text fill="#000000" font-family="sans-serif" font-size="11" lengthAdjust="spacingAndGlyphs" textLength="46" x="516.8203" y="613.8198">writeln()</text><!--MD5=[cf489b19c51ee25e76ddca093e62e620]
class ProposedCombination--><rect codeLine="32" fill="#FEFECE" filter="url(#ffs22qtx3ygwy)" height="112.0234" id="ProposedCombination" style="stroke: #A80036; stroke-width: 1.5;" width="184" x="277.3203" y="521"/><ellipse cx="301.3203" cy="537" fill="#ADD1B2" rx="11" ry="11" style="stroke: #A80036; stroke-width: 1.0;"/><path d="M303.664,532.6719 C302.7265,532.2344 302.1328,532.0938 301.2578,532.0938 C298.6328,532.0938 296.6328,534.1719 296.6328,536.8906 L296.6328,538.0156 C296.6328,540.5938 298.7421,542.4844 301.6328,542.4844 C302.8515,542.4844 304.0078,542.1875 304.7578,541.6406 C305.3359,541.2344 305.664,540.7813 305.664,540.3906 C305.664,539.9375 305.2734,539.5469 304.8046,539.5469 C304.5859,539.5469 304.3828,539.625 304.1953,539.8125 C303.7421,540.2969 303.7421,540.2969 303.5546,540.3906 C303.1328,540.6563 302.4453,540.7813 301.6796,540.7813 C299.6328,540.7813 298.3359,539.6875 298.3359,537.9844 L298.3359,536.8906 C298.3359,535.1094 299.5859,533.7969 301.3203,533.7969 C301.8984,533.7969 302.5078,533.9531 302.9765,534.2031 C303.4609,534.4844 303.6328,534.7031 303.7265,535.1094 C303.789,535.5156 303.8203,535.6406 303.9609,535.7656 C304.1015,535.9063 304.3359,536.0156 304.5546,536.0156 C304.8203,536.0156 305.0859,535.875 305.2578,535.6563 C305.3671,535.5 305.3984,535.3125 305.3984,534.8906 L305.3984,533.4688 C305.3984,533.0313 305.3828,532.9063 305.289,532.75 C305.1328,532.4844 304.8515,532.3438 304.5546,532.3438 C304.2578,532.3438 304.0546,532.4375 303.8359,532.75 L303.664,532.6719 Z "/><text fill="#000000" font-family="sans-serif" font-size="12" lengthAdjust="spacingAndGlyphs" textLength="132" x="317.3203" y="541.1543">ProposedCombination</text><line style="stroke: #A80036; stroke-width: 1.5;" x1="278.3203" x2="460.3203" y1="553" y2="553"/><line style="stroke: #A80036; stroke-width: 1.5;" x1="278.3203" x2="460.3203" y1="561" y2="561"/><polygon fill="#4177AF" points="288.3203,568,284.3203,574,292.3203,574" style="stroke: #1963A0; stroke-width: 1.0;"/><text fill="#000000" font-family="sans-serif" font-size="11" lengthAdjust="spacingAndGlyphs" textLength="36" x="297.3203" y="575.2104">write()</text><polygon fill="#4177AF" points="288.3203,580.8047,284.3203,586.8047,292.3203,586.8047" style="stroke: #1963A0; stroke-width: 1.0;"/><text fill="#000000" font-family="sans-serif" font-size="11" lengthAdjust="spacingAndGlyphs" textLength="34" x="297.3203" y="588.0151">read()</text><rect fill="#F24D5C" height="6" style="stroke: #C82930; stroke-width: 1.0;" width="6" x="285.3203" y="594.6094"/><text fill="#000000" font-family="sans-serif" font-size="11" lengthAdjust="spacingAndGlyphs" textLength="133" x="297.3203" y="600.8198">checkError(String): Error</text><polygon fill="#4177AF" points="288.3203,606.4141,284.3203,612.4141,292.3203,612.4141" style="stroke: #1963A0; stroke-width: 1.0;"/><text fill="#000000" font-family="sans-serif" font-size="11" lengthAdjust="spacingAndGlyphs" textLength="158" x="297.3203" y="613.6245">contains(Color, int): boolean</text><polygon fill="#4177AF" points="288.3203,619.2188,284.3203,625.2188,292.3203,625.2188" style="stroke: #1963A0; stroke-width: 1.0;"/><text fill="#000000" font-family="sans-serif" font-size="11" lengthAdjust="spacingAndGlyphs" textLength="137" x="297.3203" y="626.4292">contains(Color): boolean</text><!--MD5=[2741598bdf59a7d7e0d5c97658fd3022]
class Result--><rect codeLine="40" fill="#FEFECE" filter="url(#ffs22qtx3ygwy)" height="124.8281" id="Result" style="stroke: #A80036; stroke-width: 1.5;" width="136" x="69.3203" y="514.5"/><ellipse cx="115.0703" cy="530.5" fill="#ADD1B2" rx="11" ry="11" style="stroke: #A80036; stroke-width: 1.0;"/><path d="M117.414,526.1719 C116.4765,525.7344 115.8828,525.5938 115.0078,525.5938 C112.3828,525.5938 110.3828,527.6719 110.3828,530.3906 L110.3828,531.5156 C110.3828,534.0938 112.4921,535.9844 115.3828,535.9844 C116.6015,535.9844 117.7578,535.6875 118.5078,535.1406 C119.0859,534.7344 119.414,534.2813 119.414,533.8906 C119.414,533.4375 119.0234,533.0469 118.5546,533.0469 C118.3359,533.0469 118.1328,533.125 117.9453,533.3125 C117.4921,533.7969 117.4921,533.7969 117.3046,533.8906 C116.8828,534.1563 116.1953,534.2813 115.4296,534.2813 C113.3828,534.2813 112.0859,533.1875 112.0859,531.4844 L112.0859,530.3906 C112.0859,528.6094 113.3359,527.2969 115.0703,527.2969 C115.6484,527.2969 116.2578,527.4531 116.7265,527.7031 C117.2109,527.9844 117.3828,528.2031 117.4765,528.6094 C117.539,529.0156 117.5703,529.1406 117.7109,529.2656 C117.8515,529.4063 118.0859,529.5156 118.3046,529.5156 C118.5703,529.5156 118.8359,529.375 119.0078,529.1563 C119.1171,529 119.1484,528.8125 119.1484,528.3906 L119.1484,526.9688 C119.1484,526.5313 119.1328,526.4063 119.039,526.25 C118.8828,525.9844 118.6015,525.8438 118.3046,525.8438 C118.0078,525.8438 117.8046,525.9375 117.5859,526.25 L117.414,526.1719 Z "/><text fill="#000000" font-family="sans-serif" font-size="12" lengthAdjust="spacingAndGlyphs" textLength="36" x="135.5703" y="534.6543">Result</text><line style="stroke: #A80036; stroke-width: 1.5;" x1="70.3203" x2="204.3203" y1="546.5" y2="546.5"/><ellipse cx="80.3203" cy="557.5" fill="none" rx="3" ry="3" style="stroke: #038048; stroke-width: 1.0;"/><text fill="#000000" font-family="sans-serif" font-size="11" lengthAdjust="spacingAndGlyphs" text-decoration="underline" textLength="59" x="89.3203" y="560.7104">WIDTH: int</text><rect fill="none" height="6" style="stroke: #C82930; stroke-width: 1.0;" width="6" x="77.3203" y="567.3047"/><text fill="#000000" font-family="sans-serif" font-size="11" lengthAdjust="spacingAndGlyphs" textLength="56" x="89.3203" y="573.5151">blacks: int</text><rect fill="none" height="6" style="stroke: #C82930; stroke-width: 1.0;" width="6" x="77.3203" y="580.1094"/><text fill="#000000" font-family="sans-serif" font-size="11" lengthAdjust="spacingAndGlyphs" textLength="58" x="89.3203" y="586.3198">whites: int</text><line style="stroke: #A80036; stroke-width: 1.5;" x1="70.3203" x2="204.3203" y1="592.9141" y2="592.9141"/><polygon fill="#4177AF" points="80.3203,599.9141,76.3203,605.9141,84.3203,605.9141" style="stroke: #1963A0; stroke-width: 1.0;"/><text fill="#000000" font-family="sans-serif" font-size="11" lengthAdjust="spacingAndGlyphs" textLength="78" x="89.3203" y="607.1245">Result(int, int)</text><polygon fill="#4177AF" points="80.3203,612.7188,76.3203,618.7188,84.3203,618.7188" style="stroke: #1963A0; stroke-width: 1.0;"/><text fill="#000000" font-family="sans-serif" font-size="11" lengthAdjust="spacingAndGlyphs" textLength="110" x="89.3203" y="619.9292">isWinner(): boolean</text><polygon fill="#4177AF" points="80.3203,625.5234,76.3203,631.5234,84.3203,631.5234" style="stroke: #1963A0; stroke-width: 1.0;"/><text fill="#000000" font-family="sans-serif" font-size="11" lengthAdjust="spacingAndGlyphs" textLength="46" x="89.3203" y="632.7339">writeln()</text><!--MD5=[18eee71c88ab61f27581b8cbdd3ef5ee]
class Color--><rect codeLine="49" fill="#FEFECE" filter="url(#ffs22qtx3ygwy)" height="265.6797" id="Color" style="stroke: #A80036; stroke-width: 1.5;" width="161" x="784.8203" y="444"/><ellipse cx="845.0703" cy="460" fill="#EB937F" rx="11" ry="11" style="stroke: #A80036; stroke-width: 1.0;"/><path d="M843.8671,460.875 L845.3203,460.875 L845.3203,460.9844 C845.3203,461.3906 845.3515,461.5469 845.4296,461.7031 C845.5859,461.9531 845.8671,462.1094 846.164,462.1094 C846.414,462.1094 846.6796,461.9688 846.8359,461.75 C846.9609,461.5938 846.9921,461.4375 846.9921,460.9844 L846.9921,459.0625 C846.9921,458.9063 846.9921,458.8594 846.9765,458.7031 C846.914,458.2344 846.6015,457.9219 846.1484,457.9219 C845.8984,457.9219 845.6328,458.0625 845.4609,458.2813 C845.3515,458.4531 845.3203,458.6094 845.3203,459.0625 L845.3203,459.1875 L843.8671,459.1875 L843.8671,456.7813 L847.8515,456.7813 L847.8515,457.6406 C847.8515,458.0469 847.8828,458.2188 847.9609,458.375 C848.1328,458.625 848.414,458.7813 848.6953,458.7813 C848.9609,458.7813 849.2265,458.6406 849.3984,458.4219 C849.5078,458.25 849.539,458.1094 849.539,457.6406 L849.539,455.0938 L841.914,455.0938 C841.4765,455.0938 841.3515,455.1094 841.1953,455.2031 C840.9453,455.3594 840.789,455.6563 840.789,455.9375 C840.789,456.2188 840.9296,456.4688 841.1484,456.6406 C841.3046,456.75 841.4921,456.7813 841.914,456.7813 L842.164,456.7813 L842.164,463.2969 L841.914,463.2969 C841.5078,463.2969 841.3515,463.3125 841.1953,463.4219 C840.9453,463.5938 840.789,463.8594 840.789,464.1563 C840.789,464.4219 840.9296,464.6719 841.1484,464.8281 C841.289,464.9531 841.5234,465 841.914,465 L849.914,465 L849.914,462.4219 C849.914,461.9844 849.8828,461.8438 849.8046,461.6875 C849.6328,461.4375 849.3515,461.2813 849.0703,461.2813 C848.8046,461.2813 848.539,461.3906 848.3671,461.6406 C848.2578,461.7969 848.2265,461.9375 848.2265,462.4219 L848.2265,463.2969 L843.8671,463.2969 L843.8671,460.875 Z "/><text fill="#000000" font-family="sans-serif" font-size="12" lengthAdjust="spacingAndGlyphs" textLength="32" x="865.5703" y="464.1543">Color</text><line style="stroke: #A80036; stroke-width: 1.5;" x1="785.8203" x2="944.8203" y1="476" y2="476"/><ellipse cx="795.8203" cy="487" fill="none" rx="3" ry="3" style="stroke: #038048; stroke-width: 1.0;"/><text fill="#000000" font-family="sans-serif" font-size="11" lengthAdjust="spacingAndGlyphs" textLength="23" x="804.8203" y="490.2104">RED</text><ellipse cx="795.8203" cy="499.8047" fill="none" rx="3" ry="3" style="stroke: #038048; stroke-width: 1.0;"/><text fill="#000000" font-family="sans-serif" font-size="11" lengthAdjust="spacingAndGlyphs" textLength="29" x="804.8203" y="503.0151">BLUE</text><ellipse cx="795.8203" cy="512.6094" fill="none" rx="3" ry="3" style="stroke: #038048; stroke-width: 1.0;"/><text fill="#000000" font-family="sans-serif" font-size="11" lengthAdjust="spacingAndGlyphs" textLength="46" x="804.8203" y="515.8198">YELLOW</text><ellipse cx="795.8203" cy="525.4141" fill="none" rx="3" ry="3" style="stroke: #038048; stroke-width: 1.0;"/><text fill="#000000" font-family="sans-serif" font-size="11" lengthAdjust="spacingAndGlyphs" textLength="38" x="804.8203" y="528.6245">GREEN</text><ellipse cx="795.8203" cy="538.2188" fill="none" rx="3" ry="3" style="stroke: #038048; stroke-width: 1.0;"/><text fill="#000000" font-family="sans-serif" font-size="11" lengthAdjust="spacingAndGlyphs" textLength="48" x="804.8203" y="541.4292">ORANGE</text><ellipse cx="795.8203" cy="551.0234" fill="none" rx="3" ry="3" style="stroke: #038048; stroke-width: 1.0;"/><text fill="#000000" font-family="sans-serif" font-size="11" lengthAdjust="spacingAndGlyphs" textLength="40" x="804.8203" y="554.2339">PURPLE</text><ellipse cx="795.8203" cy="563.8281" fill="none" rx="3" ry="3" style="stroke: #038048; stroke-width: 1.0;"/><text fill="#000000" font-family="sans-serif" font-size="11" lengthAdjust="spacingAndGlyphs" textLength="73" x="804.8203" y="567.0386">NULL_COLOR</text><rect fill="none" height="6" style="stroke: #C82930; stroke-width: 1.0;" width="6" x="792.8203" y="573.6328"/><text fill="#000000" font-family="sans-serif" font-size="11" lengthAdjust="spacingAndGlyphs" textLength="70" x="804.8203" y="579.8433">initial: String</text><rect fill="none" height="6" style="stroke: #C82930; stroke-width: 1.0;" width="6" x="792.8203" y="586.4375"/><text fill="#000000" font-family="sans-serif" font-size="11" lengthAdjust="spacingAndGlyphs" text-decoration="underline" textLength="121" x="804.8203" y="592.6479">RESET_COLOR: String</text><line style="stroke: #A80036; stroke-width: 1.5;" x1="785.8203" x2="944.8203" y1="599.2422" y2="599.2422"/><rect fill="#F24D5C" height="6" style="stroke: #C82930; stroke-width: 1.0;" width="6" x="792.8203" y="607.2422"/><text fill="#000000" font-family="sans-serif" font-size="11" lengthAdjust="spacingAndGlyphs" textLength="37" x="804.8203" y="613.4526">Color()</text><rect fill="#F24D5C" height="6" style="stroke: #C82930; stroke-width: 1.0;" width="6" x="792.8203" y="620.0469"/><text fill="#000000" font-family="sans-serif" font-size="11" lengthAdjust="spacingAndGlyphs" textLength="61" x="804.8203" y="626.2573">Color(char)</text><polygon fill="#4177AF" points="795.8203,631.8516,791.8203,637.8516,799.8203,637.8516" style="stroke: #1963A0; stroke-width: 1.0;"/><text fill="#000000" font-family="sans-serif" font-size="11" lengthAdjust="spacingAndGlyphs" text-decoration="underline" textLength="103" x="804.8203" y="639.062">getInitials(): String</text><polygon fill="#4177AF" points="795.8203,644.6563,791.8203,650.6563,799.8203,650.6563" style="stroke: #1963A0; stroke-width: 1.0;"/><text fill="#000000" font-family="sans-serif" font-size="11" lengthAdjust="spacingAndGlyphs" text-decoration="underline" textLength="135" x="804.8203" y="651.8667">getInstance(char): Color</text><polygon fill="#4177AF" points="795.8203,657.4609,791.8203,663.4609,799.8203,663.4609" style="stroke: #1963A0; stroke-width: 1.0;"/><text fill="#000000" font-family="sans-serif" font-size="11" lengthAdjust="spacingAndGlyphs" text-decoration="underline" textLength="65" x="804.8203" y="664.6714">length(): int</text><polygon fill="#4177AF" points="795.8203,670.2656,791.8203,676.2656,799.8203,676.2656" style="stroke: #1963A0; stroke-width: 1.0;"/><text fill="#000000" font-family="sans-serif" font-size="11" lengthAdjust="spacingAndGlyphs" text-decoration="underline" textLength="77" x="804.8203" y="677.4761">get(int): Color</text><polygon fill="#4177AF" points="795.8203,683.0703,791.8203,689.0703,799.8203,689.0703" style="stroke: #1963A0; stroke-width: 1.0;"/><text fill="#000000" font-family="sans-serif" font-size="11" lengthAdjust="spacingAndGlyphs" textLength="36" x="804.8203" y="690.2808">write()</text><polygon fill="#4177AF" points="795.8203,695.875,791.8203,701.875,799.8203,701.875" style="stroke: #1963A0; stroke-width: 1.0;"/><text fill="#000000" font-family="sans-serif" font-size="11" lengthAdjust="spacingAndGlyphs" textLength="91" x="804.8203" y="703.0854">isNull(): boolean</text><!--MD5=[b8cfd8c4119a3b0a7a46bfc5fc780f85]
class Error--><rect codeLine="69" fill="#FEFECE" filter="url(#ffs22qtx3ygwy)" height="163.2422" id="Error" style="stroke: #A80036; stroke-width: 1.5;" width="152" x="347.3203" y="803"/><ellipse cx="404.0703" cy="819" fill="#EB937F" rx="11" ry="11" style="stroke: #A80036; stroke-width: 1.0;"/><path d="M402.8671,819.875 L404.3203,819.875 L404.3203,819.9844 C404.3203,820.3906 404.3515,820.5469 404.4296,820.7031 C404.5859,820.9531 404.8671,821.1094 405.164,821.1094 C405.414,821.1094 405.6796,820.9688 405.8359,820.75 C405.9609,820.5938 405.9921,820.4375 405.9921,819.9844 L405.9921,818.0625 C405.9921,817.9063 405.9921,817.8594 405.9765,817.7031 C405.914,817.2344 405.6015,816.9219 405.1484,816.9219 C404.8984,816.9219 404.6328,817.0625 404.4609,817.2813 C404.3515,817.4531 404.3203,817.6094 404.3203,818.0625 L404.3203,818.1875 L402.8671,818.1875 L402.8671,815.7813 L406.8515,815.7813 L406.8515,816.6406 C406.8515,817.0469 406.8828,817.2188 406.9609,817.375 C407.1328,817.625 407.414,817.7813 407.6953,817.7813 C407.9609,817.7813 408.2265,817.6406 408.3984,817.4219 C408.5078,817.25 408.539,817.1094 408.539,816.6406 L408.539,814.0938 L400.914,814.0938 C400.4765,814.0938 400.3515,814.1094 400.1953,814.2031 C399.9453,814.3594 399.789,814.6563 399.789,814.9375 C399.789,815.2188 399.9296,815.4688 400.1484,815.6406 C400.3046,815.75 400.4921,815.7813 400.914,815.7813 L401.164,815.7813 L401.164,822.2969 L400.914,822.2969 C400.5078,822.2969 400.3515,822.3125 400.1953,822.4219 C399.9453,822.5938 399.789,822.8594 399.789,823.1563 C399.789,823.4219 399.9296,823.6719 400.1484,823.8281 C400.289,823.9531 400.5234,824 400.914,824 L408.914,824 L408.914,821.4219 C408.914,820.9844 408.8828,820.8438 408.8046,820.6875 C408.6328,820.4375 408.3515,820.2813 408.0703,820.2813 C407.8046,820.2813 407.539,820.3906 407.3671,820.6406 C407.2578,820.7969 407.2265,820.9375 407.2265,821.4219 L407.2265,822.2969 L402.8671,822.2969 L402.8671,819.875 Z "/><text fill="#000000" font-family="sans-serif" font-size="12" lengthAdjust="spacingAndGlyphs" textLength="30" x="424.5703" y="823.1543">Error</text><line style="stroke: #A80036; stroke-width: 1.5;" x1="348.3203" x2="498.3203" y1="835" y2="835"/><ellipse cx="358.3203" cy="846" fill="none" rx="3" ry="3" style="stroke: #038048; stroke-width: 1.0;"/><text fill="#000000" font-family="sans-serif" font-size="11" lengthAdjust="spacingAndGlyphs" textLength="71" x="367.3203" y="849.2104">DUPLICATED</text><ellipse cx="358.3203" cy="858.8047" fill="none" rx="3" ry="3" style="stroke: #038048; stroke-width: 1.0;"/><text fill="#000000" font-family="sans-serif" font-size="11" lengthAdjust="spacingAndGlyphs" textLength="126" x="367.3203" y="862.0151">WRONG_CHARACTERS</text><ellipse cx="358.3203" cy="871.6094" fill="none" rx="3" ry="3" style="stroke: #038048; stroke-width: 1.0;"/><text fill="#000000" font-family="sans-serif" font-size="11" lengthAdjust="spacingAndGlyphs" textLength="95" x="367.3203" y="874.8198">WRONG_LENGTH</text><ellipse cx="358.3203" cy="884.4141" fill="none" rx="3" ry="3" style="stroke: #038048; stroke-width: 1.0;"/><text fill="#000000" font-family="sans-serif" font-size="11" lengthAdjust="spacingAndGlyphs" textLength="71" x="367.3203" y="887.6245">NULL_ERROR</text><rect fill="none" height="6" style="stroke: #C82930; stroke-width: 1.0;" width="6" x="355.3203" y="894.2188"/><text fill="#000000" font-family="sans-serif" font-size="11" lengthAdjust="spacingAndGlyphs" textLength="93" x="367.3203" y="900.4292">message: String</text><line style="stroke: #A80036; stroke-width: 1.5;" x1="348.3203" x2="498.3203" y1="907.0234" y2="907.0234"/><rect fill="#F24D5C" height="6" style="stroke: #C82930; stroke-width: 1.0;" width="6" x="355.3203" y="915.0234"/><text fill="#000000" font-family="sans-serif" font-size="11" lengthAdjust="spacingAndGlyphs" textLength="34" x="367.3203" y="921.2339">Error()</text><rect fill="#F24D5C" height="6" style="stroke: #C82930; stroke-width: 1.0;" width="6" x="355.3203" y="927.8281"/><text fill="#000000" font-family="sans-serif" font-size="11" lengthAdjust="spacingAndGlyphs" textLength="67" x="367.3203" y="934.0386">Error(String)</text><polygon fill="#4177AF" points="358.3203,939.6328,354.3203,945.6328,362.3203,945.6328" style="stroke: #1963A0; stroke-width: 1.0;"/><text fill="#000000" font-family="sans-serif" font-size="11" lengthAdjust="spacingAndGlyphs" textLength="46" x="367.3203" y="946.8433">writeln()</text><ellipse cx="358.3203" cy="956.4375" fill="#84BE84" rx="3" ry="3" style="stroke: #038048; stroke-width: 1.0;"/><text fill="#000000" font-family="sans-serif" font-size="11" lengthAdjust="spacingAndGlyphs" textLength="91" x="367.3203" y="959.6479">isNull(): boolean</text><!--MD5=[bea5b0d46523efab5ea1c1d339f396f0]
class Message--><rect codeLine="81" fill="#FEFECE" filter="url(#ffs22qtx3ygwy)" height="227.2656" id="Message" style="stroke: #A80036; stroke-width: 1.5;" width="173" x="138.8203" y="771"/><ellipse cx="193.5703" cy="787" fill="#EB937F" rx="11" ry="11" style="stroke: #A80036; stroke-width: 1.0;"/><path d="M192.3671,787.875 L193.8203,787.875 L193.8203,787.9844 C193.8203,788.3906 193.8515,788.5469 193.9296,788.7031 C194.0859,788.9531 194.3671,789.1094 194.664,789.1094 C194.914,789.1094 195.1796,788.9688 195.3359,788.75 C195.4609,788.5938 195.4921,788.4375 195.4921,787.9844 L195.4921,786.0625 C195.4921,785.9063 195.4921,785.8594 195.4765,785.7031 C195.414,785.2344 195.1015,784.9219 194.6484,784.9219 C194.3984,784.9219 194.1328,785.0625 193.9609,785.2813 C193.8515,785.4531 193.8203,785.6094 193.8203,786.0625 L193.8203,786.1875 L192.3671,786.1875 L192.3671,783.7813 L196.3515,783.7813 L196.3515,784.6406 C196.3515,785.0469 196.3828,785.2188 196.4609,785.375 C196.6328,785.625 196.914,785.7813 197.1953,785.7813 C197.4609,785.7813 197.7265,785.6406 197.8984,785.4219 C198.0078,785.25 198.039,785.1094 198.039,784.6406 L198.039,782.0938 L190.414,782.0938 C189.9765,782.0938 189.8515,782.1094 189.6953,782.2031 C189.4453,782.3594 189.289,782.6563 189.289,782.9375 C189.289,783.2188 189.4296,783.4688 189.6484,783.6406 C189.8046,783.75 189.9921,783.7813 190.414,783.7813 L190.664,783.7813 L190.664,790.2969 L190.414,790.2969 C190.0078,790.2969 189.8515,790.3125 189.6953,790.4219 C189.4453,790.5938 189.289,790.8594 189.289,791.1563 C189.289,791.4219 189.4296,791.6719 189.6484,791.8281 C189.789,791.9531 190.0234,792 190.414,792 L198.414,792 L198.414,789.4219 C198.414,788.9844 198.3828,788.8438 198.3046,788.6875 C198.1328,788.4375 197.8515,788.2813 197.5703,788.2813 C197.3046,788.2813 197.039,788.3906 196.8671,788.6406 C196.7578,788.7969 196.7265,788.9375 196.7265,789.4219 L196.7265,790.2969 L192.3671,790.2969 L192.3671,787.875 Z "/><text fill="#000000" font-family="sans-serif" font-size="12" lengthAdjust="spacingAndGlyphs" textLength="55" x="214.0703" y="791.1543">Message</text><line style="stroke: #A80036; stroke-width: 1.5;" x1="139.8203" x2="310.8203" y1="803" y2="803"/><ellipse cx="149.8203" cy="814" fill="none" rx="3" ry="3" style="stroke: #038048; stroke-width: 1.0;"/><text fill="#000000" font-family="sans-serif" font-size="11" lengthAdjust="spacingAndGlyphs" textLength="59" x="158.8203" y="817.2104">ATTEMPTS</text><ellipse cx="149.8203" cy="826.8047" fill="none" rx="3" ry="3" style="stroke: #038048; stroke-width: 1.0;"/><text fill="#000000" font-family="sans-serif" font-size="11" lengthAdjust="spacingAndGlyphs" textLength="130" x="158.8203" y="830.0151">SECRET_COMBINATION</text><ellipse cx="149.8203" cy="839.6094" fill="none" rx="3" ry="3" style="stroke: #038048; stroke-width: 1.0;"/><text fill="#000000" font-family="sans-serif" font-size="11" lengthAdjust="spacingAndGlyphs" textLength="46" x="158.8203" y="842.8198">RESUME</text><ellipse cx="149.8203" cy="852.4141" fill="none" rx="3" ry="3" style="stroke: #038048; stroke-width: 1.0;"/><text fill="#000000" font-family="sans-serif" font-size="11" lengthAdjust="spacingAndGlyphs" textLength="43" x="158.8203" y="855.6245">RESULT</text><ellipse cx="149.8203" cy="865.2188" fill="none" rx="3" ry="3" style="stroke: #038048; stroke-width: 1.0;"/><text fill="#000000" font-family="sans-serif" font-size="11" lengthAdjust="spacingAndGlyphs" textLength="147" x="158.8203" y="868.4292">PROPOSED_COMBINATION</text><ellipse cx="149.8203" cy="878.0234" fill="none" rx="3" ry="3" style="stroke: #038048; stroke-width: 1.0;"/><text fill="#000000" font-family="sans-serif" font-size="11" lengthAdjust="spacingAndGlyphs" textLength="30" x="158.8203" y="881.2339">TITLE</text><ellipse cx="149.8203" cy="890.8281" fill="none" rx="3" ry="3" style="stroke: #038048; stroke-width: 1.0;"/><text fill="#000000" font-family="sans-serif" font-size="11" lengthAdjust="spacingAndGlyphs" textLength="44" x="158.8203" y="894.0386">WINNER</text><ellipse cx="149.8203" cy="903.6328" fill="none" rx="3" ry="3" style="stroke: #038048; stroke-width: 1.0;"/><text fill="#000000" font-family="sans-serif" font-size="11" lengthAdjust="spacingAndGlyphs" textLength="46" x="158.8203" y="906.8433">LOOSER</text><rect fill="none" height="6" style="stroke: #C82930; stroke-width: 1.0;" width="6" x="146.8203" y="913.4375"/><text fill="#000000" font-family="sans-serif" font-size="11" lengthAdjust="spacingAndGlyphs" textLength="93" x="158.8203" y="919.6479">message: String</text><line style="stroke: #A80036; stroke-width: 1.5;" x1="139.8203" x2="310.8203" y1="926.2422" y2="926.2422"/><rect fill="#F24D5C" height="6" style="stroke: #C82930; stroke-width: 1.0;" width="6" x="146.8203" y="934.2422"/><text fill="#000000" font-family="sans-serif" font-size="11" lengthAdjust="spacingAndGlyphs" textLength="92" x="158.8203" y="940.4526">Message(String)</text><polygon fill="#4177AF" points="149.8203,946.0469,145.8203,952.0469,153.8203,952.0469" style="stroke: #1963A0; stroke-width: 1.0;"/><text fill="#000000" font-family="sans-serif" font-size="11" lengthAdjust="spacingAndGlyphs" textLength="36" x="158.8203" y="953.2573">write()</text><polygon fill="#4177AF" points="149.8203,958.8516,145.8203,964.8516,153.8203,964.8516" style="stroke: #1963A0; stroke-width: 1.0;"/><text fill="#000000" font-family="sans-serif" font-size="11" lengthAdjust="spacingAndGlyphs" textLength="46" x="158.8203" y="966.062">writeln()</text><polygon fill="#4177AF" points="149.8203,971.6563,145.8203,977.6563,153.8203,977.6563" style="stroke: #1963A0; stroke-width: 1.0;"/><text fill="#000000" font-family="sans-serif" font-size="11" lengthAdjust="spacingAndGlyphs" textLength="60" x="158.8203" y="978.8667">writeln(int)</text><polygon fill="#4177AF" points="149.8203,984.4609,145.8203,990.4609,153.8203,990.4609" style="stroke: #1963A0; stroke-width: 1.0;"/><text fill="#000000" font-family="sans-serif" font-size="11" lengthAdjust="spacingAndGlyphs" textLength="81" x="158.8203" y="991.6714">writeln(int, int)</text><!--MD5=[315b61b427ec618d6861d47eee00cca3]
class Console--><rect codeLine="121" fill="#FEFECE" filter="url(#ffs22qtx3ygwy)" height="48" id="Console" style="stroke: #A80036; stroke-width: 1.5;" width="179" x="497.8203" y="1061"/><ellipse cx="512.8203" cy="1077" fill="#ADD1B2" rx="11" ry="11" style="stroke: #A80036; stroke-width: 1.0;"/><path d="M515.164,1072.6719 C514.2265,1072.2344 513.6328,1072.0938 512.7578,1072.0938 C510.1328,1072.0938 508.1328,1074.1719 508.1328,1076.8906 L508.1328,1078.0156 C508.1328,1080.5938 510.2421,1082.4844 513.1328,1082.4844 C514.3515,1082.4844 515.5078,1082.1875 516.2578,1081.6406 C516.8359,1081.2344 517.164,1080.7813 517.164,1080.3906 C517.164,1079.9375 516.7734,1079.5469 516.3046,1079.5469 C516.0859,1079.5469 515.8828,1079.625 515.6953,1079.8125 C515.2421,1080.2969 515.2421,1080.2969 515.0546,1080.3906 C514.6328,1080.6563 513.9453,1080.7813 513.1796,1080.7813 C511.1328,1080.7813 509.8359,1079.6875 509.8359,1077.9844 L509.8359,1076.8906 C509.8359,1075.1094 511.0859,1073.7969 512.8203,1073.7969 C513.3984,1073.7969 514.0078,1073.9531 514.4765,1074.2031 C514.9609,1074.4844 515.1328,1074.7031 515.2265,1075.1094 C515.289,1075.5156 515.3203,1075.6406 515.4609,1075.7656 C515.6015,1075.9063 515.8359,1076.0156 516.0546,1076.0156 C516.3203,1076.0156 516.5859,1075.875 516.7578,1075.6563 C516.8671,1075.5 516.8984,1075.3125 516.8984,1074.8906 L516.8984,1073.4688 C516.8984,1073.0313 516.8828,1072.9063 516.789,1072.75 C516.6328,1072.4844 516.3515,1072.3438 516.0546,1072.3438 C515.7578,1072.3438 515.5546,1072.4375 515.3359,1072.75 L515.164,1072.6719 Z "/><text fill="#000000" font-family="sans-serif" font-size="12" lengthAdjust="spacingAndGlyphs" textLength="147" x="526.8203" y="1081.1543">usantatecla.utils.Console</text><line style="stroke: #A80036; stroke-width: 1.5;" x1="498.8203" x2="675.8203" y1="1093" y2="1093"/><line style="stroke: #A80036; stroke-width: 1.5;" x1="498.8203" x2="675.8203" y1="1101" y2="1101"/><!--MD5=[d93cf99d2b92276f27fe8dbf15140505]
class YesNoDialog--><rect codeLine="126" fill="#FEFECE" filter="url(#ffs22qtx3ygwy)" height="48" id="YesNoDialog" style="stroke: #A80036; stroke-width: 1.5;" width="206" x="978.3203" y="268"/><ellipse cx="993.3203" cy="284" fill="#ADD1B2" rx="11" ry="11" style="stroke: #A80036; stroke-width: 1.0;"/><path d="M995.664,279.6719 C994.7265,279.2344 994.1328,279.0938 993.2578,279.0938 C990.6328,279.0938 988.6328,281.1719 988.6328,283.8906 L988.6328,285.0156 C988.6328,287.5938 990.7421,289.4844 993.6328,289.4844 C994.8515,289.4844 996.0078,289.1875 996.7578,288.6406 C997.3359,288.2344 997.664,287.7813 997.664,287.3906 C997.664,286.9375 997.2734,286.5469 996.8046,286.5469 C996.5859,286.5469 996.3828,286.625 996.1953,286.8125 C995.7421,287.2969 995.7421,287.2969 995.5546,287.3906 C995.1328,287.6563 994.4453,287.7813 993.6796,287.7813 C991.6328,287.7813 990.3359,286.6875 990.3359,284.9844 L990.3359,283.8906 C990.3359,282.1094 991.5859,280.7969 993.3203,280.7969 C993.8984,280.7969 994.5078,280.9531 994.9765,281.2031 C995.4609,281.4844 995.6328,281.7031 995.7265,282.1094 C995.789,282.5156 995.8203,282.6406 995.9609,282.7656 C996.1015,282.9063 996.3359,283.0156 996.5546,283.0156 C996.8203,283.0156 997.0859,282.875 997.2578,282.6563 C997.3671,282.5 997.3984,282.3125 997.3984,281.8906 L997.3984,280.4688 C997.3984,280.0313 997.3828,279.9063 997.289,279.75 C997.1328,279.4844 996.8515,279.3438 996.5546,279.3438 C996.2578,279.3438 996.0546,279.4375 995.8359,279.75 L995.664,279.6719 Z "/><text fill="#000000" font-family="sans-serif" font-size="12" lengthAdjust="spacingAndGlyphs" textLength="174" x="1007.3203" y="288.1543">usantatecla.utils.YesNoDialog</text><line style="stroke: #A80036; stroke-width: 1.5;" x1="979.3203" x2="1183.3203" y1="300" y2="300"/><line style="stroke: #A80036; stroke-width: 1.5;" x1="979.3203" x2="1183.3203" y1="308" y2="308"/><!--MD5=[ce3aceb15685c4a66d1e1b8ea7e2c984]
class ColorCode--><rect codeLine="130" fill="#FEFECE" filter="url(#ffs22qtx3ygwy)" height="48" id="ColorCode" style="stroke: #A80036; stroke-width: 1.5;" width="194" x="978.3203" y="860.5"/><ellipse cx="993.3203" cy="876.5" fill="#EB937F" rx="11" ry="11" style="stroke: #A80036; stroke-width: 1.0;"/><path d="M992.1171,877.375 L993.5703,877.375 L993.5703,877.4844 C993.5703,877.8906 993.6015,878.0469 993.6796,878.2031 C993.8359,878.4531 994.1171,878.6094 994.414,878.6094 C994.664,878.6094 994.9296,878.4688 995.0859,878.25 C995.2109,878.0938 995.2421,877.9375 995.2421,877.4844 L995.2421,875.5625 C995.2421,875.4063 995.2421,875.3594 995.2265,875.2031 C995.164,874.7344 994.8515,874.4219 994.3984,874.4219 C994.1484,874.4219 993.8828,874.5625 993.7109,874.7813 C993.6015,874.9531 993.5703,875.1094 993.5703,875.5625 L993.5703,875.6875 L992.1171,875.6875 L992.1171,873.2813 L996.1015,873.2813 L996.1015,874.1406 C996.1015,874.5469 996.1328,874.7188 996.2109,874.875 C996.3828,875.125 996.664,875.2813 996.9453,875.2813 C997.2109,875.2813 997.4765,875.1406 997.6484,874.9219 C997.7578,874.75 997.789,874.6094 997.789,874.1406 L997.789,871.5938 L990.164,871.5938 C989.7265,871.5938 989.6015,871.6094 989.4453,871.7031 C989.1953,871.8594 989.039,872.1563 989.039,872.4375 C989.039,872.7188 989.1796,872.9688 989.3984,873.1406 C989.5546,873.25 989.7421,873.2813 990.164,873.2813 L990.414,873.2813 L990.414,879.7969 L990.164,879.7969 C989.7578,879.7969 989.6015,879.8125 989.4453,879.9219 C989.1953,880.0938 989.039,880.3594 989.039,880.6563 C989.039,880.9219 989.1796,881.1719 989.3984,881.3281 C989.539,881.4531 989.7734,881.5 990.164,881.5 L998.164,881.5 L998.164,878.9219 C998.164,878.4844 998.1328,878.3438 998.0546,878.1875 C997.8828,877.9375 997.6015,877.7813 997.3203,877.7813 C997.0546,877.7813 996.789,877.8906 996.6171,878.1406 C996.5078,878.2969 996.4765,878.4375 996.4765,878.9219 L996.4765,879.7969 L992.1171,879.7969 L992.1171,877.375 Z "/><text fill="#000000" font-family="sans-serif" font-size="12" lengthAdjust="spacingAndGlyphs" textLength="162" x="1007.3203" y="880.6543">usantatecla.utils.ColorCode</text><line style="stroke: #A80036; stroke-width: 1.5;" x1="979.3203" x2="1171.3203" y1="892.5" y2="892.5"/><line style="stroke: #A80036; stroke-width: 1.5;" x1="979.3203" x2="1171.3203" y1="900.5" y2="900.5"/><!--MD5=[ba28573f2062cf9f5d1d4aa517f0cc38]
link Mastermind to Board--><path codeLine="100" d="M353.9707,151.2246 C353.9707,151.2246 340.0103,186.929 333.1403,204.498 " fill="none" id="Mastermind-Board" style="stroke: #A80036; stroke-width: 1.0;"/><polygon fill="#A80036" points="328.3113,216.851,335.3135,209.925,330.1317,212.1942,327.8625,207.0124,328.3113,216.851" style="stroke: #A80036; stroke-width: 1.0;"/><line style="stroke: #A80036; stroke-width: 1.0;" x1="330.1317" x2="333.0448" y1="212.1942" y2="204.7435"/><polygon fill="#A80036" points="358.3393,140.048,352.4294,144.1801,353.9707,151.2246,359.8805,147.0925,358.3393,140.048" style="stroke: #A80036; stroke-width: 1.0;"/><text fill="#000000" font-family="sans-serif" font-size="13" lengthAdjust="spacingAndGlyphs" textLength="37" x="346.3203" y="183.0669">board</text><!--MD5=[165aae362738a81ed253bf2cad9e16e5]
link Mastermind to ProposedCombination--><path codeLine="101" d="M397.0923,140.215 C420.1953,203.44 453.0273,317.142 434.3203,414 C427.5563,449.022 413.2713,486.086 399.8113,515.91 " fill="none" id="Mastermind-to-ProposedCombination" style="stroke: #A80036; stroke-width: 1.0; stroke-dasharray: 7.0,7.0;"/><polygon fill="#A80036" points="397.6593,520.633,405.0305,514.1012,399.7321,516.0829,397.7504,510.7846,397.6593,520.633" style="stroke: #A80036; stroke-width: 1.0;"/><!--MD5=[5e915b8ab835b2366405aaf6901e131b]
link Board to SecretCombination--><path codeLine="102" d="M398.0122,364.4147 C398.0122,364.4147 425.9203,386.435 438.3203,397 C486.1002,437.706 537.1373,487.625 573.4753,524.396 " fill="none" id="Board-SecretCombination" style="stroke: #A80036; stroke-width: 1.0;"/><polygon fill="#A80036" points="582.8523,533.923,579.3904,524.7026,579.3451,530.3593,573.6885,530.314,582.8523,533.923" style="stroke: #A80036; stroke-width: 1.0;"/><line style="stroke: #A80036; stroke-width: 1.0;" x1="579.3451" x2="573.7333" y1="530.3593" y2="524.6575"/><polygon fill="#A80036" points="388.4992,357.1,390.8175,363.9283,398.0122,364.4147,395.6939,357.5864,388.4992,357.1" style="stroke: #A80036; stroke-width: 1.0;"/><text fill="#000000" font-family="sans-serif" font-size="13" lengthAdjust="spacingAndGlyphs" textLength="121" x="455.3203" y="410.0669">secretCombination</text><!--MD5=[e0b5d9907fda64872c10fd6493e0c51f]
link Board to ProposedCombination--><path codeLine="103" d="M277.2322,379.0081 C277.2322,379.0081 277.5472,403.193 280.3203,414 C288.9073,447.466 306.0143,481.436 322.9553,509.568 " fill="none" id="Board-ProposedCombination" style="stroke: #A80036; stroke-width: 1.0;"/><polygon fill="#A80036" points="329.9253,520.847,328.5965,511.0882,327.2967,516.5937,321.7912,515.2939,329.9253,520.847" style="stroke: #A80036; stroke-width: 1.0;"/><line style="stroke: #A80036; stroke-width: 1.0;" x1="327.2967" x2="323.0907" y1="516.5937" y2="509.788"/><polygon fill="#FFFFFF" points="278.1593,367.044,273.7077,372.7171,277.2322,379.0081,281.6838,373.3351,278.1593,367.044" style="stroke: #A80036; stroke-width: 1.0;"/><text fill="#000000" font-family="sans-serif" font-size="13" lengthAdjust="spacingAndGlyphs" textLength="148" x="281.3203" y="410.0669">proposedCombinations</text><text fill="#000000" font-family="sans-serif" font-size="13" lengthAdjust="spacingAndGlyphs" textLength="32" x="290.8278" y="509.7654">0..10</text><!--MD5=[8dd95aff79c51151a18c835e3410b3cd]
link Board to Result--><path codeLine="104" d="M202.5036,375.6517 C202.5036,375.6517 191.5802,390.012 187.3203,397 C168.1212,428.498 156.0982,467.562 148.6713,501.152 " fill="none" id="Board-Result" style="stroke: #A80036; stroke-width: 1.0;"/><polygon fill="#A80036" points="145.9502,514.209,151.7019,506.2141,146.9701,509.3141,143.8701,504.5823,145.9502,514.209" style="stroke: #A80036; stroke-width: 1.0;"/><line style="stroke: #A80036; stroke-width: 1.0;" x1="146.9701" x2="148.6022" y1="509.3141" y2="501.482"/><polygon fill="#FFFFFF" points="210.2383,366.477,203.3127,368.4862,202.5036,375.6517,209.4292,373.6426,210.2383,366.477" style="stroke: #A80036; stroke-width: 1.0;"/><text fill="#000000" font-family="sans-serif" font-size="13" lengthAdjust="spacingAndGlyphs" textLength="43" x="188.3203" y="410.0669">results</text><text fill="#000000" font-family="sans-serif" font-size="13" lengthAdjust="spacingAndGlyphs" textLength="32" x="113.1442" y="503.6045">0..10</text><!--MD5=[6e8433e42d71f9427401b78cd95c6f0c]
link Combination to Color--><path codeLine="106" d="M668.607,337.5587 C668.607,337.5587 736.2843,407.164 767.3203,444 C770.3983,447.653 773.4923,451.392 776.5873,455.191 " fill="none" id="Combination-Color" style="stroke: #A80036; stroke-width: 1.0;"/><polygon fill="#A80036" points="784.7723,465.367,782.248,455.8471,781.6383,461.471,776.0144,460.8614,784.7723,465.367" style="stroke: #A80036; stroke-width: 1.0;"/><line style="stroke: #A80036; stroke-width: 1.0;" x1="781.6383" x2="776.6238" y1="461.471" y2="455.237"/><polygon fill="#A80036" points="660.1383,329.057,661.5387,336.1308,668.607,337.5587,667.2066,330.4849,660.1383,329.057" style="stroke: #A80036; stroke-width: 1.0;"/><text fill="#000000" font-family="sans-serif" font-size="13" lengthAdjust="spacingAndGlyphs" textLength="8" x="768.7138" y="451.1006">4</text><!--MD5=[ed81d3472c9069d2de3c2f5cd308846f]
reverse link Combination to SecretCombination--><path codeLine="107" d="M623.3203,349.205 C623.3203,403.513 623.3203,484.56 623.3203,533.635 " fill="none" id="Combination-backto-SecretCombination" style="stroke: #A80036; stroke-width: 1.0;"/><polygon fill="none" points="616.3203,349.13,623.3203,329.13,630.3203,349.13,616.3203,349.13" style="stroke: #A80036; stroke-width: 1.0;"/><!--MD5=[2f10888865b2f559cc24db01ac34cee3]
reverse link Combination to ProposedCombination--><path codeLine="108" d="M539.3503,332.445 C510.0453,349.242 478.6783,371.014 455.3203,397 C450.7392,402.096 418.6743,469.913 395.0313,520.573 " fill="none" id="Combination-backto-ProposedCombination" style="stroke: #A80036; stroke-width: 1.0;"/><polygon fill="none" points="536.3383,326.114,557.2403,322.636,543.0683,338.39,536.3383,326.114" style="stroke: #A80036; stroke-width: 1.0;"/><!--MD5=[03e1adeaed11e2ac298b9b43cd912fbb]
link ProposedCombination to Error--><path codeLine="109" d="M379.0993,633.324 C387.2113,679.215 398.8812,745.241 408.1973,797.941 " fill="none" id="ProposedCombination-to-Error" style="stroke: #A80036; stroke-width: 1.0; stroke-dasharray: 7.0,7.0;"/><polygon fill="#A80036" points="409.0913,802.999,411.4617,793.4397,408.22,798.0755,403.5841,794.8337,409.0913,802.999" style="stroke: #A80036; stroke-width: 1.0;"/><!--MD5=[c90363da1e54012406e61a987ebdf2c8]
link Mastermind to Message--><path codeLine="112" d="M290.0913,140.007 C257.0902,160.965 220.6853,187.47 192.3203,217 C110.0463,302.654 83.9038,329.79 51.3203,444 C18.8862,557.686 6,600.809 51.3203,710 C68.7636,752.026 101.8783,789.152 134.5763,818.164 " fill="none" id="Mastermind-to-Message" style="stroke: #A80036; stroke-width: 1.0; stroke-dasharray: 7.0,7.0;"/><polygon fill="#A80036" points="138.5613,821.662,134.437,812.7183,134.8039,818.3632,129.1589,818.7301,138.5613,821.662" style="stroke: #A80036; stroke-width: 1.0;"/><!--MD5=[f93e57f7ded8581437b27fa1712e0f0d]
link Board to Message--><path codeLine="113" d="M276.3282,367.224 C269.7163,391.469 263.2403,418.674 259.3203,444 C242.5473,552.37 233.8993,677.119 229.5353,765.959 " fill="none" id="Board-to-Message" style="stroke: #A80036; stroke-width: 1.0; stroke-dasharray: 7.0,7.0;"/><polygon fill="#A80036" points="229.2923,770.958,233.7247,762.1629,229.5351,765.9639,225.7341,761.7743,229.2923,770.958" style="stroke: #A80036; stroke-width: 1.0;"/><!--MD5=[b9347c562a69bbba75d70bb21299d009]
link ProposedCombination to Message--><path codeLine="114" d="M343.2433,633.324 C325.8083,670.312 302.2082,720.38 280.7012,766.009 " fill="none" id="ProposedCombination-to-Message" style="stroke: #A80036; stroke-width: 1.0; stroke-dasharray: 7.0,7.0;"/><polygon fill="#A80036" points="278.4923,770.693,285.9489,764.2588,280.6249,766.1706,278.7131,760.8466,278.4923,770.693" style="stroke: #A80036; stroke-width: 1.0;"/><!--MD5=[478a268921f9a7a4cb7b8daeb48ad6b0]
link Result to Message--><path codeLine="115" d="M155.1282,639.822 C165.5493,676.001 179.0533,722.879 191.4283,765.842 " fill="none" id="Result-to-Message" style="stroke: #A80036; stroke-width: 1.0; stroke-dasharray: 7.0,7.0;"/><polygon fill="#A80036" points="192.8542,770.791,194.2087,761.0357,191.4712,765.9861,186.5208,763.2486,192.8542,770.791" style="stroke: #A80036; stroke-width: 1.0;"/><!--MD5=[922eb40535b2da68a8faa8740884533b]
link Board to Console--><path codeLine="137" d="M388.4632,323.12 C433.6153,337.672 489.5043,354.619 540.3203,367 C725.9783,412.235 802.6503,340.557 963.3203,444 C1112.0803,539.772 1137.4603,602.162 1190.3203,771 C1223.6503,877.46 1265.0603,939.182 1190.3203,1022 C1156.9703,1058.9539 843.5643,1075.1502 682.2643,1081.0868 " fill="none" id="Board-to-Console" style="stroke: #A80036; stroke-width: 1.0; stroke-dasharray: 7.0,7.0;"/><polygon fill="#A80036" points="677.0643,1081.2766,686.2045,1084.9448,682.0609,1081.0937,685.9119,1076.9501,677.0643,1081.2766" style="stroke: #A80036; stroke-width: 1.0;"/><!--MD5=[913a83e29969536c5e075cf265ec81cd]
link Color to Console--><path codeLine="138" d="M797.0363,710.43 C750.4403,799.382 686.4863,918.758 626.3203,1022 C619.6533,1033.44 611.9583,1045.8309 605.1732,1056.5065 " fill="none" id="Color-to-Console" style="stroke: #A80036; stroke-width: 1.0; stroke-dasharray: 7.0,7.0;"/><polygon fill="#A80036" points="602.3272,1060.969,610.5393,1055.5318,605.0159,1056.7534,603.7943,1051.23,602.3272,1060.969" style="stroke: #A80036; stroke-width: 1.0;"/><!--MD5=[e1c0657851f1818bbfea224ef31533f7]
link Color to ColorCode--><path codeLine="139" d="M945.9113,695.241 C986.2583,753.935 1031.6902,820.036 1056.5603,856.207 " fill="none" id="Color-to-ColorCode" style="stroke: #A80036; stroke-width: 1.0; stroke-dasharray: 7.0,7.0;"/><polygon fill="#A80036" points="1059.4903,860.467,1057.6988,850.7824,1056.6623,856.3435,1051.1012,855.3071,1059.4903,860.467" style="stroke: #A80036; stroke-width: 1.0;"/><!--MD5=[702d0bc4071943235df53e25e5a40cdb]
link Error to Console--><path codeLine="140" d="M475.3593,966.289 C490.7682,988.107 508.3533,1011.1536 526.3203,1031 C534.6413,1040.1914 544.4863,1049.3529 553.8123,1057.4099 " fill="none" id="Error-to-Console" style="stroke: #A80036; stroke-width: 1.0; stroke-dasharray: 7.0,7.0;"/><polygon fill="#A80036" points="557.7713,1060.7921,553.5258,1051.9053,553.9694,1057.5447,548.3299,1057.9883,557.7713,1060.7921" style="stroke: #A80036; stroke-width: 1.0;"/><!--MD5=[fde603ad956a440325a7db2e94c3d038]
link Message to Console--><path codeLine="141" d="M300.1933,998.179 C309.2313,1007.097 318.9632,1015.2473 329.3203,1022 C377.9183,1053.686 441.1393,1069.2011 492.8353,1076.7873 " fill="none" id="Message-to-Console" style="stroke: #A80036; stroke-width: 1.0; stroke-dasharray: 7.0,7.0;"/><polygon fill="#A80036" points="497.8013,1077.497,489.4574,1072.2643,492.8515,1076.7899,488.326,1080.1839,497.8013,1077.497" style="stroke: #A80036; stroke-width: 1.0;"/><!--MD5=[6bfe31e80e6e77060baa4b8d6064148a]
link ProposedCombination to Console--><path codeLine="142" d="M415.6833,633.318 C453.4903,679.395 502.7732,741.997 516.3203,771 C562.2383,869.303 579.3802,999.148 584.9563,1055.6788 " fill="none" id="ProposedCombination-to-Console" style="stroke: #A80036; stroke-width: 1.0; stroke-dasharray: 7.0,7.0;"/><polygon fill="#A80036" points="585.4603,1060.9171,588.5797,1051.5753,584.9813,1055.9401,580.6165,1052.3417,585.4603,1060.9171" style="stroke: #A80036; stroke-width: 1.0;"/><!--MD5=[336a78eb14894e486e0ed36e439320b7]
link SecretCombination to Console--><path codeLine="143" d="M620.3133,620.271 C613.1703,720.66 595.3383,971.309 589.3313,1055.7338 " fill="none" id="SecretCombination-to-Console" style="stroke: #A80036; stroke-width: 1.0; stroke-dasharray: 7.0,7.0;"/><polygon fill="#A80036" points="588.9703,1060.8151,593.5992,1052.1218,589.3253,1055.8277,585.6194,1051.5538,588.9703,1060.8151" style="stroke: #A80036; stroke-width: 1.0;"/><!--MD5=[1499d68dab61e96ede2ae386f5ea1cf6]
link Mastermind to YesNoDialog--><path codeLine="144" d="M469.8923,101.37 C587.7193,116.149 795.9353,149.804 962.3203,217 C992.4762,229.179 1023.5903,248.817 1046.4303,264.802 " fill="none" id="Mastermind-to-YesNoDialog" style="stroke: #A80036; stroke-width: 1.0; stroke-dasharray: 7.0,7.0;"/><polygon fill="#A80036" points="1050.6003,267.742,1045.5566,259.2826,1046.5162,264.8575,1040.9413,265.8171,1050.6003,267.742" style="stroke: #A80036; stroke-width: 1.0;"/><!--MD5=[dfd337d450e8046c782d59628dbacc8e]
@startuml
package usantatecla.mastermind {
class Mastermind {
	+ play()
	- playGame()
	- isResumedGame(): boolean 
	+ {static} main(String[])
}


class Board {
  - MAX_ATTEMPS: {static} int 
  - attempts: int 
  ~ Board()
  + writeln()
  + add(ProposedCombination)
  + isFinished(): boolean 
  + isWinner(): boolean 
  - isLooser(): boolean 
}

abstract class Combination {
	~ colors: List<Color> 
	~ Combination ()
}

class SecretCombination {
	~ SecretCombination()
	~ getResult(ProposedCombination): Result 
	~ writeln()
}

class ProposedCombination {
	~write()
	~read()
	- checkError(String): Error 
	~ contains(Color, int): boolean 
	~ contains(Color): boolean 
}

class Result{
	+ WIDTH: {static} int 
	- blacks: int 
	- whites: int 
	~ Result(int, int)
	~ isWinner(): boolean 
	~ writeln()
}

enum Color {
	+ RED
	+ BLUE
	+ YELLOW
	+ GREEN
	+ ORANGE
	+ PURPLE
	+ NULL_COLOR
	- initial: String 
	- RESET_COLOR: {static} String 
	- Color()
	- Color(char)
	~ {static} getInitials(): String 
	~ {static} getInstance(char): Color
	~ {static} length(): int 
	~ {static} get(int): Color 
	~ write()
	~ isNull(): boolean 
}

enum Error {
	+ DUPLICATED
	+ WRONG_CHARACTERS
	+ WRONG_LENGTH
	+ NULL_ERROR
	- message: String
	- Error()
	- Error(String)
	~ writeln()
	+ isNull(): boolean 
}

enum Message {
	+ ATTEMPTS
	+ SECRET_COMBINATION
	+ RESUME
	+ RESULT
	+ PROPOSED_COMBINATION
	+ TITLE
	+ WINNER
	+ LOOSER
	- message: String 
	- Message(String)
	~ write()
	~ writeln()
	~ writeln(int)
	~ writeln(int, int)
}



Mastermind *-down-> Board : board
Mastermind .down.> ProposedCombination
Board *-down-> SecretCombination : secretCombination
Board o-down-> "0..10" ProposedCombination : proposedCombinations
Board o-down-> "0..10" Result : results

Combination *-down-> "4" Color 
Combination <|-down- SecretCombination
Combination <|-down- ProposedCombination
ProposedCombination .down.> Error


Mastermind .down.> Message
Board .down.> Message
ProposedCombination .down.> Message
Result .down.> Message

}



class Console as "usantatecla.utils.Console" {


}

class YesNoDialog as "usantatecla.utils.YesNoDialog" {

}

enum ColorCode as "usantatecla.utils.ColorCode" {

}




Board .down.> Console
Color .down.> Console
Color .down.> ColorCode 
Error .down.> Console
Message .down.> Console
ProposedCombination .down.> Console
SecretCombination .down.> Console
Mastermind .down.> YesNoDialog
@enduml

PlantUML version 1.2020.20beta4(Unknown compile time)
(GPL source distribution)
Java Runtime: Java(TM) SE Runtime Environment
JVM: Java HotSpot(TM) 64-Bit Server VM
Default Encoding: UTF-8
Language: en
Country: US
--></g></svg>