<?xml version="1.0" encoding="UTF-8" standalone="no"?><svg xmlns="http://www.w3.org/2000/svg" xmlns:xlink="http://www.w3.org/1999/xlink" contentScriptType="application/ecmascript" contentStyleType="text/css" height="371px" preserveAspectRatio="none" style="width:665px;height:371px;" version="1.1" viewBox="0 0 665 371" width="665px" zoomAndPan="magnify"><defs><filter height="300%" id="f1sa8psq2e2k8j" width="300%" x="-1" y="-1"><feGaussianBlur result="blurOut" stdDeviation="2.0"/><feColorMatrix in="blurOut" result="blurOut2" type="matrix" values="0 0 0 0 0 0 0 0 0 0 0 0 0 0 0 0 0 0 .4 0"/><feOffset dx="4.0" dy="4.0" in="blurOut2" result="blurOut3"/><feBlend in="SourceGraphic" in2="blurOut3" mode="normal"/></filter></defs><g><!--MD5=[908cbfa8709a8ec6ee3beb0409fea32c]
cluster usantatecla.utils--><polygon fill="#FFFFFF" filter="url(#f1sa8psq2e2k8j)" points="16,6,162,6,169,28.2969,648,28.2969,648,246,16,246,16,6" style="stroke: #000000; stroke-width: 1.5;"/><line style="stroke: #000000; stroke-width: 1.5;" x1="16" x2="169" y1="28.2969" y2="28.2969"/><text fill="#000000" font-family="sans-serif" font-size="14" font-weight="bold" lengthAdjust="spacingAndGlyphs" textLength="140" x="20" y="20.9951">usantatecla.utils</text><!--MD5=[5f6eaca964039dd95284677bcb120bda]
class usantatecla.utils.ColorCode--><rect codeLine="1" fill="#FEFECE" filter="url(#f1sa8psq2e2k8j)" height="188.8516" id="usantatecla.utils.ColorCode" style="stroke: #A80036; stroke-width: 1.5;" width="183" x="448.5" y="41"/><ellipse cx="503.75" cy="57" fill="#EB937F" rx="11" ry="11" style="stroke: #A80036; stroke-width: 1.0;"/><path d="M502.5469,57.875 L504,57.875 L504,57.9844 C504,58.3906 504.0313,58.5469 504.1094,58.7031 C504.2656,58.9531 504.5469,59.1094 504.8438,59.1094 C505.0938,59.1094 505.3594,58.9688 505.5156,58.75 C505.6406,58.5938 505.6719,58.4375 505.6719,57.9844 L505.6719,56.0625 C505.6719,55.9063 505.6719,55.8594 505.6563,55.7031 C505.5938,55.2344 505.2813,54.9219 504.8281,54.9219 C504.5781,54.9219 504.3125,55.0625 504.1406,55.2813 C504.0313,55.4531 504,55.6094 504,56.0625 L504,56.1875 L502.5469,56.1875 L502.5469,53.7813 L506.5313,53.7813 L506.5313,54.6406 C506.5313,55.0469 506.5625,55.2188 506.6406,55.375 C506.8125,55.625 507.0938,55.7813 507.375,55.7813 C507.6406,55.7813 507.9063,55.6406 508.0781,55.4219 C508.1875,55.25 508.2188,55.1094 508.2188,54.6406 L508.2188,52.0938 L500.5938,52.0938 C500.1563,52.0938 500.0313,52.1094 499.875,52.2031 C499.625,52.3594 499.4688,52.6563 499.4688,52.9375 C499.4688,53.2188 499.6094,53.4688 499.8281,53.6406 C499.9844,53.75 500.1719,53.7813 500.5938,53.7813 L500.8438,53.7813 L500.8438,60.2969 L500.5938,60.2969 C500.1875,60.2969 500.0313,60.3125 499.875,60.4219 C499.625,60.5938 499.4688,60.8594 499.4688,61.1563 C499.4688,61.4219 499.6094,61.6719 499.8281,61.8281 C499.9688,61.9531 500.2031,62 500.5938,62 L508.5938,62 L508.5938,59.4219 C508.5938,58.9844 508.5625,58.8438 508.4844,58.6875 C508.3125,58.4375 508.0313,58.2813 507.75,58.2813 C507.4844,58.2813 507.2188,58.3906 507.0469,58.6406 C506.9375,58.7969 506.9063,58.9375 506.9063,59.4219 L506.9063,60.2969 L502.5469,60.2969 L502.5469,57.875 Z "/><text fill="#000000" font-family="sans-serif" font-size="12" lengthAdjust="spacingAndGlyphs" textLength="64" x="524.25" y="61.1543">ColorCode</text><line style="stroke: #A80036; stroke-width: 1.5;" x1="449.5" x2="630.5" y1="73" y2="73"/><ellipse cx="459.5" cy="84" fill="none" rx="3" ry="3" style="stroke: #038048; stroke-width: 1.0;"/><text fill="#000000" font-family="sans-serif" font-size="11" lengthAdjust="spacingAndGlyphs" text-decoration="underline" textLength="89" x="468.5" y="87.2104">RED: ColorCode</text><ellipse cx="459.5" cy="96.8047" fill="none" rx="3" ry="3" style="stroke: #038048; stroke-width: 1.0;"/><text fill="#000000" font-family="sans-serif" font-size="11" lengthAdjust="spacingAndGlyphs" text-decoration="underline" textLength="95" x="468.5" y="100.0151">BLUE: ColorCode</text><ellipse cx="459.5" cy="109.6094" fill="none" rx="3" ry="3" style="stroke: #038048; stroke-width: 1.0;"/><text fill="#000000" font-family="sans-serif" font-size="11" lengthAdjust="spacingAndGlyphs" text-decoration="underline" textLength="112" x="468.5" y="112.8198">YELLOW: ColorCode</text><ellipse cx="459.5" cy="122.4141" fill="none" rx="3" ry="3" style="stroke: #038048; stroke-width: 1.0;"/><text fill="#000000" font-family="sans-serif" font-size="11" lengthAdjust="spacingAndGlyphs" text-decoration="underline" textLength="104" x="468.5" y="125.6245">GREEN: ColorCode</text><ellipse cx="459.5" cy="135.2188" fill="none" rx="3" ry="3" style="stroke: #038048; stroke-width: 1.0;"/><text fill="#000000" font-family="sans-serif" font-size="11" lengthAdjust="spacingAndGlyphs" text-decoration="underline" textLength="114" x="468.5" y="138.4292">ORANGE: ColorCode</text><ellipse cx="459.5" cy="148.0234" fill="none" rx="3" ry="3" style="stroke: #038048; stroke-width: 1.0;"/><text fill="#000000" font-family="sans-serif" font-size="11" lengthAdjust="spacingAndGlyphs" text-decoration="underline" textLength="106" x="468.5" y="151.2339">PURPLE: ColorCode</text><ellipse cx="459.5" cy="160.8281" fill="none" rx="3" ry="3" style="stroke: #038048; stroke-width: 1.0;"/><text fill="#000000" font-family="sans-serif" font-size="11" lengthAdjust="spacingAndGlyphs" text-decoration="underline" textLength="147" x="468.5" y="164.0386">RESET_COLOR: ColorCode</text><rect fill="none" height="6" style="stroke: #C82930; stroke-width: 1.0;" width="6" x="456.5" y="170.6328"/><text fill="#000000" font-family="sans-serif" font-size="11" lengthAdjust="spacingAndGlyphs" textLength="67" x="468.5" y="176.8433">color: String</text><line style="stroke: #A80036; stroke-width: 1.5;" x1="449.5" x2="630.5" y1="183.4375" y2="183.4375"/><polygon fill="#4177AF" points="459.5,190.4375,455.5,196.4375,463.5,196.4375" style="stroke: #1963A0; stroke-width: 1.0;"/><text fill="#000000" font-family="sans-serif" font-size="11" lengthAdjust="spacingAndGlyphs" textLength="100" x="468.5" y="197.6479">ColorCode(String)</text><ellipse cx="459.5" cy="207.2422" fill="#84BE84" rx="3" ry="3" style="stroke: #038048; stroke-width: 1.0;"/><text fill="#000000" font-family="sans-serif" font-size="11" lengthAdjust="spacingAndGlyphs" textLength="96" x="468.5" y="210.4526">getColor(): String</text><ellipse cx="459.5" cy="220.0469" fill="#84BE84" rx="3" ry="3" style="stroke: #038048; stroke-width: 1.0;"/><text fill="#000000" font-family="sans-serif" font-size="11" lengthAdjust="spacingAndGlyphs" text-decoration="underline" textLength="157" x="468.5" y="223.2573">getColorByIndex(int): String</text><!--MD5=[5a5a2ad444bc00c1498d76ebf80a1dc4]
class usantatecla.utils.Console--><rect codeLine="15" fill="#FEFECE" filter="url(#f1sa8psq2e2k8j)" height="188.8516" id="usantatecla.utils.Console" style="stroke: #A80036; stroke-width: 1.5;" width="166" x="247" y="41"/><ellipse cx="301.25" cy="57" fill="#ADD1B2" rx="11" ry="11" style="stroke: #A80036; stroke-width: 1.0;"/><path d="M303.5938,52.6719 C302.6563,52.2344 302.0625,52.0938 301.1875,52.0938 C298.5625,52.0938 296.5625,54.1719 296.5625,56.8906 L296.5625,58.0156 C296.5625,60.5938 298.6719,62.4844 301.5625,62.4844 C302.7813,62.4844 303.9375,62.1875 304.6875,61.6406 C305.2656,61.2344 305.5938,60.7813 305.5938,60.3906 C305.5938,59.9375 305.2031,59.5469 304.7344,59.5469 C304.5156,59.5469 304.3125,59.625 304.125,59.8125 C303.6719,60.2969 303.6719,60.2969 303.4844,60.3906 C303.0625,60.6563 302.375,60.7813 301.6094,60.7813 C299.5625,60.7813 298.2656,59.6875 298.2656,57.9844 L298.2656,56.8906 C298.2656,55.1094 299.5156,53.7969 301.25,53.7969 C301.8281,53.7969 302.4375,53.9531 302.9063,54.2031 C303.3906,54.4844 303.5625,54.7031 303.6563,55.1094 C303.7188,55.5156 303.75,55.6406 303.8906,55.7656 C304.0313,55.9063 304.2656,56.0156 304.4844,56.0156 C304.75,56.0156 305.0156,55.875 305.1875,55.6563 C305.2969,55.5 305.3281,55.3125 305.3281,54.8906 L305.3281,53.4688 C305.3281,53.0313 305.3125,52.9063 305.2188,52.75 C305.0625,52.4844 304.7813,52.3438 304.4844,52.3438 C304.1875,52.3438 303.9844,52.4375 303.7656,52.75 L303.5938,52.6719 Z "/><text fill="#000000" font-family="sans-serif" font-size="12" lengthAdjust="spacingAndGlyphs" textLength="49" x="321.75" y="61.1543">Console</text><line style="stroke: #A80036; stroke-width: 1.5;" x1="248" x2="412" y1="73" y2="73"/><ellipse cx="258" cy="84" fill="none" rx="3" ry="3" style="stroke: #038048; stroke-width: 1.0;"/><text fill="#000000" font-family="sans-serif" font-size="11" lengthAdjust="spacingAndGlyphs" text-decoration="underline" textLength="97" x="267" y="87.2104">console: Console</text><line style="stroke: #A80036; stroke-width: 1.5;" x1="248" x2="412" y1="93.8047" y2="93.8047"/><ellipse cx="258" cy="104.8047" fill="#84BE84" rx="3" ry="3" style="stroke: #038048; stroke-width: 1.0;"/><text fill="#000000" font-family="sans-serif" font-size="11" lengthAdjust="spacingAndGlyphs" text-decoration="underline" textLength="128" x="267" y="108.0151">getInstance(): Console</text><ellipse cx="258" cy="117.6094" fill="#84BE84" rx="3" ry="3" style="stroke: #038048; stroke-width: 1.0;"/><text fill="#000000" font-family="sans-serif" font-size="11" lengthAdjust="spacingAndGlyphs" textLength="140" x="267" y="120.8198">readString(String): String</text><ellipse cx="258" cy="130.4141" fill="#84BE84" rx="3" ry="3" style="stroke: #038048; stroke-width: 1.0;"/><text fill="#000000" font-family="sans-serif" font-size="11" lengthAdjust="spacingAndGlyphs" textLength="107" x="267" y="133.6245">readString(): String</text><ellipse cx="258" cy="143.2188" fill="#84BE84" rx="3" ry="3" style="stroke: #038048; stroke-width: 1.0;"/><text fill="#000000" font-family="sans-serif" font-size="11" lengthAdjust="spacingAndGlyphs" textLength="102" x="267" y="146.4292">readInt(String): int</text><ellipse cx="258" cy="156.0234" fill="#84BE84" rx="3" ry="3" style="stroke: #038048; stroke-width: 1.0;"/><text fill="#000000" font-family="sans-serif" font-size="11" lengthAdjust="spacingAndGlyphs" textLength="124" x="267" y="159.2339">readChar(String): char</text><ellipse cx="258" cy="168.8281" fill="#84BE84" rx="3" ry="3" style="stroke: #038048; stroke-width: 1.0;"/><text fill="#000000" font-family="sans-serif" font-size="11" lengthAdjust="spacingAndGlyphs" textLength="46" x="267" y="172.0386">writeln()</text><ellipse cx="258" cy="181.6328" fill="#84BE84" rx="3" ry="3" style="stroke: #038048; stroke-width: 1.0;"/><text fill="#000000" font-family="sans-serif" font-size="11" lengthAdjust="spacingAndGlyphs" textLength="69" x="267" y="184.8433">write(String)</text><ellipse cx="258" cy="194.4375" fill="#84BE84" rx="3" ry="3" style="stroke: #038048; stroke-width: 1.0;"/><text fill="#000000" font-family="sans-serif" font-size="11" lengthAdjust="spacingAndGlyphs" textLength="79" x="267" y="197.6479">writeln(String)</text><ellipse cx="258" cy="207.2422" fill="#84BE84" rx="3" ry="3" style="stroke: #038048; stroke-width: 1.0;"/><text fill="#000000" font-family="sans-serif" font-size="11" lengthAdjust="spacingAndGlyphs" textLength="60" x="267" y="210.4526">write(char)</text><rect fill="#F24D5C" height="6" style="stroke: #C82930; stroke-width: 1.0;" width="6" x="255" y="217.0469"/><text fill="#000000" font-family="sans-serif" font-size="11" lengthAdjust="spacingAndGlyphs" textLength="95" x="267" y="223.2573">writeError(String)</text><!--MD5=[115031fed92a4467bd358dd9ee6729dd]
class usantatecla.utils.YesNoDialog--><rect codeLine="35" fill="#FEFECE" filter="url(#f1sa8psq2e2k8j)" height="163.2422" id="usantatecla.utils.YesNoDialog" style="stroke: #A80036; stroke-width: 1.5;" width="179" x="32.5" y="54"/><ellipse cx="79.75" cy="70" fill="#ADD1B2" rx="11" ry="11" style="stroke: #A80036; stroke-width: 1.0;"/><path d="M82.0938,65.6719 C81.1563,65.2344 80.5625,65.0938 79.6875,65.0938 C77.0625,65.0938 75.0625,67.1719 75.0625,69.8906 L75.0625,71.0156 C75.0625,73.5938 77.1719,75.4844 80.0625,75.4844 C81.2813,75.4844 82.4375,75.1875 83.1875,74.6406 C83.7656,74.2344 84.0938,73.7813 84.0938,73.3906 C84.0938,72.9375 83.7031,72.5469 83.2344,72.5469 C83.0156,72.5469 82.8125,72.625 82.625,72.8125 C82.1719,73.2969 82.1719,73.2969 81.9844,73.3906 C81.5625,73.6563 80.875,73.7813 80.1094,73.7813 C78.0625,73.7813 76.7656,72.6875 76.7656,70.9844 L76.7656,69.8906 C76.7656,68.1094 78.0156,66.7969 79.75,66.7969 C80.3281,66.7969 80.9375,66.9531 81.4063,67.2031 C81.8906,67.4844 82.0625,67.7031 82.1563,68.1094 C82.2188,68.5156 82.25,68.6406 82.3906,68.7656 C82.5313,68.9063 82.7656,69.0156 82.9844,69.0156 C83.25,69.0156 83.5156,68.875 83.6875,68.6563 C83.7969,68.5 83.8281,68.3125 83.8281,67.8906 L83.8281,66.4688 C83.8281,66.0313 83.8125,65.9063 83.7188,65.75 C83.5625,65.4844 83.2813,65.3438 82.9844,65.3438 C82.6875,65.3438 82.4844,65.4375 82.2656,65.75 L82.0938,65.6719 Z "/><text fill="#000000" font-family="sans-serif" font-size="12" lengthAdjust="spacingAndGlyphs" textLength="76" x="100.25" y="74.1543">YesNoDialog</text><line style="stroke: #A80036; stroke-width: 1.5;" x1="33.5" x2="210.5" y1="86" y2="86"/><rect fill="none" height="6" style="stroke: #C82930; stroke-width: 1.0;" width="6" x="40.5" y="94"/><text fill="#000000" font-family="sans-serif" font-size="11" lengthAdjust="spacingAndGlyphs" text-decoration="underline" textLength="97" x="52.5" y="100.2104">AFIRMATIVE: char</text><rect fill="none" height="6" style="stroke: #C82930; stroke-width: 1.0;" width="6" x="40.5" y="106.8047"/><text fill="#000000" font-family="sans-serif" font-size="11" lengthAdjust="spacingAndGlyphs" text-decoration="underline" textLength="88" x="52.5" y="113.0151">NEGATIVE: char</text><rect fill="none" height="6" style="stroke: #C82930; stroke-width: 1.0;" width="6" x="40.5" y="119.6094"/><text fill="#000000" font-family="sans-serif" font-size="11" lengthAdjust="spacingAndGlyphs" text-decoration="underline" textLength="99" x="52.5" y="125.8198">QUESTION: String</text><rect fill="none" height="6" style="stroke: #C82930; stroke-width: 1.0;" width="6" x="40.5" y="132.4141"/><text fill="#000000" font-family="sans-serif" font-size="11" lengthAdjust="spacingAndGlyphs" text-decoration="underline" textLength="96" x="52.5" y="138.6245">MESSAGE: String</text><line style="stroke: #A80036; stroke-width: 1.5;" x1="33.5" x2="210.5" y1="145.2188" y2="145.2188"/><ellipse cx="43.5" cy="156.2188" fill="#84BE84" rx="3" ry="3" style="stroke: #038048; stroke-width: 1.0;"/><text fill="#000000" font-family="sans-serif" font-size="11" lengthAdjust="spacingAndGlyphs" textLength="80" x="52.5" y="159.4292">YesNoDialog()</text><ellipse cx="43.5" cy="169.0234" fill="#84BE84" rx="3" ry="3" style="stroke: #038048; stroke-width: 1.0;"/><text fill="#000000" font-family="sans-serif" font-size="11" lengthAdjust="spacingAndGlyphs" textLength="120" x="52.5" y="172.2339">read(String): boolean</text><ellipse cx="43.5" cy="181.8281" fill="#84BE84" rx="3" ry="3" style="stroke: #038048; stroke-width: 1.0;"/><text fill="#000000" font-family="sans-serif" font-size="11" lengthAdjust="spacingAndGlyphs" textLength="87" x="52.5" y="185.0386">read(): boolean</text><rect fill="#F24D5C" height="6" style="stroke: #C82930; stroke-width: 1.0;" width="6" x="40.5" y="191.6328"/><text fill="#000000" font-family="sans-serif" font-size="11" lengthAdjust="spacingAndGlyphs" text-decoration="underline" textLength="153" x="52.5" y="197.8433">isAfirmative(char): boolean</text><rect fill="#F24D5C" height="6" style="stroke: #C82930; stroke-width: 1.0;" width="6" x="40.5" y="204.4375"/><text fill="#000000" font-family="sans-serif" font-size="11" lengthAdjust="spacingAndGlyphs" text-decoration="underline" textLength="146" x="52.5" y="210.6479">isNegative(char): boolean</text><!--MD5=[ee4f8f5c2b5eaa5df2ba8c0614cd4e83]
class BufferedReader--><rect codeLine="29" fill="#FEFECE" filter="url(#f1sa8psq2e2k8j)" height="48" id="BufferedReader" style="stroke: #A80036; stroke-width: 1.5;" width="168" x="246" y="309"/><ellipse cx="261" cy="325" fill="#ADD1B2" rx="11" ry="11" style="stroke: #A80036; stroke-width: 1.0;"/><path d="M263.3438,320.6719 C262.4063,320.2344 261.8125,320.0938 260.9375,320.0938 C258.3125,320.0938 256.3125,322.1719 256.3125,324.8906 L256.3125,326.0156 C256.3125,328.5938 258.4219,330.4844 261.3125,330.4844 C262.5313,330.4844 263.6875,330.1875 264.4375,329.6406 C265.0156,329.2344 265.3438,328.7813 265.3438,328.3906 C265.3438,327.9375 264.9531,327.5469 264.4844,327.5469 C264.2656,327.5469 264.0625,327.625 263.875,327.8125 C263.4219,328.2969 263.4219,328.2969 263.2344,328.3906 C262.8125,328.6563 262.125,328.7813 261.3594,328.7813 C259.3125,328.7813 258.0156,327.6875 258.0156,325.9844 L258.0156,324.8906 C258.0156,323.1094 259.2656,321.7969 261,321.7969 C261.5781,321.7969 262.1875,321.9531 262.6563,322.2031 C263.1406,322.4844 263.3125,322.7031 263.4063,323.1094 C263.4688,323.5156 263.5,323.6406 263.6406,323.7656 C263.7813,323.9063 264.0156,324.0156 264.2344,324.0156 C264.5,324.0156 264.7656,323.875 264.9375,323.6563 C265.0469,323.5 265.0781,323.3125 265.0781,322.8906 L265.0781,321.4688 C265.0781,321.0313 265.0625,320.9063 264.9688,320.75 C264.8125,320.4844 264.5313,320.3438 264.2344,320.3438 C263.9375,320.3438 263.7344,320.4375 263.5156,320.75 L263.3438,320.6719 Z "/><text fill="#000000" font-family="sans-serif" font-size="12" lengthAdjust="spacingAndGlyphs" textLength="136" x="275" y="329.1543">java.io.BufferedReader</text><line style="stroke: #A80036; stroke-width: 1.5;" x1="247" x2="413" y1="341" y2="341"/><line style="stroke: #A80036; stroke-width: 1.5;" x1="247" x2="413" y1="349" y2="349"/><!--MD5=[14426ff67e875e6661b88179367ed759]
link usantatecla.utils.Console to BufferedReader--><path codeLine="31" d="M330,242.242 C330,242.242 330,280.373 330,295.4594 " fill="none" id="usantatecla.utils.Console-BufferedReader" style="stroke: #A80036; stroke-width: 1.0;"/><polygon fill="#A80036" points="330,308.8345,334,299.8345,330,303.8345,326,299.8345,330,308.8345" style="stroke: #A80036; stroke-width: 1.0;"/><line style="stroke: #A80036; stroke-width: 1.0;" x1="330" x2="330" y1="303.8345" y2="295.8346"/><polygon fill="#A80036" points="330,230.242,326,236.242,330,242.242,334,236.242,330,230.242" style="stroke: #A80036; stroke-width: 1.0;"/><text fill="#000000" font-family="sans-serif" font-size="13" lengthAdjust="spacingAndGlyphs" textLength="101" x="331" y="275.0669">bufferedReader</text><!--MD5=[ea05d8354507bdb2a9c5430406895e1d]
@startuml
enum  usantatecla.utils.ColorCode{
+ {static} RED: ColorCode
+ {static} BLUE: ColorCode
+ {static} YELLOW: ColorCode
+ {static} GREEN: ColorCode
+ {static} ORANGE: ColorCode
+ {static} PURPLE: ColorCode
+ {static} RESET_COLOR: ColorCode
- color: String
~ ColorCode(String)
+ getColor(): String
+ {static} getColorByIndex(int): String
}

class  usantatecla.utils.Console{
+ {static} console: Console
+ {static} getInstance(): Console
+ readString(String): String
+ readString(): String
+ readInt(String): int
+ readChar(String): char
+ writeln()
+ write(String)
+ writeln(String)
+ write(char)
- writeError(String)
}

class BufferedReader as "java.io.BufferedReader"

usantatecla.utils.Console *-down-> BufferedReader : bufferedReader



class  usantatecla.utils.YesNoDialog{
- {static} AFIRMATIVE: char
- {static} NEGATIVE: char
- {static} QUESTION: String
- {static} MESSAGE: String
+ YesNoDialog()
+ read(String): boolean
+ read(): boolean
- {static} isAfirmative(char): boolean
- {static} isNegative(char): boolean
}
@enduml

PlantUML version 1.2020.20beta4(Unknown compile time)
(GPL source distribution)
Java Runtime: Java(TM) SE Runtime Environment
JVM: Java HotSpot(TM) 64-Bit Server VM
Default Encoding: UTF-8
Language: en
Country: US
--></g></svg>