<?xml version="1.0" encoding="UTF-8" standalone="no"?><svg xmlns="http://www.w3.org/2000/svg" xmlns:xlink="http://www.w3.org/1999/xlink" contentScriptType="application/ecmascript" contentStyleType="text/css" height="625px" preserveAspectRatio="none" style="width:607px;height:625px;" version="1.1" viewBox="0 0 607 625" width="607px" zoomAndPan="magnify"><defs><filter height="300%" id="f1g8c4t0md5mtr" width="300%" x="-1" y="-1"><feGaussianBlur result="blurOut" stdDeviation="2.0"/><feColorMatrix in="blurOut" result="blurOut2" type="matrix" values="0 0 0 0 0 0 0 0 0 0 0 0 0 0 0 0 0 0 .4 0"/><feOffset dx="4.0" dy="4.0" in="blurOut2" result="blurOut3"/><feBlend in="SourceGraphic" in2="blurOut3" mode="normal"/></filter></defs><g><!--MD5=[908cbfa8709a8ec6ee3beb0409fea32c]
cluster usantatecla.utils--><polygon fill="#FFFFFF" filter="url(#f1g8c4t0md5mtr)" points="16,6,162,6,169,28.2969,590,28.2969,590,495,16,495,16,6" style="stroke: #000000; stroke-width: 1.5;"/><line style="stroke: #000000; stroke-width: 1.5;" x1="16" x2="169" y1="28.2969" y2="28.2969"/><text fill="#000000" font-family="sans-serif" font-size="14" font-weight="bold" lengthAdjust="spacingAndGlyphs" textLength="140" x="20" y="20.9951">usantatecla.utils</text><!--MD5=[0d852700fdad35b7061d461d6907a324]
cluster java.io--><polygon fill="#FFFFFF" filter="url(#f1g8c4t0md5mtr)" points="115,519,175,519,182,541.2969,275,541.2969,275,618,115,618,115,519" style="stroke: #000000; stroke-width: 1.5;"/><line style="stroke: #000000; stroke-width: 1.5;" x1="115" x2="182" y1="541.2969" y2="541.2969"/><text fill="#000000" font-family="sans-serif" font-size="14" font-weight="bold" lengthAdjust="spacingAndGlyphs" textLength="54" x="119" y="533.9951">java.io</text><!--MD5=[b0b725b3db639de93c4e5e8714f3aefc]
class usantatecla.utils.ClosedInterval--><rect codeLine="1" fill="#FEFECE" filter="url(#f1g8c4t0md5mtr)" height="99.2188" id="usantatecla.utils.ClosedInterval" style="stroke: #A80036; stroke-width: 1.5;" width="151" x="422.5" y="86"/><ellipse cx="452.35" cy="102" fill="#ADD1B2" rx="11" ry="11" style="stroke: #A80036; stroke-width: 1.0;"/><path d="M454.6938,97.6719 C453.7563,97.2344 453.1625,97.0938 452.2875,97.0938 C449.6625,97.0938 447.6625,99.1719 447.6625,101.8906 L447.6625,103.0156 C447.6625,105.5938 449.7719,107.4844 452.6625,107.4844 C453.8813,107.4844 455.0375,107.1875 455.7875,106.6406 C456.3656,106.2344 456.6938,105.7813 456.6938,105.3906 C456.6938,104.9375 456.3031,104.5469 455.8344,104.5469 C455.6156,104.5469 455.4125,104.625 455.225,104.8125 C454.7719,105.2969 454.7719,105.2969 454.5844,105.3906 C454.1625,105.6563 453.475,105.7813 452.7094,105.7813 C450.6625,105.7813 449.3656,104.6875 449.3656,102.9844 L449.3656,101.8906 C449.3656,100.1094 450.6156,98.7969 452.35,98.7969 C452.9281,98.7969 453.5375,98.9531 454.0063,99.2031 C454.4906,99.4844 454.6625,99.7031 454.7563,100.1094 C454.8188,100.5156 454.85,100.6406 454.9906,100.7656 C455.1313,100.9063 455.3656,101.0156 455.5844,101.0156 C455.85,101.0156 456.1156,100.875 456.2875,100.6563 C456.3969,100.5 456.4281,100.3125 456.4281,99.8906 L456.4281,98.4688 C456.4281,98.0313 456.4125,97.9063 456.3188,97.75 C456.1625,97.4844 455.8813,97.3438 455.5844,97.3438 C455.2875,97.3438 455.0844,97.4375 454.8656,97.75 L454.6938,97.6719 Z "/><text fill="#000000" font-family="sans-serif" font-size="12" lengthAdjust="spacingAndGlyphs" textLength="86" x="469.65" y="106.1543">ClosedInterval</text><line style="stroke: #A80036; stroke-width: 1.5;" x1="423.5" x2="572.5" y1="118" y2="118"/><rect fill="none" height="6" style="stroke: #C82930; stroke-width: 1.0;" width="6" x="430.5" y="126"/><text fill="#000000" font-family="sans-serif" font-size="11" lengthAdjust="spacingAndGlyphs" textLength="42" x="442.5" y="132.2104">min: int</text><rect fill="none" height="6" style="stroke: #C82930; stroke-width: 1.0;" width="6" x="430.5" y="138.8047"/><text fill="#000000" font-family="sans-serif" font-size="11" lengthAdjust="spacingAndGlyphs" textLength="46" x="442.5" y="145.0151">max: int</text><line style="stroke: #A80036; stroke-width: 1.5;" x1="423.5" x2="572.5" y1="151.6094" y2="151.6094"/><ellipse cx="433.5" cy="162.6094" fill="#84BE84" rx="3" ry="3" style="stroke: #038048; stroke-width: 1.0;"/><text fill="#000000" font-family="sans-serif" font-size="11" lengthAdjust="spacingAndGlyphs" textLength="125" x="442.5" y="165.8198">ClosedInterval(int, int)</text><ellipse cx="433.5" cy="175.4141" fill="#84BE84" rx="3" ry="3" style="stroke: #038048; stroke-width: 1.0;"/><text fill="#000000" font-family="sans-serif" font-size="11" lengthAdjust="spacingAndGlyphs" textLength="122" x="442.5" y="178.6245">includes(int): boolean</text><!--MD5=[5a5a2ad444bc00c1498d76ebf80a1dc4]
class usantatecla.utils.Console--><rect codeLine="8" fill="#FEFECE" filter="url(#f1g8c4t0md5mtr)" height="188.8516" id="usantatecla.utils.Console" style="stroke: #A80036; stroke-width: 1.5;" width="214" x="88" y="290"/><ellipse cx="166.25" cy="306" fill="#ADD1B2" rx="11" ry="11" style="stroke: #A80036; stroke-width: 1.0;"/><path d="M168.5938,301.6719 C167.6563,301.2344 167.0625,301.0938 166.1875,301.0938 C163.5625,301.0938 161.5625,303.1719 161.5625,305.8906 L161.5625,307.0156 C161.5625,309.5938 163.6719,311.4844 166.5625,311.4844 C167.7813,311.4844 168.9375,311.1875 169.6875,310.6406 C170.2656,310.2344 170.5938,309.7813 170.5938,309.3906 C170.5938,308.9375 170.2031,308.5469 169.7344,308.5469 C169.5156,308.5469 169.3125,308.625 169.125,308.8125 C168.6719,309.2969 168.6719,309.2969 168.4844,309.3906 C168.0625,309.6563 167.375,309.7813 166.6094,309.7813 C164.5625,309.7813 163.2656,308.6875 163.2656,306.9844 L163.2656,305.8906 C163.2656,304.1094 164.5156,302.7969 166.25,302.7969 C166.8281,302.7969 167.4375,302.9531 167.9063,303.2031 C168.3906,303.4844 168.5625,303.7031 168.6563,304.1094 C168.7188,304.5156 168.75,304.6406 168.8906,304.7656 C169.0313,304.9063 169.2656,305.0156 169.4844,305.0156 C169.75,305.0156 170.0156,304.875 170.1875,304.6563 C170.2969,304.5 170.3281,304.3125 170.3281,303.8906 L170.3281,302.4688 C170.3281,302.0313 170.3125,301.9063 170.2188,301.75 C170.0625,301.4844 169.7813,301.3438 169.4844,301.3438 C169.1875,301.3438 168.9844,301.4375 168.7656,301.75 L168.5938,301.6719 Z "/><text fill="#000000" font-family="sans-serif" font-size="12" lengthAdjust="spacingAndGlyphs" textLength="49" x="186.75" y="310.1543">Console</text><line style="stroke: #A80036; stroke-width: 1.5;" x1="89" x2="301" y1="322" y2="322"/><rect fill="none" height="6" style="stroke: #C82930; stroke-width: 1.0;" width="6" x="96" y="330"/><text fill="#000000" font-family="sans-serif" font-size="11" lengthAdjust="spacingAndGlyphs" textLength="188" x="108" y="336.2104">bufferedReader: BufferedReader</text><line style="stroke: #A80036; stroke-width: 1.5;" x1="89" x2="301" y1="342.8047" y2="342.8047"/><ellipse cx="99" cy="353.8047" fill="#84BE84" rx="3" ry="3" style="stroke: #038048; stroke-width: 1.0;"/><text fill="#000000" font-family="sans-serif" font-size="11" lengthAdjust="spacingAndGlyphs" textLength="54" x="108" y="357.0151">Console()</text><ellipse cx="99" cy="366.6094" fill="#84BE84" rx="3" ry="3" style="stroke: #038048; stroke-width: 1.0;"/><text fill="#000000" font-family="sans-serif" font-size="11" lengthAdjust="spacingAndGlyphs" textLength="91" x="108" y="369.8198">write(char): void</text><ellipse cx="99" cy="379.4141" fill="#84BE84" rx="3" ry="3" style="stroke: #038048; stroke-width: 1.0;"/><text fill="#000000" font-family="sans-serif" font-size="11" lengthAdjust="spacingAndGlyphs" textLength="100" x="108" y="382.6245">write(String): void</text><ellipse cx="99" cy="392.2188" fill="#84BE84" rx="3" ry="3" style="stroke: #038048; stroke-width: 1.0;"/><text fill="#000000" font-family="sans-serif" font-size="11" lengthAdjust="spacingAndGlyphs" textLength="102" x="108" y="395.4292">readInt(String): int</text><ellipse cx="99" cy="405.0234" fill="#84BE84" rx="3" ry="3" style="stroke: #038048; stroke-width: 1.0;"/><text fill="#000000" font-family="sans-serif" font-size="11" lengthAdjust="spacingAndGlyphs" textLength="124" x="108" y="408.2339">readChar(String): char</text><rect fill="#F24D5C" height="6" style="stroke: #C82930; stroke-width: 1.0;" width="6" x="96" y="414.8281"/><text fill="#000000" font-family="sans-serif" font-size="11" lengthAdjust="spacingAndGlyphs" textLength="126" x="108" y="421.0386">writeError(String): void</text><ellipse cx="99" cy="430.6328" fill="#84BE84" rx="3" ry="3" style="stroke: #038048; stroke-width: 1.0;"/><text fill="#000000" font-family="sans-serif" font-size="11" lengthAdjust="spacingAndGlyphs" textLength="110" x="108" y="433.8433">writeln(String): void</text><ellipse cx="99" cy="443.4375" fill="#84BE84" rx="3" ry="3" style="stroke: #038048; stroke-width: 1.0;"/><text fill="#000000" font-family="sans-serif" font-size="11" lengthAdjust="spacingAndGlyphs" textLength="91" x="108" y="446.6479">writeln(int): void</text><ellipse cx="99" cy="456.2422" fill="#84BE84" rx="3" ry="3" style="stroke: #038048; stroke-width: 1.0;"/><text fill="#000000" font-family="sans-serif" font-size="11" lengthAdjust="spacingAndGlyphs" textLength="77" x="108" y="459.4526">writeln(): void</text><ellipse cx="99" cy="469.0469" fill="#84BE84" rx="3" ry="3" style="stroke: #038048; stroke-width: 1.0;"/><text fill="#000000" font-family="sans-serif" font-size="11" lengthAdjust="spacingAndGlyphs" textLength="140" x="108" y="472.2573">readString(String): String</text><!--MD5=[ba58421efd58e7293b281009adee2615]
class usantatecla.utils.WithConsoleView--><rect codeLine="23" fill="#FEFECE" filter="url(#f1g8c4t0md5mtr)" height="73.6094" id="usantatecla.utils.WithConsoleView" style="stroke: #A80036; stroke-width: 1.5;" width="136" x="251" y="98.5"/><ellipse cx="266" cy="114.5" fill="#ADD1B2" rx="11" ry="11" style="stroke: #A80036; stroke-width: 1.0;"/><path d="M268.3438,110.1719 C267.4063,109.7344 266.8125,109.5938 265.9375,109.5938 C263.3125,109.5938 261.3125,111.6719 261.3125,114.3906 L261.3125,115.5156 C261.3125,118.0938 263.4219,119.9844 266.3125,119.9844 C267.5313,119.9844 268.6875,119.6875 269.4375,119.1406 C270.0156,118.7344 270.3438,118.2813 270.3438,117.8906 C270.3438,117.4375 269.9531,117.0469 269.4844,117.0469 C269.2656,117.0469 269.0625,117.125 268.875,117.3125 C268.4219,117.7969 268.4219,117.7969 268.2344,117.8906 C267.8125,118.1563 267.125,118.2813 266.3594,118.2813 C264.3125,118.2813 263.0156,117.1875 263.0156,115.4844 L263.0156,114.3906 C263.0156,112.6094 264.2656,111.2969 266,111.2969 C266.5781,111.2969 267.1875,111.4531 267.6563,111.7031 C268.1406,111.9844 268.3125,112.2031 268.4063,112.6094 C268.4688,113.0156 268.5,113.1406 268.6406,113.2656 C268.7813,113.4063 269.0156,113.5156 269.2344,113.5156 C269.5,113.5156 269.7656,113.375 269.9375,113.1563 C270.0469,113 270.0781,112.8125 270.0781,112.3906 L270.0781,110.9688 C270.0781,110.5313 270.0625,110.4063 269.9688,110.25 C269.8125,109.9844 269.5313,109.8438 269.2344,109.8438 C268.9375,109.8438 268.7344,109.9375 268.5156,110.25 L268.3438,110.1719 Z "/><text fill="#000000" font-family="sans-serif" font-size="12" lengthAdjust="spacingAndGlyphs" textLength="104" x="280" y="118.6543">WithConsoleView</text><line style="stroke: #A80036; stroke-width: 1.5;" x1="252" x2="386" y1="130.5" y2="130.5"/><polygon fill="none" points="262,136.5,266,140.5,262,144.5,258,140.5" style="stroke: #B38D22; stroke-width: 1.0;"/><text fill="#000000" font-family="sans-serif" font-size="11" lengthAdjust="spacingAndGlyphs" textLength="97" x="271" y="144.7104">console: Console</text><line style="stroke: #A80036; stroke-width: 1.5;" x1="252" x2="386" y1="151.3047" y2="151.3047"/><polygon fill="#FFFF44" points="262,157.3047,266,161.3047,262,165.3047,258,161.3047" style="stroke: #B38D22; stroke-width: 1.0;"/><text fill="#000000" font-family="sans-serif" font-size="11" lengthAdjust="spacingAndGlyphs" textLength="107" x="271" y="165.5151">WithConsoleView()</text><!--MD5=[115031fed92a4467bd358dd9ee6729dd]
class usantatecla.utils.YesNoDialog--><rect codeLine="29" fill="#FEFECE" filter="url(#f1g8c4t0md5mtr)" height="150.4375" id="usantatecla.utils.YesNoDialog" style="stroke: #A80036; stroke-width: 1.5;" width="179" x="337.5" y="309.5"/><ellipse cx="384.75" cy="325.5" fill="#ADD1B2" rx="11" ry="11" style="stroke: #A80036; stroke-width: 1.0;"/><path d="M387.0938,321.1719 C386.1563,320.7344 385.5625,320.5938 384.6875,320.5938 C382.0625,320.5938 380.0625,322.6719 380.0625,325.3906 L380.0625,326.5156 C380.0625,329.0938 382.1719,330.9844 385.0625,330.9844 C386.2813,330.9844 387.4375,330.6875 388.1875,330.1406 C388.7656,329.7344 389.0938,329.2813 389.0938,328.8906 C389.0938,328.4375 388.7031,328.0469 388.2344,328.0469 C388.0156,328.0469 387.8125,328.125 387.625,328.3125 C387.1719,328.7969 387.1719,328.7969 386.9844,328.8906 C386.5625,329.1563 385.875,329.2813 385.1094,329.2813 C383.0625,329.2813 381.7656,328.1875 381.7656,326.4844 L381.7656,325.3906 C381.7656,323.6094 383.0156,322.2969 384.75,322.2969 C385.3281,322.2969 385.9375,322.4531 386.4063,322.7031 C386.8906,322.9844 387.0625,323.2031 387.1563,323.6094 C387.2188,324.0156 387.25,324.1406 387.3906,324.2656 C387.5313,324.4063 387.7656,324.5156 387.9844,324.5156 C388.25,324.5156 388.5156,324.375 388.6875,324.1563 C388.7969,324 388.8281,323.8125 388.8281,323.3906 L388.8281,321.9688 C388.8281,321.5313 388.8125,321.4063 388.7188,321.25 C388.5625,320.9844 388.2813,320.8438 387.9844,320.8438 C387.6875,320.8438 387.4844,320.9375 387.2656,321.25 L387.0938,321.1719 Z "/><text fill="#000000" font-family="sans-serif" font-size="12" lengthAdjust="spacingAndGlyphs" textLength="76" x="405.25" y="329.6543">YesNoDialog</text><line style="stroke: #A80036; stroke-width: 1.5;" x1="338.5" x2="515.5" y1="341.5" y2="341.5"/><rect fill="none" height="6" style="stroke: #C82930; stroke-width: 1.0;" width="6" x="345.5" y="349.5"/><text fill="#000000" font-family="sans-serif" font-size="11" lengthAdjust="spacingAndGlyphs" text-decoration="underline" textLength="97" x="357.5" y="355.7104">AFIRMATIVE: char</text><rect fill="none" height="6" style="stroke: #C82930; stroke-width: 1.0;" width="6" x="345.5" y="362.3047"/><text fill="#000000" font-family="sans-serif" font-size="11" lengthAdjust="spacingAndGlyphs" text-decoration="underline" textLength="88" x="357.5" y="368.5151">NEGATIVE: char</text><rect fill="none" height="6" style="stroke: #C82930; stroke-width: 1.0;" width="6" x="345.5" y="375.1094"/><text fill="#000000" font-family="sans-serif" font-size="11" lengthAdjust="spacingAndGlyphs" text-decoration="underline" textLength="99" x="357.5" y="381.3198">QUESTION: String</text><rect fill="none" height="6" style="stroke: #C82930; stroke-width: 1.0;" width="6" x="345.5" y="387.9141"/><text fill="#000000" font-family="sans-serif" font-size="11" lengthAdjust="spacingAndGlyphs" text-decoration="underline" textLength="96" x="357.5" y="394.1245">MESSAGE: String</text><line style="stroke: #A80036; stroke-width: 1.5;" x1="338.5" x2="515.5" y1="400.7188" y2="400.7188"/><ellipse cx="348.5" cy="411.7188" fill="#84BE84" rx="3" ry="3" style="stroke: #038048; stroke-width: 1.0;"/><text fill="#000000" font-family="sans-serif" font-size="11" lengthAdjust="spacingAndGlyphs" textLength="80" x="357.5" y="414.9292">YesNoDialog()</text><ellipse cx="348.5" cy="424.5234" fill="#84BE84" rx="3" ry="3" style="stroke: #038048; stroke-width: 1.0;"/><text fill="#000000" font-family="sans-serif" font-size="11" lengthAdjust="spacingAndGlyphs" textLength="120" x="357.5" y="427.7339">read(String): boolean</text><rect fill="#F24D5C" height="6" style="stroke: #C82930; stroke-width: 1.0;" width="6" x="345.5" y="434.3281"/><text fill="#000000" font-family="sans-serif" font-size="11" lengthAdjust="spacingAndGlyphs" text-decoration="underline" textLength="153" x="357.5" y="440.5386">isAfirmative(char): boolean</text><rect fill="#F24D5C" height="6" style="stroke: #C82930; stroke-width: 1.0;" width="6" x="345.5" y="447.1328"/><text fill="#000000" font-family="sans-serif" font-size="11" lengthAdjust="spacingAndGlyphs" text-decoration="underline" textLength="146" x="357.5" y="453.3433">isNegative(char): boolean</text><!--MD5=[5f6eaca964039dd95284677bcb120bda]
class usantatecla.utils.ColorCode--><rect codeLine="40" fill="#FEFECE" filter="url(#f1g8c4t0md5mtr)" height="188.8516" id="usantatecla.utils.ColorCode" style="stroke: #A80036; stroke-width: 1.5;" width="183" x="32.5" y="41"/><ellipse cx="87.75" cy="57" fill="#ADD1B2" rx="11" ry="11" style="stroke: #A80036; stroke-width: 1.0;"/><path d="M90.0938,52.6719 C89.1563,52.2344 88.5625,52.0938 87.6875,52.0938 C85.0625,52.0938 83.0625,54.1719 83.0625,56.8906 L83.0625,58.0156 C83.0625,60.5938 85.1719,62.4844 88.0625,62.4844 C89.2813,62.4844 90.4375,62.1875 91.1875,61.6406 C91.7656,61.2344 92.0938,60.7813 92.0938,60.3906 C92.0938,59.9375 91.7031,59.5469 91.2344,59.5469 C91.0156,59.5469 90.8125,59.625 90.625,59.8125 C90.1719,60.2969 90.1719,60.2969 89.9844,60.3906 C89.5625,60.6563 88.875,60.7813 88.1094,60.7813 C86.0625,60.7813 84.7656,59.6875 84.7656,57.9844 L84.7656,56.8906 C84.7656,55.1094 86.0156,53.7969 87.75,53.7969 C88.3281,53.7969 88.9375,53.9531 89.4063,54.2031 C89.8906,54.4844 90.0625,54.7031 90.1563,55.1094 C90.2188,55.5156 90.25,55.6406 90.3906,55.7656 C90.5313,55.9063 90.7656,56.0156 90.9844,56.0156 C91.25,56.0156 91.5156,55.875 91.6875,55.6563 C91.7969,55.5 91.8281,55.3125 91.8281,54.8906 L91.8281,53.4688 C91.8281,53.0313 91.8125,52.9063 91.7188,52.75 C91.5625,52.4844 91.2813,52.3438 90.9844,52.3438 C90.6875,52.3438 90.4844,52.4375 90.2656,52.75 L90.0938,52.6719 Z "/><text fill="#000000" font-family="sans-serif" font-size="12" lengthAdjust="spacingAndGlyphs" textLength="64" x="108.25" y="61.1543">ColorCode</text><line style="stroke: #A80036; stroke-width: 1.5;" x1="33.5" x2="214.5" y1="73" y2="73"/><ellipse cx="43.5" cy="84" fill="none" rx="3" ry="3" style="stroke: #038048; stroke-width: 1.0;"/><text fill="#000000" font-family="sans-serif" font-size="11" lengthAdjust="spacingAndGlyphs" textLength="23" x="52.5" y="87.2104">RED</text><ellipse cx="43.5" cy="96.8047" fill="none" rx="3" ry="3" style="stroke: #038048; stroke-width: 1.0;"/><text fill="#000000" font-family="sans-serif" font-size="11" lengthAdjust="spacingAndGlyphs" textLength="29" x="52.5" y="100.0151">BLUE</text><ellipse cx="43.5" cy="109.6094" fill="none" rx="3" ry="3" style="stroke: #038048; stroke-width: 1.0;"/><text fill="#000000" font-family="sans-serif" font-size="11" lengthAdjust="spacingAndGlyphs" textLength="46" x="52.5" y="112.8198">YELLOW</text><ellipse cx="43.5" cy="122.4141" fill="none" rx="3" ry="3" style="stroke: #038048; stroke-width: 1.0;"/><text fill="#000000" font-family="sans-serif" font-size="11" lengthAdjust="spacingAndGlyphs" textLength="38" x="52.5" y="125.6245">GREEN</text><ellipse cx="43.5" cy="135.2188" fill="none" rx="3" ry="3" style="stroke: #038048; stroke-width: 1.0;"/><text fill="#000000" font-family="sans-serif" font-size="11" lengthAdjust="spacingAndGlyphs" textLength="48" x="52.5" y="138.4292">ORANGE</text><ellipse cx="43.5" cy="148.0234" fill="none" rx="3" ry="3" style="stroke: #038048; stroke-width: 1.0;"/><text fill="#000000" font-family="sans-serif" font-size="11" lengthAdjust="spacingAndGlyphs" textLength="40" x="52.5" y="151.2339">PURPLE</text><ellipse cx="43.5" cy="160.8281" fill="none" rx="3" ry="3" style="stroke: #038048; stroke-width: 1.0;"/><text fill="#000000" font-family="sans-serif" font-size="11" lengthAdjust="spacingAndGlyphs" textLength="81" x="52.5" y="164.0386">RESET_COLOR</text><rect fill="none" height="6" style="stroke: #C82930; stroke-width: 1.0;" width="6" x="40.5" y="170.6328"/><text fill="#000000" font-family="sans-serif" font-size="11" lengthAdjust="spacingAndGlyphs" textLength="67" x="52.5" y="176.8433">color: String</text><line style="stroke: #A80036; stroke-width: 1.5;" x1="33.5" x2="214.5" y1="183.4375" y2="183.4375"/><text fill="#000000" font-family="sans-serif" font-size="11" lengthAdjust="spacingAndGlyphs" textLength="100" x="52.5" y="197.6479">ColorCode(String)</text><ellipse cx="43.5" cy="207.2422" fill="#84BE84" rx="3" ry="3" style="stroke: #038048; stroke-width: 1.0;"/><text fill="#000000" font-family="sans-serif" font-size="11" lengthAdjust="spacingAndGlyphs" textLength="96" x="52.5" y="210.4526">getColor(): String</text><ellipse cx="43.5" cy="220.0469" fill="#84BE84" rx="3" ry="3" style="stroke: #038048; stroke-width: 1.0;"/><text fill="#000000" font-family="sans-serif" font-size="11" lengthAdjust="spacingAndGlyphs" text-decoration="underline" textLength="157" x="52.5" y="223.2573">getColorByIndex(int): String</text><!--MD5=[06343bf850d7d7a24456cd327e63b99b]
class java.io.BufferedReader--><rect fill="#FEFECE" filter="url(#f1g8c4t0md5mtr)" height="48" id="java.io.BufferedReader" style="stroke: #A80036; stroke-width: 1.5;" width="127" x="131.5" y="554"/><ellipse cx="146.5" cy="570" fill="#ADD1B2" rx="11" ry="11" style="stroke: #A80036; stroke-width: 1.0;"/><path d="M148.8438,565.6719 C147.9063,565.2344 147.3125,565.0938 146.4375,565.0938 C143.8125,565.0938 141.8125,567.1719 141.8125,569.8906 L141.8125,571.0156 C141.8125,573.5938 143.9219,575.4844 146.8125,575.4844 C148.0313,575.4844 149.1875,575.1875 149.9375,574.6406 C150.5156,574.2344 150.8438,573.7813 150.8438,573.3906 C150.8438,572.9375 150.4531,572.5469 149.9844,572.5469 C149.7656,572.5469 149.5625,572.625 149.375,572.8125 C148.9219,573.2969 148.9219,573.2969 148.7344,573.3906 C148.3125,573.6563 147.625,573.7813 146.8594,573.7813 C144.8125,573.7813 143.5156,572.6875 143.5156,570.9844 L143.5156,569.8906 C143.5156,568.1094 144.7656,566.7969 146.5,566.7969 C147.0781,566.7969 147.6875,566.9531 148.1563,567.2031 C148.6406,567.4844 148.8125,567.7031 148.9063,568.1094 C148.9688,568.5156 149,568.6406 149.1406,568.7656 C149.2813,568.9063 149.5156,569.0156 149.7344,569.0156 C150,569.0156 150.2656,568.875 150.4375,568.6563 C150.5469,568.5 150.5781,568.3125 150.5781,567.8906 L150.5781,566.4688 C150.5781,566.0313 150.5625,565.9063 150.4688,565.75 C150.3125,565.4844 150.0313,565.3438 149.7344,565.3438 C149.4375,565.3438 149.2344,565.4375 149.0156,565.75 L148.8438,565.6719 Z "/><text fill="#000000" font-family="sans-serif" font-size="12" lengthAdjust="spacingAndGlyphs" textLength="95" x="160.5" y="574.1543">BufferedReader</text><line style="stroke: #A80036; stroke-width: 1.5;" x1="132.5" x2="257.5" y1="586" y2="586"/><line style="stroke: #A80036; stroke-width: 1.5;" x1="132.5" x2="257.5" y1="594" y2="594"/><!--MD5=[c227886ef91e099a67cf0e2849ce3945]
link usantatecla.utils.Console to java.io.BufferedReader--><path codeLine="21" d="M195,491.006 C195,491.006 195,526.542 195,540.5964 " fill="none" id="usantatecla.utils.Console-java.io.BufferedReader" style="stroke: #A80036; stroke-width: 1.0;"/><polygon fill="#A80036" points="195,553.6261,199,544.6261,195,548.6261,191,544.6261,195,553.6261" style="stroke: #A80036; stroke-width: 1.0;"/><line style="stroke: #A80036; stroke-width: 1.0;" x1="195" x2="195" y1="548.6261" y2="540.6261"/><polygon fill="#A80036" points="195,479.006,191,485.006,195,491.006,199,485.006,195,479.006" style="stroke: #A80036; stroke-width: 1.0;"/><!--MD5=[0ea67b4831d36ae8fbc1ab9e7f0763b3]
link usantatecla.utils.WithConsoleView to usantatecla.utils.Console--><path codeLine="27" d="M295.4525,183.4041 C295.4525,183.4041 264.333,245.394 247.982,277.963 " fill="none" id="usantatecla.utils.WithConsoleView-usantatecla.utils.Console" style="stroke: #A80036; stroke-width: 1.0;"/><polygon fill="#A80036" points="242.006,289.868,249.6188,283.6193,244.2493,285.3995,242.4692,280.03,242.006,289.868" style="stroke: #A80036; stroke-width: 1.0;"/><line style="stroke: #A80036; stroke-width: 1.0;" x1="244.2493" x2="247.8385" y1="285.3995" y2="278.2495"/><polygon fill="#A80036" points="300.837,172.68,294.57,176.2472,295.4525,183.4041,301.7195,179.8369,300.837,172.68" style="stroke: #A80036; stroke-width: 1.0;"/><!--MD5=[d8364031ab8e3812dea498ff2b39f3cd]
reverse link usantatecla.utils.WithConsoleView to usantatecla.utils.YesNoDialog--><path codeLine="54" d="M342.955,191.285 C358.159,226.058 378.025,271.492 394.625,309.457 " fill="none" id="usantatecla.utils.WithConsoleView-backto-usantatecla.utils.YesNoDialog" style="stroke: #A80036; stroke-width: 1.0;"/><polygon fill="none" points="336.419,193.81,334.82,172.68,349.246,188.201,336.419,193.81" style="stroke: #A80036; stroke-width: 1.0;"/><!--MD5=[992a4410290e4f1ea9693d3d51b5e0d4]
@startuml
class  usantatecla.utils.ClosedInterval{
- min: int
- max: int
+ ClosedInterval(int, int)
+ includes(int): boolean
}

class  usantatecla.utils.Console{
- bufferedReader: BufferedReader
+ Console()
+ write(char): void
+ write(String): void
+ readInt(String): int
+ readChar(String): char
- writeError(String): void
+ writeln(String): void
+ writeln(int): void
+ writeln(): void
+ readString(String): String
}
usantatecla.utils.Console *-down-> java.io.BufferedReader

class  usantatecla.utils.WithConsoleView{
# console: Console
# WithConsoleView()
}
usantatecla.utils.WithConsoleView *-down-> usantatecla.utils.Console

class  usantatecla.utils.YesNoDialog{
- {static} AFIRMATIVE: char
- {static} NEGATIVE: char
- {static} QUESTION: String
- {static} MESSAGE: String
+ YesNoDialog()
+ read(String): boolean
- {static} isAfirmative(char): boolean
- {static} isNegative(char): boolean
}

class  usantatecla.utils.ColorCode{
	+ RED
    + BLUE
    + YELLOW
    + GREEN
    + ORANGE
    + PURPLE
    + RESET_COLOR
    - color: String
    ColorCode(String)
    + getColor(): String 
    + {static} getColorByIndex(int): String 
}

usantatecla.utils.WithConsoleView <|-down- usantatecla.utils.YesNoDialog
@enduml

PlantUML version 1.2020.20beta4(Unknown compile time)
(GPL source distribution)
Java Runtime: Java(TM) SE Runtime Environment
JVM: Java HotSpot(TM) 64-Bit Server VM
Default Encoding: UTF-8
Language: en
Country: US
--></g></svg>