<?xml version="1.0" encoding="UTF-8" standalone="no"?><svg xmlns="http://www.w3.org/2000/svg" xmlns:xlink="http://www.w3.org/1999/xlink" contentScriptType="application/ecmascript" contentStyleType="text/css" height="638px" preserveAspectRatio="none" style="width:606px;height:638px;" version="1.1" viewBox="0 0 606 638" width="606px" zoomAndPan="magnify"><defs><filter height="300%" id="f11x2viorlnvtb" width="300%" x="-1" y="-1"><feGaussianBlur result="blurOut" stdDeviation="2.0"/><feColorMatrix in="blurOut" result="blurOut2" type="matrix" values="0 0 0 0 0 0 0 0 0 0 0 0 0 0 0 0 0 0 .4 0"/><feOffset dx="4.0" dy="4.0" in="blurOut2" result="blurOut3"/><feBlend in="SourceGraphic" in2="blurOut3" mode="normal"/></filter></defs><g><!--MD5=[f2bedc297083edee028363469990e0f1]
cluster mastermind.utils--><polygon fill="#FFFFFF" filter="url(#f11x2viorlnvtb)" points="16,6,162,6,169,28.2969,589,28.2969,589,508,16,508,16,6" style="stroke: #000000; stroke-width: 1.5;"/><line style="stroke: #000000; stroke-width: 1.5;" x1="16" x2="169" y1="28.2969" y2="28.2969"/><text fill="#000000" font-family="sans-serif" font-size="14" font-weight="bold" lengthAdjust="spacingAndGlyphs" textLength="140" x="20" y="20.9951">mastermind.utils</text><!--MD5=[0d852700fdad35b7061d461d6907a324]
cluster java.io--><polygon fill="#FFFFFF" filter="url(#f11x2viorlnvtb)" points="59,532,119,532,126,554.2969,219,554.2969,219,631,59,631,59,532" style="stroke: #000000; stroke-width: 1.5;"/><line style="stroke: #000000; stroke-width: 1.5;" x1="59" x2="126" y1="554.2969" y2="554.2969"/><text fill="#000000" font-family="sans-serif" font-size="14" font-weight="bold" lengthAdjust="spacingAndGlyphs" textLength="54" x="63" y="546.9951">java.io</text><!--MD5=[2a0dd88fc4abf06286587b862e356914]
class mastermind.utils.ClosedInterval--><rect codeLine="1" fill="#FEFECE" filter="url(#f11x2viorlnvtb)" height="99.2188" id="mastermind.utils.ClosedInterval" style="stroke: #A80036; stroke-width: 1.5;" width="151" x="421.5" y="86"/><ellipse cx="451.35" cy="102" fill="#ADD1B2" rx="11" ry="11" style="stroke: #A80036; stroke-width: 1.0;"/><path d="M453.6938,97.6719 C452.7563,97.2344 452.1625,97.0938 451.2875,97.0938 C448.6625,97.0938 446.6625,99.1719 446.6625,101.8906 L446.6625,103.0156 C446.6625,105.5938 448.7719,107.4844 451.6625,107.4844 C452.8813,107.4844 454.0375,107.1875 454.7875,106.6406 C455.3656,106.2344 455.6938,105.7813 455.6938,105.3906 C455.6938,104.9375 455.3031,104.5469 454.8344,104.5469 C454.6156,104.5469 454.4125,104.625 454.225,104.8125 C453.7719,105.2969 453.7719,105.2969 453.5844,105.3906 C453.1625,105.6563 452.475,105.7813 451.7094,105.7813 C449.6625,105.7813 448.3656,104.6875 448.3656,102.9844 L448.3656,101.8906 C448.3656,100.1094 449.6156,98.7969 451.35,98.7969 C451.9281,98.7969 452.5375,98.9531 453.0063,99.2031 C453.4906,99.4844 453.6625,99.7031 453.7563,100.1094 C453.8188,100.5156 453.85,100.6406 453.9906,100.7656 C454.1313,100.9063 454.3656,101.0156 454.5844,101.0156 C454.85,101.0156 455.1156,100.875 455.2875,100.6563 C455.3969,100.5 455.4281,100.3125 455.4281,99.8906 L455.4281,98.4688 C455.4281,98.0313 455.4125,97.9063 455.3188,97.75 C455.1625,97.4844 454.8813,97.3438 454.5844,97.3438 C454.2875,97.3438 454.0844,97.4375 453.8656,97.75 L453.6938,97.6719 Z "/><text fill="#000000" font-family="sans-serif" font-size="12" lengthAdjust="spacingAndGlyphs" textLength="86" x="468.65" y="106.1543">ClosedInterval</text><line style="stroke: #A80036; stroke-width: 1.5;" x1="422.5" x2="571.5" y1="118" y2="118"/><rect fill="none" height="6" style="stroke: #C82930; stroke-width: 1.0;" width="6" x="429.5" y="126"/><text fill="#000000" font-family="sans-serif" font-size="11" lengthAdjust="spacingAndGlyphs" textLength="42" x="441.5" y="132.2104">min: int</text><rect fill="none" height="6" style="stroke: #C82930; stroke-width: 1.0;" width="6" x="429.5" y="138.8047"/><text fill="#000000" font-family="sans-serif" font-size="11" lengthAdjust="spacingAndGlyphs" textLength="46" x="441.5" y="145.0151">max: int</text><line style="stroke: #A80036; stroke-width: 1.5;" x1="422.5" x2="571.5" y1="151.6094" y2="151.6094"/><ellipse cx="432.5" cy="162.6094" fill="#84BE84" rx="3" ry="3" style="stroke: #038048; stroke-width: 1.0;"/><text fill="#000000" font-family="sans-serif" font-size="11" lengthAdjust="spacingAndGlyphs" textLength="125" x="441.5" y="165.8198">ClosedInterval(int, int)</text><ellipse cx="432.5" cy="175.4141" fill="#84BE84" rx="3" ry="3" style="stroke: #038048; stroke-width: 1.0;"/><text fill="#000000" font-family="sans-serif" font-size="11" lengthAdjust="spacingAndGlyphs" textLength="122" x="441.5" y="178.6245">includes(int): boolean</text><!--MD5=[a3288181747b44fad907c47e32f19b7c]
class mastermind.utils.ColorCode--><rect codeLine="8" fill="#FEFECE" filter="url(#f11x2viorlnvtb)" height="188.8516" id="mastermind.utils.ColorCode" style="stroke: #A80036; stroke-width: 1.5;" width="183" x="203.5" y="41"/><ellipse cx="258.75" cy="57" fill="#ADD1B2" rx="11" ry="11" style="stroke: #A80036; stroke-width: 1.0;"/><path d="M261.0938,52.6719 C260.1563,52.2344 259.5625,52.0938 258.6875,52.0938 C256.0625,52.0938 254.0625,54.1719 254.0625,56.8906 L254.0625,58.0156 C254.0625,60.5938 256.1719,62.4844 259.0625,62.4844 C260.2813,62.4844 261.4375,62.1875 262.1875,61.6406 C262.7656,61.2344 263.0938,60.7813 263.0938,60.3906 C263.0938,59.9375 262.7031,59.5469 262.2344,59.5469 C262.0156,59.5469 261.8125,59.625 261.625,59.8125 C261.1719,60.2969 261.1719,60.2969 260.9844,60.3906 C260.5625,60.6563 259.875,60.7813 259.1094,60.7813 C257.0625,60.7813 255.7656,59.6875 255.7656,57.9844 L255.7656,56.8906 C255.7656,55.1094 257.0156,53.7969 258.75,53.7969 C259.3281,53.7969 259.9375,53.9531 260.4063,54.2031 C260.8906,54.4844 261.0625,54.7031 261.1563,55.1094 C261.2188,55.5156 261.25,55.6406 261.3906,55.7656 C261.5313,55.9063 261.7656,56.0156 261.9844,56.0156 C262.25,56.0156 262.5156,55.875 262.6875,55.6563 C262.7969,55.5 262.8281,55.3125 262.8281,54.8906 L262.8281,53.4688 C262.8281,53.0313 262.8125,52.9063 262.7188,52.75 C262.5625,52.4844 262.2813,52.3438 261.9844,52.3438 C261.6875,52.3438 261.4844,52.4375 261.2656,52.75 L261.0938,52.6719 Z "/><text fill="#000000" font-family="sans-serif" font-size="12" lengthAdjust="spacingAndGlyphs" textLength="64" x="279.25" y="61.1543">ColorCode</text><line style="stroke: #A80036; stroke-width: 1.5;" x1="204.5" x2="385.5" y1="73" y2="73"/><ellipse cx="214.5" cy="84" fill="none" rx="3" ry="3" style="stroke: #038048; stroke-width: 1.0;"/><text fill="#000000" font-family="sans-serif" font-size="11" lengthAdjust="spacingAndGlyphs" text-decoration="underline" textLength="89" x="223.5" y="87.2104">RED: ColorCode</text><ellipse cx="214.5" cy="96.8047" fill="none" rx="3" ry="3" style="stroke: #038048; stroke-width: 1.0;"/><text fill="#000000" font-family="sans-serif" font-size="11" lengthAdjust="spacingAndGlyphs" text-decoration="underline" textLength="95" x="223.5" y="100.0151">BLUE: ColorCode</text><ellipse cx="214.5" cy="109.6094" fill="none" rx="3" ry="3" style="stroke: #038048; stroke-width: 1.0;"/><text fill="#000000" font-family="sans-serif" font-size="11" lengthAdjust="spacingAndGlyphs" text-decoration="underline" textLength="112" x="223.5" y="112.8198">YELLOW: ColorCode</text><ellipse cx="214.5" cy="122.4141" fill="none" rx="3" ry="3" style="stroke: #038048; stroke-width: 1.0;"/><text fill="#000000" font-family="sans-serif" font-size="11" lengthAdjust="spacingAndGlyphs" text-decoration="underline" textLength="104" x="223.5" y="125.6245">GREEN: ColorCode</text><ellipse cx="214.5" cy="135.2188" fill="none" rx="3" ry="3" style="stroke: #038048; stroke-width: 1.0;"/><text fill="#000000" font-family="sans-serif" font-size="11" lengthAdjust="spacingAndGlyphs" text-decoration="underline" textLength="114" x="223.5" y="138.4292">ORANGE: ColorCode</text><ellipse cx="214.5" cy="148.0234" fill="none" rx="3" ry="3" style="stroke: #038048; stroke-width: 1.0;"/><text fill="#000000" font-family="sans-serif" font-size="11" lengthAdjust="spacingAndGlyphs" text-decoration="underline" textLength="106" x="223.5" y="151.2339">PURPLE: ColorCode</text><ellipse cx="214.5" cy="160.8281" fill="none" rx="3" ry="3" style="stroke: #038048; stroke-width: 1.0;"/><text fill="#000000" font-family="sans-serif" font-size="11" lengthAdjust="spacingAndGlyphs" text-decoration="underline" textLength="147" x="223.5" y="164.0386">RESET_COLOR: ColorCode</text><rect fill="none" height="6" style="stroke: #C82930; stroke-width: 1.0;" width="6" x="211.5" y="170.6328"/><text fill="#000000" font-family="sans-serif" font-size="11" lengthAdjust="spacingAndGlyphs" textLength="67" x="223.5" y="176.8433">color: String</text><line style="stroke: #A80036; stroke-width: 1.5;" x1="204.5" x2="385.5" y1="183.4375" y2="183.4375"/><polygon fill="#4177AF" points="214.5,190.4375,210.5,196.4375,218.5,196.4375" style="stroke: #1963A0; stroke-width: 1.0;"/><text fill="#000000" font-family="sans-serif" font-size="11" lengthAdjust="spacingAndGlyphs" textLength="100" x="223.5" y="197.6479">ColorCode(String)</text><ellipse cx="214.5" cy="207.2422" fill="#84BE84" rx="3" ry="3" style="stroke: #038048; stroke-width: 1.0;"/><text fill="#000000" font-family="sans-serif" font-size="11" lengthAdjust="spacingAndGlyphs" textLength="96" x="223.5" y="210.4526">getColor(): String</text><ellipse cx="214.5" cy="220.0469" fill="#84BE84" rx="3" ry="3" style="stroke: #038048; stroke-width: 1.0;"/><text fill="#000000" font-family="sans-serif" font-size="11" lengthAdjust="spacingAndGlyphs" text-decoration="underline" textLength="157" x="223.5" y="223.2573">getColorByIndex(int): String</text><!--MD5=[ff88fef78a03b99ee0a0b34d5c9e19a9]
class mastermind.utils.Console--><rect codeLine="22" fill="#FEFECE" filter="url(#f11x2viorlnvtb)" height="201.6563" id="mastermind.utils.Console" style="stroke: #A80036; stroke-width: 1.5;" width="214" x="32" y="290"/><ellipse cx="110.25" cy="306" fill="#ADD1B2" rx="11" ry="11" style="stroke: #A80036; stroke-width: 1.0;"/><path d="M112.5938,301.6719 C111.6563,301.2344 111.0625,301.0938 110.1875,301.0938 C107.5625,301.0938 105.5625,303.1719 105.5625,305.8906 L105.5625,307.0156 C105.5625,309.5938 107.6719,311.4844 110.5625,311.4844 C111.7813,311.4844 112.9375,311.1875 113.6875,310.6406 C114.2656,310.2344 114.5938,309.7813 114.5938,309.3906 C114.5938,308.9375 114.2031,308.5469 113.7344,308.5469 C113.5156,308.5469 113.3125,308.625 113.125,308.8125 C112.6719,309.2969 112.6719,309.2969 112.4844,309.3906 C112.0625,309.6563 111.375,309.7813 110.6094,309.7813 C108.5625,309.7813 107.2656,308.6875 107.2656,306.9844 L107.2656,305.8906 C107.2656,304.1094 108.5156,302.7969 110.25,302.7969 C110.8281,302.7969 111.4375,302.9531 111.9063,303.2031 C112.3906,303.4844 112.5625,303.7031 112.6563,304.1094 C112.7188,304.5156 112.75,304.6406 112.8906,304.7656 C113.0313,304.9063 113.2656,305.0156 113.4844,305.0156 C113.75,305.0156 114.0156,304.875 114.1875,304.6563 C114.2969,304.5 114.3281,304.3125 114.3281,303.8906 L114.3281,302.4688 C114.3281,302.0313 114.3125,301.9063 114.2188,301.75 C114.0625,301.4844 113.7813,301.3438 113.4844,301.3438 C113.1875,301.3438 112.9844,301.4375 112.7656,301.75 L112.5938,301.6719 Z "/><text fill="#000000" font-family="sans-serif" font-size="12" lengthAdjust="spacingAndGlyphs" textLength="49" x="130.75" y="310.1543">Console</text><line style="stroke: #A80036; stroke-width: 1.5;" x1="33" x2="245" y1="322" y2="322"/><ellipse cx="43" cy="333" fill="none" rx="3" ry="3" style="stroke: #038048; stroke-width: 1.0;"/><text fill="#000000" font-family="sans-serif" font-size="11" lengthAdjust="spacingAndGlyphs" text-decoration="underline" textLength="97" x="52" y="336.2104">console: Console</text><rect fill="none" height="6" style="stroke: #C82930; stroke-width: 1.0;" width="6" x="40" y="342.8047"/><text fill="#000000" font-family="sans-serif" font-size="11" lengthAdjust="spacingAndGlyphs" textLength="188" x="52" y="349.0151">bufferedReader: BufferedReader</text><line style="stroke: #A80036; stroke-width: 1.5;" x1="33" x2="245" y1="355.6094" y2="355.6094"/><ellipse cx="43" cy="366.6094" fill="#84BE84" rx="3" ry="3" style="stroke: #038048; stroke-width: 1.0;"/><text fill="#000000" font-family="sans-serif" font-size="11" lengthAdjust="spacingAndGlyphs" text-decoration="underline" textLength="128" x="52" y="369.8198">getInstance(): Console</text><ellipse cx="43" cy="379.4141" fill="#84BE84" rx="3" ry="3" style="stroke: #038048; stroke-width: 1.0;"/><text fill="#000000" font-family="sans-serif" font-size="11" lengthAdjust="spacingAndGlyphs" textLength="140" x="52" y="382.6245">readString(String): String</text><ellipse cx="43" cy="392.2188" fill="#84BE84" rx="3" ry="3" style="stroke: #038048; stroke-width: 1.0;"/><text fill="#000000" font-family="sans-serif" font-size="11" lengthAdjust="spacingAndGlyphs" textLength="107" x="52" y="395.4292">readString(): String</text><ellipse cx="43" cy="405.0234" fill="#84BE84" rx="3" ry="3" style="stroke: #038048; stroke-width: 1.0;"/><text fill="#000000" font-family="sans-serif" font-size="11" lengthAdjust="spacingAndGlyphs" textLength="102" x="52" y="408.2339">readInt(String): int</text><ellipse cx="43" cy="417.8281" fill="#84BE84" rx="3" ry="3" style="stroke: #038048; stroke-width: 1.0;"/><text fill="#000000" font-family="sans-serif" font-size="11" lengthAdjust="spacingAndGlyphs" textLength="124" x="52" y="421.0386">readChar(String): char</text><ellipse cx="43" cy="430.6328" fill="#84BE84" rx="3" ry="3" style="stroke: #038048; stroke-width: 1.0;"/><text fill="#000000" font-family="sans-serif" font-size="11" lengthAdjust="spacingAndGlyphs" textLength="46" x="52" y="433.8433">writeln()</text><ellipse cx="43" cy="443.4375" fill="#84BE84" rx="3" ry="3" style="stroke: #038048; stroke-width: 1.0;"/><text fill="#000000" font-family="sans-serif" font-size="11" lengthAdjust="spacingAndGlyphs" textLength="69" x="52" y="446.6479">write(String)</text><ellipse cx="43" cy="456.2422" fill="#84BE84" rx="3" ry="3" style="stroke: #038048; stroke-width: 1.0;"/><text fill="#000000" font-family="sans-serif" font-size="11" lengthAdjust="spacingAndGlyphs" textLength="79" x="52" y="459.4526">writeln(String)</text><ellipse cx="43" cy="469.0469" fill="#84BE84" rx="3" ry="3" style="stroke: #038048; stroke-width: 1.0;"/><text fill="#000000" font-family="sans-serif" font-size="11" lengthAdjust="spacingAndGlyphs" textLength="60" x="52" y="472.2573">write(char)</text><rect fill="#F24D5C" height="6" style="stroke: #C82930; stroke-width: 1.0;" width="6" x="40" y="478.8516"/><text fill="#000000" font-family="sans-serif" font-size="11" lengthAdjust="spacingAndGlyphs" textLength="95" x="52" y="485.062">writeError(String)</text><!--MD5=[418484cb0ecde680b0da58aa805d4175]
class mastermind.utils.WithConsoleView--><rect codeLine="38" fill="#FEFECE" filter="url(#f11x2viorlnvtb)" height="73.6094" id="mastermind.utils.WithConsoleView" style="stroke: #A80036; stroke-width: 1.5;" width="136" x="32" y="98.5"/><ellipse cx="47" cy="114.5" fill="#ADD1B2" rx="11" ry="11" style="stroke: #A80036; stroke-width: 1.0;"/><path d="M49.3438,110.1719 C48.4063,109.7344 47.8125,109.5938 46.9375,109.5938 C44.3125,109.5938 42.3125,111.6719 42.3125,114.3906 L42.3125,115.5156 C42.3125,118.0938 44.4219,119.9844 47.3125,119.9844 C48.5313,119.9844 49.6875,119.6875 50.4375,119.1406 C51.0156,118.7344 51.3438,118.2813 51.3438,117.8906 C51.3438,117.4375 50.9531,117.0469 50.4844,117.0469 C50.2656,117.0469 50.0625,117.125 49.875,117.3125 C49.4219,117.7969 49.4219,117.7969 49.2344,117.8906 C48.8125,118.1563 48.125,118.2813 47.3594,118.2813 C45.3125,118.2813 44.0156,117.1875 44.0156,115.4844 L44.0156,114.3906 C44.0156,112.6094 45.2656,111.2969 47,111.2969 C47.5781,111.2969 48.1875,111.4531 48.6563,111.7031 C49.1406,111.9844 49.3125,112.2031 49.4063,112.6094 C49.4688,113.0156 49.5,113.1406 49.6406,113.2656 C49.7813,113.4063 50.0156,113.5156 50.2344,113.5156 C50.5,113.5156 50.7656,113.375 50.9375,113.1563 C51.0469,113 51.0781,112.8125 51.0781,112.3906 L51.0781,110.9688 C51.0781,110.5313 51.0625,110.4063 50.9688,110.25 C50.8125,109.9844 50.5313,109.8438 50.2344,109.8438 C49.9375,109.8438 49.7344,109.9375 49.5156,110.25 L49.3438,110.1719 Z "/><text fill="#000000" font-family="sans-serif" font-size="12" lengthAdjust="spacingAndGlyphs" textLength="104" x="61" y="118.6543">WithConsoleView</text><line style="stroke: #A80036; stroke-width: 1.5;" x1="33" x2="167" y1="130.5" y2="130.5"/><polygon fill="none" points="43,136.5,47,140.5,43,144.5,39,140.5" style="stroke: #B38D22; stroke-width: 1.0;"/><text fill="#000000" font-family="sans-serif" font-size="11" lengthAdjust="spacingAndGlyphs" textLength="97" x="52" y="144.7104">console: Console</text><line style="stroke: #A80036; stroke-width: 1.5;" x1="33" x2="167" y1="151.3047" y2="151.3047"/><polygon fill="#FFFF44" points="43,157.3047,47,161.3047,43,165.3047,39,161.3047" style="stroke: #B38D22; stroke-width: 1.0;"/><text fill="#000000" font-family="sans-serif" font-size="11" lengthAdjust="spacingAndGlyphs" textLength="107" x="52" y="165.5151">WithConsoleView()</text><!--MD5=[8fefce232ba7ae99aa926d324ff560e5]
class mastermind.utils.YesNoDialog--><rect codeLine="44" fill="#FEFECE" filter="url(#f11x2viorlnvtb)" height="163.2422" id="mastermind.utils.YesNoDialog" style="stroke: #A80036; stroke-width: 1.5;" width="179" x="281.5" y="309.5"/><ellipse cx="328.75" cy="325.5" fill="#ADD1B2" rx="11" ry="11" style="stroke: #A80036; stroke-width: 1.0;"/><path d="M331.0938,321.1719 C330.1563,320.7344 329.5625,320.5938 328.6875,320.5938 C326.0625,320.5938 324.0625,322.6719 324.0625,325.3906 L324.0625,326.5156 C324.0625,329.0938 326.1719,330.9844 329.0625,330.9844 C330.2813,330.9844 331.4375,330.6875 332.1875,330.1406 C332.7656,329.7344 333.0938,329.2813 333.0938,328.8906 C333.0938,328.4375 332.7031,328.0469 332.2344,328.0469 C332.0156,328.0469 331.8125,328.125 331.625,328.3125 C331.1719,328.7969 331.1719,328.7969 330.9844,328.8906 C330.5625,329.1563 329.875,329.2813 329.1094,329.2813 C327.0625,329.2813 325.7656,328.1875 325.7656,326.4844 L325.7656,325.3906 C325.7656,323.6094 327.0156,322.2969 328.75,322.2969 C329.3281,322.2969 329.9375,322.4531 330.4063,322.7031 C330.8906,322.9844 331.0625,323.2031 331.1563,323.6094 C331.2188,324.0156 331.25,324.1406 331.3906,324.2656 C331.5313,324.4063 331.7656,324.5156 331.9844,324.5156 C332.25,324.5156 332.5156,324.375 332.6875,324.1563 C332.7969,324 332.8281,323.8125 332.8281,323.3906 L332.8281,321.9688 C332.8281,321.5313 332.8125,321.4063 332.7188,321.25 C332.5625,320.9844 332.2813,320.8438 331.9844,320.8438 C331.6875,320.8438 331.4844,320.9375 331.2656,321.25 L331.0938,321.1719 Z "/><text fill="#000000" font-family="sans-serif" font-size="12" lengthAdjust="spacingAndGlyphs" textLength="76" x="349.25" y="329.6543">YesNoDialog</text><line style="stroke: #A80036; stroke-width: 1.5;" x1="282.5" x2="459.5" y1="341.5" y2="341.5"/><rect fill="none" height="6" style="stroke: #C82930; stroke-width: 1.0;" width="6" x="289.5" y="349.5"/><text fill="#000000" font-family="sans-serif" font-size="11" lengthAdjust="spacingAndGlyphs" text-decoration="underline" textLength="97" x="301.5" y="355.7104">AFIRMATIVE: char</text><rect fill="none" height="6" style="stroke: #C82930; stroke-width: 1.0;" width="6" x="289.5" y="362.3047"/><text fill="#000000" font-family="sans-serif" font-size="11" lengthAdjust="spacingAndGlyphs" text-decoration="underline" textLength="88" x="301.5" y="368.5151">NEGATIVE: char</text><rect fill="none" height="6" style="stroke: #C82930; stroke-width: 1.0;" width="6" x="289.5" y="375.1094"/><text fill="#000000" font-family="sans-serif" font-size="11" lengthAdjust="spacingAndGlyphs" text-decoration="underline" textLength="99" x="301.5" y="381.3198">QUESTION: String</text><rect fill="none" height="6" style="stroke: #C82930; stroke-width: 1.0;" width="6" x="289.5" y="387.9141"/><text fill="#000000" font-family="sans-serif" font-size="11" lengthAdjust="spacingAndGlyphs" text-decoration="underline" textLength="96" x="301.5" y="394.1245">MESSAGE: String</text><line style="stroke: #A80036; stroke-width: 1.5;" x1="282.5" x2="459.5" y1="400.7188" y2="400.7188"/><ellipse cx="292.5" cy="411.7188" fill="#84BE84" rx="3" ry="3" style="stroke: #038048; stroke-width: 1.0;"/><text fill="#000000" font-family="sans-serif" font-size="11" lengthAdjust="spacingAndGlyphs" textLength="80" x="301.5" y="414.9292">YesNoDialog()</text><ellipse cx="292.5" cy="424.5234" fill="#84BE84" rx="3" ry="3" style="stroke: #038048; stroke-width: 1.0;"/><text fill="#000000" font-family="sans-serif" font-size="11" lengthAdjust="spacingAndGlyphs" textLength="120" x="301.5" y="427.7339">read(String): boolean</text><ellipse cx="292.5" cy="437.3281" fill="#84BE84" rx="3" ry="3" style="stroke: #038048; stroke-width: 1.0;"/><text fill="#000000" font-family="sans-serif" font-size="11" lengthAdjust="spacingAndGlyphs" textLength="87" x="301.5" y="440.5386">read(): boolean</text><rect fill="#F24D5C" height="6" style="stroke: #C82930; stroke-width: 1.0;" width="6" x="289.5" y="447.1328"/><text fill="#000000" font-family="sans-serif" font-size="11" lengthAdjust="spacingAndGlyphs" text-decoration="underline" textLength="153" x="301.5" y="453.3433">isAfirmative(char): boolean</text><rect fill="#F24D5C" height="6" style="stroke: #C82930; stroke-width: 1.0;" width="6" x="289.5" y="459.9375"/><text fill="#000000" font-family="sans-serif" font-size="11" lengthAdjust="spacingAndGlyphs" text-decoration="underline" textLength="146" x="301.5" y="466.1479">isNegative(char): boolean</text><!--MD5=[06343bf850d7d7a24456cd327e63b99b]
class java.io.BufferedReader--><rect fill="#FEFECE" filter="url(#f11x2viorlnvtb)" height="48" id="java.io.BufferedReader" style="stroke: #A80036; stroke-width: 1.5;" width="127" x="75.5" y="567"/><ellipse cx="90.5" cy="583" fill="#ADD1B2" rx="11" ry="11" style="stroke: #A80036; stroke-width: 1.0;"/><path d="M92.8438,578.6719 C91.9063,578.2344 91.3125,578.0938 90.4375,578.0938 C87.8125,578.0938 85.8125,580.1719 85.8125,582.8906 L85.8125,584.0156 C85.8125,586.5938 87.9219,588.4844 90.8125,588.4844 C92.0313,588.4844 93.1875,588.1875 93.9375,587.6406 C94.5156,587.2344 94.8438,586.7813 94.8438,586.3906 C94.8438,585.9375 94.4531,585.5469 93.9844,585.5469 C93.7656,585.5469 93.5625,585.625 93.375,585.8125 C92.9219,586.2969 92.9219,586.2969 92.7344,586.3906 C92.3125,586.6563 91.625,586.7813 90.8594,586.7813 C88.8125,586.7813 87.5156,585.6875 87.5156,583.9844 L87.5156,582.8906 C87.5156,581.1094 88.7656,579.7969 90.5,579.7969 C91.0781,579.7969 91.6875,579.9531 92.1563,580.2031 C92.6406,580.4844 92.8125,580.7031 92.9063,581.1094 C92.9688,581.5156 93,581.6406 93.1406,581.7656 C93.2813,581.9063 93.5156,582.0156 93.7344,582.0156 C94,582.0156 94.2656,581.875 94.4375,581.6563 C94.5469,581.5 94.5781,581.3125 94.5781,580.8906 L94.5781,579.4688 C94.5781,579.0313 94.5625,578.9063 94.4688,578.75 C94.3125,578.4844 94.0313,578.3438 93.7344,578.3438 C93.4375,578.3438 93.2344,578.4375 93.0156,578.75 L92.8438,578.6719 Z "/><text fill="#000000" font-family="sans-serif" font-size="12" lengthAdjust="spacingAndGlyphs" textLength="95" x="104.5" y="587.1543">BufferedReader</text><line style="stroke: #A80036; stroke-width: 1.5;" x1="76.5" x2="201.5" y1="599" y2="599"/><line style="stroke: #A80036; stroke-width: 1.5;" x1="76.5" x2="201.5" y1="607" y2="607"/><!--MD5=[d68db8d595495ae22a1642cd78155fdb]
link mastermind.utils.Console to java.io.BufferedReader--><path codeLine="36" d="M139,504.16 C139,504.16 139,539.757 139,553.8234 " fill="none" id="mastermind.utils.Console-java.io.BufferedReader" style="stroke: #A80036; stroke-width: 1.0;"/><polygon fill="#A80036" points="139,566.8447,143,557.8447,139,561.8447,135,557.8447,139,566.8447" style="stroke: #A80036; stroke-width: 1.0;"/><line style="stroke: #A80036; stroke-width: 1.0;" x1="139" x2="139" y1="561.8447" y2="553.8447"/><polygon fill="#A80036" points="139,492.16,135,498.16,139,504.16,143,498.16,139,492.16" style="stroke: #A80036; stroke-width: 1.0;"/><!--MD5=[ea820ba5d47472bf08a857464d1c1568]
link mastermind.utils.WithConsoleView to mastermind.utils.Console--><path codeLine="42" d="M107.3711,184.4114 C107.3711,184.4114 116.637,244.639 121.56,276.642 " fill="none" id="mastermind.utils.WithConsoleView-mastermind.utils.Console" style="stroke: #A80036; stroke-width: 1.0;"/><polygon fill="#A80036" points="123.582,289.783,126.1667,280.2793,122.8215,284.8412,118.2597,281.4961,123.582,289.783" style="stroke: #A80036; stroke-width: 1.0;"/><line style="stroke: #A80036; stroke-width: 1.0;" x1="122.8215" x2="121.605" y1="284.8412" y2="276.934"/><polygon fill="#A80036" points="105.546,172.551,102.5051,179.0896,107.3711,184.4114,110.412,177.8728,105.546,172.551" style="stroke: #A80036; stroke-width: 1.0;"/><!--MD5=[6ecc60e00d827fdddc2b895f15bd4c4f]
reverse link mastermind.utils.WithConsoleView to mastermind.utils.YesNoDialog--><path codeLine="55" d="M144.278,187.812 C157.254,201.958 171.785,216.984 186,230 C218.256,259.537 230.651,261.702 264,290 C271.27,296.169 278.706,302.677 286.104,309.291 " fill="none" id="mastermind.utils.WithConsoleView-backto-mastermind.utils.YesNoDialog" style="stroke: #A80036; stroke-width: 1.0;"/><polygon fill="none" points="139.073,192.493,130.897,172.944,149.48,183.128,139.073,192.493" style="stroke: #A80036; stroke-width: 1.0;"/><!--MD5=[b26c6ba3441043dd079618dd3adbb012]
@startuml
class  mastermind.utils.ClosedInterval{
- min: int
- max: int
+ ClosedInterval(int, int)
+ includes(int): boolean
}

class  mastermind.utils.ColorCode{
+ {static} RED: ColorCode
+ {static} BLUE: ColorCode
+ {static} YELLOW: ColorCode
+ {static} GREEN: ColorCode
+ {static} ORANGE: ColorCode
+ {static} PURPLE: ColorCode
+ {static} RESET_COLOR: ColorCode
- color: String
~ ColorCode(String)
+ getColor(): String
+ {static} getColorByIndex(int): String
}

class  mastermind.utils.Console{
+ {static} console: Console
- bufferedReader: BufferedReader
+ {static} getInstance(): Console
+ readString(String): String
+ readString(): String
+ readInt(String): int
+ readChar(String): char
+ writeln()
+ write(String)
+ writeln(String)
+ write(char)
- writeError(String)
}
mastermind.utils.Console *-down-> java.io.BufferedReader

class  mastermind.utils.WithConsoleView{
# console: Console
# WithConsoleView()
}
mastermind.utils.WithConsoleView *-down-> mastermind.utils.Console

class  mastermind.utils.YesNoDialog{
- {static} AFIRMATIVE: char
- {static} NEGATIVE: char
- {static} QUESTION: String
- {static} MESSAGE: String
+ YesNoDialog()
+ read(String): boolean
+ read(): boolean
- {static} isAfirmative(char): boolean
- {static} isNegative(char): boolean
}
mastermind.utils.WithConsoleView <|-down- mastermind.utils.YesNoDialog
@enduml

PlantUML version 1.2020.20beta4(Unknown compile time)
(GPL source distribution)
Java Runtime: Java(TM) SE Runtime Environment
JVM: Java HotSpot(TM) 64-Bit Server VM
Default Encoding: UTF-8
Language: en
Country: US
--></g></svg>