<?xml version="1.0" encoding="UTF-8" standalone="no"?><svg xmlns="http://www.w3.org/2000/svg" xmlns:xlink="http://www.w3.org/1999/xlink" contentScriptType="application/ecmascript" contentStyleType="text/css" height="365px" preserveAspectRatio="none" style="width:713px;height:365px;" version="1.1" viewBox="0 0 713 365" width="713px" zoomAndPan="magnify"><defs><filter height="300%" id="f1xbm6kyu1phbz" width="300%" x="-1" y="-1"><feGaussianBlur result="blurOut" stdDeviation="2.0"/><feColorMatrix in="blurOut" result="blurOut2" type="matrix" values="0 0 0 0 0 0 0 0 0 0 0 0 0 0 0 0 0 0 .4 0"/><feOffset dx="4.0" dy="4.0" in="blurOut2" result="blurOut3"/><feBlend in="SourceGraphic" in2="blurOut3" mode="normal"/></filter></defs><g><!--MD5=[908cbfa8709a8ec6ee3beb0409fea32c]
cluster usantatecla.utils--><polygon fill="#FFFFFF" filter="url(#f1xbm6kyu1phbz)" points="16,6,162,6,169,28.2969,696,28.2969,696,259,16,259,16,6" style="stroke: #000000; stroke-width: 1.5;"/><line style="stroke: #000000; stroke-width: 1.5;" x1="16" x2="169" y1="28.2969" y2="28.2969"/><text fill="#000000" font-family="sans-serif" font-size="14" font-weight="bold" lengthAdjust="spacingAndGlyphs" textLength="140" x="20" y="20.9951">usantatecla.utils</text><!--MD5=[5f6eaca964039dd95284677bcb120bda]
class usantatecla.utils.ColorCode--><rect codeLine="1" fill="#FEFECE" filter="url(#f1xbm6kyu1phbz)" height="188.8516" id="usantatecla.utils.ColorCode" style="stroke: #A80036; stroke-width: 1.5;" width="183" x="496.5" y="47.5"/><ellipse cx="551.75" cy="63.5" fill="#EB937F" rx="11" ry="11" style="stroke: #A80036; stroke-width: 1.0;"/><path d="M550.5469,64.375 L552,64.375 L552,64.4844 C552,64.8906 552.0313,65.0469 552.1094,65.2031 C552.2656,65.4531 552.5469,65.6094 552.8438,65.6094 C553.0938,65.6094 553.3594,65.4688 553.5156,65.25 C553.6406,65.0938 553.6719,64.9375 553.6719,64.4844 L553.6719,62.5625 C553.6719,62.4063 553.6719,62.3594 553.6563,62.2031 C553.5938,61.7344 553.2813,61.4219 552.8281,61.4219 C552.5781,61.4219 552.3125,61.5625 552.1406,61.7813 C552.0313,61.9531 552,62.1094 552,62.5625 L552,62.6875 L550.5469,62.6875 L550.5469,60.2813 L554.5313,60.2813 L554.5313,61.1406 C554.5313,61.5469 554.5625,61.7188 554.6406,61.875 C554.8125,62.125 555.0938,62.2813 555.375,62.2813 C555.6406,62.2813 555.9063,62.1406 556.0781,61.9219 C556.1875,61.75 556.2188,61.6094 556.2188,61.1406 L556.2188,58.5938 L548.5938,58.5938 C548.1563,58.5938 548.0313,58.6094 547.875,58.7031 C547.625,58.8594 547.4688,59.1563 547.4688,59.4375 C547.4688,59.7188 547.6094,59.9688 547.8281,60.1406 C547.9844,60.25 548.1719,60.2813 548.5938,60.2813 L548.8438,60.2813 L548.8438,66.7969 L548.5938,66.7969 C548.1875,66.7969 548.0313,66.8125 547.875,66.9219 C547.625,67.0938 547.4688,67.3594 547.4688,67.6563 C547.4688,67.9219 547.6094,68.1719 547.8281,68.3281 C547.9688,68.4531 548.2031,68.5 548.5938,68.5 L556.5938,68.5 L556.5938,65.9219 C556.5938,65.4844 556.5625,65.3438 556.4844,65.1875 C556.3125,64.9375 556.0313,64.7813 555.75,64.7813 C555.4844,64.7813 555.2188,64.8906 555.0469,65.1406 C554.9375,65.2969 554.9063,65.4375 554.9063,65.9219 L554.9063,66.7969 L550.5469,66.7969 L550.5469,64.375 Z "/><text fill="#000000" font-family="sans-serif" font-size="12" lengthAdjust="spacingAndGlyphs" textLength="64" x="572.25" y="67.6543">ColorCode</text><line style="stroke: #A80036; stroke-width: 1.5;" x1="497.5" x2="678.5" y1="79.5" y2="79.5"/><ellipse cx="507.5" cy="90.5" fill="none" rx="3" ry="3" style="stroke: #038048; stroke-width: 1.0;"/><text fill="#000000" font-family="sans-serif" font-size="11" lengthAdjust="spacingAndGlyphs" text-decoration="underline" textLength="89" x="516.5" y="93.7104">RED: ColorCode</text><ellipse cx="507.5" cy="103.3047" fill="none" rx="3" ry="3" style="stroke: #038048; stroke-width: 1.0;"/><text fill="#000000" font-family="sans-serif" font-size="11" lengthAdjust="spacingAndGlyphs" text-decoration="underline" textLength="95" x="516.5" y="106.5151">BLUE: ColorCode</text><ellipse cx="507.5" cy="116.1094" fill="none" rx="3" ry="3" style="stroke: #038048; stroke-width: 1.0;"/><text fill="#000000" font-family="sans-serif" font-size="11" lengthAdjust="spacingAndGlyphs" text-decoration="underline" textLength="112" x="516.5" y="119.3198">YELLOW: ColorCode</text><ellipse cx="507.5" cy="128.9141" fill="none" rx="3" ry="3" style="stroke: #038048; stroke-width: 1.0;"/><text fill="#000000" font-family="sans-serif" font-size="11" lengthAdjust="spacingAndGlyphs" text-decoration="underline" textLength="104" x="516.5" y="132.1245">GREEN: ColorCode</text><ellipse cx="507.5" cy="141.7188" fill="none" rx="3" ry="3" style="stroke: #038048; stroke-width: 1.0;"/><text fill="#000000" font-family="sans-serif" font-size="11" lengthAdjust="spacingAndGlyphs" text-decoration="underline" textLength="114" x="516.5" y="144.9292">ORANGE: ColorCode</text><ellipse cx="507.5" cy="154.5234" fill="none" rx="3" ry="3" style="stroke: #038048; stroke-width: 1.0;"/><text fill="#000000" font-family="sans-serif" font-size="11" lengthAdjust="spacingAndGlyphs" text-decoration="underline" textLength="106" x="516.5" y="157.7339">PURPLE: ColorCode</text><ellipse cx="507.5" cy="167.3281" fill="none" rx="3" ry="3" style="stroke: #038048; stroke-width: 1.0;"/><text fill="#000000" font-family="sans-serif" font-size="11" lengthAdjust="spacingAndGlyphs" text-decoration="underline" textLength="147" x="516.5" y="170.5386">RESET_COLOR: ColorCode</text><rect fill="none" height="6" style="stroke: #C82930; stroke-width: 1.0;" width="6" x="504.5" y="177.1328"/><text fill="#000000" font-family="sans-serif" font-size="11" lengthAdjust="spacingAndGlyphs" textLength="67" x="516.5" y="183.3433">color: String</text><line style="stroke: #A80036; stroke-width: 1.5;" x1="497.5" x2="678.5" y1="189.9375" y2="189.9375"/><polygon fill="#4177AF" points="507.5,196.9375,503.5,202.9375,511.5,202.9375" style="stroke: #1963A0; stroke-width: 1.0;"/><text fill="#000000" font-family="sans-serif" font-size="11" lengthAdjust="spacingAndGlyphs" textLength="100" x="516.5" y="204.1479">ColorCode(String)</text><ellipse cx="507.5" cy="213.7422" fill="#84BE84" rx="3" ry="3" style="stroke: #038048; stroke-width: 1.0;"/><text fill="#000000" font-family="sans-serif" font-size="11" lengthAdjust="spacingAndGlyphs" textLength="96" x="516.5" y="216.9526">getColor(): String</text><ellipse cx="507.5" cy="226.5469" fill="#84BE84" rx="3" ry="3" style="stroke: #038048; stroke-width: 1.0;"/><text fill="#000000" font-family="sans-serif" font-size="11" lengthAdjust="spacingAndGlyphs" text-decoration="underline" textLength="157" x="516.5" y="229.7573">getColorByIndex(int): String</text><!--MD5=[5a5a2ad444bc00c1498d76ebf80a1dc4]
class usantatecla.utils.Console--><rect codeLine="15" fill="#FEFECE" filter="url(#f1xbm6kyu1phbz)" height="201.6563" id="usantatecla.utils.Console" style="stroke: #A80036; stroke-width: 1.5;" width="214" x="247" y="41"/><ellipse cx="325.25" cy="57" fill="#ADD1B2" rx="11" ry="11" style="stroke: #A80036; stroke-width: 1.0;"/><path d="M327.5938,52.6719 C326.6563,52.2344 326.0625,52.0938 325.1875,52.0938 C322.5625,52.0938 320.5625,54.1719 320.5625,56.8906 L320.5625,58.0156 C320.5625,60.5938 322.6719,62.4844 325.5625,62.4844 C326.7813,62.4844 327.9375,62.1875 328.6875,61.6406 C329.2656,61.2344 329.5938,60.7813 329.5938,60.3906 C329.5938,59.9375 329.2031,59.5469 328.7344,59.5469 C328.5156,59.5469 328.3125,59.625 328.125,59.8125 C327.6719,60.2969 327.6719,60.2969 327.4844,60.3906 C327.0625,60.6563 326.375,60.7813 325.6094,60.7813 C323.5625,60.7813 322.2656,59.6875 322.2656,57.9844 L322.2656,56.8906 C322.2656,55.1094 323.5156,53.7969 325.25,53.7969 C325.8281,53.7969 326.4375,53.9531 326.9063,54.2031 C327.3906,54.4844 327.5625,54.7031 327.6563,55.1094 C327.7188,55.5156 327.75,55.6406 327.8906,55.7656 C328.0313,55.9063 328.2656,56.0156 328.4844,56.0156 C328.75,56.0156 329.0156,55.875 329.1875,55.6563 C329.2969,55.5 329.3281,55.3125 329.3281,54.8906 L329.3281,53.4688 C329.3281,53.0313 329.3125,52.9063 329.2188,52.75 C329.0625,52.4844 328.7813,52.3438 328.4844,52.3438 C328.1875,52.3438 327.9844,52.4375 327.7656,52.75 L327.5938,52.6719 Z "/><text fill="#000000" font-family="sans-serif" font-size="12" lengthAdjust="spacingAndGlyphs" textLength="49" x="345.75" y="61.1543">Console</text><line style="stroke: #A80036; stroke-width: 1.5;" x1="248" x2="460" y1="73" y2="73"/><ellipse cx="258" cy="84" fill="none" rx="3" ry="3" style="stroke: #038048; stroke-width: 1.0;"/><text fill="#000000" font-family="sans-serif" font-size="11" lengthAdjust="spacingAndGlyphs" text-decoration="underline" textLength="97" x="267" y="87.2104">console: Console</text><rect fill="none" height="6" style="stroke: #C82930; stroke-width: 1.0;" width="6" x="255" y="93.8047"/><text fill="#000000" font-family="sans-serif" font-size="11" lengthAdjust="spacingAndGlyphs" textLength="188" x="267" y="100.0151">bufferedReader: BufferedReader</text><line style="stroke: #A80036; stroke-width: 1.5;" x1="248" x2="460" y1="106.6094" y2="106.6094"/><ellipse cx="258" cy="117.6094" fill="#84BE84" rx="3" ry="3" style="stroke: #038048; stroke-width: 1.0;"/><text fill="#000000" font-family="sans-serif" font-size="11" lengthAdjust="spacingAndGlyphs" text-decoration="underline" textLength="128" x="267" y="120.8198">getInstance(): Console</text><ellipse cx="258" cy="130.4141" fill="#84BE84" rx="3" ry="3" style="stroke: #038048; stroke-width: 1.0;"/><text fill="#000000" font-family="sans-serif" font-size="11" lengthAdjust="spacingAndGlyphs" textLength="140" x="267" y="133.6245">readString(String): String</text><ellipse cx="258" cy="143.2188" fill="#84BE84" rx="3" ry="3" style="stroke: #038048; stroke-width: 1.0;"/><text fill="#000000" font-family="sans-serif" font-size="11" lengthAdjust="spacingAndGlyphs" textLength="107" x="267" y="146.4292">readString(): String</text><ellipse cx="258" cy="156.0234" fill="#84BE84" rx="3" ry="3" style="stroke: #038048; stroke-width: 1.0;"/><text fill="#000000" font-family="sans-serif" font-size="11" lengthAdjust="spacingAndGlyphs" textLength="102" x="267" y="159.2339">readInt(String): int</text><ellipse cx="258" cy="168.8281" fill="#84BE84" rx="3" ry="3" style="stroke: #038048; stroke-width: 1.0;"/><text fill="#000000" font-family="sans-serif" font-size="11" lengthAdjust="spacingAndGlyphs" textLength="124" x="267" y="172.0386">readChar(String): char</text><ellipse cx="258" cy="181.6328" fill="#84BE84" rx="3" ry="3" style="stroke: #038048; stroke-width: 1.0;"/><text fill="#000000" font-family="sans-serif" font-size="11" lengthAdjust="spacingAndGlyphs" textLength="46" x="267" y="184.8433">writeln()</text><ellipse cx="258" cy="194.4375" fill="#84BE84" rx="3" ry="3" style="stroke: #038048; stroke-width: 1.0;"/><text fill="#000000" font-family="sans-serif" font-size="11" lengthAdjust="spacingAndGlyphs" textLength="69" x="267" y="197.6479">write(String)</text><ellipse cx="258" cy="207.2422" fill="#84BE84" rx="3" ry="3" style="stroke: #038048; stroke-width: 1.0;"/><text fill="#000000" font-family="sans-serif" font-size="11" lengthAdjust="spacingAndGlyphs" textLength="79" x="267" y="210.4526">writeln(String)</text><ellipse cx="258" cy="220.0469" fill="#84BE84" rx="3" ry="3" style="stroke: #038048; stroke-width: 1.0;"/><text fill="#000000" font-family="sans-serif" font-size="11" lengthAdjust="spacingAndGlyphs" textLength="60" x="267" y="223.2573">write(char)</text><rect fill="#F24D5C" height="6" style="stroke: #C82930; stroke-width: 1.0;" width="6" x="255" y="229.8516"/><text fill="#000000" font-family="sans-serif" font-size="11" lengthAdjust="spacingAndGlyphs" textLength="95" x="267" y="236.062">writeError(String)</text><!--MD5=[115031fed92a4467bd358dd9ee6729dd]
class usantatecla.utils.YesNoDialog--><rect codeLine="36" fill="#FEFECE" filter="url(#f1xbm6kyu1phbz)" height="163.2422" id="usantatecla.utils.YesNoDialog" style="stroke: #A80036; stroke-width: 1.5;" width="179" x="32.5" y="60.5"/><ellipse cx="79.75" cy="76.5" fill="#ADD1B2" rx="11" ry="11" style="stroke: #A80036; stroke-width: 1.0;"/><path d="M82.0938,72.1719 C81.1563,71.7344 80.5625,71.5938 79.6875,71.5938 C77.0625,71.5938 75.0625,73.6719 75.0625,76.3906 L75.0625,77.5156 C75.0625,80.0938 77.1719,81.9844 80.0625,81.9844 C81.2813,81.9844 82.4375,81.6875 83.1875,81.1406 C83.7656,80.7344 84.0938,80.2813 84.0938,79.8906 C84.0938,79.4375 83.7031,79.0469 83.2344,79.0469 C83.0156,79.0469 82.8125,79.125 82.625,79.3125 C82.1719,79.7969 82.1719,79.7969 81.9844,79.8906 C81.5625,80.1563 80.875,80.2813 80.1094,80.2813 C78.0625,80.2813 76.7656,79.1875 76.7656,77.4844 L76.7656,76.3906 C76.7656,74.6094 78.0156,73.2969 79.75,73.2969 C80.3281,73.2969 80.9375,73.4531 81.4063,73.7031 C81.8906,73.9844 82.0625,74.2031 82.1563,74.6094 C82.2188,75.0156 82.25,75.1406 82.3906,75.2656 C82.5313,75.4063 82.7656,75.5156 82.9844,75.5156 C83.25,75.5156 83.5156,75.375 83.6875,75.1563 C83.7969,75 83.8281,74.8125 83.8281,74.3906 L83.8281,72.9688 C83.8281,72.5313 83.8125,72.4063 83.7188,72.25 C83.5625,71.9844 83.2813,71.8438 82.9844,71.8438 C82.6875,71.8438 82.4844,71.9375 82.2656,72.25 L82.0938,72.1719 Z "/><text fill="#000000" font-family="sans-serif" font-size="12" lengthAdjust="spacingAndGlyphs" textLength="76" x="100.25" y="80.6543">YesNoDialog</text><line style="stroke: #A80036; stroke-width: 1.5;" x1="33.5" x2="210.5" y1="92.5" y2="92.5"/><rect fill="none" height="6" style="stroke: #C82930; stroke-width: 1.0;" width="6" x="40.5" y="100.5"/><text fill="#000000" font-family="sans-serif" font-size="11" lengthAdjust="spacingAndGlyphs" text-decoration="underline" textLength="97" x="52.5" y="106.7104">AFIRMATIVE: char</text><rect fill="none" height="6" style="stroke: #C82930; stroke-width: 1.0;" width="6" x="40.5" y="113.3047"/><text fill="#000000" font-family="sans-serif" font-size="11" lengthAdjust="spacingAndGlyphs" text-decoration="underline" textLength="88" x="52.5" y="119.5151">NEGATIVE: char</text><rect fill="none" height="6" style="stroke: #C82930; stroke-width: 1.0;" width="6" x="40.5" y="126.1094"/><text fill="#000000" font-family="sans-serif" font-size="11" lengthAdjust="spacingAndGlyphs" text-decoration="underline" textLength="99" x="52.5" y="132.3198">QUESTION: String</text><rect fill="none" height="6" style="stroke: #C82930; stroke-width: 1.0;" width="6" x="40.5" y="138.9141"/><text fill="#000000" font-family="sans-serif" font-size="11" lengthAdjust="spacingAndGlyphs" text-decoration="underline" textLength="96" x="52.5" y="145.1245">MESSAGE: String</text><line style="stroke: #A80036; stroke-width: 1.5;" x1="33.5" x2="210.5" y1="151.7188" y2="151.7188"/><ellipse cx="43.5" cy="162.7188" fill="#84BE84" rx="3" ry="3" style="stroke: #038048; stroke-width: 1.0;"/><text fill="#000000" font-family="sans-serif" font-size="11" lengthAdjust="spacingAndGlyphs" textLength="80" x="52.5" y="165.9292">YesNoDialog()</text><ellipse cx="43.5" cy="175.5234" fill="#84BE84" rx="3" ry="3" style="stroke: #038048; stroke-width: 1.0;"/><text fill="#000000" font-family="sans-serif" font-size="11" lengthAdjust="spacingAndGlyphs" textLength="120" x="52.5" y="178.7339">read(String): boolean</text><ellipse cx="43.5" cy="188.3281" fill="#84BE84" rx="3" ry="3" style="stroke: #038048; stroke-width: 1.0;"/><text fill="#000000" font-family="sans-serif" font-size="11" lengthAdjust="spacingAndGlyphs" textLength="87" x="52.5" y="191.5386">read(): boolean</text><rect fill="#F24D5C" height="6" style="stroke: #C82930; stroke-width: 1.0;" width="6" x="40.5" y="198.1328"/><text fill="#000000" font-family="sans-serif" font-size="11" lengthAdjust="spacingAndGlyphs" text-decoration="underline" textLength="153" x="52.5" y="204.3433">isAfirmative(char): boolean</text><rect fill="#F24D5C" height="6" style="stroke: #C82930; stroke-width: 1.0;" width="6" x="40.5" y="210.9375"/><text fill="#000000" font-family="sans-serif" font-size="11" lengthAdjust="spacingAndGlyphs" text-decoration="underline" textLength="146" x="52.5" y="217.1479">isNegative(char): boolean</text><!--MD5=[ee4f8f5c2b5eaa5df2ba8c0614cd4e83]
class BufferedReader--><rect codeLine="30" fill="#FEFECE" filter="url(#f1xbm6kyu1phbz)" height="48" id="BufferedReader" style="stroke: #A80036; stroke-width: 1.5;" width="168" x="270" y="303"/><ellipse cx="285" cy="319" fill="#ADD1B2" rx="11" ry="11" style="stroke: #A80036; stroke-width: 1.0;"/><path d="M287.3438,314.6719 C286.4063,314.2344 285.8125,314.0938 284.9375,314.0938 C282.3125,314.0938 280.3125,316.1719 280.3125,318.8906 L280.3125,320.0156 C280.3125,322.5938 282.4219,324.4844 285.3125,324.4844 C286.5313,324.4844 287.6875,324.1875 288.4375,323.6406 C289.0156,323.2344 289.3438,322.7813 289.3438,322.3906 C289.3438,321.9375 288.9531,321.5469 288.4844,321.5469 C288.2656,321.5469 288.0625,321.625 287.875,321.8125 C287.4219,322.2969 287.4219,322.2969 287.2344,322.3906 C286.8125,322.6563 286.125,322.7813 285.3594,322.7813 C283.3125,322.7813 282.0156,321.6875 282.0156,319.9844 L282.0156,318.8906 C282.0156,317.1094 283.2656,315.7969 285,315.7969 C285.5781,315.7969 286.1875,315.9531 286.6563,316.2031 C287.1406,316.4844 287.3125,316.7031 287.4063,317.1094 C287.4688,317.5156 287.5,317.6406 287.6406,317.7656 C287.7813,317.9063 288.0156,318.0156 288.2344,318.0156 C288.5,318.0156 288.7656,317.875 288.9375,317.6563 C289.0469,317.5 289.0781,317.3125 289.0781,316.8906 L289.0781,315.4688 C289.0781,315.0313 289.0625,314.9063 288.9688,314.75 C288.8125,314.4844 288.5313,314.3438 288.2344,314.3438 C287.9375,314.3438 287.7344,314.4375 287.5156,314.75 L287.3438,314.6719 Z "/><text fill="#000000" font-family="sans-serif" font-size="12" lengthAdjust="spacingAndGlyphs" textLength="136" x="299" y="323.1543">java.io.BufferedReader</text><line style="stroke: #A80036; stroke-width: 1.5;" x1="271" x2="437" y1="335" y2="335"/><line style="stroke: #A80036; stroke-width: 1.5;" x1="271" x2="437" y1="343" y2="343"/><!--MD5=[14426ff67e875e6661b88179367ed759]
link usantatecla.utils.Console to BufferedReader--><path codeLine="32" d="M354,255.067 C354,255.067 354,279.5956 354,289.5834 " fill="none" id="usantatecla.utils.Console-BufferedReader" style="stroke: #A80036; stroke-width: 1.0;"/><polygon fill="#A80036" points="354,302.6836,358,293.6836,354,297.6836,350,293.6836,354,302.6836" style="stroke: #A80036; stroke-width: 1.0;"/><line style="stroke: #A80036; stroke-width: 1.0;" x1="354" x2="354" y1="297.6836" y2="289.6835"/><polygon fill="#A80036" points="354,243.067,350,249.067,354,255.067,358,249.067,354,243.067" style="stroke: #A80036; stroke-width: 1.0;"/><!--MD5=[3848269a99ca1a2973a0c317ccb68050]
@startuml
enum  usantatecla.utils.ColorCode{
+ {static} RED: ColorCode
+ {static} BLUE: ColorCode
+ {static} YELLOW: ColorCode
+ {static} GREEN: ColorCode
+ {static} ORANGE: ColorCode
+ {static} PURPLE: ColorCode
+ {static} RESET_COLOR: ColorCode
- color: String
~ ColorCode(String)
+ getColor(): String
+ {static} getColorByIndex(int): String
}

class  usantatecla.utils.Console{
+ {static} console: Console
- bufferedReader: BufferedReader
+ {static} getInstance(): Console
+ readString(String): String
+ readString(): String
+ readInt(String): int
+ readChar(String): char
+ writeln()
+ write(String)
+ writeln(String)
+ write(char)
- writeError(String)
}

class BufferedReader as "java.io.BufferedReader"

usantatecla.utils.Console *-down-> BufferedReader



class  usantatecla.utils.YesNoDialog{
- {static} AFIRMATIVE: char
- {static} NEGATIVE: char
- {static} QUESTION: String
- {static} MESSAGE: String
+ YesNoDialog()
+ read(String): boolean
+ read(): boolean
- {static} isAfirmative(char): boolean
- {static} isNegative(char): boolean
}
@enduml

PlantUML version 1.2020.20beta4(Unknown compile time)
(GPL source distribution)
Java Runtime: Java(TM) SE Runtime Environment
JVM: Java HotSpot(TM) 64-Bit Server VM
Default Encoding: UTF-8
Language: en
Country: US
--></g></svg>