<?xml version="1.0" encoding="UTF-8" standalone="no"?><svg xmlns="http://www.w3.org/2000/svg" xmlns:xlink="http://www.w3.org/1999/xlink" contentScriptType="application/ecmascript" contentStyleType="text/css" height="498px" preserveAspectRatio="none" style="width:865px;height:498px;" version="1.1" viewBox="0 0 865 498" width="865px" zoomAndPan="magnify"><defs><filter height="300%" id="f1j0y6bfug27fg" width="300%" x="-1" y="-1"><feGaussianBlur result="blurOut" stdDeviation="2.0"/><feColorMatrix in="blurOut" result="blurOut2" type="matrix" values="0 0 0 0 0 0 0 0 0 0 0 0 0 0 0 0 0 0 .4 0"/><feOffset dx="4.0" dy="4.0" in="blurOut2" result="blurOut3"/><feBlend in="SourceGraphic" in2="blurOut3" mode="normal"/></filter></defs><g><!--MD5=[9be0839337cfdab5d118a2e29cf0a8c4]
cluster usantatecla.mastermind--><polygon fill="#FFFFFF" filter="url(#f1j0y6bfug27fg)" points="16,75.402,223,75.402,230,97.6989,410,97.6989,410,372.402,16,372.402,16,75.402" style="stroke:#000000;stroke-width:1.5;"/><line style="stroke:#000000;stroke-width:1.5;" x1="16" x2="230" y1="97.6989" y2="97.6989"/><text fill="#000000" font-family="sans-serif" font-size="14" font-weight="bold" lengthAdjust="spacingAndGlyphs" textLength="201" x="20" y="90.3971">usantatecla.mastermind</text><!--MD5=[315b8ca9da34f9ebf61c511bec4164b0]
class usantatecla.mastermind.ConsoleMastermind--><rect codeLine="4" fill="#FEFECE" filter="url(#f1j0y6bfug27fg)" height="73.6094" id="usantatecla.mastermind.ConsoleMastermind" style="stroke:#A80036;stroke-width:1.5;" width="163" x="32.5" y="282.402"/><ellipse cx="52.9" cy="298.402" fill="#ADD1B2" rx="11" ry="11" style="stroke:#A80036;stroke-width:1.0;"/><path d="M55.2438,294.0739 C54.3063,293.6364 53.7125,293.4958 52.8375,293.4958 C50.2125,293.4958 48.2125,295.5739 48.2125,298.2926 L48.2125,299.4176 C48.2125,301.9958 50.3219,303.8864 53.2125,303.8864 C54.4313,303.8864 55.5875,303.5895 56.3375,303.0426 C56.9156,302.6364 57.2438,302.1833 57.2438,301.7926 C57.2438,301.3395 56.8531,300.9489 56.3844,300.9489 C56.1656,300.9489 55.9625,301.027 55.775,301.2145 C55.3219,301.6989 55.3219,301.6989 55.1344,301.7926 C54.7125,302.0583 54.025,302.1833 53.2594,302.1833 C51.2125,302.1833 49.9156,301.0895 49.9156,299.3864 L49.9156,298.2926 C49.9156,296.5114 51.1656,295.1989 52.9,295.1989 C53.4781,295.1989 54.0875,295.3551 54.5563,295.6051 C55.0406,295.8864 55.2125,296.1051 55.3063,296.5114 C55.3688,296.9176 55.4,297.0426 55.5406,297.1676 C55.6813,297.3083 55.9156,297.4176 56.1344,297.4176 C56.4,297.4176 56.6656,297.277 56.8375,297.0583 C56.9469,296.902 56.9781,296.7145 56.9781,296.2926 L56.9781,294.8708 C56.9781,294.4333 56.9625,294.3083 56.8688,294.152 C56.7125,293.8864 56.4313,293.7458 56.1344,293.7458 C55.8375,293.7458 55.6344,293.8395 55.4156,294.152 L55.2438,294.0739 Z " fill="#000000"/><text fill="#000000" font-family="sans-serif" font-size="12" lengthAdjust="spacingAndGlyphs" textLength="119" x="68.1" y="302.5563">ConsoleMastermind</text><line style="stroke:#A80036;stroke-width:1.5;" x1="33.5" x2="194.5" y1="314.402" y2="314.402"/><line style="stroke:#A80036;stroke-width:1.5;" x1="33.5" x2="194.5" y1="322.402" y2="322.402"/><ellipse cx="43.5" cy="333.402" fill="#84BE84" rx="3" ry="3" style="stroke:#038048;stroke-width:1.0;"/><text fill="#000000" font-family="sans-serif" font-size="11" lengthAdjust="spacingAndGlyphs" text-decoration="underline" textLength="77" x="52.5" y="336.6124">main(String[])</text><polygon fill="#FFFF44" points="43.5,341.2067,47.5,345.2067,43.5,349.2067,39.5,345.2067" style="stroke:#B38D22;stroke-width:1.0;"/><text fill="#000000" font-family="sans-serif" font-size="11" lengthAdjust="spacingAndGlyphs" textLength="137" x="52.5" y="349.4171">createView(Logic): View</text><!--MD5=[904099970a9cea29a476bd38c8d887ee]
class usantatecla.mastermind.Mastermind--><rect codeLine="16" fill="#FEFECE" filter="url(#f1j0y6bfug27fg)" height="112.0234" id="usantatecla.mastermind.Mastermind" style="stroke:#A80036;stroke-width:1.5;" width="161" x="230.5" y="110.402"/><ellipse cx="271.6" cy="126.402" fill="#A9DCDF" rx="11" ry="11" style="stroke:#A80036;stroke-width:1.0;"/><path d="M273.6781,128.2145 L274.0688,129.1989 L273.6781,129.1989 C273.225,129.1989 273.1156,129.2145 272.9594,129.3239 C272.7094,129.4801 272.5531,129.7614 272.5531,130.0583 C272.5531,130.3239 272.6938,130.5739 272.9125,130.7301 C273.0531,130.8551 273.2563,130.902 273.6781,130.902 L276.0375,130.902 C276.3969,130.902 276.6156,130.8708 276.7563,130.777 C277.0063,130.6364 277.1625,130.3395 277.1625,130.0583 C277.1625,129.777 277.0219,129.527 276.8031,129.3708 C276.6313,129.2301 276.475,129.1989 276.0063,129.1989 L272.6156,120.9957 L268.9438,120.9957 C268.4906,120.9957 268.3656,121.0114 268.2094,121.1051 C267.9594,121.277 267.8031,121.5582 267.8031,121.8395 C267.8031,122.1207 267.9438,122.3707 268.1625,122.5426 C268.3344,122.652 268.5063,122.6832 268.9438,122.6832 L270.0219,122.6832 L267.3813,129.1989 C266.9594,129.1989 266.8031,129.2145 266.6469,129.3239 C266.3969,129.4801 266.2406,129.7614 266.2406,130.0583 C266.2406,130.6208 266.6156,130.902 267.3656,130.902 L269.6313,130.902 C269.9906,130.902 270.2094,130.8708 270.3344,130.777 C270.6,130.6364 270.7406,130.3395 270.7406,130.0583 C270.7406,129.777 270.6156,129.527 270.3969,129.3551 C270.225,129.2301 270.0844,129.1989 269.6313,129.1989 L269.2406,129.1989 L269.6313,128.2145 L273.6781,128.2145 Z M272.975,126.5114 L270.3031,126.5114 L271.6469,123.2457 L272.975,126.5114 Z " fill="#000000"/><text fill="#000000" font-family="sans-serif" font-size="12" font-style="italic" lengthAdjust="spacingAndGlyphs" textLength="71" x="291.4" y="130.5563">Mastermind</text><line style="stroke:#A80036;stroke-width:1.5;" x1="231.5" x2="390.5" y1="142.402" y2="142.402"/><rect fill="none" height="6" style="stroke:#C82930;stroke-width:1.0;" width="6" x="238.5" y="150.402"/><text fill="#000000" font-family="sans-serif" font-size="11" lengthAdjust="spacingAndGlyphs" textLength="62" x="250.5" y="156.6124">logic: Logic</text><rect fill="none" height="6" style="stroke:#C82930;stroke-width:1.0;" width="6" x="238.5" y="163.2067"/><text fill="#000000" font-family="sans-serif" font-size="11" lengthAdjust="spacingAndGlyphs" textLength="62" x="250.5" y="169.4171">view: View</text><line style="stroke:#A80036;stroke-width:1.5;" x1="231.5" x2="390.5" y1="176.0114" y2="176.0114"/><polygon fill="#FFFF44" points="241.5,182.0114,245.5,186.0114,241.5,190.0114,237.5,186.0114" style="stroke:#B38D22;stroke-width:1.0;"/><text fill="#000000" font-family="sans-serif" font-size="11" lengthAdjust="spacingAndGlyphs" textLength="74" x="250.5" y="190.2218">Mastermind()</text><polygon fill="#FFFF44" points="241.5,194.8161,245.5,198.8161,241.5,202.8161,237.5,198.8161" style="stroke:#B38D22;stroke-width:1.0;"/><text fill="#000000" font-family="sans-serif" font-size="11" font-style="italic" lengthAdjust="spacingAndGlyphs" textLength="135" x="250.5" y="203.0265">createView(Logic): View</text><polygon fill="#FFFF44" points="241.5,207.6208,245.5,211.6208,241.5,215.6208,237.5,211.6208" style="stroke:#B38D22;stroke-width:1.0;"/><text fill="#000000" font-family="sans-serif" font-size="11" lengthAdjust="spacingAndGlyphs" textLength="32" x="250.5" y="215.8312">play()</text><!--MD5=[e3ccb0142e457ddb33bd230b9167ec6f]
class usantatecla.mastermind.GraphicsMastermind--><rect codeLine="10" fill="#FEFECE" filter="url(#f1j0y6bfug27fg)" height="73.6094" id="usantatecla.mastermind.GraphicsMastermind" style="stroke:#A80036;stroke-width:1.5;" width="163" x="230.5" y="282.402"/><ellipse cx="249.1" cy="298.402" fill="#ADD1B2" rx="11" ry="11" style="stroke:#A80036;stroke-width:1.0;"/><path d="M251.4438,294.0739 C250.5063,293.6364 249.9125,293.4958 249.0375,293.4958 C246.4125,293.4958 244.4125,295.5739 244.4125,298.2926 L244.4125,299.4176 C244.4125,301.9958 246.5219,303.8864 249.4125,303.8864 C250.6313,303.8864 251.7875,303.5895 252.5375,303.0426 C253.1156,302.6364 253.4438,302.1833 253.4438,301.7926 C253.4438,301.3395 253.0531,300.9489 252.5844,300.9489 C252.3656,300.9489 252.1625,301.027 251.975,301.2145 C251.5219,301.6989 251.5219,301.6989 251.3344,301.7926 C250.9125,302.0583 250.225,302.1833 249.4594,302.1833 C247.4125,302.1833 246.1156,301.0895 246.1156,299.3864 L246.1156,298.2926 C246.1156,296.5114 247.3656,295.1989 249.1,295.1989 C249.6781,295.1989 250.2875,295.3551 250.7563,295.6051 C251.2406,295.8864 251.4125,296.1051 251.5063,296.5114 C251.5688,296.9176 251.6,297.0426 251.7406,297.1676 C251.8813,297.3083 252.1156,297.4176 252.3344,297.4176 C252.6,297.4176 252.8656,297.277 253.0375,297.0583 C253.1469,296.902 253.1781,296.7145 253.1781,296.2926 L253.1781,294.8708 C253.1781,294.4333 253.1625,294.3083 253.0688,294.152 C252.9125,293.8864 252.6313,293.7458 252.3344,293.7458 C252.0375,293.7458 251.8344,293.8395 251.6156,294.152 L251.4438,294.0739 Z " fill="#000000"/><text fill="#000000" font-family="sans-serif" font-size="12" lengthAdjust="spacingAndGlyphs" textLength="123" x="263.9" y="302.5563">GraphicsMastermind</text><line style="stroke:#A80036;stroke-width:1.5;" x1="231.5" x2="392.5" y1="314.402" y2="314.402"/><line style="stroke:#A80036;stroke-width:1.5;" x1="231.5" x2="392.5" y1="322.402" y2="322.402"/><ellipse cx="241.5" cy="333.402" fill="#84BE84" rx="3" ry="3" style="stroke:#038048;stroke-width:1.0;"/><text fill="#000000" font-family="sans-serif" font-size="11" lengthAdjust="spacingAndGlyphs" text-decoration="underline" textLength="77" x="250.5" y="336.6124">main(String[])</text><polygon fill="#FFFF44" points="241.5,341.2067,245.5,345.2067,241.5,349.2067,237.5,345.2067" style="stroke:#B38D22;stroke-width:1.0;"/><text fill="#000000" font-family="sans-serif" font-size="11" lengthAdjust="spacingAndGlyphs" textLength="137" x="250.5" y="349.4171">createView(Logic): View</text><!--MD5=[51d729737bd84a4c43136dd336c2eea1]
class ConsoleView--><rect codeLine="1" fill="#FEFECE" filter="url(#f1j0y6bfug27fg)" height="67.9063" id="ConsoleView" style="stroke:#A80036;stroke-width:1.5;" width="161" x="33.5" y="416.402"/><ellipse cx="48.5" cy="442.3551" fill="#ADD1B2" rx="11" ry="11" style="stroke:#A80036;stroke-width:1.0;"/><path d="M50.8438,438.027 C49.9063,437.5895 49.3125,437.4489 48.4375,437.4489 C45.8125,437.4489 43.8125,439.527 43.8125,442.2458 L43.8125,443.3708 C43.8125,445.9489 45.9219,447.8395 48.8125,447.8395 C50.0313,447.8395 51.1875,447.5426 51.9375,446.9958 C52.5156,446.5895 52.8438,446.1364 52.8438,445.7458 C52.8438,445.2926 52.4531,444.902 51.9844,444.902 C51.7656,444.902 51.5625,444.9801 51.375,445.1676 C50.9219,445.652 50.9219,445.652 50.7344,445.7458 C50.3125,446.0114 49.625,446.1364 48.8594,446.1364 C46.8125,446.1364 45.5156,445.0426 45.5156,443.3395 L45.5156,442.2458 C45.5156,440.4645 46.7656,439.152 48.5,439.152 C49.0781,439.152 49.6875,439.3083 50.1563,439.5583 C50.6406,439.8395 50.8125,440.0583 50.9063,440.4645 C50.9688,440.8708 51,440.9958 51.1406,441.1208 C51.2813,441.2614 51.5156,441.3708 51.7344,441.3708 C52,441.3708 52.2656,441.2301 52.4375,441.0114 C52.5469,440.8551 52.5781,440.6676 52.5781,440.2458 L52.5781,438.8239 C52.5781,438.3864 52.5625,438.2614 52.4688,438.1051 C52.3125,437.8395 52.0313,437.6989 51.7344,437.6989 C51.4375,437.6989 51.2344,437.7926 51.0156,438.1051 L50.8438,438.027 Z " fill="#000000"/><text fill="#000000" font-family="sans-serif" font-size="12" lengthAdjust="spacingAndGlyphs" textLength="71" x="91.5" y="432.5407">usantatecla.</text><text fill="#000000" font-family="sans-serif" font-size="12" lengthAdjust="spacingAndGlyphs" textLength="112" x="71" y="446.5094">mastermind.views.</text><text fill="#000000" font-family="sans-serif" font-size="12" lengthAdjust="spacingAndGlyphs" textLength="129" x="62.5" y="460.4782">console.ConsoleView</text><line style="stroke:#A80036;stroke-width:1.5;" x1="34.5" x2="193.5" y1="468.3083" y2="468.3083"/><line style="stroke:#A80036;stroke-width:1.5;" x1="34.5" x2="193.5" y1="476.3083" y2="476.3083"/><!--MD5=[10250df365dc999637be629d910c1f35]
class GraphicsView--><rect codeLine="2" fill="#FEFECE" filter="url(#f1j0y6bfug27fg)" height="67.9063" id="GraphicsView" style="stroke:#A80036;stroke-width:1.5;" width="165" x="229.5" y="416.402"/><ellipse cx="244.5" cy="442.3551" fill="#ADD1B2" rx="11" ry="11" style="stroke:#A80036;stroke-width:1.0;"/><path d="M246.8438,438.027 C245.9063,437.5895 245.3125,437.4489 244.4375,437.4489 C241.8125,437.4489 239.8125,439.527 239.8125,442.2458 L239.8125,443.3708 C239.8125,445.9489 241.9219,447.8395 244.8125,447.8395 C246.0313,447.8395 247.1875,447.5426 247.9375,446.9958 C248.5156,446.5895 248.8438,446.1364 248.8438,445.7458 C248.8438,445.2926 248.4531,444.902 247.9844,444.902 C247.7656,444.902 247.5625,444.9801 247.375,445.1676 C246.9219,445.652 246.9219,445.652 246.7344,445.7458 C246.3125,446.0114 245.625,446.1364 244.8594,446.1364 C242.8125,446.1364 241.5156,445.0426 241.5156,443.3395 L241.5156,442.2458 C241.5156,440.4645 242.7656,439.152 244.5,439.152 C245.0781,439.152 245.6875,439.3083 246.1563,439.5583 C246.6406,439.8395 246.8125,440.0583 246.9063,440.4645 C246.9688,440.8708 247,440.9958 247.1406,441.1208 C247.2813,441.2614 247.5156,441.3708 247.7344,441.3708 C248,441.3708 248.2656,441.2301 248.4375,441.0114 C248.5469,440.8551 248.5781,440.6676 248.5781,440.2458 L248.5781,438.8239 C248.5781,438.3864 248.5625,438.2614 248.4688,438.1051 C248.3125,437.8395 248.0313,437.6989 247.7344,437.6989 C247.4375,437.6989 247.2344,437.7926 247.0156,438.1051 L246.8438,438.027 Z " fill="#000000"/><text fill="#000000" font-family="sans-serif" font-size="12" lengthAdjust="spacingAndGlyphs" textLength="71" x="289.5" y="432.5407">usantatecla.</text><text fill="#000000" font-family="sans-serif" font-size="12" lengthAdjust="spacingAndGlyphs" textLength="112" x="269" y="446.5094">mastermind.views.</text><text fill="#000000" font-family="sans-serif" font-size="12" lengthAdjust="spacingAndGlyphs" textLength="133" x="258.5" y="460.4782">console.GraphicsView</text><line style="stroke:#A80036;stroke-width:1.5;" x1="230.5" x2="393.5" y1="468.3083" y2="468.3083"/><line style="stroke:#A80036;stroke-width:1.5;" x1="230.5" x2="393.5" y1="476.3083" y2="476.3083"/><!--MD5=[42fa18dda7351a0ae87d9497de925436]
class Logic--><rect codeLine="3" fill="#FEFECE" filter="url(#f1j0y6bfug27fg)" height="67.9063" id="Logic" style="stroke:#A80036;stroke-width:1.5;" width="174" x="427" y="132.402"/><ellipse cx="442" cy="158.3551" fill="#ADD1B2" rx="11" ry="11" style="stroke:#A80036;stroke-width:1.0;"/><path d="M444.3438,154.027 C443.4063,153.5895 442.8125,153.4489 441.9375,153.4489 C439.3125,153.4489 437.3125,155.527 437.3125,158.2458 L437.3125,159.3708 C437.3125,161.9489 439.4219,163.8395 442.3125,163.8395 C443.5313,163.8395 444.6875,163.5426 445.4375,162.9958 C446.0156,162.5895 446.3438,162.1364 446.3438,161.7458 C446.3438,161.2926 445.9531,160.902 445.4844,160.902 C445.2656,160.902 445.0625,160.9801 444.875,161.1676 C444.4219,161.652 444.4219,161.652 444.2344,161.7458 C443.8125,162.0114 443.125,162.1364 442.3594,162.1364 C440.3125,162.1364 439.0156,161.0426 439.0156,159.3395 L439.0156,158.2458 C439.0156,156.4645 440.2656,155.152 442,155.152 C442.5781,155.152 443.1875,155.3083 443.6563,155.5583 C444.1406,155.8395 444.3125,156.0583 444.4063,156.4645 C444.4688,156.8708 444.5,156.9958 444.6406,157.1208 C444.7813,157.2614 445.0156,157.3708 445.2344,157.3708 C445.5,157.3708 445.7656,157.2301 445.9375,157.0114 C446.0469,156.8551 446.0781,156.6676 446.0781,156.2458 L446.0781,154.8239 C446.0781,154.3864 446.0625,154.2614 445.9688,154.1051 C445.8125,153.8395 445.5313,153.6989 445.2344,153.6989 C444.9375,153.6989 444.7344,153.7926 444.5156,154.1051 L444.3438,154.027 Z " fill="#000000"/><text fill="#000000" font-family="sans-serif" font-size="12" lengthAdjust="spacingAndGlyphs" textLength="71" x="491.5" y="148.5407">usantatecla.</text><text fill="#000000" font-family="sans-serif" font-size="12" lengthAdjust="spacingAndGlyphs" textLength="142" x="456" y="162.5094">mastermind.controllers.</text><text fill="#000000" font-family="sans-serif" font-size="12" lengthAdjust="spacingAndGlyphs" textLength="32" x="511" y="176.4782">Logic</text><line style="stroke:#A80036;stroke-width:1.5;" x1="428" x2="600" y1="184.3083" y2="184.3083"/><line style="stroke:#A80036;stroke-width:1.5;" x1="428" x2="600" y1="192.3083" y2="192.3083"/><!--MD5=[c045e12321b83266d36d22b9096c24ea]
class View--><rect codeLine="24" fill="#FEFECE" filter="url(#f1j0y6bfug27fg)" height="53.9375" id="View" style="stroke:#A80036;stroke-width:1.5;" width="215" x="636.5" y="139.402"/><ellipse cx="651.5" cy="158.3708" fill="#ADD1B2" rx="11" ry="11" style="stroke:#A80036;stroke-width:1.0;"/><path d="M653.8438,154.0426 C652.9063,153.6051 652.3125,153.4645 651.4375,153.4645 C648.8125,153.4645 646.8125,155.5426 646.8125,158.2614 L646.8125,159.3864 C646.8125,161.9645 648.9219,163.8551 651.8125,163.8551 C653.0313,163.8551 654.1875,163.5583 654.9375,163.0114 C655.5156,162.6051 655.8438,162.152 655.8438,161.7614 C655.8438,161.3083 655.4531,160.9176 654.9844,160.9176 C654.7656,160.9176 654.5625,160.9958 654.375,161.1833 C653.9219,161.6676 653.9219,161.6676 653.7344,161.7614 C653.3125,162.027 652.625,162.152 651.8594,162.152 C649.8125,162.152 648.5156,161.0583 648.5156,159.3551 L648.5156,158.2614 C648.5156,156.4801 649.7656,155.1676 651.5,155.1676 C652.0781,155.1676 652.6875,155.3239 653.1563,155.5739 C653.6406,155.8551 653.8125,156.0739 653.9063,156.4801 C653.9688,156.8864 654,157.0114 654.1406,157.1364 C654.2813,157.277 654.5156,157.3864 654.7344,157.3864 C655,157.3864 655.2656,157.2458 655.4375,157.027 C655.5469,156.8708 655.5781,156.6833 655.5781,156.2614 L655.5781,154.8395 C655.5781,154.402 655.5625,154.277 655.4688,154.1208 C655.3125,153.8551 655.0313,153.7145 654.7344,153.7145 C654.4375,153.7145 654.2344,153.8083 654.0156,154.1208 L653.8438,154.0426 Z " fill="#000000"/><text fill="#000000" font-family="sans-serif" font-size="12" lengthAdjust="spacingAndGlyphs" textLength="183" x="665.5" y="155.5407">usantatecla.mastermind.views.</text><text fill="#000000" font-family="sans-serif" font-size="12" lengthAdjust="spacingAndGlyphs" textLength="29" x="742.5" y="169.5094">View</text><line style="stroke:#A80036;stroke-width:1.5;" x1="637.5" x2="850.5" y1="177.3395" y2="177.3395"/><line style="stroke:#A80036;stroke-width:1.5;" x1="637.5" x2="850.5" y1="185.3395" y2="185.3395"/><!--MD5=[f77977e4d8b9d032efd72e44c024e507]
reverse link usantatecla.mastermind.Mastermind to usantatecla.mastermind.ConsoleMastermind--><path codeLine="8" d="M222.974,234.874 C201.705,251.176 179.779,267.983 161.22,282.208 " fill="none" id="usantatecla.mastermind.Mastermind-backto-usantatecla.mastermind.ConsoleMastermind" style="stroke:#A80036;stroke-width:1.0;"/><polygon fill="none" points="218.91,229.169,239.042,222.557,227.427,240.28,218.91,229.169" style="stroke:#A80036;stroke-width:1.0;"/><!--MD5=[75be7b6274e25c7c9339f824ef8f543e]
reverse link usantatecla.mastermind.Mastermind to usantatecla.mastermind.GraphicsMastermind--><path codeLine="14" d="M311.502,243.24 C311.593,256.871 311.683,270.487 311.761,282.312 " fill="none" id="usantatecla.mastermind.Mastermind-backto-usantatecla.mastermind.GraphicsMastermind" style="stroke:#A80036;stroke-width:1.0;"/><polygon fill="none" points="304.499,242.817,311.367,222.771,318.499,242.725,304.499,242.817" style="stroke:#A80036;stroke-width:1.0;"/><!--MD5=[247e47791acc2ed78b9d73006ffb100f]
link usantatecla.mastermind.Mastermind to Logic--><path codeLine="28" d="M403.883,166.402 C403.883,166.402 410.609,166.402 413.443,166.402 " fill="none" id="usantatecla.mastermind.Mastermind-Logic" style="stroke:#A80036;stroke-width:1.0;"/><polygon fill="#A80036" points="426.705,166.402,417.705,162.402,421.705,166.402,417.705,170.402,426.705,166.402" style="stroke:#A80036;stroke-width:1.0;"/><line style="stroke:#A80036;stroke-width:1.0;" x1="421.705" x2="413.705" y1="166.402" y2="166.402"/><polygon fill="#A80036" points="391.883,166.402,397.883,170.402,403.883,166.402,397.883,162.402,391.883,166.402" style="stroke:#A80036;stroke-width:1.0;"/><!--MD5=[a5f8ce13268a0ab6e1eb93d1cfb2a7ef]
link usantatecla.mastermind.Mastermind to View--><path codeLine="29" d="M352.4709,100.7864 C352.4709,100.7864 397.82,50.59 427.5,37.402 C498.171,6 529.34,9.592 601.5,37.402 C648.713,55.598 689.988,97.492 715.796,128.63 " fill="none" id="usantatecla.mastermind.Mastermind-View" style="stroke:#A80036;stroke-width:1.0;"/><polygon fill="#A80036" points="724.264,139.138,721.7316,129.6203,721.1267,135.2447,715.5023,134.6399,724.264,139.138" style="stroke:#A80036;stroke-width:1.0;"/><line style="stroke:#A80036;stroke-width:1.0;" x1="721.1267" x2="716.107" y1="135.2447" y2="129.016"/><polygon fill="#A80036" points="345.195,110.329,352.0138,107.983,352.4709,100.7864,345.6521,103.1324,345.195,110.329" style="stroke:#A80036;stroke-width:1.0;"/><!--MD5=[0a501c15156d4559f00f932bd01623b3]
link usantatecla.mastermind.GraphicsMastermind to GraphicsView--><path codeLine="30" d="M312,356.679 C312,373.563 312,393.6604 312,410.8215 " fill="none" id="usantatecla.mastermind.GraphicsMastermind-to-GraphicsView" style="stroke:#A80036;stroke-width:1.0;stroke-dasharray:7.0,7.0;"/><polygon fill="#A80036" points="312,416.0463,316,407.0463,312,411.0463,308,407.0463,312,416.0463" style="stroke:#A80036;stroke-width:1.0;"/><!--MD5=[86660d01f18f2f4aaa6ae1176c50cf28]
link usantatecla.mastermind.ConsoleMastermind to ConsoleView--><path codeLine="31" d="M114,356.679 C114,373.563 114,393.6604 114,410.8215 " fill="none" id="usantatecla.mastermind.ConsoleMastermind-to-ConsoleView" style="stroke:#A80036;stroke-width:1.0;stroke-dasharray:7.0,7.0;"/><polygon fill="#A80036" points="114,416.0463,118,407.0463,114,411.0463,110,407.0463,114,416.0463" style="stroke:#A80036;stroke-width:1.0;"/><!--MD5=[cd493ff0709daf6b8bdff13241e36461]
@startuml
class ConsoleView as "usantatecla.\nmastermind.views.\nconsole.ConsoleView"
class GraphicsView as "usantatecla.\nmastermind.views.\nconsole.GraphicsView"
class Logic as "usantatecla.\nmastermind.controllers.\nLogic"
class  usantatecla.mastermind.ConsoleMastermind{
+ {static} main(String[])
# createView(Logic): View
}
usantatecla.mastermind.Mastermind <|-down- usantatecla.mastermind.ConsoleMastermind

class  usantatecla.mastermind.GraphicsMastermind{
+ {static} main(String[])
# createView(Logic): View
}
usantatecla.mastermind.Mastermind <|-down- usantatecla.mastermind.GraphicsMastermind

abstract class  usantatecla.mastermind.Mastermind{
- logic: Logic
- view: View
# Mastermind()
# {abstract} createView(Logic): View
# play()
}

class View as "usantatecla.mastermind.views.\nView" {


}
usantatecla.mastermind.Mastermind *-> Logic
usantatecla.mastermind.Mastermind *-> View
usantatecla.mastermind.GraphicsMastermind ..> GraphicsView
usantatecla.mastermind.ConsoleMastermind ..> ConsoleView
@enduml

PlantUML version 1.2020.22beta2(Unknown compile time)
(GPL source distribution)
Java Runtime: Java(TM) SE Runtime Environment
JVM: Java HotSpot(TM) 64-Bit Server VM
Default Encoding: UTF-8
Language: en
Country: US
--></g></svg>