<?xml version="1.0" encoding="UTF-8" standalone="no"?><svg xmlns="http://www.w3.org/2000/svg" xmlns:xlink="http://www.w3.org/1999/xlink" contentScriptType="application/ecmascript" contentStyleType="text/css" height="322px" preserveAspectRatio="none" style="width:847px;height:322px;" version="1.1" viewBox="0 0 847 322" width="847px" zoomAndPan="magnify"><defs><filter height="300%" id="f1buo74q2ezq4b" width="300%" x="-1" y="-1"><feGaussianBlur result="blurOut" stdDeviation="2.0"/><feColorMatrix in="blurOut" result="blurOut2" type="matrix" values="0 0 0 0 0 0 0 0 0 0 0 0 0 0 0 0 0 0 .4 0"/><feOffset dx="4.0" dy="4.0" in="blurOut2" result="blurOut3"/><feBlend in="SourceGraphic" in2="blurOut3" mode="normal"/></filter></defs><g><!--MD5=[b56d8ef9af079015670ad96965866810]
cluster mastermind--><polygon fill="#FFFFFF" filter="url(#f1buo74q2ezq4b)" points="16,6,120,6,127,28.2969,410,28.2969,410,315,16,315,16,6" style="stroke:#000000;stroke-width:1.5;"/><line style="stroke:#000000;stroke-width:1.5;" x1="16" x2="127" y1="28.2969" y2="28.2969"/><text fill="#000000" font-family="sans-serif" font-size="14" font-weight="bold" lengthAdjust="spacingAndGlyphs" textLength="98" x="20" y="20.9951">mastermind</text><!--MD5=[f4a8416df5d5f7c80a7d3a30f9e0f7a6]
cluster mastermind.controllers--><polygon fill="#FFFFFF" filter="url(#f1buo74q2ezq4b)" points="434,197,632,197,639,219.2969,642,219.2969,642,296,434,296,434,197" style="stroke:#000000;stroke-width:1.5;"/><line style="stroke:#000000;stroke-width:1.5;" x1="434" x2="639" y1="219.2969" y2="219.2969"/><text fill="#000000" font-family="sans-serif" font-size="14" font-weight="bold" lengthAdjust="spacingAndGlyphs" textLength="192" x="438" y="211.9951">mastermind.controllers</text><!--MD5=[57ab11106b6017d1c059bb8de6501622]
cluster mastermind.views--><polygon fill="#FFFFFF" filter="url(#f1buo74q2ezq4b)" points="666,197,820,197,827,219.2969,830,219.2969,830,296,666,296,666,197" style="stroke:#000000;stroke-width:1.5;"/><line style="stroke:#000000;stroke-width:1.5;" x1="666" x2="827" y1="219.2969" y2="219.2969"/><text fill="#000000" font-family="sans-serif" font-size="14" font-weight="bold" lengthAdjust="spacingAndGlyphs" textLength="148" x="670" y="211.9951">mastermind.views</text><!--MD5=[9d86695c102c0f315477fb61b956f99d]
class mastermind.ConsoleMastermind--><rect codeLine="1" fill="#FEFECE" filter="url(#f1buo74q2ezq4b)" height="86.4141" id="mastermind.ConsoleMastermind" style="stroke:#A80036;stroke-width:1.5;" width="163" x="32.5" y="213"/><ellipse cx="52.9" cy="229" fill="#ADD1B2" rx="11" ry="11" style="stroke:#A80036;stroke-width:1.0;"/><path d="M55.2438,224.6719 C54.3063,224.2344 53.7125,224.0938 52.8375,224.0938 C50.2125,224.0938 48.2125,226.1719 48.2125,228.8906 L48.2125,230.0156 C48.2125,232.5938 50.3219,234.4844 53.2125,234.4844 C54.4313,234.4844 55.5875,234.1875 56.3375,233.6406 C56.9156,233.2344 57.2438,232.7813 57.2438,232.3906 C57.2438,231.9375 56.8531,231.5469 56.3844,231.5469 C56.1656,231.5469 55.9625,231.625 55.775,231.8125 C55.3219,232.2969 55.3219,232.2969 55.1344,232.3906 C54.7125,232.6563 54.025,232.7813 53.2594,232.7813 C51.2125,232.7813 49.9156,231.6875 49.9156,229.9844 L49.9156,228.8906 C49.9156,227.1094 51.1656,225.7969 52.9,225.7969 C53.4781,225.7969 54.0875,225.9531 54.5563,226.2031 C55.0406,226.4844 55.2125,226.7031 55.3063,227.1094 C55.3688,227.5156 55.4,227.6406 55.5406,227.7656 C55.6813,227.9063 55.9156,228.0156 56.1344,228.0156 C56.4,228.0156 56.6656,227.875 56.8375,227.6563 C56.9469,227.5 56.9781,227.3125 56.9781,226.8906 L56.9781,225.4688 C56.9781,225.0313 56.9625,224.9063 56.8688,224.75 C56.7125,224.4844 56.4313,224.3438 56.1344,224.3438 C55.8375,224.3438 55.6344,224.4375 55.4156,224.75 L55.2438,224.6719 Z " fill="#000000"/><text fill="#000000" font-family="sans-serif" font-size="12" lengthAdjust="spacingAndGlyphs" textLength="119" x="68.1" y="233.1543">ConsoleMastermind</text><line style="stroke:#A80036;stroke-width:1.5;" x1="33.5" x2="194.5" y1="245" y2="245"/><line style="stroke:#A80036;stroke-width:1.5;" x1="33.5" x2="194.5" y1="253" y2="253"/><ellipse cx="43.5" cy="264" fill="#84BE84" rx="3" ry="3" style="stroke:#038048;stroke-width:1.0;"/><text fill="#000000" font-family="sans-serif" font-size="11" lengthAdjust="spacingAndGlyphs" textLength="120" x="52.5" y="267.2104">ConsoleMastermind()</text><ellipse cx="43.5" cy="276.8047" fill="#84BE84" rx="3" ry="3" style="stroke:#038048;stroke-width:1.0;"/><text fill="#000000" font-family="sans-serif" font-size="11" lengthAdjust="spacingAndGlyphs" text-decoration="underline" textLength="108" x="52.5" y="280.0151">main(String[]): void</text><polygon fill="#FFFF44" points="43.5,284.6094,47.5,288.6094,43.5,292.6094,39.5,288.6094" style="stroke:#B38D22;stroke-width:1.0;"/><text fill="#000000" font-family="sans-serif" font-size="11" lengthAdjust="spacingAndGlyphs" textLength="137" x="52.5" y="292.8198">createView(Logic): View</text><!--MD5=[3690083fa3c0b91189e580515c0d9fca]
class mastermind.Mastermind--><rect codeLine="15" fill="#FEFECE" filter="url(#f1buo74q2ezq4b)" height="112.0234" id="mastermind.Mastermind" style="stroke:#A80036;stroke-width:1.5;" width="161" x="231.5" y="41"/><ellipse cx="273.05" cy="57" fill="#ADD1B2" rx="11" ry="11" style="stroke:#A80036;stroke-width:1.0;"/><path d="M275.3938,52.6719 C274.4563,52.2344 273.8625,52.0938 272.9875,52.0938 C270.3625,52.0938 268.3625,54.1719 268.3625,56.8906 L268.3625,58.0156 C268.3625,60.5938 270.4719,62.4844 273.3625,62.4844 C274.5813,62.4844 275.7375,62.1875 276.4875,61.6406 C277.0656,61.2344 277.3938,60.7813 277.3938,60.3906 C277.3938,59.9375 277.0031,59.5469 276.5344,59.5469 C276.3156,59.5469 276.1125,59.625 275.925,59.8125 C275.4719,60.2969 275.4719,60.2969 275.2844,60.3906 C274.8625,60.6563 274.175,60.7813 273.4094,60.7813 C271.3625,60.7813 270.0656,59.6875 270.0656,57.9844 L270.0656,56.8906 C270.0656,55.1094 271.3156,53.7969 273.05,53.7969 C273.6281,53.7969 274.2375,53.9531 274.7063,54.2031 C275.1906,54.4844 275.3625,54.7031 275.4563,55.1094 C275.5188,55.5156 275.55,55.6406 275.6906,55.7656 C275.8313,55.9063 276.0656,56.0156 276.2844,56.0156 C276.55,56.0156 276.8156,55.875 276.9875,55.6563 C277.0969,55.5 277.1281,55.3125 277.1281,54.8906 L277.1281,53.4688 C277.1281,53.0313 277.1125,52.9063 277.0188,52.75 C276.8625,52.4844 276.5813,52.3438 276.2844,52.3438 C275.9875,52.3438 275.7844,52.4375 275.5656,52.75 L275.3938,52.6719 Z " fill="#000000"/><text fill="#000000" font-family="sans-serif" font-size="12" lengthAdjust="spacingAndGlyphs" textLength="70" x="292.95" y="61.1543">Mastermind</text><line style="stroke:#A80036;stroke-width:1.5;" x1="232.5" x2="391.5" y1="73" y2="73"/><rect fill="none" height="6" style="stroke:#C82930;stroke-width:1.0;" width="6" x="239.5" y="81"/><text fill="#000000" font-family="sans-serif" font-size="11" lengthAdjust="spacingAndGlyphs" textLength="62" x="251.5" y="87.2104">logic: Logic</text><rect fill="none" height="6" style="stroke:#C82930;stroke-width:1.0;" width="6" x="239.5" y="93.8047"/><text fill="#000000" font-family="sans-serif" font-size="11" lengthAdjust="spacingAndGlyphs" textLength="62" x="251.5" y="100.0151">view: View</text><line style="stroke:#A80036;stroke-width:1.5;" x1="232.5" x2="391.5" y1="106.6094" y2="106.6094"/><polygon fill="#FFFF44" points="242.5,112.6094,246.5,116.6094,242.5,120.6094,238.5,116.6094" style="stroke:#B38D22;stroke-width:1.0;"/><text fill="#000000" font-family="sans-serif" font-size="11" lengthAdjust="spacingAndGlyphs" textLength="74" x="251.5" y="120.8198">Mastermind()</text><polygon fill="#FFFF44" points="242.5,125.4141,246.5,129.4141,242.5,133.4141,238.5,129.4141" style="stroke:#B38D22;stroke-width:1.0;"/><text fill="#000000" font-family="sans-serif" font-size="11" font-style="italic" lengthAdjust="spacingAndGlyphs" textLength="135" x="251.5" y="133.6245">createView(Logic): View</text><polygon fill="#FFFF44" points="242.5,138.2188,246.5,142.2188,242.5,146.2188,238.5,142.2188" style="stroke:#B38D22;stroke-width:1.0;"/><text fill="#000000" font-family="sans-serif" font-size="11" lengthAdjust="spacingAndGlyphs" textLength="63" x="251.5" y="146.4292">play(): void</text><!--MD5=[e0821df1e1096f914498d32e8f816060]
class mastermind.GraphicsMastermind--><rect codeLine="8" fill="#FEFECE" filter="url(#f1buo74q2ezq4b)" height="86.4141" id="mastermind.GraphicsMastermind" style="stroke:#A80036;stroke-width:1.5;" width="163" x="230.5" y="213"/><ellipse cx="249.1" cy="229" fill="#ADD1B2" rx="11" ry="11" style="stroke:#A80036;stroke-width:1.0;"/><path d="M251.4438,224.6719 C250.5063,224.2344 249.9125,224.0938 249.0375,224.0938 C246.4125,224.0938 244.4125,226.1719 244.4125,228.8906 L244.4125,230.0156 C244.4125,232.5938 246.5219,234.4844 249.4125,234.4844 C250.6313,234.4844 251.7875,234.1875 252.5375,233.6406 C253.1156,233.2344 253.4438,232.7813 253.4438,232.3906 C253.4438,231.9375 253.0531,231.5469 252.5844,231.5469 C252.3656,231.5469 252.1625,231.625 251.975,231.8125 C251.5219,232.2969 251.5219,232.2969 251.3344,232.3906 C250.9125,232.6563 250.225,232.7813 249.4594,232.7813 C247.4125,232.7813 246.1156,231.6875 246.1156,229.9844 L246.1156,228.8906 C246.1156,227.1094 247.3656,225.7969 249.1,225.7969 C249.6781,225.7969 250.2875,225.9531 250.7563,226.2031 C251.2406,226.4844 251.4125,226.7031 251.5063,227.1094 C251.5688,227.5156 251.6,227.6406 251.7406,227.7656 C251.8813,227.9063 252.1156,228.0156 252.3344,228.0156 C252.6,228.0156 252.8656,227.875 253.0375,227.6563 C253.1469,227.5 253.1781,227.3125 253.1781,226.8906 L253.1781,225.4688 C253.1781,225.0313 253.1625,224.9063 253.0688,224.75 C252.9125,224.4844 252.6313,224.3438 252.3344,224.3438 C252.0375,224.3438 251.8344,224.4375 251.6156,224.75 L251.4438,224.6719 Z " fill="#000000"/><text fill="#000000" font-family="sans-serif" font-size="12" lengthAdjust="spacingAndGlyphs" textLength="123" x="263.9" y="233.1543">GraphicsMastermind</text><line style="stroke:#A80036;stroke-width:1.5;" x1="231.5" x2="392.5" y1="245" y2="245"/><line style="stroke:#A80036;stroke-width:1.5;" x1="231.5" x2="392.5" y1="253" y2="253"/><ellipse cx="241.5" cy="264" fill="#84BE84" rx="3" ry="3" style="stroke:#038048;stroke-width:1.0;"/><text fill="#000000" font-family="sans-serif" font-size="11" lengthAdjust="spacingAndGlyphs" textLength="123" x="250.5" y="267.2104">GraphicsMastermind()</text><ellipse cx="241.5" cy="276.8047" fill="#84BE84" rx="3" ry="3" style="stroke:#038048;stroke-width:1.0;"/><text fill="#000000" font-family="sans-serif" font-size="11" lengthAdjust="spacingAndGlyphs" text-decoration="underline" textLength="108" x="250.5" y="280.0151">main(String[]): void</text><polygon fill="#FFFF44" points="241.5,284.6094,245.5,288.6094,241.5,292.6094,237.5,288.6094" style="stroke:#B38D22;stroke-width:1.0;"/><text fill="#000000" font-family="sans-serif" font-size="11" lengthAdjust="spacingAndGlyphs" textLength="137" x="250.5" y="292.8198">createView(Logic): View</text><!--MD5=[23fa68f5dd51b02db50930b64c1246c4]
class mastermind.controllers.Logic--><rect fill="#FEFECE" filter="url(#f1buo74q2ezq4b)" height="48" id="mastermind.controllers.Logic" style="stroke:#A80036;stroke-width:1.5;" width="64" x="450" y="232"/><ellipse cx="465" cy="248" fill="#ADD1B2" rx="11" ry="11" style="stroke:#A80036;stroke-width:1.0;"/><path d="M467.3438,243.6719 C466.4063,243.2344 465.8125,243.0938 464.9375,243.0938 C462.3125,243.0938 460.3125,245.1719 460.3125,247.8906 L460.3125,249.0156 C460.3125,251.5938 462.4219,253.4844 465.3125,253.4844 C466.5313,253.4844 467.6875,253.1875 468.4375,252.6406 C469.0156,252.2344 469.3438,251.7813 469.3438,251.3906 C469.3438,250.9375 468.9531,250.5469 468.4844,250.5469 C468.2656,250.5469 468.0625,250.625 467.875,250.8125 C467.4219,251.2969 467.4219,251.2969 467.2344,251.3906 C466.8125,251.6563 466.125,251.7813 465.3594,251.7813 C463.3125,251.7813 462.0156,250.6875 462.0156,248.9844 L462.0156,247.8906 C462.0156,246.1094 463.2656,244.7969 465,244.7969 C465.5781,244.7969 466.1875,244.9531 466.6563,245.2031 C467.1406,245.4844 467.3125,245.7031 467.4063,246.1094 C467.4688,246.5156 467.5,246.6406 467.6406,246.7656 C467.7813,246.9063 468.0156,247.0156 468.2344,247.0156 C468.5,247.0156 468.7656,246.875 468.9375,246.6563 C469.0469,246.5 469.0781,246.3125 469.0781,245.8906 L469.0781,244.4688 C469.0781,244.0313 469.0625,243.9063 468.9688,243.75 C468.8125,243.4844 468.5313,243.3438 468.2344,243.3438 C467.9375,243.3438 467.7344,243.4375 467.5156,243.75 L467.3438,243.6719 Z " fill="#000000"/><text fill="#000000" font-family="sans-serif" font-size="12" lengthAdjust="spacingAndGlyphs" textLength="32" x="479" y="252.1543">Logic</text><line style="stroke:#A80036;stroke-width:1.5;" x1="451" x2="513" y1="264" y2="264"/><line style="stroke:#A80036;stroke-width:1.5;" x1="451" x2="513" y1="272" y2="272"/><!--MD5=[904c44326bfc30ddc4fe4077c1b9164d]
class mastermind.views.View--><rect fill="#FEFECE" filter="url(#f1buo74q2ezq4b)" height="48" id="mastermind.views.View" style="stroke:#A80036;stroke-width:1.5;" width="61" x="682.5" y="232"/><ellipse cx="697.5" cy="248" fill="#ADD1B2" rx="11" ry="11" style="stroke:#A80036;stroke-width:1.0;"/><path d="M699.8438,243.6719 C698.9063,243.2344 698.3125,243.0938 697.4375,243.0938 C694.8125,243.0938 692.8125,245.1719 692.8125,247.8906 L692.8125,249.0156 C692.8125,251.5938 694.9219,253.4844 697.8125,253.4844 C699.0313,253.4844 700.1875,253.1875 700.9375,252.6406 C701.5156,252.2344 701.8438,251.7813 701.8438,251.3906 C701.8438,250.9375 701.4531,250.5469 700.9844,250.5469 C700.7656,250.5469 700.5625,250.625 700.375,250.8125 C699.9219,251.2969 699.9219,251.2969 699.7344,251.3906 C699.3125,251.6563 698.625,251.7813 697.8594,251.7813 C695.8125,251.7813 694.5156,250.6875 694.5156,248.9844 L694.5156,247.8906 C694.5156,246.1094 695.7656,244.7969 697.5,244.7969 C698.0781,244.7969 698.6875,244.9531 699.1563,245.2031 C699.6406,245.4844 699.8125,245.7031 699.9063,246.1094 C699.9688,246.5156 700,246.6406 700.1406,246.7656 C700.2813,246.9063 700.5156,247.0156 700.7344,247.0156 C701,247.0156 701.2656,246.875 701.4375,246.6563 C701.5469,246.5 701.5781,246.3125 701.5781,245.8906 L701.5781,244.4688 C701.5781,244.0313 701.5625,243.9063 701.4688,243.75 C701.3125,243.4844 701.0313,243.3438 700.7344,243.3438 C700.4375,243.3438 700.2344,243.4375 700.0156,243.75 L699.8438,243.6719 Z " fill="#000000"/><text fill="#000000" font-family="sans-serif" font-size="12" lengthAdjust="spacingAndGlyphs" textLength="29" x="711.5" y="252.1543">View</text><line style="stroke:#A80036;stroke-width:1.5;" x1="683.5" x2="742.5" y1="264" y2="264"/><line style="stroke:#A80036;stroke-width:1.5;" x1="683.5" x2="742.5" y1="272" y2="272"/><!--MD5=[35c5f555007c474ca51d8184c5afaa67]
reverse link mastermind.Mastermind to mastermind.ConsoleMastermind--><path codeLine="6" d="M226.522,165.778 C206.349,181.774 185.413,198.375 167.149,212.857 " fill="none" id="mastermind.Mastermind-backto-mastermind.ConsoleMastermind" style="stroke:#A80036;stroke-width:1.0;"/><polygon fill="none" points="222.451,160.073,242.471,153.132,231.149,171.043,222.451,160.073" style="stroke:#A80036;stroke-width:1.0;"/><!--MD5=[b4eecf66822c7bb84f45514998337c06]
reverse link mastermind.Mastermind to mastermind.GraphicsMastermind--><path codeLine="13" d="M312,173.611 C312,187.156 312,200.815 312,212.974 " fill="none" id="mastermind.Mastermind-backto-mastermind.GraphicsMastermind" style="stroke:#A80036;stroke-width:1.0;"/><polygon fill="none" points="305,173.352,312,153.352,319,173.352,305,173.352" style="stroke:#A80036;stroke-width:1.0;"/><!--MD5=[f8f665bea3764aed7a8af8c932bae351]
link mastermind.Mastermind to mastermind.controllers.Logic--><path codeLine="22" d="M371.936,153.352 C399.588,178.89 431.126,208.017 453.333,228.526 " fill="none" id="mastermind.Mastermind-to-mastermind.controllers.Logic" style="stroke:#A80036;stroke-width:1.0;"/><polygon fill="#A80036" points="457.091,231.9961,453.1924,222.9517,453.4175,228.6041,447.7652,228.8293,457.091,231.9961" style="stroke:#A80036;stroke-width:1.0;"/><!--MD5=[23bff7e45a9767c7c92fa52d4f427052]
link mastermind.Mastermind to mastermind.views.View--><path codeLine="23" d="M392.666,129.582 C479.597,163.618 614.001,216.24 677.482,241.094 " fill="none" id="mastermind.Mastermind-to-mastermind.views.View" style="stroke:#A80036;stroke-width:1.0;"/><polygon fill="#A80036" points="682.297,242.9792,675.3747,235.9733,677.6411,241.1563,672.4581,243.4227,682.297,242.9792" style="stroke:#A80036;stroke-width:1.0;"/><!--MD5=[8e5145e0eff7f72f82d985bcfd40fc44]
@startuml
class  mastermind.ConsoleMastermind{
+ ConsoleMastermind()
+ {static} main(String[]): void
# createView(Logic): View
}
mastermind.Mastermind <|-down- mastermind.ConsoleMastermind

class  mastermind.GraphicsMastermind{
+ GraphicsMastermind()
+ {static} main(String[]): void
# createView(Logic): View
}
mastermind.Mastermind <|-down- mastermind.GraphicsMastermind

class  mastermind.Mastermind{
- logic: Logic
- view: View
# Mastermind()
# {abstract} createView(Logic): View
# play(): void
}
mastermind.Mastermind - -> mastermind.controllers.Logic
mastermind.Mastermind - -> mastermind.views.View
@enduml

PlantUML version 1.2020.21beta3(Unknown compile time)
(GPL source distribution)
Java Runtime: Java(TM) SE Runtime Environment
JVM: Java HotSpot(TM) 64-Bit Server VM
Default Encoding: UTF-8
Language: en
Country: US
--></g></svg>