<?xml version="1.0" encoding="UTF-8" standalone="no"?><svg xmlns="http://www.w3.org/2000/svg" xmlns:xlink="http://www.w3.org/1999/xlink" contentScriptType="application/ecmascript" contentStyleType="text/css" height="310px" preserveAspectRatio="none" style="width:999px;height:310px;" version="1.1" viewBox="0 0 999 310" width="999px" zoomAndPan="magnify"><defs><filter height="300%" id="f1wqo0jq590npg" width="300%" x="-1" y="-1"><feGaussianBlur result="blurOut" stdDeviation="2.0"/><feColorMatrix in="blurOut" result="blurOut2" type="matrix" values="0 0 0 0 0 0 0 0 0 0 0 0 0 0 0 0 0 0 .4 0"/><feOffset dx="4.0" dy="4.0" in="blurOut2" result="blurOut3"/><feBlend in="SourceGraphic" in2="blurOut3" mode="normal"/></filter></defs><g><!--MD5=[9be0839337cfdab5d118a2e29cf0a8c4]
cluster usantatecla.mastermind--><polygon fill="#FFFFFF" filter="url(#f1wqo0jq590npg)" points="16,6,223,6,230,28.2969,410,28.2969,410,303,16,303,16,6" style="stroke:#000000;stroke-width:1.5;"/><line style="stroke:#000000;stroke-width:1.5;" x1="16" x2="230" y1="28.2969" y2="28.2969"/><text fill="#000000" font-family="sans-serif" font-size="14" font-weight="bold" lengthAdjust="spacingAndGlyphs" textLength="201" x="20" y="20.9951">usantatecla.mastermind</text><!--MD5=[315b8ca9da34f9ebf61c511bec4164b0]
class usantatecla.mastermind.ConsoleMastermind--><rect codeLine="1" fill="#FEFECE" filter="url(#f1wqo0jq590npg)" height="73.6094" id="usantatecla.mastermind.ConsoleMastermind" style="stroke:#A80036;stroke-width:1.5;" width="163" x="32.5" y="213"/><ellipse cx="52.9" cy="229" fill="#ADD1B2" rx="11" ry="11" style="stroke:#A80036;stroke-width:1.0;"/><path d="M55.2438,224.6719 C54.3063,224.2344 53.7125,224.0938 52.8375,224.0938 C50.2125,224.0938 48.2125,226.1719 48.2125,228.8906 L48.2125,230.0156 C48.2125,232.5938 50.3219,234.4844 53.2125,234.4844 C54.4313,234.4844 55.5875,234.1875 56.3375,233.6406 C56.9156,233.2344 57.2438,232.7813 57.2438,232.3906 C57.2438,231.9375 56.8531,231.5469 56.3844,231.5469 C56.1656,231.5469 55.9625,231.625 55.775,231.8125 C55.3219,232.2969 55.3219,232.2969 55.1344,232.3906 C54.7125,232.6563 54.025,232.7813 53.2594,232.7813 C51.2125,232.7813 49.9156,231.6875 49.9156,229.9844 L49.9156,228.8906 C49.9156,227.1094 51.1656,225.7969 52.9,225.7969 C53.4781,225.7969 54.0875,225.9531 54.5563,226.2031 C55.0406,226.4844 55.2125,226.7031 55.3063,227.1094 C55.3688,227.5156 55.4,227.6406 55.5406,227.7656 C55.6813,227.9063 55.9156,228.0156 56.1344,228.0156 C56.4,228.0156 56.6656,227.875 56.8375,227.6563 C56.9469,227.5 56.9781,227.3125 56.9781,226.8906 L56.9781,225.4688 C56.9781,225.0313 56.9625,224.9063 56.8688,224.75 C56.7125,224.4844 56.4313,224.3438 56.1344,224.3438 C55.8375,224.3438 55.6344,224.4375 55.4156,224.75 L55.2438,224.6719 Z " fill="#000000"/><text fill="#000000" font-family="sans-serif" font-size="12" lengthAdjust="spacingAndGlyphs" textLength="119" x="68.1" y="233.1543">ConsoleMastermind</text><line style="stroke:#A80036;stroke-width:1.5;" x1="33.5" x2="194.5" y1="245" y2="245"/><line style="stroke:#A80036;stroke-width:1.5;" x1="33.5" x2="194.5" y1="253" y2="253"/><ellipse cx="43.5" cy="264" fill="#84BE84" rx="3" ry="3" style="stroke:#038048;stroke-width:1.0;"/><text fill="#000000" font-family="sans-serif" font-size="11" lengthAdjust="spacingAndGlyphs" text-decoration="underline" textLength="77" x="52.5" y="267.2104">main(String[])</text><polygon fill="#FFFF44" points="43.5,271.8047,47.5,275.8047,43.5,279.8047,39.5,275.8047" style="stroke:#B38D22;stroke-width:1.0;"/><text fill="#000000" font-family="sans-serif" font-size="11" lengthAdjust="spacingAndGlyphs" textLength="137" x="52.5" y="280.0151">createView(Logic): View</text><!--MD5=[904099970a9cea29a476bd38c8d887ee]
class usantatecla.mastermind.Mastermind--><rect codeLine="13" fill="#FEFECE" filter="url(#f1wqo0jq590npg)" height="112.0234" id="usantatecla.mastermind.Mastermind" style="stroke:#A80036;stroke-width:1.5;" width="161" x="231.5" y="41"/><ellipse cx="273.05" cy="57" fill="#ADD1B2" rx="11" ry="11" style="stroke:#A80036;stroke-width:1.0;"/><path d="M275.3938,52.6719 C274.4563,52.2344 273.8625,52.0938 272.9875,52.0938 C270.3625,52.0938 268.3625,54.1719 268.3625,56.8906 L268.3625,58.0156 C268.3625,60.5938 270.4719,62.4844 273.3625,62.4844 C274.5813,62.4844 275.7375,62.1875 276.4875,61.6406 C277.0656,61.2344 277.3938,60.7813 277.3938,60.3906 C277.3938,59.9375 277.0031,59.5469 276.5344,59.5469 C276.3156,59.5469 276.1125,59.625 275.925,59.8125 C275.4719,60.2969 275.4719,60.2969 275.2844,60.3906 C274.8625,60.6563 274.175,60.7813 273.4094,60.7813 C271.3625,60.7813 270.0656,59.6875 270.0656,57.9844 L270.0656,56.8906 C270.0656,55.1094 271.3156,53.7969 273.05,53.7969 C273.6281,53.7969 274.2375,53.9531 274.7063,54.2031 C275.1906,54.4844 275.3625,54.7031 275.4563,55.1094 C275.5188,55.5156 275.55,55.6406 275.6906,55.7656 C275.8313,55.9063 276.0656,56.0156 276.2844,56.0156 C276.55,56.0156 276.8156,55.875 276.9875,55.6563 C277.0969,55.5 277.1281,55.3125 277.1281,54.8906 L277.1281,53.4688 C277.1281,53.0313 277.1125,52.9063 277.0188,52.75 C276.8625,52.4844 276.5813,52.3438 276.2844,52.3438 C275.9875,52.3438 275.7844,52.4375 275.5656,52.75 L275.3938,52.6719 Z " fill="#000000"/><text fill="#000000" font-family="sans-serif" font-size="12" lengthAdjust="spacingAndGlyphs" textLength="70" x="292.95" y="61.1543">Mastermind</text><line style="stroke:#A80036;stroke-width:1.5;" x1="232.5" x2="391.5" y1="73" y2="73"/><rect fill="none" height="6" style="stroke:#C82930;stroke-width:1.0;" width="6" x="239.5" y="81"/><text fill="#000000" font-family="sans-serif" font-size="11" lengthAdjust="spacingAndGlyphs" textLength="62" x="251.5" y="87.2104">logic: Logic</text><rect fill="none" height="6" style="stroke:#C82930;stroke-width:1.0;" width="6" x="239.5" y="93.8047"/><text fill="#000000" font-family="sans-serif" font-size="11" lengthAdjust="spacingAndGlyphs" textLength="62" x="251.5" y="100.0151">view: View</text><line style="stroke:#A80036;stroke-width:1.5;" x1="232.5" x2="391.5" y1="106.6094" y2="106.6094"/><polygon fill="#FFFF44" points="242.5,112.6094,246.5,116.6094,242.5,120.6094,238.5,116.6094" style="stroke:#B38D22;stroke-width:1.0;"/><text fill="#000000" font-family="sans-serif" font-size="11" lengthAdjust="spacingAndGlyphs" textLength="74" x="251.5" y="120.8198">Mastermind()</text><polygon fill="#FFFF44" points="242.5,125.4141,246.5,129.4141,242.5,133.4141,238.5,129.4141" style="stroke:#B38D22;stroke-width:1.0;"/><text fill="#000000" font-family="sans-serif" font-size="11" font-style="italic" lengthAdjust="spacingAndGlyphs" textLength="135" x="251.5" y="133.6245">createView(Logic): View</text><polygon fill="#FFFF44" points="242.5,138.2188,246.5,142.2188,242.5,146.2188,238.5,142.2188" style="stroke:#B38D22;stroke-width:1.0;"/><text fill="#000000" font-family="sans-serif" font-size="11" lengthAdjust="spacingAndGlyphs" textLength="32" x="251.5" y="146.4292">play()</text><!--MD5=[e3ccb0142e457ddb33bd230b9167ec6f]
class usantatecla.mastermind.GraphicsMastermind--><rect codeLine="7" fill="#FEFECE" filter="url(#f1wqo0jq590npg)" height="73.6094" id="usantatecla.mastermind.GraphicsMastermind" style="stroke:#A80036;stroke-width:1.5;" width="163" x="230.5" y="213"/><ellipse cx="249.1" cy="229" fill="#ADD1B2" rx="11" ry="11" style="stroke:#A80036;stroke-width:1.0;"/><path d="M251.4438,224.6719 C250.5063,224.2344 249.9125,224.0938 249.0375,224.0938 C246.4125,224.0938 244.4125,226.1719 244.4125,228.8906 L244.4125,230.0156 C244.4125,232.5938 246.5219,234.4844 249.4125,234.4844 C250.6313,234.4844 251.7875,234.1875 252.5375,233.6406 C253.1156,233.2344 253.4438,232.7813 253.4438,232.3906 C253.4438,231.9375 253.0531,231.5469 252.5844,231.5469 C252.3656,231.5469 252.1625,231.625 251.975,231.8125 C251.5219,232.2969 251.5219,232.2969 251.3344,232.3906 C250.9125,232.6563 250.225,232.7813 249.4594,232.7813 C247.4125,232.7813 246.1156,231.6875 246.1156,229.9844 L246.1156,228.8906 C246.1156,227.1094 247.3656,225.7969 249.1,225.7969 C249.6781,225.7969 250.2875,225.9531 250.7563,226.2031 C251.2406,226.4844 251.4125,226.7031 251.5063,227.1094 C251.5688,227.5156 251.6,227.6406 251.7406,227.7656 C251.8813,227.9063 252.1156,228.0156 252.3344,228.0156 C252.6,228.0156 252.8656,227.875 253.0375,227.6563 C253.1469,227.5 253.1781,227.3125 253.1781,226.8906 L253.1781,225.4688 C253.1781,225.0313 253.1625,224.9063 253.0688,224.75 C252.9125,224.4844 252.6313,224.3438 252.3344,224.3438 C252.0375,224.3438 251.8344,224.4375 251.6156,224.75 L251.4438,224.6719 Z " fill="#000000"/><text fill="#000000" font-family="sans-serif" font-size="12" lengthAdjust="spacingAndGlyphs" textLength="123" x="263.9" y="233.1543">GraphicsMastermind</text><line style="stroke:#A80036;stroke-width:1.5;" x1="231.5" x2="392.5" y1="245" y2="245"/><line style="stroke:#A80036;stroke-width:1.5;" x1="231.5" x2="392.5" y1="253" y2="253"/><ellipse cx="241.5" cy="264" fill="#84BE84" rx="3" ry="3" style="stroke:#038048;stroke-width:1.0;"/><text fill="#000000" font-family="sans-serif" font-size="11" lengthAdjust="spacingAndGlyphs" text-decoration="underline" textLength="77" x="250.5" y="267.2104">main(String[])</text><polygon fill="#FFFF44" points="241.5,271.8047,245.5,275.8047,241.5,279.8047,237.5,275.8047" style="stroke:#B38D22;stroke-width:1.0;"/><text fill="#000000" font-family="sans-serif" font-size="11" lengthAdjust="spacingAndGlyphs" textLength="137" x="250.5" y="280.0151">createView(Logic): View</text><!--MD5=[42fa18dda7351a0ae87d9497de925436]
class Logic--><rect codeLine="20" fill="#FEFECE" filter="url(#f1wqo0jq590npg)" height="48" id="Logic" style="stroke:#A80036;stroke-width:1.5;" width="277" x="428.5" y="226"/><ellipse cx="443.5" cy="242" fill="#ADD1B2" rx="11" ry="11" style="stroke:#A80036;stroke-width:1.0;"/><path d="M445.8438,237.6719 C444.9063,237.2344 444.3125,237.0938 443.4375,237.0938 C440.8125,237.0938 438.8125,239.1719 438.8125,241.8906 L438.8125,243.0156 C438.8125,245.5938 440.9219,247.4844 443.8125,247.4844 C445.0313,247.4844 446.1875,247.1875 446.9375,246.6406 C447.5156,246.2344 447.8438,245.7813 447.8438,245.3906 C447.8438,244.9375 447.4531,244.5469 446.9844,244.5469 C446.7656,244.5469 446.5625,244.625 446.375,244.8125 C445.9219,245.2969 445.9219,245.2969 445.7344,245.3906 C445.3125,245.6563 444.625,245.7813 443.8594,245.7813 C441.8125,245.7813 440.5156,244.6875 440.5156,242.9844 L440.5156,241.8906 C440.5156,240.1094 441.7656,238.7969 443.5,238.7969 C444.0781,238.7969 444.6875,238.9531 445.1563,239.2031 C445.6406,239.4844 445.8125,239.7031 445.9063,240.1094 C445.9688,240.5156 446,240.6406 446.1406,240.7656 C446.2813,240.9063 446.5156,241.0156 446.7344,241.0156 C447,241.0156 447.2656,240.875 447.4375,240.6563 C447.5469,240.5 447.5781,240.3125 447.5781,239.8906 L447.5781,238.4688 C447.5781,238.0313 447.5625,237.9063 447.4688,237.75 C447.3125,237.4844 447.0313,237.3438 446.7344,237.3438 C446.4375,237.3438 446.2344,237.4375 446.0156,237.75 L445.8438,237.6719 Z " fill="#000000"/><text fill="#000000" font-family="sans-serif" font-size="12" lengthAdjust="spacingAndGlyphs" textLength="245" x="457.5" y="246.1543">usantatecla.mastermind.controllers.Logic</text><line style="stroke:#A80036;stroke-width:1.5;" x1="429.5" x2="704.5" y1="258" y2="258"/><line style="stroke:#A80036;stroke-width:1.5;" x1="429.5" x2="704.5" y1="266" y2="266"/><!--MD5=[c045e12321b83266d36d22b9096c24ea]
class View--><rect codeLine="24" fill="#FEFECE" filter="url(#f1wqo0jq590npg)" height="48" id="View" style="stroke:#A80036;stroke-width:1.5;" width="244" x="741" y="226"/><ellipse cx="756" cy="242" fill="#ADD1B2" rx="11" ry="11" style="stroke:#A80036;stroke-width:1.0;"/><path d="M758.3438,237.6719 C757.4063,237.2344 756.8125,237.0938 755.9375,237.0938 C753.3125,237.0938 751.3125,239.1719 751.3125,241.8906 L751.3125,243.0156 C751.3125,245.5938 753.4219,247.4844 756.3125,247.4844 C757.5313,247.4844 758.6875,247.1875 759.4375,246.6406 C760.0156,246.2344 760.3438,245.7813 760.3438,245.3906 C760.3438,244.9375 759.9531,244.5469 759.4844,244.5469 C759.2656,244.5469 759.0625,244.625 758.875,244.8125 C758.4219,245.2969 758.4219,245.2969 758.2344,245.3906 C757.8125,245.6563 757.125,245.7813 756.3594,245.7813 C754.3125,245.7813 753.0156,244.6875 753.0156,242.9844 L753.0156,241.8906 C753.0156,240.1094 754.2656,238.7969 756,238.7969 C756.5781,238.7969 757.1875,238.9531 757.6563,239.2031 C758.1406,239.4844 758.3125,239.7031 758.4063,240.1094 C758.4688,240.5156 758.5,240.6406 758.6406,240.7656 C758.7813,240.9063 759.0156,241.0156 759.2344,241.0156 C759.5,241.0156 759.7656,240.875 759.9375,240.6563 C760.0469,240.5 760.0781,240.3125 760.0781,239.8906 L760.0781,238.4688 C760.0781,238.0313 760.0625,237.9063 759.9688,237.75 C759.8125,237.4844 759.5313,237.3438 759.2344,237.3438 C758.9375,237.3438 758.7344,237.4375 758.5156,237.75 L758.3438,237.6719 Z " fill="#000000"/><text fill="#000000" font-family="sans-serif" font-size="12" lengthAdjust="spacingAndGlyphs" textLength="212" x="770" y="246.1543">usantatecla.mastermind.views.View</text><line style="stroke:#A80036;stroke-width:1.5;" x1="742" x2="984" y1="258" y2="258"/><line style="stroke:#A80036;stroke-width:1.5;" x1="742" x2="984" y1="266" y2="266"/><!--MD5=[f77977e4d8b9d032efd72e44c024e507]
reverse link usantatecla.mastermind.Mastermind to usantatecla.mastermind.ConsoleMastermind--><path codeLine="5" d="M223.527,165.472 C202.151,181.774 180.112,198.581 161.459,212.806 " fill="none" id="usantatecla.mastermind.Mastermind-backto-usantatecla.mastermind.ConsoleMastermind" style="stroke:#A80036;stroke-width:1.0;"/><polygon fill="none" points="219.529,159.718,239.677,153.155,228.019,170.85,219.529,159.718" style="stroke:#A80036;stroke-width:1.0;"/><!--MD5=[75be7b6274e25c7c9339f824ef8f543e]
reverse link usantatecla.mastermind.Mastermind to usantatecla.mastermind.GraphicsMastermind--><path codeLine="11" d="M312,173.838 C312,187.469 312,201.085 312,212.91 " fill="none" id="usantatecla.mastermind.Mastermind-backto-usantatecla.mastermind.GraphicsMastermind" style="stroke:#A80036;stroke-width:1.0;"/><polygon fill="none" points="305,173.369,312,153.369,319,173.369,305,173.369" style="stroke:#A80036;stroke-width:1.0;"/><!--MD5=[247e47791acc2ed78b9d73006ffb100f]
link usantatecla.mastermind.Mastermind to Logic--><path codeLine="28" d="M392.684,145.777 C435.973,171.411 487.623,201.997 523.41,223.188 " fill="none" id="usantatecla.mastermind.Mastermind-to-Logic" style="stroke:#A80036;stroke-width:1.0;"/><polygon fill="#A80036" points="528.132,225.9842,522.4272,217.9558,523.8301,223.4359,518.35,224.8389,528.132,225.9842" style="stroke:#A80036;stroke-width:1.0;"/><!--MD5=[a5f8ce13268a0ab6e1eb93d1cfb2a7ef]
link usantatecla.mastermind.Mastermind to View--><path codeLine="29" d="M392.71,120.118 C494.372,147.979 668.486,195.694 773.94,224.5934 " fill="none" id="usantatecla.mastermind.Mastermind-to-View" style="stroke:#A80036;stroke-width:1.0;"/><polygon fill="#A80036" points="778.909,225.9552,771.2879,219.7167,774.0871,224.6324,769.1714,227.4317,778.909,225.9552" style="stroke:#A80036;stroke-width:1.0;"/><!--MD5=[517f5ff493c9d718b0d9626752337b45]
@startuml
class  usantatecla.mastermind.ConsoleMastermind{
+ {static} main(String[])
# createView(Logic): View
}
usantatecla.mastermind.Mastermind <|-down- usantatecla.mastermind.ConsoleMastermind

class  usantatecla.mastermind.GraphicsMastermind{
+ {static} main(String[])
# createView(Logic): View
}
usantatecla.mastermind.Mastermind <|-down- usantatecla.mastermind.GraphicsMastermind

class  usantatecla.mastermind.Mastermind{
- logic: Logic
- view: View
# Mastermind()
# {abstract} createView(Logic): View
# play()
}
class Logic as "usantatecla.mastermind.controllers.Logic" {


}
class View as "usantatecla.mastermind.views.View" {


}
usantatecla.mastermind.Mastermind - -> Logic
usantatecla.mastermind.Mastermind - -> View
@enduml

PlantUML version 1.2020.21beta7(Unknown compile time)
(GPL source distribution)
Java Runtime: Java(TM) SE Runtime Environment
JVM: Java HotSpot(TM) 64-Bit Server VM
Default Encoding: UTF-8
Language: en
Country: US
--></g></svg>