<?xml version="1.0" encoding="UTF-8" standalone="no"?><svg xmlns="http://www.w3.org/2000/svg" xmlns:xlink="http://www.w3.org/1999/xlink" contentScriptType="application/ecmascript" contentStyleType="text/css" height="501px" preserveAspectRatio="none" style="width:1011px;height:501px;" version="1.1" viewBox="0 0 1011 501" width="1011px" zoomAndPan="magnify"><defs><filter height="300%" id="fss3knkezbec0" width="300%" x="-1" y="-1"><feGaussianBlur result="blurOut" stdDeviation="2.0"/><feColorMatrix in="blurOut" result="blurOut2" type="matrix" values="0 0 0 0 0 0 0 0 0 0 0 0 0 0 0 0 0 0 .4 0"/><feOffset dx="4.0" dy="4.0" in="blurOut2" result="blurOut3"/><feBlend in="SourceGraphic" in2="blurOut3" mode="normal"/></filter></defs><g><!--MD5=[45607799a901819e6cc4b6d8cd00ce6c]
cluster usantatecla.mastermind.controllers--><polygon fill="#FFFFFF" filter="url(#fss3knkezbec0)" points="16,6,317,6,324,28.2969,718,28.2969,718,494,16,494,16,6" style="stroke:#000000;stroke-width:1.5;"/><line style="stroke:#000000;stroke-width:1.5;" x1="16" x2="324" y1="28.2969" y2="28.2969"/><text fill="#000000" font-family="sans-serif" font-size="14" font-weight="bold" lengthAdjust="spacingAndGlyphs" textLength="295" x="20" y="20.9951">usantatecla.mastermind.controllers</text><!--MD5=[e0d21a3c8ca66756a771586930837509]
class usantatecla.mastermind.controllers.Controller--><rect codeLine="6" fill="#FEFECE" filter="url(#fss3knkezbec0)" height="86.4141" id="usantatecla.mastermind.controllers.Controller" style="stroke:#A80036;stroke-width:1.5;" width="124" x="548" y="111.5"/><ellipse cx="578.3" cy="127.5" fill="#A9DCDF" rx="11" ry="11" style="stroke:#A80036;stroke-width:1.0;"/><path d="M580.3781,129.3125 L580.7688,130.2969 L580.3781,130.2969 C579.925,130.2969 579.8156,130.3125 579.6594,130.4219 C579.4094,130.5781 579.2531,130.8594 579.2531,131.1563 C579.2531,131.4219 579.3938,131.6719 579.6125,131.8281 C579.7531,131.9531 579.9563,132 580.3781,132 L582.7375,132 C583.0969,132 583.3156,131.9688 583.4563,131.875 C583.7063,131.7344 583.8625,131.4375 583.8625,131.1563 C583.8625,130.875 583.7219,130.625 583.5031,130.4688 C583.3313,130.3281 583.175,130.2969 582.7063,130.2969 L579.3156,122.0938 L575.6438,122.0938 C575.1906,122.0938 575.0656,122.1094 574.9094,122.2031 C574.6594,122.375 574.5031,122.6563 574.5031,122.9375 C574.5031,123.2188 574.6438,123.4688 574.8625,123.6406 C575.0344,123.75 575.2063,123.7813 575.6438,123.7813 L576.7219,123.7813 L574.0813,130.2969 C573.6594,130.2969 573.5031,130.3125 573.3469,130.4219 C573.0969,130.5781 572.9406,130.8594 572.9406,131.1563 C572.9406,131.7188 573.3156,132 574.0656,132 L576.3313,132 C576.6906,132 576.9094,131.9688 577.0344,131.875 C577.3,131.7344 577.4406,131.4375 577.4406,131.1563 C577.4406,130.875 577.3156,130.625 577.0969,130.4531 C576.925,130.3281 576.7844,130.2969 576.3313,130.2969 L575.9406,130.2969 L576.3313,129.3125 L580.3781,129.3125 Z M579.675,127.6094 L577.0031,127.6094 L578.3469,124.3438 L579.675,127.6094 Z " fill="#000000"/><text fill="#000000" font-family="sans-serif" font-size="12" font-style="italic" lengthAdjust="spacingAndGlyphs" textLength="58" x="595.7" y="131.6543">Controller</text><line style="stroke:#A80036;stroke-width:1.5;" x1="549" x2="671" y1="143.5" y2="143.5"/><polygon fill="none" points="559,149.5,563,153.5,559,157.5,555,153.5" style="stroke:#B38D22;stroke-width:1.0;"/><text fill="#000000" font-family="sans-serif" font-size="11" lengthAdjust="spacingAndGlyphs" textLength="75" x="568" y="157.7104">game: Game</text><line style="stroke:#A80036;stroke-width:1.5;" x1="549" x2="671" y1="164.3047" y2="164.3047"/><polygon fill="#4177AF" points="559,171.3047,555,177.3047,563,177.3047" style="stroke:#1963A0;stroke-width:1.0;"/><text fill="#000000" font-family="sans-serif" font-size="11" lengthAdjust="spacingAndGlyphs" textLength="98" x="568" y="178.5151">Controller(Game)</text><ellipse cx="559" cy="188.1094" fill="#84BE84" rx="3" ry="3" style="stroke:#038048;stroke-width:1.0;"/><text fill="#000000" font-family="sans-serif" font-size="11" lengthAdjust="spacingAndGlyphs" textLength="80" x="568" y="191.3198">getWidth(): int</text><!--MD5=[94a6d75594c4867cc1b5bdf8bdcd38a2]
class usantatecla.mastermind.controllers.Logic--><rect codeLine="13" fill="#FEFECE" filter="url(#fss3knkezbec0)" height="227.2656" id="usantatecla.mastermind.controllers.Logic" style="stroke:#A80036;stroke-width:1.5;" width="277" x="224.5" y="41"/><ellipse cx="342.75" cy="57" fill="#ADD1B2" rx="11" ry="11" style="stroke:#A80036;stroke-width:1.0;"/><path d="M345.0938,52.6719 C344.1563,52.2344 343.5625,52.0938 342.6875,52.0938 C340.0625,52.0938 338.0625,54.1719 338.0625,56.8906 L338.0625,58.0156 C338.0625,60.5938 340.1719,62.4844 343.0625,62.4844 C344.2813,62.4844 345.4375,62.1875 346.1875,61.6406 C346.7656,61.2344 347.0938,60.7813 347.0938,60.3906 C347.0938,59.9375 346.7031,59.5469 346.2344,59.5469 C346.0156,59.5469 345.8125,59.625 345.625,59.8125 C345.1719,60.2969 345.1719,60.2969 344.9844,60.3906 C344.5625,60.6563 343.875,60.7813 343.1094,60.7813 C341.0625,60.7813 339.7656,59.6875 339.7656,57.9844 L339.7656,56.8906 C339.7656,55.1094 341.0156,53.7969 342.75,53.7969 C343.3281,53.7969 343.9375,53.9531 344.4063,54.2031 C344.8906,54.4844 345.0625,54.7031 345.1563,55.1094 C345.2188,55.5156 345.25,55.6406 345.3906,55.7656 C345.5313,55.9063 345.7656,56.0156 345.9844,56.0156 C346.25,56.0156 346.5156,55.875 346.6875,55.6563 C346.7969,55.5 346.8281,55.3125 346.8281,54.8906 L346.8281,53.4688 C346.8281,53.0313 346.8125,52.9063 346.7188,52.75 C346.5625,52.4844 346.2813,52.3438 345.9844,52.3438 C345.6875,52.3438 345.4844,52.4375 345.2656,52.75 L345.0938,52.6719 Z " fill="#000000"/><text fill="#000000" font-family="sans-serif" font-size="12" lengthAdjust="spacingAndGlyphs" textLength="32" x="363.25" y="61.1543">Logic</text><line style="stroke:#A80036;stroke-width:1.5;" x1="225.5" x2="500.5" y1="73" y2="73"/><rect fill="none" height="6" style="stroke:#C82930;stroke-width:1.0;" width="6" x="232.5" y="81"/><text fill="#000000" font-family="sans-serif" font-size="11" lengthAdjust="spacingAndGlyphs" textLength="75" x="244.5" y="87.2104">game: Game</text><rect fill="none" height="6" style="stroke:#C82930;stroke-width:1.0;" width="6" x="232.5" y="93.8047"/><text fill="#000000" font-family="sans-serif" font-size="11" lengthAdjust="spacingAndGlyphs" textLength="169" x="244.5" y="100.0151">startController: StartController</text><rect fill="none" height="6" style="stroke:#C82930;stroke-width:1.0;" width="6" x="232.5" y="106.6094"/><text fill="#000000" font-family="sans-serif" font-size="11" lengthAdjust="spacingAndGlyphs" textLength="212" x="244.5" y="112.8198">proposalController: ProposalController</text><rect fill="none" height="6" style="stroke:#C82930;stroke-width:1.0;" width="6" x="232.5" y="119.4141"/><text fill="#000000" font-family="sans-serif" font-size="11" lengthAdjust="spacingAndGlyphs" textLength="208" x="244.5" y="125.6245">resumeController: ResumeController</text><line style="stroke:#A80036;stroke-width:1.5;" x1="225.5" x2="500.5" y1="132.2188" y2="132.2188"/><ellipse cx="235.5" cy="143.2188" fill="#84BE84" rx="3" ry="3" style="stroke:#038048;stroke-width:1.0;"/><text fill="#000000" font-family="sans-serif" font-size="11" lengthAdjust="spacingAndGlyphs" textLength="37" x="244.5" y="146.4292">Logic()</text><ellipse cx="235.5" cy="156.0234" fill="#84BE84" rx="3" ry="3" style="stroke:#038048;stroke-width:1.0;"/><text fill="#000000" font-family="sans-serif" font-size="11" lengthAdjust="spacingAndGlyphs" textLength="71" x="244.5" y="159.2339">clearGame()</text><ellipse cx="235.5" cy="168.8281" fill="#84BE84" rx="3" ry="3" style="stroke:#038048;stroke-width:1.0;"/><text fill="#000000" font-family="sans-serif" font-size="11" lengthAdjust="spacingAndGlyphs" textLength="251" x="244.5" y="172.0386">addProposedCombination(List&lt;Color&gt;): Error</text><ellipse cx="235.5" cy="181.6328" fill="#84BE84" rx="3" ry="3" style="stroke:#038048;stroke-width:1.0;"/><text fill="#000000" font-family="sans-serif" font-size="11" lengthAdjust="spacingAndGlyphs" textLength="110" x="244.5" y="184.8433">isWinner(): boolean</text><ellipse cx="235.5" cy="194.4375" fill="#84BE84" rx="3" ry="3" style="stroke:#038048;stroke-width:1.0;"/><text fill="#000000" font-family="sans-serif" font-size="11" lengthAdjust="spacingAndGlyphs" textLength="108" x="244.5" y="197.6479">isLooser(): boolean</text><ellipse cx="235.5" cy="207.2422" fill="#84BE84" rx="3" ry="3" style="stroke:#038048;stroke-width:1.0;"/><text fill="#000000" font-family="sans-serif" font-size="11" lengthAdjust="spacingAndGlyphs" textLength="100" x="244.5" y="210.4526">getAttempts(): int</text><ellipse cx="235.5" cy="220.0469" fill="#84BE84" rx="3" ry="3" style="stroke:#038048;stroke-width:1.0;"/><text fill="#000000" font-family="sans-serif" font-size="11" lengthAdjust="spacingAndGlyphs" textLength="149" x="244.5" y="223.2573">getColors(int): List&lt;Color&gt;</text><ellipse cx="235.5" cy="232.8516" fill="#84BE84" rx="3" ry="3" style="stroke:#038048;stroke-width:1.0;"/><text fill="#000000" font-family="sans-serif" font-size="11" lengthAdjust="spacingAndGlyphs" textLength="98" x="244.5" y="236.062">getBlacks(int): int</text><ellipse cx="235.5" cy="245.6563" fill="#84BE84" rx="3" ry="3" style="stroke:#038048;stroke-width:1.0;"/><text fill="#000000" font-family="sans-serif" font-size="11" lengthAdjust="spacingAndGlyphs" textLength="101" x="244.5" y="248.8667">getWhites(int): int</text><ellipse cx="235.5" cy="258.4609" fill="#84BE84" rx="3" ry="3" style="stroke:#038048;stroke-width:1.0;"/><text fill="#000000" font-family="sans-serif" font-size="11" lengthAdjust="spacingAndGlyphs" textLength="80" x="244.5" y="261.6714">getWidth(): int</text><!--MD5=[ba414607f34a8f1ff5e5377db4b3dfd8]
class usantatecla.mastermind.controllers.ResumeController--><rect codeLine="46" fill="#FEFECE" filter="url(#fss3knkezbec0)" height="73.6094" id="usantatecla.mastermind.controllers.ResumeController" style="stroke:#A80036;stroke-width:1.5;" width="171" x="530.5" y="366"/><ellipse cx="559.9" cy="382" fill="#ADD1B2" rx="11" ry="11" style="stroke:#A80036;stroke-width:1.0;"/><path d="M562.2438,377.6719 C561.3063,377.2344 560.7125,377.0938 559.8375,377.0938 C557.2125,377.0938 555.2125,379.1719 555.2125,381.8906 L555.2125,383.0156 C555.2125,385.5938 557.3219,387.4844 560.2125,387.4844 C561.4313,387.4844 562.5875,387.1875 563.3375,386.6406 C563.9156,386.2344 564.2438,385.7813 564.2438,385.3906 C564.2438,384.9375 563.8531,384.5469 563.3844,384.5469 C563.1656,384.5469 562.9625,384.625 562.775,384.8125 C562.3219,385.2969 562.3219,385.2969 562.1344,385.3906 C561.7125,385.6563 561.025,385.7813 560.2594,385.7813 C558.2125,385.7813 556.9156,384.6875 556.9156,382.9844 L556.9156,381.8906 C556.9156,380.1094 558.1656,378.7969 559.9,378.7969 C560.4781,378.7969 561.0875,378.9531 561.5563,379.2031 C562.0406,379.4844 562.2125,379.7031 562.3063,380.1094 C562.3688,380.5156 562.4,380.6406 562.5406,380.7656 C562.6813,380.9063 562.9156,381.0156 563.1344,381.0156 C563.4,381.0156 563.6656,380.875 563.8375,380.6563 C563.9469,380.5 563.9781,380.3125 563.9781,379.8906 L563.9781,378.4688 C563.9781,378.0313 563.9625,377.9063 563.8688,377.75 C563.7125,377.4844 563.4313,377.3438 563.1344,377.3438 C562.8375,377.3438 562.6344,377.4375 562.4156,377.75 L562.2438,377.6719 Z " fill="#000000"/><text fill="#000000" font-family="sans-serif" font-size="12" lengthAdjust="spacingAndGlyphs" textLength="107" x="577.1" y="386.1543">ResumeController</text><line style="stroke:#A80036;stroke-width:1.5;" x1="531.5" x2="700.5" y1="398" y2="398"/><line style="stroke:#A80036;stroke-width:1.5;" x1="531.5" x2="700.5" y1="406" y2="406"/><ellipse cx="541.5" cy="417" fill="#84BE84" rx="3" ry="3" style="stroke:#038048;stroke-width:1.0;"/><text fill="#000000" font-family="sans-serif" font-size="11" lengthAdjust="spacingAndGlyphs" textLength="145" x="550.5" y="420.2104">ResumeController(Game)</text><ellipse cx="541.5" cy="429.8047" fill="#84BE84" rx="3" ry="3" style="stroke:#038048;stroke-width:1.0;"/><text fill="#000000" font-family="sans-serif" font-size="11" lengthAdjust="spacingAndGlyphs" textLength="71" x="550.5" y="433.0151">clearGame()</text><!--MD5=[c20948aa6f904689435480ad9a30530a]
class usantatecla.mastermind.controllers.StartController--><rect codeLine="52" fill="#FEFECE" filter="url(#fss3knkezbec0)" height="60.8047" id="usantatecla.mastermind.controllers.StartController" style="stroke:#A80036;stroke-width:1.5;" width="151" x="32.5" y="372.5"/><ellipse cx="61.9" cy="388.5" fill="#ADD1B2" rx="11" ry="11" style="stroke:#A80036;stroke-width:1.0;"/><path d="M64.2438,384.1719 C63.3063,383.7344 62.7125,383.5938 61.8375,383.5938 C59.2125,383.5938 57.2125,385.6719 57.2125,388.3906 L57.2125,389.5156 C57.2125,392.0938 59.3219,393.9844 62.2125,393.9844 C63.4313,393.9844 64.5875,393.6875 65.3375,393.1406 C65.9156,392.7344 66.2438,392.2813 66.2438,391.8906 C66.2438,391.4375 65.8531,391.0469 65.3844,391.0469 C65.1656,391.0469 64.9625,391.125 64.775,391.3125 C64.3219,391.7969 64.3219,391.7969 64.1344,391.8906 C63.7125,392.1563 63.025,392.2813 62.2594,392.2813 C60.2125,392.2813 58.9156,391.1875 58.9156,389.4844 L58.9156,388.3906 C58.9156,386.6094 60.1656,385.2969 61.9,385.2969 C62.4781,385.2969 63.0875,385.4531 63.5563,385.7031 C64.0406,385.9844 64.2125,386.2031 64.3063,386.6094 C64.3688,387.0156 64.4,387.1406 64.5406,387.2656 C64.6813,387.4063 64.9156,387.5156 65.1344,387.5156 C65.4,387.5156 65.6656,387.375 65.8375,387.1563 C65.9469,387 65.9781,386.8125 65.9781,386.3906 L65.9781,384.9688 C65.9781,384.5313 65.9625,384.4063 65.8688,384.25 C65.7125,383.9844 65.4313,383.8438 65.1344,383.8438 C64.8375,383.8438 64.6344,383.9375 64.4156,384.25 L64.2438,384.1719 Z " fill="#000000"/><text fill="#000000" font-family="sans-serif" font-size="12" lengthAdjust="spacingAndGlyphs" textLength="87" x="79.1" y="392.6543">StartController</text><line style="stroke:#A80036;stroke-width:1.5;" x1="33.5" x2="182.5" y1="404.5" y2="404.5"/><line style="stroke:#A80036;stroke-width:1.5;" x1="33.5" x2="182.5" y1="412.5" y2="412.5"/><ellipse cx="43.5" cy="423.5" fill="#84BE84" rx="3" ry="3" style="stroke:#038048;stroke-width:1.0;"/><text fill="#000000" font-family="sans-serif" font-size="11" lengthAdjust="spacingAndGlyphs" textLength="125" x="52.5" y="426.7104">StartController(Game)</text><!--MD5=[71ea1457370bc7d349149836b00bab29]
class usantatecla.mastermind.controllers.ProposalController--><rect codeLine="34" fill="#FEFECE" filter="url(#fss3knkezbec0)" height="150.4375" id="usantatecla.mastermind.controllers.ProposalController" style="stroke:#A80036;stroke-width:1.5;" width="277" x="218.5" y="328"/><ellipse cx="297.25" cy="344" fill="#ADD1B2" rx="11" ry="11" style="stroke:#A80036;stroke-width:1.0;"/><path d="M299.5938,339.6719 C298.6563,339.2344 298.0625,339.0938 297.1875,339.0938 C294.5625,339.0938 292.5625,341.1719 292.5625,343.8906 L292.5625,345.0156 C292.5625,347.5938 294.6719,349.4844 297.5625,349.4844 C298.7813,349.4844 299.9375,349.1875 300.6875,348.6406 C301.2656,348.2344 301.5938,347.7813 301.5938,347.3906 C301.5938,346.9375 301.2031,346.5469 300.7344,346.5469 C300.5156,346.5469 300.3125,346.625 300.125,346.8125 C299.6719,347.2969 299.6719,347.2969 299.4844,347.3906 C299.0625,347.6563 298.375,347.7813 297.6094,347.7813 C295.5625,347.7813 294.2656,346.6875 294.2656,344.9844 L294.2656,343.8906 C294.2656,342.1094 295.5156,340.7969 297.25,340.7969 C297.8281,340.7969 298.4375,340.9531 298.9063,341.2031 C299.3906,341.4844 299.5625,341.7031 299.6563,342.1094 C299.7188,342.5156 299.75,342.6406 299.8906,342.7656 C300.0313,342.9063 300.2656,343.0156 300.4844,343.0156 C300.75,343.0156 301.0156,342.875 301.1875,342.6563 C301.2969,342.5 301.3281,342.3125 301.3281,341.8906 L301.3281,340.4688 C301.3281,340.0313 301.3125,339.9063 301.2188,339.75 C301.0625,339.4844 300.7813,339.3438 300.4844,339.3438 C300.1875,339.3438 299.9844,339.4375 299.7656,339.75 L299.5938,339.6719 Z " fill="#000000"/><text fill="#000000" font-family="sans-serif" font-size="12" lengthAdjust="spacingAndGlyphs" textLength="111" x="317.75" y="348.1543">ProposalController</text><line style="stroke:#A80036;stroke-width:1.5;" x1="219.5" x2="494.5" y1="360" y2="360"/><line style="stroke:#A80036;stroke-width:1.5;" x1="219.5" x2="494.5" y1="368" y2="368"/><ellipse cx="229.5" cy="379" fill="#84BE84" rx="3" ry="3" style="stroke:#038048;stroke-width:1.0;"/><text fill="#000000" font-family="sans-serif" font-size="11" lengthAdjust="spacingAndGlyphs" textLength="145" x="238.5" y="382.2104">ProposalController(Game)</text><ellipse cx="229.5" cy="391.8047" fill="#84BE84" rx="3" ry="3" style="stroke:#038048;stroke-width:1.0;"/><text fill="#000000" font-family="sans-serif" font-size="11" lengthAdjust="spacingAndGlyphs" textLength="251" x="238.5" y="395.0151">addProposedCombination(List&lt;Color&gt;): Error</text><ellipse cx="229.5" cy="404.6094" fill="#84BE84" rx="3" ry="3" style="stroke:#038048;stroke-width:1.0;"/><text fill="#000000" font-family="sans-serif" font-size="11" lengthAdjust="spacingAndGlyphs" textLength="110" x="238.5" y="407.8198">isWinner(): boolean</text><ellipse cx="229.5" cy="417.4141" fill="#84BE84" rx="3" ry="3" style="stroke:#038048;stroke-width:1.0;"/><text fill="#000000" font-family="sans-serif" font-size="11" lengthAdjust="spacingAndGlyphs" textLength="108" x="238.5" y="420.6245">isLooser(): boolean</text><ellipse cx="229.5" cy="430.2188" fill="#84BE84" rx="3" ry="3" style="stroke:#038048;stroke-width:1.0;"/><text fill="#000000" font-family="sans-serif" font-size="11" lengthAdjust="spacingAndGlyphs" textLength="100" x="238.5" y="433.4292">getAttempts(): int</text><ellipse cx="229.5" cy="443.0234" fill="#84BE84" rx="3" ry="3" style="stroke:#038048;stroke-width:1.0;"/><text fill="#000000" font-family="sans-serif" font-size="11" lengthAdjust="spacingAndGlyphs" textLength="149" x="238.5" y="446.2339">getColors(int): List&lt;Color&gt;</text><ellipse cx="229.5" cy="455.8281" fill="#84BE84" rx="3" ry="3" style="stroke:#038048;stroke-width:1.0;"/><text fill="#000000" font-family="sans-serif" font-size="11" lengthAdjust="spacingAndGlyphs" textLength="98" x="238.5" y="459.0386">getBlacks(int): int</text><ellipse cx="229.5" cy="468.6328" fill="#84BE84" rx="3" ry="3" style="stroke:#038048;stroke-width:1.0;"/><text fill="#000000" font-family="sans-serif" font-size="11" lengthAdjust="spacingAndGlyphs" textLength="101" x="238.5" y="471.8433">getWhites(int): int</text><!--MD5=[b6dcce5e5ef3c84b0b048d11301373dd]
class Game--><rect codeLine="1" fill="#FEFECE" filter="url(#fss3knkezbec0)" height="48" id="Game" style="stroke:#A80036;stroke-width:1.5;" width="260" x="737" y="379"/><ellipse cx="752" cy="395" fill="#ADD1B2" rx="11" ry="11" style="stroke:#A80036;stroke-width:1.0;"/><path d="M754.3438,390.6719 C753.4063,390.2344 752.8125,390.0938 751.9375,390.0938 C749.3125,390.0938 747.3125,392.1719 747.3125,394.8906 L747.3125,396.0156 C747.3125,398.5938 749.4219,400.4844 752.3125,400.4844 C753.5313,400.4844 754.6875,400.1875 755.4375,399.6406 C756.0156,399.2344 756.3438,398.7813 756.3438,398.3906 C756.3438,397.9375 755.9531,397.5469 755.4844,397.5469 C755.2656,397.5469 755.0625,397.625 754.875,397.8125 C754.4219,398.2969 754.4219,398.2969 754.2344,398.3906 C753.8125,398.6563 753.125,398.7813 752.3594,398.7813 C750.3125,398.7813 749.0156,397.6875 749.0156,395.9844 L749.0156,394.8906 C749.0156,393.1094 750.2656,391.7969 752,391.7969 C752.5781,391.7969 753.1875,391.9531 753.6563,392.2031 C754.1406,392.4844 754.3125,392.7031 754.4063,393.1094 C754.4688,393.5156 754.5,393.6406 754.6406,393.7656 C754.7813,393.9063 755.0156,394.0156 755.2344,394.0156 C755.5,394.0156 755.7656,393.875 755.9375,393.6563 C756.0469,393.5 756.0781,393.3125 756.0781,392.8906 L756.0781,391.4688 C756.0781,391.0313 756.0625,390.9063 755.9688,390.75 C755.8125,390.4844 755.5313,390.3438 755.2344,390.3438 C754.9375,390.3438 754.7344,390.4375 754.5156,390.75 L754.3438,390.6719 Z " fill="#000000"/><text fill="#000000" font-family="sans-serif" font-size="12" lengthAdjust="spacingAndGlyphs" textLength="228" x="766" y="399.1543">usantatecla.mastermind.models.Game</text><line style="stroke:#A80036;stroke-width:1.5;" x1="738" x2="996" y1="411" y2="411"/><line style="stroke:#A80036;stroke-width:1.5;" x1="738" x2="996" y1="419" y2="419"/><!--MD5=[b1534f62db7bd0c312bb47cb18cac355]
link usantatecla.mastermind.controllers.Controller to Game--><path codeLine="11" d="M653.888,197.595 C707.016,248.552 794.881,332.827 839.366,375.495 " fill="none" id="usantatecla.mastermind.controllers.Controller-to-Game" style="stroke:#A80036;stroke-width:1.0;"/><polygon fill="#A80036" points="843.013,378.993,839.287,369.8762,839.4047,375.5318,833.749,375.6495,843.013,378.993" style="stroke:#A80036;stroke-width:1.0;"/><!--MD5=[07f4f2174253deef40735c6f426cde58]
link usantatecla.mastermind.controllers.Logic to usantatecla.mastermind.controllers.ResumeController--><path codeLine="29" d="M487.3593,276.6638 C487.3593,276.6638 546.249,334.041 569.355,356.554 " fill="none" id="usantatecla.mastermind.controllers.Logic-usantatecla.mastermind.controllers.ResumeController" style="stroke:#A80036;stroke-width:1.0;"/><polygon fill="#A80036" points="578.872,365.826,575.2175,356.6803,575.2909,362.3366,569.6345,362.41,578.872,365.826" style="stroke:#A80036;stroke-width:1.0;"/><line style="stroke:#A80036;stroke-width:1.0;" x1="575.2909" x2="569.5605" y1="362.3366" y2="356.754"/><polygon fill="#A80036" points="478.764,268.29,480.2704,275.342,487.3593,276.6638,485.8529,269.6118,478.764,268.29" style="stroke:#A80036;stroke-width:1.0;"/><!--MD5=[7b4d3b9373751c5d43acf45bd3655ae0]
link usantatecla.mastermind.controllers.Logic to usantatecla.mastermind.controllers.StartController--><path codeLine="30" d="M237.6932,276.6303 C237.6932,276.6303 172.355,339.79 148.227,363.114 " fill="none" id="usantatecla.mastermind.controllers.Logic-usantatecla.mastermind.controllers.StartController" style="stroke:#A80036;stroke-width:1.0;"/><polygon fill="#A80036" points="138.732,372.292,147.9832,368.9134,142.3272,368.8171,142.4235,363.1611,138.732,372.292" style="stroke:#A80036;stroke-width:1.0;"/><line style="stroke:#A80036;stroke-width:1.0;" x1="142.3272" x2="148.079" y1="368.8171" y2="363.2565"/><polygon fill="#A80036" points="246.321,268.29,239.227,269.5842,237.6932,276.6303,244.7872,275.3361,246.321,268.29" style="stroke:#A80036;stroke-width:1.0;"/><!--MD5=[088f8298878c55cb33bba93d6bb32650]
link usantatecla.mastermind.controllers.Logic to usantatecla.mastermind.controllers.ProposalController--><path codeLine="31" d="M359.9622,280.2864 C359.9622,280.2864 359.392,303.729 359.132,314.413 " fill="none" id="usantatecla.mastermind.controllers.Logic-usantatecla.mastermind.controllers.ProposalController" style="stroke:#A80036;stroke-width:1.0;"/><polygon fill="#A80036" points="358.808,327.71,363.0254,318.8098,358.9294,322.7115,355.0278,318.6155,358.808,327.71" style="stroke:#A80036;stroke-width:1.0;"/><line style="stroke:#A80036;stroke-width:1.0;" x1="358.9294" x2="359.1245" y1="322.7115" y2="314.7135"/><polygon fill="#A80036" points="360.255,268.29,356.1098,274.1906,359.9622,280.2864,364.1074,274.3858,360.255,268.29" style="stroke:#A80036;stroke-width:1.0;"/><!--MD5=[0ff8f89650a05932e406ed8572c4f29f]
link usantatecla.mastermind.controllers.Logic to Game--><path codeLine="32" d="M512.0122,258.2671 C512.0122,258.2671 525.03,265.114 531,268 C609.585,305.987 637.129,295.161 718,328 C750.313,341.121 785.293,358.328 813.235,372.847 " fill="none" id="usantatecla.mastermind.controllers.Logic-Game" style="stroke:#A80036;stroke-width:1.0;"/><polygon fill="#A80036" points="824.751,378.885,818.638,371.1629,820.3229,376.563,814.9228,378.2478,824.751,378.885" style="stroke:#A80036;stroke-width:1.0;"/><line style="stroke:#A80036;stroke-width:1.0;" x1="820.3229" x2="813.238" y1="376.563" y2="372.8485"/><polygon fill="#A80036" points="501.502,252.476,504.8267,258.8749,512.0122,258.2671,508.6874,251.8681,501.502,252.476" style="stroke:#A80036;stroke-width:1.0;"/><!--MD5=[355b9902740da4b2ec85e8089918fd93]
reverse link usantatecla.mastermind.controllers.Controller to usantatecla.mastermind.controllers.ProposalController--><path codeLine="44" d="M566.87,213.311 C552.381,231.472 535.653,251.164 519,268 C498.723,288.501 475.533,309.109 453.159,327.807 " fill="none" id="usantatecla.mastermind.controllers.Controller-backto-usantatecla.mastermind.controllers.ProposalController" style="stroke:#A80036;stroke-width:1.0;"/><polygon fill="none" points="561.386,208.961,579.224,197.524,572.412,217.588,561.386,208.961" style="stroke:#A80036;stroke-width:1.0;"/><!--MD5=[933c3a87fb1e2f64e4c2436935a9c1c3]
reverse link usantatecla.mastermind.controllers.Controller to usantatecla.mastermind.controllers.ResumeController--><path codeLine="50" d="M611.517,217.821 C612.654,264.537 614.171,326.857 615.116,365.698 " fill="none" id="usantatecla.mastermind.controllers.Controller-backto-usantatecla.mastermind.controllers.ResumeController" style="stroke:#A80036;stroke-width:1.0;"/><polygon fill="none" points="604.513,217.759,611.025,197.595,618.509,217.418,604.513,217.759" style="stroke:#A80036;stroke-width:1.0;"/><!--MD5=[c885998b8df824bd1b8bf3ae6c5e9a62]
reverse link usantatecla.mastermind.controllers.Controller to usantatecla.mastermind.controllers.StartController--><path codeLine="55" d="M574.857,214.183 C560.038,234.19 541.07,254.813 519,268 C395.533,341.771 331.776,268.134 201,328 C177.549,338.735 154.826,356.63 137.712,372.133 " fill="none" id="usantatecla.mastermind.controllers.Controller-backto-usantatecla.mastermind.controllers.StartController" style="stroke:#A80036;stroke-width:1.0;"/><polygon fill="none" points="569.147,210.133,586.305,197.7,580.645,218.12,569.147,210.133" style="stroke:#A80036;stroke-width:1.0;"/><!--MD5=[3731afe0edf10d1e3ff93b1b49a914c6]
@startuml
class Game as "usantatecla.mastermind.models.Game" {


}

abstract class  usantatecla.mastermind.controllers.Controller{
# game: Game
~ Controller(Game)
+ getWidth(): int
}
usantatecla.mastermind.controllers.Controller -down-> Game

class  usantatecla.mastermind.controllers.Logic{
- game: Game
- startController: StartController
- proposalController: ProposalController
- resumeController: ResumeController
+ Logic()
+ clearGame()
+ addProposedCombination(List<Color>): Error
+ isWinner(): boolean
+ isLooser(): boolean
+ getAttempts(): int
+ getColors(int): List<Color>
+ getBlacks(int): int
+ getWhites(int): int
+ getWidth(): int
}
usantatecla.mastermind.controllers.Logic *-down-> usantatecla.mastermind.controllers.ResumeController
usantatecla.mastermind.controllers.Logic *-down-> usantatecla.mastermind.controllers.StartController
usantatecla.mastermind.controllers.Logic *-down-> usantatecla.mastermind.controllers.ProposalController
usantatecla.mastermind.controllers.Logic *-down-> Game

class  usantatecla.mastermind.controllers.ProposalController{
+ ProposalController(Game)
+ addProposedCombination(List<Color>): Error
+ isWinner(): boolean
+ isLooser(): boolean
+ getAttempts(): int
+ getColors(int): List<Color>
+ getBlacks(int): int
+ getWhites(int): int
}
usantatecla.mastermind.controllers.Controller <|-down- usantatecla.mastermind.controllers.ProposalController

class  usantatecla.mastermind.controllers.ResumeController{
+ ResumeController(Game)
+ clearGame()
}
usantatecla.mastermind.controllers.Controller <|-down- usantatecla.mastermind.controllers.ResumeController

class  usantatecla.mastermind.controllers.StartController{
+ StartController(Game)
}
usantatecla.mastermind.controllers.Controller <|-down- usantatecla.mastermind.controllers.StartController
@enduml

PlantUML version 1.2020.21beta7(Unknown compile time)
(GPL source distribution)
Java Runtime: Java(TM) SE Runtime Environment
JVM: Java HotSpot(TM) 64-Bit Server VM
Default Encoding: UTF-8
Language: en
Country: US
--></g></svg>