<?xml version="1.0" encoding="UTF-8" standalone="no"?><svg xmlns="http://www.w3.org/2000/svg" xmlns:xlink="http://www.w3.org/1999/xlink" contentScriptType="application/ecmascript" contentStyleType="text/css" height="871px" preserveAspectRatio="none" style="width:724px;height:871px;" version="1.1" viewBox="0 0 724 871" width="724px" zoomAndPan="magnify"><defs><filter height="300%" id="frm8l7wqxfubb" width="300%" x="-1" y="-1"><feGaussianBlur result="blurOut" stdDeviation="2.0"/><feColorMatrix in="blurOut" result="blurOut2" type="matrix" values="0 0 0 0 0 0 0 0 0 0 0 0 0 0 0 0 0 0 .4 0"/><feOffset dx="4.0" dy="4.0" in="blurOut2" result="blurOut3"/><feBlend in="SourceGraphic" in2="blurOut3" mode="normal"/></filter></defs><g><!--MD5=[8e0b9655f0966c29230933410523611d]
cluster mastermind.models--><polygon fill="#FFFFFF" filter="url(#frm8l7wqxfubb)" points="16,6,183,6,190,28.2969,599,28.2969,599,864,16,864,16,6" style="stroke:#000000;stroke-width:1.5;"/><line style="stroke:#000000;stroke-width:1.5;" x1="16" x2="190" y1="28.2969" y2="28.2969"/><text fill="#000000" font-family="sans-serif" font-size="14" font-weight="bold" lengthAdjust="spacingAndGlyphs" textLength="161" x="20" y="20.9951">mastermind.models</text><!--MD5=[7db3c59d38ae5b37b484eb2df9368145]
cluster java.util--><polygon fill="#FFFFFF" filter="url(#frm8l7wqxfubb)" points="623,344,696,344,703,366.2969,707,366.2969,707,443,623,443,623,344" style="stroke:#000000;stroke-width:1.5;"/><line style="stroke:#000000;stroke-width:1.5;" x1="623" x2="703" y1="366.2969" y2="366.2969"/><text fill="#000000" font-family="sans-serif" font-size="14" font-weight="bold" lengthAdjust="spacingAndGlyphs" textLength="67" x="627" y="358.9951">java.util</text><!--MD5=[d5dd2c70e89db13b97018ba79382d349]
class mastermind.models.Color--><rect codeLine="1" fill="#FEFECE" filter="url(#frm8l7wqxfubb)" height="176.0469" id="mastermind.models.Color" style="stroke:#A80036;stroke-width:1.5;" width="151" x="394.5" y="315"/><ellipse cx="449.75" cy="331" fill="#ADD1B2" rx="11" ry="11" style="stroke:#A80036;stroke-width:1.0;"/><path d="M452.0938,326.6719 C451.1563,326.2344 450.5625,326.0938 449.6875,326.0938 C447.0625,326.0938 445.0625,328.1719 445.0625,330.8906 L445.0625,332.0156 C445.0625,334.5938 447.1719,336.4844 450.0625,336.4844 C451.2813,336.4844 452.4375,336.1875 453.1875,335.6406 C453.7656,335.2344 454.0938,334.7813 454.0938,334.3906 C454.0938,333.9375 453.7031,333.5469 453.2344,333.5469 C453.0156,333.5469 452.8125,333.625 452.625,333.8125 C452.1719,334.2969 452.1719,334.2969 451.9844,334.3906 C451.5625,334.6563 450.875,334.7813 450.1094,334.7813 C448.0625,334.7813 446.7656,333.6875 446.7656,331.9844 L446.7656,330.8906 C446.7656,329.1094 448.0156,327.7969 449.75,327.7969 C450.3281,327.7969 450.9375,327.9531 451.4063,328.2031 C451.8906,328.4844 452.0625,328.7031 452.1563,329.1094 C452.2188,329.5156 452.25,329.6406 452.3906,329.7656 C452.5313,329.9063 452.7656,330.0156 452.9844,330.0156 C453.25,330.0156 453.5156,329.875 453.6875,329.6563 C453.7969,329.5 453.8281,329.3125 453.8281,328.8906 L453.8281,327.4688 C453.8281,327.0313 453.8125,326.9063 453.7188,326.75 C453.5625,326.4844 453.2813,326.3438 452.9844,326.3438 C452.6875,326.3438 452.4844,326.4375 452.2656,326.75 L452.0938,326.6719 Z " fill="#000000"/><text fill="#000000" font-family="sans-serif" font-size="12" lengthAdjust="spacingAndGlyphs" textLength="32" x="470.25" y="335.1543">Color</text><line style="stroke:#A80036;stroke-width:1.5;" x1="395.5" x2="544.5" y1="347" y2="347"/><ellipse cx="405.5" cy="358" fill="none" rx="3" ry="3" style="stroke:#038048;stroke-width:1.0;"/><text fill="#000000" font-family="sans-serif" font-size="11" lengthAdjust="spacingAndGlyphs" text-decoration="underline" textLength="59" x="414.5" y="361.2104">RED: Color</text><ellipse cx="405.5" cy="370.8047" fill="none" rx="3" ry="3" style="stroke:#038048;stroke-width:1.0;"/><text fill="#000000" font-family="sans-serif" font-size="11" lengthAdjust="spacingAndGlyphs" text-decoration="underline" textLength="65" x="414.5" y="374.0151">BLUE: Color</text><ellipse cx="405.5" cy="383.6094" fill="none" rx="3" ry="3" style="stroke:#038048;stroke-width:1.0;"/><text fill="#000000" font-family="sans-serif" font-size="11" lengthAdjust="spacingAndGlyphs" text-decoration="underline" textLength="82" x="414.5" y="386.8198">YELLOW: Color</text><ellipse cx="405.5" cy="396.4141" fill="none" rx="3" ry="3" style="stroke:#038048;stroke-width:1.0;"/><text fill="#000000" font-family="sans-serif" font-size="11" lengthAdjust="spacingAndGlyphs" text-decoration="underline" textLength="74" x="414.5" y="399.6245">GREEN: Color</text><ellipse cx="405.5" cy="409.2188" fill="none" rx="3" ry="3" style="stroke:#038048;stroke-width:1.0;"/><text fill="#000000" font-family="sans-serif" font-size="11" lengthAdjust="spacingAndGlyphs" text-decoration="underline" textLength="84" x="414.5" y="412.4292">ORANGE: Color</text><ellipse cx="405.5" cy="422.0234" fill="none" rx="3" ry="3" style="stroke:#038048;stroke-width:1.0;"/><text fill="#000000" font-family="sans-serif" font-size="11" lengthAdjust="spacingAndGlyphs" text-decoration="underline" textLength="76" x="414.5" y="425.2339">PURPLE: Color</text><line style="stroke:#A80036;stroke-width:1.5;" x1="395.5" x2="544.5" y1="431.8281" y2="431.8281"/><rect fill="#F24D5C" height="6" style="stroke:#C82930;stroke-width:1.0;" width="6" x="402.5" y="439.8281"/><text fill="#000000" font-family="sans-serif" font-size="11" lengthAdjust="spacingAndGlyphs" textLength="37" x="414.5" y="446.0386">Color()</text><ellipse cx="405.5" cy="455.6328" fill="#84BE84" rx="3" ry="3" style="stroke:#038048;stroke-width:1.0;"/><text fill="#000000" font-family="sans-serif" font-size="11" lengthAdjust="spacingAndGlyphs" text-decoration="underline" textLength="122" x="414.5" y="458.8433">valueOf(String): Color</text><polygon fill="#4177AF" points="405.5,464.4375,401.5,470.4375,409.5,470.4375" style="stroke:#1963A0;stroke-width:1.0;"/><text fill="#000000" font-family="sans-serif" font-size="11" lengthAdjust="spacingAndGlyphs" text-decoration="underline" textLength="65" x="414.5" y="471.6479">length(): int</text><polygon fill="#4177AF" points="405.5,477.2422,401.5,483.2422,409.5,483.2422" style="stroke:#1963A0;stroke-width:1.0;"/><text fill="#000000" font-family="sans-serif" font-size="11" lengthAdjust="spacingAndGlyphs" text-decoration="underline" textLength="125" x="414.5" y="484.4526">getInstance(int): Color</text><!--MD5=[9c5442b9d48adcb788f4fd60193e9fcb]
class mastermind.models.Combination--><rect codeLine="14" fill="#FEFECE" filter="url(#frm8l7wqxfubb)" height="99.2188" id="mastermind.models.Combination" style="stroke:#A80036;stroke-width:1.5;" width="132" x="420" y="98.5"/><ellipse cx="446.7" cy="114.5" fill="#ADD1B2" rx="11" ry="11" style="stroke:#A80036;stroke-width:1.0;"/><path d="M449.0438,110.1719 C448.1063,109.7344 447.5125,109.5938 446.6375,109.5938 C444.0125,109.5938 442.0125,111.6719 442.0125,114.3906 L442.0125,115.5156 C442.0125,118.0938 444.1219,119.9844 447.0125,119.9844 C448.2313,119.9844 449.3875,119.6875 450.1375,119.1406 C450.7156,118.7344 451.0438,118.2813 451.0438,117.8906 C451.0438,117.4375 450.6531,117.0469 450.1844,117.0469 C449.9656,117.0469 449.7625,117.125 449.575,117.3125 C449.1219,117.7969 449.1219,117.7969 448.9344,117.8906 C448.5125,118.1563 447.825,118.2813 447.0594,118.2813 C445.0125,118.2813 443.7156,117.1875 443.7156,115.4844 L443.7156,114.3906 C443.7156,112.6094 444.9656,111.2969 446.7,111.2969 C447.2781,111.2969 447.8875,111.4531 448.3563,111.7031 C448.8406,111.9844 449.0125,112.2031 449.1063,112.6094 C449.1688,113.0156 449.2,113.1406 449.3406,113.2656 C449.4813,113.4063 449.7156,113.5156 449.9344,113.5156 C450.2,113.5156 450.4656,113.375 450.6375,113.1563 C450.7469,113 450.7781,112.8125 450.7781,112.3906 L450.7781,110.9688 C450.7781,110.5313 450.7625,110.4063 450.6688,110.25 C450.5125,109.9844 450.2313,109.8438 449.9344,109.8438 C449.6375,109.8438 449.4344,109.9375 449.2156,110.25 L449.0438,110.1719 Z " fill="#000000"/><text fill="#000000" font-family="sans-serif" font-size="12" lengthAdjust="spacingAndGlyphs" textLength="74" x="463.3" y="118.6543">Combination</text><line style="stroke:#A80036;stroke-width:1.5;" x1="421" x2="551" y1="130.5" y2="130.5"/><rect fill="none" height="6" style="stroke:#C82930;stroke-width:1.0;" width="6" x="428" y="138.5"/><text fill="#000000" font-family="sans-serif" font-size="11" lengthAdjust="spacingAndGlyphs" text-decoration="underline" textLength="59" x="440" y="144.7104">WIDTH: int</text><polygon fill="none" points="431,149.3047,435,153.3047,431,157.3047,427,153.3047" style="stroke:#B38D22;stroke-width:1.0;"/><text fill="#000000" font-family="sans-serif" font-size="11" lengthAdjust="spacingAndGlyphs" textLength="106" x="440" y="157.5151">colors: List&lt;Color&gt;</text><line style="stroke:#A80036;stroke-width:1.5;" x1="421" x2="551" y1="164.1094" y2="164.1094"/><polygon fill="#FFFF44" points="431,170.1094,435,174.1094,431,178.1094,427,174.1094" style="stroke:#B38D22;stroke-width:1.0;"/><text fill="#000000" font-family="sans-serif" font-size="11" lengthAdjust="spacingAndGlyphs" textLength="79" x="440" y="178.3198">Combination()</text><ellipse cx="431" cy="187.9141" fill="#84BE84" rx="3" ry="3" style="stroke:#038048;stroke-width:1.0;"/><text fill="#000000" font-family="sans-serif" font-size="11" lengthAdjust="spacingAndGlyphs" text-decoration="underline" textLength="80" x="440" y="191.1245">getWidth(): int</text><!--MD5=[3bbd847d2bed55d759f67ce45ba3cf97]
class mastermind.models.Error--><rect codeLine="23" fill="#FEFECE" filter="url(#frm8l7wqxfubb)" height="112.0234" id="mastermind.models.Error" style="stroke:#A80036;stroke-width:1.5;" width="185" x="237.5" y="736"/><ellipse cx="310.75" cy="752" fill="#ADD1B2" rx="11" ry="11" style="stroke:#A80036;stroke-width:1.0;"/><path d="M313.0938,747.6719 C312.1563,747.2344 311.5625,747.0938 310.6875,747.0938 C308.0625,747.0938 306.0625,749.1719 306.0625,751.8906 L306.0625,753.0156 C306.0625,755.5938 308.1719,757.4844 311.0625,757.4844 C312.2813,757.4844 313.4375,757.1875 314.1875,756.6406 C314.7656,756.2344 315.0938,755.7813 315.0938,755.3906 C315.0938,754.9375 314.7031,754.5469 314.2344,754.5469 C314.0156,754.5469 313.8125,754.625 313.625,754.8125 C313.1719,755.2969 313.1719,755.2969 312.9844,755.3906 C312.5625,755.6563 311.875,755.7813 311.1094,755.7813 C309.0625,755.7813 307.7656,754.6875 307.7656,752.9844 L307.7656,751.8906 C307.7656,750.1094 309.0156,748.7969 310.75,748.7969 C311.3281,748.7969 311.9375,748.9531 312.4063,749.2031 C312.8906,749.4844 313.0625,749.7031 313.1563,750.1094 C313.2188,750.5156 313.25,750.6406 313.3906,750.7656 C313.5313,750.9063 313.7656,751.0156 313.9844,751.0156 C314.25,751.0156 314.5156,750.875 314.6875,750.6563 C314.7969,750.5 314.8281,750.3125 314.8281,749.8906 L314.8281,748.4688 C314.8281,748.0313 314.8125,747.9063 314.7188,747.75 C314.5625,747.4844 314.2813,747.3438 313.9844,747.3438 C313.6875,747.3438 313.4844,747.4375 313.2656,747.75 L313.0938,747.6719 Z " fill="#000000"/><text fill="#000000" font-family="sans-serif" font-size="12" lengthAdjust="spacingAndGlyphs" textLength="30" x="331.25" y="756.1543">Error</text><line style="stroke:#A80036;stroke-width:1.5;" x1="238.5" x2="421.5" y1="768" y2="768"/><ellipse cx="248.5" cy="779" fill="none" rx="3" ry="3" style="stroke:#038048;stroke-width:1.0;"/><text fill="#000000" font-family="sans-serif" font-size="11" lengthAdjust="spacingAndGlyphs" text-decoration="underline" textLength="104" x="257.5" y="782.2104">DUPLICATED: Error</text><ellipse cx="248.5" cy="791.8047" fill="none" rx="3" ry="3" style="stroke:#038048;stroke-width:1.0;"/><text fill="#000000" font-family="sans-serif" font-size="11" lengthAdjust="spacingAndGlyphs" text-decoration="underline" textLength="159" x="257.5" y="795.0151">WRONG_CHARACTERS: Error</text><ellipse cx="248.5" cy="804.6094" fill="none" rx="3" ry="3" style="stroke:#038048;stroke-width:1.0;"/><text fill="#000000" font-family="sans-serif" font-size="11" lengthAdjust="spacingAndGlyphs" text-decoration="underline" textLength="128" x="257.5" y="807.8198">WRONG_LENGTH: Error</text><line style="stroke:#A80036;stroke-width:1.5;" x1="238.5" x2="421.5" y1="814.4141" y2="814.4141"/><rect fill="#F24D5C" height="6" style="stroke:#C82930;stroke-width:1.0;" width="6" x="245.5" y="822.4141"/><text fill="#000000" font-family="sans-serif" font-size="11" lengthAdjust="spacingAndGlyphs" textLength="34" x="257.5" y="828.6245">Error()</text><ellipse cx="248.5" cy="838.2188" fill="#84BE84" rx="3" ry="3" style="stroke:#038048;stroke-width:1.0;"/><text fill="#000000" font-family="sans-serif" font-size="11" lengthAdjust="spacingAndGlyphs" text-decoration="underline" textLength="119" x="257.5" y="841.4292">valueOf(String): Error</text><!--MD5=[5e669b60aaac1a014a32b452096260f0]
class mastermind.models.Game--><rect codeLine="31" fill="#FEFECE" filter="url(#frm8l7wqxfubb)" height="214.4609" id="mastermind.models.Game" style="stroke:#A80036;stroke-width:1.5;" width="323" x="55.5" y="41"/><ellipse cx="195.25" cy="57" fill="#ADD1B2" rx="11" ry="11" style="stroke:#A80036;stroke-width:1.0;"/><path d="M197.5938,52.6719 C196.6563,52.2344 196.0625,52.0938 195.1875,52.0938 C192.5625,52.0938 190.5625,54.1719 190.5625,56.8906 L190.5625,58.0156 C190.5625,60.5938 192.6719,62.4844 195.5625,62.4844 C196.7813,62.4844 197.9375,62.1875 198.6875,61.6406 C199.2656,61.2344 199.5938,60.7813 199.5938,60.3906 C199.5938,59.9375 199.2031,59.5469 198.7344,59.5469 C198.5156,59.5469 198.3125,59.625 198.125,59.8125 C197.6719,60.2969 197.6719,60.2969 197.4844,60.3906 C197.0625,60.6563 196.375,60.7813 195.6094,60.7813 C193.5625,60.7813 192.2656,59.6875 192.2656,57.9844 L192.2656,56.8906 C192.2656,55.1094 193.5156,53.7969 195.25,53.7969 C195.8281,53.7969 196.4375,53.9531 196.9063,54.2031 C197.3906,54.4844 197.5625,54.7031 197.6563,55.1094 C197.7188,55.5156 197.75,55.6406 197.8906,55.7656 C198.0313,55.9063 198.2656,56.0156 198.4844,56.0156 C198.75,56.0156 199.0156,55.875 199.1875,55.6563 C199.2969,55.5 199.3281,55.3125 199.3281,54.8906 L199.3281,53.4688 C199.3281,53.0313 199.3125,52.9063 199.2188,52.75 C199.0625,52.4844 198.7813,52.3438 198.4844,52.3438 C198.1875,52.3438 197.9844,52.4375 197.7656,52.75 L197.5938,52.6719 Z " fill="#000000"/><text fill="#000000" font-family="sans-serif" font-size="12" lengthAdjust="spacingAndGlyphs" textLength="35" x="215.75" y="61.1543">Game</text><line style="stroke:#A80036;stroke-width:1.5;" x1="56.5" x2="377.5" y1="73" y2="73"/><rect fill="none" height="6" style="stroke:#C82930;stroke-width:1.0;" width="6" x="63.5" y="81"/><text fill="#000000" font-family="sans-serif" font-size="11" lengthAdjust="spacingAndGlyphs" text-decoration="underline" textLength="84" x="75.5" y="87.2104">MAX_LONG: int</text><rect fill="none" height="6" style="stroke:#C82930;stroke-width:1.0;" width="6" x="63.5" y="93.8047"/><text fill="#000000" font-family="sans-serif" font-size="11" lengthAdjust="spacingAndGlyphs" textLength="223" x="75.5" y="100.0151">secretCombination: SecretCombination</text><rect fill="none" height="6" style="stroke:#C82930;stroke-width:1.0;" width="6" x="63.5" y="106.6094"/><text fill="#000000" font-family="sans-serif" font-size="11" lengthAdjust="spacingAndGlyphs" textLength="297" x="75.5" y="112.8198">proposedCombinations: List&lt;ProposedCombination&gt;</text><rect fill="none" height="6" style="stroke:#C82930;stroke-width:1.0;" width="6" x="63.5" y="119.4141"/><text fill="#000000" font-family="sans-serif" font-size="11" lengthAdjust="spacingAndGlyphs" textLength="117" x="75.5" y="125.6245">results: List&lt;Result&gt;</text><rect fill="none" height="6" style="stroke:#C82930;stroke-width:1.0;" width="6" x="63.5" y="132.2188"/><text fill="#000000" font-family="sans-serif" font-size="11" lengthAdjust="spacingAndGlyphs" textLength="43" x="75.5" y="138.4292">turn: int</text><line style="stroke:#A80036;stroke-width:1.5;" x1="56.5" x2="377.5" y1="145.0234" y2="145.0234"/><ellipse cx="66.5" cy="156.0234" fill="#84BE84" rx="3" ry="3" style="stroke:#038048;stroke-width:1.0;"/><text fill="#000000" font-family="sans-serif" font-size="11" lengthAdjust="spacingAndGlyphs" textLength="43" x="75.5" y="159.2339">Game()</text><ellipse cx="66.5" cy="168.8281" fill="#84BE84" rx="3" ry="3" style="stroke:#038048;stroke-width:1.0;"/><text fill="#000000" font-family="sans-serif" font-size="11" lengthAdjust="spacingAndGlyphs" textLength="67" x="75.5" y="172.0386">clear(): void</text><ellipse cx="66.5" cy="181.6328" fill="#84BE84" rx="3" ry="3" style="stroke:#038048;stroke-width:1.0;"/><text fill="#000000" font-family="sans-serif" font-size="11" lengthAdjust="spacingAndGlyphs" textLength="279" x="75.5" y="184.8433">proposeCombination(ProposedCombination): void</text><ellipse cx="66.5" cy="194.4375" fill="#84BE84" rx="3" ry="3" style="stroke:#038048;stroke-width:1.0;"/><text fill="#000000" font-family="sans-serif" font-size="11" lengthAdjust="spacingAndGlyphs" textLength="73" x="75.5" y="197.6479">getTurn(): int</text><ellipse cx="66.5" cy="207.2422" fill="#84BE84" rx="3" ry="3" style="stroke:#038048;stroke-width:1.0;"/><text fill="#000000" font-family="sans-serif" font-size="11" lengthAdjust="spacingAndGlyphs" textLength="108" x="75.5" y="210.4526">isLooser(): boolean</text><ellipse cx="66.5" cy="220.0469" fill="#84BE84" rx="3" ry="3" style="stroke:#038048;stroke-width:1.0;"/><text fill="#000000" font-family="sans-serif" font-size="11" lengthAdjust="spacingAndGlyphs" textLength="80" x="75.5" y="223.2573">getWidth(): int</text><ellipse cx="66.5" cy="232.8516" fill="#84BE84" rx="3" ry="3" style="stroke:#038048;stroke-width:1.0;"/><text fill="#000000" font-family="sans-serif" font-size="11" lengthAdjust="spacingAndGlyphs" textLength="110" x="75.5" y="236.062">isWinner(): boolean</text><ellipse cx="66.5" cy="245.6563" fill="#84BE84" rx="3" ry="3" style="stroke:#038048;stroke-width:1.0;"/><text fill="#000000" font-family="sans-serif" font-size="11" lengthAdjust="spacingAndGlyphs" textLength="108" x="75.5" y="248.8667">getCodes(): int[][][]</text><!--MD5=[18e11a8af630f25f1c94857378af7d3d]
class mastermind.models.SecretCombination--><rect codeLine="70" fill="#FEFECE" filter="url(#frm8l7wqxfubb)" height="73.6094" id="mastermind.models.SecretCombination" style="stroke:#A80036;stroke-width:1.5;" width="253" x="106.5" y="366"/><ellipse cx="171.75" cy="382" fill="#ADD1B2" rx="11" ry="11" style="stroke:#A80036;stroke-width:1.0;"/><path d="M174.0938,377.6719 C173.1563,377.2344 172.5625,377.0938 171.6875,377.0938 C169.0625,377.0938 167.0625,379.1719 167.0625,381.8906 L167.0625,383.0156 C167.0625,385.5938 169.1719,387.4844 172.0625,387.4844 C173.2813,387.4844 174.4375,387.1875 175.1875,386.6406 C175.7656,386.2344 176.0938,385.7813 176.0938,385.3906 C176.0938,384.9375 175.7031,384.5469 175.2344,384.5469 C175.0156,384.5469 174.8125,384.625 174.625,384.8125 C174.1719,385.2969 174.1719,385.2969 173.9844,385.3906 C173.5625,385.6563 172.875,385.7813 172.1094,385.7813 C170.0625,385.7813 168.7656,384.6875 168.7656,382.9844 L168.7656,381.8906 C168.7656,380.1094 170.0156,378.7969 171.75,378.7969 C172.3281,378.7969 172.9375,378.9531 173.4063,379.2031 C173.8906,379.4844 174.0625,379.7031 174.1563,380.1094 C174.2188,380.5156 174.25,380.6406 174.3906,380.7656 C174.5313,380.9063 174.7656,381.0156 174.9844,381.0156 C175.25,381.0156 175.5156,380.875 175.6875,380.6563 C175.7969,380.5 175.8281,380.3125 175.8281,379.8906 L175.8281,378.4688 C175.8281,378.0313 175.8125,377.9063 175.7188,377.75 C175.5625,377.4844 175.2813,377.3438 174.9844,377.3438 C174.6875,377.3438 174.4844,377.4375 174.2656,377.75 L174.0938,377.6719 Z " fill="#000000"/><text fill="#000000" font-family="sans-serif" font-size="12" lengthAdjust="spacingAndGlyphs" textLength="114" x="192.25" y="386.1543">SecretCombination</text><line style="stroke:#A80036;stroke-width:1.5;" x1="107.5" x2="358.5" y1="398" y2="398"/><line style="stroke:#A80036;stroke-width:1.5;" x1="107.5" x2="358.5" y1="406" y2="406"/><polygon fill="#4177AF" points="117.5,413,113.5,419,121.5,419" style="stroke:#1963A0;stroke-width:1.0;"/><text fill="#000000" font-family="sans-serif" font-size="11" lengthAdjust="spacingAndGlyphs" textLength="117" x="126.5" y="420.2104">SecretCombination()</text><polygon fill="#4177AF" points="117.5,425.8047,113.5,431.8047,121.5,431.8047" style="stroke:#1963A0;stroke-width:1.0;"/><text fill="#000000" font-family="sans-serif" font-size="11" lengthAdjust="spacingAndGlyphs" textLength="227" x="126.5" y="433.0151">getResult(ProposedCombination): Result</text><!--MD5=[603f91c77aeeb81b8bb339fe7f288f7b]
class mastermind.models.Result--><rect codeLine="62" fill="#FEFECE" filter="url(#frm8l7wqxfubb)" height="112.0234" id="mastermind.models.Result" style="stroke:#A80036;stroke-width:1.5;" width="136" x="32" y="557.5"/><ellipse cx="77.75" cy="573.5" fill="#ADD1B2" rx="11" ry="11" style="stroke:#A80036;stroke-width:1.0;"/><path d="M80.0938,569.1719 C79.1563,568.7344 78.5625,568.5938 77.6875,568.5938 C75.0625,568.5938 73.0625,570.6719 73.0625,573.3906 L73.0625,574.5156 C73.0625,577.0938 75.1719,578.9844 78.0625,578.9844 C79.2813,578.9844 80.4375,578.6875 81.1875,578.1406 C81.7656,577.7344 82.0938,577.2813 82.0938,576.8906 C82.0938,576.4375 81.7031,576.0469 81.2344,576.0469 C81.0156,576.0469 80.8125,576.125 80.625,576.3125 C80.1719,576.7969 80.1719,576.7969 79.9844,576.8906 C79.5625,577.1563 78.875,577.2813 78.1094,577.2813 C76.0625,577.2813 74.7656,576.1875 74.7656,574.4844 L74.7656,573.3906 C74.7656,571.6094 76.0156,570.2969 77.75,570.2969 C78.3281,570.2969 78.9375,570.4531 79.4063,570.7031 C79.8906,570.9844 80.0625,571.2031 80.1563,571.6094 C80.2188,572.0156 80.25,572.1406 80.3906,572.2656 C80.5313,572.4063 80.7656,572.5156 80.9844,572.5156 C81.25,572.5156 81.5156,572.375 81.6875,572.1563 C81.7969,572 81.8281,571.8125 81.8281,571.3906 L81.8281,569.9688 C81.8281,569.5313 81.8125,569.4063 81.7188,569.25 C81.5625,568.9844 81.2813,568.8438 80.9844,568.8438 C80.6875,568.8438 80.4844,568.9375 80.2656,569.25 L80.0938,569.1719 Z " fill="#000000"/><text fill="#000000" font-family="sans-serif" font-size="12" lengthAdjust="spacingAndGlyphs" textLength="36" x="98.25" y="577.6543">Result</text><line style="stroke:#A80036;stroke-width:1.5;" x1="33" x2="167" y1="589.5" y2="589.5"/><rect fill="none" height="6" style="stroke:#C82930;stroke-width:1.0;" width="6" x="40" y="597.5"/><text fill="#000000" font-family="sans-serif" font-size="11" lengthAdjust="spacingAndGlyphs" textLength="56" x="52" y="603.7104">blacks: int</text><rect fill="none" height="6" style="stroke:#C82930;stroke-width:1.0;" width="6" x="40" y="610.3047"/><text fill="#000000" font-family="sans-serif" font-size="11" lengthAdjust="spacingAndGlyphs" textLength="58" x="52" y="616.5151">whites: int</text><line style="stroke:#A80036;stroke-width:1.5;" x1="33" x2="167" y1="623.1094" y2="623.1094"/><polygon fill="#4177AF" points="43,630.1094,39,636.1094,47,636.1094" style="stroke:#1963A0;stroke-width:1.0;"/><text fill="#000000" font-family="sans-serif" font-size="11" lengthAdjust="spacingAndGlyphs" textLength="78" x="52" y="637.3198">Result(int, int)</text><polygon fill="#4177AF" points="43,642.9141,39,648.9141,47,648.9141" style="stroke:#1963A0;stroke-width:1.0;"/><text fill="#000000" font-family="sans-serif" font-size="11" lengthAdjust="spacingAndGlyphs" textLength="110" x="52" y="650.1245">isWinner(): boolean</text><polygon fill="#4177AF" points="43,655.7188,39,661.7188,47,661.7188" style="stroke:#1963A0;stroke-width:1.0;"/><text fill="#000000" font-family="sans-serif" font-size="11" lengthAdjust="spacingAndGlyphs" textLength="92" x="52" y="662.9292">getCodes(): int[]</text><!--MD5=[ce8dc00f64766c3d9ddc5c23d11e019b]
class mastermind.models.ProposedCombination--><rect codeLine="51" fill="#FEFECE" filter="url(#frm8l7wqxfubb)" height="124.8281" id="mastermind.models.ProposedCombination" style="stroke:#A80036;stroke-width:1.5;" width="253" x="203.5" y="551"/><ellipse cx="259.75" cy="567" fill="#ADD1B2" rx="11" ry="11" style="stroke:#A80036;stroke-width:1.0;"/><path d="M262.0938,562.6719 C261.1563,562.2344 260.5625,562.0938 259.6875,562.0938 C257.0625,562.0938 255.0625,564.1719 255.0625,566.8906 L255.0625,568.0156 C255.0625,570.5938 257.1719,572.4844 260.0625,572.4844 C261.2813,572.4844 262.4375,572.1875 263.1875,571.6406 C263.7656,571.2344 264.0938,570.7813 264.0938,570.3906 C264.0938,569.9375 263.7031,569.5469 263.2344,569.5469 C263.0156,569.5469 262.8125,569.625 262.625,569.8125 C262.1719,570.2969 262.1719,570.2969 261.9844,570.3906 C261.5625,570.6563 260.875,570.7813 260.1094,570.7813 C258.0625,570.7813 256.7656,569.6875 256.7656,567.9844 L256.7656,566.8906 C256.7656,565.1094 258.0156,563.7969 259.75,563.7969 C260.3281,563.7969 260.9375,563.9531 261.4063,564.2031 C261.8906,564.4844 262.0625,564.7031 262.1563,565.1094 C262.2188,565.5156 262.25,565.6406 262.3906,565.7656 C262.5313,565.9063 262.7656,566.0156 262.9844,566.0156 C263.25,566.0156 263.5156,565.875 263.6875,565.6563 C263.7969,565.5 263.8281,565.3125 263.8281,564.8906 L263.8281,563.4688 C263.8281,563.0313 263.8125,562.9063 263.7188,562.75 C263.5625,562.4844 263.2813,562.3438 262.9844,562.3438 C262.6875,562.3438 262.4844,562.4375 262.2656,562.75 L262.0938,562.6719 Z " fill="#000000"/><text fill="#000000" font-family="sans-serif" font-size="12" lengthAdjust="spacingAndGlyphs" textLength="132" x="280.25" y="571.1543">ProposedCombination</text><line style="stroke:#A80036;stroke-width:1.5;" x1="204.5" x2="455.5" y1="583" y2="583"/><line style="stroke:#A80036;stroke-width:1.5;" x1="204.5" x2="455.5" y1="591" y2="591"/><ellipse cx="214.5" cy="602" fill="#84BE84" rx="3" ry="3" style="stroke:#038048;stroke-width:1.0;"/><text fill="#000000" font-family="sans-serif" font-size="11" lengthAdjust="spacingAndGlyphs" textLength="131" x="223.5" y="605.2104">ProposedCombination()</text><polygon fill="#4177AF" points="214.5,610.8047,210.5,616.8047,218.5,616.8047" style="stroke:#1963A0;stroke-width:1.0;"/><text fill="#000000" font-family="sans-serif" font-size="11" lengthAdjust="spacingAndGlyphs" textLength="137" x="223.5" y="618.0151">contains(Color): boolean</text><polygon fill="#4177AF" points="214.5,623.6094,210.5,629.6094,218.5,629.6094" style="stroke:#1963A0;stroke-width:1.0;"/><text fill="#000000" font-family="sans-serif" font-size="11" lengthAdjust="spacingAndGlyphs" textLength="158" x="223.5" y="630.8198">contains(Color, int): boolean</text><ellipse cx="214.5" cy="640.4141" fill="#84BE84" rx="3" ry="3" style="stroke:#038048;stroke-width:1.0;"/><text fill="#000000" font-family="sans-serif" font-size="11" lengthAdjust="spacingAndGlyphs" text-decoration="underline" textLength="227" x="223.5" y="643.6245">getInstance(int[]): ProposedCombination</text><ellipse cx="214.5" cy="653.2188" fill="#84BE84" rx="3" ry="3" style="stroke:#038048;stroke-width:1.0;"/><text fill="#000000" font-family="sans-serif" font-size="11" lengthAdjust="spacingAndGlyphs" text-decoration="underline" textLength="100" x="223.5" y="656.4292">isValid(int[]): Error</text><polygon fill="#4177AF" points="214.5,662.0234,210.5,668.0234,218.5,668.0234" style="stroke:#1963A0;stroke-width:1.0;"/><text fill="#000000" font-family="sans-serif" font-size="11" lengthAdjust="spacingAndGlyphs" textLength="92" x="223.5" y="669.2339">getCodes(): int[]</text><!--MD5=[6b7a9fc05e2cf62df8c1411c2048df3f]
class java.util.List--><rect fill="#FEFECE" filter="url(#frm8l7wqxfubb)" height="48" id="java.util.List" style="stroke:#A80036;stroke-width:1.5;" width="52" x="639" y="379"/><ellipse cx="654" cy="395" fill="#ADD1B2" rx="11" ry="11" style="stroke:#A80036;stroke-width:1.0;"/><path d="M656.3438,390.6719 C655.4063,390.2344 654.8125,390.0938 653.9375,390.0938 C651.3125,390.0938 649.3125,392.1719 649.3125,394.8906 L649.3125,396.0156 C649.3125,398.5938 651.4219,400.4844 654.3125,400.4844 C655.5313,400.4844 656.6875,400.1875 657.4375,399.6406 C658.0156,399.2344 658.3438,398.7813 658.3438,398.3906 C658.3438,397.9375 657.9531,397.5469 657.4844,397.5469 C657.2656,397.5469 657.0625,397.625 656.875,397.8125 C656.4219,398.2969 656.4219,398.2969 656.2344,398.3906 C655.8125,398.6563 655.125,398.7813 654.3594,398.7813 C652.3125,398.7813 651.0156,397.6875 651.0156,395.9844 L651.0156,394.8906 C651.0156,393.1094 652.2656,391.7969 654,391.7969 C654.5781,391.7969 655.1875,391.9531 655.6563,392.2031 C656.1406,392.4844 656.3125,392.7031 656.4063,393.1094 C656.4688,393.5156 656.5,393.6406 656.6406,393.7656 C656.7813,393.9063 657.0156,394.0156 657.2344,394.0156 C657.5,394.0156 657.7656,393.875 657.9375,393.6563 C658.0469,393.5 658.0781,393.3125 658.0781,392.8906 L658.0781,391.4688 C658.0781,391.0313 658.0625,390.9063 657.9688,390.75 C657.8125,390.4844 657.5313,390.3438 657.2344,390.3438 C656.9375,390.3438 656.7344,390.4375 656.5156,390.75 L656.3438,390.6719 Z " fill="#000000"/><text fill="#000000" font-family="sans-serif" font-size="12" lengthAdjust="spacingAndGlyphs" textLength="20" x="668" y="399.1543">List</text><line style="stroke:#A80036;stroke-width:1.5;" x1="640" x2="690" y1="411" y2="411"/><line style="stroke:#A80036;stroke-width:1.5;" x1="640" x2="690" y1="419" y2="419"/><!--MD5=[99e2525e256e9b321e06eb12de08589d]
link mastermind.models.Combination to java.util.List--><path codeLine="20" d="M527.4438,207.5772 C527.4438,207.5772 612.246,327.437 641.047,368.145 " fill="none" id="mastermind.models.Combination-java.util.List" style="stroke:#A80036;stroke-width:1.0;"/><polygon fill="#A80036" points="648.611,378.835,646.6777,369.1778,645.7229,374.7535,640.1472,373.7987,648.611,378.835" style="stroke:#A80036;stroke-width:1.0;"/><line style="stroke:#A80036;stroke-width:1.0;" x1="645.7229" x2="641.102" y1="374.7535" y2="368.223"/><polygon fill="#A80036" points="520.513,197.781,520.713,204.9893,527.4438,207.5772,527.2438,200.3688,520.513,197.781" style="stroke:#A80036;stroke-width:1.0;"/><!--MD5=[ef2bf6466fd2ef34b9ffecd6201583c7]
link mastermind.models.Combination to mastermind.models.Color--><path codeLine="21" d="M482.158,209.7571 C482.158,209.7571 478.264,271.323 476.326,301.973 " fill="none" id="mastermind.models.Combination-mastermind.models.Color" style="stroke:#A80036;stroke-width:1.0;"/><polygon fill="#A80036" points="475.505,314.954,480.0648,306.2243,475.8204,309.964,472.0807,305.7196,475.505,314.954" style="stroke:#A80036;stroke-width:1.0;"/><line style="stroke:#A80036;stroke-width:1.0;" x1="475.8204" x2="476.3255" y1="309.964" y2="301.98"/><polygon fill="#A80036" points="482.915,197.781,478.5445,203.5167,482.158,209.7571,486.5285,204.0214,482.915,197.781" style="stroke:#A80036;stroke-width:1.0;"/><!--MD5=[72c827c1cbe735fc2edd154dc7e7ce19]
link mastermind.models.Game to java.util.List--><path codeLine="46" d="M389.4915,249.4071 C389.4915,249.4071 398.256,253.382 402,255 C486.014,291.313 523.914,262.663 599,315 C618.393,328.517 634.552,349.506 646.027,367.481 " fill="none" id="mastermind.models.Game-java.util.List" style="stroke:#A80036;stroke-width:1.0;"/><polygon fill="#A80036" points="652.878,378.75,651.621,368.9817,650.2808,374.4775,644.785,373.1373,652.878,378.75" style="stroke:#A80036;stroke-width:1.0;"/><line style="stroke:#A80036;stroke-width:1.0;" x1="650.2808" x2="646.124" y1="374.4775" y2="367.6415"/><polygon fill="#A80036" points="378.625,244.316,382.3612,250.4837,389.4915,249.4071,385.7553,243.2394,378.625,244.316" style="stroke:#A80036;stroke-width:1.0;"/><!--MD5=[51d817dc75f97c6f89eda65baf901e9a]
link mastermind.models.Game to mastermind.models.SecretCombination--><path codeLine="47" d="M224.473,267.1711 C224.473,267.1711 228.348,328.441 229.882,352.691 " fill="none" id="mastermind.models.Game-mastermind.models.SecretCombination" style="stroke:#A80036;stroke-width:1.0;"/><polygon fill="#A80036" points="230.714,365.85,234.1384,356.6156,230.3986,360.86,226.1543,357.1202,230.714,365.85" style="stroke:#A80036;stroke-width:1.0;"/><line style="stroke:#A80036;stroke-width:1.0;" x1="230.3986" x2="229.893" y1="360.86" y2="352.876"/><polygon fill="#A80036" points="223.716,255.195,220.1025,261.4354,224.473,267.1711,228.0865,260.9307,223.716,255.195" style="stroke:#A80036;stroke-width:1.0;"/><!--MD5=[f3dfce6ee53d74daeb4523d26c9127c0]
link mastermind.models.Game to mastermind.models.Result--><path codeLine="48" d="M85.0403,264.5596 C85.0403,264.5596 63.0451,297.617 56,315 C25.6357,389.921 48.0964,483.041 70.5906,544.94 " fill="none" id="mastermind.models.Game-mastermind.models.Result" style="stroke:#A80036;stroke-width:1.0;"/><polygon fill="#A80036" points="75.2229,557.273,75.8026,547.4412,73.4647,552.5923,68.3136,550.2544,75.2229,557.273" style="stroke:#A80036;stroke-width:1.0;"/><line style="stroke:#A80036;stroke-width:1.0;" x1="73.4647" x2="70.6517" y1="552.5923" y2="545.103"/><polygon fill="#A80036" points="92.358,255.049,85.529,257.3651,85.0403,264.5596,91.8694,262.2435,92.358,255.049" style="stroke:#A80036;stroke-width:1.0;"/><!--MD5=[0bfb87d985ab5751d2f1c815e30e0bc2]
link mastermind.models.Game to mastermind.models.ProposedCombination--><path codeLine="49" d="M119.493,255.106 C106.996,273.898 96.1018,294.16 89,315 C63.7689,389.041 47.9865,424.392 89,491 C96.1097,502.547 146.065,528.493 198.665,553.456 " fill="none" id="mastermind.models.Game-to-mastermind.models.ProposedCombination" style="stroke:#A80036;stroke-width:1.0;"/><polygon fill="#A80036" points="203.433,555.713,197.0103,548.2465,198.9139,553.5734,193.587,555.477,203.433,555.713" style="stroke:#A80036;stroke-width:1.0;"/><!--MD5=[7b29684056909414a3cc5ff3d855d9cb]
reverse link mastermind.models.Combination to mastermind.models.ProposedCombination--><path codeLine="59" d="M527.829,215.046 C567.888,287.529 615.143,405.002 563,491 C539.11,530.4 497.803,557.623 456.541,576.145 " fill="none" id="mastermind.models.Combination-backto-mastermind.models.ProposedCombination" style="stroke:#A80036;stroke-width:1.0;"/><polygon fill="none" points="521.723,218.469,517.865,197.634,533.874,211.515,521.723,218.469" style="stroke:#A80036;stroke-width:1.0;"/><!--MD5=[ade6e74b660bcc3c74e70abb8c2e26de]
link mastermind.models.ProposedCombination to mastermind.models.Error--><path codeLine="60" d="M330,676.231 C330,693.799 330,712.912 330,730.411 " fill="none" id="mastermind.models.ProposedCombination-to-mastermind.models.Error" style="stroke:#A80036;stroke-width:1.0;stroke-dasharray:7.0,7.0;"/><polygon fill="#A80036" points="330,735.786,334,726.786,330,730.786,326,726.786,330,735.786" style="stroke:#A80036;stroke-width:1.0;"/><!--MD5=[8b7fe5937727b3f2af2b7e0c077d6894]
reverse link mastermind.models.Combination to mastermind.models.SecretCombination--><path codeLine="74" d="M433.829,213.237 C421.75,227.312 408.705,241.91 396,255 C357.384,294.787 310.01,336.833 276.306,365.718 " fill="none" id="mastermind.models.Combination-backto-mastermind.models.SecretCombination" style="stroke:#A80036;stroke-width:1.0;"/><polygon fill="none" points="428.727,208.43,446.986,197.677,439.418,217.469,428.727,208.43" style="stroke:#A80036;stroke-width:1.0;"/><!--MD5=[608050f9e03cd77b6b0a92b040850965]
link mastermind.models.SecretCombination to mastermind.models.Result--><path codeLine="75" d="M209.833,440.318 C190.023,471.374 161.125,516.676 137.943,553.018 " fill="none" id="mastermind.models.SecretCombination-to-mastermind.models.Result" style="stroke:#A80036;stroke-width:1.0;stroke-dasharray:7.0,7.0;"/><polygon fill="#A80036" points="135.145,557.404,143.3569,551.9666,137.8335,553.1883,136.6118,547.665,135.145,557.404" style="stroke:#A80036;stroke-width:1.0;"/><!--MD5=[54781d8fdb284276f9889310d1de69a6]
link mastermind.models.SecretCombination to mastermind.models.ProposedCombination--><path codeLine="76" d="M249.896,440.318 C263.454,469.461 282.849,511.15 299.158,546.206 " fill="none" id="mastermind.models.SecretCombination-to-mastermind.models.ProposedCombination" style="stroke:#A80036;stroke-width:1.0;stroke-dasharray:7.0,7.0;"/><polygon fill="#A80036" points="301.336,550.886,301.1668,541.0386,299.2271,546.3525,293.9132,544.4128,301.336,550.886" style="stroke:#A80036;stroke-width:1.0;"/><!--MD5=[f7d2115585fce03aa4bc2b493f03f37f]
@startuml
class  mastermind.models.Color{
+ {static} RED: Color
+ {static} BLUE: Color
+ {static} YELLOW: Color
+ {static} GREEN: Color
+ {static} ORANGE: Color
+ {static} PURPLE: Color
- Color()
+ {static} valueOf(String): Color
~ {static} length(): int
~ {static} getInstance(int): Color
}

class  mastermind.models.Combination{
- {static} WIDTH: int
# colors: List<Color>
# Combination()
+ {static} getWidth(): int
}
mastermind.models.Combination *-down-> java.util.List
mastermind.models.Combination *-down-> mastermind.models.Color

class  mastermind.models.Error{
+ {static} DUPLICATED: Error
+ {static} WRONG_CHARACTERS: Error
+ {static} WRONG_LENGTH: Error
- Error()
+ {static} valueOf(String): Error
}

class  mastermind.models.Game{
- {static} MAX_LONG: int
- secretCombination: SecretCombination
- proposedCombinations: List<ProposedCombination>
- results: List<Result>
- turn: int
+ Game()
+ clear(): void
+ proposeCombination(ProposedCombination): void
+ getTurn(): int
+ isLooser(): boolean
+ getWidth(): int
+ isWinner(): boolean
+ getCodes(): int[][][]
}
mastermind.models.Game *-down-> java.util.List
mastermind.models.Game *-down-> mastermind.models.SecretCombination
mastermind.models.Game *-down-> mastermind.models.Result
mastermind.models.Game - -> mastermind.models.ProposedCombination

class  mastermind.models.ProposedCombination{
+ ProposedCombination()
~ contains(Color): boolean
~ contains(Color, int): boolean
+ {static} getInstance(int[]): ProposedCombination
+ {static} isValid(int[]): Error
~ getCodes(): int[]
}
mastermind.models.Combination <|-down- mastermind.models.ProposedCombination
mastermind.models.ProposedCombination ..> mastermind.models.Error

class  mastermind.models.Result{
- blacks: int
- whites: int
~ Result(int, int)
~ isWinner(): boolean
~ getCodes(): int[]
}

class  mastermind.models.SecretCombination{
~ SecretCombination()
~ getResult(ProposedCombination): Result
}
mastermind.models.Combination <|-down- mastermind.models.SecretCombination
mastermind.models.SecretCombination ..> mastermind.models.Result
mastermind.models.SecretCombination ..> mastermind.models.ProposedCombination
@enduml

PlantUML version 1.2020.21beta3(Unknown compile time)
(GPL source distribution)
Java Runtime: Java(TM) SE Runtime Environment
JVM: Java HotSpot(TM) 64-Bit Server VM
Default Encoding: UTF-8
Language: en
Country: US
--></g></svg>