<?xml version="1.0" encoding="UTF-8" standalone="no"?><svg xmlns="http://www.w3.org/2000/svg" xmlns:xlink="http://www.w3.org/1999/xlink" contentScriptType="application/ecmascript" contentStyleType="text/css" height="463px" preserveAspectRatio="none" style="width:854px;height:463px;" version="1.1" viewBox="0 0 854 463" width="854px" zoomAndPan="magnify"><defs><filter height="300%" id="f1xiwfo6edgfsj" width="300%" x="-1" y="-1"><feGaussianBlur result="blurOut" stdDeviation="2.0"/><feColorMatrix in="blurOut" result="blurOut2" type="matrix" values="0 0 0 0 0 0 0 0 0 0 0 0 0 0 0 0 0 0 .4 0"/><feOffset dx="4.0" dy="4.0" in="blurOut2" result="blurOut3"/><feBlend in="SourceGraphic" in2="blurOut3" mode="normal"/></filter></defs><g><!--MD5=[f4a8416df5d5f7c80a7d3a30f9e0f7a6]
cluster mastermind.controllers--><polygon fill="#FFFFFF" filter="url(#f1xiwfo6edgfsj)" points="16,6,214,6,221,28.2969,636,28.2969,636,456,16,456,16,6" style="stroke:#000000;stroke-width:1.5;"/><line style="stroke:#000000;stroke-width:1.5;" x1="16" x2="221" y1="28.2969" y2="28.2969"/><text fill="#000000" font-family="sans-serif" font-size="14" font-weight="bold" lengthAdjust="spacingAndGlyphs" textLength="192" x="20" y="20.9951">mastermind.controllers</text><!--MD5=[8e0b9655f0966c29230933410523611d]
cluster mastermind.models--><polygon fill="#FFFFFF" filter="url(#f1xiwfo6edgfsj)" points="660,318.5,827,318.5,834,340.7969,837,340.7969,837,417.5,660,417.5,660,318.5" style="stroke:#000000;stroke-width:1.5;"/><line style="stroke:#000000;stroke-width:1.5;" x1="660" x2="834" y1="340.7969" y2="340.7969"/><text fill="#000000" font-family="sans-serif" font-size="14" font-weight="bold" lengthAdjust="spacingAndGlyphs" textLength="161" x="664" y="333.4951">mastermind.models</text><!--MD5=[1d24f39eb668951ebcebc2fa16f89b43]
class mastermind.controllers.Controller--><rect codeLine="1" fill="#FEFECE" filter="url(#f1xiwfo6edgfsj)" height="73.6094" id="mastermind.controllers.Controller" style="stroke:#A80036;stroke-width:1.5;" width="124" x="471" y="111"/><ellipse cx="500.85" cy="127" fill="#ADD1B2" rx="11" ry="11" style="stroke:#A80036;stroke-width:1.0;"/><path d="M503.1938,122.6719 C502.2563,122.2344 501.6625,122.0938 500.7875,122.0938 C498.1625,122.0938 496.1625,124.1719 496.1625,126.8906 L496.1625,128.0156 C496.1625,130.5938 498.2719,132.4844 501.1625,132.4844 C502.3813,132.4844 503.5375,132.1875 504.2875,131.6406 C504.8656,131.2344 505.1938,130.7813 505.1938,130.3906 C505.1938,129.9375 504.8031,129.5469 504.3344,129.5469 C504.1156,129.5469 503.9125,129.625 503.725,129.8125 C503.2719,130.2969 503.2719,130.2969 503.0844,130.3906 C502.6625,130.6563 501.975,130.7813 501.2094,130.7813 C499.1625,130.7813 497.8656,129.6875 497.8656,127.9844 L497.8656,126.8906 C497.8656,125.1094 499.1156,123.7969 500.85,123.7969 C501.4281,123.7969 502.0375,123.9531 502.5063,124.2031 C502.9906,124.4844 503.1625,124.7031 503.2563,125.1094 C503.3188,125.5156 503.35,125.6406 503.4906,125.7656 C503.6313,125.9063 503.8656,126.0156 504.0844,126.0156 C504.35,126.0156 504.6156,125.875 504.7875,125.6563 C504.8969,125.5 504.9281,125.3125 504.9281,124.8906 L504.9281,123.4688 C504.9281,123.0313 504.9125,122.9063 504.8188,122.75 C504.6625,122.4844 504.3813,122.3438 504.0844,122.3438 C503.7875,122.3438 503.5844,122.4375 503.3656,122.75 L503.1938,122.6719 Z " fill="#000000"/><text fill="#000000" font-family="sans-serif" font-size="12" lengthAdjust="spacingAndGlyphs" textLength="59" x="518.15" y="131.1543">Controller</text><line style="stroke:#A80036;stroke-width:1.5;" x1="472" x2="594" y1="143" y2="143"/><polygon fill="none" points="482,149,486,153,482,157,478,153" style="stroke:#B38D22;stroke-width:1.0;"/><text fill="#000000" font-family="sans-serif" font-size="11" lengthAdjust="spacingAndGlyphs" textLength="75" x="491" y="157.2104">game: Game</text><line style="stroke:#A80036;stroke-width:1.5;" x1="472" x2="594" y1="163.8047" y2="163.8047"/><polygon fill="#4177AF" points="482,170.8047,478,176.8047,486,176.8047" style="stroke:#1963A0;stroke-width:1.0;"/><text fill="#000000" font-family="sans-serif" font-size="11" lengthAdjust="spacingAndGlyphs" textLength="98" x="491" y="178.0151">Controller(Game)</text><!--MD5=[23fa68f5dd51b02db50930b64c1246c4]
class mastermind.controllers.Logic--><rect codeLine="7" fill="#FEFECE" filter="url(#f1xiwfo6edgfsj)" height="214.4609" id="mastermind.controllers.Logic" style="stroke:#A80036;stroke-width:1.5;" width="238" x="197" y="41"/><ellipse cx="295.75" cy="57" fill="#ADD1B2" rx="11" ry="11" style="stroke:#A80036;stroke-width:1.0;"/><path d="M298.0938,52.6719 C297.1563,52.2344 296.5625,52.0938 295.6875,52.0938 C293.0625,52.0938 291.0625,54.1719 291.0625,56.8906 L291.0625,58.0156 C291.0625,60.5938 293.1719,62.4844 296.0625,62.4844 C297.2813,62.4844 298.4375,62.1875 299.1875,61.6406 C299.7656,61.2344 300.0938,60.7813 300.0938,60.3906 C300.0938,59.9375 299.7031,59.5469 299.2344,59.5469 C299.0156,59.5469 298.8125,59.625 298.625,59.8125 C298.1719,60.2969 298.1719,60.2969 297.9844,60.3906 C297.5625,60.6563 296.875,60.7813 296.1094,60.7813 C294.0625,60.7813 292.7656,59.6875 292.7656,57.9844 L292.7656,56.8906 C292.7656,55.1094 294.0156,53.7969 295.75,53.7969 C296.3281,53.7969 296.9375,53.9531 297.4063,54.2031 C297.8906,54.4844 298.0625,54.7031 298.1563,55.1094 C298.2188,55.5156 298.25,55.6406 298.3906,55.7656 C298.5313,55.9063 298.7656,56.0156 298.9844,56.0156 C299.25,56.0156 299.5156,55.875 299.6875,55.6563 C299.7969,55.5 299.8281,55.3125 299.8281,54.8906 L299.8281,53.4688 C299.8281,53.0313 299.8125,52.9063 299.7188,52.75 C299.5625,52.4844 299.2813,52.3438 298.9844,52.3438 C298.6875,52.3438 298.4844,52.4375 298.2656,52.75 L298.0938,52.6719 Z " fill="#000000"/><text fill="#000000" font-family="sans-serif" font-size="12" lengthAdjust="spacingAndGlyphs" textLength="32" x="316.25" y="61.1543">Logic</text><line style="stroke:#A80036;stroke-width:1.5;" x1="198" x2="434" y1="73" y2="73"/><ellipse cx="208" cy="84" fill="none" rx="3" ry="3" style="stroke:#038048;stroke-width:1.0;"/><text fill="#000000" font-family="sans-serif" font-size="11" lengthAdjust="spacingAndGlyphs" text-decoration="underline" textLength="81" x="217" y="87.2104">NO_ERROR: int</text><rect fill="none" height="6" style="stroke:#C82930;stroke-width:1.0;" width="6" x="205" y="93.8047"/><text fill="#000000" font-family="sans-serif" font-size="11" lengthAdjust="spacingAndGlyphs" textLength="75" x="217" y="100.0151">game: Game</text><rect fill="none" height="6" style="stroke:#C82930;stroke-width:1.0;" width="6" x="205" y="106.6094"/><text fill="#000000" font-family="sans-serif" font-size="11" lengthAdjust="spacingAndGlyphs" textLength="169" x="217" y="112.8198">startController: StartController</text><rect fill="none" height="6" style="stroke:#C82930;stroke-width:1.0;" width="6" x="205" y="119.4141"/><text fill="#000000" font-family="sans-serif" font-size="11" lengthAdjust="spacingAndGlyphs" textLength="212" x="217" y="125.6245">proposalController: ProposalController</text><rect fill="none" height="6" style="stroke:#C82930;stroke-width:1.0;" width="6" x="205" y="132.2188"/><text fill="#000000" font-family="sans-serif" font-size="11" lengthAdjust="spacingAndGlyphs" textLength="208" x="217" y="138.4292">resumeController: ResumeController</text><line style="stroke:#A80036;stroke-width:1.5;" x1="198" x2="434" y1="145.0234" y2="145.0234"/><ellipse cx="208" cy="156.0234" fill="#84BE84" rx="3" ry="3" style="stroke:#038048;stroke-width:1.0;"/><text fill="#000000" font-family="sans-serif" font-size="11" lengthAdjust="spacingAndGlyphs" textLength="37" x="217" y="159.2339">Logic()</text><ellipse cx="208" cy="168.8281" fill="#84BE84" rx="3" ry="3" style="stroke:#038048;stroke-width:1.0;"/><text fill="#000000" font-family="sans-serif" font-size="11" lengthAdjust="spacingAndGlyphs" textLength="129" x="217" y="172.0386">resume(boolean): void</text><ellipse cx="208" cy="181.6328" fill="#84BE84" rx="3" ry="3" style="stroke:#038048;stroke-width:1.0;"/><text fill="#000000" font-family="sans-serif" font-size="11" lengthAdjust="spacingAndGlyphs" textLength="168" x="217" y="184.8433">proposeCombination(int[]): int</text><ellipse cx="208" cy="194.4375" fill="#84BE84" rx="3" ry="3" style="stroke:#038048;stroke-width:1.0;"/><text fill="#000000" font-family="sans-serif" font-size="11" lengthAdjust="spacingAndGlyphs" textLength="122" x="217" y="197.6479">getAllCodes(): int[][][]</text><ellipse cx="208" cy="207.2422" fill="#84BE84" rx="3" ry="3" style="stroke:#038048;stroke-width:1.0;"/><text fill="#000000" font-family="sans-serif" font-size="11" lengthAdjust="spacingAndGlyphs" textLength="110" x="217" y="210.4526">isWinner(): boolean</text><ellipse cx="208" cy="220.0469" fill="#84BE84" rx="3" ry="3" style="stroke:#038048;stroke-width:1.0;"/><text fill="#000000" font-family="sans-serif" font-size="11" lengthAdjust="spacingAndGlyphs" textLength="73" x="217" y="223.2573">getTurn(): int</text><ellipse cx="208" cy="232.8516" fill="#84BE84" rx="3" ry="3" style="stroke:#038048;stroke-width:1.0;"/><text fill="#000000" font-family="sans-serif" font-size="11" lengthAdjust="spacingAndGlyphs" textLength="80" x="217" y="236.062">getWidth(): int</text><ellipse cx="208" cy="245.6563" fill="#84BE84" rx="3" ry="3" style="stroke:#038048;stroke-width:1.0;"/><text fill="#000000" font-family="sans-serif" font-size="11" lengthAdjust="spacingAndGlyphs" textLength="108" x="217" y="248.8667">isLooser(): boolean</text><!--MD5=[d9d5430157ad572c27b2bdfc27cdb4ea]
class mastermind.controllers.ResumeController--><rect codeLine="37" fill="#FEFECE" filter="url(#f1xiwfo6edgfsj)" height="73.6094" id="mastermind.controllers.ResumeController" style="stroke:#A80036;stroke-width:1.5;" width="171" x="448.5" y="340.5"/><ellipse cx="477.9" cy="356.5" fill="#ADD1B2" rx="11" ry="11" style="stroke:#A80036;stroke-width:1.0;"/><path d="M480.2438,352.1719 C479.3063,351.7344 478.7125,351.5938 477.8375,351.5938 C475.2125,351.5938 473.2125,353.6719 473.2125,356.3906 L473.2125,357.5156 C473.2125,360.0938 475.3219,361.9844 478.2125,361.9844 C479.4313,361.9844 480.5875,361.6875 481.3375,361.1406 C481.9156,360.7344 482.2438,360.2813 482.2438,359.8906 C482.2438,359.4375 481.8531,359.0469 481.3844,359.0469 C481.1656,359.0469 480.9625,359.125 480.775,359.3125 C480.3219,359.7969 480.3219,359.7969 480.1344,359.8906 C479.7125,360.1563 479.025,360.2813 478.2594,360.2813 C476.2125,360.2813 474.9156,359.1875 474.9156,357.4844 L474.9156,356.3906 C474.9156,354.6094 476.1656,353.2969 477.9,353.2969 C478.4781,353.2969 479.0875,353.4531 479.5563,353.7031 C480.0406,353.9844 480.2125,354.2031 480.3063,354.6094 C480.3688,355.0156 480.4,355.1406 480.5406,355.2656 C480.6813,355.4063 480.9156,355.5156 481.1344,355.5156 C481.4,355.5156 481.6656,355.375 481.8375,355.1563 C481.9469,355 481.9781,354.8125 481.9781,354.3906 L481.9781,352.9688 C481.9781,352.5313 481.9625,352.4063 481.8688,352.25 C481.7125,351.9844 481.4313,351.8438 481.1344,351.8438 C480.8375,351.8438 480.6344,351.9375 480.4156,352.25 L480.2438,352.1719 Z " fill="#000000"/><text fill="#000000" font-family="sans-serif" font-size="12" lengthAdjust="spacingAndGlyphs" textLength="107" x="495.1" y="360.6543">ResumeController</text><line style="stroke:#A80036;stroke-width:1.5;" x1="449.5" x2="618.5" y1="372.5" y2="372.5"/><line style="stroke:#A80036;stroke-width:1.5;" x1="449.5" x2="618.5" y1="380.5" y2="380.5"/><polygon fill="#4177AF" points="459.5,387.5,455.5,393.5,463.5,393.5" style="stroke:#1963A0;stroke-width:1.0;"/><text fill="#000000" font-family="sans-serif" font-size="11" lengthAdjust="spacingAndGlyphs" textLength="145" x="468.5" y="394.7104">ResumeController(Game)</text><polygon fill="#4177AF" points="459.5,400.3047,455.5,406.3047,463.5,406.3047" style="stroke:#1963A0;stroke-width:1.0;"/><text fill="#000000" font-family="sans-serif" font-size="11" lengthAdjust="spacingAndGlyphs" textLength="129" x="468.5" y="407.5151">resume(boolean): void</text><!--MD5=[ef6fc8a83c8eb455c00aa47991605c31]
class mastermind.controllers.StartController--><rect codeLine="43" fill="#FEFECE" filter="url(#f1xiwfo6edgfsj)" height="73.6094" id="mastermind.controllers.StartController" style="stroke:#A80036;stroke-width:1.5;" width="151" x="32.5" y="340.5"/><ellipse cx="61.9" cy="356.5" fill="#ADD1B2" rx="11" ry="11" style="stroke:#A80036;stroke-width:1.0;"/><path d="M64.2438,352.1719 C63.3063,351.7344 62.7125,351.5938 61.8375,351.5938 C59.2125,351.5938 57.2125,353.6719 57.2125,356.3906 L57.2125,357.5156 C57.2125,360.0938 59.3219,361.9844 62.2125,361.9844 C63.4313,361.9844 64.5875,361.6875 65.3375,361.1406 C65.9156,360.7344 66.2438,360.2813 66.2438,359.8906 C66.2438,359.4375 65.8531,359.0469 65.3844,359.0469 C65.1656,359.0469 64.9625,359.125 64.775,359.3125 C64.3219,359.7969 64.3219,359.7969 64.1344,359.8906 C63.7125,360.1563 63.025,360.2813 62.2594,360.2813 C60.2125,360.2813 58.9156,359.1875 58.9156,357.4844 L58.9156,356.3906 C58.9156,354.6094 60.1656,353.2969 61.9,353.2969 C62.4781,353.2969 63.0875,353.4531 63.5563,353.7031 C64.0406,353.9844 64.2125,354.2031 64.3063,354.6094 C64.3688,355.0156 64.4,355.1406 64.5406,355.2656 C64.6813,355.4063 64.9156,355.5156 65.1344,355.5156 C65.4,355.5156 65.6656,355.375 65.8375,355.1563 C65.9469,355 65.9781,354.8125 65.9781,354.3906 L65.9781,352.9688 C65.9781,352.5313 65.9625,352.4063 65.8688,352.25 C65.7125,351.9844 65.4313,351.8438 65.1344,351.8438 C64.8375,351.8438 64.6344,351.9375 64.4156,352.25 L64.2438,352.1719 Z " fill="#000000"/><text fill="#000000" font-family="sans-serif" font-size="12" lengthAdjust="spacingAndGlyphs" textLength="87" x="79.1" y="360.6543">StartController</text><line style="stroke:#A80036;stroke-width:1.5;" x1="33.5" x2="182.5" y1="372.5" y2="372.5"/><line style="stroke:#A80036;stroke-width:1.5;" x1="33.5" x2="182.5" y1="380.5" y2="380.5"/><ellipse cx="43.5" cy="391.5" fill="#84BE84" rx="3" ry="3" style="stroke:#038048;stroke-width:1.0;"/><text fill="#000000" font-family="sans-serif" font-size="11" lengthAdjust="spacingAndGlyphs" textLength="125" x="52.5" y="394.7104">StartController(Game)</text><polygon fill="#4177AF" points="43.5,400.3047,39.5,406.3047,47.5,406.3047" style="stroke:#1963A0;stroke-width:1.0;"/><text fill="#000000" font-family="sans-serif" font-size="11" lengthAdjust="spacingAndGlyphs" textLength="80" x="52.5" y="407.5151">getWidth(): int</text><!--MD5=[f38ac43e4fc72409b23abc1f12dd68ae]
class mastermind.controllers.ProposalController--><rect codeLine="27" fill="#FEFECE" filter="url(#f1xiwfo6edgfsj)" height="124.8281" id="mastermind.controllers.ProposalController" style="stroke:#A80036;stroke-width:1.5;" width="194" x="219" y="315"/><ellipse cx="256.95" cy="331" fill="#ADD1B2" rx="11" ry="11" style="stroke:#A80036;stroke-width:1.0;"/><path d="M259.2938,326.6719 C258.3563,326.2344 257.7625,326.0938 256.8875,326.0938 C254.2625,326.0938 252.2625,328.1719 252.2625,330.8906 L252.2625,332.0156 C252.2625,334.5938 254.3719,336.4844 257.2625,336.4844 C258.4813,336.4844 259.6375,336.1875 260.3875,335.6406 C260.9656,335.2344 261.2938,334.7813 261.2938,334.3906 C261.2938,333.9375 260.9031,333.5469 260.4344,333.5469 C260.2156,333.5469 260.0125,333.625 259.825,333.8125 C259.3719,334.2969 259.3719,334.2969 259.1844,334.3906 C258.7625,334.6563 258.075,334.7813 257.3094,334.7813 C255.2625,334.7813 253.9656,333.6875 253.9656,331.9844 L253.9656,330.8906 C253.9656,329.1094 255.2156,327.7969 256.95,327.7969 C257.5281,327.7969 258.1375,327.9531 258.6063,328.2031 C259.0906,328.4844 259.2625,328.7031 259.3563,329.1094 C259.4188,329.5156 259.45,329.6406 259.5906,329.7656 C259.7313,329.9063 259.9656,330.0156 260.1844,330.0156 C260.45,330.0156 260.7156,329.875 260.8875,329.6563 C260.9969,329.5 261.0281,329.3125 261.0281,328.8906 L261.0281,327.4688 C261.0281,327.0313 261.0125,326.9063 260.9188,326.75 C260.7625,326.4844 260.4813,326.3438 260.1844,326.3438 C259.8875,326.3438 259.6844,326.4375 259.4656,326.75 L259.2938,326.6719 Z " fill="#000000"/><text fill="#000000" font-family="sans-serif" font-size="12" lengthAdjust="spacingAndGlyphs" textLength="111" x="276.05" y="335.1543">ProposalController</text><line style="stroke:#A80036;stroke-width:1.5;" x1="220" x2="412" y1="347" y2="347"/><line style="stroke:#A80036;stroke-width:1.5;" x1="220" x2="412" y1="355" y2="355"/><polygon fill="#4177AF" points="230,362,226,368,234,368" style="stroke:#1963A0;stroke-width:1.0;"/><text fill="#000000" font-family="sans-serif" font-size="11" lengthAdjust="spacingAndGlyphs" textLength="145" x="239" y="369.2104">ProposalController(Game)</text><polygon fill="#4177AF" points="230,374.8047,226,380.8047,234,380.8047" style="stroke:#1963A0;stroke-width:1.0;"/><text fill="#000000" font-family="sans-serif" font-size="11" lengthAdjust="spacingAndGlyphs" textLength="168" x="239" y="382.0151">proposeCombination(int[]): int</text><polygon fill="#4177AF" points="230,387.6094,226,393.6094,234,393.6094" style="stroke:#1963A0;stroke-width:1.0;"/><text fill="#000000" font-family="sans-serif" font-size="11" lengthAdjust="spacingAndGlyphs" textLength="122" x="239" y="394.8198">getAllCodes(): int[][][]</text><polygon fill="#4177AF" points="230,400.4141,226,406.4141,234,406.4141" style="stroke:#1963A0;stroke-width:1.0;"/><text fill="#000000" font-family="sans-serif" font-size="11" lengthAdjust="spacingAndGlyphs" textLength="110" x="239" y="407.6245">isWinner(): boolean</text><polygon fill="#4177AF" points="230,413.2188,226,419.2188,234,419.2188" style="stroke:#1963A0;stroke-width:1.0;"/><text fill="#000000" font-family="sans-serif" font-size="11" lengthAdjust="spacingAndGlyphs" textLength="73" x="239" y="420.4292">getTurn(): int</text><polygon fill="#4177AF" points="230,426.0234,226,432.0234,234,432.0234" style="stroke:#1963A0;stroke-width:1.0;"/><text fill="#000000" font-family="sans-serif" font-size="11" lengthAdjust="spacingAndGlyphs" textLength="108" x="239" y="433.2339">isLooser(): boolean</text><!--MD5=[5e669b60aaac1a014a32b452096260f0]
class mastermind.models.Game--><rect fill="#FEFECE" filter="url(#f1xiwfo6edgfsj)" height="48" id="mastermind.models.Game" style="stroke:#A80036;stroke-width:1.5;" width="67" x="676.5" y="353.5"/><ellipse cx="691.5" cy="369.5" fill="#ADD1B2" rx="11" ry="11" style="stroke:#A80036;stroke-width:1.0;"/><path d="M693.8438,365.1719 C692.9063,364.7344 692.3125,364.5938 691.4375,364.5938 C688.8125,364.5938 686.8125,366.6719 686.8125,369.3906 L686.8125,370.5156 C686.8125,373.0938 688.9219,374.9844 691.8125,374.9844 C693.0313,374.9844 694.1875,374.6875 694.9375,374.1406 C695.5156,373.7344 695.8438,373.2813 695.8438,372.8906 C695.8438,372.4375 695.4531,372.0469 694.9844,372.0469 C694.7656,372.0469 694.5625,372.125 694.375,372.3125 C693.9219,372.7969 693.9219,372.7969 693.7344,372.8906 C693.3125,373.1563 692.625,373.2813 691.8594,373.2813 C689.8125,373.2813 688.5156,372.1875 688.5156,370.4844 L688.5156,369.3906 C688.5156,367.6094 689.7656,366.2969 691.5,366.2969 C692.0781,366.2969 692.6875,366.4531 693.1563,366.7031 C693.6406,366.9844 693.8125,367.2031 693.9063,367.6094 C693.9688,368.0156 694,368.1406 694.1406,368.2656 C694.2813,368.4063 694.5156,368.5156 694.7344,368.5156 C695,368.5156 695.2656,368.375 695.4375,368.1563 C695.5469,368 695.5781,367.8125 695.5781,367.3906 L695.5781,365.9688 C695.5781,365.5313 695.5625,365.4063 695.4688,365.25 C695.3125,364.9844 695.0313,364.8438 694.7344,364.8438 C694.4375,364.8438 694.2344,364.9375 694.0156,365.25 L693.8438,365.1719 Z " fill="#000000"/><text fill="#000000" font-family="sans-serif" font-size="12" lengthAdjust="spacingAndGlyphs" textLength="35" x="705.5" y="373.6543">Game</text><line style="stroke:#A80036;stroke-width:1.5;" x1="677.5" x2="742.5" y1="385.5" y2="385.5"/><line style="stroke:#A80036;stroke-width:1.5;" x1="677.5" x2="742.5" y1="393.5" y2="393.5"/><!--MD5=[59770c5598a7a214fb4da9d6a9f752ad]
link mastermind.controllers.Controller to mastermind.models.Game--><path codeLine="5" d="M561.046,185.048 C596.576,230.714 657.005,308.385 688.878,349.352 " fill="none" id="mastermind.controllers.Controller-to-mastermind.models.Game" style="stroke:#A80036;stroke-width:1.0;"/><polygon fill="#A80036" points="692.059,353.44,689.6909,343.8801,688.9893,349.4932,683.3761,348.7916,692.059,353.44" style="stroke:#A80036;stroke-width:1.0;"/><!--MD5=[ee6880a2a5bda36b4248be87bc3725a0]
link mastermind.controllers.Logic to mastermind.controllers.ResumeController--><path codeLine="22" d="M425.962,263.7547 C425.962,263.7547 471.973,311.77 490.436,331.037 " fill="none" id="mastermind.controllers.Logic-mastermind.controllers.ResumeController" style="stroke:#A80036;stroke-width:1.0;"/><polygon fill="#A80036" points="499.434,340.428,496.095,331.1624,495.9745,336.818,490.319,336.6975,499.434,340.428" style="stroke:#A80036;stroke-width:1.0;"/><line style="stroke:#A80036;stroke-width:1.0;" x1="495.9745" x2="490.44" y1="336.818" y2="331.042"/><polygon fill="#A80036" points="417.66,255.09,418.9228,262.1897,425.962,263.7547,424.6992,256.655,417.66,255.09" style="stroke:#A80036;stroke-width:1.0;"/><!--MD5=[353987e1584d43f67cb2d9d2e56575f1]
link mastermind.controllers.Logic to mastermind.controllers.StartController--><path codeLine="23" d="M210.906,263.9466 C210.906,263.9466 167.377,311.556 149.808,330.773 " fill="none" id="mastermind.controllers.Logic-mastermind.controllers.StartController" style="stroke:#A80036;stroke-width:1.0;"/><polygon fill="#A80036" points="140.98,340.428,150.0052,336.4853,144.354,336.738,144.1013,331.0868,140.98,340.428" style="stroke:#A80036;stroke-width:1.0;"/><line style="stroke:#A80036;stroke-width:1.0;" x1="144.354" x2="149.752" y1="336.738" y2="330.8335"/><polygon fill="#A80036" points="219.003,255.09,212.0023,256.8193,210.906,263.9466,217.9067,262.2173,219.003,255.09" style="stroke:#A80036;stroke-width:1.0;"/><!--MD5=[7108d6589ff800bd5e725443db89e985]
link mastermind.controllers.Logic to mastermind.controllers.ProposalController--><path codeLine="24" d="M316,267.09 C316,267.09 316,291.035 316,301.71 " fill="none" id="mastermind.controllers.Logic-mastermind.controllers.ProposalController" style="stroke:#A80036;stroke-width:1.0;"/><polygon fill="#A80036" points="316,314.921,320,305.921,316,309.921,312,305.921,316,314.921" style="stroke:#A80036;stroke-width:1.0;"/><line style="stroke:#A80036;stroke-width:1.0;" x1="316" x2="316" y1="309.921" y2="301.921"/><polygon fill="#A80036" points="316,255.09,312,261.09,316,267.09,320,261.09,316,255.09" style="stroke:#A80036;stroke-width:1.0;"/><!--MD5=[1362c68a077cf7f69106526d0b29b97f]
link mastermind.controllers.Logic to mastermind.models.Game--><path codeLine="25" d="M445.506,250.4286 C445.506,250.4286 451.534,253.73 454,255 C529.185,293.712 562.284,269.058 636,310.5 C651.748,319.353 667.02,332.039 679.561,343.928 " fill="none" id="mastermind.controllers.Logic-mastermind.models.Game" style="stroke:#A80036;stroke-width:1.0;"/><polygon fill="#A80036" points="688.989,353.203,685.3786,344.0398,685.4247,349.6964,679.7681,349.7426,688.989,353.203" style="stroke:#A80036;stroke-width:1.0;"/><line style="stroke:#A80036;stroke-width:1.0;" x1="685.4247" x2="679.721" y1="349.6964" y2="344.0865"/><polygon fill="#A80036" points="435.106,244.442,438.3105,250.902,445.506,250.4286,442.3015,243.9686,435.106,244.442" style="stroke:#A80036;stroke-width:1.0;"/><!--MD5=[dba634500bd5c2a040691ba35908d8cd]
reverse link mastermind.controllers.Controller to mastermind.controllers.ProposalController--><path codeLine="35" d="M496.621,201.458 C483.575,219.077 468.296,238.446 453,255 C434.015,275.548 411.893,296.326 391.035,314.748 " fill="none" id="mastermind.controllers.Controller-backto-mastermind.controllers.ProposalController" style="stroke:#A80036;stroke-width:1.0;"/><polygon fill="none" points="490.964,197.334,508.371,185.25,502.299,205.551,490.964,197.334" style="stroke:#A80036;stroke-width:1.0;"/><!--MD5=[63f96e29fdca8300300afc62ac286f3b]
reverse link mastermind.controllers.Controller to mastermind.controllers.ResumeController--><path codeLine="41" d="M533.248,205.322 C533.433,247.484 533.681,303.916 533.841,340.245 " fill="none" id="mastermind.controllers.Controller-backto-mastermind.controllers.ResumeController" style="stroke:#A80036;stroke-width:1.0;"/><polygon fill="none" points="526.247,205.079,533.158,185.048,540.246,205.017,526.247,205.079" style="stroke:#A80036;stroke-width:1.0;"/><!--MD5=[101627d6c0a8a8178df7245d6f58f5d0]
reverse link mastermind.controllers.Controller to mastermind.controllers.StartController--><path codeLine="47" d="M503.903,202.039 C490.758,221.432 473.531,241.825 453,255 C356.48,316.938 305.857,264.052 201,310.5 C183.622,318.198 166.199,329.403 151.209,340.404 " fill="none" id="mastermind.controllers.Controller-backto-mastermind.controllers.StartController" style="stroke:#A80036;stroke-width:1.0;"/><polygon fill="none" points="497.999,198.279,514.595,185.105,509.837,205.753,497.999,198.279" style="stroke:#A80036;stroke-width:1.0;"/><!--MD5=[0c09fcb76b63807e0e717c37dc17fa65]
@startuml
class  mastermind.controllers.Controller{
# game: Game
~ Controller(Game)
}
mastermind.controllers.Controller -down-> mastermind.models.Game

class  mastermind.controllers.Logic{
+ {static} NO_ERROR: int
- game: Game
- startController: StartController
- proposalController: ProposalController
- resumeController: ResumeController
+ Logic()
+ resume(boolean): void
+ proposeCombination(int[]): int
+ getAllCodes(): int[][][]
+ isWinner(): boolean
+ getTurn(): int
+ getWidth(): int
+ isLooser(): boolean
}
mastermind.controllers.Logic *-down-> mastermind.controllers.ResumeController
mastermind.controllers.Logic *-down-> mastermind.controllers.StartController
mastermind.controllers.Logic *-down-> mastermind.controllers.ProposalController
mastermind.controllers.Logic *-down-> mastermind.models.Game

class  mastermind.controllers.ProposalController{
~ ProposalController(Game)
~ proposeCombination(int[]): int
~ getAllCodes(): int[][][]
~ isWinner(): boolean
~ getTurn(): int
~ isLooser(): boolean
}
mastermind.controllers.Controller <|-down- mastermind.controllers.ProposalController

class  mastermind.controllers.ResumeController{
~ ResumeController(Game)
~ resume(boolean): void
}
mastermind.controllers.Controller <|-down- mastermind.controllers.ResumeController

class  mastermind.controllers.StartController{
+ StartController(Game)
~ getWidth(): int
}
mastermind.controllers.Controller <|-down- mastermind.controllers.StartController
@enduml

PlantUML version 1.2020.21beta3(Unknown compile time)
(GPL source distribution)
Java Runtime: Java(TM) SE Runtime Environment
JVM: Java HotSpot(TM) 64-Bit Server VM
Default Encoding: UTF-8
Language: en
Country: US
--></g></svg>