<?xml version="1.0" encoding="UTF-8" standalone="no"?><svg xmlns="http://www.w3.org/2000/svg" xmlns:xlink="http://www.w3.org/1999/xlink" contentScriptType="application/ecmascript" contentStyleType="text/css" height="618px" preserveAspectRatio="none" style="width:1053px;height:618px;" version="1.1" viewBox="0 0 1053 618" width="1053px" zoomAndPan="magnify"><defs><filter height="300%" id="f95b9n8dxvfxk" width="300%" x="-1" y="-1"><feGaussianBlur result="blurOut" stdDeviation="2.0"/><feColorMatrix in="blurOut" result="blurOut2" type="matrix" values="0 0 0 0 0 0 0 0 0 0 0 0 0 0 0 0 0 0 .4 0"/><feOffset dx="4.0" dy="4.0" in="blurOut2" result="blurOut3"/><feBlend in="SourceGraphic" in2="blurOut3" mode="normal"/></filter></defs><g><!--MD5=[8c6b41bbfaf6869d5f633b0372feec04]
cluster mastermind.views.console--><polygon fill="#FFFFFF" filter="url(#f95b9n8dxvfxk)" points="248,129,469,129,476,151.2969,844,151.2969,844,611,248,611,248,129" style="stroke:#000000;stroke-width:1.5;"/><line style="stroke:#000000;stroke-width:1.5;" x1="248" x2="476" y1="151.2969" y2="151.2969"/><text fill="#000000" font-family="sans-serif" font-size="14" font-weight="bold" lengthAdjust="spacingAndGlyphs" textLength="215" x="252" y="143.9951">mastermind.views.console</text><!--MD5=[57ab11106b6017d1c059bb8de6501622]
cluster mastermind.views--><polygon fill="#FFFFFF" filter="url(#f95b9n8dxvfxk)" points="445,6,599,6,606,28.2969,609,28.2969,609,105,445,105,445,6" style="stroke:#000000;stroke-width:1.5;"/><line style="stroke:#000000;stroke-width:1.5;" x1="445" x2="606" y1="28.2969" y2="28.2969"/><text fill="#000000" font-family="sans-serif" font-size="14" font-weight="bold" lengthAdjust="spacingAndGlyphs" textLength="148" x="449" y="20.9951">mastermind.views</text><!--MD5=[f2bedc297083edee028363469990e0f1]
cluster mastermind.utils--><polygon fill="#FFFFFF" filter="url(#f95b9n8dxvfxk)" points="868,174,1014,174,1021,196.2969,1036,196.2969,1036,273,868,273,868,174" style="stroke:#000000;stroke-width:1.5;"/><line style="stroke:#000000;stroke-width:1.5;" x1="868" x2="1021" y1="196.2969" y2="196.2969"/><text fill="#000000" font-family="sans-serif" font-size="14" font-weight="bold" lengthAdjust="spacingAndGlyphs" textLength="140" x="872" y="188.9951">mastermind.utils</text><!--MD5=[f4a8416df5d5f7c80a7d3a30f9e0f7a6]
cluster mastermind.controllers--><polygon fill="#FFFFFF" filter="url(#f95b9n8dxvfxk)" points="16,486.5,214,486.5,221,508.7969,224,508.7969,224,585.5,16,585.5,16,486.5" style="stroke:#000000;stroke-width:1.5;"/><line style="stroke:#000000;stroke-width:1.5;" x1="16" x2="221" y1="508.7969" y2="508.7969"/><text fill="#000000" font-family="sans-serif" font-size="14" font-weight="bold" lengthAdjust="spacingAndGlyphs" textLength="192" x="20" y="501.4951">mastermind.controllers</text><!--MD5=[77f7d5a33bce7a26cd74f80a1d97877c]
class mastermind.views.console.ConsoleView--><rect codeLine="1" fill="#FEFECE" filter="url(#f95b9n8dxvfxk)" height="137.6328" id="mastermind.views.console.ConsoleView" style="stroke:#A80036;stroke-width:1.5;" width="184" x="435" y="164"/><ellipse cx="483.75" cy="180" fill="#ADD1B2" rx="11" ry="11" style="stroke:#A80036;stroke-width:1.0;"/><path d="M486.0938,175.6719 C485.1563,175.2344 484.5625,175.0938 483.6875,175.0938 C481.0625,175.0938 479.0625,177.1719 479.0625,179.8906 L479.0625,181.0156 C479.0625,183.5938 481.1719,185.4844 484.0625,185.4844 C485.2813,185.4844 486.4375,185.1875 487.1875,184.6406 C487.7656,184.2344 488.0938,183.7813 488.0938,183.3906 C488.0938,182.9375 487.7031,182.5469 487.2344,182.5469 C487.0156,182.5469 486.8125,182.625 486.625,182.8125 C486.1719,183.2969 486.1719,183.2969 485.9844,183.3906 C485.5625,183.6563 484.875,183.7813 484.1094,183.7813 C482.0625,183.7813 480.7656,182.6875 480.7656,180.9844 L480.7656,179.8906 C480.7656,178.1094 482.0156,176.7969 483.75,176.7969 C484.3281,176.7969 484.9375,176.9531 485.4063,177.2031 C485.8906,177.4844 486.0625,177.7031 486.1563,178.1094 C486.2188,178.5156 486.25,178.6406 486.3906,178.7656 C486.5313,178.9063 486.7656,179.0156 486.9844,179.0156 C487.25,179.0156 487.5156,178.875 487.6875,178.6563 C487.7969,178.5 487.8281,178.3125 487.8281,177.8906 L487.8281,176.4688 C487.8281,176.0313 487.8125,175.9063 487.7188,175.75 C487.5625,175.4844 487.2813,175.3438 486.9844,175.3438 C486.6875,175.3438 486.4844,175.4375 486.2656,175.75 L486.0938,175.6719 Z " fill="#000000"/><text fill="#000000" font-family="sans-serif" font-size="12" lengthAdjust="spacingAndGlyphs" textLength="78" x="504.25" y="184.1543">ConsoleView</text><line style="stroke:#A80036;stroke-width:1.5;" x1="436" x2="618" y1="196" y2="196"/><rect fill="none" height="6" style="stroke:#C82930;stroke-width:1.0;" width="6" x="443" y="204"/><text fill="#000000" font-family="sans-serif" font-size="11" lengthAdjust="spacingAndGlyphs" textLength="115" x="455" y="210.2104">startView: StartView</text><rect fill="none" height="6" style="stroke:#C82930;stroke-width:1.0;" width="6" x="443" y="216.8047"/><text fill="#000000" font-family="sans-serif" font-size="11" lengthAdjust="spacingAndGlyphs" textLength="158" x="455" y="223.0151">proposalView: ProposalView</text><rect fill="none" height="6" style="stroke:#C82930;stroke-width:1.0;" width="6" x="443" y="229.6094"/><text fill="#000000" font-family="sans-serif" font-size="11" lengthAdjust="spacingAndGlyphs" textLength="154" x="455" y="235.8198">resumeView: ResumeView</text><line style="stroke:#A80036;stroke-width:1.5;" x1="436" x2="618" y1="242.4141" y2="242.4141"/><ellipse cx="446" cy="253.4141" fill="#84BE84" rx="3" ry="3" style="stroke:#038048;stroke-width:1.0;"/><text fill="#000000" font-family="sans-serif" font-size="11" lengthAdjust="spacingAndGlyphs" textLength="111" x="455" y="256.6245">ConsoleView(Logic)</text><polygon fill="#FFFF44" points="446,261.2188,450,265.2188,446,269.2188,442,265.2188" style="stroke:#B38D22;stroke-width:1.0;"/><text fill="#000000" font-family="sans-serif" font-size="11" lengthAdjust="spacingAndGlyphs" textLength="64" x="455" y="269.4292">start(): void</text><polygon fill="#FFFF44" points="446,274.0234,450,278.0234,446,282.0234,442,278.0234" style="stroke:#B38D22;stroke-width:1.0;"/><text fill="#000000" font-family="sans-serif" font-size="11" lengthAdjust="spacingAndGlyphs" textLength="105" x="455" y="282.2339">resume(): boolean</text><polygon fill="#FFFF44" points="446,286.8281,450,290.8281,446,294.8281,442,290.8281" style="stroke:#B38D22;stroke-width:1.0;"/><text fill="#000000" font-family="sans-serif" font-size="11" lengthAdjust="spacingAndGlyphs" textLength="107" x="455" y="295.0386">propose(): boolean</text><!--MD5=[d6394a9e37d873a330bca1b7409d9d4a]
class mastermind.views.console.ProposalView--><rect codeLine="15" fill="#FEFECE" filter="url(#f95b9n8dxvfxk)" height="73.6094" id="mastermind.views.console.ProposalView" style="stroke:#A80036;stroke-width:1.5;" width="159" x="630.5" y="362"/><ellipse cx="666.2" cy="378" fill="#ADD1B2" rx="11" ry="11" style="stroke:#A80036;stroke-width:1.0;"/><path d="M668.5438,373.6719 C667.6063,373.2344 667.0125,373.0938 666.1375,373.0938 C663.5125,373.0938 661.5125,375.1719 661.5125,377.8906 L661.5125,379.0156 C661.5125,381.5938 663.6219,383.4844 666.5125,383.4844 C667.7313,383.4844 668.8875,383.1875 669.6375,382.6406 C670.2156,382.2344 670.5438,381.7813 670.5438,381.3906 C670.5438,380.9375 670.1531,380.5469 669.6844,380.5469 C669.4656,380.5469 669.2625,380.625 669.075,380.8125 C668.6219,381.2969 668.6219,381.2969 668.4344,381.3906 C668.0125,381.6563 667.325,381.7813 666.5594,381.7813 C664.5125,381.7813 663.2156,380.6875 663.2156,378.9844 L663.2156,377.8906 C663.2156,376.1094 664.4656,374.7969 666.2,374.7969 C666.7781,374.7969 667.3875,374.9531 667.8563,375.2031 C668.3406,375.4844 668.5125,375.7031 668.6063,376.1094 C668.6688,376.5156 668.7,376.6406 668.8406,376.7656 C668.9813,376.9063 669.2156,377.0156 669.4344,377.0156 C669.7,377.0156 669.9656,376.875 670.1375,376.6563 C670.2469,376.5 670.2781,376.3125 670.2781,375.8906 L670.2781,374.4688 C670.2781,374.0313 670.2625,373.9063 670.1688,373.75 C670.0125,373.4844 669.7313,373.3438 669.4344,373.3438 C669.1375,373.3438 668.9344,373.4375 668.7156,373.75 L668.5438,373.6719 Z " fill="#000000"/><text fill="#000000" font-family="sans-serif" font-size="12" lengthAdjust="spacingAndGlyphs" textLength="81" x="684.8" y="382.1543">ProposalView</text><line style="stroke:#A80036;stroke-width:1.5;" x1="631.5" x2="788.5" y1="394" y2="394"/><line style="stroke:#A80036;stroke-width:1.5;" x1="631.5" x2="788.5" y1="402" y2="402"/><polygon fill="#4177AF" points="641.5,409,637.5,415,645.5,415" style="stroke:#1963A0;stroke-width:1.0;"/><text fill="#000000" font-family="sans-serif" font-size="11" lengthAdjust="spacingAndGlyphs" textLength="83" x="650.5" y="416.2104">ProposalView()</text><polygon fill="#4177AF" points="641.5,421.8047,637.5,427.8047,645.5,427.8047" style="stroke:#1963A0;stroke-width:1.0;"/><text fill="#000000" font-family="sans-serif" font-size="11" lengthAdjust="spacingAndGlyphs" textLength="133" x="650.5" y="429.0151">interact(Logic): boolean</text><!--MD5=[7859f63dd038a0eb900a9f91a1a21db9]
class mastermind.views.console.ResumeView--><rect codeLine="39" fill="#FEFECE" filter="url(#f95b9n8dxvfxk)" height="73.6094" id="mastermind.views.console.ResumeView" style="stroke:#A80036;stroke-width:1.5;" width="159" x="264.5" y="362"/><ellipse cx="302" cy="378" fill="#ADD1B2" rx="11" ry="11" style="stroke:#A80036;stroke-width:1.0;"/><path d="M304.3438,373.6719 C303.4063,373.2344 302.8125,373.0938 301.9375,373.0938 C299.3125,373.0938 297.3125,375.1719 297.3125,377.8906 L297.3125,379.0156 C297.3125,381.5938 299.4219,383.4844 302.3125,383.4844 C303.5313,383.4844 304.6875,383.1875 305.4375,382.6406 C306.0156,382.2344 306.3438,381.7813 306.3438,381.3906 C306.3438,380.9375 305.9531,380.5469 305.4844,380.5469 C305.2656,380.5469 305.0625,380.625 304.875,380.8125 C304.4219,381.2969 304.4219,381.2969 304.2344,381.3906 C303.8125,381.6563 303.125,381.7813 302.3594,381.7813 C300.3125,381.7813 299.0156,380.6875 299.0156,378.9844 L299.0156,377.8906 C299.0156,376.1094 300.2656,374.7969 302,374.7969 C302.5781,374.7969 303.1875,374.9531 303.6563,375.2031 C304.1406,375.4844 304.3125,375.7031 304.4063,376.1094 C304.4688,376.5156 304.5,376.6406 304.6406,376.7656 C304.7813,376.9063 305.0156,377.0156 305.2344,377.0156 C305.5,377.0156 305.7656,376.875 305.9375,376.6563 C306.0469,376.5 306.0781,376.3125 306.0781,375.8906 L306.0781,374.4688 C306.0781,374.0313 306.0625,373.9063 305.9688,373.75 C305.8125,373.4844 305.5313,373.3438 305.2344,373.3438 C304.9375,373.3438 304.7344,373.4375 304.5156,373.75 L304.3438,373.6719 Z " fill="#000000"/><text fill="#000000" font-family="sans-serif" font-size="12" lengthAdjust="spacingAndGlyphs" textLength="77" x="321" y="382.1543">ResumeView</text><line style="stroke:#A80036;stroke-width:1.5;" x1="265.5" x2="422.5" y1="394" y2="394"/><line style="stroke:#A80036;stroke-width:1.5;" x1="265.5" x2="422.5" y1="402" y2="402"/><polygon fill="#4177AF" points="275.5,409,271.5,415,279.5,415" style="stroke:#1963A0;stroke-width:1.0;"/><text fill="#000000" font-family="sans-serif" font-size="11" lengthAdjust="spacingAndGlyphs" textLength="83" x="284.5" y="416.2104">ResumeView()</text><polygon fill="#4177AF" points="275.5,421.8047,271.5,427.8047,279.5,427.8047" style="stroke:#1963A0;stroke-width:1.0;"/><text fill="#000000" font-family="sans-serif" font-size="11" lengthAdjust="spacingAndGlyphs" textLength="133" x="284.5" y="429.0151">interact(Logic): boolean</text><!--MD5=[0008b2d94159fbb4fa82708674d44211]
class mastermind.views.console.StartView--><rect codeLine="51" fill="#FEFECE" filter="url(#f95b9n8dxvfxk)" height="73.6094" id="mastermind.views.console.StartView" style="stroke:#A80036;stroke-width:1.5;" width="137" x="458.5" y="362"/><ellipse cx="495.1" cy="378" fill="#ADD1B2" rx="11" ry="11" style="stroke:#A80036;stroke-width:1.0;"/><path d="M497.4438,373.6719 C496.5063,373.2344 495.9125,373.0938 495.0375,373.0938 C492.4125,373.0938 490.4125,375.1719 490.4125,377.8906 L490.4125,379.0156 C490.4125,381.5938 492.5219,383.4844 495.4125,383.4844 C496.6313,383.4844 497.7875,383.1875 498.5375,382.6406 C499.1156,382.2344 499.4438,381.7813 499.4438,381.3906 C499.4438,380.9375 499.0531,380.5469 498.5844,380.5469 C498.3656,380.5469 498.1625,380.625 497.975,380.8125 C497.5219,381.2969 497.5219,381.2969 497.3344,381.3906 C496.9125,381.6563 496.225,381.7813 495.4594,381.7813 C493.4125,381.7813 492.1156,380.6875 492.1156,378.9844 L492.1156,377.8906 C492.1156,376.1094 493.3656,374.7969 495.1,374.7969 C495.6781,374.7969 496.2875,374.9531 496.7563,375.2031 C497.2406,375.4844 497.4125,375.7031 497.5063,376.1094 C497.5688,376.5156 497.6,376.6406 497.7406,376.7656 C497.8813,376.9063 498.1156,377.0156 498.3344,377.0156 C498.6,377.0156 498.8656,376.875 499.0375,376.6563 C499.1469,376.5 499.1781,376.3125 499.1781,375.8906 L499.1781,374.4688 C499.1781,374.0313 499.1625,373.9063 499.0688,373.75 C498.9125,373.4844 498.6313,373.3438 498.3344,373.3438 C498.0375,373.3438 497.8344,373.4375 497.6156,373.75 L497.4438,373.6719 Z " fill="#000000"/><text fill="#000000" font-family="sans-serif" font-size="12" lengthAdjust="spacingAndGlyphs" textLength="57" x="513.9" y="382.1543">StartView</text><line style="stroke:#A80036;stroke-width:1.5;" x1="459.5" x2="594.5" y1="394" y2="394"/><line style="stroke:#A80036;stroke-width:1.5;" x1="459.5" x2="594.5" y1="402" y2="402"/><polygon fill="#4177AF" points="469.5,409,465.5,415,473.5,415" style="stroke:#1963A0;stroke-width:1.0;"/><text fill="#000000" font-family="sans-serif" font-size="11" lengthAdjust="spacingAndGlyphs" textLength="63" x="478.5" y="416.2104">StartView()</text><polygon fill="#4177AF" points="469.5,421.8047,465.5,427.8047,473.5,427.8047" style="stroke:#1963A0;stroke-width:1.0;"/><text fill="#000000" font-family="sans-serif" font-size="11" lengthAdjust="spacingAndGlyphs" textLength="111" x="478.5" y="429.0151">interact(Logic): void</text><!--MD5=[8e3658da2a1783a4435f2cbdc5d5f6e6]
class mastermind.views.console.SecretCombinationView--><rect codeLine="45" fill="#FEFECE" filter="url(#f95b9n8dxvfxk)" height="73.6094" id="mastermind.views.console.SecretCombinationView" style="stroke:#A80036;stroke-width:1.5;" width="175" x="264.5" y="508.5"/><ellipse cx="279.5" cy="524.5" fill="#ADD1B2" rx="11" ry="11" style="stroke:#A80036;stroke-width:1.0;"/><path d="M281.8438,520.1719 C280.9063,519.7344 280.3125,519.5938 279.4375,519.5938 C276.8125,519.5938 274.8125,521.6719 274.8125,524.3906 L274.8125,525.5156 C274.8125,528.0938 276.9219,529.9844 279.8125,529.9844 C281.0313,529.9844 282.1875,529.6875 282.9375,529.1406 C283.5156,528.7344 283.8438,528.2813 283.8438,527.8906 C283.8438,527.4375 283.4531,527.0469 282.9844,527.0469 C282.7656,527.0469 282.5625,527.125 282.375,527.3125 C281.9219,527.7969 281.9219,527.7969 281.7344,527.8906 C281.3125,528.1563 280.625,528.2813 279.8594,528.2813 C277.8125,528.2813 276.5156,527.1875 276.5156,525.4844 L276.5156,524.3906 C276.5156,522.6094 277.7656,521.2969 279.5,521.2969 C280.0781,521.2969 280.6875,521.4531 281.1563,521.7031 C281.6406,521.9844 281.8125,522.2031 281.9063,522.6094 C281.9688,523.0156 282,523.1406 282.1406,523.2656 C282.2813,523.4063 282.5156,523.5156 282.7344,523.5156 C283,523.5156 283.2656,523.375 283.4375,523.1563 C283.5469,523 283.5781,522.8125 283.5781,522.3906 L283.5781,520.9688 C283.5781,520.5313 283.5625,520.4063 283.4688,520.25 C283.3125,519.9844 283.0313,519.8438 282.7344,519.8438 C282.4375,519.8438 282.2344,519.9375 282.0156,520.25 L281.8438,520.1719 Z " fill="#000000"/><text fill="#000000" font-family="sans-serif" font-size="12" lengthAdjust="spacingAndGlyphs" textLength="143" x="293.5" y="528.6543">SecretCombinationView</text><line style="stroke:#A80036;stroke-width:1.5;" x1="265.5" x2="438.5" y1="540.5" y2="540.5"/><line style="stroke:#A80036;stroke-width:1.5;" x1="265.5" x2="438.5" y1="548.5" y2="548.5"/><polygon fill="#4177AF" points="275.5,555.5,271.5,561.5,279.5,561.5" style="stroke:#1963A0;stroke-width:1.0;"/><text fill="#000000" font-family="sans-serif" font-size="11" lengthAdjust="spacingAndGlyphs" textLength="145" x="284.5" y="562.7104">SecretCombinationView()</text><polygon fill="#4177AF" points="275.5,568.3047,271.5,574.3047,279.5,574.3047" style="stroke:#1963A0;stroke-width:1.0;"/><text fill="#000000" font-family="sans-serif" font-size="11" lengthAdjust="spacingAndGlyphs" textLength="91" x="284.5" y="575.5151">writeln(int): void</text><!--MD5=[da32211422d22ede6b00806fa670f927]
class mastermind.views.console.ProposedCombinationView--><rect codeLine="25" fill="#FEFECE" filter="url(#f95b9n8dxvfxk)" height="99.2188" id="mastermind.views.console.ProposedCombinationView" style="stroke:#A80036;stroke-width:1.5;" width="193" x="474.5" y="496"/><ellipse cx="489.5" cy="512" fill="#ADD1B2" rx="11" ry="11" style="stroke:#A80036;stroke-width:1.0;"/><path d="M491.8438,507.6719 C490.9063,507.2344 490.3125,507.0938 489.4375,507.0938 C486.8125,507.0938 484.8125,509.1719 484.8125,511.8906 L484.8125,513.0156 C484.8125,515.5938 486.9219,517.4844 489.8125,517.4844 C491.0313,517.4844 492.1875,517.1875 492.9375,516.6406 C493.5156,516.2344 493.8438,515.7813 493.8438,515.3906 C493.8438,514.9375 493.4531,514.5469 492.9844,514.5469 C492.7656,514.5469 492.5625,514.625 492.375,514.8125 C491.9219,515.2969 491.9219,515.2969 491.7344,515.3906 C491.3125,515.6563 490.625,515.7813 489.8594,515.7813 C487.8125,515.7813 486.5156,514.6875 486.5156,512.9844 L486.5156,511.8906 C486.5156,510.1094 487.7656,508.7969 489.5,508.7969 C490.0781,508.7969 490.6875,508.9531 491.1563,509.2031 C491.6406,509.4844 491.8125,509.7031 491.9063,510.1094 C491.9688,510.5156 492,510.6406 492.1406,510.7656 C492.2813,510.9063 492.5156,511.0156 492.7344,511.0156 C493,511.0156 493.2656,510.875 493.4375,510.6563 C493.5469,510.5 493.5781,510.3125 493.5781,509.8906 L493.5781,508.4688 C493.5781,508.0313 493.5625,507.9063 493.4688,507.75 C493.3125,507.4844 493.0313,507.3438 492.7344,507.3438 C492.4375,507.3438 492.2344,507.4375 492.0156,507.75 L491.8438,507.6719 Z " fill="#000000"/><text fill="#000000" font-family="sans-serif" font-size="12" lengthAdjust="spacingAndGlyphs" textLength="161" x="503.5" y="516.1543">ProposedCombinationView</text><line style="stroke:#A80036;stroke-width:1.5;" x1="475.5" x2="666.5" y1="528" y2="528"/><rect fill="none" height="6" style="stroke:#C82930;stroke-width:1.0;" width="6" x="482.5" y="536"/><text fill="#000000" font-family="sans-serif" font-size="11" lengthAdjust="spacingAndGlyphs" text-decoration="underline" textLength="97" x="494.5" y="542.2104">ERROR_CODE: int</text><line style="stroke:#A80036;stroke-width:1.5;" x1="475.5" x2="666.5" y1="548.8047" y2="548.8047"/><polygon fill="#4177AF" points="485.5,555.8047,481.5,561.8047,489.5,561.8047" style="stroke:#1963A0;stroke-width:1.0;"/><text fill="#000000" font-family="sans-serif" font-size="11" lengthAdjust="spacingAndGlyphs" textLength="159" x="494.5" y="563.0151">ProposedCombinationView()</text><polygon fill="#4177AF" points="485.5,568.6094,481.5,574.6094,489.5,574.6094" style="stroke:#1963A0;stroke-width:1.0;"/><text fill="#000000" font-family="sans-serif" font-size="11" lengthAdjust="spacingAndGlyphs" textLength="89" x="494.5" y="575.8198">write(int[]): void</text><polygon fill="#4177AF" points="485.5,581.4141,481.5,587.4141,489.5,587.4141" style="stroke:#1963A0;stroke-width:1.0;"/><text fill="#000000" font-family="sans-serif" font-size="11" lengthAdjust="spacingAndGlyphs" textLength="63" x="494.5" y="588.6245">read(): int[]</text><!--MD5=[78e7fa9cf0fb29c9a88059d9b2a132d6]
class mastermind.views.console.ResultView--><rect codeLine="33" fill="#FEFECE" filter="url(#f95b9n8dxvfxk)" height="73.6094" id="mastermind.views.console.ResultView" style="stroke:#A80036;stroke-width:1.5;" width="125" x="702.5" y="508.5"/><ellipse cx="730.1" cy="524.5" fill="#ADD1B2" rx="11" ry="11" style="stroke:#A80036;stroke-width:1.0;"/><path d="M732.4438,520.1719 C731.5063,519.7344 730.9125,519.5938 730.0375,519.5938 C727.4125,519.5938 725.4125,521.6719 725.4125,524.3906 L725.4125,525.5156 C725.4125,528.0938 727.5219,529.9844 730.4125,529.9844 C731.6313,529.9844 732.7875,529.6875 733.5375,529.1406 C734.1156,528.7344 734.4438,528.2813 734.4438,527.8906 C734.4438,527.4375 734.0531,527.0469 733.5844,527.0469 C733.3656,527.0469 733.1625,527.125 732.975,527.3125 C732.5219,527.7969 732.5219,527.7969 732.3344,527.8906 C731.9125,528.1563 731.225,528.2813 730.4594,528.2813 C728.4125,528.2813 727.1156,527.1875 727.1156,525.4844 L727.1156,524.3906 C727.1156,522.6094 728.3656,521.2969 730.1,521.2969 C730.6781,521.2969 731.2875,521.4531 731.7563,521.7031 C732.2406,521.9844 732.4125,522.2031 732.5063,522.6094 C732.5688,523.0156 732.6,523.1406 732.7406,523.2656 C732.8813,523.4063 733.1156,523.5156 733.3344,523.5156 C733.6,523.5156 733.8656,523.375 734.0375,523.1563 C734.1469,523 734.1781,522.8125 734.1781,522.3906 L734.1781,520.9688 C734.1781,520.5313 734.1625,520.4063 734.0688,520.25 C733.9125,519.9844 733.6313,519.8438 733.3344,519.8438 C733.0375,519.8438 732.8344,519.9375 732.6156,520.25 L732.4438,520.1719 Z " fill="#000000"/><text fill="#000000" font-family="sans-serif" font-size="12" lengthAdjust="spacingAndGlyphs" textLength="65" x="746.9" y="528.6543">ResultView</text><line style="stroke:#A80036;stroke-width:1.5;" x1="703.5" x2="826.5" y1="540.5" y2="540.5"/><line style="stroke:#A80036;stroke-width:1.5;" x1="703.5" x2="826.5" y1="548.5" y2="548.5"/><polygon fill="#4177AF" points="713.5,555.5,709.5,561.5,717.5,561.5" style="stroke:#1963A0;stroke-width:1.0;"/><text fill="#000000" font-family="sans-serif" font-size="11" lengthAdjust="spacingAndGlyphs" textLength="71" x="722.5" y="562.7104">ResultView()</text><polygon fill="#4177AF" points="713.5,568.3047,709.5,574.3047,717.5,574.3047" style="stroke:#1963A0;stroke-width:1.0;"/><text fill="#000000" font-family="sans-serif" font-size="11" lengthAdjust="spacingAndGlyphs" textLength="99" x="722.5" y="575.5151">writeln(int[]): void</text><!--MD5=[904c44326bfc30ddc4fe4077c1b9164d]
class mastermind.views.View--><rect fill="#FEFECE" filter="url(#f95b9n8dxvfxk)" height="48" id="mastermind.views.View" style="stroke:#A80036;stroke-width:1.5;" width="61" x="496.5" y="41"/><ellipse cx="511.5" cy="57" fill="#ADD1B2" rx="11" ry="11" style="stroke:#A80036;stroke-width:1.0;"/><path d="M513.8438,52.6719 C512.9063,52.2344 512.3125,52.0938 511.4375,52.0938 C508.8125,52.0938 506.8125,54.1719 506.8125,56.8906 L506.8125,58.0156 C506.8125,60.5938 508.9219,62.4844 511.8125,62.4844 C513.0313,62.4844 514.1875,62.1875 514.9375,61.6406 C515.5156,61.2344 515.8438,60.7813 515.8438,60.3906 C515.8438,59.9375 515.4531,59.5469 514.9844,59.5469 C514.7656,59.5469 514.5625,59.625 514.375,59.8125 C513.9219,60.2969 513.9219,60.2969 513.7344,60.3906 C513.3125,60.6563 512.625,60.7813 511.8594,60.7813 C509.8125,60.7813 508.5156,59.6875 508.5156,57.9844 L508.5156,56.8906 C508.5156,55.1094 509.7656,53.7969 511.5,53.7969 C512.0781,53.7969 512.6875,53.9531 513.1563,54.2031 C513.6406,54.4844 513.8125,54.7031 513.9063,55.1094 C513.9688,55.5156 514,55.6406 514.1406,55.7656 C514.2813,55.9063 514.5156,56.0156 514.7344,56.0156 C515,56.0156 515.2656,55.875 515.4375,55.6563 C515.5469,55.5 515.5781,55.3125 515.5781,54.8906 L515.5781,53.4688 C515.5781,53.0313 515.5625,52.9063 515.4688,52.75 C515.3125,52.4844 515.0313,52.3438 514.7344,52.3438 C514.4375,52.3438 514.2344,52.4375 514.0156,52.75 L513.8438,52.6719 Z " fill="#000000"/><text fill="#000000" font-family="sans-serif" font-size="12" lengthAdjust="spacingAndGlyphs" textLength="29" x="525.5" y="61.1543">View</text><line style="stroke:#A80036;stroke-width:1.5;" x1="497.5" x2="556.5" y1="73" y2="73"/><line style="stroke:#A80036;stroke-width:1.5;" x1="497.5" x2="556.5" y1="81" y2="81"/><!--MD5=[418484cb0ecde680b0da58aa805d4175]
class mastermind.utils.WithConsoleView--><rect fill="#FEFECE" filter="url(#f95b9n8dxvfxk)" height="48" id="mastermind.utils.WithConsoleView" style="stroke:#A80036;stroke-width:1.5;" width="136" x="884" y="209"/><ellipse cx="899" cy="225" fill="#ADD1B2" rx="11" ry="11" style="stroke:#A80036;stroke-width:1.0;"/><path d="M901.3438,220.6719 C900.4063,220.2344 899.8125,220.0938 898.9375,220.0938 C896.3125,220.0938 894.3125,222.1719 894.3125,224.8906 L894.3125,226.0156 C894.3125,228.5938 896.4219,230.4844 899.3125,230.4844 C900.5313,230.4844 901.6875,230.1875 902.4375,229.6406 C903.0156,229.2344 903.3438,228.7813 903.3438,228.3906 C903.3438,227.9375 902.9531,227.5469 902.4844,227.5469 C902.2656,227.5469 902.0625,227.625 901.875,227.8125 C901.4219,228.2969 901.4219,228.2969 901.2344,228.3906 C900.8125,228.6563 900.125,228.7813 899.3594,228.7813 C897.3125,228.7813 896.0156,227.6875 896.0156,225.9844 L896.0156,224.8906 C896.0156,223.1094 897.2656,221.7969 899,221.7969 C899.5781,221.7969 900.1875,221.9531 900.6563,222.2031 C901.1406,222.4844 901.3125,222.7031 901.4063,223.1094 C901.4688,223.5156 901.5,223.6406 901.6406,223.7656 C901.7813,223.9063 902.0156,224.0156 902.2344,224.0156 C902.5,224.0156 902.7656,223.875 902.9375,223.6563 C903.0469,223.5 903.0781,223.3125 903.0781,222.8906 L903.0781,221.4688 C903.0781,221.0313 903.0625,220.9063 902.9688,220.75 C902.8125,220.4844 902.5313,220.3438 902.2344,220.3438 C901.9375,220.3438 901.7344,220.4375 901.5156,220.75 L901.3438,220.6719 Z " fill="#000000"/><text fill="#000000" font-family="sans-serif" font-size="12" lengthAdjust="spacingAndGlyphs" textLength="104" x="913" y="229.1543">WithConsoleView</text><line style="stroke:#A80036;stroke-width:1.5;" x1="885" x2="1019" y1="241" y2="241"/><line style="stroke:#A80036;stroke-width:1.5;" x1="885" x2="1019" y1="249" y2="249"/><!--MD5=[23fa68f5dd51b02db50930b64c1246c4]
class mastermind.controllers.Logic--><rect fill="#FEFECE" filter="url(#f95b9n8dxvfxk)" height="48" id="mastermind.controllers.Logic" style="stroke:#A80036;stroke-width:1.5;" width="64" x="144" y="521.5"/><ellipse cx="159" cy="537.5" fill="#ADD1B2" rx="11" ry="11" style="stroke:#A80036;stroke-width:1.0;"/><path d="M161.3438,533.1719 C160.4063,532.7344 159.8125,532.5938 158.9375,532.5938 C156.3125,532.5938 154.3125,534.6719 154.3125,537.3906 L154.3125,538.5156 C154.3125,541.0938 156.4219,542.9844 159.3125,542.9844 C160.5313,542.9844 161.6875,542.6875 162.4375,542.1406 C163.0156,541.7344 163.3438,541.2813 163.3438,540.8906 C163.3438,540.4375 162.9531,540.0469 162.4844,540.0469 C162.2656,540.0469 162.0625,540.125 161.875,540.3125 C161.4219,540.7969 161.4219,540.7969 161.2344,540.8906 C160.8125,541.1563 160.125,541.2813 159.3594,541.2813 C157.3125,541.2813 156.0156,540.1875 156.0156,538.4844 L156.0156,537.3906 C156.0156,535.6094 157.2656,534.2969 159,534.2969 C159.5781,534.2969 160.1875,534.4531 160.6563,534.7031 C161.1406,534.9844 161.3125,535.2031 161.4063,535.6094 C161.4688,536.0156 161.5,536.1406 161.6406,536.2656 C161.7813,536.4063 162.0156,536.5156 162.2344,536.5156 C162.5,536.5156 162.7656,536.375 162.9375,536.1563 C163.0469,536 163.0781,535.8125 163.0781,535.3906 L163.0781,533.9688 C163.0781,533.5313 163.0625,533.4063 162.9688,533.25 C162.8125,532.9844 162.5313,532.8438 162.2344,532.8438 C161.9375,532.8438 161.7344,532.9375 161.5156,533.25 L161.3438,533.1719 Z " fill="#000000"/><text fill="#000000" font-family="sans-serif" font-size="12" lengthAdjust="spacingAndGlyphs" textLength="32" x="173" y="541.6543">Logic</text><line style="stroke:#A80036;stroke-width:1.5;" x1="145" x2="207" y1="553.5" y2="553.5"/><line style="stroke:#A80036;stroke-width:1.5;" x1="145" x2="207" y1="561.5" y2="561.5"/><!--MD5=[27878ff976bc947fdbd81050c32f3064]
reverse link mastermind.views.View to mastermind.views.console.ConsoleView--><path codeLine="10" d="M527,109.118 C527,125.85 527,145.419 527,163.958 " fill="none" id="mastermind.views.View-backto-mastermind.views.console.ConsoleView" style="stroke:#A80036;stroke-width:1.0;"/><polygon fill="none" points="520,109.082,527,89.082,534,109.082,520,109.082" style="stroke:#A80036;stroke-width:1.0;"/><!--MD5=[33397d89846eff88425116005feaf20e]
link mastermind.views.console.ConsoleView to mastermind.views.console.ProposalView--><path codeLine="11" d="M611.9551,310.1351 C611.9551,310.1351 645.286,340.005 659.897,353.099 " fill="none" id="mastermind.views.console.ConsoleView-mastermind.views.console.ProposalView" style="stroke:#A80036;stroke-width:1.0;"/><polygon fill="#A80036" points="669.703,361.887,665.6699,352.9018,665.9794,358.5502,660.331,358.8596,669.703,361.887" style="stroke:#A80036;stroke-width:1.0;"/><line style="stroke:#A80036;stroke-width:1.0;" x1="665.9794" x2="660.0215" y1="358.5502" y2="353.2105"/><polygon fill="#A80036" points="603.019,302.126,604.8173,309.1093,611.9551,310.1351,610.1568,303.1519,603.019,302.126" style="stroke:#A80036;stroke-width:1.0;"/><!--MD5=[2c55d8244820beca2e70bf46e64fc787]
link mastermind.views.console.ConsoleView to mastermind.views.console.ResumeView--><path codeLine="12" d="M442.0449,310.1351 C442.0449,310.1351 408.714,340.005 394.103,353.099 " fill="none" id="mastermind.views.console.ConsoleView-mastermind.views.console.ResumeView" style="stroke:#A80036;stroke-width:1.0;"/><polygon fill="#A80036" points="384.297,361.887,393.669,358.8596,388.0206,358.5502,388.3301,352.9018,384.297,361.887" style="stroke:#A80036;stroke-width:1.0;"/><line style="stroke:#A80036;stroke-width:1.0;" x1="388.0206" x2="393.9785" y1="358.5502" y2="353.2105"/><polygon fill="#A80036" points="450.981,302.126,443.8432,303.1519,442.0449,310.1351,449.1827,309.1093,450.981,302.126" style="stroke:#A80036;stroke-width:1.0;"/><!--MD5=[d28835787fe8db1cf1c77aeb67945c72]
link mastermind.views.console.ConsoleView to mastermind.views.console.StartView--><path codeLine="13" d="M527,314.126 C527,314.126 527,337.87 527,348.391 " fill="none" id="mastermind.views.console.ConsoleView-mastermind.views.console.StartView" style="stroke:#A80036;stroke-width:1.0;"/><polygon fill="#A80036" points="527,361.66,531,352.66,527,356.66,523,352.66,527,361.66" style="stroke:#A80036;stroke-width:1.0;"/><line style="stroke:#A80036;stroke-width:1.0;" x1="527" x2="527" y1="356.66" y2="348.66"/><polygon fill="#A80036" points="527,302.126,523,308.126,527,314.126,531,308.126,527,302.126" style="stroke:#A80036;stroke-width:1.0;"/><!--MD5=[087fe736ef98ed9c3d456b1a3eb0af5b]
reverse link mastermind.utils.WithConsoleView to mastermind.views.console.ProposalView--><path codeLine="19" d="M901.022,268.547 C860.55,295.974 804.144,334.2 763.123,361.999 " fill="none" id="mastermind.utils.WithConsoleView-backto-mastermind.views.console.ProposalView" style="stroke:#A80036;stroke-width:1.0;"/><polygon fill="none" points="897.357,262.575,917.841,257.149,905.211,274.164,897.357,262.575" style="stroke:#A80036;stroke-width:1.0;"/><!--MD5=[67d6256517a5e434c5e8213fd3977d1d]
link mastermind.views.console.ProposalView to mastermind.controllers.Logic--><path codeLine="20" d="M630.273,431.29 C624.475,433.04 618.677,434.637 613,436 C454.195,474.13 396.523,410.576 248,478.5 C228.689,487.332 211.042,503.316 198.052,517.341 " fill="none" id="mastermind.views.console.ProposalView-to-mastermind.controllers.Logic" style="stroke:#A80036;stroke-width:1.0;stroke-dasharray:7.0,7.0;"/><polygon fill="#A80036" points="194.514,521.238,203.5258,517.2646,197.8754,517.5366,197.6034,511.8862,194.514,521.238" style="stroke:#A80036;stroke-width:1.0;"/><!--MD5=[2cee935cc3e76c0bddc472d56205c5e7]
link mastermind.views.console.ProposalView to mastermind.views.console.SecretCombinationView--><path codeLine="21" d="M630.268,430.234 C624.445,432.245 618.644,434.188 613,436 C544.58,457.968 522.802,449.621 457,478.5 C440.06,485.935 422.663,495.814 407.024,505.659 " fill="none" id="mastermind.views.console.ProposalView-to-mastermind.views.console.SecretCombinationView" style="stroke:#A80036;stroke-width:1.0;stroke-dasharray:7.0,7.0;"/><polygon fill="#A80036" points="402.661,508.432,412.4019,506.9775,406.8801,505.7488,408.1088,500.227,402.661,508.432" style="stroke:#A80036;stroke-width:1.0;"/><!--MD5=[3b5af4b8694ffacd00450d64e1a89349]
link mastermind.views.console.ProposalView to mastermind.views.console.ProposedCombinationView--><path codeLine="22" d="M675.283,436.091 C659,453.018 639.284,473.514 621.398,492.108 " fill="none" id="mastermind.views.console.ProposalView-to-mastermind.views.console.ProposedCombinationView" style="stroke:#A80036;stroke-width:1.0;stroke-dasharray:7.0,7.0;"/><polygon fill="#A80036" points="617.847,495.799,626.9683,492.084,621.3126,492.1949,621.2017,486.5391,617.847,495.799" style="stroke:#A80036;stroke-width:1.0;"/><!--MD5=[f910cc4806900a39b8afa6d034f34cf3]
link mastermind.views.console.ProposalView to mastermind.views.console.ResultView--><path codeLine="23" d="M723.737,436.091 C731.546,456.608 741.35,482.366 749.443,503.626 " fill="none" id="mastermind.views.console.ProposalView-to-mastermind.views.console.ResultView" style="stroke:#A80036;stroke-width:1.0;stroke-dasharray:7.0,7.0;"/><polygon fill="#A80036" points="751.248,508.369,751.7849,498.5348,749.4694,503.696,744.3081,501.3806,751.248,508.369" style="stroke:#A80036;stroke-width:1.0;"/><!--MD5=[6fc7fb2c13082fa71105a82f7ff19067]
reverse link mastermind.utils.WithConsoleView to mastermind.views.console.ProposedCombinationView--><path codeLine="31" d="M946.12,276.81 C937.462,323.02 916.779,395.431 869,436 C805.021,490.324 763.071,447.688 685,478.5 C672.662,483.369 660.063,489.42 647.954,495.867 " fill="none" id="mastermind.utils.WithConsoleView-backto-mastermind.views.console.ProposedCombinationView" style="stroke:#A80036;stroke-width:1.0;"/><polygon fill="none" points="939.217,275.647,949.389,257.058,953.03,277.932,939.217,275.647" style="stroke:#A80036;stroke-width:1.0;"/><!--MD5=[47fcd7a57227699b49f9c52e957098d9]
reverse link mastermind.utils.WithConsoleView to mastermind.views.console.ResultView--><path codeLine="37" d="M960.294,277.171 C966.26,320.497 968.865,387.579 940,436 C915.106,477.76 867.272,505.771 827.898,522.856 " fill="none" id="mastermind.utils.WithConsoleView-backto-mastermind.views.console.ResultView" style="stroke:#A80036;stroke-width:1.0;"/><polygon fill="none" points="953.344,278.037,957.068,257.177,967.165,275.807,953.344,278.037" style="stroke:#A80036;stroke-width:1.0;"/><!--MD5=[edfcb1643fa363f1e710dc3bf0b684df]
link mastermind.views.console.ResumeView to mastermind.controllers.Logic--><path codeLine="43" d="M298.632,436.223 C282.484,449.345 264.275,464.406 248,478.5 C233.479,491.075 217.711,505.444 204.643,517.558 " fill="none" id="mastermind.views.console.ResumeView-to-mastermind.controllers.Logic" style="stroke:#A80036;stroke-width:1.0;stroke-dasharray:7.0,7.0;"/><polygon fill="#A80036" points="200.678,521.24,209.9948,518.0467,204.3418,517.8376,204.5509,512.1846,200.678,521.24" style="stroke:#A80036;stroke-width:1.0;"/><!--MD5=[c0c64bbae2bd47c7147d7c8098f75764]
reverse link mastermind.utils.WithConsoleView to mastermind.views.console.SecretCombinationView--><path codeLine="49" d="M924.621,273.847 C884.992,331.27 815.44,431.003 807,436 C672.159,515.827 604.676,426.095 457,478.5 C437.013,485.593 416.862,496.998 399.632,508.348 " fill="none" id="mastermind.utils.WithConsoleView-backto-mastermind.views.console.SecretCombinationView" style="stroke:#A80036;stroke-width:1.0;"/><polygon fill="none" points="918.979,269.699,936.09,257.2,930.508,277.641,918.979,269.699" style="stroke:#A80036;stroke-width:1.0;"/><!--MD5=[2f013a332da3b492b12bade08781f2da]
reverse link mastermind.utils.WithConsoleView to mastermind.views.console.StartView--><path codeLine="55" d="M904.175,268.559 C886.011,280.471 864.7,293.052 844,302 C746.635,344.089 713.511,328.101 613,362 C607.325,363.914 601.494,366.027 595.671,368.241 " fill="none" id="mastermind.utils.WithConsoleView-backto-mastermind.views.console.StartView" style="stroke:#A80036;stroke-width:1.0;"/><polygon fill="none" points="900.347,262.698,920.827,257.259,908.209,274.282,900.347,262.698" style="stroke:#A80036;stroke-width:1.0;"/><!--MD5=[76a2c4134d169ae00698aa78cf6b853f]
link mastermind.views.console.StartView to mastermind.controllers.Logic--><path codeLine="56" d="M458.405,429.993 C452.565,432.155 446.71,434.193 441,436 C357.263,462.509 325.934,437.991 248,478.5 C229.434,488.151 212.037,503.832 198.996,517.489 " fill="none" id="mastermind.views.console.StartView-to-mastermind.controllers.Logic" style="stroke:#A80036;stroke-width:1.0;stroke-dasharray:7.0,7.0;"/><polygon fill="#A80036" points="195.436,521.28,204.5124,517.4565,198.8584,517.6348,198.6801,511.9808,195.436,521.28" style="stroke:#A80036;stroke-width:1.0;"/><!--MD5=[c9f61e8d6cb21346a4281df4f03c0bff]
@startuml
class  mastermind.views.console.ConsoleView{
- startView: StartView
- proposalView: ProposalView
- resumeView: ResumeView
+ ConsoleView(Logic)
# start(): void
# resume(): boolean
# propose(): boolean
}
mastermind.views.View <|-down- mastermind.views.console.ConsoleView
mastermind.views.console.ConsoleView *-down-> mastermind.views.console.ProposalView
mastermind.views.console.ConsoleView *-down-> mastermind.views.console.ResumeView
mastermind.views.console.ConsoleView *-down-> mastermind.views.console.StartView

class  mastermind.views.console.ProposalView{
~ ProposalView()
~ interact(Logic): boolean
}
mastermind.utils.WithConsoleView <|-down- mastermind.views.console.ProposalView
mastermind.views.console.ProposalView ..> mastermind.controllers.Logic
mastermind.views.console.ProposalView ..> mastermind.views.console.SecretCombinationView
mastermind.views.console.ProposalView ..> mastermind.views.console.ProposedCombinationView
mastermind.views.console.ProposalView ..> mastermind.views.console.ResultView

class  mastermind.views.console.ProposedCombinationView{
- {static} ERROR_CODE: int
~ ProposedCombinationView()
~ write(int[]): void
~ read(): int[]
}
mastermind.utils.WithConsoleView <|-down- mastermind.views.console.ProposedCombinationView

class  mastermind.views.console.ResultView{
~ ResultView()
~ writeln(int[]): void
}
mastermind.utils.WithConsoleView <|-down- mastermind.views.console.ResultView

class  mastermind.views.console.ResumeView{
~ ResumeView()
~ interact(Logic): boolean
}
mastermind.views.console.ResumeView ..> mastermind.controllers.Logic

class  mastermind.views.console.SecretCombinationView{
~ SecretCombinationView()
~ writeln(int): void
}
mastermind.utils.WithConsoleView <|-down- mastermind.views.console.SecretCombinationView

class  mastermind.views.console.StartView{
~ StartView()
~ interact(Logic): void
}
mastermind.utils.WithConsoleView <|-down- mastermind.views.console.StartView
mastermind.views.console.StartView ..> mastermind.controllers.Logic
@enduml

PlantUML version 1.2020.21beta3(Unknown compile time)
(GPL source distribution)
Java Runtime: Java(TM) SE Runtime Environment
JVM: Java HotSpot(TM) 64-Bit Server VM
Default Encoding: UTF-8
Language: en
Country: US
--></g></svg>