<?xml version="1.0" encoding="UTF-8" standalone="no"?><svg xmlns="http://www.w3.org/2000/svg" xmlns:xlink="http://www.w3.org/1999/xlink" contentScriptType="application/ecmascript" contentStyleType="text/css" height="451px" preserveAspectRatio="none" style="width:971px;height:451px;" version="1.1" viewBox="0 0 971 451" width="971px" zoomAndPan="magnify"><defs><filter height="300%" id="fg0pt6y66qilp" width="300%" x="-1" y="-1"><feGaussianBlur result="blurOut" stdDeviation="2.0"/><feColorMatrix in="blurOut" result="blurOut2" type="matrix" values="0 0 0 0 0 0 0 0 0 0 0 0 0 0 0 0 0 0 .4 0"/><feOffset dx="4.0" dy="4.0" in="blurOut2" result="blurOut3"/><feBlend in="SourceGraphic" in2="blurOut3" mode="normal"/></filter></defs><g><!--MD5=[29d5d00c8f272934fcfbf235a28c504f]
cluster usantatecla.mastermind.views--><polygon fill="#FFFFFF" filter="url(#fg0pt6y66qilp)" points="16,6,273,6,280,28.2969,664,28.2969,664,444,16,444,16,6" style="stroke:#000000;stroke-width:1.5;"/><line style="stroke:#000000;stroke-width:1.5;" x1="16" x2="280" y1="28.2969" y2="28.2969"/><text fill="#000000" font-family="sans-serif" font-size="14" font-weight="bold" lengthAdjust="spacingAndGlyphs" textLength="251" x="20" y="20.9951">usantatecla.mastermind.views</text><!--MD5=[dab5b8162ddba5d4d249ad537ad64188]
class usantatecla.mastermind.views.ColorView--><rect codeLine="1" fill="#FEFECE" filter="url(#fg0pt6y66qilp)" height="137.6328" id="usantatecla.mastermind.views.ColorView" style="stroke:#A80036;stroke-width:1.5;" width="205" x="32.5" y="41"/><ellipse cx="101.75" cy="57" fill="#A9DCDF" rx="11" ry="11" style="stroke:#A80036;stroke-width:1.0;"/><path d="M103.8281,58.8125 L104.2188,59.7969 L103.8281,59.7969 C103.375,59.7969 103.2656,59.8125 103.1094,59.9219 C102.8594,60.0781 102.7031,60.3594 102.7031,60.6563 C102.7031,60.9219 102.8438,61.1719 103.0625,61.3281 C103.2031,61.4531 103.4063,61.5 103.8281,61.5 L106.1875,61.5 C106.5469,61.5 106.7656,61.4688 106.9063,61.375 C107.1563,61.2344 107.3125,60.9375 107.3125,60.6563 C107.3125,60.375 107.1719,60.125 106.9531,59.9688 C106.7813,59.8281 106.625,59.7969 106.1563,59.7969 L102.7656,51.5938 L99.0938,51.5938 C98.6406,51.5938 98.5156,51.6094 98.3594,51.7031 C98.1094,51.875 97.9531,52.1563 97.9531,52.4375 C97.9531,52.7188 98.0938,52.9688 98.3125,53.1406 C98.4844,53.25 98.6563,53.2813 99.0938,53.2813 L100.1719,53.2813 L97.5313,59.7969 C97.1094,59.7969 96.9531,59.8125 96.7969,59.9219 C96.5469,60.0781 96.3906,60.3594 96.3906,60.6563 C96.3906,61.2188 96.7656,61.5 97.5156,61.5 L99.7813,61.5 C100.1406,61.5 100.3594,61.4688 100.4844,61.375 C100.75,61.2344 100.8906,60.9375 100.8906,60.6563 C100.8906,60.375 100.7656,60.125 100.5469,59.9531 C100.375,59.8281 100.2344,59.7969 99.7813,59.7969 L99.3906,59.7969 L99.7813,58.8125 L103.8281,58.8125 Z M103.125,57.1094 L100.4531,57.1094 L101.7969,53.8438 L103.125,57.1094 Z " fill="#000000"/><text fill="#000000" font-family="sans-serif" font-size="12" font-style="italic" lengthAdjust="spacingAndGlyphs" textLength="58" x="122.25" y="61.1543">ColorView</text><line style="stroke:#A80036;stroke-width:1.5;" x1="33.5" x2="236.5" y1="73" y2="73"/><ellipse cx="43.5" cy="84" fill="none" rx="3" ry="3" style="stroke:#038048;stroke-width:1.0;"/><text fill="#000000" font-family="sans-serif" font-size="11" lengthAdjust="spacingAndGlyphs" text-decoration="underline" textLength="85" x="52.5" y="87.2104">INITIALS: char[]</text><polygon fill="none" points="43.5,91.8047,47.5,95.8047,43.5,99.8047,39.5,95.8047" style="stroke:#B38D22;stroke-width:1.0;"/><text fill="#000000" font-family="sans-serif" font-size="11" lengthAdjust="spacingAndGlyphs" textLength="63" x="52.5" y="100.0151">color: Color</text><line style="stroke:#A80036;stroke-width:1.5;" x1="33.5" x2="236.5" y1="106.6094" y2="106.6094"/><polygon fill="#FFFF44" points="43.5,112.6094,47.5,116.6094,43.5,120.6094,39.5,116.6094" style="stroke:#B38D22;stroke-width:1.0;"/><text fill="#000000" font-family="sans-serif" font-size="11" lengthAdjust="spacingAndGlyphs" textLength="65" x="52.5" y="120.8198">ColorView()</text><polygon fill="#FFFF44" points="43.5,125.4141,47.5,129.4141,43.5,133.4141,39.5,129.4141" style="stroke:#B38D22;stroke-width:1.0;"/><text fill="#000000" font-family="sans-serif" font-size="11" lengthAdjust="spacingAndGlyphs" textLength="94" x="52.5" y="133.6245">ColorView(Color)</text><ellipse cx="43.5" cy="143.2188" fill="#84BE84" rx="3" ry="3" style="stroke:#038048;stroke-width:1.0;"/><text fill="#000000" font-family="sans-serif" font-size="11" lengthAdjust="spacingAndGlyphs" text-decoration="underline" textLength="135" x="52.5" y="146.4292">getInstance(char): Color</text><ellipse cx="43.5" cy="156.0234" fill="#84BE84" rx="3" ry="3" style="stroke:#038048;stroke-width:1.0;"/><text fill="#000000" font-family="sans-serif" font-size="11" lengthAdjust="spacingAndGlyphs" textLength="97" x="52.5" y="159.2339">allInitials(): String</text><polygon fill="#FFFF44" points="43.5,163.8281,47.5,167.8281,43.5,171.8281,39.5,167.8281" style="stroke:#B38D22;stroke-width:1.0;"/><text fill="#000000" font-family="sans-serif" font-size="11" lengthAdjust="spacingAndGlyphs" textLength="179" x="52.5" y="172.0386">abstract resultInitials(int): String</text><!--MD5=[bd953d99961dd365a3924fc1e98cf727]
class usantatecla.mastermind.views.ErrorView--><rect codeLine="11" fill="#FEFECE" filter="url(#fg0pt6y66qilp)" height="112.0234" id="usantatecla.mastermind.views.ErrorView" style="stroke:#A80036;stroke-width:1.5;" width="186" x="462" y="54"/><ellipse cx="521.75" cy="70" fill="#A9DCDF" rx="11" ry="11" style="stroke:#A80036;stroke-width:1.0;"/><path d="M523.8281,71.8125 L524.2188,72.7969 L523.8281,72.7969 C523.375,72.7969 523.2656,72.8125 523.1094,72.9219 C522.8594,73.0781 522.7031,73.3594 522.7031,73.6563 C522.7031,73.9219 522.8438,74.1719 523.0625,74.3281 C523.2031,74.4531 523.4063,74.5 523.8281,74.5 L526.1875,74.5 C526.5469,74.5 526.7656,74.4688 526.9063,74.375 C527.1563,74.2344 527.3125,73.9375 527.3125,73.6563 C527.3125,73.375 527.1719,73.125 526.9531,72.9688 C526.7813,72.8281 526.625,72.7969 526.1563,72.7969 L522.7656,64.5938 L519.0938,64.5938 C518.6406,64.5938 518.5156,64.6094 518.3594,64.7031 C518.1094,64.875 517.9531,65.1563 517.9531,65.4375 C517.9531,65.7188 518.0938,65.9688 518.3125,66.1406 C518.4844,66.25 518.6563,66.2813 519.0938,66.2813 L520.1719,66.2813 L517.5313,72.7969 C517.1094,72.7969 516.9531,72.8125 516.7969,72.9219 C516.5469,73.0781 516.3906,73.3594 516.3906,73.6563 C516.3906,74.2188 516.7656,74.5 517.5156,74.5 L519.7813,74.5 C520.1406,74.5 520.3594,74.4688 520.4844,74.375 C520.75,74.2344 520.8906,73.9375 520.8906,73.6563 C520.8906,73.375 520.7656,73.125 520.5469,72.9531 C520.375,72.8281 520.2344,72.7969 519.7813,72.7969 L519.3906,72.7969 L519.7813,71.8125 L523.8281,71.8125 Z M523.125,70.1094 L520.4531,70.1094 L521.7969,66.8438 L523.125,70.1094 Z " fill="#000000"/><text fill="#000000" font-family="sans-serif" font-size="12" font-style="italic" lengthAdjust="spacingAndGlyphs" textLength="58" x="542.25" y="74.1543">ErrorView</text><line style="stroke:#A80036;stroke-width:1.5;" x1="463" x2="647" y1="86" y2="86"/><ellipse cx="473" cy="97" fill="none" rx="3" ry="3" style="stroke:#038048;stroke-width:1.0;"/><text fill="#000000" font-family="sans-serif" font-size="11" lengthAdjust="spacingAndGlyphs" textLength="112" x="482" y="100.2104">MESSAGES: String[]</text><polygon fill="none" points="473,104.8047,477,108.8047,473,112.8047,469,108.8047" style="stroke:#B38D22;stroke-width:1.0;"/><text fill="#000000" font-family="sans-serif" font-size="11" lengthAdjust="spacingAndGlyphs" textLength="60" x="482" y="113.0151">error: Error</text><line style="stroke:#A80036;stroke-width:1.5;" x1="463" x2="647" y1="119.6094" y2="119.6094"/><polygon fill="#FFFF44" points="473,125.6094,477,129.6094,473,133.6094,469,129.6094" style="stroke:#B38D22;stroke-width:1.0;"/><text fill="#000000" font-family="sans-serif" font-size="11" lengthAdjust="spacingAndGlyphs" textLength="62" x="482" y="133.8198">ErrorView()</text><ellipse cx="473" cy="143.4141" fill="#84BE84" rx="3" ry="3" style="stroke:#038048;stroke-width:1.0;"/><text fill="#000000" font-family="sans-serif" font-size="11" lengthAdjust="spacingAndGlyphs" textLength="88" x="482" y="146.6245">ErrorView(Error)</text><polygon fill="#FFFF44" points="473,151.2188,477,155.2188,473,159.2188,469,155.2188" style="stroke:#B38D22;stroke-width:1.0;"/><text fill="#000000" font-family="sans-serif" font-size="11" lengthAdjust="spacingAndGlyphs" textLength="160" x="482" y="159.4292">abstract colorInitials(): String</text><!--MD5=[869bb932d54482a0e6fc3ac31d21d51b]
class usantatecla.mastermind.views.MessageView--><rect codeLine="19" fill="#FEFECE" filter="url(#fg0pt6y66qilp)" height="188.8516" id="usantatecla.mastermind.views.MessageView" style="stroke:#A80036;stroke-width:1.5;" width="173" x="48.5" y="239"/><ellipse cx="89.15" cy="255" fill="#EB937F" rx="11" ry="11" style="stroke:#A80036;stroke-width:1.0;"/><path d="M87.9469,255.875 L89.4,255.875 L89.4,255.9844 C89.4,256.3906 89.4313,256.5469 89.5094,256.7031 C89.6656,256.9531 89.9469,257.1094 90.2438,257.1094 C90.4938,257.1094 90.7594,256.9688 90.9156,256.75 C91.0406,256.5938 91.0719,256.4375 91.0719,255.9844 L91.0719,254.0625 C91.0719,253.9063 91.0719,253.8594 91.0563,253.7031 C90.9938,253.2344 90.6813,252.9219 90.2281,252.9219 C89.9781,252.9219 89.7125,253.0625 89.5406,253.2813 C89.4313,253.4531 89.4,253.6094 89.4,254.0625 L89.4,254.1875 L87.9469,254.1875 L87.9469,251.7813 L91.9313,251.7813 L91.9313,252.6406 C91.9313,253.0469 91.9625,253.2188 92.0406,253.375 C92.2125,253.625 92.4938,253.7813 92.775,253.7813 C93.0406,253.7813 93.3063,253.6406 93.4781,253.4219 C93.5875,253.25 93.6188,253.1094 93.6188,252.6406 L93.6188,250.0938 L85.9938,250.0938 C85.5563,250.0938 85.4313,250.1094 85.275,250.2031 C85.025,250.3594 84.8688,250.6563 84.8688,250.9375 C84.8688,251.2188 85.0094,251.4688 85.2281,251.6406 C85.3844,251.75 85.5719,251.7813 85.9938,251.7813 L86.2438,251.7813 L86.2438,258.2969 L85.9938,258.2969 C85.5875,258.2969 85.4313,258.3125 85.275,258.4219 C85.025,258.5938 84.8688,258.8594 84.8688,259.1563 C84.8688,259.4219 85.0094,259.6719 85.2281,259.8281 C85.3688,259.9531 85.6031,260 85.9938,260 L93.9938,260 L93.9938,257.4219 C93.9938,256.9844 93.9625,256.8438 93.8844,256.6875 C93.7125,256.4375 93.4313,256.2813 93.15,256.2813 C92.8844,256.2813 92.6188,256.3906 92.4469,256.6406 C92.3375,256.7969 92.3063,256.9375 92.3063,257.4219 L92.3063,258.2969 L87.9469,258.2969 L87.9469,255.875 Z " fill="#000000"/><text fill="#000000" font-family="sans-serif" font-size="12" lengthAdjust="spacingAndGlyphs" textLength="84" x="108.85" y="259.1543">MessageView</text><line style="stroke:#A80036;stroke-width:1.5;" x1="49.5" x2="220.5" y1="271" y2="271"/><ellipse cx="59.5" cy="282" fill="none" rx="3" ry="3" style="stroke:#038048;stroke-width:1.0;"/><text fill="#000000" font-family="sans-serif" font-size="11" lengthAdjust="spacingAndGlyphs" textLength="59" x="68.5" y="285.2104">ATTEMPTS</text><ellipse cx="59.5" cy="294.8047" fill="none" rx="3" ry="3" style="stroke:#038048;stroke-width:1.0;"/><text fill="#000000" font-family="sans-serif" font-size="11" lengthAdjust="spacingAndGlyphs" textLength="44" x="68.5" y="298.0151">SECRET</text><ellipse cx="59.5" cy="307.6094" fill="none" rx="3" ry="3" style="stroke:#038048;stroke-width:1.0;"/><text fill="#000000" font-family="sans-serif" font-size="11" lengthAdjust="spacingAndGlyphs" textLength="46" x="68.5" y="310.8198">RESUME</text><ellipse cx="59.5" cy="320.4141" fill="none" rx="3" ry="3" style="stroke:#038048;stroke-width:1.0;"/><text fill="#000000" font-family="sans-serif" font-size="11" lengthAdjust="spacingAndGlyphs" textLength="43" x="68.5" y="323.6245">RESULT</text><ellipse cx="59.5" cy="333.2188" fill="none" rx="3" ry="3" style="stroke:#038048;stroke-width:1.0;"/><text fill="#000000" font-family="sans-serif" font-size="11" lengthAdjust="spacingAndGlyphs" textLength="147" x="68.5" y="336.4292">PROPOSED_COMBINATION</text><ellipse cx="59.5" cy="346.0234" fill="none" rx="3" ry="3" style="stroke:#038048;stroke-width:1.0;"/><text fill="#000000" font-family="sans-serif" font-size="11" lengthAdjust="spacingAndGlyphs" textLength="30" x="68.5" y="349.2339">TITLE</text><ellipse cx="59.5" cy="358.8281" fill="none" rx="3" ry="3" style="stroke:#038048;stroke-width:1.0;"/><text fill="#000000" font-family="sans-serif" font-size="11" lengthAdjust="spacingAndGlyphs" textLength="44" x="68.5" y="362.0386">WINNER</text><ellipse cx="59.5" cy="371.6328" fill="none" rx="3" ry="3" style="stroke:#038048;stroke-width:1.0;"/><text fill="#000000" font-family="sans-serif" font-size="11" lengthAdjust="spacingAndGlyphs" textLength="46" x="68.5" y="374.8433">LOOSER</text><rect fill="none" height="6" style="stroke:#C82930;stroke-width:1.0;" width="6" x="56.5" y="381.4375"/><text fill="#000000" font-family="sans-serif" font-size="11" lengthAdjust="spacingAndGlyphs" textLength="93" x="68.5" y="387.6479">message: String</text><line style="stroke:#A80036;stroke-width:1.5;" x1="49.5" x2="220.5" y1="394.2422" y2="394.2422"/><polygon fill="#4177AF" points="59.5,401.2422,55.5,407.2422,63.5,407.2422" style="stroke:#1963A0;stroke-width:1.0;"/><text fill="#000000" font-family="sans-serif" font-size="11" lengthAdjust="spacingAndGlyphs" textLength="120" x="68.5" y="408.4526">MessageView(String)</text><ellipse cx="59.5" cy="418.0469" fill="#84BE84" rx="3" ry="3" style="stroke:#038048;stroke-width:1.0;"/><text fill="#000000" font-family="sans-serif" font-size="11" lengthAdjust="spacingAndGlyphs" textLength="118" x="68.5" y="421.2573">getMessage(): String</text><!--MD5=[f5534db0476bcf0d5af6a596dc954aba]
class usantatecla.mastermind.views.View--><rect codeLine="33" fill="#FEFECE" filter="url(#fg0pt6y66qilp)" height="124.8281" id="usantatecla.mastermind.views.View" style="stroke:#A80036;stroke-width:1.5;" width="154" x="273" y="47.5"/><ellipse cx="331.75" cy="63.5" fill="#A9DCDF" rx="11" ry="11" style="stroke:#A80036;stroke-width:1.0;"/><path d="M333.8281,65.3125 L334.2188,66.2969 L333.8281,66.2969 C333.375,66.2969 333.2656,66.3125 333.1094,66.4219 C332.8594,66.5781 332.7031,66.8594 332.7031,67.1563 C332.7031,67.4219 332.8438,67.6719 333.0625,67.8281 C333.2031,67.9531 333.4063,68 333.8281,68 L336.1875,68 C336.5469,68 336.7656,67.9688 336.9063,67.875 C337.1563,67.7344 337.3125,67.4375 337.3125,67.1563 C337.3125,66.875 337.1719,66.625 336.9531,66.4688 C336.7813,66.3281 336.625,66.2969 336.1563,66.2969 L332.7656,58.0938 L329.0938,58.0938 C328.6406,58.0938 328.5156,58.1094 328.3594,58.2031 C328.1094,58.375 327.9531,58.6563 327.9531,58.9375 C327.9531,59.2188 328.0938,59.4688 328.3125,59.6406 C328.4844,59.75 328.6563,59.7813 329.0938,59.7813 L330.1719,59.7813 L327.5313,66.2969 C327.1094,66.2969 326.9531,66.3125 326.7969,66.4219 C326.5469,66.5781 326.3906,66.8594 326.3906,67.1563 C326.3906,67.7188 326.7656,68 327.5156,68 L329.7813,68 C330.1406,68 330.3594,67.9688 330.4844,67.875 C330.75,67.7344 330.8906,67.4375 330.8906,67.1563 C330.8906,66.875 330.7656,66.625 330.5469,66.4531 C330.375,66.3281 330.2344,66.2969 329.7813,66.2969 L329.3906,66.2969 L329.7813,65.3125 L333.8281,65.3125 Z M333.125,63.6094 L330.4531,63.6094 L331.7969,60.3438 L333.125,63.6094 Z " fill="#000000"/><text fill="#000000" font-family="sans-serif" font-size="12" font-style="italic" lengthAdjust="spacingAndGlyphs" textLength="28" x="352.25" y="67.6543">View</text><line style="stroke:#A80036;stroke-width:1.5;" x1="274" x2="426" y1="79.5" y2="79.5"/><polygon fill="none" points="284,85.5,288,89.5,284,93.5,280,89.5" style="stroke:#B38D22;stroke-width:1.0;"/><text fill="#000000" font-family="sans-serif" font-size="11" lengthAdjust="spacingAndGlyphs" textLength="62" x="293" y="93.7104">logic: Logic</text><line style="stroke:#A80036;stroke-width:1.5;" x1="274" x2="426" y1="100.3047" y2="100.3047"/><ellipse cx="284" cy="111.3047" fill="#84BE84" rx="3" ry="3" style="stroke:#038048;stroke-width:1.0;"/><text fill="#000000" font-family="sans-serif" font-size="11" lengthAdjust="spacingAndGlyphs" textLength="65" x="293" y="114.5151">View(Logic)</text><ellipse cx="284" cy="124.1094" fill="#84BE84" rx="3" ry="3" style="stroke:#038048;stroke-width:1.0;"/><text fill="#000000" font-family="sans-serif" font-size="11" lengthAdjust="spacingAndGlyphs" textLength="51" x="293" y="127.3198">interact()</text><polygon fill="#FFFF44" points="284,131.9141,288,135.9141,284,139.9141,280,135.9141" style="stroke:#B38D22;stroke-width:1.0;"/><text fill="#000000" font-family="sans-serif" font-size="11" font-style="italic" lengthAdjust="spacingAndGlyphs" textLength="34" x="293" y="140.1245">start()</text><polygon fill="#FFFF44" points="284,144.7188,288,148.7188,284,152.7188,280,148.7188" style="stroke:#B38D22;stroke-width:1.0;"/><text fill="#000000" font-family="sans-serif" font-size="11" font-style="italic" lengthAdjust="spacingAndGlyphs" textLength="107" x="293" y="152.9292">propose(): boolean</text><polygon fill="#FFFF44" points="284,157.5234,288,161.5234,284,165.5234,280,161.5234" style="stroke:#B38D22;stroke-width:1.0;"/><text fill="#000000" font-family="sans-serif" font-size="11" font-style="italic" lengthAdjust="spacingAndGlyphs" textLength="128" x="293" y="165.7339">isNewGame(): boolean</text><!--MD5=[42fa18dda7351a0ae87d9497de925436]
class Logic--><rect codeLine="41" fill="#FEFECE" filter="url(#fg0pt6y66qilp)" height="48" id="Logic" style="stroke:#A80036;stroke-width:1.5;" width="277" x="680.5" y="309.5"/><ellipse cx="695.5" cy="325.5" fill="#ADD1B2" rx="11" ry="11" style="stroke:#A80036;stroke-width:1.0;"/><path d="M697.8438,321.1719 C696.9063,320.7344 696.3125,320.5938 695.4375,320.5938 C692.8125,320.5938 690.8125,322.6719 690.8125,325.3906 L690.8125,326.5156 C690.8125,329.0938 692.9219,330.9844 695.8125,330.9844 C697.0313,330.9844 698.1875,330.6875 698.9375,330.1406 C699.5156,329.7344 699.8438,329.2813 699.8438,328.8906 C699.8438,328.4375 699.4531,328.0469 698.9844,328.0469 C698.7656,328.0469 698.5625,328.125 698.375,328.3125 C697.9219,328.7969 697.9219,328.7969 697.7344,328.8906 C697.3125,329.1563 696.625,329.2813 695.8594,329.2813 C693.8125,329.2813 692.5156,328.1875 692.5156,326.4844 L692.5156,325.3906 C692.5156,323.6094 693.7656,322.2969 695.5,322.2969 C696.0781,322.2969 696.6875,322.4531 697.1563,322.7031 C697.6406,322.9844 697.8125,323.2031 697.9063,323.6094 C697.9688,324.0156 698,324.1406 698.1406,324.2656 C698.2813,324.4063 698.5156,324.5156 698.7344,324.5156 C699,324.5156 699.2656,324.375 699.4375,324.1563 C699.5469,324 699.5781,323.8125 699.5781,323.3906 L699.5781,321.9688 C699.5781,321.5313 699.5625,321.4063 699.4688,321.25 C699.3125,320.9844 699.0313,320.8438 698.7344,320.8438 C698.4375,320.8438 698.2344,320.9375 698.0156,321.25 L697.8438,321.1719 Z " fill="#000000"/><text fill="#000000" font-family="sans-serif" font-size="12" lengthAdjust="spacingAndGlyphs" textLength="245" x="709.5" y="329.6543">usantatecla.mastermind.controllers.Logic</text><line style="stroke:#A80036;stroke-width:1.5;" x1="681.5" x2="956.5" y1="341.5" y2="341.5"/><line style="stroke:#A80036;stroke-width:1.5;" x1="681.5" x2="956.5" y1="349.5" y2="349.5"/><!--MD5=[dafc96a311a54f3c1c7cf36edc43186c]
link usantatecla.mastermind.views.View to Logic--><path codeLine="45" d="M437.6899,175.3135 C437.6899,175.3135 442.861,177.982 445,179 C536.121,222.381 571.248,199.226 664,239 C703.825,256.078 745.716,281.884 775.893,302.061 " fill="none" id="usantatecla.mastermind.views.View-Logic" style="stroke:#A80036;stroke-width:1.0;"/><polygon fill="#A80036" points="786.857,309.489,781.6494,301.1295,782.7175,306.6846,777.1624,307.7528,786.857,309.489" style="stroke:#A80036;stroke-width:1.0;"/><line style="stroke:#A80036;stroke-width:1.0;" x1="782.7175" x2="776.094" y1="306.6846" y2="302.197"/><polygon fill="#A80036" points="427.186,169.511,430.5038,175.9135,437.6899,175.3135,434.3721,168.911,427.186,169.511" style="stroke:#A80036;stroke-width:1.0;"/><!--MD5=[6cfd926ea0bbae4f43d9156786ae7a21]
link usantatecla.mastermind.views.ColorView to usantatecla.mastermind.views.ErrorView--><!--MD5=[118780b99b538c6ec9384862c3d01219]
link usantatecla.mastermind.views.ColorView to usantatecla.mastermind.views.MessageView--><!--MD5=[0b02e136cd95c29e1aac701f356a7225]
@startuml
abstract class  usantatecla.mastermind.views.ColorView{
+ {static} INITIALS: char[]
# color: Color
# ColorView()
# ColorView(Color)
+ {static} getInstance(char): Color
+ allInitials(): String
# abstract resultInitials(int): String
}

abstract class  usantatecla.mastermind.views.ErrorView{
+ MESSAGES: String[]
# error: Error
# ErrorView()
+ ErrorView(Error)
# abstract colorInitials(): String
}

 enum  usantatecla.mastermind.views.MessageView{
+ ATTEMPTS
+ SECRET
+ RESUME
+ RESULT
+ PROPOSED_COMBINATION
+ TITLE
+ WINNER
+ LOOSER
- message: String
~ MessageView(String)
+ getMessage(): String
}

abstract class  usantatecla.mastermind.views.View{
# logic: Logic
+ View(Logic)
+ interact()
# {abstract} start()
# {abstract} propose(): boolean
# {abstract} isNewGame(): boolean
}
class Logic as "usantatecla.mastermind.controllers.Logic" {


}
usantatecla.mastermind.views.View *-down-> Logic
@enduml

PlantUML version 1.2020.21beta7(Unknown compile time)
(GPL source distribution)
Java Runtime: Java(TM) SE Runtime Environment
JVM: Java HotSpot(TM) 64-Bit Server VM
Default Encoding: UTF-8
Language: en
Country: US
--></g></svg>