<?xml version="1.0" encoding="UTF-8" standalone="no"?><svg xmlns="http://www.w3.org/2000/svg" xmlns:xlink="http://www.w3.org/1999/xlink" contentScriptType="application/ecmascript" contentStyleType="text/css" height="540px" preserveAspectRatio="none" style="width:847px;height:540px;" version="1.1" viewBox="0 0 847 540" width="847px" zoomAndPan="magnify"><defs><filter height="300%" id="f5q6glj5zv59k" width="300%" x="-1" y="-1"><feGaussianBlur result="blurOut" stdDeviation="2.0"/><feColorMatrix in="blurOut" result="blurOut2" type="matrix" values="0 0 0 0 0 0 0 0 0 0 0 0 0 0 0 0 0 0 .4 0"/><feOffset dx="4.0" dy="4.0" in="blurOut2" result="blurOut3"/><feBlend in="SourceGraphic" in2="blurOut3" mode="normal"/></filter></defs><g><!--MD5=[57ab11106b6017d1c059bb8de6501622]
cluster mastermind.views--><polygon fill="#FFFFFF" filter="url(#f5q6glj5zv59k)" points="16,6,170,6,177,28.2969,598,28.2969,598,533,16,533,16,6" style="stroke:#000000;stroke-width:1.5;"/><line style="stroke:#000000;stroke-width:1.5;" x1="16" x2="177" y1="28.2969" y2="28.2969"/><text fill="#000000" font-family="sans-serif" font-size="14" font-weight="bold" lengthAdjust="spacingAndGlyphs" textLength="148" x="20" y="20.9951">mastermind.views</text><!--MD5=[f4a8416df5d5f7c80a7d3a30f9e0f7a6]
cluster mastermind.controllers--><polygon fill="#FFFFFF" filter="url(#f5q6glj5zv59k)" points="622,357,820,357,827,379.2969,830,379.2969,830,456,622,456,622,357" style="stroke:#000000;stroke-width:1.5;"/><line style="stroke:#000000;stroke-width:1.5;" x1="622" x2="827" y1="379.2969" y2="379.2969"/><text fill="#000000" font-family="sans-serif" font-size="14" font-weight="bold" lengthAdjust="spacingAndGlyphs" textLength="192" x="626" y="371.9951">mastermind.controllers</text><!--MD5=[5d38a670ed0f1b5ba8e2951af6280086]
class mastermind.views.Color--><rect codeLine="1" fill="#FEFECE" filter="url(#f5q6glj5zv59k)" height="214.4609" id="mastermind.views.Color" style="stroke:#A80036;stroke-width:1.5;" width="161" x="32.5" y="41"/><ellipse cx="92.75" cy="57" fill="#ADD1B2" rx="11" ry="11" style="stroke:#A80036;stroke-width:1.0;"/><path d="M95.0938,52.6719 C94.1563,52.2344 93.5625,52.0938 92.6875,52.0938 C90.0625,52.0938 88.0625,54.1719 88.0625,56.8906 L88.0625,58.0156 C88.0625,60.5938 90.1719,62.4844 93.0625,62.4844 C94.2813,62.4844 95.4375,62.1875 96.1875,61.6406 C96.7656,61.2344 97.0938,60.7813 97.0938,60.3906 C97.0938,59.9375 96.7031,59.5469 96.2344,59.5469 C96.0156,59.5469 95.8125,59.625 95.625,59.8125 C95.1719,60.2969 95.1719,60.2969 94.9844,60.3906 C94.5625,60.6563 93.875,60.7813 93.1094,60.7813 C91.0625,60.7813 89.7656,59.6875 89.7656,57.9844 L89.7656,56.8906 C89.7656,55.1094 91.0156,53.7969 92.75,53.7969 C93.3281,53.7969 93.9375,53.9531 94.4063,54.2031 C94.8906,54.4844 95.0625,54.7031 95.1563,55.1094 C95.2188,55.5156 95.25,55.6406 95.3906,55.7656 C95.5313,55.9063 95.7656,56.0156 95.9844,56.0156 C96.25,56.0156 96.5156,55.875 96.6875,55.6563 C96.7969,55.5 96.8281,55.3125 96.8281,54.8906 L96.8281,53.4688 C96.8281,53.0313 96.8125,52.9063 96.7188,52.75 C96.5625,52.4844 96.2813,52.3438 95.9844,52.3438 C95.6875,52.3438 95.4844,52.4375 95.2656,52.75 L95.0938,52.6719 Z " fill="#000000"/><text fill="#000000" font-family="sans-serif" font-size="12" lengthAdjust="spacingAndGlyphs" textLength="32" x="113.25" y="61.1543">Color</text><line style="stroke:#A80036;stroke-width:1.5;" x1="33.5" x2="192.5" y1="73" y2="73"/><ellipse cx="43.5" cy="84" fill="none" rx="3" ry="3" style="stroke:#038048;stroke-width:1.0;"/><text fill="#000000" font-family="sans-serif" font-size="11" lengthAdjust="spacingAndGlyphs" text-decoration="underline" textLength="59" x="52.5" y="87.2104">RED: Color</text><ellipse cx="43.5" cy="96.8047" fill="none" rx="3" ry="3" style="stroke:#038048;stroke-width:1.0;"/><text fill="#000000" font-family="sans-serif" font-size="11" lengthAdjust="spacingAndGlyphs" text-decoration="underline" textLength="65" x="52.5" y="100.0151">BLUE: Color</text><ellipse cx="43.5" cy="109.6094" fill="none" rx="3" ry="3" style="stroke:#038048;stroke-width:1.0;"/><text fill="#000000" font-family="sans-serif" font-size="11" lengthAdjust="spacingAndGlyphs" text-decoration="underline" textLength="82" x="52.5" y="112.8198">YELLOW: Color</text><ellipse cx="43.5" cy="122.4141" fill="none" rx="3" ry="3" style="stroke:#038048;stroke-width:1.0;"/><text fill="#000000" font-family="sans-serif" font-size="11" lengthAdjust="spacingAndGlyphs" text-decoration="underline" textLength="74" x="52.5" y="125.6245">GREEN: Color</text><ellipse cx="43.5" cy="135.2188" fill="none" rx="3" ry="3" style="stroke:#038048;stroke-width:1.0;"/><text fill="#000000" font-family="sans-serif" font-size="11" lengthAdjust="spacingAndGlyphs" text-decoration="underline" textLength="84" x="52.5" y="138.4292">ORANGE: Color</text><ellipse cx="43.5" cy="148.0234" fill="none" rx="3" ry="3" style="stroke:#038048;stroke-width:1.0;"/><text fill="#000000" font-family="sans-serif" font-size="11" lengthAdjust="spacingAndGlyphs" text-decoration="underline" textLength="76" x="52.5" y="151.2339">PURPLE: Color</text><rect fill="none" height="6" style="stroke:#C82930;stroke-width:1.0;" width="6" x="40.5" y="157.8281"/><text fill="#000000" font-family="sans-serif" font-size="11" lengthAdjust="spacingAndGlyphs" textLength="61" x="52.5" y="164.0386">initial: char</text><line style="stroke:#A80036;stroke-width:1.5;" x1="33.5" x2="192.5" y1="170.6328" y2="170.6328"/><rect fill="#F24D5C" height="6" style="stroke:#C82930;stroke-width:1.0;" width="6" x="40.5" y="178.6328"/><text fill="#000000" font-family="sans-serif" font-size="11" lengthAdjust="spacingAndGlyphs" textLength="61" x="52.5" y="184.8433">Color(char)</text><ellipse cx="43.5" cy="194.4375" fill="#84BE84" rx="3" ry="3" style="stroke:#038048;stroke-width:1.0;"/><text fill="#000000" font-family="sans-serif" font-size="11" lengthAdjust="spacingAndGlyphs" text-decoration="underline" textLength="122" x="52.5" y="197.6479">valueOf(String): Color</text><ellipse cx="43.5" cy="207.2422" fill="#84BE84" rx="3" ry="3" style="stroke:#038048;stroke-width:1.0;"/><text fill="#000000" font-family="sans-serif" font-size="11" lengthAdjust="spacingAndGlyphs" text-decoration="underline" textLength="135" x="52.5" y="210.4526">getInstance(char): Color</text><ellipse cx="43.5" cy="220.0469" fill="#84BE84" rx="3" ry="3" style="stroke:#038048;stroke-width:1.0;"/><text fill="#000000" font-family="sans-serif" font-size="11" lengthAdjust="spacingAndGlyphs" text-decoration="underline" textLength="125" x="52.5" y="223.2573">getInstance(int): Color</text><ellipse cx="43.5" cy="232.8516" fill="#84BE84" rx="3" ry="3" style="stroke:#038048;stroke-width:1.0;"/><text fill="#000000" font-family="sans-serif" font-size="11" lengthAdjust="spacingAndGlyphs" text-decoration="underline" textLength="97" x="52.5" y="236.062">allInitials(): String</text><ellipse cx="43.5" cy="245.6563" fill="#84BE84" rx="3" ry="3" style="stroke:#038048;stroke-width:1.0;"/><text fill="#000000" font-family="sans-serif" font-size="11" lengthAdjust="spacingAndGlyphs" textLength="88" x="52.5" y="248.8667">getInitial(): char</text><!--MD5=[bbddd907ab4058f685307d7f235249f1]
class mastermind.views.Error--><rect codeLine="17" fill="#FEFECE" filter="url(#f5q6glj5zv59k)" height="137.6328" id="mastermind.views.Error" style="stroke:#A80036;stroke-width:1.5;" width="185" x="396.5" y="79"/><ellipse cx="469.75" cy="95" fill="#ADD1B2" rx="11" ry="11" style="stroke:#A80036;stroke-width:1.0;"/><path d="M472.0938,90.6719 C471.1563,90.2344 470.5625,90.0938 469.6875,90.0938 C467.0625,90.0938 465.0625,92.1719 465.0625,94.8906 L465.0625,96.0156 C465.0625,98.5938 467.1719,100.4844 470.0625,100.4844 C471.2813,100.4844 472.4375,100.1875 473.1875,99.6406 C473.7656,99.2344 474.0938,98.7813 474.0938,98.3906 C474.0938,97.9375 473.7031,97.5469 473.2344,97.5469 C473.0156,97.5469 472.8125,97.625 472.625,97.8125 C472.1719,98.2969 472.1719,98.2969 471.9844,98.3906 C471.5625,98.6563 470.875,98.7813 470.1094,98.7813 C468.0625,98.7813 466.7656,97.6875 466.7656,95.9844 L466.7656,94.8906 C466.7656,93.1094 468.0156,91.7969 469.75,91.7969 C470.3281,91.7969 470.9375,91.9531 471.4063,92.2031 C471.8906,92.4844 472.0625,92.7031 472.1563,93.1094 C472.2188,93.5156 472.25,93.6406 472.3906,93.7656 C472.5313,93.9063 472.7656,94.0156 472.9844,94.0156 C473.25,94.0156 473.5156,93.875 473.6875,93.6563 C473.7969,93.5 473.8281,93.3125 473.8281,92.8906 L473.8281,91.4688 C473.8281,91.0313 473.8125,90.9063 473.7188,90.75 C473.5625,90.4844 473.2813,90.3438 472.9844,90.3438 C472.6875,90.3438 472.4844,90.4375 472.2656,90.75 L472.0938,90.6719 Z " fill="#000000"/><text fill="#000000" font-family="sans-serif" font-size="12" lengthAdjust="spacingAndGlyphs" textLength="30" x="490.25" y="99.1543">Error</text><line style="stroke:#A80036;stroke-width:1.5;" x1="397.5" x2="580.5" y1="111" y2="111"/><ellipse cx="407.5" cy="122" fill="none" rx="3" ry="3" style="stroke:#038048;stroke-width:1.0;"/><text fill="#000000" font-family="sans-serif" font-size="11" lengthAdjust="spacingAndGlyphs" text-decoration="underline" textLength="104" x="416.5" y="125.2104">DUPLICATED: Error</text><ellipse cx="407.5" cy="134.8047" fill="none" rx="3" ry="3" style="stroke:#038048;stroke-width:1.0;"/><text fill="#000000" font-family="sans-serif" font-size="11" lengthAdjust="spacingAndGlyphs" text-decoration="underline" textLength="159" x="416.5" y="138.0151">WRONG_CHARACTERS: Error</text><ellipse cx="407.5" cy="147.6094" fill="none" rx="3" ry="3" style="stroke:#038048;stroke-width:1.0;"/><text fill="#000000" font-family="sans-serif" font-size="11" lengthAdjust="spacingAndGlyphs" text-decoration="underline" textLength="128" x="416.5" y="150.8198">WRONG_LENGTH: Error</text><rect fill="none" height="6" style="stroke:#C82930;stroke-width:1.0;" width="6" x="404.5" y="157.4141"/><text fill="#000000" font-family="sans-serif" font-size="11" lengthAdjust="spacingAndGlyphs" textLength="93" x="416.5" y="163.6245">message: String</text><line style="stroke:#A80036;stroke-width:1.5;" x1="397.5" x2="580.5" y1="170.2188" y2="170.2188"/><rect fill="#F24D5C" height="6" style="stroke:#C82930;stroke-width:1.0;" width="6" x="404.5" y="178.2188"/><text fill="#000000" font-family="sans-serif" font-size="11" lengthAdjust="spacingAndGlyphs" textLength="67" x="416.5" y="184.4292">Error(String)</text><ellipse cx="407.5" cy="194.0234" fill="#84BE84" rx="3" ry="3" style="stroke:#038048;stroke-width:1.0;"/><text fill="#000000" font-family="sans-serif" font-size="11" lengthAdjust="spacingAndGlyphs" text-decoration="underline" textLength="119" x="416.5" y="197.2339">valueOf(String): Error</text><ellipse cx="407.5" cy="206.8281" fill="#84BE84" rx="3" ry="3" style="stroke:#038048;stroke-width:1.0;"/><text fill="#000000" font-family="sans-serif" font-size="11" lengthAdjust="spacingAndGlyphs" textLength="118" x="416.5" y="210.0386">getMessage(): String</text><!--MD5=[7f911fdcbedd274c0437bfdd06f35980]
class mastermind.views.Message--><rect codeLine="27" fill="#FEFECE" filter="url(#f5q6glj5zv59k)" height="201.6563" id="mastermind.views.Message" style="stroke:#A80036;stroke-width:1.5;" width="231" x="32.5" y="315"/><ellipse cx="116.25" cy="331" fill="#ADD1B2" rx="11" ry="11" style="stroke:#A80036;stroke-width:1.0;"/><path d="M118.5938,326.6719 C117.6563,326.2344 117.0625,326.0938 116.1875,326.0938 C113.5625,326.0938 111.5625,328.1719 111.5625,330.8906 L111.5625,332.0156 C111.5625,334.5938 113.6719,336.4844 116.5625,336.4844 C117.7813,336.4844 118.9375,336.1875 119.6875,335.6406 C120.2656,335.2344 120.5938,334.7813 120.5938,334.3906 C120.5938,333.9375 120.2031,333.5469 119.7344,333.5469 C119.5156,333.5469 119.3125,333.625 119.125,333.8125 C118.6719,334.2969 118.6719,334.2969 118.4844,334.3906 C118.0625,334.6563 117.375,334.7813 116.6094,334.7813 C114.5625,334.7813 113.2656,333.6875 113.2656,331.9844 L113.2656,330.8906 C113.2656,329.1094 114.5156,327.7969 116.25,327.7969 C116.8281,327.7969 117.4375,327.9531 117.9063,328.2031 C118.3906,328.4844 118.5625,328.7031 118.6563,329.1094 C118.7188,329.5156 118.75,329.6406 118.8906,329.7656 C119.0313,329.9063 119.2656,330.0156 119.4844,330.0156 C119.75,330.0156 120.0156,329.875 120.1875,329.6563 C120.2969,329.5 120.3281,329.3125 120.3281,328.8906 L120.3281,327.4688 C120.3281,327.0313 120.3125,326.9063 120.2188,326.75 C120.0625,326.4844 119.7813,326.3438 119.4844,326.3438 C119.1875,326.3438 118.9844,326.4375 118.7656,326.75 L118.5938,326.6719 Z " fill="#000000"/><text fill="#000000" font-family="sans-serif" font-size="12" lengthAdjust="spacingAndGlyphs" textLength="55" x="136.75" y="335.1543">Message</text><line style="stroke:#A80036;stroke-width:1.5;" x1="33.5" x2="262.5" y1="347" y2="347"/><ellipse cx="43.5" cy="358" fill="none" rx="3" ry="3" style="stroke:#038048;stroke-width:1.0;"/><text fill="#000000" font-family="sans-serif" font-size="11" lengthAdjust="spacingAndGlyphs" text-decoration="underline" textLength="88" x="52.5" y="361.2104">TURN: Message</text><ellipse cx="43.5" cy="370.8047" fill="none" rx="3" ry="3" style="stroke:#038048;stroke-width:1.0;"/><text fill="#000000" font-family="sans-serif" font-size="11" lengthAdjust="spacingAndGlyphs" text-decoration="underline" textLength="102" x="52.5" y="374.0151">SECRET: Message</text><ellipse cx="43.5" cy="383.6094" fill="none" rx="3" ry="3" style="stroke:#038048;stroke-width:1.0;"/><text fill="#000000" font-family="sans-serif" font-size="11" lengthAdjust="spacingAndGlyphs" text-decoration="underline" textLength="104" x="52.5" y="386.8198">RESUME: Message</text><ellipse cx="43.5" cy="396.4141" fill="none" rx="3" ry="3" style="stroke:#038048;stroke-width:1.0;"/><text fill="#000000" font-family="sans-serif" font-size="11" lengthAdjust="spacingAndGlyphs" text-decoration="underline" textLength="101" x="52.5" y="399.6245">RESULT: Message</text><ellipse cx="43.5" cy="409.2188" fill="none" rx="3" ry="3" style="stroke:#038048;stroke-width:1.0;"/><text fill="#000000" font-family="sans-serif" font-size="11" lengthAdjust="spacingAndGlyphs" text-decoration="underline" textLength="205" x="52.5" y="412.4292">PROPOSED_COMBINATION: Message</text><ellipse cx="43.5" cy="422.0234" fill="none" rx="3" ry="3" style="stroke:#038048;stroke-width:1.0;"/><text fill="#000000" font-family="sans-serif" font-size="11" lengthAdjust="spacingAndGlyphs" text-decoration="underline" textLength="88" x="52.5" y="425.2339">TITLE: Message</text><ellipse cx="43.5" cy="434.8281" fill="none" rx="3" ry="3" style="stroke:#038048;stroke-width:1.0;"/><text fill="#000000" font-family="sans-serif" font-size="11" lengthAdjust="spacingAndGlyphs" text-decoration="underline" textLength="102" x="52.5" y="438.0386">WINNER: Message</text><ellipse cx="43.5" cy="447.6328" fill="none" rx="3" ry="3" style="stroke:#038048;stroke-width:1.0;"/><text fill="#000000" font-family="sans-serif" font-size="11" lengthAdjust="spacingAndGlyphs" text-decoration="underline" textLength="104" x="52.5" y="450.8433">LOOSER: Message</text><rect fill="none" height="6" style="stroke:#C82930;stroke-width:1.0;" width="6" x="40.5" y="457.4375"/><text fill="#000000" font-family="sans-serif" font-size="11" lengthAdjust="spacingAndGlyphs" textLength="93" x="52.5" y="463.6479">message: String</text><line style="stroke:#A80036;stroke-width:1.5;" x1="33.5" x2="262.5" y1="470.2422" y2="470.2422"/><rect fill="#F24D5C" height="6" style="stroke:#C82930;stroke-width:1.0;" width="6" x="40.5" y="478.2422"/><text fill="#000000" font-family="sans-serif" font-size="11" lengthAdjust="spacingAndGlyphs" textLength="92" x="52.5" y="484.4526">Message(String)</text><ellipse cx="43.5" cy="494.0469" fill="#84BE84" rx="3" ry="3" style="stroke:#038048;stroke-width:1.0;"/><text fill="#000000" font-family="sans-serif" font-size="11" lengthAdjust="spacingAndGlyphs" text-decoration="underline" textLength="144" x="52.5" y="497.2573">valueOf(String): Message</text><ellipse cx="43.5" cy="506.8516" fill="#84BE84" rx="3" ry="3" style="stroke:#038048;stroke-width:1.0;"/><text fill="#000000" font-family="sans-serif" font-size="11" lengthAdjust="spacingAndGlyphs" textLength="118" x="52.5" y="510.062">getMessage(): String</text><!--MD5=[904c44326bfc30ddc4fe4077c1b9164d]
class mastermind.views.View--><rect codeLine="42" fill="#FEFECE" filter="url(#f5q6glj5zv59k)" height="124.8281" id="mastermind.views.View" style="stroke:#A80036;stroke-width:1.5;" width="133" x="228.5" y="85.5"/><ellipse cx="276.25" cy="101.5" fill="#ADD1B2" rx="11" ry="11" style="stroke:#A80036;stroke-width:1.0;"/><path d="M278.5938,97.1719 C277.6563,96.7344 277.0625,96.5938 276.1875,96.5938 C273.5625,96.5938 271.5625,98.6719 271.5625,101.3906 L271.5625,102.5156 C271.5625,105.0938 273.6719,106.9844 276.5625,106.9844 C277.7813,106.9844 278.9375,106.6875 279.6875,106.1406 C280.2656,105.7344 280.5938,105.2813 280.5938,104.8906 C280.5938,104.4375 280.2031,104.0469 279.7344,104.0469 C279.5156,104.0469 279.3125,104.125 279.125,104.3125 C278.6719,104.7969 278.6719,104.7969 278.4844,104.8906 C278.0625,105.1563 277.375,105.2813 276.6094,105.2813 C274.5625,105.2813 273.2656,104.1875 273.2656,102.4844 L273.2656,101.3906 C273.2656,99.6094 274.5156,98.2969 276.25,98.2969 C276.8281,98.2969 277.4375,98.4531 277.9063,98.7031 C278.3906,98.9844 278.5625,99.2031 278.6563,99.6094 C278.7188,100.0156 278.75,100.1406 278.8906,100.2656 C279.0313,100.4063 279.2656,100.5156 279.4844,100.5156 C279.75,100.5156 280.0156,100.375 280.1875,100.1563 C280.2969,100 280.3281,99.8125 280.3281,99.3906 L280.3281,97.9688 C280.3281,97.5313 280.3125,97.4063 280.2188,97.25 C280.0625,96.9844 279.7813,96.8438 279.4844,96.8438 C279.1875,96.8438 278.9844,96.9375 278.7656,97.25 L278.5938,97.1719 Z " fill="#000000"/><text fill="#000000" font-family="sans-serif" font-size="12" lengthAdjust="spacingAndGlyphs" textLength="29" x="296.75" y="105.6543">View</text><line style="stroke:#A80036;stroke-width:1.5;" x1="229.5" x2="360.5" y1="117.5" y2="117.5"/><polygon fill="none" points="239.5,123.5,243.5,127.5,239.5,131.5,235.5,127.5" style="stroke:#B38D22;stroke-width:1.0;"/><text fill="#000000" font-family="sans-serif" font-size="11" lengthAdjust="spacingAndGlyphs" textLength="62" x="248.5" y="131.7104">logic: Logic</text><line style="stroke:#A80036;stroke-width:1.5;" x1="229.5" x2="360.5" y1="138.3047" y2="138.3047"/><ellipse cx="239.5" cy="149.3047" fill="#84BE84" rx="3" ry="3" style="stroke:#038048;stroke-width:1.0;"/><text fill="#000000" font-family="sans-serif" font-size="11" lengthAdjust="spacingAndGlyphs" textLength="65" x="248.5" y="152.5151">View(Logic)</text><polygon fill="#FFFF44" points="239.5,157.1094,243.5,161.1094,239.5,165.1094,235.5,161.1094" style="stroke:#B38D22;stroke-width:1.0;"/><text fill="#000000" font-family="sans-serif" font-size="11" font-style="italic" lengthAdjust="spacingAndGlyphs" textLength="66" x="248.5" y="165.3198">start(): void</text><polygon fill="#FFFF44" points="239.5,169.9141,243.5,173.9141,239.5,177.9141,235.5,173.9141" style="stroke:#B38D22;stroke-width:1.0;"/><text fill="#000000" font-family="sans-serif" font-size="11" font-style="italic" lengthAdjust="spacingAndGlyphs" textLength="104" x="248.5" y="178.1245">resume(): boolean</text><ellipse cx="239.5" cy="187.7188" fill="#84BE84" rx="3" ry="3" style="stroke:#038048;stroke-width:1.0;"/><text fill="#000000" font-family="sans-serif" font-size="11" lengthAdjust="spacingAndGlyphs" textLength="82" x="248.5" y="190.9292">interact(): void</text><polygon fill="#FFFF44" points="239.5,195.5234,243.5,199.5234,239.5,203.5234,235.5,199.5234" style="stroke:#B38D22;stroke-width:1.0;"/><text fill="#000000" font-family="sans-serif" font-size="11" font-style="italic" lengthAdjust="spacingAndGlyphs" textLength="107" x="248.5" y="203.7339">propose(): boolean</text><!--MD5=[23fa68f5dd51b02db50930b64c1246c4]
class mastermind.controllers.Logic--><rect fill="#FEFECE" filter="url(#f5q6glj5zv59k)" height="48" id="mastermind.controllers.Logic" style="stroke:#A80036;stroke-width:1.5;" width="64" x="638" y="392"/><ellipse cx="653" cy="408" fill="#ADD1B2" rx="11" ry="11" style="stroke:#A80036;stroke-width:1.0;"/><path d="M655.3438,403.6719 C654.4063,403.2344 653.8125,403.0938 652.9375,403.0938 C650.3125,403.0938 648.3125,405.1719 648.3125,407.8906 L648.3125,409.0156 C648.3125,411.5938 650.4219,413.4844 653.3125,413.4844 C654.5313,413.4844 655.6875,413.1875 656.4375,412.6406 C657.0156,412.2344 657.3438,411.7813 657.3438,411.3906 C657.3438,410.9375 656.9531,410.5469 656.4844,410.5469 C656.2656,410.5469 656.0625,410.625 655.875,410.8125 C655.4219,411.2969 655.4219,411.2969 655.2344,411.3906 C654.8125,411.6563 654.125,411.7813 653.3594,411.7813 C651.3125,411.7813 650.0156,410.6875 650.0156,408.9844 L650.0156,407.8906 C650.0156,406.1094 651.2656,404.7969 653,404.7969 C653.5781,404.7969 654.1875,404.9531 654.6563,405.2031 C655.1406,405.4844 655.3125,405.7031 655.4063,406.1094 C655.4688,406.5156 655.5,406.6406 655.6406,406.7656 C655.7813,406.9063 656.0156,407.0156 656.2344,407.0156 C656.5,407.0156 656.7656,406.875 656.9375,406.6563 C657.0469,406.5 657.0781,406.3125 657.0781,405.8906 L657.0781,404.4688 C657.0781,404.0313 657.0625,403.9063 656.9688,403.75 C656.8125,403.4844 656.5313,403.3438 656.2344,403.3438 C655.9375,403.3438 655.7344,403.4375 655.5156,403.75 L655.3438,403.6719 Z " fill="#000000"/><text fill="#000000" font-family="sans-serif" font-size="12" lengthAdjust="spacingAndGlyphs" textLength="32" x="667" y="412.1543">Logic</text><line style="stroke:#A80036;stroke-width:1.5;" x1="639" x2="701" y1="424" y2="424"/><line style="stroke:#A80036;stroke-width:1.5;" x1="639" x2="701" y1="432" y2="432"/><!--MD5=[484dbdf39e70b91e90c6755ac9a3b9b9]
link mastermind.views.View to mastermind.controllers.Logic--><path codeLine="50" d="M340.9339,220.0568 C340.9339,220.0568 365.244,245.908 379,255 C463.192,310.647 515.113,257.427 598,315 C621.72,331.476 640.445,358.384 652.847,380.14 " fill="none" id="mastermind.views.View-mastermind.controllers.Logic" style="stroke:#A80036;stroke-width:1.0;"/><polygon fill="#A80036" points="659.079,391.597,658.2926,381.7796,656.69,387.2047,651.2649,385.602,659.079,391.597" style="stroke:#A80036;stroke-width:1.0;"/><line style="stroke:#A80036;stroke-width:1.0;" x1="656.69" x2="652.868" y1="387.2047" y2="380.177"/><polygon fill="#A80036" points="333.344,210.762,334.0407,217.9394,340.9339,220.0568,340.2372,212.8795,333.344,210.762" style="stroke:#A80036;stroke-width:1.0;"/><!--MD5=[848193dd3f3d387ae00532bd54f877af]
link mastermind.views.Color to mastermind.views.Error--><!--MD5=[419b934f6b2e039241062d391aaffc6f]
link mastermind.views.Color to mastermind.views.Message--><!--MD5=[efe5ceb7452a5c877c386fad4f5407a0]
@startuml
class  mastermind.views.Color{
+ {static} RED: Color
+ {static} BLUE: Color
+ {static} YELLOW: Color
+ {static} GREEN: Color
+ {static} ORANGE: Color
+ {static} PURPLE: Color
- initial: char
- Color(char)
+ {static} valueOf(String): Color
+ {static} getInstance(char): Color
+ {static} getInstance(int): Color
+ {static} allInitials(): String
+ getInitial(): char
}

class  mastermind.views.Error{
+ {static} DUPLICATED: Error
+ {static} WRONG_CHARACTERS: Error
+ {static} WRONG_LENGTH: Error
- message: String
- Error(String)
+ {static} valueOf(String): Error
+ getMessage(): String
}

class  mastermind.views.Message{
+ {static} TURN: Message
+ {static} SECRET: Message
+ {static} RESUME: Message
+ {static} RESULT: Message
+ {static} PROPOSED_COMBINATION: Message
+ {static} TITLE: Message
+ {static} WINNER: Message
+ {static} LOOSER: Message
- message: String
- Message(String)
+ {static} valueOf(String): Message
+ getMessage(): String
}

class  mastermind.views.View{
# logic: Logic
+ View(Logic)
# {abstract} start(): void
# {abstract} resume(): boolean
+ interact(): void
# {abstract} propose(): boolean
}
mastermind.views.View *-down-> mastermind.controllers.Logic
@enduml

PlantUML version 1.2020.21beta3(Unknown compile time)
(GPL source distribution)
Java Runtime: Java(TM) SE Runtime Environment
JVM: Java HotSpot(TM) 64-Bit Server VM
Default Encoding: UTF-8
Language: en
Country: US
--></g></svg>