<?xml version="1.0" encoding="UTF-8" standalone="no"?><svg xmlns="http://www.w3.org/2000/svg" xmlns:xlink="http://www.w3.org/1999/xlink" contentScriptType="application/ecmascript" contentStyleType="text/css" height="517px" preserveAspectRatio="none" style="width:1147px;height:517px;" version="1.1" viewBox="0 0 1147 517" width="1147px" zoomAndPan="magnify"><defs><filter height="300%" id="f1litsql34g1pu" width="300%" x="-1" y="-1"><feGaussianBlur result="blurOut" stdDeviation="2.0"/><feColorMatrix in="blurOut" result="blurOut2" type="matrix" values="0 0 0 0 0 0 0 0 0 0 0 0 0 0 0 0 0 0 .4 0"/><feOffset dx="4.0" dy="4.0" in="blurOut2" result="blurOut3"/><feBlend in="SourceGraphic" in2="blurOut3" mode="normal"/></filter></defs><g><polygon fill="#DDDDDD" filter="url(#f1litsql34g1pu)" points="173.9364,6,380.9364,6,387.9364,28.2969,394.9364,28.2969,394.9364,58.5938,173.9364,58.5938,173.9364,6" style="stroke: #000000; stroke-width: 1.5;"/><line style="stroke: #000000; stroke-width: 1.5;" x1="173.9364" x2="387.9364" y1="28.2969" y2="28.2969"/><text fill="#000000" font-family="sans-serif" font-size="14" font-weight="bold" lengthAdjust="spacingAndGlyphs" textLength="201" x="177.9364" y="20.9951">usantatecla.mastermind</text><polygon fill="#DDDDDD" filter="url(#f1litsql34g1pu)" points="337.9364,232,594.9364,232,601.9364,254.2969,608.9364,254.2969,608.9364,284.5938,337.9364,284.5938,337.9364,232" style="stroke: #000000; stroke-width: 1.5;"/><line style="stroke: #000000; stroke-width: 1.5;" x1="337.9364" x2="601.9364" y1="254.2969" y2="254.2969"/><text fill="#000000" font-family="sans-serif" font-size="14" font-weight="bold" lengthAdjust="spacingAndGlyphs" textLength="251" x="341.9364" y="246.9951">usantatecla.mastermind.views</text><polygon fill="#DDDDDD" filter="url(#f1litsql34g1pu)" points="277.4364,345,547.4364,345,554.4364,367.2969,561.4364,367.2969,561.4364,397.5938,277.4364,397.5938,277.4364,345" style="stroke: #000000; stroke-width: 1.5;"/><line style="stroke: #000000; stroke-width: 1.5;" x1="277.4364" x2="554.4364" y1="367.2969" y2="367.2969"/><text fill="#000000" font-family="sans-serif" font-size="14" font-weight="bold" lengthAdjust="spacingAndGlyphs" textLength="264" x="281.4364" y="359.9951">usantatecla.mastermind.models</text><polygon fill="#FFFFFF" filter="url(#f1litsql34g1pu)" points="375.9364,458,448.9364,458,455.9364,480.2969,462.9364,480.2969,462.9364,510.5938,375.9364,510.5938,375.9364,458" style="stroke: #000000; stroke-width: 1.5;"/><line style="stroke: #000000; stroke-width: 1.5;" x1="375.9364" x2="455.9364" y1="480.2969" y2="480.2969"/><text fill="#000000" font-family="sans-serif" font-size="14" font-weight="bold" lengthAdjust="spacingAndGlyphs" textLength="67" x="379.9364" y="472.9951">java.util</text><polygon fill="#DDDDDD" filter="url(#f1litsql34g1pu)" points="71.4361,232,217.4361,232,224.4361,254.2969,231.4361,254.2969,231.4361,284.5938,71.4361,284.5938,71.4361,232" style="stroke: #000000; stroke-width: 1.5;"/><line style="stroke: #000000; stroke-width: 1.5;" x1="71.4361" x2="224.4361" y1="254.2969" y2="254.2969"/><text fill="#000000" font-family="sans-serif" font-size="14" font-weight="bold" lengthAdjust="spacingAndGlyphs" textLength="140" x="75.4361" y="246.9951">usantatecla.utils</text><polygon fill="#FFFFFF" filter="url(#f1litsql34g1pu)" points="114.4361,345,174.4361,345,181.4361,367.2969,188.4361,367.2969,188.4361,397.5938,114.4361,397.5938,114.4361,345" style="stroke: #000000; stroke-width: 1.5;"/><line style="stroke: #000000; stroke-width: 1.5;" x1="114.4361" x2="181.4361" y1="367.2969" y2="367.2969"/><text fill="#000000" font-family="sans-serif" font-size="14" font-weight="bold" lengthAdjust="spacingAndGlyphs" textLength="54" x="118.4361" y="359.9951">java.io</text><polygon fill="#DDDDDD" filter="url(#f1litsql34g1pu)" points="115.4361,119,439.4361,119,446.4361,141.2969,453.4361,141.2969,453.4361,171.5938,115.4361,171.5938,115.4361,119" style="stroke: #000000; stroke-width: 1.5;"/><line style="stroke: #000000; stroke-width: 1.5;" x1="115.4361" x2="446.4361" y1="141.2969" y2="141.2969"/><text fill="#000000" font-family="sans-serif" font-size="14" font-weight="bold" lengthAdjust="spacingAndGlyphs" textLength="318" x="119.4361" y="133.9951">usantatecla.mastermind.views.console</text><polygon fill="#DDDDDD" filter="url(#f1litsql34g1pu)" points="538.4364,119,870.4364,119,877.4364,141.2969,884.4364,141.2969,884.4364,171.5938,538.4364,171.5938,538.4364,119" style="stroke: #000000; stroke-width: 1.5;"/><line style="stroke: #000000; stroke-width: 1.5;" x1="538.4364" x2="877.4364" y1="141.2969" y2="141.2969"/><text fill="#000000" font-family="sans-serif" font-size="14" font-weight="bold" lengthAdjust="spacingAndGlyphs" textLength="326" x="542.4364" y="133.9951">usantatecla.mastermind.views.graphics</text><polygon fill="#FFFFFF" filter="url(#f1litsql34g1pu)" points="715.4364,232,791.4364,232,798.4364,254.2969,805.4364,254.2969,805.4364,284.5938,715.4364,284.5938,715.4364,232" style="stroke: #000000; stroke-width: 1.5;"/><line style="stroke: #000000; stroke-width: 1.5;" x1="715.4364" x2="798.4364" y1="254.2969" y2="254.2969"/><text fill="#000000" font-family="sans-serif" font-size="14" font-weight="bold" lengthAdjust="spacingAndGlyphs" textLength="70" x="719.4364" y="246.9951">java.awt</text><polygon fill="#FFFFFF" filter="url(#f1litsql34g1pu)" points="840.4364,232,966.4364,232,973.4364,254.2969,980.4364,254.2969,980.4364,284.5938,840.4364,284.5938,840.4364,232" style="stroke: #000000; stroke-width: 1.5;"/><line style="stroke: #000000; stroke-width: 1.5;" x1="840.4364" x2="973.4364" y1="254.2969" y2="254.2969"/><text fill="#000000" font-family="sans-serif" font-size="14" font-weight="bold" lengthAdjust="spacingAndGlyphs" textLength="120" x="844.4364" y="246.9951">java.awt.event</text><polygon fill="#FFFFFF" filter="url(#f1litsql34g1pu)" points="1015.9364,232,1116.9364,232,1123.9364,254.2969,1130.9364,254.2969,1130.9364,284.5938,1015.9364,284.5938,1015.9364,232" style="stroke: #000000; stroke-width: 1.5;"/><line style="stroke: #000000; stroke-width: 1.5;" x1="1015.9364" x2="1123.9364" y1="254.2969" y2="254.2969"/><text fill="#000000" font-family="sans-serif" font-size="14" font-weight="bold" lengthAdjust="spacingAndGlyphs" textLength="95" x="1019.9364" y="246.9951">javax.swing</text><!--MD5=[154cfa84253b6c83652f8cc515248a6d]
link usantatecla.mastermind to usantatecla.mastermind.views.console--><path codeLine="2" d="M284.4364,59.245 C284.4364,75.496 284.4364,96.579 284.4364,113.714 " fill="none" id="usantatecla.mastermind-to-usantatecla.mastermind.views.console" style="stroke: #A80036; stroke-width: 1.0; stroke-dasharray: 7.0,7.0;"/><polygon fill="#A80036" points="284.4364,118.895,288.4364,109.895,284.4364,113.895,280.4364,109.895,284.4364,118.895" style="stroke: #A80036; stroke-width: 1.0;"/><!--MD5=[77bfac299a9dfa14d994751e1b13d1fb]
link usantatecla.mastermind to usantatecla.mastermind.views.graphics--><path codeLine="3" d="M382.6664,59.035 C450.2434,76.602 539.8244,99.889 608.4104,117.718 " fill="none" id="usantatecla.mastermind-to-usantatecla.mastermind.views.graphics" style="stroke: #A80036; stroke-width: 1.0; stroke-dasharray: 7.0,7.0;"/><polygon fill="#A80036" points="613.3124,118.992,605.6092,112.8552,608.4734,117.7333,603.5953,120.5976,613.3124,118.992" style="stroke: #A80036; stroke-width: 1.0;"/><!--MD5=[1b01179086f6bbc1e835b05fcb7da69a]
link usantatecla.mastermind to usantatecla.mastermind.models--><path codeLine="4" d="M193.3434,59.012 C159.5934,72.28 123.2897,91.615 97.4361,119 C45.0402,174.5 6,225.205 53.4361,285 C81.0486,319.806 182.8464,341.776 272.0934,354.717 " fill="none" id="usantatecla.mastermind-to-usantatecla.mastermind.models" style="stroke: #A80036; stroke-width: 1.0; stroke-dasharray: 7.0,7.0;"/><polygon fill="#A80036" points="277.1414,355.441,268.8007,350.2034,272.1921,354.7309,267.6645,358.1223,277.1414,355.441" style="stroke: #A80036; stroke-width: 1.0;"/><!--MD5=[49315a8911a3f054d41fa10ad9349828]
link usantatecla.mastermind.views to usantatecla.mastermind.models--><path codeLine="7" d="M460.9114,285.245 C452.9374,301.636 442.5714,322.943 434.1984,340.156 " fill="none" id="usantatecla.mastermind.views-to-usantatecla.mastermind.models" style="stroke: #A80036; stroke-width: 1.0; stroke-dasharray: 7.0,7.0;"/><polygon fill="#A80036" points="431.8924,344.895,439.4266,338.5518,434.0798,340.3988,432.2327,335.052,431.8924,344.895" style="stroke: #A80036; stroke-width: 1.0;"/><!--MD5=[58f66f5f60379dd70ef75cb976dcb215]
link usantatecla.mastermind.models to java.util--><path d="M419.4364,398.245 C419.4364,414.4958 419.4364,435.5795 419.4364,452.7139 " fill="none" id="usantatecla.mastermind.models-to-java.util" style="stroke: #A80036; stroke-width: 1.0; stroke-dasharray: 7.0,7.0;"/><polygon fill="#A80036" points="419.4364,457.895,423.4364,448.895,419.4364,452.895,415.4364,448.895,419.4364,457.895" style="stroke: #A80036; stroke-width: 1.0;"/><!--MD5=[f7f372d3543268b8cc298f05137e5dac]
link usantatecla.utils to java.io--><path d="M151.4364,285.245 C151.4364,301.496 151.4364,322.579 151.4364,339.714 " fill="none" id="usantatecla.utils-to-java.io" style="stroke: #A80036; stroke-width: 1.0; stroke-dasharray: 7.0,7.0;"/><polygon fill="#A80036" points="151.4364,344.895,155.4364,335.895,151.4364,339.895,147.4364,335.895,151.4364,344.895" style="stroke: #A80036; stroke-width: 1.0;"/><!--MD5=[da57a9a30559a1d2bbc81c15e4653a5b]
link usantatecla.mastermind.views.console to usantatecla.mastermind.models--><path d="M286.4894,172.043 C289.8294,201.275 298.4594,249.662 320.4364,285 C334.2624,307.232 355.7114,326.779 375.1154,341.551 " fill="none" id="usantatecla.mastermind.views.console-to-usantatecla.mastermind.models" style="stroke: #A80036; stroke-width: 1.0; stroke-dasharray: 7.0,7.0;"/><polygon fill="#A80036" points="379.4784,344.82,374.675,336.2219,375.4772,341.8216,369.8775,342.6238,379.4784,344.82" style="stroke: #A80036; stroke-width: 1.0;"/><!--MD5=[ea4ce8b53cd9ff973f1d13b2e6691e39]
link usantatecla.mastermind.views.console to usantatecla.utils--><path d="M253.5894,172.245 C233.3614,189.126 206.8854,211.223 185.9564,228.69 " fill="none" id="usantatecla.mastermind.views.console-to-usantatecla.utils" style="stroke: #A80036; stroke-width: 1.0; stroke-dasharray: 7.0,7.0;"/><polygon fill="#A80036" points="182.1164,231.895,191.5889,229.1983,185.9548,228.6908,186.4622,223.0568,182.1164,231.895" style="stroke: #A80036; stroke-width: 1.0;"/><!--MD5=[4d42c51424c2fe200638a22853989c83]
link usantatecla.mastermind.views.console to usantatecla.mastermind.views--><path d="M328.2714,172.245 C357.3734,189.336 395.5774,211.773 425.4874,229.34 " fill="none" id="usantatecla.mastermind.views.console-to-usantatecla.mastermind.views" style="stroke: #A80036; stroke-width: 1.0; stroke-dasharray: 7.0,7.0;"/><polygon fill="#A80036" points="429.8384,231.895,424.1045,223.8873,425.5273,229.3623,420.0523,230.7851,429.8384,231.895" style="stroke: #A80036; stroke-width: 1.0;"/><!--MD5=[d137ae07135d8e25c6268b008713226c]
link usantatecla.mastermind.views.graphics to usantatecla.mastermind.views--><path d="M656.5354,172.105 C619.5984,189.332 570.9174,212.036 533.0374,229.703 " fill="none" id="usantatecla.mastermind.views.graphics-to-usantatecla.mastermind.views" style="stroke: #A80036; stroke-width: 1.0; stroke-dasharray: 7.0,7.0;"/><polygon fill="#A80036" points="528.4724,231.832,538.3196,231.654,533.004,229.7191,534.9389,224.4034,528.4724,231.832" style="stroke: #A80036; stroke-width: 1.0;"/><!--MD5=[18dba7ad16ec340cecf593c9f0416640]
link usantatecla.mastermind.views.graphics to usantatecla.mastermind.models--><path d="M701.5744,172.084 C688.5894,202.718 663.0394,253.791 626.4364,285 C595.9964,310.954 556.5914,329.856 520.3424,343.183 " fill="none" id="usantatecla.mastermind.views.graphics-to-usantatecla.mastermind.models" style="stroke: #A80036; stroke-width: 1.0; stroke-dasharray: 7.0,7.0;"/><polygon fill="#A80036" points="515.4804,344.944,525.3047,345.639,520.1814,343.2408,522.5796,338.1175,515.4804,344.944" style="stroke: #A80036; stroke-width: 1.0;"/><!--MD5=[b5df6e92d64d5bc2a940e3bece2f866a]
link usantatecla.mastermind.views.graphics to java.awt--><path d="M722.8004,172.245 C730.0364,188.636 739.4424,209.943 747.0414,227.156 " fill="none" id="usantatecla.mastermind.views.graphics-to-java.awt" style="stroke: #A80036; stroke-width: 1.0; stroke-dasharray: 7.0,7.0;"/><polygon fill="#A80036" points="749.1334,231.895,749.1568,222.0462,747.1136,227.3211,741.8386,225.2779,749.1334,231.895" style="stroke: #A80036; stroke-width: 1.0;"/><!--MD5=[a5950fc01ed17ba313e3ff9277360096]
link usantatecla.mastermind.views.graphics to java.awt.event--><path d="M757.5904,172.245 C788.2324,189.336 828.4574,211.773 859.9504,229.34 " fill="none" id="usantatecla.mastermind.views.graphics-to-java.awt.event" style="stroke: #A80036; stroke-width: 1.0; stroke-dasharray: 7.0,7.0;"/><polygon fill="#A80036" points="864.5314,231.895,858.6197,224.0177,860.1647,229.4595,854.7229,231.0045,864.5314,231.895" style="stroke: #A80036; stroke-width: 1.0;"/><!--MD5=[7210432fe8f598d3e6eddcbd0e4ae1e3]
link usantatecla.mastermind.views.graphics to javax.swing--><path d="M800.2674,172.014 C857.1014,188.571 932.3084,210.917 998.4364,232 C1002.4854,233.291 1006.6504,234.642 1010.8444,236.02 " fill="none" id="usantatecla.mastermind.views.graphics-to-javax.swing" style="stroke: #A80036; stroke-width: 1.0; stroke-dasharray: 7.0,7.0;"/><polygon fill="#A80036" points="1015.7744,237.647,1008.4814,231.0279,1011.0263,236.08,1005.9742,238.6249,1015.7744,237.647" style="stroke: #A80036; stroke-width: 1.0;"/><!--MD5=[754a2f0993451eef92a8bbf2e9d1aa75]
@startuml
package usantatecla.mastermind #DDDDDD { }
usantatecla.mastermind .down.> usantatecla.mastermind.views.console
usantatecla.mastermind .down.> usantatecla.mastermind.views.graphics
usantatecla.mastermind .down.> usantatecla.mastermind.models

package usantatecla.mastermind.views #DDDDDD { }
usantatecla.mastermind.views .down.> usantatecla.mastermind.models

package usantatecla.mastermind.models #DDDDDD { }
package java.util{ }
usantatecla.mastermind.models .down.> java.util

package usantatecla.utils #DDDDDD { }
package java.io{ }
usantatecla.utils .down.> java.io

package usantatecla.mastermind.views.console #DDDDDD { }
usantatecla.mastermind.views.console .down.> usantatecla.mastermind.models
usantatecla.mastermind.views.console .down.> usantatecla.utils
usantatecla.mastermind.views.console .down.> usantatecla.mastermind.views

package usantatecla.mastermind.views.graphics #DDDDDD { }
package java.awt{ }
package java.awt.event{ }
package javax.swing{ }
usantatecla.mastermind.views.graphics .down.> usantatecla.mastermind.views
usantatecla.mastermind.views.graphics .down.> usantatecla.mastermind.models
usantatecla.mastermind.views.graphics .down.> java.awt
usantatecla.mastermind.views.graphics .down.> java.awt.event
usantatecla.mastermind.views.graphics .down.> javax.swing
@enduml

PlantUML version 1.2020.20beta11(Unknown compile time)
(GPL source distribution)
Java Runtime: Java(TM) SE Runtime Environment
JVM: Java HotSpot(TM) 64-Bit Server VM
Default Encoding: UTF-8
Language: en
Country: US
--></g></svg>