<?xml version="1.0" encoding="UTF-8" standalone="no"?><svg xmlns="http://www.w3.org/2000/svg" xmlns:xlink="http://www.w3.org/1999/xlink" contentScriptType="application/ecmascript" contentStyleType="text/css" height="294px" preserveAspectRatio="none" style="width:508px;height:294px;" version="1.1" viewBox="0 0 508 294" width="508px" zoomAndPan="magnify"><defs><filter height="300%" id="fp1ix32miyiv4" width="300%" x="-1" y="-1"><feGaussianBlur result="blurOut" stdDeviation="2.0"/><feColorMatrix in="blurOut" result="blurOut2" type="matrix" values="0 0 0 0 0 0 0 0 0 0 0 0 0 0 0 0 0 0 .4 0"/><feOffset dx="4.0" dy="4.0" in="blurOut2" result="blurOut3"/><feBlend in="SourceGraphic" in2="blurOut3" mode="normal"/></filter></defs><g><!--MD5=[9be0839337cfdab5d118a2e29cf0a8c4]
cluster usantatecla.mastermind--><polygon fill="#FFFFFF" filter="url(#fp1ix32miyiv4)" points="16,6,223,6,230,28.2969,233,28.2969,233,169,16,169,16,6" style="stroke:#000000;stroke-width:1.5;"/><line style="stroke:#000000;stroke-width:1.5;" x1="16" x2="230" y1="28.2969" y2="28.2969"/><text fill="#000000" font-family="sans-serif" font-size="14" font-weight="bold" lengthAdjust="spacingAndGlyphs" textLength="201" x="20" y="20.9951">usantatecla.mastermind</text><!--MD5=[904099970a9cea29a476bd38c8d887ee]
class usantatecla.mastermind.Mastermind--><rect codeLine="3" fill="#FEFECE" filter="url(#fp1ix32miyiv4)" height="112.0234" id="usantatecla.mastermind.Mastermind" style="stroke:#A80036;stroke-width:1.5;" width="103" x="111.5" y="41"/><ellipse cx="126.95" cy="57" fill="#ADD1B2" rx="11" ry="11" style="stroke:#A80036;stroke-width:1.0;"/><path d="M129.2938,52.6719 C128.3563,52.2344 127.7625,52.0938 126.8875,52.0938 C124.2625,52.0938 122.2625,54.1719 122.2625,56.8906 L122.2625,58.0156 C122.2625,60.5938 124.3719,62.4844 127.2625,62.4844 C128.4813,62.4844 129.6375,62.1875 130.3875,61.6406 C130.9656,61.2344 131.2938,60.7813 131.2938,60.3906 C131.2938,59.9375 130.9031,59.5469 130.4344,59.5469 C130.2156,59.5469 130.0125,59.625 129.825,59.8125 C129.3719,60.2969 129.3719,60.2969 129.1844,60.3906 C128.7625,60.6563 128.075,60.7813 127.3094,60.7813 C125.2625,60.7813 123.9656,59.6875 123.9656,57.9844 L123.9656,56.8906 C123.9656,55.1094 125.2156,53.7969 126.95,53.7969 C127.5281,53.7969 128.1375,53.9531 128.6063,54.2031 C129.0906,54.4844 129.2625,54.7031 129.3563,55.1094 C129.4188,55.5156 129.45,55.6406 129.5906,55.7656 C129.7313,55.9063 129.9656,56.0156 130.1844,56.0156 C130.45,56.0156 130.7156,55.875 130.8875,55.6563 C130.9969,55.5 131.0281,55.3125 131.0281,54.8906 L131.0281,53.4688 C131.0281,53.0313 131.0125,52.9063 130.9188,52.75 C130.7625,52.4844 130.4813,52.3438 130.1844,52.3438 C129.8875,52.3438 129.6844,52.4375 129.4656,52.75 L129.2938,52.6719 Z " fill="#000000"/><text fill="#000000" font-family="sans-serif" font-size="12" lengthAdjust="spacingAndGlyphs" textLength="70" x="141.05" y="61.1543">Mastermind</text><line style="stroke:#A80036;stroke-width:1.5;" x1="112.5" x2="213.5" y1="73" y2="73"/><rect fill="none" height="6" style="stroke:#C82930;stroke-width:1.0;" width="6" x="119.5" y="81"/><text fill="#000000" font-family="sans-serif" font-size="11" lengthAdjust="spacingAndGlyphs" textLength="62" x="131.5" y="87.2104">logic: Logic</text><rect fill="none" height="6" style="stroke:#C82930;stroke-width:1.0;" width="6" x="119.5" y="93.8047"/><text fill="#000000" font-family="sans-serif" font-size="11" lengthAdjust="spacingAndGlyphs" textLength="62" x="131.5" y="100.0151">view: View</text><line style="stroke:#A80036;stroke-width:1.5;" x1="112.5" x2="213.5" y1="106.6094" y2="106.6094"/><polygon fill="#FFFF44" points="122.5,112.6094,126.5,116.6094,122.5,120.6094,118.5,116.6094" style="stroke:#B38D22;stroke-width:1.0;"/><text fill="#000000" font-family="sans-serif" font-size="11" lengthAdjust="spacingAndGlyphs" textLength="74" x="131.5" y="120.8198">Mastermind()</text><polygon fill="#FFFF44" points="122.5,125.4141,126.5,129.4141,122.5,133.4141,118.5,129.4141" style="stroke:#B38D22;stroke-width:1.0;"/><text fill="#000000" font-family="sans-serif" font-size="11" lengthAdjust="spacingAndGlyphs" textLength="32" x="131.5" y="133.6245">play()</text><ellipse cx="122.5" cy="143.2188" fill="#84BE84" rx="3" ry="3" style="stroke:#038048;stroke-width:1.0;"/><text fill="#000000" font-family="sans-serif" font-size="11" lengthAdjust="spacingAndGlyphs" text-decoration="underline" textLength="77" x="131.5" y="146.4292">main(String[])</text><!--MD5=[42fa18dda7351a0ae87d9497de925436]
class Logic--><rect codeLine="1" fill="#FEFECE" filter="url(#fp1ix32miyiv4)" height="67.9063" id="Logic" style="stroke:#A80036;stroke-width:1.5;" width="174" x="76" y="213"/><ellipse cx="91" cy="238.9531" fill="#ADD1B2" rx="11" ry="11" style="stroke:#A80036;stroke-width:1.0;"/><path d="M93.3438,234.625 C92.4063,234.1875 91.8125,234.0469 90.9375,234.0469 C88.3125,234.0469 86.3125,236.125 86.3125,238.8438 L86.3125,239.9688 C86.3125,242.5469 88.4219,244.4375 91.3125,244.4375 C92.5313,244.4375 93.6875,244.1406 94.4375,243.5938 C95.0156,243.1875 95.3438,242.7344 95.3438,242.3438 C95.3438,241.8906 94.9531,241.5 94.4844,241.5 C94.2656,241.5 94.0625,241.5781 93.875,241.7656 C93.4219,242.25 93.4219,242.25 93.2344,242.3438 C92.8125,242.6094 92.125,242.7344 91.3594,242.7344 C89.3125,242.7344 88.0156,241.6406 88.0156,239.9375 L88.0156,238.8438 C88.0156,237.0625 89.2656,235.75 91,235.75 C91.5781,235.75 92.1875,235.9063 92.6563,236.1563 C93.1406,236.4375 93.3125,236.6563 93.4063,237.0625 C93.4688,237.4688 93.5,237.5938 93.6406,237.7188 C93.7813,237.8594 94.0156,237.9688 94.2344,237.9688 C94.5,237.9688 94.7656,237.8281 94.9375,237.6094 C95.0469,237.4531 95.0781,237.2656 95.0781,236.8438 L95.0781,235.4219 C95.0781,234.9844 95.0625,234.8594 94.9688,234.7031 C94.8125,234.4375 94.5313,234.2969 94.2344,234.2969 C93.9375,234.2969 93.7344,234.3906 93.5156,234.7031 L93.3438,234.625 Z " fill="#000000"/><text fill="#000000" font-family="sans-serif" font-size="12" lengthAdjust="spacingAndGlyphs" textLength="71" x="140.5" y="229.1387">usantatecla.</text><text fill="#000000" font-family="sans-serif" font-size="12" lengthAdjust="spacingAndGlyphs" textLength="142" x="105" y="243.1074">mastermind.controllers.</text><text fill="#000000" font-family="sans-serif" font-size="12" lengthAdjust="spacingAndGlyphs" textLength="32" x="160" y="257.0762">Logic</text><line style="stroke:#A80036;stroke-width:1.5;" x1="77" x2="249" y1="264.9063" y2="264.9063"/><line style="stroke:#A80036;stroke-width:1.5;" x1="77" x2="249" y1="272.9063" y2="272.9063"/><!--MD5=[c045e12321b83266d36d22b9096c24ea]
class View--><rect codeLine="11" fill="#FEFECE" filter="url(#fp1ix32miyiv4)" height="48" id="View" style="stroke:#A80036;stroke-width:1.5;" width="244" x="250" y="73"/><ellipse cx="265" cy="89" fill="#ADD1B2" rx="11" ry="11" style="stroke:#A80036;stroke-width:1.0;"/><path d="M267.3438,84.6719 C266.4063,84.2344 265.8125,84.0938 264.9375,84.0938 C262.3125,84.0938 260.3125,86.1719 260.3125,88.8906 L260.3125,90.0156 C260.3125,92.5938 262.4219,94.4844 265.3125,94.4844 C266.5313,94.4844 267.6875,94.1875 268.4375,93.6406 C269.0156,93.2344 269.3438,92.7813 269.3438,92.3906 C269.3438,91.9375 268.9531,91.5469 268.4844,91.5469 C268.2656,91.5469 268.0625,91.625 267.875,91.8125 C267.4219,92.2969 267.4219,92.2969 267.2344,92.3906 C266.8125,92.6563 266.125,92.7813 265.3594,92.7813 C263.3125,92.7813 262.0156,91.6875 262.0156,89.9844 L262.0156,88.8906 C262.0156,87.1094 263.2656,85.7969 265,85.7969 C265.5781,85.7969 266.1875,85.9531 266.6563,86.2031 C267.1406,86.4844 267.3125,86.7031 267.4063,87.1094 C267.4688,87.5156 267.5,87.6406 267.6406,87.7656 C267.7813,87.9063 268.0156,88.0156 268.2344,88.0156 C268.5,88.0156 268.7656,87.875 268.9375,87.6563 C269.0469,87.5 269.0781,87.3125 269.0781,86.8906 L269.0781,85.4688 C269.0781,85.0313 269.0625,84.9063 268.9688,84.75 C268.8125,84.4844 268.5313,84.3438 268.2344,84.3438 C267.9375,84.3438 267.7344,84.4375 267.5156,84.75 L267.3438,84.6719 Z " fill="#000000"/><text fill="#000000" font-family="sans-serif" font-size="12" lengthAdjust="spacingAndGlyphs" textLength="212" x="279" y="93.1543">usantatecla.mastermind.views.View</text><line style="stroke:#A80036;stroke-width:1.5;" x1="251" x2="493" y1="105" y2="105"/><line style="stroke:#A80036;stroke-width:1.5;" x1="251" x2="493" y1="113" y2="113"/><!--MD5=[a5f8ce13268a0ab6e1eb93d1cfb2a7ef]
link usantatecla.mastermind.Mastermind to View--><path codeLine="15" d="M226.842,97 C226.842,97 233.659,97 236.507,97 " fill="none" id="usantatecla.mastermind.Mastermind-View" style="stroke:#A80036;stroke-width:1.0;"/><polygon fill="#A80036" points="249.834,97,240.834,93,244.834,97,240.834,101,249.834,97" style="stroke:#A80036;stroke-width:1.0;"/><line style="stroke:#A80036;stroke-width:1.0;" x1="244.834" x2="236.834" y1="97" y2="97"/><polygon fill="#A80036" points="214.842,97,220.842,101,226.842,97,220.842,93,214.842,97" style="stroke:#A80036;stroke-width:1.0;"/><!--MD5=[247e47791acc2ed78b9d73006ffb100f]
link usantatecla.mastermind.Mastermind to Logic--><path codeLine="16" d="M163,165.11 C163,165.11 163,189.0499 163,199.5523 " fill="none" id="usantatecla.mastermind.Mastermind-Logic" style="stroke:#A80036;stroke-width:1.0;"/><polygon fill="#A80036" points="163,212.7744,167,203.7744,163,207.7744,159,203.7744,163,212.7744" style="stroke:#A80036;stroke-width:1.0;"/><line style="stroke:#A80036;stroke-width:1.0;" x1="163" x2="163" y1="207.7744" y2="199.7744"/><polygon fill="#A80036" points="163,153.11,159,159.11,163,165.11,167,159.11,163,153.11" style="stroke:#A80036;stroke-width:1.0;"/><!--MD5=[89bf87ab7d6154a6a3be9af1a5173f80]
@startuml
class Logic as "usantatecla.\nmastermind.controllers.\nLogic"

class  usantatecla.mastermind.Mastermind{
- logic: Logic
- view: View
# Mastermind()
# play()
+ {static} main(String[])
}

class View as "usantatecla.mastermind.views.View" {


}
usantatecla.mastermind.Mastermind *-> View
usantatecla.mastermind.Mastermind *-down-> Logic
@enduml

PlantUML version 1.2020.22beta3(Unknown compile time)
(GPL source distribution)
Java Runtime: Java(TM) SE Runtime Environment
JVM: Java HotSpot(TM) 64-Bit Server VM
Default Encoding: UTF-8
Language: en
Country: US
--></g></svg>