<?xml version="1.0" encoding="UTF-8" standalone="no"?><svg xmlns="http://www.w3.org/2000/svg" xmlns:xlink="http://www.w3.org/1999/xlink" contentScriptType="application/ecmascript" contentStyleType="text/css" height="978px" preserveAspectRatio="none" style="width:1450px;height:978px;" version="1.1" viewBox="0 0 1450 978" width="1450px" zoomAndPan="magnify"><defs><filter height="300%" id="f1x7eiqweiplgi" width="300%" x="-1" y="-1"><feGaussianBlur result="blurOut" stdDeviation="2.0"/><feColorMatrix in="blurOut" result="blurOut2" type="matrix" values="0 0 0 0 0 0 0 0 0 0 0 0 0 0 0 0 0 0 .4 0"/><feOffset dx="4.0" dy="4.0" in="blurOut2" result="blurOut3"/><feBlend in="SourceGraphic" in2="blurOut3" mode="normal"/></filter></defs><g><!--MD5=[f4a8416df5d5f7c80a7d3a30f9e0f7a6]
cluster mastermind.controllers--><polygon fill="#FFFFFF" filter="url(#f1x7eiqweiplgi)" points="16,6,214,6,221,28.2969,849,28.2969,849,971,16,971,16,6" style="stroke:#000000;stroke-width:1.5;"/><line style="stroke:#000000;stroke-width:1.5;" x1="16" x2="221" y1="28.2969" y2="28.2969"/><text fill="#000000" font-family="sans-serif" font-size="14" font-weight="bold" lengthAdjust="spacingAndGlyphs" textLength="192" x="20" y="20.9951">mastermind.controllers</text><!--MD5=[b58a43e292de1e464ebdad08002bf268]
class mastermind.controllers.AcceptorController--><rect codeLine="13" fill="#FEFECE" filter="url(#f1x7eiqweiplgi)" height="60.8047" id="mastermind.controllers.AcceptorController" style="stroke:#A80036;stroke-width:1.5;" width="168" x="270" y="206"/><ellipse cx="295.8" cy="222" fill="#B4A7E5" rx="11" ry="11" style="stroke:#A80036;stroke-width:1.0;"/><path d="M296.7531,218.7813 L298.4719,218.7813 C298.8625,218.7813 299.05,218.75 299.175,218.6719 C299.4406,218.5156 299.5813,218.2344 299.5813,217.9375 C299.5813,217.6719 299.4719,217.4063 299.2375,217.2344 C299.0656,217.125 298.925,217.0938 298.4719,217.0938 L293.3313,217.0938 C292.8938,217.0938 292.7688,217.1094 292.6125,217.2031 C292.3625,217.3594 292.2063,217.6563 292.2063,217.9375 C292.2063,218.2188 292.3469,218.4688 292.5656,218.6406 C292.7219,218.75 292.9094,218.7813 293.3313,218.7813 L295.05,218.7813 L295.05,225.2969 L293.3313,225.2969 C292.8938,225.2969 292.7688,225.3125 292.6125,225.4219 C292.3625,225.5781 292.2063,225.8594 292.2063,226.1563 C292.2063,226.4063 292.3469,226.6719 292.5656,226.8281 C292.7219,226.9531 292.925,227 293.3313,227 L298.4719,227 C299.2219,227 299.5813,226.7188 299.5813,226.1563 C299.5813,225.875 299.4719,225.625 299.2375,225.4531 C299.0656,225.3281 298.925,225.2969 298.4719,225.2969 L296.7531,225.2969 L296.7531,218.7813 Z " fill="#000000"/><text fill="#000000" font-family="sans-serif" font-size="12" font-style="italic" lengthAdjust="spacingAndGlyphs" textLength="112" x="312.2" y="226.1543">AcceptorController</text><line style="stroke:#A80036;stroke-width:1.5;" x1="271" x2="437" y1="238" y2="238"/><line style="stroke:#A80036;stroke-width:1.5;" x1="271" x2="437" y1="246" y2="246"/><ellipse cx="281" cy="257" fill="#84BE84" rx="3" ry="3" style="stroke:#038048;stroke-width:1.0;"/><text fill="#000000" font-family="sans-serif" font-size="11" lengthAdjust="spacingAndGlyphs" textLength="142" x="290" y="260.2104">accept(ControllersVisitor)</text><!--MD5=[1d24f39eb668951ebcebc2fa16f89b43]
class mastermind.controllers.Controller--><rect codeLine="19" fill="#FEFECE" filter="url(#f1x7eiqweiplgi)" height="86.4141" id="mastermind.controllers.Controller" style="stroke:#A80036;stroke-width:1.5;" width="134" x="40" y="41"/><ellipse cx="74.35" cy="57" fill="#ADD1B2" rx="11" ry="11" style="stroke:#A80036;stroke-width:1.0;"/><path d="M76.6938,52.6719 C75.7563,52.2344 75.1625,52.0938 74.2875,52.0938 C71.6625,52.0938 69.6625,54.1719 69.6625,56.8906 L69.6625,58.0156 C69.6625,60.5938 71.7719,62.4844 74.6625,62.4844 C75.8813,62.4844 77.0375,62.1875 77.7875,61.6406 C78.3656,61.2344 78.6938,60.7813 78.6938,60.3906 C78.6938,59.9375 78.3031,59.5469 77.8344,59.5469 C77.6156,59.5469 77.4125,59.625 77.225,59.8125 C76.7719,60.2969 76.7719,60.2969 76.5844,60.3906 C76.1625,60.6563 75.475,60.7813 74.7094,60.7813 C72.6625,60.7813 71.3656,59.6875 71.3656,57.9844 L71.3656,56.8906 C71.3656,55.1094 72.6156,53.7969 74.35,53.7969 C74.9281,53.7969 75.5375,53.9531 76.0063,54.2031 C76.4906,54.4844 76.6625,54.7031 76.7563,55.1094 C76.8188,55.5156 76.85,55.6406 76.9906,55.7656 C77.1313,55.9063 77.3656,56.0156 77.5844,56.0156 C77.85,56.0156 78.1156,55.875 78.2875,55.6563 C78.3969,55.5 78.4281,55.3125 78.4281,54.8906 L78.4281,53.4688 C78.4281,53.0313 78.4125,52.9063 78.3188,52.75 C78.1625,52.4844 77.8813,52.3438 77.5844,52.3438 C77.2875,52.3438 77.0844,52.4375 76.8656,52.75 L76.6938,52.6719 Z " fill="#000000"/><text fill="#000000" font-family="sans-serif" font-size="12" lengthAdjust="spacingAndGlyphs" textLength="59" x="92.65" y="61.1543">Controller</text><line style="stroke:#A80036;stroke-width:1.5;" x1="41" x2="173" y1="73" y2="73"/><polygon fill="none" points="51,79,55,83,51,87,47,83" style="stroke:#B38D22;stroke-width:1.0;"/><text fill="#000000" font-family="sans-serif" font-size="11" lengthAdjust="spacingAndGlyphs" textLength="95" x="60" y="87.2104">session: Session</text><line style="stroke:#A80036;stroke-width:1.5;" x1="41" x2="173" y1="93.8047" y2="93.8047"/><polygon fill="#4177AF" points="51,100.8047,47,106.8047,55,106.8047" style="stroke:#1963A0;stroke-width:1.0;"/><text fill="#000000" font-family="sans-serif" font-size="11" lengthAdjust="spacingAndGlyphs" textLength="108" x="60" y="108.0151">Controller(Session)</text><ellipse cx="51" cy="117.6094" fill="#84BE84" rx="3" ry="3" style="stroke:#038048;stroke-width:1.0;"/><text fill="#000000" font-family="sans-serif" font-size="11" lengthAdjust="spacingAndGlyphs" textLength="80" x="60" y="120.8198">getWidth(): int</text><!--MD5=[f19b5103d8f53e22ec21b559cf627f49]
class mastermind.controllers.ControllersVisitor--><rect codeLine="27" fill="#FEFECE" filter="url(#f1x7eiqweiplgi)" height="86.4141" id="mastermind.controllers.ControllersVisitor" style="stroke:#A80036;stroke-width:1.5;" width="159" x="425.5" y="346"/><ellipse cx="452.2" cy="362" fill="#B4A7E5" rx="11" ry="11" style="stroke:#A80036;stroke-width:1.0;"/><path d="M453.1531,358.7813 L454.8719,358.7813 C455.2625,358.7813 455.45,358.75 455.575,358.6719 C455.8406,358.5156 455.9813,358.2344 455.9813,357.9375 C455.9813,357.6719 455.8719,357.4063 455.6375,357.2344 C455.4656,357.125 455.325,357.0938 454.8719,357.0938 L449.7313,357.0938 C449.2938,357.0938 449.1688,357.1094 449.0125,357.2031 C448.7625,357.3594 448.6063,357.6563 448.6063,357.9375 C448.6063,358.2188 448.7469,358.4688 448.9656,358.6406 C449.1219,358.75 449.3094,358.7813 449.7313,358.7813 L451.45,358.7813 L451.45,365.2969 L449.7313,365.2969 C449.2938,365.2969 449.1688,365.3125 449.0125,365.4219 C448.7625,365.5781 448.6063,365.8594 448.6063,366.1563 C448.6063,366.4063 448.7469,366.6719 448.9656,366.8281 C449.1219,366.9531 449.325,367 449.7313,367 L454.8719,367 C455.6219,367 455.9813,366.7188 455.9813,366.1563 C455.9813,365.875 455.8719,365.625 455.6375,365.4531 C455.4656,365.3281 455.325,365.2969 454.8719,365.2969 L453.1531,365.2969 L453.1531,358.7813 Z " fill="#000000"/><text fill="#000000" font-family="sans-serif" font-size="12" font-style="italic" lengthAdjust="spacingAndGlyphs" textLength="101" x="468.8" y="366.1543">ControllersVisitor</text><line style="stroke:#A80036;stroke-width:1.5;" x1="426.5" x2="583.5" y1="378" y2="378"/><line style="stroke:#A80036;stroke-width:1.5;" x1="426.5" x2="583.5" y1="386" y2="386"/><polygon fill="#4177AF" points="436.5,393,432.5,399,440.5,399" style="stroke:#1963A0;stroke-width:1.0;"/><text fill="#000000" font-family="sans-serif" font-size="11" lengthAdjust="spacingAndGlyphs" textLength="113" x="445.5" y="400.2104">visit(StartController)</text><polygon fill="#4177AF" points="436.5,405.8047,432.5,411.8047,440.5,411.8047" style="stroke:#1963A0;stroke-width:1.0;"/><text fill="#000000" font-family="sans-serif" font-size="11" lengthAdjust="spacingAndGlyphs" textLength="109" x="445.5" y="413.0151">visit(PlayController)</text><polygon fill="#4177AF" points="436.5,418.6094,432.5,424.6094,440.5,424.6094" style="stroke:#1963A0;stroke-width:1.0;"/><text fill="#000000" font-family="sans-serif" font-size="11" lengthAdjust="spacingAndGlyphs" textLength="133" x="445.5" y="425.8198">visit(ResumeController)</text><!--MD5=[d9d5430157ad572c27b2bdfc27cdb4ea]
class mastermind.controllers.ResumeController--><rect codeLine="92" fill="#FEFECE" filter="url(#f1x7eiqweiplgi)" height="86.4141" id="mastermind.controllers.ResumeController" style="stroke:#A80036;stroke-width:1.5;" width="181" x="448.5" y="575.5"/><ellipse cx="482.4" cy="591.5" fill="#ADD1B2" rx="11" ry="11" style="stroke:#A80036;stroke-width:1.0;"/><path d="M484.7438,587.1719 C483.8063,586.7344 483.2125,586.5938 482.3375,586.5938 C479.7125,586.5938 477.7125,588.6719 477.7125,591.3906 L477.7125,592.5156 C477.7125,595.0938 479.8219,596.9844 482.7125,596.9844 C483.9313,596.9844 485.0875,596.6875 485.8375,596.1406 C486.4156,595.7344 486.7438,595.2813 486.7438,594.8906 C486.7438,594.4375 486.3531,594.0469 485.8844,594.0469 C485.6656,594.0469 485.4625,594.125 485.275,594.3125 C484.8219,594.7969 484.8219,594.7969 484.6344,594.8906 C484.2125,595.1563 483.525,595.2813 482.7594,595.2813 C480.7125,595.2813 479.4156,594.1875 479.4156,592.4844 L479.4156,591.3906 C479.4156,589.6094 480.6656,588.2969 482.4,588.2969 C482.9781,588.2969 483.5875,588.4531 484.0563,588.7031 C484.5406,588.9844 484.7125,589.2031 484.8063,589.6094 C484.8688,590.0156 484.9,590.1406 485.0406,590.2656 C485.1813,590.4063 485.4156,590.5156 485.6344,590.5156 C485.9,590.5156 486.1656,590.375 486.3375,590.1563 C486.4469,590 486.4781,589.8125 486.4781,589.3906 L486.4781,587.9688 C486.4781,587.5313 486.4625,587.4063 486.3688,587.25 C486.2125,586.9844 485.9313,586.8438 485.6344,586.8438 C485.3375,586.8438 485.1344,586.9375 484.9156,587.25 L484.7438,587.1719 Z " fill="#000000"/><text fill="#000000" font-family="sans-serif" font-size="12" lengthAdjust="spacingAndGlyphs" textLength="107" x="500.6" y="595.6543">ResumeController</text><line style="stroke:#A80036;stroke-width:1.5;" x1="449.5" x2="628.5" y1="607.5" y2="607.5"/><line style="stroke:#A80036;stroke-width:1.5;" x1="449.5" x2="628.5" y1="615.5" y2="615.5"/><ellipse cx="459.5" cy="626.5" fill="#84BE84" rx="3" ry="3" style="stroke:#038048;stroke-width:1.0;"/><text fill="#000000" font-family="sans-serif" font-size="11" lengthAdjust="spacingAndGlyphs" textLength="155" x="468.5" y="629.7104">ResumeController(Session)</text><ellipse cx="459.5" cy="639.3047" fill="#84BE84" rx="3" ry="3" style="stroke:#038048;stroke-width:1.0;"/><text fill="#000000" font-family="sans-serif" font-size="11" lengthAdjust="spacingAndGlyphs" textLength="142" x="468.5" y="642.5151">accept(ControllersVisitor)</text><ellipse cx="459.5" cy="652.1094" fill="#84BE84" rx="3" ry="3" style="stroke:#038048;stroke-width:1.0;"/><text fill="#000000" font-family="sans-serif" font-size="11" lengthAdjust="spacingAndGlyphs" textLength="98" x="468.5" y="655.3198">resume(boolean)</text><!--MD5=[ef6fc8a83c8eb455c00aa47991605c31]
class mastermind.controllers.StartController--><rect codeLine="100" fill="#FEFECE" filter="url(#f1x7eiqweiplgi)" height="86.4141" id="mastermind.controllers.StartController" style="stroke:#A80036;stroke-width:1.5;" width="168" x="665" y="575.5"/><ellipse cx="702.05" cy="591.5" fill="#ADD1B2" rx="11" ry="11" style="stroke:#A80036;stroke-width:1.0;"/><path d="M704.3938,587.1719 C703.4563,586.7344 702.8625,586.5938 701.9875,586.5938 C699.3625,586.5938 697.3625,588.6719 697.3625,591.3906 L697.3625,592.5156 C697.3625,595.0938 699.4719,596.9844 702.3625,596.9844 C703.5813,596.9844 704.7375,596.6875 705.4875,596.1406 C706.0656,595.7344 706.3938,595.2813 706.3938,594.8906 C706.3938,594.4375 706.0031,594.0469 705.5344,594.0469 C705.3156,594.0469 705.1125,594.125 704.925,594.3125 C704.4719,594.7969 704.4719,594.7969 704.2844,594.8906 C703.8625,595.1563 703.175,595.2813 702.4094,595.2813 C700.3625,595.2813 699.0656,594.1875 699.0656,592.4844 L699.0656,591.3906 C699.0656,589.6094 700.3156,588.2969 702.05,588.2969 C702.6281,588.2969 703.2375,588.4531 703.7063,588.7031 C704.1906,588.9844 704.3625,589.2031 704.4563,589.6094 C704.5188,590.0156 704.55,590.1406 704.6906,590.2656 C704.8313,590.4063 705.0656,590.5156 705.2844,590.5156 C705.55,590.5156 705.8156,590.375 705.9875,590.1563 C706.0969,590 706.1281,589.8125 706.1281,589.3906 L706.1281,587.9688 C706.1281,587.5313 706.1125,587.4063 706.0188,587.25 C705.8625,586.9844 705.5813,586.8438 705.2844,586.8438 C704.9875,586.8438 704.7844,586.9375 704.5656,587.25 L704.3938,587.1719 Z " fill="#000000"/><text fill="#000000" font-family="sans-serif" font-size="12" lengthAdjust="spacingAndGlyphs" textLength="87" x="720.95" y="595.6543">StartController</text><line style="stroke:#A80036;stroke-width:1.5;" x1="666" x2="832" y1="607.5" y2="607.5"/><line style="stroke:#A80036;stroke-width:1.5;" x1="666" x2="832" y1="615.5" y2="615.5"/><ellipse cx="676" cy="626.5" fill="#84BE84" rx="3" ry="3" style="stroke:#038048;stroke-width:1.0;"/><text fill="#000000" font-family="sans-serif" font-size="11" lengthAdjust="spacingAndGlyphs" textLength="135" x="685" y="629.7104">StartController(Session)</text><ellipse cx="676" cy="639.3047" fill="#84BE84" rx="3" ry="3" style="stroke:#038048;stroke-width:1.0;"/><text fill="#000000" font-family="sans-serif" font-size="11" lengthAdjust="spacingAndGlyphs" textLength="142" x="685" y="642.5151">accept(ControllersVisitor)</text><ellipse cx="676" cy="652.1094" fill="#84BE84" rx="3" ry="3" style="stroke:#038048;stroke-width:1.0;"/><text fill="#000000" font-family="sans-serif" font-size="11" lengthAdjust="spacingAndGlyphs" textLength="33" x="685" y="655.3198">start()</text><!--MD5=[ff345c89f878e0f573ea2dc92593b33d]
class mastermind.controllers.PlayController--><rect codeLine="49" fill="#FEFECE" filter="url(#f1x7eiqweiplgi)" height="252.875" id="mastermind.controllers.PlayController" style="stroke:#A80036;stroke-width:1.5;" width="270" x="143" y="492"/><ellipse cx="232.75" cy="508" fill="#ADD1B2" rx="11" ry="11" style="stroke:#A80036;stroke-width:1.0;"/><path d="M235.0938,503.6719 C234.1563,503.2344 233.5625,503.0938 232.6875,503.0938 C230.0625,503.0938 228.0625,505.1719 228.0625,507.8906 L228.0625,509.0156 C228.0625,511.5938 230.1719,513.4844 233.0625,513.4844 C234.2813,513.4844 235.4375,513.1875 236.1875,512.6406 C236.7656,512.2344 237.0938,511.7813 237.0938,511.3906 C237.0938,510.9375 236.7031,510.5469 236.2344,510.5469 C236.0156,510.5469 235.8125,510.625 235.625,510.8125 C235.1719,511.2969 235.1719,511.2969 234.9844,511.3906 C234.5625,511.6563 233.875,511.7813 233.1094,511.7813 C231.0625,511.7813 229.7656,510.6875 229.7656,508.9844 L229.7656,507.8906 C229.7656,506.1094 231.0156,504.7969 232.75,504.7969 C233.3281,504.7969 233.9375,504.9531 234.4063,505.2031 C234.8906,505.4844 235.0625,505.7031 235.1563,506.1094 C235.2188,506.5156 235.25,506.6406 235.3906,506.7656 C235.5313,506.9063 235.7656,507.0156 235.9844,507.0156 C236.25,507.0156 236.5156,506.875 236.6875,506.6563 C236.7969,506.5 236.8281,506.3125 236.8281,505.8906 L236.8281,504.4688 C236.8281,504.0313 236.8125,503.9063 236.7188,503.75 C236.5625,503.4844 236.2813,503.3438 235.9844,503.3438 C235.6875,503.3438 235.4844,503.4375 235.2656,503.75 L235.0938,503.6719 Z " fill="#000000"/><text fill="#000000" font-family="sans-serif" font-size="12" lengthAdjust="spacingAndGlyphs" textLength="82" x="253.25" y="512.1543">PlayController</text><line style="stroke:#A80036;stroke-width:1.5;" x1="144" x2="412" y1="524" y2="524"/><rect fill="none" height="6" style="stroke:#C82930;stroke-width:1.0;" width="6" x="151" y="532"/><text fill="#000000" font-family="sans-serif" font-size="11" lengthAdjust="spacingAndGlyphs" textLength="212" x="163" y="538.2104">proposalController: ProposalController</text><rect fill="none" height="6" style="stroke:#C82930;stroke-width:1.0;" width="6" x="151" y="544.8047"/><text fill="#000000" font-family="sans-serif" font-size="11" lengthAdjust="spacingAndGlyphs" textLength="174" x="163" y="551.0151">undoController: UndoController</text><rect fill="none" height="6" style="stroke:#C82930;stroke-width:1.0;" width="6" x="151" y="557.6094"/><text fill="#000000" font-family="sans-serif" font-size="11" lengthAdjust="spacingAndGlyphs" textLength="172" x="163" y="563.8198">redoController: RedoController</text><line style="stroke:#A80036;stroke-width:1.5;" x1="144" x2="412" y1="570.4141" y2="570.4141"/><ellipse cx="154" cy="581.4141" fill="#84BE84" rx="3" ry="3" style="stroke:#038048;stroke-width:1.0;"/><text fill="#000000" font-family="sans-serif" font-size="11" lengthAdjust="spacingAndGlyphs" textLength="131" x="163" y="584.6245">PlayController(Session)</text><ellipse cx="154" cy="594.2188" fill="#84BE84" rx="3" ry="3" style="stroke:#038048;stroke-width:1.0;"/><text fill="#000000" font-family="sans-serif" font-size="11" lengthAdjust="spacingAndGlyphs" textLength="142" x="163" y="597.4292">accept(ControllersVisitor)</text><ellipse cx="154" cy="607.0234" fill="#84BE84" rx="3" ry="3" style="stroke:#038048;stroke-width:1.0;"/><text fill="#000000" font-family="sans-serif" font-size="11" lengthAdjust="spacingAndGlyphs" textLength="244" x="163" y="610.2339">addProposeCombination(List&lt;Color&gt;): Error</text><ellipse cx="154" cy="619.8281" fill="#84BE84" rx="3" ry="3" style="stroke:#038048;stroke-width:1.0;"/><text fill="#000000" font-family="sans-serif" font-size="11" lengthAdjust="spacingAndGlyphs" textLength="114" x="163" y="623.0386">undoable(): boolean</text><ellipse cx="154" cy="632.6328" fill="#84BE84" rx="3" ry="3" style="stroke:#038048;stroke-width:1.0;"/><text fill="#000000" font-family="sans-serif" font-size="11" lengthAdjust="spacingAndGlyphs" textLength="112" x="163" y="635.8433">redoable(): boolean</text><ellipse cx="154" cy="645.4375" fill="#84BE84" rx="3" ry="3" style="stroke:#038048;stroke-width:1.0;"/><text fill="#000000" font-family="sans-serif" font-size="11" lengthAdjust="spacingAndGlyphs" textLength="36" x="163" y="648.6479">undo()</text><ellipse cx="154" cy="658.2422" fill="#84BE84" rx="3" ry="3" style="stroke:#038048;stroke-width:1.0;"/><text fill="#000000" font-family="sans-serif" font-size="11" lengthAdjust="spacingAndGlyphs" textLength="108" x="163" y="661.4526">isLooser(): boolean</text><ellipse cx="154" cy="671.0469" fill="#84BE84" rx="3" ry="3" style="stroke:#038048;stroke-width:1.0;"/><text fill="#000000" font-family="sans-serif" font-size="11" lengthAdjust="spacingAndGlyphs" textLength="34" x="163" y="674.2573">redo()</text><ellipse cx="154" cy="683.8516" fill="#84BE84" rx="3" ry="3" style="stroke:#038048;stroke-width:1.0;"/><text fill="#000000" font-family="sans-serif" font-size="11" lengthAdjust="spacingAndGlyphs" textLength="110" x="163" y="687.062">isWinner(): boolean</text><ellipse cx="154" cy="696.6563" fill="#84BE84" rx="3" ry="3" style="stroke:#038048;stroke-width:1.0;"/><text fill="#000000" font-family="sans-serif" font-size="11" lengthAdjust="spacingAndGlyphs" textLength="100" x="163" y="699.8667">getAttempts(): int</text><ellipse cx="154" cy="709.4609" fill="#84BE84" rx="3" ry="3" style="stroke:#038048;stroke-width:1.0;"/><text fill="#000000" font-family="sans-serif" font-size="11" lengthAdjust="spacingAndGlyphs" textLength="149" x="163" y="712.6714">getColors(int): List&lt;Color&gt;</text><ellipse cx="154" cy="722.2656" fill="#84BE84" rx="3" ry="3" style="stroke:#038048;stroke-width:1.0;"/><text fill="#000000" font-family="sans-serif" font-size="11" lengthAdjust="spacingAndGlyphs" textLength="98" x="163" y="725.4761">getBlacks(int): int</text><ellipse cx="154" cy="735.0703" fill="#84BE84" rx="3" ry="3" style="stroke:#038048;stroke-width:1.0;"/><text fill="#000000" font-family="sans-serif" font-size="11" lengthAdjust="spacingAndGlyphs" textLength="101" x="163" y="738.2808">getWhites(int): int</text><!--MD5=[23fa68f5dd51b02db50930b64c1246c4]
class mastermind.controllers.Logic--><rect codeLine="36" fill="#FEFECE" filter="url(#f1x7eiqweiplgi)" height="99.2188" id="mastermind.controllers.Logic" style="stroke:#A80036;stroke-width:1.5;" width="360" x="473" y="187"/><ellipse cx="632.75" cy="203" fill="#ADD1B2" rx="11" ry="11" style="stroke:#A80036;stroke-width:1.0;"/><path d="M635.0938,198.6719 C634.1563,198.2344 633.5625,198.0938 632.6875,198.0938 C630.0625,198.0938 628.0625,200.1719 628.0625,202.8906 L628.0625,204.0156 C628.0625,206.5938 630.1719,208.4844 633.0625,208.4844 C634.2813,208.4844 635.4375,208.1875 636.1875,207.6406 C636.7656,207.2344 637.0938,206.7813 637.0938,206.3906 C637.0938,205.9375 636.7031,205.5469 636.2344,205.5469 C636.0156,205.5469 635.8125,205.625 635.625,205.8125 C635.1719,206.2969 635.1719,206.2969 634.9844,206.3906 C634.5625,206.6563 633.875,206.7813 633.1094,206.7813 C631.0625,206.7813 629.7656,205.6875 629.7656,203.9844 L629.7656,202.8906 C629.7656,201.1094 631.0156,199.7969 632.75,199.7969 C633.3281,199.7969 633.9375,199.9531 634.4063,200.2031 C634.8906,200.4844 635.0625,200.7031 635.1563,201.1094 C635.2188,201.5156 635.25,201.6406 635.3906,201.7656 C635.5313,201.9063 635.7656,202.0156 635.9844,202.0156 C636.25,202.0156 636.5156,201.875 636.6875,201.6563 C636.7969,201.5 636.8281,201.3125 636.8281,200.8906 L636.8281,199.4688 C636.8281,199.0313 636.8125,198.9063 636.7188,198.75 C636.5625,198.4844 636.2813,198.3438 635.9844,198.3438 C635.6875,198.3438 635.4844,198.4375 635.2656,198.75 L635.0938,198.6719 Z " fill="#000000"/><text fill="#000000" font-family="sans-serif" font-size="12" lengthAdjust="spacingAndGlyphs" textLength="32" x="653.25" y="207.1543">Logic</text><line style="stroke:#A80036;stroke-width:1.5;" x1="474" x2="832" y1="219" y2="219"/><rect fill="none" height="6" style="stroke:#C82930;stroke-width:1.0;" width="6" x="481" y="227"/><text fill="#000000" font-family="sans-serif" font-size="11" lengthAdjust="spacingAndGlyphs" textLength="95" x="493" y="233.2104">session: Session</text><rect fill="none" height="6" style="stroke:#C82930;stroke-width:1.0;" width="6" x="481" y="239.8047"/><text fill="#000000" font-family="sans-serif" font-size="11" lengthAdjust="spacingAndGlyphs" textLength="334" x="493" y="246.0151">acceptorControllers: Map&lt;StateValue, AcceptorController&gt;</text><line style="stroke:#A80036;stroke-width:1.5;" x1="474" x2="832" y1="252.6094" y2="252.6094"/><ellipse cx="484" cy="263.6094" fill="#84BE84" rx="3" ry="3" style="stroke:#038048;stroke-width:1.0;"/><text fill="#000000" font-family="sans-serif" font-size="11" lengthAdjust="spacingAndGlyphs" textLength="37" x="493" y="266.8198">Logic()</text><ellipse cx="484" cy="276.4141" fill="#84BE84" rx="3" ry="3" style="stroke:#038048;stroke-width:1.0;"/><text fill="#000000" font-family="sans-serif" font-size="11" lengthAdjust="spacingAndGlyphs" textLength="194" x="493" y="279.6245">getController(): AcceptorController</text><!--MD5=[10da454b7117024b4d113fdb0d332044]
class mastermind.controllers.RedoController--><rect codeLine="85" fill="#FEFECE" filter="url(#f1x7eiqweiplgi)" height="86.4141" id="mastermind.controllers.RedoController" style="stroke:#A80036;stroke-width:1.5;" width="163" x="536.5" y="837"/><ellipse cx="569.95" cy="853" fill="#ADD1B2" rx="11" ry="11" style="stroke:#A80036;stroke-width:1.0;"/><path d="M572.2938,848.6719 C571.3563,848.2344 570.7625,848.0938 569.8875,848.0938 C567.2625,848.0938 565.2625,850.1719 565.2625,852.8906 L565.2625,854.0156 C565.2625,856.5938 567.3719,858.4844 570.2625,858.4844 C571.4813,858.4844 572.6375,858.1875 573.3875,857.6406 C573.9656,857.2344 574.2938,856.7813 574.2938,856.3906 C574.2938,855.9375 573.9031,855.5469 573.4344,855.5469 C573.2156,855.5469 573.0125,855.625 572.825,855.8125 C572.3719,856.2969 572.3719,856.2969 572.1844,856.3906 C571.7625,856.6563 571.075,856.7813 570.3094,856.7813 C568.2625,856.7813 566.9656,855.6875 566.9656,853.9844 L566.9656,852.8906 C566.9656,851.1094 568.2156,849.7969 569.95,849.7969 C570.5281,849.7969 571.1375,849.9531 571.6063,850.2031 C572.0906,850.4844 572.2625,850.7031 572.3563,851.1094 C572.4188,851.5156 572.45,851.6406 572.5906,851.7656 C572.7313,851.9063 572.9656,852.0156 573.1844,852.0156 C573.45,852.0156 573.7156,851.875 573.8875,851.6563 C573.9969,851.5 574.0281,851.3125 574.0281,850.8906 L574.0281,849.4688 C574.0281,849.0313 574.0125,848.9063 573.9188,848.75 C573.7625,848.4844 573.4813,848.3438 573.1844,848.3438 C572.8875,848.3438 572.6844,848.4375 572.4656,848.75 L572.2938,848.6719 Z " fill="#000000"/><text fill="#000000" font-family="sans-serif" font-size="12" lengthAdjust="spacingAndGlyphs" textLength="90" x="588.05" y="857.1543">RedoController</text><line style="stroke:#A80036;stroke-width:1.5;" x1="537.5" x2="698.5" y1="869" y2="869"/><line style="stroke:#A80036;stroke-width:1.5;" x1="537.5" x2="698.5" y1="877" y2="877"/><polygon fill="#4177AF" points="547.5,884,543.5,890,551.5,890" style="stroke:#1963A0;stroke-width:1.0;"/><text fill="#000000" font-family="sans-serif" font-size="11" lengthAdjust="spacingAndGlyphs" textLength="137" x="556.5" y="891.2104">RedoController(Session)</text><polygon fill="#4177AF" points="547.5,896.8047,543.5,902.8047,551.5,902.8047" style="stroke:#1963A0;stroke-width:1.0;"/><text fill="#000000" font-family="sans-serif" font-size="11" lengthAdjust="spacingAndGlyphs" textLength="112" x="556.5" y="904.0151">redoable(): boolean</text><polygon fill="#4177AF" points="547.5,909.6094,543.5,915.6094,551.5,915.6094" style="stroke:#1963A0;stroke-width:1.0;"/><text fill="#000000" font-family="sans-serif" font-size="11" lengthAdjust="spacingAndGlyphs" textLength="34" x="556.5" y="916.8198">redo()</text><!--MD5=[53f2d29441613e23c1c5779aeff2cdb7]
class mastermind.controllers.UndoController--><rect codeLine="108" fill="#FEFECE" filter="url(#f1x7eiqweiplgi)" height="86.4141" id="mastermind.controllers.UndoController" style="stroke:#A80036;stroke-width:1.5;" width="163" x="32.5" y="837"/><ellipse cx="65.5" cy="853" fill="#ADD1B2" rx="11" ry="11" style="stroke:#A80036;stroke-width:1.0;"/><path d="M67.8438,848.6719 C66.9063,848.2344 66.3125,848.0938 65.4375,848.0938 C62.8125,848.0938 60.8125,850.1719 60.8125,852.8906 L60.8125,854.0156 C60.8125,856.5938 62.9219,858.4844 65.8125,858.4844 C67.0313,858.4844 68.1875,858.1875 68.9375,857.6406 C69.5156,857.2344 69.8438,856.7813 69.8438,856.3906 C69.8438,855.9375 69.4531,855.5469 68.9844,855.5469 C68.7656,855.5469 68.5625,855.625 68.375,855.8125 C67.9219,856.2969 67.9219,856.2969 67.7344,856.3906 C67.3125,856.6563 66.625,856.7813 65.8594,856.7813 C63.8125,856.7813 62.5156,855.6875 62.5156,853.9844 L62.5156,852.8906 C62.5156,851.1094 63.7656,849.7969 65.5,849.7969 C66.0781,849.7969 66.6875,849.9531 67.1563,850.2031 C67.6406,850.4844 67.8125,850.7031 67.9063,851.1094 C67.9688,851.5156 68,851.6406 68.1406,851.7656 C68.2813,851.9063 68.5156,852.0156 68.7344,852.0156 C69,852.0156 69.2656,851.875 69.4375,851.6563 C69.5469,851.5 69.5781,851.3125 69.5781,850.8906 L69.5781,849.4688 C69.5781,849.0313 69.5625,848.9063 69.4688,848.75 C69.3125,848.4844 69.0313,848.3438 68.7344,848.3438 C68.4375,848.3438 68.2344,848.4375 68.0156,848.75 L67.8438,848.6719 Z " fill="#000000"/><text fill="#000000" font-family="sans-serif" font-size="12" lengthAdjust="spacingAndGlyphs" textLength="91" x="83.5" y="857.1543">UndoController</text><line style="stroke:#A80036;stroke-width:1.5;" x1="33.5" x2="194.5" y1="869" y2="869"/><line style="stroke:#A80036;stroke-width:1.5;" x1="33.5" x2="194.5" y1="877" y2="877"/><polygon fill="#4177AF" points="43.5,884,39.5,890,47.5,890" style="stroke:#1963A0;stroke-width:1.0;"/><text fill="#000000" font-family="sans-serif" font-size="11" lengthAdjust="spacingAndGlyphs" textLength="137" x="52.5" y="891.2104">UndoController(Session)</text><polygon fill="#4177AF" points="43.5,896.8047,39.5,902.8047,47.5,902.8047" style="stroke:#1963A0;stroke-width:1.0;"/><text fill="#000000" font-family="sans-serif" font-size="11" lengthAdjust="spacingAndGlyphs" textLength="114" x="52.5" y="904.0151">undoable(): boolean</text><polygon fill="#4177AF" points="43.5,909.6094,39.5,915.6094,47.5,915.6094" style="stroke:#1963A0;stroke-width:1.0;"/><text fill="#000000" font-family="sans-serif" font-size="11" lengthAdjust="spacingAndGlyphs" textLength="36" x="52.5" y="916.8198">undo()</text><!--MD5=[f38ac43e4fc72409b23abc1f12dd68ae]
class mastermind.controllers.ProposalController--><rect codeLine="73" fill="#FEFECE" filter="url(#f1x7eiqweiplgi)" height="150.4375" id="mastermind.controllers.ProposalController" style="stroke:#A80036;stroke-width:1.5;" width="270" x="231" y="805"/><ellipse cx="306.25" cy="821" fill="#ADD1B2" rx="11" ry="11" style="stroke:#A80036;stroke-width:1.0;"/><path d="M308.5938,816.6719 C307.6563,816.2344 307.0625,816.0938 306.1875,816.0938 C303.5625,816.0938 301.5625,818.1719 301.5625,820.8906 L301.5625,822.0156 C301.5625,824.5938 303.6719,826.4844 306.5625,826.4844 C307.7813,826.4844 308.9375,826.1875 309.6875,825.6406 C310.2656,825.2344 310.5938,824.7813 310.5938,824.3906 C310.5938,823.9375 310.2031,823.5469 309.7344,823.5469 C309.5156,823.5469 309.3125,823.625 309.125,823.8125 C308.6719,824.2969 308.6719,824.2969 308.4844,824.3906 C308.0625,824.6563 307.375,824.7813 306.6094,824.7813 C304.5625,824.7813 303.2656,823.6875 303.2656,821.9844 L303.2656,820.8906 C303.2656,819.1094 304.5156,817.7969 306.25,817.7969 C306.8281,817.7969 307.4375,817.9531 307.9063,818.2031 C308.3906,818.4844 308.5625,818.7031 308.6563,819.1094 C308.7188,819.5156 308.75,819.6406 308.8906,819.7656 C309.0313,819.9063 309.2656,820.0156 309.4844,820.0156 C309.75,820.0156 310.0156,819.875 310.1875,819.6563 C310.2969,819.5 310.3281,819.3125 310.3281,818.8906 L310.3281,817.4688 C310.3281,817.0313 310.3125,816.9063 310.2188,816.75 C310.0625,816.4844 309.7813,816.3438 309.4844,816.3438 C309.1875,816.3438 308.9844,816.4375 308.7656,816.75 L308.5938,816.6719 Z " fill="#000000"/><text fill="#000000" font-family="sans-serif" font-size="12" lengthAdjust="spacingAndGlyphs" textLength="111" x="326.75" y="825.1543">ProposalController</text><line style="stroke:#A80036;stroke-width:1.5;" x1="232" x2="500" y1="837" y2="837"/><line style="stroke:#A80036;stroke-width:1.5;" x1="232" x2="500" y1="845" y2="845"/><polygon fill="#4177AF" points="242,852,238,858,246,858" style="stroke:#1963A0;stroke-width:1.0;"/><text fill="#000000" font-family="sans-serif" font-size="11" lengthAdjust="spacingAndGlyphs" textLength="155" x="251" y="859.2104">ProposalController(Session)</text><polygon fill="#4177AF" points="242,864.8047,238,870.8047,246,870.8047" style="stroke:#1963A0;stroke-width:1.0;"/><text fill="#000000" font-family="sans-serif" font-size="11" lengthAdjust="spacingAndGlyphs" textLength="244" x="251" y="872.0151">addProposeCombination(List&lt;Color&gt;): Error</text><polygon fill="#4177AF" points="242,877.6094,238,883.6094,246,883.6094" style="stroke:#1963A0;stroke-width:1.0;"/><text fill="#000000" font-family="sans-serif" font-size="11" lengthAdjust="spacingAndGlyphs" textLength="108" x="251" y="884.8198">isLooser(): boolean</text><polygon fill="#4177AF" points="242,890.4141,238,896.4141,246,896.4141" style="stroke:#1963A0;stroke-width:1.0;"/><text fill="#000000" font-family="sans-serif" font-size="11" lengthAdjust="spacingAndGlyphs" textLength="110" x="251" y="897.6245">isWinner(): boolean</text><polygon fill="#4177AF" points="242,903.2188,238,909.2188,246,909.2188" style="stroke:#1963A0;stroke-width:1.0;"/><text fill="#000000" font-family="sans-serif" font-size="11" lengthAdjust="spacingAndGlyphs" textLength="100" x="251" y="910.4292">getAttempts(): int</text><polygon fill="#4177AF" points="242,916.0234,238,922.0234,246,922.0234" style="stroke:#1963A0;stroke-width:1.0;"/><text fill="#000000" font-family="sans-serif" font-size="11" lengthAdjust="spacingAndGlyphs" textLength="149" x="251" y="923.2339">getColors(int): List&lt;Color&gt;</text><polygon fill="#4177AF" points="242,928.8281,238,934.8281,246,934.8281" style="stroke:#1963A0;stroke-width:1.0;"/><text fill="#000000" font-family="sans-serif" font-size="11" lengthAdjust="spacingAndGlyphs" textLength="98" x="251" y="936.0386">getBlacks(int): int</text><polygon fill="#4177AF" points="242,941.6328,238,947.6328,246,947.6328" style="stroke:#1963A0;stroke-width:1.0;"/><text fill="#000000" font-family="sans-serif" font-size="11" lengthAdjust="spacingAndGlyphs" textLength="101" x="251" y="948.8433">getWhites(int): int</text><!--MD5=[4dfc6a72b8dd60daa1b635d583ff79da]
class Map--><rect codeLine="1" fill="#FEFECE" filter="url(#f1x7eiqweiplgi)" height="48" id="Map" style="stroke:#A80036;stroke-width:1.5;" width="104" x="1190" y="365"/><ellipse cx="1205" cy="381" fill="#ADD1B2" rx="11" ry="11" style="stroke:#A80036;stroke-width:1.0;"/><path d="M1207.3438,376.6719 C1206.4063,376.2344 1205.8125,376.0938 1204.9375,376.0938 C1202.3125,376.0938 1200.3125,378.1719 1200.3125,380.8906 L1200.3125,382.0156 C1200.3125,384.5938 1202.4219,386.4844 1205.3125,386.4844 C1206.5313,386.4844 1207.6875,386.1875 1208.4375,385.6406 C1209.0156,385.2344 1209.3438,384.7813 1209.3438,384.3906 C1209.3438,383.9375 1208.9531,383.5469 1208.4844,383.5469 C1208.2656,383.5469 1208.0625,383.625 1207.875,383.8125 C1207.4219,384.2969 1207.4219,384.2969 1207.2344,384.3906 C1206.8125,384.6563 1206.125,384.7813 1205.3594,384.7813 C1203.3125,384.7813 1202.0156,383.6875 1202.0156,381.9844 L1202.0156,380.8906 C1202.0156,379.1094 1203.2656,377.7969 1205,377.7969 C1205.5781,377.7969 1206.1875,377.9531 1206.6563,378.2031 C1207.1406,378.4844 1207.3125,378.7031 1207.4063,379.1094 C1207.4688,379.5156 1207.5,379.6406 1207.6406,379.7656 C1207.7813,379.9063 1208.0156,380.0156 1208.2344,380.0156 C1208.5,380.0156 1208.7656,379.875 1208.9375,379.6563 C1209.0469,379.5 1209.0781,379.3125 1209.0781,378.8906 L1209.0781,377.4688 C1209.0781,377.0313 1209.0625,376.9063 1208.9688,376.75 C1208.8125,376.4844 1208.5313,376.3438 1208.2344,376.3438 C1207.9375,376.3438 1207.7344,376.4375 1207.5156,376.75 L1207.3438,376.6719 Z " fill="#000000"/><text fill="#000000" font-family="sans-serif" font-size="12" lengthAdjust="spacingAndGlyphs" textLength="72" x="1219" y="385.1543">java.util.Map</text><line style="stroke:#A80036;stroke-width:1.5;" x1="1191" x2="1293" y1="397" y2="397"/><line style="stroke:#A80036;stroke-width:1.5;" x1="1191" x2="1293" y1="405" y2="405"/><!--MD5=[2ca1536628238a7dc78c5d90808014f9]
class Session--><rect codeLine="5" fill="#FEFECE" filter="url(#f1x7eiqweiplgi)" height="48" id="Session" style="stroke:#A80036;stroke-width:1.5;" width="273" x="865.5" y="856"/><ellipse cx="880.5" cy="872" fill="#ADD1B2" rx="11" ry="11" style="stroke:#A80036;stroke-width:1.0;"/><path d="M882.8438,867.6719 C881.9063,867.2344 881.3125,867.0938 880.4375,867.0938 C877.8125,867.0938 875.8125,869.1719 875.8125,871.8906 L875.8125,873.0156 C875.8125,875.5938 877.9219,877.4844 880.8125,877.4844 C882.0313,877.4844 883.1875,877.1875 883.9375,876.6406 C884.5156,876.2344 884.8438,875.7813 884.8438,875.3906 C884.8438,874.9375 884.4531,874.5469 883.9844,874.5469 C883.7656,874.5469 883.5625,874.625 883.375,874.8125 C882.9219,875.2969 882.9219,875.2969 882.7344,875.3906 C882.3125,875.6563 881.625,875.7813 880.8594,875.7813 C878.8125,875.7813 877.5156,874.6875 877.5156,872.9844 L877.5156,871.8906 C877.5156,870.1094 878.7656,868.7969 880.5,868.7969 C881.0781,868.7969 881.6875,868.9531 882.1563,869.2031 C882.6406,869.4844 882.8125,869.7031 882.9063,870.1094 C882.9688,870.5156 883,870.6406 883.1406,870.7656 C883.2813,870.9063 883.5156,871.0156 883.7344,871.0156 C884,871.0156 884.2656,870.875 884.4375,870.6563 C884.5469,870.5 884.5781,870.3125 884.5781,869.8906 L884.5781,868.4688 C884.5781,868.0313 884.5625,867.9063 884.4688,867.75 C884.3125,867.4844 884.0313,867.3438 883.7344,867.3438 C883.4375,867.3438 883.2344,867.4375 883.0156,867.75 L882.8438,867.6719 Z " fill="#000000"/><text fill="#000000" font-family="sans-serif" font-size="12" lengthAdjust="spacingAndGlyphs" textLength="241" x="894.5" y="876.1543">usantatecla.mastermind.models.Session</text><line style="stroke:#A80036;stroke-width:1.5;" x1="866.5" x2="1137.5" y1="888" y2="888"/><line style="stroke:#A80036;stroke-width:1.5;" x1="866.5" x2="1137.5" y1="896" y2="896"/><!--MD5=[167506e288131cdf3986fedef83acd94]
class StateValue--><rect codeLine="9" fill="#FEFECE" filter="url(#f1x7eiqweiplgi)" height="48" id="StateValue" style="stroke:#A80036;stroke-width:1.5;" width="289" x="865.5" y="365"/><ellipse cx="880.5" cy="381" fill="#ADD1B2" rx="11" ry="11" style="stroke:#A80036;stroke-width:1.0;"/><path d="M882.8438,376.6719 C881.9063,376.2344 881.3125,376.0938 880.4375,376.0938 C877.8125,376.0938 875.8125,378.1719 875.8125,380.8906 L875.8125,382.0156 C875.8125,384.5938 877.9219,386.4844 880.8125,386.4844 C882.0313,386.4844 883.1875,386.1875 883.9375,385.6406 C884.5156,385.2344 884.8438,384.7813 884.8438,384.3906 C884.8438,383.9375 884.4531,383.5469 883.9844,383.5469 C883.7656,383.5469 883.5625,383.625 883.375,383.8125 C882.9219,384.2969 882.9219,384.2969 882.7344,384.3906 C882.3125,384.6563 881.625,384.7813 880.8594,384.7813 C878.8125,384.7813 877.5156,383.6875 877.5156,381.9844 L877.5156,380.8906 C877.5156,379.1094 878.7656,377.7969 880.5,377.7969 C881.0781,377.7969 881.6875,377.9531 882.1563,378.2031 C882.6406,378.4844 882.8125,378.7031 882.9063,379.1094 C882.9688,379.5156 883,379.6406 883.1406,379.7656 C883.2813,379.9063 883.5156,380.0156 883.7344,380.0156 C884,380.0156 884.2656,379.875 884.4375,379.6563 C884.5469,379.5 884.5781,379.3125 884.5781,378.8906 L884.5781,377.4688 C884.5781,377.0313 884.5625,376.9063 884.4688,376.75 C884.3125,376.4844 884.0313,376.3438 883.7344,376.3438 C883.4375,376.3438 883.2344,376.4375 883.0156,376.75 L882.8438,376.6719 Z " fill="#000000"/><text fill="#000000" font-family="sans-serif" font-size="12" lengthAdjust="spacingAndGlyphs" textLength="257" x="894.5" y="385.1543">usantatecla.mastermind.models.StateValue</text><line style="stroke:#A80036;stroke-width:1.5;" x1="866.5" x2="1153.5" y1="397" y2="397"/><line style="stroke:#A80036;stroke-width:1.5;" x1="866.5" x2="1153.5" y1="405" y2="405"/><!--MD5=[fb5812bdafd328248bfaf248ab91fbc4]
reverse link mastermind.controllers.Controller to mastermind.controllers.AcceptorController--><path codeLine="16" d="M191.441,136.451 C229.395,159.577 272.836,186.046 305.257,205.8 " fill="none" id="mastermind.controllers.Controller-backto-mastermind.controllers.AcceptorController" style="stroke:#A80036;stroke-width:1.0;"/><polygon fill="none" points="187.605,142.31,174.168,125.926,194.889,130.355,187.605,142.31" style="stroke:#A80036;stroke-width:1.0;"/><!--MD5=[c6ecf205cb0a21a0dd3c2bc03f56debd]
link mastermind.controllers.AcceptorController to mastermind.controllers.ControllersVisitor--><path codeLine="17" d="M383.833,267.234 C405.296,288.626 434.646,317.879 459.084,342.236 " fill="none" id="mastermind.controllers.AcceptorController-to-mastermind.controllers.ControllersVisitor" style="stroke:#A80036;stroke-width:1.0;stroke-dasharray:7.0,7.0;"/><polygon fill="#A80036" points="462.653,345.793,459.1008,336.6071,459.111,342.2639,453.4542,342.2742,462.653,345.793" style="stroke:#A80036;stroke-width:1.0;"/><!--MD5=[4ad7828af3b4d7e085ac4a2fb195b6e6]
link mastermind.controllers.Controller to Session--><path codeLine="24" d="M174.195,88.229 C407.752,101.054 1177.35,157.261 1312,346 C1443.51,530.337 1146.03,773.95 1038.72,853.025 " fill="none" id="mastermind.controllers.Controller-to-Session" style="stroke:#A80036;stroke-width:1.0;"/><polygon fill="#A80036" points="1034.67,855.993,1044.2928,853.8952,1038.7017,853.0357,1039.5611,847.4445,1034.67,855.993" style="stroke:#A80036;stroke-width:1.0;"/><!--MD5=[15edb0e560576a4df9a101b4b7deca6f]
link mastermind.controllers.ControllersVisitor to mastermind.controllers.ResumeController--><path codeLine="32" d="M511.315,432.258 C517.16,471.365 525.838,529.43 531.916,570.099 " fill="none" id="mastermind.controllers.ControllersVisitor-to-mastermind.controllers.ResumeController" style="stroke:#A80036;stroke-width:1.0;stroke-dasharray:7.0,7.0;"/><polygon fill="#A80036" points="532.718,575.468,535.3448,565.9759,531.9795,570.5228,527.4326,567.1575,532.718,575.468" style="stroke:#A80036;stroke-width:1.0;"/><!--MD5=[a717f76ebf50cca36e12a395c24b4956]
link mastermind.controllers.ControllersVisitor to mastermind.controllers.StartController--><path codeLine="33" d="M571.076,432.034 C596.013,449.259 623.913,470.249 647,492 C672.403,515.934 697.186,546.215 715.962,571.037 " fill="none" id="mastermind.controllers.ControllersVisitor-to-mastermind.controllers.StartController" style="stroke:#A80036;stroke-width:1.0;stroke-dasharray:7.0,7.0;"/><polygon fill="#A80036" points="719.159,575.288,716.9453,565.6912,716.1533,571.2923,710.5522,570.5003,719.159,575.288" style="stroke:#A80036;stroke-width:1.0;"/><!--MD5=[4691c15bcde212caafae5be85aafea84]
link mastermind.controllers.ControllersVisitor to mastermind.controllers.PlayController--><path codeLine="34" d="M462.835,432.258 C446.661,448.468 427.236,467.935 407.145,488.071 " fill="none" id="mastermind.controllers.ControllersVisitor-to-mastermind.controllers.PlayController" style="stroke:#A80036;stroke-width:1.0;stroke-dasharray:7.0,7.0;"/><polygon fill="#A80036" points="403.386,491.837,412.5741,488.2903,406.9172,488.2972,406.9104,482.6403,403.386,491.837" style="stroke:#A80036;stroke-width:1.0;"/><!--MD5=[5354d295c75c0ded5e2cc4a2409d25ed]
link mastermind.controllers.Logic to Session--><path codeLine="43" d="M705.4165,295.1888 C705.4165,295.1888 808.955,419.727 850,492 C919.01,613.515 970.571,772.561 991.609,842.883 " fill="none" id="mastermind.controllers.Logic-Session" style="stroke:#A80036;stroke-width:1.0;"/><polygon fill="#A80036" points="995.405,855.726,996.689,845.9612,993.9873,850.9312,989.0173,848.2295,995.405,855.726" style="stroke:#A80036;stroke-width:1.0;"/><line style="stroke:#A80036;stroke-width:1.0;" x1="993.9873" x2="991.72" y1="850.9312" y2="843.26"/><polygon fill="#A80036" points="697.52,286.153,698.4563,293.3031,705.4165,295.1888,704.4802,288.0388,697.52,286.153" style="stroke:#A80036;stroke-width:1.0;"/><!--MD5=[6abf62a772716522efdc01461ac3b4c7]
link mastermind.controllers.Logic to StateValue--><path codeLine="44" d="M779.4725,290.8167 C779.4725,290.8167 897.61,340.62 943.261,359.865 " fill="none" id="mastermind.controllers.Logic-StateValue" style="stroke:#A80036;stroke-width:1.0;"/><polygon fill="#A80036" points="955.388,364.977,948.6485,357.7952,950.7806,363.0348,945.541,365.167,955.388,364.977" style="stroke:#A80036;stroke-width:1.0;"/><line style="stroke:#A80036;stroke-width:1.0;" x1="950.7806" x2="943.4085" y1="363.0348" y2="359.927"/><polygon fill="#A80036" points="768.415,286.155,772.3899,292.1717,779.4725,290.8167,775.4977,284.8,768.415,286.155" style="stroke:#A80036;stroke-width:1.0;"/><!--MD5=[79d5c4d9a9c914ea0223a7a31be12ed3]
link mastermind.controllers.Logic to Map--><path codeLine="45" d="M845.0617,261.9514 C845.0617,261.9514 1067.92,305.241 1172,346 C1180.52,349.337 1189.2,353.663 1197.41,358.266 " fill="none" id="mastermind.controllers.Logic-Map" style="stroke:#A80036;stroke-width:1.0;"/><polygon fill="#A80036" points="1208.64,364.884,1202.9169,356.8686,1204.3323,362.3455,1198.8554,363.7609,1208.64,364.884" style="stroke:#A80036;stroke-width:1.0;"/><line style="stroke:#A80036;stroke-width:1.0;" x1="1204.3323" x2="1197.44" y1="362.3455" y2="358.285"/><polygon fill="#A80036" points="833.22,260.009,838.4934,264.9275,845.0617,261.9514,839.7883,257.033,833.22,260.009" style="stroke:#A80036;stroke-width:1.0;"/><!--MD5=[7d5591b72c50979a200088184d6a2b1c]
link mastermind.controllers.Logic to mastermind.controllers.AcceptorController--><path codeLine="47" d="M460.932,236.5 C460.932,236.5 453.993,236.5 451.158,236.5 " fill="none" id="mastermind.controllers.Logic-mastermind.controllers.AcceptorController" style="stroke:#A80036;stroke-width:1.0;"/><polygon fill="#A80036" points="438.094,236.5,447.094,240.5,443.094,236.5,447.094,232.5,438.094,236.5" style="stroke:#A80036;stroke-width:1.0;"/><line style="stroke:#A80036;stroke-width:1.0;" x1="443.094" x2="451.094" y1="236.5" y2="236.5"/><polygon fill="#A80036" points="472.932,236.5,466.932,232.5,460.932,236.5,466.932,240.5,472.932,236.5" style="stroke:#A80036;stroke-width:1.0;"/><!--MD5=[f53f2eb633d5eab520284951d0e55c5c]
reverse link mastermind.controllers.AcceptorController to mastermind.controllers.PlayController--><path codeLine="67" d="M344.15,286.752 C333.82,338.398 317.174,421.631 303.165,491.677 " fill="none" id="mastermind.controllers.AcceptorController-backto-mastermind.controllers.PlayController" style="stroke:#A80036;stroke-width:1.0;"/><polygon fill="none" points="337.313,285.241,348.1,267.002,351.041,287.986,337.313,285.241" style="stroke:#A80036;stroke-width:1.0;"/><!--MD5=[82998fd0579a5521feb908ee165bdb8d]
link mastermind.controllers.PlayController to mastermind.controllers.RedoController--><path codeLine="68" d="M422.6018,738.6251 C422.6018,738.6251 428.511,743.126 431,745 C468.524,773.252 479.783,777.693 518,805 C528.853,812.755 540.29,821.075 551.397,829.237 " fill="none" id="mastermind.controllers.PlayController-mastermind.controllers.RedoController" style="stroke:#A80036;stroke-width:1.0;"/><polygon fill="#A80036" points="561.916,836.989,557.044,828.4296,557.891,834.0227,552.2979,834.8697,561.916,836.989" style="stroke:#A80036;stroke-width:1.0;"/><line style="stroke:#A80036;stroke-width:1.0;" x1="557.891" x2="551.4505" y1="834.0227" y2="829.276"/><polygon fill="#A80036" points="413.09,731.309,415.4072,738.1377,422.6018,738.6251,420.2846,731.7965,413.09,731.309" style="stroke:#A80036;stroke-width:1.0;"/><!--MD5=[d53c922c01447e927c714150f57bf8b9]
link mastermind.controllers.PlayController to mastermind.controllers.UndoController--><path codeLine="69" d="M192.2314,755.2131 C192.2314,755.2131 160.596,805.27 147.71,825.66 " fill="none" id="mastermind.controllers.PlayController-mastermind.controllers.UndoController" style="stroke:#A80036;stroke-width:1.0;"/><polygon fill="#A80036" points="140.623,836.874,148.8124,831.4028,143.2941,832.6473,142.0496,827.129,140.623,836.874" style="stroke:#A80036;stroke-width:1.0;"/><line style="stroke:#A80036;stroke-width:1.0;" x1="143.2941" x2="147.568" y1="832.6473" y2="825.8845"/><polygon fill="#A80036" points="198.642,745.069,192.0553,748.0042,192.2314,755.2131,198.8181,752.278,198.642,745.069" style="stroke:#A80036;stroke-width:1.0;"/><!--MD5=[1abd118ebf2047837f8d2b4a2ccb1367]
link mastermind.controllers.PlayController to mastermind.controllers.ProposalController--><path codeLine="70" d="M324.4364,756.4331 C324.4364,756.4331 332.791,781.071 336.603,792.312 " fill="none" id="mastermind.controllers.PlayController-mastermind.controllers.ProposalController" style="stroke:#A80036;stroke-width:1.0;"/><polygon fill="#A80036" points="340.829,804.775,341.7262,794.9671,339.223,800.0399,334.1501,797.5367,340.829,804.775" style="stroke:#A80036;stroke-width:1.0;"/><line style="stroke:#A80036;stroke-width:1.0;" x1="339.223" x2="336.654" y1="800.0399" y2="792.4635"/><polygon fill="#A80036" points="320.582,745.069,318.7212,752.0359,324.4364,756.4331,326.2973,749.4663,320.582,745.069" style="stroke:#A80036;stroke-width:1.0;"/><!--MD5=[3d4274d8ff67499fd7f63e16d2078a12]
link mastermind.controllers.PlayController to Session--><path codeLine="71" d="M413.236,736.265 C419.096,739.438 425.026,742.37 431,745 C602.768,820.632 669.509,750.159 849,805 C887.437,816.744 928.287,836.941 958.1,853.27 " fill="none" id="mastermind.controllers.PlayController-to-Session" style="stroke:#A80036;stroke-width:1.0;stroke-dasharray:7.0,7.0;"/><polygon fill="#A80036" points="962.788,855.856,956.8411,848.0052,958.4104,853.44,952.9756,855.0093,962.788,855.856" style="stroke:#A80036;stroke-width:1.0;"/><!--MD5=[dba634500bd5c2a040691ba35908d8cd]
reverse link mastermind.controllers.Controller to mastermind.controllers.ProposalController--><path codeLine="83" d="M97.873,147.367 C77.9711,292.208 37.1238,646.5 98,745 C100.158,748.492 165.368,781.13 230.915,813.317 " fill="none" id="mastermind.controllers.Controller-backto-mastermind.controllers.ProposalController" style="stroke:#A80036;stroke-width:1.0;"/><polygon fill="none" points="90.9943,146.012,100.699,127.176,104.859,147.953,90.9943,146.012" style="stroke:#A80036;stroke-width:1.0;"/><!--MD5=[36addd039d338152d255515099c0ada9]
reverse link mastermind.controllers.Controller to mastermind.controllers.RedoController--><path codeLine="90" d="M104.239,147.667 C97.9779,303.829 86.0997,700.94 125,745 C241.942,877.454 354.867,737.124 518,805 C536.744,812.799 555.206,824.848 571.065,836.974 " fill="none" id="mastermind.controllers.Controller-backto-mastermind.controllers.RedoController" style="stroke:#A80036;stroke-width:1.0;"/><polygon fill="none" points="97.2606,146.987,105.079,127.293,111.249,147.564,97.2606,146.987" style="stroke:#A80036;stroke-width:1.0;"/><!--MD5=[0acc21ac5cbf9261cd97baaa36eef655]
reverse link mastermind.controllers.AcceptorController to mastermind.controllers.ResumeController--><path codeLine="97" d="M362.871,287.189 C371.216,327.517 385.787,385.164 408,432 C433.173,485.078 473.42,539.21 502.667,575.188 " fill="none" id="mastermind.controllers.AcceptorController-backto-mastermind.controllers.ResumeController" style="stroke:#A80036;stroke-width:1.0;"/><polygon fill="none" points="355.948,288.261,358.967,267.287,369.686,285.566,355.948,288.261" style="stroke:#A80036;stroke-width:1.0;"/><!--MD5=[e1bf8ee703f48f67d7dce454a0000df4]
link mastermind.controllers.ResumeController to Session--><path codeLine="98" d="M565.884,661.771 C585.335,689.163 613.94,723.601 647,745 C725.621,795.891 761.67,771.167 849,805 C885.171,819.013 924.542,838.149 954.286,853.451 " fill="none" id="mastermind.controllers.ResumeController-to-Session" style="stroke:#A80036;stroke-width:1.0;stroke-dasharray:7.0,7.0;"/><polygon fill="#A80036" points="958.975,855.873,952.8146,848.1886,954.5327,853.5783,949.143,855.2963,958.975,855.873" style="stroke:#A80036;stroke-width:1.0;"/><!--MD5=[290eae146a79928a85056168206e9b36]
reverse link mastermind.controllers.AcceptorController to mastermind.controllers.StartController--><path codeLine="105" d="M432.301,275.668 C439.943,279.222 447.603,282.718 455,286 C519.502,314.619 549.465,298.887 602,346 C673.23,409.878 716.596,516.674 736.325,575.481 " fill="none" id="mastermind.controllers.AcceptorController-backto-mastermind.controllers.StartController" style="stroke:#A80036;stroke-width:1.0;"/><polygon fill="none" points="429.181,281.936,414.074,267.078,435.15,269.272,429.181,281.936" style="stroke:#A80036;stroke-width:1.0;"/><!--MD5=[b8ea6d6388a57036ab4a8f0735e658e9]
link mastermind.controllers.StartController to Session--><path codeLine="106" d="M784.578,661.611 C805.917,686.386 833.899,718.043 860,745 C897.459,783.687 943.112,825.963 972.363,852.474 " fill="none" id="mastermind.controllers.StartController-to-Session" style="stroke:#A80036;stroke-width:1.0;stroke-dasharray:7.0,7.0;"/><polygon fill="#A80036" points="976.201,855.948,972.2111,846.9435,972.4934,852.5933,966.8436,852.8756,976.201,855.948" style="stroke:#A80036;stroke-width:1.0;"/><!--MD5=[59d1279ce7ce3d0c0ab57162d8ddb037]
reverse link mastermind.controllers.Controller to mastermind.controllers.UndoController--><path codeLine="113" d="M74.5573,145.834 C68.9431,159.056 63.9637,173.219 61,187 C8.8571,429.456 14.5722,501.385 61,745 C67.0885,776.948 80.6607,811.004 92.5459,836.788 " fill="none" id="mastermind.controllers.Controller-backto-mastermind.controllers.UndoController" style="stroke:#A80036;stroke-width:1.0;"/><polygon fill="none" points="68.3662,142.542,83.0762,127.29,81.0881,148.386,68.3662,142.542" style="stroke:#A80036;stroke-width:1.0;"/><!--MD5=[93e54cbc121cd796203d9a41c2da5b0b]
@startuml
class Map as "java.util.Map" {


}
class Session as "usantatecla.mastermind.models.Session" {


}
class StateValue as "usantatecla.mastermind.models.StateValue" {


}
interface  mastermind.controllers.AcceptorController{
+ accept(ControllersVisitor)
}
mastermind.controllers.Controller <|-down- mastermind.controllers.AcceptorController
mastermind.controllers.AcceptorController ..> mastermind.controllers.ControllersVisitor

class  mastermind.controllers.Controller{
# session: Session
~ Controller(Session)
+ getWidth(): int
}
mastermind.controllers.Controller -down-> Session


interface  mastermind.controllers.ControllersVisitor{
~ visit(StartController)
~ visit(PlayController)
~ visit(ResumeController)
}
mastermind.controllers.ControllersVisitor ..> mastermind.controllers.ResumeController
mastermind.controllers.ControllersVisitor ..> mastermind.controllers.StartController
mastermind.controllers.ControllersVisitor ..> mastermind.controllers.PlayController

class  mastermind.controllers.Logic{
- session: Session
- acceptorControllers: Map<StateValue, AcceptorController>
+ Logic()
+ getController(): AcceptorController
}

mastermind.controllers.Logic *-down-> Session
mastermind.controllers.Logic *-down-> StateValue
mastermind.controllers.Logic *-down-> Map

mastermind.controllers.Logic *-> mastermind.controllers.AcceptorController

class  mastermind.controllers.PlayController{
- proposalController: ProposalController
- undoController: UndoController
- redoController: RedoController
+ PlayController(Session)
+ accept(ControllersVisitor)
+ addProposeCombination(List<Color>): Error
+ undoable(): boolean
+ redoable(): boolean
+ undo()
+ isLooser(): boolean
+ redo()
+ isWinner(): boolean
+ getAttempts(): int
+ getColors(int): List<Color>
+ getBlacks(int): int
+ getWhites(int): int
}
mastermind.controllers.AcceptorController <|-down- mastermind.controllers.PlayController
mastermind.controllers.PlayController *-down-> mastermind.controllers.RedoController
mastermind.controllers.PlayController *-down-> mastermind.controllers.UndoController
mastermind.controllers.PlayController *-down-> mastermind.controllers.ProposalController
mastermind.controllers.PlayController ..> Session

class  mastermind.controllers.ProposalController{
~ ProposalController(Session)
~ addProposeCombination(List<Color>): Error
~ isLooser(): boolean
~ isWinner(): boolean
~ getAttempts(): int
~ getColors(int): List<Color>
~ getBlacks(int): int
~ getWhites(int): int
}
mastermind.controllers.Controller <|-down- mastermind.controllers.ProposalController

class  mastermind.controllers.RedoController{
~ RedoController(Session)
~ redoable(): boolean
~ redo()
}
mastermind.controllers.Controller <|-down- mastermind.controllers.RedoController

class  mastermind.controllers.ResumeController{
+ ResumeController(Session)
+ accept(ControllersVisitor)
+ resume(boolean)
}
mastermind.controllers.AcceptorController <|-down- mastermind.controllers.ResumeController
mastermind.controllers.ResumeController ..> Session

class  mastermind.controllers.StartController{
+ StartController(Session)
+ accept(ControllersVisitor)
+ start()
}
mastermind.controllers.AcceptorController <|-down- mastermind.controllers.StartController
mastermind.controllers.StartController ..> Session

class  mastermind.controllers.UndoController{
~ UndoController(Session)
~ undoable(): boolean
~ undo()
}
mastermind.controllers.Controller <|-down- mastermind.controllers.UndoController
@enduml

PlantUML version 1.2020.23beta3(Unknown compile time)
(GPL source distribution)
Java Runtime: Java(TM) SE Runtime Environment
JVM: Java HotSpot(TM) 64-Bit Server VM
Default Encoding: UTF-8
Language: en
Country: US
--></g></svg>