<?xml version="1.0" encoding="UTF-8" standalone="no"?><svg xmlns="http://www.w3.org/2000/svg" xmlns:xlink="http://www.w3.org/1999/xlink" contentScriptType="application/ecmascript" contentStyleType="text/css" height="1014px" preserveAspectRatio="none" style="width:1266px;height:1014px;" version="1.1" viewBox="0 0 1266 1014" width="1266px" zoomAndPan="magnify"><defs><filter height="300%" id="f13wwrjg6m5a7g" width="300%" x="-1" y="-1"><feGaussianBlur result="blurOut" stdDeviation="2.0"/><feColorMatrix in="blurOut" result="blurOut2" type="matrix" values="0 0 0 0 0 0 0 0 0 0 0 0 0 0 0 0 0 0 .4 0"/><feOffset dx="4.0" dy="4.0" in="blurOut2" result="blurOut3"/><feBlend in="SourceGraphic" in2="blurOut3" mode="normal"/></filter></defs><g><!--MD5=[45607799a901819e6cc4b6d8cd00ce6c]
cluster usantatecla.mastermind.controllers--><polygon fill="#FFFFFF" filter="url(#f13wwrjg6m5a7g)" points="186.5,6,487.5,6,494.5,28.2969,1019.5,28.2969,1019.5,889,186.5,889,186.5,6" style="stroke:#000000;stroke-width:1.5;"/><line style="stroke:#000000;stroke-width:1.5;" x1="186.5" x2="494.5" y1="28.2969" y2="28.2969"/><text fill="#000000" font-family="sans-serif" font-size="14" font-weight="bold" lengthAdjust="spacingAndGlyphs" textLength="295" x="190.5" y="20.9951">usantatecla.mastermind.controllers</text><!--MD5=[dc742e7f47788fccadc22474665bada4]
class usantatecla.mastermind.controllers.AcceptorController--><rect codeLine="7" fill="#FEFECE" filter="url(#f13wwrjg6m5a7g)" height="60.8047" id="usantatecla.mastermind.controllers.AcceptorController" style="stroke:#A80036;stroke-width:1.5;" width="168" x="718.5" y="178.5"/><ellipse cx="744.3" cy="194.5" fill="#B4A7E5" rx="11" ry="11" style="stroke:#A80036;stroke-width:1.0;"/><path d="M745.2531,191.2813 L746.9719,191.2813 C747.3625,191.2813 747.55,191.25 747.675,191.1719 C747.9406,191.0156 748.0813,190.7344 748.0813,190.4375 C748.0813,190.1719 747.9719,189.9063 747.7375,189.7344 C747.5656,189.625 747.425,189.5938 746.9719,189.5938 L741.8313,189.5938 C741.3938,189.5938 741.2688,189.6094 741.1125,189.7031 C740.8625,189.8594 740.7063,190.1563 740.7063,190.4375 C740.7063,190.7188 740.8469,190.9688 741.0656,191.1406 C741.2219,191.25 741.4094,191.2813 741.8313,191.2813 L743.55,191.2813 L743.55,197.7969 L741.8313,197.7969 C741.3938,197.7969 741.2688,197.8125 741.1125,197.9219 C740.8625,198.0781 740.7063,198.3594 740.7063,198.6563 C740.7063,198.9063 740.8469,199.1719 741.0656,199.3281 C741.2219,199.4531 741.425,199.5 741.8313,199.5 L746.9719,199.5 C747.7219,199.5 748.0813,199.2188 748.0813,198.6563 C748.0813,198.375 747.9719,198.125 747.7375,197.9531 C747.5656,197.8281 747.425,197.7969 746.9719,197.7969 L745.2531,197.7969 L745.2531,191.2813 Z " fill="#000000"/><text fill="#000000" font-family="sans-serif" font-size="12" font-style="italic" lengthAdjust="spacingAndGlyphs" textLength="112" x="760.7" y="198.6543">AcceptorController</text><line style="stroke:#A80036;stroke-width:1.5;" x1="719.5" x2="885.5" y1="210.5" y2="210.5"/><line style="stroke:#A80036;stroke-width:1.5;" x1="719.5" x2="885.5" y1="218.5" y2="218.5"/><ellipse cx="729.5" cy="229.5" fill="#84BE84" rx="3" ry="3" style="stroke:#038048;stroke-width:1.0;"/><text fill="#000000" font-family="sans-serif" font-size="11" lengthAdjust="spacingAndGlyphs" textLength="142" x="738.5" y="232.7104">accept(ControllersVisitor)</text><!--MD5=[877f7580c8bbbe21e5afc74b6ea1e072]
class usantatecla.mastermind.controllers.ControllersVisitor--><rect codeLine="18" fill="#FEFECE" filter="url(#f13wwrjg6m5a7g)" height="86.4141" id="usantatecla.mastermind.controllers.ControllersVisitor" style="stroke:#A80036;stroke-width:1.5;" width="159" x="723" y="303"/><ellipse cx="749.7" cy="319" fill="#B4A7E5" rx="11" ry="11" style="stroke:#A80036;stroke-width:1.0;"/><path d="M750.6531,315.7813 L752.3719,315.7813 C752.7625,315.7813 752.95,315.75 753.075,315.6719 C753.3406,315.5156 753.4813,315.2344 753.4813,314.9375 C753.4813,314.6719 753.3719,314.4063 753.1375,314.2344 C752.9656,314.125 752.825,314.0938 752.3719,314.0938 L747.2313,314.0938 C746.7938,314.0938 746.6688,314.1094 746.5125,314.2031 C746.2625,314.3594 746.1063,314.6563 746.1063,314.9375 C746.1063,315.2188 746.2469,315.4688 746.4656,315.6406 C746.6219,315.75 746.8094,315.7813 747.2313,315.7813 L748.95,315.7813 L748.95,322.2969 L747.2313,322.2969 C746.7938,322.2969 746.6688,322.3125 746.5125,322.4219 C746.2625,322.5781 746.1063,322.8594 746.1063,323.1563 C746.1063,323.4063 746.2469,323.6719 746.4656,323.8281 C746.6219,323.9531 746.825,324 747.2313,324 L752.3719,324 C753.1219,324 753.4813,323.7188 753.4813,323.1563 C753.4813,322.875 753.3719,322.625 753.1375,322.4531 C752.9656,322.3281 752.825,322.2969 752.3719,322.2969 L750.6531,322.2969 L750.6531,315.7813 Z " fill="#000000"/><text fill="#000000" font-family="sans-serif" font-size="12" font-style="italic" lengthAdjust="spacingAndGlyphs" textLength="101" x="766.3" y="323.1543">ControllersVisitor</text><line style="stroke:#A80036;stroke-width:1.5;" x1="724" x2="881" y1="335" y2="335"/><line style="stroke:#A80036;stroke-width:1.5;" x1="724" x2="881" y1="343" y2="343"/><polygon fill="#4177AF" points="734,350,730,356,738,356" style="stroke:#1963A0;stroke-width:1.0;"/><text fill="#000000" font-family="sans-serif" font-size="11" lengthAdjust="spacingAndGlyphs" textLength="113" x="743" y="357.2104">visit(StartController)</text><polygon fill="#4177AF" points="734,362.8047,730,368.8047,738,368.8047" style="stroke:#1963A0;stroke-width:1.0;"/><text fill="#000000" font-family="sans-serif" font-size="11" lengthAdjust="spacingAndGlyphs" textLength="109" x="743" y="370.0151">visit(PlayController)</text><polygon fill="#4177AF" points="734,375.6094,730,381.6094,738,381.6094" style="stroke:#1963A0;stroke-width:1.0;"/><text fill="#000000" font-family="sans-serif" font-size="11" lengthAdjust="spacingAndGlyphs" textLength="133" x="743" y="382.8198">visit(ResumeController)</text><!--MD5=[e0d21a3c8ca66756a771586930837509]
class usantatecla.mastermind.controllers.Controller--><rect codeLine="12" fill="#FEFECE" filter="url(#f13wwrjg6m5a7g)" height="73.6094" id="usantatecla.mastermind.controllers.Controller" style="stroke:#A80036;stroke-width:1.5;" width="134" x="515.5" y="309"/><ellipse cx="549.85" cy="325" fill="#ADD1B2" rx="11" ry="11" style="stroke:#A80036;stroke-width:1.0;"/><path d="M552.1938,320.6719 C551.2563,320.2344 550.6625,320.0938 549.7875,320.0938 C547.1625,320.0938 545.1625,322.1719 545.1625,324.8906 L545.1625,326.0156 C545.1625,328.5938 547.2719,330.4844 550.1625,330.4844 C551.3813,330.4844 552.5375,330.1875 553.2875,329.6406 C553.8656,329.2344 554.1938,328.7813 554.1938,328.3906 C554.1938,327.9375 553.8031,327.5469 553.3344,327.5469 C553.1156,327.5469 552.9125,327.625 552.725,327.8125 C552.2719,328.2969 552.2719,328.2969 552.0844,328.3906 C551.6625,328.6563 550.975,328.7813 550.2094,328.7813 C548.1625,328.7813 546.8656,327.6875 546.8656,325.9844 L546.8656,324.8906 C546.8656,323.1094 548.1156,321.7969 549.85,321.7969 C550.4281,321.7969 551.0375,321.9531 551.5063,322.2031 C551.9906,322.4844 552.1625,322.7031 552.2563,323.1094 C552.3188,323.5156 552.35,323.6406 552.4906,323.7656 C552.6313,323.9063 552.8656,324.0156 553.0844,324.0156 C553.35,324.0156 553.6156,323.875 553.7875,323.6563 C553.8969,323.5 553.9281,323.3125 553.9281,322.8906 L553.9281,321.4688 C553.9281,321.0313 553.9125,320.9063 553.8188,320.75 C553.6625,320.4844 553.3813,320.3438 553.0844,320.3438 C552.7875,320.3438 552.5844,320.4375 552.3656,320.75 L552.1938,320.6719 Z " fill="#000000"/><text fill="#000000" font-family="sans-serif" font-size="12" lengthAdjust="spacingAndGlyphs" textLength="59" x="568.15" y="329.1543">Controller</text><line style="stroke:#A80036;stroke-width:1.5;" x1="516.5" x2="648.5" y1="341" y2="341"/><line style="stroke:#A80036;stroke-width:1.5;" x1="516.5" x2="648.5" y1="349" y2="349"/><polygon fill="#4177AF" points="526.5,356,522.5,362,530.5,362" style="stroke:#1963A0;stroke-width:1.0;"/><text fill="#000000" font-family="sans-serif" font-size="11" lengthAdjust="spacingAndGlyphs" textLength="108" x="535.5" y="363.2104">Controller(Session)</text><ellipse cx="526.5" cy="372.8047" fill="#84BE84" rx="3" ry="3" style="stroke:#038048;stroke-width:1.0;"/><text fill="#000000" font-family="sans-serif" font-size="11" lengthAdjust="spacingAndGlyphs" textLength="80" x="535.5" y="376.0151">getWidth(): int</text><!--MD5=[c20948aa6f904689435480ad9a30530a]
class usantatecla.mastermind.controllers.StartController--><rect codeLine="94" fill="#FEFECE" filter="url(#f13wwrjg6m5a7g)" height="86.4141" id="usantatecla.mastermind.controllers.StartController" style="stroke:#A80036;stroke-width:1.5;" width="168" x="835.5" y="513"/><ellipse cx="872.55" cy="529" fill="#ADD1B2" rx="11" ry="11" style="stroke:#A80036;stroke-width:1.0;"/><path d="M874.8938,524.6719 C873.9563,524.2344 873.3625,524.0938 872.4875,524.0938 C869.8625,524.0938 867.8625,526.1719 867.8625,528.8906 L867.8625,530.0156 C867.8625,532.5938 869.9719,534.4844 872.8625,534.4844 C874.0813,534.4844 875.2375,534.1875 875.9875,533.6406 C876.5656,533.2344 876.8938,532.7813 876.8938,532.3906 C876.8938,531.9375 876.5031,531.5469 876.0344,531.5469 C875.8156,531.5469 875.6125,531.625 875.425,531.8125 C874.9719,532.2969 874.9719,532.2969 874.7844,532.3906 C874.3625,532.6563 873.675,532.7813 872.9094,532.7813 C870.8625,532.7813 869.5656,531.6875 869.5656,529.9844 L869.5656,528.8906 C869.5656,527.1094 870.8156,525.7969 872.55,525.7969 C873.1281,525.7969 873.7375,525.9531 874.2063,526.2031 C874.6906,526.4844 874.8625,526.7031 874.9563,527.1094 C875.0188,527.5156 875.05,527.6406 875.1906,527.7656 C875.3313,527.9063 875.5656,528.0156 875.7844,528.0156 C876.05,528.0156 876.3156,527.875 876.4875,527.6563 C876.5969,527.5 876.6281,527.3125 876.6281,526.8906 L876.6281,525.4688 C876.6281,525.0313 876.6125,524.9063 876.5188,524.75 C876.3625,524.4844 876.0813,524.3438 875.7844,524.3438 C875.4875,524.3438 875.2844,524.4375 875.0656,524.75 L874.8938,524.6719 Z " fill="#000000"/><text fill="#000000" font-family="sans-serif" font-size="12" lengthAdjust="spacingAndGlyphs" textLength="87" x="891.45" y="533.1543">StartController</text><line style="stroke:#A80036;stroke-width:1.5;" x1="836.5" x2="1002.5" y1="545" y2="545"/><line style="stroke:#A80036;stroke-width:1.5;" x1="836.5" x2="1002.5" y1="553" y2="553"/><ellipse cx="846.5" cy="564" fill="#84BE84" rx="3" ry="3" style="stroke:#038048;stroke-width:1.0;"/><text fill="#000000" font-family="sans-serif" font-size="11" lengthAdjust="spacingAndGlyphs" textLength="135" x="855.5" y="567.2104">StartController(Session)</text><ellipse cx="846.5" cy="576.8047" fill="#84BE84" rx="3" ry="3" style="stroke:#038048;stroke-width:1.0;"/><text fill="#000000" font-family="sans-serif" font-size="11" lengthAdjust="spacingAndGlyphs" textLength="33" x="855.5" y="580.0151">start()</text><ellipse cx="846.5" cy="589.6094" fill="#84BE84" rx="3" ry="3" style="stroke:#038048;stroke-width:1.0;"/><text fill="#000000" font-family="sans-serif" font-size="11" lengthAdjust="spacingAndGlyphs" textLength="142" x="855.5" y="592.8198">accept(ControllersVisitor)</text><!--MD5=[889d323ee88e76c035a2f6f92d120af6]
class usantatecla.mastermind.controllers.PlayController--><rect codeLine="35" fill="#FEFECE" filter="url(#f13wwrjg6m5a7g)" height="214.4609" id="usantatecla.mastermind.controllers.PlayController" style="stroke:#A80036;stroke-width:1.5;" width="270" x="239.5" y="449"/><ellipse cx="329.25" cy="465" fill="#ADD1B2" rx="11" ry="11" style="stroke:#A80036;stroke-width:1.0;"/><path d="M331.5938,460.6719 C330.6563,460.2344 330.0625,460.0938 329.1875,460.0938 C326.5625,460.0938 324.5625,462.1719 324.5625,464.8906 L324.5625,466.0156 C324.5625,468.5938 326.6719,470.4844 329.5625,470.4844 C330.7813,470.4844 331.9375,470.1875 332.6875,469.6406 C333.2656,469.2344 333.5938,468.7813 333.5938,468.3906 C333.5938,467.9375 333.2031,467.5469 332.7344,467.5469 C332.5156,467.5469 332.3125,467.625 332.125,467.8125 C331.6719,468.2969 331.6719,468.2969 331.4844,468.3906 C331.0625,468.6563 330.375,468.7813 329.6094,468.7813 C327.5625,468.7813 326.2656,467.6875 326.2656,465.9844 L326.2656,464.8906 C326.2656,463.1094 327.5156,461.7969 329.25,461.7969 C329.8281,461.7969 330.4375,461.9531 330.9063,462.2031 C331.3906,462.4844 331.5625,462.7031 331.6563,463.1094 C331.7188,463.5156 331.75,463.6406 331.8906,463.7656 C332.0313,463.9063 332.2656,464.0156 332.4844,464.0156 C332.75,464.0156 333.0156,463.875 333.1875,463.6563 C333.2969,463.5 333.3281,463.3125 333.3281,462.8906 L333.3281,461.4688 C333.3281,461.0313 333.3125,460.9063 333.2188,460.75 C333.0625,460.4844 332.7813,460.3438 332.4844,460.3438 C332.1875,460.3438 331.9844,460.4375 331.7656,460.75 L331.5938,460.6719 Z " fill="#000000"/><text fill="#000000" font-family="sans-serif" font-size="12" lengthAdjust="spacingAndGlyphs" textLength="82" x="349.75" y="469.1543">PlayController</text><line style="stroke:#A80036;stroke-width:1.5;" x1="240.5" x2="508.5" y1="481" y2="481"/><line style="stroke:#A80036;stroke-width:1.5;" x1="240.5" x2="508.5" y1="489" y2="489"/><ellipse cx="250.5" cy="500" fill="#84BE84" rx="3" ry="3" style="stroke:#038048;stroke-width:1.0;"/><text fill="#000000" font-family="sans-serif" font-size="11" lengthAdjust="spacingAndGlyphs" textLength="131" x="259.5" y="503.2104">PlayController(Session)</text><ellipse cx="250.5" cy="512.8047" fill="#84BE84" rx="3" ry="3" style="stroke:#038048;stroke-width:1.0;"/><text fill="#000000" font-family="sans-serif" font-size="11" lengthAdjust="spacingAndGlyphs" textLength="244" x="259.5" y="516.0151">addProposeCombination(List&lt;Color&gt;): Error</text><ellipse cx="250.5" cy="525.6094" fill="#84BE84" rx="3" ry="3" style="stroke:#038048;stroke-width:1.0;"/><text fill="#000000" font-family="sans-serif" font-size="11" lengthAdjust="spacingAndGlyphs" textLength="36" x="259.5" y="528.8198">undo()</text><ellipse cx="250.5" cy="538.4141" fill="#84BE84" rx="3" ry="3" style="stroke:#038048;stroke-width:1.0;"/><text fill="#000000" font-family="sans-serif" font-size="11" lengthAdjust="spacingAndGlyphs" textLength="34" x="259.5" y="541.6245">redo()</text><ellipse cx="250.5" cy="551.2188" fill="#84BE84" rx="3" ry="3" style="stroke:#038048;stroke-width:1.0;"/><text fill="#000000" font-family="sans-serif" font-size="11" lengthAdjust="spacingAndGlyphs" textLength="114" x="259.5" y="554.4292">undoable(): boolean</text><ellipse cx="250.5" cy="564.0234" fill="#84BE84" rx="3" ry="3" style="stroke:#038048;stroke-width:1.0;"/><text fill="#000000" font-family="sans-serif" font-size="11" lengthAdjust="spacingAndGlyphs" textLength="112" x="259.5" y="567.2339">redoable(): boolean</text><ellipse cx="250.5" cy="576.8281" fill="#84BE84" rx="3" ry="3" style="stroke:#038048;stroke-width:1.0;"/><text fill="#000000" font-family="sans-serif" font-size="11" lengthAdjust="spacingAndGlyphs" textLength="110" x="259.5" y="580.0386">isWinner(): boolean</text><ellipse cx="250.5" cy="589.6328" fill="#84BE84" rx="3" ry="3" style="stroke:#038048;stroke-width:1.0;"/><text fill="#000000" font-family="sans-serif" font-size="11" lengthAdjust="spacingAndGlyphs" textLength="108" x="259.5" y="592.8433">isLooser(): boolean</text><ellipse cx="250.5" cy="602.4375" fill="#84BE84" rx="3" ry="3" style="stroke:#038048;stroke-width:1.0;"/><text fill="#000000" font-family="sans-serif" font-size="11" lengthAdjust="spacingAndGlyphs" textLength="100" x="259.5" y="605.6479">getAttempts(): int</text><ellipse cx="250.5" cy="615.2422" fill="#84BE84" rx="3" ry="3" style="stroke:#038048;stroke-width:1.0;"/><text fill="#000000" font-family="sans-serif" font-size="11" lengthAdjust="spacingAndGlyphs" textLength="149" x="259.5" y="618.4526">getColors(int): List&lt;Color&gt;</text><ellipse cx="250.5" cy="628.0469" fill="#84BE84" rx="3" ry="3" style="stroke:#038048;stroke-width:1.0;"/><text fill="#000000" font-family="sans-serif" font-size="11" lengthAdjust="spacingAndGlyphs" textLength="98" x="259.5" y="631.2573">getBlacks(int): int</text><ellipse cx="250.5" cy="640.8516" fill="#84BE84" rx="3" ry="3" style="stroke:#038048;stroke-width:1.0;"/><text fill="#000000" font-family="sans-serif" font-size="11" lengthAdjust="spacingAndGlyphs" textLength="101" x="259.5" y="644.062">getWhites(int): int</text><ellipse cx="250.5" cy="653.6563" fill="#84BE84" rx="3" ry="3" style="stroke:#038048;stroke-width:1.0;"/><text fill="#000000" font-family="sans-serif" font-size="11" lengthAdjust="spacingAndGlyphs" textLength="142" x="259.5" y="656.8667">accept(ControllersVisitor)</text><!--MD5=[ba414607f34a8f1ff5e5377db4b3dfd8]
class usantatecla.mastermind.controllers.ResumeController--><rect codeLine="84" fill="#FEFECE" filter="url(#f13wwrjg6m5a7g)" height="86.4141" id="usantatecla.mastermind.controllers.ResumeController" style="stroke:#A80036;stroke-width:1.5;" width="181" x="619" y="513"/><ellipse cx="652.9" cy="529" fill="#ADD1B2" rx="11" ry="11" style="stroke:#A80036;stroke-width:1.0;"/><path d="M655.2438,524.6719 C654.3063,524.2344 653.7125,524.0938 652.8375,524.0938 C650.2125,524.0938 648.2125,526.1719 648.2125,528.8906 L648.2125,530.0156 C648.2125,532.5938 650.3219,534.4844 653.2125,534.4844 C654.4313,534.4844 655.5875,534.1875 656.3375,533.6406 C656.9156,533.2344 657.2438,532.7813 657.2438,532.3906 C657.2438,531.9375 656.8531,531.5469 656.3844,531.5469 C656.1656,531.5469 655.9625,531.625 655.775,531.8125 C655.3219,532.2969 655.3219,532.2969 655.1344,532.3906 C654.7125,532.6563 654.025,532.7813 653.2594,532.7813 C651.2125,532.7813 649.9156,531.6875 649.9156,529.9844 L649.9156,528.8906 C649.9156,527.1094 651.1656,525.7969 652.9,525.7969 C653.4781,525.7969 654.0875,525.9531 654.5563,526.2031 C655.0406,526.4844 655.2125,526.7031 655.3063,527.1094 C655.3688,527.5156 655.4,527.6406 655.5406,527.7656 C655.6813,527.9063 655.9156,528.0156 656.1344,528.0156 C656.4,528.0156 656.6656,527.875 656.8375,527.6563 C656.9469,527.5 656.9781,527.3125 656.9781,526.8906 L656.9781,525.4688 C656.9781,525.0313 656.9625,524.9063 656.8688,524.75 C656.7125,524.4844 656.4313,524.3438 656.1344,524.3438 C655.8375,524.3438 655.6344,524.4375 655.4156,524.75 L655.2438,524.6719 Z " fill="#000000"/><text fill="#000000" font-family="sans-serif" font-size="12" lengthAdjust="spacingAndGlyphs" textLength="107" x="671.1" y="533.1543">ResumeController</text><line style="stroke:#A80036;stroke-width:1.5;" x1="620" x2="799" y1="545" y2="545"/><line style="stroke:#A80036;stroke-width:1.5;" x1="620" x2="799" y1="553" y2="553"/><ellipse cx="630" cy="564" fill="#84BE84" rx="3" ry="3" style="stroke:#038048;stroke-width:1.0;"/><text fill="#000000" font-family="sans-serif" font-size="11" lengthAdjust="spacingAndGlyphs" textLength="155" x="639" y="567.2104">ResumeController(Session)</text><ellipse cx="630" cy="576.8047" fill="#84BE84" rx="3" ry="3" style="stroke:#038048;stroke-width:1.0;"/><text fill="#000000" font-family="sans-serif" font-size="11" lengthAdjust="spacingAndGlyphs" textLength="98" x="639" y="580.0151">resume(boolean)</text><ellipse cx="630" cy="589.6094" fill="#84BE84" rx="3" ry="3" style="stroke:#038048;stroke-width:1.0;"/><text fill="#000000" font-family="sans-serif" font-size="11" lengthAdjust="spacingAndGlyphs" textLength="142" x="639" y="592.8198">accept(ControllersVisitor)</text><!--MD5=[94a6d75594c4867cc1b5bdf8bdcd38a2]
class usantatecla.mastermind.controllers.Logic--><rect codeLine="27" fill="#FEFECE" filter="url(#f13wwrjg6m5a7g)" height="73.6094" id="usantatecla.mastermind.controllers.Logic" style="stroke:#A80036;stroke-width:1.5;" width="220" x="783.5" y="41"/><ellipse cx="873.25" cy="57" fill="#ADD1B2" rx="11" ry="11" style="stroke:#A80036;stroke-width:1.0;"/><path d="M875.5938,52.6719 C874.6563,52.2344 874.0625,52.0938 873.1875,52.0938 C870.5625,52.0938 868.5625,54.1719 868.5625,56.8906 L868.5625,58.0156 C868.5625,60.5938 870.6719,62.4844 873.5625,62.4844 C874.7813,62.4844 875.9375,62.1875 876.6875,61.6406 C877.2656,61.2344 877.5938,60.7813 877.5938,60.3906 C877.5938,59.9375 877.2031,59.5469 876.7344,59.5469 C876.5156,59.5469 876.3125,59.625 876.125,59.8125 C875.6719,60.2969 875.6719,60.2969 875.4844,60.3906 C875.0625,60.6563 874.375,60.7813 873.6094,60.7813 C871.5625,60.7813 870.2656,59.6875 870.2656,57.9844 L870.2656,56.8906 C870.2656,55.1094 871.5156,53.7969 873.25,53.7969 C873.8281,53.7969 874.4375,53.9531 874.9063,54.2031 C875.3906,54.4844 875.5625,54.7031 875.6563,55.1094 C875.7188,55.5156 875.75,55.6406 875.8906,55.7656 C876.0313,55.9063 876.2656,56.0156 876.4844,56.0156 C876.75,56.0156 877.0156,55.875 877.1875,55.6563 C877.2969,55.5 877.3281,55.3125 877.3281,54.8906 L877.3281,53.4688 C877.3281,53.0313 877.3125,52.9063 877.2188,52.75 C877.0625,52.4844 876.7813,52.3438 876.4844,52.3438 C876.1875,52.3438 875.9844,52.4375 875.7656,52.75 L875.5938,52.6719 Z " fill="#000000"/><text fill="#000000" font-family="sans-serif" font-size="12" lengthAdjust="spacingAndGlyphs" textLength="32" x="893.75" y="61.1543">Logic</text><line style="stroke:#A80036;stroke-width:1.5;" x1="784.5" x2="1002.5" y1="73" y2="73"/><line style="stroke:#A80036;stroke-width:1.5;" x1="784.5" x2="1002.5" y1="81" y2="81"/><ellipse cx="794.5" cy="92" fill="#84BE84" rx="3" ry="3" style="stroke:#038048;stroke-width:1.0;"/><text fill="#000000" font-family="sans-serif" font-size="11" lengthAdjust="spacingAndGlyphs" textLength="37" x="803.5" y="95.2104">Logic()</text><ellipse cx="794.5" cy="104.8047" fill="#84BE84" rx="3" ry="3" style="stroke:#038048;stroke-width:1.0;"/><text fill="#000000" font-family="sans-serif" font-size="11" lengthAdjust="spacingAndGlyphs" textLength="194" x="803.5" y="108.0151">getController(): AcceptorController</text><!--MD5=[71ea1457370bc7d349149836b00bab29]
class usantatecla.mastermind.controllers.ProposalController--><rect codeLine="60" fill="#FEFECE" filter="url(#f13wwrjg6m5a7g)" height="150.4375" id="usantatecla.mastermind.controllers.ProposalController" style="stroke:#A80036;stroke-width:1.5;" width="270" x="202.5" y="723"/><ellipse cx="277.75" cy="739" fill="#ADD1B2" rx="11" ry="11" style="stroke:#A80036;stroke-width:1.0;"/><path d="M280.0938,734.6719 C279.1563,734.2344 278.5625,734.0938 277.6875,734.0938 C275.0625,734.0938 273.0625,736.1719 273.0625,738.8906 L273.0625,740.0156 C273.0625,742.5938 275.1719,744.4844 278.0625,744.4844 C279.2813,744.4844 280.4375,744.1875 281.1875,743.6406 C281.7656,743.2344 282.0938,742.7813 282.0938,742.3906 C282.0938,741.9375 281.7031,741.5469 281.2344,741.5469 C281.0156,741.5469 280.8125,741.625 280.625,741.8125 C280.1719,742.2969 280.1719,742.2969 279.9844,742.3906 C279.5625,742.6563 278.875,742.7813 278.1094,742.7813 C276.0625,742.7813 274.7656,741.6875 274.7656,739.9844 L274.7656,738.8906 C274.7656,737.1094 276.0156,735.7969 277.75,735.7969 C278.3281,735.7969 278.9375,735.9531 279.4063,736.2031 C279.8906,736.4844 280.0625,736.7031 280.1563,737.1094 C280.2188,737.5156 280.25,737.6406 280.3906,737.7656 C280.5313,737.9063 280.7656,738.0156 280.9844,738.0156 C281.25,738.0156 281.5156,737.875 281.6875,737.6563 C281.7969,737.5 281.8281,737.3125 281.8281,736.8906 L281.8281,735.4688 C281.8281,735.0313 281.8125,734.9063 281.7188,734.75 C281.5625,734.4844 281.2813,734.3438 280.9844,734.3438 C280.6875,734.3438 280.4844,734.4375 280.2656,734.75 L280.0938,734.6719 Z " fill="#000000"/><text fill="#000000" font-family="sans-serif" font-size="12" lengthAdjust="spacingAndGlyphs" textLength="111" x="298.25" y="743.1543">ProposalController</text><line style="stroke:#A80036;stroke-width:1.5;" x1="203.5" x2="471.5" y1="755" y2="755"/><line style="stroke:#A80036;stroke-width:1.5;" x1="203.5" x2="471.5" y1="763" y2="763"/><polygon fill="#4177AF" points="213.5,770,209.5,776,217.5,776" style="stroke:#1963A0;stroke-width:1.0;"/><text fill="#000000" font-family="sans-serif" font-size="11" lengthAdjust="spacingAndGlyphs" textLength="155" x="222.5" y="777.2104">ProposalController(Session)</text><polygon fill="#4177AF" points="213.5,782.8047,209.5,788.8047,217.5,788.8047" style="stroke:#1963A0;stroke-width:1.0;"/><text fill="#000000" font-family="sans-serif" font-size="11" lengthAdjust="spacingAndGlyphs" textLength="244" x="222.5" y="790.0151">addProposeCombination(List&lt;Color&gt;): Error</text><polygon fill="#4177AF" points="213.5,795.6094,209.5,801.6094,217.5,801.6094" style="stroke:#1963A0;stroke-width:1.0;"/><text fill="#000000" font-family="sans-serif" font-size="11" lengthAdjust="spacingAndGlyphs" textLength="110" x="222.5" y="802.8198">isWinner(): boolean</text><polygon fill="#4177AF" points="213.5,808.4141,209.5,814.4141,217.5,814.4141" style="stroke:#1963A0;stroke-width:1.0;"/><text fill="#000000" font-family="sans-serif" font-size="11" lengthAdjust="spacingAndGlyphs" textLength="108" x="222.5" y="815.6245">isLooser(): boolean</text><polygon fill="#4177AF" points="213.5,821.2188,209.5,827.2188,217.5,827.2188" style="stroke:#1963A0;stroke-width:1.0;"/><text fill="#000000" font-family="sans-serif" font-size="11" lengthAdjust="spacingAndGlyphs" textLength="100" x="222.5" y="828.4292">getAttempts(): int</text><polygon fill="#4177AF" points="213.5,834.0234,209.5,840.0234,217.5,840.0234" style="stroke:#1963A0;stroke-width:1.0;"/><text fill="#000000" font-family="sans-serif" font-size="11" lengthAdjust="spacingAndGlyphs" textLength="149" x="222.5" y="841.2339">getColors(int): List&lt;Color&gt;</text><polygon fill="#4177AF" points="213.5,846.8281,209.5,852.8281,217.5,852.8281" style="stroke:#1963A0;stroke-width:1.0;"/><text fill="#000000" font-family="sans-serif" font-size="11" lengthAdjust="spacingAndGlyphs" textLength="98" x="222.5" y="854.0386">getBlacks(int): int</text><polygon fill="#4177AF" points="213.5,859.6328,209.5,865.6328,217.5,865.6328" style="stroke:#1963A0;stroke-width:1.0;"/><text fill="#000000" font-family="sans-serif" font-size="11" lengthAdjust="spacingAndGlyphs" textLength="101" x="222.5" y="866.8433">getWhites(int): int</text><!--MD5=[151d2f6508794d65f8147ab4cfc9408d]
class usantatecla.mastermind.controllers.UndoController--><rect codeLine="104" fill="#FEFECE" filter="url(#f13wwrjg6m5a7g)" height="86.4141" id="usantatecla.mastermind.controllers.UndoController" style="stroke:#A80036;stroke-width:1.5;" width="163" x="706" y="755"/><ellipse cx="739" cy="771" fill="#ADD1B2" rx="11" ry="11" style="stroke:#A80036;stroke-width:1.0;"/><path d="M741.3438,766.6719 C740.4063,766.2344 739.8125,766.0938 738.9375,766.0938 C736.3125,766.0938 734.3125,768.1719 734.3125,770.8906 L734.3125,772.0156 C734.3125,774.5938 736.4219,776.4844 739.3125,776.4844 C740.5313,776.4844 741.6875,776.1875 742.4375,775.6406 C743.0156,775.2344 743.3438,774.7813 743.3438,774.3906 C743.3438,773.9375 742.9531,773.5469 742.4844,773.5469 C742.2656,773.5469 742.0625,773.625 741.875,773.8125 C741.4219,774.2969 741.4219,774.2969 741.2344,774.3906 C740.8125,774.6563 740.125,774.7813 739.3594,774.7813 C737.3125,774.7813 736.0156,773.6875 736.0156,771.9844 L736.0156,770.8906 C736.0156,769.1094 737.2656,767.7969 739,767.7969 C739.5781,767.7969 740.1875,767.9531 740.6563,768.2031 C741.1406,768.4844 741.3125,768.7031 741.4063,769.1094 C741.4688,769.5156 741.5,769.6406 741.6406,769.7656 C741.7813,769.9063 742.0156,770.0156 742.2344,770.0156 C742.5,770.0156 742.7656,769.875 742.9375,769.6563 C743.0469,769.5 743.0781,769.3125 743.0781,768.8906 L743.0781,767.4688 C743.0781,767.0313 743.0625,766.9063 742.9688,766.75 C742.8125,766.4844 742.5313,766.3438 742.2344,766.3438 C741.9375,766.3438 741.7344,766.4375 741.5156,766.75 L741.3438,766.6719 Z " fill="#000000"/><text fill="#000000" font-family="sans-serif" font-size="12" lengthAdjust="spacingAndGlyphs" textLength="91" x="757" y="775.1543">UndoController</text><line style="stroke:#A80036;stroke-width:1.5;" x1="707" x2="868" y1="787" y2="787"/><line style="stroke:#A80036;stroke-width:1.5;" x1="707" x2="868" y1="795" y2="795"/><polygon fill="#4177AF" points="717,802,713,808,721,808" style="stroke:#1963A0;stroke-width:1.0;"/><text fill="#000000" font-family="sans-serif" font-size="11" lengthAdjust="spacingAndGlyphs" textLength="137" x="726" y="809.2104">UndoController(Session)</text><polygon fill="#4177AF" points="717,814.8047,713,820.8047,721,820.8047" style="stroke:#1963A0;stroke-width:1.0;"/><text fill="#000000" font-family="sans-serif" font-size="11" lengthAdjust="spacingAndGlyphs" textLength="36" x="726" y="822.0151">undo()</text><polygon fill="#4177AF" points="717,827.6094,713,833.6094,721,833.6094" style="stroke:#1963A0;stroke-width:1.0;"/><text fill="#000000" font-family="sans-serif" font-size="11" lengthAdjust="spacingAndGlyphs" textLength="114" x="726" y="834.8198">undoable(): boolean</text><!--MD5=[ad403d85d3aa729c37503f477ae09c63]
class usantatecla.mastermind.controllers.RedoController--><rect codeLine="76" fill="#FEFECE" filter="url(#f13wwrjg6m5a7g)" height="86.4141" id="usantatecla.mastermind.controllers.RedoController" style="stroke:#A80036;stroke-width:1.5;" width="163" x="508" y="755"/><ellipse cx="541.45" cy="771" fill="#ADD1B2" rx="11" ry="11" style="stroke:#A80036;stroke-width:1.0;"/><path d="M543.7938,766.6719 C542.8563,766.2344 542.2625,766.0938 541.3875,766.0938 C538.7625,766.0938 536.7625,768.1719 536.7625,770.8906 L536.7625,772.0156 C536.7625,774.5938 538.8719,776.4844 541.7625,776.4844 C542.9813,776.4844 544.1375,776.1875 544.8875,775.6406 C545.4656,775.2344 545.7938,774.7813 545.7938,774.3906 C545.7938,773.9375 545.4031,773.5469 544.9344,773.5469 C544.7156,773.5469 544.5125,773.625 544.325,773.8125 C543.8719,774.2969 543.8719,774.2969 543.6844,774.3906 C543.2625,774.6563 542.575,774.7813 541.8094,774.7813 C539.7625,774.7813 538.4656,773.6875 538.4656,771.9844 L538.4656,770.8906 C538.4656,769.1094 539.7156,767.7969 541.45,767.7969 C542.0281,767.7969 542.6375,767.9531 543.1063,768.2031 C543.5906,768.4844 543.7625,768.7031 543.8563,769.1094 C543.9188,769.5156 543.95,769.6406 544.0906,769.7656 C544.2313,769.9063 544.4656,770.0156 544.6844,770.0156 C544.95,770.0156 545.2156,769.875 545.3875,769.6563 C545.4969,769.5 545.5281,769.3125 545.5281,768.8906 L545.5281,767.4688 C545.5281,767.0313 545.5125,766.9063 545.4188,766.75 C545.2625,766.4844 544.9813,766.3438 544.6844,766.3438 C544.3875,766.3438 544.1844,766.4375 543.9656,766.75 L543.7938,766.6719 Z " fill="#000000"/><text fill="#000000" font-family="sans-serif" font-size="12" lengthAdjust="spacingAndGlyphs" textLength="90" x="559.55" y="775.1543">RedoController</text><line style="stroke:#A80036;stroke-width:1.5;" x1="509" x2="670" y1="787" y2="787"/><line style="stroke:#A80036;stroke-width:1.5;" x1="509" x2="670" y1="795" y2="795"/><polygon fill="#4177AF" points="519,802,515,808,523,808" style="stroke:#1963A0;stroke-width:1.0;"/><text fill="#000000" font-family="sans-serif" font-size="11" lengthAdjust="spacingAndGlyphs" textLength="137" x="528" y="809.2104">RedoController(Session)</text><polygon fill="#4177AF" points="519,814.8047,515,820.8047,523,820.8047" style="stroke:#1963A0;stroke-width:1.0;"/><text fill="#000000" font-family="sans-serif" font-size="11" lengthAdjust="spacingAndGlyphs" textLength="34" x="528" y="822.0151">redo()</text><polygon fill="#4177AF" points="519,827.6094,515,833.6094,523,833.6094" style="stroke:#1963A0;stroke-width:1.0;"/><text fill="#000000" font-family="sans-serif" font-size="11" lengthAdjust="spacingAndGlyphs" textLength="112" x="528" y="834.8198">redoable(): boolean</text><!--MD5=[28491d17d5ee38c9c116625a5ffc259a]
class Combination--><rect codeLine="1" fill="#FEFECE" filter="url(#f13wwrjg6m5a7g)" height="67.9063" id="Combination" style="stroke:#A80036;stroke-width:1.5;" width="156" x="363.5" y="933"/><ellipse cx="378.5" cy="958.9531" fill="#A9DCDF" rx="11" ry="11" style="stroke:#A80036;stroke-width:1.0;"/><path d="M380.5781,960.7656 L380.9688,961.75 L380.5781,961.75 C380.125,961.75 380.0156,961.7656 379.8594,961.875 C379.6094,962.0313 379.4531,962.3125 379.4531,962.6094 C379.4531,962.875 379.5938,963.125 379.8125,963.2813 C379.9531,963.4063 380.1563,963.4531 380.5781,963.4531 L382.9375,963.4531 C383.2969,963.4531 383.5156,963.4219 383.6563,963.3281 C383.9063,963.1875 384.0625,962.8906 384.0625,962.6094 C384.0625,962.3281 383.9219,962.0781 383.7031,961.9219 C383.5313,961.7813 383.375,961.75 382.9063,961.75 L379.5156,953.5469 L375.8438,953.5469 C375.3906,953.5469 375.2656,953.5625 375.1094,953.6563 C374.8594,953.8281 374.7031,954.1094 374.7031,954.3906 C374.7031,954.6719 374.8438,954.9219 375.0625,955.0938 C375.2344,955.2031 375.4063,955.2344 375.8438,955.2344 L376.9219,955.2344 L374.2813,961.75 C373.8594,961.75 373.7031,961.7656 373.5469,961.875 C373.2969,962.0313 373.1406,962.3125 373.1406,962.6094 C373.1406,963.1719 373.5156,963.4531 374.2656,963.4531 L376.5313,963.4531 C376.8906,963.4531 377.1094,963.4219 377.2344,963.3281 C377.5,963.1875 377.6406,962.8906 377.6406,962.6094 C377.6406,962.3281 377.5156,962.0781 377.2969,961.9063 C377.125,961.7813 376.9844,961.75 376.5313,961.75 L376.1406,961.75 L376.5313,960.7656 L380.5781,960.7656 Z M379.875,959.0625 L377.2031,959.0625 L378.5469,955.7969 L379.875,959.0625 Z " fill="#000000"/><text fill="#000000" font-family="sans-serif" font-size="12" font-style="italic" lengthAdjust="spacingAndGlyphs" textLength="74" x="417.5" y="949.1387">usantatecla.</text><text fill="#000000" font-family="sans-serif" font-size="12" font-style="italic" lengthAdjust="spacingAndGlyphs" textLength="124" x="392.5" y="963.1074">mastermind.models.</text><text fill="#000000" font-family="sans-serif" font-size="12" font-style="italic" lengthAdjust="spacingAndGlyphs" textLength="76" x="416.5" y="977.0762">Combination</text><line style="stroke:#A80036;stroke-width:1.5;" x1="364.5" x2="518.5" y1="984.9063" y2="984.9063"/><line style="stroke:#A80036;stroke-width:1.5;" x1="364.5" x2="518.5" y1="992.9063" y2="992.9063"/><!--MD5=[2ca1536628238a7dc78c5d90808014f9]
class Session--><rect codeLine="2" fill="#FEFECE" filter="url(#f13wwrjg6m5a7g)" height="67.9063" id="Session" style="stroke:#A80036;stroke-width:1.5;" width="154" x="880.5" y="933"/><ellipse cx="895.5" cy="958.9531" fill="#ADD1B2" rx="11" ry="11" style="stroke:#A80036;stroke-width:1.0;"/><path d="M897.8438,954.625 C896.9063,954.1875 896.3125,954.0469 895.4375,954.0469 C892.8125,954.0469 890.8125,956.125 890.8125,958.8438 L890.8125,959.9688 C890.8125,962.5469 892.9219,964.4375 895.8125,964.4375 C897.0313,964.4375 898.1875,964.1406 898.9375,963.5938 C899.5156,963.1875 899.8438,962.7344 899.8438,962.3438 C899.8438,961.8906 899.4531,961.5 898.9844,961.5 C898.7656,961.5 898.5625,961.5781 898.375,961.7656 C897.9219,962.25 897.9219,962.25 897.7344,962.3438 C897.3125,962.6094 896.625,962.7344 895.8594,962.7344 C893.8125,962.7344 892.5156,961.6406 892.5156,959.9375 L892.5156,958.8438 C892.5156,957.0625 893.7656,955.75 895.5,955.75 C896.0781,955.75 896.6875,955.9063 897.1563,956.1563 C897.6406,956.4375 897.8125,956.6563 897.9063,957.0625 C897.9688,957.4688 898,957.5938 898.1406,957.7188 C898.2813,957.8594 898.5156,957.9688 898.7344,957.9688 C899,957.9688 899.2656,957.8281 899.4375,957.6094 C899.5469,957.4531 899.5781,957.2656 899.5781,956.8438 L899.5781,955.4219 C899.5781,954.9844 899.5625,954.8594 899.4688,954.7031 C899.3125,954.4375 899.0313,954.2969 898.7344,954.2969 C898.4375,954.2969 898.2344,954.3906 898.0156,954.7031 L897.8438,954.625 Z " fill="#000000"/><text fill="#000000" font-family="sans-serif" font-size="12" lengthAdjust="spacingAndGlyphs" textLength="71" x="935" y="949.1387">usantatecla.</text><text fill="#000000" font-family="sans-serif" font-size="12" lengthAdjust="spacingAndGlyphs" textLength="122" x="909.5" y="963.1074">mastermind.models.</text><text fill="#000000" font-family="sans-serif" font-size="12" lengthAdjust="spacingAndGlyphs" textLength="48" x="946.5" y="977.0762">Session</text><line style="stroke:#A80036;stroke-width:1.5;" x1="881.5" x2="1033.5" y1="984.9063" y2="984.9063"/><line style="stroke:#A80036;stroke-width:1.5;" x1="881.5" x2="1033.5" y1="992.9063" y2="992.9063"/><!--MD5=[167506e288131cdf3986fedef83acd94]
class StateValue--><rect codeLine="3" fill="#FEFECE" filter="url(#f13wwrjg6m5a7g)" height="67.9063" id="StateValue" style="stroke:#A80036;stroke-width:1.5;" width="154" x="1035.5" y="175"/><ellipse cx="1050.5" cy="200.9531" fill="#ADD1B2" rx="11" ry="11" style="stroke:#A80036;stroke-width:1.0;"/><path d="M1052.8438,196.625 C1051.9063,196.1875 1051.3125,196.0469 1050.4375,196.0469 C1047.8125,196.0469 1045.8125,198.125 1045.8125,200.8438 L1045.8125,201.9688 C1045.8125,204.5469 1047.9219,206.4375 1050.8125,206.4375 C1052.0313,206.4375 1053.1875,206.1406 1053.9375,205.5938 C1054.5156,205.1875 1054.8438,204.7344 1054.8438,204.3438 C1054.8438,203.8906 1054.4531,203.5 1053.9844,203.5 C1053.7656,203.5 1053.5625,203.5781 1053.375,203.7656 C1052.9219,204.25 1052.9219,204.25 1052.7344,204.3438 C1052.3125,204.6094 1051.625,204.7344 1050.8594,204.7344 C1048.8125,204.7344 1047.5156,203.6406 1047.5156,201.9375 L1047.5156,200.8438 C1047.5156,199.0625 1048.7656,197.75 1050.5,197.75 C1051.0781,197.75 1051.6875,197.9063 1052.1563,198.1563 C1052.6406,198.4375 1052.8125,198.6563 1052.9063,199.0625 C1052.9688,199.4688 1053,199.5938 1053.1406,199.7188 C1053.2813,199.8594 1053.5156,199.9688 1053.7344,199.9688 C1054,199.9688 1054.2656,199.8281 1054.4375,199.6094 C1054.5469,199.4531 1054.5781,199.2656 1054.5781,198.8438 L1054.5781,197.4219 C1054.5781,196.9844 1054.5625,196.8594 1054.4688,196.7031 C1054.3125,196.4375 1054.0313,196.2969 1053.7344,196.2969 C1053.4375,196.2969 1053.2344,196.3906 1053.0156,196.7031 L1052.8438,196.625 Z " fill="#000000"/><text fill="#000000" font-family="sans-serif" font-size="12" lengthAdjust="spacingAndGlyphs" textLength="71" x="1090" y="191.1387">usantatecla.</text><text fill="#000000" font-family="sans-serif" font-size="12" lengthAdjust="spacingAndGlyphs" textLength="122" x="1064.5" y="205.1074">mastermind.models.</text><text fill="#000000" font-family="sans-serif" font-size="12" lengthAdjust="spacingAndGlyphs" textLength="64" x="1093.5" y="219.0762">StateValue</text><line style="stroke:#A80036;stroke-width:1.5;" x1="1036.5" x2="1188.5" y1="226.9063" y2="226.9063"/><line style="stroke:#A80036;stroke-width:1.5;" x1="1036.5" x2="1188.5" y1="234.9063" y2="234.9063"/><!--MD5=[18eee71c88ab61f27581b8cbdd3ef5ee]
class Color--><rect codeLine="4" fill="#FEFECE" filter="url(#f13wwrjg6m5a7g)" height="67.9063" id="Color" style="stroke:#A80036;stroke-width:1.5;" width="143" x="7" y="933"/><ellipse cx="22" cy="958.9531" fill="#EB937F" rx="11" ry="11" style="stroke:#A80036;stroke-width:1.0;"/><path d="M20.7969,959.8281 L22.25,959.8281 L22.25,959.9375 C22.25,960.3438 22.2813,960.5 22.3594,960.6563 C22.5156,960.9063 22.7969,961.0625 23.0938,961.0625 C23.3438,961.0625 23.6094,960.9219 23.7656,960.7031 C23.8906,960.5469 23.9219,960.3906 23.9219,959.9375 L23.9219,958.0156 C23.9219,957.8594 23.9219,957.8125 23.9063,957.6563 C23.8438,957.1875 23.5313,956.875 23.0781,956.875 C22.8281,956.875 22.5625,957.0156 22.3906,957.2344 C22.2813,957.4063 22.25,957.5625 22.25,958.0156 L22.25,958.1406 L20.7969,958.1406 L20.7969,955.7344 L24.7813,955.7344 L24.7813,956.5938 C24.7813,957 24.8125,957.1719 24.8906,957.3281 C25.0625,957.5781 25.3438,957.7344 25.625,957.7344 C25.8906,957.7344 26.1563,957.5938 26.3281,957.375 C26.4375,957.2031 26.4688,957.0625 26.4688,956.5938 L26.4688,954.0469 L18.8438,954.0469 C18.4063,954.0469 18.2813,954.0625 18.125,954.1563 C17.875,954.3125 17.7188,954.6094 17.7188,954.8906 C17.7188,955.1719 17.8594,955.4219 18.0781,955.5938 C18.2344,955.7031 18.4219,955.7344 18.8438,955.7344 L19.0938,955.7344 L19.0938,962.25 L18.8438,962.25 C18.4375,962.25 18.2813,962.2656 18.125,962.375 C17.875,962.5469 17.7188,962.8125 17.7188,963.1094 C17.7188,963.375 17.8594,963.625 18.0781,963.7813 C18.2188,963.9063 18.4531,963.9531 18.8438,963.9531 L26.8438,963.9531 L26.8438,961.375 C26.8438,960.9375 26.8125,960.7969 26.7344,960.6406 C26.5625,960.3906 26.2813,960.2344 26,960.2344 C25.7344,960.2344 25.4688,960.3438 25.2969,960.5938 C25.1875,960.75 25.1563,960.8906 25.1563,961.375 L25.1563,962.25 L20.7969,962.25 L20.7969,959.8281 Z " fill="#000000"/><text fill="#000000" font-family="sans-serif" font-size="12" lengthAdjust="spacingAndGlyphs" textLength="71" x="56" y="949.1387">usantatecla.</text><text fill="#000000" font-family="sans-serif" font-size="12" lengthAdjust="spacingAndGlyphs" textLength="111" x="36" y="963.1074">mastermind.types.</text><text fill="#000000" font-family="sans-serif" font-size="12" lengthAdjust="spacingAndGlyphs" textLength="32" x="75.5" y="977.0762">Color</text><line style="stroke:#A80036;stroke-width:1.5;" x1="8" x2="149" y1="984.9063" y2="984.9063"/><line style="stroke:#A80036;stroke-width:1.5;" x1="8" x2="149" y1="992.9063" y2="992.9063"/><!--MD5=[b8cfd8c4119a3b0a7a46bfc5fc780f85]
class Error--><rect codeLine="5" fill="#FEFECE" filter="url(#f13wwrjg6m5a7g)" height="67.9063" id="Error" style="stroke:#A80036;stroke-width:1.5;" width="143" x="185" y="933"/><ellipse cx="200" cy="958.9531" fill="#EB937F" rx="11" ry="11" style="stroke:#A80036;stroke-width:1.0;"/><path d="M198.7969,959.8281 L200.25,959.8281 L200.25,959.9375 C200.25,960.3438 200.2813,960.5 200.3594,960.6563 C200.5156,960.9063 200.7969,961.0625 201.0938,961.0625 C201.3438,961.0625 201.6094,960.9219 201.7656,960.7031 C201.8906,960.5469 201.9219,960.3906 201.9219,959.9375 L201.9219,958.0156 C201.9219,957.8594 201.9219,957.8125 201.9063,957.6563 C201.8438,957.1875 201.5313,956.875 201.0781,956.875 C200.8281,956.875 200.5625,957.0156 200.3906,957.2344 C200.2813,957.4063 200.25,957.5625 200.25,958.0156 L200.25,958.1406 L198.7969,958.1406 L198.7969,955.7344 L202.7813,955.7344 L202.7813,956.5938 C202.7813,957 202.8125,957.1719 202.8906,957.3281 C203.0625,957.5781 203.3438,957.7344 203.625,957.7344 C203.8906,957.7344 204.1563,957.5938 204.3281,957.375 C204.4375,957.2031 204.4688,957.0625 204.4688,956.5938 L204.4688,954.0469 L196.8438,954.0469 C196.4063,954.0469 196.2813,954.0625 196.125,954.1563 C195.875,954.3125 195.7188,954.6094 195.7188,954.8906 C195.7188,955.1719 195.8594,955.4219 196.0781,955.5938 C196.2344,955.7031 196.4219,955.7344 196.8438,955.7344 L197.0938,955.7344 L197.0938,962.25 L196.8438,962.25 C196.4375,962.25 196.2813,962.2656 196.125,962.375 C195.875,962.5469 195.7188,962.8125 195.7188,963.1094 C195.7188,963.375 195.8594,963.625 196.0781,963.7813 C196.2188,963.9063 196.4531,963.9531 196.8438,963.9531 L204.8438,963.9531 L204.8438,961.375 C204.8438,960.9375 204.8125,960.7969 204.7344,960.6406 C204.5625,960.3906 204.2813,960.2344 204,960.2344 C203.7344,960.2344 203.4688,960.3438 203.2969,960.5938 C203.1875,960.75 203.1563,960.8906 203.1563,961.375 L203.1563,962.25 L198.7969,962.25 L198.7969,959.8281 Z " fill="#000000"/><text fill="#000000" font-family="sans-serif" font-size="12" lengthAdjust="spacingAndGlyphs" textLength="71" x="234" y="949.1387">usantatecla.</text><text fill="#000000" font-family="sans-serif" font-size="12" lengthAdjust="spacingAndGlyphs" textLength="111" x="214" y="963.1074">mastermind.types.</text><text fill="#000000" font-family="sans-serif" font-size="12" lengthAdjust="spacingAndGlyphs" textLength="30" x="254.5" y="977.0762">Error</text><line style="stroke:#A80036;stroke-width:1.5;" x1="186" x2="327" y1="984.9063" y2="984.9063"/><line style="stroke:#A80036;stroke-width:1.5;" x1="186" x2="327" y1="992.9063" y2="992.9063"/><!--MD5=[bd9164636500d3b653f7d33ed9772956]
link usantatecla.mastermind.controllers.AcceptorController to usantatecla.mastermind.controllers.ControllersVisitor--><path codeLine="10" d="M802.5,239.626 C802.5,256.582 802.5,278.253 802.5,297.528 " fill="none" id="usantatecla.mastermind.controllers.AcceptorController-to-usantatecla.mastermind.controllers.ControllersVisitor" style="stroke:#A80036;stroke-width:1.0;stroke-dasharray:7.0,7.0;"/><polygon fill="#A80036" points="802.5,302.895,806.5,293.895,802.5,297.895,798.5,293.895,802.5,302.895" style="stroke:#A80036;stroke-width:1.0;"/><!--MD5=[3def74b1efc7c5ae01d4ee2634d4ae23]
link usantatecla.mastermind.controllers.Controller to Session--><path codeLine="16" d="M661.0276,375.6414 C661.0276,375.6414 691.328,385.251 705.5,389 C843.277,425.45 922.854,345.191 1020.5,449 C1157.34,594.475 1147.49,719.729 1055.5,897 C1050.14,907.3327 1042.44,916.4446 1033.68,924.3758 " fill="none" id="usantatecla.mastermind.controllers.Controller-Session" style="stroke:#A80036;stroke-width:1.0;"/><polygon fill="#A80036" points="1023.41,932.8308,1032.9015,930.2018,1027.2712,929.6541,1027.8188,924.0238,1023.41,932.8308" style="stroke:#A80036;stroke-width:1.0;"/><line style="stroke:#A80036;stroke-width:1.0;" x1="1027.2712" x2="1033.45" y1="929.6541" y2="924.5682"/><polygon fill="#A80036" points="649.647,371.836,654.0688,377.5323,661.0276,375.6414,656.6058,369.9452,649.647,371.836" style="stroke:#A80036;stroke-width:1.0;"/><!--MD5=[7fdf48b556a1c9826cc0cc4ec2a626dc]
link usantatecla.mastermind.controllers.ControllersVisitor to usantatecla.mastermind.controllers.StartController--><path codeLine="23" d="M815.696,389.092 C832.293,423.769 859.808,472.885 882.625,508.674 " fill="none" id="usantatecla.mastermind.controllers.ControllersVisitor-to-usantatecla.mastermind.controllers.StartController" style="stroke:#A80036;stroke-width:1.0;stroke-dasharray:7.0,7.0;"/><polygon fill="#A80036" points="885.383,512.971,883.8899,503.236,882.6831,508.7626,877.1565,507.5558,885.383,512.971" style="stroke:#A80036;stroke-width:1.0;"/><!--MD5=[bd475fd0ce301a7b572805ffdb34a310]
link usantatecla.mastermind.controllers.StartController to usantatecla.mastermind.controllers.ControllersVisitor--><path codeLine="101" d="M906.95,512.971 C890.538,478.311 863.033,429.196 840.053,393.391 " fill="none" id="usantatecla.mastermind.controllers.StartController-to-usantatecla.mastermind.controllers.ControllersVisitor" style="stroke:#A80036;stroke-width:1.0;stroke-dasharray:7.0,7.0;"/><polygon fill="#A80036" points="837.274,389.092,838.801,398.8218,839.9885,393.291,845.5193,394.4785,837.274,389.092" style="stroke:#A80036;stroke-width:1.0;"/><!--MD5=[c238b71c29378ca7025366ba24b22fff]
link usantatecla.mastermind.controllers.ControllersVisitor to usantatecla.mastermind.controllers.PlayController--><path codeLine="24" d="M722.821,380.998 C664.334,408.048 583.559,446.891 514.466,481.018 " fill="none" id="usantatecla.mastermind.controllers.ControllersVisitor-to-usantatecla.mastermind.controllers.PlayController" style="stroke:#A80036;stroke-width:1.0;stroke-dasharray:7.0,7.0;"/><polygon fill="#A80036" points="509.933,483.259,519.7737,482.8583,514.4157,481.0441,516.2299,475.6861,509.933,483.259" style="stroke:#A80036;stroke-width:1.0;"/><!--MD5=[5fda9894aef5495f7be60836ed04b7b6]
link usantatecla.mastermind.controllers.PlayController to usantatecla.mastermind.controllers.ControllersVisitor--><path codeLine="55" d="M509.829,495.234 C579.746,462.144 662.594,421.711 722.362,391.437 " fill="none" id="usantatecla.mastermind.controllers.PlayController-to-usantatecla.mastermind.controllers.ControllersVisitor" style="stroke:#A80036;stroke-width:1.0;stroke-dasharray:7.0,7.0;"/><polygon fill="#A80036" points="726.985,389.092,717.1492,389.5983,722.5264,391.3549,720.7698,396.7321,726.985,389.092" style="stroke:#A80036;stroke-width:1.0;"/><!--MD5=[ec7073da616e8e4af445466fbcd0dd68]
link usantatecla.mastermind.controllers.ControllersVisitor to usantatecla.mastermind.controllers.ResumeController--><path codeLine="25" d="M773.199,389.092 C754.86,423.628 732.892,472.486 719.559,508.237 " fill="none" id="usantatecla.mastermind.controllers.ControllersVisitor-to-usantatecla.mastermind.controllers.ResumeController" style="stroke:#A80036;stroke-width:1.0;stroke-dasharray:7.0,7.0;"/><polygon fill="#A80036" points="717.816,512.971,724.679,505.9071,719.5434,508.2789,717.1716,503.1432,717.816,512.971" style="stroke:#A80036;stroke-width:1.0;"/><!--MD5=[5b5517e0bcba9fd2a01b3c4b592546c0]
link usantatecla.mastermind.controllers.ResumeController to usantatecla.mastermind.controllers.ControllersVisitor--><path codeLine="91" d="M739.384,512.971 C757.889,478.452 779.867,429.595 793.055,393.828 " fill="none" id="usantatecla.mastermind.controllers.ResumeController-to-usantatecla.mastermind.controllers.ControllersVisitor" style="stroke:#A80036;stroke-width:1.0;stroke-dasharray:7.0,7.0;"/><polygon fill="#A80036" points="794.777,389.092,787.9421,396.1832,793.0683,393.791,795.4605,398.9171,794.777,389.092" style="stroke:#A80036;stroke-width:1.0;"/><!--MD5=[de0ca0b10a767fc31717304f2f1a45a5]
link usantatecla.mastermind.controllers.Logic to Session--><path codeLine="31" d="M1015.5313,86.8555 C1015.5313,86.8555 1159.11,121.85 1207.5,175 C1259.43,232.04 1242.5,267.86 1242.5,345 C1242.5,345 1242.5,345 1242.5,557 C1242.5,718.465 1225.55,779.785 1114.5,897 C1096.19,916.3219 1071.53,930.5633 1047.18,940.9164 " fill="none" id="usantatecla.mastermind.controllers.Logic-Session" style="stroke:#A80036;stroke-width:1.0;"/><polygon fill="#A80036" points="1034.89,945.8366,1044.7319,946.207,1039.5322,943.9792,1041.76,938.7795,1034.89,945.8366" style="stroke:#A80036;stroke-width:1.0;"/><line style="stroke:#A80036;stroke-width:1.0;" x1="1039.5322" x2="1046.96" y1="943.9792" y2="941.0028"/><polygon fill="#A80036" points="1003.67,85.036,1008.9941,89.8995,1015.5313,86.8555,1010.2071,81.992,1003.67,85.036" style="stroke:#A80036;stroke-width:1.0;"/><!--MD5=[d4e971768f4879fedf61c3b3dae7f6ab]
link usantatecla.mastermind.controllers.Logic to StateValue--><path codeLine="32" d="M965.135,121.1948 C965.135,121.1948 1020.23,153.65 1045.24,168.383 " fill="none" id="usantatecla.mastermind.controllers.Logic-StateValue" style="stroke:#A80036;stroke-width:1.0;"/><polygon fill="#A80036" points="1056.47,174.995,1050.7465,166.9799,1052.1622,172.4568,1046.6853,173.8725,1056.47,174.995" style="stroke:#A80036;stroke-width:1.0;"/><line style="stroke:#A80036;stroke-width:1.0;" x1="1052.1622" x2="1045.27" y1="172.4568" y2="168.3975"/><polygon fill="#A80036" points="954.795,115.105,957.9351,121.5965,965.135,121.1948,961.9949,114.7032,954.795,115.105" style="stroke:#A80036;stroke-width:1.0;"/><!--MD5=[1a3df59fc0ef8f0373c097da6f173eea]
link usantatecla.mastermind.controllers.Logic to usantatecla.mastermind.controllers.AcceptorController--><path codeLine="33" d="M860.9914,125.0824 C860.9914,125.0824 840.478,154.163 831.33,167.131 " fill="none" id="usantatecla.mastermind.controllers.Logic-usantatecla.mastermind.controllers.AcceptorController" style="stroke:#A80036;stroke-width:1.0;"/><polygon fill="#A80036" points="823.605,178.082,832.0617,173.0338,826.4873,173.9964,825.5247,168.422,823.605,178.082" style="stroke:#A80036;stroke-width:1.0;"/><line style="stroke:#A80036;stroke-width:1.0;" x1="826.4873" x2="831.099" y1="173.9964" y2="167.459"/><polygon fill="#A80036" points="867.909,115.277,861.1817,117.8739,860.9914,125.0824,867.7187,122.4856,867.909,115.277" style="stroke:#A80036;stroke-width:1.0;"/><!--MD5=[379f0ccdbcf769b62d1e7fd0ac123734]
reverse link usantatecla.mastermind.controllers.AcceptorController to usantatecla.mastermind.controllers.PlayController--><path codeLine="50" d="M698.602,220.527 C634.382,231.765 553.768,254.993 497.5,303 C453.15,340.839 423.378,398.418 404.249,448.99 " fill="none" id="usantatecla.mastermind.controllers.AcceptorController-backto-usantatecla.mastermind.controllers.PlayController" style="stroke:#A80036;stroke-width:1.0;stroke-dasharray:7.0,7.0;"/><polygon fill="none" points="697.535,213.609,718.392,217.347,699.756,227.431,697.535,213.609" style="stroke:#A80036;stroke-width:1.0;"/><!--MD5=[270e5270911246cf96620c0262af3c0e]
reverse link usantatecla.mastermind.controllers.Controller to usantatecla.mastermind.controllers.PlayController--><path codeLine="51" d="M532.095,397.405 C516.536,412.964 498.775,430.725 480.918,448.582 " fill="none" id="usantatecla.mastermind.controllers.Controller-backto-usantatecla.mastermind.controllers.PlayController" style="stroke:#A80036;stroke-width:1.0;"/><polygon fill="none" points="527.177,392.423,546.269,383.231,537.077,402.323,527.177,392.423" style="stroke:#A80036;stroke-width:1.0;"/><!--MD5=[4c5bcb0e1da525904d64689d4ef66eaa]
link usantatecla.mastermind.controllers.PlayController to usantatecla.mastermind.controllers.ProposalController--><path codeLine="52" d="M356.2811,675.1758 C356.2811,675.1758 352.616,698.951 350.947,709.778 " fill="none" id="usantatecla.mastermind.controllers.PlayController-usantatecla.mastermind.controllers.ProposalController" style="stroke:#A80036;stroke-width:1.0;"/><polygon fill="#A80036" points="348.944,722.768,354.269,714.4828,349.7061,717.8264,346.3624,713.2635,348.944,722.768" style="stroke:#A80036;stroke-width:1.0;"/><line style="stroke:#A80036;stroke-width:1.0;" x1="349.7061" x2="350.925" y1="717.8264" y2="709.9195"/><polygon fill="#A80036" points="358.11,663.316,353.2423,668.6363,356.2811,675.1758,361.1488,669.8556,358.11,663.316" style="stroke:#A80036;stroke-width:1.0;"/><!--MD5=[e06829587bde9738332d67350ab6c02e]
link usantatecla.mastermind.controllers.PlayController to usantatecla.mastermind.controllers.UndoController--><path codeLine="53" d="M520.1597,634.7712 C520.1597,634.7712 556.528,654.053 573.5,663 C624.497,689.885 639.699,692.31 688.5,723 C700.132,730.315 712.139,738.601 723.606,746.914 " fill="none" id="usantatecla.mastermind.controllers.PlayController-usantatecla.mastermind.controllers.UndoController" style="stroke:#A80036;stroke-width:1.0;"/><polygon fill="#A80036" points="734.404,754.861,729.5265,746.3047,730.3771,751.8973,724.7845,752.7478,734.404,754.861" style="stroke:#A80036;stroke-width:1.0;"/><line style="stroke:#A80036;stroke-width:1.0;" x1="730.3771" x2="723.934" y1="751.8973" y2="747.1555"/><polygon fill="#A80036" points="509.562,629.142,512.9845,635.4892,520.1597,634.7712,516.7373,628.424,509.562,629.142" style="stroke:#A80036;stroke-width:1.0;"/><!--MD5=[9e5799599a74453d548db4793f1ed649]
link usantatecla.mastermind.controllers.PlayController to usantatecla.mastermind.controllers.RedoController--><path codeLine="54" d="M477.748,672.254 C477.748,672.254 523.994,723.877 542.993,745.085 " fill="none" id="usantatecla.mastermind.controllers.PlayController-usantatecla.mastermind.controllers.RedoController" style="stroke:#A80036;stroke-width:1.0;"/><polygon fill="#A80036" points="551.718,754.825,548.6921,745.4525,548.3817,751.1008,542.7334,750.7905,551.718,754.825" style="stroke:#A80036;stroke-width:1.0;"/><line style="stroke:#A80036;stroke-width:1.0;" x1="548.3817" x2="543.044" y1="751.1008" y2="745.142"/><polygon fill="#A80036" points="469.741,663.316,470.7652,670.454,477.748,672.254,476.7238,665.116,469.741,663.316" style="stroke:#A80036;stroke-width:1.0;"/><!--MD5=[a4458679fa4e0fcda8bf8fe1b89db6b5]
link usantatecla.mastermind.controllers.PlayController to Session--><path codeLine="56" d="M509.573,626.234 C539.338,639.741 571.073,652.843 601.5,663 C724.283,703.987 791.525,635.05 886.5,723 C901.743,737.116 933.2,862.934 948.605,927.7542 " fill="none" id="usantatecla.mastermind.controllers.PlayController-to-Session" style="stroke:#A80036;stroke-width:1.0;stroke-dasharray:7.0,7.0;"/><polygon fill="#A80036" points="949.776,932.6931,951.5916,923.013,948.6224,927.828,943.8074,924.8588,949.776,932.6931" style="stroke:#A80036;stroke-width:1.0;"/><!--MD5=[7cceb1c652af3bb106a05c60cfa6315b]
link usantatecla.mastermind.controllers.PlayController to Color--><path codeLine="57" d="M239.234,637.553 C207.511,661.694 176.344,690.521 153.5,723 C108.93,786.369 90.2227,877.036 82.864,927.8052 " fill="none" id="usantatecla.mastermind.controllers.PlayController-to-Color" style="stroke:#A80036;stroke-width:1.0;stroke-dasharray:7.0,7.0;"/><polygon fill="#A80036" points="82.1454,932.8921,87.3653,924.5403,82.845,927.9413,79.444,923.421,82.1454,932.8921" style="stroke:#A80036;stroke-width:1.0;"/><!--MD5=[a00fa74810429ad005db5948e3e13f5a]
link usantatecla.mastermind.controllers.PlayController to Error--><path codeLine="58" d="M239.43,648.342 C217.132,670.022 197.18,695.083 184.5,723 C152.518,793.41 154.148,825.872 184.5,897 C189.554,908.8435 197.749,919.6293 206.832,928.9723 " fill="none" id="usantatecla.mastermind.controllers.PlayController-to-Error" style="stroke:#A80036;stroke-width:1.0;stroke-dasharray:7.0,7.0;"/><polygon fill="#A80036" points="210.773,932.887,207.2057,923.7069,207.2253,929.3637,201.5685,929.3832,210.773,932.887" style="stroke:#A80036;stroke-width:1.0;"/><!--MD5=[355b9902740da4b2ec85e8089918fd93]
reverse link usantatecla.mastermind.controllers.Controller to usantatecla.mastermind.controllers.ProposalController--><path codeLine="70" d="M495.335,359.443 C399.44,375.125 254.483,405.407 221.5,449 C164.113,524.848 188.283,573.878 221.5,663 C229.506,684.48 242.676,704.807 257.327,722.832 " fill="none" id="usantatecla.mastermind.controllers.Controller-backto-usantatecla.mastermind.controllers.ProposalController" style="stroke:#A80036;stroke-width:1.0;"/><polygon fill="none" points="494.442,352.497,515.292,356.272,496.638,366.324,494.442,352.497" style="stroke:#A80036;stroke-width:1.0;"/><!--MD5=[9ab8b060fd1c6972838e9ee712ff95cb]
link usantatecla.mastermind.controllers.ProposalController to Session--><path codeLine="71" d="M440.597,873.161 C456.735,882.342 473.661,890.697 490.5,897 C619.256,945.1977 779.791,959.8575 875.173,964.2371 " fill="none" id="usantatecla.mastermind.controllers.ProposalController-to-Session" style="stroke:#A80036;stroke-width:1.0;stroke-dasharray:7.0,7.0;"/><polygon fill="#A80036" points="880.23,964.4625,871.4172,960.0653,875.235,964.2396,871.0607,968.0574,880.23,964.4625" style="stroke:#A80036;stroke-width:1.0;"/><!--MD5=[765bda7c14cd5ed1cc66a669d2aefa21]
link usantatecla.mastermind.controllers.ProposalController to Combination--><path codeLine="72" d="M383.722,873.221 C395.623,892.331 407.932,912.0982 418.116,928.4505 " fill="none" id="usantatecla.mastermind.controllers.ProposalController-to-Combination" style="stroke:#A80036;stroke-width:1.0;stroke-dasharray:7.0,7.0;"/><polygon fill="#A80036" points="420.93,932.9688,419.5678,923.2146,418.2869,928.7245,412.7769,927.4436,420.93,932.9688" style="stroke:#A80036;stroke-width:1.0;"/><!--MD5=[69852a3216d5517651367a7065e7f1c9]
link usantatecla.mastermind.controllers.ProposalController to Color--><path codeLine="73" d="M222.391,873.221 C191.739,892.985 159.999,913.4505 134.153,930.1155 " fill="none" id="usantatecla.mastermind.controllers.ProposalController-to-Color" style="stroke:#A80036;stroke-width:1.0;stroke-dasharray:7.0,7.0;"/><polygon fill="#A80036" points="129.728,932.9688,139.4595,931.4527,133.93,930.259,135.1238,924.7295,129.728,932.9688" style="stroke:#A80036;stroke-width:1.0;"/><!--MD5=[aec0234761dc3837780669c056a8373c]
link usantatecla.mastermind.controllers.ProposalController to Error--><path codeLine="74" d="M301.501,873.221 C292.231,892.331 282.644,912.0982 274.713,928.4505 " fill="none" id="usantatecla.mastermind.controllers.ProposalController-to-Error" style="stroke:#A80036;stroke-width:1.0;stroke-dasharray:7.0,7.0;"/><polygon fill="#A80036" points="272.521,932.9688,280.0477,926.6168,274.7031,928.4701,272.8498,923.1254,272.521,932.9688" style="stroke:#A80036;stroke-width:1.0;"/><!--MD5=[c261ca396b56eef96f31726476ebc83a]
reverse link usantatecla.mastermind.controllers.Controller to usantatecla.mastermind.controllers.RedoController--><path codeLine="81" d="M576.642,403.27 C575.34,418.124 574.154,434.152 573.5,449 C569.316,544.019 567.852,568.057 573.5,663 C575.337,693.872 579.533,728.534 583.168,754.869 " fill="none" id="usantatecla.mastermind.controllers.Controller-backto-usantatecla.mastermind.controllers.RedoController" style="stroke:#A80036;stroke-width:1.0;"/><polygon fill="none" points="569.678,402.557,578.515,383.298,583.617,403.865,569.678,402.557" style="stroke:#A80036;stroke-width:1.0;"/><!--MD5=[6949940d570fa604284c61d29fe92a26]
link usantatecla.mastermind.controllers.RedoController to Session--><path codeLine="82" d="M623.146,841.462 C640.701,861.006 663.674,882.927 688.5,897 C746.314,929.7733 819.857,947.258 875.429,956.4165 " fill="none" id="usantatecla.mastermind.controllers.RedoController-to-Session" style="stroke:#A80036;stroke-width:1.0;stroke-dasharray:7.0,7.0;"/><polygon fill="#A80036" points="880.411,957.2232,872.1669,951.8348,875.4754,956.4232,870.887,959.7317,880.411,957.2232" style="stroke:#A80036;stroke-width:1.0;"/><!--MD5=[2264cd0d86bf15401f4cc8d2024044e5]
reverse link usantatecla.mastermind.controllers.AcceptorController to usantatecla.mastermind.controllers.ResumeController--><path codeLine="89" d="M742.858,252.772 C727.814,266.89 713.636,283.928 705.5,303 C676.141,371.821 687.788,461.14 698.76,512.865 " fill="none" id="usantatecla.mastermind.controllers.AcceptorController-backto-usantatecla.mastermind.controllers.ResumeController" style="stroke:#A80036;stroke-width:1.0;stroke-dasharray:7.0,7.0;"/><polygon fill="none" points="738.298,247.461,757.999,239.66,747.463,258.044,738.298,247.461" style="stroke:#A80036;stroke-width:1.0;"/><!--MD5=[933c3a87fb1e2f64e4c2436935a9c1c3]
reverse link usantatecla.mastermind.controllers.Controller to usantatecla.mastermind.controllers.ResumeController--><path codeLine="90" d="M615.137,400.453 C636.454,435.366 663.903,480.321 683.694,512.736 " fill="none" id="usantatecla.mastermind.controllers.Controller-backto-usantatecla.mastermind.controllers.ResumeController" style="stroke:#A80036;stroke-width:1.0;"/><polygon fill="none" points="609.07,403.948,604.622,383.231,621.019,396.653,609.07,403.948" style="stroke:#A80036;stroke-width:1.0;"/><!--MD5=[3af92274176a956758db217dff904abe]
link usantatecla.mastermind.controllers.ResumeController to Session--><path codeLine="92" d="M745.835,599.048 C765.542,620.107 791.205,644.903 817.5,663 C870.253,699.305 912.916,669.758 948.5,723 C989.776,784.759 978.563,876.42 967.516,927.7005 " fill="none" id="usantatecla.mastermind.controllers.ResumeController-to-Session" style="stroke:#A80036;stroke-width:1.0;stroke-dasharray:7.0,7.0;"/><polygon fill="#A80036" points="966.381,932.8383,972.2289,924.9136,967.46,927.9561,964.4174,923.1872,966.381,932.8383" style="stroke:#A80036;stroke-width:1.0;"/><!--MD5=[02047fc267f90dbff0ceeeb40ca60065]
reverse link usantatecla.mastermind.controllers.AcceptorController to usantatecla.mastermind.controllers.StartController--><path codeLine="99" d="M860.805,252.846 C875.965,267.044 890.54,284.107 899.5,303 C931.751,371.007 929.767,460.992 924.943,512.986 " fill="none" id="usantatecla.mastermind.controllers.AcceptorController-backto-usantatecla.mastermind.controllers.StartController" style="stroke:#A80036;stroke-width:1.0;stroke-dasharray:7.0,7.0;"/><polygon fill="none" points="856.124,258.052,845.635,239.64,865.316,247.492,856.124,258.052" style="stroke:#A80036;stroke-width:1.0;"/><!--MD5=[c885998b8df824bd1b8bf3ae6c5e9a62]
reverse link usantatecla.mastermind.controllers.Controller to usantatecla.mastermind.controllers.StartController--><path codeLine="100" d="M668.543,374.984 C714.971,392.325 771.931,417.35 817.5,449 C843.091,466.774 867.456,491.681 885.951,512.886 " fill="none" id="usantatecla.mastermind.controllers.Controller-backto-usantatecla.mastermind.controllers.StartController" style="stroke:#A80036;stroke-width:1.0;"/><polygon fill="none" points="666.095,381.543,649.682,368.142,670.87,368.382,666.095,381.543" style="stroke:#A80036;stroke-width:1.0;"/><!--MD5=[af330a5675265c8717d1c63023b47a90]
link usantatecla.mastermind.controllers.StartController to Session--><path codeLine="102" d="M953.719,599.053 C977.338,630.929 1006.706,676.969 1019.5,723 C1040.21,797.509 1047.18,824.789 1019.5,897 C1015.06,908.5793 1007.68,919.4353 999.538,928.9555 " fill="none" id="usantatecla.mastermind.controllers.StartController-to-Session" style="stroke:#A80036;stroke-width:1.0;stroke-dasharray:7.0,7.0;"/><polygon fill="#A80036" points="996.005,932.9521,1004.962,928.8567,999.3159,929.2054,998.9673,923.5593,996.005,932.9521" style="stroke:#A80036;stroke-width:1.0;"/><!--MD5=[08ab9648594bbb5d181ba39b960dc928]
reverse link usantatecla.mastermind.controllers.Controller to usantatecla.mastermind.controllers.UndoController--><path codeLine="109" d="M580.086,403.229 C577.676,481.903 577.262,620.027 601.5,663 C624.575,703.912 650.349,695.601 688.5,723 C702.705,733.202 717.899,744.408 732.013,754.945 " fill="none" id="usantatecla.mastermind.controllers.Controller-backto-usantatecla.mastermind.controllers.UndoController" style="stroke:#A80036;stroke-width:1.0;"/><polygon fill="none" points="573.091,402.952,580.781,383.207,587.083,403.438,573.091,402.952" style="stroke:#A80036;stroke-width:1.0;"/><!--MD5=[9cb27cffd757e6232e1deb30d45926dc]
link usantatecla.mastermind.controllers.UndoController to Session--><path codeLine="110" d="M830.398,841.141 C857.961,868.217 893.425,903.0561 919.886,929.05 " fill="none" id="usantatecla.mastermind.controllers.UndoController-to-Session" style="stroke:#A80036;stroke-width:1.0;stroke-dasharray:7.0,7.0;"/><polygon fill="#A80036" points="923.723,932.819,920.1042,923.6591,920.1555,929.3157,914.4989,929.367,923.723,932.819" style="stroke:#A80036;stroke-width:1.0;"/><!--MD5=[e5b2415fc417f0fea3d9b68e8063a380]
@startuml
abstract class Combination as "usantatecla.\nmastermind.models.\nCombination"
class Session as "usantatecla.\nmastermind.models.\nSession"
class StateValue as "usantatecla.\nmastermind.models.\nStateValue"
enum Color as "usantatecla.\nmastermind.types.\nColor"
enum Error as "usantatecla.\nmastermind.types.\nError"

interface  usantatecla.mastermind.controllers.AcceptorController{
    + accept(ControllersVisitor)
}
usantatecla.mastermind.controllers.AcceptorController .down.> usantatecla.mastermind.controllers.ControllersVisitor

class  usantatecla.mastermind.controllers.Controller{
    ~ Controller(Session)
    + getWidth(): int
}
usantatecla.mastermind.controllers.Controller *-down-> Session

interface  usantatecla.mastermind.controllers.ControllersVisitor{
    ~ visit(StartController)
    ~ visit(PlayController)
    ~ visit(ResumeController)
}
usantatecla.mastermind.controllers.ControllersVisitor .down.> usantatecla.mastermind.controllers.StartController
usantatecla.mastermind.controllers.ControllersVisitor .down.> usantatecla.mastermind.controllers.PlayController
usantatecla.mastermind.controllers.ControllersVisitor .down.> usantatecla.mastermind.controllers.ResumeController

class  usantatecla.mastermind.controllers.Logic{
    + Logic()
    + getController(): AcceptorController
}
usantatecla.mastermind.controllers.Logic *-down-> Session
usantatecla.mastermind.controllers.Logic *-down-> StateValue
usantatecla.mastermind.controllers.Logic *-down-> usantatecla.mastermind.controllers.AcceptorController

class  usantatecla.mastermind.controllers.PlayController{
    + PlayController(Session)
    + addProposeCombination(List<Color>): Error
    + undo()
    + redo()
    + undoable(): boolean
    + redoable(): boolean
    + isWinner(): boolean
    + isLooser(): boolean
    + getAttempts(): int
    + getColors(int): List<Color>
    + getBlacks(int): int
    + getWhites(int): int
    + accept(ControllersVisitor)
}
usantatecla.mastermind.controllers.AcceptorController <|.down. usantatecla.mastermind.controllers.PlayController
usantatecla.mastermind.controllers.Controller <|-down- usantatecla.mastermind.controllers.PlayController
usantatecla.mastermind.controllers.PlayController *-down-> usantatecla.mastermind.controllers.ProposalController
usantatecla.mastermind.controllers.PlayController *-down-> usantatecla.mastermind.controllers.UndoController
usantatecla.mastermind.controllers.PlayController *-down-> usantatecla.mastermind.controllers.RedoController
usantatecla.mastermind.controllers.PlayController .down.> usantatecla.mastermind.controllers.ControllersVisitor
usantatecla.mastermind.controllers.PlayController .down.> Session
usantatecla.mastermind.controllers.PlayController .down.> Color
usantatecla.mastermind.controllers.PlayController .down.> Error

class  usantatecla.mastermind.controllers.ProposalController{
    ~ ProposalController(Session)
    ~ addProposeCombination(List<Color>): Error
    ~ isWinner(): boolean
    ~ isLooser(): boolean
    ~ getAttempts(): int
    ~ getColors(int): List<Color>
    ~ getBlacks(int): int
    ~ getWhites(int): int
}
usantatecla.mastermind.controllers.Controller <|-down- usantatecla.mastermind.controllers.ProposalController
usantatecla.mastermind.controllers.ProposalController .down.> Session
usantatecla.mastermind.controllers.ProposalController .down.> Combination
usantatecla.mastermind.controllers.ProposalController .down.> Color
usantatecla.mastermind.controllers.ProposalController .down.> Error

class  usantatecla.mastermind.controllers.RedoController{
    ~ RedoController(Session)
    ~ redo()
    ~ redoable(): boolean
}
usantatecla.mastermind.controllers.Controller <|-down- usantatecla.mastermind.controllers.RedoController
usantatecla.mastermind.controllers.RedoController .down.> Session

class  usantatecla.mastermind.controllers.ResumeController{
    + ResumeController(Session)
    + resume(boolean)
    + accept(ControllersVisitor)
}
usantatecla.mastermind.controllers.AcceptorController <|.down. usantatecla.mastermind.controllers.ResumeController
usantatecla.mastermind.controllers.Controller <|-down- usantatecla.mastermind.controllers.ResumeController
usantatecla.mastermind.controllers.ResumeController .down.> usantatecla.mastermind.controllers.ControllersVisitor
usantatecla.mastermind.controllers.ResumeController .down.> Session

class  usantatecla.mastermind.controllers.StartController{
    + StartController(Session)
    + start()
    + accept(ControllersVisitor)
}
usantatecla.mastermind.controllers.AcceptorController <|.down. usantatecla.mastermind.controllers.StartController
usantatecla.mastermind.controllers.Controller <|-down- usantatecla.mastermind.controllers.StartController
usantatecla.mastermind.controllers.StartController .down.> usantatecla.mastermind.controllers.ControllersVisitor
usantatecla.mastermind.controllers.StartController .down.> Session

class  usantatecla.mastermind.controllers.UndoController{
    ~ UndoController(Session)
    ~ undo()
    ~ undoable(): boolean
}
usantatecla.mastermind.controllers.Controller <|-down- usantatecla.mastermind.controllers.UndoController
usantatecla.mastermind.controllers.UndoController .down.> Session
@enduml

PlantUML version 1.2020.23beta3(Unknown compile time)
(GPL source distribution)
Java Runtime: Java(TM) SE Runtime Environment
JVM: Java HotSpot(TM) 64-Bit Server VM
Default Encoding: UTF-8
Language: en
Country: US
--></g></svg>