<?xml version="1.0" encoding="UTF-8" standalone="no"?><svg xmlns="http://www.w3.org/2000/svg" xmlns:xlink="http://www.w3.org/1999/xlink" contentScriptType="application/ecmascript" contentStyleType="text/css" height="846px" preserveAspectRatio="none" style="width:831px;height:846px;" version="1.1" viewBox="0 0 831 846" width="831px" zoomAndPan="magnify"><defs><filter height="300%" id="fsg1jluw292i5" width="300%" x="-1" y="-1"><feGaussianBlur result="blurOut" stdDeviation="2.0"/><feColorMatrix in="blurOut" result="blurOut2" type="matrix" values="0 0 0 0 0 0 0 0 0 0 0 0 0 0 0 0 0 0 .4 0"/><feOffset dx="4.0" dy="4.0" in="blurOut2" result="blurOut3"/><feBlend in="SourceGraphic" in2="blurOut3" mode="normal"/></filter></defs><g><!--MD5=[908cbfa8709a8ec6ee3beb0409fea32c]
cluster usantatecla.utils--><polygon fill="#FFFFFF" filter="url(#fsg1jluw292i5)" points="16,6,162,6,169,28.2969,632,28.2969,632,839,16,839,16,6" style="stroke:#000000;stroke-width:1.5;"/><line style="stroke:#000000;stroke-width:1.5;" x1="16" x2="169" y1="28.2969" y2="28.2969"/><text fill="#000000" font-family="sans-serif" font-size="14" font-weight="bold" lengthAdjust="spacingAndGlyphs" textLength="140" x="20" y="20.9951">usantatecla.utils</text><!--MD5=[5f6eaca964039dd95284677bcb120bda]
class usantatecla.utils.ColorCode--><rect codeLine="3" fill="#FEFECE" filter="url(#fsg1jluw292i5)" height="188.8516" id="usantatecla.utils.ColorCode" style="stroke:#A80036;stroke-width:1.5;" width="183" x="432.5" y="41"/><ellipse cx="487.75" cy="57" fill="#EB937F" rx="11" ry="11" style="stroke:#A80036;stroke-width:1.0;"/><path d="M486.5469,57.875 L488,57.875 L488,57.9844 C488,58.3906 488.0313,58.5469 488.1094,58.7031 C488.2656,58.9531 488.5469,59.1094 488.8438,59.1094 C489.0938,59.1094 489.3594,58.9688 489.5156,58.75 C489.6406,58.5938 489.6719,58.4375 489.6719,57.9844 L489.6719,56.0625 C489.6719,55.9063 489.6719,55.8594 489.6563,55.7031 C489.5938,55.2344 489.2813,54.9219 488.8281,54.9219 C488.5781,54.9219 488.3125,55.0625 488.1406,55.2813 C488.0313,55.4531 488,55.6094 488,56.0625 L488,56.1875 L486.5469,56.1875 L486.5469,53.7813 L490.5313,53.7813 L490.5313,54.6406 C490.5313,55.0469 490.5625,55.2188 490.6406,55.375 C490.8125,55.625 491.0938,55.7813 491.375,55.7813 C491.6406,55.7813 491.9063,55.6406 492.0781,55.4219 C492.1875,55.25 492.2188,55.1094 492.2188,54.6406 L492.2188,52.0938 L484.5938,52.0938 C484.1563,52.0938 484.0313,52.1094 483.875,52.2031 C483.625,52.3594 483.4688,52.6563 483.4688,52.9375 C483.4688,53.2188 483.6094,53.4688 483.8281,53.6406 C483.9844,53.75 484.1719,53.7813 484.5938,53.7813 L484.8438,53.7813 L484.8438,60.2969 L484.5938,60.2969 C484.1875,60.2969 484.0313,60.3125 483.875,60.4219 C483.625,60.5938 483.4688,60.8594 483.4688,61.1563 C483.4688,61.4219 483.6094,61.6719 483.8281,61.8281 C483.9688,61.9531 484.2031,62 484.5938,62 L492.5938,62 L492.5938,59.4219 C492.5938,58.9844 492.5625,58.8438 492.4844,58.6875 C492.3125,58.4375 492.0313,58.2813 491.75,58.2813 C491.4844,58.2813 491.2188,58.3906 491.0469,58.6406 C490.9375,58.7969 490.9063,58.9375 490.9063,59.4219 L490.9063,60.2969 L486.5469,60.2969 L486.5469,57.875 Z " fill="#000000"/><text fill="#000000" font-family="sans-serif" font-size="12" lengthAdjust="spacingAndGlyphs" textLength="64" x="508.25" y="61.1543">ColorCode</text><line style="stroke:#A80036;stroke-width:1.5;" x1="433.5" x2="614.5" y1="73" y2="73"/><ellipse cx="443.5" cy="84" fill="none" rx="3" ry="3" style="stroke:#038048;stroke-width:1.0;"/><text fill="#000000" font-family="sans-serif" font-size="11" lengthAdjust="spacingAndGlyphs" textLength="23" x="452.5" y="87.2104">RED</text><ellipse cx="443.5" cy="96.8047" fill="none" rx="3" ry="3" style="stroke:#038048;stroke-width:1.0;"/><text fill="#000000" font-family="sans-serif" font-size="11" lengthAdjust="spacingAndGlyphs" textLength="29" x="452.5" y="100.0151">BLUE</text><ellipse cx="443.5" cy="109.6094" fill="none" rx="3" ry="3" style="stroke:#038048;stroke-width:1.0;"/><text fill="#000000" font-family="sans-serif" font-size="11" lengthAdjust="spacingAndGlyphs" textLength="46" x="452.5" y="112.8198">YELLOW</text><ellipse cx="443.5" cy="122.4141" fill="none" rx="3" ry="3" style="stroke:#038048;stroke-width:1.0;"/><text fill="#000000" font-family="sans-serif" font-size="11" lengthAdjust="spacingAndGlyphs" textLength="38" x="452.5" y="125.6245">GREEN</text><ellipse cx="443.5" cy="135.2188" fill="none" rx="3" ry="3" style="stroke:#038048;stroke-width:1.0;"/><text fill="#000000" font-family="sans-serif" font-size="11" lengthAdjust="spacingAndGlyphs" textLength="48" x="452.5" y="138.4292">ORANGE</text><ellipse cx="443.5" cy="148.0234" fill="none" rx="3" ry="3" style="stroke:#038048;stroke-width:1.0;"/><text fill="#000000" font-family="sans-serif" font-size="11" lengthAdjust="spacingAndGlyphs" textLength="40" x="452.5" y="151.2339">PURPLE</text><ellipse cx="443.5" cy="160.8281" fill="none" rx="3" ry="3" style="stroke:#038048;stroke-width:1.0;"/><text fill="#000000" font-family="sans-serif" font-size="11" lengthAdjust="spacingAndGlyphs" textLength="81" x="452.5" y="164.0386">RESET_COLOR</text><rect fill="none" height="6" style="stroke:#C82930;stroke-width:1.0;" width="6" x="440.5" y="170.6328"/><text fill="#000000" font-family="sans-serif" font-size="11" lengthAdjust="spacingAndGlyphs" textLength="67" x="452.5" y="176.8433">color: String</text><line style="stroke:#A80036;stroke-width:1.5;" x1="433.5" x2="614.5" y1="183.4375" y2="183.4375"/><polygon fill="#4177AF" points="443.5,190.4375,439.5,196.4375,447.5,196.4375" style="stroke:#1963A0;stroke-width:1.0;"/><text fill="#000000" font-family="sans-serif" font-size="11" lengthAdjust="spacingAndGlyphs" textLength="100" x="452.5" y="197.6479">ColorCode(String)</text><ellipse cx="443.5" cy="207.2422" fill="#84BE84" rx="3" ry="3" style="stroke:#038048;stroke-width:1.0;"/><text fill="#000000" font-family="sans-serif" font-size="11" lengthAdjust="spacingAndGlyphs" textLength="96" x="452.5" y="210.4526">getColor(): String</text><ellipse cx="443.5" cy="220.0469" fill="#84BE84" rx="3" ry="3" style="stroke:#038048;stroke-width:1.0;"/><text fill="#000000" font-family="sans-serif" font-size="11" lengthAdjust="spacingAndGlyphs" text-decoration="underline" textLength="157" x="452.5" y="223.2573">getColorByIndex(int): String</text><!--MD5=[5a5a2ad444bc00c1498d76ebf80a1dc4]
class usantatecla.utils.Console--><rect codeLine="17" fill="#FEFECE" filter="url(#fsg1jluw292i5)" height="188.8516" id="usantatecla.utils.Console" style="stroke:#A80036;stroke-width:1.5;" width="166" x="337" y="290"/><ellipse cx="391.25" cy="306" fill="#ADD1B2" rx="11" ry="11" style="stroke:#A80036;stroke-width:1.0;"/><path d="M393.5938,301.6719 C392.6563,301.2344 392.0625,301.0938 391.1875,301.0938 C388.5625,301.0938 386.5625,303.1719 386.5625,305.8906 L386.5625,307.0156 C386.5625,309.5938 388.6719,311.4844 391.5625,311.4844 C392.7813,311.4844 393.9375,311.1875 394.6875,310.6406 C395.2656,310.2344 395.5938,309.7813 395.5938,309.3906 C395.5938,308.9375 395.2031,308.5469 394.7344,308.5469 C394.5156,308.5469 394.3125,308.625 394.125,308.8125 C393.6719,309.2969 393.6719,309.2969 393.4844,309.3906 C393.0625,309.6563 392.375,309.7813 391.6094,309.7813 C389.5625,309.7813 388.2656,308.6875 388.2656,306.9844 L388.2656,305.8906 C388.2656,304.1094 389.5156,302.7969 391.25,302.7969 C391.8281,302.7969 392.4375,302.9531 392.9063,303.2031 C393.3906,303.4844 393.5625,303.7031 393.6563,304.1094 C393.7188,304.5156 393.75,304.6406 393.8906,304.7656 C394.0313,304.9063 394.2656,305.0156 394.4844,305.0156 C394.75,305.0156 395.0156,304.875 395.1875,304.6563 C395.2969,304.5 395.3281,304.3125 395.3281,303.8906 L395.3281,302.4688 C395.3281,302.0313 395.3125,301.9063 395.2188,301.75 C395.0625,301.4844 394.7813,301.3438 394.4844,301.3438 C394.1875,301.3438 393.9844,301.4375 393.7656,301.75 L393.5938,301.6719 Z " fill="#000000"/><text fill="#000000" font-family="sans-serif" font-size="12" lengthAdjust="spacingAndGlyphs" textLength="49" x="411.75" y="310.1543">Console</text><line style="stroke:#A80036;stroke-width:1.5;" x1="338" x2="502" y1="322" y2="322"/><rect fill="none" height="6" style="stroke:#C82930;stroke-width:1.0;" width="6" x="345" y="330"/><text fill="#000000" font-family="sans-serif" font-size="11" lengthAdjust="spacingAndGlyphs" text-decoration="underline" textLength="97" x="357" y="336.2104">console: Console</text><line style="stroke:#A80036;stroke-width:1.5;" x1="338" x2="502" y1="342.8047" y2="342.8047"/><ellipse cx="348" cy="353.8047" fill="#84BE84" rx="3" ry="3" style="stroke:#038048;stroke-width:1.0;"/><text fill="#000000" font-family="sans-serif" font-size="11" lengthAdjust="spacingAndGlyphs" text-decoration="underline" textLength="128" x="357" y="357.0151">getInstance(): Console</text><ellipse cx="348" cy="366.6094" fill="#84BE84" rx="3" ry="3" style="stroke:#038048;stroke-width:1.0;"/><text fill="#000000" font-family="sans-serif" font-size="11" lengthAdjust="spacingAndGlyphs" textLength="140" x="357" y="369.8198">readString(String): String</text><ellipse cx="348" cy="379.4141" fill="#84BE84" rx="3" ry="3" style="stroke:#038048;stroke-width:1.0;"/><text fill="#000000" font-family="sans-serif" font-size="11" lengthAdjust="spacingAndGlyphs" textLength="107" x="357" y="382.6245">readString(): String</text><ellipse cx="348" cy="392.2188" fill="#84BE84" rx="3" ry="3" style="stroke:#038048;stroke-width:1.0;"/><text fill="#000000" font-family="sans-serif" font-size="11" lengthAdjust="spacingAndGlyphs" textLength="102" x="357" y="395.4292">readInt(String): int</text><ellipse cx="348" cy="405.0234" fill="#84BE84" rx="3" ry="3" style="stroke:#038048;stroke-width:1.0;"/><text fill="#000000" font-family="sans-serif" font-size="11" lengthAdjust="spacingAndGlyphs" textLength="124" x="357" y="408.2339">readChar(String): char</text><ellipse cx="348" cy="417.8281" fill="#84BE84" rx="3" ry="3" style="stroke:#038048;stroke-width:1.0;"/><text fill="#000000" font-family="sans-serif" font-size="11" lengthAdjust="spacingAndGlyphs" textLength="46" x="357" y="421.0386">writeln()</text><ellipse cx="348" cy="430.6328" fill="#84BE84" rx="3" ry="3" style="stroke:#038048;stroke-width:1.0;"/><text fill="#000000" font-family="sans-serif" font-size="11" lengthAdjust="spacingAndGlyphs" textLength="69" x="357" y="433.8433">write(String)</text><ellipse cx="348" cy="443.4375" fill="#84BE84" rx="3" ry="3" style="stroke:#038048;stroke-width:1.0;"/><text fill="#000000" font-family="sans-serif" font-size="11" lengthAdjust="spacingAndGlyphs" textLength="79" x="357" y="446.6479">writeln(String)</text><ellipse cx="348" cy="456.2422" fill="#84BE84" rx="3" ry="3" style="stroke:#038048;stroke-width:1.0;"/><text fill="#000000" font-family="sans-serif" font-size="11" lengthAdjust="spacingAndGlyphs" textLength="60" x="357" y="459.4526">write(char)</text><rect fill="#F24D5C" height="6" style="stroke:#C82930;stroke-width:1.0;" width="6" x="345" y="466.0469"/><text fill="#000000" font-family="sans-serif" font-size="11" lengthAdjust="spacingAndGlyphs" textLength="95" x="357" y="472.2573">writeError(String)</text><!--MD5=[115031fed92a4467bd358dd9ee6729dd]
class usantatecla.utils.YesNoDialog--><rect codeLine="32" fill="#FEFECE" filter="url(#fsg1jluw292i5)" height="150.4375" id="usantatecla.utils.YesNoDialog" style="stroke:#A80036;stroke-width:1.5;" width="179" x="218.5" y="60.5"/><ellipse cx="265.75" cy="76.5" fill="#ADD1B2" rx="11" ry="11" style="stroke:#A80036;stroke-width:1.0;"/><path d="M268.0938,72.1719 C267.1563,71.7344 266.5625,71.5938 265.6875,71.5938 C263.0625,71.5938 261.0625,73.6719 261.0625,76.3906 L261.0625,77.5156 C261.0625,80.0938 263.1719,81.9844 266.0625,81.9844 C267.2813,81.9844 268.4375,81.6875 269.1875,81.1406 C269.7656,80.7344 270.0938,80.2813 270.0938,79.8906 C270.0938,79.4375 269.7031,79.0469 269.2344,79.0469 C269.0156,79.0469 268.8125,79.125 268.625,79.3125 C268.1719,79.7969 268.1719,79.7969 267.9844,79.8906 C267.5625,80.1563 266.875,80.2813 266.1094,80.2813 C264.0625,80.2813 262.7656,79.1875 262.7656,77.4844 L262.7656,76.3906 C262.7656,74.6094 264.0156,73.2969 265.75,73.2969 C266.3281,73.2969 266.9375,73.4531 267.4063,73.7031 C267.8906,73.9844 268.0625,74.2031 268.1563,74.6094 C268.2188,75.0156 268.25,75.1406 268.3906,75.2656 C268.5313,75.4063 268.7656,75.5156 268.9844,75.5156 C269.25,75.5156 269.5156,75.375 269.6875,75.1563 C269.7969,75 269.8281,74.8125 269.8281,74.3906 L269.8281,72.9688 C269.8281,72.5313 269.8125,72.4063 269.7188,72.25 C269.5625,71.9844 269.2813,71.8438 268.9844,71.8438 C268.6875,71.8438 268.4844,71.9375 268.2656,72.25 L268.0938,72.1719 Z " fill="#000000"/><text fill="#000000" font-family="sans-serif" font-size="12" lengthAdjust="spacingAndGlyphs" textLength="76" x="286.25" y="80.6543">YesNoDialog</text><line style="stroke:#A80036;stroke-width:1.5;" x1="219.5" x2="396.5" y1="92.5" y2="92.5"/><rect fill="none" height="6" style="stroke:#C82930;stroke-width:1.0;" width="6" x="226.5" y="100.5"/><text fill="#000000" font-family="sans-serif" font-size="11" lengthAdjust="spacingAndGlyphs" text-decoration="underline" textLength="97" x="238.5" y="106.7104">AFIRMATIVE: char</text><rect fill="none" height="6" style="stroke:#C82930;stroke-width:1.0;" width="6" x="226.5" y="113.3047"/><text fill="#000000" font-family="sans-serif" font-size="11" lengthAdjust="spacingAndGlyphs" text-decoration="underline" textLength="88" x="238.5" y="119.5151">NEGATIVE: char</text><rect fill="none" height="6" style="stroke:#C82930;stroke-width:1.0;" width="6" x="226.5" y="126.1094"/><text fill="#000000" font-family="sans-serif" font-size="11" lengthAdjust="spacingAndGlyphs" text-decoration="underline" textLength="99" x="238.5" y="132.3198">QUESTION: String</text><rect fill="none" height="6" style="stroke:#C82930;stroke-width:1.0;" width="6" x="226.5" y="138.9141"/><text fill="#000000" font-family="sans-serif" font-size="11" lengthAdjust="spacingAndGlyphs" text-decoration="underline" textLength="96" x="238.5" y="145.1245">MESSAGE: String</text><line style="stroke:#A80036;stroke-width:1.5;" x1="219.5" x2="396.5" y1="151.7188" y2="151.7188"/><ellipse cx="229.5" cy="162.7188" fill="#84BE84" rx="3" ry="3" style="stroke:#038048;stroke-width:1.0;"/><text fill="#000000" font-family="sans-serif" font-size="11" lengthAdjust="spacingAndGlyphs" textLength="80" x="238.5" y="165.9292">YesNoDialog()</text><ellipse cx="229.5" cy="175.5234" fill="#84BE84" rx="3" ry="3" style="stroke:#038048;stroke-width:1.0;"/><text fill="#000000" font-family="sans-serif" font-size="11" lengthAdjust="spacingAndGlyphs" textLength="120" x="238.5" y="178.7339">read(String): boolean</text><rect fill="#F24D5C" height="6" style="stroke:#C82930;stroke-width:1.0;" width="6" x="226.5" y="185.3281"/><text fill="#000000" font-family="sans-serif" font-size="11" lengthAdjust="spacingAndGlyphs" text-decoration="underline" textLength="153" x="238.5" y="191.5386">isAfirmative(char): boolean</text><rect fill="#F24D5C" height="6" style="stroke:#C82930;stroke-width:1.0;" width="6" x="226.5" y="198.1328"/><text fill="#000000" font-family="sans-serif" font-size="11" lengthAdjust="spacingAndGlyphs" text-decoration="underline" textLength="146" x="238.5" y="204.3433">isNegative(char): boolean</text><!--MD5=[b0b725b3db639de93c4e5e8714f3aefc]
class usantatecla.utils.ClosedInterval--><rect codeLine="44" fill="#FEFECE" filter="url(#fsg1jluw292i5)" height="99.2188" id="usantatecla.utils.ClosedInterval" style="stroke:#A80036;stroke-width:1.5;" width="151" x="32.5" y="86"/><ellipse cx="62.35" cy="102" fill="#ADD1B2" rx="11" ry="11" style="stroke:#A80036;stroke-width:1.0;"/><path d="M64.6938,97.6719 C63.7563,97.2344 63.1625,97.0938 62.2875,97.0938 C59.6625,97.0938 57.6625,99.1719 57.6625,101.8906 L57.6625,103.0156 C57.6625,105.5938 59.7719,107.4844 62.6625,107.4844 C63.8813,107.4844 65.0375,107.1875 65.7875,106.6406 C66.3656,106.2344 66.6938,105.7813 66.6938,105.3906 C66.6938,104.9375 66.3031,104.5469 65.8344,104.5469 C65.6156,104.5469 65.4125,104.625 65.225,104.8125 C64.7719,105.2969 64.7719,105.2969 64.5844,105.3906 C64.1625,105.6563 63.475,105.7813 62.7094,105.7813 C60.6625,105.7813 59.3656,104.6875 59.3656,102.9844 L59.3656,101.8906 C59.3656,100.1094 60.6156,98.7969 62.35,98.7969 C62.9281,98.7969 63.5375,98.9531 64.0063,99.2031 C64.4906,99.4844 64.6625,99.7031 64.7563,100.1094 C64.8188,100.5156 64.85,100.6406 64.9906,100.7656 C65.1313,100.9063 65.3656,101.0156 65.5844,101.0156 C65.85,101.0156 66.1156,100.875 66.2875,100.6563 C66.3969,100.5 66.4281,100.3125 66.4281,99.8906 L66.4281,98.4688 C66.4281,98.0313 66.4125,97.9063 66.3188,97.75 C66.1625,97.4844 65.8813,97.3438 65.5844,97.3438 C65.2875,97.3438 65.0844,97.4375 64.8656,97.75 L64.6938,97.6719 Z " fill="#000000"/><text fill="#000000" font-family="sans-serif" font-size="12" lengthAdjust="spacingAndGlyphs" textLength="86" x="79.65" y="106.1543">ClosedInterval</text><line style="stroke:#A80036;stroke-width:1.5;" x1="33.5" x2="182.5" y1="118" y2="118"/><rect fill="none" height="6" style="stroke:#C82930;stroke-width:1.0;" width="6" x="40.5" y="126"/><text fill="#000000" font-family="sans-serif" font-size="11" lengthAdjust="spacingAndGlyphs" textLength="42" x="52.5" y="132.2104">min: int</text><rect fill="none" height="6" style="stroke:#C82930;stroke-width:1.0;" width="6" x="40.5" y="138.8047"/><text fill="#000000" font-family="sans-serif" font-size="11" lengthAdjust="spacingAndGlyphs" textLength="46" x="52.5" y="145.0151">max: int</text><line style="stroke:#A80036;stroke-width:1.5;" x1="33.5" x2="182.5" y1="151.6094" y2="151.6094"/><ellipse cx="43.5" cy="162.6094" fill="#84BE84" rx="3" ry="3" style="stroke:#038048;stroke-width:1.0;"/><text fill="#000000" font-family="sans-serif" font-size="11" lengthAdjust="spacingAndGlyphs" textLength="125" x="52.5" y="165.8198">ClosedInterval(int, int)</text><ellipse cx="43.5" cy="175.4141" fill="#84BE84" rx="3" ry="3" style="stroke:#038048;stroke-width:1.0;"/><text fill="#000000" font-family="sans-serif" font-size="11" lengthAdjust="spacingAndGlyphs" textLength="122" x="52.5" y="178.6245">includes(int): boolean</text><!--MD5=[2ff24773f9ecf34307231bd9c286b014]
class usantatecla.utils.Command--><rect codeLine="51" fill="#FEFECE" filter="url(#fsg1jluw292i5)" height="112.0234" id="usantatecla.utils.Command" style="stroke:#A80036;stroke-width:1.5;" width="131" x="354.5" y="711"/><ellipse cx="386.15" cy="727" fill="#A9DCDF" rx="11" ry="11" style="stroke:#A80036;stroke-width:1.0;"/><path d="M388.2281,728.8125 L388.6188,729.7969 L388.2281,729.7969 C387.775,729.7969 387.6656,729.8125 387.5094,729.9219 C387.2594,730.0781 387.1031,730.3594 387.1031,730.6563 C387.1031,730.9219 387.2438,731.1719 387.4625,731.3281 C387.6031,731.4531 387.8063,731.5 388.2281,731.5 L390.5875,731.5 C390.9469,731.5 391.1656,731.4688 391.3063,731.375 C391.5563,731.2344 391.7125,730.9375 391.7125,730.6563 C391.7125,730.375 391.5719,730.125 391.3531,729.9688 C391.1813,729.8281 391.025,729.7969 390.5563,729.7969 L387.1656,721.5938 L383.4938,721.5938 C383.0406,721.5938 382.9156,721.6094 382.7594,721.7031 C382.5094,721.875 382.3531,722.1563 382.3531,722.4375 C382.3531,722.7188 382.4938,722.9688 382.7125,723.1406 C382.8844,723.25 383.0563,723.2813 383.4938,723.2813 L384.5719,723.2813 L381.9313,729.7969 C381.5094,729.7969 381.3531,729.8125 381.1969,729.9219 C380.9469,730.0781 380.7906,730.3594 380.7906,730.6563 C380.7906,731.2188 381.1656,731.5 381.9156,731.5 L384.1813,731.5 C384.5406,731.5 384.7594,731.4688 384.8844,731.375 C385.15,731.2344 385.2906,730.9375 385.2906,730.6563 C385.2906,730.375 385.1656,730.125 384.9469,729.9531 C384.775,729.8281 384.6344,729.7969 384.1813,729.7969 L383.7906,729.7969 L384.1813,728.8125 L388.2281,728.8125 Z M387.525,727.1094 L384.8531,727.1094 L386.1969,723.8438 L387.525,727.1094 Z " fill="#000000"/><text fill="#000000" font-family="sans-serif" font-size="12" font-style="italic" lengthAdjust="spacingAndGlyphs" textLength="62" x="403.85" y="731.1543">Command</text><line style="stroke:#A80036;stroke-width:1.5;" x1="355.5" x2="484.5" y1="743" y2="743"/><polygon fill="none" points="365.5,749,369.5,753,365.5,757,361.5,753" style="stroke:#B38D22;stroke-width:1.0;"/><text fill="#000000" font-family="sans-serif" font-size="11" lengthAdjust="spacingAndGlyphs" textLength="62" x="374.5" y="757.2104">title: String</text><line style="stroke:#A80036;stroke-width:1.5;" x1="355.5" x2="484.5" y1="763.8047" y2="763.8047"/><polygon fill="#FFFF44" points="365.5,769.8047,369.5,773.8047,365.5,777.8047,361.5,773.8047" style="stroke:#B38D22;stroke-width:1.0;"/><text fill="#000000" font-family="sans-serif" font-size="11" lengthAdjust="spacingAndGlyphs" textLength="99" x="374.5" y="778.0151">Command(String)</text><polygon fill="#FFFF44" points="365.5,782.6094,369.5,786.6094,365.5,790.6094,361.5,786.6094" style="stroke:#B38D22;stroke-width:1.0;"/><text fill="#000000" font-family="sans-serif" font-size="11" font-style="italic" lengthAdjust="spacingAndGlyphs" textLength="53" x="374.5" y="790.8198">execute()</text><polygon fill="#FFFF44" points="365.5,795.4141,369.5,799.4141,365.5,803.4141,361.5,799.4141" style="stroke:#B38D22;stroke-width:1.0;"/><text fill="#000000" font-family="sans-serif" font-size="11" font-style="italic" lengthAdjust="spacingAndGlyphs" textLength="105" x="374.5" y="803.6245">isActive(): boolean</text><polygon fill="#4177AF" points="365.5,809.2188,361.5,815.2188,369.5,815.2188" style="stroke:#1963A0;stroke-width:1.0;"/><text fill="#000000" font-family="sans-serif" font-size="11" lengthAdjust="spacingAndGlyphs" textLength="92" x="374.5" y="816.4292">getTitle(): String</text><!--MD5=[400f0a551c807dfb779cbf26cfa29e33]
class usantatecla.utils.Menu--><rect codeLine="60" fill="#FEFECE" filter="url(#fsg1jluw292i5)" height="112.0234" id="usantatecla.utils.Menu" style="stroke:#A80036;stroke-width:1.5;" width="233" x="380.5" y="539"/><ellipse cx="476.25" cy="555" fill="#A9DCDF" rx="11" ry="11" style="stroke:#A80036;stroke-width:1.0;"/><path d="M478.3281,556.8125 L478.7188,557.7969 L478.3281,557.7969 C477.875,557.7969 477.7656,557.8125 477.6094,557.9219 C477.3594,558.0781 477.2031,558.3594 477.2031,558.6563 C477.2031,558.9219 477.3438,559.1719 477.5625,559.3281 C477.7031,559.4531 477.9063,559.5 478.3281,559.5 L480.6875,559.5 C481.0469,559.5 481.2656,559.4688 481.4063,559.375 C481.6563,559.2344 481.8125,558.9375 481.8125,558.6563 C481.8125,558.375 481.6719,558.125 481.4531,557.9688 C481.2813,557.8281 481.125,557.7969 480.6563,557.7969 L477.2656,549.5938 L473.5938,549.5938 C473.1406,549.5938 473.0156,549.6094 472.8594,549.7031 C472.6094,549.875 472.4531,550.1563 472.4531,550.4375 C472.4531,550.7188 472.5938,550.9688 472.8125,551.1406 C472.9844,551.25 473.1563,551.2813 473.5938,551.2813 L474.6719,551.2813 L472.0313,557.7969 C471.6094,557.7969 471.4531,557.8125 471.2969,557.9219 C471.0469,558.0781 470.8906,558.3594 470.8906,558.6563 C470.8906,559.2188 471.2656,559.5 472.0156,559.5 L474.2813,559.5 C474.6406,559.5 474.8594,559.4688 474.9844,559.375 C475.25,559.2344 475.3906,558.9375 475.3906,558.6563 C475.3906,558.375 475.2656,558.125 475.0469,557.9531 C474.875,557.8281 474.7344,557.7969 474.2813,557.7969 L473.8906,557.7969 L474.2813,556.8125 L478.3281,556.8125 Z M477.625,555.1094 L474.9531,555.1094 L476.2969,551.8438 L477.625,555.1094 Z " fill="#000000"/><text fill="#000000" font-family="sans-serif" font-size="12" font-style="italic" lengthAdjust="spacingAndGlyphs" textLength="33" x="496.75" y="559.1543">Menu</text><line style="stroke:#A80036;stroke-width:1.5;" x1="381.5" x2="612.5" y1="571" y2="571"/><rect fill="none" height="6" style="stroke:#C82930;stroke-width:1.0;" width="6" x="388.5" y="579"/><text fill="#000000" font-family="sans-serif" font-size="11" lengthAdjust="spacingAndGlyphs" text-decoration="underline" textLength="82" x="400.5" y="585.2104">OPTION: String</text><rect fill="none" height="6" style="stroke:#C82930;stroke-width:1.0;" width="6" x="388.5" y="591.8047"/><text fill="#000000" font-family="sans-serif" font-size="11" lengthAdjust="spacingAndGlyphs" textLength="207" x="400.5" y="598.0151">commandList: ArrayList&lt;Command&gt;</text><line style="stroke:#A80036;stroke-width:1.5;" x1="381.5" x2="612.5" y1="604.6094" y2="604.6094"/><ellipse cx="391.5" cy="615.6094" fill="#84BE84" rx="3" ry="3" style="stroke:#038048;stroke-width:1.0;"/><text fill="#000000" font-family="sans-serif" font-size="11" lengthAdjust="spacingAndGlyphs" textLength="39" x="400.5" y="618.8198">Menu()</text><ellipse cx="391.5" cy="628.4141" fill="#84BE84" rx="3" ry="3" style="stroke:#038048;stroke-width:1.0;"/><text fill="#000000" font-family="sans-serif" font-size="11" lengthAdjust="spacingAndGlyphs" textLength="56" x="400.5" y="631.6245">execute()</text><polygon fill="#FFFF44" points="391.5,636.2188,395.5,640.2188,391.5,644.2188,387.5,640.2188" style="stroke:#B38D22;stroke-width:1.0;"/><text fill="#000000" font-family="sans-serif" font-size="11" lengthAdjust="spacingAndGlyphs" textLength="145" x="400.5" y="644.4292">addCommand(Command)</text><!--MD5=[ee4f8f5c2b5eaa5df2ba8c0614cd4e83]
class BufferedReader--><rect codeLine="1" fill="#FEFECE" filter="url(#fsg1jluw292i5)" height="48" id="BufferedReader" style="stroke:#A80036;stroke-width:1.5;" width="168" x="649" y="571"/><ellipse cx="664" cy="587" fill="#ADD1B2" rx="11" ry="11" style="stroke:#A80036;stroke-width:1.0;"/><path d="M666.3438,582.6719 C665.4063,582.2344 664.8125,582.0938 663.9375,582.0938 C661.3125,582.0938 659.3125,584.1719 659.3125,586.8906 L659.3125,588.0156 C659.3125,590.5938 661.4219,592.4844 664.3125,592.4844 C665.5313,592.4844 666.6875,592.1875 667.4375,591.6406 C668.0156,591.2344 668.3438,590.7813 668.3438,590.3906 C668.3438,589.9375 667.9531,589.5469 667.4844,589.5469 C667.2656,589.5469 667.0625,589.625 666.875,589.8125 C666.4219,590.2969 666.4219,590.2969 666.2344,590.3906 C665.8125,590.6563 665.125,590.7813 664.3594,590.7813 C662.3125,590.7813 661.0156,589.6875 661.0156,587.9844 L661.0156,586.8906 C661.0156,585.1094 662.2656,583.7969 664,583.7969 C664.5781,583.7969 665.1875,583.9531 665.6563,584.2031 C666.1406,584.4844 666.3125,584.7031 666.4063,585.1094 C666.4688,585.5156 666.5,585.6406 666.6406,585.7656 C666.7813,585.9063 667.0156,586.0156 667.2344,586.0156 C667.5,586.0156 667.7656,585.875 667.9375,585.6563 C668.0469,585.5 668.0781,585.3125 668.0781,584.8906 L668.0781,583.4688 C668.0781,583.0313 668.0625,582.9063 667.9688,582.75 C667.8125,582.4844 667.5313,582.3438 667.2344,582.3438 C666.9375,582.3438 666.7344,582.4375 666.5156,582.75 L666.3438,582.6719 Z " fill="#000000"/><text fill="#000000" font-family="sans-serif" font-size="12" lengthAdjust="spacingAndGlyphs" textLength="136" x="678" y="591.1543">java.io.BufferedReader</text><line style="stroke:#A80036;stroke-width:1.5;" x1="650" x2="816" y1="603" y2="603"/><line style="stroke:#A80036;stroke-width:1.5;" x1="650" x2="816" y1="611" y2="611"/><!--MD5=[ab8871ed637f40707b866ba6597734bc]
class ArrayList--><rect codeLine="2" fill="#FEFECE" filter="url(#fsg1jluw292i5)" height="48" id="ArrayList" style="stroke:#A80036;stroke-width:1.5;" width="131" x="648.5" y="743"/><ellipse cx="663.5" cy="759" fill="#ADD1B2" rx="11" ry="11" style="stroke:#A80036;stroke-width:1.0;"/><path d="M665.8438,754.6719 C664.9063,754.2344 664.3125,754.0938 663.4375,754.0938 C660.8125,754.0938 658.8125,756.1719 658.8125,758.8906 L658.8125,760.0156 C658.8125,762.5938 660.9219,764.4844 663.8125,764.4844 C665.0313,764.4844 666.1875,764.1875 666.9375,763.6406 C667.5156,763.2344 667.8438,762.7813 667.8438,762.3906 C667.8438,761.9375 667.4531,761.5469 666.9844,761.5469 C666.7656,761.5469 666.5625,761.625 666.375,761.8125 C665.9219,762.2969 665.9219,762.2969 665.7344,762.3906 C665.3125,762.6563 664.625,762.7813 663.8594,762.7813 C661.8125,762.7813 660.5156,761.6875 660.5156,759.9844 L660.5156,758.8906 C660.5156,757.1094 661.7656,755.7969 663.5,755.7969 C664.0781,755.7969 664.6875,755.9531 665.1563,756.2031 C665.6406,756.4844 665.8125,756.7031 665.9063,757.1094 C665.9688,757.5156 666,757.6406 666.1406,757.7656 C666.2813,757.9063 666.5156,758.0156 666.7344,758.0156 C667,758.0156 667.2656,757.875 667.4375,757.6563 C667.5469,757.5 667.5781,757.3125 667.5781,756.8906 L667.5781,755.4688 C667.5781,755.0313 667.5625,754.9063 667.4688,754.75 C667.3125,754.4844 667.0313,754.3438 666.7344,754.3438 C666.4375,754.3438 666.2344,754.4375 666.0156,754.75 L665.8438,754.6719 Z " fill="#000000"/><text fill="#000000" font-family="sans-serif" font-size="12" lengthAdjust="spacingAndGlyphs" textLength="99" x="677.5" y="763.1543">java.util.ArrayList</text><line style="stroke:#A80036;stroke-width:1.5;" x1="649.5" x2="778.5" y1="775" y2="775"/><line style="stroke:#A80036;stroke-width:1.5;" x1="649.5" x2="778.5" y1="783" y2="783"/><!--MD5=[14426ff67e875e6661b88179367ed759]
link usantatecla.utils.Console to BufferedReader--><path codeLine="30" d="M513.0432,447.4794 C513.0432,447.4794 642.15,533.482 687.411,563.631 " fill="none" id="usantatecla.utils.Console-BufferedReader" style="stroke:#A80036;stroke-width:1.0;"/><polygon fill="#A80036" points="698.345,570.915,693.0721,562.5966,694.1837,568.1431,688.6371,569.2547,698.345,570.915" style="stroke:#A80036;stroke-width:1.0;"/><line style="stroke:#A80036;stroke-width:1.0;" x1="694.1837" x2="687.5255" y1="568.1431" y2="563.708"/><polygon fill="#A80036" points="503.056,440.827,505.8321,447.4823,513.0432,447.4794,510.2671,440.8241,503.056,440.827" style="stroke:#A80036;stroke-width:1.0;"/><!--MD5=[bef9209ee563bd0cab945b38e8120dbd]
link usantatecla.utils.YesNoDialog to usantatecla.utils.Console--><path codeLine="42" d="M341.604,210.608 C352.219,234.019 364.12,260.264 375.38,285.096 " fill="none" id="usantatecla.utils.YesNoDialog-to-usantatecla.utils.Console" style="stroke:#A80036;stroke-width:1.0;stroke-dasharray:7.0,7.0;"/><polygon fill="#A80036" points="377.474,289.715,377.4017,279.8664,375.4098,285.161,370.1153,283.1691,377.474,289.715" style="stroke:#A80036;stroke-width:1.0;"/><!--MD5=[254f08a412c04f50034a6908ada20997]
reverse link usantatecla.utils.Console to usantatecla.utils.Command--><path codeLine="58" d="M373.106,498.018 C368.963,511.632 365.426,525.498 363,539 C354.197,587.993 351.648,602.534 363,651 C367.802,671.503 376.826,692.539 386.301,710.921 " fill="none" id="usantatecla.utils.Console-backto-usantatecla.utils.Command" style="stroke:#A80036;stroke-width:1.0;"/><polygon fill="none" points="366.451,495.845,379.313,479.005,379.76,500.19,366.451,495.845" style="stroke:#A80036;stroke-width:1.0;"/><!--MD5=[8580306b5e53a6f8d5ff02dcd1254aae]
reverse link usantatecla.utils.Console to usantatecla.utils.Menu--><path codeLine="67" d="M461.489,497.843 C466.753,512.098 471.943,526.15 476.66,538.924 " fill="none" id="usantatecla.utils.Console-backto-usantatecla.utils.Menu" style="stroke:#A80036;stroke-width:1.0;"/><polygon fill="none" points="454.921,500.264,454.558,479.077,468.054,495.413,454.921,500.264" style="stroke:#A80036;stroke-width:1.0;"/><!--MD5=[9e6e8c5929d85eb8cb0f6a6af7941ad4]
link usantatecla.utils.Menu to ArrayList--><path codeLine="68" d="M576.9006,658.5941 C576.9006,658.5941 647.152,713.63 674.07,734.719 " fill="none" id="usantatecla.utils.Menu-ArrayList" style="stroke:#A80036;stroke-width:1.0;"/><polygon fill="#A80036" points="684.619,742.983,680.0013,734.2837,680.6831,739.8994,675.0675,740.5811,684.619,742.983" style="stroke:#A80036;stroke-width:1.0;"/><line style="stroke:#A80036;stroke-width:1.0;" x1="680.6831" x2="674.385" y1="739.8994" y2="734.9655"/><polygon fill="#A80036" points="567.454,651.194,569.7106,658.0429,576.9006,658.5941,574.644,651.7452,567.454,651.194" style="stroke:#A80036;stroke-width:1.0;"/><!--MD5=[9b3e67be5feb6d76605675bf85f106ce]
link usantatecla.utils.Menu to usantatecla.utils.Command--><path codeLine="69" d="M472,651.194 C464.093,668.652 455.315,688.031 447.258,705.82 " fill="none" id="usantatecla.utils.Menu-to-usantatecla.utils.Command" style="stroke:#A80036;stroke-width:1.0;"/><polygon fill="#A80036" points="445.006,710.792,452.3647,704.2461,447.0702,706.238,445.0783,700.9434,445.006,710.792" style="stroke:#A80036;stroke-width:1.0;"/><!--MD5=[80519dfe796831b34ecbd075f5d48c90]
@startuml
class BufferedReader as "java.io.BufferedReader"{}
class ArrayList as "java.util.ArrayList"{}
enum usantatecla.utils.ColorCode{
+ RED
+ BLUE
+ YELLOW
+ GREEN
+ ORANGE
+ PURPLE
+ RESET_COLOR
- color: String
~ ColorCode(String)
+ getColor(): String
+ {static} getColorByIndex(int): String
}

class usantatecla.utils.Console{
- {static} console: Console
+ {static} getInstance(): Console
+ readString(String): String
+ readString(): String
+ readInt(String): int
+ readChar(String): char
+ writeln()
+ write(String)
+ writeln(String)
+ write(char)
- writeError(String)
}
usantatecla.utils.Console *-down-> BufferedReader

class  usantatecla.utils.YesNoDialog{
- {static} AFIRMATIVE: char
- {static} NEGATIVE: char
- {static} QUESTION: String
- {static} MESSAGE: String
+ YesNoDialog()
+ read(String): boolean
- {static} isAfirmative(char): boolean
- {static} isNegative(char): boolean
}
usantatecla.utils.YesNoDialog ..> usantatecla.utils.Console

class  usantatecla.utils.ClosedInterval{
- min: int
- max: int
+ ClosedInterval(int, int)
+ includes(int): boolean
}

abstract  usantatecla.utils.Command{
# title: String
# Command(String)
# {abstract} execute()
# {abstract} isActive(): boolean
~ getTitle(): String
}
usantatecla.utils.Console <|-down- usantatecla.utils.Command

abstract  usantatecla.utils.Menu{
- {static} OPTION: String
- commandList: ArrayList<Command>
+ Menu()
+ execute()
# addCommand(Command)
}
usantatecla.utils.Console <|-down- usantatecla.utils.Menu
usantatecla.utils.Menu *-down-> ArrayList
usantatecla.utils.Menu - -> usantatecla.utils.Command
@enduml

PlantUML version 1.2020.22(Sun Dec 06 09:36:27 UTC 2020)
(GPL source distribution)
Java Runtime: Java(TM) SE Runtime Environment
JVM: Java HotSpot(TM) 64-Bit Server VM
Default Encoding: UTF-8
Language: en
Country: US
--></g></svg>