<?xml version="1.0" encoding="UTF-8" standalone="no"?><svg xmlns="http://www.w3.org/2000/svg" xmlns:xlink="http://www.w3.org/1999/xlink" contentScriptType="application/ecmascript" contentStyleType="text/css" height="1981px" preserveAspectRatio="none" style="width:2225px;height:1981px;" version="1.1" viewBox="0 0 2225 1981" width="2225px" zoomAndPan="magnify"><defs><filter height="300%" id="frmc8tcyuazcp" width="300%" x="-1" y="-1"><feGaussianBlur result="blurOut" stdDeviation="2.0"/><feColorMatrix in="blurOut" result="blurOut2" type="matrix" values="0 0 0 0 0 0 0 0 0 0 0 0 0 0 0 0 0 0 .4 0"/><feOffset dx="4.0" dy="4.0" in="blurOut2" result="blurOut3"/><feBlend in="SourceGraphic" in2="blurOut3" mode="normal"/></filter></defs><g><!--MD5=[073ce8cb2fd2a0b2556785fe35fbd544]
cluster usantatecla.mastermind.models--><polygon fill="#FFFFFF" filter="url(#frmc8tcyuazcp)" points="16,6,286,6,293,28.2969,772,28.2969,772,1736,16,1736,16,6" style="stroke:#000000;stroke-width:1.5;"/><line style="stroke:#000000;stroke-width:1.5;" x1="16" x2="293" y1="28.2969" y2="28.2969"/><text fill="#000000" font-family="sans-serif" font-size="14" font-weight="bold" lengthAdjust="spacingAndGlyphs" textLength="264" x="20" y="20.9951">usantatecla.mastermind.models</text><!--MD5=[8c0210f25e02723f65a0c6cf47cc6884]
cluster usantatecla.mastermind.types--><polygon fill="#FFFFFF" filter="url(#frmc8tcyuazcp)" points="99,1760,356,1760,363,1782.2969,436,1782.2969,436,1974,99,1974,99,1760" style="stroke:#000000;stroke-width:1.5;"/><line style="stroke:#000000;stroke-width:1.5;" x1="99" x2="363" y1="1782.2969" y2="1782.2969"/><text fill="#000000" font-family="sans-serif" font-size="14" font-weight="bold" lengthAdjust="spacingAndGlyphs" textLength="251" x="103" y="1774.9951">usantatecla.mastermind.types</text><!--MD5=[fb9f5a10625edc9f9448ff88fc48054a]
class usantatecla.mastermind.models.State--><rect codeLine="29" fill="#FEFECE" filter="url(#frmc8tcyuazcp)" height="112.0234" id="usantatecla.mastermind.models.State" style="stroke:#A80036;stroke-width:1.5;" width="188" x="568" y="424"/><ellipse cx="642.25" cy="440" fill="#ADD1B2" rx="11" ry="11" style="stroke:#A80036;stroke-width:1.0;"/><path d="M644.5938,435.6719 C643.6563,435.2344 643.0625,435.0938 642.1875,435.0938 C639.5625,435.0938 637.5625,437.1719 637.5625,439.8906 L637.5625,441.0156 C637.5625,443.5938 639.6719,445.4844 642.5625,445.4844 C643.7813,445.4844 644.9375,445.1875 645.6875,444.6406 C646.2656,444.2344 646.5938,443.7813 646.5938,443.3906 C646.5938,442.9375 646.2031,442.5469 645.7344,442.5469 C645.5156,442.5469 645.3125,442.625 645.125,442.8125 C644.6719,443.2969 644.6719,443.2969 644.4844,443.3906 C644.0625,443.6563 643.375,443.7813 642.6094,443.7813 C640.5625,443.7813 639.2656,442.6875 639.2656,440.9844 L639.2656,439.8906 C639.2656,438.1094 640.5156,436.7969 642.25,436.7969 C642.8281,436.7969 643.4375,436.9531 643.9063,437.2031 C644.3906,437.4844 644.5625,437.7031 644.6563,438.1094 C644.7188,438.5156 644.75,438.6406 644.8906,438.7656 C645.0313,438.9063 645.2656,439.0156 645.4844,439.0156 C645.75,439.0156 646.0156,438.875 646.1875,438.6563 C646.2969,438.5 646.3281,438.3125 646.3281,437.8906 L646.3281,436.4688 C646.3281,436.0313 646.3125,435.9063 646.2188,435.75 C646.0625,435.4844 645.7813,435.3438 645.4844,435.3438 C645.1875,435.3438 644.9844,435.4375 644.7656,435.75 L644.5938,435.6719 Z " fill="#000000"/><text fill="#000000" font-family="sans-serif" font-size="12" lengthAdjust="spacingAndGlyphs" textLength="31" x="662.75" y="444.1543">State</text><line style="stroke:#A80036;stroke-width:1.5;" x1="569" x2="755" y1="456" y2="456"/><rect fill="none" height="6" style="stroke:#C82930;stroke-width:1.0;" width="6" x="576" y="464"/><text fill="#000000" font-family="sans-serif" font-size="11" lengthAdjust="spacingAndGlyphs" textLength="133" x="588" y="470.2104">stateValue: StateValue</text><line style="stroke:#A80036;stroke-width:1.5;" x1="569" x2="755" y1="476.8047" y2="476.8047"/><polygon fill="#4177AF" points="579,483.8047,575,489.8047,583,489.8047" style="stroke:#1963A0;stroke-width:1.0;"/><text fill="#000000" font-family="sans-serif" font-size="11" lengthAdjust="spacingAndGlyphs" textLength="37" x="588" y="491.0151">state()</text><polygon fill="#4177AF" points="579,496.6094,575,502.6094,583,502.6094" style="stroke:#1963A0;stroke-width:1.0;"/><text fill="#000000" font-family="sans-serif" font-size="11" lengthAdjust="spacingAndGlyphs" textLength="34" x="588" y="503.8198">next()</text><polygon fill="#4177AF" points="579,509.4141,575,515.4141,583,515.4141" style="stroke:#1963A0;stroke-width:1.0;"/><text fill="#000000" font-family="sans-serif" font-size="11" lengthAdjust="spacingAndGlyphs" textLength="38" x="588" y="516.6245">reset()</text><polygon fill="#4177AF" points="579,522.2188,575,528.2188,583,528.2188" style="stroke:#1963A0;stroke-width:1.0;"/><text fill="#000000" font-family="sans-serif" font-size="11" lengthAdjust="spacingAndGlyphs" textLength="162" x="588" y="529.4292">getValueState(): StateValue</text><!--MD5=[d053cbc18720e45a198f4fc3b35f8a19]
class usantatecla.mastermind.models.StateValue--><rect codeLine="37" fill="#FEFECE" filter="url(#frmc8tcyuazcp)" height="99.2188" id="usantatecla.mastermind.models.StateValue" style="stroke:#A80036;stroke-width:1.5;" width="96" x="614" y="711.5"/><ellipse cx="629" cy="727.5" fill="#EB937F" rx="11" ry="11" style="stroke:#A80036;stroke-width:1.0;"/><path d="M627.7969,728.375 L629.25,728.375 L629.25,728.4844 C629.25,728.8906 629.2813,729.0469 629.3594,729.2031 C629.5156,729.4531 629.7969,729.6094 630.0938,729.6094 C630.3438,729.6094 630.6094,729.4688 630.7656,729.25 C630.8906,729.0938 630.9219,728.9375 630.9219,728.4844 L630.9219,726.5625 C630.9219,726.4063 630.9219,726.3594 630.9063,726.2031 C630.8438,725.7344 630.5313,725.4219 630.0781,725.4219 C629.8281,725.4219 629.5625,725.5625 629.3906,725.7813 C629.2813,725.9531 629.25,726.1094 629.25,726.5625 L629.25,726.6875 L627.7969,726.6875 L627.7969,724.2813 L631.7813,724.2813 L631.7813,725.1406 C631.7813,725.5469 631.8125,725.7188 631.8906,725.875 C632.0625,726.125 632.3438,726.2813 632.625,726.2813 C632.8906,726.2813 633.1563,726.1406 633.3281,725.9219 C633.4375,725.75 633.4688,725.6094 633.4688,725.1406 L633.4688,722.5938 L625.8438,722.5938 C625.4063,722.5938 625.2813,722.6094 625.125,722.7031 C624.875,722.8594 624.7188,723.1563 624.7188,723.4375 C624.7188,723.7188 624.8594,723.9688 625.0781,724.1406 C625.2344,724.25 625.4219,724.2813 625.8438,724.2813 L626.0938,724.2813 L626.0938,730.7969 L625.8438,730.7969 C625.4375,730.7969 625.2813,730.8125 625.125,730.9219 C624.875,731.0938 624.7188,731.3594 624.7188,731.6563 C624.7188,731.9219 624.8594,732.1719 625.0781,732.3281 C625.2188,732.4531 625.4531,732.5 625.8438,732.5 L633.8438,732.5 L633.8438,729.9219 C633.8438,729.4844 633.8125,729.3438 633.7344,729.1875 C633.5625,728.9375 633.2813,728.7813 633,728.7813 C632.7344,728.7813 632.4688,728.8906 632.2969,729.1406 C632.1875,729.2969 632.1563,729.4375 632.1563,729.9219 L632.1563,730.7969 L627.7969,730.7969 L627.7969,728.375 Z " fill="#000000"/><text fill="#000000" font-family="sans-serif" font-size="12" lengthAdjust="spacingAndGlyphs" textLength="64" x="643" y="731.6543">StateValue</text><line style="stroke:#A80036;stroke-width:1.5;" x1="615" x2="709" y1="743.5" y2="743.5"/><ellipse cx="625" cy="754.5" fill="none" rx="3" ry="3" style="stroke:#038048;stroke-width:1.0;"/><text fill="#000000" font-family="sans-serif" font-size="11" lengthAdjust="spacingAndGlyphs" textLength="38" x="634" y="757.7104">INITIAL</text><ellipse cx="625" cy="767.3047" fill="none" rx="3" ry="3" style="stroke:#038048;stroke-width:1.0;"/><text fill="#000000" font-family="sans-serif" font-size="11" lengthAdjust="spacingAndGlyphs" textLength="50" x="634" y="770.5151">IN_GAME</text><ellipse cx="625" cy="780.1094" fill="none" rx="3" ry="3" style="stroke:#038048;stroke-width:1.0;"/><text fill="#000000" font-family="sans-serif" font-size="11" lengthAdjust="spacingAndGlyphs" textLength="31" x="634" y="783.3198">FINAL</text><ellipse cx="625" cy="792.9141" fill="none" rx="3" ry="3" style="stroke:#038048;stroke-width:1.0;"/><text fill="#000000" font-family="sans-serif" font-size="11" lengthAdjust="spacingAndGlyphs" textLength="25" x="634" y="796.1245">EXIT</text><line style="stroke:#A80036;stroke-width:1.5;" x1="615" x2="709" y1="802.7188" y2="802.7188"/><!--MD5=[9e09d6096b99d1406435ac08840c9240]
class usantatecla.mastermind.models.Combination--><rect codeLine="44" fill="#FEFECE" filter="url(#frmc8tcyuazcp)" height="99.2188" id="usantatecla.mastermind.models.Combination" style="stroke:#A80036;stroke-width:1.5;" width="132" x="242" y="1436"/><ellipse cx="267.8" cy="1452" fill="#A9DCDF" rx="11" ry="11" style="stroke:#A80036;stroke-width:1.0;"/><path d="M269.8781,1453.8125 L270.2688,1454.7969 L269.8781,1454.7969 C269.425,1454.7969 269.3156,1454.8125 269.1594,1454.9219 C268.9094,1455.0781 268.7531,1455.3594 268.7531,1455.6563 C268.7531,1455.9219 268.8938,1456.1719 269.1125,1456.3281 C269.2531,1456.4531 269.4563,1456.5 269.8781,1456.5 L272.2375,1456.5 C272.5969,1456.5 272.8156,1456.4688 272.9563,1456.375 C273.2063,1456.2344 273.3625,1455.9375 273.3625,1455.6563 C273.3625,1455.375 273.2219,1455.125 273.0031,1454.9688 C272.8313,1454.8281 272.675,1454.7969 272.2063,1454.7969 L268.8156,1446.5938 L265.1438,1446.5938 C264.6906,1446.5938 264.5656,1446.6094 264.4094,1446.7031 C264.1594,1446.875 264.0031,1447.1563 264.0031,1447.4375 C264.0031,1447.7188 264.1438,1447.9688 264.3625,1448.1406 C264.5344,1448.25 264.7063,1448.2813 265.1438,1448.2813 L266.2219,1448.2813 L263.5813,1454.7969 C263.1594,1454.7969 263.0031,1454.8125 262.8469,1454.9219 C262.5969,1455.0781 262.4406,1455.3594 262.4406,1455.6563 C262.4406,1456.2188 262.8156,1456.5 263.5656,1456.5 L265.8313,1456.5 C266.1906,1456.5 266.4094,1456.4688 266.5344,1456.375 C266.8,1456.2344 266.9406,1455.9375 266.9406,1455.6563 C266.9406,1455.375 266.8156,1455.125 266.5969,1454.9531 C266.425,1454.8281 266.2844,1454.7969 265.8313,1454.7969 L265.4406,1454.7969 L265.8313,1453.8125 L269.8781,1453.8125 Z M269.175,1452.1094 L266.5031,1452.1094 L267.8469,1448.8438 L269.175,1452.1094 Z " fill="#000000"/><text fill="#000000" font-family="sans-serif" font-size="12" font-style="italic" lengthAdjust="spacingAndGlyphs" textLength="76" x="284.2" y="1456.1543">Combination</text><line style="stroke:#A80036;stroke-width:1.5;" x1="243" x2="373" y1="1468" y2="1468"/><rect fill="none" height="6" style="stroke:#C82930;stroke-width:1.0;" width="6" x="250" y="1476"/><text fill="#000000" font-family="sans-serif" font-size="11" lengthAdjust="spacingAndGlyphs" text-decoration="underline" textLength="59" x="262" y="1482.2104">WIDTH: int</text><polygon fill="none" points="253,1486.8047,257,1490.8047,253,1494.8047,249,1490.8047" style="stroke:#B38D22;stroke-width:1.0;"/><text fill="#000000" font-family="sans-serif" font-size="11" lengthAdjust="spacingAndGlyphs" textLength="106" x="262" y="1495.0151">colors: List&lt;Color&gt;</text><line style="stroke:#A80036;stroke-width:1.5;" x1="243" x2="373" y1="1501.6094" y2="1501.6094"/><polygon fill="#FFFF44" points="253,1507.6094,257,1511.6094,253,1515.6094,249,1511.6094" style="stroke:#B38D22;stroke-width:1.0;"/><text fill="#000000" font-family="sans-serif" font-size="11" lengthAdjust="spacingAndGlyphs" textLength="79" x="262" y="1515.8198">Combination()</text><ellipse cx="253" cy="1525.4141" fill="#84BE84" rx="3" ry="3" style="stroke:#038048;stroke-width:1.0;"/><text fill="#000000" font-family="sans-serif" font-size="11" lengthAdjust="spacingAndGlyphs" text-decoration="underline" textLength="80" x="262" y="1528.6245">getWidth(): int</text><!--MD5=[133b2a20d5a8d4980692cee85e8c0684]
class usantatecla.mastermind.models.Game--><rect codeLine="57" fill="#FEFECE" filter="url(#frmc8tcyuazcp)" height="265.6797" id="usantatecla.mastermind.models.Game" style="stroke:#A80036;stroke-width:1.5;" width="317" x="108.5" y="628"/><ellipse cx="245.25" cy="644" fill="#ADD1B2" rx="11" ry="11" style="stroke:#A80036;stroke-width:1.0;"/><path d="M247.5938,639.6719 C246.6563,639.2344 246.0625,639.0938 245.1875,639.0938 C242.5625,639.0938 240.5625,641.1719 240.5625,643.8906 L240.5625,645.0156 C240.5625,647.5938 242.6719,649.4844 245.5625,649.4844 C246.7813,649.4844 247.9375,649.1875 248.6875,648.6406 C249.2656,648.2344 249.5938,647.7813 249.5938,647.3906 C249.5938,646.9375 249.2031,646.5469 248.7344,646.5469 C248.5156,646.5469 248.3125,646.625 248.125,646.8125 C247.6719,647.2969 247.6719,647.2969 247.4844,647.3906 C247.0625,647.6563 246.375,647.7813 245.6094,647.7813 C243.5625,647.7813 242.2656,646.6875 242.2656,644.9844 L242.2656,643.8906 C242.2656,642.1094 243.5156,640.7969 245.25,640.7969 C245.8281,640.7969 246.4375,640.9531 246.9063,641.2031 C247.3906,641.4844 247.5625,641.7031 247.6563,642.1094 C247.7188,642.5156 247.75,642.6406 247.8906,642.7656 C248.0313,642.9063 248.2656,643.0156 248.4844,643.0156 C248.75,643.0156 249.0156,642.875 249.1875,642.6563 C249.2969,642.5 249.3281,642.3125 249.3281,641.8906 L249.3281,640.4688 C249.3281,640.0313 249.3125,639.9063 249.2188,639.75 C249.0625,639.4844 248.7813,639.3438 248.4844,639.3438 C248.1875,639.3438 247.9844,639.4375 247.7656,639.75 L247.5938,639.6719 Z " fill="#000000"/><text fill="#000000" font-family="sans-serif" font-size="12" lengthAdjust="spacingAndGlyphs" textLength="35" x="265.75" y="648.1543">Game</text><line style="stroke:#A80036;stroke-width:1.5;" x1="109.5" x2="424.5" y1="660" y2="660"/><rect fill="none" height="6" style="stroke:#C82930;stroke-width:1.0;" width="6" x="116.5" y="668"/><text fill="#000000" font-family="sans-serif" font-size="11" lengthAdjust="spacingAndGlyphs" text-decoration="underline" textLength="84" x="128.5" y="674.2104">MAX_LONG: int</text><rect fill="none" height="6" style="stroke:#C82930;stroke-width:1.0;" width="6" x="116.5" y="680.8047"/><text fill="#000000" font-family="sans-serif" font-size="11" lengthAdjust="spacingAndGlyphs" textLength="223" x="128.5" y="687.0151">secretCombination: SecretCombination</text><rect fill="none" height="6" style="stroke:#C82930;stroke-width:1.0;" width="6" x="116.5" y="693.6094"/><text fill="#000000" font-family="sans-serif" font-size="11" lengthAdjust="spacingAndGlyphs" textLength="291" x="128.5" y="699.8198">proposedCombination: List&lt;ProposedCombination&gt;</text><rect fill="none" height="6" style="stroke:#C82930;stroke-width:1.0;" width="6" x="116.5" y="706.4141"/><text fill="#000000" font-family="sans-serif" font-size="11" lengthAdjust="spacingAndGlyphs" textLength="117" x="128.5" y="712.6245">results: List&lt;Result&gt;</text><rect fill="none" height="6" style="stroke:#C82930;stroke-width:1.0;" width="6" x="116.5" y="719.2188"/><text fill="#000000" font-family="sans-serif" font-size="11" lengthAdjust="spacingAndGlyphs" textLength="72" x="128.5" y="725.4292">attempts: int</text><line style="stroke:#A80036;stroke-width:1.5;" x1="109.5" x2="424.5" y1="732.0234" y2="732.0234"/><polygon fill="#4177AF" points="119.5,739.0234,115.5,745.0234,123.5,745.0234" style="stroke:#1963A0;stroke-width:1.0;"/><text fill="#000000" font-family="sans-serif" font-size="11" lengthAdjust="spacingAndGlyphs" textLength="43" x="128.5" y="746.2339">Game()</text><polygon fill="#4177AF" points="119.5,751.8281,115.5,757.8281,123.5,757.8281" style="stroke:#1963A0;stroke-width:1.0;"/><text fill="#000000" font-family="sans-serif" font-size="11" lengthAdjust="spacingAndGlyphs" textLength="36" x="128.5" y="759.0386">clear()</text><polygon fill="#4177AF" points="119.5,764.6328,115.5,770.6328,123.5,770.6328" style="stroke:#1963A0;stroke-width:1.0;"/><text fill="#000000" font-family="sans-serif" font-size="11" lengthAdjust="spacingAndGlyphs" textLength="211" x="128.5" y="771.8433">addProposeCombination(List&lt;Color&gt;)</text><polygon fill="#4177AF" points="119.5,777.4375,115.5,783.4375,123.5,783.4375" style="stroke:#1963A0;stroke-width:1.0;"/><text fill="#000000" font-family="sans-serif" font-size="11" lengthAdjust="spacingAndGlyphs" textLength="108" x="128.5" y="784.6479">isLooser(): boolean</text><polygon fill="#4177AF" points="119.5,790.2422,115.5,796.2422,123.5,796.2422" style="stroke:#1963A0;stroke-width:1.0;"/><text fill="#000000" font-family="sans-serif" font-size="11" lengthAdjust="spacingAndGlyphs" textLength="110" x="128.5" y="797.4526">isWinner(): boolean</text><polygon fill="#4177AF" points="119.5,803.0469,115.5,809.0469,123.5,809.0469" style="stroke:#1963A0;stroke-width:1.0;"/><text fill="#000000" font-family="sans-serif" font-size="11" lengthAdjust="spacingAndGlyphs" textLength="100" x="128.5" y="810.2573">getAttempts(): int</text><polygon fill="#4177AF" points="119.5,815.8516,115.5,821.8516,123.5,821.8516" style="stroke:#1963A0;stroke-width:1.0;"/><text fill="#000000" font-family="sans-serif" font-size="11" lengthAdjust="spacingAndGlyphs" textLength="149" x="128.5" y="823.062">getColors(int): List&lt;Color&gt;</text><polygon fill="#4177AF" points="119.5,828.6563,115.5,834.6563,123.5,834.6563" style="stroke:#1963A0;stroke-width:1.0;"/><text fill="#000000" font-family="sans-serif" font-size="11" lengthAdjust="spacingAndGlyphs" textLength="98" x="128.5" y="835.8667">getBlacks(int): int</text><polygon fill="#4177AF" points="119.5,841.4609,115.5,847.4609,123.5,847.4609" style="stroke:#1963A0;stroke-width:1.0;"/><text fill="#000000" font-family="sans-serif" font-size="11" lengthAdjust="spacingAndGlyphs" textLength="101" x="128.5" y="848.6714">getWhites(int): int</text><polygon fill="#4177AF" points="119.5,854.2656,115.5,860.2656,123.5,860.2656" style="stroke:#1963A0;stroke-width:1.0;"/><text fill="#000000" font-family="sans-serif" font-size="11" lengthAdjust="spacingAndGlyphs" textLength="80" x="128.5" y="861.4761">getWidth(): int</text><polygon fill="#4177AF" points="119.5,867.0703,115.5,873.0703,123.5,873.0703" style="stroke:#1963A0;stroke-width:1.0;"/><text fill="#000000" font-family="sans-serif" font-size="11" lengthAdjust="spacingAndGlyphs" textLength="160" x="128.5" y="874.2808">createMemento(): Memento</text><polygon fill="#4177AF" points="119.5,879.875,115.5,885.875,123.5,885.875" style="stroke:#1963A0;stroke-width:1.0;"/><text fill="#000000" font-family="sans-serif" font-size="11" lengthAdjust="spacingAndGlyphs" textLength="80" x="128.5" y="887.0854">set(Memento)</text><!--MD5=[a212aeeb69ab78e602f8fa1f3e5ba19f]
class usantatecla.mastermind.models.SecretCombination--><rect codeLine="91" fill="#FEFECE" filter="url(#frmc8tcyuazcp)" height="73.6094" id="usantatecla.mastermind.models.SecretCombination" style="stroke:#A80036;stroke-width:1.5;" width="253" x="106.5" y="998.5"/><ellipse cx="171.75" cy="1014.5" fill="#ADD1B2" rx="11" ry="11" style="stroke:#A80036;stroke-width:1.0;"/><path d="M174.0938,1010.1719 C173.1563,1009.7344 172.5625,1009.5938 171.6875,1009.5938 C169.0625,1009.5938 167.0625,1011.6719 167.0625,1014.3906 L167.0625,1015.5156 C167.0625,1018.0938 169.1719,1019.9844 172.0625,1019.9844 C173.2813,1019.9844 174.4375,1019.6875 175.1875,1019.1406 C175.7656,1018.7344 176.0938,1018.2813 176.0938,1017.8906 C176.0938,1017.4375 175.7031,1017.0469 175.2344,1017.0469 C175.0156,1017.0469 174.8125,1017.125 174.625,1017.3125 C174.1719,1017.7969 174.1719,1017.7969 173.9844,1017.8906 C173.5625,1018.1563 172.875,1018.2813 172.1094,1018.2813 C170.0625,1018.2813 168.7656,1017.1875 168.7656,1015.4844 L168.7656,1014.3906 C168.7656,1012.6094 170.0156,1011.2969 171.75,1011.2969 C172.3281,1011.2969 172.9375,1011.4531 173.4063,1011.7031 C173.8906,1011.9844 174.0625,1012.2031 174.1563,1012.6094 C174.2188,1013.0156 174.25,1013.1406 174.3906,1013.2656 C174.5313,1013.4063 174.7656,1013.5156 174.9844,1013.5156 C175.25,1013.5156 175.5156,1013.375 175.6875,1013.1563 C175.7969,1013 175.8281,1012.8125 175.8281,1012.3906 L175.8281,1010.9688 C175.8281,1010.5313 175.8125,1010.4063 175.7188,1010.25 C175.5625,1009.9844 175.2813,1009.8438 174.9844,1009.8438 C174.6875,1009.8438 174.4844,1009.9375 174.2656,1010.25 L174.0938,1010.1719 Z " fill="#000000"/><text fill="#000000" font-family="sans-serif" font-size="12" lengthAdjust="spacingAndGlyphs" textLength="114" x="192.25" y="1018.6543">SecretCombination</text><line style="stroke:#A80036;stroke-width:1.5;" x1="107.5" x2="358.5" y1="1030.5" y2="1030.5"/><line style="stroke:#A80036;stroke-width:1.5;" x1="107.5" x2="358.5" y1="1038.5" y2="1038.5"/><polygon fill="#4177AF" points="117.5,1045.5,113.5,1051.5,121.5,1051.5" style="stroke:#1963A0;stroke-width:1.0;"/><text fill="#000000" font-family="sans-serif" font-size="11" lengthAdjust="spacingAndGlyphs" textLength="117" x="126.5" y="1052.7104">SecretCombination()</text><polygon fill="#4177AF" points="117.5,1058.3047,113.5,1064.3047,121.5,1064.3047" style="stroke:#1963A0;stroke-width:1.0;"/><text fill="#000000" font-family="sans-serif" font-size="11" lengthAdjust="spacingAndGlyphs" textLength="227" x="126.5" y="1065.5151">getResult(ProposedCombination): Result</text><!--MD5=[f33d10797af0f3b71126f0e937fc2775]
class usantatecla.mastermind.models.Result--><rect codeLine="100" fill="#FEFECE" filter="url(#frmc8tcyuazcp)" height="137.6328" id="usantatecla.mastermind.models.Result" style="stroke:#A80036;stroke-width:1.5;" width="136" x="269" y="1177"/><ellipse cx="314.75" cy="1193" fill="#ADD1B2" rx="11" ry="11" style="stroke:#A80036;stroke-width:1.0;"/><path d="M317.0938,1188.6719 C316.1563,1188.2344 315.5625,1188.0938 314.6875,1188.0938 C312.0625,1188.0938 310.0625,1190.1719 310.0625,1192.8906 L310.0625,1194.0156 C310.0625,1196.5938 312.1719,1198.4844 315.0625,1198.4844 C316.2813,1198.4844 317.4375,1198.1875 318.1875,1197.6406 C318.7656,1197.2344 319.0938,1196.7813 319.0938,1196.3906 C319.0938,1195.9375 318.7031,1195.5469 318.2344,1195.5469 C318.0156,1195.5469 317.8125,1195.625 317.625,1195.8125 C317.1719,1196.2969 317.1719,1196.2969 316.9844,1196.3906 C316.5625,1196.6563 315.875,1196.7813 315.1094,1196.7813 C313.0625,1196.7813 311.7656,1195.6875 311.7656,1193.9844 L311.7656,1192.8906 C311.7656,1191.1094 313.0156,1189.7969 314.75,1189.7969 C315.3281,1189.7969 315.9375,1189.9531 316.4063,1190.2031 C316.8906,1190.4844 317.0625,1190.7031 317.1563,1191.1094 C317.2188,1191.5156 317.25,1191.6406 317.3906,1191.7656 C317.5313,1191.9063 317.7656,1192.0156 317.9844,1192.0156 C318.25,1192.0156 318.5156,1191.875 318.6875,1191.6563 C318.7969,1191.5 318.8281,1191.3125 318.8281,1190.8906 L318.8281,1189.4688 C318.8281,1189.0313 318.8125,1188.9063 318.7188,1188.75 C318.5625,1188.4844 318.2813,1188.3438 317.9844,1188.3438 C317.6875,1188.3438 317.4844,1188.4375 317.2656,1188.75 L317.0938,1188.6719 Z " fill="#000000"/><text fill="#000000" font-family="sans-serif" font-size="12" lengthAdjust="spacingAndGlyphs" textLength="36" x="335.25" y="1197.1543">Result</text><line style="stroke:#A80036;stroke-width:1.5;" x1="270" x2="404" y1="1209" y2="1209"/><rect fill="none" height="6" style="stroke:#C82930;stroke-width:1.0;" width="6" x="277" y="1217"/><text fill="#000000" font-family="sans-serif" font-size="11" lengthAdjust="spacingAndGlyphs" textLength="56" x="289" y="1223.2104">blacks: int</text><rect fill="none" height="6" style="stroke:#C82930;stroke-width:1.0;" width="6" x="277" y="1229.8047"/><text fill="#000000" font-family="sans-serif" font-size="11" lengthAdjust="spacingAndGlyphs" textLength="58" x="289" y="1236.0151">whites: int</text><line style="stroke:#A80036;stroke-width:1.5;" x1="270" x2="404" y1="1242.6094" y2="1242.6094"/><polygon fill="#4177AF" points="280,1249.6094,276,1255.6094,284,1255.6094" style="stroke:#1963A0;stroke-width:1.0;"/><text fill="#000000" font-family="sans-serif" font-size="11" lengthAdjust="spacingAndGlyphs" textLength="78" x="289" y="1256.8198">Result(int, int)</text><polygon fill="#4177AF" points="280,1262.4141,276,1268.4141,284,1268.4141" style="stroke:#1963A0;stroke-width:1.0;"/><text fill="#000000" font-family="sans-serif" font-size="11" lengthAdjust="spacingAndGlyphs" textLength="110" x="289" y="1269.6245">isWinner(): boolean</text><polygon fill="#4177AF" points="280,1275.2188,276,1281.2188,284,1281.2188" style="stroke:#1963A0;stroke-width:1.0;"/><text fill="#000000" font-family="sans-serif" font-size="11" lengthAdjust="spacingAndGlyphs" textLength="84" x="289" y="1282.4292">getBlacks(): int</text><polygon fill="#4177AF" points="280,1288.0234,276,1294.0234,284,1294.0234" style="stroke:#1963A0;stroke-width:1.0;"/><text fill="#000000" font-family="sans-serif" font-size="11" lengthAdjust="spacingAndGlyphs" textLength="87" x="289" y="1295.2339">getWhites(): int</text><polygon fill="#4177AF" points="280,1300.8281,276,1306.8281,284,1306.8281" style="stroke:#1963A0;stroke-width:1.0;"/><text fill="#000000" font-family="sans-serif" font-size="11" lengthAdjust="spacingAndGlyphs" textLength="77" x="289" y="1308.0386">copy(): Result</text><!--MD5=[29c0d014c840bf5e3383a02197df5a5a]
class usantatecla.mastermind.models.ProposedCombination--><rect codeLine="80" fill="#FEFECE" filter="url(#frmc8tcyuazcp)" height="124.8281" id="usantatecla.mastermind.models.ProposedCombination" style="stroke:#A80036;stroke-width:1.5;" width="224" x="84" y="1595"/><ellipse cx="126" cy="1611" fill="#ADD1B2" rx="11" ry="11" style="stroke:#A80036;stroke-width:1.0;"/><path d="M128.3438,1606.6719 C127.4063,1606.2344 126.8125,1606.0938 125.9375,1606.0938 C123.3125,1606.0938 121.3125,1608.1719 121.3125,1610.8906 L121.3125,1612.0156 C121.3125,1614.5938 123.4219,1616.4844 126.3125,1616.4844 C127.5313,1616.4844 128.6875,1616.1875 129.4375,1615.6406 C130.0156,1615.2344 130.3438,1614.7813 130.3438,1614.3906 C130.3438,1613.9375 129.9531,1613.5469 129.4844,1613.5469 C129.2656,1613.5469 129.0625,1613.625 128.875,1613.8125 C128.4219,1614.2969 128.4219,1614.2969 128.2344,1614.3906 C127.8125,1614.6563 127.125,1614.7813 126.3594,1614.7813 C124.3125,1614.7813 123.0156,1613.6875 123.0156,1611.9844 L123.0156,1610.8906 C123.0156,1609.1094 124.2656,1607.7969 126,1607.7969 C126.5781,1607.7969 127.1875,1607.9531 127.6563,1608.2031 C128.1406,1608.4844 128.3125,1608.7031 128.4063,1609.1094 C128.4688,1609.5156 128.5,1609.6406 128.6406,1609.7656 C128.7813,1609.9063 129.0156,1610.0156 129.2344,1610.0156 C129.5,1610.0156 129.7656,1609.875 129.9375,1609.6563 C130.0469,1609.5 130.0781,1609.3125 130.0781,1608.8906 L130.0781,1607.4688 C130.0781,1607.0313 130.0625,1606.9063 129.9688,1606.75 C129.8125,1606.4844 129.5313,1606.3438 129.2344,1606.3438 C128.9375,1606.3438 128.7344,1606.4375 128.5156,1606.75 L128.3438,1606.6719 Z " fill="#000000"/><text fill="#000000" font-family="sans-serif" font-size="12" lengthAdjust="spacingAndGlyphs" textLength="132" x="146" y="1615.1543">ProposedCombination</text><line style="stroke:#A80036;stroke-width:1.5;" x1="85" x2="307" y1="1627" y2="1627"/><ellipse cx="95" cy="1638" fill="none" rx="3" ry="3" style="stroke:#038048;stroke-width:1.0;"/><text fill="#000000" font-family="sans-serif" font-size="11" lengthAdjust="spacingAndGlyphs" text-decoration="underline" textLength="86" x="104" y="1641.2104">builder: Builder</text><line style="stroke:#A80036;stroke-width:1.5;" x1="85" x2="307" y1="1647.8047" y2="1647.8047"/><ellipse cx="95" cy="1658.8047" fill="#84BE84" rx="3" ry="3" style="stroke:#038048;stroke-width:1.0;"/><text fill="#000000" font-family="sans-serif" font-size="11" lengthAdjust="spacingAndGlyphs" textLength="198" x="104" y="1662.0151">proposedCombination(List&lt;Color&gt;)</text><polygon fill="#4177AF" points="95,1667.6094,91,1673.6094,99,1673.6094" style="stroke:#1963A0;stroke-width:1.0;"/><text fill="#000000" font-family="sans-serif" font-size="11" lengthAdjust="spacingAndGlyphs" textLength="158" x="104" y="1674.8198">contains(Color, int): boolean</text><polygon fill="#4177AF" points="95,1680.4141,91,1686.4141,99,1686.4141" style="stroke:#1963A0;stroke-width:1.0;"/><text fill="#000000" font-family="sans-serif" font-size="11" lengthAdjust="spacingAndGlyphs" textLength="137" x="104" y="1687.6245">contains(Color): boolean</text><polygon fill="#4177AF" points="95,1693.2188,91,1699.2188,99,1699.2188" style="stroke:#1963A0;stroke-width:1.0;"/><text fill="#000000" font-family="sans-serif" font-size="11" lengthAdjust="spacingAndGlyphs" textLength="165" x="104" y="1700.4292">copy(): ProposedCombination</text><ellipse cx="95" cy="1710.0234" fill="#84BE84" rx="3" ry="3" style="stroke:#038048;stroke-width:1.0;"/><text fill="#000000" font-family="sans-serif" font-size="11" lengthAdjust="spacingAndGlyphs" text-decoration="underline" textLength="80" x="104" y="1713.2339">class Builder()</text><!--MD5=[7d9b242180fb4a9db2623d574dc55ece]
class usantatecla.mastermind.models.Memento--><rect codeLine="132" fill="#FEFECE" filter="url(#frmc8tcyuazcp)" height="163.2422" id="usantatecla.mastermind.models.Memento" style="stroke:#A80036;stroke-width:1.5;" width="323" x="432.5" y="954"/><ellipse cx="561.75" cy="970" fill="#ADD1B2" rx="11" ry="11" style="stroke:#A80036;stroke-width:1.0;"/><path d="M564.0938,965.6719 C563.1563,965.2344 562.5625,965.0938 561.6875,965.0938 C559.0625,965.0938 557.0625,967.1719 557.0625,969.8906 L557.0625,971.0156 C557.0625,973.5938 559.1719,975.4844 562.0625,975.4844 C563.2813,975.4844 564.4375,975.1875 565.1875,974.6406 C565.7656,974.2344 566.0938,973.7813 566.0938,973.3906 C566.0938,972.9375 565.7031,972.5469 565.2344,972.5469 C565.0156,972.5469 564.8125,972.625 564.625,972.8125 C564.1719,973.2969 564.1719,973.2969 563.9844,973.3906 C563.5625,973.6563 562.875,973.7813 562.1094,973.7813 C560.0625,973.7813 558.7656,972.6875 558.7656,970.9844 L558.7656,969.8906 C558.7656,968.1094 560.0156,966.7969 561.75,966.7969 C562.3281,966.7969 562.9375,966.9531 563.4063,967.2031 C563.8906,967.4844 564.0625,967.7031 564.1563,968.1094 C564.2188,968.5156 564.25,968.6406 564.3906,968.7656 C564.5313,968.9063 564.7656,969.0156 564.9844,969.0156 C565.25,969.0156 565.5156,968.875 565.6875,968.6563 C565.7969,968.5 565.8281,968.3125 565.8281,967.8906 L565.8281,966.4688 C565.8281,966.0313 565.8125,965.9063 565.7188,965.75 C565.5625,965.4844 565.2813,965.3438 564.9844,965.3438 C564.6875,965.3438 564.4844,965.4375 564.2656,965.75 L564.0938,965.6719 Z " fill="#000000"/><text fill="#000000" font-family="sans-serif" font-size="12" lengthAdjust="spacingAndGlyphs" textLength="56" x="582.25" y="974.1543">Memento</text><line style="stroke:#A80036;stroke-width:1.5;" x1="433.5" x2="754.5" y1="986" y2="986"/><rect fill="none" height="6" style="stroke:#C82930;stroke-width:1.0;" width="6" x="440.5" y="994"/><text fill="#000000" font-family="sans-serif" font-size="11" lengthAdjust="spacingAndGlyphs" textLength="297" x="452.5" y="1000.2104">proposedCombinations: List&lt;ProposedCombination&gt;</text><rect fill="none" height="6" style="stroke:#C82930;stroke-width:1.0;" width="6" x="440.5" y="1006.8047"/><text fill="#000000" font-family="sans-serif" font-size="11" lengthAdjust="spacingAndGlyphs" textLength="117" x="452.5" y="1013.0151">results: List&lt;Result&gt;</text><rect fill="none" height="6" style="stroke:#C82930;stroke-width:1.0;" width="6" x="440.5" y="1019.6094"/><text fill="#000000" font-family="sans-serif" font-size="11" lengthAdjust="spacingAndGlyphs" textLength="43" x="452.5" y="1025.8198">turn: int</text><line style="stroke:#A80036;stroke-width:1.5;" x1="433.5" x2="754.5" y1="1032.4141" y2="1032.4141"/><polygon fill="#4177AF" points="443.5,1039.4141,439.5,1045.4141,447.5,1045.4141" style="stroke:#1963A0;stroke-width:1.0;"/><text fill="#000000" font-family="sans-serif" font-size="11" lengthAdjust="spacingAndGlyphs" textLength="76" x="452.5" y="1046.6245">Memento(int)</text><polygon fill="#4177AF" points="443.5,1052.2188,439.5,1058.2188,447.5,1058.2188" style="stroke:#1963A0;stroke-width:1.0;"/><text fill="#000000" font-family="sans-serif" font-size="11" lengthAdjust="spacingAndGlyphs" textLength="191" x="452.5" y="1059.4292">set(ProposedCombination, Result)</text><polygon fill="#4177AF" points="443.5,1065.0234,439.5,1071.0234,447.5,1071.0234" style="stroke:#1963A0;stroke-width:1.0;"/><text fill="#000000" font-family="sans-serif" font-size="11" lengthAdjust="spacingAndGlyphs" textLength="74" x="452.5" y="1072.2339">getSize(): int</text><polygon fill="#4177AF" points="443.5,1077.8281,439.5,1083.8281,447.5,1083.8281" style="stroke:#1963A0;stroke-width:1.0;"/><text fill="#000000" font-family="sans-serif" font-size="11" lengthAdjust="spacingAndGlyphs" textLength="118" x="452.5" y="1085.0386">getResult(int): Result</text><polygon fill="#4177AF" points="443.5,1090.6328,439.5,1096.6328,447.5,1096.6328" style="stroke:#1963A0;stroke-width:1.0;"/><text fill="#000000" font-family="sans-serif" font-size="11" lengthAdjust="spacingAndGlyphs" textLength="100" x="452.5" y="1097.8433">getAttempts(): int</text><polygon fill="#4177AF" points="443.5,1103.4375,439.5,1109.4375,447.5,1109.4375" style="stroke:#1963A0;stroke-width:1.0;"/><text fill="#000000" font-family="sans-serif" font-size="11" lengthAdjust="spacingAndGlyphs" textLength="294" x="452.5" y="1110.6479">getProposedCombination(int): ProposedCombination</text><!--MD5=[71dbb6df7a13cdccf69692f304877456]
class usantatecla.mastermind.models.Registry--><rect codeLine="147" fill="#FEFECE" filter="url(#frmc8tcyuazcp)" height="176.0469" id="usantatecla.mastermind.models.Registry" style="stroke:#A80036;stroke-width:1.5;" width="229" x="303.5" y="392"/><ellipse cx="389.25" cy="408" fill="#ADD1B2" rx="11" ry="11" style="stroke:#A80036;stroke-width:1.0;"/><path d="M391.5938,403.6719 C390.6563,403.2344 390.0625,403.0938 389.1875,403.0938 C386.5625,403.0938 384.5625,405.1719 384.5625,407.8906 L384.5625,409.0156 C384.5625,411.5938 386.6719,413.4844 389.5625,413.4844 C390.7813,413.4844 391.9375,413.1875 392.6875,412.6406 C393.2656,412.2344 393.5938,411.7813 393.5938,411.3906 C393.5938,410.9375 393.2031,410.5469 392.7344,410.5469 C392.5156,410.5469 392.3125,410.625 392.125,410.8125 C391.6719,411.2969 391.6719,411.2969 391.4844,411.3906 C391.0625,411.6563 390.375,411.7813 389.6094,411.7813 C387.5625,411.7813 386.2656,410.6875 386.2656,408.9844 L386.2656,407.8906 C386.2656,406.1094 387.5156,404.7969 389.25,404.7969 C389.8281,404.7969 390.4375,404.9531 390.9063,405.2031 C391.3906,405.4844 391.5625,405.7031 391.6563,406.1094 C391.7188,406.5156 391.75,406.6406 391.8906,406.7656 C392.0313,406.9063 392.2656,407.0156 392.4844,407.0156 C392.75,407.0156 393.0156,406.875 393.1875,406.6563 C393.2969,406.5 393.3281,406.3125 393.3281,405.8906 L393.3281,404.4688 C393.3281,404.0313 393.3125,403.9063 393.2188,403.75 C393.0625,403.4844 392.7813,403.3438 392.4844,403.3438 C392.1875,403.3438 391.9844,403.4375 391.7656,403.75 L391.5938,403.6719 Z " fill="#000000"/><text fill="#000000" font-family="sans-serif" font-size="12" lengthAdjust="spacingAndGlyphs" textLength="49" x="409.75" y="412.1543">Registry</text><line style="stroke:#A80036;stroke-width:1.5;" x1="304.5" x2="531.5" y1="424" y2="424"/><rect fill="none" height="6" style="stroke:#C82930;stroke-width:1.0;" width="6" x="311.5" y="432"/><text fill="#000000" font-family="sans-serif" font-size="11" lengthAdjust="spacingAndGlyphs" textLength="203" x="323.5" y="438.2104">mementoList: ArrayList&lt;Memento&gt;</text><rect fill="none" height="6" style="stroke:#C82930;stroke-width:1.0;" width="6" x="311.5" y="444.8047"/><text fill="#000000" font-family="sans-serif" font-size="11" lengthAdjust="spacingAndGlyphs" textLength="75" x="323.5" y="451.0151">game: Game</text><rect fill="none" height="6" style="stroke:#C82930;stroke-width:1.0;" width="6" x="311.5" y="457.6094"/><text fill="#000000" font-family="sans-serif" font-size="11" lengthAdjust="spacingAndGlyphs" textLength="90" x="323.5" y="463.8198">firstPrevious: int</text><line style="stroke:#A80036;stroke-width:1.5;" x1="304.5" x2="531.5" y1="470.4141" y2="470.4141"/><polygon fill="#4177AF" points="314.5,477.4141,310.5,483.4141,318.5,483.4141" style="stroke:#1963A0;stroke-width:1.0;"/><text fill="#000000" font-family="sans-serif" font-size="11" lengthAdjust="spacingAndGlyphs" textLength="89" x="323.5" y="484.6245">Registry(Game)</text><polygon fill="#4177AF" points="314.5,490.2188,310.5,496.2188,318.5,496.2188" style="stroke:#1963A0;stroke-width:1.0;"/><text fill="#000000" font-family="sans-serif" font-size="11" lengthAdjust="spacingAndGlyphs" textLength="38" x="323.5" y="497.4292">reset()</text><polygon fill="#4177AF" points="314.5,503.0234,310.5,509.0234,318.5,509.0234" style="stroke:#1963A0;stroke-width:1.0;"/><text fill="#000000" font-family="sans-serif" font-size="11" lengthAdjust="spacingAndGlyphs" textLength="51" x="323.5" y="510.2339">registry()</text><polygon fill="#4177AF" points="314.5,515.8281,310.5,521.8281,318.5,521.8281" style="stroke:#1963A0;stroke-width:1.0;"/><text fill="#000000" font-family="sans-serif" font-size="11" lengthAdjust="spacingAndGlyphs" textLength="114" x="323.5" y="523.0386">undoable(): boolean</text><polygon fill="#4177AF" points="314.5,528.6328,310.5,534.6328,318.5,534.6328" style="stroke:#1963A0;stroke-width:1.0;"/><text fill="#000000" font-family="sans-serif" font-size="11" lengthAdjust="spacingAndGlyphs" textLength="112" x="323.5" y="535.8433">redoable(): boolean</text><polygon fill="#4177AF" points="314.5,541.4375,310.5,547.4375,318.5,547.4375" style="stroke:#1963A0;stroke-width:1.0;"/><text fill="#000000" font-family="sans-serif" font-size="11" lengthAdjust="spacingAndGlyphs" textLength="71" x="323.5" y="548.6479">undo(Game)</text><polygon fill="#4177AF" points="314.5,554.2422,310.5,560.2422,318.5,560.2422" style="stroke:#1963A0;stroke-width:1.0;"/><text fill="#000000" font-family="sans-serif" font-size="11" lengthAdjust="spacingAndGlyphs" textLength="69" x="323.5" y="561.4526">redo(Game)</text><!--MD5=[57d4493c2f012a8ac2b6a8a6201e3b67]
class usantatecla.mastermind.models.Session--><rect codeLine="163" fill="#FEFECE" filter="url(#frmc8tcyuazcp)" height="291.2891" id="usantatecla.mastermind.models.Session" style="stroke:#A80036;stroke-width:1.5;" width="237" x="223.5" y="41"/><ellipse cx="313.75" cy="57" fill="#ADD1B2" rx="11" ry="11" style="stroke:#A80036;stroke-width:1.0;"/><path d="M316.0938,52.6719 C315.1563,52.2344 314.5625,52.0938 313.6875,52.0938 C311.0625,52.0938 309.0625,54.1719 309.0625,56.8906 L309.0625,58.0156 C309.0625,60.5938 311.1719,62.4844 314.0625,62.4844 C315.2813,62.4844 316.4375,62.1875 317.1875,61.6406 C317.7656,61.2344 318.0938,60.7813 318.0938,60.3906 C318.0938,59.9375 317.7031,59.5469 317.2344,59.5469 C317.0156,59.5469 316.8125,59.625 316.625,59.8125 C316.1719,60.2969 316.1719,60.2969 315.9844,60.3906 C315.5625,60.6563 314.875,60.7813 314.1094,60.7813 C312.0625,60.7813 310.7656,59.6875 310.7656,57.9844 L310.7656,56.8906 C310.7656,55.1094 312.0156,53.7969 313.75,53.7969 C314.3281,53.7969 314.9375,53.9531 315.4063,54.2031 C315.8906,54.4844 316.0625,54.7031 316.1563,55.1094 C316.2188,55.5156 316.25,55.6406 316.3906,55.7656 C316.5313,55.9063 316.7656,56.0156 316.9844,56.0156 C317.25,56.0156 317.5156,55.875 317.6875,55.6563 C317.7969,55.5 317.8281,55.3125 317.8281,54.8906 L317.8281,53.4688 C317.8281,53.0313 317.8125,52.9063 317.7188,52.75 C317.5625,52.4844 317.2813,52.3438 316.9844,52.3438 C316.6875,52.3438 316.4844,52.4375 316.2656,52.75 L316.0938,52.6719 Z " fill="#000000"/><text fill="#000000" font-family="sans-serif" font-size="12" lengthAdjust="spacingAndGlyphs" textLength="48" x="334.25" y="61.1543">Session</text><line style="stroke:#A80036;stroke-width:1.5;" x1="224.5" x2="459.5" y1="73" y2="73"/><rect fill="none" height="6" style="stroke:#C82930;stroke-width:1.0;" width="6" x="231.5" y="81"/><text fill="#000000" font-family="sans-serif" font-size="11" lengthAdjust="spacingAndGlyphs" textLength="67" x="243.5" y="87.2104">state: State</text><rect fill="none" height="6" style="stroke:#C82930;stroke-width:1.0;" width="6" x="231.5" y="93.8047"/><text fill="#000000" font-family="sans-serif" font-size="11" lengthAdjust="spacingAndGlyphs" textLength="75" x="243.5" y="100.0151">game: Game</text><rect fill="none" height="6" style="stroke:#C82930;stroke-width:1.0;" width="6" x="231.5" y="106.6094"/><text fill="#000000" font-family="sans-serif" font-size="11" lengthAdjust="spacingAndGlyphs" textLength="96" x="243.5" y="112.8198">registry: Registry</text><line style="stroke:#A80036;stroke-width:1.5;" x1="224.5" x2="459.5" y1="119.4141" y2="119.4141"/><ellipse cx="234.5" cy="130.4141" fill="#84BE84" rx="3" ry="3" style="stroke:#038048;stroke-width:1.0;"/><text fill="#000000" font-family="sans-serif" font-size="11" lengthAdjust="spacingAndGlyphs" textLength="53" x="243.5" y="133.6245">Session()</text><ellipse cx="234.5" cy="143.2188" fill="#84BE84" rx="3" ry="3" style="stroke:#038048;stroke-width:1.0;"/><text fill="#000000" font-family="sans-serif" font-size="11" lengthAdjust="spacingAndGlyphs" textLength="34" x="243.5" y="146.4292">next()</text><ellipse cx="234.5" cy="156.0234" fill="#84BE84" rx="3" ry="3" style="stroke:#038048;stroke-width:1.0;"/><text fill="#000000" font-family="sans-serif" font-size="11" lengthAdjust="spacingAndGlyphs" textLength="211" x="243.5" y="159.2339">addProposeCombination(List&lt;Color&gt;)</text><ellipse cx="234.5" cy="168.8281" fill="#84BE84" rx="3" ry="3" style="stroke:#038048;stroke-width:1.0;"/><text fill="#000000" font-family="sans-serif" font-size="11" lengthAdjust="spacingAndGlyphs" textLength="114" x="243.5" y="172.0386">undoable(): boolean</text><ellipse cx="234.5" cy="181.6328" fill="#84BE84" rx="3" ry="3" style="stroke:#038048;stroke-width:1.0;"/><text fill="#000000" font-family="sans-serif" font-size="11" lengthAdjust="spacingAndGlyphs" textLength="112" x="243.5" y="184.8433">redoable(): boolean</text><ellipse cx="234.5" cy="194.4375" fill="#84BE84" rx="3" ry="3" style="stroke:#038048;stroke-width:1.0;"/><text fill="#000000" font-family="sans-serif" font-size="11" lengthAdjust="spacingAndGlyphs" textLength="80" x="243.5" y="197.6479">getWidth(): int</text><ellipse cx="234.5" cy="207.2422" fill="#84BE84" rx="3" ry="3" style="stroke:#038048;stroke-width:1.0;"/><text fill="#000000" font-family="sans-serif" font-size="11" lengthAdjust="spacingAndGlyphs" textLength="36" x="243.5" y="210.4526">undo()</text><ellipse cx="234.5" cy="220.0469" fill="#84BE84" rx="3" ry="3" style="stroke:#038048;stroke-width:1.0;"/><text fill="#000000" font-family="sans-serif" font-size="11" lengthAdjust="spacingAndGlyphs" textLength="162" x="243.5" y="223.2573">getValueState(): StateValue</text><ellipse cx="234.5" cy="232.8516" fill="#84BE84" rx="3" ry="3" style="stroke:#038048;stroke-width:1.0;"/><text fill="#000000" font-family="sans-serif" font-size="11" lengthAdjust="spacingAndGlyphs" textLength="110" x="243.5" y="236.062">isWinner(): boolean</text><ellipse cx="234.5" cy="245.6563" fill="#84BE84" rx="3" ry="3" style="stroke:#038048;stroke-width:1.0;"/><text fill="#000000" font-family="sans-serif" font-size="11" lengthAdjust="spacingAndGlyphs" textLength="100" x="243.5" y="248.8667">getAttempts(): int</text><ellipse cx="234.5" cy="258.4609" fill="#84BE84" rx="3" ry="3" style="stroke:#038048;stroke-width:1.0;"/><text fill="#000000" font-family="sans-serif" font-size="11" lengthAdjust="spacingAndGlyphs" textLength="34" x="243.5" y="261.6714">redo()</text><ellipse cx="234.5" cy="271.2656" fill="#84BE84" rx="3" ry="3" style="stroke:#038048;stroke-width:1.0;"/><text fill="#000000" font-family="sans-serif" font-size="11" lengthAdjust="spacingAndGlyphs" textLength="149" x="243.5" y="274.4761">getColors(int): List&lt;Color&gt;</text><ellipse cx="234.5" cy="284.0703" fill="#84BE84" rx="3" ry="3" style="stroke:#038048;stroke-width:1.0;"/><text fill="#000000" font-family="sans-serif" font-size="11" lengthAdjust="spacingAndGlyphs" textLength="108" x="243.5" y="287.2808">isLooser(): boolean</text><ellipse cx="234.5" cy="296.875" fill="#84BE84" rx="3" ry="3" style="stroke:#038048;stroke-width:1.0;"/><text fill="#000000" font-family="sans-serif" font-size="11" lengthAdjust="spacingAndGlyphs" textLength="71" x="243.5" y="300.0854">clearGame()</text><ellipse cx="234.5" cy="309.6797" fill="#84BE84" rx="3" ry="3" style="stroke:#038048;stroke-width:1.0;"/><text fill="#000000" font-family="sans-serif" font-size="11" lengthAdjust="spacingAndGlyphs" textLength="98" x="243.5" y="312.8901">getBlacks(int): int</text><ellipse cx="234.5" cy="322.4844" fill="#84BE84" rx="3" ry="3" style="stroke:#038048;stroke-width:1.0;"/><text fill="#000000" font-family="sans-serif" font-size="11" lengthAdjust="spacingAndGlyphs" textLength="101" x="243.5" y="325.6948">getWhites(int): int</text><!--MD5=[9ba97027f3433c7bc0635c95b0f40e9e]
class usantatecla.mastermind.types.Color--><rect codeLine="112" fill="#FEFECE" filter="url(#frmc8tcyuazcp)" height="163.2422" id="usantatecla.mastermind.types.Color" style="stroke:#A80036;stroke-width:1.5;" width="117" x="302.5" y="1795"/><ellipse cx="341.35" cy="1811" fill="#EB937F" rx="11" ry="11" style="stroke:#A80036;stroke-width:1.0;"/><path d="M340.1469,1811.875 L341.6,1811.875 L341.6,1811.9844 C341.6,1812.3906 341.6313,1812.5469 341.7094,1812.7031 C341.8656,1812.9531 342.1469,1813.1094 342.4438,1813.1094 C342.6938,1813.1094 342.9594,1812.9688 343.1156,1812.75 C343.2406,1812.5938 343.2719,1812.4375 343.2719,1811.9844 L343.2719,1810.0625 C343.2719,1809.9063 343.2719,1809.8594 343.2563,1809.7031 C343.1938,1809.2344 342.8813,1808.9219 342.4281,1808.9219 C342.1781,1808.9219 341.9125,1809.0625 341.7406,1809.2813 C341.6313,1809.4531 341.6,1809.6094 341.6,1810.0625 L341.6,1810.1875 L340.1469,1810.1875 L340.1469,1807.7813 L344.1313,1807.7813 L344.1313,1808.6406 C344.1313,1809.0469 344.1625,1809.2188 344.2406,1809.375 C344.4125,1809.625 344.6938,1809.7813 344.975,1809.7813 C345.2406,1809.7813 345.5063,1809.6406 345.6781,1809.4219 C345.7875,1809.25 345.8188,1809.1094 345.8188,1808.6406 L345.8188,1806.0938 L338.1938,1806.0938 C337.7563,1806.0938 337.6313,1806.1094 337.475,1806.2031 C337.225,1806.3594 337.0688,1806.6563 337.0688,1806.9375 C337.0688,1807.2188 337.2094,1807.4688 337.4281,1807.6406 C337.5844,1807.75 337.7719,1807.7813 338.1938,1807.7813 L338.4438,1807.7813 L338.4438,1814.2969 L338.1938,1814.2969 C337.7875,1814.2969 337.6313,1814.3125 337.475,1814.4219 C337.225,1814.5938 337.0688,1814.8594 337.0688,1815.1563 C337.0688,1815.4219 337.2094,1815.6719 337.4281,1815.8281 C337.5688,1815.9531 337.8031,1816 338.1938,1816 L346.1938,1816 L346.1938,1813.4219 C346.1938,1812.9844 346.1625,1812.8438 346.0844,1812.6875 C345.9125,1812.4375 345.6313,1812.2813 345.35,1812.2813 C345.0844,1812.2813 344.8188,1812.3906 344.6469,1812.6406 C344.5375,1812.7969 344.5063,1812.9375 344.5063,1813.4219 L344.5063,1814.2969 L340.1469,1814.2969 L340.1469,1811.875 Z " fill="#000000"/><text fill="#000000" font-family="sans-serif" font-size="12" lengthAdjust="spacingAndGlyphs" textLength="32" x="360.65" y="1815.1543">Color</text><line style="stroke:#A80036;stroke-width:1.5;" x1="303.5" x2="418.5" y1="1827" y2="1827"/><ellipse cx="313.5" cy="1838" fill="none" rx="3" ry="3" style="stroke:#038048;stroke-width:1.0;"/><text fill="#000000" font-family="sans-serif" font-size="11" lengthAdjust="spacingAndGlyphs" textLength="23" x="322.5" y="1841.2104">RED</text><ellipse cx="313.5" cy="1850.8047" fill="none" rx="3" ry="3" style="stroke:#038048;stroke-width:1.0;"/><text fill="#000000" font-family="sans-serif" font-size="11" lengthAdjust="spacingAndGlyphs" textLength="29" x="322.5" y="1854.0151">BLUE</text><ellipse cx="313.5" cy="1863.6094" fill="none" rx="3" ry="3" style="stroke:#038048;stroke-width:1.0;"/><text fill="#000000" font-family="sans-serif" font-size="11" lengthAdjust="spacingAndGlyphs" textLength="46" x="322.5" y="1866.8198">YELLOW</text><ellipse cx="313.5" cy="1876.4141" fill="none" rx="3" ry="3" style="stroke:#038048;stroke-width:1.0;"/><text fill="#000000" font-family="sans-serif" font-size="11" lengthAdjust="spacingAndGlyphs" textLength="38" x="322.5" y="1879.6245">GREEN</text><ellipse cx="313.5" cy="1889.2188" fill="none" rx="3" ry="3" style="stroke:#038048;stroke-width:1.0;"/><text fill="#000000" font-family="sans-serif" font-size="11" lengthAdjust="spacingAndGlyphs" textLength="48" x="322.5" y="1892.4292">ORANGE</text><ellipse cx="313.5" cy="1902.0234" fill="none" rx="3" ry="3" style="stroke:#038048;stroke-width:1.0;"/><text fill="#000000" font-family="sans-serif" font-size="11" lengthAdjust="spacingAndGlyphs" textLength="40" x="322.5" y="1905.2339">PURPLE</text><ellipse cx="313.5" cy="1914.8281" fill="none" rx="3" ry="3" style="stroke:#038048;stroke-width:1.0;"/><text fill="#000000" font-family="sans-serif" font-size="11" lengthAdjust="spacingAndGlyphs" textLength="28" x="322.5" y="1918.0386">NULL</text><line style="stroke:#A80036;stroke-width:1.5;" x1="303.5" x2="418.5" y1="1924.6328" y2="1924.6328"/><polygon fill="#4177AF" points="313.5,1931.6328,309.5,1937.6328,317.5,1937.6328" style="stroke:#1963A0;stroke-width:1.0;"/><text fill="#000000" font-family="sans-serif" font-size="11" lengthAdjust="spacingAndGlyphs" text-decoration="underline" textLength="65" x="322.5" y="1938.8433">length(): int</text><ellipse cx="313.5" cy="1948.4375" fill="#84BE84" rx="3" ry="3" style="stroke:#038048;stroke-width:1.0;"/><text fill="#000000" font-family="sans-serif" font-size="11" lengthAdjust="spacingAndGlyphs" textLength="91" x="322.5" y="1951.6479">isNull(): boolean</text><!--MD5=[361325273302787e4c8f3934acbb17be]
class usantatecla.mastermind.types.Error--><rect codeLine="124" fill="#FEFECE" filter="url(#frmc8tcyuazcp)" height="112.0234" id="usantatecla.mastermind.types.Error" style="stroke:#A80036;stroke-width:1.5;" width="152" x="115" y="1820.5"/><ellipse cx="171.75" cy="1836.5" fill="#EB937F" rx="11" ry="11" style="stroke:#A80036;stroke-width:1.0;"/><path d="M170.5469,1837.375 L172,1837.375 L172,1837.4844 C172,1837.8906 172.0313,1838.0469 172.1094,1838.2031 C172.2656,1838.4531 172.5469,1838.6094 172.8438,1838.6094 C173.0938,1838.6094 173.3594,1838.4688 173.5156,1838.25 C173.6406,1838.0938 173.6719,1837.9375 173.6719,1837.4844 L173.6719,1835.5625 C173.6719,1835.4063 173.6719,1835.3594 173.6563,1835.2031 C173.5938,1834.7344 173.2813,1834.4219 172.8281,1834.4219 C172.5781,1834.4219 172.3125,1834.5625 172.1406,1834.7813 C172.0313,1834.9531 172,1835.1094 172,1835.5625 L172,1835.6875 L170.5469,1835.6875 L170.5469,1833.2813 L174.5313,1833.2813 L174.5313,1834.1406 C174.5313,1834.5469 174.5625,1834.7188 174.6406,1834.875 C174.8125,1835.125 175.0938,1835.2813 175.375,1835.2813 C175.6406,1835.2813 175.9063,1835.1406 176.0781,1834.9219 C176.1875,1834.75 176.2188,1834.6094 176.2188,1834.1406 L176.2188,1831.5938 L168.5938,1831.5938 C168.1563,1831.5938 168.0313,1831.6094 167.875,1831.7031 C167.625,1831.8594 167.4688,1832.1563 167.4688,1832.4375 C167.4688,1832.7188 167.6094,1832.9688 167.8281,1833.1406 C167.9844,1833.25 168.1719,1833.2813 168.5938,1833.2813 L168.8438,1833.2813 L168.8438,1839.7969 L168.5938,1839.7969 C168.1875,1839.7969 168.0313,1839.8125 167.875,1839.9219 C167.625,1840.0938 167.4688,1840.3594 167.4688,1840.6563 C167.4688,1840.9219 167.6094,1841.1719 167.8281,1841.3281 C167.9688,1841.4531 168.2031,1841.5 168.5938,1841.5 L176.5938,1841.5 L176.5938,1838.9219 C176.5938,1838.4844 176.5625,1838.3438 176.4844,1838.1875 C176.3125,1837.9375 176.0313,1837.7813 175.75,1837.7813 C175.4844,1837.7813 175.2188,1837.8906 175.0469,1838.1406 C174.9375,1838.2969 174.9063,1838.4375 174.9063,1838.9219 L174.9063,1839.7969 L170.5469,1839.7969 L170.5469,1837.375 Z " fill="#000000"/><text fill="#000000" font-family="sans-serif" font-size="12" lengthAdjust="spacingAndGlyphs" textLength="30" x="192.25" y="1840.6543">Error</text><line style="stroke:#A80036;stroke-width:1.5;" x1="116" x2="266" y1="1852.5" y2="1852.5"/><ellipse cx="126" cy="1863.5" fill="none" rx="3" ry="3" style="stroke:#038048;stroke-width:1.0;"/><text fill="#000000" font-family="sans-serif" font-size="11" lengthAdjust="spacingAndGlyphs" textLength="71" x="135" y="1866.7104">DUPLICATED</text><ellipse cx="126" cy="1876.3047" fill="none" rx="3" ry="3" style="stroke:#038048;stroke-width:1.0;"/><text fill="#000000" font-family="sans-serif" font-size="11" lengthAdjust="spacingAndGlyphs" textLength="126" x="135" y="1879.5151">WRONG_CHARACTERS</text><ellipse cx="126" cy="1889.1094" fill="none" rx="3" ry="3" style="stroke:#038048;stroke-width:1.0;"/><text fill="#000000" font-family="sans-serif" font-size="11" lengthAdjust="spacingAndGlyphs" textLength="95" x="135" y="1892.3198">WRONG_LENGTH</text><ellipse cx="126" cy="1901.9141" fill="none" rx="3" ry="3" style="stroke:#038048;stroke-width:1.0;"/><text fill="#000000" font-family="sans-serif" font-size="11" lengthAdjust="spacingAndGlyphs" textLength="28" x="135" y="1905.1245">NULL</text><line style="stroke:#A80036;stroke-width:1.5;" x1="116" x2="266" y1="1911.7188" y2="1911.7188"/><ellipse cx="126" cy="1922.7188" fill="#84BE84" rx="3" ry="3" style="stroke:#038048;stroke-width:1.0;"/><text fill="#000000" font-family="sans-serif" font-size="11" lengthAdjust="spacingAndGlyphs" textLength="91" x="135" y="1925.9292">isNull(): boolean</text><!--MD5=[3d4177ac58b4411586d067f34e84928f]
class List--><rect codeLine="1" fill="#FEFECE" filter="url(#frmc8tcyuazcp)" height="48" id="List" style="stroke:#A80036;stroke-width:1.5;" width="99" x="788.5" y="1222"/><ellipse cx="803.5" cy="1238" fill="#ADD1B2" rx="11" ry="11" style="stroke:#A80036;stroke-width:1.0;"/><path d="M805.8438,1233.6719 C804.9063,1233.2344 804.3125,1233.0938 803.4375,1233.0938 C800.8125,1233.0938 798.8125,1235.1719 798.8125,1237.8906 L798.8125,1239.0156 C798.8125,1241.5938 800.9219,1243.4844 803.8125,1243.4844 C805.0313,1243.4844 806.1875,1243.1875 806.9375,1242.6406 C807.5156,1242.2344 807.8438,1241.7813 807.8438,1241.3906 C807.8438,1240.9375 807.4531,1240.5469 806.9844,1240.5469 C806.7656,1240.5469 806.5625,1240.625 806.375,1240.8125 C805.9219,1241.2969 805.9219,1241.2969 805.7344,1241.3906 C805.3125,1241.6563 804.625,1241.7813 803.8594,1241.7813 C801.8125,1241.7813 800.5156,1240.6875 800.5156,1238.9844 L800.5156,1237.8906 C800.5156,1236.1094 801.7656,1234.7969 803.5,1234.7969 C804.0781,1234.7969 804.6875,1234.9531 805.1563,1235.2031 C805.6406,1235.4844 805.8125,1235.7031 805.9063,1236.1094 C805.9688,1236.5156 806,1236.6406 806.1406,1236.7656 C806.2813,1236.9063 806.5156,1237.0156 806.7344,1237.0156 C807,1237.0156 807.2656,1236.875 807.4375,1236.6563 C807.5469,1236.5 807.5781,1236.3125 807.5781,1235.8906 L807.5781,1234.4688 C807.5781,1234.0313 807.5625,1233.9063 807.4688,1233.75 C807.3125,1233.4844 807.0313,1233.3438 806.7344,1233.3438 C806.4375,1233.3438 806.2344,1233.4375 806.0156,1233.75 L805.8438,1233.6719 Z " fill="#000000"/><text fill="#000000" font-family="sans-serif" font-size="12" lengthAdjust="spacingAndGlyphs" textLength="67" x="817.5" y="1242.1543">java.util.List</text><line style="stroke:#A80036;stroke-width:1.5;" x1="789.5" x2="886.5" y1="1254" y2="1254"/><line style="stroke:#A80036;stroke-width:1.5;" x1="789.5" x2="886.5" y1="1262" y2="1262"/><!--MD5=[ab8871ed637f40707b866ba6597734bc]
class ArrayList--><rect codeLine="5" fill="#FEFECE" filter="url(#frmc8tcyuazcp)" height="48" id="ArrayList" style="stroke:#A80036;stroke-width:1.5;" width="131" x="788.5" y="737"/><ellipse cx="803.5" cy="753" fill="#ADD1B2" rx="11" ry="11" style="stroke:#A80036;stroke-width:1.0;"/><path d="M805.8438,748.6719 C804.9063,748.2344 804.3125,748.0938 803.4375,748.0938 C800.8125,748.0938 798.8125,750.1719 798.8125,752.8906 L798.8125,754.0156 C798.8125,756.5938 800.9219,758.4844 803.8125,758.4844 C805.0313,758.4844 806.1875,758.1875 806.9375,757.6406 C807.5156,757.2344 807.8438,756.7813 807.8438,756.3906 C807.8438,755.9375 807.4531,755.5469 806.9844,755.5469 C806.7656,755.5469 806.5625,755.625 806.375,755.8125 C805.9219,756.2969 805.9219,756.2969 805.7344,756.3906 C805.3125,756.6563 804.625,756.7813 803.8594,756.7813 C801.8125,756.7813 800.5156,755.6875 800.5156,753.9844 L800.5156,752.8906 C800.5156,751.1094 801.7656,749.7969 803.5,749.7969 C804.0781,749.7969 804.6875,749.9531 805.1563,750.2031 C805.6406,750.4844 805.8125,750.7031 805.9063,751.1094 C805.9688,751.5156 806,751.6406 806.1406,751.7656 C806.2813,751.9063 806.5156,752.0156 806.7344,752.0156 C807,752.0156 807.2656,751.875 807.4375,751.6563 C807.5469,751.5 807.5781,751.3125 807.5781,750.8906 L807.5781,749.4688 C807.5781,749.0313 807.5625,748.9063 807.4688,748.75 C807.3125,748.4844 807.0313,748.3438 806.7344,748.3438 C806.4375,748.3438 806.2344,748.4375 806.0156,748.75 L805.8438,748.6719 Z " fill="#000000"/><text fill="#000000" font-family="sans-serif" font-size="12" lengthAdjust="spacingAndGlyphs" textLength="99" x="817.5" y="757.1543">java.util.ArrayList</text><line style="stroke:#A80036;stroke-width:1.5;" x1="789.5" x2="918.5" y1="769" y2="769"/><line style="stroke:#A80036;stroke-width:1.5;" x1="789.5" x2="918.5" y1="777" y2="777"/><!--MD5=[42fa18dda7351a0ae87d9497de925436]
class Logic--><rect codeLine="9" fill="#FEFECE" filter="url(#frmc8tcyuazcp)" height="48" id="Logic" style="stroke:#A80036;stroke-width:1.5;" width="277" x="1179.5" y="162.5"/><ellipse cx="1194.5" cy="178.5" fill="#ADD1B2" rx="11" ry="11" style="stroke:#A80036;stroke-width:1.0;"/><path d="M1196.8438,174.1719 C1195.9063,173.7344 1195.3125,173.5938 1194.4375,173.5938 C1191.8125,173.5938 1189.8125,175.6719 1189.8125,178.3906 L1189.8125,179.5156 C1189.8125,182.0938 1191.9219,183.9844 1194.8125,183.9844 C1196.0313,183.9844 1197.1875,183.6875 1197.9375,183.1406 C1198.5156,182.7344 1198.8438,182.2813 1198.8438,181.8906 C1198.8438,181.4375 1198.4531,181.0469 1197.9844,181.0469 C1197.7656,181.0469 1197.5625,181.125 1197.375,181.3125 C1196.9219,181.7969 1196.9219,181.7969 1196.7344,181.8906 C1196.3125,182.1563 1195.625,182.2813 1194.8594,182.2813 C1192.8125,182.2813 1191.5156,181.1875 1191.5156,179.4844 L1191.5156,178.3906 C1191.5156,176.6094 1192.7656,175.2969 1194.5,175.2969 C1195.0781,175.2969 1195.6875,175.4531 1196.1563,175.7031 C1196.6406,175.9844 1196.8125,176.2031 1196.9063,176.6094 C1196.9688,177.0156 1197,177.1406 1197.1406,177.2656 C1197.2813,177.4063 1197.5156,177.5156 1197.7344,177.5156 C1198,177.5156 1198.2656,177.375 1198.4375,177.1563 C1198.5469,177 1198.5781,176.8125 1198.5781,176.3906 L1198.5781,174.9688 C1198.5781,174.5313 1198.5625,174.4063 1198.4688,174.25 C1198.3125,173.9844 1198.0313,173.8438 1197.7344,173.8438 C1197.4375,173.8438 1197.2344,173.9375 1197.0156,174.25 L1196.8438,174.1719 Z " fill="#000000"/><text fill="#000000" font-family="sans-serif" font-size="12" lengthAdjust="spacingAndGlyphs" textLength="245" x="1208.5" y="182.6543">usantatecla.mastermind.controllers.Logic</text><line style="stroke:#A80036;stroke-width:1.5;" x1="1180.5" x2="1455.5" y1="194.5" y2="194.5"/><line style="stroke:#A80036;stroke-width:1.5;" x1="1180.5" x2="1455.5" y1="202.5" y2="202.5"/><!--MD5=[1a47bbf44ccee225df9b18c5b6629853]
class ResumeController--><rect codeLine="14" fill="#FEFECE" filter="url(#frmc8tcyuazcp)" height="48" id="ResumeController" style="stroke:#A80036;stroke-width:1.5;" width="352" x="1492" y="162.5"/><ellipse cx="1507" cy="178.5" fill="#ADD1B2" rx="11" ry="11" style="stroke:#A80036;stroke-width:1.0;"/><path d="M1509.3438,174.1719 C1508.4063,173.7344 1507.8125,173.5938 1506.9375,173.5938 C1504.3125,173.5938 1502.3125,175.6719 1502.3125,178.3906 L1502.3125,179.5156 C1502.3125,182.0938 1504.4219,183.9844 1507.3125,183.9844 C1508.5313,183.9844 1509.6875,183.6875 1510.4375,183.1406 C1511.0156,182.7344 1511.3438,182.2813 1511.3438,181.8906 C1511.3438,181.4375 1510.9531,181.0469 1510.4844,181.0469 C1510.2656,181.0469 1510.0625,181.125 1509.875,181.3125 C1509.4219,181.7969 1509.4219,181.7969 1509.2344,181.8906 C1508.8125,182.1563 1508.125,182.2813 1507.3594,182.2813 C1505.3125,182.2813 1504.0156,181.1875 1504.0156,179.4844 L1504.0156,178.3906 C1504.0156,176.6094 1505.2656,175.2969 1507,175.2969 C1507.5781,175.2969 1508.1875,175.4531 1508.6563,175.7031 C1509.1406,175.9844 1509.3125,176.2031 1509.4063,176.6094 C1509.4688,177.0156 1509.5,177.1406 1509.6406,177.2656 C1509.7813,177.4063 1510.0156,177.5156 1510.2344,177.5156 C1510.5,177.5156 1510.7656,177.375 1510.9375,177.1563 C1511.0469,177 1511.0781,176.8125 1511.0781,176.3906 L1511.0781,174.9688 C1511.0781,174.5313 1511.0625,174.4063 1510.9688,174.25 C1510.8125,173.9844 1510.5313,173.8438 1510.2344,173.8438 C1509.9375,173.8438 1509.7344,173.9375 1509.5156,174.25 L1509.3438,174.1719 Z " fill="#000000"/><text fill="#000000" font-family="sans-serif" font-size="12" lengthAdjust="spacingAndGlyphs" textLength="320" x="1521" y="182.6543">usantatecla.mastermind.controllers.ResumeController</text><line style="stroke:#A80036;stroke-width:1.5;" x1="1493" x2="1843" y1="194.5" y2="194.5"/><line style="stroke:#A80036;stroke-width:1.5;" x1="1493" x2="1843" y1="202.5" y2="202.5"/><!--MD5=[47c371471411cfedeee61b1a5bdaee47]
class StartController--><rect codeLine="19" fill="#FEFECE" filter="url(#frmc8tcyuazcp)" height="48" id="StartController" style="stroke:#A80036;stroke-width:1.5;" width="332" x="1879" y="162.5"/><ellipse cx="1894" cy="178.5" fill="#ADD1B2" rx="11" ry="11" style="stroke:#A80036;stroke-width:1.0;"/><path d="M1896.3438,174.1719 C1895.4063,173.7344 1894.8125,173.5938 1893.9375,173.5938 C1891.3125,173.5938 1889.3125,175.6719 1889.3125,178.3906 L1889.3125,179.5156 C1889.3125,182.0938 1891.4219,183.9844 1894.3125,183.9844 C1895.5313,183.9844 1896.6875,183.6875 1897.4375,183.1406 C1898.0156,182.7344 1898.3438,182.2813 1898.3438,181.8906 C1898.3438,181.4375 1897.9531,181.0469 1897.4844,181.0469 C1897.2656,181.0469 1897.0625,181.125 1896.875,181.3125 C1896.4219,181.7969 1896.4219,181.7969 1896.2344,181.8906 C1895.8125,182.1563 1895.125,182.2813 1894.3594,182.2813 C1892.3125,182.2813 1891.0156,181.1875 1891.0156,179.4844 L1891.0156,178.3906 C1891.0156,176.6094 1892.2656,175.2969 1894,175.2969 C1894.5781,175.2969 1895.1875,175.4531 1895.6563,175.7031 C1896.1406,175.9844 1896.3125,176.2031 1896.4063,176.6094 C1896.4688,177.0156 1896.5,177.1406 1896.6406,177.2656 C1896.7813,177.4063 1897.0156,177.5156 1897.2344,177.5156 C1897.5,177.5156 1897.7656,177.375 1897.9375,177.1563 C1898.0469,177 1898.0781,176.8125 1898.0781,176.3906 L1898.0781,174.9688 C1898.0781,174.5313 1898.0625,174.4063 1897.9688,174.25 C1897.8125,173.9844 1897.5313,173.8438 1897.2344,173.8438 C1896.9375,173.8438 1896.7344,173.9375 1896.5156,174.25 L1896.3438,174.1719 Z " fill="#000000"/><text fill="#000000" font-family="sans-serif" font-size="12" lengthAdjust="spacingAndGlyphs" textLength="300" x="1908" y="182.6543">usantatecla.mastermind.controllers.StartController</text><line style="stroke:#A80036;stroke-width:1.5;" x1="1880" x2="2210" y1="194.5" y2="194.5"/><line style="stroke:#A80036;stroke-width:1.5;" x1="1880" x2="2210" y1="202.5" y2="202.5"/><!--MD5=[9dc2ab56716d4fbd8c61f2d17f2f3bab]
class ProposalController--><rect codeLine="24" fill="#FEFECE" filter="url(#frmc8tcyuazcp)" height="48" id="ProposalController" style="stroke:#A80036;stroke-width:1.5;" width="356" x="788" y="162.5"/><ellipse cx="803" cy="178.5" fill="#ADD1B2" rx="11" ry="11" style="stroke:#A80036;stroke-width:1.0;"/><path d="M805.3438,174.1719 C804.4063,173.7344 803.8125,173.5938 802.9375,173.5938 C800.3125,173.5938 798.3125,175.6719 798.3125,178.3906 L798.3125,179.5156 C798.3125,182.0938 800.4219,183.9844 803.3125,183.9844 C804.5313,183.9844 805.6875,183.6875 806.4375,183.1406 C807.0156,182.7344 807.3438,182.2813 807.3438,181.8906 C807.3438,181.4375 806.9531,181.0469 806.4844,181.0469 C806.2656,181.0469 806.0625,181.125 805.875,181.3125 C805.4219,181.7969 805.4219,181.7969 805.2344,181.8906 C804.8125,182.1563 804.125,182.2813 803.3594,182.2813 C801.3125,182.2813 800.0156,181.1875 800.0156,179.4844 L800.0156,178.3906 C800.0156,176.6094 801.2656,175.2969 803,175.2969 C803.5781,175.2969 804.1875,175.4531 804.6563,175.7031 C805.1406,175.9844 805.3125,176.2031 805.4063,176.6094 C805.4688,177.0156 805.5,177.1406 805.6406,177.2656 C805.7813,177.4063 806.0156,177.5156 806.2344,177.5156 C806.5,177.5156 806.7656,177.375 806.9375,177.1563 C807.0469,177 807.0781,176.8125 807.0781,176.3906 L807.0781,174.9688 C807.0781,174.5313 807.0625,174.4063 806.9688,174.25 C806.8125,173.9844 806.5313,173.8438 806.2344,173.8438 C805.9375,173.8438 805.7344,173.9375 805.5156,174.25 L805.3438,174.1719 Z " fill="#000000"/><text fill="#000000" font-family="sans-serif" font-size="12" lengthAdjust="spacingAndGlyphs" textLength="324" x="817" y="182.6543">usantatecla.mastermind.controllers.ProposalController</text><line style="stroke:#A80036;stroke-width:1.5;" x1="789" x2="1143" y1="194.5" y2="194.5"/><line style="stroke:#A80036;stroke-width:1.5;" x1="789" x2="1143" y1="202.5" y2="202.5"/><!--MD5=[695784cf58eb370cc2c2d12b8251ec79]
link usantatecla.mastermind.models.Combination to usantatecla.mastermind.types.Color--><path codeLine="50" d="M317.77,1546.921 C317.77,1546.921 322.837,1579.817 325,1595 C333.845,1657.08 342.825,1727.034 349.604,1781.553 " fill="none" id="usantatecla.mastermind.models.Combination-usantatecla.mastermind.types.Color" style="stroke:#A80036;stroke-width:1.0;"/><polygon fill="#A80036" points="351.234,1794.711,354.0969,1785.2874,350.6192,1789.7489,346.1577,1786.2712,351.234,1794.711" style="stroke:#A80036;stroke-width:1.0;"/><line style="stroke:#A80036;stroke-width:1.0;" x1="350.6192" x2="349.6355" y1="1789.7489" y2="1781.8095"/><polygon fill="#A80036" points="315.904,1535.067,312.8857,1541.616,317.77,1546.921,320.7883,1540.372,315.904,1535.067" style="stroke:#A80036;stroke-width:1.0;"/><text fill="#000000" font-family="sans-serif" font-size="13" lengthAdjust="spacingAndGlyphs" textLength="7" x="343.0525" y="1783.8207">*</text><!--MD5=[9023905e33852f54aab14668064e9227]
link usantatecla.mastermind.models.State to usantatecla.mastermind.models.StateValue--><path codeLine="51" d="M662,548.12 C662,548.12 662,653.77 662,697.88 " fill="none" id="usantatecla.mastermind.models.State-usantatecla.mastermind.models.StateValue" style="stroke:#A80036;stroke-width:1.0;"/><polygon fill="#A80036" points="662,711.06,666,702.06,662,706.06,658,702.06,662,711.06" style="stroke:#A80036;stroke-width:1.0;"/><line style="stroke:#A80036;stroke-width:1.0;" x1="662" x2="662" y1="706.06" y2="698.06"/><polygon fill="#A80036" points="662,536.12,658,542.12,662,548.12,666,542.12,662,536.12" style="stroke:#A80036;stroke-width:1.0;"/><!--MD5=[c23eeff777e41be6162eb2a84ee1942c]
link Logic to usantatecla.mastermind.models.State--><path codeLine="52" d="M1291.4404,219.6065 C1291.4404,219.6065 1213.56,302.72 1162,332 C1037.01,402.99 874.583,442.49 769.328,462.23 " fill="none" id="Logic-usantatecla.mastermind.models.State" style="stroke:#A80036;stroke-width:1.0;"/><polygon fill="#A80036" points="756.463,464.6,766.0386,466.9041,761.3803,463.6946,764.5898,459.0363,756.463,464.6" style="stroke:#A80036;stroke-width:1.0;"/><line style="stroke:#A80036;stroke-width:1.0;" x1="761.3803" x2="769.248" y1="463.6946" y2="462.245"/><polygon fill="#A80036" points="1299.29,210.53,1292.3397,212.4517,1291.4404,219.6065,1298.3907,217.6848,1299.29,210.53" style="stroke:#A80036;stroke-width:1.0;"/><!--MD5=[c6d835791852251ba6c296f91366d48f]
link ProposalController to usantatecla.mastermind.models.State--><path codeLine="53" d="M941.892,210.62 C895.076,255.51 790.571,355.72 723.345,420.18 " fill="none" id="ProposalController-to-usantatecla.mastermind.models.State" style="stroke:#A80036;stroke-width:1.0;"/><polygon fill="#A80036" points="719.373,423.99,728.6396,420.6538,722.9841,420.5317,723.1062,414.8761,719.373,423.99" style="stroke:#A80036;stroke-width:1.0;"/><!--MD5=[629b39562054981ecd9b74900e0dcf73]
link ResumeController to usantatecla.mastermind.models.State--><path codeLine="54" d="M1644.62,210.73 C1610.33,243.34 1542.95,302.06 1474,332 C1232.2,436.99 918.503,467 761.178,475.57 " fill="none" id="ResumeController-to-usantatecla.mastermind.models.State" style="stroke:#A80036;stroke-width:1.0;"/><polygon fill="#A80036" points="756.108,475.84,765.3101,479.3501,761.1008,475.571,764.8798,471.3617,756.108,475.84" style="stroke:#A80036;stroke-width:1.0;"/><!--MD5=[34066b31e951e1345f13d89412696dd3]
link StartController to usantatecla.mastermind.models.State--><path codeLine="55" d="M2023.97,210.73 C1992.4,243.91 1929.25,303.95 1862,332 C1663.23,414.9 1012.04,459.35 761.48,473.73 " fill="none" id="StartController-to-usantatecla.mastermind.models.State" style="stroke:#A80036;stroke-width:1.0;"/><polygon fill="#A80036" points="756.364,474.02,765.5771,477.5012,761.3559,473.7354,765.1217,469.5141,756.364,474.02" style="stroke:#A80036;stroke-width:1.0;"/><!--MD5=[12c828a60891e76557ccb918ce156a05]
link usantatecla.mastermind.models.Game to usantatecla.mastermind.models.SecretCombination--><path codeLine="76" d="M249.0209,906.1687 C249.0209,906.1687 241.914,963.05 239.135,985.33 " fill="none" id="usantatecla.mastermind.models.Game-usantatecla.mastermind.models.SecretCombination" style="stroke:#A80036;stroke-width:1.0;"/><polygon fill="#A80036" points="237.496,998.462,242.5826,990.0283,238.1168,993.5007,234.6445,989.035,237.496,998.462" style="stroke:#A80036;stroke-width:1.0;"/><line style="stroke:#A80036;stroke-width:1.0;" x1="238.1168" x2="239.106" y1="993.5007" y2="985.565"/><polygon fill="#A80036" points="250.498,894.26,245.7899,899.722,249.0209,906.1687,253.7291,900.7067,250.498,894.26" style="stroke:#A80036;stroke-width:1.0;"/><!--MD5=[280ea308128396330f7bbc2193cef62d]
link usantatecla.mastermind.models.Game to usantatecla.mastermind.models.Result--><path codeLine="77" d="M359.3241,905.1512 C359.3241,905.1512 372.728,937.95 377,954 C395.633,1024.007 387.929,1045.385 377,1117 C374.64,1132.464 370.764,1148.627 366.329,1164.058 " fill="none" id="usantatecla.mastermind.models.Game-usantatecla.mastermind.models.Result" style="stroke:#A80036;stroke-width:1.0;"/><polygon fill="#A80036" points="362.494,1176.816,368.9158,1169.3487,363.9335,1172.0277,361.2545,1167.0455,362.494,1176.816" style="stroke:#A80036;stroke-width:1.0;"/><line style="stroke:#A80036;stroke-width:1.0;" x1="363.9335" x2="366.2365" y1="1172.0277" y2="1164.366"/><polygon fill="#A80036" points="354.286,894.26,353.1746,901.3849,359.3241,905.1512,360.4354,898.0262,354.286,894.26" style="stroke:#A80036;stroke-width:1.0;"/><text fill="#000000" font-family="sans-serif" font-size="13" lengthAdjust="spacingAndGlyphs" textLength="23" x="340.9371" y="1166.0006">0..*</text><!--MD5=[e6a772672154e2b4215389ae3fc2764d]
link usantatecla.mastermind.models.Game to usantatecla.mastermind.models.ProposedCombination--><path codeLine="78" d="M117.3886,903.8036 C117.3886,903.8036 96.3359,936.95 89,954 C37.7663,1073.053 70,1115.391 70,1245 C70,1245 70,1245 70,1376 C70,1451.508 108.462,1529.204 142.886,1583.621 " fill="none" id="usantatecla.mastermind.models.Game-usantatecla.mastermind.models.ProposedCombination" style="stroke:#A80036;stroke-width:1.0;"/><polygon fill="#A80036" points="150.155,1594.87,148.6298,1585.14,147.4413,1590.6705,141.9107,1589.482,150.155,1594.87" style="stroke:#A80036;stroke-width:1.0;"/><line style="stroke:#A80036;stroke-width:1.0;" x1="147.4413" x2="143.0995" y1="1590.6705" y2="1583.9515"/><polygon fill="#A80036" points="124.379,894.05,117.6326,896.5967,117.3886,903.8036,124.135,901.257,124.379,894.05" style="stroke:#A80036;stroke-width:1.0;"/><text fill="#000000" font-family="sans-serif" font-size="13" lengthAdjust="spacingAndGlyphs" textLength="23" x="120.5245" y="1583.8457">0..*</text><!--MD5=[c8e3115d06e825a18a556418b72e64a9]
reverse link usantatecla.mastermind.models.Combination to usantatecla.mastermind.models.ProposedCombination--><path codeLine="88" d="M264.61,1552.36 C255.429,1566.296 245.77,1580.956 236.693,1594.734 " fill="none" id="usantatecla.mastermind.models.Combination-backto-usantatecla.mastermind.models.ProposedCombination" style="stroke:#A80036;stroke-width:1.0;"/><polygon fill="none" points="259.057,1548.065,275.905,1535.215,270.748,1555.768,259.057,1548.065" style="stroke:#A80036;stroke-width:1.0;"/><!--MD5=[2ea52f716e2e11a1bf08ec742181724b]
link usantatecla.mastermind.models.ProposedCombination to usantatecla.mastermind.types.Color--><path codeLine="89" d="M257.181,1720.108 C266.516,1730.459 275.771,1741.315 284,1752 C293.281,1764.05 302.454,1777.261 311.058,1790.422 " fill="none" id="usantatecla.mastermind.models.ProposedCombination-to-usantatecla.mastermind.types.Color" style="stroke:#A80036;stroke-width:1.0;stroke-dasharray:7.0,7.0;"/><polygon fill="#A80036" points="313.953,1794.881,312.406,1785.1544,311.2298,1790.6876,305.6966,1789.5115,313.953,1794.881" style="stroke:#A80036;stroke-width:1.0;"/><!--MD5=[c1581850849ed6ede223799cd35a067f]
reverse link usantatecla.mastermind.models.Combination to usantatecla.mastermind.models.SecretCombination--><path codeLine="95" d="M280.676,1416.639 C269.55,1386.075 257.743,1349.233 251,1315 C234.146,1229.431 232.094,1126.507 232.361,1072.938 " fill="none" id="usantatecla.mastermind.models.Combination-backto-usantatecla.mastermind.models.SecretCombination" style="stroke:#A80036;stroke-width:1.0;"/><polygon fill="none" points="287.366,1414.541,287.829,1435.726,274.256,1419.454,287.366,1414.541" style="stroke:#A80036;stroke-width:1.0;"/><!--MD5=[37df5b907d636f1fcade6857244b0a7e]
link usantatecla.mastermind.models.SecretCombination to usantatecla.mastermind.models.Result--><path codeLine="96" d="M251.115,1072.818 C264.761,1100.175 283.92,1138.585 300.682,1172.189 " fill="none" id="usantatecla.mastermind.models.SecretCombination-to-usantatecla.mastermind.models.Result" style="stroke:#A80036;stroke-width:1.0;stroke-dasharray:7.0,7.0;"/><polygon fill="#A80036" points="302.924,1176.684,302.4868,1166.8448,300.6925,1172.2096,295.3278,1170.4152,302.924,1176.684" style="stroke:#A80036;stroke-width:1.0;"/><!--MD5=[be5e6334e25a1733719410e897fbe715]
link usantatecla.mastermind.models.SecretCombination to usantatecla.mastermind.models.ProposedCombination--><path codeLine="97" d="M230.851,1072.514 C224.842,1173.203 207.798,1458.799 199.993,1589.595 " fill="none" id="usantatecla.mastermind.models.SecretCombination-to-usantatecla.mastermind.models.ProposedCombination" style="stroke:#A80036;stroke-width:1.0;stroke-dasharray:7.0,7.0;"/><polygon fill="#A80036" points="199.674,1594.944,204.2044,1586.199,199.9726,1589.9529,196.2187,1585.7212,199.674,1594.944" style="stroke:#A80036;stroke-width:1.0;"/><!--MD5=[5ad286f9c8779d13f70a16acb15e8d92]
link usantatecla.mastermind.models.SecretCombination to usantatecla.mastermind.types.Color--><path codeLine="98" d="M299.858,1072.763 C340.055,1097.512 389.544,1133.625 422,1177 C478.19,1252.095 495,1281.21 495,1375 C495,1375 495,1375 495,1486.5 C495,1595.753 447.165,1713.318 408.656,1790.261 " fill="none" id="usantatecla.mastermind.models.SecretCombination-to-usantatecla.mastermind.types.Color" style="stroke:#A80036;stroke-width:1.0;stroke-dasharray:7.0,7.0;"/><polygon fill="#A80036" points="406.366,1794.811,413.9846,1788.5695,408.6135,1790.3446,406.8384,1784.9735,406.366,1794.811" style="stroke:#A80036;stroke-width:1.0;"/><!--MD5=[6f6994a70a46872d34bd35a5dd21f76b]
link usantatecla.mastermind.models.Result to usantatecla.mastermind.models.Combination--><path codeLine="110" d="M328.69,1315.058 C324.207,1351.77 318.753,1396.439 314.57,1430.695 " fill="none" id="usantatecla.mastermind.models.Result-to-usantatecla.mastermind.models.Combination" style="stroke:#A80036;stroke-width:1.0;stroke-dasharray:7.0,7.0;"/><polygon fill="#A80036" points="313.962,1435.671,319.0229,1427.2219,314.5678,1430.7078,311.0818,1426.2527,313.962,1435.671" style="stroke:#A80036;stroke-width:1.0;"/><!--MD5=[68bc3b389e59e971e5be4f5f6db771bf]
link usantatecla.mastermind.models.Memento to List--><path codeLine="143" d="M710.1994,1124.6039 C710.1994,1124.6039 752.874,1159.737 772,1177 C784.185,1187.998 796.897,1200.753 807.875,1212.224 " fill="none" id="usantatecla.mastermind.models.Memento-List" style="stroke:#A80036;stroke-width:1.0;"/><polygon fill="#A80036" points="817.019,1221.898,813.7434,1212.6098,813.5843,1218.2644,807.9297,1218.1053,817.019,1221.898" style="stroke:#A80036;stroke-width:1.0;"/><line style="stroke:#A80036;stroke-width:1.0;" x1="813.5843" x2="808.0885" y1="1218.2644" y2="1212.4495"/><polygon fill="#A80036" points="700.839,1117.095,703.0162,1123.9696,710.1994,1124.6039,708.0222,1117.7293,700.839,1117.095" style="stroke:#A80036;stroke-width:1.0;"/><!--MD5=[7cc7531928e45531ce0658eadd8d0dda]
link usantatecla.mastermind.models.Memento to usantatecla.mastermind.models.Result--><path codeLine="144" d="M494.637,1117.112 C466.096,1140.267 435.53,1165.064 408.983,1186.601 " fill="none" id="usantatecla.mastermind.models.Memento-to-usantatecla.mastermind.models.Result" style="stroke:#A80036;stroke-width:1.0;"/><polygon fill="#A80036" points="405.097,1189.754,414.6063,1187.1902,408.9799,1186.6039,409.5662,1180.9776,405.097,1189.754" style="stroke:#A80036;stroke-width:1.0;"/><!--MD5=[fdb26e297b5f301854d1d570f29f743f]
link usantatecla.mastermind.models.Memento to usantatecla.mastermind.models.ProposedCombination--><path codeLine="145" d="M577.538,1117.077 C552.54,1222.912 496.368,1409.941 391,1535 C369.471,1560.553 341.152,1582.392 312.792,1600.213 " fill="none" id="usantatecla.mastermind.models.Memento-to-usantatecla.mastermind.models.ProposedCombination" style="stroke:#A80036;stroke-width:1.0;"/><polygon fill="#A80036" points="308.241,1603.038,317.9967,1601.6863,312.4881,1600.3994,313.775,1594.8909,308.241,1603.038" style="stroke:#A80036;stroke-width:1.0;"/><!--MD5=[0f3a96e3905d4a800402494415e250c4]
link usantatecla.mastermind.models.Registry to usantatecla.mastermind.models.Memento--><path codeLine="159" d="M449.3333,579.5248 C449.3333,579.5248 532.534,841.2 564.35,941.25 " fill="none" id="usantatecla.mastermind.models.Registry-usantatecla.mastermind.models.Memento" style="stroke:#A80036;stroke-width:1.0;"/><polygon fill="#A80036" points="568.327,953.76,569.4091,943.9708,566.8106,948.9955,561.7859,946.397,568.327,953.76" style="stroke:#A80036;stroke-width:1.0;"/><line style="stroke:#A80036;stroke-width:1.0;" x1="566.8106" x2="564.388" y1="948.9955" y2="941.37"/><polygon fill="#A80036" points="445.694,568.09,443.702,575.0205,449.3333,579.5248,451.3253,572.5943,445.694,568.09" style="stroke:#A80036;stroke-width:1.0;"/><!--MD5=[266eb50d245b144446fc86ee0dd461ed]
link usantatecla.mastermind.models.Registry to ArrayList--><path codeLine="160" d="M543.433,564.9207 C543.433,564.9207 548.201,567.19 550,568 C643.184,609.99 689.987,567.01 772,628 C805.054,652.58 827.849,694.8 840.865,724.87 " fill="none" id="usantatecla.mastermind.models.Registry-ArrayList" style="stroke:#A80036;stroke-width:1.0;"/><polygon fill="#A80036" points="845.845,736.92,846.1003,727.0745,843.9334,732.2998,838.7081,730.133,845.845,736.92" style="stroke:#A80036;stroke-width:1.0;"/><line style="stroke:#A80036;stroke-width:1.0;" x1="843.9334" x2="840.8815" y1="732.2998" y2="724.91"/><polygon fill="#A80036" points="532.692,559.57,536.2789,565.8257,543.433,564.9207,539.8461,558.665,532.692,559.57" style="stroke:#A80036;stroke-width:1.0;"/><!--MD5=[66eb1f73006288237bc7dfb21b3b50e3]
link usantatecla.mastermind.models.Registry to usantatecla.mastermind.models.Game--><path codeLine="161" d="M370.844,568.13 C361.391,585.6 351.244,604.34 341.13,623.03 " fill="none" id="usantatecla.mastermind.models.Registry-to-usantatecla.mastermind.models.Game" style="stroke:#A80036;stroke-width:1.0;"/><polygon fill="#A80036" points="338.56,627.78,346.3679,621.7769,340.9445,623.3852,339.3362,617.9618,338.56,627.78" style="stroke:#A80036;stroke-width:1.0;"/><!--MD5=[53fd54293451b4d3a90c3ecee2f2bc69]
link usantatecla.mastermind.models.Session to usantatecla.mastermind.models.Registry--><path codeLine="184" d="M382.7971,344.0137 C382.7971,344.0137 389.078,368.07 391.943,379.06 " fill="none" id="usantatecla.mastermind.models.Session-usantatecla.mastermind.models.Registry" style="stroke:#A80036;stroke-width:1.0;"/><polygon fill="#A80036" points="395.255,391.76,396.8508,382.0413,393.9915,386.9223,389.1105,384.0629,395.255,391.76" style="stroke:#A80036;stroke-width:1.0;"/><line style="stroke:#A80036;stroke-width:1.0;" x1="393.9915" x2="391.975" y1="386.9223" y2="379.18"/><polygon fill="#A80036" points="379.777,332.4,377.4158,339.2136,382.7971,344.0137,385.1583,337.2001,379.777,332.4" style="stroke:#A80036;stroke-width:1.0;"/><!--MD5=[57104eaeca2c6a63cb966fb4840c23f7]
link usantatecla.mastermind.models.Session to usantatecla.mastermind.models.State--><path codeLine="185" d="M469.5738,303.7092 C469.5738,303.7092 556.06,382.5 591.568,414.84 " fill="none" id="usantatecla.mastermind.models.Session-usantatecla.mastermind.models.State" style="stroke:#A80036;stroke-width:1.0;"/><polygon fill="#A80036" points="601.344,423.75,597.3824,414.733,597.647,420.3837,591.9963,420.6482,601.344,423.75" style="stroke:#A80036;stroke-width:1.0;"/><line style="stroke:#A80036;stroke-width:1.0;" x1="597.647" x2="591.733" y1="420.3837" y2="414.995"/><polygon fill="#A80036" points="460.701,295.63,462.4444,302.6272,469.5738,303.7092,467.8305,296.712,460.701,295.63" style="stroke:#A80036;stroke-width:1.0;"/><!--MD5=[351d28349d13c21601c987b8d0501494]
link usantatecla.mastermind.models.Session to usantatecla.mastermind.models.Game--><path codeLine="186" d="M295.5084,343.8424 C295.5084,343.8424 288.479,376.59 286,392 C274.312,464.69 269.293,546.39 267.308,614.31 " fill="none" id="usantatecla.mastermind.models.Session-usantatecla.mastermind.models.Game" style="stroke:#A80036;stroke-width:1.0;"/><polygon fill="#A80036" points="266.951,627.7,271.187,618.8086,267.0829,622.7017,263.1898,618.5976,266.951,627.7" style="stroke:#A80036;stroke-width:1.0;"/><line style="stroke:#A80036;stroke-width:1.0;" x1="267.0829" x2="267.298" y1="622.7017" y2="614.71"/><polygon fill="#A80036" points="298.251,332.16,292.9856,337.087,295.5084,343.8424,300.7738,338.9154,298.251,332.16" style="stroke:#A80036;stroke-width:1.0;"/><!--MD5=[c49e07871af8abf6b9a3f782d2225326]
link usantatecla.mastermind.models.Session to usantatecla.mastermind.models.ProposedCombination--><path codeLine="187" d="M223.416,317.95 C136.277,427.61 33,592.84 33,760 C33,760 33,760 33,1376 C33,1448.657 35.0816,1471.842 71,1535 C82.5446,1555.3 98.4865,1574.401 115.126,1591.181 " fill="none" id="usantatecla.mastermind.models.Session-to-usantatecla.mastermind.models.ProposedCombination" style="stroke:#A80036;stroke-width:1.0;stroke-dasharray:7.0,7.0;"/><polygon fill="#A80036" points="118.912,1594.948,115.3542,1585.7642,115.3679,1591.421,109.7111,1591.4348,118.912,1594.948" style="stroke:#A80036;stroke-width:1.0;"/><!--MD5=[2dce2b58adc26ddeee545387af204b0b]
@startuml
class List as "java.util.List" {


}
class ArrayList as "java.util.ArrayList" {


}
class Logic as "usantatecla.mastermind.controllers.Logic" {


}

class ResumeController as "usantatecla.mastermind.controllers.ResumeController" {


}

class StartController as "usantatecla.mastermind.controllers.StartController" {


}

class ProposalController as "usantatecla.mastermind.controllers.ProposalController" {


}

class usantatecla.mastermind.models.State {
    - stateValue: StateValue
    ~ state()
    ~ next()
    ~ reset()
    ~ getValueState(): StateValue
}

enum usantatecla.mastermind.models.StateValue {
    + INITIAL
    + IN_GAME
    + FINAL
    + EXIT
} 

abstract class usantatecla.mastermind.models.Combination {
- {static} WIDTH: int
# colors: List<Color>
# Combination()
+ {static} getWidth(): int
}
usantatecla.mastermind.models.Combination *-down-> "*" usantatecla.mastermind.types.Color
usantatecla.mastermind.models.State *-down-> usantatecla.mastermind.models.StateValue
Logic *-down-> usantatecla.mastermind.models.State
ProposalController -down-> usantatecla.mastermind.models.State
ResumeController -down-> usantatecla.mastermind.models.State
StartController -down-> usantatecla.mastermind.models.State

class usantatecla.mastermind.models.Game {
- {static} MAX_LONG: int
- secretCombination: SecretCombination
- proposedCombination: List<ProposedCombination>
- results: List<Result>
- attempts: int
~ Game()
~ clear()
~ addProposeCombination(List<Color>)
~ isLooser(): boolean
~ isWinner(): boolean
~ getAttempts(): int
~ getColors(int): List<Color>
~ getBlacks(int): int
~ getWhites(int): int
~ getWidth(): int
~ createMemento(): Memento
~ set(Memento)
}
usantatecla.mastermind.models.Game *-down-> usantatecla.mastermind.models.SecretCombination
usantatecla.mastermind.models.Game *-down-> "0..*" usantatecla.mastermind.models.Result
usantatecla.mastermind.models.Game *-down-> "0..*" usantatecla.mastermind.models.ProposedCombination

class usantatecla.mastermind.models.ProposedCombination {
+ proposedCombination(List<Color>)
~ contains(Color, int): boolean
~ contains(Color): boolean
~ copy(): ProposedCombination
+ {static} builder: Builder
+ {static} class Builder()
}
usantatecla.mastermind.models.Combination <|-down- usantatecla.mastermind.models.ProposedCombination
usantatecla.mastermind.models.ProposedCombination ..> usantatecla.mastermind.types.Color

class usantatecla.mastermind.models.SecretCombination {
~ SecretCombination()
~ getResult(ProposedCombination): Result
}
usantatecla.mastermind.models.Combination <|-down- usantatecla.mastermind.models.SecretCombination
usantatecla.mastermind.models.SecretCombination ..> usantatecla.mastermind.models.Result
usantatecla.mastermind.models.SecretCombination ..> usantatecla.mastermind.models.ProposedCombination
usantatecla.mastermind.models.SecretCombination ..> usantatecla.mastermind.types.Color

class usantatecla.mastermind.models.Result {
- blacks: int
- whites: int
~ Result(int, int)
~ isWinner(): boolean
~ getBlacks(): int
~ getWhites(): int
~ copy(): Result
}

usantatecla.mastermind.models.Result -down..> usantatecla.mastermind.models.Combination

enum usantatecla.mastermind.types.Color {
+ RED
+ BLUE
+ YELLOW
+ GREEN
+ ORANGE
+ PURPLE
+ NULL
~ {static} length(): int
+ isNull(): boolean
}

enum usantatecla.mastermind.types.Error {
+ DUPLICATED
+ WRONG_CHARACTERS
+ WRONG_LENGTH
+ NULL
+ isNull(): boolean
}

class  usantatecla.mastermind.models.Memento{
- proposedCombinations: List<ProposedCombination>
- results: List<Result>
- turn: int
~ Memento(int)
~ set(ProposedCombination, Result)
~ getSize(): int
~ getResult(int): Result
~ getAttempts(): int
~ getProposedCombination(int): ProposedCombination
}
usantatecla.mastermind.models.Memento *-down-> List
usantatecla.mastermind.models.Memento - -> usantatecla.mastermind.models.Result
usantatecla.mastermind.models.Memento - -> usantatecla.mastermind.models.ProposedCombination

class  usantatecla.mastermind.models.Registry{
- mementoList: ArrayList<Memento>
- game: Game
- firstPrevious: int
~ Registry(Game)
~ reset()
~ registry()
~ undoable(): boolean
~ redoable(): boolean
~ undo(Game)
~ redo(Game)
}
usantatecla.mastermind.models.Registry *-down-> usantatecla.mastermind.models.Memento
usantatecla.mastermind.models.Registry *-down-> ArrayList
usantatecla.mastermind.models.Registry - -> usantatecla.mastermind.models.Game

class  usantatecla.mastermind.models.Session{
- state: State
- game: Game
- registry: Registry
+ Session()
+ next()
+ addProposeCombination(List<Color>)
+ undoable(): boolean
+ redoable(): boolean
+ getWidth(): int
+ undo()
+ getValueState(): StateValue
+ isWinner(): boolean
+ getAttempts(): int
+ redo()
+ getColors(int): List<Color>
+ isLooser(): boolean
+ clearGame()
+ getBlacks(int): int
+ getWhites(int): int
}
usantatecla.mastermind.models.Session *-down-> usantatecla.mastermind.models.Registry
usantatecla.mastermind.models.Session *-down-> usantatecla.mastermind.models.State
usantatecla.mastermind.models.Session *-down-> usantatecla.mastermind.models.Game
usantatecla.mastermind.models.Session ..> usantatecla.mastermind.models.ProposedCombination
@enduml

PlantUML version 1.2020.22(Sun Dec 06 09:36:27 UTC 2020)
(GPL source distribution)
Java Runtime: Java(TM) SE Runtime Environment
JVM: Java HotSpot(TM) 64-Bit Server VM
Default Encoding: UTF-8
Language: en
Country: US
--></g></svg>