<?xml version="1.0" encoding="UTF-8" standalone="no"?><svg xmlns="http://www.w3.org/2000/svg" xmlns:xlink="http://www.w3.org/1999/xlink" contentScriptType="application/ecmascript" contentStyleType="text/css" height="630px" preserveAspectRatio="none" style="width:1046px;height:630px;" version="1.1" viewBox="0 0 1046 630" width="1046px" zoomAndPan="magnify"><defs><filter height="300%" id="frq9q85r9w60u" width="300%" x="-1" y="-1"><feGaussianBlur result="blurOut" stdDeviation="2.0"/><feColorMatrix in="blurOut" result="blurOut2" type="matrix" values="0 0 0 0 0 0 0 0 0 0 0 0 0 0 0 0 0 0 .4 0"/><feOffset dx="4.0" dy="4.0" in="blurOut2" result="blurOut3"/><feBlend in="SourceGraphic" in2="blurOut3" mode="normal"/></filter></defs><g><polygon fill="#DDDDDD" filter="url(#frq9q85r9w60u)" points="293.583,6,397.583,6,404.583,28.2969,411.583,28.2969,411.583,58.5938,293.583,58.5938,293.583,6" style="stroke:#000000;stroke-width:1.5;"/><line style="stroke:#000000;stroke-width:1.5;" x1="293.583" x2="404.583" y1="28.2969" y2="28.2969"/><text fill="#000000" font-family="sans-serif" font-size="14" font-weight="bold" lengthAdjust="spacingAndGlyphs" textLength="98" x="297.583" y="20.9951">mastermind</text><polygon fill="#DDDDDD" filter="url(#frq9q85r9w60u)" points="271.583,345,469.583,345,476.583,367.2969,483.583,367.2969,483.583,397.5938,271.583,397.5938,271.583,345" style="stroke:#000000;stroke-width:1.5;"/><line style="stroke:#000000;stroke-width:1.5;" x1="271.583" x2="476.583" y1="367.2969" y2="367.2969"/><text fill="#000000" font-family="sans-serif" font-size="14" font-weight="bold" lengthAdjust="spacingAndGlyphs" textLength="192" x="275.583" y="359.9951">mastermind.controllers</text><polygon fill="#DDDDDD" filter="url(#frq9q85r9w60u)" points="287.083,458,454.083,458,461.083,480.2969,468.083,480.2969,468.083,510.5938,287.083,510.5938,287.083,458" style="stroke:#000000;stroke-width:1.5;"/><line style="stroke:#000000;stroke-width:1.5;" x1="287.083" x2="461.083" y1="480.2969" y2="480.2969"/><text fill="#000000" font-family="sans-serif" font-size="14" font-weight="bold" lengthAdjust="spacingAndGlyphs" textLength="161" x="291.083" y="472.9951">mastermind.models</text><polygon fill="#FFFFFF" filter="url(#frq9q85r9w60u)" points="334.083,571,407.083,571,414.083,593.2969,421.083,593.2969,421.083,623.5938,334.083,623.5938,334.083,571" style="stroke:#000000;stroke-width:1.5;"/><line style="stroke:#000000;stroke-width:1.5;" x1="334.083" x2="414.083" y1="593.2969" y2="593.2969"/><text fill="#000000" font-family="sans-serif" font-size="14" font-weight="bold" lengthAdjust="spacingAndGlyphs" textLength="67" x="338.083" y="585.9951">java.util</text><polygon fill="#DDDDDD" filter="url(#frq9q85r9w60u)" points="73.5825,232,219.5825,232,226.5825,254.2969,233.5825,254.2969,233.5825,284.5938,73.5825,284.5938,73.5825,232" style="stroke:#000000;stroke-width:1.5;"/><line style="stroke:#000000;stroke-width:1.5;" x1="73.5825" x2="226.5825" y1="254.2969" y2="254.2969"/><text fill="#000000" font-family="sans-serif" font-size="14" font-weight="bold" lengthAdjust="spacingAndGlyphs" textLength="140" x="77.5825" y="246.9951">mastermind.utils</text><polygon fill="#FFFFFF" filter="url(#frq9q85r9w60u)" points="116.5825,345,176.5825,345,183.5825,367.2969,190.5825,367.2969,190.5825,397.5938,116.5825,397.5938,116.5825,345" style="stroke:#000000;stroke-width:1.5;"/><line style="stroke:#000000;stroke-width:1.5;" x1="116.5825" x2="183.5825" y1="367.2969" y2="367.2969"/><text fill="#000000" font-family="sans-serif" font-size="14" font-weight="bold" lengthAdjust="spacingAndGlyphs" textLength="54" x="120.5825" y="359.9951">java.io</text><polygon fill="#DDDDDD" filter="url(#frq9q85r9w60u)" points="339.583,232,493.583,232,500.583,254.2969,507.583,254.2969,507.583,284.5938,339.583,284.5938,339.583,232" style="stroke:#000000;stroke-width:1.5;"/><line style="stroke:#000000;stroke-width:1.5;" x1="339.583" x2="500.583" y1="254.2969" y2="254.2969"/><text fill="#000000" font-family="sans-serif" font-size="14" font-weight="bold" lengthAdjust="spacingAndGlyphs" textLength="148" x="343.583" y="246.9951">mastermind.views</text><polygon fill="#DDDDDD" filter="url(#frq9q85r9w60u)" points="150.083,119,371.083,119,378.083,141.2969,385.083,141.2969,385.083,171.5938,150.083,171.5938,150.083,119" style="stroke:#000000;stroke-width:1.5;"/><line style="stroke:#000000;stroke-width:1.5;" x1="150.083" x2="378.083" y1="141.2969" y2="141.2969"/><text fill="#000000" font-family="sans-serif" font-size="14" font-weight="bold" lengthAdjust="spacingAndGlyphs" textLength="215" x="154.083" y="133.9951">mastermind.views.console</text><polygon fill="#DDDDDD" filter="url(#frq9q85r9w60u)" points="522.083,119,751.083,119,758.083,141.2969,765.083,141.2969,765.083,171.5938,522.083,171.5938,522.083,119" style="stroke:#000000;stroke-width:1.5;"/><line style="stroke:#000000;stroke-width:1.5;" x1="522.083" x2="758.083" y1="141.2969" y2="141.2969"/><text fill="#000000" font-family="sans-serif" font-size="14" font-weight="bold" lengthAdjust="spacingAndGlyphs" textLength="223" x="526.083" y="133.9951">mastermind.views.graphics</text><polygon fill="#FFFFFF" filter="url(#frq9q85r9w60u)" points="613.583,232,689.583,232,696.583,254.2969,703.583,254.2969,703.583,284.5938,613.583,284.5938,613.583,232" style="stroke:#000000;stroke-width:1.5;"/><line style="stroke:#000000;stroke-width:1.5;" x1="613.583" x2="696.583" y1="254.2969" y2="254.2969"/><text fill="#000000" font-family="sans-serif" font-size="14" font-weight="bold" lengthAdjust="spacingAndGlyphs" textLength="70" x="617.583" y="246.9951">java.awt</text><polygon fill="#FFFFFF" filter="url(#frq9q85r9w60u)" points="738.583,232,864.583,232,871.583,254.2969,878.583,254.2969,878.583,284.5938,738.583,284.5938,738.583,232" style="stroke:#000000;stroke-width:1.5;"/><line style="stroke:#000000;stroke-width:1.5;" x1="738.583" x2="871.583" y1="254.2969" y2="254.2969"/><text fill="#000000" font-family="sans-serif" font-size="14" font-weight="bold" lengthAdjust="spacingAndGlyphs" textLength="120" x="742.583" y="246.9951">java.awt.event</text><polygon fill="#FFFFFF" filter="url(#frq9q85r9w60u)" points="914.083,232,1015.083,232,1022.083,254.2969,1029.083,254.2969,1029.083,284.5938,914.083,284.5938,914.083,232" style="stroke:#000000;stroke-width:1.5;"/><line style="stroke:#000000;stroke-width:1.5;" x1="914.083" x2="1022.083" y1="254.2969" y2="254.2969"/><text fill="#000000" font-family="sans-serif" font-size="14" font-weight="bold" lengthAdjust="spacingAndGlyphs" textLength="95" x="918.083" y="246.9951">javax.swing</text><!--MD5=[8035456145fb3f65c7b57a291323142f]
link mastermind.controllers to mastermind.models--><path codeLine="4" d="M377.583,398.245 C377.583,414.496 377.583,435.579 377.583,452.714 " fill="none" id="mastermind.controllers-to-mastermind.models" style="stroke:#A80036;stroke-width:1.0;stroke-dasharray:7.0,7.0;"/><polygon fill="#A80036" points="377.583,457.895,381.583,448.895,377.583,452.895,373.583,448.895,377.583,457.895" style="stroke:#A80036;stroke-width:1.0;"/><!--MD5=[e35537eb96f5ac075f1f91433273a808]
link mastermind to mastermind.views--><path codeLine="5" d="M371.086,59.184 C381.96,75.537 395.017,97.6 402.583,119 C415.174,154.616 420.217,198.002 422.236,226.616 " fill="none" id="mastermind-to-mastermind.views" style="stroke:#A80036;stroke-width:1.0;stroke-dasharray:7.0,7.0;"/><polygon fill="#A80036" points="422.579,231.782,425.9738,222.5367,422.2476,226.793,417.9913,223.0669,422.579,231.782" style="stroke:#A80036;stroke-width:1.0;"/><!--MD5=[5a7375d6d2c9f55bf8e92f7679cbf013]
link mastermind to mastermind.views.console--><path codeLine="6" d="M332.868,59.245 C320.209,75.776 303.721,97.308 290.482,114.597 " fill="none" id="mastermind-to-mastermind.views.console" style="stroke:#A80036;stroke-width:1.0;stroke-dasharray:7.0,7.0;"/><polygon fill="#A80036" points="287.19,118.895,295.8384,114.1827,290.2305,114.9257,289.4875,109.3179,287.19,118.895" style="stroke:#A80036;stroke-width:1.0;"/><!--MD5=[71349e294188949e92ef25974d5f8bc3]
link mastermind to mastermind.views.graphics--><path codeLine="7" d="M411.821,56.096 C458.105,73.751 522.615,98.358 571.826,117.129 " fill="none" id="mastermind-to-mastermind.views.graphics" style="stroke:#A80036;stroke-width:1.0;stroke-dasharray:7.0,7.0;"/><polygon fill="#A80036" points="576.539,118.927,569.555,111.9827,571.8672,117.1454,566.7044,119.4576,576.539,118.927" style="stroke:#A80036;stroke-width:1.0;"/><!--MD5=[6fc048f6b1de606c6880f99a5c425bb6]
link mastermind to mastermind.controllers--><path d="M293.502,46.161 C246.169,58.581 180.056,81.26 132.5825,119 C68.9195,169.61 6,220.534 55.5825,285 C81.4613,318.647 183.516,341.817 265.888,355.464 " fill="none" id="mastermind-to-mastermind.controllers" style="stroke:#A80036;stroke-width:1.0;stroke-dasharray:7.0,7.0;"/><polygon fill="#A80036" points="271.284,356.349,263.0508,350.9439,266.35,355.5391,261.7549,358.8383,271.284,356.349" style="stroke:#A80036;stroke-width:1.0;"/><!--MD5=[bf16e85c09ac2493f319629dda43fa4f]
link mastermind.models to java.util--><path d="M377.583,511.245 C377.583,527.4958 377.583,548.5795 377.583,565.7139 " fill="none" id="mastermind.models-to-java.util" style="stroke:#A80036;stroke-width:1.0;stroke-dasharray:7.0,7.0;"/><polygon fill="#A80036" points="377.583,570.895,381.583,561.895,377.583,565.895,373.583,561.895,377.583,570.895" style="stroke:#A80036;stroke-width:1.0;"/><!--MD5=[dfc658cc50cf405c058d94c2b8d082b1]
link mastermind.utils to java.io--><path d="M153.583,285.245 C153.583,301.496 153.583,322.579 153.583,339.714 " fill="none" id="mastermind.utils-to-java.io" style="stroke:#A80036;stroke-width:1.0;stroke-dasharray:7.0,7.0;"/><polygon fill="#A80036" points="153.583,344.895,157.583,335.895,153.583,339.895,149.583,335.895,153.583,344.895" style="stroke:#A80036;stroke-width:1.0;"/><!--MD5=[30de4fc6c32658d919a213b14ff8bc39]
link mastermind.views to mastermind.controllers--><path d="M412.914,285.245 C406.121,301.636 397.291,322.943 390.157,340.156 " fill="none" id="mastermind.views-to-mastermind.controllers" style="stroke:#A80036;stroke-width:1.0;stroke-dasharray:7.0,7.0;"/><polygon fill="#A80036" points="388.194,344.895,395.3344,338.1116,390.1079,340.2758,387.9438,335.0493,388.194,344.895" style="stroke:#A80036;stroke-width:1.0;"/><!--MD5=[5209bb071191270995b12d91ec3a1bb6]
link mastermind.views.console to mastermind.controllers--><path d="M275.807,172.211 C285.282,200.553 302.077,247.147 321.583,285 C331.464,304.176 344.589,324.42 355.649,340.394 " fill="none" id="mastermind.views.console-to-mastermind.controllers" style="stroke:#A80036;stroke-width:1.0;stroke-dasharray:7.0,7.0;"/><polygon fill="#A80036" points="358.709,344.782,356.8422,335.1117,355.8491,340.6807,350.2801,339.6876,358.709,344.782" style="stroke:#A80036;stroke-width:1.0;"/><!--MD5=[95e5d34310c7b2ccc3e2879af69b26a7]
link mastermind.views.console to mastermind.views--><path d="M303.764,172.245 C327.588,189.196 358.802,211.406 383.398,228.907 " fill="none" id="mastermind.views.console-to-mastermind.views" style="stroke:#A80036;stroke-width:1.0;stroke-dasharray:7.0,7.0;"/><polygon fill="#A80036" points="387.597,231.895,382.5823,223.4184,383.5228,228.9965,377.9447,229.9371,387.597,231.895" style="stroke:#A80036;stroke-width:1.0;"/><!--MD5=[9aba64915bf62b312f15a0982cdb1002]
link mastermind.views.console to mastermind.utils--><path d="M241.142,172.245 C224.02,188.916 201.675,210.673 183.844,228.035 " fill="none" id="mastermind.views.console-to-mastermind.utils" style="stroke:#A80036;stroke-width:1.0;stroke-dasharray:7.0,7.0;"/><polygon fill="#A80036" points="179.88,231.895,189.1187,228.4823,183.4624,228.4069,183.5378,222.7506,179.88,231.895" style="stroke:#A80036;stroke-width:1.0;"/><!--MD5=[0c90a7f994b772eb88ef213ebe3d64aa]
link mastermind.views.graphics to java.awt--><path d="M647.062,172.245 C649.258,188.496 652.107,209.579 654.422,226.714 " fill="none" id="mastermind.views.graphics-to-java.awt" style="stroke:#A80036;stroke-width:1.0;stroke-dasharray:7.0,7.0;"/><polygon fill="#A80036" points="655.122,231.895,657.8828,222.441,654.4535,226.9399,649.9546,223.5106,655.122,231.895" style="stroke:#A80036;stroke-width:1.0;"/><!--MD5=[ad6a8b15470e2b092ee0a01215445569]
link mastermind.views.graphics to mastermind.controllers--><path d="M625.772,172.007 C604.209,201.644 565.648,250.838 524.583,285 C497.545,307.493 463.839,327.566 435.526,342.602 " fill="none" id="mastermind.views.graphics-to-mastermind.controllers" style="stroke:#A80036;stroke-width:1.0;stroke-dasharray:7.0,7.0;"/><polygon fill="#A80036" points="431.03,344.971,440.8568,344.3127,435.4531,342.6394,437.1263,337.2357,431.03,344.971" style="stroke:#A80036;stroke-width:1.0;"/><!--MD5=[6a14d48267ae7c98884332f96188e3b2]
link mastermind.views.graphics to java.awt.event--><path d="M681.852,172.245 C707.05,189.196 740.064,211.406 766.079,228.907 " fill="none" id="mastermind.views.graphics-to-java.awt.event" style="stroke:#A80036;stroke-width:1.0;stroke-dasharray:7.0,7.0;"/><polygon fill="#A80036" points="770.521,231.895,765.285,223.5533,766.372,229.1047,760.8206,230.1917,770.521,231.895" style="stroke:#A80036;stroke-width:1.0;"/><!--MD5=[01137dade69ee6b09c2754519904135d]
link mastermind.views.graphics to mastermind.views--><path d="M592.834,172.105 C558.829,189.262 514.057,211.851 479.103,229.487 " fill="none" id="mastermind.views.graphics-to-mastermind.views" style="stroke:#A80036;stroke-width:1.0;stroke-dasharray:7.0,7.0;"/><polygon fill="#A80036" points="474.457,231.832,484.294,231.3483,478.9208,229.5794,480.6898,224.2062,474.457,231.832" style="stroke:#A80036;stroke-width:1.0;"/><!--MD5=[681506abf34402c28ac3a64c2f7a6c90]
link mastermind.views.graphics to javax.swing--><path d="M719.43,172.092 C769.692,189.06 837.085,211.832 896.583,232 C900.608,233.365 904.755,234.771 908.935,236.19 " fill="none" id="mastermind.views.graphics-to-javax.swing" style="stroke:#A80036;stroke-width:1.0;stroke-dasharray:7.0,7.0;"/><polygon fill="#A80036" points="913.851,237.859,906.6163,231.1763,909.1168,236.2505,904.0426,238.751,913.851,237.859" style="stroke:#A80036;stroke-width:1.0;"/><!--MD5=[35f5aeb669762649fdf8f496d6d9efd2]
@startuml
package mastermind #DDDDDD { }

package mastermind.controllers #DDDDDD { }
mastermind.controllers .down.> mastermind.models
mastermind  .down.> mastermind.views
mastermind  .down.> mastermind.views.console
mastermind  .down.> mastermind.views.graphics
mastermind  .down.> mastermind.controllers

package mastermind.models #DDDDDD { }
package java.util{ }
mastermind.models .down.> java.util

package mastermind.utils #DDDDDD { }
package java.io{ }
mastermind.utils .down.> java.io

package mastermind.views #DDDDDD { }
mastermind.views .down.> mastermind.controllers

package mastermind.views.console #DDDDDD { }
mastermind.views.console .down.> mastermind.controllers
mastermind.views.console .down.> mastermind.views
mastermind.views.console .down.> mastermind.utils

package mastermind.views.graphics #DDDDDD { }
package java.awt{ }
mastermind.views.graphics .down.> java.awt
mastermind.views.graphics .down.> mastermind.controllers
package java.awt.event{ }
mastermind.views.graphics .down.> java.awt.event
mastermind.views.graphics .down.> mastermind.views
package javax.swing{ }
mastermind.views.graphics .down.> javax.swing
@enduml

PlantUML version 1.2020.21beta3(Unknown compile time)
(GPL source distribution)
Java Runtime: Java(TM) SE Runtime Environment
JVM: Java HotSpot(TM) 64-Bit Server VM
Default Encoding: UTF-8
Language: en
Country: US
--></g></svg>