<?xml version="1.0" encoding="UTF-8" standalone="no"?><svg xmlns="http://www.w3.org/2000/svg" xmlns:xlink="http://www.w3.org/1999/xlink" contentScriptType="application/ecmascript" contentStyleType="text/css" height="630px" preserveAspectRatio="none" style="width:1319px;height:630px;" version="1.1" viewBox="0 0 1319 630" width="1319px" zoomAndPan="magnify"><defs><filter height="300%" id="f1cgijazmv73no" width="300%" x="-1" y="-1"><feGaussianBlur result="blurOut" stdDeviation="2.0"/><feColorMatrix in="blurOut" result="blurOut2" type="matrix" values="0 0 0 0 0 0 0 0 0 0 0 0 0 0 0 0 0 0 .4 0"/><feOffset dx="4.0" dy="4.0" in="blurOut2" result="blurOut3"/><feBlend in="SourceGraphic" in2="blurOut3" mode="normal"/></filter></defs><g><polygon fill="#DDDDDD" filter="url(#f1cgijazmv73no)" points="493.5724,6,700.5724,6,707.5724,28.2969,714.5724,28.2969,714.5724,58.5938,493.5724,58.5938,493.5724,6" style="stroke:#000000;stroke-width:1.5;"/><line style="stroke:#000000;stroke-width:1.5;" x1="493.5724" x2="707.5724" y1="28.2969" y2="28.2969"/><text fill="#000000" font-family="sans-serif" font-size="14" font-weight="bold" lengthAdjust="spacingAndGlyphs" textLength="201" x="497.5724" y="20.9951">usantatecla.mastermind</text><polygon fill="#DDDDDD" filter="url(#f1cgijazmv73no)" points="505.0724,458,775.0724,458,782.0724,480.2969,789.0724,480.2969,789.0724,510.5938,505.0724,510.5938,505.0724,458" style="stroke:#000000;stroke-width:1.5;"/><line style="stroke:#000000;stroke-width:1.5;" x1="505.0724" x2="782.0724" y1="480.2969" y2="480.2969"/><text fill="#000000" font-family="sans-serif" font-size="14" font-weight="bold" lengthAdjust="spacingAndGlyphs" textLength="264" x="509.0724" y="472.9951">usantatecla.mastermind.models</text><polygon fill="#FFFFFF" filter="url(#f1cgijazmv73no)" points="603.5724,571,676.5724,571,683.5724,593.2969,690.5724,593.2969,690.5724,623.5938,603.5724,623.5938,603.5724,571" style="stroke:#000000;stroke-width:1.5;"/><line style="stroke:#000000;stroke-width:1.5;" x1="603.5724" x2="683.5724" y1="593.2969" y2="593.2969"/><text fill="#000000" font-family="sans-serif" font-size="14" font-weight="bold" lengthAdjust="spacingAndGlyphs" textLength="67" x="607.5724" y="585.9951">java.util</text><polygon fill="#DDDDDD" filter="url(#f1cgijazmv73no)" points="56.0729,232,202.0729,232,209.0729,254.2969,216.0729,254.2969,216.0729,284.5938,56.0729,284.5938,56.0729,232" style="stroke:#000000;stroke-width:1.5;"/><line style="stroke:#000000;stroke-width:1.5;" x1="56.0729" x2="209.0729" y1="254.2969" y2="254.2969"/><text fill="#000000" font-family="sans-serif" font-size="14" font-weight="bold" lengthAdjust="spacingAndGlyphs" textLength="140" x="60.0729" y="246.9951">usantatecla.utils</text><polygon fill="#FFFFFF" filter="url(#f1cgijazmv73no)" points="99.0729,345,159.0729,345,166.0729,367.2969,173.0729,367.2969,173.0729,397.5938,99.0729,397.5938,99.0729,345" style="stroke:#000000;stroke-width:1.5;"/><line style="stroke:#000000;stroke-width:1.5;" x1="99.0729" x2="166.0729" y1="367.2969" y2="367.2969"/><text fill="#000000" font-family="sans-serif" font-size="14" font-weight="bold" lengthAdjust="spacingAndGlyphs" textLength="54" x="103.0729" y="359.9951">java.io</text><polygon fill="#DDDDDD" filter="url(#f1cgijazmv73no)" points="322.5724,232,579.5724,232,586.5724,254.2969,593.5724,254.2969,593.5724,284.5938,322.5724,284.5938,322.5724,232" style="stroke:#000000;stroke-width:1.5;"/><line style="stroke:#000000;stroke-width:1.5;" x1="322.5724" x2="586.5724" y1="254.2969" y2="254.2969"/><text fill="#000000" font-family="sans-serif" font-size="14" font-weight="bold" lengthAdjust="spacingAndGlyphs" textLength="251" x="326.5724" y="246.9951">usantatecla.mastermind.views</text><polygon fill="#DDDDDD" filter="url(#f1cgijazmv73no)" points="545.0724,119,877.0724,119,884.0724,141.2969,891.0724,141.2969,891.0724,171.5938,545.0724,171.5938,545.0724,119" style="stroke:#000000;stroke-width:1.5;"/><line style="stroke:#000000;stroke-width:1.5;" x1="545.0724" x2="884.0724" y1="141.2969" y2="141.2969"/><text fill="#000000" font-family="sans-serif" font-size="14" font-weight="bold" lengthAdjust="spacingAndGlyphs" textLength="326" x="549.0724" y="133.9951">usantatecla.mastermind.views.graphics</text><polygon fill="#FFFFFF" filter="url(#f1cgijazmv73no)" points="771.0724,232,847.0724,232,854.0724,254.2969,861.0724,254.2969,861.0724,284.5938,771.0724,284.5938,771.0724,232" style="stroke:#000000;stroke-width:1.5;"/><line style="stroke:#000000;stroke-width:1.5;" x1="771.0724" x2="854.0724" y1="254.2969" y2="254.2969"/><text fill="#000000" font-family="sans-serif" font-size="14" font-weight="bold" lengthAdjust="spacingAndGlyphs" textLength="70" x="775.0724" y="246.9951">java.awt</text><polygon fill="#FFFFFF" filter="url(#f1cgijazmv73no)" points="896.0724,232,1022.0724,232,1029.0724,254.2969,1036.0724,254.2969,1036.0724,284.5938,896.0724,284.5938,896.0724,232" style="stroke:#000000;stroke-width:1.5;"/><line style="stroke:#000000;stroke-width:1.5;" x1="896.0724" x2="1029.0724" y1="254.2969" y2="254.2969"/><text fill="#000000" font-family="sans-serif" font-size="14" font-weight="bold" lengthAdjust="spacingAndGlyphs" textLength="120" x="900.0724" y="246.9951">java.awt.event</text><polygon fill="#FFFFFF" filter="url(#f1cgijazmv73no)" points="1071.5704,232,1172.5704,232,1179.5704,254.2969,1186.5704,254.2969,1186.5704,284.5938,1071.5704,284.5938,1071.5704,232" style="stroke:#000000;stroke-width:1.5;"/><line style="stroke:#000000;stroke-width:1.5;" x1="1071.5704" x2="1179.5704" y1="254.2969" y2="254.2969"/><text fill="#000000" font-family="sans-serif" font-size="14" font-weight="bold" lengthAdjust="spacingAndGlyphs" textLength="95" x="1075.5704" y="246.9951">javax.swing</text><polygon fill="#DDDDDD" filter="url(#f1cgijazmv73no)" points="100.0729,119,424.0729,119,431.0729,141.2969,438.0729,141.2969,438.0729,171.5938,100.0729,171.5938,100.0729,119" style="stroke:#000000;stroke-width:1.5;"/><line style="stroke:#000000;stroke-width:1.5;" x1="100.0729" x2="431.0729" y1="141.2969" y2="141.2969"/><text fill="#000000" font-family="sans-serif" font-size="14" font-weight="bold" lengthAdjust="spacingAndGlyphs" textLength="318" x="104.0729" y="133.9951">usantatecla.mastermind.views.console</text><polygon fill="#DDDDDD" filter="url(#f1cgijazmv73no)" points="278.5724,345,579.5724,345,586.5724,367.2969,593.5724,367.2969,593.5724,397.5938,278.5724,397.5938,278.5724,345" style="stroke:#000000;stroke-width:1.5;"/><line style="stroke:#000000;stroke-width:1.5;" x1="278.5724" x2="586.5724" y1="367.2969" y2="367.2969"/><text fill="#000000" font-family="sans-serif" font-size="14" font-weight="bold" lengthAdjust="spacingAndGlyphs" textLength="295" x="282.5724" y="359.9951">usantatecla.mastermind.controllers</text><!--MD5=[4e19c524e2c69b87d36da5f0fb3d6b68]
link usantatecla.mastermind to usantatecla.mastermind.views--><path codeLine="2" d="M577.4584,59.275 C561.6164,75.486 541.7984,97.368 527.0724,119 C503.3514,153.848 482.7854,198.014 470.4194,226.981 " fill="none" id="usantatecla.mastermind-to-usantatecla.mastermind.views" style="stroke:#A80036;stroke-width:1.0;stroke-dasharray:7.0,7.0;"/><polygon fill="#A80036" points="468.3564,231.851,475.5495,225.1235,470.3063,227.2469,468.183,222.0037,468.3564,231.851" style="stroke:#A80036;stroke-width:1.0;"/><!--MD5=[1b01179086f6bbc1e835b05fcb7da69a]
link usantatecla.mastermind to usantatecla.mastermind.models--><path codeLine="3" d="M714.8714,53.766 C872.2844,85.124 1147.8704,150.389 1204.0704,232 C1312.3104,389.181 993.4784,449.644 794.2714,471.705 " fill="none" id="usantatecla.mastermind-to-usantatecla.mastermind.models" style="stroke:#A80036;stroke-width:1.0;stroke-dasharray:7.0,7.0;"/><polygon fill="#A80036" points="789.2954,472.251,798.6782,475.2448,794.2655,471.7053,797.805,467.2926,789.2954,472.251" style="stroke:#A80036;stroke-width:1.0;"/><!--MD5=[154cfa84253b6c83652f8cc515248a6d]
link usantatecla.mastermind to usantatecla.mastermind.views.console--><path codeLine="4" d="M526.7964,59.105 C474.1834,76.538 404.6424,99.58 351.0574,117.335 " fill="none" id="usantatecla.mastermind-to-usantatecla.mastermind.views.console" style="stroke:#A80036;stroke-width:1.0;stroke-dasharray:7.0,7.0;"/><polygon fill="#A80036" points="346.2504,118.928,356.0518,119.8935,350.9965,117.355,353.535,112.2997,346.2504,118.928" style="stroke:#A80036;stroke-width:1.0;"/><!--MD5=[77bfac299a9dfa14d994751e1b13d1fb]
link usantatecla.mastermind to usantatecla.mastermind.views.graphics--><path codeLine="5" d="M630.5134,59.245 C647.6354,75.916 669.9804,97.673 687.8114,115.035 " fill="none" id="usantatecla.mastermind-to-usantatecla.mastermind.views.graphics" style="stroke:#A80036;stroke-width:1.0;stroke-dasharray:7.0,7.0;"/><polygon fill="#A80036" points="691.7754,118.895,688.1176,109.7506,688.193,115.4069,682.5367,115.4823,691.7754,118.895" style="stroke:#A80036;stroke-width:1.0;"/><!--MD5=[58f66f5f60379dd70ef75cb976dcb215]
link usantatecla.mastermind.models to java.util--><path d="M647.0724,511.245 C647.0724,527.4958 647.0724,548.5795 647.0724,565.7139 " fill="none" id="usantatecla.mastermind.models-to-java.util" style="stroke:#A80036;stroke-width:1.0;stroke-dasharray:7.0,7.0;"/><polygon fill="#A80036" points="647.0724,570.895,651.0724,561.895,647.0724,565.895,643.0724,561.895,647.0724,570.895" style="stroke:#A80036;stroke-width:1.0;"/><!--MD5=[f7f372d3543268b8cc298f05137e5dac]
link usantatecla.utils to java.io--><path d="M136.0724,285.245 C136.0724,301.496 136.0724,322.579 136.0724,339.714 " fill="none" id="usantatecla.utils-to-java.io" style="stroke:#A80036;stroke-width:1.0;stroke-dasharray:7.0,7.0;"/><polygon fill="#A80036" points="136.0724,344.895,140.0724,335.895,136.0724,339.895,132.0724,335.895,136.0724,344.895" style="stroke:#A80036;stroke-width:1.0;"/><!--MD5=[49315a8911a3f054d41fa10ad9349828]
link usantatecla.mastermind.views to usantatecla.mastermind.models--><path d="M530.2434,285.176 C559.2014,298.824 590.5174,318.391 611.0724,345 C635.3374,376.41 643.3374,422.555 645.9224,452.811 " fill="none" id="usantatecla.mastermind.views-to-usantatecla.mastermind.models" style="stroke:#A80036;stroke-width:1.0;stroke-dasharray:7.0,7.0;"/><polygon fill="#A80036" points="646.3194,457.897,649.608,448.6134,645.9309,452.9121,641.6322,449.235,646.3194,457.897" style="stroke:#A80036;stroke-width:1.0;"/><!--MD5=[b5df6e92d64d5bc2a940e3bece2f866a]
link usantatecla.mastermind.views.graphics to java.awt--><path d="M740.8024,172.245 C755.5214,188.916 774.7304,210.673 790.0594,228.035 " fill="none" id="usantatecla.mastermind.views.graphics-to-java.awt" style="stroke:#A80036;stroke-width:1.0;stroke-dasharray:7.0,7.0;"/><polygon fill="#A80036" points="793.4664,231.895,790.5097,222.5004,790.1577,228.1463,784.5118,227.7943,793.4664,231.895" style="stroke:#A80036;stroke-width:1.0;"/><!--MD5=[a5950fc01ed17ba313e3ff9277360096]
link usantatecla.mastermind.views.graphics to java.awt.event--><path d="M775.2804,172.105 C813.7694,189.332 864.4954,212.036 903.9674,229.703 " fill="none" id="usantatecla.mastermind.views.graphics-to-java.awt.event" style="stroke:#A80036;stroke-width:1.0;stroke-dasharray:7.0,7.0;"/><polygon fill="#A80036" points="908.7244,231.832,902.1446,224.5035,904.1609,229.7889,898.8756,231.8051,908.7244,231.832" style="stroke:#A80036;stroke-width:1.0;"/><!--MD5=[d137ae07135d8e25c6268b008713226c]
link usantatecla.mastermind.views.graphics to usantatecla.mastermind.views--><path d="M658.0974,172.105 C617.6644,189.367 564.3494,212.128 522.9314,229.811 " fill="none" id="usantatecla.mastermind.views.graphics-to-usantatecla.mastermind.views" style="stroke:#A80036;stroke-width:1.0;stroke-dasharray:7.0,7.0;"/><polygon fill="#A80036" points="518.1964,231.832,528.0442,231.9777,522.795,229.8691,524.9036,224.62,518.1964,231.832" style="stroke:#A80036;stroke-width:1.0;"/><!--MD5=[18dba7ad16ec340cecf593c9f0416640]
link usantatecla.mastermind.views.graphics to usantatecla.mastermind.models--><path d="M712.6784,172.106 C699.8104,233.185 667.3584,387.215 653.5034,452.976 " fill="none" id="usantatecla.mastermind.views.graphics-to-usantatecla.mastermind.models" style="stroke:#A80036;stroke-width:1.0;stroke-dasharray:7.0,7.0;"/><polygon fill="#A80036" points="652.4594,457.933,658.2303,449.952,653.491,453.0406,650.4024,448.3013,652.4594,457.933" style="stroke:#A80036;stroke-width:1.0;"/><!--MD5=[7210432fe8f598d3e6eddcbd0e4ae1e3]
link usantatecla.mastermind.views.graphics to javax.swing--><path d="M827.6174,172.071 C893.5824,188.04 979.0554,209.74 1054.0704,232 C1058.1504,233.209 1062.3304,234.498 1066.5404,235.83 " fill="none" id="usantatecla.mastermind.views.graphics-to-javax.swing" style="stroke:#A80036;stroke-width:1.0;stroke-dasharray:7.0,7.0;"/><polygon fill="#A80036" points="1071.4804,237.41,1064.1154,230.8711,1066.7154,235.895,1061.6915,238.4951,1071.4804,237.41" style="stroke:#A80036;stroke-width:1.0;"/><!--MD5=[4d42c51424c2fe200638a22853989c83]
link usantatecla.mastermind.views.console to usantatecla.mastermind.views--><path d="M312.9084,172.245 C342.0104,189.336 380.2144,211.773 410.1244,229.34 " fill="none" id="usantatecla.mastermind.views.console-to-usantatecla.mastermind.views" style="stroke:#A80036;stroke-width:1.0;stroke-dasharray:7.0,7.0;"/><polygon fill="#A80036" points="414.4754,231.895,408.7415,223.8873,410.1643,229.3623,404.6893,230.7851,414.4754,231.895" style="stroke:#A80036;stroke-width:1.0;"/><!--MD5=[da57a9a30559a1d2bbc81c15e4653a5b]
link usantatecla.mastermind.views.console to usantatecla.mastermind.models--><path d="M120.2619,172.003 C88.0688,184.692 57.8023,203.66 38.0729,232 C6,278.07 73.6184,391.99 81.0729,398 C143.7684,448.55 353.9504,469.363 499.7364,477.831 " fill="none" id="usantatecla.mastermind.views.console-to-usantatecla.mastermind.models" style="stroke:#A80036;stroke-width:1.0;stroke-dasharray:7.0,7.0;"/><polygon fill="#A80036" points="504.8954,478.127,496.14,473.6167,499.9037,477.8398,495.6805,481.6035,504.8954,478.127" style="stroke:#A80036;stroke-width:1.0;"/><!--MD5=[ea4ce8b53cd9ff973f1d13b2e6691e39]
link usantatecla.mastermind.views.console to usantatecla.utils--><path d="M238.2254,172.245 C217.9984,189.126 191.5224,211.223 170.5934,228.69 " fill="none" id="usantatecla.mastermind.views.console-to-usantatecla.utils" style="stroke:#A80036;stroke-width:1.0;stroke-dasharray:7.0,7.0;"/><polygon fill="#A80036" points="166.7524,231.895,176.2255,229.2003,170.5915,228.6917,171.1002,223.0577,166.7524,231.895" style="stroke:#A80036;stroke-width:1.0;"/><!--MD5=[666e057f4f4cec1308ce1e8b816302eb]
link usantatecla.mastermind.controllers to usantatecla.mastermind.models--><path d="M484.7454,398.105 C517.3584,415.262 560.2994,437.851 593.8234,455.487 " fill="none" id="usantatecla.mastermind.controllers-to-usantatecla.mastermind.models" style="stroke:#A80036;stroke-width:1.0;stroke-dasharray:7.0,7.0;"/><polygon fill="#A80036" points="598.2804,457.832,592.1761,450.103,593.8549,455.505,588.4529,457.1837,598.2804,457.832" style="stroke:#A80036;stroke-width:1.0;"/><!--MD5=[1b6d3441d3a24e7ba17c3ec845a2f249]
link usantatecla.mastermind.views.console to usantatecla.mastermind.controllers--><path d="M270.2494,172.068 C272.7694,201.764 280.6324,251.013 305.0724,285 C322.4624,309.183 348.9954,328.337 373.6464,342.334 " fill="none" id="usantatecla.mastermind.views.console-to-usantatecla.mastermind.controllers" style="stroke:#A80036;stroke-width:1.0;stroke-dasharray:7.0,7.0;"/><polygon fill="#A80036" points="378.2244,344.887,372.3138,337.0089,373.858,342.4509,368.416,343.9951,378.2244,344.887" style="stroke:#A80036;stroke-width:1.0;"/><!--MD5=[dc6830e5e79e794d964d00c1f5dc4a1b]
link usantatecla.mastermind.views.graphics to usantatecla.mastermind.controllers--><path d="M703.3544,172.109 C684.9614,202.297 650.9984,252.466 611.0724,285 C581.4664,309.125 543.9204,328.606 511.2034,342.843 " fill="none" id="usantatecla.mastermind.views.graphics-to-usantatecla.mastermind.controllers" style="stroke:#A80036;stroke-width:1.0;stroke-dasharray:7.0,7.0;"/><polygon fill="#A80036" points="506.4124,344.906,516.2606,345.0214,511.0049,342.929,513.0974,337.6734,506.4124,344.906" style="stroke:#A80036;stroke-width:1.0;"/><!--MD5=[630e558b56671c28f6ec272b5a73ed8b]
link usantatecla.mastermind.views to usantatecla.mastermind.controllers--><path d="M452.9704,285.245 C449.7494,301.496 445.5704,322.579 442.1744,339.714 " fill="none" id="usantatecla.mastermind.views-to-usantatecla.mastermind.controllers" style="stroke:#A80036;stroke-width:1.0;stroke-dasharray:7.0,7.0;"/><polygon fill="#A80036" points="441.1474,344.895,446.8221,336.8453,442.1203,339.9906,438.975,335.2887,441.1474,344.895" style="stroke:#A80036;stroke-width:1.0;"/><!--MD5=[9f940a07e5a706ee51b1b32e3abc6844]
@startuml
package usantatecla.mastermind #DDDDDD { }
usantatecla.mastermind ..> usantatecla.mastermind.views
usantatecla.mastermind ..> usantatecla.mastermind.models
usantatecla.mastermind ..> usantatecla.mastermind.views.console
usantatecla.mastermind ..> usantatecla.mastermind.views.graphics

package usantatecla.mastermind.models #DDDDDD { }
package java.util{ }
usantatecla.mastermind.models .down.> java.util

package usantatecla.utils #DDDDDD { }
package java.io{ }
usantatecla.utils .down.> java.io

package usantatecla.mastermind.views #DDDDDD { }
usantatecla.mastermind.views .down.> usantatecla.mastermind.models

package usantatecla.mastermind.views.graphics #DDDDDD { }
package java.awt{ }
usantatecla.mastermind.views.graphics .down.> java.awt
package java.awt.event{ }
usantatecla.mastermind.views.graphics .down.> java.awt.event
usantatecla.mastermind.views.graphics .down.> usantatecla.mastermind.views
usantatecla.mastermind.views.graphics .down.> usantatecla.mastermind.models
package javax.swing{ }
usantatecla.mastermind.views.graphics .down.> javax.swing

package usantatecla.mastermind.views.console #DDDDDD { }
usantatecla.mastermind.views.console .down.> usantatecla.mastermind.views
usantatecla.mastermind.views.console .down.> usantatecla.mastermind.models
usantatecla.mastermind.views.console .down.> usantatecla.utils

package usantatecla.mastermind.controllers #DDDDDD { }
usantatecla.mastermind.controllers .down.> usantatecla.mastermind.models
usantatecla.mastermind.views.console .down.> usantatecla.mastermind.controllers
usantatecla.mastermind.views.graphics .down.> usantatecla.mastermind.controllers
usantatecla.mastermind.views .down.> usantatecla.mastermind.controllers
@enduml

PlantUML version 1.2020.21beta3(Unknown compile time)
(GPL source distribution)
Java Runtime: Java(TM) SE Runtime Environment
JVM: Java HotSpot(TM) 64-Bit Server VM
Default Encoding: UTF-8
Language: en
Country: US
--></g></svg>