<?xml version="1.0" encoding="UTF-8" standalone="no"?><svg xmlns="http://www.w3.org/2000/svg" xmlns:xlink="http://www.w3.org/1999/xlink" contentScriptType="application/ecmascript" contentStyleType="text/css" height="630px" preserveAspectRatio="none" style="width:1093px;height:630px;" version="1.1" viewBox="0 0 1093 630" width="1093px" zoomAndPan="magnify"><defs><filter height="300%" id="f4ttysu4wnqw6" width="300%" x="-1" y="-1"><feGaussianBlur result="blurOut" stdDeviation="2.0"/><feColorMatrix in="blurOut" result="blurOut2" type="matrix" values="0 0 0 0 0 0 0 0 0 0 0 0 0 0 0 0 0 0 .4 0"/><feOffset dx="4.0" dy="4.0" in="blurOut2" result="blurOut3"/><feBlend in="SourceGraphic" in2="blurOut3" mode="normal"/></filter></defs><g><polygon fill="#DDDDDD" filter="url(#f4ttysu4wnqw6)" points="530.5,6,737.5,6,744.5,28.2969,751.5,28.2969,751.5,58.5938,530.5,58.5938,530.5,6" style="stroke:#000000;stroke-width:1.5;"/><line style="stroke:#000000;stroke-width:1.5;" x1="530.5" x2="744.5" y1="28.2969" y2="28.2969"/><text fill="#000000" font-family="sans-serif" font-size="14" font-weight="bold" lengthAdjust="spacingAndGlyphs" textLength="201" x="534.5" y="20.9951">usantatecla.mastermind</text><polygon fill="#DDDDDD" filter="url(#f4ttysu4wnqw6)" points="532,458,802,458,809,480.2969,816,480.2969,816,510.5938,532,510.5938,532,458" style="stroke:#000000;stroke-width:1.5;"/><line style="stroke:#000000;stroke-width:1.5;" x1="532" x2="809" y1="480.2969" y2="480.2969"/><text fill="#000000" font-family="sans-serif" font-size="14" font-weight="bold" lengthAdjust="spacingAndGlyphs" textLength="264" x="536" y="472.9951">usantatecla.mastermind.models</text><polygon fill="#FFFFFF" filter="url(#f4ttysu4wnqw6)" points="630.5,571,703.5,571,710.5,593.2969,717.5,593.2969,717.5,623.5938,630.5,623.5938,630.5,571" style="stroke:#000000;stroke-width:1.5;"/><line style="stroke:#000000;stroke-width:1.5;" x1="630.5" x2="710.5" y1="593.2969" y2="593.2969"/><text fill="#000000" font-family="sans-serif" font-size="14" font-weight="bold" lengthAdjust="spacingAndGlyphs" textLength="67" x="634.5" y="585.9951">java.util</text><polygon fill="#DDDDDD" filter="url(#f4ttysu4wnqw6)" points="916,232,1062,232,1069,254.2969,1076,254.2969,1076,284.5938,916,284.5938,916,232" style="stroke:#000000;stroke-width:1.5;"/><line style="stroke:#000000;stroke-width:1.5;" x1="916" x2="1069" y1="254.2969" y2="254.2969"/><text fill="#000000" font-family="sans-serif" font-size="14" font-weight="bold" lengthAdjust="spacingAndGlyphs" textLength="140" x="920" y="246.9951">usantatecla.utils</text><polygon fill="#FFFFFF" filter="url(#f4ttysu4wnqw6)" points="959,345,1019,345,1026,367.2969,1033,367.2969,1033,397.5938,959,397.5938,959,345" style="stroke:#000000;stroke-width:1.5;"/><line style="stroke:#000000;stroke-width:1.5;" x1="959" x2="1026" y1="367.2969" y2="367.2969"/><text fill="#000000" font-family="sans-serif" font-size="14" font-weight="bold" lengthAdjust="spacingAndGlyphs" textLength="54" x="963" y="359.9951">java.io</text><polygon fill="#DDDDDD" filter="url(#f4ttysu4wnqw6)" points="538.5,232,795.5,232,802.5,254.2969,809.5,254.2969,809.5,284.5938,538.5,284.5938,538.5,232" style="stroke:#000000;stroke-width:1.5;"/><line style="stroke:#000000;stroke-width:1.5;" x1="538.5" x2="802.5" y1="254.2969" y2="254.2969"/><text fill="#000000" font-family="sans-serif" font-size="14" font-weight="bold" lengthAdjust="spacingAndGlyphs" textLength="251" x="542.5" y="246.9951">usantatecla.mastermind.views</text><polygon fill="#DDDDDD" filter="url(#f4ttysu4wnqw6)" points="214,119,546,119,553,141.2969,560,141.2969,560,171.5938,214,171.5938,214,119" style="stroke:#000000;stroke-width:1.5;"/><line style="stroke:#000000;stroke-width:1.5;" x1="214" x2="553" y1="141.2969" y2="141.2969"/><text fill="#000000" font-family="sans-serif" font-size="14" font-weight="bold" lengthAdjust="spacingAndGlyphs" textLength="326" x="218" y="133.9951">usantatecla.mastermind.views.graphics</text><polygon fill="#FFFFFF" filter="url(#f4ttysu4wnqw6)" points="413,232,489,232,496,254.2969,503,254.2969,503,284.5938,413,284.5938,413,232" style="stroke:#000000;stroke-width:1.5;"/><line style="stroke:#000000;stroke-width:1.5;" x1="413" x2="496" y1="254.2969" y2="254.2969"/><text fill="#000000" font-family="sans-serif" font-size="14" font-weight="bold" lengthAdjust="spacingAndGlyphs" textLength="70" x="417" y="246.9951">java.awt</text><polygon fill="#FFFFFF" filter="url(#f4ttysu4wnqw6)" points="16,232,142,232,149,254.2969,156,254.2969,156,284.5938,16,284.5938,16,232" style="stroke:#000000;stroke-width:1.5;"/><line style="stroke:#000000;stroke-width:1.5;" x1="16" x2="149" y1="254.2969" y2="254.2969"/><text fill="#000000" font-family="sans-serif" font-size="14" font-weight="bold" lengthAdjust="spacingAndGlyphs" textLength="120" x="20" y="246.9951">java.awt.event</text><polygon fill="#FFFFFF" filter="url(#f4ttysu4wnqw6)" points="191.5,232,292.5,232,299.5,254.2969,306.5,254.2969,306.5,284.5938,191.5,284.5938,191.5,232" style="stroke:#000000;stroke-width:1.5;"/><line style="stroke:#000000;stroke-width:1.5;" x1="191.5" x2="299.5" y1="254.2969" y2="254.2969"/><text fill="#000000" font-family="sans-serif" font-size="14" font-weight="bold" lengthAdjust="spacingAndGlyphs" textLength="95" x="195.5" y="246.9951">javax.swing</text><polygon fill="#DDDDDD" filter="url(#f4ttysu4wnqw6)" points="694,119,1018,119,1025,141.2969,1032,141.2969,1032,171.5938,694,171.5938,694,119" style="stroke:#000000;stroke-width:1.5;"/><line style="stroke:#000000;stroke-width:1.5;" x1="694" x2="1025" y1="141.2969" y2="141.2969"/><text fill="#000000" font-family="sans-serif" font-size="14" font-weight="bold" lengthAdjust="spacingAndGlyphs" textLength="318" x="698" y="133.9951">usantatecla.mastermind.views.console</text><polygon fill="#DDDDDD" filter="url(#f4ttysu4wnqw6)" points="516.5,345,817.5,345,824.5,367.2969,831.5,367.2969,831.5,397.5938,516.5,397.5938,516.5,345" style="stroke:#000000;stroke-width:1.5;"/><line style="stroke:#000000;stroke-width:1.5;" x1="516.5" x2="824.5" y1="367.2969" y2="367.2969"/><text fill="#000000" font-family="sans-serif" font-size="14" font-weight="bold" lengthAdjust="spacingAndGlyphs" textLength="295" x="520.5" y="359.9951">usantatecla.mastermind.controllers</text><!--MD5=[4e19c524e2c69b87d36da5f0fb3d6b68]
link usantatecla.mastermind to usantatecla.mastermind.views--><path codeLine="2" d="M644.786,59.196 C650.899,100.69 662.92,182.287 669.475,226.785 " fill="none" id="usantatecla.mastermind-to-usantatecla.mastermind.views" style="stroke:#A80036;stroke-width:1.0;stroke-dasharray:7.0,7.0;"/><polygon fill="#A80036" points="670.208,231.76,672.8536,222.2731,669.4793,226.8134,664.939,223.4391,670.208,231.76" style="stroke:#A80036;stroke-width:1.0;"/><!--MD5=[154cfa84253b6c83652f8cc515248a6d]
link usantatecla.mastermind to usantatecla.mastermind.views.console--><path codeLine="3" d="M692.21,59.105 C726.524,76.262 771.703,98.851 806.974,116.487 " fill="none" id="usantatecla.mastermind-to-usantatecla.mastermind.views.console" style="stroke:#A80036;stroke-width:1.0;stroke-dasharray:7.0,7.0;"/><polygon fill="#A80036" points="811.664,118.832,805.402,111.2302,807.1916,116.5965,801.8252,118.386,811.664,118.832" style="stroke:#A80036;stroke-width:1.0;"/><!--MD5=[77bfac299a9dfa14d994751e1b13d1fb]
link usantatecla.mastermind to usantatecla.mastermind.views.graphics--><path codeLine="4" d="M582.408,59.105 C542.988,76.332 491.035,99.036 450.608,116.703 " fill="none" id="usantatecla.mastermind-to-usantatecla.mastermind.views.graphics" style="stroke:#A80036;stroke-width:1.0;stroke-dasharray:7.0,7.0;"/><polygon fill="#A80036" points="445.736,118.832,455.5847,118.892,450.3173,116.8292,452.3802,111.5618,445.736,118.832" style="stroke:#A80036;stroke-width:1.0;"/><!--MD5=[58f66f5f60379dd70ef75cb976dcb215]
link usantatecla.mastermind.models to java.util--><path d="M674,511.245 C674,527.4958 674,548.5795 674,565.7139 " fill="none" id="usantatecla.mastermind.models-to-java.util" style="stroke:#A80036;stroke-width:1.0;stroke-dasharray:7.0,7.0;"/><polygon fill="#A80036" points="674,570.895,678,561.895,674,565.895,670,561.895,674,570.895" style="stroke:#A80036;stroke-width:1.0;"/><!--MD5=[f7f372d3543268b8cc298f05137e5dac]
link usantatecla.utils to java.io--><path d="M996,285.245 C996,301.496 996,322.579 996,339.714 " fill="none" id="usantatecla.utils-to-java.io" style="stroke:#A80036;stroke-width:1.0;stroke-dasharray:7.0,7.0;"/><polygon fill="#A80036" points="996,344.895,1000,335.895,996,339.895,992,335.895,996,344.895" style="stroke:#A80036;stroke-width:1.0;"/><!--MD5=[b5df6e92d64d5bc2a940e3bece2f866a]
link usantatecla.mastermind.views.graphics to java.awt--><path d="M403.467,172.245 C414.041,188.776 427.814,210.308 438.873,227.597 " fill="none" id="usantatecla.mastermind.views.graphics-to-java.awt" style="stroke:#A80036;stroke-width:1.0;stroke-dasharray:7.0,7.0;"/><polygon fill="#A80036" points="441.622,231.895,440.1413,222.1581,438.9275,227.6832,433.4024,226.4693,441.622,231.895" style="stroke:#A80036;stroke-width:1.0;"/><!--MD5=[a5950fc01ed17ba313e3ff9277360096]
link usantatecla.mastermind.views.graphics to java.awt.event--><path d="M317.567,172.105 C270.484,189.468 208.313,212.395 160.246,230.12 " fill="none" id="usantatecla.mastermind.views.graphics-to-java.awt.event" style="stroke:#A80036;stroke-width:1.0;stroke-dasharray:7.0,7.0;"/><polygon fill="#A80036" points="155.344,231.928,165.1721,232.5671,160.0352,230.1981,162.4042,225.0612,155.344,231.928" style="stroke:#A80036;stroke-width:1.0;"/><!--MD5=[d137ae07135d8e25c6268b008713226c]
link usantatecla.mastermind.views.graphics to usantatecla.mastermind.views--><path d="M453.204,172.105 C498.017,189.437 557.165,212.313 602.962,230.026 " fill="none" id="usantatecla.mastermind.views.graphics-to-usantatecla.mastermind.views" style="stroke:#A80036;stroke-width:1.0;stroke-dasharray:7.0,7.0;"/><polygon fill="#A80036" points="607.633,231.832,600.6811,224.8555,602.9694,230.0289,597.7961,232.3172,607.633,231.832" style="stroke:#A80036;stroke-width:1.0;"/><!--MD5=[7210432fe8f598d3e6eddcbd0e4ae1e3]
link usantatecla.mastermind.views.graphics to javax.swing--><path d="M354.993,172.245 C334.005,189.126 306.534,211.223 284.818,228.69 " fill="none" id="usantatecla.mastermind.views.graphics-to-javax.swing" style="stroke:#A80036;stroke-width:1.0;stroke-dasharray:7.0,7.0;"/><polygon fill="#A80036" points="280.833,231.895,290.3532,229.372,284.7294,228.7616,285.3398,223.1378,280.833,231.895" style="stroke:#A80036;stroke-width:1.0;"/><!--MD5=[4d42c51424c2fe200638a22853989c83]
link usantatecla.mastermind.views.console to usantatecla.mastermind.views--><path d="M819.165,172.245 C790.062,189.336 751.859,211.773 721.948,229.34 " fill="none" id="usantatecla.mastermind.views.console-to-usantatecla.mastermind.views" style="stroke:#A80036;stroke-width:1.0;stroke-dasharray:7.0,7.0;"/><polygon fill="#A80036" points="717.598,231.895,727.3844,230.7875,721.9097,229.3634,723.3338,223.8887,717.598,231.895" style="stroke:#A80036;stroke-width:1.0;"/><!--MD5=[ea4ce8b53cd9ff973f1d13b2e6691e39]
link usantatecla.mastermind.views.console to usantatecla.utils--><path d="M893.847,172.245 C914.075,189.126 940.55,211.223 961.48,228.69 " fill="none" id="usantatecla.mastermind.views.console-to-usantatecla.utils" style="stroke:#A80036;stroke-width:1.0;stroke-dasharray:7.0,7.0;"/><polygon fill="#A80036" points="965.32,231.895,960.9742,223.0568,961.4816,228.6908,955.8475,229.1983,965.32,231.895" style="stroke:#A80036;stroke-width:1.0;"/><!--MD5=[666e057f4f4cec1308ce1e8b816302eb]
link usantatecla.mastermind.controllers to usantatecla.mastermind.models--><path d="M674,398.245 C674,414.496 674,435.579 674,452.714 " fill="none" id="usantatecla.mastermind.controllers-to-usantatecla.mastermind.models" style="stroke:#A80036;stroke-width:1.0;stroke-dasharray:7.0,7.0;"/><polygon fill="#A80036" points="674,457.895,678,448.895,674,452.895,670,448.895,674,457.895" style="stroke:#A80036;stroke-width:1.0;"/><!--MD5=[1b6d3441d3a24e7ba17c3ec845a2f249]
link usantatecla.mastermind.views.console to usantatecla.mastermind.controllers--><path d="M862.246,172.103 C860.135,202.057 852.668,251.773 827,285 C807.569,310.154 778.521,329.015 750.94,342.532 " fill="none" id="usantatecla.mastermind.views.console-to-usantatecla.mastermind.controllers" style="stroke:#A80036;stroke-width:1.0;stroke-dasharray:7.0,7.0;"/><polygon fill="#A80036" points="746.17,344.824,756.0145,344.5302,750.6765,342.6579,752.5488,337.3199,746.17,344.824" style="stroke:#A80036;stroke-width:1.0;"/><!--MD5=[dc6830e5e79e794d964d00c1f5dc4a1b]
link usantatecla.mastermind.views.graphics to usantatecla.mastermind.controllers--><path d="M380.488,172.253 C374.457,202.583 369.791,252.889 395,285 C423.523,321.333 467.121,342.631 511.436,354.994 " fill="none" id="usantatecla.mastermind.views.graphics-to-usantatecla.mastermind.controllers" style="stroke:#A80036;stroke-width:1.0;stroke-dasharray:7.0,7.0;"/><polygon fill="#A80036" points="516.282,356.311,508.646,350.0908,511.457,354.9998,506.548,357.8108,516.282,356.311" style="stroke:#A80036;stroke-width:1.0;"/><!--MD5=[630e558b56671c28f6ec272b5a73ed8b]
link usantatecla.mastermind.views to usantatecla.mastermind.controllers--><path d="M674,285.245 C674,301.496 674,322.579 674,339.714 " fill="none" id="usantatecla.mastermind.views-to-usantatecla.mastermind.controllers" style="stroke:#A80036;stroke-width:1.0;stroke-dasharray:7.0,7.0;"/><polygon fill="#A80036" points="674,344.895,678,335.895,674,339.895,670,335.895,674,344.895" style="stroke:#A80036;stroke-width:1.0;"/><!--MD5=[550e237d5488d255a6969c8e352dc651]
@startuml
package usantatecla.mastermind #DDDDDD { }
usantatecla.mastermind ..> usantatecla.mastermind.views
usantatecla.mastermind ..> usantatecla.mastermind.views.console
usantatecla.mastermind ..> usantatecla.mastermind.views.graphics

package usantatecla.mastermind.models #DDDDDD { }
package java.util{ }
usantatecla.mastermind.models .down.> java.util

package usantatecla.utils #DDDDDD { }
package java.io{ }
usantatecla.utils .down.> java.io

package usantatecla.mastermind.views #DDDDDD { }

package usantatecla.mastermind.views.graphics #DDDDDD { }
package java.awt{ }
usantatecla.mastermind.views.graphics .down.> java.awt
package java.awt.event{ }
usantatecla.mastermind.views.graphics .down.> java.awt.event
usantatecla.mastermind.views.graphics .down.> usantatecla.mastermind.views
package javax.swing{ }
usantatecla.mastermind.views.graphics .down.> javax.swing

package usantatecla.mastermind.views.console #DDDDDD { }
usantatecla.mastermind.views.console .down.> usantatecla.mastermind.views
usantatecla.mastermind.views.console .down.> usantatecla.utils

package usantatecla.mastermind.controllers #DDDDDD { }
usantatecla.mastermind.controllers .down.> usantatecla.mastermind.models
usantatecla.mastermind.views.console .down.> usantatecla.mastermind.controllers
usantatecla.mastermind.views.graphics .down.> usantatecla.mastermind.controllers
usantatecla.mastermind.views .down.> usantatecla.mastermind.controllers
@enduml

PlantUML version 1.2020.21(Mon Nov 30 16:40:11 UTC 2020)
(GPL source distribution)
Java Runtime: Java(TM) SE Runtime Environment
JVM: Java HotSpot(TM) 64-Bit Server VM
Default Encoding: UTF-8
Language: en
Country: US
--></g></svg>