<?xml version="1.0" encoding="UTF-8" standalone="no"?><svg xmlns="http://www.w3.org/2000/svg" xmlns:xlink="http://www.w3.org/1999/xlink" contentScriptType="application/ecmascript" contentStyleType="text/css" height="630px" preserveAspectRatio="none" style="width:824px;height:630px;" version="1.1" viewBox="0 0 824 630" width="824px" zoomAndPan="magnify"><defs><filter height="300%" id="fc3dl985u2cca" width="300%" x="-1" y="-1"><feGaussianBlur result="blurOut" stdDeviation="2.0"/><feColorMatrix in="blurOut" result="blurOut2" type="matrix" values="0 0 0 0 0 0 0 0 0 0 0 0 0 0 0 0 0 0 .4 0"/><feOffset dx="4.0" dy="4.0" in="blurOut2" result="blurOut3"/><feBlend in="SourceGraphic" in2="blurOut3" mode="normal"/></filter></defs><g><polygon fill="#DDDDDD" filter="url(#fc3dl985u2cca)" points="304.5,6,511.5,6,518.5,28.2969,525.5,28.2969,525.5,58.5938,304.5,58.5938,304.5,6" style="stroke:#000000;stroke-width:1.5;"/><line style="stroke:#000000;stroke-width:1.5;" x1="304.5" x2="518.5" y1="28.2969" y2="28.2969"/><text fill="#000000" font-family="sans-serif" font-size="14" font-weight="bold" lengthAdjust="spacingAndGlyphs" textLength="201" x="308.5" y="20.9951">usantatecla.mastermind</text><polygon fill="#DDDDDD" filter="url(#fc3dl985u2cca)" points="263,458,533,458,540,480.2969,547,480.2969,547,510.5938,263,510.5938,263,458" style="stroke:#000000;stroke-width:1.5;"/><line style="stroke:#000000;stroke-width:1.5;" x1="263" x2="540" y1="480.2969" y2="480.2969"/><text fill="#000000" font-family="sans-serif" font-size="14" font-weight="bold" lengthAdjust="spacingAndGlyphs" textLength="264" x="267" y="472.9951">usantatecla.mastermind.models</text><polygon fill="#FFFFFF" filter="url(#fc3dl985u2cca)" points="361.5,571,434.5,571,441.5,593.2969,448.5,593.2969,448.5,623.5938,361.5,623.5938,361.5,571" style="stroke:#000000;stroke-width:1.5;"/><line style="stroke:#000000;stroke-width:1.5;" x1="361.5" x2="441.5" y1="593.2969" y2="593.2969"/><text fill="#000000" font-family="sans-serif" font-size="14" font-weight="bold" lengthAdjust="spacingAndGlyphs" textLength="67" x="365.5" y="585.9951">java.util</text><polygon fill="#DDDDDD" filter="url(#fc3dl985u2cca)" points="647,232,793,232,800,254.2969,807,254.2969,807,284.5938,647,284.5938,647,232" style="stroke:#000000;stroke-width:1.5;"/><line style="stroke:#000000;stroke-width:1.5;" x1="647" x2="800" y1="254.2969" y2="254.2969"/><text fill="#000000" font-family="sans-serif" font-size="14" font-weight="bold" lengthAdjust="spacingAndGlyphs" textLength="140" x="651" y="246.9951">usantatecla.utils</text><polygon fill="#FFFFFF" filter="url(#fc3dl985u2cca)" points="690,345,750,345,757,367.2969,764,367.2969,764,397.5938,690,397.5938,690,345" style="stroke:#000000;stroke-width:1.5;"/><line style="stroke:#000000;stroke-width:1.5;" x1="690" x2="757" y1="367.2969" y2="367.2969"/><text fill="#000000" font-family="sans-serif" font-size="14" font-weight="bold" lengthAdjust="spacingAndGlyphs" textLength="54" x="694" y="359.9951">java.io</text><polygon fill="#DDDDDD" filter="url(#fc3dl985u2cca)" points="269.5,232,526.5,232,533.5,254.2969,540.5,254.2969,540.5,284.5938,269.5,284.5938,269.5,232" style="stroke:#000000;stroke-width:1.5;"/><line style="stroke:#000000;stroke-width:1.5;" x1="269.5" x2="533.5" y1="254.2969" y2="254.2969"/><text fill="#000000" font-family="sans-serif" font-size="14" font-weight="bold" lengthAdjust="spacingAndGlyphs" textLength="251" x="273.5" y="246.9951">usantatecla.mastermind.views</text><polygon fill="#DDDDDD" filter="url(#fc3dl985u2cca)" points="16,119,348,119,355,141.2969,362,141.2969,362,171.5938,16,171.5938,16,119" style="stroke:#000000;stroke-width:1.5;"/><line style="stroke:#000000;stroke-width:1.5;" x1="16" x2="355" y1="141.2969" y2="141.2969"/><text fill="#000000" font-family="sans-serif" font-size="14" font-weight="bold" lengthAdjust="spacingAndGlyphs" textLength="326" x="20" y="133.9951">usantatecla.mastermind.views.graphics</text><polygon fill="#DDDDDD" filter="url(#fc3dl985u2cca)" points="468,119,792,119,799,141.2969,806,141.2969,806,171.5938,468,171.5938,468,119" style="stroke:#000000;stroke-width:1.5;"/><line style="stroke:#000000;stroke-width:1.5;" x1="468" x2="799" y1="141.2969" y2="141.2969"/><text fill="#000000" font-family="sans-serif" font-size="14" font-weight="bold" lengthAdjust="spacingAndGlyphs" textLength="318" x="472" y="133.9951">usantatecla.mastermind.views.console</text><polygon fill="#DDDDDD" filter="url(#fc3dl985u2cca)" points="247.5,345,548.5,345,555.5,367.2969,562.5,367.2969,562.5,397.5938,247.5,397.5938,247.5,345" style="stroke:#000000;stroke-width:1.5;"/><line style="stroke:#000000;stroke-width:1.5;" x1="247.5" x2="555.5" y1="367.2969" y2="367.2969"/><text fill="#000000" font-family="sans-serif" font-size="14" font-weight="bold" lengthAdjust="spacingAndGlyphs" textLength="295" x="251.5" y="359.9951">usantatecla.mastermind.controllers</text><!--MD5=[4e19c524e2c69b87d36da5f0fb3d6b68]
link usantatecla.mastermind to usantatecla.mastermind.views--><path codeLine="2" d="M413.853,59.196 C412.004,100.606 408.372,181.957 406.383,226.514 " fill="none" id="usantatecla.mastermind-to-usantatecla.mastermind.views" style="stroke:#A80036;stroke-width:1.0;stroke-dasharray:7.0,7.0;"/><polygon fill="#A80036" points="406.149,231.76,410.5462,222.9473,406.3719,226.765,402.5542,222.5906,406.149,231.76" style="stroke:#A80036;stroke-width:1.0;"/><!--MD5=[154cfa84253b6c83652f8cc515248a6d]
link usantatecla.mastermind to usantatecla.mastermind.views.console--><path codeLine="3" d="M466.21,59.105 C500.524,76.262 545.703,98.851 580.974,116.487 " fill="none" id="usantatecla.mastermind-to-usantatecla.mastermind.views.console" style="stroke:#A80036;stroke-width:1.0;stroke-dasharray:7.0,7.0;"/><polygon fill="#A80036" points="585.664,118.832,579.402,111.2302,581.1916,116.5965,575.8252,118.386,585.664,118.832" style="stroke:#A80036;stroke-width:1.0;"/><!--MD5=[77bfac299a9dfa14d994751e1b13d1fb]
link usantatecla.mastermind to usantatecla.mastermind.views.graphics--><path codeLine="4" d="M362.867,59.105 C327.935,76.262 281.942,98.851 246.035,116.487 " fill="none" id="usantatecla.mastermind-to-usantatecla.mastermind.views.graphics" style="stroke:#A80036;stroke-width:1.0;stroke-dasharray:7.0,7.0;"/><polygon fill="#A80036" points="241.261,118.832,251.1026,118.4539,245.7487,116.6274,247.5753,111.2736,241.261,118.832" style="stroke:#A80036;stroke-width:1.0;"/><!--MD5=[58f66f5f60379dd70ef75cb976dcb215]
link usantatecla.mastermind.models to java.util--><path d="M405,511.245 C405,527.4958 405,548.5795 405,565.7139 " fill="none" id="usantatecla.mastermind.models-to-java.util" style="stroke:#A80036;stroke-width:1.0;stroke-dasharray:7.0,7.0;"/><polygon fill="#A80036" points="405,570.895,409,561.895,405,565.895,401,561.895,405,570.895" style="stroke:#A80036;stroke-width:1.0;"/><!--MD5=[f7f372d3543268b8cc298f05137e5dac]
link usantatecla.utils to java.io--><path d="M727,285.245 C727,301.496 727,322.579 727,339.714 " fill="none" id="usantatecla.utils-to-java.io" style="stroke:#A80036;stroke-width:1.0;stroke-dasharray:7.0,7.0;"/><polygon fill="#A80036" points="727,344.895,731,335.895,727,339.895,723,335.895,727,344.895" style="stroke:#A80036;stroke-width:1.0;"/><!--MD5=[d137ae07135d8e25c6268b008713226c]
link usantatecla.mastermind.views.graphics to usantatecla.mastermind.views--><path d="M238.826,172.105 C272.212,189.262 316.17,211.851 350.489,229.487 " fill="none" id="usantatecla.mastermind.views.graphics-to-usantatecla.mastermind.views" style="stroke:#A80036;stroke-width:1.0;stroke-dasharray:7.0,7.0;"/><polygon fill="#A80036" points="355.051,231.832,348.8749,224.1602,350.604,229.5464,345.2179,231.2754,355.051,231.832" style="stroke:#A80036;stroke-width:1.0;"/><!--MD5=[4d42c51424c2fe200638a22853989c83]
link usantatecla.mastermind.views.console to usantatecla.mastermind.views--><path d="M583.483,172.105 C547.624,189.262 500.41,211.851 463.549,229.487 " fill="none" id="usantatecla.mastermind.views.console-to-usantatecla.mastermind.views" style="stroke:#A80036;stroke-width:1.0;stroke-dasharray:7.0,7.0;"/><polygon fill="#A80036" points="458.649,231.832,468.4939,231.5546,463.159,229.6734,465.0402,224.3385,458.649,231.832" style="stroke:#A80036;stroke-width:1.0;"/><!--MD5=[ea4ce8b53cd9ff973f1d13b2e6691e39]
link usantatecla.mastermind.views.console to usantatecla.utils--><path d="M657.874,172.245 C671.278,188.776 688.736,210.308 702.754,227.597 " fill="none" id="usantatecla.mastermind.views.console-to-usantatecla.utils" style="stroke:#A80036;stroke-width:1.0;stroke-dasharray:7.0,7.0;"/><polygon fill="#A80036" points="706.239,231.895,703.6773,222.3851,703.0898,228.0114,697.4635,227.4238,706.239,231.895" style="stroke:#A80036;stroke-width:1.0;"/><!--MD5=[666e057f4f4cec1308ce1e8b816302eb]
link usantatecla.mastermind.controllers to usantatecla.mastermind.models--><path d="M405,398.245 C405,414.496 405,435.579 405,452.714 " fill="none" id="usantatecla.mastermind.controllers-to-usantatecla.mastermind.models" style="stroke:#A80036;stroke-width:1.0;stroke-dasharray:7.0,7.0;"/><polygon fill="#A80036" points="405,457.895,409,448.895,405,452.895,401,448.895,405,457.895" style="stroke:#A80036;stroke-width:1.0;"/><!--MD5=[1b6d3441d3a24e7ba17c3ec845a2f249]
link usantatecla.mastermind.views.console to usantatecla.mastermind.controllers--><path d="M627.341,172.204 C615.011,202.256 591.225,252.066 558,285 C533.692,309.096 501.207,328.523 472.424,342.733 " fill="none" id="usantatecla.mastermind.views.console-to-usantatecla.mastermind.controllers" style="stroke:#A80036;stroke-width:1.0;stroke-dasharray:7.0,7.0;"/><polygon fill="#A80036" points="467.838,344.969,477.6807,344.6199,472.3322,342.7776,474.1744,337.4291,467.838,344.969" style="stroke:#A80036;stroke-width:1.0;"/><!--MD5=[dc6830e5e79e794d964d00c1f5dc4a1b]
link usantatecla.mastermind.views.graphics to usantatecla.mastermind.controllers--><path d="M195.407,172.235 C203.994,202.316 221.765,252.155 252,285 C274.594,309.544 305.897,328.747 334.306,342.682 " fill="none" id="usantatecla.mastermind.views.graphics-to-usantatecla.mastermind.controllers" style="stroke:#A80036;stroke-width:1.0;stroke-dasharray:7.0,7.0;"/><polygon fill="#A80036" points="338.839,344.873,332.4785,337.3534,334.3378,342.696,328.9953,344.5553,338.839,344.873" style="stroke:#A80036;stroke-width:1.0;"/><!--MD5=[630e558b56671c28f6ec272b5a73ed8b]
link usantatecla.mastermind.views to usantatecla.mastermind.controllers--><path d="M405,285.245 C405,301.496 405,322.579 405,339.714 " fill="none" id="usantatecla.mastermind.views-to-usantatecla.mastermind.controllers" style="stroke:#A80036;stroke-width:1.0;stroke-dasharray:7.0,7.0;"/><polygon fill="#A80036" points="405,344.895,409,335.895,405,339.895,401,335.895,405,344.895" style="stroke:#A80036;stroke-width:1.0;"/><!--MD5=[81c6ebb613df7a3f16453ed3c3f95c44]
@startuml
package usantatecla.mastermind #DDDDDD { }
usantatecla.mastermind ..> usantatecla.mastermind.views
usantatecla.mastermind ..> usantatecla.mastermind.views.console
usantatecla.mastermind ..> usantatecla.mastermind.views.graphics

package usantatecla.mastermind.models #DDDDDD { }
package java.util{ }
usantatecla.mastermind.models .down.> java.util

package usantatecla.utils #DDDDDD { }
package java.io{ }
usantatecla.utils .down.> java.io

package usantatecla.mastermind.views #DDDDDD { }

package usantatecla.mastermind.views.graphics #DDDDDD { }

usantatecla.mastermind.views.graphics .down.> usantatecla.mastermind.views


package usantatecla.mastermind.views.console #DDDDDD { }
usantatecla.mastermind.views.console .down.> usantatecla.mastermind.views
usantatecla.mastermind.views.console .down.> usantatecla.utils

package usantatecla.mastermind.controllers #DDDDDD { }
usantatecla.mastermind.controllers .down.> usantatecla.mastermind.models
usantatecla.mastermind.views.console .down.> usantatecla.mastermind.controllers
usantatecla.mastermind.views.graphics .down.> usantatecla.mastermind.controllers
usantatecla.mastermind.views .down.> usantatecla.mastermind.controllers
@enduml

PlantUML version 1.2020.22beta2(Unknown compile time)
(GPL source distribution)
Java Runtime: Java(TM) SE Runtime Environment
JVM: Java HotSpot(TM) 64-Bit Server VM
Default Encoding: UTF-8
Language: en
Country: US
--></g></svg>