<?xml version="1.0" encoding="UTF-8" standalone="no"?><svg xmlns="http://www.w3.org/2000/svg" xmlns:xlink="http://www.w3.org/1999/xlink" contentScriptType="application/ecmascript" contentStyleType="text/css" height="447px" preserveAspectRatio="none" style="width:1637px;height:447px;" version="1.1" viewBox="0 0 1637 447" width="1637px" zoomAndPan="magnify"><defs><filter height="300%" id="f1e90o81jewn8c" width="300%" x="-1" y="-1"><feGaussianBlur result="blurOut" stdDeviation="2.0"/><feColorMatrix in="blurOut" result="blurOut2" type="matrix" values="0 0 0 0 0 0 0 0 0 0 0 0 0 0 0 0 0 0 .4 0"/><feOffset dx="4.0" dy="4.0" in="blurOut2" result="blurOut3"/><feBlend in="SourceGraphic" in2="blurOut3" mode="normal"/></filter></defs><g><!--MD5=[45607799a901819e6cc4b6d8cd00ce6c]
cluster usantatecla.mastermind.controllers--><polygon fill="#FFFFFF" filter="url(#f1e90o81jewn8c)" points="209.5,6,510.5,6,517.5,28.2969,1003.5,28.2969,1003.5,341,209.5,341,209.5,6" style="stroke:#000000;stroke-width:1.5;"/><line style="stroke:#000000;stroke-width:1.5;" x1="209.5" x2="517.5" y1="28.2969" y2="28.2969"/><text fill="#000000" font-family="sans-serif" font-size="14" font-weight="bold" lengthAdjust="spacingAndGlyphs" textLength="295" x="213.5" y="20.9951">usantatecla.mastermind.controllers</text><!--MD5=[e0d21a3c8ca66756a771586930837509]
class usantatecla.mastermind.controllers.Controller--><rect codeLine="8" fill="#FEFECE" filter="url(#f1e90o81jewn8c)" height="86.4141" id="usantatecla.mastermind.controllers.Controller" style="stroke:#A80036;stroke-width:1.5;" width="124" x="839.5" y="41"/><ellipse cx="869.8" cy="57" fill="#A9DCDF" rx="11" ry="11" style="stroke:#A80036;stroke-width:1.0;"/><path d="M871.8781,58.8125 L872.2688,59.7969 L871.8781,59.7969 C871.425,59.7969 871.3156,59.8125 871.1594,59.9219 C870.9094,60.0781 870.7531,60.3594 870.7531,60.6563 C870.7531,60.9219 870.8938,61.1719 871.1125,61.3281 C871.2531,61.4531 871.4563,61.5 871.8781,61.5 L874.2375,61.5 C874.5969,61.5 874.8156,61.4688 874.9563,61.375 C875.2063,61.2344 875.3625,60.9375 875.3625,60.6563 C875.3625,60.375 875.2219,60.125 875.0031,59.9688 C874.8313,59.8281 874.675,59.7969 874.2063,59.7969 L870.8156,51.5938 L867.1438,51.5938 C866.6906,51.5938 866.5656,51.6094 866.4094,51.7031 C866.1594,51.875 866.0031,52.1563 866.0031,52.4375 C866.0031,52.7188 866.1438,52.9688 866.3625,53.1406 C866.5344,53.25 866.7063,53.2813 867.1438,53.2813 L868.2219,53.2813 L865.5813,59.7969 C865.1594,59.7969 865.0031,59.8125 864.8469,59.9219 C864.5969,60.0781 864.4406,60.3594 864.4406,60.6563 C864.4406,61.2188 864.8156,61.5 865.5656,61.5 L867.8313,61.5 C868.1906,61.5 868.4094,61.4688 868.5344,61.375 C868.8,61.2344 868.9406,60.9375 868.9406,60.6563 C868.9406,60.375 868.8156,60.125 868.5969,59.9531 C868.425,59.8281 868.2844,59.7969 867.8313,59.7969 L867.4406,59.7969 L867.8313,58.8125 L871.8781,58.8125 Z M871.175,57.1094 L868.5031,57.1094 L869.8469,53.8438 L871.175,57.1094 Z " fill="#000000"/><text fill="#000000" font-family="sans-serif" font-size="12" font-style="italic" lengthAdjust="spacingAndGlyphs" textLength="58" x="887.2" y="61.1543">Controller</text><line style="stroke:#A80036;stroke-width:1.5;" x1="840.5" x2="962.5" y1="73" y2="73"/><polygon fill="none" points="850.5,79,854.5,83,850.5,87,846.5,83" style="stroke:#B38D22;stroke-width:1.0;"/><text fill="#000000" font-family="sans-serif" font-size="11" lengthAdjust="spacingAndGlyphs" textLength="75" x="859.5" y="87.2104">game: Game</text><line style="stroke:#A80036;stroke-width:1.5;" x1="840.5" x2="962.5" y1="93.8047" y2="93.8047"/><polygon fill="#FFFF44" points="850.5,99.8047,854.5,103.8047,850.5,107.8047,846.5,103.8047" style="stroke:#B38D22;stroke-width:1.0;"/><text fill="#000000" font-family="sans-serif" font-size="11" lengthAdjust="spacingAndGlyphs" textLength="98" x="859.5" y="108.0151">Controller(Game)</text><ellipse cx="850.5" cy="117.6094" fill="#84BE84" rx="3" ry="3" style="stroke:#038048;stroke-width:1.0;"/><text fill="#000000" font-family="sans-serif" font-size="11" lengthAdjust="spacingAndGlyphs" textLength="80" x="859.5" y="120.8198">getWidth(): int</text><!--MD5=[c20948aa6f904689435480ad9a30530a]
class usantatecla.mastermind.controllers.StartController--><rect codeLine="17" fill="#FEFECE" filter="url(#f1e90o81jewn8c)" height="60.8047" id="usantatecla.mastermind.controllers.StartController" style="stroke:#A80036;stroke-width:1.5;" width="151" x="226" y="225.5"/><ellipse cx="255.4" cy="241.5" fill="#ADD1B2" rx="11" ry="11" style="stroke:#A80036;stroke-width:1.0;"/><path d="M257.7438,237.1719 C256.8063,236.7344 256.2125,236.5938 255.3375,236.5938 C252.7125,236.5938 250.7125,238.6719 250.7125,241.3906 L250.7125,242.5156 C250.7125,245.0938 252.8219,246.9844 255.7125,246.9844 C256.9313,246.9844 258.0875,246.6875 258.8375,246.1406 C259.4156,245.7344 259.7438,245.2813 259.7438,244.8906 C259.7438,244.4375 259.3531,244.0469 258.8844,244.0469 C258.6656,244.0469 258.4625,244.125 258.275,244.3125 C257.8219,244.7969 257.8219,244.7969 257.6344,244.8906 C257.2125,245.1563 256.525,245.2813 255.7594,245.2813 C253.7125,245.2813 252.4156,244.1875 252.4156,242.4844 L252.4156,241.3906 C252.4156,239.6094 253.6656,238.2969 255.4,238.2969 C255.9781,238.2969 256.5875,238.4531 257.0563,238.7031 C257.5406,238.9844 257.7125,239.2031 257.8063,239.6094 C257.8688,240.0156 257.9,240.1406 258.0406,240.2656 C258.1813,240.4063 258.4156,240.5156 258.6344,240.5156 C258.9,240.5156 259.1656,240.375 259.3375,240.1563 C259.4469,240 259.4781,239.8125 259.4781,239.3906 L259.4781,237.9688 C259.4781,237.5313 259.4625,237.4063 259.3688,237.25 C259.2125,236.9844 258.9313,236.8438 258.6344,236.8438 C258.3375,236.8438 258.1344,236.9375 257.9156,237.25 L257.7438,237.1719 Z " fill="#000000"/><text fill="#000000" font-family="sans-serif" font-size="12" lengthAdjust="spacingAndGlyphs" textLength="87" x="272.6" y="245.6543">StartController</text><line style="stroke:#A80036;stroke-width:1.5;" x1="227" x2="376" y1="257.5" y2="257.5"/><line style="stroke:#A80036;stroke-width:1.5;" x1="227" x2="376" y1="265.5" y2="265.5"/><ellipse cx="237" cy="276.5" fill="#84BE84" rx="3" ry="3" style="stroke:#038048;stroke-width:1.0;"/><text fill="#000000" font-family="sans-serif" font-size="11" lengthAdjust="spacingAndGlyphs" textLength="125" x="246" y="279.7104">StartController(Game)</text><!--MD5=[71ea1457370bc7d349149836b00bab29]
class usantatecla.mastermind.controllers.ProposalController--><rect codeLine="22" fill="#FEFECE" filter="url(#f1e90o81jewn8c)" height="137.6328" id="usantatecla.mastermind.controllers.ProposalController" style="stroke:#A80036;stroke-width:1.5;" width="368" x="412.5" y="187"/><ellipse cx="536.75" cy="203" fill="#ADD1B2" rx="11" ry="11" style="stroke:#A80036;stroke-width:1.0;"/><path d="M539.0938,198.6719 C538.1563,198.2344 537.5625,198.0938 536.6875,198.0938 C534.0625,198.0938 532.0625,200.1719 532.0625,202.8906 L532.0625,204.0156 C532.0625,206.5938 534.1719,208.4844 537.0625,208.4844 C538.2813,208.4844 539.4375,208.1875 540.1875,207.6406 C540.7656,207.2344 541.0938,206.7813 541.0938,206.3906 C541.0938,205.9375 540.7031,205.5469 540.2344,205.5469 C540.0156,205.5469 539.8125,205.625 539.625,205.8125 C539.1719,206.2969 539.1719,206.2969 538.9844,206.3906 C538.5625,206.6563 537.875,206.7813 537.1094,206.7813 C535.0625,206.7813 533.7656,205.6875 533.7656,203.9844 L533.7656,202.8906 C533.7656,201.1094 535.0156,199.7969 536.75,199.7969 C537.3281,199.7969 537.9375,199.9531 538.4063,200.2031 C538.8906,200.4844 539.0625,200.7031 539.1563,201.1094 C539.2188,201.5156 539.25,201.6406 539.3906,201.7656 C539.5313,201.9063 539.7656,202.0156 539.9844,202.0156 C540.25,202.0156 540.5156,201.875 540.6875,201.6563 C540.7969,201.5 540.8281,201.3125 540.8281,200.8906 L540.8281,199.4688 C540.8281,199.0313 540.8125,198.9063 540.7188,198.75 C540.5625,198.4844 540.2813,198.3438 539.9844,198.3438 C539.6875,198.3438 539.4844,198.4375 539.2656,198.75 L539.0938,198.6719 Z " fill="#000000"/><text fill="#000000" font-family="sans-serif" font-size="12" lengthAdjust="spacingAndGlyphs" textLength="111" x="557.25" y="207.1543">ProposalController</text><line style="stroke:#A80036;stroke-width:1.5;" x1="413.5" x2="779.5" y1="219" y2="219"/><line style="stroke:#A80036;stroke-width:1.5;" x1="413.5" x2="779.5" y1="227" y2="227"/><ellipse cx="423.5" cy="238" fill="#84BE84" rx="3" ry="3" style="stroke:#038048;stroke-width:1.0;"/><text fill="#000000" font-family="sans-serif" font-size="11" lengthAdjust="spacingAndGlyphs" textLength="145" x="432.5" y="241.2104">ProposalController(Game)</text><ellipse cx="423.5" cy="250.8047" fill="#84BE84" rx="3" ry="3" style="stroke:#038048;stroke-width:1.0;"/><text fill="#000000" font-family="sans-serif" font-size="11" lengthAdjust="spacingAndGlyphs" textLength="251" x="432.5" y="254.0151">addProposedCombination(List&lt;Color&gt;): Error</text><ellipse cx="423.5" cy="263.6094" fill="#84BE84" rx="3" ry="3" style="stroke:#038048;stroke-width:1.0;"/><text fill="#000000" font-family="sans-serif" font-size="11" lengthAdjust="spacingAndGlyphs" textLength="160" x="432.5" y="266.8198">boolean isWinner(): boolean</text><ellipse cx="423.5" cy="276.4141" fill="#84BE84" rx="3" ry="3" style="stroke:#038048;stroke-width:1.0;"/><text fill="#000000" font-family="sans-serif" font-size="11" lengthAdjust="spacingAndGlyphs" textLength="108" x="432.5" y="279.6245">isLooser(): boolean</text><ellipse cx="423.5" cy="289.2188" fill="#84BE84" rx="3" ry="3" style="stroke:#038048;stroke-width:1.0;"/><text fill="#000000" font-family="sans-serif" font-size="11" lengthAdjust="spacingAndGlyphs" textLength="100" x="432.5" y="292.4292">getAttempts(): int</text><ellipse cx="423.5" cy="302.0234" fill="#84BE84" rx="3" ry="3" style="stroke:#038048;stroke-width:1.0;"/><text fill="#000000" font-family="sans-serif" font-size="11" lengthAdjust="spacingAndGlyphs" textLength="342" x="432.5" y="305.2339">getProposedCombination(int position): ProposedCombination</text><ellipse cx="423.5" cy="314.8281" fill="#84BE84" rx="3" ry="3" style="stroke:#038048;stroke-width:1.0;"/><text fill="#000000" font-family="sans-serif" font-size="11" lengthAdjust="spacingAndGlyphs" textLength="166" x="432.5" y="318.0386">getResult(int position): Result</text><!--MD5=[ba414607f34a8f1ff5e5377db4b3dfd8]
class usantatecla.mastermind.controllers.ResumeController--><rect codeLine="39" fill="#FEFECE" filter="url(#f1e90o81jewn8c)" height="73.6094" id="usantatecla.mastermind.controllers.ResumeController" style="stroke:#A80036;stroke-width:1.5;" width="171" x="816" y="219"/><ellipse cx="845.4" cy="235" fill="#ADD1B2" rx="11" ry="11" style="stroke:#A80036;stroke-width:1.0;"/><path d="M847.7438,230.6719 C846.8063,230.2344 846.2125,230.0938 845.3375,230.0938 C842.7125,230.0938 840.7125,232.1719 840.7125,234.8906 L840.7125,236.0156 C840.7125,238.5938 842.8219,240.4844 845.7125,240.4844 C846.9313,240.4844 848.0875,240.1875 848.8375,239.6406 C849.4156,239.2344 849.7438,238.7813 849.7438,238.3906 C849.7438,237.9375 849.3531,237.5469 848.8844,237.5469 C848.6656,237.5469 848.4625,237.625 848.275,237.8125 C847.8219,238.2969 847.8219,238.2969 847.6344,238.3906 C847.2125,238.6563 846.525,238.7813 845.7594,238.7813 C843.7125,238.7813 842.4156,237.6875 842.4156,235.9844 L842.4156,234.8906 C842.4156,233.1094 843.6656,231.7969 845.4,231.7969 C845.9781,231.7969 846.5875,231.9531 847.0563,232.2031 C847.5406,232.4844 847.7125,232.7031 847.8063,233.1094 C847.8688,233.5156 847.9,233.6406 848.0406,233.7656 C848.1813,233.9063 848.4156,234.0156 848.6344,234.0156 C848.9,234.0156 849.1656,233.875 849.3375,233.6563 C849.4469,233.5 849.4781,233.3125 849.4781,232.8906 L849.4781,231.4688 C849.4781,231.0313 849.4625,230.9063 849.3688,230.75 C849.2125,230.4844 848.9313,230.3438 848.6344,230.3438 C848.3375,230.3438 848.1344,230.4375 847.9156,230.75 L847.7438,230.6719 Z " fill="#000000"/><text fill="#000000" font-family="sans-serif" font-size="12" lengthAdjust="spacingAndGlyphs" textLength="107" x="862.6" y="239.1543">ResumeController</text><line style="stroke:#A80036;stroke-width:1.5;" x1="817" x2="986" y1="251" y2="251"/><line style="stroke:#A80036;stroke-width:1.5;" x1="817" x2="986" y1="259" y2="259"/><ellipse cx="827" cy="270" fill="#84BE84" rx="3" ry="3" style="stroke:#038048;stroke-width:1.0;"/><text fill="#000000" font-family="sans-serif" font-size="11" lengthAdjust="spacingAndGlyphs" textLength="145" x="836" y="273.2104">ResumeController(Game)</text><ellipse cx="827" cy="282.8047" fill="#84BE84" rx="3" ry="3" style="stroke:#038048;stroke-width:1.0;"/><text fill="#000000" font-family="sans-serif" font-size="11" lengthAdjust="spacingAndGlyphs" textLength="38" x="836" y="286.0151">reset()</text><!--MD5=[28491d17d5ee38c9c116625a5ffc259a]
class Combination--><rect codeLine="1" fill="#FEFECE" filter="url(#f1e90o81jewn8c)" height="48" id="Combination" style="stroke:#A80036;stroke-width:1.5;" width="306" x="1022.5" y="232"/><ellipse cx="1037.5" cy="248" fill="#A9DCDF" rx="11" ry="11" style="stroke:#A80036;stroke-width:1.0;"/><path d="M1039.5781,249.8125 L1039.9688,250.7969 L1039.5781,250.7969 C1039.125,250.7969 1039.0156,250.8125 1038.8594,250.9219 C1038.6094,251.0781 1038.4531,251.3594 1038.4531,251.6563 C1038.4531,251.9219 1038.5938,252.1719 1038.8125,252.3281 C1038.9531,252.4531 1039.1563,252.5 1039.5781,252.5 L1041.9375,252.5 C1042.2969,252.5 1042.5156,252.4688 1042.6563,252.375 C1042.9063,252.2344 1043.0625,251.9375 1043.0625,251.6563 C1043.0625,251.375 1042.9219,251.125 1042.7031,250.9688 C1042.5313,250.8281 1042.375,250.7969 1041.9063,250.7969 L1038.5156,242.5938 L1034.8438,242.5938 C1034.3906,242.5938 1034.2656,242.6094 1034.1094,242.7031 C1033.8594,242.875 1033.7031,243.1563 1033.7031,243.4375 C1033.7031,243.7188 1033.8438,243.9688 1034.0625,244.1406 C1034.2344,244.25 1034.4063,244.2813 1034.8438,244.2813 L1035.9219,244.2813 L1033.2813,250.7969 C1032.8594,250.7969 1032.7031,250.8125 1032.5469,250.9219 C1032.2969,251.0781 1032.1406,251.3594 1032.1406,251.6563 C1032.1406,252.2188 1032.5156,252.5 1033.2656,252.5 L1035.5313,252.5 C1035.8906,252.5 1036.1094,252.4688 1036.2344,252.375 C1036.5,252.2344 1036.6406,251.9375 1036.6406,251.6563 C1036.6406,251.375 1036.5156,251.125 1036.2969,250.9531 C1036.125,250.8281 1035.9844,250.7969 1035.5313,250.7969 L1035.1406,250.7969 L1035.5313,249.8125 L1039.5781,249.8125 Z M1038.875,248.1094 L1036.2031,248.1094 L1037.5469,244.8438 L1038.875,248.1094 Z " fill="#000000"/><text fill="#000000" font-family="sans-serif" font-size="12" font-style="italic" lengthAdjust="spacingAndGlyphs" textLength="274" x="1051.5" y="252.1543">usantatecla.mastermind.models.Combination</text><line style="stroke:#A80036;stroke-width:1.5;" x1="1023.5" x2="1327.5" y1="264" y2="264"/><line style="stroke:#A80036;stroke-width:1.5;" x1="1023.5" x2="1327.5" y1="272" y2="272"/><!--MD5=[b6dcce5e5ef3c84b0b048d11301373dd]
class Game--><rect codeLine="2" fill="#FEFECE" filter="url(#f1e90o81jewn8c)" height="48" id="Game" style="stroke:#A80036;stroke-width:1.5;" width="260" x="1363.5" y="232"/><ellipse cx="1378.5" cy="248" fill="#ADD1B2" rx="11" ry="11" style="stroke:#A80036;stroke-width:1.0;"/><path d="M1380.8438,243.6719 C1379.9063,243.2344 1379.3125,243.0938 1378.4375,243.0938 C1375.8125,243.0938 1373.8125,245.1719 1373.8125,247.8906 L1373.8125,249.0156 C1373.8125,251.5938 1375.9219,253.4844 1378.8125,253.4844 C1380.0313,253.4844 1381.1875,253.1875 1381.9375,252.6406 C1382.5156,252.2344 1382.8438,251.7813 1382.8438,251.3906 C1382.8438,250.9375 1382.4531,250.5469 1381.9844,250.5469 C1381.7656,250.5469 1381.5625,250.625 1381.375,250.8125 C1380.9219,251.2969 1380.9219,251.2969 1380.7344,251.3906 C1380.3125,251.6563 1379.625,251.7813 1378.8594,251.7813 C1376.8125,251.7813 1375.5156,250.6875 1375.5156,248.9844 L1375.5156,247.8906 C1375.5156,246.1094 1376.7656,244.7969 1378.5,244.7969 C1379.0781,244.7969 1379.6875,244.9531 1380.1563,245.2031 C1380.6406,245.4844 1380.8125,245.7031 1380.9063,246.1094 C1380.9688,246.5156 1381,246.6406 1381.1406,246.7656 C1381.2813,246.9063 1381.5156,247.0156 1381.7344,247.0156 C1382,247.0156 1382.2656,246.875 1382.4375,246.6563 C1382.5469,246.5 1382.5781,246.3125 1382.5781,245.8906 L1382.5781,244.4688 C1382.5781,244.0313 1382.5625,243.9063 1382.4688,243.75 C1382.3125,243.4844 1382.0313,243.3438 1381.7344,243.3438 C1381.4375,243.3438 1381.2344,243.4375 1381.0156,243.75 L1380.8438,243.6719 Z " fill="#000000"/><text fill="#000000" font-family="sans-serif" font-size="12" lengthAdjust="spacingAndGlyphs" textLength="228" x="1392.5" y="252.1543">usantatecla.mastermind.models.Game</text><line style="stroke:#A80036;stroke-width:1.5;" x1="1364.5" x2="1622.5" y1="264" y2="264"/><line style="stroke:#A80036;stroke-width:1.5;" x1="1364.5" x2="1622.5" y1="272" y2="272"/><!--MD5=[b8cfd8c4119a3b0a7a46bfc5fc780f85]
class Error--><rect codeLine="3" fill="#FEFECE" filter="url(#f1e90o81jewn8c)" height="48" id="Error" style="stroke:#A80036;stroke-width:1.5;" width="255" x="7" y="385"/><ellipse cx="22" cy="401" fill="#ADD1B2" rx="11" ry="11" style="stroke:#A80036;stroke-width:1.0;"/><path d="M24.3438,396.6719 C23.4063,396.2344 22.8125,396.0938 21.9375,396.0938 C19.3125,396.0938 17.3125,398.1719 17.3125,400.8906 L17.3125,402.0156 C17.3125,404.5938 19.4219,406.4844 22.3125,406.4844 C23.5313,406.4844 24.6875,406.1875 25.4375,405.6406 C26.0156,405.2344 26.3438,404.7813 26.3438,404.3906 C26.3438,403.9375 25.9531,403.5469 25.4844,403.5469 C25.2656,403.5469 25.0625,403.625 24.875,403.8125 C24.4219,404.2969 24.4219,404.2969 24.2344,404.3906 C23.8125,404.6563 23.125,404.7813 22.3594,404.7813 C20.3125,404.7813 19.0156,403.6875 19.0156,401.9844 L19.0156,400.8906 C19.0156,399.1094 20.2656,397.7969 22,397.7969 C22.5781,397.7969 23.1875,397.9531 23.6563,398.2031 C24.1406,398.4844 24.3125,398.7031 24.4063,399.1094 C24.4688,399.5156 24.5,399.6406 24.6406,399.7656 C24.7813,399.9063 25.0156,400.0156 25.2344,400.0156 C25.5,400.0156 25.7656,399.875 25.9375,399.6563 C26.0469,399.5 26.0781,399.3125 26.0781,398.8906 L26.0781,397.4688 C26.0781,397.0313 26.0625,396.9063 25.9688,396.75 C25.8125,396.4844 25.5313,396.3438 25.2344,396.3438 C24.9375,396.3438 24.7344,396.4375 24.5156,396.75 L24.3438,396.6719 Z " fill="#000000"/><text fill="#000000" font-family="sans-serif" font-size="12" lengthAdjust="spacingAndGlyphs" textLength="223" x="36" y="405.1543">usantatecla.mastermind.types.Error</text><line style="stroke:#A80036;stroke-width:1.5;" x1="8" x2="261" y1="417" y2="417"/><line style="stroke:#A80036;stroke-width:1.5;" x1="8" x2="261" y1="425" y2="425"/><!--MD5=[18eee71c88ab61f27581b8cbdd3ef5ee]
class Color--><rect codeLine="4" fill="#FEFECE" filter="url(#f1e90o81jewn8c)" height="48" id="Color" style="stroke:#A80036;stroke-width:1.5;" width="257" x="297" y="385"/><ellipse cx="312" cy="401" fill="#ADD1B2" rx="11" ry="11" style="stroke:#A80036;stroke-width:1.0;"/><path d="M314.3438,396.6719 C313.4063,396.2344 312.8125,396.0938 311.9375,396.0938 C309.3125,396.0938 307.3125,398.1719 307.3125,400.8906 L307.3125,402.0156 C307.3125,404.5938 309.4219,406.4844 312.3125,406.4844 C313.5313,406.4844 314.6875,406.1875 315.4375,405.6406 C316.0156,405.2344 316.3438,404.7813 316.3438,404.3906 C316.3438,403.9375 315.9531,403.5469 315.4844,403.5469 C315.2656,403.5469 315.0625,403.625 314.875,403.8125 C314.4219,404.2969 314.4219,404.2969 314.2344,404.3906 C313.8125,404.6563 313.125,404.7813 312.3594,404.7813 C310.3125,404.7813 309.0156,403.6875 309.0156,401.9844 L309.0156,400.8906 C309.0156,399.1094 310.2656,397.7969 312,397.7969 C312.5781,397.7969 313.1875,397.9531 313.6563,398.2031 C314.1406,398.4844 314.3125,398.7031 314.4063,399.1094 C314.4688,399.5156 314.5,399.6406 314.6406,399.7656 C314.7813,399.9063 315.0156,400.0156 315.2344,400.0156 C315.5,400.0156 315.7656,399.875 315.9375,399.6563 C316.0469,399.5 316.0781,399.3125 316.0781,398.8906 L316.0781,397.4688 C316.0781,397.0313 316.0625,396.9063 315.9688,396.75 C315.8125,396.4844 315.5313,396.3438 315.2344,396.3438 C314.9375,396.3438 314.7344,396.4375 314.5156,396.75 L314.3438,396.6719 Z " fill="#000000"/><text fill="#000000" font-family="sans-serif" font-size="12" lengthAdjust="spacingAndGlyphs" textLength="225" x="326" y="405.1543">usantatecla.mastermind.types.Color</text><line style="stroke:#A80036;stroke-width:1.5;" x1="298" x2="553" y1="417" y2="417"/><line style="stroke:#A80036;stroke-width:1.5;" x1="298" x2="553" y1="425" y2="425"/><!--MD5=[cf489b19c51ee25e76ddca093e62e620]
class ProposedCombination--><rect codeLine="5" fill="#FEFECE" filter="url(#f1e90o81jewn8c)" height="48" id="ProposedCombination" style="stroke:#A80036;stroke-width:1.5;" width="357" x="589" y="385"/><ellipse cx="604" cy="401" fill="#ADD1B2" rx="11" ry="11" style="stroke:#A80036;stroke-width:1.0;"/><path d="M606.3438,396.6719 C605.4063,396.2344 604.8125,396.0938 603.9375,396.0938 C601.3125,396.0938 599.3125,398.1719 599.3125,400.8906 L599.3125,402.0156 C599.3125,404.5938 601.4219,406.4844 604.3125,406.4844 C605.5313,406.4844 606.6875,406.1875 607.4375,405.6406 C608.0156,405.2344 608.3438,404.7813 608.3438,404.3906 C608.3438,403.9375 607.9531,403.5469 607.4844,403.5469 C607.2656,403.5469 607.0625,403.625 606.875,403.8125 C606.4219,404.2969 606.4219,404.2969 606.2344,404.3906 C605.8125,404.6563 605.125,404.7813 604.3594,404.7813 C602.3125,404.7813 601.0156,403.6875 601.0156,401.9844 L601.0156,400.8906 C601.0156,399.1094 602.2656,397.7969 604,397.7969 C604.5781,397.7969 605.1875,397.9531 605.6563,398.2031 C606.1406,398.4844 606.3125,398.7031 606.4063,399.1094 C606.4688,399.5156 606.5,399.6406 606.6406,399.7656 C606.7813,399.9063 607.0156,400.0156 607.2344,400.0156 C607.5,400.0156 607.7656,399.875 607.9375,399.6563 C608.0469,399.5 608.0781,399.3125 608.0781,398.8906 L608.0781,397.4688 C608.0781,397.0313 608.0625,396.9063 607.9688,396.75 C607.8125,396.4844 607.5313,396.3438 607.2344,396.3438 C606.9375,396.3438 606.7344,396.4375 606.5156,396.75 L606.3438,396.6719 Z " fill="#000000"/><text fill="#000000" font-family="sans-serif" font-size="12" lengthAdjust="spacingAndGlyphs" textLength="325" x="618" y="405.1543">usantatecla.mastermind.models.ProposedCombination</text><line style="stroke:#A80036;stroke-width:1.5;" x1="590" x2="945" y1="417" y2="417"/><line style="stroke:#A80036;stroke-width:1.5;" x1="590" x2="945" y1="425" y2="425"/><!--MD5=[2741598bdf59a7d7e0d5c97658fd3022]
class Result--><rect codeLine="6" fill="#FEFECE" filter="url(#f1e90o81jewn8c)" height="48" id="Result" style="stroke:#A80036;stroke-width:1.5;" width="261" x="981" y="385"/><ellipse cx="996" cy="401" fill="#ADD1B2" rx="11" ry="11" style="stroke:#A80036;stroke-width:1.0;"/><path d="M998.3438,396.6719 C997.4063,396.2344 996.8125,396.0938 995.9375,396.0938 C993.3125,396.0938 991.3125,398.1719 991.3125,400.8906 L991.3125,402.0156 C991.3125,404.5938 993.4219,406.4844 996.3125,406.4844 C997.5313,406.4844 998.6875,406.1875 999.4375,405.6406 C1000.0156,405.2344 1000.3438,404.7813 1000.3438,404.3906 C1000.3438,403.9375 999.9531,403.5469 999.4844,403.5469 C999.2656,403.5469 999.0625,403.625 998.875,403.8125 C998.4219,404.2969 998.4219,404.2969 998.2344,404.3906 C997.8125,404.6563 997.125,404.7813 996.3594,404.7813 C994.3125,404.7813 993.0156,403.6875 993.0156,401.9844 L993.0156,400.8906 C993.0156,399.1094 994.2656,397.7969 996,397.7969 C996.5781,397.7969 997.1875,397.9531 997.6563,398.2031 C998.1406,398.4844 998.3125,398.7031 998.4063,399.1094 C998.4688,399.5156 998.5,399.6406 998.6406,399.7656 C998.7813,399.9063 999.0156,400.0156 999.2344,400.0156 C999.5,400.0156 999.7656,399.875 999.9375,399.6563 C1000.0469,399.5 1000.0781,399.3125 1000.0781,398.8906 L1000.0781,397.4688 C1000.0781,397.0313 1000.0625,396.9063 999.9688,396.75 C999.8125,396.4844 999.5313,396.3438 999.2344,396.3438 C998.9375,396.3438 998.7344,396.4375 998.5156,396.75 L998.3438,396.6719 Z " fill="#000000"/><text fill="#000000" font-family="sans-serif" font-size="12" lengthAdjust="spacingAndGlyphs" textLength="229" x="1010" y="405.1543">usantatecla.mastermind.models.Result</text><line style="stroke:#A80036;stroke-width:1.5;" x1="982" x2="1241" y1="417" y2="417"/><line style="stroke:#A80036;stroke-width:1.5;" x1="982" x2="1241" y1="425" y2="425"/><!--MD5=[b1534f62db7bd0c312bb47cb18cac355]
link usantatecla.mastermind.controllers.Controller to Game--><path codeLine="14" d="M975.6349,97.1168 C975.6349,97.1168 1219.74,143.682 1346.5,187 C1377.54,197.606 1410.8,212.663 1437.83,225.914 " fill="none" id="usantatecla.mastermind.controllers.Controller-Game" style="stroke:#A80036;stroke-width:1.0;"/><polygon fill="#A80036" points="1449.78,231.852,1443.5007,224.2645,1445.3025,229.6267,1439.9403,231.4285,1449.78,231.852" style="stroke:#A80036;stroke-width:1.0;"/><line style="stroke:#A80036;stroke-width:1.0;" x1="1445.3025" x2="1438.135" y1="229.6267" y2="226.0655"/><polygon fill="#A80036" points="963.813,95.057,969.0374,100.0275,975.6349,97.1168,970.4105,92.1462,963.813,95.057" style="stroke:#A80036;stroke-width:1.0;"/><!--MD5=[bcb04731f9fe2ebc3bb43e51b61da32e]
link usantatecla.mastermind.controllers.Controller to Combination--><path codeLine="15" d="M963.675,123.576 C1015.83,155.937 1088.87,201.249 1134.12,229.329 " fill="none" id="usantatecla.mastermind.controllers.Controller-to-Combination" style="stroke:#A80036;stroke-width:1.0;stroke-dasharray:7.0,7.0;"/><polygon fill="#A80036" points="1138.42,231.992,1132.8895,223.8425,1134.174,229.3516,1128.6649,230.6361,1138.42,231.992" style="stroke:#A80036;stroke-width:1.0;"/><!--MD5=[c885998b8df824bd1b8bf3ae6c5e9a62]
reverse link usantatecla.mastermind.controllers.Controller to usantatecla.mastermind.controllers.StartController--><path codeLine="20" d="M819.042,90.646 C715.917,100.127 535.748,124.778 394.5,187 C372.901,196.515 351.455,211.706 334.609,225.318 " fill="none" id="usantatecla.mastermind.controllers.Controller-backto-usantatecla.mastermind.controllers.StartController" style="stroke:#A80036;stroke-width:1.0;"/><polygon fill="none" points="818.691,83.65,839.221,88.895,819.901,97.598,818.691,83.65" style="stroke:#A80036;stroke-width:1.0;"/><!--MD5=[355b9902740da4b2ec85e8089918fd93]
reverse link usantatecla.mastermind.controllers.Controller to usantatecla.mastermind.controllers.ProposalController--><path codeLine="33" d="M821.574,129.549 C790.129,147.075 753.316,167.594 718.677,186.901 " fill="none" id="usantatecla.mastermind.controllers.Controller-backto-usantatecla.mastermind.controllers.ProposalController" style="stroke:#A80036;stroke-width:1.0;"/><polygon fill="none" points="818.533,123.23,839.411,119.607,825.349,135.459,818.533,123.23" style="stroke:#A80036;stroke-width:1.0;"/><!--MD5=[aec0234761dc3837780669c056a8373c]
link usantatecla.mastermind.controllers.ProposalController to Error--><path codeLine="34" d="M456.711,325.092 C436.117,333.8228 414.948,342.1041 394.5,349 C353.091,362.9645 306.862,374.6536 265.001,383.8462 " fill="none" id="usantatecla.mastermind.controllers.ProposalController-to-Error" style="stroke:#A80036;stroke-width:1.0;stroke-dasharray:7.0,7.0;"/><polygon fill="#A80036" points="259.918,384.9548,269.5638,386.9446,264.8031,383.8891,267.8586,379.1284,259.918,384.9548" style="stroke:#A80036;stroke-width:1.0;"/><!--MD5=[87e0934b81fc2a23f4913978547fcb00]
link usantatecla.mastermind.controllers.ProposalController to ProposedCombination--><path codeLine="35" d="M673.995,325.431 C696.505,345.3087 719.762,365.8456 737.451,381.4654 " fill="none" id="usantatecla.mastermind.controllers.ProposalController-to-ProposedCombination" style="stroke:#A80036;stroke-width:1.0;stroke-dasharray:7.0,7.0;"/><polygon fill="#A80036" points="741.366,384.9225,737.2661,375.9675,737.6176,381.6135,731.9717,381.9649,741.366,384.9225" style="stroke:#A80036;stroke-width:1.0;"/><!--MD5=[bb70a159ed99f372a306886c4b969c7c]
link usantatecla.mastermind.controllers.ProposalController to Result--><path codeLine="36" d="M734.406,325.089 C755.552,333.9796 777.377,342.3072 798.5,349 C831.511,359.4595 907.138,373.8064 975.782,385.7335 " fill="none" id="usantatecla.mastermind.controllers.ProposalController-to-Result" style="stroke:#A80036;stroke-width:1.0;stroke-dasharray:7.0,7.0;"/><polygon fill="#A80036" points="980.712,386.588,972.5277,381.1091,975.7855,385.7337,971.1609,388.9915,980.712,386.588" style="stroke:#A80036;stroke-width:1.0;"/><!--MD5=[69852a3216d5517651367a7065e7f1c9]
link usantatecla.mastermind.controllers.ProposalController to Color--><path codeLine="37" d="M519.005,325.431 C496.495,345.3087 473.238,365.8456 455.549,381.4654 " fill="none" id="usantatecla.mastermind.controllers.ProposalController-to-Color" style="stroke:#A80036;stroke-width:1.0;stroke-dasharray:7.0,7.0;"/><polygon fill="#A80036" points="451.634,384.9225,461.0283,381.9649,455.3824,381.6135,455.7339,375.9675,451.634,384.9225" style="stroke:#A80036;stroke-width:1.0;"/><!--MD5=[933c3a87fb1e2f64e4c2436935a9c1c3]
reverse link usantatecla.mastermind.controllers.Controller to usantatecla.mastermind.controllers.ResumeController--><path codeLine="43" d="M901.5,147.308 C901.5,171.406 901.5,198.129 901.5,218.926 " fill="none" id="usantatecla.mastermind.controllers.Controller-backto-usantatecla.mastermind.controllers.ResumeController" style="stroke:#A80036;stroke-width:1.0;"/><polygon fill="none" points="894.5,147.023,901.5,127.022,908.5,147.022,894.5,147.023" style="stroke:#A80036;stroke-width:1.0;"/><!--MD5=[9522156299e3d0aa5ef6dfeb7192c78e]
@startuml
abstract class Combination as "usantatecla.mastermind.models.Combination"
class Game as "usantatecla.mastermind.models.Game"
class Error as "usantatecla.mastermind.types.Error"
class Color as "usantatecla.mastermind.types.Color"
class ProposedCombination as "usantatecla.mastermind.models.ProposedCombination"
class Result as "usantatecla.mastermind.models.Result"

abstract class usantatecla.mastermind.controllers.Controller {
	#game: Game

	#Controller(Game)
	+getWidth(): int
}
usantatecla.mastermind.controllers.Controller *-down-> Game
usantatecla.mastermind.controllers.Controller .down.> Combination

class usantatecla.mastermind.controllers.StartController {
	+StartController(Game)
}
usantatecla.mastermind.controllers.Controller <|-down- usantatecla.mastermind.controllers.StartController

class usantatecla.mastermind.controllers.ProposalController {

    +ProposalController(Game)
    +addProposedCombination(List<Color>): Error
    +boolean isWinner(): boolean
    +isLooser(): boolean
    +getAttempts(): int
    +getProposedCombination(int position): ProposedCombination
    +getResult(int position): Result

}
usantatecla.mastermind.controllers.Controller <|-down- usantatecla.mastermind.controllers.ProposalController
usantatecla.mastermind.controllers.ProposalController .down.> Error
usantatecla.mastermind.controllers.ProposalController .down.> ProposedCombination
usantatecla.mastermind.controllers.ProposalController .down.> Result
usantatecla.mastermind.controllers.ProposalController .down.> Color

class usantatecla.mastermind.controllers.ResumeController {
	+ResumeController(Game)
	+reset()
}
usantatecla.mastermind.controllers.Controller <|-down- usantatecla.mastermind.controllers.ResumeController
@enduml

PlantUML version 1.2020.21beta3(Unknown compile time)
(GPL source distribution)
Java Runtime: Java(TM) SE Runtime Environment
JVM: Java HotSpot(TM) 64-Bit Server VM
Default Encoding: UTF-8
Language: en
Country: US
--></g></svg>