<?xml version="1.0" encoding="UTF-8" standalone="no"?><svg xmlns="http://www.w3.org/2000/svg" xmlns:xlink="http://www.w3.org/1999/xlink" contentScriptType="application/ecmascript" contentStyleType="text/css" height="402px" preserveAspectRatio="none" style="width:2040px;height:402px;" version="1.1" viewBox="0 0 2040 402" width="2040px" zoomAndPan="magnify"><defs><filter height="300%" id="f1pc1cbj8caucf" width="300%" x="-1" y="-1"><feGaussianBlur result="blurOut" stdDeviation="2.0"/><feColorMatrix in="blurOut" result="blurOut2" type="matrix" values="0 0 0 0 0 0 0 0 0 0 0 0 0 0 0 0 0 0 .4 0"/><feOffset dx="4.0" dy="4.0" in="blurOut2" result="blurOut3"/><feBlend in="SourceGraphic" in2="blurOut3" mode="normal"/></filter></defs><g><!--MD5=[9be0839337cfdab5d118a2e29cf0a8c4]
cluster usantatecla.mastermind--><polygon fill="#FFFFFF" filter="url(#f1pc1cbj8caucf)" points="16,6,223,6,230,28.2969,1047,28.2969,1047,277,16,277,16,6" style="stroke:#000000;stroke-width:1.5;"/><line style="stroke:#000000;stroke-width:1.5;" x1="16" x2="230" y1="28.2969" y2="28.2969"/><text fill="#000000" font-family="sans-serif" font-size="14" font-weight="bold" lengthAdjust="spacingAndGlyphs" textLength="201" x="20" y="20.9951">usantatecla.mastermind</text><!--MD5=[904099970a9cea29a476bd38c8d887ee]
class usantatecla.mastermind.Mastermind--><rect codeLine="9" fill="#FEFECE" filter="url(#f1pc1cbj8caucf)" height="86.4141" id="usantatecla.mastermind.Mastermind" style="stroke:#A80036;stroke-width:1.5;" width="438" x="593" y="41"/><ellipse cx="772.75" cy="57" fill="#ADD1B2" rx="11" ry="11" style="stroke:#A80036;stroke-width:1.0;"/><path d="M775.0938,52.6719 C774.1563,52.2344 773.5625,52.0938 772.6875,52.0938 C770.0625,52.0938 768.0625,54.1719 768.0625,56.8906 L768.0625,58.0156 C768.0625,60.5938 770.1719,62.4844 773.0625,62.4844 C774.2813,62.4844 775.4375,62.1875 776.1875,61.6406 C776.7656,61.2344 777.0938,60.7813 777.0938,60.3906 C777.0938,59.9375 776.7031,59.5469 776.2344,59.5469 C776.0156,59.5469 775.8125,59.625 775.625,59.8125 C775.1719,60.2969 775.1719,60.2969 774.9844,60.3906 C774.5625,60.6563 773.875,60.7813 773.1094,60.7813 C771.0625,60.7813 769.7656,59.6875 769.7656,57.9844 L769.7656,56.8906 C769.7656,55.1094 771.0156,53.7969 772.75,53.7969 C773.3281,53.7969 773.9375,53.9531 774.4063,54.2031 C774.8906,54.4844 775.0625,54.7031 775.1563,55.1094 C775.2188,55.5156 775.25,55.6406 775.3906,55.7656 C775.5313,55.9063 775.7656,56.0156 775.9844,56.0156 C776.25,56.0156 776.5156,55.875 776.6875,55.6563 C776.7969,55.5 776.8281,55.3125 776.8281,54.8906 L776.8281,53.4688 C776.8281,53.0313 776.8125,52.9063 776.7188,52.75 C776.5625,52.4844 776.2813,52.3438 775.9844,52.3438 C775.6875,52.3438 775.4844,52.4375 775.2656,52.75 L775.0938,52.6719 Z " fill="#000000"/><text fill="#000000" font-family="sans-serif" font-size="12" lengthAdjust="spacingAndGlyphs" textLength="70" x="793.25" y="61.1543">Mastermind</text><line style="stroke:#A80036;stroke-width:1.5;" x1="594" x2="1030" y1="73" y2="73"/><line style="stroke:#A80036;stroke-width:1.5;" x1="594" x2="1030" y1="81" y2="81"/><polygon fill="#FFFF44" points="604,87,608,91,604,95,600,91" style="stroke:#B38D22;stroke-width:1.0;"/><text fill="#000000" font-family="sans-serif" font-size="11" lengthAdjust="spacingAndGlyphs" textLength="74" x="613" y="95.2104">Mastermind()</text><polygon fill="#FFFF44" points="604,99.8047,608,103.8047,604,107.8047,600,103.8047" style="stroke:#B38D22;stroke-width:1.0;"/><text fill="#000000" font-family="sans-serif" font-size="11" font-style="italic" lengthAdjust="spacingAndGlyphs" textLength="412" x="613" y="108.0151">createView(StartController, ProposalController, ResumeController): View</text><polygon fill="#FFFF44" points="604,112.6094,608,116.6094,604,120.6094,600,116.6094" style="stroke:#B38D22;stroke-width:1.0;"/><text fill="#000000" font-family="sans-serif" font-size="11" lengthAdjust="spacingAndGlyphs" textLength="32" x="613" y="120.8198">play()</text><!--MD5=[315b8ca9da34f9ebf61c511bec4164b0]
class usantatecla.mastermind.ConsoleMastermind--><rect codeLine="20" fill="#FEFECE" filter="url(#f1pc1cbj8caucf)" height="73.6094" id="usantatecla.mastermind.ConsoleMastermind" style="stroke:#A80036;stroke-width:1.5;" width="480" x="32" y="187"/><ellipse cx="208.25" cy="203" fill="#ADD1B2" rx="11" ry="11" style="stroke:#A80036;stroke-width:1.0;"/><path d="M210.5938,198.6719 C209.6563,198.2344 209.0625,198.0938 208.1875,198.0938 C205.5625,198.0938 203.5625,200.1719 203.5625,202.8906 L203.5625,204.0156 C203.5625,206.5938 205.6719,208.4844 208.5625,208.4844 C209.7813,208.4844 210.9375,208.1875 211.6875,207.6406 C212.2656,207.2344 212.5938,206.7813 212.5938,206.3906 C212.5938,205.9375 212.2031,205.5469 211.7344,205.5469 C211.5156,205.5469 211.3125,205.625 211.125,205.8125 C210.6719,206.2969 210.6719,206.2969 210.4844,206.3906 C210.0625,206.6563 209.375,206.7813 208.6094,206.7813 C206.5625,206.7813 205.2656,205.6875 205.2656,203.9844 L205.2656,202.8906 C205.2656,201.1094 206.5156,199.7969 208.25,199.7969 C208.8281,199.7969 209.4375,199.9531 209.9063,200.2031 C210.3906,200.4844 210.5625,200.7031 210.6563,201.1094 C210.7188,201.5156 210.75,201.6406 210.8906,201.7656 C211.0313,201.9063 211.2656,202.0156 211.4844,202.0156 C211.75,202.0156 212.0156,201.875 212.1875,201.6563 C212.2969,201.5 212.3281,201.3125 212.3281,200.8906 L212.3281,199.4688 C212.3281,199.0313 212.3125,198.9063 212.2188,198.75 C212.0625,198.4844 211.7813,198.3438 211.4844,198.3438 C211.1875,198.3438 210.9844,198.4375 210.7656,198.75 L210.5938,198.6719 Z " fill="#000000"/><text fill="#000000" font-family="sans-serif" font-size="12" lengthAdjust="spacingAndGlyphs" textLength="119" x="228.75" y="207.1543">ConsoleMastermind</text><line style="stroke:#A80036;stroke-width:1.5;" x1="33" x2="511" y1="219" y2="219"/><line style="stroke:#A80036;stroke-width:1.5;" x1="33" x2="511" y1="227" y2="227"/><polygon fill="#FFFF44" points="43,233,47,237,43,241,39,237" style="stroke:#B38D22;stroke-width:1.0;"/><text fill="#000000" font-family="sans-serif" font-size="11" lengthAdjust="spacingAndGlyphs" textLength="454" x="52" y="241.2104">createView(StartController, ProposalController, ResumeController): ConsoleView</text><ellipse cx="43" cy="250.8047" fill="#84BE84" rx="3" ry="3" style="stroke:#038048;stroke-width:1.0;"/><text fill="#000000" font-family="sans-serif" font-size="11" lengthAdjust="spacingAndGlyphs" text-decoration="underline" textLength="77" x="52" y="254.0151">main(String[])</text><!--MD5=[e3ccb0142e457ddb33bd230b9167ec6f]
class usantatecla.mastermind.GraphicsMastermind--><rect codeLine="27" fill="#FEFECE" filter="url(#f1pc1cbj8caucf)" height="73.6094" id="usantatecla.mastermind.GraphicsMastermind" style="stroke:#A80036;stroke-width:1.5;" width="483" x="547.5" y="187"/><ellipse cx="723.25" cy="203" fill="#ADD1B2" rx="11" ry="11" style="stroke:#A80036;stroke-width:1.0;"/><path d="M725.5938,198.6719 C724.6563,198.2344 724.0625,198.0938 723.1875,198.0938 C720.5625,198.0938 718.5625,200.1719 718.5625,202.8906 L718.5625,204.0156 C718.5625,206.5938 720.6719,208.4844 723.5625,208.4844 C724.7813,208.4844 725.9375,208.1875 726.6875,207.6406 C727.2656,207.2344 727.5938,206.7813 727.5938,206.3906 C727.5938,205.9375 727.2031,205.5469 726.7344,205.5469 C726.5156,205.5469 726.3125,205.625 726.125,205.8125 C725.6719,206.2969 725.6719,206.2969 725.4844,206.3906 C725.0625,206.6563 724.375,206.7813 723.6094,206.7813 C721.5625,206.7813 720.2656,205.6875 720.2656,203.9844 L720.2656,202.8906 C720.2656,201.1094 721.5156,199.7969 723.25,199.7969 C723.8281,199.7969 724.4375,199.9531 724.9063,200.2031 C725.3906,200.4844 725.5625,200.7031 725.6563,201.1094 C725.7188,201.5156 725.75,201.6406 725.8906,201.7656 C726.0313,201.9063 726.2656,202.0156 726.4844,202.0156 C726.75,202.0156 727.0156,201.875 727.1875,201.6563 C727.2969,201.5 727.3281,201.3125 727.3281,200.8906 L727.3281,199.4688 C727.3281,199.0313 727.3125,198.9063 727.2188,198.75 C727.0625,198.4844 726.7813,198.3438 726.4844,198.3438 C726.1875,198.3438 725.9844,198.4375 725.7656,198.75 L725.5938,198.6719 Z " fill="#000000"/><text fill="#000000" font-family="sans-serif" font-size="12" lengthAdjust="spacingAndGlyphs" textLength="123" x="743.75" y="207.1543">GraphicsMastermind</text><line style="stroke:#A80036;stroke-width:1.5;" x1="548.5" x2="1029.5" y1="219" y2="219"/><line style="stroke:#A80036;stroke-width:1.5;" x1="548.5" x2="1029.5" y1="227" y2="227"/><polygon fill="#FFFF44" points="558.5,233,562.5,237,558.5,241,554.5,237" style="stroke:#B38D22;stroke-width:1.0;"/><text fill="#000000" font-family="sans-serif" font-size="11" lengthAdjust="spacingAndGlyphs" textLength="457" x="567.5" y="241.2104">createView(StartController, ProposalController, ResumeController): GraphicsView</text><ellipse cx="558.5" cy="250.8047" fill="#84BE84" rx="3" ry="3" style="stroke:#038048;stroke-width:1.0;"/><text fill="#000000" font-family="sans-serif" font-size="11" lengthAdjust="spacingAndGlyphs" text-decoration="underline" textLength="77" x="567.5" y="254.0151">main(String[])</text><!--MD5=[c045e12321b83266d36d22b9096c24ea]
class View--><rect codeLine="1" fill="#FEFECE" filter="url(#f1pc1cbj8caucf)" height="67.9063" id="View" style="stroke:#A80036;stroke-width:1.5;" width="144" x="1066" y="190"/><ellipse cx="1081" cy="215.9531" fill="#ADD1B2" rx="11" ry="11" style="stroke:#A80036;stroke-width:1.0;"/><path d="M1083.3438,211.625 C1082.4063,211.1875 1081.8125,211.0469 1080.9375,211.0469 C1078.3125,211.0469 1076.3125,213.125 1076.3125,215.8438 L1076.3125,216.9688 C1076.3125,219.5469 1078.4219,221.4375 1081.3125,221.4375 C1082.5313,221.4375 1083.6875,221.1406 1084.4375,220.5938 C1085.0156,220.1875 1085.3438,219.7344 1085.3438,219.3438 C1085.3438,218.8906 1084.9531,218.5 1084.4844,218.5 C1084.2656,218.5 1084.0625,218.5781 1083.875,218.7656 C1083.4219,219.25 1083.4219,219.25 1083.2344,219.3438 C1082.8125,219.6094 1082.125,219.7344 1081.3594,219.7344 C1079.3125,219.7344 1078.0156,218.6406 1078.0156,216.9375 L1078.0156,215.8438 C1078.0156,214.0625 1079.2656,212.75 1081,212.75 C1081.5781,212.75 1082.1875,212.9063 1082.6563,213.1563 C1083.1406,213.4375 1083.3125,213.6563 1083.4063,214.0625 C1083.4688,214.4688 1083.5,214.5938 1083.6406,214.7188 C1083.7813,214.8594 1084.0156,214.9688 1084.2344,214.9688 C1084.5,214.9688 1084.7656,214.8281 1084.9375,214.6094 C1085.0469,214.4531 1085.0781,214.2656 1085.0781,213.8438 L1085.0781,212.4219 C1085.0781,211.9844 1085.0625,211.8594 1084.9688,211.7031 C1084.8125,211.4375 1084.5313,211.2969 1084.2344,211.2969 C1083.9375,211.2969 1083.7344,211.3906 1083.5156,211.7031 L1083.3438,211.625 Z " fill="#000000"/><text fill="#000000" font-family="sans-serif" font-size="12" lengthAdjust="spacingAndGlyphs" textLength="71" x="1115.5" y="206.1387">usantatecla.</text><text fill="#000000" font-family="sans-serif" font-size="12" lengthAdjust="spacingAndGlyphs" textLength="112" x="1095" y="220.1074">mastermind.views.</text><text fill="#000000" font-family="sans-serif" font-size="12" lengthAdjust="spacingAndGlyphs" textLength="29" x="1136.5" y="234.0762">View</text><line style="stroke:#A80036;stroke-width:1.5;" x1="1067" x2="1209" y1="241.9063" y2="241.9063"/><line style="stroke:#A80036;stroke-width:1.5;" x1="1067" x2="1209" y1="249.9063" y2="249.9063"/><!--MD5=[b6dcce5e5ef3c84b0b048d11301373dd]
class Game--><rect codeLine="2" fill="#FEFECE" filter="url(#f1pc1cbj8caucf)" height="67.9063" id="Game" style="stroke:#A80036;stroke-width:1.5;" width="154" x="1245" y="190"/><ellipse cx="1260" cy="215.9531" fill="#ADD1B2" rx="11" ry="11" style="stroke:#A80036;stroke-width:1.0;"/><path d="M1262.3438,211.625 C1261.4063,211.1875 1260.8125,211.0469 1259.9375,211.0469 C1257.3125,211.0469 1255.3125,213.125 1255.3125,215.8438 L1255.3125,216.9688 C1255.3125,219.5469 1257.4219,221.4375 1260.3125,221.4375 C1261.5313,221.4375 1262.6875,221.1406 1263.4375,220.5938 C1264.0156,220.1875 1264.3438,219.7344 1264.3438,219.3438 C1264.3438,218.8906 1263.9531,218.5 1263.4844,218.5 C1263.2656,218.5 1263.0625,218.5781 1262.875,218.7656 C1262.4219,219.25 1262.4219,219.25 1262.2344,219.3438 C1261.8125,219.6094 1261.125,219.7344 1260.3594,219.7344 C1258.3125,219.7344 1257.0156,218.6406 1257.0156,216.9375 L1257.0156,215.8438 C1257.0156,214.0625 1258.2656,212.75 1260,212.75 C1260.5781,212.75 1261.1875,212.9063 1261.6563,213.1563 C1262.1406,213.4375 1262.3125,213.6563 1262.4063,214.0625 C1262.4688,214.4688 1262.5,214.5938 1262.6406,214.7188 C1262.7813,214.8594 1263.0156,214.9688 1263.2344,214.9688 C1263.5,214.9688 1263.7656,214.8281 1263.9375,214.6094 C1264.0469,214.4531 1264.0781,214.2656 1264.0781,213.8438 L1264.0781,212.4219 C1264.0781,211.9844 1264.0625,211.8594 1263.9688,211.7031 C1263.8125,211.4375 1263.5313,211.2969 1263.2344,211.2969 C1262.9375,211.2969 1262.7344,211.3906 1262.5156,211.7031 L1262.3438,211.625 Z " fill="#000000"/><text fill="#000000" font-family="sans-serif" font-size="12" lengthAdjust="spacingAndGlyphs" textLength="71" x="1299.5" y="206.1387">usantatecla.</text><text fill="#000000" font-family="sans-serif" font-size="12" lengthAdjust="spacingAndGlyphs" textLength="122" x="1274" y="220.1074">mastermind.models.</text><text fill="#000000" font-family="sans-serif" font-size="12" lengthAdjust="spacingAndGlyphs" textLength="35" x="1317.5" y="234.0762">Game</text><line style="stroke:#A80036;stroke-width:1.5;" x1="1246" x2="1398" y1="241.9063" y2="241.9063"/><line style="stroke:#A80036;stroke-width:1.5;" x1="1246" x2="1398" y1="249.9063" y2="249.9063"/><!--MD5=[51d729737bd84a4c43136dd336c2eea1]
class ConsoleView--><rect codeLine="3" fill="#FEFECE" filter="url(#f1pc1cbj8caucf)" height="67.9063" id="ConsoleView" style="stroke:#A80036;stroke-width:1.5;" width="161" x="191.5" y="321"/><ellipse cx="206.5" cy="346.9531" fill="#ADD1B2" rx="11" ry="11" style="stroke:#A80036;stroke-width:1.0;"/><path d="M208.8438,342.625 C207.9063,342.1875 207.3125,342.0469 206.4375,342.0469 C203.8125,342.0469 201.8125,344.125 201.8125,346.8438 L201.8125,347.9688 C201.8125,350.5469 203.9219,352.4375 206.8125,352.4375 C208.0313,352.4375 209.1875,352.1406 209.9375,351.5938 C210.5156,351.1875 210.8438,350.7344 210.8438,350.3438 C210.8438,349.8906 210.4531,349.5 209.9844,349.5 C209.7656,349.5 209.5625,349.5781 209.375,349.7656 C208.9219,350.25 208.9219,350.25 208.7344,350.3438 C208.3125,350.6094 207.625,350.7344 206.8594,350.7344 C204.8125,350.7344 203.5156,349.6406 203.5156,347.9375 L203.5156,346.8438 C203.5156,345.0625 204.7656,343.75 206.5,343.75 C207.0781,343.75 207.6875,343.9063 208.1563,344.1563 C208.6406,344.4375 208.8125,344.6563 208.9063,345.0625 C208.9688,345.4688 209,345.5938 209.1406,345.7188 C209.2813,345.8594 209.5156,345.9688 209.7344,345.9688 C210,345.9688 210.2656,345.8281 210.4375,345.6094 C210.5469,345.4531 210.5781,345.2656 210.5781,344.8438 L210.5781,343.4219 C210.5781,342.9844 210.5625,342.8594 210.4688,342.7031 C210.3125,342.4375 210.0313,342.2969 209.7344,342.2969 C209.4375,342.2969 209.2344,342.3906 209.0156,342.7031 L208.8438,342.625 Z " fill="#000000"/><text fill="#000000" font-family="sans-serif" font-size="12" lengthAdjust="spacingAndGlyphs" textLength="71" x="249.5" y="337.1387">usantatecla.</text><text fill="#000000" font-family="sans-serif" font-size="12" lengthAdjust="spacingAndGlyphs" textLength="112" x="229" y="351.1074">mastermind.views.</text><text fill="#000000" font-family="sans-serif" font-size="12" lengthAdjust="spacingAndGlyphs" textLength="129" x="220.5" y="365.0762">console.ConsoleView</text><line style="stroke:#A80036;stroke-width:1.5;" x1="192.5" x2="351.5" y1="372.9063" y2="372.9063"/><line style="stroke:#A80036;stroke-width:1.5;" x1="192.5" x2="351.5" y1="380.9063" y2="380.9063"/><!--MD5=[10250df365dc999637be629d910c1f35]
class GraphicsView--><rect codeLine="4" fill="#FEFECE" filter="url(#f1pc1cbj8caucf)" height="67.9063" id="GraphicsView" style="stroke:#A80036;stroke-width:1.5;" width="165" x="706.5" y="321"/><ellipse cx="721.5" cy="346.9531" fill="#ADD1B2" rx="11" ry="11" style="stroke:#A80036;stroke-width:1.0;"/><path d="M723.8438,342.625 C722.9063,342.1875 722.3125,342.0469 721.4375,342.0469 C718.8125,342.0469 716.8125,344.125 716.8125,346.8438 L716.8125,347.9688 C716.8125,350.5469 718.9219,352.4375 721.8125,352.4375 C723.0313,352.4375 724.1875,352.1406 724.9375,351.5938 C725.5156,351.1875 725.8438,350.7344 725.8438,350.3438 C725.8438,349.8906 725.4531,349.5 724.9844,349.5 C724.7656,349.5 724.5625,349.5781 724.375,349.7656 C723.9219,350.25 723.9219,350.25 723.7344,350.3438 C723.3125,350.6094 722.625,350.7344 721.8594,350.7344 C719.8125,350.7344 718.5156,349.6406 718.5156,347.9375 L718.5156,346.8438 C718.5156,345.0625 719.7656,343.75 721.5,343.75 C722.0781,343.75 722.6875,343.9063 723.1563,344.1563 C723.6406,344.4375 723.8125,344.6563 723.9063,345.0625 C723.9688,345.4688 724,345.5938 724.1406,345.7188 C724.2813,345.8594 724.5156,345.9688 724.7344,345.9688 C725,345.9688 725.2656,345.8281 725.4375,345.6094 C725.5469,345.4531 725.5781,345.2656 725.5781,344.8438 L725.5781,343.4219 C725.5781,342.9844 725.5625,342.8594 725.4688,342.7031 C725.3125,342.4375 725.0313,342.2969 724.7344,342.2969 C724.4375,342.2969 724.2344,342.3906 724.0156,342.7031 L723.8438,342.625 Z " fill="#000000"/><text fill="#000000" font-family="sans-serif" font-size="12" lengthAdjust="spacingAndGlyphs" textLength="71" x="766.5" y="337.1387">usantatecla.</text><text fill="#000000" font-family="sans-serif" font-size="12" lengthAdjust="spacingAndGlyphs" textLength="112" x="746" y="351.1074">mastermind.views.</text><text fill="#000000" font-family="sans-serif" font-size="12" lengthAdjust="spacingAndGlyphs" textLength="133" x="735.5" y="365.0762">console.GraphicsView</text><line style="stroke:#A80036;stroke-width:1.5;" x1="707.5" x2="870.5" y1="372.9063" y2="372.9063"/><line style="stroke:#A80036;stroke-width:1.5;" x1="707.5" x2="870.5" y1="380.9063" y2="380.9063"/><!--MD5=[47c371471411cfedeee61b1a5bdaee47]
class StartController--><rect codeLine="5" fill="#FEFECE" filter="url(#f1pc1cbj8caucf)" height="67.9063" id="StartController" style="stroke:#A80036;stroke-width:1.5;" width="174" x="1434" y="190"/><ellipse cx="1449" cy="215.9531" fill="#ADD1B2" rx="11" ry="11" style="stroke:#A80036;stroke-width:1.0;"/><path d="M1451.3438,211.625 C1450.4063,211.1875 1449.8125,211.0469 1448.9375,211.0469 C1446.3125,211.0469 1444.3125,213.125 1444.3125,215.8438 L1444.3125,216.9688 C1444.3125,219.5469 1446.4219,221.4375 1449.3125,221.4375 C1450.5313,221.4375 1451.6875,221.1406 1452.4375,220.5938 C1453.0156,220.1875 1453.3438,219.7344 1453.3438,219.3438 C1453.3438,218.8906 1452.9531,218.5 1452.4844,218.5 C1452.2656,218.5 1452.0625,218.5781 1451.875,218.7656 C1451.4219,219.25 1451.4219,219.25 1451.2344,219.3438 C1450.8125,219.6094 1450.125,219.7344 1449.3594,219.7344 C1447.3125,219.7344 1446.0156,218.6406 1446.0156,216.9375 L1446.0156,215.8438 C1446.0156,214.0625 1447.2656,212.75 1449,212.75 C1449.5781,212.75 1450.1875,212.9063 1450.6563,213.1563 C1451.1406,213.4375 1451.3125,213.6563 1451.4063,214.0625 C1451.4688,214.4688 1451.5,214.5938 1451.6406,214.7188 C1451.7813,214.8594 1452.0156,214.9688 1452.2344,214.9688 C1452.5,214.9688 1452.7656,214.8281 1452.9375,214.6094 C1453.0469,214.4531 1453.0781,214.2656 1453.0781,213.8438 L1453.0781,212.4219 C1453.0781,211.9844 1453.0625,211.8594 1452.9688,211.7031 C1452.8125,211.4375 1452.5313,211.2969 1452.2344,211.2969 C1451.9375,211.2969 1451.7344,211.3906 1451.5156,211.7031 L1451.3438,211.625 Z " fill="#000000"/><text fill="#000000" font-family="sans-serif" font-size="12" lengthAdjust="spacingAndGlyphs" textLength="71" x="1498.5" y="206.1387">usantatecla.</text><text fill="#000000" font-family="sans-serif" font-size="12" lengthAdjust="spacingAndGlyphs" textLength="142" x="1463" y="220.1074">mastermind.controllers.</text><text fill="#000000" font-family="sans-serif" font-size="12" lengthAdjust="spacingAndGlyphs" textLength="87" x="1490.5" y="234.0762">StartController</text><line style="stroke:#A80036;stroke-width:1.5;" x1="1435" x2="1607" y1="241.9063" y2="241.9063"/><line style="stroke:#A80036;stroke-width:1.5;" x1="1435" x2="1607" y1="249.9063" y2="249.9063"/><!--MD5=[9dc2ab56716d4fbd8c61f2d17f2f3bab]
class ProposalController--><rect codeLine="6" fill="#FEFECE" filter="url(#f1pc1cbj8caucf)" height="67.9063" id="ProposalController" style="stroke:#A80036;stroke-width:1.5;" width="174" x="1643" y="190"/><ellipse cx="1658" cy="215.9531" fill="#ADD1B2" rx="11" ry="11" style="stroke:#A80036;stroke-width:1.0;"/><path d="M1660.3438,211.625 C1659.4063,211.1875 1658.8125,211.0469 1657.9375,211.0469 C1655.3125,211.0469 1653.3125,213.125 1653.3125,215.8438 L1653.3125,216.9688 C1653.3125,219.5469 1655.4219,221.4375 1658.3125,221.4375 C1659.5313,221.4375 1660.6875,221.1406 1661.4375,220.5938 C1662.0156,220.1875 1662.3438,219.7344 1662.3438,219.3438 C1662.3438,218.8906 1661.9531,218.5 1661.4844,218.5 C1661.2656,218.5 1661.0625,218.5781 1660.875,218.7656 C1660.4219,219.25 1660.4219,219.25 1660.2344,219.3438 C1659.8125,219.6094 1659.125,219.7344 1658.3594,219.7344 C1656.3125,219.7344 1655.0156,218.6406 1655.0156,216.9375 L1655.0156,215.8438 C1655.0156,214.0625 1656.2656,212.75 1658,212.75 C1658.5781,212.75 1659.1875,212.9063 1659.6563,213.1563 C1660.1406,213.4375 1660.3125,213.6563 1660.4063,214.0625 C1660.4688,214.4688 1660.5,214.5938 1660.6406,214.7188 C1660.7813,214.8594 1661.0156,214.9688 1661.2344,214.9688 C1661.5,214.9688 1661.7656,214.8281 1661.9375,214.6094 C1662.0469,214.4531 1662.0781,214.2656 1662.0781,213.8438 L1662.0781,212.4219 C1662.0781,211.9844 1662.0625,211.8594 1661.9688,211.7031 C1661.8125,211.4375 1661.5313,211.2969 1661.2344,211.2969 C1660.9375,211.2969 1660.7344,211.3906 1660.5156,211.7031 L1660.3438,211.625 Z " fill="#000000"/><text fill="#000000" font-family="sans-serif" font-size="12" lengthAdjust="spacingAndGlyphs" textLength="71" x="1707.5" y="206.1387">usantatecla.</text><text fill="#000000" font-family="sans-serif" font-size="12" lengthAdjust="spacingAndGlyphs" textLength="142" x="1672" y="220.1074">mastermind.controllers.</text><text fill="#000000" font-family="sans-serif" font-size="12" lengthAdjust="spacingAndGlyphs" textLength="111" x="1687.5" y="234.0762">ProposalController</text><line style="stroke:#A80036;stroke-width:1.5;" x1="1644" x2="1816" y1="241.9063" y2="241.9063"/><line style="stroke:#A80036;stroke-width:1.5;" x1="1644" x2="1816" y1="249.9063" y2="249.9063"/><!--MD5=[1a47bbf44ccee225df9b18c5b6629853]
class ResumeController--><rect codeLine="7" fill="#FEFECE" filter="url(#f1pc1cbj8caucf)" height="67.9063" id="ResumeController" style="stroke:#A80036;stroke-width:1.5;" width="174" x="1852" y="190"/><ellipse cx="1867" cy="215.9531" fill="#ADD1B2" rx="11" ry="11" style="stroke:#A80036;stroke-width:1.0;"/><path d="M1869.3438,211.625 C1868.4063,211.1875 1867.8125,211.0469 1866.9375,211.0469 C1864.3125,211.0469 1862.3125,213.125 1862.3125,215.8438 L1862.3125,216.9688 C1862.3125,219.5469 1864.4219,221.4375 1867.3125,221.4375 C1868.5313,221.4375 1869.6875,221.1406 1870.4375,220.5938 C1871.0156,220.1875 1871.3438,219.7344 1871.3438,219.3438 C1871.3438,218.8906 1870.9531,218.5 1870.4844,218.5 C1870.2656,218.5 1870.0625,218.5781 1869.875,218.7656 C1869.4219,219.25 1869.4219,219.25 1869.2344,219.3438 C1868.8125,219.6094 1868.125,219.7344 1867.3594,219.7344 C1865.3125,219.7344 1864.0156,218.6406 1864.0156,216.9375 L1864.0156,215.8438 C1864.0156,214.0625 1865.2656,212.75 1867,212.75 C1867.5781,212.75 1868.1875,212.9063 1868.6563,213.1563 C1869.1406,213.4375 1869.3125,213.6563 1869.4063,214.0625 C1869.4688,214.4688 1869.5,214.5938 1869.6406,214.7188 C1869.7813,214.8594 1870.0156,214.9688 1870.2344,214.9688 C1870.5,214.9688 1870.7656,214.8281 1870.9375,214.6094 C1871.0469,214.4531 1871.0781,214.2656 1871.0781,213.8438 L1871.0781,212.4219 C1871.0781,211.9844 1871.0625,211.8594 1870.9688,211.7031 C1870.8125,211.4375 1870.5313,211.2969 1870.2344,211.2969 C1869.9375,211.2969 1869.7344,211.3906 1869.5156,211.7031 L1869.3438,211.625 Z " fill="#000000"/><text fill="#000000" font-family="sans-serif" font-size="12" lengthAdjust="spacingAndGlyphs" textLength="71" x="1916.5" y="206.1387">usantatecla.</text><text fill="#000000" font-family="sans-serif" font-size="12" lengthAdjust="spacingAndGlyphs" textLength="142" x="1881" y="220.1074">mastermind.controllers.</text><text fill="#000000" font-family="sans-serif" font-size="12" lengthAdjust="spacingAndGlyphs" textLength="107" x="1898.5" y="234.0762">ResumeController</text><line style="stroke:#A80036;stroke-width:1.5;" x1="1853" x2="2025" y1="241.9063" y2="241.9063"/><line style="stroke:#A80036;stroke-width:1.5;" x1="1853" x2="2025" y1="249.9063" y2="249.9063"/><!--MD5=[a5f8ce13268a0ab6e1eb93d1cfb2a7ef]
link usantatecla.mastermind.Mastermind to View--><path codeLine="14" d="M922.6328,131.8315 C922.6328,131.8315 1014.23,170.607 1053.89,187.394 " fill="none" id="usantatecla.mastermind.Mastermind-View" style="stroke:#A80036;stroke-width:1.0;"/><polygon fill="#A80036" points="1065.92,192.486,1059.1932,185.2922,1061.3161,190.5356,1056.0727,192.6585,1065.92,192.486" style="stroke:#A80036;stroke-width:1.0;"/><line style="stroke:#A80036;stroke-width:1.0;" x1="1061.3161" x2="1053.945" y1="190.5356" y2="187.418"/><polygon fill="#A80036" points="911.582,127.154,915.5483,133.1764,922.6328,131.8315,918.6666,125.8091,911.582,127.154" style="stroke:#A80036;stroke-width:1.0;"/><!--MD5=[c98fbe24533c431fdf254f685bb4ac7c]
link usantatecla.mastermind.Mastermind to Game--><path codeLine="15" d="M1016.8929,129.8397 C1016.8929,129.8397 1160.41,165.862 1228,187 C1229.46,187.457 1230.93,187.925 1232.41,188.403 " fill="none" id="usantatecla.mastermind.Mastermind-Game" style="stroke:#A80036;stroke-width:1.0;"/><polygon fill="#A80036" points="1244.81,192.559,1237.5465,185.9076,1240.0689,190.9709,1235.0056,193.4934,1244.81,192.559" style="stroke:#A80036;stroke-width:1.0;"/><line style="stroke:#A80036;stroke-width:1.0;" x1="1240.0689" x2="1232.485" y1="190.9709" y2="188.427"/><polygon fill="#A80036" points="1005.22,127.057,1010.1289,132.3393,1016.8929,129.8397,1011.984,124.5574,1005.22,127.057" style="stroke:#A80036;stroke-width:1.0;"/><!--MD5=[9ae251ad4dbb3acb106c2c0a48dc8339]
link usantatecla.mastermind.Mastermind to StartController--><path codeLine="16" d="M1043.0692,114.7528 C1043.0692,114.7528 1295.39,155.931 1417,187 C1418.39,187.355 1419.78,187.72 1421.19,188.094 " fill="none" id="usantatecla.mastermind.Mastermind-StartController" style="stroke:#A80036;stroke-width:1.0;"/><polygon fill="#A80036" points="1433.93,191.685,1426.3535,185.3925,1429.1177,190.3279,1424.1822,193.0922,1433.93,191.685" style="stroke:#A80036;stroke-width:1.0;"/><line style="stroke:#A80036;stroke-width:1.0;" x1="1429.1177" x2="1421.425" y1="190.3279" y2="188.1595"/><polygon fill="#A80036" points="1031.2,112.986,1036.5457,117.8258,1043.0692,114.7528,1037.7235,109.913,1031.2,112.986" style="stroke:#A80036;stroke-width:1.0;"/><!--MD5=[53ea7b2c0581e46871bdb1d96ea44360]
link usantatecla.mastermind.Mastermind to ProposalController--><path codeLine="17" d="M1043.3635,101.0749 C1043.3635,101.0749 1432.71,141.956 1626,187 C1627.37,187.32 1628.75,187.651 1630.14,187.993 " fill="none" id="usantatecla.mastermind.Mastermind-ProposalController" style="stroke:#A80036;stroke-width:1.0;"/><polygon fill="#A80036" points="1642.72,191.328,1635.0509,185.1487,1637.8881,190.0426,1632.9942,192.8798,1642.72,191.328" style="stroke:#A80036;stroke-width:1.0;"/><line style="stroke:#A80036;stroke-width:1.0;" x1="1637.8881" x2="1630.15" y1="190.0426" y2="187.996"/><polygon fill="#A80036" points="1031.41,100.02,1037.0351,104.532,1043.3635,101.0749,1037.7384,96.5629,1031.41,100.02" style="stroke:#A80036;stroke-width:1.0;"/><!--MD5=[defe7f09918ffc8f8478fef493d205a3]
link usantatecla.mastermind.Mastermind to ResumeController--><path codeLine="18" d="M1043.3353,92.6475 C1043.3353,92.6475 1567.56,128.231 1835,187 C1836.38,187.302 1837.76,187.617 1839.15,187.944 " fill="none" id="usantatecla.mastermind.Mastermind-ResumeController" style="stroke:#A80036;stroke-width:1.0;"/><polygon fill="#A80036" points="1851.75,191.165,1844.0187,185.0636,1846.9053,189.9285,1842.0404,192.8151,1851.75,191.165" style="stroke:#A80036;stroke-width:1.0;"/><line style="stroke:#A80036;stroke-width:1.0;" x1="1846.9053" x2="1839.155" y1="189.9285" y2="187.946"/><polygon fill="#A80036" points="1031.35,92.054,1037.1448,96.3458,1043.3353,92.6475,1037.5405,88.3556,1031.35,92.054" style="stroke:#A80036;stroke-width:1.0;"/><!--MD5=[f77977e4d8b9d032efd72e44c024e507]
reverse link usantatecla.mastermind.Mastermind to usantatecla.mastermind.ConsoleMastermind--><path codeLine="24" d="M627.834,132.065 C557.528,150.032 478.556,170.214 412.903,186.992 " fill="none" id="usantatecla.mastermind.Mastermind-backto-usantatecla.mastermind.ConsoleMastermind" style="stroke:#A80036;stroke-width:1.0;"/><polygon fill="none" points="626.305,125.23,647.416,127.06,629.771,138.795,626.305,125.23" style="stroke:#A80036;stroke-width:1.0;"/><!--MD5=[86660d01f18f2f4aaa6ae1176c50cf28]
link usantatecla.mastermind.ConsoleMastermind to ConsoleView--><path codeLine="25" d="M272,261.277 C272,278.161 272,298.2584 272,315.4195 " fill="none" id="usantatecla.mastermind.ConsoleMastermind-to-ConsoleView" style="stroke:#A80036;stroke-width:1.0;stroke-dasharray:7.0,7.0;"/><polygon fill="#A80036" points="272,320.6443,276,311.6443,272,315.6443,268,311.6443,272,320.6443" style="stroke:#A80036;stroke-width:1.0;"/><!--MD5=[75be7b6274e25c7c9339f824ef8f543e]
reverse link usantatecla.mastermind.Mastermind to usantatecla.mastermind.GraphicsMastermind--><path codeLine="31" d="M801.642,147.145 C799.387,160.677 797.073,174.564 795.05,186.697 " fill="none" id="usantatecla.mastermind.Mastermind-backto-usantatecla.mastermind.GraphicsMastermind" style="stroke:#A80036;stroke-width:1.0;"/><polygon fill="none" points="794.781,145.731,804.974,127.154,808.591,148.033,794.781,145.731" style="stroke:#A80036;stroke-width:1.0;"/><!--MD5=[0a501c15156d4559f00f932bd01623b3]
link usantatecla.mastermind.GraphicsMastermind to GraphicsView--><path codeLine="32" d="M789,261.277 C789,278.161 789,298.2584 789,315.4195 " fill="none" id="usantatecla.mastermind.GraphicsMastermind-to-GraphicsView" style="stroke:#A80036;stroke-width:1.0;stroke-dasharray:7.0,7.0;"/><polygon fill="#A80036" points="789,320.6443,793,311.6443,789,315.6443,785,311.6443,789,320.6443" style="stroke:#A80036;stroke-width:1.0;"/><!--MD5=[2cd70d9ef7a167e6d0031f7bce4b212d]
@startuml
class View as "usantatecla.\nmastermind.views.\nView" 
Class Game as "usantatecla.\nmastermind.models.\nGame" 
class ConsoleView as "usantatecla.\nmastermind.views.\nconsole.ConsoleView" 
class GraphicsView as "usantatecla.\nmastermind.views.\nconsole.GraphicsView"
class StartController as "usantatecla.\nmastermind.controllers.\nStartController"
class ProposalController as "usantatecla.\nmastermind.controllers.\nProposalController"
class ResumeController as "usantatecla.\nmastermind.controllers.\nResumeController" 

class  usantatecla.mastermind.Mastermind{
    # Mastermind()
    # {abstract} createView(StartController, ProposalController, ResumeController): View
    # play() 
}
usantatecla.mastermind.Mastermind *-down-> View
usantatecla.mastermind.Mastermind *-down-> Game
usantatecla.mastermind.Mastermind *-down-> StartController
usantatecla.mastermind.Mastermind *-down-> ProposalController
usantatecla.mastermind.Mastermind *-down-> ResumeController

class  usantatecla.mastermind.ConsoleMastermind{
    # createView(StartController, ProposalController, ResumeController): ConsoleView
    + {static} main(String[]) 
}
usantatecla.mastermind.ConsoleMastermind -up-|> usantatecla.mastermind.Mastermind
usantatecla.mastermind.ConsoleMastermind ..> ConsoleView

class  usantatecla.mastermind.GraphicsMastermind{
# createView(StartController, ProposalController, ResumeController): GraphicsView
+ {static} main(String[]) 
}
usantatecla.mastermind.GraphicsMastermind -up-|> usantatecla.mastermind.Mastermind
usantatecla.mastermind.GraphicsMastermind ..> GraphicsView
@enduml

PlantUML version 1.2020.21beta3(Unknown compile time)
(GPL source distribution)
Java Runtime: Java(TM) SE Runtime Environment
JVM: Java HotSpot(TM) 64-Bit Server VM
Default Encoding: UTF-8
Language: en
Country: US
--></g></svg>