<?xml version="1.0" encoding="UTF-8" standalone="no"?><svg xmlns="http://www.w3.org/2000/svg" xmlns:xlink="http://www.w3.org/1999/xlink" contentScriptType="application/ecmascript" contentStyleType="text/css" height="357px" preserveAspectRatio="none" style="width:804px;height:357px;" version="1.1" viewBox="0 0 804 357" width="804px" zoomAndPan="magnify"><defs><filter height="300%" id="f1pb6oir48q5s9" width="300%" x="-1" y="-1"><feGaussianBlur result="blurOut" stdDeviation="2.0"/><feColorMatrix in="blurOut" result="blurOut2" type="matrix" values="0 0 0 0 0 0 0 0 0 0 0 0 0 0 0 0 0 0 .4 0"/><feOffset dx="4.0" dy="4.0" in="blurOut2" result="blurOut3"/><feBlend in="SourceGraphic" in2="blurOut3" mode="normal"/></filter></defs><g><!--MD5=[57ab11106b6017d1c059bb8de6501622]
cluster mastermind.views--><polygon fill="#FFFFFF" filter="url(#f1pb6oir48q5s9)" points="16,6,170,6,177,28.2969,787,28.2969,787,246,16,246,16,6" style="stroke: #000000; stroke-width: 1.5;"/><line style="stroke: #000000; stroke-width: 1.5;" x1="16" x2="177" y1="28.2969" y2="28.2969"/><text fill="#000000" font-family="sans-serif" font-size="14" font-weight="bold" lengthAdjust="spacingAndGlyphs" textLength="148" x="20" y="20.9951">mastermind.views</text><!--MD5=[daba0edef7c2b2303027ed075b2f09fd]
class mastermind.views.ColorView--><rect codeLine="5" fill="#FEFECE" filter="url(#f1pb6oir48q5s9)" height="124.8281" id="mastermind.views.ColorView" style="stroke: #A80036; stroke-width: 1.5;" width="161" x="32.5" y="73"/><ellipse cx="78.25" cy="89" fill="#ADD1B2" rx="11" ry="11" style="stroke: #A80036; stroke-width: 1.0;"/><path d="M80.5938,84.6719 C79.6563,84.2344 79.0625,84.0938 78.1875,84.0938 C75.5625,84.0938 73.5625,86.1719 73.5625,88.8906 L73.5625,90.0156 C73.5625,92.5938 75.6719,94.4844 78.5625,94.4844 C79.7813,94.4844 80.9375,94.1875 81.6875,93.6406 C82.2656,93.2344 82.5938,92.7813 82.5938,92.3906 C82.5938,91.9375 82.2031,91.5469 81.7344,91.5469 C81.5156,91.5469 81.3125,91.625 81.125,91.8125 C80.6719,92.2969 80.6719,92.2969 80.4844,92.3906 C80.0625,92.6563 79.375,92.7813 78.6094,92.7813 C76.5625,92.7813 75.2656,91.6875 75.2656,89.9844 L75.2656,88.8906 C75.2656,87.1094 76.5156,85.7969 78.25,85.7969 C78.8281,85.7969 79.4375,85.9531 79.9063,86.2031 C80.3906,86.4844 80.5625,86.7031 80.6563,87.1094 C80.7188,87.5156 80.75,87.6406 80.8906,87.7656 C81.0313,87.9063 81.2656,88.0156 81.4844,88.0156 C81.75,88.0156 82.0156,87.875 82.1875,87.6563 C82.2969,87.5 82.3281,87.3125 82.3281,86.8906 L82.3281,85.4688 C82.3281,85.0313 82.3125,84.9063 82.2188,84.75 C82.0625,84.4844 81.7813,84.3438 81.4844,84.3438 C81.1875,84.3438 80.9844,84.4375 80.7656,84.75 L80.5938,84.6719 Z "/><text fill="#000000" font-family="sans-serif" font-size="12" lengthAdjust="spacingAndGlyphs" textLength="61" x="98.75" y="93.1543">ColorView</text><line style="stroke: #A80036; stroke-width: 1.5;" x1="33.5" x2="192.5" y1="105" y2="105"/><ellipse cx="43.5" cy="116" fill="none" rx="3" ry="3" style="stroke: #038048; stroke-width: 1.0;"/><text fill="#000000" font-family="sans-serif" font-size="11" lengthAdjust="spacingAndGlyphs" text-decoration="underline" textLength="89" x="52.5" y="119.2104">INITIALS: char []</text><line style="stroke: #A80036; stroke-width: 1.5;" x1="33.5" x2="192.5" y1="125.8047" y2="125.8047"/><polygon fill="#FFFF44" points="43.5,131.8047,47.5,135.8047,43.5,139.8047,39.5,135.8047" style="stroke: #B38D22; stroke-width: 1.0;"/><text fill="#000000" font-family="sans-serif" font-size="11" lengthAdjust="spacingAndGlyphs" textLength="65" x="52.5" y="140.0151">ColorView()</text><polygon fill="#FFFF44" points="43.5,144.6094,47.5,148.6094,43.5,152.6094,39.5,148.6094" style="stroke: #B38D22; stroke-width: 1.0;"/><text fill="#000000" font-family="sans-serif" font-size="11" lengthAdjust="spacingAndGlyphs" textLength="94" x="52.5" y="152.8198">ColorView(Color)</text><ellipse cx="43.5" cy="162.4141" fill="#84BE84" rx="3" ry="3" style="stroke: #038048; stroke-width: 1.0;"/><text fill="#000000" font-family="sans-serif" font-size="11" lengthAdjust="spacingAndGlyphs" text-decoration="underline" textLength="97" x="52.5" y="165.6245">allInitials(): String</text><polygon fill="#FFFF44" points="43.5,170.2188,47.5,174.2188,43.5,178.2188,39.5,174.2188" style="stroke: #B38D22; stroke-width: 1.0;"/><text fill="#000000" font-family="sans-serif" font-size="11" font-style="italic" lengthAdjust="spacingAndGlyphs" textLength="131" x="52.5" y="178.4292">resultInitials(int): String</text><ellipse cx="43.5" cy="188.0234" fill="#84BE84" rx="3" ry="3" style="stroke: #038048; stroke-width: 1.0;"/><text fill="#000000" font-family="sans-serif" font-size="11" lengthAdjust="spacingAndGlyphs" text-decoration="underline" textLength="135" x="52.5" y="191.2339">getInstance(char): Color</text><!--MD5=[ee236011c866e79872d7eb09821c7fe9]
class mastermind.views.ErrorView--><rect codeLine="15" fill="#FEFECE" filter="url(#f1pb6oir48q5s9)" height="99.2188" id="mastermind.views.ErrorView" style="stroke: #A80036; stroke-width: 1.5;" width="145" x="436.5" y="86"/><ellipse cx="475.8" cy="102" fill="#ADD1B2" rx="11" ry="11" style="stroke: #A80036; stroke-width: 1.0;"/><path d="M478.1438,97.6719 C477.2063,97.2344 476.6125,97.0938 475.7375,97.0938 C473.1125,97.0938 471.1125,99.1719 471.1125,101.8906 L471.1125,103.0156 C471.1125,105.5938 473.2219,107.4844 476.1125,107.4844 C477.3313,107.4844 478.4875,107.1875 479.2375,106.6406 C479.8156,106.2344 480.1438,105.7813 480.1438,105.3906 C480.1438,104.9375 479.7531,104.5469 479.2844,104.5469 C479.0656,104.5469 478.8625,104.625 478.675,104.8125 C478.2219,105.2969 478.2219,105.2969 478.0344,105.3906 C477.6125,105.6563 476.925,105.7813 476.1594,105.7813 C474.1125,105.7813 472.8156,104.6875 472.8156,102.9844 L472.8156,101.8906 C472.8156,100.1094 474.0656,98.7969 475.8,98.7969 C476.3781,98.7969 476.9875,98.9531 477.4563,99.2031 C477.9406,99.4844 478.1125,99.7031 478.2063,100.1094 C478.2688,100.5156 478.3,100.6406 478.4406,100.7656 C478.5813,100.9063 478.8156,101.0156 479.0344,101.0156 C479.3,101.0156 479.5656,100.875 479.7375,100.6563 C479.8469,100.5 479.8781,100.3125 479.8781,99.8906 L479.8781,98.4688 C479.8781,98.0313 479.8625,97.9063 479.7688,97.75 C479.6125,97.4844 479.3313,97.3438 479.0344,97.3438 C478.7375,97.3438 478.5344,97.4375 478.3156,97.75 L478.1438,97.6719 Z "/><text fill="#000000" font-family="sans-serif" font-size="12" lengthAdjust="spacingAndGlyphs" textLength="59" x="495.2" y="106.1543">ErrorView</text><line style="stroke: #A80036; stroke-width: 1.5;" x1="437.5" x2="580.5" y1="118" y2="118"/><ellipse cx="447.5" cy="129" fill="none" rx="3" ry="3" style="stroke: #038048; stroke-width: 1.0;"/><text fill="#000000" font-family="sans-serif" font-size="11" lengthAdjust="spacingAndGlyphs" text-decoration="underline" textLength="116" x="456.5" y="132.2104">MESSAGES: String []</text><line style="stroke: #A80036; stroke-width: 1.5;" x1="437.5" x2="580.5" y1="138.8047" y2="138.8047"/><polygon fill="#FFFF44" points="447.5,144.8047,451.5,148.8047,447.5,152.8047,443.5,148.8047" style="stroke: #B38D22; stroke-width: 1.0;"/><text fill="#000000" font-family="sans-serif" font-size="11" lengthAdjust="spacingAndGlyphs" textLength="62" x="456.5" y="153.0151">ErrorView()</text><ellipse cx="447.5" cy="162.6094" fill="#84BE84" rx="3" ry="3" style="stroke: #038048; stroke-width: 1.0;"/><text fill="#000000" font-family="sans-serif" font-size="11" lengthAdjust="spacingAndGlyphs" textLength="119" x="456.5" y="165.8198">ErrorView(Error error)</text><polygon fill="#FFFF44" points="447.5,170.4141,451.5,174.4141,447.5,178.4141,443.5,174.4141" style="stroke: #B38D22; stroke-width: 1.0;"/><text fill="#000000" font-family="sans-serif" font-size="11" font-style="italic" lengthAdjust="spacingAndGlyphs" textLength="113" x="456.5" y="178.6245">colorInitials(): String</text><!--MD5=[716d7df7e3500a9f49a27aeed588132e]
class mastermind.views.MessageView--><rect codeLine="23" fill="#FEFECE" filter="url(#f1pb6oir48q5s9)" height="188.8516" id="mastermind.views.MessageView" style="stroke: #A80036; stroke-width: 1.5;" width="173" x="228.5" y="41"/><ellipse cx="269.15" cy="57" fill="#EB937F" rx="11" ry="11" style="stroke: #A80036; stroke-width: 1.0;"/><path d="M267.9469,57.875 L269.4,57.875 L269.4,57.9844 C269.4,58.3906 269.4313,58.5469 269.5094,58.7031 C269.6656,58.9531 269.9469,59.1094 270.2438,59.1094 C270.4938,59.1094 270.7594,58.9688 270.9156,58.75 C271.0406,58.5938 271.0719,58.4375 271.0719,57.9844 L271.0719,56.0625 C271.0719,55.9063 271.0719,55.8594 271.0563,55.7031 C270.9938,55.2344 270.6813,54.9219 270.2281,54.9219 C269.9781,54.9219 269.7125,55.0625 269.5406,55.2813 C269.4313,55.4531 269.4,55.6094 269.4,56.0625 L269.4,56.1875 L267.9469,56.1875 L267.9469,53.7813 L271.9313,53.7813 L271.9313,54.6406 C271.9313,55.0469 271.9625,55.2188 272.0406,55.375 C272.2125,55.625 272.4938,55.7813 272.775,55.7813 C273.0406,55.7813 273.3063,55.6406 273.4781,55.4219 C273.5875,55.25 273.6188,55.1094 273.6188,54.6406 L273.6188,52.0938 L265.9938,52.0938 C265.5563,52.0938 265.4313,52.1094 265.275,52.2031 C265.025,52.3594 264.8688,52.6563 264.8688,52.9375 C264.8688,53.2188 265.0094,53.4688 265.2281,53.6406 C265.3844,53.75 265.5719,53.7813 265.9938,53.7813 L266.2438,53.7813 L266.2438,60.2969 L265.9938,60.2969 C265.5875,60.2969 265.4313,60.3125 265.275,60.4219 C265.025,60.5938 264.8688,60.8594 264.8688,61.1563 C264.8688,61.4219 265.0094,61.6719 265.2281,61.8281 C265.3688,61.9531 265.6031,62 265.9938,62 L273.9938,62 L273.9938,59.4219 C273.9938,58.9844 273.9625,58.8438 273.8844,58.6875 C273.7125,58.4375 273.4313,58.2813 273.15,58.2813 C272.8844,58.2813 272.6188,58.3906 272.4469,58.6406 C272.3375,58.7969 272.3063,58.9375 272.3063,59.4219 L272.3063,60.2969 L267.9469,60.2969 L267.9469,57.875 Z "/><text fill="#000000" font-family="sans-serif" font-size="12" lengthAdjust="spacingAndGlyphs" textLength="84" x="288.85" y="61.1543">MessageView</text><line style="stroke: #A80036; stroke-width: 1.5;" x1="229.5" x2="400.5" y1="73" y2="73"/><ellipse cx="239.5" cy="84" fill="none" rx="3" ry="3" style="stroke: #038048; stroke-width: 1.0;"/><text fill="#000000" font-family="sans-serif" font-size="11" lengthAdjust="spacingAndGlyphs" textLength="59" x="248.5" y="87.2104">ATTEMPTS</text><ellipse cx="239.5" cy="96.8047" fill="none" rx="3" ry="3" style="stroke: #038048; stroke-width: 1.0;"/><text fill="#000000" font-family="sans-serif" font-size="11" lengthAdjust="spacingAndGlyphs" textLength="44" x="248.5" y="100.0151">SECRET</text><ellipse cx="239.5" cy="109.6094" fill="none" rx="3" ry="3" style="stroke: #038048; stroke-width: 1.0;"/><text fill="#000000" font-family="sans-serif" font-size="11" lengthAdjust="spacingAndGlyphs" textLength="46" x="248.5" y="112.8198">RESUME</text><ellipse cx="239.5" cy="122.4141" fill="none" rx="3" ry="3" style="stroke: #038048; stroke-width: 1.0;"/><text fill="#000000" font-family="sans-serif" font-size="11" lengthAdjust="spacingAndGlyphs" textLength="43" x="248.5" y="125.6245">RESULT</text><ellipse cx="239.5" cy="135.2188" fill="none" rx="3" ry="3" style="stroke: #038048; stroke-width: 1.0;"/><text fill="#000000" font-family="sans-serif" font-size="11" lengthAdjust="spacingAndGlyphs" textLength="147" x="248.5" y="138.4292">PROPOSED_COMBINATION</text><ellipse cx="239.5" cy="148.0234" fill="none" rx="3" ry="3" style="stroke: #038048; stroke-width: 1.0;"/><text fill="#000000" font-family="sans-serif" font-size="11" lengthAdjust="spacingAndGlyphs" textLength="30" x="248.5" y="151.2339">TITLE</text><ellipse cx="239.5" cy="160.8281" fill="none" rx="3" ry="3" style="stroke: #038048; stroke-width: 1.0;"/><text fill="#000000" font-family="sans-serif" font-size="11" lengthAdjust="spacingAndGlyphs" textLength="44" x="248.5" y="164.0386">WINNER</text><ellipse cx="239.5" cy="173.6328" fill="none" rx="3" ry="3" style="stroke: #038048; stroke-width: 1.0;"/><text fill="#000000" font-family="sans-serif" font-size="11" lengthAdjust="spacingAndGlyphs" textLength="46" x="248.5" y="176.8433">LOOSER</text><rect fill="none" height="6" style="stroke: #C82930; stroke-width: 1.0;" width="6" x="236.5" y="183.4375"/><text fill="#000000" font-family="sans-serif" font-size="11" lengthAdjust="spacingAndGlyphs" textLength="93" x="248.5" y="189.6479">message: String</text><line style="stroke: #A80036; stroke-width: 1.5;" x1="229.5" x2="400.5" y1="196.2422" y2="196.2422"/><rect fill="#F24D5C" height="6" style="stroke: #C82930; stroke-width: 1.0;" width="6" x="236.5" y="204.2422"/><text fill="#000000" font-family="sans-serif" font-size="11" lengthAdjust="spacingAndGlyphs" textLength="120" x="248.5" y="210.4526">MessageView(String)</text><ellipse cx="239.5" cy="220.0469" fill="#84BE84" rx="3" ry="3" style="stroke: #038048; stroke-width: 1.0;"/><text fill="#000000" font-family="sans-serif" font-size="11" lengthAdjust="spacingAndGlyphs" textLength="118" x="248.5" y="223.2573">getMessage(): String</text><!--MD5=[904c44326bfc30ddc4fe4077c1b9164d]
class mastermind.views.View--><rect codeLine="37" fill="#FEFECE" filter="url(#f1pb6oir48q5s9)" height="112.0234" id="mastermind.views.View" style="stroke: #A80036; stroke-width: 1.5;" width="154" x="617" y="79.5"/><ellipse cx="675.25" cy="95.5" fill="#ADD1B2" rx="11" ry="11" style="stroke: #A80036; stroke-width: 1.0;"/><path d="M677.5938,91.1719 C676.6563,90.7344 676.0625,90.5938 675.1875,90.5938 C672.5625,90.5938 670.5625,92.6719 670.5625,95.3906 L670.5625,96.5156 C670.5625,99.0938 672.6719,100.9844 675.5625,100.9844 C676.7813,100.9844 677.9375,100.6875 678.6875,100.1406 C679.2656,99.7344 679.5938,99.2813 679.5938,98.8906 C679.5938,98.4375 679.2031,98.0469 678.7344,98.0469 C678.5156,98.0469 678.3125,98.125 678.125,98.3125 C677.6719,98.7969 677.6719,98.7969 677.4844,98.8906 C677.0625,99.1563 676.375,99.2813 675.6094,99.2813 C673.5625,99.2813 672.2656,98.1875 672.2656,96.4844 L672.2656,95.3906 C672.2656,93.6094 673.5156,92.2969 675.25,92.2969 C675.8281,92.2969 676.4375,92.4531 676.9063,92.7031 C677.3906,92.9844 677.5625,93.2031 677.6563,93.6094 C677.7188,94.0156 677.75,94.1406 677.8906,94.2656 C678.0313,94.4063 678.2656,94.5156 678.4844,94.5156 C678.75,94.5156 679.0156,94.375 679.1875,94.1563 C679.2969,94 679.3281,93.8125 679.3281,93.3906 L679.3281,91.9688 C679.3281,91.5313 679.3125,91.4063 679.2188,91.25 C679.0625,90.9844 678.7813,90.8438 678.4844,90.8438 C678.1875,90.8438 677.9844,90.9375 677.7656,91.25 L677.5938,91.1719 Z "/><text fill="#000000" font-family="sans-serif" font-size="12" lengthAdjust="spacingAndGlyphs" textLength="29" x="695.75" y="99.6543">View</text><line style="stroke: #A80036; stroke-width: 1.5;" x1="618" x2="770" y1="111.5" y2="111.5"/><line style="stroke: #A80036; stroke-width: 1.5;" x1="618" x2="770" y1="119.5" y2="119.5"/><ellipse cx="628" cy="130.5" fill="#84BE84" rx="3" ry="3" style="stroke: #038048; stroke-width: 1.0;"/><text fill="#000000" font-family="sans-serif" font-size="11" lengthAdjust="spacingAndGlyphs" textLength="71" x="637" y="133.7104">View(Game)</text><ellipse cx="628" cy="143.3047" fill="#84BE84" rx="3" ry="3" style="stroke: #038048; stroke-width: 1.0;"/><text fill="#000000" font-family="sans-serif" font-size="11" lengthAdjust="spacingAndGlyphs" textLength="51" x="637" y="146.5151">interact()</text><polygon fill="#FFFF44" points="628,151.1094,632,155.1094,628,159.1094,624,155.1094" style="stroke: #B38D22; stroke-width: 1.0;"/><text fill="#000000" font-family="sans-serif" font-size="11" font-style="italic" lengthAdjust="spacingAndGlyphs" textLength="66" x="637" y="159.3198">start(): void</text><polygon fill="#FFFF44" points="628,163.9141,632,167.9141,628,171.9141,624,167.9141" style="stroke: #B38D22; stroke-width: 1.0;"/><text fill="#000000" font-family="sans-serif" font-size="11" font-style="italic" lengthAdjust="spacingAndGlyphs" textLength="107" x="637" y="172.1245">propose(): boolean</text><polygon fill="#FFFF44" points="628,176.7188,632,180.7188,628,184.7188,624,180.7188" style="stroke: #B38D22; stroke-width: 1.0;"/><text fill="#000000" font-family="sans-serif" font-size="11" font-style="italic" lengthAdjust="spacingAndGlyphs" textLength="128" x="637" y="184.9292">isNewGame(): boolean</text><!--MD5=[b8cfd8c4119a3b0a7a46bfc5fc780f85]
class Error--><rect codeLine="1" fill="#FEFECE" filter="url(#f1pb6oir48q5s9)" height="53.9375" id="Error" style="stroke: #A80036; stroke-width: 1.5;" width="154" x="430" y="290"/><ellipse cx="445" cy="308.9688" fill="#ADD1B2" rx="11" ry="11" style="stroke: #A80036; stroke-width: 1.0;"/><path d="M447.3438,304.6406 C446.4063,304.2031 445.8125,304.0625 444.9375,304.0625 C442.3125,304.0625 440.3125,306.1406 440.3125,308.8594 L440.3125,309.9844 C440.3125,312.5625 442.4219,314.4531 445.3125,314.4531 C446.5313,314.4531 447.6875,314.1563 448.4375,313.6094 C449.0156,313.2031 449.3438,312.75 449.3438,312.3594 C449.3438,311.9063 448.9531,311.5156 448.4844,311.5156 C448.2656,311.5156 448.0625,311.5938 447.875,311.7813 C447.4219,312.2656 447.4219,312.2656 447.2344,312.3594 C446.8125,312.625 446.125,312.75 445.3594,312.75 C443.3125,312.75 442.0156,311.6563 442.0156,309.9531 L442.0156,308.8594 C442.0156,307.0781 443.2656,305.7656 445,305.7656 C445.5781,305.7656 446.1875,305.9219 446.6563,306.1719 C447.1406,306.4531 447.3125,306.6719 447.4063,307.0781 C447.4688,307.4844 447.5,307.6094 447.6406,307.7344 C447.7813,307.875 448.0156,307.9844 448.2344,307.9844 C448.5,307.9844 448.7656,307.8438 448.9375,307.625 C449.0469,307.4688 449.0781,307.2813 449.0781,306.8594 L449.0781,305.4375 C449.0781,305 449.0625,304.875 448.9688,304.7188 C448.8125,304.4531 448.5313,304.3125 448.2344,304.3125 C447.9375,304.3125 447.7344,304.4063 447.5156,304.7188 L447.3438,304.6406 Z "/><text fill="#000000" font-family="sans-serif" font-size="12" lengthAdjust="spacingAndGlyphs" textLength="122" x="459" y="306.1387">mastermind.models.</text><text fill="#000000" font-family="sans-serif" font-size="12" lengthAdjust="spacingAndGlyphs" textLength="30" x="505" y="320.1074">Error</text><line style="stroke: #A80036; stroke-width: 1.5;" x1="431" x2="583" y1="327.9375" y2="327.9375"/><line style="stroke: #A80036; stroke-width: 1.5;" x1="431" x2="583" y1="335.9375" y2="335.9375"/><!--MD5=[18eee71c88ab61f27581b8cbdd3ef5ee]
class Color--><rect codeLine="2" fill="#FEFECE" filter="url(#f1pb6oir48q5s9)" height="53.9375" id="Color" style="stroke: #A80036; stroke-width: 1.5;" width="154" x="36" y="290"/><ellipse cx="51" cy="308.9688" fill="#ADD1B2" rx="11" ry="11" style="stroke: #A80036; stroke-width: 1.0;"/><path d="M53.3438,304.6406 C52.4063,304.2031 51.8125,304.0625 50.9375,304.0625 C48.3125,304.0625 46.3125,306.1406 46.3125,308.8594 L46.3125,309.9844 C46.3125,312.5625 48.4219,314.4531 51.3125,314.4531 C52.5313,314.4531 53.6875,314.1563 54.4375,313.6094 C55.0156,313.2031 55.3438,312.75 55.3438,312.3594 C55.3438,311.9063 54.9531,311.5156 54.4844,311.5156 C54.2656,311.5156 54.0625,311.5938 53.875,311.7813 C53.4219,312.2656 53.4219,312.2656 53.2344,312.3594 C52.8125,312.625 52.125,312.75 51.3594,312.75 C49.3125,312.75 48.0156,311.6563 48.0156,309.9531 L48.0156,308.8594 C48.0156,307.0781 49.2656,305.7656 51,305.7656 C51.5781,305.7656 52.1875,305.9219 52.6563,306.1719 C53.1406,306.4531 53.3125,306.6719 53.4063,307.0781 C53.4688,307.4844 53.5,307.6094 53.6406,307.7344 C53.7813,307.875 54.0156,307.9844 54.2344,307.9844 C54.5,307.9844 54.7656,307.8438 54.9375,307.625 C55.0469,307.4688 55.0781,307.2813 55.0781,306.8594 L55.0781,305.4375 C55.0781,305 55.0625,304.875 54.9688,304.7188 C54.8125,304.4531 54.5313,304.3125 54.2344,304.3125 C53.9375,304.3125 53.7344,304.4063 53.5156,304.7188 L53.3438,304.6406 Z "/><text fill="#000000" font-family="sans-serif" font-size="12" lengthAdjust="spacingAndGlyphs" textLength="122" x="65" y="306.1387">mastermind.models.</text><text fill="#000000" font-family="sans-serif" font-size="12" lengthAdjust="spacingAndGlyphs" textLength="32" x="110" y="320.1074">Color</text><line style="stroke: #A80036; stroke-width: 1.5;" x1="37" x2="189" y1="327.9375" y2="327.9375"/><line style="stroke: #A80036; stroke-width: 1.5;" x1="37" x2="189" y1="335.9375" y2="335.9375"/><!--MD5=[b6dcce5e5ef3c84b0b048d11301373dd]
class Game--><rect codeLine="3" fill="#FEFECE" filter="url(#f1pb6oir48q5s9)" height="53.9375" id="Game" style="stroke: #A80036; stroke-width: 1.5;" width="154" x="619" y="290"/><ellipse cx="634" cy="308.9688" fill="#ADD1B2" rx="11" ry="11" style="stroke: #A80036; stroke-width: 1.0;"/><path d="M636.3438,304.6406 C635.4063,304.2031 634.8125,304.0625 633.9375,304.0625 C631.3125,304.0625 629.3125,306.1406 629.3125,308.8594 L629.3125,309.9844 C629.3125,312.5625 631.4219,314.4531 634.3125,314.4531 C635.5313,314.4531 636.6875,314.1563 637.4375,313.6094 C638.0156,313.2031 638.3438,312.75 638.3438,312.3594 C638.3438,311.9063 637.9531,311.5156 637.4844,311.5156 C637.2656,311.5156 637.0625,311.5938 636.875,311.7813 C636.4219,312.2656 636.4219,312.2656 636.2344,312.3594 C635.8125,312.625 635.125,312.75 634.3594,312.75 C632.3125,312.75 631.0156,311.6563 631.0156,309.9531 L631.0156,308.8594 C631.0156,307.0781 632.2656,305.7656 634,305.7656 C634.5781,305.7656 635.1875,305.9219 635.6563,306.1719 C636.1406,306.4531 636.3125,306.6719 636.4063,307.0781 C636.4688,307.4844 636.5,307.6094 636.6406,307.7344 C636.7813,307.875 637.0156,307.9844 637.2344,307.9844 C637.5,307.9844 637.7656,307.8438 637.9375,307.625 C638.0469,307.4688 638.0781,307.2813 638.0781,306.8594 L638.0781,305.4375 C638.0781,305 638.0625,304.875 637.9688,304.7188 C637.8125,304.4531 637.5313,304.3125 637.2344,304.3125 C636.9375,304.3125 636.7344,304.4063 636.5156,304.7188 L636.3438,304.6406 Z "/><text fill="#000000" font-family="sans-serif" font-size="12" lengthAdjust="spacingAndGlyphs" textLength="122" x="648" y="306.1387">mastermind.models.</text><text fill="#000000" font-family="sans-serif" font-size="12" lengthAdjust="spacingAndGlyphs" textLength="35" x="691.5" y="320.1074">Game</text><line style="stroke: #A80036; stroke-width: 1.5;" x1="620" x2="772" y1="327.9375" y2="327.9375"/><line style="stroke: #A80036; stroke-width: 1.5;" x1="620" x2="772" y1="335.9375" y2="335.9375"/><!--MD5=[7b6dec937fdadecd8851613d2ea4e3d6]
link mastermind.views.ColorView to Color--><path codeLine="13" d="M113,210.023 C113,210.023 113,257.296 113,276.5153 " fill="none" id="mastermind.views.ColorView-Color" style="stroke: #A80036; stroke-width: 1.0;"/><polygon fill="#A80036" points="113,289.6242,117,280.6242,113,284.6242,109,280.6242,113,289.6242" style="stroke: #A80036; stroke-width: 1.0;"/><line style="stroke: #A80036; stroke-width: 1.0;" x1="113" x2="113" y1="284.6242" y2="276.6242"/><polygon fill="#A80036" points="113,198.023,109,204.023,113,210.023,117,204.023,113,198.023" style="stroke: #A80036; stroke-width: 1.0;"/><!--MD5=[a3cf660066c9f3e800b797bfc872e2ae]
link mastermind.views.ErrorView to Error--><path codeLine="21" d="M508.3258,197.0743 C508.3258,197.0743 507.693,253.8092 507.437,276.8192 " fill="none" id="mastermind.views.ErrorView-Error" style="stroke: #A80036; stroke-width: 1.0;"/><polygon fill="#A80036" points="507.291,289.8669,511.391,280.912,507.3467,284.8672,503.3915,280.8229,507.291,289.8669" style="stroke: #A80036; stroke-width: 1.0;"/><line style="stroke: #A80036; stroke-width: 1.0;" x1="507.3467" x2="507.436" y1="284.8672" y2="276.8677"/><polygon fill="#A80036" points="508.459,185.075,504.3927,191.0302,508.3258,197.0743,512.3922,191.119,508.459,185.075" style="stroke: #A80036; stroke-width: 1.0;"/><!--MD5=[17998a52fa5fa063b5f7b00b7e9ee36d]
link mastermind.views.View to Game--><path codeLine="44" d="M694.7505,203.8202 C694.7505,203.8202 695.326,255.5171 695.559,276.4359 " fill="none" id="mastermind.views.View-Game" style="stroke: #A80036; stroke-width: 1.0;"/><polygon fill="#A80036" points="695.706,289.6498,699.6054,280.6057,695.6502,284.6501,691.6059,280.695,695.706,289.6498" style="stroke: #A80036; stroke-width: 1.0;"/><line style="stroke: #A80036; stroke-width: 1.0;" x1="695.6502" x2="695.5615" y1="284.6501" y2="276.6506"/><polygon fill="#A80036" points="694.616,191.821,690.6835,197.8655,694.7505,203.8202,698.683,197.7758,694.616,191.821" style="stroke: #A80036; stroke-width: 1.0;"/><!--MD5=[00e5f6e6b2082159898f4365bb4dc4b9]
@startuml
class Error as "mastermind.models.\nError"{}
class Color as "mastermind.models.\nColor"{}
class Game as "mastermind.models.\nGame"{}

class mastermind.views.ColorView{
    + {static} INITIALS: char []
    # ColorView()
    # ColorView(Color)
    + {static} allInitials(): String
    # {abstract} resultInitials(int): String
    + {static} getInstance(char): Color
}
mastermind.views.ColorView *-down-> Color

class mastermind.views.ErrorView{
    + {static} MESSAGES: String []
    # ErrorView()
    + ErrorView(Error error)
    # {abstract} colorInitials(): String
}
mastermind.views.ErrorView *-down-> Error

enum mastermind.views.MessageView{
    + ATTEMPTS
    + SECRET
    + RESUME
    + RESULT
    + PROPOSED_COMBINATION
    + TITLE
    + WINNER
    + LOOSER
    - message: String
    - MessageView(String)
    + getMessage(): String
}

class mastermind.views.View {
    + View(Game)
    + interact()
    # {abstract} start(): void
    # {abstract} propose(): boolean
    # {abstract} isNewGame(): boolean
}
mastermind.views.View *-down-> Game
@enduml

PlantUML version 1.2020.20beta4(Unknown compile time)
(GPL source distribution)
Java Runtime: Java(TM) SE Runtime Environment
JVM: Java HotSpot(TM) 64-Bit Server VM
Default Encoding: UTF-8
Language: en
Country: US
--></g></svg>