<?xml version="1.0" encoding="UTF-8" standalone="no"?><svg xmlns="http://www.w3.org/2000/svg" xmlns:xlink="http://www.w3.org/1999/xlink" contentScriptType="application/ecmascript" contentStyleType="text/css" height="322px" preserveAspectRatio="none" style="width:994px;height:322px;" version="1.1" viewBox="0 0 994 322" width="994px" zoomAndPan="magnify"><defs><filter height="300%" id="f1sngkh5js5znx" width="300%" x="-1" y="-1"><feGaussianBlur result="blurOut" stdDeviation="2.0"/><feColorMatrix in="blurOut" result="blurOut2" type="matrix" values="0 0 0 0 0 0 0 0 0 0 0 0 0 0 0 0 0 0 .4 0"/><feOffset dx="4.0" dy="4.0" in="blurOut2" result="blurOut3"/><feBlend in="SourceGraphic" in2="blurOut3" mode="normal"/></filter></defs><g><!--MD5=[9be0839337cfdab5d118a2e29cf0a8c4]
cluster usantatecla.mastermind--><polygon fill="#FFFFFF" filter="url(#f1sngkh5js5znx)" points="16,6,223,6,230,28.2969,422,28.2969,422,315,16,315,16,6" style="stroke: #000000; stroke-width: 1.5;"/><line style="stroke: #000000; stroke-width: 1.5;" x1="16" x2="230" y1="28.2969" y2="28.2969"/><text fill="#000000" font-family="sans-serif" font-size="14" font-weight="bold" lengthAdjust="spacingAndGlyphs" textLength="201" x="20" y="20.9951">usantatecla.mastermind</text><!--MD5=[315b8ca9da34f9ebf61c511bec4164b0]
class usantatecla.mastermind.ConsoleMastermind--><rect codeLine="1" fill="#FEFECE" filter="url(#f1sngkh5js5znx)" height="86.4141" id="usantatecla.mastermind.ConsoleMastermind" style="stroke: #A80036; stroke-width: 1.5;" width="169" x="32.5" y="213"/><ellipse cx="55.6" cy="229" fill="#ADD1B2" rx="11" ry="11" style="stroke: #A80036; stroke-width: 1.0;"/><path d="M57.9438,224.6719 C57.0063,224.2344 56.4125,224.0938 55.5375,224.0938 C52.9125,224.0938 50.9125,226.1719 50.9125,228.8906 L50.9125,230.0156 C50.9125,232.5938 53.0219,234.4844 55.9125,234.4844 C57.1313,234.4844 58.2875,234.1875 59.0375,233.6406 C59.6156,233.2344 59.9438,232.7813 59.9438,232.3906 C59.9438,231.9375 59.5531,231.5469 59.0844,231.5469 C58.8656,231.5469 58.6625,231.625 58.475,231.8125 C58.0219,232.2969 58.0219,232.2969 57.8344,232.3906 C57.4125,232.6563 56.725,232.7813 55.9594,232.7813 C53.9125,232.7813 52.6156,231.6875 52.6156,229.9844 L52.6156,228.8906 C52.6156,227.1094 53.8656,225.7969 55.6,225.7969 C56.1781,225.7969 56.7875,225.9531 57.2563,226.2031 C57.7406,226.4844 57.9125,226.7031 58.0063,227.1094 C58.0688,227.5156 58.1,227.6406 58.2406,227.7656 C58.3813,227.9063 58.6156,228.0156 58.8344,228.0156 C59.1,228.0156 59.3656,227.875 59.5375,227.6563 C59.6469,227.5 59.6781,227.3125 59.6781,226.8906 L59.6781,225.4688 C59.6781,225.0313 59.6625,224.9063 59.5688,224.75 C59.4125,224.4844 59.1313,224.3438 58.8344,224.3438 C58.5375,224.3438 58.3344,224.4375 58.1156,224.75 L57.9438,224.6719 Z "/><text fill="#000000" font-family="sans-serif" font-size="12" lengthAdjust="spacingAndGlyphs" textLength="119" x="71.4" y="233.1543">ConsoleMastermind</text><line style="stroke: #A80036; stroke-width: 1.5;" x1="33.5" x2="200.5" y1="245" y2="245"/><line style="stroke: #A80036; stroke-width: 1.5;" x1="33.5" x2="200.5" y1="253" y2="253"/><ellipse cx="43.5" cy="264" fill="#84BE84" rx="3" ry="3" style="stroke: #038048; stroke-width: 1.0;"/><text fill="#000000" font-family="sans-serif" font-size="11" lengthAdjust="spacingAndGlyphs" textLength="120" x="52.5" y="267.2104">ConsoleMastermind()</text><ellipse cx="43.5" cy="276.8047" fill="#84BE84" rx="3" ry="3" style="stroke: #038048; stroke-width: 1.0;"/><text fill="#000000" font-family="sans-serif" font-size="11" lengthAdjust="spacingAndGlyphs" text-decoration="underline" textLength="77" x="52.5" y="280.0151">main(String[])</text><polygon fill="#4177AF" points="43.5,285.6094,39.5,291.6094,47.5,291.6094" style="stroke: #1963A0; stroke-width: 1.0;"/><text fill="#000000" font-family="sans-serif" font-size="11" lengthAdjust="spacingAndGlyphs" textLength="143" x="52.5" y="292.8198">createView(Game): View</text><!--MD5=[904099970a9cea29a476bd38c8d887ee]
class usantatecla.mastermind.Mastermind--><rect codeLine="15" fill="#FEFECE" filter="url(#f1sngkh5js5znx)" height="112.0234" id="usantatecla.mastermind.Mastermind" style="stroke: #A80036; stroke-width: 1.5;" width="166" x="239" y="41"/><ellipse cx="282.8" cy="57" fill="#ADD1B2" rx="11" ry="11" style="stroke: #A80036; stroke-width: 1.0;"/><path d="M285.1438,52.6719 C284.2063,52.2344 283.6125,52.0938 282.7375,52.0938 C280.1125,52.0938 278.1125,54.1719 278.1125,56.8906 L278.1125,58.0156 C278.1125,60.5938 280.2219,62.4844 283.1125,62.4844 C284.3313,62.4844 285.4875,62.1875 286.2375,61.6406 C286.8156,61.2344 287.1438,60.7813 287.1438,60.3906 C287.1438,59.9375 286.7531,59.5469 286.2844,59.5469 C286.0656,59.5469 285.8625,59.625 285.675,59.8125 C285.2219,60.2969 285.2219,60.2969 285.0344,60.3906 C284.6125,60.6563 283.925,60.7813 283.1594,60.7813 C281.1125,60.7813 279.8156,59.6875 279.8156,57.9844 L279.8156,56.8906 C279.8156,55.1094 281.0656,53.7969 282.8,53.7969 C283.3781,53.7969 283.9875,53.9531 284.4563,54.2031 C284.9406,54.4844 285.1125,54.7031 285.2063,55.1094 C285.2688,55.5156 285.3,55.6406 285.4406,55.7656 C285.5813,55.9063 285.8156,56.0156 286.0344,56.0156 C286.3,56.0156 286.5656,55.875 286.7375,55.6563 C286.8469,55.5 286.8781,55.3125 286.8781,54.8906 L286.8781,53.4688 C286.8781,53.0313 286.8625,52.9063 286.7688,52.75 C286.6125,52.4844 286.3313,52.3438 286.0344,52.3438 C285.7375,52.3438 285.5344,52.4375 285.3156,52.75 L285.1438,52.6719 Z "/><text fill="#000000" font-family="sans-serif" font-size="12" lengthAdjust="spacingAndGlyphs" textLength="70" x="303.2" y="61.1543">Mastermind</text><line style="stroke: #A80036; stroke-width: 1.5;" x1="240" x2="404" y1="73" y2="73"/><rect fill="none" height="6" style="stroke: #C82930; stroke-width: 1.0;" width="6" x="247" y="81"/><text fill="#000000" font-family="sans-serif" font-size="11" lengthAdjust="spacingAndGlyphs" textLength="75" x="259" y="87.2104">game: Game</text><rect fill="none" height="6" style="stroke: #C82930; stroke-width: 1.0;" width="6" x="247" y="93.8047"/><text fill="#000000" font-family="sans-serif" font-size="11" lengthAdjust="spacingAndGlyphs" textLength="62" x="259" y="100.0151">view: View</text><line style="stroke: #A80036; stroke-width: 1.5;" x1="240" x2="404" y1="106.6094" y2="106.6094"/><polygon fill="#4177AF" points="250,113.6094,246,119.6094,254,119.6094" style="stroke: #1963A0; stroke-width: 1.0;"/><text fill="#000000" font-family="sans-serif" font-size="11" lengthAdjust="spacingAndGlyphs" textLength="74" x="259" y="120.8198">Mastermind()</text><polygon fill="#4177AF" points="250,126.4141,246,132.4141,254,132.4141" style="stroke: #1963A0; stroke-width: 1.0;"/><text fill="#000000" font-family="sans-serif" font-size="11" font-style="italic" lengthAdjust="spacingAndGlyphs" textLength="140" x="259" y="133.6245">createView(Game): View</text><polygon fill="#4177AF" points="250,139.2188,246,145.2188,254,145.2188" style="stroke: #1963A0; stroke-width: 1.0;"/><text fill="#000000" font-family="sans-serif" font-size="11" lengthAdjust="spacingAndGlyphs" textLength="32" x="259" y="146.4292">play()</text><!--MD5=[e3ccb0142e457ddb33bd230b9167ec6f]
class usantatecla.mastermind.GraphicsMastermind--><rect codeLine="8" fill="#FEFECE" filter="url(#f1sngkh5js5znx)" height="86.4141" id="usantatecla.mastermind.GraphicsMastermind" style="stroke: #A80036; stroke-width: 1.5;" width="169" x="236.5" y="213"/><ellipse cx="257.8" cy="229" fill="#ADD1B2" rx="11" ry="11" style="stroke: #A80036; stroke-width: 1.0;"/><path d="M260.1438,224.6719 C259.2063,224.2344 258.6125,224.0938 257.7375,224.0938 C255.1125,224.0938 253.1125,226.1719 253.1125,228.8906 L253.1125,230.0156 C253.1125,232.5938 255.2219,234.4844 258.1125,234.4844 C259.3313,234.4844 260.4875,234.1875 261.2375,233.6406 C261.8156,233.2344 262.1438,232.7813 262.1438,232.3906 C262.1438,231.9375 261.7531,231.5469 261.2844,231.5469 C261.0656,231.5469 260.8625,231.625 260.675,231.8125 C260.2219,232.2969 260.2219,232.2969 260.0344,232.3906 C259.6125,232.6563 258.925,232.7813 258.1594,232.7813 C256.1125,232.7813 254.8156,231.6875 254.8156,229.9844 L254.8156,228.8906 C254.8156,227.1094 256.0656,225.7969 257.8,225.7969 C258.3781,225.7969 258.9875,225.9531 259.4563,226.2031 C259.9406,226.4844 260.1125,226.7031 260.2063,227.1094 C260.2688,227.5156 260.3,227.6406 260.4406,227.7656 C260.5813,227.9063 260.8156,228.0156 261.0344,228.0156 C261.3,228.0156 261.5656,227.875 261.7375,227.6563 C261.8469,227.5 261.8781,227.3125 261.8781,226.8906 L261.8781,225.4688 C261.8781,225.0313 261.8625,224.9063 261.7688,224.75 C261.6125,224.4844 261.3313,224.3438 261.0344,224.3438 C260.7375,224.3438 260.5344,224.4375 260.3156,224.75 L260.1438,224.6719 Z "/><text fill="#000000" font-family="sans-serif" font-size="12" lengthAdjust="spacingAndGlyphs" textLength="123" x="273.2" y="233.1543">GraphicsMastermind</text><line style="stroke: #A80036; stroke-width: 1.5;" x1="237.5" x2="404.5" y1="245" y2="245"/><line style="stroke: #A80036; stroke-width: 1.5;" x1="237.5" x2="404.5" y1="253" y2="253"/><ellipse cx="247.5" cy="264" fill="#84BE84" rx="3" ry="3" style="stroke: #038048; stroke-width: 1.0;"/><text fill="#000000" font-family="sans-serif" font-size="11" lengthAdjust="spacingAndGlyphs" textLength="123" x="256.5" y="267.2104">GraphicsMastermind()</text><ellipse cx="247.5" cy="276.8047" fill="#84BE84" rx="3" ry="3" style="stroke: #038048; stroke-width: 1.0;"/><text fill="#000000" font-family="sans-serif" font-size="11" lengthAdjust="spacingAndGlyphs" text-decoration="underline" textLength="77" x="256.5" y="280.0151">main(String[])</text><polygon fill="#4177AF" points="247.5,285.6094,243.5,291.6094,251.5,291.6094" style="stroke: #1963A0; stroke-width: 1.0;"/><text fill="#000000" font-family="sans-serif" font-size="11" lengthAdjust="spacingAndGlyphs" textLength="143" x="256.5" y="292.8198">createView(Game): View</text><!--MD5=[c045e12321b83266d36d22b9096c24ea]
class View--><rect codeLine="23" fill="#FEFECE" filter="url(#f1sngkh5js5znx)" height="48" id="View" style="stroke: #A80036; stroke-width: 1.5;" width="244" x="441" y="232"/><ellipse cx="456" cy="248" fill="#ADD1B2" rx="11" ry="11" style="stroke: #A80036; stroke-width: 1.0;"/><path d="M458.3438,243.6719 C457.4063,243.2344 456.8125,243.0938 455.9375,243.0938 C453.3125,243.0938 451.3125,245.1719 451.3125,247.8906 L451.3125,249.0156 C451.3125,251.5938 453.4219,253.4844 456.3125,253.4844 C457.5313,253.4844 458.6875,253.1875 459.4375,252.6406 C460.0156,252.2344 460.3438,251.7813 460.3438,251.3906 C460.3438,250.9375 459.9531,250.5469 459.4844,250.5469 C459.2656,250.5469 459.0625,250.625 458.875,250.8125 C458.4219,251.2969 458.4219,251.2969 458.2344,251.3906 C457.8125,251.6563 457.125,251.7813 456.3594,251.7813 C454.3125,251.7813 453.0156,250.6875 453.0156,248.9844 L453.0156,247.8906 C453.0156,246.1094 454.2656,244.7969 456,244.7969 C456.5781,244.7969 457.1875,244.9531 457.6563,245.2031 C458.1406,245.4844 458.3125,245.7031 458.4063,246.1094 C458.4688,246.5156 458.5,246.6406 458.6406,246.7656 C458.7813,246.9063 459.0156,247.0156 459.2344,247.0156 C459.5,247.0156 459.7656,246.875 459.9375,246.6563 C460.0469,246.5 460.0781,246.3125 460.0781,245.8906 L460.0781,244.4688 C460.0781,244.0313 460.0625,243.9063 459.9688,243.75 C459.8125,243.4844 459.5313,243.3438 459.2344,243.3438 C458.9375,243.3438 458.7344,243.4375 458.5156,243.75 L458.3438,243.6719 Z "/><text fill="#000000" font-family="sans-serif" font-size="12" lengthAdjust="spacingAndGlyphs" textLength="212" x="470" y="252.1543">usantatecla.mastermind.views.View</text><line style="stroke: #A80036; stroke-width: 1.5;" x1="442" x2="684" y1="264" y2="264"/><line style="stroke: #A80036; stroke-width: 1.5;" x1="442" x2="684" y1="272" y2="272"/><!--MD5=[b6dcce5e5ef3c84b0b048d11301373dd]
class Game--><rect codeLine="27" fill="#FEFECE" filter="url(#f1sngkh5js5znx)" height="48" id="Game" style="stroke: #A80036; stroke-width: 1.5;" width="260" x="720" y="232"/><ellipse cx="735" cy="248" fill="#ADD1B2" rx="11" ry="11" style="stroke: #A80036; stroke-width: 1.0;"/><path d="M737.3438,243.6719 C736.4063,243.2344 735.8125,243.0938 734.9375,243.0938 C732.3125,243.0938 730.3125,245.1719 730.3125,247.8906 L730.3125,249.0156 C730.3125,251.5938 732.4219,253.4844 735.3125,253.4844 C736.5313,253.4844 737.6875,253.1875 738.4375,252.6406 C739.0156,252.2344 739.3438,251.7813 739.3438,251.3906 C739.3438,250.9375 738.9531,250.5469 738.4844,250.5469 C738.2656,250.5469 738.0625,250.625 737.875,250.8125 C737.4219,251.2969 737.4219,251.2969 737.2344,251.3906 C736.8125,251.6563 736.125,251.7813 735.3594,251.7813 C733.3125,251.7813 732.0156,250.6875 732.0156,248.9844 L732.0156,247.8906 C732.0156,246.1094 733.2656,244.7969 735,244.7969 C735.5781,244.7969 736.1875,244.9531 736.6563,245.2031 C737.1406,245.4844 737.3125,245.7031 737.4063,246.1094 C737.4688,246.5156 737.5,246.6406 737.6406,246.7656 C737.7813,246.9063 738.0156,247.0156 738.2344,247.0156 C738.5,247.0156 738.7656,246.875 738.9375,246.6563 C739.0469,246.5 739.0781,246.3125 739.0781,245.8906 L739.0781,244.4688 C739.0781,244.0313 739.0625,243.9063 738.9688,243.75 C738.8125,243.4844 738.5313,243.3438 738.2344,243.3438 C737.9375,243.3438 737.7344,243.4375 737.5156,243.75 L737.3438,243.6719 Z "/><text fill="#000000" font-family="sans-serif" font-size="12" lengthAdjust="spacingAndGlyphs" textLength="228" x="749" y="252.1543">usantatecla.mastermind.models.Game</text><line style="stroke: #A80036; stroke-width: 1.5;" x1="721" x2="979" y1="264" y2="264"/><line style="stroke: #A80036; stroke-width: 1.5;" x1="721" x2="979" y1="272" y2="272"/><!--MD5=[f77977e4d8b9d032efd72e44c024e507]
reverse link usantatecla.mastermind.Mastermind to usantatecla.mastermind.ConsoleMastermind--><path codeLine="6" d="M234.12,165.303 C213.044,181.445 191.125,198.231 172.028,212.857 " fill="none" id="usantatecla.mastermind.Mastermind-backto-usantatecla.mastermind.ConsoleMastermind" style="stroke: #A80036; stroke-width: 1.0;"/><polygon fill="none" points="229.878,159.735,250.013,153.132,238.391,170.85,229.878,159.735" style="stroke: #A80036; stroke-width: 1.0;"/><!--MD5=[75be7b6274e25c7c9339f824ef8f543e]
reverse link usantatecla.mastermind.Mastermind to usantatecla.mastermind.GraphicsMastermind--><path codeLine="13" d="M321.518,173.611 C321.432,187.156 321.345,200.815 321.268,212.974 " fill="none" id="usantatecla.mastermind.Mastermind-backto-usantatecla.mastermind.GraphicsMastermind" style="stroke: #A80036; stroke-width: 1.0;"/><polygon fill="none" points="314.52,173.307,321.647,153.352,328.52,173.397,314.52,173.307" style="stroke: #A80036; stroke-width: 1.0;"/><!--MD5=[a5f8ce13268a0ab6e1eb93d1cfb2a7ef]
link usantatecla.mastermind.Mastermind to View--><path codeLine="31" d="M405.276,152.25 C445.25,178.292 491.284,208.281 523.26,229.112 " fill="none" id="usantatecla.mastermind.Mastermind-to-View" style="stroke: #A80036; stroke-width: 1.0;"/><polygon fill="#A80036" points="527.481,231.8608,522.122,223.5976,523.2911,229.1323,517.7564,230.3014,527.481,231.8608" style="stroke: #A80036; stroke-width: 1.0;"/><!--MD5=[c98fbe24533c431fdf254f685bb4ac7c]
link usantatecla.mastermind.Mastermind to Game--><path codeLine="32" d="M405.081,122.704 C504.182,152.171 668.817,201.126 767.612,230.502 " fill="none" id="usantatecla.mastermind.Mastermind-to-Game" style="stroke: #A80036; stroke-width: 1.0;"/><polygon fill="#A80036" points="772.558,231.9728,765.0702,225.5749,767.7651,230.5486,762.7915,233.2434,772.558,231.9728" style="stroke: #A80036; stroke-width: 1.0;"/><!--MD5=[4c25c67bece21ed38688e33c72333349]
@startuml
class  usantatecla.mastermind.ConsoleMastermind{
+ ConsoleMastermind()
+ {static} main(String[]) 
~ createView(Game): View
}
usantatecla.mastermind.Mastermind <|-down- usantatecla.mastermind.ConsoleMastermind

class  usantatecla.mastermind.GraphicsMastermind{
+ GraphicsMastermind()
+ {static} main(String[]) 
~ createView(Game): View
}
usantatecla.mastermind.Mastermind <|-down- usantatecla.mastermind.GraphicsMastermind

class  usantatecla.mastermind.Mastermind{
- game: Game
- view: View
~ Mastermind()
~ {abstract} createView(Game): View
~ play() 
}

class View as "usantatecla.mastermind.views.View"{

}

Class Game as "usantatecla.mastermind.models.Game"{

}

usantatecla.mastermind.Mastermind - -> View
usantatecla.mastermind.Mastermind - -> Game
@enduml

PlantUML version 1.2020.20beta7(Unknown compile time)
(GPL source distribution)
Java Runtime: Java(TM) SE Runtime Environment
JVM: Java HotSpot(TM) 64-Bit Server VM
Default Encoding: UTF-8
Language: en
Country: US
--></g></svg>