<?xml version="1.0" encoding="UTF-8" standalone="no"?><svg xmlns="http://www.w3.org/2000/svg" xmlns:xlink="http://www.w3.org/1999/xlink" contentScriptType="application/ecmascript" contentStyleType="text/css" height="783px" preserveAspectRatio="none" style="width:562px;height:783px;" version="1.1" viewBox="0 0 562 783" width="562px" zoomAndPan="magnify"><defs><filter height="300%" id="fp01gopc5jebo" width="300%" x="-1" y="-1"><feGaussianBlur result="blurOut" stdDeviation="2.0"/><feColorMatrix in="blurOut" result="blurOut2" type="matrix" values="0 0 0 0 0 0 0 0 0 0 0 0 0 0 0 0 0 0 .4 0"/><feOffset dx="4.0" dy="4.0" in="blurOut2" result="blurOut3"/><feBlend in="SourceGraphic" in2="blurOut3" mode="normal"/></filter></defs><g><!--MD5=[073ce8cb2fd2a0b2556785fe35fbd544]
cluster usantatecla.mastermind.models--><polygon fill="#FFFFFF" filter="url(#fp01gopc5jebo)" points="16,6,286,6,293,28.2969,545,28.2969,545,776,16,776,16,6" style="stroke: #000000; stroke-width: 1.5;"/><line style="stroke: #000000; stroke-width: 1.5;" x1="16" x2="293" y1="28.2969" y2="28.2969"/><text fill="#000000" font-family="sans-serif" font-size="14" font-weight="bold" lengthAdjust="spacingAndGlyphs" textLength="264" x="20" y="20.9951">usantatecla.mastermind.models</text><!--MD5=[9e4d1129e603bd228b5a29156e32a6b6]
class usantatecla.mastermind.models.Color--><rect codeLine="1" fill="#FEFECE" filter="url(#fp01gopc5jebo)" height="137.6328" id="usantatecla.mastermind.models.Color" style="stroke: #A80036; stroke-width: 1.5;" width="91" x="242.5" y="622"/><ellipse cx="269.65" cy="638" fill="#EB937F" rx="11" ry="11" style="stroke: #A80036; stroke-width: 1.0;"/><path d="M268.4469,638.875 L269.9,638.875 L269.9,638.9844 C269.9,639.3906 269.9313,639.5469 270.0094,639.7031 C270.1656,639.9531 270.4469,640.1094 270.7438,640.1094 C270.9938,640.1094 271.2594,639.9688 271.4156,639.75 C271.5406,639.5938 271.5719,639.4375 271.5719,638.9844 L271.5719,637.0625 C271.5719,636.9063 271.5719,636.8594 271.5563,636.7031 C271.4938,636.2344 271.1813,635.9219 270.7281,635.9219 C270.4781,635.9219 270.2125,636.0625 270.0406,636.2813 C269.9313,636.4531 269.9,636.6094 269.9,637.0625 L269.9,637.1875 L268.4469,637.1875 L268.4469,634.7813 L272.4313,634.7813 L272.4313,635.6406 C272.4313,636.0469 272.4625,636.2188 272.5406,636.375 C272.7125,636.625 272.9938,636.7813 273.275,636.7813 C273.5406,636.7813 273.8063,636.6406 273.9781,636.4219 C274.0875,636.25 274.1188,636.1094 274.1188,635.6406 L274.1188,633.0938 L266.4938,633.0938 C266.0563,633.0938 265.9313,633.1094 265.775,633.2031 C265.525,633.3594 265.3688,633.6563 265.3688,633.9375 C265.3688,634.2188 265.5094,634.4688 265.7281,634.6406 C265.8844,634.75 266.0719,634.7813 266.4938,634.7813 L266.7438,634.7813 L266.7438,641.2969 L266.4938,641.2969 C266.0875,641.2969 265.9313,641.3125 265.775,641.4219 C265.525,641.5938 265.3688,641.8594 265.3688,642.1563 C265.3688,642.4219 265.5094,642.6719 265.7281,642.8281 C265.8688,642.9531 266.1031,643 266.4938,643 L274.4938,643 L274.4938,640.4219 C274.4938,639.9844 274.4625,639.8438 274.3844,639.6875 C274.2125,639.4375 273.9313,639.2813 273.65,639.2813 C273.3844,639.2813 273.1188,639.3906 272.9469,639.6406 C272.8375,639.7969 272.8063,639.9375 272.8063,640.4219 L272.8063,641.2969 L268.4469,641.2969 L268.4469,638.875 Z "/><text fill="#000000" font-family="sans-serif" font-size="12" lengthAdjust="spacingAndGlyphs" textLength="32" x="286.35" y="642.1543">Color</text><line style="stroke: #A80036; stroke-width: 1.5;" x1="243.5" x2="332.5" y1="654" y2="654"/><ellipse cx="253.5" cy="665" fill="none" rx="3" ry="3" style="stroke: #038048; stroke-width: 1.0;"/><text fill="#000000" font-family="sans-serif" font-size="11" lengthAdjust="spacingAndGlyphs" textLength="23" x="262.5" y="668.2104">RED</text><ellipse cx="253.5" cy="677.8047" fill="none" rx="3" ry="3" style="stroke: #038048; stroke-width: 1.0;"/><text fill="#000000" font-family="sans-serif" font-size="11" lengthAdjust="spacingAndGlyphs" textLength="29" x="262.5" y="681.0151">BLUE</text><ellipse cx="253.5" cy="690.6094" fill="none" rx="3" ry="3" style="stroke: #038048; stroke-width: 1.0;"/><text fill="#000000" font-family="sans-serif" font-size="11" lengthAdjust="spacingAndGlyphs" textLength="46" x="262.5" y="693.8198">YELLOW</text><ellipse cx="253.5" cy="703.4141" fill="none" rx="3" ry="3" style="stroke: #038048; stroke-width: 1.0;"/><text fill="#000000" font-family="sans-serif" font-size="11" lengthAdjust="spacingAndGlyphs" textLength="38" x="262.5" y="706.6245">GREEN</text><ellipse cx="253.5" cy="716.2188" fill="none" rx="3" ry="3" style="stroke: #038048; stroke-width: 1.0;"/><text fill="#000000" font-family="sans-serif" font-size="11" lengthAdjust="spacingAndGlyphs" textLength="48" x="262.5" y="719.4292">ORANGE</text><ellipse cx="253.5" cy="729.0234" fill="none" rx="3" ry="3" style="stroke: #038048; stroke-width: 1.0;"/><text fill="#000000" font-family="sans-serif" font-size="11" lengthAdjust="spacingAndGlyphs" textLength="40" x="262.5" y="732.2339">PURPLE</text><line style="stroke: #A80036; stroke-width: 1.5;" x1="243.5" x2="332.5" y1="738.8281" y2="738.8281"/><polygon fill="#4177AF" points="253.5,745.8281,249.5,751.8281,257.5,751.8281" style="stroke: #1963A0; stroke-width: 1.0;"/><text fill="#000000" font-family="sans-serif" font-size="11" lengthAdjust="spacingAndGlyphs" text-decoration="underline" textLength="65" x="262.5" y="753.0386">length(): int</text><!--MD5=[9e09d6096b99d1406435ac08840c9240]
class usantatecla.mastermind.models.Combination--><rect codeLine="11" fill="#FEFECE" filter="url(#fp01gopc5jebo)" height="99.2188" id="usantatecla.mastermind.models.Combination" style="stroke: #A80036; stroke-width: 1.5;" width="132" x="397" y="92.5"/><ellipse cx="422.8" cy="108.5" fill="#A9DCDF" rx="11" ry="11" style="stroke: #A80036; stroke-width: 1.0;"/><path d="M424.8781,110.3125 L425.2688,111.2969 L424.8781,111.2969 C424.425,111.2969 424.3156,111.3125 424.1594,111.4219 C423.9094,111.5781 423.7531,111.8594 423.7531,112.1563 C423.7531,112.4219 423.8938,112.6719 424.1125,112.8281 C424.2531,112.9531 424.4563,113 424.8781,113 L427.2375,113 C427.5969,113 427.8156,112.9688 427.9563,112.875 C428.2063,112.7344 428.3625,112.4375 428.3625,112.1563 C428.3625,111.875 428.2219,111.625 428.0031,111.4688 C427.8313,111.3281 427.675,111.2969 427.2063,111.2969 L423.8156,103.0938 L420.1438,103.0938 C419.6906,103.0938 419.5656,103.1094 419.4094,103.2031 C419.1594,103.375 419.0031,103.6563 419.0031,103.9375 C419.0031,104.2188 419.1438,104.4688 419.3625,104.6406 C419.5344,104.75 419.7063,104.7813 420.1438,104.7813 L421.2219,104.7813 L418.5813,111.2969 C418.1594,111.2969 418.0031,111.3125 417.8469,111.4219 C417.5969,111.5781 417.4406,111.8594 417.4406,112.1563 C417.4406,112.7188 417.8156,113 418.5656,113 L420.8313,113 C421.1906,113 421.4094,112.9688 421.5344,112.875 C421.8,112.7344 421.9406,112.4375 421.9406,112.1563 C421.9406,111.875 421.8156,111.625 421.5969,111.4531 C421.425,111.3281 421.2844,111.2969 420.8313,111.2969 L420.4406,111.2969 L420.8313,110.3125 L424.8781,110.3125 Z M424.175,108.6094 L421.5031,108.6094 L422.8469,105.3438 L424.175,108.6094 Z "/><text fill="#000000" font-family="sans-serif" font-size="12" font-style="italic" lengthAdjust="spacingAndGlyphs" textLength="76" x="439.2" y="112.6543">Combination</text><line style="stroke: #A80036; stroke-width: 1.5;" x1="398" x2="528" y1="124.5" y2="124.5"/><rect fill="none" height="6" style="stroke: #C82930; stroke-width: 1.0;" width="6" x="405" y="132.5"/><text fill="#000000" font-family="sans-serif" font-size="11" lengthAdjust="spacingAndGlyphs" text-decoration="underline" textLength="59" x="417" y="138.7104">WIDTH: int</text><polygon fill="none" points="408,144.3047,404,150.3047,412,150.3047" style="stroke: #1963A0; stroke-width: 1.0;"/><text fill="#000000" font-family="sans-serif" font-size="11" lengthAdjust="spacingAndGlyphs" textLength="106" x="417" y="151.5151">colors: List&lt;Color&gt;</text><line style="stroke: #A80036; stroke-width: 1.5;" x1="398" x2="528" y1="158.1094" y2="158.1094"/><polygon fill="#4177AF" points="408,165.1094,404,171.1094,412,171.1094" style="stroke: #1963A0; stroke-width: 1.0;"/><text fill="#000000" font-family="sans-serif" font-size="11" lengthAdjust="spacingAndGlyphs" textLength="79" x="417" y="172.3198">Combination()</text><ellipse cx="408" cy="181.9141" fill="#84BE84" rx="3" ry="3" style="stroke: #038048; stroke-width: 1.0;"/><text fill="#000000" font-family="sans-serif" font-size="11" lengthAdjust="spacingAndGlyphs" text-decoration="underline" textLength="80" x="417" y="185.1245">getWidth(): int</text><!--MD5=[05ebf8e4d33ec5537e6bfd99b097e1b4]
class usantatecla.mastermind.models.Error--><rect codeLine="19" fill="#FEFECE" filter="url(#fp01gopc5jebo)" height="86.4141" id="usantatecla.mastermind.models.Error" style="stroke: #A80036; stroke-width: 1.5;" width="152" x="369" y="648"/><ellipse cx="425.75" cy="664" fill="#EB937F" rx="11" ry="11" style="stroke: #A80036; stroke-width: 1.0;"/><path d="M424.5469,664.875 L426,664.875 L426,664.9844 C426,665.3906 426.0313,665.5469 426.1094,665.7031 C426.2656,665.9531 426.5469,666.1094 426.8438,666.1094 C427.0938,666.1094 427.3594,665.9688 427.5156,665.75 C427.6406,665.5938 427.6719,665.4375 427.6719,664.9844 L427.6719,663.0625 C427.6719,662.9063 427.6719,662.8594 427.6563,662.7031 C427.5938,662.2344 427.2813,661.9219 426.8281,661.9219 C426.5781,661.9219 426.3125,662.0625 426.1406,662.2813 C426.0313,662.4531 426,662.6094 426,663.0625 L426,663.1875 L424.5469,663.1875 L424.5469,660.7813 L428.5313,660.7813 L428.5313,661.6406 C428.5313,662.0469 428.5625,662.2188 428.6406,662.375 C428.8125,662.625 429.0938,662.7813 429.375,662.7813 C429.6406,662.7813 429.9063,662.6406 430.0781,662.4219 C430.1875,662.25 430.2188,662.1094 430.2188,661.6406 L430.2188,659.0938 L422.5938,659.0938 C422.1563,659.0938 422.0313,659.1094 421.875,659.2031 C421.625,659.3594 421.4688,659.6563 421.4688,659.9375 C421.4688,660.2188 421.6094,660.4688 421.8281,660.6406 C421.9844,660.75 422.1719,660.7813 422.5938,660.7813 L422.8438,660.7813 L422.8438,667.2969 L422.5938,667.2969 C422.1875,667.2969 422.0313,667.3125 421.875,667.4219 C421.625,667.5938 421.4688,667.8594 421.4688,668.1563 C421.4688,668.4219 421.6094,668.6719 421.8281,668.8281 C421.9688,668.9531 422.2031,669 422.5938,669 L430.5938,669 L430.5938,666.4219 C430.5938,665.9844 430.5625,665.8438 430.4844,665.6875 C430.3125,665.4375 430.0313,665.2813 429.75,665.2813 C429.4844,665.2813 429.2188,665.3906 429.0469,665.6406 C428.9375,665.7969 428.9063,665.9375 428.9063,666.4219 L428.9063,667.2969 L424.5469,667.2969 L424.5469,664.875 Z "/><text fill="#000000" font-family="sans-serif" font-size="12" lengthAdjust="spacingAndGlyphs" textLength="30" x="446.25" y="668.1543">Error</text><line style="stroke: #A80036; stroke-width: 1.5;" x1="370" x2="520" y1="680" y2="680"/><ellipse cx="380" cy="691" fill="none" rx="3" ry="3" style="stroke: #038048; stroke-width: 1.0;"/><text fill="#000000" font-family="sans-serif" font-size="11" lengthAdjust="spacingAndGlyphs" textLength="71" x="389" y="694.2104">DUPLICATED</text><ellipse cx="380" cy="703.8047" fill="none" rx="3" ry="3" style="stroke: #038048; stroke-width: 1.0;"/><text fill="#000000" font-family="sans-serif" font-size="11" lengthAdjust="spacingAndGlyphs" textLength="126" x="389" y="707.0151">WRONG_CHARACTERS</text><ellipse cx="380" cy="716.6094" fill="none" rx="3" ry="3" style="stroke: #038048; stroke-width: 1.0;"/><text fill="#000000" font-family="sans-serif" font-size="11" lengthAdjust="spacingAndGlyphs" textLength="95" x="389" y="719.8198">WRONG_LENGTH</text><line style="stroke: #A80036; stroke-width: 1.5;" x1="370" x2="520" y1="726.4141" y2="726.4141"/><!--MD5=[133b2a20d5a8d4980692cee85e8c0684]
class usantatecla.mastermind.models.Game--><rect codeLine="25" fill="#FEFECE" filter="url(#fp01gopc5jebo)" height="201.6563" id="usantatecla.mastermind.models.Game" style="stroke: #A80036; stroke-width: 1.5;" width="329" x="32.5" y="41"/><ellipse cx="175.25" cy="57" fill="#ADD1B2" rx="11" ry="11" style="stroke: #A80036; stroke-width: 1.0;"/><path d="M177.5938,52.6719 C176.6563,52.2344 176.0625,52.0938 175.1875,52.0938 C172.5625,52.0938 170.5625,54.1719 170.5625,56.8906 L170.5625,58.0156 C170.5625,60.5938 172.6719,62.4844 175.5625,62.4844 C176.7813,62.4844 177.9375,62.1875 178.6875,61.6406 C179.2656,61.2344 179.5938,60.7813 179.5938,60.3906 C179.5938,59.9375 179.2031,59.5469 178.7344,59.5469 C178.5156,59.5469 178.3125,59.625 178.125,59.8125 C177.6719,60.2969 177.6719,60.2969 177.4844,60.3906 C177.0625,60.6563 176.375,60.7813 175.6094,60.7813 C173.5625,60.7813 172.2656,59.6875 172.2656,57.9844 L172.2656,56.8906 C172.2656,55.1094 173.5156,53.7969 175.25,53.7969 C175.8281,53.7969 176.4375,53.9531 176.9063,54.2031 C177.3906,54.4844 177.5625,54.7031 177.6563,55.1094 C177.7188,55.5156 177.75,55.6406 177.8906,55.7656 C178.0313,55.9063 178.2656,56.0156 178.4844,56.0156 C178.75,56.0156 179.0156,55.875 179.1875,55.6563 C179.2969,55.5 179.3281,55.3125 179.3281,54.8906 L179.3281,53.4688 C179.3281,53.0313 179.3125,52.9063 179.2188,52.75 C179.0625,52.4844 178.7813,52.3438 178.4844,52.3438 C178.1875,52.3438 177.9844,52.4375 177.7656,52.75 L177.5938,52.6719 Z "/><text fill="#000000" font-family="sans-serif" font-size="12" lengthAdjust="spacingAndGlyphs" textLength="35" x="195.75" y="61.1543">Game</text><line style="stroke: #A80036; stroke-width: 1.5;" x1="33.5" x2="360.5" y1="73" y2="73"/><rect fill="none" height="6" style="stroke: #C82930; stroke-width: 1.0;" width="6" x="40.5" y="81"/><text fill="#000000" font-family="sans-serif" font-size="11" lengthAdjust="spacingAndGlyphs" text-decoration="underline" textLength="84" x="52.5" y="87.2104">MAX_LONG: int</text><rect fill="none" height="6" style="stroke: #C82930; stroke-width: 1.0;" width="6" x="40.5" y="93.8047"/><text fill="#000000" font-family="sans-serif" font-size="11" lengthAdjust="spacingAndGlyphs" textLength="303" x="52.5" y="100.0151">proposedCombinations: List&lt;ProposedCombinations&gt;</text><rect fill="none" height="6" style="stroke: #C82930; stroke-width: 1.0;" width="6" x="40.5" y="106.6094"/><text fill="#000000" font-family="sans-serif" font-size="11" lengthAdjust="spacingAndGlyphs" textLength="117" x="52.5" y="112.8198">results: List&lt;Result&gt;</text><rect fill="none" height="6" style="stroke: #C82930; stroke-width: 1.0;" width="6" x="40.5" y="119.4141"/><text fill="#000000" font-family="sans-serif" font-size="11" lengthAdjust="spacingAndGlyphs" textLength="72" x="52.5" y="125.6245">attempts: int</text><line style="stroke: #A80036; stroke-width: 1.5;" x1="33.5" x2="360.5" y1="132.2188" y2="132.2188"/><ellipse cx="43.5" cy="143.2188" fill="#84BE84" rx="3" ry="3" style="stroke: #038048; stroke-width: 1.0;"/><text fill="#000000" font-family="sans-serif" font-size="11" lengthAdjust="spacingAndGlyphs" textLength="43" x="52.5" y="146.4292">Game()</text><ellipse cx="43.5" cy="156.0234" fill="#84BE84" rx="3" ry="3" style="stroke: #038048; stroke-width: 1.0;"/><text fill="#000000" font-family="sans-serif" font-size="11" lengthAdjust="spacingAndGlyphs" textLength="36" x="52.5" y="159.2339">clear()</text><ellipse cx="43.5" cy="168.8281" fill="#84BE84" rx="3" ry="3" style="stroke: #038048; stroke-width: 1.0;"/><text fill="#000000" font-family="sans-serif" font-size="11" lengthAdjust="spacingAndGlyphs" textLength="268" x="52.5" y="172.0386">addProposeCombination(ProposedCombination)</text><ellipse cx="43.5" cy="181.6328" fill="#84BE84" rx="3" ry="3" style="stroke: #038048; stroke-width: 1.0;"/><text fill="#000000" font-family="sans-serif" font-size="11" lengthAdjust="spacingAndGlyphs" textLength="108" x="52.5" y="184.8433">isLooser(): boolean</text><ellipse cx="43.5" cy="194.4375" fill="#84BE84" rx="3" ry="3" style="stroke: #038048; stroke-width: 1.0;"/><text fill="#000000" font-family="sans-serif" font-size="11" lengthAdjust="spacingAndGlyphs" textLength="110" x="52.5" y="197.6479">isWinner(): boolean</text><ellipse cx="43.5" cy="207.2422" fill="#84BE84" rx="3" ry="3" style="stroke: #038048; stroke-width: 1.0;"/><text fill="#000000" font-family="sans-serif" font-size="11" lengthAdjust="spacingAndGlyphs" textLength="100" x="52.5" y="210.4526">getAttempts(): int</text><ellipse cx="43.5" cy="220.0469" fill="#84BE84" rx="3" ry="3" style="stroke: #038048; stroke-width: 1.0;"/><text fill="#000000" font-family="sans-serif" font-size="11" lengthAdjust="spacingAndGlyphs" textLength="294" x="52.5" y="223.2573">getProposedCombination(int): ProposedCombination</text><ellipse cx="43.5" cy="232.8516" fill="#84BE84" rx="3" ry="3" style="stroke: #038048; stroke-width: 1.0;"/><text fill="#000000" font-family="sans-serif" font-size="11" lengthAdjust="spacingAndGlyphs" textLength="118" x="52.5" y="236.062">getResult(int): Result</text><!--MD5=[a212aeeb69ab78e602f8fa1f3e5ba19f]
class usantatecla.mastermind.models.SecretCombination--><rect codeLine="63" fill="#FEFECE" filter="url(#fp01gopc5jebo)" height="73.6094" id="usantatecla.mastermind.models.SecretCombination" style="stroke: #A80036; stroke-width: 1.5;" width="239" x="82.5" y="303"/><ellipse cx="140.75" cy="319" fill="#ADD1B2" rx="11" ry="11" style="stroke: #A80036; stroke-width: 1.0;"/><path d="M143.0938,314.6719 C142.1563,314.2344 141.5625,314.0938 140.6875,314.0938 C138.0625,314.0938 136.0625,316.1719 136.0625,318.8906 L136.0625,320.0156 C136.0625,322.5938 138.1719,324.4844 141.0625,324.4844 C142.2813,324.4844 143.4375,324.1875 144.1875,323.6406 C144.7656,323.2344 145.0938,322.7813 145.0938,322.3906 C145.0938,321.9375 144.7031,321.5469 144.2344,321.5469 C144.0156,321.5469 143.8125,321.625 143.625,321.8125 C143.1719,322.2969 143.1719,322.2969 142.9844,322.3906 C142.5625,322.6563 141.875,322.7813 141.1094,322.7813 C139.0625,322.7813 137.7656,321.6875 137.7656,319.9844 L137.7656,318.8906 C137.7656,317.1094 139.0156,315.7969 140.75,315.7969 C141.3281,315.7969 141.9375,315.9531 142.4063,316.2031 C142.8906,316.4844 143.0625,316.7031 143.1563,317.1094 C143.2188,317.5156 143.25,317.6406 143.3906,317.7656 C143.5313,317.9063 143.7656,318.0156 143.9844,318.0156 C144.25,318.0156 144.5156,317.875 144.6875,317.6563 C144.7969,317.5 144.8281,317.3125 144.8281,316.8906 L144.8281,315.4688 C144.8281,315.0313 144.8125,314.9063 144.7188,314.75 C144.5625,314.4844 144.2813,314.3438 143.9844,314.3438 C143.6875,314.3438 143.4844,314.4375 143.2656,314.75 L143.0938,314.6719 Z "/><text fill="#000000" font-family="sans-serif" font-size="12" lengthAdjust="spacingAndGlyphs" textLength="114" x="161.25" y="323.1543">SecretCombination</text><line style="stroke: #A80036; stroke-width: 1.5;" x1="83.5" x2="320.5" y1="335" y2="335"/><line style="stroke: #A80036; stroke-width: 1.5;" x1="83.5" x2="320.5" y1="343" y2="343"/><text fill="#000000" font-family="sans-serif" font-size="11" lengthAdjust="spacingAndGlyphs" textLength="117" x="88.5" y="357.2104">SecretCombination()</text><text fill="#000000" font-family="sans-serif" font-size="11" lengthAdjust="spacingAndGlyphs" textLength="227" x="88.5" y="370.0151">getResult(ProposedCombination): Result</text><!--MD5=[f33d10797af0f3b71126f0e937fc2775]
class usantatecla.mastermind.models.Result--><rect codeLine="52" fill="#FEFECE" filter="url(#fp01gopc5jebo)" height="124.8281" id="usantatecla.mastermind.models.Result" style="stroke: #A80036; stroke-width: 1.5;" width="136" x="49" y="437"/><ellipse cx="94.75" cy="453" fill="#ADD1B2" rx="11" ry="11" style="stroke: #A80036; stroke-width: 1.0;"/><path d="M97.0938,448.6719 C96.1563,448.2344 95.5625,448.0938 94.6875,448.0938 C92.0625,448.0938 90.0625,450.1719 90.0625,452.8906 L90.0625,454.0156 C90.0625,456.5938 92.1719,458.4844 95.0625,458.4844 C96.2813,458.4844 97.4375,458.1875 98.1875,457.6406 C98.7656,457.2344 99.0938,456.7813 99.0938,456.3906 C99.0938,455.9375 98.7031,455.5469 98.2344,455.5469 C98.0156,455.5469 97.8125,455.625 97.625,455.8125 C97.1719,456.2969 97.1719,456.2969 96.9844,456.3906 C96.5625,456.6563 95.875,456.7813 95.1094,456.7813 C93.0625,456.7813 91.7656,455.6875 91.7656,453.9844 L91.7656,452.8906 C91.7656,451.1094 93.0156,449.7969 94.75,449.7969 C95.3281,449.7969 95.9375,449.9531 96.4063,450.2031 C96.8906,450.4844 97.0625,450.7031 97.1563,451.1094 C97.2188,451.5156 97.25,451.6406 97.3906,451.7656 C97.5313,451.9063 97.7656,452.0156 97.9844,452.0156 C98.25,452.0156 98.5156,451.875 98.6875,451.6563 C98.7969,451.5 98.8281,451.3125 98.8281,450.8906 L98.8281,449.4688 C98.8281,449.0313 98.8125,448.9063 98.7188,448.75 C98.5625,448.4844 98.2813,448.3438 97.9844,448.3438 C97.6875,448.3438 97.4844,448.4375 97.2656,448.75 L97.0938,448.6719 Z "/><text fill="#000000" font-family="sans-serif" font-size="12" lengthAdjust="spacingAndGlyphs" textLength="36" x="115.25" y="457.1543">Result</text><line style="stroke: #A80036; stroke-width: 1.5;" x1="50" x2="184" y1="469" y2="469"/><rect fill="none" height="6" style="stroke: #C82930; stroke-width: 1.0;" width="6" x="57" y="477"/><text fill="#000000" font-family="sans-serif" font-size="11" lengthAdjust="spacingAndGlyphs" textLength="56" x="69" y="483.2104">blacks: int</text><rect fill="none" height="6" style="stroke: #C82930; stroke-width: 1.0;" width="6" x="57" y="489.8047"/><text fill="#000000" font-family="sans-serif" font-size="11" lengthAdjust="spacingAndGlyphs" textLength="58" x="69" y="496.0151">whites: int</text><line style="stroke: #A80036; stroke-width: 1.5;" x1="50" x2="184" y1="502.6094" y2="502.6094"/><text fill="#000000" font-family="sans-serif" font-size="11" lengthAdjust="spacingAndGlyphs" textLength="78" x="69" y="516.8198">Result(int, int)</text><text fill="#000000" font-family="sans-serif" font-size="11" lengthAdjust="spacingAndGlyphs" textLength="110" x="69" y="529.6245">isWinner(): boolean</text><ellipse cx="60" cy="539.2188" fill="#84BE84" rx="3" ry="3" style="stroke: #038048; stroke-width: 1.0;"/><text fill="#000000" font-family="sans-serif" font-size="11" lengthAdjust="spacingAndGlyphs" textLength="84" x="69" y="542.4292">getBlacks(): int</text><ellipse cx="60" cy="552.0234" fill="#84BE84" rx="3" ry="3" style="stroke: #038048; stroke-width: 1.0;"/><text fill="#000000" font-family="sans-serif" font-size="11" lengthAdjust="spacingAndGlyphs" textLength="87" x="69" y="555.2339">getWhites(): int</text><!--MD5=[29c0d014c840bf5e3383a02197df5a5a]
class usantatecla.mastermind.models.ProposedCombination--><rect codeLine="43" fill="#FEFECE" filter="url(#fp01gopc5jebo)" height="86.4141" id="usantatecla.mastermind.models.ProposedCombination" style="stroke: #A80036; stroke-width: 1.5;" width="184" x="345" y="456.5"/><ellipse cx="369" cy="472.5" fill="#ADD1B2" rx="11" ry="11" style="stroke: #A80036; stroke-width: 1.0;"/><path d="M371.3438,468.1719 C370.4063,467.7344 369.8125,467.5938 368.9375,467.5938 C366.3125,467.5938 364.3125,469.6719 364.3125,472.3906 L364.3125,473.5156 C364.3125,476.0938 366.4219,477.9844 369.3125,477.9844 C370.5313,477.9844 371.6875,477.6875 372.4375,477.1406 C373.0156,476.7344 373.3438,476.2813 373.3438,475.8906 C373.3438,475.4375 372.9531,475.0469 372.4844,475.0469 C372.2656,475.0469 372.0625,475.125 371.875,475.3125 C371.4219,475.7969 371.4219,475.7969 371.2344,475.8906 C370.8125,476.1563 370.125,476.2813 369.3594,476.2813 C367.3125,476.2813 366.0156,475.1875 366.0156,473.4844 L366.0156,472.3906 C366.0156,470.6094 367.2656,469.2969 369,469.2969 C369.5781,469.2969 370.1875,469.4531 370.6563,469.7031 C371.1406,469.9844 371.3125,470.2031 371.4063,470.6094 C371.4688,471.0156 371.5,471.1406 371.6406,471.2656 C371.7813,471.4063 372.0156,471.5156 372.2344,471.5156 C372.5,471.5156 372.7656,471.375 372.9375,471.1563 C373.0469,471 373.0781,470.8125 373.0781,470.3906 L373.0781,468.9688 C373.0781,468.5313 373.0625,468.4063 372.9688,468.25 C372.8125,467.9844 372.5313,467.8438 372.2344,467.8438 C371.9375,467.8438 371.7344,467.9375 371.5156,468.25 L371.3438,468.1719 Z "/><text fill="#000000" font-family="sans-serif" font-size="12" lengthAdjust="spacingAndGlyphs" textLength="132" x="385" y="476.6543">ProposedCombination</text><line style="stroke: #A80036; stroke-width: 1.5;" x1="346" x2="528" y1="488.5" y2="488.5"/><line style="stroke: #A80036; stroke-width: 1.5;" x1="346" x2="528" y1="496.5" y2="496.5"/><text fill="#000000" font-family="sans-serif" font-size="11" lengthAdjust="spacingAndGlyphs" textLength="158" x="365" y="510.7104">contains(Color, int): boolean</text><text fill="#000000" font-family="sans-serif" font-size="11" lengthAdjust="spacingAndGlyphs" textLength="137" x="365" y="523.5151">contains(Color): boolean</text><ellipse cx="356" cy="533.1094" fill="#84BE84" rx="3" ry="3" style="stroke: #038048; stroke-width: 1.0;"/><text fill="#000000" font-family="sans-serif" font-size="11" lengthAdjust="spacingAndGlyphs" textLength="135" x="365" y="536.3198">getColors(): List&lt;Color&gt;</text><!--MD5=[6ebd3315cbeaf18b4e0f9c8a5569f687]
link usantatecla.mastermind.models.Combination to usantatecla.mastermind.models.Color--><path codeLine="17" d="M429.6491,202.0728 C429.6491,202.0728 352.501,352.505 327,437 C310.085,493.046 300.252,558.402 294.69,608.647 " fill="none" id="usantatecla.mastermind.models.Combination-usantatecla.mastermind.models.Color" style="stroke: #A80036; stroke-width: 1.0;"/><polygon fill="#A80036" points="293.3,621.738,298.2281,613.2108,293.828,616.766,290.2728,612.3659,293.3,621.738" style="stroke: #A80036; stroke-width: 1.0;"/><line style="stroke: #A80036; stroke-width: 1.0;" x1="293.828" x2="294.6735" y1="616.766" y2="608.8105"/><polygon fill="#A80036" points="435.375,191.527,428.9968,194.8913,429.6491,202.0728,436.0273,198.7085,435.375,191.527" style="stroke: #A80036; stroke-width: 1.0;"/><text fill="#000000" font-family="sans-serif" font-size="13" lengthAdjust="spacingAndGlyphs" textLength="7" x="286.4856" y="610.9146">*</text><!--MD5=[12c828a60891e76557ccb918ce156a05]
link usantatecla.mastermind.models.Game to usantatecla.mastermind.models.SecretCombination--><path codeLine="39" d="M199.8569,255.0061 C199.8569,255.0061 200.471,279.052 200.731,289.273 " fill="none" id="usantatecla.mastermind.models.Game-usantatecla.mastermind.models.SecretCombination" style="stroke: #A80036; stroke-width: 1.0;"/><polygon fill="#A80036" points="201.071,302.573,204.8402,293.4739,200.9435,297.5746,196.8428,293.6779,201.071,302.573" style="stroke: #A80036; stroke-width: 1.0;"/><line style="stroke: #A80036; stroke-width: 1.0;" x1="200.9435" x2="200.7395" y1="297.5746" y2="289.577"/><polygon fill="#A80036" points="199.551,243.01,195.7053,249.11,199.8569,255.0061,203.7027,248.9061,199.551,243.01" style="stroke: #A80036; stroke-width: 1.0;"/><!--MD5=[280ea308128396330f7bbc2193cef62d]
link usantatecla.mastermind.models.Game to usantatecla.mastermind.models.Result--><path codeLine="40" d="M90.699,253.0898 C90.699,253.0898 71.0744,286.092 65,303 C50.8109,342.495 61.197,387.714 76.3081,424.709 " fill="none" id="usantatecla.mastermind.models.Game-usantatecla.mastermind.models.Result" style="stroke: #A80036; stroke-width: 1.0;"/><polygon fill="#A80036" points="81.5851,436.919,81.6866,427.0707,79.6016,432.3293,74.343,430.2443,81.5851,436.919" style="stroke: #A80036; stroke-width: 1.0;"/><line style="stroke: #A80036; stroke-width: 1.0;" x1="79.6016" x2="76.4279" y1="432.3293" y2="424.986"/><polygon fill="#A80036" points="97.4823,243.191,90.791,245.8793,90.699,253.0898,97.3903,250.4015,97.4823,243.191" style="stroke: #A80036; stroke-width: 1.0;"/><text fill="#000000" font-family="sans-serif" font-size="13" lengthAdjust="spacingAndGlyphs" textLength="7" x="70.0856" y="425.9004">*</text><!--MD5=[e6a772672154e2b4215389ae3fc2764d]
link usantatecla.mastermind.models.Game to usantatecla.mastermind.models.ProposedCombination--><path codeLine="41" d="M300.5455,252.2365 C300.5455,252.2365 327.618,286.192 339,303 C369.483,348.013 396.525,403.833 414.439,444.289 " fill="none" id="usantatecla.mastermind.models.Game-usantatecla.mastermind.models.ProposedCombination" style="stroke: #A80036; stroke-width: 1.0;"/><polygon fill="#A80036" points="419.699,456.322,419.7591,446.4733,417.6962,451.7406,412.4289,449.6778,419.699,456.322" style="stroke: #A80036; stroke-width: 1.0;"/><line style="stroke: #A80036; stroke-width: 1.0;" x1="417.6962" x2="414.492" y1="451.7406" y2="444.4105"/><polygon fill="#A80036" points="292.838,243.039,293.6259,250.2069,300.5455,252.2365,299.7576,245.0686,292.838,243.039" style="stroke: #A80036; stroke-width: 1.0;"/><text fill="#000000" font-family="sans-serif" font-size="13" lengthAdjust="spacingAndGlyphs" textLength="7" x="409.3838" y="445.2897">*</text><!--MD5=[c8e3115d06e825a18a556418b72e64a9]
reverse link usantatecla.mastermind.models.Combination to usantatecla.mastermind.models.ProposedCombination--><path codeLine="48" d="M447.63,211.921 C438.598,284.423 431.003,396.197 431.483,456.489 " fill="none" id="usantatecla.mastermind.models.Combination-backto-usantatecla.mastermind.models.ProposedCombination" style="stroke: #A80036; stroke-width: 1.0;"/><polygon fill="none" points="440.747,210.579,450.341,191.685,454.624,212.438,440.747,210.579" style="stroke: #A80036; stroke-width: 1.0;"/><!--MD5=[c619cdebc297e5af5d01e678516913cc]
link usantatecla.mastermind.models.ProposedCombination to usantatecla.mastermind.models.Combination--><path codeLine="61" d="M449.167,456.489 C459.453,391.798 468.821,267.839 469.071,196.714 " fill="none" id="usantatecla.mastermind.models.ProposedCombination-to-usantatecla.mastermind.models.Combination" style="stroke: #A80036; stroke-width: 1.0; stroke-dasharray: 7.0,7.0;"/><polygon fill="#A80036" points="469.073,191.685,465.073,200.685,469.073,196.685,473.073,200.685,469.073,191.685" style="stroke: #A80036; stroke-width: 1.0;"/><!--MD5=[2d63ef1acbc52f361fb90b9124ae9ce7]
link usantatecla.mastermind.models.ProposedCombination to usantatecla.mastermind.models.Error--><path codeLine="49" d="M438.775,542.556 C440.024,572.139 441.697,611.771 442.995,642.495 " fill="none" id="usantatecla.mastermind.models.ProposedCombination-to-usantatecla.mastermind.models.Error" style="stroke: #A80036; stroke-width: 1.0; stroke-dasharray: 7.0,7.0;"/><polygon fill="#A80036" points="443.216,647.734,446.8345,638.5739,443.006,642.7384,438.8415,638.9099,443.216,647.734" style="stroke: #A80036; stroke-width: 1.0;"/><!--MD5=[a41c7f13719228e6ada8a77d910bf0dc]
link usantatecla.mastermind.models.ProposedCombination to usantatecla.mastermind.models.Color--><path codeLine="50" d="M403.932,542.556 C384.238,567.603 358.881,599.853 336.906,627.801 " fill="none" id="usantatecla.mastermind.models.ProposedCombination-to-usantatecla.mastermind.models.Color" style="stroke: #A80036; stroke-width: 1.0; stroke-dasharray: 7.0,7.0;"/><polygon fill="#A80036" points="333.689,631.892,342.3962,627.2894,336.7794,627.9614,336.1073,622.3447,333.689,631.892" style="stroke: #A80036; stroke-width: 1.0;"/><!--MD5=[c1581850849ed6ede223799cd35a067f]
reverse link usantatecla.mastermind.models.Combination to usantatecla.mastermind.models.SecretCombination--><path codeLine="67" d="M415.356,207.08 C404.239,219.827 391.862,232.502 379,243 C350.293,266.431 315.013,286.917 283.525,302.88 " fill="none" id="usantatecla.mastermind.models.Combination-backto-usantatecla.mastermind.models.SecretCombination" style="stroke: #A80036; stroke-width: 1.0;"/><polygon fill="none" points="410.052,202.511,428.239,191.638,420.802,211.48,410.052,202.511" style="stroke: #A80036; stroke-width: 1.0;"/><!--MD5=[37df5b907d636f1fcade6857244b0a7e]
link usantatecla.mastermind.models.SecretCombination to usantatecla.mastermind.models.Result--><path codeLine="68" d="M182.499,377.134 C173.688,393.46 162.99,413.283 152.816,432.135 " fill="none" id="usantatecla.mastermind.models.SecretCombination-to-usantatecla.mastermind.models.Result" style="stroke: #A80036; stroke-width: 1.0; stroke-dasharray: 7.0,7.0;"/><polygon fill="#A80036" points="150.242,436.904,158.0361,430.8831,152.6164,432.5038,150.9958,427.084,150.242,436.904" style="stroke: #A80036; stroke-width: 1.0;"/><!--MD5=[be5e6334e25a1733719410e897fbe715]
link usantatecla.mastermind.models.SecretCombination to usantatecla.mastermind.models.ProposedCombination--><path codeLine="69" d="M255.914,377.134 C289.77,399.824 333.704,429.27 369.819,453.475 " fill="none" id="usantatecla.mastermind.models.SecretCombination-to-usantatecla.mastermind.models.ProposedCombination" style="stroke: #A80036; stroke-width: 1.0; stroke-dasharray: 7.0,7.0;"/><polygon fill="#A80036" points="374.184,456.4,368.9328,448.0678,370.0299,453.6173,364.4805,454.7144,374.184,456.4" style="stroke: #A80036; stroke-width: 1.0;"/><!--MD5=[117e805e17dd8995bb23fe45f96608c4]
link usantatecla.mastermind.models.SecretCombination to usantatecla.mastermind.models.Color--><path codeLine="70" d="M210.88,377.035 C224.752,433.33 251.847,543.285 269.939,616.707 " fill="none" id="usantatecla.mastermind.models.SecretCombination-to-usantatecla.mastermind.models.Color" style="stroke: #A80036; stroke-width: 1.0; stroke-dasharray: 7.0,7.0;"/><polygon fill="#A80036" points="271.226,621.929,272.9574,612.2335,270.0301,617.0741,265.1895,614.1469,271.226,621.929" style="stroke: #A80036; stroke-width: 1.0;"/><!--MD5=[a3e4f18364881f480fb8a4e0f43a7190]
@startuml
enum usantatecla.mastermind.models.Color {
+ RED
+ BLUE
+ YELLOW
+ GREEN
+ ORANGE
+ PURPLE
~ {static} length(): int
}

abstract class usantatecla.mastermind.models.Combination {
- {static} WIDTH: int
~ colors: List<Color>
~ Combination()
+ {static} getWidth(): int
}
usantatecla.mastermind.models.Combination *-down-> "*" usantatecla.mastermind.models.Color

enum usantatecla.mastermind.models.Error {
+ DUPLICATED
+ WRONG_CHARACTERS
+ WRONG_LENGTH
}

class usantatecla.mastermind.models.Game {
- {static} MAX_LONG: int
- proposedCombinations: List<ProposedCombinations>
- results: List<Result>
- attempts: int
+ Game()
+ clear()
+ addProposeCombination(ProposedCombination)
+ isLooser(): boolean
+ isWinner(): boolean
+ getAttempts(): int
+ getProposedCombination(int): ProposedCombination
+ getResult(int): Result
}
usantatecla.mastermind.models.Game *-down-> usantatecla.mastermind.models.SecretCombination
usantatecla.mastermind.models.Game *-down-> "*" usantatecla.mastermind.models.Result
usantatecla.mastermind.models.Game *-down-> "*" usantatecla.mastermind.models.ProposedCombination

class usantatecla.mastermind.models.ProposedCombination {
contains(Color, int): boolean
contains(Color): boolean
+ getColors(): List<Color>
}
usantatecla.mastermind.models.Combination <|-down- usantatecla.mastermind.models.ProposedCombination
usantatecla.mastermind.models.ProposedCombination ..> usantatecla.mastermind.models.Error
usantatecla.mastermind.models.ProposedCombination ..> usantatecla.mastermind.models.Color

class usantatecla.mastermind.models.Result {
- blacks: int
- whites: int
Result(int, int)
isWinner(): boolean
+ getBlacks(): int
+ getWhites(): int
}

usantatecla.mastermind.models.ProposedCombination ..> usantatecla.mastermind.models.Combination

class usantatecla.mastermind.models.SecretCombination {
SecretCombination()
getResult(ProposedCombination): Result
}
usantatecla.mastermind.models.Combination <|-down- usantatecla.mastermind.models.SecretCombination
usantatecla.mastermind.models.SecretCombination ..> usantatecla.mastermind.models.Result
usantatecla.mastermind.models.SecretCombination ..> usantatecla.mastermind.models.ProposedCombination
usantatecla.mastermind.models.SecretCombination ..> usantatecla.mastermind.models.Color
@enduml

PlantUML version 1.2020.20beta7(Unknown compile time)
(GPL source distribution)
Java Runtime: Java(TM) SE Runtime Environment
JVM: Java HotSpot(TM) 64-Bit Server VM
Default Encoding: UTF-8
Language: en
Country: US
--></g></svg>