<?xml version="1.0" encoding="UTF-8" standalone="no"?><svg xmlns="http://www.w3.org/2000/svg" xmlns:xlink="http://www.w3.org/1999/xlink" contentScriptType="application/ecmascript" contentStyleType="text/css" height="542px" preserveAspectRatio="none" style="width:1251px;height:542px;" version="1.1" viewBox="0 0 1251 542" width="1251px" zoomAndPan="magnify"><defs><filter height="300%" id="frx8ikai0som6" width="300%" x="-1" y="-1"><feGaussianBlur result="blurOut" stdDeviation="2.0"/><feColorMatrix in="blurOut" result="blurOut2" type="matrix" values="0 0 0 0 0 0 0 0 0 0 0 0 0 0 0 0 0 0 .4 0"/><feOffset dx="4.0" dy="4.0" in="blurOut2" result="blurOut3"/><feBlend in="SourceGraphic" in2="blurOut3" mode="normal"/></filter></defs><g><!--MD5=[870a69ce9634146fd8c5498968cba5fd]
cluster usantatecla.mastermind.views.console--><polygon fill="#FFFFFF" filter="url(#frx8ikai0som6)" points="358.4047,80,682.4047,80,689.4047,102.2969,1082.4027,102.2969,1082.4027,535,358.4047,535,358.4047,80" style="stroke: #000000; stroke-width: 1.5;"/><line style="stroke: #000000; stroke-width: 1.5;" x1="358.4047" x2="689.4047" y1="102.2969" y2="102.2969"/><text fill="#000000" font-family="sans-serif" font-size="14" font-weight="bold" lengthAdjust="spacingAndGlyphs" textLength="318" x="362.4047" y="94.9951">usantatecla.mastermind.views.console</text><!--MD5=[dd3efb2c58b4e82c246b11a4f49b163b]
class usantatecla.mastermind.views.console.ConsoleView--><rect codeLine="4" fill="#FEFECE" filter="url(#frx8ikai0som6)" height="99.2188" id="usantatecla.mastermind.views.console.ConsoleView" style="stroke: #A80036; stroke-width: 1.5;" width="143" x="922.9047" y="115"/><ellipse cx="952.7547" cy="131" fill="#ADD1B2" rx="11" ry="11" style="stroke: #A80036; stroke-width: 1.0;"/><path d="M955.0985,126.6719 C954.161,126.2344 953.5672,126.0938 952.6922,126.0938 C950.0672,126.0938 948.0672,128.1719 948.0672,130.8906 L948.0672,132.0156 C948.0672,134.5938 950.1766,136.4844 953.0672,136.4844 C954.286,136.4844 955.4422,136.1875 956.1922,135.6406 C956.7703,135.2344 957.0985,134.7813 957.0985,134.3906 C957.0985,133.9375 956.7078,133.5469 956.2391,133.5469 C956.0203,133.5469 955.8172,133.625 955.6297,133.8125 C955.1766,134.2969 955.1766,134.2969 954.9891,134.3906 C954.5672,134.6563 953.8797,134.7813 953.1141,134.7813 C951.0672,134.7813 949.7703,133.6875 949.7703,131.9844 L949.7703,130.8906 C949.7703,129.1094 951.0203,127.7969 952.7547,127.7969 C953.3328,127.7969 953.9422,127.9531 954.411,128.2031 C954.8953,128.4844 955.0672,128.7031 955.161,129.1094 C955.2235,129.5156 955.2547,129.6406 955.3953,129.7656 C955.536,129.9063 955.7703,130.0156 955.9891,130.0156 C956.2547,130.0156 956.5203,129.875 956.6922,129.6563 C956.8016,129.5 956.8328,129.3125 956.8328,128.8906 L956.8328,127.4688 C956.8328,127.0313 956.8172,126.9063 956.7235,126.75 C956.5672,126.4844 956.286,126.3438 955.9891,126.3438 C955.6922,126.3438 955.4891,126.4375 955.2703,126.75 L955.0985,126.6719 Z "/><text fill="#000000" font-family="sans-serif" font-size="12" lengthAdjust="spacingAndGlyphs" textLength="78" x="970.0547" y="135.1543">ConsoleView</text><line style="stroke: #A80036; stroke-width: 1.5;" x1="923.9047" x2="1064.9047" y1="147" y2="147"/><line style="stroke: #A80036; stroke-width: 1.5;" x1="923.9047" x2="1064.9047" y1="155" y2="155"/><ellipse cx="933.9047" cy="166" fill="#84BE84" rx="3" ry="3" style="stroke: #038048; stroke-width: 1.0;"/><text fill="#000000" font-family="sans-serif" font-size="11" lengthAdjust="spacingAndGlyphs" textLength="117" x="942.9047" y="169.2104">ConsoleView(Game)</text><polygon fill="#4177AF" points="933.9047,174.8047,929.9047,180.8047,937.9047,180.8047" style="stroke: #1963A0; stroke-width: 1.0;"/><text fill="#000000" font-family="sans-serif" font-size="11" lengthAdjust="spacingAndGlyphs" textLength="33" x="942.9047" y="182.0151">start()</text><polygon fill="#4177AF" points="933.9047,187.6094,929.9047,193.6094,937.9047,193.6094" style="stroke: #1963A0; stroke-width: 1.0;"/><text fill="#000000" font-family="sans-serif" font-size="11" lengthAdjust="spacingAndGlyphs" textLength="105" x="942.9047" y="194.8198">resume(): boolean</text><polygon fill="#4177AF" points="933.9047,200.4141,929.9047,206.4141,937.9047,206.4141" style="stroke: #1963A0; stroke-width: 1.0;"/><text fill="#000000" font-family="sans-serif" font-size="11" lengthAdjust="spacingAndGlyphs" textLength="107" x="942.9047" y="207.6245">propose(): boolean</text><!--MD5=[3fc381aa527804d9b0f68b14a0cbd981]
class usantatecla.mastermind.views.console.ProposalView--><rect codeLine="19" fill="#FEFECE" filter="url(#frx8ikai0som6)" height="86.4141" id="usantatecla.mastermind.views.console.ProposalView" style="stroke: #A80036; stroke-width: 1.5;" width="144" x="811.4047" y="274"/><ellipse cx="840.3547" cy="290" fill="#ADD1B2" rx="11" ry="11" style="stroke: #A80036; stroke-width: 1.0;"/><path d="M842.6985,285.6719 C841.761,285.2344 841.1672,285.0938 840.2922,285.0938 C837.6672,285.0938 835.6672,287.1719 835.6672,289.8906 L835.6672,291.0156 C835.6672,293.5938 837.7766,295.4844 840.6672,295.4844 C841.886,295.4844 843.0422,295.1875 843.7922,294.6406 C844.3703,294.2344 844.6985,293.7813 844.6985,293.3906 C844.6985,292.9375 844.3078,292.5469 843.8391,292.5469 C843.6203,292.5469 843.4172,292.625 843.2297,292.8125 C842.7766,293.2969 842.7766,293.2969 842.5891,293.3906 C842.1672,293.6563 841.4797,293.7813 840.7141,293.7813 C838.6672,293.7813 837.3703,292.6875 837.3703,290.9844 L837.3703,289.8906 C837.3703,288.1094 838.6203,286.7969 840.3547,286.7969 C840.9328,286.7969 841.5422,286.9531 842.011,287.2031 C842.4953,287.4844 842.6672,287.7031 842.761,288.1094 C842.8235,288.5156 842.8547,288.6406 842.9953,288.7656 C843.136,288.9063 843.3703,289.0156 843.5891,289.0156 C843.8547,289.0156 844.1203,288.875 844.2922,288.6563 C844.4016,288.5 844.4328,288.3125 844.4328,287.8906 L844.4328,286.4688 C844.4328,286.0313 844.4172,285.9063 844.3235,285.75 C844.1672,285.4844 843.886,285.3438 843.5891,285.3438 C843.2922,285.3438 843.0891,285.4375 842.8703,285.75 L842.6985,285.6719 Z "/><text fill="#000000" font-family="sans-serif" font-size="12" lengthAdjust="spacingAndGlyphs" textLength="81" x="857.4547" y="294.1543">ProposalView</text><line style="stroke: #A80036; stroke-width: 1.5;" x1="812.4047" x2="954.4047" y1="306" y2="306"/><rect fill="none" height="6" style="stroke: #C82930; stroke-width: 1.0;" width="6" x="819.4047" y="314"/><text fill="#000000" font-family="sans-serif" font-size="11" lengthAdjust="spacingAndGlyphs" textLength="75" x="831.4047" y="320.2104">game: Game</text><line style="stroke: #A80036; stroke-width: 1.5;" x1="812.4047" x2="954.4047" y1="326.8047" y2="326.8047"/><polygon fill="#4177AF" points="822.4047,333.8047,818.4047,339.8047,826.4047,339.8047" style="stroke: #1963A0; stroke-width: 1.0;"/><text fill="#000000" font-family="sans-serif" font-size="11" lengthAdjust="spacingAndGlyphs" textLength="118" x="831.4047" y="341.0151">ProposalView(Game)</text><polygon fill="#4177AF" points="822.4047,346.6094,818.4047,352.6094,826.4047,352.6094" style="stroke: #1963A0; stroke-width: 1.0;"/><text fill="#000000" font-family="sans-serif" font-size="11" lengthAdjust="spacingAndGlyphs" textLength="104" x="831.4047" y="353.8198">interact(): boolean</text><!--MD5=[9bc3463fd80c6188f2068243b6359e84]
class usantatecla.mastermind.views.console.ResumeView--><rect codeLine="54" fill="#FEFECE" filter="url(#frx8ikai0som6)" height="73.6094" id="usantatecla.mastermind.views.console.ResumeView" style="stroke: #A80036; stroke-width: 1.5;" width="144" x="451.4047" y="280"/><ellipse cx="482.1547" cy="296" fill="#ADD1B2" rx="11" ry="11" style="stroke: #A80036; stroke-width: 1.0;"/><path d="M484.4985,291.6719 C483.561,291.2344 482.9672,291.0938 482.0922,291.0938 C479.4672,291.0938 477.4672,293.1719 477.4672,295.8906 L477.4672,297.0156 C477.4672,299.5938 479.5766,301.4844 482.4672,301.4844 C483.686,301.4844 484.8422,301.1875 485.5922,300.6406 C486.1703,300.2344 486.4985,299.7813 486.4985,299.3906 C486.4985,298.9375 486.1078,298.5469 485.6391,298.5469 C485.4203,298.5469 485.2172,298.625 485.0297,298.8125 C484.5766,299.2969 484.5766,299.2969 484.3891,299.3906 C483.9672,299.6563 483.2797,299.7813 482.5141,299.7813 C480.4672,299.7813 479.1703,298.6875 479.1703,296.9844 L479.1703,295.8906 C479.1703,294.1094 480.4203,292.7969 482.1547,292.7969 C482.7328,292.7969 483.3422,292.9531 483.811,293.2031 C484.2953,293.4844 484.4672,293.7031 484.561,294.1094 C484.6235,294.5156 484.6547,294.6406 484.7953,294.7656 C484.936,294.9063 485.1703,295.0156 485.3891,295.0156 C485.6547,295.0156 485.9203,294.875 486.0922,294.6563 C486.2016,294.5 486.2328,294.3125 486.2328,293.8906 L486.2328,292.4688 C486.2328,292.0313 486.2172,291.9063 486.1235,291.75 C485.9672,291.4844 485.686,291.3438 485.3891,291.3438 C485.0922,291.3438 484.8891,291.4375 484.6703,291.75 L484.4985,291.6719 Z "/><text fill="#000000" font-family="sans-serif" font-size="12" lengthAdjust="spacingAndGlyphs" textLength="77" x="499.6547" y="300.1543">ResumeView</text><line style="stroke: #A80036; stroke-width: 1.5;" x1="452.4047" x2="594.4047" y1="312" y2="312"/><line style="stroke: #A80036; stroke-width: 1.5;" x1="452.4047" x2="594.4047" y1="320" y2="320"/><polygon fill="#4177AF" points="462.4047,327,458.4047,333,466.4047,333" style="stroke: #1963A0; stroke-width: 1.0;"/><text fill="#000000" font-family="sans-serif" font-size="11" lengthAdjust="spacingAndGlyphs" textLength="118" x="471.4047" y="334.2104">ResumeView(Game)</text><polygon fill="#4177AF" points="462.4047,339.8047,458.4047,345.8047,466.4047,345.8047" style="stroke: #1963A0; stroke-width: 1.0;"/><text fill="#000000" font-family="sans-serif" font-size="11" lengthAdjust="spacingAndGlyphs" textLength="104" x="471.4047" y="347.0151">interact(): boolean</text><!--MD5=[0443121bcbe511df2c378d392fee4a36]
class usantatecla.mastermind.views.console.StartView--><rect codeLine="68" fill="#FEFECE" filter="url(#frx8ikai0som6)" height="60.8047" id="usantatecla.mastermind.views.console.StartView" style="stroke: #A80036; stroke-width: 1.5;" width="89" x="667.9047" y="286.5"/><ellipse cx="682.9047" cy="302.5" fill="#ADD1B2" rx="11" ry="11" style="stroke: #A80036; stroke-width: 1.0;"/><path d="M685.2485,298.1719 C684.311,297.7344 683.7172,297.5938 682.8422,297.5938 C680.2172,297.5938 678.2172,299.6719 678.2172,302.3906 L678.2172,303.5156 C678.2172,306.0938 680.3266,307.9844 683.2172,307.9844 C684.436,307.9844 685.5922,307.6875 686.3422,307.1406 C686.9203,306.7344 687.2485,306.2813 687.2485,305.8906 C687.2485,305.4375 686.8578,305.0469 686.3891,305.0469 C686.1703,305.0469 685.9672,305.125 685.7797,305.3125 C685.3266,305.7969 685.3266,305.7969 685.1391,305.8906 C684.7172,306.1563 684.0297,306.2813 683.2641,306.2813 C681.2172,306.2813 679.9203,305.1875 679.9203,303.4844 L679.9203,302.3906 C679.9203,300.6094 681.1703,299.2969 682.9047,299.2969 C683.4828,299.2969 684.0922,299.4531 684.561,299.7031 C685.0453,299.9844 685.2172,300.2031 685.311,300.6094 C685.3735,301.0156 685.4047,301.1406 685.5453,301.2656 C685.686,301.4063 685.9203,301.5156 686.1391,301.5156 C686.4047,301.5156 686.6703,301.375 686.8422,301.1563 C686.9516,301 686.9828,300.8125 686.9828,300.3906 L686.9828,298.9688 C686.9828,298.5313 686.9672,298.4063 686.8735,298.25 C686.7172,297.9844 686.436,297.8438 686.1391,297.8438 C685.8422,297.8438 685.6391,297.9375 685.4203,298.25 L685.2485,298.1719 Z "/><text fill="#000000" font-family="sans-serif" font-size="12" lengthAdjust="spacingAndGlyphs" textLength="57" x="696.9047" y="306.6543">StartView</text><line style="stroke: #A80036; stroke-width: 1.5;" x1="668.9047" x2="755.9047" y1="318.5" y2="318.5"/><line style="stroke: #A80036; stroke-width: 1.5;" x1="668.9047" x2="755.9047" y1="326.5" y2="326.5"/><polygon fill="#4177AF" points="678.9047,333.5,674.9047,339.5,682.9047,339.5" style="stroke: #1963A0; stroke-width: 1.0;"/><text fill="#000000" font-family="sans-serif" font-size="11" lengthAdjust="spacingAndGlyphs" textLength="51" x="687.9047" y="340.7104">interact()</text><!--MD5=[b9e96ebb3841247a1bc6f6a4b0e36cb2]
class usantatecla.mastermind.views.console.ProposedCombinationView--><rect codeLine="34" fill="#FEFECE" filter="url(#frx8ikai0som6)" height="99.2188" id="usantatecla.mastermind.views.console.ProposedCombinationView" style="stroke: #A80036; stroke-width: 1.5;" width="308" x="758.4047" y="420"/><ellipse cx="827.6547" cy="436" fill="#ADD1B2" rx="11" ry="11" style="stroke: #A80036; stroke-width: 1.0;"/><path d="M829.9985,431.6719 C829.061,431.2344 828.4672,431.0938 827.5922,431.0938 C824.9672,431.0938 822.9672,433.1719 822.9672,435.8906 L822.9672,437.0156 C822.9672,439.5938 825.0766,441.4844 827.9672,441.4844 C829.186,441.4844 830.3422,441.1875 831.0922,440.6406 C831.6703,440.2344 831.9985,439.7813 831.9985,439.3906 C831.9985,438.9375 831.6078,438.5469 831.1391,438.5469 C830.9203,438.5469 830.7172,438.625 830.5297,438.8125 C830.0766,439.2969 830.0766,439.2969 829.8891,439.3906 C829.4672,439.6563 828.7797,439.7813 828.0141,439.7813 C825.9672,439.7813 824.6703,438.6875 824.6703,436.9844 L824.6703,435.8906 C824.6703,434.1094 825.9203,432.7969 827.6547,432.7969 C828.2328,432.7969 828.8422,432.9531 829.311,433.2031 C829.7953,433.4844 829.9672,433.7031 830.061,434.1094 C830.1235,434.5156 830.1547,434.6406 830.2953,434.7656 C830.436,434.9063 830.6703,435.0156 830.8891,435.0156 C831.1547,435.0156 831.4203,434.875 831.5922,434.6563 C831.7016,434.5 831.7328,434.3125 831.7328,433.8906 L831.7328,432.4688 C831.7328,432.0313 831.7172,431.9063 831.6235,431.75 C831.4672,431.4844 831.186,431.3438 830.8891,431.3438 C830.5922,431.3438 830.3891,431.4375 830.1703,431.75 L829.9985,431.6719 Z "/><text fill="#000000" font-family="sans-serif" font-size="12" lengthAdjust="spacingAndGlyphs" textLength="161" x="848.1547" y="440.1543">ProposedCombinationView</text><line style="stroke: #A80036; stroke-width: 1.5;" x1="759.4047" x2="1065.4047" y1="452" y2="452"/><rect fill="none" height="6" style="stroke: #C82930; stroke-width: 1.0;" width="6" x="766.4047" y="460"/><text fill="#000000" font-family="sans-serif" font-size="11" lengthAdjust="spacingAndGlyphs" textLength="254" x="778.4047" y="466.2104">proposedCombination: ProposedCombination</text><line style="stroke: #A80036; stroke-width: 1.5;" x1="759.4047" x2="1065.4047" y1="472.8047" y2="472.8047"/><polygon fill="#4177AF" points="769.4047,479.8047,765.4047,485.8047,773.4047,485.8047" style="stroke: #1963A0; stroke-width: 1.0;"/><text fill="#000000" font-family="sans-serif" font-size="11" lengthAdjust="spacingAndGlyphs" textLength="282" x="778.4047" y="487.0151">ProposedCombinationView(ProposedCombination)</text><polygon fill="#4177AF" points="769.4047,492.6094,765.4047,498.6094,773.4047,498.6094" style="stroke: #1963A0; stroke-width: 1.0;"/><text fill="#000000" font-family="sans-serif" font-size="11" lengthAdjust="spacingAndGlyphs" textLength="36" x="778.4047" y="499.8198">write()</text><polygon fill="#4177AF" points="769.4047,505.4141,765.4047,511.4141,773.4047,511.4141" style="stroke: #1963A0; stroke-width: 1.0;"/><text fill="#000000" font-family="sans-serif" font-size="11" lengthAdjust="spacingAndGlyphs" textLength="34" x="778.4047" y="512.6245">read()</text><!--MD5=[6895d7787d38d293342c8d69eaf320fc]
class usantatecla.mastermind.views.console.SecretCombinationView--><rect codeLine="60" fill="#FEFECE" filter="url(#frx8ikai0som6)" height="73.6094" id="usantatecla.mastermind.views.console.SecretCombinationView" style="stroke: #A80036; stroke-width: 1.5;" width="175" x="380.9047" y="432.5"/><ellipse cx="395.9047" cy="448.5" fill="#ADD1B2" rx="11" ry="11" style="stroke: #A80036; stroke-width: 1.0;"/><path d="M398.2485,444.1719 C397.311,443.7344 396.7172,443.5938 395.8422,443.5938 C393.2172,443.5938 391.2172,445.6719 391.2172,448.3906 L391.2172,449.5156 C391.2172,452.0938 393.3266,453.9844 396.2172,453.9844 C397.436,453.9844 398.5922,453.6875 399.3422,453.1406 C399.9203,452.7344 400.2485,452.2813 400.2485,451.8906 C400.2485,451.4375 399.8578,451.0469 399.3891,451.0469 C399.1703,451.0469 398.9672,451.125 398.7797,451.3125 C398.3266,451.7969 398.3266,451.7969 398.1391,451.8906 C397.7172,452.1563 397.0297,452.2813 396.2641,452.2813 C394.2172,452.2813 392.9203,451.1875 392.9203,449.4844 L392.9203,448.3906 C392.9203,446.6094 394.1703,445.2969 395.9047,445.2969 C396.4828,445.2969 397.0922,445.4531 397.561,445.7031 C398.0453,445.9844 398.2172,446.2031 398.311,446.6094 C398.3735,447.0156 398.4047,447.1406 398.5453,447.2656 C398.686,447.4063 398.9203,447.5156 399.1391,447.5156 C399.4047,447.5156 399.6703,447.375 399.8422,447.1563 C399.9516,447 399.9828,446.8125 399.9828,446.3906 L399.9828,444.9688 C399.9828,444.5313 399.9672,444.4063 399.8735,444.25 C399.7172,443.9844 399.436,443.8438 399.1391,443.8438 C398.8422,443.8438 398.6391,443.9375 398.4203,444.25 L398.2485,444.1719 Z "/><text fill="#000000" font-family="sans-serif" font-size="12" lengthAdjust="spacingAndGlyphs" textLength="143" x="409.9047" y="452.6543">SecretCombinationView</text><line style="stroke: #A80036; stroke-width: 1.5;" x1="381.9047" x2="554.9047" y1="464.5" y2="464.5"/><line style="stroke: #A80036; stroke-width: 1.5;" x1="381.9047" x2="554.9047" y1="472.5" y2="472.5"/><polygon fill="#4177AF" points="391.9047,479.5,387.9047,485.5,395.9047,485.5" style="stroke: #1963A0; stroke-width: 1.0;"/><text fill="#000000" font-family="sans-serif" font-size="11" lengthAdjust="spacingAndGlyphs" textLength="145" x="400.9047" y="486.7104">SecretCombinationView()</text><polygon fill="#4177AF" points="391.9047,492.3047,387.9047,498.3047,395.9047,498.3047" style="stroke: #1963A0; stroke-width: 1.0;"/><text fill="#000000" font-family="sans-serif" font-size="11" lengthAdjust="spacingAndGlyphs" textLength="46" x="400.9047" y="499.5151">writeln()</text><!--MD5=[f72db8a2bcbe9ab8c7a89f2fd89e6b01]
class usantatecla.mastermind.views.console.ResultView--><rect codeLine="42" fill="#FEFECE" filter="url(#frx8ikai0som6)" height="86.4141" id="usantatecla.mastermind.views.console.ResultView" style="stroke: #A80036; stroke-width: 1.5;" width="132" x="591.4047" y="426.5"/><ellipse cx="622.1547" cy="442.5" fill="#ADD1B2" rx="11" ry="11" style="stroke: #A80036; stroke-width: 1.0;"/><path d="M624.4985,438.1719 C623.561,437.7344 622.9672,437.5938 622.0922,437.5938 C619.4672,437.5938 617.4672,439.6719 617.4672,442.3906 L617.4672,443.5156 C617.4672,446.0938 619.5766,447.9844 622.4672,447.9844 C623.686,447.9844 624.8422,447.6875 625.5922,447.1406 C626.1703,446.7344 626.4985,446.2813 626.4985,445.8906 C626.4985,445.4375 626.1078,445.0469 625.6391,445.0469 C625.4203,445.0469 625.2172,445.125 625.0297,445.3125 C624.5766,445.7969 624.5766,445.7969 624.3891,445.8906 C623.9672,446.1563 623.2797,446.2813 622.5141,446.2813 C620.4672,446.2813 619.1703,445.1875 619.1703,443.4844 L619.1703,442.3906 C619.1703,440.6094 620.4203,439.2969 622.1547,439.2969 C622.7328,439.2969 623.3422,439.4531 623.811,439.7031 C624.2953,439.9844 624.4672,440.2031 624.561,440.6094 C624.6235,441.0156 624.6547,441.1406 624.7953,441.2656 C624.936,441.4063 625.1703,441.5156 625.3891,441.5156 C625.6547,441.5156 625.9203,441.375 626.0922,441.1563 C626.2016,441 626.2328,440.8125 626.2328,440.3906 L626.2328,438.9688 C626.2328,438.5313 626.2172,438.4063 626.1235,438.25 C625.9672,437.9844 625.686,437.8438 625.3891,437.8438 C625.0922,437.8438 624.8891,437.9375 624.6703,438.25 L624.4985,438.1719 Z "/><text fill="#000000" font-family="sans-serif" font-size="12" lengthAdjust="spacingAndGlyphs" textLength="65" x="639.6547" y="446.6543">ResultView</text><line style="stroke: #A80036; stroke-width: 1.5;" x1="592.4047" x2="722.4047" y1="458.5" y2="458.5"/><rect fill="none" height="6" style="stroke: #C82930; stroke-width: 1.0;" width="6" x="599.4047" y="466.5"/><text fill="#000000" font-family="sans-serif" font-size="11" lengthAdjust="spacingAndGlyphs" textLength="74" x="611.4047" y="472.7104">result: Result</text><line style="stroke: #A80036; stroke-width: 1.5;" x1="592.4047" x2="722.4047" y1="479.3047" y2="479.3047"/><polygon fill="#4177AF" points="602.4047,486.3047,598.4047,492.3047,606.4047,492.3047" style="stroke: #1963A0; stroke-width: 1.0;"/><text fill="#000000" font-family="sans-serif" font-size="11" lengthAdjust="spacingAndGlyphs" textLength="106" x="611.4047" y="493.5151">ResultView(Result)</text><polygon fill="#4177AF" points="602.4047,499.1094,598.4047,505.1094,606.4047,505.1094" style="stroke: #1963A0; stroke-width: 1.0;"/><text fill="#000000" font-family="sans-serif" font-size="11" lengthAdjust="spacingAndGlyphs" textLength="46" x="611.4047" y="506.3198">writeln()</text><!--MD5=[0738facfc05fd0e5380c8577e6609970]
class usantatecla.mastermind.views.console.AttemptsView--><rect codeLine="47" fill="#FEFECE" filter="url(#frx8ikai0som6)" height="86.4141" id="usantatecla.mastermind.views.console.AttemptsView" style="stroke: #A80036; stroke-width: 1.5;" width="149" x="374.9047" y="121.5"/><ellipse cx="405.2047" cy="137.5" fill="#ADD1B2" rx="11" ry="11" style="stroke: #A80036; stroke-width: 1.0;"/><path d="M407.5485,133.1719 C406.611,132.7344 406.0172,132.5938 405.1422,132.5938 C402.5172,132.5938 400.5172,134.6719 400.5172,137.3906 L400.5172,138.5156 C400.5172,141.0938 402.6266,142.9844 405.5172,142.9844 C406.736,142.9844 407.8922,142.6875 408.6422,142.1406 C409.2203,141.7344 409.5485,141.2813 409.5485,140.8906 C409.5485,140.4375 409.1578,140.0469 408.6891,140.0469 C408.4703,140.0469 408.2672,140.125 408.0797,140.3125 C407.6266,140.7969 407.6266,140.7969 407.4391,140.8906 C407.0172,141.1563 406.3297,141.2813 405.5641,141.2813 C403.5172,141.2813 402.2203,140.1875 402.2203,138.4844 L402.2203,137.3906 C402.2203,135.6094 403.4703,134.2969 405.2047,134.2969 C405.7828,134.2969 406.3922,134.4531 406.861,134.7031 C407.3453,134.9844 407.5172,135.2031 407.611,135.6094 C407.6735,136.0156 407.7047,136.1406 407.8453,136.2656 C407.986,136.4063 408.2203,136.5156 408.4391,136.5156 C408.7047,136.5156 408.9703,136.375 409.1422,136.1563 C409.2516,136 409.2828,135.8125 409.2828,135.3906 L409.2828,133.9688 C409.2828,133.5313 409.2672,133.4063 409.1735,133.25 C409.0172,132.9844 408.736,132.8438 408.4391,132.8438 C408.1422,132.8438 407.9391,132.9375 407.7203,133.25 L407.5485,133.1719 Z "/><text fill="#000000" font-family="sans-serif" font-size="12" lengthAdjust="spacingAndGlyphs" textLength="83" x="422.6047" y="141.6543">AttemptsView</text><line style="stroke: #A80036; stroke-width: 1.5;" x1="375.9047" x2="522.9047" y1="153.5" y2="153.5"/><rect fill="none" height="6" style="stroke: #C82930; stroke-width: 1.0;" width="6" x="382.9047" y="161.5"/><text fill="#000000" font-family="sans-serif" font-size="11" lengthAdjust="spacingAndGlyphs" textLength="75" x="394.9047" y="167.7104">game: Game</text><line style="stroke: #A80036; stroke-width: 1.5;" x1="375.9047" x2="522.9047" y1="174.3047" y2="174.3047"/><polygon fill="#4177AF" points="385.9047,181.3047,381.9047,187.3047,389.9047,187.3047" style="stroke: #1963A0; stroke-width: 1.0;"/><text fill="#000000" font-family="sans-serif" font-size="11" lengthAdjust="spacingAndGlyphs" textLength="123" x="394.9047" y="188.5151">AttemptsView(Game)</text><polygon fill="#4177AF" points="385.9047,194.1094,381.9047,200.1094,389.9047,200.1094" style="stroke: #1963A0; stroke-width: 1.0;"/><text fill="#000000" font-family="sans-serif" font-size="11" lengthAdjust="spacingAndGlyphs" textLength="46" x="394.9047" y="201.3198">writeln()</text><!--MD5=[f95016829e4a1954e9b815203fd5b79a]
class usantatecla.mastermind.views.console.ErrorView--><rect codeLine="72" fill="#FEFECE" filter="url(#frx8ikai0som6)" height="99.2188" id="usantatecla.mastermind.views.console.ErrorView" style="stroke: #A80036; stroke-width: 1.5;" width="137" x="558.9047" y="115"/><ellipse cx="594.6047" cy="131" fill="#ADD1B2" rx="11" ry="11" style="stroke: #A80036; stroke-width: 1.0;"/><path d="M596.9485,126.6719 C596.011,126.2344 595.4172,126.0938 594.5422,126.0938 C591.9172,126.0938 589.9172,128.1719 589.9172,130.8906 L589.9172,132.0156 C589.9172,134.5938 592.0266,136.4844 594.9172,136.4844 C596.136,136.4844 597.2922,136.1875 598.0422,135.6406 C598.6203,135.2344 598.9485,134.7813 598.9485,134.3906 C598.9485,133.9375 598.5578,133.5469 598.0891,133.5469 C597.8703,133.5469 597.6672,133.625 597.4797,133.8125 C597.0266,134.2969 597.0266,134.2969 596.8391,134.3906 C596.4172,134.6563 595.7297,134.7813 594.9641,134.7813 C592.9172,134.7813 591.6203,133.6875 591.6203,131.9844 L591.6203,130.8906 C591.6203,129.1094 592.8703,127.7969 594.6047,127.7969 C595.1828,127.7969 595.7922,127.9531 596.261,128.2031 C596.7453,128.4844 596.9172,128.7031 597.011,129.1094 C597.0735,129.5156 597.1047,129.6406 597.2453,129.7656 C597.386,129.9063 597.6203,130.0156 597.8391,130.0156 C598.1047,130.0156 598.3703,129.875 598.5422,129.6563 C598.6516,129.5 598.6828,129.3125 598.6828,128.8906 L598.6828,127.4688 C598.6828,127.0313 598.6672,126.9063 598.5735,126.75 C598.4172,126.4844 598.136,126.3438 597.8391,126.3438 C597.5422,126.3438 597.3391,126.4375 597.1203,126.75 L596.9485,126.6719 Z "/><text fill="#000000" font-family="sans-serif" font-size="12" lengthAdjust="spacingAndGlyphs" textLength="59" x="613.2047" y="135.1543">ErrorView</text><line style="stroke: #A80036; stroke-width: 1.5;" x1="559.9047" x2="694.9047" y1="147" y2="147"/><line style="stroke: #A80036; stroke-width: 1.5;" x1="559.9047" x2="694.9047" y1="155" y2="155"/><polygon fill="#4177AF" points="569.9047,162,565.9047,168,573.9047,168" style="stroke: #1963A0; stroke-width: 1.0;"/><text fill="#000000" font-family="sans-serif" font-size="11" lengthAdjust="spacingAndGlyphs" textLength="62" x="578.9047" y="169.2104">ErrorView()</text><polygon fill="#4177AF" points="569.9047,174.8047,565.9047,180.8047,573.9047,180.8047" style="stroke: #1963A0; stroke-width: 1.0;"/><text fill="#000000" font-family="sans-serif" font-size="11" lengthAdjust="spacingAndGlyphs" textLength="88" x="578.9047" y="182.0151">ErrorView(Error)</text><polygon fill="#4177AF" points="569.9047,187.6094,565.9047,193.6094,573.9047,193.6094" style="stroke: #1963A0; stroke-width: 1.0;"/><text fill="#000000" font-family="sans-serif" font-size="11" lengthAdjust="spacingAndGlyphs" textLength="46" x="578.9047" y="194.8198">writeln()</text><polygon fill="#4177AF" points="569.9047,200.4141,565.9047,206.4141,573.9047,206.4141" style="stroke: #1963A0; stroke-width: 1.0;"/><text fill="#000000" font-family="sans-serif" font-size="11" lengthAdjust="spacingAndGlyphs" textLength="111" x="578.9047" y="207.6245">colorInitials(): String</text><!--MD5=[8568eedd71fb556356f784345d001495]
class usantatecla.mastermind.views.console.ColorView--><rect codeLine="79" fill="#FEFECE" filter="url(#frx8ikai0som6)" height="99.2188" id="usantatecla.mastermind.views.console.ColorView" style="stroke: #A80036; stroke-width: 1.5;" width="156" x="731.4047" y="115"/><ellipse cx="774.7547" cy="131" fill="#ADD1B2" rx="11" ry="11" style="stroke: #A80036; stroke-width: 1.0;"/><path d="M777.0985,126.6719 C776.161,126.2344 775.5672,126.0938 774.6922,126.0938 C772.0672,126.0938 770.0672,128.1719 770.0672,130.8906 L770.0672,132.0156 C770.0672,134.5938 772.1766,136.4844 775.0672,136.4844 C776.286,136.4844 777.4422,136.1875 778.1922,135.6406 C778.7703,135.2344 779.0985,134.7813 779.0985,134.3906 C779.0985,133.9375 778.7078,133.5469 778.2391,133.5469 C778.0203,133.5469 777.8172,133.625 777.6297,133.8125 C777.1766,134.2969 777.1766,134.2969 776.9891,134.3906 C776.5672,134.6563 775.8797,134.7813 775.1141,134.7813 C773.0672,134.7813 771.7703,133.6875 771.7703,131.9844 L771.7703,130.8906 C771.7703,129.1094 773.0203,127.7969 774.7547,127.7969 C775.3328,127.7969 775.9422,127.9531 776.411,128.2031 C776.8953,128.4844 777.0672,128.7031 777.161,129.1094 C777.2235,129.5156 777.2547,129.6406 777.3953,129.7656 C777.536,129.9063 777.7703,130.0156 777.9891,130.0156 C778.2547,130.0156 778.5203,129.875 778.6922,129.6563 C778.8016,129.5 778.8328,129.3125 778.8328,128.8906 L778.8328,127.4688 C778.8328,127.0313 778.8172,126.9063 778.7235,126.75 C778.5672,126.4844 778.286,126.3438 777.9891,126.3438 C777.6922,126.3438 777.4891,126.4375 777.2703,126.75 L777.0985,126.6719 Z "/><text fill="#000000" font-family="sans-serif" font-size="12" lengthAdjust="spacingAndGlyphs" textLength="61" x="795.0547" y="135.1543">ColorView</text><line style="stroke: #A80036; stroke-width: 1.5;" x1="732.4047" x2="886.4047" y1="147" y2="147"/><line style="stroke: #A80036; stroke-width: 1.5;" x1="732.4047" x2="886.4047" y1="155" y2="155"/><polygon fill="#4177AF" points="742.4047,162,738.4047,168,746.4047,168" style="stroke: #1963A0; stroke-width: 1.0;"/><text fill="#000000" font-family="sans-serif" font-size="11" lengthAdjust="spacingAndGlyphs" textLength="65" x="751.4047" y="169.2104">ColorView()</text><polygon fill="#4177AF" points="742.4047,174.8047,738.4047,180.8047,746.4047,180.8047" style="stroke: #1963A0; stroke-width: 1.0;"/><text fill="#000000" font-family="sans-serif" font-size="11" lengthAdjust="spacingAndGlyphs" textLength="94" x="751.4047" y="182.0151">ColorView(Color)</text><polygon fill="#4177AF" points="742.4047,187.6094,738.4047,193.6094,746.4047,193.6094" style="stroke: #1963A0; stroke-width: 1.0;"/><text fill="#000000" font-family="sans-serif" font-size="11" lengthAdjust="spacingAndGlyphs" textLength="130" x="751.4047" y="194.8198">resultInitials(int): String</text><polygon fill="#4177AF" points="742.4047,200.4141,738.4047,206.4141,746.4047,206.4141" style="stroke: #1963A0; stroke-width: 1.0;"/><text fill="#000000" font-family="sans-serif" font-size="11" lengthAdjust="spacingAndGlyphs" textLength="36" x="751.4047" y="207.6245">write()</text><!--MD5=[8e7e8d7e522e56c14d493dfee2dc57e6]
class WithConsoleView--><rect codeLine="1" fill="#FEFECE" filter="url(#frx8ikai0som6)" height="53.9375" id="WithConsoleView" style="stroke: #A80036; stroke-width: 1.5;" width="136" x="1101.4027" y="137.5"/><ellipse cx="1116.4027" cy="156.4688" fill="#ADD1B2" rx="11" ry="11" style="stroke: #A80036; stroke-width: 1.0;"/><path d="M1118.7465,152.1406 C1117.809,151.7031 1117.2152,151.5625 1116.3402,151.5625 C1113.7152,151.5625 1111.7152,153.6406 1111.7152,156.3594 L1111.7152,157.4844 C1111.7152,160.0625 1113.8246,161.9531 1116.7152,161.9531 C1117.934,161.9531 1119.0902,161.6563 1119.8402,161.1094 C1120.4183,160.7031 1120.7465,160.25 1120.7465,159.8594 C1120.7465,159.4063 1120.3558,159.0156 1119.8871,159.0156 C1119.6683,159.0156 1119.4652,159.0938 1119.2777,159.2813 C1118.8246,159.7656 1118.8246,159.7656 1118.6371,159.8594 C1118.2152,160.125 1117.5277,160.25 1116.7621,160.25 C1114.7152,160.25 1113.4183,159.1563 1113.4183,157.4531 L1113.4183,156.3594 C1113.4183,154.5781 1114.6683,153.2656 1116.4027,153.2656 C1116.9808,153.2656 1117.5902,153.4219 1118.059,153.6719 C1118.5433,153.9531 1118.7152,154.1719 1118.809,154.5781 C1118.8715,154.9844 1118.9027,155.1094 1119.0433,155.2344 C1119.184,155.375 1119.4183,155.4844 1119.6371,155.4844 C1119.9027,155.4844 1120.1683,155.3438 1120.3402,155.125 C1120.4496,154.9688 1120.4808,154.7813 1120.4808,154.3594 L1120.4808,152.9375 C1120.4808,152.5 1120.4652,152.375 1120.3715,152.2188 C1120.2152,151.9531 1119.934,151.8125 1119.6371,151.8125 C1119.3402,151.8125 1119.1371,151.9063 1118.9183,152.2188 L1118.7465,152.1406 Z "/><text fill="#000000" font-family="sans-serif" font-size="12" lengthAdjust="spacingAndGlyphs" textLength="98" x="1133.4027" y="153.6387">usantatecla.utils.</text><text fill="#000000" font-family="sans-serif" font-size="12" lengthAdjust="spacingAndGlyphs" textLength="104" x="1130.4027" y="167.6074">WithConsoleView</text><line style="stroke: #A80036; stroke-width: 1.5;" x1="1102.4027" x2="1236.4027" y1="175.4375" y2="175.4375"/><line style="stroke: #A80036; stroke-width: 1.5;" x1="1102.4027" x2="1236.4027" y1="183.4375" y2="183.4375"/><!--MD5=[c045e12321b83266d36d22b9096c24ea]
class View--><rect codeLine="11" fill="#FEFECE" filter="url(#frx8ikai0som6)" height="48" id="View" style="stroke: #A80036; stroke-width: 1.5;" width="244" x="872.4047" y="7"/><ellipse cx="887.4047" cy="23" fill="#ADD1B2" rx="11" ry="11" style="stroke: #A80036; stroke-width: 1.0;"/><path d="M889.7485,18.6719 C888.811,18.2344 888.2172,18.0938 887.3422,18.0938 C884.7172,18.0938 882.7172,20.1719 882.7172,22.8906 L882.7172,24.0156 C882.7172,26.5938 884.8266,28.4844 887.7172,28.4844 C888.936,28.4844 890.0922,28.1875 890.8422,27.6406 C891.4203,27.2344 891.7485,26.7813 891.7485,26.3906 C891.7485,25.9375 891.3578,25.5469 890.8891,25.5469 C890.6703,25.5469 890.4672,25.625 890.2797,25.8125 C889.8266,26.2969 889.8266,26.2969 889.6391,26.3906 C889.2172,26.6563 888.5297,26.7813 887.7641,26.7813 C885.7172,26.7813 884.4203,25.6875 884.4203,23.9844 L884.4203,22.8906 C884.4203,21.1094 885.6703,19.7969 887.4047,19.7969 C887.9828,19.7969 888.5922,19.9531 889.061,20.2031 C889.5453,20.4844 889.7172,20.7031 889.811,21.1094 C889.8735,21.5156 889.9047,21.6406 890.0453,21.7656 C890.186,21.9063 890.4203,22.0156 890.6391,22.0156 C890.9047,22.0156 891.1703,21.875 891.3422,21.6563 C891.4516,21.5 891.4828,21.3125 891.4828,20.8906 L891.4828,19.4688 C891.4828,19.0313 891.4672,18.9063 891.3735,18.75 C891.2172,18.4844 890.936,18.3438 890.6391,18.3438 C890.3422,18.3438 890.1391,18.4375 889.9203,18.75 L889.7485,18.6719 Z "/><text fill="#000000" font-family="sans-serif" font-size="12" lengthAdjust="spacingAndGlyphs" textLength="212" x="901.4047" y="27.1543">usantatecla.mastermind.views.View</text><line style="stroke: #A80036; stroke-width: 1.5;" x1="873.4047" x2="1115.4047" y1="39" y2="39"/><line style="stroke: #A80036; stroke-width: 1.5;" x1="873.4047" x2="1115.4047" y1="47" y2="47"/><!--MD5=[b6dcce5e5ef3c84b0b048d11301373dd]
class Game--><rect codeLine="25" fill="#FEFECE" filter="url(#frx8ikai0som6)" height="48" id="Game" style="stroke: #A80036; stroke-width: 1.5;" width="260" x="82.4043" y="445.5"/><ellipse cx="97.4043" cy="461.5" fill="#ADD1B2" rx="11" ry="11" style="stroke: #A80036; stroke-width: 1.0;"/><path d="M99.7481,457.1719 C98.8106,456.7344 98.2168,456.5938 97.3418,456.5938 C94.7168,456.5938 92.7168,458.6719 92.7168,461.3906 L92.7168,462.5156 C92.7168,465.0938 94.8262,466.9844 97.7168,466.9844 C98.9356,466.9844 100.0918,466.6875 100.8418,466.1406 C101.4199,465.7344 101.7481,465.2813 101.7481,464.8906 C101.7481,464.4375 101.3574,464.0469 100.8887,464.0469 C100.6699,464.0469 100.4668,464.125 100.2793,464.3125 C99.8262,464.7969 99.8262,464.7969 99.6387,464.8906 C99.2168,465.1563 98.5293,465.2813 97.7637,465.2813 C95.7168,465.2813 94.4199,464.1875 94.4199,462.4844 L94.4199,461.3906 C94.4199,459.6094 95.6699,458.2969 97.4043,458.2969 C97.9824,458.2969 98.5918,458.4531 99.0606,458.7031 C99.5449,458.9844 99.7168,459.2031 99.8106,459.6094 C99.8731,460.0156 99.9043,460.1406 100.0449,460.2656 C100.1856,460.4063 100.4199,460.5156 100.6387,460.5156 C100.9043,460.5156 101.1699,460.375 101.3418,460.1563 C101.4512,460 101.4824,459.8125 101.4824,459.3906 L101.4824,457.9688 C101.4824,457.5313 101.4668,457.4063 101.3731,457.25 C101.2168,456.9844 100.9356,456.8438 100.6387,456.8438 C100.3418,456.8438 100.1387,456.9375 99.9199,457.25 L99.7481,457.1719 Z "/><text fill="#000000" font-family="sans-serif" font-size="12" lengthAdjust="spacingAndGlyphs" textLength="228" x="111.4043" y="465.6543">usantatecla.mastermind.models.Game</text><line style="stroke: #A80036; stroke-width: 1.5;" x1="83.4043" x2="341.4043" y1="477.5" y2="477.5"/><line style="stroke: #A80036; stroke-width: 1.5;" x1="83.4043" x2="341.4043" y1="485.5" y2="485.5"/><!--MD5=[18eee71c88ab61f27581b8cbdd3ef5ee]
class Color--><rect codeLine="85" fill="#FEFECE" filter="url(#frx8ikai0som6)" height="53.9375" id="Color" style="stroke: #A80036; stroke-width: 1.5;" width="130" x="212.4047" y="290"/><ellipse cx="227.4047" cy="308.9688" fill="#ADD1B2" rx="11" ry="11" style="stroke: #A80036; stroke-width: 1.0;"/><path d="M229.7485,304.6406 C228.811,304.2031 228.2172,304.0625 227.3422,304.0625 C224.7172,304.0625 222.7172,306.1406 222.7172,308.8594 L222.7172,309.9844 C222.7172,312.5625 224.8266,314.4531 227.7172,314.4531 C228.936,314.4531 230.0922,314.1563 230.8422,313.6094 C231.4203,313.2031 231.7485,312.75 231.7485,312.3594 C231.7485,311.9063 231.3578,311.5156 230.8891,311.5156 C230.6703,311.5156 230.4672,311.5938 230.2797,311.7813 C229.8266,312.2656 229.8266,312.2656 229.6391,312.3594 C229.2172,312.625 228.5297,312.75 227.7641,312.75 C225.7172,312.75 224.4203,311.6563 224.4203,309.9531 L224.4203,308.8594 C224.4203,307.0781 225.6703,305.7656 227.4047,305.7656 C227.9828,305.7656 228.5922,305.9219 229.061,306.1719 C229.5453,306.4531 229.7172,306.6719 229.811,307.0781 C229.8735,307.4844 229.9047,307.6094 230.0453,307.7344 C230.186,307.875 230.4203,307.9844 230.6391,307.9844 C230.9047,307.9844 231.1703,307.8438 231.3422,307.625 C231.4516,307.4688 231.4828,307.2813 231.4828,306.8594 L231.4828,305.4375 C231.4828,305 231.4672,304.875 231.3735,304.7188 C231.2172,304.4531 230.936,304.3125 230.6391,304.3125 C230.3422,304.3125 230.1391,304.4063 229.9203,304.7188 L229.7485,304.6406 Z "/><text fill="#000000" font-family="sans-serif" font-size="12" lengthAdjust="spacingAndGlyphs" textLength="98" x="241.4047" y="306.1387">usantatecla.utils.</text><text fill="#000000" font-family="sans-serif" font-size="12" lengthAdjust="spacingAndGlyphs" textLength="64" x="258.4047" y="320.1074">ColorCode</text><line style="stroke: #A80036; stroke-width: 1.5;" x1="213.4047" x2="341.4047" y1="327.9375" y2="327.9375"/><line style="stroke: #A80036; stroke-width: 1.5;" x1="213.4047" x2="341.4047" y1="335.9375" y2="335.9375"/><!--MD5=[315b61b427ec618d6861d47eee00cca3]
class Console--><rect codeLine="89" fill="#FEFECE" filter="url(#frx8ikai0som6)" height="53.9375" id="Console" style="stroke: #A80036; stroke-width: 1.5;" width="130" x="47.4043" y="290"/><ellipse cx="62.4043" cy="308.9688" fill="#ADD1B2" rx="11" ry="11" style="stroke: #A80036; stroke-width: 1.0;"/><path d="M64.7481,304.6406 C63.8106,304.2031 63.2168,304.0625 62.3418,304.0625 C59.7168,304.0625 57.7168,306.1406 57.7168,308.8594 L57.7168,309.9844 C57.7168,312.5625 59.8262,314.4531 62.7168,314.4531 C63.9356,314.4531 65.0918,314.1563 65.8418,313.6094 C66.4199,313.2031 66.7481,312.75 66.7481,312.3594 C66.7481,311.9063 66.3574,311.5156 65.8887,311.5156 C65.6699,311.5156 65.4668,311.5938 65.2793,311.7813 C64.8262,312.2656 64.8262,312.2656 64.6387,312.3594 C64.2168,312.625 63.5293,312.75 62.7637,312.75 C60.7168,312.75 59.4199,311.6563 59.4199,309.9531 L59.4199,308.8594 C59.4199,307.0781 60.6699,305.7656 62.4043,305.7656 C62.9824,305.7656 63.5918,305.9219 64.0606,306.1719 C64.5449,306.4531 64.7168,306.6719 64.8106,307.0781 C64.8731,307.4844 64.9043,307.6094 65.0449,307.7344 C65.1856,307.875 65.4199,307.9844 65.6387,307.9844 C65.9043,307.9844 66.1699,307.8438 66.3418,307.625 C66.4512,307.4688 66.4824,307.2813 66.4824,306.8594 L66.4824,305.4375 C66.4824,305 66.4668,304.875 66.3731,304.7188 C66.2168,304.4531 65.9356,304.3125 65.6387,304.3125 C65.3418,304.3125 65.1387,304.4063 64.9199,304.7188 L64.7481,304.6406 Z "/><text fill="#000000" font-family="sans-serif" font-size="12" lengthAdjust="spacingAndGlyphs" textLength="98" x="76.4043" y="306.1387">usantatecla.utils.</text><text fill="#000000" font-family="sans-serif" font-size="12" lengthAdjust="spacingAndGlyphs" textLength="49" x="100.9043" y="320.1074">Console</text><line style="stroke: #A80036; stroke-width: 1.5;" x1="48.4043" x2="176.4043" y1="327.9375" y2="327.9375"/><line style="stroke: #A80036; stroke-width: 1.5;" x1="48.4043" x2="176.4043" y1="335.9375" y2="335.9375"/><!--MD5=[5cc2afc7699cbb48ec3daa48200efb03]
reverse link View to usantatecla.mastermind.views.console.ConsoleView--><path codeLine="14" d="M994.4047,75.511 C994.4047,88.141 994.4047,102.012 994.4047,114.931 " fill="none" id="View-backto-usantatecla.mastermind.views.console.ConsoleView" style="stroke: #A80036; stroke-width: 1.0;"/><polygon fill="none" points="987.4047,75.207,994.4047,55.207,1001.4047,75.207,987.4047,75.207" style="stroke: #A80036; stroke-width: 1.0;"/><!--MD5=[9e9e09f7b836be77202fb5a7c9dba601]
link usantatecla.mastermind.views.console.ConsoleView to usantatecla.mastermind.views.console.ProposalView--><path codeLine="15" d="M951.2436,224.0209 C951.2436,224.0209 931.3997,250.925 922.2537,263.325 " fill="none" id="usantatecla.mastermind.views.console.ConsoleView-usantatecla.mastermind.views.console.ProposalView" style="stroke: #A80036; stroke-width: 1.0;"/><polygon fill="#A80036" points="914.4167,273.952,922.978,269.0834,917.3846,269.9281,916.5398,264.3347,914.4167,273.952" style="stroke: #A80036; stroke-width: 1.0;"/><line style="stroke: #A80036; stroke-width: 1.0;" x1="917.3846" x2="922.1327" y1="269.9281" y2="263.49"/><polygon fill="#A80036" points="958.3657,214.363,951.5853,216.8179,951.2436,224.0209,958.024,221.566,958.3657,214.363" style="stroke: #A80036; stroke-width: 1.0;"/><!--MD5=[20a2805fbab39aefb16f40efe1c74efb]
link usantatecla.mastermind.views.console.ConsoleView to usantatecla.mastermind.views.console.ResumeView--><path codeLine="16" d="M911.7329,211.0558 C911.7329,211.0558 906.4857,213.209 904.4047,214 C795.9727,255.201 762.0197,242.426 650.4047,274 C636.7177,277.872 622.3097,282.295 608.3097,286.784 " fill="none" id="usantatecla.mastermind.views.console.ConsoleView-usantatecla.mastermind.views.console.ResumeView" style="stroke: #A80036; stroke-width: 1.0;"/><polygon fill="#A80036" points="595.5997,290.912,605.3952,291.9363,600.3552,289.3675,602.924,284.3275,595.5997,290.912" style="stroke: #A80036; stroke-width: 1.0;"/><line style="stroke: #A80036; stroke-width: 1.0;" x1="600.3552" x2="607.9642" y1="289.3675" y2="286.8965"/><polygon fill="#A80036" points="922.7277,206.248,915.6277,204.9869,911.7329,211.0558,918.8329,212.3168,922.7277,206.248" style="stroke: #A80036; stroke-width: 1.0;"/><!--MD5=[62b989f1b7fd9494cd0a5a3595d138cf]
link usantatecla.mastermind.views.console.ConsoleView to usantatecla.mastermind.views.console.StartView--><path codeLine="17" d="M912.1289,209.8629 C912.1289,209.8629 906.6347,212.807 904.4047,214 C858.9077,238.343 807.2517,265.774 768.9877,286.053 " fill="none" id="usantatecla.mastermind.views.console.ConsoleView-usantatecla.mastermind.views.console.StartView" style="stroke: #A80036; stroke-width: 1.0;"/><polygon fill="#A80036" points="757.0597,292.373,766.8852,291.6943,761.478,290.0323,763.14,284.6251,757.0597,292.373" style="stroke: #A80036; stroke-width: 1.0;"/><line style="stroke: #A80036; stroke-width: 1.0;" x1="761.478" x2="768.5467" y1="290.0323" y2="286.2865"/><polygon fill="#A80036" points="922.7027,204.189,915.5245,203.5013,912.1289,209.8629,919.3071,210.5506,922.7027,204.189" style="stroke: #A80036; stroke-width: 1.0;"/><!--MD5=[5e4d68cb2be65de7319b096bcad9bf7b]
reverse link WithConsoleView to usantatecla.mastermind.views.console.ProposalView--><path codeLine="28" d="M1105.3727,201.528 C1097.6527,205.772 1089.8627,210.009 1082.4027,214 C1040.6427,236.337 993.4857,260.549 955.5657,279.777 " fill="none" id="WithConsoleView-backto-usantatecla.mastermind.views.console.ProposalView" style="stroke: #A80036; stroke-width: 1.0;"/><polygon fill="none" points="1102.1727,195.296,1123.0627,191.727,1108.9627,207.542,1102.1727,195.296" style="stroke: #A80036; stroke-width: 1.0;"/><!--MD5=[4ed3a01c0bedc0f05b4c3e02e3f468aa]
link usantatecla.mastermind.views.console.ProposalView to Game--><path codeLine="29" d="M811.1507,348.434 C799.0317,352.786 786.4717,356.848 774.4047,360 C593.6667,407.213 540.2027,377.053 358.4047,420 C331.9637,426.246 303.4847,435.186 278.7617,443.692 " fill="none" id="usantatecla.mastermind.views.console.ProposalView-to-Game" style="stroke: #A80036; stroke-width: 1.0; stroke-dasharray: 7.0,7.0;"/><polygon fill="#A80036" points="273.8687,445.387,283.6821,446.2222,278.5935,443.7511,281.0647,438.6625,273.8687,445.387" style="stroke: #A80036; stroke-width: 1.0;"/><!--MD5=[7af6c83f995de445f81a1f725c5d2bc8]
link usantatecla.mastermind.views.console.ProposalView to usantatecla.mastermind.views.console.ProposedCombinationView--><path codeLine="30" d="M891.5597,360.323 C894.8217,377.25 898.6167,396.946 902.0677,414.858 " fill="none" id="usantatecla.mastermind.views.console.ProposalView-to-usantatecla.mastermind.views.console.ProposedCombinationView" style="stroke: #A80036; stroke-width: 1.0; stroke-dasharray: 7.0,7.0;"/><polygon fill="#A80036" points="903.0317,419.859,905.2573,410.2649,902.086,414.9492,897.4017,411.778,903.0317,419.859" style="stroke: #A80036; stroke-width: 1.0;"/><!--MD5=[c4efb82cf29beff154a63dbcc31bdb78]
link usantatecla.mastermind.views.console.ProposalView to usantatecla.mastermind.views.console.SecretCombinationView--><path codeLine="31" d="M800.0354,350.877 C800.0354,350.877 782.3697,357.281 774.4047,360 C686.1737,390.116 660.6107,387.036 573.4047,420 C567.4937,422.234 561.4497,424.652 555.3937,427.175 " fill="none" id="usantatecla.mastermind.views.console.ProposalView-usantatecla.mastermind.views.console.SecretCombinationView" style="stroke: #A80036; stroke-width: 1.0;"/><polygon fill="#A80036" points="542.9877,432.474,552.8355,432.617,547.5858,430.5098,549.6929,425.2601,542.9877,432.474" style="stroke: #A80036; stroke-width: 1.0;"/><line style="stroke: #A80036; stroke-width: 1.0;" x1="547.5858" x2="554.9422" y1="430.5098" y2="427.3675"/><polygon fill="#A80036" points="811.2827,346.694,804.2647,345.0364,800.0354,350.877,807.0534,352.5346,811.2827,346.694" style="stroke: #A80036; stroke-width: 1.0;"/><!--MD5=[019e801d1e3fd3e0fc3f226c1ace6491]
link usantatecla.mastermind.views.console.ProposalView to usantatecla.mastermind.views.console.ResultView--><path codeLine="32" d="M820.1507,360.123 C790.5277,379.849 755.2077,403.37 725.0537,423.45 " fill="none" id="usantatecla.mastermind.views.console.ProposalView-to-usantatecla.mastermind.views.console.ResultView" style="stroke: #A80036; stroke-width: 1.0; stroke-dasharray: 7.0,7.0;"/><polygon fill="#A80036" points="720.6427,426.387,730.351,424.7291,724.8047,423.6161,725.9176,418.0698,720.6427,426.387" style="stroke: #A80036; stroke-width: 1.0;"/><!--MD5=[6974b1e221a58d0b8785ea0d6203c86a]
reverse link WithConsoleView to usantatecla.mastermind.views.console.ProposedCombinationView--><path codeLine="40" d="M1167.9227,211.965 C1164.3327,254.596 1153.1327,317.407 1119.4027,360 C1099.8227,384.731 1073.0327,404.448 1045.2327,419.915 " fill="none" id="WithConsoleView-backto-usantatecla.mastermind.views.console.ProposedCombinationView" style="stroke: #A80036; stroke-width: 1.0;"/><polygon fill="none" points="1160.9527,211.249,1169.1927,191.725,1174.9227,212.124,1160.9527,211.249" style="stroke: #A80036; stroke-width: 1.0;"/><!--MD5=[d0f8ea65883179283301213740c26771]
reverse link WithConsoleView to usantatecla.mastermind.views.console.ResultView--><path codeLine="52" d="M1146.1927,209.542 C1118.3227,260.752 1071.8127,340.74 1043.4027,360 C929.7707,437.03 868.7807,371.362 740.4047,420 C734.7857,422.129 729.1057,424.618 723.4937,427.324 " fill="none" id="WithConsoleView-backto-usantatecla.mastermind.views.console.ResultView" style="stroke: #A80036; stroke-width: 1.0;"/><polygon fill="none" points="1140.0727,206.13,1155.7127,191.827,1152.4127,212.758,1140.0727,206.13" style="stroke: #A80036; stroke-width: 1.0;"/><!--MD5=[47ff448c33547e6e7517814cd7a391dd]
link usantatecla.mastermind.views.console.ResumeView to Game--><path codeLine="58" d="M451.2727,352.906 C394.1417,380.553 315.6937,418.516 264.5337,443.274 " fill="none" id="usantatecla.mastermind.views.console.ResumeView-to-Game" style="stroke: #A80036; stroke-width: 1.0; stroke-dasharray: 7.0,7.0;"/><polygon fill="#A80036" points="259.9767,445.478,269.8204,445.1603,264.4779,443.301,266.3372,437.9584,259.9767,445.478" style="stroke: #A80036; stroke-width: 1.0;"/><!--MD5=[99ec5c7286ee3a7fd358aca32c2523c0]
reverse link WithConsoleView to usantatecla.mastermind.views.console.SecretCombinationView--><path codeLine="66" d="M1118.3227,203.961 C1093.4127,223.728 1063.6827,248.896 1039.4027,274 C1005.7247,308.833 1014.2327,335.543 972.4047,360 C817.5987,450.517 745.1927,368.552 573.4047,420 C562.1517,423.37 550.5587,427.733 539.3687,432.458 " fill="none" id="WithConsoleView-backto-usantatecla.mastermind.views.console.SecretCombinationView" style="stroke: #A80036; stroke-width: 1.0;"/><polygon fill="none" points="1114.2027,198.298,1134.2727,191.507,1122.8127,209.332,1114.2027,198.298" style="stroke: #A80036; stroke-width: 1.0;"/><!--MD5=[69dc8072829cbbfdbc9d9a2751321cd9]
link usantatecla.mastermind.views.console.ColorView to Color--><path codeLine="92" d="M731.3727,207.299 C725.3777,209.774 719.3467,212.046 713.4047,214 C561.3927,263.974 510.1507,223.225 358.4047,274 C347.7227,277.574 336.7247,282.403 326.4117,287.515 " fill="none" id="usantatecla.mastermind.views.console.ColorView-to-Color" style="stroke: #A80036; stroke-width: 1.0; stroke-dasharray: 7.0,7.0;"/><polygon fill="#A80036" points="321.7247,289.879,331.5617,289.3966,326.1888,287.6269,327.9585,282.254,321.7247,289.879" style="stroke: #A80036; stroke-width: 1.0;"/><!--MD5=[b6f3fff8c22bf6afa8b0a8da791006e0]
link usantatecla.mastermind.views.console.ErrorView to Console--><path codeLine="93" d="M558.4217,207.025 C552.7687,209.616 547.0557,211.986 541.4047,214 C393.9767,266.542 342.8567,224.427 194.4047,274 C183.6157,277.603 172.4947,282.444 162.0567,287.559 " fill="none" id="usantatecla.mastermind.views.console.ErrorView-to-Console" style="stroke: #A80036; stroke-width: 1.0; stroke-dasharray: 7.0,7.0;"/><polygon fill="#A80036" points="157.3127,289.925,167.1519,289.4878,161.7871,287.6935,163.5815,282.3288,157.3127,289.925" style="stroke: #A80036; stroke-width: 1.0;"/><!--MD5=[3ca5cfec62f53a65f95f8cad3332d93e]
link usantatecla.mastermind.views.console.AttemptsView to Game--><path codeLine="94" d="M374.4807,173.932 C265.4117,187.924 71.3107,219.892 29.4043,274 C6,304.219 10.4852,326.788 29.4043,360 C52.067,399.783 95.6903,426.479 134.6617,443.433 " fill="none" id="usantatecla.mastermind.views.console.AttemptsView-to-Game" style="stroke: #A80036; stroke-width: 1.0; stroke-dasharray: 7.0,7.0;"/><polygon fill="#A80036" points="139.3887,445.453,132.6834,438.2392,134.7906,443.4889,129.5409,445.5961,139.3887,445.453" style="stroke: #A80036; stroke-width: 1.0;"/><!--MD5=[efb2c8b35477900b1e0d0392a24acc4a]
reverse link WithConsoleView to usantatecla.mastermind.views.console.StartView--><path codeLine="95" d="M1110.8127,201.29 C1101.5227,206.041 1091.8627,210.477 1082.4027,214 C959.4757,259.799 917.0107,230.063 793.4047,274 C781.3147,278.297 768.7657,284.08 757.2597,289.978 " fill="none" id="WithConsoleView-backto-usantatecla.mastermind.views.console.StartView" style="stroke: #A80036; stroke-width: 1.0;"/><polygon fill="none" points="1107.6827,195.021,1128.6027,191.61,1114.3827,207.318,1107.6827,195.021" style="stroke: #A80036; stroke-width: 1.0;"/><!--MD5=[3d640b6d108375fcca02465c3453cbe1]
link usantatecla.mastermind.views.console.StartView to Game--><path codeLine="96" d="M667.7047,338.639 C650.6367,346.023 630.8467,353.995 612.4047,360 C502.1087,395.915 469.9987,388.352 358.4047,420 C333.4717,427.071 306.4647,435.749 282.5377,443.801 " fill="none" id="usantatecla.mastermind.views.console.StartView-to-Game" style="stroke: #A80036; stroke-width: 1.0; stroke-dasharray: 7.0,7.0;"/><polygon fill="#A80036" points="277.7947,445.402,287.6015,446.3117,282.5318,443.802,285.0415,438.7324,277.7947,445.402" style="stroke: #A80036; stroke-width: 1.0;"/><!--MD5=[80869c372aff1267a2951704c8fbb83c]
link usantatecla.mastermind.views.console.StartView to usantatecla.mastermind.views.console.SecretCombinationView--><path codeLine="97" d="M667.6507,345.604 C629.4767,369.15 574.1607,403.269 531.4947,429.586 " fill="none" id="usantatecla.mastermind.views.console.StartView-to-usantatecla.mastermind.views.console.SecretCombinationView" style="stroke: #A80036; stroke-width: 1.0; stroke-dasharray: 7.0,7.0;"/><polygon fill="#A80036" points="527.1447,432.269,536.9048,430.9498,531.4006,429.6446,532.7058,424.1404,527.1447,432.269" style="stroke: #A80036; stroke-width: 1.0;"/><!--MD5=[93b6e5cb7fbd7a3d0df522c7b24aad95]
@startuml
class WithConsoleView as "usantatecla.utils.\nWithConsoleView"{

}
class  usantatecla.mastermind.views.console.ConsoleView{
+ ConsoleView(Game)
~ start() 
~ resume(): boolean
~ propose(): boolean
}

class View as "usantatecla.mastermind.views.View"{

}
View <|-down- usantatecla.mastermind.views.console.ConsoleView
usantatecla.mastermind.views.console.ConsoleView *-down-> usantatecla.mastermind.views.console.ProposalView
usantatecla.mastermind.views.console.ConsoleView *-down-> usantatecla.mastermind.views.console.ResumeView
usantatecla.mastermind.views.console.ConsoleView *-down-> usantatecla.mastermind.views.console.StartView

class  usantatecla.mastermind.views.console.ProposalView{
- game: Game
~ ProposalView(Game)
~ interact(): boolean
}

class Game as "usantatecla.mastermind.models.Game"{

}
WithConsoleView <|-down- usantatecla.mastermind.views.console.ProposalView
usantatecla.mastermind.views.console.ProposalView ..> Game
usantatecla.mastermind.views.console.ProposalView ..> usantatecla.mastermind.views.console.ProposedCombinationView
usantatecla.mastermind.views.console.ProposalView *-down-> usantatecla.mastermind.views.console.SecretCombinationView
usantatecla.mastermind.views.console.ProposalView ..> usantatecla.mastermind.views.console.ResultView

class  usantatecla.mastermind.views.console.ProposedCombinationView{
- proposedCombination: ProposedCombination
~ ProposedCombinationView(ProposedCombination)
~ write()
~ read()
}
WithConsoleView <|-down- usantatecla.mastermind.views.console.ProposedCombinationView

class  usantatecla.mastermind.views.console.ResultView{
-result: Result
~ ResultView(Result)
~ writeln()
}
class  usantatecla.mastermind.views.console.AttemptsView{
- game: Game
~ AttemptsView(Game)
~ writeln()
}
WithConsoleView <|-down- usantatecla.mastermind.views.console.ResultView

class  usantatecla.mastermind.views.console.ResumeView{
~ ResumeView(Game)
~ interact(): boolean
}
usantatecla.mastermind.views.console.ResumeView ..> Game

class  usantatecla.mastermind.views.console.SecretCombinationView{
~ SecretCombinationView()
~ writeln() 
}


WithConsoleView <|-down- usantatecla.mastermind.views.console.SecretCombinationView

class  usantatecla.mastermind.views.console.StartView{
~ interact() 
}

class  usantatecla.mastermind.views.console.ErrorView{
~ ErrorView() 
~ ErrorView(Error) 
~ writeln()
~ colorInitials(): String
}

class  usantatecla.mastermind.views.console.ColorView{
    ~ ColorView()
    ~ ColorView(Color)
    ~ resultInitials(int): String
    ~ write()
}
class Color as "usantatecla.utils.\nColorCode"{

}

class Console as "usantatecla.utils.\nConsole"{

}
usantatecla.mastermind.views.console.ColorView .down-> Color
usantatecla.mastermind.views.console.ErrorView .down-> Console
usantatecla.mastermind.views.console.AttemptsView .down-> Game
WithConsoleView <|-down- usantatecla.mastermind.views.console.StartView
usantatecla.mastermind.views.console.StartView ..> Game
usantatecla.mastermind.views.console.StartView..> usantatecla.mastermind.views.console.SecretCombinationView
@enduml

PlantUML version 1.2020.20beta7(Unknown compile time)
(GPL source distribution)
Java Runtime: Java(TM) SE Runtime Environment
JVM: Java HotSpot(TM) 64-Bit Server VM
Default Encoding: UTF-8
Language: en
Country: US
--></g></svg>