<?xml version="1.0" encoding="UTF-8" standalone="no"?><svg xmlns="http://www.w3.org/2000/svg" xmlns:xlink="http://www.w3.org/1999/xlink" contentScriptType="application/ecmascript" contentStyleType="text/css" height="451px" preserveAspectRatio="none" style="width:864px;height:451px;" version="1.1" viewBox="0 0 864 451" width="864px" zoomAndPan="magnify"><defs><filter height="300%" id="fx95z2bvfu3tc" width="300%" x="-1" y="-1"><feGaussianBlur result="blurOut" stdDeviation="2.0"/><feColorMatrix in="blurOut" result="blurOut2" type="matrix" values="0 0 0 0 0 0 0 0 0 0 0 0 0 0 0 0 0 0 .4 0"/><feOffset dx="4.0" dy="4.0" in="blurOut2" result="blurOut3"/><feBlend in="SourceGraphic" in2="blurOut3" mode="normal"/></filter></defs><g><!--MD5=[29d5d00c8f272934fcfbf235a28c504f]
cluster usantatecla.mastermind.views--><polygon fill="#FFFFFF" filter="url(#fx95z2bvfu3tc)" points="16,6,273,6,280,28.2969,574,28.2969,574,444,16,444,16,6" style="stroke: #000000; stroke-width: 1.5;"/><line style="stroke: #000000; stroke-width: 1.5;" x1="16" x2="280" y1="28.2969" y2="28.2969"/><text fill="#000000" font-family="sans-serif" font-size="14" font-weight="bold" lengthAdjust="spacingAndGlyphs" textLength="251" x="20" y="20.9951">usantatecla.mastermind.views</text><!--MD5=[dab5b8162ddba5d4d249ad537ad64188]
class usantatecla.mastermind.views.ColorView--><rect codeLine="1" fill="#FEFECE" filter="url(#fx95z2bvfu3tc)" height="137.6328" id="usantatecla.mastermind.views.ColorView" style="stroke: #A80036; stroke-width: 1.5;" width="161" x="32.5" y="41"/><ellipse cx="79.75" cy="57" fill="#A9DCDF" rx="11" ry="11" style="stroke: #A80036; stroke-width: 1.0;"/><path d="M81.8281,58.8125 L82.2188,59.7969 L81.8281,59.7969 C81.375,59.7969 81.2656,59.8125 81.1094,59.9219 C80.8594,60.0781 80.7031,60.3594 80.7031,60.6563 C80.7031,60.9219 80.8438,61.1719 81.0625,61.3281 C81.2031,61.4531 81.4063,61.5 81.8281,61.5 L84.1875,61.5 C84.5469,61.5 84.7656,61.4688 84.9063,61.375 C85.1563,61.2344 85.3125,60.9375 85.3125,60.6563 C85.3125,60.375 85.1719,60.125 84.9531,59.9688 C84.7813,59.8281 84.625,59.7969 84.1563,59.7969 L80.7656,51.5938 L77.0938,51.5938 C76.6406,51.5938 76.5156,51.6094 76.3594,51.7031 C76.1094,51.875 75.9531,52.1563 75.9531,52.4375 C75.9531,52.7188 76.0938,52.9688 76.3125,53.1406 C76.4844,53.25 76.6563,53.2813 77.0938,53.2813 L78.1719,53.2813 L75.5313,59.7969 C75.1094,59.7969 74.9531,59.8125 74.7969,59.9219 C74.5469,60.0781 74.3906,60.3594 74.3906,60.6563 C74.3906,61.2188 74.7656,61.5 75.5156,61.5 L77.7813,61.5 C78.1406,61.5 78.3594,61.4688 78.4844,61.375 C78.75,61.2344 78.8906,60.9375 78.8906,60.6563 C78.8906,60.375 78.7656,60.125 78.5469,59.9531 C78.375,59.8281 78.2344,59.7969 77.7813,59.7969 L77.3906,59.7969 L77.7813,58.8125 L81.8281,58.8125 Z M81.125,57.1094 L78.4531,57.1094 L79.7969,53.8438 L81.125,57.1094 Z "/><text fill="#000000" font-family="sans-serif" font-size="12" font-style="italic" lengthAdjust="spacingAndGlyphs" textLength="58" x="100.25" y="61.1543">ColorView</text><line style="stroke: #A80036; stroke-width: 1.5;" x1="33.5" x2="192.5" y1="73" y2="73"/><ellipse cx="43.5" cy="84" fill="none" rx="3" ry="3" style="stroke: #038048; stroke-width: 1.0;"/><text fill="#000000" font-family="sans-serif" font-size="11" lengthAdjust="spacingAndGlyphs" text-decoration="underline" textLength="85" x="52.5" y="87.2104">INITIALS: char[]</text><polygon fill="none" points="43.5,91.8047,47.5,95.8047,43.5,99.8047,39.5,95.8047" style="stroke: #B38D22; stroke-width: 1.0;"/><text fill="#000000" font-family="sans-serif" font-size="11" lengthAdjust="spacingAndGlyphs" textLength="63" x="52.5" y="100.0151">color: Color</text><line style="stroke: #A80036; stroke-width: 1.5;" x1="33.5" x2="192.5" y1="106.6094" y2="106.6094"/><polygon fill="#FFFF44" points="43.5,112.6094,47.5,116.6094,43.5,120.6094,39.5,116.6094" style="stroke: #B38D22; stroke-width: 1.0;"/><text fill="#000000" font-family="sans-serif" font-size="11" lengthAdjust="spacingAndGlyphs" textLength="65" x="52.5" y="120.8198">ColorView()</text><polygon fill="#FFFF44" points="43.5,125.4141,47.5,129.4141,43.5,133.4141,39.5,129.4141" style="stroke: #B38D22; stroke-width: 1.0;"/><text fill="#000000" font-family="sans-serif" font-size="11" lengthAdjust="spacingAndGlyphs" textLength="94" x="52.5" y="133.6245">ColorView(Color)</text><ellipse cx="43.5" cy="143.2188" fill="#84BE84" rx="3" ry="3" style="stroke: #038048; stroke-width: 1.0;"/><text fill="#000000" font-family="sans-serif" font-size="11" lengthAdjust="spacingAndGlyphs" textLength="97" x="52.5" y="146.4292">allInitials(): String</text><polygon fill="#FFFF44" points="43.5,151.0234,47.5,155.0234,43.5,159.0234,39.5,155.0234" style="stroke: #B38D22; stroke-width: 1.0;"/><text fill="#000000" font-family="sans-serif" font-size="11" font-style="italic" lengthAdjust="spacingAndGlyphs" textLength="131" x="52.5" y="159.2339">resultinitials(int): String</text><ellipse cx="43.5" cy="168.8281" fill="#84BE84" rx="3" ry="3" style="stroke: #038048; stroke-width: 1.0;"/><text fill="#000000" font-family="sans-serif" font-size="11" lengthAdjust="spacingAndGlyphs" text-decoration="underline" textLength="135" x="52.5" y="172.0386">getInstance(char): Color</text><!--MD5=[bd953d99961dd365a3924fc1e98cf727]
class usantatecla.mastermind.views.ErrorView--><rect codeLine="11" fill="#FEFECE" filter="url(#fx95z2bvfu3tc)" height="112.0234" id="usantatecla.mastermind.views.ErrorView" style="stroke: #A80036; stroke-width: 1.5;" width="139" x="418.5" y="54"/><ellipse cx="455.1" cy="70" fill="#ADD1B2" rx="11" ry="11" style="stroke: #A80036; stroke-width: 1.0;"/><path d="M457.4438,65.6719 C456.5063,65.2344 455.9125,65.0938 455.0375,65.0938 C452.4125,65.0938 450.4125,67.1719 450.4125,69.8906 L450.4125,71.0156 C450.4125,73.5938 452.5219,75.4844 455.4125,75.4844 C456.6313,75.4844 457.7875,75.1875 458.5375,74.6406 C459.1156,74.2344 459.4438,73.7813 459.4438,73.3906 C459.4438,72.9375 459.0531,72.5469 458.5844,72.5469 C458.3656,72.5469 458.1625,72.625 457.975,72.8125 C457.5219,73.2969 457.5219,73.2969 457.3344,73.3906 C456.9125,73.6563 456.225,73.7813 455.4594,73.7813 C453.4125,73.7813 452.1156,72.6875 452.1156,70.9844 L452.1156,69.8906 C452.1156,68.1094 453.3656,66.7969 455.1,66.7969 C455.6781,66.7969 456.2875,66.9531 456.7563,67.2031 C457.2406,67.4844 457.4125,67.7031 457.5063,68.1094 C457.5688,68.5156 457.6,68.6406 457.7406,68.7656 C457.8813,68.9063 458.1156,69.0156 458.3344,69.0156 C458.6,69.0156 458.8656,68.875 459.0375,68.6563 C459.1469,68.5 459.1781,68.3125 459.1781,67.8906 L459.1781,66.4688 C459.1781,66.0313 459.1625,65.9063 459.0688,65.75 C458.9125,65.4844 458.6313,65.3438 458.3344,65.3438 C458.0375,65.3438 457.8344,65.4375 457.6156,65.75 L457.4438,65.6719 Z "/><text fill="#000000" font-family="sans-serif" font-size="12" lengthAdjust="spacingAndGlyphs" textLength="59" x="473.9" y="74.1543">ErrorView</text><line style="stroke: #A80036; stroke-width: 1.5;" x1="419.5" x2="556.5" y1="86" y2="86"/><ellipse cx="429.5" cy="97" fill="none" rx="3" ry="3" style="stroke: #038048; stroke-width: 1.0;"/><text fill="#000000" font-family="sans-serif" font-size="11" lengthAdjust="spacingAndGlyphs" textLength="101" x="438.5" y="100.2104">message: String[]</text><polygon fill="none" points="429.5,104.8047,433.5,108.8047,429.5,112.8047,425.5,108.8047" style="stroke: #B38D22; stroke-width: 1.0;"/><text fill="#000000" font-family="sans-serif" font-size="11" lengthAdjust="spacingAndGlyphs" textLength="60" x="438.5" y="113.0151">error: Error</text><line style="stroke: #A80036; stroke-width: 1.5;" x1="419.5" x2="556.5" y1="119.6094" y2="119.6094"/><polygon fill="#FFFF44" points="429.5,125.6094,433.5,129.6094,429.5,133.6094,425.5,129.6094" style="stroke: #B38D22; stroke-width: 1.0;"/><text fill="#000000" font-family="sans-serif" font-size="11" lengthAdjust="spacingAndGlyphs" textLength="62" x="438.5" y="133.8198">ErrorView()</text><ellipse cx="429.5" cy="143.4141" fill="#84BE84" rx="3" ry="3" style="stroke: #038048; stroke-width: 1.0;"/><text fill="#000000" font-family="sans-serif" font-size="11" lengthAdjust="spacingAndGlyphs" textLength="88" x="438.5" y="146.6245">ErrorView(Error)</text><polygon fill="#FFFF44" points="429.5,151.2188,433.5,155.2188,429.5,159.2188,425.5,155.2188" style="stroke: #B38D22; stroke-width: 1.0;"/><text fill="#000000" font-family="sans-serif" font-size="11" font-style="italic" lengthAdjust="spacingAndGlyphs" textLength="113" x="438.5" y="159.4292">colorInitials(): String</text><!--MD5=[869bb932d54482a0e6fc3ac31d21d51b]
class usantatecla.mastermind.views.MessageView--><rect codeLine="19" fill="#FEFECE" filter="url(#fx95z2bvfu3tc)" height="188.8516" id="usantatecla.mastermind.views.MessageView" style="stroke: #A80036; stroke-width: 1.5;" width="173" x="32.5" y="239"/><ellipse cx="73.15" cy="255" fill="#EB937F" rx="11" ry="11" style="stroke: #A80036; stroke-width: 1.0;"/><path d="M71.9469,255.875 L73.4,255.875 L73.4,255.9844 C73.4,256.3906 73.4313,256.5469 73.5094,256.7031 C73.6656,256.9531 73.9469,257.1094 74.2438,257.1094 C74.4938,257.1094 74.7594,256.9688 74.9156,256.75 C75.0406,256.5938 75.0719,256.4375 75.0719,255.9844 L75.0719,254.0625 C75.0719,253.9063 75.0719,253.8594 75.0563,253.7031 C74.9938,253.2344 74.6813,252.9219 74.2281,252.9219 C73.9781,252.9219 73.7125,253.0625 73.5406,253.2813 C73.4313,253.4531 73.4,253.6094 73.4,254.0625 L73.4,254.1875 L71.9469,254.1875 L71.9469,251.7813 L75.9313,251.7813 L75.9313,252.6406 C75.9313,253.0469 75.9625,253.2188 76.0406,253.375 C76.2125,253.625 76.4938,253.7813 76.775,253.7813 C77.0406,253.7813 77.3063,253.6406 77.4781,253.4219 C77.5875,253.25 77.6188,253.1094 77.6188,252.6406 L77.6188,250.0938 L69.9938,250.0938 C69.5563,250.0938 69.4313,250.1094 69.275,250.2031 C69.025,250.3594 68.8688,250.6563 68.8688,250.9375 C68.8688,251.2188 69.0094,251.4688 69.2281,251.6406 C69.3844,251.75 69.5719,251.7813 69.9938,251.7813 L70.2438,251.7813 L70.2438,258.2969 L69.9938,258.2969 C69.5875,258.2969 69.4313,258.3125 69.275,258.4219 C69.025,258.5938 68.8688,258.8594 68.8688,259.1563 C68.8688,259.4219 69.0094,259.6719 69.2281,259.8281 C69.3688,259.9531 69.6031,260 69.9938,260 L77.9938,260 L77.9938,257.4219 C77.9938,256.9844 77.9625,256.8438 77.8844,256.6875 C77.7125,256.4375 77.4313,256.2813 77.15,256.2813 C76.8844,256.2813 76.6188,256.3906 76.4469,256.6406 C76.3375,256.7969 76.3063,256.9375 76.3063,257.4219 L76.3063,258.2969 L71.9469,258.2969 L71.9469,255.875 Z "/><text fill="#000000" font-family="sans-serif" font-size="12" lengthAdjust="spacingAndGlyphs" textLength="84" x="92.85" y="259.1543">MessageView</text><line style="stroke: #A80036; stroke-width: 1.5;" x1="33.5" x2="204.5" y1="271" y2="271"/><ellipse cx="43.5" cy="282" fill="none" rx="3" ry="3" style="stroke: #038048; stroke-width: 1.0;"/><text fill="#000000" font-family="sans-serif" font-size="11" lengthAdjust="spacingAndGlyphs" textLength="30" x="52.5" y="285.2104">TURN</text><ellipse cx="43.5" cy="294.8047" fill="none" rx="3" ry="3" style="stroke: #038048; stroke-width: 1.0;"/><text fill="#000000" font-family="sans-serif" font-size="11" lengthAdjust="spacingAndGlyphs" textLength="44" x="52.5" y="298.0151">SECRET</text><ellipse cx="43.5" cy="307.6094" fill="none" rx="3" ry="3" style="stroke: #038048; stroke-width: 1.0;"/><text fill="#000000" font-family="sans-serif" font-size="11" lengthAdjust="spacingAndGlyphs" textLength="46" x="52.5" y="310.8198">RESUME</text><ellipse cx="43.5" cy="320.4141" fill="none" rx="3" ry="3" style="stroke: #038048; stroke-width: 1.0;"/><text fill="#000000" font-family="sans-serif" font-size="11" lengthAdjust="spacingAndGlyphs" textLength="43" x="52.5" y="323.6245">RESULT</text><ellipse cx="43.5" cy="333.2188" fill="none" rx="3" ry="3" style="stroke: #038048; stroke-width: 1.0;"/><text fill="#000000" font-family="sans-serif" font-size="11" lengthAdjust="spacingAndGlyphs" textLength="147" x="52.5" y="336.4292">PROPOSED_COMBINATION</text><ellipse cx="43.5" cy="346.0234" fill="none" rx="3" ry="3" style="stroke: #038048; stroke-width: 1.0;"/><text fill="#000000" font-family="sans-serif" font-size="11" lengthAdjust="spacingAndGlyphs" textLength="30" x="52.5" y="349.2339">TITLE</text><ellipse cx="43.5" cy="358.8281" fill="none" rx="3" ry="3" style="stroke: #038048; stroke-width: 1.0;"/><text fill="#000000" font-family="sans-serif" font-size="11" lengthAdjust="spacingAndGlyphs" textLength="44" x="52.5" y="362.0386">WINNER</text><ellipse cx="43.5" cy="371.6328" fill="none" rx="3" ry="3" style="stroke: #038048; stroke-width: 1.0;"/><text fill="#000000" font-family="sans-serif" font-size="11" lengthAdjust="spacingAndGlyphs" textLength="46" x="52.5" y="374.8433">LOOSER</text><rect fill="none" height="6" style="stroke: #C82930; stroke-width: 1.0;" width="6" x="40.5" y="381.4375"/><text fill="#000000" font-family="sans-serif" font-size="11" lengthAdjust="spacingAndGlyphs" textLength="93" x="52.5" y="387.6479">message: String</text><line style="stroke: #A80036; stroke-width: 1.5;" x1="33.5" x2="204.5" y1="394.2422" y2="394.2422"/><rect fill="#F24D5C" height="6" style="stroke: #C82930; stroke-width: 1.0;" width="6" x="40.5" y="402.2422"/><text fill="#000000" font-family="sans-serif" font-size="11" lengthAdjust="spacingAndGlyphs" textLength="92" x="52.5" y="408.4526">Message(String)</text><ellipse cx="43.5" cy="418.0469" fill="#84BE84" rx="3" ry="3" style="stroke: #038048; stroke-width: 1.0;"/><text fill="#000000" font-family="sans-serif" font-size="11" lengthAdjust="spacingAndGlyphs" textLength="118" x="52.5" y="421.2573">getMessage(): String</text><!--MD5=[f5534db0476bcf0d5af6a596dc954aba]
class usantatecla.mastermind.views.View--><rect codeLine="33" fill="#FEFECE" filter="url(#fx95z2bvfu3tc)" height="124.8281" id="usantatecla.mastermind.views.View" style="stroke: #A80036; stroke-width: 1.5;" width="154" x="229" y="47.5"/><ellipse cx="287.75" cy="63.5" fill="#A9DCDF" rx="11" ry="11" style="stroke: #A80036; stroke-width: 1.0;"/><path d="M289.8281,65.3125 L290.2188,66.2969 L289.8281,66.2969 C289.375,66.2969 289.2656,66.3125 289.1094,66.4219 C288.8594,66.5781 288.7031,66.8594 288.7031,67.1563 C288.7031,67.4219 288.8438,67.6719 289.0625,67.8281 C289.2031,67.9531 289.4063,68 289.8281,68 L292.1875,68 C292.5469,68 292.7656,67.9688 292.9063,67.875 C293.1563,67.7344 293.3125,67.4375 293.3125,67.1563 C293.3125,66.875 293.1719,66.625 292.9531,66.4688 C292.7813,66.3281 292.625,66.2969 292.1563,66.2969 L288.7656,58.0938 L285.0938,58.0938 C284.6406,58.0938 284.5156,58.1094 284.3594,58.2031 C284.1094,58.375 283.9531,58.6563 283.9531,58.9375 C283.9531,59.2188 284.0938,59.4688 284.3125,59.6406 C284.4844,59.75 284.6563,59.7813 285.0938,59.7813 L286.1719,59.7813 L283.5313,66.2969 C283.1094,66.2969 282.9531,66.3125 282.7969,66.4219 C282.5469,66.5781 282.3906,66.8594 282.3906,67.1563 C282.3906,67.7188 282.7656,68 283.5156,68 L285.7813,68 C286.1406,68 286.3594,67.9688 286.4844,67.875 C286.75,67.7344 286.8906,67.4375 286.8906,67.1563 C286.8906,66.875 286.7656,66.625 286.5469,66.4531 C286.375,66.3281 286.2344,66.2969 285.7813,66.2969 L285.3906,66.2969 L285.7813,65.3125 L289.8281,65.3125 Z M289.125,63.6094 L286.4531,63.6094 L287.7969,60.3438 L289.125,63.6094 Z "/><text fill="#000000" font-family="sans-serif" font-size="12" font-style="italic" lengthAdjust="spacingAndGlyphs" textLength="28" x="308.25" y="67.6543">View</text><line style="stroke: #A80036; stroke-width: 1.5;" x1="230" x2="382" y1="79.5" y2="79.5"/><polygon fill="none" points="240,85.5,244,89.5,240,93.5,236,89.5" style="stroke: #B38D22; stroke-width: 1.0;"/><text fill="#000000" font-family="sans-serif" font-size="11" lengthAdjust="spacingAndGlyphs" textLength="75" x="249" y="93.7104">game: Game</text><line style="stroke: #A80036; stroke-width: 1.5;" x1="230" x2="382" y1="100.3047" y2="100.3047"/><ellipse cx="240" cy="111.3047" fill="#84BE84" rx="3" ry="3" style="stroke: #038048; stroke-width: 1.0;"/><text fill="#000000" font-family="sans-serif" font-size="11" lengthAdjust="spacingAndGlyphs" textLength="71" x="249" y="114.5151">View(Game)</text><ellipse cx="240" cy="124.1094" fill="#84BE84" rx="3" ry="3" style="stroke: #038048; stroke-width: 1.0;"/><text fill="#000000" font-family="sans-serif" font-size="11" lengthAdjust="spacingAndGlyphs" textLength="51" x="249" y="127.3198">interact()</text><polygon fill="#FFFF44" points="240,131.9141,244,135.9141,240,139.9141,236,135.9141" style="stroke: #B38D22; stroke-width: 1.0;"/><text fill="#000000" font-family="sans-serif" font-size="11" font-style="italic" lengthAdjust="spacingAndGlyphs" textLength="34" x="249" y="140.1245">start()</text><polygon fill="#FFFF44" points="240,144.7188,244,148.7188,240,152.7188,236,148.7188" style="stroke: #B38D22; stroke-width: 1.0;"/><text fill="#000000" font-family="sans-serif" font-size="11" font-style="italic" lengthAdjust="spacingAndGlyphs" textLength="128" x="249" y="152.9292">isNewGame(): boolean</text><polygon fill="#FFFF44" points="240,157.5234,244,161.5234,240,165.5234,236,161.5234" style="stroke: #B38D22; stroke-width: 1.0;"/><text fill="#000000" font-family="sans-serif" font-size="11" font-style="italic" lengthAdjust="spacingAndGlyphs" textLength="107" x="249" y="165.7339">propose(): boolean</text><!--MD5=[b6dcce5e5ef3c84b0b048d11301373dd]
class Game--><rect codeLine="42" fill="#FEFECE" filter="url(#fx95z2bvfu3tc)" height="48" id="Game" style="stroke: #A80036; stroke-width: 1.5;" width="260" x="590" y="309.5"/><ellipse cx="605" cy="325.5" fill="#ADD1B2" rx="11" ry="11" style="stroke: #A80036; stroke-width: 1.0;"/><path d="M607.3438,321.1719 C606.4063,320.7344 605.8125,320.5938 604.9375,320.5938 C602.3125,320.5938 600.3125,322.6719 600.3125,325.3906 L600.3125,326.5156 C600.3125,329.0938 602.4219,330.9844 605.3125,330.9844 C606.5313,330.9844 607.6875,330.6875 608.4375,330.1406 C609.0156,329.7344 609.3438,329.2813 609.3438,328.8906 C609.3438,328.4375 608.9531,328.0469 608.4844,328.0469 C608.2656,328.0469 608.0625,328.125 607.875,328.3125 C607.4219,328.7969 607.4219,328.7969 607.2344,328.8906 C606.8125,329.1563 606.125,329.2813 605.3594,329.2813 C603.3125,329.2813 602.0156,328.1875 602.0156,326.4844 L602.0156,325.3906 C602.0156,323.6094 603.2656,322.2969 605,322.2969 C605.5781,322.2969 606.1875,322.4531 606.6563,322.7031 C607.1406,322.9844 607.3125,323.2031 607.4063,323.6094 C607.4688,324.0156 607.5,324.1406 607.6406,324.2656 C607.7813,324.4063 608.0156,324.5156 608.2344,324.5156 C608.5,324.5156 608.7656,324.375 608.9375,324.1563 C609.0469,324 609.0781,323.8125 609.0781,323.3906 L609.0781,321.9688 C609.0781,321.5313 609.0625,321.4063 608.9688,321.25 C608.8125,320.9844 608.5313,320.8438 608.2344,320.8438 C607.9375,320.8438 607.7344,320.9375 607.5156,321.25 L607.3438,321.1719 Z "/><text fill="#000000" font-family="sans-serif" font-size="12" lengthAdjust="spacingAndGlyphs" textLength="228" x="619" y="329.6543">usantatecla.mastermind.models.Game</text><line style="stroke: #A80036; stroke-width: 1.5;" x1="591" x2="849" y1="341.5" y2="341.5"/><line style="stroke: #A80036; stroke-width: 1.5;" x1="591" x2="849" y1="349.5" y2="349.5"/><!--MD5=[aa08d413cb14e320a155507437df65be]
link usantatecla.mastermind.views.View to Game--><path codeLine="45" d="M393.5091,174.9373 C393.5091,174.9373 398.864,177.894 401,179 C473.277,216.403 500.781,203.476 574,239 C610.817,256.863 649.706,282.123 678.083,301.885 " fill="none" id="usantatecla.mastermind.views.View-Game" style="stroke: #A80036; stroke-width: 1.0;"/><polygon fill="#A80036" points="688.798,309.435,683.7444,300.9815,684.7106,306.5553,679.1368,307.5214,688.798,309.435" style="stroke: #A80036; stroke-width: 1.0;"/><line style="stroke: #A80036; stroke-width: 1.0;" x1="684.7106" x2="678.1705" y1="306.5553" y2="301.9475"/><polygon fill="#A80036" points="383.139,168.899,386.3113,175.3748,393.5091,174.9373,390.3368,168.4614,383.139,168.899" style="stroke: #A80036; stroke-width: 1.0;"/><!--MD5=[6cfd926ea0bbae4f43d9156786ae7a21]
link usantatecla.mastermind.views.ColorView to usantatecla.mastermind.views.ErrorView--><!--MD5=[118780b99b538c6ec9384862c3d01219]
link usantatecla.mastermind.views.ColorView to usantatecla.mastermind.views.MessageView--><!--MD5=[ff06bf70e800dfd56b4d1526f921cfac]
@startuml
abstract class  usantatecla.mastermind.views.ColorView{
+{static} INITIALS: char[]
# color: Color
# ColorView()
# ColorView(Color)
+ allInitials(): String
# {abstract} resultinitials(int): String
+ {static} getInstance(char): Color
}

class  usantatecla.mastermind.views.ErrorView{
+ message: String[]
# error: Error
# ErrorView()
+ ErrorView(Error)
# {abstract} colorInitials(): String
}

enum  usantatecla.mastermind.views.MessageView{
+ TURN
+ SECRET
+ RESUME
+ RESULT
+ PROPOSED_COMBINATION
+ TITLE
+ WINNER
+ LOOSER
- message: String
- Message(String)
+ getMessage(): String
}

abstract class  usantatecla.mastermind.views.View{
# game: Game
+ View(Game)
+ interact() 
# {abstract} start() 
# {abstract} isNewGame(): boolean
# {abstract} propose(): boolean
}

class Game as "usantatecla.mastermind.models.Game"{

}
usantatecla.mastermind.views.View *-down-> Game
@enduml

PlantUML version 1.2020.20beta7(Unknown compile time)
(GPL source distribution)
Java Runtime: Java(TM) SE Runtime Environment
JVM: Java HotSpot(TM) 64-Bit Server VM
Default Encoding: UTF-8
Language: en
Country: US
--></g></svg>