<?xml version="1.0" encoding="UTF-8" standalone="no"?><svg xmlns="http://www.w3.org/2000/svg" xmlns:xlink="http://www.w3.org/1999/xlink" contentScriptType="application/ecmascript" contentStyleType="text/css" height="1119px" preserveAspectRatio="none" style="width:2601px;height:1119px;" version="1.1" viewBox="0 0 2601 1119" width="2601px" zoomAndPan="magnify"><defs><filter height="300%" id="f1lt3cljcgnnbv" width="300%" x="-1" y="-1"><feGaussianBlur result="blurOut" stdDeviation="2.0"/><feColorMatrix in="blurOut" result="blurOut2" type="matrix" values="0 0 0 0 0 0 0 0 0 0 0 0 0 0 0 0 0 0 .4 0"/><feOffset dx="4.0" dy="4.0" in="blurOut2" result="blurOut3"/><feBlend in="SourceGraphic" in2="blurOut3" mode="normal"/></filter></defs><g><!--MD5=[870a69ce9634146fd8c5498968cba5fd]
cluster usantatecla.mastermind.views.console--><polygon fill="#FFFFFF" filter="url(#f1lt3cljcgnnbv)" points="467,100,791,100,798,122.2969,1348,122.2969,1348,994,467,994,467,100" style="stroke: #000000; stroke-width: 1.5;"/><line style="stroke: #000000; stroke-width: 1.5;" x1="467" x2="798" y1="122.2969" y2="122.2969"/><text fill="#000000" font-family="sans-serif" font-size="14" font-weight="bold" lengthAdjust="spacingAndGlyphs" textLength="318" x="471" y="114.9951">usantatecla.mastermind.views.console</text><!--MD5=[dd3efb2c58b4e82c246b11a4f49b163b]
class usantatecla.mastermind.views.console.ConsoleView--><rect codeLine="16" fill="#FEFECE" filter="url(#f1lt3cljcgnnbv)" height="99.2188" id="usantatecla.mastermind.views.console.ConsoleView" style="stroke: #A80036; stroke-width: 1.5;" width="160" x="611" y="135"/><ellipse cx="648.5" cy="151" fill="#ADD1B2" rx="11" ry="11" style="stroke: #A80036; stroke-width: 1.0;"/><path d="M650.8438,146.6719 C649.9063,146.2344 649.3125,146.0938 648.4375,146.0938 C645.8125,146.0938 643.8125,148.1719 643.8125,150.8906 L643.8125,152.0156 C643.8125,154.5938 645.9219,156.4844 648.8125,156.4844 C650.0313,156.4844 651.1875,156.1875 651.9375,155.6406 C652.5156,155.2344 652.8438,154.7813 652.8438,154.3906 C652.8438,153.9375 652.4531,153.5469 651.9844,153.5469 C651.7656,153.5469 651.5625,153.625 651.375,153.8125 C650.9219,154.2969 650.9219,154.2969 650.7344,154.3906 C650.3125,154.6563 649.625,154.7813 648.8594,154.7813 C646.8125,154.7813 645.5156,153.6875 645.5156,151.9844 L645.5156,150.8906 C645.5156,149.1094 646.7656,147.7969 648.5,147.7969 C649.0781,147.7969 649.6875,147.9531 650.1563,148.2031 C650.6406,148.4844 650.8125,148.7031 650.9063,149.1094 C650.9688,149.5156 651,149.6406 651.1406,149.7656 C651.2813,149.9063 651.5156,150.0156 651.7344,150.0156 C652,150.0156 652.2656,149.875 652.4375,149.6563 C652.5469,149.5 652.5781,149.3125 652.5781,148.8906 L652.5781,147.4688 C652.5781,147.0313 652.5625,146.9063 652.4688,146.75 C652.3125,146.4844 652.0313,146.3438 651.7344,146.3438 C651.4375,146.3438 651.2344,146.4375 651.0156,146.75 L650.8438,146.6719 Z " fill="#000000"/><text fill="#000000" font-family="sans-serif" font-size="12" lengthAdjust="spacingAndGlyphs" textLength="78" x="667.5" y="155.1543">ConsoleView</text><line style="stroke: #A80036; stroke-width: 1.5;" x1="612" x2="770" y1="167" y2="167"/><line style="stroke: #A80036; stroke-width: 1.5;" x1="612" x2="770" y1="175" y2="175"/><ellipse cx="622" cy="186" fill="#84BE84" rx="3" ry="3" style="stroke: #038048; stroke-width: 1.0;"/><text fill="#000000" font-family="sans-serif" font-size="11" lengthAdjust="spacingAndGlyphs" textLength="117" x="631" y="189.2104">ConsoleView(Game)</text><polygon fill="#FFFF44" points="622,193.8047,626,197.8047,622,201.8047,618,197.8047" style="stroke: #B38D22; stroke-width: 1.0;"/><text fill="#000000" font-family="sans-serif" font-size="11" lengthAdjust="spacingAndGlyphs" textLength="33" x="631" y="202.0151">start()</text><polygon fill="#FFFF44" points="622,206.6094,626,210.6094,622,214.6094,618,210.6094" style="stroke: #B38D22; stroke-width: 1.0;"/><text fill="#000000" font-family="sans-serif" font-size="11" lengthAdjust="spacingAndGlyphs" textLength="111" x="631" y="214.8198">propose() : boolean</text><polygon fill="#FFFF44" points="622,219.4141,626,223.4141,622,227.4141,618,223.4141" style="stroke: #B38D22; stroke-width: 1.0;"/><text fill="#000000" font-family="sans-serif" font-size="11" lengthAdjust="spacingAndGlyphs" textLength="134" x="631" y="227.6245">isNewGame() : boolean</text><!--MD5=[0443121bcbe511df2c378d392fee4a36]
class usantatecla.mastermind.views.console.StartView--><rect codeLine="36" fill="#FEFECE" filter="url(#f1lt3cljcgnnbv)" height="60.8047" id="usantatecla.mastermind.views.console.StartView" style="stroke: #A80036; stroke-width: 1.5;" width="89" x="1143.5" y="440.5"/><ellipse cx="1158.5" cy="456.5" fill="#ADD1B2" rx="11" ry="11" style="stroke: #A80036; stroke-width: 1.0;"/><path d="M1160.8438,452.1719 C1159.9063,451.7344 1159.3125,451.5938 1158.4375,451.5938 C1155.8125,451.5938 1153.8125,453.6719 1153.8125,456.3906 L1153.8125,457.5156 C1153.8125,460.0938 1155.9219,461.9844 1158.8125,461.9844 C1160.0313,461.9844 1161.1875,461.6875 1161.9375,461.1406 C1162.5156,460.7344 1162.8438,460.2813 1162.8438,459.8906 C1162.8438,459.4375 1162.4531,459.0469 1161.9844,459.0469 C1161.7656,459.0469 1161.5625,459.125 1161.375,459.3125 C1160.9219,459.7969 1160.9219,459.7969 1160.7344,459.8906 C1160.3125,460.1563 1159.625,460.2813 1158.8594,460.2813 C1156.8125,460.2813 1155.5156,459.1875 1155.5156,457.4844 L1155.5156,456.3906 C1155.5156,454.6094 1156.7656,453.2969 1158.5,453.2969 C1159.0781,453.2969 1159.6875,453.4531 1160.1563,453.7031 C1160.6406,453.9844 1160.8125,454.2031 1160.9063,454.6094 C1160.9688,455.0156 1161,455.1406 1161.1406,455.2656 C1161.2813,455.4063 1161.5156,455.5156 1161.7344,455.5156 C1162,455.5156 1162.2656,455.375 1162.4375,455.1563 C1162.5469,455 1162.5781,454.8125 1162.5781,454.3906 L1162.5781,452.9688 C1162.5781,452.5313 1162.5625,452.4063 1162.4688,452.25 C1162.3125,451.9844 1162.0313,451.8438 1161.7344,451.8438 C1161.4375,451.8438 1161.2344,451.9375 1161.0156,452.25 L1160.8438,452.1719 Z " fill="#000000"/><text fill="#000000" font-family="sans-serif" font-size="12" lengthAdjust="spacingAndGlyphs" textLength="57" x="1172.5" y="460.6543">StartView</text><line style="stroke: #A80036; stroke-width: 1.5;" x1="1144.5" x2="1231.5" y1="472.5" y2="472.5"/><line style="stroke: #A80036; stroke-width: 1.5;" x1="1144.5" x2="1231.5" y1="480.5" y2="480.5"/><polygon fill="#4177AF" points="1154.5,487.5,1150.5,493.5,1158.5,493.5" style="stroke: #1963A0; stroke-width: 1.0;"/><text fill="#000000" font-family="sans-serif" font-size="11" lengthAdjust="spacingAndGlyphs" textLength="51" x="1163.5" y="494.7104">interact()</text><!--MD5=[3fc381aa527804d9b0f68b14a0cbd981]
class usantatecla.mastermind.views.console.ProposalView--><rect codeLine="56" fill="#FEFECE" filter="url(#f1lt3cljcgnnbv)" height="73.6094" id="usantatecla.mastermind.views.console.ProposalView" style="stroke: #A80036; stroke-width: 1.5;" width="144" x="565" y="294"/><ellipse cx="593.95" cy="310" fill="#ADD1B2" rx="11" ry="11" style="stroke: #A80036; stroke-width: 1.0;"/><path d="M596.2938,305.6719 C595.3563,305.2344 594.7625,305.0938 593.8875,305.0938 C591.2625,305.0938 589.2625,307.1719 589.2625,309.8906 L589.2625,311.0156 C589.2625,313.5938 591.3719,315.4844 594.2625,315.4844 C595.4813,315.4844 596.6375,315.1875 597.3875,314.6406 C597.9656,314.2344 598.2938,313.7813 598.2938,313.3906 C598.2938,312.9375 597.9031,312.5469 597.4344,312.5469 C597.2156,312.5469 597.0125,312.625 596.825,312.8125 C596.3719,313.2969 596.3719,313.2969 596.1844,313.3906 C595.7625,313.6563 595.075,313.7813 594.3094,313.7813 C592.2625,313.7813 590.9656,312.6875 590.9656,310.9844 L590.9656,309.8906 C590.9656,308.1094 592.2156,306.7969 593.95,306.7969 C594.5281,306.7969 595.1375,306.9531 595.6063,307.2031 C596.0906,307.4844 596.2625,307.7031 596.3563,308.1094 C596.4188,308.5156 596.45,308.6406 596.5906,308.7656 C596.7313,308.9063 596.9656,309.0156 597.1844,309.0156 C597.45,309.0156 597.7156,308.875 597.8875,308.6563 C597.9969,308.5 598.0281,308.3125 598.0281,307.8906 L598.0281,306.4688 C598.0281,306.0313 598.0125,305.9063 597.9188,305.75 C597.7625,305.4844 597.4813,305.3438 597.1844,305.3438 C596.8875,305.3438 596.6844,305.4375 596.4656,305.75 L596.2938,305.6719 Z " fill="#000000"/><text fill="#000000" font-family="sans-serif" font-size="12" lengthAdjust="spacingAndGlyphs" textLength="81" x="611.05" y="314.1543">ProposalView</text><line style="stroke: #A80036; stroke-width: 1.5;" x1="566" x2="708" y1="326" y2="326"/><line style="stroke: #A80036; stroke-width: 1.5;" x1="566" x2="708" y1="334" y2="334"/><polygon fill="#4177AF" points="576,341,572,347,580,347" style="stroke: #1963A0; stroke-width: 1.0;"/><text fill="#000000" font-family="sans-serif" font-size="11" lengthAdjust="spacingAndGlyphs" textLength="118" x="585" y="348.2104">ProposalView(Game)</text><polygon fill="#4177AF" points="576,353.8047,572,359.8047,580,359.8047" style="stroke: #1963A0; stroke-width: 1.0;"/><text fill="#000000" font-family="sans-serif" font-size="11" lengthAdjust="spacingAndGlyphs" textLength="108" x="585" y="361.0151">interact() : boolean</text><!--MD5=[9bc3463fd80c6188f2068243b6359e84]
class usantatecla.mastermind.views.console.ResumeView--><rect codeLine="28" fill="#FEFECE" filter="url(#f1lt3cljcgnnbv)" height="73.6094" id="usantatecla.mastermind.views.console.ResumeView" style="stroke: #A80036; stroke-width: 1.5;" width="144" x="1084" y="294"/><ellipse cx="1114.75" cy="310" fill="#ADD1B2" rx="11" ry="11" style="stroke: #A80036; stroke-width: 1.0;"/><path d="M1117.0938,305.6719 C1116.1563,305.2344 1115.5625,305.0938 1114.6875,305.0938 C1112.0625,305.0938 1110.0625,307.1719 1110.0625,309.8906 L1110.0625,311.0156 C1110.0625,313.5938 1112.1719,315.4844 1115.0625,315.4844 C1116.2813,315.4844 1117.4375,315.1875 1118.1875,314.6406 C1118.7656,314.2344 1119.0938,313.7813 1119.0938,313.3906 C1119.0938,312.9375 1118.7031,312.5469 1118.2344,312.5469 C1118.0156,312.5469 1117.8125,312.625 1117.625,312.8125 C1117.1719,313.2969 1117.1719,313.2969 1116.9844,313.3906 C1116.5625,313.6563 1115.875,313.7813 1115.1094,313.7813 C1113.0625,313.7813 1111.7656,312.6875 1111.7656,310.9844 L1111.7656,309.8906 C1111.7656,308.1094 1113.0156,306.7969 1114.75,306.7969 C1115.3281,306.7969 1115.9375,306.9531 1116.4063,307.2031 C1116.8906,307.4844 1117.0625,307.7031 1117.1563,308.1094 C1117.2188,308.5156 1117.25,308.6406 1117.3906,308.7656 C1117.5313,308.9063 1117.7656,309.0156 1117.9844,309.0156 C1118.25,309.0156 1118.5156,308.875 1118.6875,308.6563 C1118.7969,308.5 1118.8281,308.3125 1118.8281,307.8906 L1118.8281,306.4688 C1118.8281,306.0313 1118.8125,305.9063 1118.7188,305.75 C1118.5625,305.4844 1118.2813,305.3438 1117.9844,305.3438 C1117.6875,305.3438 1117.4844,305.4375 1117.2656,305.75 L1117.0938,305.6719 Z " fill="#000000"/><text fill="#000000" font-family="sans-serif" font-size="12" lengthAdjust="spacingAndGlyphs" textLength="77" x="1132.25" y="314.1543">ResumeView</text><line style="stroke: #A80036; stroke-width: 1.5;" x1="1085" x2="1227" y1="326" y2="326"/><line style="stroke: #A80036; stroke-width: 1.5;" x1="1085" x2="1227" y1="334" y2="334"/><polygon fill="#4177AF" points="1095,341,1091,347,1099,347" style="stroke: #1963A0; stroke-width: 1.0;"/><text fill="#000000" font-family="sans-serif" font-size="11" lengthAdjust="spacingAndGlyphs" textLength="118" x="1104" y="348.2104">ResumeView(Game)</text><polygon fill="#4177AF" points="1095,353.8047,1091,359.8047,1099,359.8047" style="stroke: #1963A0; stroke-width: 1.0;"/><text fill="#000000" font-family="sans-serif" font-size="11" lengthAdjust="spacingAndGlyphs" textLength="108" x="1104" y="361.0151">interact() : boolean</text><!--MD5=[6895d7787d38d293342c8d69eaf320fc]
class usantatecla.mastermind.views.console.SecretCombinationView--><rect codeLine="81" fill="#FEFECE" filter="url(#f1lt3cljcgnnbv)" height="73.6094" id="usantatecla.mastermind.views.console.SecretCombinationView" style="stroke: #A80036; stroke-width: 1.5;" width="175" x="826.5" y="580"/><ellipse cx="841.5" cy="596" fill="#ADD1B2" rx="11" ry="11" style="stroke: #A80036; stroke-width: 1.0;"/><path d="M843.8438,591.6719 C842.9063,591.2344 842.3125,591.0938 841.4375,591.0938 C838.8125,591.0938 836.8125,593.1719 836.8125,595.8906 L836.8125,597.0156 C836.8125,599.5938 838.9219,601.4844 841.8125,601.4844 C843.0313,601.4844 844.1875,601.1875 844.9375,600.6406 C845.5156,600.2344 845.8438,599.7813 845.8438,599.3906 C845.8438,598.9375 845.4531,598.5469 844.9844,598.5469 C844.7656,598.5469 844.5625,598.625 844.375,598.8125 C843.9219,599.2969 843.9219,599.2969 843.7344,599.3906 C843.3125,599.6563 842.625,599.7813 841.8594,599.7813 C839.8125,599.7813 838.5156,598.6875 838.5156,596.9844 L838.5156,595.8906 C838.5156,594.1094 839.7656,592.7969 841.5,592.7969 C842.0781,592.7969 842.6875,592.9531 843.1563,593.2031 C843.6406,593.4844 843.8125,593.7031 843.9063,594.1094 C843.9688,594.5156 844,594.6406 844.1406,594.7656 C844.2813,594.9063 844.5156,595.0156 844.7344,595.0156 C845,595.0156 845.2656,594.875 845.4375,594.6563 C845.5469,594.5 845.5781,594.3125 845.5781,593.8906 L845.5781,592.4688 C845.5781,592.0313 845.5625,591.9063 845.4688,591.75 C845.3125,591.4844 845.0313,591.3438 844.7344,591.3438 C844.4375,591.3438 844.2344,591.4375 844.0156,591.75 L843.8438,591.6719 Z " fill="#000000"/><text fill="#000000" font-family="sans-serif" font-size="12" lengthAdjust="spacingAndGlyphs" textLength="143" x="855.5" y="600.1543">SecretCombinationView</text><line style="stroke: #A80036; stroke-width: 1.5;" x1="827.5" x2="1000.5" y1="612" y2="612"/><line style="stroke: #A80036; stroke-width: 1.5;" x1="827.5" x2="1000.5" y1="620" y2="620"/><polygon fill="#4177AF" points="837.5,627,833.5,633,841.5,633" style="stroke: #1963A0; stroke-width: 1.0;"/><text fill="#000000" font-family="sans-serif" font-size="11" lengthAdjust="spacingAndGlyphs" textLength="145" x="846.5" y="634.2104">SecretCombinationView()</text><polygon fill="#4177AF" points="837.5,639.8047,833.5,645.8047,841.5,645.8047" style="stroke: #1963A0; stroke-width: 1.0;"/><text fill="#000000" font-family="sans-serif" font-size="11" lengthAdjust="spacingAndGlyphs" textLength="46" x="846.5" y="647.0151">writeln()</text><!--MD5=[5d8d3b26785111685f5f40cebb1fba2a]
class usantatecla.mastermind.views.console.GameView--><rect codeLine="43" fill="#FEFECE" filter="url(#f1lt3cljcgnnbv)" height="86.4141" id="usantatecla.mastermind.views.console.GameView" style="stroke: #A80036; stroke-width: 1.5;" width="191" x="867.5" y="428"/><ellipse cx="926.75" cy="444" fill="#ADD1B2" rx="11" ry="11" style="stroke: #A80036; stroke-width: 1.0;"/><path d="M929.0938,439.6719 C928.1563,439.2344 927.5625,439.0938 926.6875,439.0938 C924.0625,439.0938 922.0625,441.1719 922.0625,443.8906 L922.0625,445.0156 C922.0625,447.5938 924.1719,449.4844 927.0625,449.4844 C928.2813,449.4844 929.4375,449.1875 930.1875,448.6406 C930.7656,448.2344 931.0938,447.7813 931.0938,447.3906 C931.0938,446.9375 930.7031,446.5469 930.2344,446.5469 C930.0156,446.5469 929.8125,446.625 929.625,446.8125 C929.1719,447.2969 929.1719,447.2969 928.9844,447.3906 C928.5625,447.6563 927.875,447.7813 927.1094,447.7813 C925.0625,447.7813 923.7656,446.6875 923.7656,444.9844 L923.7656,443.8906 C923.7656,442.1094 925.0156,440.7969 926.75,440.7969 C927.3281,440.7969 927.9375,440.9531 928.4063,441.2031 C928.8906,441.4844 929.0625,441.7031 929.1563,442.1094 C929.2188,442.5156 929.25,442.6406 929.3906,442.7656 C929.5313,442.9063 929.7656,443.0156 929.9844,443.0156 C930.25,443.0156 930.5156,442.875 930.6875,442.6563 C930.7969,442.5 930.8281,442.3125 930.8281,441.8906 L930.8281,440.4688 C930.8281,440.0313 930.8125,439.9063 930.7188,439.75 C930.5625,439.4844 930.2813,439.3438 929.9844,439.3438 C929.6875,439.3438 929.4844,439.4375 929.2656,439.75 L929.0938,439.6719 Z " fill="#000000"/><text fill="#000000" font-family="sans-serif" font-size="12" lengthAdjust="spacingAndGlyphs" textLength="64" x="947.25" y="448.1543">GameView</text><line style="stroke: #A80036; stroke-width: 1.5;" x1="868.5" x2="1057.5" y1="460" y2="460"/><line style="stroke: #A80036; stroke-width: 1.5;" x1="868.5" x2="1057.5" y1="468" y2="468"/><polygon fill="#4177AF" points="878.5,475,874.5,481,882.5,481" style="stroke: #1963A0; stroke-width: 1.0;"/><text fill="#000000" font-family="sans-serif" font-size="11" lengthAdjust="spacingAndGlyphs" textLength="106" x="887.5" y="482.2104">GameView(Game)</text><polygon fill="#4177AF" points="878.5,487.8047,874.5,493.8047,882.5,493.8047" style="stroke: #1963A0; stroke-width: 1.0;"/><text fill="#000000" font-family="sans-serif" font-size="11" lengthAdjust="spacingAndGlyphs" textLength="36" x="887.5" y="495.0151">write()</text><polygon fill="#4177AF" points="878.5,500.6094,874.5,506.6094,882.5,506.6094" style="stroke: #1963A0; stroke-width: 1.0;"/><text fill="#000000" font-family="sans-serif" font-size="11" lengthAdjust="spacingAndGlyphs" textLength="165" x="887.5" y="507.8198">isWinnerOrLooser() : boolean</text><!--MD5=[0738facfc05fd0e5380c8577e6609970]
class usantatecla.mastermind.views.console.AttemptsView--><rect codeLine="97" fill="#FEFECE" filter="url(#f1lt3cljcgnnbv)" height="73.6094" id="usantatecla.mastermind.views.console.AttemptsView" style="stroke: #A80036; stroke-width: 1.5;" width="128" x="1037" y="580"/><ellipse cx="1057.85" cy="596" fill="#ADD1B2" rx="11" ry="11" style="stroke: #A80036; stroke-width: 1.0;"/><path d="M1060.1938,591.6719 C1059.2563,591.2344 1058.6625,591.0938 1057.7875,591.0938 C1055.1625,591.0938 1053.1625,593.1719 1053.1625,595.8906 L1053.1625,597.0156 C1053.1625,599.5938 1055.2719,601.4844 1058.1625,601.4844 C1059.3813,601.4844 1060.5375,601.1875 1061.2875,600.6406 C1061.8656,600.2344 1062.1938,599.7813 1062.1938,599.3906 C1062.1938,598.9375 1061.8031,598.5469 1061.3344,598.5469 C1061.1156,598.5469 1060.9125,598.625 1060.725,598.8125 C1060.2719,599.2969 1060.2719,599.2969 1060.0844,599.3906 C1059.6625,599.6563 1058.975,599.7813 1058.2094,599.7813 C1056.1625,599.7813 1054.8656,598.6875 1054.8656,596.9844 L1054.8656,595.8906 C1054.8656,594.1094 1056.1156,592.7969 1057.85,592.7969 C1058.4281,592.7969 1059.0375,592.9531 1059.5063,593.2031 C1059.9906,593.4844 1060.1625,593.7031 1060.2563,594.1094 C1060.3188,594.5156 1060.35,594.6406 1060.4906,594.7656 C1060.6313,594.9063 1060.8656,595.0156 1061.0844,595.0156 C1061.35,595.0156 1061.6156,594.875 1061.7875,594.6563 C1061.8969,594.5 1061.9281,594.3125 1061.9281,593.8906 L1061.9281,592.4688 C1061.9281,592.0313 1061.9125,591.9063 1061.8188,591.75 C1061.6625,591.4844 1061.3813,591.3438 1061.0844,591.3438 C1060.7875,591.3438 1060.5844,591.4375 1060.3656,591.75 L1060.1938,591.6719 Z " fill="#000000"/><text fill="#000000" font-family="sans-serif" font-size="12" lengthAdjust="spacingAndGlyphs" textLength="83" x="1073.15" y="600.1543">AttemptsView</text><line style="stroke: #A80036; stroke-width: 1.5;" x1="1038" x2="1164" y1="612" y2="612"/><line style="stroke: #A80036; stroke-width: 1.5;" x1="1038" x2="1164" y1="620" y2="620"/><polygon fill="#4177AF" points="1048,627,1044,633,1052,633" style="stroke: #1963A0; stroke-width: 1.0;"/><text fill="#000000" font-family="sans-serif" font-size="11" lengthAdjust="spacingAndGlyphs" textLength="102" x="1057" y="634.2104">AttemptsView(int)</text><polygon fill="#4177AF" points="1048,639.8047,1044,645.8047,1052,645.8047" style="stroke: #1963A0; stroke-width: 1.0;"/><text fill="#000000" font-family="sans-serif" font-size="11" lengthAdjust="spacingAndGlyphs" textLength="46" x="1057" y="647.0151">writeln()</text><!--MD5=[f72db8a2bcbe9ab8c7a89f2fd89e6b01]
class usantatecla.mastermind.views.console.ResultView--><rect codeLine="89" fill="#FEFECE" filter="url(#f1lt3cljcgnnbv)" height="73.6094" id="usantatecla.mastermind.views.console.ResultView" style="stroke: #A80036; stroke-width: 1.5;" width="132" x="1200" y="580"/><ellipse cx="1230.75" cy="596" fill="#ADD1B2" rx="11" ry="11" style="stroke: #A80036; stroke-width: 1.0;"/><path d="M1233.0938,591.6719 C1232.1563,591.2344 1231.5625,591.0938 1230.6875,591.0938 C1228.0625,591.0938 1226.0625,593.1719 1226.0625,595.8906 L1226.0625,597.0156 C1226.0625,599.5938 1228.1719,601.4844 1231.0625,601.4844 C1232.2813,601.4844 1233.4375,601.1875 1234.1875,600.6406 C1234.7656,600.2344 1235.0938,599.7813 1235.0938,599.3906 C1235.0938,598.9375 1234.7031,598.5469 1234.2344,598.5469 C1234.0156,598.5469 1233.8125,598.625 1233.625,598.8125 C1233.1719,599.2969 1233.1719,599.2969 1232.9844,599.3906 C1232.5625,599.6563 1231.875,599.7813 1231.1094,599.7813 C1229.0625,599.7813 1227.7656,598.6875 1227.7656,596.9844 L1227.7656,595.8906 C1227.7656,594.1094 1229.0156,592.7969 1230.75,592.7969 C1231.3281,592.7969 1231.9375,592.9531 1232.4063,593.2031 C1232.8906,593.4844 1233.0625,593.7031 1233.1563,594.1094 C1233.2188,594.5156 1233.25,594.6406 1233.3906,594.7656 C1233.5313,594.9063 1233.7656,595.0156 1233.9844,595.0156 C1234.25,595.0156 1234.5156,594.875 1234.6875,594.6563 C1234.7969,594.5 1234.8281,594.3125 1234.8281,593.8906 L1234.8281,592.4688 C1234.8281,592.0313 1234.8125,591.9063 1234.7188,591.75 C1234.5625,591.4844 1234.2813,591.3438 1233.9844,591.3438 C1233.6875,591.3438 1233.4844,591.4375 1233.2656,591.75 L1233.0938,591.6719 Z " fill="#000000"/><text fill="#000000" font-family="sans-serif" font-size="12" lengthAdjust="spacingAndGlyphs" textLength="65" x="1248.25" y="600.1543">ResultView</text><line style="stroke: #A80036; stroke-width: 1.5;" x1="1201" x2="1331" y1="612" y2="612"/><line style="stroke: #A80036; stroke-width: 1.5;" x1="1201" x2="1331" y1="620" y2="620"/><polygon fill="#4177AF" points="1211,627,1207,633,1215,633" style="stroke: #1963A0; stroke-width: 1.0;"/><text fill="#000000" font-family="sans-serif" font-size="11" lengthAdjust="spacingAndGlyphs" textLength="106" x="1220" y="634.2104">ResultView(Result)</text><polygon fill="#4177AF" points="1211,639.8047,1207,645.8047,1215,645.8047" style="stroke: #1963A0; stroke-width: 1.0;"/><text fill="#000000" font-family="sans-serif" font-size="11" lengthAdjust="spacingAndGlyphs" textLength="46" x="1220" y="647.0151">writeln()</text><!--MD5=[b9e96ebb3841247a1bc6f6a4b0e36cb2]
class usantatecla.mastermind.views.console.ProposedCombinationView--><rect codeLine="67" fill="#FEFECE" filter="url(#f1lt3cljcgnnbv)" height="86.4141" id="usantatecla.mastermind.views.console.ProposedCombinationView" style="stroke: #A80036; stroke-width: 1.5;" width="308" x="483" y="574"/><ellipse cx="552.25" cy="590" fill="#ADD1B2" rx="11" ry="11" style="stroke: #A80036; stroke-width: 1.0;"/><path d="M554.5938,585.6719 C553.6563,585.2344 553.0625,585.0938 552.1875,585.0938 C549.5625,585.0938 547.5625,587.1719 547.5625,589.8906 L547.5625,591.0156 C547.5625,593.5938 549.6719,595.4844 552.5625,595.4844 C553.7813,595.4844 554.9375,595.1875 555.6875,594.6406 C556.2656,594.2344 556.5938,593.7813 556.5938,593.3906 C556.5938,592.9375 556.2031,592.5469 555.7344,592.5469 C555.5156,592.5469 555.3125,592.625 555.125,592.8125 C554.6719,593.2969 554.6719,593.2969 554.4844,593.3906 C554.0625,593.6563 553.375,593.7813 552.6094,593.7813 C550.5625,593.7813 549.2656,592.6875 549.2656,590.9844 L549.2656,589.8906 C549.2656,588.1094 550.5156,586.7969 552.25,586.7969 C552.8281,586.7969 553.4375,586.9531 553.9063,587.2031 C554.3906,587.4844 554.5625,587.7031 554.6563,588.1094 C554.7188,588.5156 554.75,588.6406 554.8906,588.7656 C555.0313,588.9063 555.2656,589.0156 555.4844,589.0156 C555.75,589.0156 556.0156,588.875 556.1875,588.6563 C556.2969,588.5 556.3281,588.3125 556.3281,587.8906 L556.3281,586.4688 C556.3281,586.0313 556.3125,585.9063 556.2188,585.75 C556.0625,585.4844 555.7813,585.3438 555.4844,585.3438 C555.1875,585.3438 554.9844,585.4375 554.7656,585.75 L554.5938,585.6719 Z " fill="#000000"/><text fill="#000000" font-family="sans-serif" font-size="12" lengthAdjust="spacingAndGlyphs" textLength="161" x="572.75" y="594.1543">ProposedCombinationView</text><line style="stroke: #A80036; stroke-width: 1.5;" x1="484" x2="790" y1="606" y2="606"/><line style="stroke: #A80036; stroke-width: 1.5;" x1="484" x2="790" y1="614" y2="614"/><polygon fill="#4177AF" points="494,621,490,627,498,627" style="stroke: #1963A0; stroke-width: 1.0;"/><text fill="#000000" font-family="sans-serif" font-size="11" lengthAdjust="spacingAndGlyphs" textLength="282" x="503" y="628.2104">ProposedCombinationView(ProposedCombination)</text><polygon fill="#4177AF" points="494,633.8047,490,639.8047,498,639.8047" style="stroke: #1963A0; stroke-width: 1.0;"/><text fill="#000000" font-family="sans-serif" font-size="11" lengthAdjust="spacingAndGlyphs" textLength="36" x="503" y="641.0151">write()</text><polygon fill="#4177AF" points="494,646.6094,490,652.6094,498,652.6094" style="stroke: #1963A0; stroke-width: 1.0;"/><text fill="#000000" font-family="sans-serif" font-size="11" lengthAdjust="spacingAndGlyphs" textLength="34" x="503" y="653.8198">read()</text><!--MD5=[f95016829e4a1954e9b815203fd5b79a]
class usantatecla.mastermind.views.console.ErrorView--><rect codeLine="115" fill="#FEFECE" filter="url(#f1lt3cljcgnnbv)" height="99.2188" id="usantatecla.mastermind.views.console.ErrorView" style="stroke: #A80036; stroke-width: 1.5;" width="141" x="636.5" y="720"/><ellipse cx="674" cy="736" fill="#ADD1B2" rx="11" ry="11" style="stroke: #A80036; stroke-width: 1.0;"/><path d="M676.3438,731.6719 C675.4063,731.2344 674.8125,731.0938 673.9375,731.0938 C671.3125,731.0938 669.3125,733.1719 669.3125,735.8906 L669.3125,737.0156 C669.3125,739.5938 671.4219,741.4844 674.3125,741.4844 C675.5313,741.4844 676.6875,741.1875 677.4375,740.6406 C678.0156,740.2344 678.3438,739.7813 678.3438,739.3906 C678.3438,738.9375 677.9531,738.5469 677.4844,738.5469 C677.2656,738.5469 677.0625,738.625 676.875,738.8125 C676.4219,739.2969 676.4219,739.2969 676.2344,739.3906 C675.8125,739.6563 675.125,739.7813 674.3594,739.7813 C672.3125,739.7813 671.0156,738.6875 671.0156,736.9844 L671.0156,735.8906 C671.0156,734.1094 672.2656,732.7969 674,732.7969 C674.5781,732.7969 675.1875,732.9531 675.6563,733.2031 C676.1406,733.4844 676.3125,733.7031 676.4063,734.1094 C676.4688,734.5156 676.5,734.6406 676.6406,734.7656 C676.7813,734.9063 677.0156,735.0156 677.2344,735.0156 C677.5,735.0156 677.7656,734.875 677.9375,734.6563 C678.0469,734.5 678.0781,734.3125 678.0781,733.8906 L678.0781,732.4688 C678.0781,732.0313 678.0625,731.9063 677.9688,731.75 C677.8125,731.4844 677.5313,731.3438 677.2344,731.3438 C676.9375,731.3438 676.7344,731.4375 676.5156,731.75 L676.3438,731.6719 Z " fill="#000000"/><text fill="#000000" font-family="sans-serif" font-size="12" lengthAdjust="spacingAndGlyphs" textLength="59" x="693" y="740.1543">ErrorView</text><line style="stroke: #A80036; stroke-width: 1.5;" x1="637.5" x2="776.5" y1="752" y2="752"/><line style="stroke: #A80036; stroke-width: 1.5;" x1="637.5" x2="776.5" y1="760" y2="760"/><polygon fill="#4177AF" points="647.5,767,643.5,773,651.5,773" style="stroke: #1963A0; stroke-width: 1.0;"/><text fill="#000000" font-family="sans-serif" font-size="11" lengthAdjust="spacingAndGlyphs" textLength="62" x="656.5" y="774.2104">ErrorView()</text><polygon fill="#4177AF" points="647.5,779.8047,643.5,785.8047,651.5,785.8047" style="stroke: #1963A0; stroke-width: 1.0;"/><text fill="#000000" font-family="sans-serif" font-size="11" lengthAdjust="spacingAndGlyphs" textLength="88" x="656.5" y="787.0151">ErrorView(Error)</text><polygon fill="#4177AF" points="647.5,792.6094,643.5,798.6094,651.5,798.6094" style="stroke: #1963A0; stroke-width: 1.0;"/><text fill="#000000" font-family="sans-serif" font-size="11" lengthAdjust="spacingAndGlyphs" textLength="46" x="656.5" y="799.8198">writeln()</text><polygon fill="#FFFF44" points="647.5,804.4141,651.5,808.4141,647.5,812.4141,643.5,808.4141" style="stroke: #B38D22; stroke-width: 1.0;"/><text fill="#000000" font-family="sans-serif" font-size="11" lengthAdjust="spacingAndGlyphs" textLength="115" x="656.5" y="812.6245">colorInitials() : String</text><!--MD5=[8568eedd71fb556356f784345d001495]
class usantatecla.mastermind.views.console.ColorView--><rect codeLine="104" fill="#FEFECE" filter="url(#f1lt3cljcgnnbv)" height="99.2188" id="usantatecla.mastermind.views.console.ColorView" style="stroke: #A80036; stroke-width: 1.5;" width="160" x="520" y="879"/><ellipse cx="565.25" cy="895" fill="#ADD1B2" rx="11" ry="11" style="stroke: #A80036; stroke-width: 1.0;"/><path d="M567.5938,890.6719 C566.6563,890.2344 566.0625,890.0938 565.1875,890.0938 C562.5625,890.0938 560.5625,892.1719 560.5625,894.8906 L560.5625,896.0156 C560.5625,898.5938 562.6719,900.4844 565.5625,900.4844 C566.7813,900.4844 567.9375,900.1875 568.6875,899.6406 C569.2656,899.2344 569.5938,898.7813 569.5938,898.3906 C569.5938,897.9375 569.2031,897.5469 568.7344,897.5469 C568.5156,897.5469 568.3125,897.625 568.125,897.8125 C567.6719,898.2969 567.6719,898.2969 567.4844,898.3906 C567.0625,898.6563 566.375,898.7813 565.6094,898.7813 C563.5625,898.7813 562.2656,897.6875 562.2656,895.9844 L562.2656,894.8906 C562.2656,893.1094 563.5156,891.7969 565.25,891.7969 C565.8281,891.7969 566.4375,891.9531 566.9063,892.2031 C567.3906,892.4844 567.5625,892.7031 567.6563,893.1094 C567.7188,893.5156 567.75,893.6406 567.8906,893.7656 C568.0313,893.9063 568.2656,894.0156 568.4844,894.0156 C568.75,894.0156 569.0156,893.875 569.1875,893.6563 C569.2969,893.5 569.3281,893.3125 569.3281,892.8906 L569.3281,891.4688 C569.3281,891.0313 569.3125,890.9063 569.2188,890.75 C569.0625,890.4844 568.7813,890.3438 568.4844,890.3438 C568.1875,890.3438 567.9844,890.4375 567.7656,890.75 L567.5938,890.6719 Z " fill="#000000"/><text fill="#000000" font-family="sans-serif" font-size="12" lengthAdjust="spacingAndGlyphs" textLength="61" x="585.75" y="899.1543">ColorView</text><line style="stroke: #A80036; stroke-width: 1.5;" x1="521" x2="679" y1="911" y2="911"/><line style="stroke: #A80036; stroke-width: 1.5;" x1="521" x2="679" y1="919" y2="919"/><polygon fill="#4177AF" points="531,926,527,932,535,932" style="stroke: #1963A0; stroke-width: 1.0;"/><text fill="#000000" font-family="sans-serif" font-size="11" lengthAdjust="spacingAndGlyphs" textLength="65" x="540" y="933.2104">ColorView()</text><polygon fill="#4177AF" points="531,938.8047,527,944.8047,535,944.8047" style="stroke: #1963A0; stroke-width: 1.0;"/><text fill="#000000" font-family="sans-serif" font-size="11" lengthAdjust="spacingAndGlyphs" textLength="94" x="540" y="946.0151">ColorView(Color)</text><polygon fill="#FFFF44" points="531,950.6094,535,954.6094,531,958.6094,527,954.6094" style="stroke: #B38D22; stroke-width: 1.0;"/><text fill="#000000" font-family="sans-serif" font-size="11" lengthAdjust="spacingAndGlyphs" textLength="134" x="540" y="958.8198">resultInitials(int) : String</text><polygon fill="#4177AF" points="531,964.4141,527,970.4141,535,970.4141" style="stroke: #1963A0; stroke-width: 1.0;"/><text fill="#000000" font-family="sans-serif" font-size="11" lengthAdjust="spacingAndGlyphs" textLength="36" x="540" y="971.6245">write()</text><!--MD5=[b6dcce5e5ef3c84b0b048d11301373dd]
class Game--><rect codeLine="1" fill="#FEFECE" filter="url(#f1lt3cljcgnnbv)" height="67.9063" id="Game" style="stroke: #A80036; stroke-width: 1.5;" width="154" x="113" y="583"/><ellipse cx="128" cy="608.9531" fill="#ADD1B2" rx="11" ry="11" style="stroke: #A80036; stroke-width: 1.0;"/><path d="M130.3438,604.625 C129.4063,604.1875 128.8125,604.0469 127.9375,604.0469 C125.3125,604.0469 123.3125,606.125 123.3125,608.8438 L123.3125,609.9688 C123.3125,612.5469 125.4219,614.4375 128.3125,614.4375 C129.5313,614.4375 130.6875,614.1406 131.4375,613.5938 C132.0156,613.1875 132.3438,612.7344 132.3438,612.3438 C132.3438,611.8906 131.9531,611.5 131.4844,611.5 C131.2656,611.5 131.0625,611.5781 130.875,611.7656 C130.4219,612.25 130.4219,612.25 130.2344,612.3438 C129.8125,612.6094 129.125,612.7344 128.3594,612.7344 C126.3125,612.7344 125.0156,611.6406 125.0156,609.9375 L125.0156,608.8438 C125.0156,607.0625 126.2656,605.75 128,605.75 C128.5781,605.75 129.1875,605.9063 129.6563,606.1563 C130.1406,606.4375 130.3125,606.6563 130.4063,607.0625 C130.4688,607.4688 130.5,607.5938 130.6406,607.7188 C130.7813,607.8594 131.0156,607.9688 131.2344,607.9688 C131.5,607.9688 131.7656,607.8281 131.9375,607.6094 C132.0469,607.4531 132.0781,607.2656 132.0781,606.8438 L132.0781,605.4219 C132.0781,604.9844 132.0625,604.8594 131.9688,604.7031 C131.8125,604.4375 131.5313,604.2969 131.2344,604.2969 C130.9375,604.2969 130.7344,604.3906 130.5156,604.7031 L130.3438,604.625 Z " fill="#000000"/><text fill="#000000" font-family="sans-serif" font-size="12" lengthAdjust="spacingAndGlyphs" textLength="71" x="167.5" y="599.1387">usantatecla.</text><text fill="#000000" font-family="sans-serif" font-size="12" lengthAdjust="spacingAndGlyphs" textLength="122" x="142" y="613.1074">mastermind.models.</text><text fill="#000000" font-family="sans-serif" font-size="12" lengthAdjust="spacingAndGlyphs" textLength="35" x="185.5" y="627.0762">Game</text><line style="stroke: #A80036; stroke-width: 1.5;" x1="114" x2="266" y1="634.9063" y2="634.9063"/><line style="stroke: #A80036; stroke-width: 1.5;" x1="114" x2="266" y1="642.9063" y2="642.9063"/><!--MD5=[b8cfd8c4119a3b0a7a46bfc5fc780f85]
class Error--><rect codeLine="2" fill="#FEFECE" filter="url(#f1lt3cljcgnnbv)" height="67.9063" id="Error" style="stroke: #A80036; stroke-width: 1.5;" width="154" x="1401" y="894.5"/><ellipse cx="1416" cy="920.4531" fill="#ADD1B2" rx="11" ry="11" style="stroke: #A80036; stroke-width: 1.0;"/><path d="M1418.3438,916.125 C1417.4063,915.6875 1416.8125,915.5469 1415.9375,915.5469 C1413.3125,915.5469 1411.3125,917.625 1411.3125,920.3438 L1411.3125,921.4688 C1411.3125,924.0469 1413.4219,925.9375 1416.3125,925.9375 C1417.5313,925.9375 1418.6875,925.6406 1419.4375,925.0938 C1420.0156,924.6875 1420.3438,924.2344 1420.3438,923.8438 C1420.3438,923.3906 1419.9531,923 1419.4844,923 C1419.2656,923 1419.0625,923.0781 1418.875,923.2656 C1418.4219,923.75 1418.4219,923.75 1418.2344,923.8438 C1417.8125,924.1094 1417.125,924.2344 1416.3594,924.2344 C1414.3125,924.2344 1413.0156,923.1406 1413.0156,921.4375 L1413.0156,920.3438 C1413.0156,918.5625 1414.2656,917.25 1416,917.25 C1416.5781,917.25 1417.1875,917.4063 1417.6563,917.6563 C1418.1406,917.9375 1418.3125,918.1563 1418.4063,918.5625 C1418.4688,918.9688 1418.5,919.0938 1418.6406,919.2188 C1418.7813,919.3594 1419.0156,919.4688 1419.2344,919.4688 C1419.5,919.4688 1419.7656,919.3281 1419.9375,919.1094 C1420.0469,918.9531 1420.0781,918.7656 1420.0781,918.3438 L1420.0781,916.9219 C1420.0781,916.4844 1420.0625,916.3594 1419.9688,916.2031 C1419.8125,915.9375 1419.5313,915.7969 1419.2344,915.7969 C1418.9375,915.7969 1418.7344,915.8906 1418.5156,916.2031 L1418.3438,916.125 Z " fill="#000000"/><text fill="#000000" font-family="sans-serif" font-size="12" lengthAdjust="spacingAndGlyphs" textLength="71" x="1455.5" y="910.6387">usantatecla.</text><text fill="#000000" font-family="sans-serif" font-size="12" lengthAdjust="spacingAndGlyphs" textLength="122" x="1430" y="924.6074">mastermind.models.</text><text fill="#000000" font-family="sans-serif" font-size="12" lengthAdjust="spacingAndGlyphs" textLength="30" x="1476" y="938.5762">Error</text><line style="stroke: #A80036; stroke-width: 1.5;" x1="1402" x2="1554" y1="946.4063" y2="946.4063"/><line style="stroke: #A80036; stroke-width: 1.5;" x1="1402" x2="1554" y1="954.4063" y2="954.4063"/><!--MD5=[2741598bdf59a7d7e0d5c97658fd3022]
class Result--><rect codeLine="3" fill="#FEFECE" filter="url(#f1lt3cljcgnnbv)" height="67.9063" id="Result" style="stroke: #A80036; stroke-width: 1.5;" width="154" x="2028" y="735.5"/><ellipse cx="2043" cy="761.4531" fill="#ADD1B2" rx="11" ry="11" style="stroke: #A80036; stroke-width: 1.0;"/><path d="M2045.3438,757.125 C2044.4063,756.6875 2043.8125,756.5469 2042.9375,756.5469 C2040.3125,756.5469 2038.3125,758.625 2038.3125,761.3438 L2038.3125,762.4688 C2038.3125,765.0469 2040.4219,766.9375 2043.3125,766.9375 C2044.5313,766.9375 2045.6875,766.6406 2046.4375,766.0938 C2047.0156,765.6875 2047.3438,765.2344 2047.3438,764.8438 C2047.3438,764.3906 2046.9531,764 2046.4844,764 C2046.2656,764 2046.0625,764.0781 2045.875,764.2656 C2045.4219,764.75 2045.4219,764.75 2045.2344,764.8438 C2044.8125,765.1094 2044.125,765.2344 2043.3594,765.2344 C2041.3125,765.2344 2040.0156,764.1406 2040.0156,762.4375 L2040.0156,761.3438 C2040.0156,759.5625 2041.2656,758.25 2043,758.25 C2043.5781,758.25 2044.1875,758.4063 2044.6563,758.6563 C2045.1406,758.9375 2045.3125,759.1563 2045.4063,759.5625 C2045.4688,759.9688 2045.5,760.0938 2045.6406,760.2188 C2045.7813,760.3594 2046.0156,760.4688 2046.2344,760.4688 C2046.5,760.4688 2046.7656,760.3281 2046.9375,760.1094 C2047.0469,759.9531 2047.0781,759.7656 2047.0781,759.3438 L2047.0781,757.9219 C2047.0781,757.4844 2047.0625,757.3594 2046.9688,757.2031 C2046.8125,756.9375 2046.5313,756.7969 2046.2344,756.7969 C2045.9375,756.7969 2045.7344,756.8906 2045.5156,757.2031 L2045.3438,757.125 Z " fill="#000000"/><text fill="#000000" font-family="sans-serif" font-size="12" lengthAdjust="spacingAndGlyphs" textLength="71" x="2082.5" y="751.6387">usantatecla.</text><text fill="#000000" font-family="sans-serif" font-size="12" lengthAdjust="spacingAndGlyphs" textLength="122" x="2057" y="765.6074">mastermind.models.</text><text fill="#000000" font-family="sans-serif" font-size="12" lengthAdjust="spacingAndGlyphs" textLength="36" x="2100" y="779.5762">Result</text><line style="stroke: #A80036; stroke-width: 1.5;" x1="2029" x2="2181" y1="787.4063" y2="787.4063"/><line style="stroke: #A80036; stroke-width: 1.5;" x1="2029" x2="2181" y1="795.4063" y2="795.4063"/><!--MD5=[18eee71c88ab61f27581b8cbdd3ef5ee]
class Color--><rect codeLine="4" fill="#FEFECE" filter="url(#f1lt3cljcgnnbv)" height="67.9063" id="Color" style="stroke: #A80036; stroke-width: 1.5;" width="154" x="261" y="1038"/><ellipse cx="276" cy="1063.9531" fill="#EB937F" rx="11" ry="11" style="stroke: #A80036; stroke-width: 1.0;"/><path d="M274.7969,1064.8281 L276.25,1064.8281 L276.25,1064.9375 C276.25,1065.3438 276.2813,1065.5 276.3594,1065.6563 C276.5156,1065.9063 276.7969,1066.0625 277.0938,1066.0625 C277.3438,1066.0625 277.6094,1065.9219 277.7656,1065.7031 C277.8906,1065.5469 277.9219,1065.3906 277.9219,1064.9375 L277.9219,1063.0156 C277.9219,1062.8594 277.9219,1062.8125 277.9063,1062.6563 C277.8438,1062.1875 277.5313,1061.875 277.0781,1061.875 C276.8281,1061.875 276.5625,1062.0156 276.3906,1062.2344 C276.2813,1062.4063 276.25,1062.5625 276.25,1063.0156 L276.25,1063.1406 L274.7969,1063.1406 L274.7969,1060.7344 L278.7813,1060.7344 L278.7813,1061.5938 C278.7813,1062 278.8125,1062.1719 278.8906,1062.3281 C279.0625,1062.5781 279.3438,1062.7344 279.625,1062.7344 C279.8906,1062.7344 280.1563,1062.5938 280.3281,1062.375 C280.4375,1062.2031 280.4688,1062.0625 280.4688,1061.5938 L280.4688,1059.0469 L272.8438,1059.0469 C272.4063,1059.0469 272.2813,1059.0625 272.125,1059.1563 C271.875,1059.3125 271.7188,1059.6094 271.7188,1059.8906 C271.7188,1060.1719 271.8594,1060.4219 272.0781,1060.5938 C272.2344,1060.7031 272.4219,1060.7344 272.8438,1060.7344 L273.0938,1060.7344 L273.0938,1067.25 L272.8438,1067.25 C272.4375,1067.25 272.2813,1067.2656 272.125,1067.375 C271.875,1067.5469 271.7188,1067.8125 271.7188,1068.1094 C271.7188,1068.375 271.8594,1068.625 272.0781,1068.7813 C272.2188,1068.9063 272.4531,1068.9531 272.8438,1068.9531 L280.8438,1068.9531 L280.8438,1066.375 C280.8438,1065.9375 280.8125,1065.7969 280.7344,1065.6406 C280.5625,1065.3906 280.2813,1065.2344 280,1065.2344 C279.7344,1065.2344 279.4688,1065.3438 279.2969,1065.5938 C279.1875,1065.75 279.1563,1065.8906 279.1563,1066.375 L279.1563,1067.25 L274.7969,1067.25 L274.7969,1064.8281 Z " fill="#000000"/><text fill="#000000" font-family="sans-serif" font-size="12" lengthAdjust="spacingAndGlyphs" textLength="71" x="315.5" y="1054.1387">usantatecla.</text><text fill="#000000" font-family="sans-serif" font-size="12" lengthAdjust="spacingAndGlyphs" textLength="122" x="290" y="1068.1074">mastermind.models.</text><text fill="#000000" font-family="sans-serif" font-size="12" lengthAdjust="spacingAndGlyphs" textLength="32" x="335" y="1082.0762">Color</text><line style="stroke: #A80036; stroke-width: 1.5;" x1="262" x2="414" y1="1089.9063" y2="1089.9063"/><line style="stroke: #A80036; stroke-width: 1.5;" x1="262" x2="414" y1="1097.9063" y2="1097.9063"/><!--MD5=[28491d17d5ee38c9c116625a5ffc259a]
class Combination--><rect codeLine="5" fill="#FEFECE" filter="url(#f1lt3cljcgnnbv)" height="67.9063" id="Combination" style="stroke: #A80036; stroke-width: 1.5;" width="156" x="1364" y="735.5"/><ellipse cx="1379" cy="761.4531" fill="#A9DCDF" rx="11" ry="11" style="stroke: #A80036; stroke-width: 1.0;"/><path d="M1381.0781,763.2656 L1381.4688,764.25 L1381.0781,764.25 C1380.625,764.25 1380.5156,764.2656 1380.3594,764.375 C1380.1094,764.5313 1379.9531,764.8125 1379.9531,765.1094 C1379.9531,765.375 1380.0938,765.625 1380.3125,765.7813 C1380.4531,765.9063 1380.6563,765.9531 1381.0781,765.9531 L1383.4375,765.9531 C1383.7969,765.9531 1384.0156,765.9219 1384.1563,765.8281 C1384.4063,765.6875 1384.5625,765.3906 1384.5625,765.1094 C1384.5625,764.8281 1384.4219,764.5781 1384.2031,764.4219 C1384.0313,764.2813 1383.875,764.25 1383.4063,764.25 L1380.0156,756.0469 L1376.3438,756.0469 C1375.8906,756.0469 1375.7656,756.0625 1375.6094,756.1563 C1375.3594,756.3281 1375.2031,756.6094 1375.2031,756.8906 C1375.2031,757.1719 1375.3438,757.4219 1375.5625,757.5938 C1375.7344,757.7031 1375.9063,757.7344 1376.3438,757.7344 L1377.4219,757.7344 L1374.7813,764.25 C1374.3594,764.25 1374.2031,764.2656 1374.0469,764.375 C1373.7969,764.5313 1373.6406,764.8125 1373.6406,765.1094 C1373.6406,765.6719 1374.0156,765.9531 1374.7656,765.9531 L1377.0313,765.9531 C1377.3906,765.9531 1377.6094,765.9219 1377.7344,765.8281 C1378,765.6875 1378.1406,765.3906 1378.1406,765.1094 C1378.1406,764.8281 1378.0156,764.5781 1377.7969,764.4063 C1377.625,764.2813 1377.4844,764.25 1377.0313,764.25 L1376.6406,764.25 L1377.0313,763.2656 L1381.0781,763.2656 Z M1380.375,761.5625 L1377.7031,761.5625 L1379.0469,758.2969 L1380.375,761.5625 Z " fill="#000000"/><text fill="#000000" font-family="sans-serif" font-size="12" font-style="italic" lengthAdjust="spacingAndGlyphs" textLength="74" x="1418" y="751.6387">usantatecla.</text><text fill="#000000" font-family="sans-serif" font-size="12" font-style="italic" lengthAdjust="spacingAndGlyphs" textLength="124" x="1393" y="765.6074">mastermind.models.</text><text fill="#000000" font-family="sans-serif" font-size="12" font-style="italic" lengthAdjust="spacingAndGlyphs" textLength="76" x="1417" y="779.5762">Combination</text><line style="stroke: #A80036; stroke-width: 1.5;" x1="1365" x2="1519" y1="787.4063" y2="787.4063"/><line style="stroke: #A80036; stroke-width: 1.5;" x1="1365" x2="1519" y1="795.4063" y2="795.4063"/><!--MD5=[cf489b19c51ee25e76ddca093e62e620]
class ProposedCombination--><rect codeLine="6" fill="#FEFECE" filter="url(#f1lt3cljcgnnbv)" height="67.9063" id="ProposedCombination" style="stroke: #A80036; stroke-width: 1.5;" width="164" x="7" y="735.5"/><ellipse cx="22" cy="761.4531" fill="#ADD1B2" rx="11" ry="11" style="stroke: #A80036; stroke-width: 1.0;"/><path d="M24.3438,757.125 C23.4063,756.6875 22.8125,756.5469 21.9375,756.5469 C19.3125,756.5469 17.3125,758.625 17.3125,761.3438 L17.3125,762.4688 C17.3125,765.0469 19.4219,766.9375 22.3125,766.9375 C23.5313,766.9375 24.6875,766.6406 25.4375,766.0938 C26.0156,765.6875 26.3438,765.2344 26.3438,764.8438 C26.3438,764.3906 25.9531,764 25.4844,764 C25.2656,764 25.0625,764.0781 24.875,764.2656 C24.4219,764.75 24.4219,764.75 24.2344,764.8438 C23.8125,765.1094 23.125,765.2344 22.3594,765.2344 C20.3125,765.2344 19.0156,764.1406 19.0156,762.4375 L19.0156,761.3438 C19.0156,759.5625 20.2656,758.25 22,758.25 C22.5781,758.25 23.1875,758.4063 23.6563,758.6563 C24.1406,758.9375 24.3125,759.1563 24.4063,759.5625 C24.4688,759.9688 24.5,760.0938 24.6406,760.2188 C24.7813,760.3594 25.0156,760.4688 25.2344,760.4688 C25.5,760.4688 25.7656,760.3281 25.9375,760.1094 C26.0469,759.9531 26.0781,759.7656 26.0781,759.3438 L26.0781,757.9219 C26.0781,757.4844 26.0625,757.3594 25.9688,757.2031 C25.8125,756.9375 25.5313,756.7969 25.2344,756.7969 C24.9375,756.7969 24.7344,756.8906 24.5156,757.2031 L24.3438,757.125 Z " fill="#000000"/><text fill="#000000" font-family="sans-serif" font-size="12" lengthAdjust="spacingAndGlyphs" textLength="71" x="66.5" y="751.6387">usantatecla.</text><text fill="#000000" font-family="sans-serif" font-size="12" lengthAdjust="spacingAndGlyphs" textLength="122" x="41" y="765.6074">mastermind.models.</text><text fill="#000000" font-family="sans-serif" font-size="12" lengthAdjust="spacingAndGlyphs" textLength="132" x="36" y="779.5762">ProposedCombination</text><line style="stroke: #A80036; stroke-width: 1.5;" x1="8" x2="170" y1="787.4063" y2="787.4063"/><line style="stroke: #A80036; stroke-width: 1.5;" x1="8" x2="170" y1="795.4063" y2="795.4063"/><!--MD5=[e370ee5c0c15ce04544d5f5a73174d72]
class SecretCombination--><rect codeLine="7" fill="#FEFECE" filter="url(#f1lt3cljcgnnbv)" height="67.9063" id="SecretCombination" style="stroke: #A80036; stroke-width: 1.5;" width="154" x="1768" y="735.5"/><ellipse cx="1783" cy="761.4531" fill="#ADD1B2" rx="11" ry="11" style="stroke: #A80036; stroke-width: 1.0;"/><path d="M1785.3438,757.125 C1784.4063,756.6875 1783.8125,756.5469 1782.9375,756.5469 C1780.3125,756.5469 1778.3125,758.625 1778.3125,761.3438 L1778.3125,762.4688 C1778.3125,765.0469 1780.4219,766.9375 1783.3125,766.9375 C1784.5313,766.9375 1785.6875,766.6406 1786.4375,766.0938 C1787.0156,765.6875 1787.3438,765.2344 1787.3438,764.8438 C1787.3438,764.3906 1786.9531,764 1786.4844,764 C1786.2656,764 1786.0625,764.0781 1785.875,764.2656 C1785.4219,764.75 1785.4219,764.75 1785.2344,764.8438 C1784.8125,765.1094 1784.125,765.2344 1783.3594,765.2344 C1781.3125,765.2344 1780.0156,764.1406 1780.0156,762.4375 L1780.0156,761.3438 C1780.0156,759.5625 1781.2656,758.25 1783,758.25 C1783.5781,758.25 1784.1875,758.4063 1784.6563,758.6563 C1785.1406,758.9375 1785.3125,759.1563 1785.4063,759.5625 C1785.4688,759.9688 1785.5,760.0938 1785.6406,760.2188 C1785.7813,760.3594 1786.0156,760.4688 1786.2344,760.4688 C1786.5,760.4688 1786.7656,760.3281 1786.9375,760.1094 C1787.0469,759.9531 1787.0781,759.7656 1787.0781,759.3438 L1787.0781,757.9219 C1787.0781,757.4844 1787.0625,757.3594 1786.9688,757.2031 C1786.8125,756.9375 1786.5313,756.7969 1786.2344,756.7969 C1785.9375,756.7969 1785.7344,756.8906 1785.5156,757.2031 L1785.3438,757.125 Z " fill="#000000"/><text fill="#000000" font-family="sans-serif" font-size="12" lengthAdjust="spacingAndGlyphs" textLength="71" x="1822.5" y="751.6387">usantatecla.</text><text fill="#000000" font-family="sans-serif" font-size="12" lengthAdjust="spacingAndGlyphs" textLength="122" x="1797" y="765.6074">mastermind.models.</text><text fill="#000000" font-family="sans-serif" font-size="12" lengthAdjust="spacingAndGlyphs" textLength="114" x="1801" y="779.5762">SecretCombination</text><line style="stroke: #A80036; stroke-width: 1.5;" x1="1769" x2="1921" y1="787.4063" y2="787.4063"/><line style="stroke: #A80036; stroke-width: 1.5;" x1="1769" x2="1921" y1="795.4063" y2="795.4063"/><!--MD5=[c045e12321b83266d36d22b9096c24ea]
class View--><rect codeLine="8" fill="#FEFECE" filter="url(#f1lt3cljcgnnbv)" height="67.9063" id="View" style="stroke: #A80036; stroke-width: 1.5;" width="146" x="618" y="7"/><ellipse cx="633" cy="32.9531" fill="#A9DCDF" rx="11" ry="11" style="stroke: #A80036; stroke-width: 1.0;"/><path d="M635.0781,34.7656 L635.4688,35.75 L635.0781,35.75 C634.625,35.75 634.5156,35.7656 634.3594,35.875 C634.1094,36.0313 633.9531,36.3125 633.9531,36.6094 C633.9531,36.875 634.0938,37.125 634.3125,37.2813 C634.4531,37.4063 634.6563,37.4531 635.0781,37.4531 L637.4375,37.4531 C637.7969,37.4531 638.0156,37.4219 638.1563,37.3281 C638.4063,37.1875 638.5625,36.8906 638.5625,36.6094 C638.5625,36.3281 638.4219,36.0781 638.2031,35.9219 C638.0313,35.7813 637.875,35.75 637.4063,35.75 L634.0156,27.5469 L630.3438,27.5469 C629.8906,27.5469 629.7656,27.5625 629.6094,27.6563 C629.3594,27.8281 629.2031,28.1094 629.2031,28.3906 C629.2031,28.6719 629.3438,28.9219 629.5625,29.0938 C629.7344,29.2031 629.9063,29.2344 630.3438,29.2344 L631.4219,29.2344 L628.7813,35.75 C628.3594,35.75 628.2031,35.7656 628.0469,35.875 C627.7969,36.0313 627.6406,36.3125 627.6406,36.6094 C627.6406,37.1719 628.0156,37.4531 628.7656,37.4531 L631.0313,37.4531 C631.3906,37.4531 631.6094,37.4219 631.7344,37.3281 C632,37.1875 632.1406,36.8906 632.1406,36.6094 C632.1406,36.3281 632.0156,36.0781 631.7969,35.9063 C631.625,35.7813 631.4844,35.75 631.0313,35.75 L630.6406,35.75 L631.0313,34.7656 L635.0781,34.7656 Z M634.375,33.0625 L631.7031,33.0625 L633.0469,29.7969 L634.375,33.0625 Z " fill="#000000"/><text fill="#000000" font-family="sans-serif" font-size="12" font-style="italic" lengthAdjust="spacingAndGlyphs" textLength="74" x="667" y="23.1387">usantatecla.</text><text fill="#000000" font-family="sans-serif" font-size="12" font-style="italic" lengthAdjust="spacingAndGlyphs" textLength="114" x="647" y="37.1074">mastermind.views.</text><text fill="#000000" font-family="sans-serif" font-size="12" font-style="italic" lengthAdjust="spacingAndGlyphs" textLength="28" x="690" y="51.0762">View</text><line style="stroke: #A80036; stroke-width: 1.5;" x1="619" x2="763" y1="58.9063" y2="58.9063"/><line style="stroke: #A80036; stroke-width: 1.5;" x1="619" x2="763" y1="66.9063" y2="66.9063"/><!--MD5=[5c0d2bf114541dffca76af5edd55a1b5]
class ColorView--><rect codeLine="9" fill="#FEFECE" filter="url(#f1lt3cljcgnnbv)" height="67.9063" id="ColorView" style="stroke: #A80036; stroke-width: 1.5;" width="146" x="305" y="735.5"/><ellipse cx="320" cy="761.4531" fill="#A9DCDF" rx="11" ry="11" style="stroke: #A80036; stroke-width: 1.0;"/><path d="M322.0781,763.2656 L322.4688,764.25 L322.0781,764.25 C321.625,764.25 321.5156,764.2656 321.3594,764.375 C321.1094,764.5313 320.9531,764.8125 320.9531,765.1094 C320.9531,765.375 321.0938,765.625 321.3125,765.7813 C321.4531,765.9063 321.6563,765.9531 322.0781,765.9531 L324.4375,765.9531 C324.7969,765.9531 325.0156,765.9219 325.1563,765.8281 C325.4063,765.6875 325.5625,765.3906 325.5625,765.1094 C325.5625,764.8281 325.4219,764.5781 325.2031,764.4219 C325.0313,764.2813 324.875,764.25 324.4063,764.25 L321.0156,756.0469 L317.3438,756.0469 C316.8906,756.0469 316.7656,756.0625 316.6094,756.1563 C316.3594,756.3281 316.2031,756.6094 316.2031,756.8906 C316.2031,757.1719 316.3438,757.4219 316.5625,757.5938 C316.7344,757.7031 316.9063,757.7344 317.3438,757.7344 L318.4219,757.7344 L315.7813,764.25 C315.3594,764.25 315.2031,764.2656 315.0469,764.375 C314.7969,764.5313 314.6406,764.8125 314.6406,765.1094 C314.6406,765.6719 315.0156,765.9531 315.7656,765.9531 L318.0313,765.9531 C318.3906,765.9531 318.6094,765.9219 318.7344,765.8281 C319,765.6875 319.1406,765.3906 319.1406,765.1094 C319.1406,764.8281 319.0156,764.5781 318.7969,764.4063 C318.625,764.2813 318.4844,764.25 318.0313,764.25 L317.6406,764.25 L318.0313,763.2656 L322.0781,763.2656 Z M321.375,761.5625 L318.7031,761.5625 L320.0469,758.2969 L321.375,761.5625 Z " fill="#000000"/><text fill="#000000" font-family="sans-serif" font-size="12" font-style="italic" lengthAdjust="spacingAndGlyphs" textLength="74" x="354" y="751.6387">usantatecla.</text><text fill="#000000" font-family="sans-serif" font-size="12" font-style="italic" lengthAdjust="spacingAndGlyphs" textLength="114" x="334" y="765.6074">mastermind.views.</text><text fill="#000000" font-family="sans-serif" font-size="12" font-style="italic" lengthAdjust="spacingAndGlyphs" textLength="58" x="362" y="779.5762">ColorView</text><line style="stroke: #A80036; stroke-width: 1.5;" x1="306" x2="450" y1="787.4063" y2="787.4063"/><line style="stroke: #A80036; stroke-width: 1.5;" x1="306" x2="450" y1="795.4063" y2="795.4063"/><!--MD5=[86cec68673cafdfc1c204348d5b2cca6]
class ErrorView--><rect codeLine="10" fill="#FEFECE" filter="url(#f1lt3cljcgnnbv)" height="67.9063" id="ErrorView" style="stroke: #A80036; stroke-width: 1.5;" width="146" x="302" y="583"/><ellipse cx="317" cy="608.9531" fill="#A9DCDF" rx="11" ry="11" style="stroke: #A80036; stroke-width: 1.0;"/><path d="M319.0781,610.7656 L319.4688,611.75 L319.0781,611.75 C318.625,611.75 318.5156,611.7656 318.3594,611.875 C318.1094,612.0313 317.9531,612.3125 317.9531,612.6094 C317.9531,612.875 318.0938,613.125 318.3125,613.2813 C318.4531,613.4063 318.6563,613.4531 319.0781,613.4531 L321.4375,613.4531 C321.7969,613.4531 322.0156,613.4219 322.1563,613.3281 C322.4063,613.1875 322.5625,612.8906 322.5625,612.6094 C322.5625,612.3281 322.4219,612.0781 322.2031,611.9219 C322.0313,611.7813 321.875,611.75 321.4063,611.75 L318.0156,603.5469 L314.3438,603.5469 C313.8906,603.5469 313.7656,603.5625 313.6094,603.6563 C313.3594,603.8281 313.2031,604.1094 313.2031,604.3906 C313.2031,604.6719 313.3438,604.9219 313.5625,605.0938 C313.7344,605.2031 313.9063,605.2344 314.3438,605.2344 L315.4219,605.2344 L312.7813,611.75 C312.3594,611.75 312.2031,611.7656 312.0469,611.875 C311.7969,612.0313 311.6406,612.3125 311.6406,612.6094 C311.6406,613.1719 312.0156,613.4531 312.7656,613.4531 L315.0313,613.4531 C315.3906,613.4531 315.6094,613.4219 315.7344,613.3281 C316,613.1875 316.1406,612.8906 316.1406,612.6094 C316.1406,612.3281 316.0156,612.0781 315.7969,611.9063 C315.625,611.7813 315.4844,611.75 315.0313,611.75 L314.6406,611.75 L315.0313,610.7656 L319.0781,610.7656 Z M318.375,609.0625 L315.7031,609.0625 L317.0469,605.7969 L318.375,609.0625 Z " fill="#000000"/><text fill="#000000" font-family="sans-serif" font-size="12" font-style="italic" lengthAdjust="spacingAndGlyphs" textLength="74" x="351" y="599.1387">usantatecla.</text><text fill="#000000" font-family="sans-serif" font-size="12" font-style="italic" lengthAdjust="spacingAndGlyphs" textLength="114" x="331" y="613.1074">mastermind.views.</text><text fill="#000000" font-family="sans-serif" font-size="12" font-style="italic" lengthAdjust="spacingAndGlyphs" textLength="58" x="359" y="627.0762">ErrorView</text><line style="stroke: #A80036; stroke-width: 1.5;" x1="303" x2="447" y1="634.9063" y2="634.9063"/><line style="stroke: #A80036; stroke-width: 1.5;" x1="303" x2="447" y1="642.9063" y2="642.9063"/><!--MD5=[bea5b0d46523efab5ea1c1d339f396f0]
class Message--><rect codeLine="11" fill="#FEFECE" filter="url(#f1lt3cljcgnnbv)" height="67.9063" id="Message" style="stroke: #A80036; stroke-width: 1.5;" width="144" x="2217" y="735.5"/><ellipse cx="2232" cy="761.4531" fill="#EB937F" rx="11" ry="11" style="stroke: #A80036; stroke-width: 1.0;"/><path d="M2230.7969,762.3281 L2232.25,762.3281 L2232.25,762.4375 C2232.25,762.8438 2232.2813,763 2232.3594,763.1563 C2232.5156,763.4063 2232.7969,763.5625 2233.0938,763.5625 C2233.3438,763.5625 2233.6094,763.4219 2233.7656,763.2031 C2233.8906,763.0469 2233.9219,762.8906 2233.9219,762.4375 L2233.9219,760.5156 C2233.9219,760.3594 2233.9219,760.3125 2233.9063,760.1563 C2233.8438,759.6875 2233.5313,759.375 2233.0781,759.375 C2232.8281,759.375 2232.5625,759.5156 2232.3906,759.7344 C2232.2813,759.9063 2232.25,760.0625 2232.25,760.5156 L2232.25,760.6406 L2230.7969,760.6406 L2230.7969,758.2344 L2234.7813,758.2344 L2234.7813,759.0938 C2234.7813,759.5 2234.8125,759.6719 2234.8906,759.8281 C2235.0625,760.0781 2235.3438,760.2344 2235.625,760.2344 C2235.8906,760.2344 2236.1563,760.0938 2236.3281,759.875 C2236.4375,759.7031 2236.4688,759.5625 2236.4688,759.0938 L2236.4688,756.5469 L2228.8438,756.5469 C2228.4063,756.5469 2228.2813,756.5625 2228.125,756.6563 C2227.875,756.8125 2227.7188,757.1094 2227.7188,757.3906 C2227.7188,757.6719 2227.8594,757.9219 2228.0781,758.0938 C2228.2344,758.2031 2228.4219,758.2344 2228.8438,758.2344 L2229.0938,758.2344 L2229.0938,764.75 L2228.8438,764.75 C2228.4375,764.75 2228.2813,764.7656 2228.125,764.875 C2227.875,765.0469 2227.7188,765.3125 2227.7188,765.6094 C2227.7188,765.875 2227.8594,766.125 2228.0781,766.2813 C2228.2188,766.4063 2228.4531,766.4531 2228.8438,766.4531 L2236.8438,766.4531 L2236.8438,763.875 C2236.8438,763.4375 2236.8125,763.2969 2236.7344,763.1406 C2236.5625,762.8906 2236.2813,762.7344 2236,762.7344 C2235.7344,762.7344 2235.4688,762.8438 2235.2969,763.0938 C2235.1875,763.25 2235.1563,763.3906 2235.1563,763.875 L2235.1563,764.75 L2230.7969,764.75 L2230.7969,762.3281 Z " fill="#000000"/><text fill="#000000" font-family="sans-serif" font-size="12" lengthAdjust="spacingAndGlyphs" textLength="71" x="2266.5" y="751.6387">usantatecla.</text><text fill="#000000" font-family="sans-serif" font-size="12" lengthAdjust="spacingAndGlyphs" textLength="112" x="2246" y="765.6074">mastermind.views.</text><text fill="#000000" font-family="sans-serif" font-size="12" lengthAdjust="spacingAndGlyphs" textLength="55" x="2274.5" y="779.5762">Message</text><line style="stroke: #A80036; stroke-width: 1.5;" x1="2218" x2="2360" y1="787.4063" y2="787.4063"/><line style="stroke: #A80036; stroke-width: 1.5;" x1="2218" x2="2360" y1="795.4063" y2="795.4063"/><!--MD5=[315b61b427ec618d6861d47eee00cca3]
class Console--><rect codeLine="12" fill="#FEFECE" filter="url(#f1lt3cljcgnnbv)" height="53.9375" id="Console" style="stroke: #A80036; stroke-width: 1.5;" width="130" x="1780" y="1045"/><ellipse cx="1795" cy="1063.9688" fill="#ADD1B2" rx="11" ry="11" style="stroke: #A80036; stroke-width: 1.0;"/><path d="M1797.3438,1059.6406 C1796.4063,1059.2031 1795.8125,1059.0625 1794.9375,1059.0625 C1792.3125,1059.0625 1790.3125,1061.1406 1790.3125,1063.8594 L1790.3125,1064.9844 C1790.3125,1067.5625 1792.4219,1069.4531 1795.3125,1069.4531 C1796.5313,1069.4531 1797.6875,1069.1563 1798.4375,1068.6094 C1799.0156,1068.2031 1799.3438,1067.75 1799.3438,1067.3594 C1799.3438,1066.9063 1798.9531,1066.5156 1798.4844,1066.5156 C1798.2656,1066.5156 1798.0625,1066.5938 1797.875,1066.7813 C1797.4219,1067.2656 1797.4219,1067.2656 1797.2344,1067.3594 C1796.8125,1067.625 1796.125,1067.75 1795.3594,1067.75 C1793.3125,1067.75 1792.0156,1066.6563 1792.0156,1064.9531 L1792.0156,1063.8594 C1792.0156,1062.0781 1793.2656,1060.7656 1795,1060.7656 C1795.5781,1060.7656 1796.1875,1060.9219 1796.6563,1061.1719 C1797.1406,1061.4531 1797.3125,1061.6719 1797.4063,1062.0781 C1797.4688,1062.4844 1797.5,1062.6094 1797.6406,1062.7344 C1797.7813,1062.875 1798.0156,1062.9844 1798.2344,1062.9844 C1798.5,1062.9844 1798.7656,1062.8438 1798.9375,1062.625 C1799.0469,1062.4688 1799.0781,1062.2813 1799.0781,1061.8594 L1799.0781,1060.4375 C1799.0781,1060 1799.0625,1059.875 1798.9688,1059.7188 C1798.8125,1059.4531 1798.5313,1059.3125 1798.2344,1059.3125 C1797.9375,1059.3125 1797.7344,1059.4063 1797.5156,1059.7188 L1797.3438,1059.6406 Z " fill="#000000"/><text fill="#000000" font-family="sans-serif" font-size="12" lengthAdjust="spacingAndGlyphs" textLength="98" x="1809" y="1061.1387">usantatecla.utils.</text><text fill="#000000" font-family="sans-serif" font-size="12" lengthAdjust="spacingAndGlyphs" textLength="49" x="1833.5" y="1075.1074">Console</text><line style="stroke: #A80036; stroke-width: 1.5;" x1="1781" x2="1909" y1="1082.9375" y2="1082.9375"/><line style="stroke: #A80036; stroke-width: 1.5;" x1="1781" x2="1909" y1="1090.9375" y2="1090.9375"/><!--MD5=[d93cf99d2b92276f27fe8dbf15140505]
class YesNoDialog--><rect codeLine="13" fill="#FEFECE" filter="url(#f1lt3cljcgnnbv)" height="53.9375" id="YesNoDialog" style="stroke: #A80036; stroke-width: 1.5;" width="130" x="1364" y="304"/><ellipse cx="1379" cy="322.9688" fill="#ADD1B2" rx="11" ry="11" style="stroke: #A80036; stroke-width: 1.0;"/><path d="M1381.3438,318.6406 C1380.4063,318.2031 1379.8125,318.0625 1378.9375,318.0625 C1376.3125,318.0625 1374.3125,320.1406 1374.3125,322.8594 L1374.3125,323.9844 C1374.3125,326.5625 1376.4219,328.4531 1379.3125,328.4531 C1380.5313,328.4531 1381.6875,328.1563 1382.4375,327.6094 C1383.0156,327.2031 1383.3438,326.75 1383.3438,326.3594 C1383.3438,325.9063 1382.9531,325.5156 1382.4844,325.5156 C1382.2656,325.5156 1382.0625,325.5938 1381.875,325.7813 C1381.4219,326.2656 1381.4219,326.2656 1381.2344,326.3594 C1380.8125,326.625 1380.125,326.75 1379.3594,326.75 C1377.3125,326.75 1376.0156,325.6563 1376.0156,323.9531 L1376.0156,322.8594 C1376.0156,321.0781 1377.2656,319.7656 1379,319.7656 C1379.5781,319.7656 1380.1875,319.9219 1380.6563,320.1719 C1381.1406,320.4531 1381.3125,320.6719 1381.4063,321.0781 C1381.4688,321.4844 1381.5,321.6094 1381.6406,321.7344 C1381.7813,321.875 1382.0156,321.9844 1382.2344,321.9844 C1382.5,321.9844 1382.7656,321.8438 1382.9375,321.625 C1383.0469,321.4688 1383.0781,321.2813 1383.0781,320.8594 L1383.0781,319.4375 C1383.0781,319 1383.0625,318.875 1382.9688,318.7188 C1382.8125,318.4531 1382.5313,318.3125 1382.2344,318.3125 C1381.9375,318.3125 1381.7344,318.4063 1381.5156,318.7188 L1381.3438,318.6406 Z " fill="#000000"/><text fill="#000000" font-family="sans-serif" font-size="12" lengthAdjust="spacingAndGlyphs" textLength="98" x="1393" y="320.1387">usantatecla.utils.</text><text fill="#000000" font-family="sans-serif" font-size="12" lengthAdjust="spacingAndGlyphs" textLength="76" x="1404" y="334.1074">YesNoDialog</text><line style="stroke: #A80036; stroke-width: 1.5;" x1="1365" x2="1493" y1="341.9375" y2="341.9375"/><line style="stroke: #A80036; stroke-width: 1.5;" x1="1365" x2="1493" y1="349.9375" y2="349.9375"/><!--MD5=[ce3aceb15685c4a66d1e1b8ea7e2c984]
class ColorCode--><rect codeLine="14" fill="#FEFECE" filter="url(#f1lt3cljcgnnbv)" height="53.9375" id="ColorCode" style="stroke: #A80036; stroke-width: 1.5;" width="130" x="535" y="1045"/><ellipse cx="550" cy="1063.9688" fill="#EB937F" rx="11" ry="11" style="stroke: #A80036; stroke-width: 1.0;"/><path d="M548.7969,1064.8438 L550.25,1064.8438 L550.25,1064.9531 C550.25,1065.3594 550.2813,1065.5156 550.3594,1065.6719 C550.5156,1065.9219 550.7969,1066.0781 551.0938,1066.0781 C551.3438,1066.0781 551.6094,1065.9375 551.7656,1065.7188 C551.8906,1065.5625 551.9219,1065.4063 551.9219,1064.9531 L551.9219,1063.0313 C551.9219,1062.875 551.9219,1062.8281 551.9063,1062.6719 C551.8438,1062.2031 551.5313,1061.8906 551.0781,1061.8906 C550.8281,1061.8906 550.5625,1062.0313 550.3906,1062.25 C550.2813,1062.4219 550.25,1062.5781 550.25,1063.0313 L550.25,1063.1563 L548.7969,1063.1563 L548.7969,1060.75 L552.7813,1060.75 L552.7813,1061.6094 C552.7813,1062.0156 552.8125,1062.1875 552.8906,1062.3438 C553.0625,1062.5938 553.3438,1062.75 553.625,1062.75 C553.8906,1062.75 554.1563,1062.6094 554.3281,1062.3906 C554.4375,1062.2188 554.4688,1062.0781 554.4688,1061.6094 L554.4688,1059.0625 L546.8438,1059.0625 C546.4063,1059.0625 546.2813,1059.0781 546.125,1059.1719 C545.875,1059.3281 545.7188,1059.625 545.7188,1059.9063 C545.7188,1060.1875 545.8594,1060.4375 546.0781,1060.6094 C546.2344,1060.7188 546.4219,1060.75 546.8438,1060.75 L547.0938,1060.75 L547.0938,1067.2656 L546.8438,1067.2656 C546.4375,1067.2656 546.2813,1067.2813 546.125,1067.3906 C545.875,1067.5625 545.7188,1067.8281 545.7188,1068.125 C545.7188,1068.3906 545.8594,1068.6406 546.0781,1068.7969 C546.2188,1068.9219 546.4531,1068.9688 546.8438,1068.9688 L554.8438,1068.9688 L554.8438,1066.3906 C554.8438,1065.9531 554.8125,1065.8125 554.7344,1065.6563 C554.5625,1065.4063 554.2813,1065.25 554,1065.25 C553.7344,1065.25 553.4688,1065.3594 553.2969,1065.6094 C553.1875,1065.7656 553.1563,1065.9063 553.1563,1066.3906 L553.1563,1067.2656 L548.7969,1067.2656 L548.7969,1064.8438 Z " fill="#000000"/><text fill="#000000" font-family="sans-serif" font-size="12" lengthAdjust="spacingAndGlyphs" textLength="98" x="564" y="1061.1387">usantatecla.utils.</text><text fill="#000000" font-family="sans-serif" font-size="12" lengthAdjust="spacingAndGlyphs" textLength="64" x="581" y="1075.1074">ColorCode</text><line style="stroke: #A80036; stroke-width: 1.5;" x1="536" x2="664" y1="1082.9375" y2="1082.9375"/><line style="stroke: #A80036; stroke-width: 1.5;" x1="536" x2="664" y1="1090.9375" y2="1090.9375"/><!--MD5=[5cc2afc7699cbb48ec3daa48200efb03]
reverse link View to usantatecla.mastermind.views.console.ConsoleView--><path codeLine="22" d="M691,95.31 C691,108.333 691,122.196 691,134.982 " fill="none" id="View-backto-usantatecla.mastermind.views.console.ConsoleView" style="stroke: #A80036; stroke-width: 1.0;"/><polygon fill="none" points="684,95.18,691,75.18,698,95.18,684,95.18" style="stroke: #A80036; stroke-width: 1.0;"/><!--MD5=[62b989f1b7fd9494cd0a5a3595d138cf]
link usantatecla.mastermind.views.console.ConsoleView to usantatecla.mastermind.views.console.StartView--><path codeLine="23" d="M781.5425,237.3295 C781.5425,237.3295 1046.85,389.202 1131.83,437.844 " fill="none" id="usantatecla.mastermind.views.console.ConsoleView-usantatecla.mastermind.views.console.StartView" style="stroke: #A80036; stroke-width: 1.0;"/><polygon fill="#A80036" points="1143.29,444.406,1137.466,436.4636,1138.9505,441.9222,1133.492,443.4068,1143.29,444.406" style="stroke: #A80036; stroke-width: 1.0;"/><line style="stroke: #A80036; stroke-width: 1.0;" x1="1138.9505" x2="1132.01" y1="441.9222" y2="437.9475"/><polygon fill="#A80036" points="771.128,231.368,774.3481,237.8202,781.5425,237.3295,778.3224,230.8773,771.128,231.368" style="stroke: #A80036; stroke-width: 1.0;"/><!--MD5=[9e9e09f7b836be77202fb5a7c9dba601]
link usantatecla.mastermind.views.console.ConsoleView to usantatecla.mastermind.views.console.ProposalView--><path codeLine="24" d="M668.6677,245.2585 C668.6677,245.2585 659.296,270.338 655.116,281.523 " fill="none" id="usantatecla.mastermind.views.console.ConsoleView-usantatecla.mastermind.views.console.ProposalView" style="stroke: #A80036; stroke-width: 1.0;"/><polygon fill="#A80036" points="650.557,293.722,657.4548,286.6921,652.3076,289.0385,649.9612,283.8912,650.557,293.722" style="stroke: #A80036; stroke-width: 1.0;"/><line style="stroke: #A80036; stroke-width: 1.0;" x1="652.3076" x2="655.108" y1="289.0385" y2="281.544"/><polygon fill="#A80036" points="672.869,234.018,667.0215,238.2378,668.6677,245.2585,674.5152,241.0387,672.869,234.018" style="stroke: #A80036; stroke-width: 1.0;"/><!--MD5=[20a2805fbab39aefb16f40efe1c74efb]
link usantatecla.mastermind.views.console.ConsoleView to usantatecla.mastermind.views.console.ResumeView--><path codeLine="25" d="M782.6602,213.9847 C782.6602,213.9847 989.94,278.396 1071.25,303.663 " fill="none" id="usantatecla.mastermind.views.console.ConsoleView-usantatecla.mastermind.views.console.ResumeView" style="stroke: #A80036; stroke-width: 1.0;"/><polygon fill="#A80036" points="1083.68,307.527,1076.2721,301.0367,1078.9052,306.0434,1073.8985,308.6765,1083.68,307.527" style="stroke: #A80036; stroke-width: 1.0;"/><line style="stroke: #A80036; stroke-width: 1.0;" x1="1078.9052" x2="1071.27" y1="306.0434" y2="303.669"/><polygon fill="#A80036" points="771.201,210.423,775.7434,216.0236,782.6602,213.9847,778.1179,208.3841,771.201,210.423" style="stroke: #A80036; stroke-width: 1.0;"/><!--MD5=[728af189909f61b53ae219602ed1957d]
link usantatecla.mastermind.views.console.ConsoleView to Game--><path codeLine="26" d="M610.717,232.155 C536.735,277.186 426.019,349.874 342,428 C291.732,474.742 243.658,538.488 215.489,578.436 " fill="none" id="usantatecla.mastermind.views.console.ConsoleView-to-Game" style="stroke: #A80036; stroke-width: 1.0;"/><polygon fill="#A80036" points="212.49,582.706,220.9355,577.639,215.3633,578.614,214.3883,573.0418,212.49,582.706" style="stroke: #A80036; stroke-width: 1.0;"/><!--MD5=[47ff448c33547e6e7517814cd7a391dd]
link usantatecla.mastermind.views.console.ResumeView to Game--><path codeLine="32" d="M1072.2483,350.8367 C1072.2483,350.8367 566.721,472.253 284,574 C280.452,575.277 276.851,576.628 273.229,578.033 " fill="none" id="usantatecla.mastermind.views.console.ResumeView-Game" style="stroke: #A80036; stroke-width: 1.0;"/><polygon fill="#A80036" points="260.883,582.988,270.7253,583.3483,265.5233,581.1258,267.7458,575.9239,260.883,582.988" style="stroke: #A80036; stroke-width: 1.0;"/><line style="stroke: #A80036; stroke-width: 1.0;" x1="265.5233" x2="272.9485" y1="581.1258" y2="578.1465"/><polygon fill="#A80036" points="1083.94,348.134,1077.1932,345.5881,1072.2483,350.8367,1078.9951,353.3826,1083.94,348.134" style="stroke: #A80036; stroke-width: 1.0;"/><!--MD5=[a725383cd7ccf4a5610b2a96a21a031d]
link usantatecla.mastermind.views.console.ResumeView to Message--><path codeLine="33" d="M1228.02,345.014 C1376.61,373.508 1725.85,449.036 1996,574 C2089.97,617.47 2188.02,688.697 2243.5,731.832 " fill="none" id="usantatecla.mastermind.views.console.ResumeView-to-Message" style="stroke: #A80036; stroke-width: 1.0; stroke-dasharray: 7.0,7.0;"/><polygon fill="#A80036" points="2247.75,735.146,2243.1081,726.4596,2243.8055,732.0733,2238.1919,732.7708,2247.75,735.146" style="stroke: #A80036; stroke-width: 1.0;"/><!--MD5=[11a6206d39bd673b590966d1322f3f4d]
link usantatecla.mastermind.views.console.ResumeView to YesNoDialog--><path codeLine="34" d="M1228.25,331 C1271.79,331 1315.34,331 1358.88,331 " fill="none" id="usantatecla.mastermind.views.console.ResumeView-to-YesNoDialog" style="stroke: #A80036; stroke-width: 1.0; stroke-dasharray: 7.0,7.0;"/><polygon fill="#A80036" points="1363.91,331,1354.91,327,1358.91,331,1354.91,335,1363.91,331" style="stroke: #A80036; stroke-width: 1.0;"/><!--MD5=[41b00bef7f8876bf10aff963cfd73488]
link usantatecla.mastermind.views.console.StartView to Console--><path codeLine="39" d="M1232.74,472.764 C1445.6,477.454 2352.03,509.695 2511,720 C2586.58,819.982 2594.93,908.921 2511,1002 C2471.63,1045.6612 2078.57,1063.406 1915.42,1068.9291 " fill="none" id="usantatecla.mastermind.views.console.StartView-to-Console" style="stroke: #A80036; stroke-width: 1.0; stroke-dasharray: 7.0,7.0;"/><polygon fill="#A80036" points="1910.18,1069.1047,1919.3118,1072.7938,1915.1771,1068.9333,1919.0376,1064.7985,1910.18,1069.1047" style="stroke: #A80036; stroke-width: 1.0;"/><!--MD5=[cb2142cad003aa30be20e00fecfd0a1b]
link usantatecla.mastermind.views.console.StartView to Message--><path codeLine="40" d="M1232.67,474.746 C1342.09,482.327 1631.45,507.568 1863,574 C1998.24,612.801 2145.3,688.023 2226.41,732.694 " fill="none" id="usantatecla.mastermind.views.console.StartView-to-Message" style="stroke: #A80036; stroke-width: 1.0; stroke-dasharray: 7.0,7.0;"/><polygon fill="#A80036" points="2231.17,735.327,2225.2212,727.4777,2226.7918,732.9121,2221.3574,734.4828,2231.17,735.327" style="stroke: #A80036; stroke-width: 1.0;"/><!--MD5=[80869c372aff1267a2951704c8fbb83c]
link usantatecla.mastermind.views.console.StartView to usantatecla.mastermind.views.console.SecretCombinationView--><path codeLine="41" d="M1143.37,495.457 C1101.12,517.659 1036.94,551.389 987.203,577.529 " fill="none" id="usantatecla.mastermind.views.console.StartView-to-usantatecla.mastermind.views.console.SecretCombinationView" style="stroke: #A80036; stroke-width: 1.0; stroke-dasharray: 7.0,7.0;"/><polygon fill="#A80036" points="982.74,579.874,992.5677,579.2282,987.1661,577.5481,988.8462,572.1465,982.74,579.874" style="stroke: #A80036; stroke-width: 1.0;"/><!--MD5=[e3d015a1c44b67496422d5c3bd563e27]
link usantatecla.mastermind.views.console.GameView to Game--><path codeLine="48" d="M855.3791,479.1301 C855.3791,479.1301 480.253,516.577 284,574 C279.621,575.281 275.182,576.724 270.736,578.285 " fill="none" id="usantatecla.mastermind.views.console.GameView-Game" style="stroke: #A80036; stroke-width: 1.0;"/><polygon fill="#A80036" points="258.24,582.954,268.0707,583.5512,262.9238,581.2041,265.2709,576.0572,258.24,582.954" style="stroke: #A80036; stroke-width: 1.0;"/><line style="stroke: #A80036; stroke-width: 1.0;" x1="262.9238" x2="270.4175" y1="581.2041" y2="578.4035"/><polygon fill="#A80036" points="867.341,478.174,861.0414,474.6647,855.3791,479.1301,861.6788,482.6393,867.341,478.174" style="stroke: #A80036; stroke-width: 1.0;"/><!--MD5=[6fd1f03f81fb53601a513d86ffa35878]
link usantatecla.mastermind.views.console.GameView to usantatecla.mastermind.views.console.SecretCombinationView--><path codeLine="49" d="M944.8287,525.3981 C944.8287,525.3981 935.104,553.981 930.681,566.978 " fill="none" id="usantatecla.mastermind.views.console.GameView-usantatecla.mastermind.views.console.SecretCombinationView" style="stroke: #A80036; stroke-width: 1.0;"/><polygon fill="#A80036" points="926.41,579.53,933.0956,572.298,928.0204,574.7965,925.522,569.7213,926.41,579.53" style="stroke: #A80036; stroke-width: 1.0;"/><line style="stroke: #A80036; stroke-width: 1.0;" x1="928.0204" x2="930.5975" y1="574.7965" y2="567.2235"/><polygon fill="#A80036" points="948.695,514.038,942.9752,518.4293,944.8287,525.3981,950.5486,521.0068,948.695,514.038" style="stroke: #A80036; stroke-width: 1.0;"/><!--MD5=[b90bd2c032648a28e3be92ea37f03571]
link usantatecla.mastermind.views.console.GameView to usantatecla.mastermind.views.console.AttemptsView--><path codeLine="50" d="M1003.286,514.038 C1021.93,533.494 1043.98,556.504 1062.41,575.736 " fill="none" id="usantatecla.mastermind.views.console.GameView-to-usantatecla.mastermind.views.console.AttemptsView" style="stroke: #A80036; stroke-width: 1.0; stroke-dasharray: 7.0,7.0;"/><polygon fill="#A80036" points="1066.05,579.53,1062.6993,570.2686,1062.586,575.9244,1056.9303,575.811,1066.05,579.53" style="stroke: #A80036; stroke-width: 1.0;"/><!--MD5=[455f14397b920a49ef35d70d7c28902f]
link usantatecla.mastermind.views.console.GameView to usantatecla.mastermind.views.console.ResultView--><path codeLine="51" d="M1054.9,514.115 C1094.17,532.289 1140.45,553.942 1182,574 C1186.21,576.03 1190.52,578.132 1194.87,580.263 " fill="none" id="usantatecla.mastermind.views.console.GameView-to-usantatecla.mastermind.views.console.ResultView" style="stroke: #A80036; stroke-width: 1.0; stroke-dasharray: 7.0,7.0;"/><polygon fill="#A80036" points="1199.6,582.586,1193.2799,575.0324,1195.1106,580.3849,1189.7581,582.2155,1199.6,582.586" style="stroke: #A80036; stroke-width: 1.0;"/><!--MD5=[91ef064aa58798763c5d6beac2e16e0b]
link usantatecla.mastermind.views.console.GameView to usantatecla.mastermind.views.console.ProposedCombinationView--><path codeLine="52" d="M867.831,514.038 C826.753,532.183 778.679,553.418 737.069,571.798 " fill="none" id="usantatecla.mastermind.views.console.GameView-to-usantatecla.mastermind.views.console.ProposedCombinationView" style="stroke: #A80036; stroke-width: 1.0; stroke-dasharray: 7.0,7.0;"/><polygon fill="#A80036" points="732.287,573.91,742.1358,573.9323,736.8606,571.8897,738.9033,566.6145,732.287,573.91" style="stroke: #A80036; stroke-width: 1.0;"/><!--MD5=[f178d11a365fac98d5118f34f32492a3]
link usantatecla.mastermind.views.console.GameView to Message--><path codeLine="53" d="M1058.86,497.767 C1080.86,503.382 1104.19,509.103 1126,514 C1600.23,620.467 1742.48,555.977 2200,720 C2210.06,723.605 2220.35,728.227 2230.2,733.181 " fill="none" id="usantatecla.mastermind.views.console.GameView-to-Message" style="stroke: #A80036; stroke-width: 1.0; stroke-dasharray: 7.0,7.0;"/><polygon fill="#A80036" points="2234.69,735.479,2228.4914,727.8254,2230.2363,733.2064,2224.8553,734.9513,2234.69,735.479" style="stroke: #A80036; stroke-width: 1.0;"/><!--MD5=[bf5762cbc2c7de23763d98d5f8e47dc6]
link usantatecla.mastermind.views.console.GameView to Console--><path codeLine="54" d="M1058.55,499.324 C1080.56,504.863 1103.98,510.159 1126,514 C1413.06,564.07 2238.81,492.581 2421,720 C2521.44,845.375 2267.09,999.154 2262,1002 C2203.81,1034.5254 2018.19,1055.6377 1915.31,1065.1545 " fill="none" id="usantatecla.mastermind.views.console.GameView-to-Console" style="stroke: #A80036; stroke-width: 1.0; stroke-dasharray: 7.0,7.0;"/><polygon fill="#A80036" points="1910.17,1065.6266,1919.498,1068.787,1915.1491,1065.1695,1918.7666,1060.8205,1910.17,1065.6266" style="stroke: #A80036; stroke-width: 1.0;"/><!--MD5=[4ed3a01c0bedc0f05b4c3e02e3f468aa]
link usantatecla.mastermind.views.console.ProposalView to Game--><path codeLine="61" d="M564.7414,374.1746 C564.7414,374.1746 504.482,410.159 476,428 C397.043,477.458 307.516,536.858 249.987,575.467 " fill="none" id="usantatecla.mastermind.views.console.ProposalView-Game" style="stroke: #A80036; stroke-width: 1.0;"/><polygon fill="#A80036" points="238.92,582.903,248.621,581.2028,243.0699,580.114,244.1587,574.563,238.92,582.903" style="stroke: #A80036; stroke-width: 1.0;"/><line style="stroke: #A80036; stroke-width: 1.0;" x1="243.0699" x2="249.711" y1="580.114" y2="575.6525"/><polygon fill="#A80036" points="575.072,368.069,567.8715,367.6782,564.7414,374.1746,571.9419,374.5653,575.072,368.069" style="stroke: #A80036; stroke-width: 1.0;"/><!--MD5=[34f45d8eb391e863c64e9d61cdbd6cb3]
link usantatecla.mastermind.views.console.ProposalView to usantatecla.mastermind.views.console.GameView--><path codeLine="62" d="M720.4008,367.3045 C720.4008,367.3045 811.693,405.95 855.228,424.379 " fill="none" id="usantatecla.mastermind.views.console.ProposalView-usantatecla.mastermind.views.console.GameView" style="stroke: #A80036; stroke-width: 1.0;"/><polygon fill="#A80036" points="867.337,429.505,860.608,422.3133,862.7325,427.556,857.4897,429.6805,867.337,429.505" style="stroke: #A80036; stroke-width: 1.0;"/><line style="stroke: #A80036; stroke-width: 1.0;" x1="862.7325" x2="855.3655" y1="427.556" y2="424.437"/><polygon fill="#A80036" points="709.35,362.627,713.3163,368.6494,720.4008,367.3045,716.4346,361.2821,709.35,362.627" style="stroke: #A80036; stroke-width: 1.0;"/><!--MD5=[3ac6d291c32b414ae68fbcf93e6e99de]
link usantatecla.mastermind.views.console.ProposalView to ProposedCombination--><path codeLine="63" d="M564.935,338.662 C441.646,354.474 193.983,406.561 95,574 C66.6674,621.927 72.3267,688.752 79.9546,730.282 " fill="none" id="usantatecla.mastermind.views.console.ProposalView-to-ProposedCombination" style="stroke: #A80036; stroke-width: 1.0; stroke-dasharray: 7.0,7.0;"/><polygon fill="#A80036" points="80.8925,735.218,83.1404,725.6291,79.9583,730.3061,75.2813,727.1239,80.8925,735.218" style="stroke: #A80036; stroke-width: 1.0;"/><!--MD5=[7af6c83f995de445f81a1f725c5d2bc8]
link usantatecla.mastermind.views.console.ProposalView to usantatecla.mastermind.views.console.ProposedCombinationView--><path codeLine="64" d="M637,368.257 C637,419.352 637,512.586 637,568.96 " fill="none" id="usantatecla.mastermind.views.console.ProposalView-to-usantatecla.mastermind.views.console.ProposedCombinationView" style="stroke: #A80036; stroke-width: 1.0; stroke-dasharray: 7.0,7.0;"/><polygon fill="#A80036" points="637,573.961,641,564.961,637,568.961,633,564.961,637,573.961" style="stroke: #A80036; stroke-width: 1.0;"/><!--MD5=[e409462199b294426953c37a78cc680a]
link usantatecla.mastermind.views.console.ProposedCombinationView to ProposedCombination--><path codeLine="72" d="M471.1674,658.7657 C471.1674,658.7657 238.403,716.275 226,720 C212.169,724.154 197.675,728.874 183.505,733.701 " fill="none" id="usantatecla.mastermind.views.console.ProposedCombinationView-ProposedCombination" style="stroke: #A80036; stroke-width: 1.0;"/><polygon fill="#A80036" points="171.162,737.958,180.9744,738.8051,175.8888,736.3278,178.3661,731.2423,171.162,737.958" style="stroke: #A80036; stroke-width: 1.0;"/><line style="stroke: #A80036; stroke-width: 1.0;" x1="175.8888" x2="183.4515" y1="736.3278" y2="733.7195"/><polygon fill="#A80036" points="482.819,655.895,476.0363,653.4465,471.1674,658.7657,477.9501,661.2142,482.819,655.895" style="stroke: #A80036; stroke-width: 1.0;"/><!--MD5=[74f4a28ffe48b2ac6ea7a01daa8a2156]
link usantatecla.mastermind.views.console.ProposedCombinationView to usantatecla.mastermind.views.console.ErrorView--><path codeLine="73" d="M656.685,660.323 C664.626,677.395 673.876,697.283 682.264,715.317 " fill="none" id="usantatecla.mastermind.views.console.ProposedCombinationView-to-usantatecla.mastermind.views.console.ErrorView" style="stroke: #A80036; stroke-width: 1.0; stroke-dasharray: 7.0,7.0;"/><polygon fill="#A80036" points="684.376,719.859,684.2068,710.0116,682.2671,715.3255,676.9532,713.3858,684.376,719.859" style="stroke: #A80036; stroke-width: 1.0;"/><!--MD5=[44214b583fdef523f9f88d3b7a8d70b5]
link usantatecla.mastermind.views.console.ProposedCombinationView to usantatecla.mastermind.views.console.ColorView--><path codeLine="74" d="M628.765,660.06 C625.382,678.412 621.647,700.216 619,720 C612.04,772.027 606.866,831.738 603.689,873.709 " fill="none" id="usantatecla.mastermind.views.console.ProposedCombinationView-to-usantatecla.mastermind.views.console.ColorView" style="stroke: #A80036; stroke-width: 1.0; stroke-dasharray: 7.0,7.0;"/><polygon fill="#A80036" points="603.311,878.737,607.976,870.063,603.6867,873.7511,599.9986,869.4619,603.311,878.737" style="stroke: #A80036; stroke-width: 1.0;"/><!--MD5=[a0933519c1a055e22b8e4f80fd0a030c]
link usantatecla.mastermind.views.console.ProposedCombinationView to Color--><path codeLine="75" d="M482.891,658.484 C392.013,683.092 293.463,711.385 287,720 C216.221,814.351 279.91,964.013 316.468,1033.3954 " fill="none" id="usantatecla.mastermind.views.console.ProposedCombinationView-to-Color" style="stroke: #A80036; stroke-width: 1.0; stroke-dasharray: 7.0,7.0;"/><polygon fill="#A80036" points="318.835,1037.848,318.1417,1028.0236,316.4877,1033.4332,311.0781,1031.7792,318.835,1037.848" style="stroke: #A80036; stroke-width: 1.0;"/><!--MD5=[4ac103d23bb388794cbd982b238c64ed]
link usantatecla.mastermind.views.console.ProposedCombinationView to Error--><path codeLine="76" d="M791.009,656.848 C797.07,657.982 803.083,659.04 809,660 C889.115,673 1482.02,660.298 1537,720 C1580.5,767.238 1539.26,844.287 1507.28,890.02 " fill="none" id="usantatecla.mastermind.views.console.ProposedCombinationView-to-Error" style="stroke: #A80036; stroke-width: 1.0; stroke-dasharray: 7.0,7.0;"/><polygon fill="#A80036" points="1504.22,894.346,1512.6818,889.3063,1507.1064,890.2633,1506.1494,884.688,1504.22,894.346" style="stroke: #A80036; stroke-width: 1.0;"/><!--MD5=[ca9aa713c5001ec9921e8688523ab136]
link usantatecla.mastermind.views.console.ProposedCombinationView to Combination--><path codeLine="77" d="M791.046,656.631 C797.097,657.826 803.098,658.955 809,660 C1046.35,702.009 1117.28,650.245 1348,720 C1359.15,723.371 1370.55,728.05 1381.38,733.181 " fill="none" id="usantatecla.mastermind.views.console.ProposedCombinationView-to-Combination" style="stroke: #A80036; stroke-width: 1.0; stroke-dasharray: 7.0,7.0;"/><polygon fill="#A80036" points="1385.99,735.405,1379.6208,727.8928,1381.4863,733.2332,1376.1459,735.0987,1385.99,735.405" style="stroke: #A80036; stroke-width: 1.0;"/><!--MD5=[58593a47527012b78667630e5c48f8ef]
link usantatecla.mastermind.views.console.ProposedCombinationView to Message--><path codeLine="78" d="M791.431,657.225 C797.347,658.246 803.218,659.177 809,660 C1115.31,703.574 1901.9,637.166 2200,720 C2211.13,723.092 2222.4,727.785 2233.01,733.057 " fill="none" id="usantatecla.mastermind.views.console.ProposedCombinationView-to-Message" style="stroke: #A80036; stroke-width: 1.0; stroke-dasharray: 7.0,7.0;"/><polygon fill="#A80036" points="2237.51,735.348,2231.3074,727.6976,2233.0551,733.0777,2227.675,734.8254,2237.51,735.348" style="stroke: #A80036; stroke-width: 1.0;"/><!--MD5=[bb135094d23d21d3527ec7eab1716e09]
link usantatecla.mastermind.views.console.ProposedCombinationView to Console--><path codeLine="79" d="M791.005,656.877 C797.067,658.004 803.082,659.051 809,660 C977.154,686.953 1425.7,634.539 1573,720 C1638.58,758.045 1714.53,945.427 1765,1002 C1777.61,1016.1369 1793.07,1030.0986 1807.02,1041.7251 " fill="none" id="usantatecla.mastermind.views.console.ProposedCombinationView-to-Console" style="stroke: #A80036; stroke-width: 1.0; stroke-dasharray: 7.0,7.0;"/><polygon fill="#A80036" points="1810.92,1044.9407,1806.5306,1036.1241,1807.0658,1041.7555,1801.4343,1042.2908,1810.92,1044.9407" style="stroke: #A80036; stroke-width: 1.0;"/><!--MD5=[b39850bc25b214859b2028d226a19296]
link usantatecla.mastermind.views.console.SecretCombinationView to SecretCombination--><path codeLine="85" d="M997.822,654.053 C1004.905,656.324 1012.03,658.354 1019,660 C1332.39,733.943 1429.8,637.334 1741,720 C1753.49,723.319 1766.34,728.071 1778.55,733.317 " fill="none" id="usantatecla.mastermind.views.console.SecretCombinationView-to-SecretCombination" style="stroke: #A80036; stroke-width: 1.0; stroke-dasharray: 7.0,7.0;"/><polygon fill="#A80036" points="1783.37,735.43,1776.7229,728.1626,1778.7878,733.4291,1773.5214,735.494,1783.37,735.43" style="stroke: #A80036; stroke-width: 1.0;"/><!--MD5=[1e0a09d0f9d89e3147254c7ba510437f]
link usantatecla.mastermind.views.console.SecretCombinationView to Message--><path codeLine="86" d="M996.892,654.026 C1004.274,656.356 1011.71,658.404 1019,660 C1532.39,772.453 1694.16,577.357 2200,720 C2211.11,723.134 2222.38,727.849 2232.99,733.127 " fill="none" id="usantatecla.mastermind.views.console.SecretCombinationView-to-Message" style="stroke: #A80036; stroke-width: 1.0; stroke-dasharray: 7.0,7.0;"/><polygon fill="#A80036" points="2237.49,735.421,2231.2884,727.7698,2233.0354,733.1502,2227.6551,734.8971,2237.49,735.421" style="stroke: #A80036; stroke-width: 1.0;"/><!--MD5=[c65e49329e258f4189c1811921b7eeec]
link usantatecla.mastermind.views.console.SecretCombinationView to Console--><path codeLine="87" d="M998.13,654.077 C1005.113,656.327 1012.13,658.346 1019,660 C1160.25,693.998 1550.1,637.957 1670,720 C1727.74,759.508 1805.54,961.743 1833.99,1040.0117 " fill="none" id="usantatecla.mastermind.views.console.SecretCombinationView-to-Console" style="stroke: #A80036; stroke-width: 1.0; stroke-dasharray: 7.0,7.0;"/><polygon fill="#A80036" points="1835.79,1044.9848,1836.4837,1035.1604,1834.0862,1040.2841,1828.9625,1037.8865,1835.79,1044.9848" style="stroke: #A80036; stroke-width: 1.0;"/><!--MD5=[5dcdd9aacd642e274017f9e4c83e7de4]
link usantatecla.mastermind.views.console.ResultView to Result--><path codeLine="93" d="M1344.004,621.2028 C1344.004,621.2028 1768.88,651.458 2001,720 C2010.43,722.785 2020.09,726.3 2029.55,730.159 " fill="none" id="usantatecla.mastermind.views.console.ResultView-Result" style="stroke: #A80036; stroke-width: 1.0;"/><polygon fill="#A80036" points="2041.82,735.398,2035.1185,728.1807,2037.2229,733.4315,2031.9721,735.536,2041.82,735.398" style="stroke: #A80036; stroke-width: 1.0;"/><line style="stroke: #A80036; stroke-width: 1.0;" x1="2037.2229" x2="2029.86" y1="733.4315" y2="730.2925"/><polygon fill="#A80036" points="1332.02,620.583,1337.8054,624.8875,1344.004,621.2028,1338.2186,616.8982,1332.02,620.583" style="stroke: #A80036; stroke-width: 1.0;"/><!--MD5=[cad2abc1d50cb4b224a40fb44d276e41]
link usantatecla.mastermind.views.console.ResultView to Message--><path codeLine="94" d="M1332.33,623.742 C1531.81,641.22 2117.56,694.148 2200,720 C2210.63,723.333 2221.44,727.983 2231.7,733.096 " fill="none" id="usantatecla.mastermind.views.console.ResultView-to-Message" style="stroke: #A80036; stroke-width: 1.0; stroke-dasharray: 7.0,7.0;"/><polygon fill="#A80036" points="2236.37,735.474,2230.1684,727.8228,2231.9154,733.2032,2226.5351,734.9501,2236.37,735.474" style="stroke: #A80036; stroke-width: 1.0;"/><!--MD5=[fa2803cdc31af4e95d3ca8372e54d78c]
link usantatecla.mastermind.views.console.ResultView to Console--><path codeLine="95" d="M1332.26,618.995 C1561.12,623.108 2308.21,642.422 2379,720 C2533.29,889.077 2092.04,1013.608 1914.96,1055.5757 " fill="none" id="usantatecla.mastermind.views.console.ResultView-to-Console" style="stroke: #A80036; stroke-width: 1.0; stroke-dasharray: 7.0,7.0;"/><polygon fill="#A80036" points="1910.06,1056.7329,1919.7412,1058.5424,1914.9244,1055.5762,1917.8906,1050.7594,1910.06,1056.7329" style="stroke: #A80036; stroke-width: 1.0;"/><!--MD5=[738f77d4bd907962f647ef647715b407]
link usantatecla.mastermind.views.console.AttemptsView to Console--><path codeLine="101" d="M1165.04,654.082 C1170.67,656.364 1176.37,658.388 1182,660 C1263.23,683.24 1882.67,657.947 1940,720 C2025.31,812.331 1920.43,973.393 1869.61,1040.3981 " fill="none" id="usantatecla.mastermind.views.console.AttemptsView-to-Console" style="stroke: #A80036; stroke-width: 1.0; stroke-dasharray: 7.0,7.0;"/><polygon fill="#A80036" points="1866.35,1044.6739,1874.9931,1039.952,1869.3861,1040.7012,1868.6368,1035.0942,1866.35,1044.6739" style="stroke: #A80036; stroke-width: 1.0;"/><!--MD5=[d70cfd223097805628f7b93885746474]
link usantatecla.mastermind.views.console.AttemptsView to Message--><path codeLine="102" d="M1164.55,654.023 C1170.33,656.354 1176.2,658.402 1182,660 C1618.98,780.284 1764.29,595.221 2200,720 C2211.1,723.179 2222.36,727.916 2232.97,733.202 " fill="none" id="usantatecla.mastermind.views.console.AttemptsView-to-Message" style="stroke: #A80036; stroke-width: 1.0; stroke-dasharray: 7.0,7.0;"/><polygon fill="#A80036" points="2237.47,735.498,2231.2694,727.846,2233.0157,733.2266,2227.6352,734.9729,2237.47,735.498" style="stroke: #A80036; stroke-width: 1.0;"/><!--MD5=[4e2709992aeba74cd8a18434f41dce90]
reverse link ColorView to usantatecla.mastermind.views.console.ColorView--><path codeLine="110" d="M441.164,815.17 C469.324,835.085 502.563,858.592 531.337,878.941 " fill="none" id="ColorView-backto-usantatecla.mastermind.views.console.ColorView" style="stroke: #A80036; stroke-width: 1.0;"/><polygon fill="none" points="437.097,820.867,424.809,803.604,445.18,809.437,437.097,820.867" style="stroke: #A80036; stroke-width: 1.0;"/><!--MD5=[2aef66e15b01ad184c4ce0d2e2e7310c]
link usantatecla.mastermind.views.console.ColorView to ColorCode--><path codeLine="111" d="M600,978.196 C600,998.482 600,1021.455 600,1039.4692 " fill="none" id="usantatecla.mastermind.views.console.ColorView-to-ColorCode" style="stroke: #A80036; stroke-width: 1.0; stroke-dasharray: 7.0,7.0;"/><polygon fill="#A80036" points="600,1044.8921,604,1035.8921,600,1039.8921,596,1035.8921,600,1044.8921" style="stroke: #A80036; stroke-width: 1.0;"/><!--MD5=[a37bf943a63f3006ec72e7a59689964d]
link usantatecla.mastermind.views.console.ColorView to Console--><path codeLine="112" d="M680.008,945.683 C763.343,962.019 897.845,986.928 1015,1002 C1295.45,1038.0802 1631.76,1059.3013 1774.94,1067.3108 " fill="none" id="usantatecla.mastermind.views.console.ColorView-to-Console" style="stroke: #A80036; stroke-width: 1.0; stroke-dasharray: 7.0,7.0;"/><polygon fill="#A80036" points="1779.95,1067.5902,1771.1933,1063.0825,1774.9582,1067.3045,1770.7362,1071.0694,1779.95,1067.5902" style="stroke: #A80036; stroke-width: 1.0;"/><!--MD5=[69dc8072829cbbfdbc9d9a2751321cd9]
link usantatecla.mastermind.views.console.ColorView to Color--><path codeLine="113" d="M519.968,972.724 C482.81,992.791 439.172,1016.3597 403.944,1035.385 " fill="none" id="usantatecla.mastermind.views.console.ColorView-to-Color" style="stroke: #A80036; stroke-width: 1.0; stroke-dasharray: 7.0,7.0;"/><polygon fill="#A80036" points="399.252,1037.9194,409.0716,1037.1602,403.6509,1035.5425,405.2686,1030.1219,399.252,1037.9194" style="stroke: #A80036; stroke-width: 1.0;"/><!--MD5=[21f4368561ef8ab68eb0033a214ce281]
reverse link ErrorView to usantatecla.mastermind.views.console.ErrorView--><path codeLine="121" d="M465.798,659.454 C466.2,659.636 466.6,659.818 467,660 C523.932,685.864 588.523,715.056 636.346,736.641 " fill="none" id="ErrorView-backto-usantatecla.mastermind.views.console.ErrorView" style="stroke: #A80036; stroke-width: 1.0;"/><polygon fill="none" points="462.612,665.695,447.307,651.04,468.41,652.952,462.612,665.695" style="stroke: #A80036; stroke-width: 1.0;"/><!--MD5=[7451bd3d087460174f80dc13e9004d7a]
link usantatecla.mastermind.views.console.ErrorView to Error--><path codeLine="122" d="M777.651,778.021 C896.754,791.682 1144.43,824.328 1348,879 C1363.71,883.219 1380.17,888.585 1395.9,894.201 " fill="none" id="usantatecla.mastermind.views.console.ErrorView-to-Error" style="stroke: #A80036; stroke-width: 1.0; stroke-dasharray: 7.0,7.0;"/><polygon fill="#A80036" points="1400.76,895.951,1393.6552,889.1303,1396.0576,894.2517,1390.9363,896.6541,1400.76,895.951" style="stroke: #A80036; stroke-width: 1.0;"/><!--MD5=[b6f3fff8c22bf6afa8b0a8da791006e0]
link usantatecla.mastermind.views.console.ErrorView to Console--><path codeLine="123" d="M777.76,799.523 C899.43,848.335 1157.02,946.915 1383,1002 C1519.68,1035.3168 1683.26,1055.1639 1774.53,1064.498 " fill="none" id="usantatecla.mastermind.views.console.ErrorView-to-Console" style="stroke: #A80036; stroke-width: 1.0; stroke-dasharray: 7.0,7.0;"/><polygon fill="#A80036" points="1779.63,1065.0162,1771.0891,1060.1119,1774.6565,1064.502,1770.2664,1068.0695,1779.63,1065.0162" style="stroke: #A80036; stroke-width: 1.0;"/><!--MD5=[0144a89e07469074881e23a062c69e12]
link usantatecla.mastermind.views.console.ErrorView to usantatecla.mastermind.views.console.ColorView--><path codeLine="124" d="M673.731,819.315 C661.798,836.825 648.29,856.645 636.126,874.492 " fill="none" id="usantatecla.mastermind.views.console.ErrorView-to-usantatecla.mastermind.views.console.ColorView" style="stroke: #A80036; stroke-width: 1.0; stroke-dasharray: 7.0,7.0;"/><polygon fill="#A80036" points="633.064,878.985,641.4379,873.8007,635.8799,874.8533,634.8273,869.2953,633.064,878.985" style="stroke: #A80036; stroke-width: 1.0;"/><!--MD5=[f8e594c6a5e8e03759dca2b3cdcad6ae]
@startuml
class Game as "usantatecla.\nmastermind.models.\nGame"
class Error as "usantatecla.\nmastermind.models.\nError"
class Result as "usantatecla.\nmastermind.models.\nResult"
enum Color as "usantatecla.\nmastermind.models.\nColor"
abstract class Combination as "usantatecla.\nmastermind.models.\nCombination"
class ProposedCombination as "usantatecla.\nmastermind.models.\nProposedCombination"
class SecretCombination as "usantatecla.\nmastermind.models.\nSecretCombination"
abstract class View as "usantatecla.\nmastermind.views.\nView"
abstract class ColorView as "usantatecla.\nmastermind.views.\nColorView"
abstract class ErrorView as "usantatecla.\nmastermind.views.\nErrorView"
enum Message as "usantatecla.\nmastermind.views.\nMessage"
class Console as "usantatecla.utils.\nConsole"
class YesNoDialog as "usantatecla.utils.\nYesNoDialog"
enum ColorCode as "usantatecla.utils.\nColorCode"

class usantatecla.mastermind.views.console.ConsoleView {
    + ConsoleView(Game)
    # start()
    # propose() : boolean
    # isNewGame() : boolean
}
usantatecla.mastermind.views.console.ConsoleView -up-|> View
usantatecla.mastermind.views.console.ConsoleView *-down-> usantatecla.mastermind.views.console.StartView
usantatecla.mastermind.views.console.ConsoleView *-down-> usantatecla.mastermind.views.console.ProposalView
usantatecla.mastermind.views.console.ConsoleView *-down-> usantatecla.mastermind.views.console.ResumeView
usantatecla.mastermind.views.console.ConsoleView - -> Game

class usantatecla.mastermind.views.console.ResumeView {
    ~ ResumeView(Game)
    ~ interact() : boolean
}
usantatecla.mastermind.views.console.ResumeView *-down-> Game
usantatecla.mastermind.views.console.ResumeView ..> Message
usantatecla.mastermind.views.console.ResumeView .> YesNoDialog

class usantatecla.mastermind.views.console.StartView {
    ~ interact()
}
usantatecla.mastermind.views.console.StartView ..> Console
usantatecla.mastermind.views.console.StartView ..> Message
usantatecla.mastermind.views.console.StartView ..> usantatecla.mastermind.views.console.SecretCombinationView

class usantatecla.mastermind.views.console.GameView {
    ~ GameView(Game)
    ~ write()
    ~ isWinnerOrLooser() : boolean
}
usantatecla.mastermind.views.console.GameView *-down-> Game
usantatecla.mastermind.views.console.GameView *-down-> usantatecla.mastermind.views.console.SecretCombinationView
usantatecla.mastermind.views.console.GameView ..> usantatecla.mastermind.views.console.AttemptsView
usantatecla.mastermind.views.console.GameView ..> usantatecla.mastermind.views.console.ResultView
usantatecla.mastermind.views.console.GameView ..> usantatecla.mastermind.views.console.ProposedCombinationView
usantatecla.mastermind.views.console.GameView ..> Message
usantatecla.mastermind.views.console.GameView ..> Console

class usantatecla.mastermind.views.console.ProposalView {
    ~ ProposalView(Game)
    ~ interact() : boolean

}
usantatecla.mastermind.views.console.ProposalView *-down-> Game
usantatecla.mastermind.views.console.ProposalView *-down-> usantatecla.mastermind.views.console.GameView
usantatecla.mastermind.views.console.ProposalView ..> ProposedCombination
usantatecla.mastermind.views.console.ProposalView ..> usantatecla.mastermind.views.console.ProposedCombinationView


class usantatecla.mastermind.views.console.ProposedCombinationView {
    ~ ProposedCombinationView(ProposedCombination)
    ~ write()
    ~ read()
}
usantatecla.mastermind.views.console.ProposedCombinationView *-down-> ProposedCombination
usantatecla.mastermind.views.console.ProposedCombinationView ..> usantatecla.mastermind.views.console.ErrorView
usantatecla.mastermind.views.console.ProposedCombinationView ..> usantatecla.mastermind.views.console.ColorView
usantatecla.mastermind.views.console.ProposedCombinationView ..> Color
usantatecla.mastermind.views.console.ProposedCombinationView ..> Error
usantatecla.mastermind.views.console.ProposedCombinationView ..> Combination
usantatecla.mastermind.views.console.ProposedCombinationView ..> Message
usantatecla.mastermind.views.console.ProposedCombinationView ..> Console

class usantatecla.mastermind.views.console.SecretCombinationView {
    ~ SecretCombinationView()
    ~ writeln()
}
usantatecla.mastermind.views.console.SecretCombinationView ..> SecretCombination
usantatecla.mastermind.views.console.SecretCombinationView ..> Message
usantatecla.mastermind.views.console.SecretCombinationView ..> Console

class usantatecla.mastermind.views.console.ResultView {
    ~ ResultView(Result)
    ~ writeln()
}
usantatecla.mastermind.views.console.ResultView *-down-> Result
usantatecla.mastermind.views.console.ResultView ..> Message
usantatecla.mastermind.views.console.ResultView ..> Console

class usantatecla.mastermind.views.console.AttemptsView {
    ~ AttemptsView(int)
    ~ writeln()
}
usantatecla.mastermind.views.console.AttemptsView ..> Console
usantatecla.mastermind.views.console.AttemptsView ..> Message

class usantatecla.mastermind.views.console.ColorView {
    ~ ColorView()
    ~ ColorView(Color)
    # resultInitials(int) : String
    ~ write()
}
usantatecla.mastermind.views.console.ColorView -up-|> ColorView
usantatecla.mastermind.views.console.ColorView ..> ColorCode
usantatecla.mastermind.views.console.ColorView ..> Console
usantatecla.mastermind.views.console.ColorView ..> Color

class usantatecla.mastermind.views.console.ErrorView {
    ~ ErrorView()
    ~ ErrorView(Error)
    ~ writeln()
    # colorInitials() : String
}
usantatecla.mastermind.views.console.ErrorView -up-|> ErrorView
usantatecla.mastermind.views.console.ErrorView ..> Error
usantatecla.mastermind.views.console.ErrorView ..> Console
usantatecla.mastermind.views.console.ErrorView ..> usantatecla.mastermind.views.console.ColorView
@enduml

PlantUML version 1.2020.20beta10(Unknown compile time)
(GPL source distribution)
Java Runtime: Java(TM) SE Runtime Environment
JVM: Java HotSpot(TM) 64-Bit Server VM
Default Encoding: UTF-8
Language: en
Country: US
--></g></svg>