<?xml version="1.0" encoding="UTF-8" standalone="no"?><svg xmlns="http://www.w3.org/2000/svg" xmlns:xlink="http://www.w3.org/1999/xlink" contentScriptType="application/ecmascript" contentStyleType="text/css" height="601px" preserveAspectRatio="none" style="width:446px;height:601px;" version="1.1" viewBox="0 0 446 601" width="446px" zoomAndPan="magnify"><defs><filter height="300%" id="fncqsw42yfu6e" width="300%" x="-1" y="-1"><feGaussianBlur result="blurOut" stdDeviation="2.0"/><feColorMatrix in="blurOut" result="blurOut2" type="matrix" values="0 0 0 0 0 0 0 0 0 0 0 0 0 0 0 0 0 0 .4 0"/><feOffset dx="4.0" dy="4.0" in="blurOut2" result="blurOut3"/><feBlend in="SourceGraphic" in2="blurOut3" mode="normal"/></filter></defs><g><!--MD5=[0e5abdf9545445f4a8a6939755b1f58e]
cluster usantatecla.mastermind.utils--><polygon fill="#FFFFFF" filter="url(#fncqsw42yfu6e)" points="16,6,265,6,272,28.2969,429,28.2969,429,495,16,495,16,6" style="stroke: #000000; stroke-width: 1.5;"/><line style="stroke: #000000; stroke-width: 1.5;" x1="16" x2="272" y1="28.2969" y2="28.2969"/><text fill="#000000" font-family="sans-serif" font-size="14" font-weight="bold" lengthAdjust="spacingAndGlyphs" textLength="243" x="20" y="20.9951">usantatecla.mastermind.utils</text><!--MD5=[530acea1ac9f130767534435ec10fdbd]
class usantatecla.mastermind.utils.ColorCode--><rect codeLine="3" fill="#FEFECE" filter="url(#fncqsw42yfu6e)" height="188.8516" id="usantatecla.mastermind.utils.ColorCode" style="stroke: #A80036; stroke-width: 1.5;" width="183" x="226.5" y="41"/><ellipse cx="281.75" cy="57" fill="#EB937F" rx="11" ry="11" style="stroke: #A80036; stroke-width: 1.0;"/><path d="M280.5469,57.875 L282,57.875 L282,57.9844 C282,58.3906 282.0313,58.5469 282.1094,58.7031 C282.2656,58.9531 282.5469,59.1094 282.8438,59.1094 C283.0938,59.1094 283.3594,58.9688 283.5156,58.75 C283.6406,58.5938 283.6719,58.4375 283.6719,57.9844 L283.6719,56.0625 C283.6719,55.9063 283.6719,55.8594 283.6563,55.7031 C283.5938,55.2344 283.2813,54.9219 282.8281,54.9219 C282.5781,54.9219 282.3125,55.0625 282.1406,55.2813 C282.0313,55.4531 282,55.6094 282,56.0625 L282,56.1875 L280.5469,56.1875 L280.5469,53.7813 L284.5313,53.7813 L284.5313,54.6406 C284.5313,55.0469 284.5625,55.2188 284.6406,55.375 C284.8125,55.625 285.0938,55.7813 285.375,55.7813 C285.6406,55.7813 285.9063,55.6406 286.0781,55.4219 C286.1875,55.25 286.2188,55.1094 286.2188,54.6406 L286.2188,52.0938 L278.5938,52.0938 C278.1563,52.0938 278.0313,52.1094 277.875,52.2031 C277.625,52.3594 277.4688,52.6563 277.4688,52.9375 C277.4688,53.2188 277.6094,53.4688 277.8281,53.6406 C277.9844,53.75 278.1719,53.7813 278.5938,53.7813 L278.8438,53.7813 L278.8438,60.2969 L278.5938,60.2969 C278.1875,60.2969 278.0313,60.3125 277.875,60.4219 C277.625,60.5938 277.4688,60.8594 277.4688,61.1563 C277.4688,61.4219 277.6094,61.6719 277.8281,61.8281 C277.9688,61.9531 278.2031,62 278.5938,62 L286.5938,62 L286.5938,59.4219 C286.5938,58.9844 286.5625,58.8438 286.4844,58.6875 C286.3125,58.4375 286.0313,58.2813 285.75,58.2813 C285.4844,58.2813 285.2188,58.3906 285.0469,58.6406 C284.9375,58.7969 284.9063,58.9375 284.9063,59.4219 L284.9063,60.2969 L280.5469,60.2969 L280.5469,57.875 Z "/><text fill="#000000" font-family="sans-serif" font-size="12" lengthAdjust="spacingAndGlyphs" textLength="64" x="302.25" y="61.1543">ColorCode</text><line style="stroke: #A80036; stroke-width: 1.5;" x1="227.5" x2="408.5" y1="73" y2="73"/><ellipse cx="237.5" cy="84" fill="none" rx="3" ry="3" style="stroke: #038048; stroke-width: 1.0;"/><text fill="#000000" font-family="sans-serif" font-size="11" lengthAdjust="spacingAndGlyphs" textLength="23" x="246.5" y="87.2104">RED</text><ellipse cx="237.5" cy="96.8047" fill="none" rx="3" ry="3" style="stroke: #038048; stroke-width: 1.0;"/><text fill="#000000" font-family="sans-serif" font-size="11" lengthAdjust="spacingAndGlyphs" textLength="29" x="246.5" y="100.0151">BLUE</text><ellipse cx="237.5" cy="109.6094" fill="none" rx="3" ry="3" style="stroke: #038048; stroke-width: 1.0;"/><text fill="#000000" font-family="sans-serif" font-size="11" lengthAdjust="spacingAndGlyphs" textLength="46" x="246.5" y="112.8198">YELLOW</text><ellipse cx="237.5" cy="122.4141" fill="none" rx="3" ry="3" style="stroke: #038048; stroke-width: 1.0;"/><text fill="#000000" font-family="sans-serif" font-size="11" lengthAdjust="spacingAndGlyphs" textLength="38" x="246.5" y="125.6245">GREEN</text><ellipse cx="237.5" cy="135.2188" fill="none" rx="3" ry="3" style="stroke: #038048; stroke-width: 1.0;"/><text fill="#000000" font-family="sans-serif" font-size="11" lengthAdjust="spacingAndGlyphs" textLength="48" x="246.5" y="138.4292">ORANGE</text><ellipse cx="237.5" cy="148.0234" fill="none" rx="3" ry="3" style="stroke: #038048; stroke-width: 1.0;"/><text fill="#000000" font-family="sans-serif" font-size="11" lengthAdjust="spacingAndGlyphs" textLength="40" x="246.5" y="151.2339">PURPLE</text><ellipse cx="237.5" cy="160.8281" fill="none" rx="3" ry="3" style="stroke: #038048; stroke-width: 1.0;"/><text fill="#000000" font-family="sans-serif" font-size="11" lengthAdjust="spacingAndGlyphs" textLength="81" x="246.5" y="164.0386">RESET_COLOR</text><rect fill="none" height="6" style="stroke: #C82930; stroke-width: 1.0;" width="6" x="234.5" y="170.6328"/><text fill="#000000" font-family="sans-serif" font-size="11" lengthAdjust="spacingAndGlyphs" textLength="67" x="246.5" y="176.8433">color: String</text><line style="stroke: #A80036; stroke-width: 1.5;" x1="227.5" x2="408.5" y1="183.4375" y2="183.4375"/><polygon fill="#4177AF" points="237.5,190.4375,233.5,196.4375,241.5,196.4375" style="stroke: #1963A0; stroke-width: 1.0;"/><text fill="#000000" font-family="sans-serif" font-size="11" lengthAdjust="spacingAndGlyphs" textLength="100" x="246.5" y="197.6479">ColorCode(String)</text><ellipse cx="237.5" cy="207.2422" fill="#84BE84" rx="3" ry="3" style="stroke: #038048; stroke-width: 1.0;"/><text fill="#000000" font-family="sans-serif" font-size="11" lengthAdjust="spacingAndGlyphs" textLength="96" x="246.5" y="210.4526">getColor(): String</text><ellipse cx="237.5" cy="220.0469" fill="#84BE84" rx="3" ry="3" style="stroke: #038048; stroke-width: 1.0;"/><text fill="#000000" font-family="sans-serif" font-size="11" lengthAdjust="spacingAndGlyphs" text-decoration="underline" textLength="157" x="246.5" y="223.2573">getColorByIndex(int): String</text><!--MD5=[f4daba9297c20939f98f08826042052b]
class usantatecla.mastermind.utils.Console--><rect codeLine="17" fill="#FEFECE" filter="url(#fncqsw42yfu6e)" height="188.8516" id="usantatecla.mastermind.utils.Console" style="stroke: #A80036; stroke-width: 1.5;" width="166" x="32" y="290"/><ellipse cx="86.25" cy="306" fill="#ADD1B2" rx="11" ry="11" style="stroke: #A80036; stroke-width: 1.0;"/><path d="M88.5938,301.6719 C87.6563,301.2344 87.0625,301.0938 86.1875,301.0938 C83.5625,301.0938 81.5625,303.1719 81.5625,305.8906 L81.5625,307.0156 C81.5625,309.5938 83.6719,311.4844 86.5625,311.4844 C87.7813,311.4844 88.9375,311.1875 89.6875,310.6406 C90.2656,310.2344 90.5938,309.7813 90.5938,309.3906 C90.5938,308.9375 90.2031,308.5469 89.7344,308.5469 C89.5156,308.5469 89.3125,308.625 89.125,308.8125 C88.6719,309.2969 88.6719,309.2969 88.4844,309.3906 C88.0625,309.6563 87.375,309.7813 86.6094,309.7813 C84.5625,309.7813 83.2656,308.6875 83.2656,306.9844 L83.2656,305.8906 C83.2656,304.1094 84.5156,302.7969 86.25,302.7969 C86.8281,302.7969 87.4375,302.9531 87.9063,303.2031 C88.3906,303.4844 88.5625,303.7031 88.6563,304.1094 C88.7188,304.5156 88.75,304.6406 88.8906,304.7656 C89.0313,304.9063 89.2656,305.0156 89.4844,305.0156 C89.75,305.0156 90.0156,304.875 90.1875,304.6563 C90.2969,304.5 90.3281,304.3125 90.3281,303.8906 L90.3281,302.4688 C90.3281,302.0313 90.3125,301.9063 90.2188,301.75 C90.0625,301.4844 89.7813,301.3438 89.4844,301.3438 C89.1875,301.3438 88.9844,301.4375 88.7656,301.75 L88.5938,301.6719 Z "/><text fill="#000000" font-family="sans-serif" font-size="12" lengthAdjust="spacingAndGlyphs" textLength="49" x="106.75" y="310.1543">Console</text><line style="stroke: #A80036; stroke-width: 1.5;" x1="33" x2="197" y1="322" y2="322"/><ellipse cx="43" cy="333" fill="none" rx="3" ry="3" style="stroke: #038048; stroke-width: 1.0;"/><text fill="#000000" font-family="sans-serif" font-size="11" lengthAdjust="spacingAndGlyphs" text-decoration="underline" textLength="97" x="52" y="336.2104">console: Console</text><line style="stroke: #A80036; stroke-width: 1.5;" x1="33" x2="197" y1="342.8047" y2="342.8047"/><ellipse cx="43" cy="353.8047" fill="#84BE84" rx="3" ry="3" style="stroke: #038048; stroke-width: 1.0;"/><text fill="#000000" font-family="sans-serif" font-size="11" lengthAdjust="spacingAndGlyphs" text-decoration="underline" textLength="128" x="52" y="357.0151">getInstance(): Console</text><ellipse cx="43" cy="366.6094" fill="#84BE84" rx="3" ry="3" style="stroke: #038048; stroke-width: 1.0;"/><text fill="#000000" font-family="sans-serif" font-size="11" lengthAdjust="spacingAndGlyphs" textLength="140" x="52" y="369.8198">readString(String): String</text><ellipse cx="43" cy="379.4141" fill="#84BE84" rx="3" ry="3" style="stroke: #038048; stroke-width: 1.0;"/><text fill="#000000" font-family="sans-serif" font-size="11" lengthAdjust="spacingAndGlyphs" textLength="107" x="52" y="382.6245">readString(): String</text><ellipse cx="43" cy="392.2188" fill="#84BE84" rx="3" ry="3" style="stroke: #038048; stroke-width: 1.0;"/><text fill="#000000" font-family="sans-serif" font-size="11" lengthAdjust="spacingAndGlyphs" textLength="102" x="52" y="395.4292">readInt(String): int</text><ellipse cx="43" cy="405.0234" fill="#84BE84" rx="3" ry="3" style="stroke: #038048; stroke-width: 1.0;"/><text fill="#000000" font-family="sans-serif" font-size="11" lengthAdjust="spacingAndGlyphs" textLength="124" x="52" y="408.2339">readChar(String): char</text><ellipse cx="43" cy="417.8281" fill="#84BE84" rx="3" ry="3" style="stroke: #038048; stroke-width: 1.0;"/><text fill="#000000" font-family="sans-serif" font-size="11" lengthAdjust="spacingAndGlyphs" textLength="46" x="52" y="421.0386">writeln()</text><ellipse cx="43" cy="430.6328" fill="#84BE84" rx="3" ry="3" style="stroke: #038048; stroke-width: 1.0;"/><text fill="#000000" font-family="sans-serif" font-size="11" lengthAdjust="spacingAndGlyphs" textLength="69" x="52" y="433.8433">write(String)</text><ellipse cx="43" cy="443.4375" fill="#84BE84" rx="3" ry="3" style="stroke: #038048; stroke-width: 1.0;"/><text fill="#000000" font-family="sans-serif" font-size="11" lengthAdjust="spacingAndGlyphs" textLength="79" x="52" y="446.6479">writeln(String)</text><ellipse cx="43" cy="456.2422" fill="#84BE84" rx="3" ry="3" style="stroke: #038048; stroke-width: 1.0;"/><text fill="#000000" font-family="sans-serif" font-size="11" lengthAdjust="spacingAndGlyphs" textLength="60" x="52" y="459.4526">write(char)</text><rect fill="#F24D5C" height="6" style="stroke: #C82930; stroke-width: 1.0;" width="6" x="40" y="466.0469"/><text fill="#000000" font-family="sans-serif" font-size="11" lengthAdjust="spacingAndGlyphs" textLength="95" x="52" y="472.2573">writeError(String)</text><!--MD5=[a2a33eaf909445742622e4351ac6e17c]
class usantatecla.mastermind.utils.WithConsoleView--><rect codeLine="32" fill="#FEFECE" filter="url(#fncqsw42yfu6e)" height="60.8047" id="usantatecla.mastermind.utils.WithConsoleView" style="stroke: #A80036; stroke-width: 1.5;" width="134" x="51" y="105"/><ellipse cx="66" cy="121" fill="#A9DCDF" rx="11" ry="11" style="stroke: #A80036; stroke-width: 1.0;"/><path d="M68.0781,122.8125 L68.4688,123.7969 L68.0781,123.7969 C67.625,123.7969 67.5156,123.8125 67.3594,123.9219 C67.1094,124.0781 66.9531,124.3594 66.9531,124.6563 C66.9531,124.9219 67.0938,125.1719 67.3125,125.3281 C67.4531,125.4531 67.6563,125.5 68.0781,125.5 L70.4375,125.5 C70.7969,125.5 71.0156,125.4688 71.1563,125.375 C71.4063,125.2344 71.5625,124.9375 71.5625,124.6563 C71.5625,124.375 71.4219,124.125 71.2031,123.9688 C71.0313,123.8281 70.875,123.7969 70.4063,123.7969 L67.0156,115.5938 L63.3438,115.5938 C62.8906,115.5938 62.7656,115.6094 62.6094,115.7031 C62.3594,115.875 62.2031,116.1563 62.2031,116.4375 C62.2031,116.7188 62.3438,116.9688 62.5625,117.1406 C62.7344,117.25 62.9063,117.2813 63.3438,117.2813 L64.4219,117.2813 L61.7813,123.7969 C61.3594,123.7969 61.2031,123.8125 61.0469,123.9219 C60.7969,124.0781 60.6406,124.3594 60.6406,124.6563 C60.6406,125.2188 61.0156,125.5 61.7656,125.5 L64.0313,125.5 C64.3906,125.5 64.6094,125.4688 64.7344,125.375 C65,125.2344 65.1406,124.9375 65.1406,124.6563 C65.1406,124.375 65.0156,124.125 64.7969,123.9531 C64.625,123.8281 64.4844,123.7969 64.0313,123.7969 L63.6406,123.7969 L64.0313,122.8125 L68.0781,122.8125 Z M67.375,121.1094 L64.7031,121.1094 L66.0469,117.8438 L67.375,121.1094 Z "/><text fill="#000000" font-family="sans-serif" font-size="12" font-style="italic" lengthAdjust="spacingAndGlyphs" textLength="102" x="80" y="125.1543">WithConsoleView</text><line style="stroke: #A80036; stroke-width: 1.5;" x1="52" x2="184" y1="137" y2="137"/><line style="stroke: #A80036; stroke-width: 1.5;" x1="52" x2="184" y1="145" y2="145"/><polygon fill="#4177AF" points="62,152,58,158,66,158" style="stroke: #1963A0; stroke-width: 1.0;"/><text fill="#000000" font-family="sans-serif" font-size="11" lengthAdjust="spacingAndGlyphs" textLength="107" x="71" y="159.2104">WithConsoleView()</text><!--MD5=[a090071046e0d57478ed9cefa6894ebc]
class usantatecla.mastermind.utils.YesNoDialog--><rect codeLine="37" fill="#FEFECE" filter="url(#fncqsw42yfu6e)" height="163.2422" id="usantatecla.mastermind.utils.YesNoDialog" style="stroke: #A80036; stroke-width: 1.5;" width="179" x="233.5" y="303"/><ellipse cx="280.75" cy="319" fill="#ADD1B2" rx="11" ry="11" style="stroke: #A80036; stroke-width: 1.0;"/><path d="M283.0938,314.6719 C282.1563,314.2344 281.5625,314.0938 280.6875,314.0938 C278.0625,314.0938 276.0625,316.1719 276.0625,318.8906 L276.0625,320.0156 C276.0625,322.5938 278.1719,324.4844 281.0625,324.4844 C282.2813,324.4844 283.4375,324.1875 284.1875,323.6406 C284.7656,323.2344 285.0938,322.7813 285.0938,322.3906 C285.0938,321.9375 284.7031,321.5469 284.2344,321.5469 C284.0156,321.5469 283.8125,321.625 283.625,321.8125 C283.1719,322.2969 283.1719,322.2969 282.9844,322.3906 C282.5625,322.6563 281.875,322.7813 281.1094,322.7813 C279.0625,322.7813 277.7656,321.6875 277.7656,319.9844 L277.7656,318.8906 C277.7656,317.1094 279.0156,315.7969 280.75,315.7969 C281.3281,315.7969 281.9375,315.9531 282.4063,316.2031 C282.8906,316.4844 283.0625,316.7031 283.1563,317.1094 C283.2188,317.5156 283.25,317.6406 283.3906,317.7656 C283.5313,317.9063 283.7656,318.0156 283.9844,318.0156 C284.25,318.0156 284.5156,317.875 284.6875,317.6563 C284.7969,317.5 284.8281,317.3125 284.8281,316.8906 L284.8281,315.4688 C284.8281,315.0313 284.8125,314.9063 284.7188,314.75 C284.5625,314.4844 284.2813,314.3438 283.9844,314.3438 C283.6875,314.3438 283.4844,314.4375 283.2656,314.75 L283.0938,314.6719 Z "/><text fill="#000000" font-family="sans-serif" font-size="12" lengthAdjust="spacingAndGlyphs" textLength="76" x="301.25" y="323.1543">YesNoDialog</text><line style="stroke: #A80036; stroke-width: 1.5;" x1="234.5" x2="411.5" y1="335" y2="335"/><rect fill="none" height="6" style="stroke: #C82930; stroke-width: 1.0;" width="6" x="241.5" y="343"/><text fill="#000000" font-family="sans-serif" font-size="11" lengthAdjust="spacingAndGlyphs" text-decoration="underline" textLength="97" x="253.5" y="349.2104">AFIRMATIVE: char</text><rect fill="none" height="6" style="stroke: #C82930; stroke-width: 1.0;" width="6" x="241.5" y="355.8047"/><text fill="#000000" font-family="sans-serif" font-size="11" lengthAdjust="spacingAndGlyphs" text-decoration="underline" textLength="88" x="253.5" y="362.0151">NEGATIVE: char</text><rect fill="none" height="6" style="stroke: #C82930; stroke-width: 1.0;" width="6" x="241.5" y="368.6094"/><text fill="#000000" font-family="sans-serif" font-size="11" lengthAdjust="spacingAndGlyphs" text-decoration="underline" textLength="99" x="253.5" y="374.8198">QUESTION: String</text><rect fill="none" height="6" style="stroke: #C82930; stroke-width: 1.0;" width="6" x="241.5" y="381.4141"/><text fill="#000000" font-family="sans-serif" font-size="11" lengthAdjust="spacingAndGlyphs" text-decoration="underline" textLength="96" x="253.5" y="387.6245">MESSAGE: String</text><line style="stroke: #A80036; stroke-width: 1.5;" x1="234.5" x2="411.5" y1="394.2188" y2="394.2188"/><ellipse cx="244.5" cy="405.2188" fill="#84BE84" rx="3" ry="3" style="stroke: #038048; stroke-width: 1.0;"/><text fill="#000000" font-family="sans-serif" font-size="11" lengthAdjust="spacingAndGlyphs" textLength="80" x="253.5" y="408.4292">YesNoDialog()</text><ellipse cx="244.5" cy="418.0234" fill="#84BE84" rx="3" ry="3" style="stroke: #038048; stroke-width: 1.0;"/><text fill="#000000" font-family="sans-serif" font-size="11" lengthAdjust="spacingAndGlyphs" textLength="120" x="253.5" y="421.2339">read(String): boolean</text><ellipse cx="244.5" cy="430.8281" fill="#84BE84" rx="3" ry="3" style="stroke: #038048; stroke-width: 1.0;"/><text fill="#000000" font-family="sans-serif" font-size="11" lengthAdjust="spacingAndGlyphs" textLength="87" x="253.5" y="434.0386">read(): boolean</text><rect fill="#F24D5C" height="6" style="stroke: #C82930; stroke-width: 1.0;" width="6" x="241.5" y="440.6328"/><text fill="#000000" font-family="sans-serif" font-size="11" lengthAdjust="spacingAndGlyphs" text-decoration="underline" textLength="153" x="253.5" y="446.8433">isAfirmative(char): boolean</text><rect fill="#F24D5C" height="6" style="stroke: #C82930; stroke-width: 1.0;" width="6" x="241.5" y="453.4375"/><text fill="#000000" font-family="sans-serif" font-size="11" lengthAdjust="spacingAndGlyphs" text-decoration="underline" textLength="146" x="253.5" y="459.6479">isNegative(char): boolean</text><!--MD5=[ee4f8f5c2b5eaa5df2ba8c0614cd4e83]
class BufferedReader--><rect codeLine="1" fill="#FEFECE" filter="url(#fncqsw42yfu6e)" height="48" id="BufferedReader" style="stroke: #A80036; stroke-width: 1.5;" width="168" x="31" y="539"/><ellipse cx="46" cy="555" fill="#ADD1B2" rx="11" ry="11" style="stroke: #A80036; stroke-width: 1.0;"/><path d="M48.3438,550.6719 C47.4063,550.2344 46.8125,550.0938 45.9375,550.0938 C43.3125,550.0938 41.3125,552.1719 41.3125,554.8906 L41.3125,556.0156 C41.3125,558.5938 43.4219,560.4844 46.3125,560.4844 C47.5313,560.4844 48.6875,560.1875 49.4375,559.6406 C50.0156,559.2344 50.3438,558.7813 50.3438,558.3906 C50.3438,557.9375 49.9531,557.5469 49.4844,557.5469 C49.2656,557.5469 49.0625,557.625 48.875,557.8125 C48.4219,558.2969 48.4219,558.2969 48.2344,558.3906 C47.8125,558.6563 47.125,558.7813 46.3594,558.7813 C44.3125,558.7813 43.0156,557.6875 43.0156,555.9844 L43.0156,554.8906 C43.0156,553.1094 44.2656,551.7969 46,551.7969 C46.5781,551.7969 47.1875,551.9531 47.6563,552.2031 C48.1406,552.4844 48.3125,552.7031 48.4063,553.1094 C48.4688,553.5156 48.5,553.6406 48.6406,553.7656 C48.7813,553.9063 49.0156,554.0156 49.2344,554.0156 C49.5,554.0156 49.7656,553.875 49.9375,553.6563 C50.0469,553.5 50.0781,553.3125 50.0781,552.8906 L50.0781,551.4688 C50.0781,551.0313 50.0625,550.9063 49.9688,550.75 C49.8125,550.4844 49.5313,550.3438 49.2344,550.3438 C48.9375,550.3438 48.7344,550.4375 48.5156,550.75 L48.3438,550.6719 Z "/><text fill="#000000" font-family="sans-serif" font-size="12" lengthAdjust="spacingAndGlyphs" textLength="136" x="60" y="559.1543">java.io.BufferedReader</text><line style="stroke: #A80036; stroke-width: 1.5;" x1="32" x2="198" y1="571" y2="571"/><line style="stroke: #A80036; stroke-width: 1.5;" x1="32" x2="198" y1="579" y2="579"/><!--MD5=[0f9796e4a2b1afd94eef96d387118a69]
link usantatecla.mastermind.utils.Console to BufferedReader--><path codeLine="30" d="M115,491.176 C115,491.176 115,515.719 115,525.7523 " fill="none" id="usantatecla.mastermind.utils.Console-BufferedReader" style="stroke: #A80036; stroke-width: 1.0;"/><polygon fill="#A80036" points="115,538.9123,119,529.9123,115,533.9123,111,529.9123,115,538.9123" style="stroke: #A80036; stroke-width: 1.0;"/><line style="stroke: #A80036; stroke-width: 1.0;" x1="115" x2="115" y1="533.9123" y2="525.9123"/><polygon fill="#A80036" points="115,479.176,111,485.176,115,491.176,119,485.176,115,479.176" style="stroke: #A80036; stroke-width: 1.0;"/><!--MD5=[1cc74b7ac800cb3b7f9b2678ccd6ade6]
link usantatecla.mastermind.utils.WithConsoleView to usantatecla.mastermind.utils.Console--><path codeLine="35" d="M117.493,178.2931 C117.493,178.2931 116.712,242.562 116.295,276.917 " fill="none" id="usantatecla.mastermind.utils.WithConsoleView-usantatecla.mastermind.utils.Console" style="stroke: #A80036; stroke-width: 1.0;"/><polygon fill="#A80036" points="116.136,289.975,120.2455,281.0245,116.197,284.9754,112.2461,280.9269,116.136,289.975" style="stroke: #A80036; stroke-width: 1.0;"/><line style="stroke: #A80036; stroke-width: 1.0;" x1="116.197" x2="116.294" y1="284.9754" y2="276.9755"/><polygon fill="#A80036" points="117.638,166.294,113.5658,172.2452,117.493,178.2931,121.5652,172.3419,117.638,166.294" style="stroke: #A80036; stroke-width: 1.0;"/><!--MD5=[9f55dd1223fd71f33843c38e870d8a99]
reverse link usantatecla.mastermind.utils.WithConsoleView to usantatecla.mastermind.utils.YesNoDialog--><path codeLine="48" d="M155.532,181.721 C183.568,215.502 222.637,262.575 255.988,302.759 " fill="none" id="usantatecla.mastermind.utils.WithConsoleView-backto-usantatecla.mastermind.utils.YesNoDialog" style="stroke: #A80036; stroke-width: 1.0;"/><polygon fill="none" points="150.114,186.154,142.728,166.294,160.887,177.213,150.114,186.154" style="stroke: #A80036; stroke-width: 1.0;"/><!--MD5=[00f95024e62e567b537d9c6a8c3370e1]
@startuml
class BufferedReader as "java.io.BufferedReader"{}

enum usantatecla.mastermind.utils.ColorCode{
+ RED
+ BLUE
+ YELLOW
+ GREEN
+ ORANGE
+ PURPLE
+ RESET_COLOR
- color: String
~ ColorCode(String)
+ getColor(): String
+ {static} getColorByIndex(int): String
}

class  usantatecla.mastermind.utils.Console{
+ {static} console: Console
+ {static} getInstance(): Console
+ readString(String): String
+ readString(): String
+ readInt(String): int
+ readChar(String): char
+ writeln()
+ write(String)
+ writeln(String)
+ write(char)
- writeError(String)
}
usantatecla.mastermind.utils.Console *-down-> BufferedReader

abstract class usantatecla.mastermind.utils.WithConsoleView{
~ WithConsoleView()
}
usantatecla.mastermind.utils.WithConsoleView *-down-> usantatecla.mastermind.utils.Console

class  usantatecla.mastermind.utils.YesNoDialog{
- {static} AFIRMATIVE: char
- {static} NEGATIVE: char
- {static} QUESTION: String
- {static} MESSAGE: String
+ YesNoDialog()
+ read(String): boolean
+ read(): boolean
- {static} isAfirmative(char): boolean
- {static} isNegative(char): boolean
}
usantatecla.mastermind.utils.WithConsoleView <|-down- usantatecla.mastermind.utils.YesNoDialog
@enduml

PlantUML version 1.2020.20beta7(Unknown compile time)
(GPL source distribution)
Java Runtime: Java(TM) SE Runtime Environment
JVM: Java HotSpot(TM) 64-Bit Server VM
Default Encoding: UTF-8
Language: en
Country: US
--></g></svg>