<?xml version="1.0" encoding="UTF-8" standalone="no"?><svg xmlns="http://www.w3.org/2000/svg" xmlns:xlink="http://www.w3.org/1999/xlink" contentScriptType="application/ecmascript" contentStyleType="text/css" height="614px" preserveAspectRatio="none" style="width:463px;height:614px;" version="1.1" viewBox="0 0 463 614" width="463px" zoomAndPan="magnify"><defs><filter height="300%" id="f1itvocw9focsd" width="300%" x="-1" y="-1"><feGaussianBlur result="blurOut" stdDeviation="2.0"/><feColorMatrix in="blurOut" result="blurOut2" type="matrix" values="0 0 0 0 0 0 0 0 0 0 0 0 0 0 0 0 0 0 .4 0"/><feOffset dx="4.0" dy="4.0" in="blurOut2" result="blurOut3"/><feBlend in="SourceGraphic" in2="blurOut3" mode="normal"/></filter></defs><g><!--MD5=[908cbfa8709a8ec6ee3beb0409fea32c]
cluster usantatecla.utils--><polygon fill="#FFFFFF" filter="url(#f1itvocw9focsd)" points="16,6,162,6,169,28.2969,446,28.2969,446,508,16,508,16,6" style="stroke: #000000; stroke-width: 1.5;"/><line style="stroke: #000000; stroke-width: 1.5;" x1="16" x2="169" y1="28.2969" y2="28.2969"/><text fill="#000000" font-family="sans-serif" font-size="14" font-weight="bold" lengthAdjust="spacingAndGlyphs" textLength="140" x="20" y="20.9951">usantatecla.utils</text><!--MD5=[5f6eaca964039dd95284677bcb120bda]
class usantatecla.utils.ColorCode--><rect codeLine="3" fill="#FEFECE" filter="url(#f1itvocw9focsd)" height="188.8516" id="usantatecla.utils.ColorCode" style="stroke: #A80036; stroke-width: 1.5;" width="183" x="246.5" y="41"/><ellipse cx="301.75" cy="57" fill="#EB937F" rx="11" ry="11" style="stroke: #A80036; stroke-width: 1.0;"/><path d="M300.5469,57.875 L302,57.875 L302,57.9844 C302,58.3906 302.0313,58.5469 302.1094,58.7031 C302.2656,58.9531 302.5469,59.1094 302.8438,59.1094 C303.0938,59.1094 303.3594,58.9688 303.5156,58.75 C303.6406,58.5938 303.6719,58.4375 303.6719,57.9844 L303.6719,56.0625 C303.6719,55.9063 303.6719,55.8594 303.6563,55.7031 C303.5938,55.2344 303.2813,54.9219 302.8281,54.9219 C302.5781,54.9219 302.3125,55.0625 302.1406,55.2813 C302.0313,55.4531 302,55.6094 302,56.0625 L302,56.1875 L300.5469,56.1875 L300.5469,53.7813 L304.5313,53.7813 L304.5313,54.6406 C304.5313,55.0469 304.5625,55.2188 304.6406,55.375 C304.8125,55.625 305.0938,55.7813 305.375,55.7813 C305.6406,55.7813 305.9063,55.6406 306.0781,55.4219 C306.1875,55.25 306.2188,55.1094 306.2188,54.6406 L306.2188,52.0938 L298.5938,52.0938 C298.1563,52.0938 298.0313,52.1094 297.875,52.2031 C297.625,52.3594 297.4688,52.6563 297.4688,52.9375 C297.4688,53.2188 297.6094,53.4688 297.8281,53.6406 C297.9844,53.75 298.1719,53.7813 298.5938,53.7813 L298.8438,53.7813 L298.8438,60.2969 L298.5938,60.2969 C298.1875,60.2969 298.0313,60.3125 297.875,60.4219 C297.625,60.5938 297.4688,60.8594 297.4688,61.1563 C297.4688,61.4219 297.6094,61.6719 297.8281,61.8281 C297.9688,61.9531 298.2031,62 298.5938,62 L306.5938,62 L306.5938,59.4219 C306.5938,58.9844 306.5625,58.8438 306.4844,58.6875 C306.3125,58.4375 306.0313,58.2813 305.75,58.2813 C305.4844,58.2813 305.2188,58.3906 305.0469,58.6406 C304.9375,58.7969 304.9063,58.9375 304.9063,59.4219 L304.9063,60.2969 L300.5469,60.2969 L300.5469,57.875 Z " fill="#000000"/><text fill="#000000" font-family="sans-serif" font-size="12" lengthAdjust="spacingAndGlyphs" textLength="64" x="322.25" y="61.1543">ColorCode</text><line style="stroke: #A80036; stroke-width: 1.5;" x1="247.5" x2="428.5" y1="73" y2="73"/><ellipse cx="257.5" cy="84" fill="none" rx="3" ry="3" style="stroke: #038048; stroke-width: 1.0;"/><text fill="#000000" font-family="sans-serif" font-size="11" lengthAdjust="spacingAndGlyphs" textLength="23" x="266.5" y="87.2104">RED</text><ellipse cx="257.5" cy="96.8047" fill="none" rx="3" ry="3" style="stroke: #038048; stroke-width: 1.0;"/><text fill="#000000" font-family="sans-serif" font-size="11" lengthAdjust="spacingAndGlyphs" textLength="29" x="266.5" y="100.0151">BLUE</text><ellipse cx="257.5" cy="109.6094" fill="none" rx="3" ry="3" style="stroke: #038048; stroke-width: 1.0;"/><text fill="#000000" font-family="sans-serif" font-size="11" lengthAdjust="spacingAndGlyphs" textLength="46" x="266.5" y="112.8198">YELLOW</text><ellipse cx="257.5" cy="122.4141" fill="none" rx="3" ry="3" style="stroke: #038048; stroke-width: 1.0;"/><text fill="#000000" font-family="sans-serif" font-size="11" lengthAdjust="spacingAndGlyphs" textLength="38" x="266.5" y="125.6245">GREEN</text><ellipse cx="257.5" cy="135.2188" fill="none" rx="3" ry="3" style="stroke: #038048; stroke-width: 1.0;"/><text fill="#000000" font-family="sans-serif" font-size="11" lengthAdjust="spacingAndGlyphs" textLength="48" x="266.5" y="138.4292">ORANGE</text><ellipse cx="257.5" cy="148.0234" fill="none" rx="3" ry="3" style="stroke: #038048; stroke-width: 1.0;"/><text fill="#000000" font-family="sans-serif" font-size="11" lengthAdjust="spacingAndGlyphs" textLength="40" x="266.5" y="151.2339">PURPLE</text><ellipse cx="257.5" cy="160.8281" fill="none" rx="3" ry="3" style="stroke: #038048; stroke-width: 1.0;"/><text fill="#000000" font-family="sans-serif" font-size="11" lengthAdjust="spacingAndGlyphs" textLength="81" x="266.5" y="164.0386">RESET_COLOR</text><rect fill="none" height="6" style="stroke: #C82930; stroke-width: 1.0;" width="6" x="254.5" y="170.6328"/><text fill="#000000" font-family="sans-serif" font-size="11" lengthAdjust="spacingAndGlyphs" textLength="67" x="266.5" y="176.8433">color: String</text><line style="stroke: #A80036; stroke-width: 1.5;" x1="247.5" x2="428.5" y1="183.4375" y2="183.4375"/><polygon fill="#4177AF" points="257.5,190.4375,253.5,196.4375,261.5,196.4375" style="stroke: #1963A0; stroke-width: 1.0;"/><text fill="#000000" font-family="sans-serif" font-size="11" lengthAdjust="spacingAndGlyphs" textLength="100" x="266.5" y="197.6479">ColorCode(String)</text><ellipse cx="257.5" cy="207.2422" fill="#84BE84" rx="3" ry="3" style="stroke: #038048; stroke-width: 1.0;"/><text fill="#000000" font-family="sans-serif" font-size="11" lengthAdjust="spacingAndGlyphs" textLength="96" x="266.5" y="210.4526">getColor(): String</text><ellipse cx="257.5" cy="220.0469" fill="#84BE84" rx="3" ry="3" style="stroke: #038048; stroke-width: 1.0;"/><text fill="#000000" font-family="sans-serif" font-size="11" lengthAdjust="spacingAndGlyphs" text-decoration="underline" textLength="157" x="266.5" y="223.2573">getColorByIndex(int): String</text><!--MD5=[5a5a2ad444bc00c1498d76ebf80a1dc4]
class usantatecla.utils.Console--><rect codeLine="17" fill="#FEFECE" filter="url(#f1itvocw9focsd)" height="201.6563" id="usantatecla.utils.Console" style="stroke: #A80036; stroke-width: 1.5;" width="214" x="32" y="290"/><ellipse cx="110.25" cy="306" fill="#ADD1B2" rx="11" ry="11" style="stroke: #A80036; stroke-width: 1.0;"/><path d="M112.5938,301.6719 C111.6563,301.2344 111.0625,301.0938 110.1875,301.0938 C107.5625,301.0938 105.5625,303.1719 105.5625,305.8906 L105.5625,307.0156 C105.5625,309.5938 107.6719,311.4844 110.5625,311.4844 C111.7813,311.4844 112.9375,311.1875 113.6875,310.6406 C114.2656,310.2344 114.5938,309.7813 114.5938,309.3906 C114.5938,308.9375 114.2031,308.5469 113.7344,308.5469 C113.5156,308.5469 113.3125,308.625 113.125,308.8125 C112.6719,309.2969 112.6719,309.2969 112.4844,309.3906 C112.0625,309.6563 111.375,309.7813 110.6094,309.7813 C108.5625,309.7813 107.2656,308.6875 107.2656,306.9844 L107.2656,305.8906 C107.2656,304.1094 108.5156,302.7969 110.25,302.7969 C110.8281,302.7969 111.4375,302.9531 111.9063,303.2031 C112.3906,303.4844 112.5625,303.7031 112.6563,304.1094 C112.7188,304.5156 112.75,304.6406 112.8906,304.7656 C113.0313,304.9063 113.2656,305.0156 113.4844,305.0156 C113.75,305.0156 114.0156,304.875 114.1875,304.6563 C114.2969,304.5 114.3281,304.3125 114.3281,303.8906 L114.3281,302.4688 C114.3281,302.0313 114.3125,301.9063 114.2188,301.75 C114.0625,301.4844 113.7813,301.3438 113.4844,301.3438 C113.1875,301.3438 112.9844,301.4375 112.7656,301.75 L112.5938,301.6719 Z " fill="#000000"/><text fill="#000000" font-family="sans-serif" font-size="12" lengthAdjust="spacingAndGlyphs" textLength="49" x="130.75" y="310.1543">Console</text><line style="stroke: #A80036; stroke-width: 1.5;" x1="33" x2="245" y1="322" y2="322"/><rect fill="none" height="6" style="stroke: #C82930; stroke-width: 1.0;" width="6" x="40" y="330"/><text fill="#000000" font-family="sans-serif" font-size="11" lengthAdjust="spacingAndGlyphs" text-decoration="underline" textLength="97" x="52" y="336.2104">console: Console</text><rect fill="none" height="6" style="stroke: #C82930; stroke-width: 1.0;" width="6" x="40" y="342.8047"/><text fill="#000000" font-family="sans-serif" font-size="11" lengthAdjust="spacingAndGlyphs" textLength="188" x="52" y="349.0151">bufferedReader: BufferedReader</text><line style="stroke: #A80036; stroke-width: 1.5;" x1="33" x2="245" y1="355.6094" y2="355.6094"/><ellipse cx="43" cy="366.6094" fill="#84BE84" rx="3" ry="3" style="stroke: #038048; stroke-width: 1.0;"/><text fill="#000000" font-family="sans-serif" font-size="11" lengthAdjust="spacingAndGlyphs" text-decoration="underline" textLength="128" x="52" y="369.8198">getInstance(): Console</text><ellipse cx="43" cy="379.4141" fill="#84BE84" rx="3" ry="3" style="stroke: #038048; stroke-width: 1.0;"/><text fill="#000000" font-family="sans-serif" font-size="11" lengthAdjust="spacingAndGlyphs" textLength="140" x="52" y="382.6245">readString(String): String</text><ellipse cx="43" cy="392.2188" fill="#84BE84" rx="3" ry="3" style="stroke: #038048; stroke-width: 1.0;"/><text fill="#000000" font-family="sans-serif" font-size="11" lengthAdjust="spacingAndGlyphs" textLength="107" x="52" y="395.4292">readString(): String</text><ellipse cx="43" cy="405.0234" fill="#84BE84" rx="3" ry="3" style="stroke: #038048; stroke-width: 1.0;"/><text fill="#000000" font-family="sans-serif" font-size="11" lengthAdjust="spacingAndGlyphs" textLength="102" x="52" y="408.2339">readInt(String): int</text><ellipse cx="43" cy="417.8281" fill="#84BE84" rx="3" ry="3" style="stroke: #038048; stroke-width: 1.0;"/><text fill="#000000" font-family="sans-serif" font-size="11" lengthAdjust="spacingAndGlyphs" textLength="124" x="52" y="421.0386">readChar(String): char</text><ellipse cx="43" cy="430.6328" fill="#84BE84" rx="3" ry="3" style="stroke: #038048; stroke-width: 1.0;"/><text fill="#000000" font-family="sans-serif" font-size="11" lengthAdjust="spacingAndGlyphs" textLength="46" x="52" y="433.8433">writeln()</text><ellipse cx="43" cy="443.4375" fill="#84BE84" rx="3" ry="3" style="stroke: #038048; stroke-width: 1.0;"/><text fill="#000000" font-family="sans-serif" font-size="11" lengthAdjust="spacingAndGlyphs" textLength="69" x="52" y="446.6479">write(String)</text><ellipse cx="43" cy="456.2422" fill="#84BE84" rx="3" ry="3" style="stroke: #038048; stroke-width: 1.0;"/><text fill="#000000" font-family="sans-serif" font-size="11" lengthAdjust="spacingAndGlyphs" textLength="79" x="52" y="459.4526">writeln(String)</text><ellipse cx="43" cy="469.0469" fill="#84BE84" rx="3" ry="3" style="stroke: #038048; stroke-width: 1.0;"/><text fill="#000000" font-family="sans-serif" font-size="11" lengthAdjust="spacingAndGlyphs" textLength="60" x="52" y="472.2573">write(char)</text><rect fill="#F24D5C" height="6" style="stroke: #C82930; stroke-width: 1.0;" width="6" x="40" y="478.8516"/><text fill="#000000" font-family="sans-serif" font-size="11" lengthAdjust="spacingAndGlyphs" textLength="95" x="52" y="485.062">writeError(String)</text><!--MD5=[115031fed92a4467bd358dd9ee6729dd]
class usantatecla.utils.YesNoDialog--><rect codeLine="33" fill="#FEFECE" filter="url(#f1itvocw9focsd)" height="150.4375" id="usantatecla.utils.YesNoDialog" style="stroke: #A80036; stroke-width: 1.5;" width="179" x="32.5" y="60.5"/><ellipse cx="79.75" cy="76.5" fill="#ADD1B2" rx="11" ry="11" style="stroke: #A80036; stroke-width: 1.0;"/><path d="M82.0938,72.1719 C81.1563,71.7344 80.5625,71.5938 79.6875,71.5938 C77.0625,71.5938 75.0625,73.6719 75.0625,76.3906 L75.0625,77.5156 C75.0625,80.0938 77.1719,81.9844 80.0625,81.9844 C81.2813,81.9844 82.4375,81.6875 83.1875,81.1406 C83.7656,80.7344 84.0938,80.2813 84.0938,79.8906 C84.0938,79.4375 83.7031,79.0469 83.2344,79.0469 C83.0156,79.0469 82.8125,79.125 82.625,79.3125 C82.1719,79.7969 82.1719,79.7969 81.9844,79.8906 C81.5625,80.1563 80.875,80.2813 80.1094,80.2813 C78.0625,80.2813 76.7656,79.1875 76.7656,77.4844 L76.7656,76.3906 C76.7656,74.6094 78.0156,73.2969 79.75,73.2969 C80.3281,73.2969 80.9375,73.4531 81.4063,73.7031 C81.8906,73.9844 82.0625,74.2031 82.1563,74.6094 C82.2188,75.0156 82.25,75.1406 82.3906,75.2656 C82.5313,75.4063 82.7656,75.5156 82.9844,75.5156 C83.25,75.5156 83.5156,75.375 83.6875,75.1563 C83.7969,75 83.8281,74.8125 83.8281,74.3906 L83.8281,72.9688 C83.8281,72.5313 83.8125,72.4063 83.7188,72.25 C83.5625,71.9844 83.2813,71.8438 82.9844,71.8438 C82.6875,71.8438 82.4844,71.9375 82.2656,72.25 L82.0938,72.1719 Z " fill="#000000"/><text fill="#000000" font-family="sans-serif" font-size="12" lengthAdjust="spacingAndGlyphs" textLength="76" x="100.25" y="80.6543">YesNoDialog</text><line style="stroke: #A80036; stroke-width: 1.5;" x1="33.5" x2="210.5" y1="92.5" y2="92.5"/><rect fill="none" height="6" style="stroke: #C82930; stroke-width: 1.0;" width="6" x="40.5" y="100.5"/><text fill="#000000" font-family="sans-serif" font-size="11" lengthAdjust="spacingAndGlyphs" text-decoration="underline" textLength="97" x="52.5" y="106.7104">AFIRMATIVE: char</text><rect fill="none" height="6" style="stroke: #C82930; stroke-width: 1.0;" width="6" x="40.5" y="113.3047"/><text fill="#000000" font-family="sans-serif" font-size="11" lengthAdjust="spacingAndGlyphs" text-decoration="underline" textLength="88" x="52.5" y="119.5151">NEGATIVE: char</text><rect fill="none" height="6" style="stroke: #C82930; stroke-width: 1.0;" width="6" x="40.5" y="126.1094"/><text fill="#000000" font-family="sans-serif" font-size="11" lengthAdjust="spacingAndGlyphs" text-decoration="underline" textLength="99" x="52.5" y="132.3198">QUESTION: String</text><rect fill="none" height="6" style="stroke: #C82930; stroke-width: 1.0;" width="6" x="40.5" y="138.9141"/><text fill="#000000" font-family="sans-serif" font-size="11" lengthAdjust="spacingAndGlyphs" text-decoration="underline" textLength="96" x="52.5" y="145.1245">MESSAGE: String</text><line style="stroke: #A80036; stroke-width: 1.5;" x1="33.5" x2="210.5" y1="151.7188" y2="151.7188"/><ellipse cx="43.5" cy="162.7188" fill="#84BE84" rx="3" ry="3" style="stroke: #038048; stroke-width: 1.0;"/><text fill="#000000" font-family="sans-serif" font-size="11" lengthAdjust="spacingAndGlyphs" textLength="80" x="52.5" y="165.9292">YesNoDialog()</text><ellipse cx="43.5" cy="175.5234" fill="#84BE84" rx="3" ry="3" style="stroke: #038048; stroke-width: 1.0;"/><text fill="#000000" font-family="sans-serif" font-size="11" lengthAdjust="spacingAndGlyphs" textLength="120" x="52.5" y="178.7339">read(String): boolean</text><rect fill="#F24D5C" height="6" style="stroke: #C82930; stroke-width: 1.0;" width="6" x="40.5" y="185.3281"/><text fill="#000000" font-family="sans-serif" font-size="11" lengthAdjust="spacingAndGlyphs" text-decoration="underline" textLength="153" x="52.5" y="191.5386">isAfirmative(char): boolean</text><rect fill="#F24D5C" height="6" style="stroke: #C82930; stroke-width: 1.0;" width="6" x="40.5" y="198.1328"/><text fill="#000000" font-family="sans-serif" font-size="11" lengthAdjust="spacingAndGlyphs" text-decoration="underline" textLength="146" x="52.5" y="204.3433">isNegative(char): boolean</text><!--MD5=[ee4f8f5c2b5eaa5df2ba8c0614cd4e83]
class BufferedReader--><rect codeLine="1" fill="#FEFECE" filter="url(#f1itvocw9focsd)" height="48" id="BufferedReader" style="stroke: #A80036; stroke-width: 1.5;" width="168" x="55" y="552"/><ellipse cx="70" cy="568" fill="#ADD1B2" rx="11" ry="11" style="stroke: #A80036; stroke-width: 1.0;"/><path d="M72.3438,563.6719 C71.4063,563.2344 70.8125,563.0938 69.9375,563.0938 C67.3125,563.0938 65.3125,565.1719 65.3125,567.8906 L65.3125,569.0156 C65.3125,571.5938 67.4219,573.4844 70.3125,573.4844 C71.5313,573.4844 72.6875,573.1875 73.4375,572.6406 C74.0156,572.2344 74.3438,571.7813 74.3438,571.3906 C74.3438,570.9375 73.9531,570.5469 73.4844,570.5469 C73.2656,570.5469 73.0625,570.625 72.875,570.8125 C72.4219,571.2969 72.4219,571.2969 72.2344,571.3906 C71.8125,571.6563 71.125,571.7813 70.3594,571.7813 C68.3125,571.7813 67.0156,570.6875 67.0156,568.9844 L67.0156,567.8906 C67.0156,566.1094 68.2656,564.7969 70,564.7969 C70.5781,564.7969 71.1875,564.9531 71.6563,565.2031 C72.1406,565.4844 72.3125,565.7031 72.4063,566.1094 C72.4688,566.5156 72.5,566.6406 72.6406,566.7656 C72.7813,566.9063 73.0156,567.0156 73.2344,567.0156 C73.5,567.0156 73.7656,566.875 73.9375,566.6563 C74.0469,566.5 74.0781,566.3125 74.0781,565.8906 L74.0781,564.4688 C74.0781,564.0313 74.0625,563.9063 73.9688,563.75 C73.8125,563.4844 73.5313,563.3438 73.2344,563.3438 C72.9375,563.3438 72.7344,563.4375 72.5156,563.75 L72.3438,563.6719 Z " fill="#000000"/><text fill="#000000" font-family="sans-serif" font-size="12" lengthAdjust="spacingAndGlyphs" textLength="136" x="84" y="572.1543">java.io.BufferedReader</text><line style="stroke: #A80036; stroke-width: 1.5;" x1="56" x2="222" y1="584" y2="584"/><line style="stroke: #A80036; stroke-width: 1.5;" x1="56" x2="222" y1="592" y2="592"/><!--MD5=[14426ff67e875e6661b88179367ed759]
link usantatecla.utils.Console to BufferedReader--><path codeLine="31" d="M139,504.067 C139,504.067 139,528.5956 139,538.5834 " fill="none" id="usantatecla.utils.Console-BufferedReader" style="stroke: #A80036; stroke-width: 1.0;"/><polygon fill="#A80036" points="139,551.6836,143,542.6836,139,546.6836,135,542.6836,139,551.6836" style="stroke: #A80036; stroke-width: 1.0;"/><line style="stroke: #A80036; stroke-width: 1.0;" x1="139" x2="139" y1="546.6836" y2="538.6836"/><polygon fill="#A80036" points="139,492.067,135,498.067,139,504.067,143,498.067,139,492.067" style="stroke: #A80036; stroke-width: 1.0;"/><!--MD5=[bef9209ee563bd0cab945b38e8120dbd]
link usantatecla.utils.YesNoDialog to usantatecla.utils.Console--><path codeLine="43" d="M126.963,210.504 C128.518,233.698 130.266,259.76 131.937,284.684 " fill="none" id="usantatecla.utils.YesNoDialog-to-usantatecla.utils.Console" style="stroke: #A80036; stroke-width: 1.0; stroke-dasharray: 7.0,7.0;"/><polygon fill="#A80036" points="132.293,289.984,135.6823,280.7367,131.9587,284.9952,127.7002,281.2716,132.293,289.984" style="stroke: #A80036; stroke-width: 1.0;"/><!--MD5=[56b9729504cf248b36c321f877bfeefb]
@startuml
class BufferedReader as "java.io.BufferedReader"{}

enum usantatecla.utils.ColorCode{
+ RED
+ BLUE
+ YELLOW
+ GREEN
+ ORANGE
+ PURPLE
+ RESET_COLOR
- color: String
~ ColorCode(String)
+ getColor(): String
+ {static} getColorByIndex(int): String
}

class usantatecla.utils.Console{
- {static} console: Console
- bufferedReader: BufferedReader
+ {static} getInstance(): Console
+ readString(String): String
+ readString(): String
+ readInt(String): int
+ readChar(String): char
+ writeln()
+ write(String)
+ writeln(String)
+ write(char)
- writeError(String)
}
usantatecla.utils.Console *-down-> BufferedReader

class  usantatecla.utils.YesNoDialog{
- {static} AFIRMATIVE: char
- {static} NEGATIVE: char
- {static} QUESTION: String
- {static} MESSAGE: String
+ YesNoDialog()
+ read(String): boolean
- {static} isAfirmative(char): boolean
- {static} isNegative(char): boolean
}
usantatecla.utils.YesNoDialog ..> usantatecla.utils.Console
@enduml

PlantUML version 1.2020.20beta10(Unknown compile time)
(GPL source distribution)
Java Runtime: Java(TM) SE Runtime Environment
JVM: Java HotSpot(TM) 64-Bit Server VM
Default Encoding: UTF-8
Language: en
Country: US
--></g></svg>