<?xml version="1.0" encoding="UTF-8" standalone="no"?><svg xmlns="http://www.w3.org/2000/svg" xmlns:xlink="http://www.w3.org/1999/xlink" contentScriptType="application/ecmascript" contentStyleType="text/css" height="159px" preserveAspectRatio="none" style="width:2364px;height:159px;" version="1.1" viewBox="0 0 2364 159" width="2364px" zoomAndPan="magnify"><defs><filter height="300%" id="f1huy6irfb1byh" width="300%" x="-1" y="-1"><feGaussianBlur result="blurOut" stdDeviation="2.0"/><feColorMatrix in="blurOut" result="blurOut2" type="matrix" values="0 0 0 0 0 0 0 0 0 0 0 0 0 0 0 0 0 0 .4 0"/><feOffset dx="4.0" dy="4.0" in="blurOut2" result="blurOut3"/><feBlend in="SourceGraphic" in2="blurOut3" mode="normal"/></filter></defs><g><!--MD5=[57ffb8338356de9df77d7af266454cb4]
entity mastermind--><polygon fill="#FFFFFF" filter="url(#f1huy6irfb1byh)" points="16,113,120,113,127,135.2969,144,135.2969,144,152.2969,16,152.2969,16,113" style="stroke:#000000;stroke-width:1.5;"/><line style="stroke:#000000;stroke-width:1.5;" x1="16" x2="127" y1="135.2969" y2="135.2969"/><text fill="#000000" font-family="sans-serif" font-size="14" font-weight="bold" lengthAdjust="spacingAndGlyphs" textLength="98" x="20" y="128.9951">mastermind</text><!--MD5=[bb1ad33323c1038098dafe3f406d0dfa]
entity mastermind.controllers--><polygon fill="#FFFFFF" filter="url(#f1huy6irfb1byh)" points="179,113,377,113,384,135.2969,401,135.2969,401,152.2969,179,152.2969,179,113" style="stroke:#000000;stroke-width:1.5;"/><line style="stroke:#000000;stroke-width:1.5;" x1="179" x2="384" y1="135.2969" y2="135.2969"/><text fill="#000000" font-family="sans-serif" font-size="14" font-weight="bold" lengthAdjust="spacingAndGlyphs" textLength="192" x="183" y="128.9951">mastermind.controllers</text><!--MD5=[3808e49a38455c25368b5f4e5a503c92]
entity mastermind.models--><polygon fill="#FFFFFF" filter="url(#f1huy6irfb1byh)" points="436.5,113,603.5,113,610.5,135.2969,627.5,135.2969,627.5,152.2969,436.5,152.2969,436.5,113" style="stroke:#000000;stroke-width:1.5;"/><line style="stroke:#000000;stroke-width:1.5;" x1="436.5" x2="610.5" y1="135.2969" y2="135.2969"/><text fill="#000000" font-family="sans-serif" font-size="14" font-weight="bold" lengthAdjust="spacingAndGlyphs" textLength="161" x="440.5" y="128.9951">mastermind.models</text><!--MD5=[6e2ec829ccd307027eb6d5d05d3e36de]
entity mastermind.views--><polygon fill="#FFFFFF" filter="url(#f1huy6irfb1byh)" points="663,113,817,113,824,135.2969,841,135.2969,841,152.2969,663,152.2969,663,113" style="stroke:#000000;stroke-width:1.5;"/><line style="stroke:#000000;stroke-width:1.5;" x1="663" x2="824" y1="135.2969" y2="135.2969"/><text fill="#000000" font-family="sans-serif" font-size="14" font-weight="bold" lengthAdjust="spacingAndGlyphs" textLength="148" x="667" y="128.9951">mastermind.views</text><!--MD5=[a07bbc7eafaaea337a8bd1096c6c5d02]
entity mastermind.views.console--><polygon fill="#FFFFFF" filter="url(#f1huy6irfb1byh)" points="876.5,113,1097.5,113,1104.5,135.2969,1121.5,135.2969,1121.5,152.2969,876.5,152.2969,876.5,113" style="stroke:#000000;stroke-width:1.5;"/><line style="stroke:#000000;stroke-width:1.5;" x1="876.5" x2="1104.5" y1="135.2969" y2="135.2969"/><text fill="#000000" font-family="sans-serif" font-size="14" font-weight="bold" lengthAdjust="spacingAndGlyphs" textLength="215" x="880.5" y="128.9951">mastermind.views.console</text><!--MD5=[ff3dc41352bd67a03fbabcb5335907a5]
entity mastermind.views.graphics--><polygon fill="#FFFFFF" filter="url(#f1huy6irfb1byh)" points="1156.5,113,1385.5,113,1392.5,135.2969,1409.5,135.2969,1409.5,152.2969,1156.5,152.2969,1156.5,113" style="stroke:#000000;stroke-width:1.5;"/><line style="stroke:#000000;stroke-width:1.5;" x1="1156.5" x2="1392.5" y1="135.2969" y2="135.2969"/><text fill="#000000" font-family="sans-serif" font-size="14" font-weight="bold" lengthAdjust="spacingAndGlyphs" textLength="223" x="1160.5" y="128.9951">mastermind.views.graphics</text><!--MD5=[6a9e74483831f672b7ced4933d9e76ca]
entity mastermind.utils--><polygon fill="#FFFFFF" filter="url(#f1huy6irfb1byh)" points="1445,113,1591,113,1598,135.2969,1615,135.2969,1615,152.2969,1445,152.2969,1445,113" style="stroke:#000000;stroke-width:1.5;"/><line style="stroke:#000000;stroke-width:1.5;" x1="1445" x2="1598" y1="135.2969" y2="135.2969"/><text fill="#000000" font-family="sans-serif" font-size="14" font-weight="bold" lengthAdjust="spacingAndGlyphs" textLength="140" x="1449" y="128.9951">mastermind.utils</text><!--MD5=[48fa9072fd51d9920e6db8484beec696]
entity java.io--><polygon fill="#FFFFFF" filter="url(#f1huy6irfb1byh)" points="1650,113,1710,113,1717,135.2969,1734,135.2969,1734,152.2969,1650,152.2969,1650,113" style="stroke:#000000;stroke-width:1.5;"/><line style="stroke:#000000;stroke-width:1.5;" x1="1650" x2="1717" y1="135.2969" y2="135.2969"/><text fill="#000000" font-family="sans-serif" font-size="14" font-weight="bold" lengthAdjust="spacingAndGlyphs" textLength="54" x="1654" y="128.9951">java.io</text><!--MD5=[034f0f7ed136bf78fc117f7e41f76e93]
entity java.util--><polygon fill="#FFFFFF" filter="url(#f1huy6irfb1byh)" points="1769.5,113,1842.5,113,1849.5,135.2969,1866.5,135.2969,1866.5,152.2969,1769.5,152.2969,1769.5,113" style="stroke:#000000;stroke-width:1.5;"/><line style="stroke:#000000;stroke-width:1.5;" x1="1769.5" x2="1849.5" y1="135.2969" y2="135.2969"/><text fill="#000000" font-family="sans-serif" font-size="14" font-weight="bold" lengthAdjust="spacingAndGlyphs" textLength="67" x="1773.5" y="128.9951">java.util</text><!--MD5=[cee830b0dacb2a92fd7272b0f6421cad]
entity java.awt--><polygon fill="#FFFFFF" filter="url(#f1huy6irfb1byh)" points="1902,113,1978,113,1985,135.2969,2002,135.2969,2002,152.2969,1902,152.2969,1902,113" style="stroke:#000000;stroke-width:1.5;"/><line style="stroke:#000000;stroke-width:1.5;" x1="1902" x2="1985" y1="135.2969" y2="135.2969"/><text fill="#000000" font-family="sans-serif" font-size="14" font-weight="bold" lengthAdjust="spacingAndGlyphs" textLength="70" x="1906" y="128.9951">java.awt</text><!--MD5=[518d1bd3a278ae5fa44dea63a13588cc]
entity java.awt.event--><polygon fill="#FFFFFF" filter="url(#f1huy6irfb1byh)" points="2037,113,2163,113,2170,135.2969,2187,135.2969,2187,152.2969,2037,152.2969,2037,113" style="stroke:#000000;stroke-width:1.5;"/><line style="stroke:#000000;stroke-width:1.5;" x1="2037" x2="2170" y1="135.2969" y2="135.2969"/><text fill="#000000" font-family="sans-serif" font-size="14" font-weight="bold" lengthAdjust="spacingAndGlyphs" textLength="120" x="2041" y="128.9951">java.awt.event</text><!--MD5=[5cd50222042deac7751bbdb096247501]
entity javax.swing--><polygon fill="#FFFFFF" filter="url(#f1huy6irfb1byh)" points="2222.5,113,2323.5,113,2330.5,135.2969,2347.5,135.2969,2347.5,152.2969,2222.5,152.2969,2222.5,113" style="stroke:#000000;stroke-width:1.5;"/><line style="stroke:#000000;stroke-width:1.5;" x1="2222.5" x2="2330.5" y1="135.2969" y2="135.2969"/><text fill="#000000" font-family="sans-serif" font-size="14" font-weight="bold" lengthAdjust="spacingAndGlyphs" textLength="95" x="2226.5" y="128.9951">javax.swing</text><!--MD5=[c2796faf4134bd8b5f3bc71f44d02e74]
entity jar--><rect fill="#FEFECE" filter="url(#f1huy6irfb1byh)" height="46.2969" style="stroke:#A80036;stroke-width:1.5;" width="150" x="1331" y="7"/><rect fill="#FEFECE" height="10" style="stroke:#A80036;stroke-width:1.5;" width="15" x="1461" y="12"/><rect fill="#FEFECE" height="2" style="stroke:#A80036;stroke-width:1.5;" width="4" x="1459" y="14"/><rect fill="#FEFECE" height="2" style="stroke:#A80036;stroke-width:1.5;" width="4" x="1459" y="18"/><text fill="#000000" font-family="sans-serif" font-size="14" lengthAdjust="spacingAndGlyphs" textLength="110" x="1346" y="39.9951">mastermind.jar</text><!--MD5=[fbe73378274df7025ec7ec540169909c]
link jar to mastermind--><path d="M1318.8414,31.9866 C1318.8414,31.9866 591.735,50.033 161,113 C159.814,113.1734 158.619,113.3551 157.417,113.5443 " fill="none" id="jar-mastermind" style="stroke:#A80036;stroke-width:1.0;"/><polygon fill="#A80036" points="144.377,115.8267,153.9319,118.215,149.3021,114.9646,152.5525,110.3348,144.377,115.8267" style="stroke:#A80036;stroke-width:1.0;"/><line style="stroke:#A80036;stroke-width:1.0;" x1="149.3021" x2="157.1815" y1="114.9646" y2="113.5855"/><polygon fill="#A80036" points="1330.84,31.802,1324.7792,27.8948,1318.8414,31.9866,1324.9022,35.8938,1330.84,31.802" style="stroke:#A80036;stroke-width:1.0;"/><!--MD5=[9de6542bf230468157d8ceffc8804774]
link jar to mastermind.controllers--><path d="M1318.9652,36.482 C1318.9652,36.482 749.951,75.5549 419,113 C417.356,113.186 415.701,113.3765 414.036,113.571 " fill="none" id="jar-mastermind.controllers" style="stroke:#A80036;stroke-width:1.0;"/><polygon fill="#A80036" points="401.124,115.1352,410.5399,118.0232,406.0877,114.5336,409.5773,110.0813,401.124,115.1352" style="stroke:#A80036;stroke-width:1.0;"/><line style="stroke:#A80036;stroke-width:1.0;" x1="406.0877" x2="414.0295" y1="114.5336" y2="113.5717"/><polygon fill="#A80036" points="1330.94,35.704,1324.6933,32.1014,1318.9652,36.482,1325.212,40.0846,1330.94,35.704" style="stroke:#A80036;stroke-width:1.0;"/><!--MD5=[5074ba4a694366b975a5201a6215192f]
link jar to mastermind.models--><path d="M1318.8112,38.8327 C1318.8112,38.8327 887.687,80.0842 645,113 C643.483,113.2058 641.954,113.416 640.417,113.6301 " fill="none" id="jar-mastermind.models" style="stroke:#A80036;stroke-width:1.0;"/><polygon fill="#A80036" points="627.503,115.4861,636.9803,118.1657,632.4522,114.7751,635.8427,110.247,627.503,115.4861" style="stroke:#A80036;stroke-width:1.0;"/><line style="stroke:#A80036;stroke-width:1.0;" x1="632.4522" x2="640.371" y1="114.7751" y2="113.6366"/><polygon fill="#A80036" points="1330.76,37.725,1324.4164,34.2959,1318.8112,38.8327,1325.1549,42.2618,1330.76,37.725" style="stroke:#A80036;stroke-width:1.0;"/><!--MD5=[f69683ffa0975f0f6cffc0c7de9e9342]
link jar to mastermind.views--><path d="M1318.8331,43.4562 C1318.8331,43.4562 1020.53,86.9316 859,113 C857.351,113.2661 855.688,113.5359 854.014,113.8089 " fill="none" id="jar-mastermind.views" style="stroke:#A80036;stroke-width:1.0;"/><polygon fill="#A80036" points="841.013,115.9542,850.544,118.4361,845.9463,115.1405,849.242,110.5428,841.013,115.9542" style="stroke:#A80036;stroke-width:1.0;"/><line style="stroke:#A80036;stroke-width:1.0;" x1="845.9463" x2="853.8395" y1="115.1405" y2="113.8377"/><polygon fill="#A80036" points="1330.71,41.742,1324.2001,38.6401,1318.8331,43.4562,1325.3429,46.5581,1330.71,41.742" style="stroke:#A80036;stroke-width:1.0;"/><!--MD5=[aa404eabcdc7c44b7274536f18c4e70e]
link jar to mastermind.views.console--><path d="M1319.2326,52.4374 C1319.2326,52.4374 1155.29,92.907 1086.91,109.7918 " fill="none" id="jar-mastermind.views.console" style="stroke:#A80036;stroke-width:1.0;"/><polygon fill="#A80036" points="1074.03,112.9729,1083.7262,114.7003,1078.8844,111.7751,1081.8096,106.9333,1074.03,112.9729" style="stroke:#A80036;stroke-width:1.0;"/><line style="stroke:#A80036;stroke-width:1.0;" x1="1078.8844" x2="1086.65" y1="111.7751" y2="109.8563"/><polygon fill="#A80036" points="1330.88,49.55,1324.0938,47.1112,1319.2326,52.4374,1326.0187,54.8762,1330.88,49.55" style="stroke:#A80036;stroke-width:1.0;"/><!--MD5=[43d5963c27e8c70a92bb968c998259ea]
link jar to mastermind.views.graphics--><path d="M1369.7189,60.6497 C1369.7189,60.6497 1332.21,91.2926 1315.94,104.5884 " fill="none" id="jar-mastermind.views.graphics" style="stroke:#A80036;stroke-width:1.0;"/><polygon fill="#A80036" points="1305.8,112.868,1315.2998,110.2692,1309.6713,109.7036,1310.2368,104.0751,1305.8,112.868" style="stroke:#A80036;stroke-width:1.0;"/><line style="stroke:#A80036;stroke-width:1.0;" x1="1309.6713" x2="1315.87" y1="109.7036" y2="104.6426"/><polygon fill="#A80036" points="1379.01,53.0552,1371.833,53.7554,1369.7189,60.6497,1376.8959,59.9495,1379.01,53.0552" style="stroke:#A80036;stroke-width:1.0;"/><!--MD5=[5c9f1a9218d110a34ca822ba20fe7b3f]
link jar to mastermind.utils--><path d="M1442.5324,60.6111 C1442.5324,60.6111 1480.39,91.2926 1496.8,104.5884 " fill="none" id="jar-mastermind.utils" style="stroke:#A80036;stroke-width:1.0;"/><polygon fill="#A80036" points="1507.01,112.868,1502.5368,104.0936,1503.1257,109.7197,1497.4995,110.3085,1507.01,112.868" style="stroke:#A80036;stroke-width:1.0;"/><line style="stroke:#A80036;stroke-width:1.0;" x1="1503.1257" x2="1496.915" y1="109.7197" y2="104.6826"/><polygon fill="#A80036" points="1433.21,53.0552,1435.3526,59.9406,1442.5324,60.6111,1440.3899,53.7257,1433.21,53.0552" style="stroke:#A80036;stroke-width:1.0;"/><!--MD5=[f17a38c250a1605cd3da9b9fac2ef94b]
link jar to java.io--><path d="M1480.0801,57.0372 C1480.0801,57.0372 1592.99,96.7067 1637.21,112.2454 " fill="none" id="jar-java.io" style="stroke:#A80036;stroke-width:1.0;"/><polygon fill="#A80036" points="1649.73,116.6464,1642.5603,109.894,1645.0116,114.9921,1639.9134,117.4435,1649.73,116.6464" style="stroke:#A80036;stroke-width:1.0;"/><line style="stroke:#A80036;stroke-width:1.0;" x1="1645.0116" x2="1637.465" y1="114.9921" y2="112.3365"/><polygon fill="#A80036" points="1468.76,53.0552,1473.0927,58.8195,1480.0801,57.0372,1475.7474,51.2728,1468.76,53.0552" style="stroke:#A80036;stroke-width:1.0;"/><!--MD5=[a929e6d2b54380e4c3e4c2b17ce7cd9b]
link jar to java.util--><path d="M1492.8306,50.545 C1492.8306,50.545 1664.51,90.3798 1752,113 C1753.59,113.4105 1755.2,113.8304 1756.82,114.2575 " fill="none" id="jar-java.util" style="stroke:#A80036;stroke-width:1.0;"/><polygon fill="#A80036" points="1769.4,117.6367,1761.7453,111.4395,1764.5711,116.34,1759.6706,119.1658,1769.4,117.6367" style="stroke:#A80036;stroke-width:1.0;"/><line style="stroke:#A80036;stroke-width:1.0;" x1="1764.5711" x2="1756.85" y1="116.34" y2="114.2652"/><polygon fill="#A80036" points="1481.13,47.881,1486.0923,53.1132,1492.8306,50.545,1487.8683,45.3128,1481.13,47.881" style="stroke:#A80036;stroke-width:1.0;"/><!--MD5=[5c3a1a3f46264e9db3e30d7bbbf0baac]
link jar to java.awt--><path d="M1493.2331,43.3878 C1493.2331,43.3878 1749.01,83.1305 1884,113 C1885.61,113.3568 1887.24,113.7275 1888.89,114.1095 " fill="none" id="jar-java.awt" style="stroke:#A80036;stroke-width:1.0;"/><polygon fill="#A80036" points="1901.63,117.22,1893.8366,111.1982,1896.7729,116.0333,1891.9378,118.9696,1901.63,117.22" style="stroke:#A80036;stroke-width:1.0;"/><line style="stroke:#A80036;stroke-width:1.0;" x1="1896.7729" x2="1889" y1="116.0333" y2="114.1372"/><polygon fill="#A80036" points="1481.36,41.647,1486.7163,46.4751,1493.2331,43.3878,1487.8768,38.5597,1481.36,41.647" style="stroke:#A80036;stroke-width:1.0;"/><!--MD5=[3b7f23bc43aaeafb3da1fe03574e9b5d]
link jar to java.awt.event--><path d="M1493.2999,40.8355 C1493.2999,40.8355 1833.67,81.8577 2020,113 C2021.28,113.214 2022.57,113.4326 2023.87,113.6554 " fill="none" id="jar-java.awt.event" style="stroke:#A80036;stroke-width:1.0;"/><polygon fill="#A80036" points="2036.76,115.9524,2028.5975,110.4412,2031.8369,115.0787,2027.1995,118.3182,2036.76,115.9524" style="stroke:#A80036;stroke-width:1.0;"/><line style="stroke:#A80036;stroke-width:1.0;" x1="2031.8369" x2="2023.965" y1="115.0787" y2="113.6725"/><polygon fill="#A80036" points="1481.38,39.451,1486.8784,44.1165,1493.2999,40.8355,1487.8014,36.17,1481.38,39.451" style="stroke:#A80036;stroke-width:1.0;"/><!--MD5=[d7db4d17f150ddbfee08d92ae5b03c8c]
link jar to javax.swing--><path d="M1493.0239,36.3522 C1493.0239,36.3522 1948.72,70.3887 2205,113 C2206.41,113.2338 2207.82,113.4776 2209.25,113.7302 " fill="none" id="jar-javax.swing" style="stroke:#A80036;stroke-width:1.0;"/><polygon fill="#A80036" points="2222.26,116.2113,2214.1658,110.6003,2217.348,115.2771,2212.6711,118.4594,2222.26,116.2113" style="stroke:#A80036;stroke-width:1.0;"/><line style="stroke:#A80036;stroke-width:1.0;" x1="2217.348" x2="2209.49" y1="115.2771" y2="113.776"/><polygon fill="#A80036" points="1481.05,35.561,1486.7732,39.9479,1493.0239,36.3522,1487.3007,31.9653,1481.05,35.561" style="stroke:#A80036;stroke-width:1.0;"/><!--MD5=[4f5ef27bc6103ec6fb2d84e02fc64e20]
@startuml
package "  "  as mastermind {
}
package "  "  as mastermind.controllers {
}
package "  "  as mastermind.models {
}
package "  "  as mastermind.views {
}
package "  "  as mastermind.views.console {
}
package "  "  as mastermind.views.graphics {
}
package "  "  as mastermind.utils {
}
package "  "  as java.io {
}
package "  "  as java.util {
}
package "  "  as java.awt {
}
package "  "  as java.awt.event {
}
package "  "  as javax.swing {
}

[mastermind.jar] as jar

jar *- -> mastermind
jar *- -> mastermind.controllers
jar *- -> mastermind.models
jar *- -> mastermind.views
jar *- -> mastermind.views.console
jar *- -> mastermind.views.graphics
jar *- -> mastermind.utils
jar *- -> java.io
jar *- -> java.util
jar *- -> java.awt
jar *- -> java.awt.event
jar *- -> javax.swing
@enduml

PlantUML version 1.2020.21beta3(Unknown compile time)
(GPL source distribution)
Java Runtime: Java(TM) SE Runtime Environment
JVM: Java HotSpot(TM) 64-Bit Server VM
Default Encoding: UTF-8
Language: en
Country: US
--></g></svg>