<?xml version="1.0" encoding="UTF-8" standalone="no"?><svg xmlns="http://www.w3.org/2000/svg" xmlns:xlink="http://www.w3.org/1999/xlink" contentScriptType="application/ecmascript" contentStyleType="text/css" height="404px" preserveAspectRatio="none" style="width:512px;height:404px;" version="1.1" viewBox="0 0 512 404" width="512px" zoomAndPan="magnify"><defs><filter height="300%" id="f1joki3ds8618g" width="300%" x="-1" y="-1"><feGaussianBlur result="blurOut" stdDeviation="2.0"/><feColorMatrix in="blurOut" result="blurOut2" type="matrix" values="0 0 0 0 0 0 0 0 0 0 0 0 0 0 0 0 0 0 .4 0"/><feOffset dx="4.0" dy="4.0" in="blurOut2" result="blurOut3"/><feBlend in="SourceGraphic" in2="blurOut3" mode="normal"/></filter></defs><g><polygon fill="#DDDDDD" filter="url(#f1joki3ds8618g)" points="141.5,6,348.5,6,355.5,28.2969,362.5,28.2969,362.5,58.5938,141.5,58.5938,141.5,6" style="stroke: #000000; stroke-width: 1.5;"/><line style="stroke: #000000; stroke-width: 1.5;" x1="141.5" x2="355.5" y1="28.2969" y2="28.2969"/><text fill="#000000" font-family="sans-serif" font-size="14" font-weight="bold" lengthAdjust="spacingAndGlyphs" textLength="201" x="145.5" y="20.9951">usantatecla.mastermind</text><polygon fill="#DDDDDD" filter="url(#f1joki3ds8618g)" points="16,232,286,232,293,254.2969,300,254.2969,300,284.5938,16,284.5938,16,232" style="stroke: #000000; stroke-width: 1.5;"/><line style="stroke: #000000; stroke-width: 1.5;" x1="16" x2="293" y1="254.2969" y2="254.2969"/><text fill="#000000" font-family="sans-serif" font-size="14" font-weight="bold" lengthAdjust="spacingAndGlyphs" textLength="264" x="20" y="246.9951">usantatecla.mastermind.models</text><polygon fill="#FFFFFF" filter="url(#f1joki3ds8618g)" points="114.5,345,187.5,345,194.5,367.2969,201.5,367.2969,201.5,397.5938,114.5,397.5938,114.5,345" style="stroke: #000000; stroke-width: 1.5;"/><line style="stroke: #000000; stroke-width: 1.5;" x1="114.5" x2="194.5" y1="367.2969" y2="367.2969"/><text fill="#000000" font-family="sans-serif" font-size="14" font-weight="bold" lengthAdjust="spacingAndGlyphs" textLength="67" x="118.5" y="359.9951">java.util</text><polygon fill="#DDDDDD" filter="url(#f1joki3ds8618g)" points="335,232,481,232,488,254.2969,495,254.2969,495,284.5938,335,284.5938,335,232" style="stroke: #000000; stroke-width: 1.5;"/><line style="stroke: #000000; stroke-width: 1.5;" x1="335" x2="488" y1="254.2969" y2="254.2969"/><text fill="#000000" font-family="sans-serif" font-size="14" font-weight="bold" lengthAdjust="spacingAndGlyphs" textLength="140" x="339" y="246.9951">usantatecla.utils</text><polygon fill="#FFFFFF" filter="url(#f1joki3ds8618g)" points="378,345,438,345,445,367.2969,452,367.2969,452,397.5938,378,397.5938,378,345" style="stroke: #000000; stroke-width: 1.5;"/><line style="stroke: #000000; stroke-width: 1.5;" x1="378" x2="445" y1="367.2969" y2="367.2969"/><text fill="#000000" font-family="sans-serif" font-size="14" font-weight="bold" lengthAdjust="spacingAndGlyphs" textLength="54" x="382" y="359.9951">java.io</text><polygon fill="#DDDDDD" filter="url(#f1joki3ds8618g)" points="211.5,119,468.5,119,475.5,141.2969,482.5,141.2969,482.5,171.5938,211.5,171.5938,211.5,119" style="stroke: #000000; stroke-width: 1.5;"/><line style="stroke: #000000; stroke-width: 1.5;" x1="211.5" x2="475.5" y1="141.2969" y2="141.2969"/><text fill="#000000" font-family="sans-serif" font-size="14" font-weight="bold" lengthAdjust="spacingAndGlyphs" textLength="251" x="215.5" y="133.9951">usantatecla.mastermind.views</text><!--MD5=[4e19c524e2c69b87d36da5f0fb3d6b68]
link usantatecla.mastermind to usantatecla.mastermind.views--><path codeLine="2" d="M274.034,59.245 C288.302,75.916 306.923,97.673 321.782,115.035 " fill="none" id="usantatecla.mastermind-to-usantatecla.mastermind.views" style="stroke: #A80036; stroke-width: 1.0; stroke-dasharray: 7.0,7.0;"/><polygon fill="#A80036" points="325.086,118.895,322.2723,109.4566,321.8346,115.0965,316.1947,114.6588,325.086,118.895" style="stroke: #A80036; stroke-width: 1.0;"/><!--MD5=[1b01179086f6bbc1e835b05fcb7da69a]
link usantatecla.mastermind to usantatecla.mastermind.models--><path codeLine="3" d="M231.233,59.066 C218.881,75.374 203.766,97.431 194,119 C178.034,154.262 168.167,197.903 162.89,226.663 " fill="none" id="usantatecla.mastermind-to-usantatecla.mastermind.models" style="stroke: #A80036; stroke-width: 1.0; stroke-dasharray: 7.0,7.0;"/><polygon fill="#A80036" points="161.957,231.855,167.4856,223.7043,162.8412,226.9338,159.6117,222.2895,161.957,231.855" style="stroke: #A80036; stroke-width: 1.0;"/><!--MD5=[58f66f5f60379dd70ef75cb976dcb215]
link usantatecla.mastermind.models to java.util--><path d="M158,285.245 C158,301.4958 158,322.5795 158,339.7139 " fill="none" id="usantatecla.mastermind.models-to-java.util" style="stroke: #A80036; stroke-width: 1.0; stroke-dasharray: 7.0,7.0;"/><polygon fill="#A80036" points="158,344.895,162,335.895,158,339.895,154,335.895,158,344.895" style="stroke: #A80036; stroke-width: 1.0;"/><!--MD5=[f7f372d3543268b8cc298f05137e5dac]
link usantatecla.utils to java.io--><path d="M415,285.245 C415,301.4958 415,322.5795 415,339.7139 " fill="none" id="usantatecla.utils-to-java.io" style="stroke: #A80036; stroke-width: 1.0; stroke-dasharray: 7.0,7.0;"/><polygon fill="#A80036" points="415,344.895,419,335.895,415,339.895,411,335.895,415,344.895" style="stroke: #A80036; stroke-width: 1.0;"/><!--MD5=[49315a8911a3f054d41fa10ad9349828]
link usantatecla.mastermind.views to usantatecla.mastermind.models--><path d="M303.165,172.245 C274.062,189.336 235.859,211.773 205.948,229.34 " fill="none" id="usantatecla.mastermind.views-to-usantatecla.mastermind.models" style="stroke: #A80036; stroke-width: 1.0; stroke-dasharray: 7.0,7.0;"/><polygon fill="#A80036" points="201.598,231.895,211.3844,230.7875,205.9097,229.3634,207.3338,223.8887,201.598,231.895" style="stroke: #A80036; stroke-width: 1.0;"/><!--MD5=[4379480885f901f79907d45b42c7ea73]
link usantatecla.mastermind.views to usantatecla.utils--><path d="M362.771,172.245 C372.899,188.776 386.09,210.308 396.681,227.597 " fill="none" id="usantatecla.mastermind.views-to-usantatecla.utils" style="stroke: #A80036; stroke-width: 1.0; stroke-dasharray: 7.0,7.0;"/><polygon fill="#A80036" points="399.314,231.895,398.0211,222.1314,396.7011,227.6321,391.2004,226.312,399.314,231.895" style="stroke: #A80036; stroke-width: 1.0;"/><!--MD5=[a888329165818cb4cf975f31c0918e54]
@startuml
package usantatecla.mastermind #DDDDDD { }
usantatecla.mastermind .down.> usantatecla.mastermind.views
usantatecla.mastermind .down.> usantatecla.mastermind.models

package usantatecla.mastermind.models #DDDDDD { }
package java.util{ }
usantatecla.mastermind.models .down.> java.util

package usantatecla.utils #DDDDDD { }
package java.io{ }
usantatecla.utils .down.> java.io

package usantatecla.mastermind.views #DDDDDD { }
usantatecla.mastermind.views .down.> usantatecla.mastermind.models
usantatecla.mastermind.views .down.> usantatecla.utils
@enduml

PlantUML version 1.2020.20beta11(Unknown compile time)
(GPL source distribution)
Java Runtime: Java(TM) SE Runtime Environment
JVM: Java HotSpot(TM) 64-Bit Server VM
Default Encoding: UTF-8
Language: en
Country: US
--></g></svg>